%TF.GenerationSoftware,KiCad,Pcbnew,7.0.7*%
%TF.CreationDate,2024-01-17T15:08:19-08:00*%
%TF.ProjectId,beeper-design,62656570-6572-42d6-9465-7369676e2e6b,rev?*%
%TF.SameCoordinates,Original*%
%TF.FileFunction,Copper,L4,Bot*%
%TF.FilePolarity,Positive*%
%FSLAX46Y46*%
G04 Gerber Fmt 4.6, Leading zero omitted, Abs format (unit mm)*
G04 Created by KiCad (PCBNEW 7.0.7) date 2024-01-17 15:08:19*
%MOMM*%
%LPD*%
G01*
G04 APERTURE LIST*
%TA.AperFunction,SMDPad,CuDef*%
%ADD10C,1.000000*%
%TD*%
%TA.AperFunction,SMDPad,CuDef*%
%ADD11C,0.787000*%
%TD*%
%TA.AperFunction,SMDPad,CuDef*%
%ADD12R,0.400000X1.350000*%
%TD*%
%TA.AperFunction,SMDPad,CuDef*%
%ADD13R,1.400000X1.900000*%
%TD*%
%TA.AperFunction,SMDPad,CuDef*%
%ADD14R,1.600000X1.900000*%
%TD*%
%TA.AperFunction,ViaPad*%
%ADD15C,0.400000*%
%TD*%
%TA.AperFunction,ViaPad*%
%ADD16C,0.250000*%
%TD*%
%TA.AperFunction,Conductor*%
%ADD17C,0.075000*%
%TD*%
G04 APERTURE END LIST*
D10*
%TO.P,TP4,p*%
%TO.N,SP_N*%
X152251110Y-107880430D03*
%TD*%
%TO.P,TP3,p*%
%TO.N,SP_P*%
X152235589Y-109145315D03*
%TD*%
%TO.P,TP13,p*%
%TO.N,cap_p1*%
X150681159Y-99493094D03*
%TD*%
%TO.P,TP14,p*%
%TO.N,AC2*%
X149380120Y-99477470D03*
%TD*%
D11*
%TO.P,J1,2*%
%TO.N,mcu_mcu-dbg-m33_swdio*%
X130301393Y-103815525D03*
%TO.P,J1,4*%
%TO.N,mcu_mcu-dbg-m33_swdclk*%
X130301393Y-102545525D03*
%TO.P,J1,6*%
%TO.N,mcu_mcu-uart_tx*%
X130301393Y-101275525D03*
%TO.P,J1,1*%
%TO.N,VBUS*%
X129031393Y-103815525D03*
%TO.P,J1,3*%
%TO.N,mcu_conn-uart_rx*%
X129031393Y-102545525D03*
%TO.P,J1,5*%
%TO.N,GND*%
X129031393Y-101275525D03*
%TD*%
D12*
%TO.P,J6,1*%
%TO.N,VBUS*%
X138401369Y-102638144D03*
%TO.P,J6,2*%
%TO.N,D-*%
X137751369Y-102638144D03*
%TO.P,J6,3*%
%TO.N,D+*%
X137101369Y-102638144D03*
%TO.P,J6,4*%
%TO.N,ID*%
X136451369Y-102638144D03*
%TO.P,J6,5*%
%TO.N,GND*%
X135801369Y-102638144D03*
D13*
%TO.P,J6,6*%
%TO.N,SHIELD*%
X136151369Y-99963144D03*
%TO.P,J6,7*%
X138051369Y-99963144D03*
D14*
%TO.P,J6,8*%
X132901369Y-99963144D03*
%TO.P,J6,9*%
X141301369Y-99963144D03*
%TD*%
D10*
%TO.P,TP11,p*%
%TO.N,VBAT*%
X143021457Y-99511848D03*
%TD*%
%TO.P,TP9,p*%
%TO.N,mcu_mcu-etm_data3*%
X136540550Y-107385438D03*
%TD*%
%TO.P,TP10,p*%
%TO.N,GND*%
X138946950Y-106182238D03*
%TD*%
%TO.P,TP1,p*%
%TO.N,OUT+*%
X127087222Y-106339377D03*
%TD*%
%TO.P,TP6,p*%
%TO.N,mcu_mcu-etm_data0*%
X137743750Y-106182238D03*
%TD*%
%TO.P,TP2,p*%
%TO.N,OUT-*%
X127071659Y-105165988D03*
%TD*%
%TO.P,TP5,p*%
%TO.N,mcu_mcu-etm_clk*%
X136540550Y-106182238D03*
%TD*%
%TO.P,TP12,p*%
%TO.N,GND*%
X144158639Y-99506956D03*
%TD*%
%TO.P,TP8,p*%
%TO.N,mcu_mcu-etm_data2*%
X138946950Y-107385438D03*
%TD*%
%TO.P,TP7,p*%
%TO.N,mcu_mcu-etm_data1*%
X137743750Y-107385438D03*
%TD*%
D15*
%TO.N,GND*%
X143575073Y-101370644D03*
D16*
X151354476Y-104415097D03*
D15*
X126240526Y-108423762D03*
X152711911Y-111192564D03*
X138422325Y-104037396D03*
X126259751Y-103538415D03*
X148605548Y-102305725D03*
X129713698Y-109601468D03*
X126259751Y-104094665D03*
D16*
X138505165Y-110260086D03*
X136705165Y-112060086D03*
D15*
X140205110Y-107243578D03*
D16*
X139405165Y-111610086D03*
D15*
X144814899Y-99034754D03*
X133897649Y-117005688D03*
D16*
X141191434Y-113867717D03*
X136407665Y-113617586D03*
D15*
X126253026Y-109467512D03*
X152799901Y-103522006D03*
X152711911Y-111784766D03*
D16*
X138505165Y-114760086D03*
D15*
X152793651Y-102990756D03*
D16*
X136705165Y-112960086D03*
D15*
X133890953Y-112656040D03*
X134419031Y-117022690D03*
D16*
X136407665Y-114967586D03*
D15*
X143875200Y-102372149D03*
D16*
X137155165Y-112960086D03*
D15*
X141382907Y-104922276D03*
X146498655Y-113498351D03*
D16*
X138955165Y-112060086D03*
D15*
X152856151Y-99790756D03*
X126246776Y-108942512D03*
X133387602Y-117000021D03*
D16*
X139405165Y-112510086D03*
D15*
X152837401Y-100315756D03*
X149154405Y-106113213D03*
X140194743Y-105415830D03*
X144168737Y-114869371D03*
D16*
X136857665Y-114967586D03*
D15*
X132354230Y-117002334D03*
X152812401Y-101378256D03*
D16*
X139855165Y-112510086D03*
D15*
X152793651Y-102447006D03*
X131841349Y-117005168D03*
D16*
X141655165Y-109810086D03*
X138055165Y-110260086D03*
D15*
X144945957Y-113738611D03*
X132872778Y-117002334D03*
D16*
X138505165Y-111610086D03*
D15*
X152824901Y-100847006D03*
X141700420Y-107317823D03*
X152703073Y-110618040D03*
D16*
X137757665Y-114517586D03*
D15*
X126240526Y-109992512D03*
X126246776Y-107905012D03*
X126244945Y-99856584D03*
X135461795Y-117005688D03*
X126253501Y-101950915D03*
D16*
X141655165Y-111610086D03*
D15*
X152720750Y-110052354D03*
X142647398Y-110810142D03*
X126253026Y-105798762D03*
X126258203Y-100373656D03*
X152694234Y-113720471D03*
X152711911Y-115125845D03*
X126253501Y-100894665D03*
X128251091Y-101228437D03*
D16*
X137757665Y-114967586D03*
D15*
X136830023Y-105006633D03*
X152694234Y-114409900D03*
X134934746Y-117017023D03*
X152793651Y-104047006D03*
D16*
X139405165Y-112060086D03*
D15*
X147316827Y-109072434D03*
X152703073Y-113075236D03*
X126272251Y-104650915D03*
X149161034Y-108872389D03*
D16*
X139855165Y-112060086D03*
D15*
X126247251Y-103000915D03*
X135697203Y-111949233D03*
D16*
X136407665Y-114067586D03*
D15*
X131401879Y-107139540D03*
X138348657Y-105724581D03*
X146839751Y-104076758D03*
X152729402Y-115643825D03*
X126280462Y-105271625D03*
D16*
X138955165Y-111610086D03*
D15*
X126240526Y-107373762D03*
X152793651Y-101903256D03*
X126249365Y-99335093D03*
X126253501Y-102450915D03*
X126240526Y-110517512D03*
X126253501Y-101432165D03*
X126246776Y-106317512D03*
X131325197Y-117003876D03*
X135824509Y-101545734D03*
D16*
X151354476Y-106415097D03*
D15*
X126246776Y-106836262D03*
X152711911Y-112421162D03*
X130804246Y-116979832D03*
D16*
%TO.N,mcu_mcu-etm_data3*%
X139405165Y-110710086D03*
D15*
%TO.N,VBUS*%
X145719549Y-104167509D03*
X138401907Y-101609453D03*
X141795237Y-101387518D03*
X128286276Y-103832108D03*
D16*
%TO.N,VDD1P8*%
X141205165Y-110710086D03*
D15*
X130773738Y-108610382D03*
X129970343Y-110296899D03*
X133758692Y-109149897D03*
%TO.N,AC2*%
X150035218Y-100088430D03*
%TO.N,VDDSYS*%
X135253660Y-106168638D03*
X135245811Y-105084379D03*
X152205282Y-106653960D03*
X133173574Y-104909491D03*
X145736583Y-111169977D03*
D16*
X140755165Y-109810086D03*
D15*
X145717991Y-107794103D03*
%TO.N,QVAR2*%
X141115303Y-116773148D03*
X135382966Y-114320626D03*
%TO.N,FOD*%
X145395132Y-101008981D03*
D16*
X146163236Y-101299687D03*
%TO.N,mcu_mcu-mem_sdio3*%
X140755165Y-112510086D03*
X144512568Y-115468836D03*
D15*
%TO.N,mcu_mcu-uart_tx*%
X131099595Y-101264852D03*
D16*
X138055165Y-112060086D03*
D15*
%TO.N,cap_p1*%
X150713795Y-100350924D03*
D16*
%TO.N,mcu_mcu-etm_clk*%
X139855165Y-110710086D03*
D15*
X136813812Y-105468849D03*
D16*
%TO.N,mcu_conn-uart_rx*%
X138505165Y-112060086D03*
D15*
X128307419Y-102542244D03*
D16*
%TO.N,VDD3P0*%
X151354476Y-107415097D03*
D15*
X139485444Y-106837731D03*
X150032519Y-106716031D03*
%TO.N,OUT-*%
X131981324Y-105628398D03*
D16*
%TO.N,codec-i2c-net_scl*%
X150674476Y-105915097D03*
D15*
X149135986Y-104674643D03*
X142078952Y-114703743D03*
D16*
%TO.N,RECT*%
X147363236Y-101299687D03*
D15*
X147432192Y-100388488D03*
%TO.N,board-io_rgb_r*%
X139570173Y-108951200D03*
X142899067Y-104366671D03*
%TO.N,mcu_q-spi_sdi*%
X132328370Y-107500892D03*
X136085542Y-110946589D03*
%TO.N,SHIELD*%
X137117093Y-99981882D03*
%TO.N,mcu_hap-i2c_sda*%
X137982440Y-109241617D03*
X138776380Y-109309812D03*
%TO.N,mcu_mcu-wpwr2_gpio*%
X146062497Y-102528897D03*
D16*
X140755165Y-110710086D03*
D15*
%TO.N,mcu_mcu-wpwr3_gpio*%
X145245596Y-100348780D03*
D16*
X139855165Y-111160086D03*
D15*
%TO.N,mcu_mcu-etm_data1*%
X138610093Y-108833959D03*
%TO.N,V14*%
X143452612Y-109789874D03*
X139386679Y-116595891D03*
D16*
%TO.N,CLAMP1*%
X146563236Y-101699687D03*
D15*
X147538753Y-104259505D03*
D16*
%TO.N,mcu_mcu-etm_data0*%
X138505165Y-111160086D03*
D15*
%TO.N,VBAT*%
X142151568Y-105049570D03*
D16*
%TO.N,mcu_mcu-mem_sdio2*%
X140305165Y-111610086D03*
X143812568Y-115868836D03*
D15*
%TO.N,codec-i2c-net_sda*%
X142405550Y-112118891D03*
X149104453Y-105382189D03*
D16*
X151014476Y-106165097D03*
D15*
%TO.N,mcu_hap-gpio1_gpio*%
X134334368Y-105632680D03*
D16*
X138055165Y-111610086D03*
D15*
%TO.N,OUT+*%
X132066160Y-106806138D03*
D16*
%TO.N,mcu_mcu-mem_sck*%
X144512568Y-115868836D03*
X140305165Y-112510086D03*
%TO.N,mcu_mcu-mem_cs*%
X140755165Y-111160086D03*
X143812568Y-115068836D03*
%TO.N,mcu_mcu-mem_sdio0*%
X144162568Y-115668836D03*
X139405165Y-111160086D03*
D15*
%TO.N,mcu_hap-i2c_scl*%
X133976982Y-104745882D03*
D16*
X137605165Y-112060086D03*
D15*
%TO.N,mcu_mcu-button2_gpio*%
X142694670Y-112843262D03*
D16*
X140755165Y-111610086D03*
D15*
%TO.N,D+*%
X137089972Y-103576428D03*
X142309553Y-113834073D03*
%TO.N,CLAMP2*%
X146170132Y-100282418D03*
D16*
X146563236Y-101299687D03*
%TO.N,mcu_mcu-wpwr0_gpio*%
X140305165Y-110710086D03*
D15*
X144600759Y-102778021D03*
%TO.N,mcu_mcu-etm_data2*%
X138331450Y-106815731D03*
X136249569Y-109365791D03*
D16*
%TO.N,SP_P*%
X151354476Y-106915097D03*
D15*
%TO.N,mcu_mcu-dbg-m33_swdclk*%
X127049008Y-103397477D03*
%TO.N,D-*%
X137734812Y-103603566D03*
X142929816Y-114303052D03*
%TO.N,QVAR1*%
X130784824Y-109115470D03*
%TO.N,mcu_mcu-dbg-m33_swdio*%
X127590593Y-103948199D03*
X136132564Y-113110803D03*
D16*
%TO.N,SP_N*%
X151694476Y-107165097D03*
%TD*%
D17*
%TO.N,GND*%
X138946950Y-106182238D02*
X138348657Y-105724581D01*
X129031393Y-101275525D02*
X128251091Y-101228437D01*
X135801369Y-102638144D02*
X135824509Y-101545734D01*
X144158639Y-99506956D02*
X144814899Y-99034754D01*
%TO.N,mcu_mcu-etm_data3*%
X139405165Y-110710086D02*
X138205039Y-109041798D01*
X138205033Y-109041802D02*
G75*
G03*
X138194357Y-109029272I-81233J-58398D01*
G01*
X138194358Y-109029271D02*
X136540550Y-107385438D01*
%TO.N,VBUS*%
X138401369Y-102638144D02*
X138401907Y-101609453D01*
X129031393Y-103815525D02*
X128286276Y-103832108D01*
%TO.N,AC2*%
X150035218Y-100088430D02*
X149380120Y-99477470D01*
%TO.N,mcu_mcu-mem_sdio3*%
X140755165Y-112510086D02*
X142354890Y-113467764D01*
X142354890Y-113467764D02*
G75*
G03*
X142360189Y-113470894I265010J442664D01*
G01*
X142360189Y-113470894D02*
X144295604Y-114598184D01*
X144300829Y-114601451D02*
G75*
G03*
X144295604Y-114598184I-56229J-84149D01*
G01*
X144300831Y-114601448D02*
X144365715Y-114644802D01*
X144393303Y-114672393D02*
G75*
G03*
X144365715Y-114644803I-83203J-55607D01*
G01*
X144393305Y-114672392D02*
X144436660Y-114737277D01*
X144451577Y-114773328D02*
G75*
G03*
X144436659Y-114737278I-98077J-19472D01*
G01*
X144451591Y-114773325D02*
X144466815Y-114849862D01*
X144468474Y-114862122D02*
G75*
G03*
X144466815Y-114849862I-99874J-7278D01*
G01*
X144468474Y-114862122D02*
X144512568Y-115468836D01*
%TO.N,mcu_mcu-uart_tx*%
X130301393Y-101275525D02*
X131099595Y-101264852D01*
%TO.N,cap_p1*%
X150681159Y-99493094D02*
X150713795Y-100350924D01*
%TO.N,mcu_mcu-etm_clk*%
X136540550Y-106182238D02*
X136813812Y-105468849D01*
%TO.N,mcu_conn-uart_rx*%
X129031393Y-102545525D02*
X128307419Y-102542244D01*
%TO.N,OUT-*%
X127071659Y-105165988D02*
X129444440Y-105689781D01*
X129444440Y-105689781D02*
G75*
G03*
X129447510Y-105690424I32160J145781D01*
G01*
X129447510Y-105690425D02*
X129637130Y-105728143D01*
X129637130Y-105728141D02*
G75*
G03*
X129673046Y-105730877I29270J147141D01*
G01*
X129673046Y-105730877D02*
X131981324Y-105628398D01*
%TO.N,SHIELD*%
X136151369Y-99963144D02*
X137011445Y-99701437D01*
X137021047Y-99699030D02*
G75*
G03*
X137011445Y-99701437I19553J-98370D01*
G01*
X137021047Y-99699028D02*
X137097584Y-99683804D01*
X137136602Y-99683805D02*
G75*
G03*
X137097584Y-99683805I-19509J-98050D01*
G01*
X137136602Y-99683804D02*
X137213138Y-99699028D01*
X137223746Y-99701754D02*
G75*
G03*
X137213138Y-99699028I-30046J-94946D01*
G01*
X137223747Y-99701750D02*
X138051369Y-99963144D01*
X138051369Y-99963144D02*
X138948288Y-100564829D01*
X138948292Y-100564823D02*
G75*
G03*
X139002589Y-100587380I83608J124623D01*
G01*
X139002589Y-100587380D02*
X139022106Y-100591262D01*
X139022107Y-100591255D02*
G75*
G03*
X139051369Y-100594144I29293J147055D01*
G01*
X139051369Y-100594144D02*
X139901369Y-100594144D01*
X139901369Y-100594139D02*
G75*
G03*
X139930633Y-100591262I31J149939D01*
G01*
X139930633Y-100591262D02*
X139950150Y-100587380D01*
X139950148Y-100587372D02*
G75*
G03*
X139984185Y-100576252I-29248J147172D01*
G01*
X139984185Y-100576252D02*
X141301369Y-99963144D01*
X136151369Y-99963144D02*
X137117093Y-99981882D01*
X132901369Y-99963144D02*
X134218554Y-100576252D01*
X134218557Y-100576246D02*
G75*
G03*
X134252589Y-100587380I63343J136046D01*
G01*
X134252589Y-100587380D02*
X134272106Y-100591262D01*
X134272107Y-100591255D02*
G75*
G03*
X134301369Y-100594144I29293J147055D01*
G01*
X134301369Y-100594144D02*
X135151369Y-100594144D01*
X135151369Y-100594139D02*
G75*
G03*
X135180633Y-100591262I31J149939D01*
G01*
X135180633Y-100591262D02*
X135200150Y-100587380D01*
X135200147Y-100587365D02*
G75*
G03*
X135254451Y-100564828I-29247J147165D01*
G01*
X135254451Y-100564829D02*
X136151369Y-99963144D01*
%TO.N,mcu_mcu-etm_data1*%
X137743750Y-107385438D02*
X138610093Y-108833959D01*
%TO.N,mcu_mcu-etm_data0*%
X137743750Y-106182238D02*
X136781431Y-106731044D01*
X136751240Y-106742287D02*
G75*
G03*
X136781431Y-106731043I-19340J98087D01*
G01*
X136751240Y-106742288D02*
X136329860Y-106825388D01*
X136329861Y-106825391D02*
G75*
G03*
X136293651Y-106840351I19339J-98109D01*
G01*
X136293651Y-106840351D02*
X136131440Y-106948737D01*
X136131442Y-106948740D02*
G75*
G03*
X136103850Y-106976327I55558J-83160D01*
G01*
X136103850Y-106976327D02*
X135995463Y-107138539D01*
X135995466Y-107138541D02*
G75*
G03*
X135980532Y-107174587I83134J-55559D01*
G01*
X135980532Y-107174587D02*
X135942471Y-107365929D01*
X135942457Y-107365926D02*
G75*
G03*
X135942472Y-107404947I98143J-19474D01*
G01*
X135942471Y-107404947D02*
X135980532Y-107596289D01*
X135980538Y-107596288D02*
G75*
G03*
X135995463Y-107632337I98062J19488D01*
G01*
X135995463Y-107632337D02*
X136103850Y-107794548D01*
X136103851Y-107794547D02*
G75*
G03*
X136104383Y-107795337I113649J75947D01*
G01*
X136104382Y-107795338D02*
X137884162Y-110404821D01*
X137884161Y-110404821D02*
G75*
G03*
X137889562Y-110412017I82139J56021D01*
G01*
X137889561Y-110412017D02*
X138505165Y-111160086D01*
%TO.N,VBAT*%
X143021457Y-99511848D02*
X142151568Y-105049570D01*
%TO.N,mcu_mcu-mem_sdio2*%
X143812568Y-115868836D02*
X144342213Y-116187780D01*
X144342207Y-116187790D02*
G75*
G03*
X144418399Y-116217257I122493J203490D01*
G01*
X144418399Y-116217258D02*
X144466234Y-116226773D01*
X144466234Y-116226772D02*
G75*
G03*
X144558902Y-116226772I46334J232962D01*
G01*
X144558902Y-116226773D02*
X144606737Y-116217258D01*
X144606736Y-116217255D02*
G75*
G03*
X144692351Y-116181795I-46336J232955D01*
G01*
X144692351Y-116181795D02*
X144732904Y-116154699D01*
X144732893Y-116154683D02*
G75*
G03*
X144798430Y-116089173I-131893J197483D01*
G01*
X144798430Y-116089173D02*
X144825527Y-116048620D01*
X144825527Y-116048620D02*
G75*
G03*
X144851079Y-115998312I-197427J131920D01*
G01*
X144851080Y-115998312D02*
X144980201Y-115645578D01*
X144980198Y-115645577D02*
G75*
G03*
X144995846Y-115589831I-351998J128877D01*
G01*
X144995847Y-115589831D02*
X145005362Y-115541995D01*
X145005347Y-115541992D02*
G75*
G03*
X145005361Y-115395678I-367747J73192D01*
G01*
X145005362Y-115395678D02*
X144995847Y-115347842D01*
X144995846Y-115347842D02*
G75*
G03*
X144994806Y-115342795I-357046J-70958D01*
G01*
X144994807Y-115342795D02*
X144854744Y-114685953D01*
X144854730Y-114685956D02*
G75*
G03*
X144779640Y-114508105I-501230J-106844D01*
G01*
X144779641Y-114508104D02*
X144736286Y-114443220D01*
X144736284Y-114443221D02*
G75*
G03*
X144594887Y-114301822I-426084J-284679D01*
G01*
X144594888Y-114301821D02*
X144530003Y-114258467D01*
X144530001Y-114258470D02*
G75*
G03*
X144503217Y-114241739I-284101J-425030D01*
G01*
X144503217Y-114241739D02*
X142567802Y-113114449D01*
X142562762Y-113111307D02*
G75*
G03*
X142567802Y-113114449I55238J83007D01*
G01*
X142562761Y-113111308D02*
X140305165Y-111610086D01*
%TO.N,OUT+*%
X132066160Y-106806138D02*
X127087222Y-106339377D01*
%TO.N,mcu_mcu-mem_sck*%
X144512568Y-115868836D02*
X144711142Y-115572315D01*
X144711144Y-115572316D02*
G75*
G03*
X144726130Y-115536181I-83044J55616D01*
G01*
X144726131Y-115536181D02*
X144735646Y-115488345D01*
X144735632Y-115488342D02*
G75*
G03*
X144735646Y-115449327I-98032J19542D01*
G01*
X144735646Y-115449327D02*
X144726131Y-115401492D01*
X144726131Y-115401492D02*
G75*
G03*
X144725853Y-115400146I-94531J-18808D01*
G01*
X144725854Y-115400146D02*
X144585791Y-114743304D01*
X144585777Y-114743307D02*
G75*
G03*
X144550986Y-114660887I-232277J-49493D01*
G01*
X144550987Y-114660886D02*
X144507632Y-114596002D01*
X144507630Y-114596003D02*
G75*
G03*
X144442106Y-114530476I-197530J-131997D01*
G01*
X144442106Y-114530475D02*
X144377221Y-114487121D01*
X144377221Y-114487121D02*
G75*
G03*
X144364808Y-114479370I-131121J-196179D01*
G01*
X144364808Y-114479369D02*
X142429394Y-113352079D01*
X142410926Y-113340591D02*
G75*
G03*
X142429394Y-113352078I207174J312491D01*
G01*
X142410926Y-113340592D02*
X140858255Y-112311253D01*
X140858255Y-112311253D02*
G75*
G03*
X140822509Y-112296522I-55255J-83347D01*
G01*
X140822509Y-112296522D02*
X140774674Y-112287007D01*
X140774674Y-112287008D02*
G75*
G03*
X140735656Y-112287008I-19509J-98102D01*
G01*
X140735656Y-112287007D02*
X140687820Y-112296522D01*
X140687822Y-112296532D02*
G75*
G03*
X140657558Y-112307867I19478J-98068D01*
G01*
X140657558Y-112307867D02*
X140305165Y-112510086D01*
%TO.N,mcu_mcu-mem_cs*%
X140755165Y-111160086D02*
X141503234Y-111775690D01*
X141503234Y-111775690D02*
G75*
G03*
X141504038Y-111776345I47666J57790D01*
G01*
X141504038Y-111776345D02*
X142201390Y-112338183D01*
X142201392Y-112338180D02*
G75*
G03*
X142208572Y-112343458I62708J77780D01*
G01*
X142208572Y-112343459D02*
X142273456Y-112386814D01*
X142273457Y-112386812D02*
G75*
G03*
X142297967Y-112398724I55543J83112D01*
G01*
X142297967Y-112398725D02*
X142802253Y-112563427D01*
X142826763Y-112575339D02*
G75*
G03*
X142802253Y-112563428I-55563J-83161D01*
G01*
X142826763Y-112575339D02*
X142891648Y-112618693D01*
X142902068Y-112626693D02*
G75*
G03*
X142891648Y-112618693I-65868J-75007D01*
G01*
X142902068Y-112626694D02*
X144739011Y-114239497D01*
X144850613Y-114366829D02*
G75*
G03*
X144739010Y-114239498I-540513J-361171D01*
G01*
X144850613Y-114366829D02*
X144893968Y-114431713D01*
X144989206Y-114657280D02*
G75*
G03*
X144893967Y-114431714I-635706J-135520D01*
G01*
X144989220Y-114657277D02*
X145129284Y-115314120D01*
X145130705Y-115321017D02*
G75*
G03*
X145129283Y-115314120I-516605J-102883D01*
G01*
X145130705Y-115321017D02*
X145140220Y-115368853D01*
X145140205Y-115568817D02*
G75*
G03*
X145140219Y-115368853I-502605J100017D01*
G01*
X145140220Y-115568820D02*
X145130705Y-115616656D01*
X145109327Y-115692846D02*
G75*
G03*
X145130705Y-115616656I-481327J176146D01*
G01*
X145109322Y-115692844D02*
X144980201Y-116045578D01*
X144939855Y-116125011D02*
G75*
G03*
X144980201Y-116045578I-311755J208311D01*
G01*
X144939854Y-116125011D02*
X144912757Y-116165564D01*
X144809284Y-116269010D02*
G75*
G03*
X144912757Y-116165564I-208284J311810D01*
G01*
X144809295Y-116269026D02*
X144768742Y-116296122D01*
X144633561Y-116352113D02*
G75*
G03*
X144768742Y-116296122I-73161J367813D01*
G01*
X144633562Y-116352116D02*
X144585727Y-116361631D01*
X144439409Y-116361630D02*
G75*
G03*
X144585727Y-116361630I73159J367822D01*
G01*
X144439409Y-116361631D02*
X144391574Y-116352116D01*
X144317411Y-116329172D02*
G75*
G03*
X144391574Y-116352115I147289J344772D01*
G01*
X144317411Y-116329171D02*
X143725447Y-116076281D01*
X143709172Y-116067473D02*
G75*
G03*
X143725447Y-116076281I55528J83173D01*
G01*
X143709175Y-116067468D02*
X143668623Y-116040372D01*
X143641033Y-116012782D02*
G75*
G03*
X143668624Y-116040371I83167J55582D01*
G01*
X143641033Y-116012782D02*
X143613936Y-115972229D01*
X143599017Y-115936178D02*
G75*
G03*
X143613937Y-115972229I98083J19478D01*
G01*
X143599004Y-115936181D02*
X143589489Y-115888345D01*
X143589476Y-115849324D02*
G75*
G03*
X143589490Y-115888345I98124J-19476D01*
G01*
X143589489Y-115849327D02*
X143599004Y-115801492D01*
X143601093Y-115792968D02*
G75*
G03*
X143599005Y-115801492I96007J-28032D01*
G01*
X143601093Y-115792968D02*
X143812568Y-115068836D01*
%TO.N,mcu_mcu-mem_sdio0*%
X144162568Y-115668836D02*
X144307493Y-115961097D01*
X144307496Y-115961096D02*
G75*
G03*
X144313937Y-115972229I89404J44296D01*
G01*
X144313936Y-115972229D02*
X144341033Y-116012782D01*
X144341033Y-116012782D02*
G75*
G03*
X144368624Y-116040371I83167J55582D01*
G01*
X144368623Y-116040372D02*
X144409175Y-116067468D01*
X144409167Y-116067480D02*
G75*
G03*
X144445223Y-116082399I55533J83180D01*
G01*
X144445223Y-116082400D02*
X144493059Y-116091915D01*
X144493059Y-116091914D02*
G75*
G03*
X144532077Y-116091914I19509J98102D01*
G01*
X144532077Y-116091915D02*
X144579912Y-116082400D01*
X144579911Y-116082397D02*
G75*
G03*
X144615960Y-116067468I-19511J98097D01*
G01*
X144615960Y-116067468D02*
X144656513Y-116040372D01*
X144656517Y-116040379D02*
G75*
G03*
X144684103Y-116012782I-55617J83179D01*
G01*
X144684103Y-116012782D02*
X144711200Y-115972229D01*
X144711210Y-115972235D02*
G75*
G03*
X144721959Y-115951047I-83210J55535D01*
G01*
X144721959Y-115951047D02*
X144851080Y-115598312D01*
X144851081Y-115598312D02*
G75*
G03*
X144860988Y-115563006I-222981J81612D01*
G01*
X144860989Y-115563006D02*
X144870504Y-115515170D01*
X144870490Y-115515167D02*
G75*
G03*
X144870504Y-115422502I-232890J46367D01*
G01*
X144870504Y-115422502D02*
X144860989Y-115374667D01*
X144860989Y-115374667D02*
G75*
G03*
X144860331Y-115371471I-255989J-51033D01*
G01*
X144860331Y-115371471D02*
X144720267Y-114714628D01*
X144720253Y-114714631D02*
G75*
G03*
X144665313Y-114584496I-366753J-78169D01*
G01*
X144665314Y-114584495D02*
X144621959Y-114519611D01*
X144621957Y-114519612D02*
G75*
G03*
X144518496Y-114416149I-311757J-208288D01*
G01*
X144518497Y-114416148D02*
X144453612Y-114372794D01*
X144453612Y-114372793D02*
G75*
G03*
X144434013Y-114360554I-208212J-311607D01*
G01*
X144434013Y-114360554D02*
X142498598Y-113233264D01*
X142486903Y-113225988D02*
G75*
G03*
X142498598Y-113233263I131397J198188D01*
G01*
X142486902Y-113225989D02*
X140934231Y-112196650D01*
X140934232Y-112196649D02*
G75*
G03*
X140913719Y-112184488I-131032J-197651D01*
G01*
X140913719Y-112184488D02*
X140210711Y-111814040D01*
X140201774Y-111808715D02*
G75*
G03*
X140210711Y-111814039I55626J83215D01*
G01*
X140201772Y-111808718D02*
X140161219Y-111781621D01*
X140153233Y-111775692D02*
G75*
G03*
X140161219Y-111781620I63567J77292D01*
G01*
X140153234Y-111775690D02*
X139405165Y-111160086D01*
%TO.N,mcu_mcu-button2_gpio*%
X140755165Y-111610086D02*
X142694670Y-112843262D01*
%TO.N,D+*%
X137101369Y-102638144D02*
X137089972Y-103576428D01*
%TO.N,mcu_mcu-etm_data2*%
X138946950Y-107385438D02*
X138331450Y-106815731D01*
%TO.N,SP_P*%
X151354476Y-106915097D02*
X151149654Y-107322329D01*
X151149662Y-107322333D02*
G75*
G03*
X151140913Y-107347753I89338J-44967D01*
G01*
X151140912Y-107347753D02*
X151131397Y-107395588D01*
X151131399Y-107395588D02*
G75*
G03*
X151131397Y-107434606I98101J-19512D01*
G01*
X151131397Y-107434606D02*
X151140912Y-107482442D01*
X151140903Y-107482444D02*
G75*
G03*
X151155673Y-107518231I98097J19544D01*
G01*
X151155672Y-107518232D02*
X152235589Y-109145315D01*
%TO.N,mcu_mcu-dbg-m33_swdclk*%
X130301393Y-102545525D02*
X129220837Y-103001213D01*
X129201486Y-103007141D02*
G75*
G03*
X129220837Y-103001212I-19486J98141D01*
G01*
X129201488Y-103007150D02*
X129050902Y-103037103D01*
X129049109Y-103037442D02*
G75*
G03*
X129050902Y-103037102I-17509J97342D01*
G01*
X129049109Y-103037443D02*
X127049008Y-103397477D01*
%TO.N,D-*%
X137751369Y-102638144D02*
X137734812Y-103603566D01*
%TO.N,mcu_mcu-dbg-m33_swdio*%
X130301393Y-103815525D02*
X129220837Y-104271213D01*
X129201486Y-104277141D02*
G75*
G03*
X129220837Y-104271212I-19486J98141D01*
G01*
X129201488Y-104277150D02*
X129050902Y-104307103D01*
X129011884Y-104307102D02*
G75*
G03*
X129050902Y-104307102I19509J98050D01*
G01*
X129011884Y-104307103D02*
X128861298Y-104277150D01*
X128857315Y-104276272D02*
G75*
G03*
X128861298Y-104277149I23285J96272D01*
G01*
X128857315Y-104276273D02*
X128186247Y-104114086D01*
X128182902Y-104113217D02*
G75*
G03*
X128186247Y-104114086I27698J99717D01*
G01*
X128182902Y-104113216D02*
X127590593Y-103948199D01*
%TO.N,SP_N*%
X152251110Y-107880430D02*
X151694476Y-107165097D01*
%TD*%
%TA.AperFunction,Conductor*%
%TO.N,QVAR2*%
G36*
X142545992Y-99004101D02*
G01*
X142550093Y-99014000D01*
X142545992Y-99023899D01*
X142545377Y-99024479D01*
X142508355Y-99057276D01*
X142508354Y-99057278D01*
X142414478Y-99193281D01*
X142355878Y-99347795D01*
X142355878Y-99347796D01*
X142335959Y-99511847D01*
X142335959Y-99511848D01*
X142355878Y-99675899D01*
X142355878Y-99675900D01*
X142414478Y-99830414D01*
X142508354Y-99966417D01*
X142508355Y-99966419D01*
X142632046Y-100075999D01*
X142632048Y-100076000D01*
X142632050Y-100076002D01*
X142632052Y-100076003D01*
X142632055Y-100076005D01*
X142697181Y-100110185D01*
X142704041Y-100118416D01*
X142704505Y-100124754D01*
X141985721Y-104700534D01*
X141980134Y-104709677D01*
X141978247Y-104710835D01*
X141925126Y-104737902D01*
X141839900Y-104823128D01*
X141792746Y-104915674D01*
X141784598Y-104922633D01*
X141773916Y-104921792D01*
X141766957Y-104913644D01*
X141766445Y-104911514D01*
X141749295Y-104803229D01*
X141694575Y-104695836D01*
X141694574Y-104695834D01*
X141609348Y-104610608D01*
X141501954Y-104555888D01*
X141501955Y-104555888D01*
X141382907Y-104537033D01*
X141263859Y-104555888D01*
X141156465Y-104610608D01*
X141071239Y-104695834D01*
X141016519Y-104803228D01*
X140997664Y-104922276D01*
X141016519Y-105041323D01*
X141071239Y-105148717D01*
X141156465Y-105233943D01*
X141156467Y-105233944D01*
X141263860Y-105288664D01*
X141382907Y-105307519D01*
X141501954Y-105288664D01*
X141609347Y-105233944D01*
X141694575Y-105148716D01*
X141741730Y-105056168D01*
X141749876Y-105049212D01*
X141760558Y-105050053D01*
X141767517Y-105058201D01*
X141768030Y-105060337D01*
X141785180Y-105168617D01*
X141839900Y-105276011D01*
X141925126Y-105361237D01*
X141925128Y-105361238D01*
X142032521Y-105415958D01*
X142151568Y-105434813D01*
X142270615Y-105415958D01*
X142336890Y-105382189D01*
X148719210Y-105382189D01*
X148738065Y-105501236D01*
X148792785Y-105608630D01*
X148878011Y-105693856D01*
X148878013Y-105693857D01*
X148984182Y-105747953D01*
X148991140Y-105756100D01*
X148990299Y-105766782D01*
X148984181Y-105772900D01*
X148927963Y-105801545D01*
X148842737Y-105886771D01*
X148788017Y-105994165D01*
X148769162Y-106113213D01*
X148788017Y-106232260D01*
X148842737Y-106339654D01*
X148927963Y-106424880D01*
X148927965Y-106424881D01*
X149035358Y-106479601D01*
X149154405Y-106498456D01*
X149273452Y-106479601D01*
X149380845Y-106424881D01*
X149466073Y-106339653D01*
X149520793Y-106232260D01*
X149539648Y-106113213D01*
X149520793Y-105994166D01*
X149466073Y-105886773D01*
X149466072Y-105886771D01*
X149380846Y-105801545D01*
X149274675Y-105747448D01*
X149267716Y-105739300D01*
X149268557Y-105728618D01*
X149274672Y-105722502D01*
X149330893Y-105693857D01*
X149416121Y-105608629D01*
X149470841Y-105501236D01*
X149489696Y-105382189D01*
X149470841Y-105263142D01*
X149416121Y-105155749D01*
X149416120Y-105155747D01*
X149330894Y-105070521D01*
X149288505Y-105048923D01*
X149281546Y-105040775D01*
X149282387Y-105030093D01*
X149288504Y-105023975D01*
X149362426Y-104986311D01*
X149447654Y-104901083D01*
X149502374Y-104793690D01*
X149521229Y-104674643D01*
X149502374Y-104555596D01*
X149447654Y-104448203D01*
X149447653Y-104448201D01*
X149414551Y-104415099D01*
X151044263Y-104415099D01*
X151062970Y-104521195D01*
X151116836Y-104614495D01*
X151116838Y-104614497D01*
X151116839Y-104614498D01*
X151199369Y-104683749D01*
X151300608Y-104720597D01*
X151300609Y-104720597D01*
X151408343Y-104720597D01*
X151408344Y-104720597D01*
X151509583Y-104683749D01*
X151592113Y-104614498D01*
X151645981Y-104521196D01*
X151659743Y-104443146D01*
X151664689Y-104415099D01*
X151664689Y-104415094D01*
X151645981Y-104308998D01*
X151592115Y-104215698D01*
X151592113Y-104215696D01*
X151509583Y-104146445D01*
X151458963Y-104128020D01*
X151408345Y-104109597D01*
X151408344Y-104109597D01*
X151300608Y-104109597D01*
X151300606Y-104109597D01*
X151199370Y-104146445D01*
X151116836Y-104215698D01*
X151062970Y-104308998D01*
X151044263Y-104415094D01*
X151044263Y-104415099D01*
X149414551Y-104415099D01*
X149362427Y-104362975D01*
X149255033Y-104308255D01*
X149255034Y-104308255D01*
X149135986Y-104289400D01*
X149016938Y-104308255D01*
X148909544Y-104362975D01*
X148824318Y-104448201D01*
X148769598Y-104555595D01*
X148769597Y-104555596D01*
X148769598Y-104555596D01*
X148750743Y-104674643D01*
X148752185Y-104683748D01*
X148769598Y-104793690D01*
X148824318Y-104901084D01*
X148909544Y-104986310D01*
X148951932Y-105007908D01*
X148958891Y-105016056D01*
X148958050Y-105026738D01*
X148951932Y-105032856D01*
X148878011Y-105070521D01*
X148792785Y-105155747D01*
X148738065Y-105263141D01*
X148719210Y-105382189D01*
X142336890Y-105382189D01*
X142378008Y-105361238D01*
X142463236Y-105276010D01*
X142517956Y-105168617D01*
X142536811Y-105049570D01*
X142517956Y-104930523D01*
X142463236Y-104823130D01*
X142420371Y-104780265D01*
X142416271Y-104770367D01*
X142416441Y-104768194D01*
X142479514Y-104366671D01*
X142513824Y-104366671D01*
X142528923Y-104462001D01*
X142532679Y-104485718D01*
X142587399Y-104593112D01*
X142672625Y-104678338D01*
X142672627Y-104678339D01*
X142780020Y-104733059D01*
X142899067Y-104751914D01*
X143018114Y-104733059D01*
X143125507Y-104678339D01*
X143210735Y-104593111D01*
X143265455Y-104485718D01*
X143284310Y-104366671D01*
X143265455Y-104247624D01*
X143224633Y-104167508D01*
X145334306Y-104167508D01*
X145353161Y-104286556D01*
X145407881Y-104393950D01*
X145493107Y-104479176D01*
X145493109Y-104479177D01*
X145600502Y-104533897D01*
X145719549Y-104552752D01*
X145838596Y-104533897D01*
X145945989Y-104479177D01*
X146031217Y-104393949D01*
X146085937Y-104286556D01*
X146104792Y-104167509D01*
X146090419Y-104076758D01*
X146454508Y-104076758D01*
X146473363Y-104195805D01*
X146528083Y-104303199D01*
X146613309Y-104388425D01*
X146613311Y-104388426D01*
X146720704Y-104443146D01*
X146839751Y-104462001D01*
X146958798Y-104443146D01*
X147066191Y-104388426D01*
X147139769Y-104314847D01*
X147149668Y-104310747D01*
X147159567Y-104314847D01*
X147163496Y-104322557D01*
X147172365Y-104378552D01*
X147227085Y-104485946D01*
X147312311Y-104571172D01*
X147312313Y-104571173D01*
X147419706Y-104625893D01*
X147538753Y-104644748D01*
X147657800Y-104625893D01*
X147765193Y-104571173D01*
X147850421Y-104485945D01*
X147905141Y-104378552D01*
X147923996Y-104259505D01*
X147905141Y-104140458D01*
X147850421Y-104033065D01*
X147850420Y-104033063D01*
X147765194Y-103947837D01*
X147657800Y-103893117D01*
X147657801Y-103893117D01*
X147538753Y-103874262D01*
X147419705Y-103893117D01*
X147312313Y-103947836D01*
X147238734Y-104021415D01*
X147228835Y-104025515D01*
X147218935Y-104021414D01*
X147215007Y-104013705D01*
X147209895Y-103981428D01*
X147206139Y-103957711D01*
X147151419Y-103850318D01*
X147151418Y-103850316D01*
X147066192Y-103765090D01*
X146958798Y-103710370D01*
X146958799Y-103710370D01*
X146839751Y-103691515D01*
X146720703Y-103710370D01*
X146613309Y-103765090D01*
X146528083Y-103850316D01*
X146473363Y-103957710D01*
X146454508Y-104076758D01*
X146090419Y-104076758D01*
X146085937Y-104048462D01*
X146031217Y-103941069D01*
X146031216Y-103941067D01*
X145945990Y-103855841D01*
X145838596Y-103801121D01*
X145838597Y-103801121D01*
X145719549Y-103782266D01*
X145600501Y-103801121D01*
X145493107Y-103855841D01*
X145407881Y-103941067D01*
X145353161Y-104048461D01*
X145334306Y-104167508D01*
X143224633Y-104167508D01*
X143210735Y-104140231D01*
X143210734Y-104140229D01*
X143125508Y-104055003D01*
X143018114Y-104000283D01*
X143018115Y-104000283D01*
X142899067Y-103981428D01*
X142780019Y-104000283D01*
X142672625Y-104055003D01*
X142587399Y-104140229D01*
X142532679Y-104247623D01*
X142515091Y-104358674D01*
X142513824Y-104366671D01*
X142479514Y-104366671D01*
X142729066Y-102778021D01*
X144215516Y-102778021D01*
X144234371Y-102897068D01*
X144289091Y-103004462D01*
X144374317Y-103089688D01*
X144374319Y-103089689D01*
X144481712Y-103144409D01*
X144600759Y-103163264D01*
X144719806Y-103144409D01*
X144827199Y-103089689D01*
X144912427Y-103004461D01*
X144967147Y-102897068D01*
X144986002Y-102778021D01*
X144967147Y-102658974D01*
X144912427Y-102551581D01*
X144912426Y-102551579D01*
X144889744Y-102528897D01*
X145677254Y-102528897D01*
X145680847Y-102551581D01*
X145696109Y-102647944D01*
X145750829Y-102755338D01*
X145836055Y-102840564D01*
X145836057Y-102840565D01*
X145943450Y-102895285D01*
X146062497Y-102914140D01*
X146181544Y-102895285D01*
X146288937Y-102840565D01*
X146374165Y-102755337D01*
X146428885Y-102647944D01*
X146447740Y-102528897D01*
X146428885Y-102409850D01*
X146375830Y-102305725D01*
X148220305Y-102305725D01*
X148239160Y-102424772D01*
X148293880Y-102532166D01*
X148379106Y-102617392D01*
X148379108Y-102617393D01*
X148486501Y-102672113D01*
X148605548Y-102690968D01*
X148724595Y-102672113D01*
X148831988Y-102617393D01*
X148917216Y-102532165D01*
X148971936Y-102424772D01*
X148990791Y-102305725D01*
X148971936Y-102186678D01*
X148917216Y-102079285D01*
X148917215Y-102079283D01*
X148831989Y-101994057D01*
X148724595Y-101939337D01*
X148724596Y-101939337D01*
X148665071Y-101929909D01*
X148605548Y-101920482D01*
X148605547Y-101920482D01*
X148486500Y-101939337D01*
X148379106Y-101994057D01*
X148293880Y-102079283D01*
X148239160Y-102186677D01*
X148220305Y-102305725D01*
X146375830Y-102305725D01*
X146374165Y-102302457D01*
X146374164Y-102302455D01*
X146288938Y-102217229D01*
X146181544Y-102162509D01*
X146181545Y-102162509D01*
X146062497Y-102143654D01*
X145943449Y-102162509D01*
X145836055Y-102217229D01*
X145750829Y-102302455D01*
X145696109Y-102409849D01*
X145693746Y-102424772D01*
X145677254Y-102528897D01*
X144889744Y-102528897D01*
X144827200Y-102466353D01*
X144719806Y-102411633D01*
X144719807Y-102411633D01*
X144600759Y-102392778D01*
X144481711Y-102411633D01*
X144374317Y-102466353D01*
X144289091Y-102551579D01*
X144234371Y-102658973D01*
X144215516Y-102778021D01*
X142729066Y-102778021D01*
X142792822Y-102372149D01*
X143489957Y-102372149D01*
X143508812Y-102491196D01*
X143563532Y-102598590D01*
X143648758Y-102683816D01*
X143648760Y-102683817D01*
X143756153Y-102738537D01*
X143875200Y-102757392D01*
X143994247Y-102738537D01*
X144101640Y-102683817D01*
X144186868Y-102598589D01*
X144241588Y-102491196D01*
X144260443Y-102372149D01*
X144241588Y-102253102D01*
X144186868Y-102145709D01*
X144186867Y-102145707D01*
X144101641Y-102060481D01*
X143994247Y-102005761D01*
X143994248Y-102005761D01*
X143875200Y-101986906D01*
X143756152Y-102005761D01*
X143648758Y-102060481D01*
X143563532Y-102145707D01*
X143508812Y-102253101D01*
X143489957Y-102372149D01*
X142792822Y-102372149D01*
X142950142Y-101370644D01*
X143189830Y-101370644D01*
X143208685Y-101489691D01*
X143263405Y-101597085D01*
X143348631Y-101682311D01*
X143348633Y-101682312D01*
X143456026Y-101737032D01*
X143575073Y-101755887D01*
X143694120Y-101737032D01*
X143801513Y-101682312D01*
X143886741Y-101597084D01*
X143941461Y-101489691D01*
X143960316Y-101370644D01*
X143941461Y-101251597D01*
X143886741Y-101144204D01*
X143886740Y-101144202D01*
X143801514Y-101058976D01*
X143694120Y-101004256D01*
X143694121Y-101004256D01*
X143575073Y-100985401D01*
X143456025Y-101004256D01*
X143348631Y-101058976D01*
X143263405Y-101144202D01*
X143208685Y-101251596D01*
X143189830Y-101370644D01*
X142950142Y-101370644D01*
X143110661Y-100348780D01*
X144860353Y-100348780D01*
X144879208Y-100467827D01*
X144933928Y-100575221D01*
X145019154Y-100660447D01*
X145019156Y-100660448D01*
X145125470Y-100714618D01*
X145132428Y-100722765D01*
X145131587Y-100733447D01*
X145129013Y-100736990D01*
X145083463Y-100782541D01*
X145028744Y-100889933D01*
X145009889Y-101008981D01*
X145028744Y-101128028D01*
X145083464Y-101235422D01*
X145168690Y-101320648D01*
X145168692Y-101320649D01*
X145276085Y-101375369D01*
X145395132Y-101394224D01*
X145514179Y-101375369D01*
X145621572Y-101320649D01*
X145642532Y-101299689D01*
X145853023Y-101299689D01*
X145871730Y-101405785D01*
X145925596Y-101499085D01*
X145925598Y-101499087D01*
X145925599Y-101499088D01*
X146008129Y-101568339D01*
X146109368Y-101605187D01*
X146109369Y-101605187D01*
X146217103Y-101605187D01*
X146217104Y-101605187D01*
X146250506Y-101593029D01*
X146261209Y-101593497D01*
X146268449Y-101601396D01*
X146269080Y-101608616D01*
X146253023Y-101699684D01*
X146253023Y-101699689D01*
X146271730Y-101805785D01*
X146325596Y-101899085D01*
X146325598Y-101899087D01*
X146325599Y-101899088D01*
X146408129Y-101968339D01*
X146509368Y-102005187D01*
X146509369Y-102005187D01*
X146617103Y-102005187D01*
X146617104Y-102005187D01*
X146718343Y-101968339D01*
X146800873Y-101899088D01*
X146854741Y-101805786D01*
X146860977Y-101770419D01*
X146873449Y-101699689D01*
X146873449Y-101699684D01*
X146854741Y-101593588D01*
X146804569Y-101506687D01*
X146803170Y-101496064D01*
X146804569Y-101492687D01*
X146824371Y-101458387D01*
X146854741Y-101405786D01*
X146873449Y-101299689D01*
X147053023Y-101299689D01*
X147071730Y-101405785D01*
X147125596Y-101499085D01*
X147125598Y-101499087D01*
X147125599Y-101499088D01*
X147208129Y-101568339D01*
X147309368Y-101605187D01*
X147309369Y-101605187D01*
X147417103Y-101605187D01*
X147417104Y-101605187D01*
X147518343Y-101568339D01*
X147600873Y-101499088D01*
X147606299Y-101489691D01*
X147617949Y-101469510D01*
X147654741Y-101405786D01*
X147673449Y-101299687D01*
X147673449Y-101299684D01*
X147654741Y-101193588D01*
X147600875Y-101100288D01*
X147600873Y-101100286D01*
X147518343Y-101031035D01*
X147457750Y-101008981D01*
X147417105Y-100994187D01*
X147417104Y-100994187D01*
X147309368Y-100994187D01*
X147309366Y-100994187D01*
X147208130Y-101031035D01*
X147125596Y-101100288D01*
X147071730Y-101193588D01*
X147053023Y-101299684D01*
X147053023Y-101299689D01*
X146873449Y-101299689D01*
X146873449Y-101299687D01*
X146873449Y-101299684D01*
X146854741Y-101193588D01*
X146800875Y-101100288D01*
X146800873Y-101100286D01*
X146718343Y-101031035D01*
X146657750Y-101008981D01*
X146617105Y-100994187D01*
X146617104Y-100994187D01*
X146509368Y-100994187D01*
X146509366Y-100994187D01*
X146408129Y-101031035D01*
X146372235Y-101061153D01*
X146362015Y-101064375D01*
X146354237Y-101061153D01*
X146318343Y-101031035D01*
X146217105Y-100994187D01*
X146217104Y-100994187D01*
X146109368Y-100994187D01*
X146109366Y-100994187D01*
X146008130Y-101031035D01*
X145925596Y-101100288D01*
X145871730Y-101193588D01*
X145853023Y-101299684D01*
X145853023Y-101299689D01*
X145642532Y-101299689D01*
X145706800Y-101235421D01*
X145761520Y-101128028D01*
X145780375Y-101008981D01*
X145761520Y-100889934D01*
X145706800Y-100782541D01*
X145706799Y-100782539D01*
X145621573Y-100697313D01*
X145515257Y-100643142D01*
X145508298Y-100634994D01*
X145509139Y-100624312D01*
X145511710Y-100620772D01*
X145557264Y-100575220D01*
X145611984Y-100467827D01*
X145630839Y-100348780D01*
X145620328Y-100282418D01*
X145784889Y-100282418D01*
X145797614Y-100362764D01*
X145803744Y-100401465D01*
X145858464Y-100508859D01*
X145943690Y-100594085D01*
X145943692Y-100594086D01*
X146051085Y-100648806D01*
X146170132Y-100667661D01*
X146289179Y-100648806D01*
X146396572Y-100594086D01*
X146481800Y-100508858D01*
X146536520Y-100401465D01*
X146538575Y-100388488D01*
X147046949Y-100388488D01*
X147065804Y-100507535D01*
X147120524Y-100614929D01*
X147205750Y-100700155D01*
X147205752Y-100700156D01*
X147313145Y-100754876D01*
X147432192Y-100773731D01*
X147551239Y-100754876D01*
X147658632Y-100700156D01*
X147743860Y-100614928D01*
X147798580Y-100507535D01*
X147817435Y-100388488D01*
X147798580Y-100269441D01*
X147743860Y-100162048D01*
X147743859Y-100162046D01*
X147658633Y-100076820D01*
X147551239Y-100022100D01*
X147551240Y-100022100D01*
X147432192Y-100003245D01*
X147313144Y-100022100D01*
X147205750Y-100076820D01*
X147120524Y-100162046D01*
X147065804Y-100269440D01*
X147046949Y-100388488D01*
X146538575Y-100388488D01*
X146555375Y-100282418D01*
X146536520Y-100163371D01*
X146481800Y-100055978D01*
X146481799Y-100055976D01*
X146396573Y-99970750D01*
X146289179Y-99916030D01*
X146289180Y-99916030D01*
X146170132Y-99897175D01*
X146051084Y-99916030D01*
X145943690Y-99970750D01*
X145858464Y-100055976D01*
X145803744Y-100163370D01*
X145793234Y-100229732D01*
X145784889Y-100282418D01*
X145620328Y-100282418D01*
X145611984Y-100229733D01*
X145557264Y-100122340D01*
X145557263Y-100122338D01*
X145472037Y-100037112D01*
X145364643Y-99982392D01*
X145364644Y-99982392D01*
X145245596Y-99963537D01*
X145126548Y-99982392D01*
X145019154Y-100037112D01*
X144933928Y-100122338D01*
X144879208Y-100229732D01*
X144860353Y-100348780D01*
X143110661Y-100348780D01*
X143135045Y-100193550D01*
X143140631Y-100184410D01*
X143145519Y-100182135D01*
X143227025Y-100162046D01*
X143264536Y-100152801D01*
X143322418Y-100122422D01*
X143410864Y-100076002D01*
X143534560Y-99966417D01*
X143580214Y-99900273D01*
X143589212Y-99894456D01*
X143599689Y-99896705D01*
X143603256Y-99900272D01*
X143625185Y-99932041D01*
X143645536Y-99961525D01*
X143645537Y-99961527D01*
X143769228Y-100071107D01*
X143769230Y-100071108D01*
X143769232Y-100071110D01*
X143769234Y-100071111D01*
X143769237Y-100071113D01*
X143915559Y-100147909D01*
X144034780Y-100177293D01*
X144076011Y-100187456D01*
X144241267Y-100187456D01*
X144344360Y-100162046D01*
X144401718Y-100147909D01*
X144445836Y-100124754D01*
X144548046Y-100071110D01*
X144671742Y-99961525D01*
X144765617Y-99825523D01*
X144824218Y-99671006D01*
X144844137Y-99506956D01*
X144834852Y-99430495D01*
X144837729Y-99420175D01*
X144846557Y-99414982D01*
X144933946Y-99401142D01*
X145041339Y-99346422D01*
X145126567Y-99261194D01*
X145181287Y-99153801D01*
X145200142Y-99034754D01*
X145197201Y-99016190D01*
X145199704Y-99005771D01*
X145208840Y-99000172D01*
X145211030Y-99000000D01*
X148856198Y-99000000D01*
X148866097Y-99004101D01*
X148870198Y-99014000D01*
X148867175Y-99021981D01*
X148867498Y-99022204D01*
X148773141Y-99158903D01*
X148714541Y-99313417D01*
X148714541Y-99313418D01*
X148694622Y-99477469D01*
X148694622Y-99477470D01*
X148714541Y-99641521D01*
X148714541Y-99641522D01*
X148773141Y-99796036D01*
X148867017Y-99932039D01*
X148867018Y-99932041D01*
X148990709Y-100041621D01*
X148990711Y-100041622D01*
X148990713Y-100041624D01*
X148990715Y-100041625D01*
X148990718Y-100041627D01*
X149137040Y-100118423D01*
X149256261Y-100147807D01*
X149297492Y-100157970D01*
X149462748Y-100157970D01*
X149568733Y-100131846D01*
X149623198Y-100118423D01*
X149623198Y-100118422D01*
X149623201Y-100118422D01*
X149635025Y-100112215D01*
X149645694Y-100111245D01*
X149653926Y-100118105D01*
X149655358Y-100122422D01*
X149668830Y-100207477D01*
X149723550Y-100314871D01*
X149808776Y-100400097D01*
X149808778Y-100400098D01*
X149916171Y-100454818D01*
X150035218Y-100473673D01*
X150154265Y-100454818D01*
X150261658Y-100400098D01*
X150306701Y-100355054D01*
X150316599Y-100350954D01*
X150326498Y-100355054D01*
X150330427Y-100362764D01*
X150347407Y-100469971D01*
X150402127Y-100577365D01*
X150487353Y-100662591D01*
X150487355Y-100662592D01*
X150594748Y-100717312D01*
X150713795Y-100736167D01*
X150832842Y-100717312D01*
X150940235Y-100662592D01*
X151025463Y-100577364D01*
X151080183Y-100469971D01*
X151099038Y-100350924D01*
X151080183Y-100231877D01*
X151025463Y-100124484D01*
X151010345Y-100109366D01*
X151006245Y-100099468D01*
X151010345Y-100089569D01*
X151013731Y-100087076D01*
X151070566Y-100057248D01*
X151194262Y-99947663D01*
X151288137Y-99811661D01*
X151346738Y-99657144D01*
X151366657Y-99493094D01*
X151346738Y-99329044D01*
X151340811Y-99313417D01*
X151288137Y-99174527D01*
X151203830Y-99052387D01*
X151194262Y-99038525D01*
X151194261Y-99038524D01*
X151194260Y-99038522D01*
X151178408Y-99024479D01*
X151173718Y-99014845D01*
X151177213Y-99004716D01*
X151186847Y-99000026D01*
X151187692Y-99000000D01*
X152736000Y-99000000D01*
X152745899Y-99004101D01*
X152750000Y-99014000D01*
X152750000Y-99410368D01*
X152745899Y-99420267D01*
X152738193Y-99424195D01*
X152737105Y-99424367D01*
X152629709Y-99479088D01*
X152544483Y-99564314D01*
X152489763Y-99671708D01*
X152470908Y-99790756D01*
X152489763Y-99909803D01*
X152544483Y-100017197D01*
X152561268Y-100033982D01*
X152565369Y-100043881D01*
X152561268Y-100053780D01*
X152525733Y-100089314D01*
X152471013Y-100196708D01*
X152459494Y-100269441D01*
X152452158Y-100315756D01*
X152465516Y-100400097D01*
X152471013Y-100434803D01*
X152525733Y-100542197D01*
X152548768Y-100565232D01*
X152552869Y-100575131D01*
X152548768Y-100585030D01*
X152513233Y-100620564D01*
X152458513Y-100727958D01*
X152439658Y-100847006D01*
X152458513Y-100966053D01*
X152513233Y-101073447D01*
X152536268Y-101096482D01*
X152540369Y-101106381D01*
X152536268Y-101116280D01*
X152500733Y-101151814D01*
X152446013Y-101259208D01*
X152427158Y-101378256D01*
X152446013Y-101497303D01*
X152500731Y-101604693D01*
X152500735Y-101604699D01*
X152517517Y-101621481D01*
X152521618Y-101631380D01*
X152517518Y-101641279D01*
X152481982Y-101676816D01*
X152427263Y-101784208D01*
X152408408Y-101903255D01*
X152427263Y-102022303D01*
X152481983Y-102129697D01*
X152517518Y-102165232D01*
X152521619Y-102175131D01*
X152517518Y-102185030D01*
X152481983Y-102220564D01*
X152427263Y-102327958D01*
X152408408Y-102447005D01*
X152427263Y-102566053D01*
X152481983Y-102673447D01*
X152517518Y-102708982D01*
X152521619Y-102718881D01*
X152517518Y-102728780D01*
X152481983Y-102764314D01*
X152427263Y-102871708D01*
X152423247Y-102897068D01*
X152408408Y-102990756D01*
X152427263Y-103109803D01*
X152481983Y-103217196D01*
X152514393Y-103249606D01*
X152518494Y-103259505D01*
X152514394Y-103269404D01*
X152488232Y-103295566D01*
X152433513Y-103402958D01*
X152414658Y-103522006D01*
X152433513Y-103641053D01*
X152488233Y-103748447D01*
X152511268Y-103771482D01*
X152515369Y-103781381D01*
X152511268Y-103791280D01*
X152481983Y-103820564D01*
X152427263Y-103927958D01*
X152425187Y-103941069D01*
X152408408Y-104047006D01*
X152408639Y-104048462D01*
X152427263Y-104166053D01*
X152481983Y-104273447D01*
X152567209Y-104358673D01*
X152567211Y-104358674D01*
X152674604Y-104413394D01*
X152738192Y-104423465D01*
X152747326Y-104429063D01*
X152750000Y-104437292D01*
X152750000Y-107382162D01*
X152745899Y-107392061D01*
X152736000Y-107396162D01*
X152726716Y-107392641D01*
X152640520Y-107316278D01*
X152640511Y-107316272D01*
X152494189Y-107239476D01*
X152333740Y-107199930D01*
X152333738Y-107199930D01*
X152168482Y-107199930D01*
X152168479Y-107199930D01*
X152034093Y-107233053D01*
X152023500Y-107231441D01*
X152019694Y-107228058D01*
X152015738Y-107222974D01*
X152002226Y-107205610D01*
X151999384Y-107195281D01*
X151999484Y-107194614D01*
X152004689Y-107165097D01*
X152004689Y-107165094D01*
X151985981Y-107058998D01*
X151932115Y-106965698D01*
X151932032Y-106965628D01*
X151849583Y-106896445D01*
X151796680Y-106877190D01*
X151748345Y-106859597D01*
X151748344Y-106859597D01*
X151666650Y-106859597D01*
X151656751Y-106855496D01*
X151652863Y-106848028D01*
X151645981Y-106808998D01*
X151592115Y-106715698D01*
X151592113Y-106715696D01*
X151544591Y-106675821D01*
X151539644Y-106666317D01*
X151542866Y-106656098D01*
X151544591Y-106654373D01*
X151545083Y-106653960D01*
X151820039Y-106653960D01*
X151838894Y-106773007D01*
X151893614Y-106880401D01*
X151978840Y-106965627D01*
X151978842Y-106965628D01*
X152086235Y-107020348D01*
X152205282Y-107039203D01*
X152324329Y-107020348D01*
X152431722Y-106965628D01*
X152516950Y-106880400D01*
X152571670Y-106773007D01*
X152590525Y-106653960D01*
X152571670Y-106534913D01*
X152516950Y-106427520D01*
X152516949Y-106427518D01*
X152431723Y-106342292D01*
X152324329Y-106287572D01*
X152324330Y-106287572D01*
X152205282Y-106268717D01*
X152086234Y-106287572D01*
X151978840Y-106342292D01*
X151893614Y-106427518D01*
X151838894Y-106534912D01*
X151820039Y-106653960D01*
X151545083Y-106653960D01*
X151592113Y-106614498D01*
X151645981Y-106521196D01*
X151661400Y-106433749D01*
X151664689Y-106415099D01*
X151664689Y-106415094D01*
X151645981Y-106308998D01*
X151592115Y-106215698D01*
X151592113Y-106215696D01*
X151509583Y-106146445D01*
X151458963Y-106128020D01*
X151408345Y-106109597D01*
X151408344Y-106109597D01*
X151326650Y-106109597D01*
X151316751Y-106105496D01*
X151312863Y-106098028D01*
X151305981Y-106058998D01*
X151252115Y-105965698D01*
X151252113Y-105965696D01*
X151169583Y-105896445D01*
X151118963Y-105878020D01*
X151068345Y-105859597D01*
X151068344Y-105859597D01*
X150986650Y-105859597D01*
X150976751Y-105855496D01*
X150972863Y-105848028D01*
X150965981Y-105808998D01*
X150912115Y-105715698D01*
X150886085Y-105693856D01*
X150829583Y-105646445D01*
X150778963Y-105628020D01*
X150728345Y-105609597D01*
X150728344Y-105609597D01*
X150620608Y-105609597D01*
X150620606Y-105609597D01*
X150519370Y-105646445D01*
X150436836Y-105715698D01*
X150382970Y-105808998D01*
X150364263Y-105915094D01*
X150364263Y-105915099D01*
X150382970Y-106021195D01*
X150436836Y-106114495D01*
X150436838Y-106114497D01*
X150436839Y-106114498D01*
X150519369Y-106183749D01*
X150620608Y-106220597D01*
X150702302Y-106220597D01*
X150712201Y-106224698D01*
X150716089Y-106232166D01*
X150722970Y-106271195D01*
X150776836Y-106364495D01*
X150776838Y-106364497D01*
X150776839Y-106364498D01*
X150859369Y-106433749D01*
X150960608Y-106470597D01*
X151042302Y-106470597D01*
X151052201Y-106474698D01*
X151056089Y-106482166D01*
X151062970Y-106521195D01*
X151116837Y-106614495D01*
X151116839Y-106614498D01*
X151164358Y-106654373D01*
X151169306Y-106663877D01*
X151166083Y-106674096D01*
X151164358Y-106675821D01*
X151116839Y-106715695D01*
X151116837Y-106715698D01*
X151062970Y-106808998D01*
X151044263Y-106915094D01*
X151044263Y-106915099D01*
X151060637Y-107007966D01*
X151059357Y-107016688D01*
X150944607Y-107244838D01*
X150944604Y-107244846D01*
X150944015Y-107247091D01*
X150941908Y-107251615D01*
X150936141Y-107259776D01*
X150927116Y-107305148D01*
X150918404Y-107348859D01*
X150918387Y-107349026D01*
X150913116Y-107375529D01*
X150913156Y-107378719D01*
X150913142Y-107379266D01*
X150910795Y-107415089D01*
X150910795Y-107415094D01*
X150911000Y-107418230D01*
X150910685Y-107422232D01*
X150908545Y-107431686D01*
X150908545Y-107431687D01*
X150918390Y-107481181D01*
X150918405Y-107481325D01*
X150925072Y-107514788D01*
X150926016Y-107519539D01*
X150926014Y-107519549D01*
X150931142Y-107545359D01*
X150931228Y-107545725D01*
X150931570Y-107547444D01*
X150932802Y-107550314D01*
X150933000Y-107550830D01*
X150944394Y-107584480D01*
X150945586Y-107586908D01*
X150946823Y-107590747D01*
X150948414Y-107600178D01*
X150950197Y-107602864D01*
X150962391Y-107621238D01*
X150962616Y-107621602D01*
X150973351Y-107637750D01*
X151691628Y-108719961D01*
X151693685Y-108730477D01*
X151691485Y-108735656D01*
X151628610Y-108826748D01*
X151570010Y-108981262D01*
X151570010Y-108981263D01*
X151550091Y-109145314D01*
X151550091Y-109145315D01*
X151570010Y-109309366D01*
X151570010Y-109309367D01*
X151628610Y-109463881D01*
X151722486Y-109599884D01*
X151722487Y-109599886D01*
X151846178Y-109709466D01*
X151846180Y-109709467D01*
X151846182Y-109709469D01*
X151846184Y-109709470D01*
X151846187Y-109709472D01*
X151992509Y-109786268D01*
X152111730Y-109815652D01*
X152152961Y-109825815D01*
X152318217Y-109825815D01*
X152392468Y-109807513D01*
X152403061Y-109809125D01*
X152409411Y-109817755D01*
X152408292Y-109827462D01*
X152354362Y-109933306D01*
X152354361Y-109933307D01*
X152354362Y-109933307D01*
X152335507Y-110052354D01*
X152354362Y-110171401D01*
X152409082Y-110278794D01*
X152446746Y-110316458D01*
X152450847Y-110326357D01*
X152446747Y-110336256D01*
X152391404Y-110391600D01*
X152336685Y-110498992D01*
X152317830Y-110618040D01*
X152336685Y-110737087D01*
X152376987Y-110816185D01*
X152391405Y-110844480D01*
X152446746Y-110899821D01*
X152450847Y-110909720D01*
X152446747Y-110919619D01*
X152400242Y-110966124D01*
X152345523Y-111073516D01*
X152326668Y-111192564D01*
X152345523Y-111311611D01*
X152400243Y-111419005D01*
X152460004Y-111478766D01*
X152464105Y-111488665D01*
X152460004Y-111498564D01*
X152400243Y-111558324D01*
X152345523Y-111665718D01*
X152326668Y-111784766D01*
X152345523Y-111903813D01*
X152400243Y-112011207D01*
X152482101Y-112093065D01*
X152486202Y-112102964D01*
X152482101Y-112112863D01*
X152400243Y-112194720D01*
X152345523Y-112302114D01*
X152326668Y-112421162D01*
X152345523Y-112540209D01*
X152400243Y-112647603D01*
X152485469Y-112732829D01*
X152486731Y-112733472D01*
X152493691Y-112741619D01*
X152492852Y-112752301D01*
X152486733Y-112758421D01*
X152476631Y-112763568D01*
X152391405Y-112848794D01*
X152336685Y-112956188D01*
X152317830Y-113075236D01*
X152336685Y-113194283D01*
X152391405Y-113301677D01*
X152474530Y-113384802D01*
X152478631Y-113394701D01*
X152474530Y-113404600D01*
X152470989Y-113407174D01*
X152467792Y-113408803D01*
X152382566Y-113494029D01*
X152327846Y-113601423D01*
X152308991Y-113720471D01*
X152327846Y-113839518D01*
X152382566Y-113946912D01*
X152467792Y-114032138D01*
X152508168Y-114052711D01*
X152515127Y-114060859D01*
X152514286Y-114071541D01*
X152508168Y-114077659D01*
X152467792Y-114098232D01*
X152382566Y-114183458D01*
X152327846Y-114290852D01*
X152318429Y-114350313D01*
X152308991Y-114409900D01*
X152327845Y-114528947D01*
X152327846Y-114528947D01*
X152382566Y-114636341D01*
X152467792Y-114721567D01*
X152543027Y-114759901D01*
X152549986Y-114768049D01*
X152549145Y-114778731D01*
X152543027Y-114784849D01*
X152485469Y-114814177D01*
X152400243Y-114899403D01*
X152345523Y-115006797D01*
X152326668Y-115125845D01*
X152345523Y-115244892D01*
X152397510Y-115346923D01*
X152400243Y-115352285D01*
X152431638Y-115383680D01*
X152435739Y-115393579D01*
X152431639Y-115403478D01*
X152417733Y-115417385D01*
X152363014Y-115524777D01*
X152344159Y-115643825D01*
X152363014Y-115762872D01*
X152417045Y-115868914D01*
X152417734Y-115870265D01*
X152471353Y-115923884D01*
X152475454Y-115933783D01*
X152471354Y-115943682D01*
X152467810Y-115946257D01*
X152381286Y-115990344D01*
X152381270Y-115990354D01*
X152230957Y-116099563D01*
X152230949Y-116099570D01*
X152099570Y-116230949D01*
X152099563Y-116230957D01*
X151990354Y-116381270D01*
X151990344Y-116381286D01*
X151905988Y-116546842D01*
X151848568Y-116723565D01*
X151819500Y-116907093D01*
X151819500Y-116986000D01*
X151815399Y-116995899D01*
X151805500Y-117000000D01*
X139674000Y-117000000D01*
X139664101Y-116995899D01*
X139660000Y-116986000D01*
X139660000Y-116866476D01*
X139664101Y-116856577D01*
X139698347Y-116822331D01*
X139753067Y-116714938D01*
X139771922Y-116595891D01*
X139753067Y-116476844D01*
X139698347Y-116369451D01*
X139698346Y-116369450D01*
X139664100Y-116335203D01*
X139660000Y-116325304D01*
X139660000Y-114703743D01*
X141693709Y-114703743D01*
X141702724Y-114760663D01*
X141712564Y-114822790D01*
X141767284Y-114930184D01*
X141852510Y-115015410D01*
X141852512Y-115015411D01*
X141959905Y-115070131D01*
X142078952Y-115088986D01*
X142197999Y-115070131D01*
X142305392Y-115015411D01*
X142390620Y-114930183D01*
X142445340Y-114822790D01*
X142464195Y-114703743D01*
X142445340Y-114584696D01*
X142390620Y-114477303D01*
X142390619Y-114477301D01*
X142305393Y-114392075D01*
X142197999Y-114337355D01*
X142198000Y-114337355D01*
X142078952Y-114318500D01*
X141959904Y-114337355D01*
X141852510Y-114392075D01*
X141767284Y-114477301D01*
X141712564Y-114584695D01*
X141703341Y-114642931D01*
X141693709Y-114703743D01*
X139660000Y-114703743D01*
X139660000Y-113867719D01*
X140881221Y-113867719D01*
X140899928Y-113973815D01*
X140953794Y-114067115D01*
X140953796Y-114067117D01*
X140953797Y-114067118D01*
X141036327Y-114136369D01*
X141137566Y-114173217D01*
X141137567Y-114173217D01*
X141245301Y-114173217D01*
X141245302Y-114173217D01*
X141346541Y-114136369D01*
X141429071Y-114067118D01*
X141432885Y-114060513D01*
X141453638Y-114024566D01*
X141482939Y-113973816D01*
X141492204Y-113921269D01*
X141501647Y-113867719D01*
X141501647Y-113867714D01*
X141482939Y-113761618D01*
X141429073Y-113668318D01*
X141429071Y-113668316D01*
X141346541Y-113599065D01*
X141295921Y-113580640D01*
X141245303Y-113562217D01*
X141245302Y-113562217D01*
X141137566Y-113562217D01*
X141137564Y-113562217D01*
X141036328Y-113599065D01*
X140953794Y-113668318D01*
X140899928Y-113761618D01*
X140881221Y-113867714D01*
X140881221Y-113867719D01*
X139660000Y-113867719D01*
X139660000Y-112775147D01*
X139664101Y-112765248D01*
X139674000Y-112761147D01*
X139682996Y-112764421D01*
X139700058Y-112778738D01*
X139801297Y-112815586D01*
X139801298Y-112815586D01*
X139909032Y-112815586D01*
X139909033Y-112815586D01*
X140010272Y-112778738D01*
X140071166Y-112727640D01*
X140081385Y-112724419D01*
X140089163Y-112727640D01*
X140150058Y-112778738D01*
X140251297Y-112815586D01*
X140251298Y-112815586D01*
X140359032Y-112815586D01*
X140359033Y-112815586D01*
X140460272Y-112778738D01*
X140460273Y-112778736D01*
X140460275Y-112778736D01*
X140479644Y-112762481D01*
X140521166Y-112727640D01*
X140531383Y-112724418D01*
X140539161Y-112727639D01*
X140600058Y-112778738D01*
X140701297Y-112815586D01*
X140701298Y-112815586D01*
X140809034Y-112815586D01*
X140809037Y-112815585D01*
X140822688Y-112810616D01*
X140833393Y-112811082D01*
X140834666Y-112811758D01*
X142004647Y-113512169D01*
X142044731Y-113536165D01*
X142051119Y-113544768D01*
X142049552Y-113555368D01*
X142047440Y-113558076D01*
X141997884Y-113607633D01*
X141943165Y-113715025D01*
X141924310Y-113834073D01*
X141943165Y-113953120D01*
X141997885Y-114060514D01*
X142083111Y-114145740D01*
X142083113Y-114145741D01*
X142190506Y-114200461D01*
X142309553Y-114219316D01*
X142428600Y-114200461D01*
X142535993Y-114145741D01*
X142569176Y-114112557D01*
X142579075Y-114108457D01*
X142588974Y-114112557D01*
X142593075Y-114122457D01*
X142591549Y-114128813D01*
X142563428Y-114184004D01*
X142544573Y-114303052D01*
X142563428Y-114422099D01*
X142618148Y-114529493D01*
X142703374Y-114614719D01*
X142703376Y-114614720D01*
X142810769Y-114669440D01*
X142929816Y-114688295D01*
X143048863Y-114669440D01*
X143156256Y-114614720D01*
X143241484Y-114529492D01*
X143296204Y-114422099D01*
X143315059Y-114303052D01*
X143315058Y-114303050D01*
X143315231Y-114301964D01*
X143315744Y-114302045D01*
X143319160Y-114293801D01*
X143329059Y-114289700D01*
X143336102Y-114291601D01*
X143847394Y-114589405D01*
X143871628Y-114603520D01*
X143878119Y-114612046D01*
X143876680Y-114622664D01*
X143874482Y-114625517D01*
X143857068Y-114642931D01*
X143802349Y-114750323D01*
X143802348Y-114750327D01*
X143802158Y-114751528D01*
X143796559Y-114760663D01*
X143788331Y-114763336D01*
X143758698Y-114763336D01*
X143657462Y-114800184D01*
X143574928Y-114869437D01*
X143521062Y-114962737D01*
X143502355Y-115068833D01*
X143502355Y-115068838D01*
X143521062Y-115174934D01*
X143540259Y-115208185D01*
X143541658Y-115218809D01*
X143541574Y-115219110D01*
X143404249Y-115689335D01*
X143404247Y-115689342D01*
X143399925Y-115704144D01*
X143397920Y-115708299D01*
X143394233Y-115713516D01*
X143394232Y-115713517D01*
X143387977Y-115744962D01*
X143387831Y-115745558D01*
X143385411Y-115753848D01*
X143384960Y-115759867D01*
X143384845Y-115760711D01*
X143384391Y-115762993D01*
X143384331Y-115763193D01*
X143376757Y-115801358D01*
X143376736Y-115801390D01*
X143371574Y-115827407D01*
X143371563Y-115827476D01*
X143371208Y-115829265D01*
X143371208Y-115829267D01*
X143371246Y-115832265D01*
X143371232Y-115832809D01*
X143368880Y-115868909D01*
X143368880Y-115868914D01*
X143369083Y-115872003D01*
X143368768Y-115876010D01*
X143366637Y-115885424D01*
X143366637Y-115885426D01*
X143371571Y-115910229D01*
X143371599Y-115910394D01*
X143374745Y-115926187D01*
X143389661Y-116001181D01*
X143390990Y-116004276D01*
X143391187Y-116004790D01*
X143397161Y-116022408D01*
X143402639Y-116038560D01*
X143402643Y-116038568D01*
X143404046Y-116041417D01*
X143405284Y-116045230D01*
X143406932Y-116054816D01*
X143406933Y-116054817D01*
X143431729Y-116091926D01*
X143432636Y-116093284D01*
X143434674Y-116096336D01*
X143434925Y-116096712D01*
X143434934Y-116096730D01*
X143437719Y-116100899D01*
X143457437Y-116130430D01*
X143457532Y-116130545D01*
X143459784Y-116133914D01*
X143460337Y-116134741D01*
X143472503Y-116152948D01*
X143474780Y-116155166D01*
X143475144Y-116155551D01*
X143498846Y-116182574D01*
X143501198Y-116184636D01*
X143503809Y-116187692D01*
X143508981Y-116195889D01*
X143531070Y-116210648D01*
X143547504Y-116221629D01*
X143550835Y-116223854D01*
X143550970Y-116223966D01*
X143552065Y-116224697D01*
X143552066Y-116224698D01*
X143586737Y-116247845D01*
X143589219Y-116249959D01*
X143591857Y-116252801D01*
X143597190Y-116258548D01*
X143597191Y-116258548D01*
X143597193Y-116258550D01*
X143630808Y-116272910D01*
X143630845Y-116272929D01*
X143636015Y-116275136D01*
X143636023Y-116275142D01*
X143639881Y-116276786D01*
X143639881Y-116276787D01*
X143640890Y-116277217D01*
X144169699Y-116503127D01*
X144227898Y-116527990D01*
X144227902Y-116527993D01*
X144231767Y-116529644D01*
X144231767Y-116529645D01*
X144250625Y-116537700D01*
X144251290Y-116537984D01*
X144251289Y-116537984D01*
X144251302Y-116537988D01*
X144252838Y-116538645D01*
X144253021Y-116538681D01*
X144254931Y-116539196D01*
X144289364Y-116551169D01*
X144296959Y-116553233D01*
X144301368Y-116555311D01*
X144303596Y-116556886D01*
X144303598Y-116556887D01*
X144338018Y-116563733D01*
X144349053Y-116565929D01*
X144349752Y-116566067D01*
X144351876Y-116566490D01*
X144352998Y-116566713D01*
X144353011Y-116566717D01*
X144354352Y-116566983D01*
X144354353Y-116566984D01*
X144396882Y-116575443D01*
X144396882Y-116575442D01*
X144403365Y-116576732D01*
X144403373Y-116576733D01*
X144419351Y-116579912D01*
X144419353Y-116579911D01*
X144420502Y-116580140D01*
X144420521Y-116580142D01*
X144435002Y-116583023D01*
X144512568Y-116588107D01*
X144577434Y-116583854D01*
X144581435Y-116584170D01*
X144582810Y-116584482D01*
X144624815Y-116576126D01*
X144624816Y-116576126D01*
X144628253Y-116575442D01*
X144628254Y-116575443D01*
X144670783Y-116566984D01*
X144670783Y-116566983D01*
X144672813Y-116566580D01*
X144672820Y-116566577D01*
X144675544Y-116566035D01*
X144676092Y-116565927D01*
X144682065Y-116564738D01*
X144698563Y-116561457D01*
X144698564Y-116561456D01*
X144699465Y-116561277D01*
X144699498Y-116561267D01*
X144714210Y-116558342D01*
X144787818Y-116533356D01*
X144846121Y-116504604D01*
X144849938Y-116503364D01*
X144851326Y-116503127D01*
X144906790Y-116466068D01*
X144925908Y-116453295D01*
X144925908Y-116453294D01*
X144928823Y-116451347D01*
X144928824Y-116451348D01*
X144928829Y-116451341D01*
X144929925Y-116450610D01*
X144930385Y-116450303D01*
X144930384Y-116450302D01*
X144935842Y-116446661D01*
X144935879Y-116446630D01*
X144949458Y-116437559D01*
X144949461Y-116437554D01*
X144949619Y-116437450D01*
X144949857Y-116437271D01*
X144962694Y-116428697D01*
X145021144Y-116377451D01*
X145064025Y-116328565D01*
X145067077Y-116325961D01*
X145068273Y-116325207D01*
X145094003Y-116286700D01*
X145118098Y-116250648D01*
X145118098Y-116250645D01*
X145118908Y-116249434D01*
X145118927Y-116249397D01*
X145119163Y-116249044D01*
X145119166Y-116249042D01*
X145134195Y-116226555D01*
X145151135Y-116196246D01*
X145157179Y-116185433D01*
X145164214Y-116170102D01*
X145166887Y-116166196D01*
X145168988Y-116164029D01*
X145176769Y-116142768D01*
X145176806Y-116142679D01*
X145184918Y-116120509D01*
X145186291Y-116116762D01*
X145233329Y-115988260D01*
X145298609Y-115809927D01*
X145298623Y-115809900D01*
X145299140Y-115808486D01*
X145299141Y-115808486D01*
X145312007Y-115773327D01*
X145312017Y-115773317D01*
X145314048Y-115767765D01*
X145314049Y-115767766D01*
X145320517Y-115750091D01*
X145320531Y-115750044D01*
X145320545Y-115750001D01*
X145321913Y-115746266D01*
X145321942Y-115746063D01*
X145322424Y-115743905D01*
X145331616Y-115714122D01*
X145331618Y-115714115D01*
X145331618Y-115714117D01*
X145332056Y-115712378D01*
X145332563Y-115710372D01*
X145334706Y-115705722D01*
X145335477Y-115704632D01*
X145341272Y-115675500D01*
X145343922Y-115662172D01*
X145353496Y-115614038D01*
X145354028Y-115611367D01*
X145354712Y-115607936D01*
X145354711Y-115607926D01*
X145358501Y-115588877D01*
X145358500Y-115588873D01*
X145358545Y-115588652D01*
X145358580Y-115588408D01*
X145363357Y-115564405D01*
X145369627Y-115468851D01*
X145363370Y-115373296D01*
X145363369Y-115373289D01*
X145363362Y-115373232D01*
X145354034Y-115326337D01*
X145354034Y-115326336D01*
X145353248Y-115322387D01*
X145353240Y-115322294D01*
X145352975Y-115320967D01*
X145352976Y-115320966D01*
X145352422Y-115318186D01*
X145352488Y-115315443D01*
X145352154Y-115315443D01*
X145352154Y-115313971D01*
X145343536Y-115273559D01*
X145342583Y-115268768D01*
X145340047Y-115256016D01*
X145340046Y-115256015D01*
X145340046Y-115256012D01*
X145339830Y-115255316D01*
X145339835Y-115255314D01*
X145339265Y-115253519D01*
X145337852Y-115246887D01*
X145333460Y-115226276D01*
X145333458Y-115226273D01*
X145333165Y-115224897D01*
X145333146Y-115224838D01*
X145331860Y-115218809D01*
X145202506Y-114612187D01*
X145202429Y-114611825D01*
X145197648Y-114589405D01*
X145197647Y-114589403D01*
X145197611Y-114589233D01*
X145197511Y-114588863D01*
X145190953Y-114558144D01*
X145154717Y-114454508D01*
X145105714Y-114356263D01*
X145101849Y-114350475D01*
X145101765Y-114350313D01*
X145080507Y-114318500D01*
X145075234Y-114310608D01*
X145075235Y-114310608D01*
X145051146Y-114274552D01*
X145051144Y-114274551D01*
X145050452Y-114273514D01*
X145050431Y-114273488D01*
X145031872Y-114245711D01*
X145010868Y-114214271D01*
X144963542Y-114155282D01*
X144963539Y-114155278D01*
X144953603Y-114144891D01*
X144949723Y-114134905D01*
X144954042Y-114125099D01*
X144961528Y-114121387D01*
X145065004Y-114104999D01*
X145172397Y-114050279D01*
X145257625Y-113965051D01*
X145312345Y-113857658D01*
X145331200Y-113738611D01*
X145312345Y-113619564D01*
X145257625Y-113512171D01*
X145257624Y-113512169D01*
X145243806Y-113498351D01*
X146113412Y-113498351D01*
X146132267Y-113617398D01*
X146186987Y-113724792D01*
X146272213Y-113810018D01*
X146272215Y-113810019D01*
X146379608Y-113864739D01*
X146498655Y-113883594D01*
X146617702Y-113864739D01*
X146725095Y-113810019D01*
X146810323Y-113724791D01*
X146865043Y-113617398D01*
X146883898Y-113498351D01*
X146865043Y-113379304D01*
X146810323Y-113271911D01*
X146810322Y-113271909D01*
X146725096Y-113186683D01*
X146617702Y-113131963D01*
X146617703Y-113131963D01*
X146498655Y-113113108D01*
X146379607Y-113131963D01*
X146272213Y-113186683D01*
X146186987Y-113271909D01*
X146132267Y-113379303D01*
X146113412Y-113498351D01*
X145243806Y-113498351D01*
X145172398Y-113426943D01*
X145065004Y-113372223D01*
X145065005Y-113372223D01*
X144945957Y-113353368D01*
X144826909Y-113372223D01*
X144719515Y-113426943D01*
X144634289Y-113512169D01*
X144579569Y-113619563D01*
X144560714Y-113738611D01*
X144564629Y-113763331D01*
X144562127Y-113773750D01*
X144552991Y-113779349D01*
X144542572Y-113776847D01*
X144541564Y-113776042D01*
X143059080Y-112474447D01*
X143056477Y-112471397D01*
X143051288Y-112463174D01*
X143030547Y-112449316D01*
X143029816Y-112448754D01*
X143028687Y-112447762D01*
X143028678Y-112447756D01*
X143027911Y-112447326D01*
X143026009Y-112446258D01*
X143025560Y-112445983D01*
X143018662Y-112441374D01*
X143018631Y-112441353D01*
X143018554Y-112441301D01*
X143018541Y-112441292D01*
X143012739Y-112437417D01*
X143009260Y-112435093D01*
X142985081Y-112418936D01*
X142985074Y-112418930D01*
X142962707Y-112403987D01*
X142947872Y-112394075D01*
X142939770Y-112388662D01*
X142928830Y-112381352D01*
X142928827Y-112381350D01*
X142928825Y-112381349D01*
X142925916Y-112380188D01*
X142921722Y-112377577D01*
X142913982Y-112370586D01*
X142860897Y-112353248D01*
X142828718Y-112342737D01*
X142828005Y-112342504D01*
X142827979Y-112342497D01*
X142749816Y-112316968D01*
X142741678Y-112309997D01*
X142740854Y-112299314D01*
X142741685Y-112297310D01*
X142771938Y-112237938D01*
X142790793Y-112118891D01*
X142771938Y-111999844D01*
X142717218Y-111892451D01*
X142717217Y-111892449D01*
X142631991Y-111807223D01*
X142524597Y-111752503D01*
X142524598Y-111752503D01*
X142405550Y-111733648D01*
X142286502Y-111752503D01*
X142179108Y-111807223D01*
X142093882Y-111892449D01*
X142073112Y-111933210D01*
X142064964Y-111940169D01*
X142054282Y-111939328D01*
X142051855Y-111937756D01*
X141995622Y-111892451D01*
X141902086Y-111817091D01*
X141896950Y-111807688D01*
X141898745Y-111799192D01*
X141946670Y-111716185D01*
X141952905Y-111680818D01*
X141965378Y-111610088D01*
X141965378Y-111610083D01*
X141946670Y-111503987D01*
X141892804Y-111410687D01*
X141892802Y-111410685D01*
X141810272Y-111341434D01*
X141759652Y-111323010D01*
X141709034Y-111304586D01*
X141709033Y-111304586D01*
X141601297Y-111304586D01*
X141601295Y-111304586D01*
X141500058Y-111341434D01*
X141419129Y-111409341D01*
X141408910Y-111412563D01*
X141401234Y-111409426D01*
X141063793Y-111131737D01*
X141058902Y-111123358D01*
X141046670Y-111053987D01*
X140998915Y-110971273D01*
X140997516Y-110960650D01*
X141004039Y-110952149D01*
X141014662Y-110950750D01*
X141020038Y-110953548D01*
X141050058Y-110978738D01*
X141151297Y-111015586D01*
X141151298Y-111015586D01*
X141259032Y-111015586D01*
X141259033Y-111015586D01*
X141360272Y-110978738D01*
X141442802Y-110909487D01*
X141496670Y-110816185D01*
X141497736Y-110810142D01*
X142262155Y-110810142D01*
X142281010Y-110929189D01*
X142335730Y-111036583D01*
X142420956Y-111121809D01*
X142420958Y-111121810D01*
X142528351Y-111176530D01*
X142647398Y-111195385D01*
X142766445Y-111176530D01*
X142779306Y-111169977D01*
X145351340Y-111169977D01*
X145370195Y-111289024D01*
X145424915Y-111396418D01*
X145510141Y-111481644D01*
X145510143Y-111481645D01*
X145617536Y-111536365D01*
X145736583Y-111555220D01*
X145855630Y-111536365D01*
X145963023Y-111481645D01*
X146048251Y-111396417D01*
X146102971Y-111289024D01*
X146121826Y-111169977D01*
X146102971Y-111050930D01*
X146048251Y-110943537D01*
X146048250Y-110943535D01*
X145963024Y-110858309D01*
X145855630Y-110803589D01*
X145855631Y-110803589D01*
X145736583Y-110784734D01*
X145617535Y-110803589D01*
X145510141Y-110858309D01*
X145424915Y-110943535D01*
X145370195Y-111050929D01*
X145351340Y-111169977D01*
X142779306Y-111169977D01*
X142873838Y-111121810D01*
X142959066Y-111036582D01*
X143013786Y-110929189D01*
X143032641Y-110810142D01*
X143013786Y-110691095D01*
X142959066Y-110583702D01*
X142959065Y-110583700D01*
X142873839Y-110498474D01*
X142766445Y-110443754D01*
X142766446Y-110443754D01*
X142647398Y-110424899D01*
X142528350Y-110443754D01*
X142420956Y-110498474D01*
X142335730Y-110583700D01*
X142281010Y-110691094D01*
X142262155Y-110810142D01*
X141497736Y-110810142D01*
X141515378Y-110710086D01*
X141515378Y-110710083D01*
X141496670Y-110603987D01*
X141442804Y-110510687D01*
X141442802Y-110510685D01*
X141360272Y-110441434D01*
X141309652Y-110423010D01*
X141259034Y-110404586D01*
X141259033Y-110404586D01*
X141151297Y-110404586D01*
X141151295Y-110404586D01*
X141050058Y-110441434D01*
X140989164Y-110492530D01*
X140978945Y-110495752D01*
X140971166Y-110492530D01*
X140910272Y-110441434D01*
X140859652Y-110423010D01*
X140809034Y-110404586D01*
X140809033Y-110404586D01*
X140701297Y-110404586D01*
X140701295Y-110404586D01*
X140600058Y-110441434D01*
X140539164Y-110492530D01*
X140528945Y-110495752D01*
X140521166Y-110492530D01*
X140460272Y-110441434D01*
X140409652Y-110423010D01*
X140359034Y-110404586D01*
X140359033Y-110404586D01*
X140251297Y-110404586D01*
X140251295Y-110404586D01*
X140150058Y-110441434D01*
X140089164Y-110492530D01*
X140078945Y-110495752D01*
X140071166Y-110492530D01*
X140010272Y-110441434D01*
X139959652Y-110423010D01*
X139909034Y-110404586D01*
X139909033Y-110404586D01*
X139801297Y-110404586D01*
X139801295Y-110404586D01*
X139700058Y-110441434D01*
X139682999Y-110455748D01*
X139672779Y-110458970D01*
X139663275Y-110454022D01*
X139660000Y-110445023D01*
X139660000Y-109810088D01*
X140444952Y-109810088D01*
X140463659Y-109916184D01*
X140517525Y-110009484D01*
X140517527Y-110009486D01*
X140517528Y-110009487D01*
X140600058Y-110078738D01*
X140701297Y-110115586D01*
X140701298Y-110115586D01*
X140809032Y-110115586D01*
X140809033Y-110115586D01*
X140910272Y-110078738D01*
X140992802Y-110009487D01*
X141046670Y-109916185D01*
X141065378Y-109810088D01*
X141344952Y-109810088D01*
X141363659Y-109916184D01*
X141417525Y-110009484D01*
X141417527Y-110009486D01*
X141417528Y-110009487D01*
X141500058Y-110078738D01*
X141601297Y-110115586D01*
X141601298Y-110115586D01*
X141709032Y-110115586D01*
X141709033Y-110115586D01*
X141810272Y-110078738D01*
X141892802Y-110009487D01*
X141946670Y-109916185D01*
X141965378Y-109810086D01*
X141965378Y-109810083D01*
X141961815Y-109789874D01*
X143067369Y-109789874D01*
X143073077Y-109825914D01*
X143086224Y-109908921D01*
X143140944Y-110016315D01*
X143226170Y-110101541D01*
X143226172Y-110101542D01*
X143333565Y-110156262D01*
X143452612Y-110175117D01*
X143571659Y-110156262D01*
X143679052Y-110101542D01*
X143764280Y-110016314D01*
X143819000Y-109908921D01*
X143837855Y-109789874D01*
X143819000Y-109670827D01*
X143764280Y-109563434D01*
X143764279Y-109563432D01*
X143679053Y-109478206D01*
X143571659Y-109423486D01*
X143571660Y-109423486D01*
X143452612Y-109404631D01*
X143333564Y-109423486D01*
X143226170Y-109478206D01*
X143140944Y-109563432D01*
X143086224Y-109670826D01*
X143075160Y-109740686D01*
X143067369Y-109789874D01*
X141961815Y-109789874D01*
X141946670Y-109703987D01*
X141892804Y-109610687D01*
X141879932Y-109599886D01*
X141810272Y-109541434D01*
X141759652Y-109523010D01*
X141709034Y-109504586D01*
X141709033Y-109504586D01*
X141601297Y-109504586D01*
X141601295Y-109504586D01*
X141500059Y-109541434D01*
X141417525Y-109610687D01*
X141363659Y-109703987D01*
X141344952Y-109810083D01*
X141344952Y-109810088D01*
X141065378Y-109810088D01*
X141065378Y-109810086D01*
X141065378Y-109810083D01*
X141046670Y-109703987D01*
X140992804Y-109610687D01*
X140979932Y-109599886D01*
X140910272Y-109541434D01*
X140859652Y-109523010D01*
X140809034Y-109504586D01*
X140809033Y-109504586D01*
X140701297Y-109504586D01*
X140701295Y-109504586D01*
X140600059Y-109541434D01*
X140517525Y-109610687D01*
X140463659Y-109703987D01*
X140444952Y-109810083D01*
X140444952Y-109810088D01*
X139660000Y-109810088D01*
X139660000Y-109334172D01*
X139664101Y-109324273D01*
X139671805Y-109320346D01*
X139689220Y-109317588D01*
X139796613Y-109262868D01*
X139881841Y-109177640D01*
X139935447Y-109072433D01*
X146931584Y-109072433D01*
X146950439Y-109191481D01*
X147005159Y-109298875D01*
X147090385Y-109384101D01*
X147090387Y-109384102D01*
X147197780Y-109438822D01*
X147316827Y-109457677D01*
X147435874Y-109438822D01*
X147543267Y-109384102D01*
X147628495Y-109298874D01*
X147683215Y-109191481D01*
X147702070Y-109072434D01*
X147683215Y-108953387D01*
X147641944Y-108872389D01*
X148775791Y-108872389D01*
X148794646Y-108991436D01*
X148849366Y-109098830D01*
X148934592Y-109184056D01*
X148934594Y-109184057D01*
X149041987Y-109238777D01*
X149161034Y-109257632D01*
X149280081Y-109238777D01*
X149387474Y-109184057D01*
X149472702Y-109098829D01*
X149527422Y-108991436D01*
X149546277Y-108872389D01*
X149527422Y-108753342D01*
X149472702Y-108645949D01*
X149472701Y-108645947D01*
X149387475Y-108560721D01*
X149280081Y-108506001D01*
X149280082Y-108506001D01*
X149161034Y-108487146D01*
X149041986Y-108506001D01*
X148934592Y-108560721D01*
X148849366Y-108645947D01*
X148794646Y-108753341D01*
X148775791Y-108872389D01*
X147641944Y-108872389D01*
X147628495Y-108845994D01*
X147628494Y-108845992D01*
X147543268Y-108760766D01*
X147435874Y-108706046D01*
X147435875Y-108706046D01*
X147316827Y-108687191D01*
X147197779Y-108706046D01*
X147090385Y-108760766D01*
X147005159Y-108845992D01*
X146950439Y-108953386D01*
X146931584Y-109072433D01*
X139935447Y-109072433D01*
X139936561Y-109070247D01*
X139955416Y-108951200D01*
X139936561Y-108832153D01*
X139881841Y-108724760D01*
X139881840Y-108724758D01*
X139796614Y-108639532D01*
X139689220Y-108584812D01*
X139689215Y-108584811D01*
X139671809Y-108582053D01*
X139662673Y-108576454D01*
X139660000Y-108568226D01*
X139660000Y-107794103D01*
X145332748Y-107794103D01*
X145351603Y-107913150D01*
X145406323Y-108020544D01*
X145491549Y-108105770D01*
X145491551Y-108105771D01*
X145598944Y-108160491D01*
X145717991Y-108179346D01*
X145837038Y-108160491D01*
X145944431Y-108105771D01*
X146029659Y-108020543D01*
X146084379Y-107913150D01*
X146103234Y-107794103D01*
X146084379Y-107675056D01*
X146029659Y-107567663D01*
X146029658Y-107567661D01*
X145944432Y-107482435D01*
X145837038Y-107427715D01*
X145837039Y-107427715D01*
X145717991Y-107408860D01*
X145598943Y-107427715D01*
X145491549Y-107482435D01*
X145406323Y-107567661D01*
X145351603Y-107675055D01*
X145332748Y-107794103D01*
X139660000Y-107794103D01*
X139660000Y-107243578D01*
X139819867Y-107243578D01*
X139838722Y-107362625D01*
X139893442Y-107470019D01*
X139978668Y-107555245D01*
X139978670Y-107555246D01*
X140086063Y-107609966D01*
X140205110Y-107628821D01*
X140324157Y-107609966D01*
X140431550Y-107555246D01*
X140516778Y-107470018D01*
X140571498Y-107362625D01*
X140578594Y-107317823D01*
X141315177Y-107317823D01*
X141334032Y-107436870D01*
X141388752Y-107544264D01*
X141473978Y-107629490D01*
X141473980Y-107629491D01*
X141581373Y-107684211D01*
X141700420Y-107703066D01*
X141819467Y-107684211D01*
X141926860Y-107629491D01*
X142012088Y-107544263D01*
X142066808Y-107436870D01*
X142085663Y-107317823D01*
X142066808Y-107198776D01*
X142012088Y-107091383D01*
X142012087Y-107091381D01*
X141926861Y-107006155D01*
X141819467Y-106951435D01*
X141819468Y-106951435D01*
X141700420Y-106932580D01*
X141581372Y-106951435D01*
X141473978Y-107006155D01*
X141388752Y-107091381D01*
X141334032Y-107198775D01*
X141315177Y-107317823D01*
X140578594Y-107317823D01*
X140590353Y-107243578D01*
X140571498Y-107124531D01*
X140516778Y-107017138D01*
X140516777Y-107017136D01*
X140431551Y-106931910D01*
X140324157Y-106877190D01*
X140324158Y-106877190D01*
X140205110Y-106858335D01*
X140086062Y-106877190D01*
X139978668Y-106931910D01*
X139893442Y-107017136D01*
X139838722Y-107124530D01*
X139819867Y-107243578D01*
X139660000Y-107243578D01*
X139660000Y-107184414D01*
X139664101Y-107174515D01*
X139667641Y-107171942D01*
X139711884Y-107149399D01*
X139797112Y-107064171D01*
X139851832Y-106956778D01*
X139870687Y-106837731D01*
X139851832Y-106718684D01*
X139850480Y-106716031D01*
X149647276Y-106716031D01*
X149666131Y-106835078D01*
X149720851Y-106942472D01*
X149806077Y-107027698D01*
X149806079Y-107027699D01*
X149913472Y-107082419D01*
X150032519Y-107101274D01*
X150151566Y-107082419D01*
X150258959Y-107027699D01*
X150344187Y-106942471D01*
X150398907Y-106835078D01*
X150417762Y-106716031D01*
X150398907Y-106596984D01*
X150344187Y-106489591D01*
X150344186Y-106489589D01*
X150258960Y-106404363D01*
X150151566Y-106349643D01*
X150151567Y-106349643D01*
X150032519Y-106330788D01*
X149913471Y-106349643D01*
X149806077Y-106404363D01*
X149720851Y-106489589D01*
X149666131Y-106596983D01*
X149647276Y-106716031D01*
X139850480Y-106716031D01*
X139797112Y-106611291D01*
X139797111Y-106611289D01*
X139711885Y-106526063D01*
X139667644Y-106503520D01*
X139660685Y-106495372D01*
X139660000Y-106491046D01*
X139660000Y-105415830D01*
X139809500Y-105415830D01*
X139828355Y-105534877D01*
X139883075Y-105642271D01*
X139968301Y-105727497D01*
X139968303Y-105727498D01*
X140075696Y-105782218D01*
X140194743Y-105801073D01*
X140313790Y-105782218D01*
X140421183Y-105727498D01*
X140506411Y-105642270D01*
X140561131Y-105534877D01*
X140579986Y-105415830D01*
X140561131Y-105296783D01*
X140506411Y-105189390D01*
X140506410Y-105189388D01*
X140421184Y-105104162D01*
X140313790Y-105049442D01*
X140313791Y-105049442D01*
X140194743Y-105030587D01*
X140075695Y-105049442D01*
X139968301Y-105104162D01*
X139883075Y-105189388D01*
X139828355Y-105296782D01*
X139809500Y-105415830D01*
X139660000Y-105415830D01*
X139660000Y-100826144D01*
X139664101Y-100816245D01*
X139674000Y-100812144D01*
X139901324Y-100812144D01*
X139917447Y-100812144D01*
X139920537Y-100812489D01*
X139927713Y-100814113D01*
X139927713Y-100814112D01*
X139927714Y-100814113D01*
X139945587Y-100810557D01*
X139966641Y-100806370D01*
X140015661Y-100796625D01*
X140015661Y-100796624D01*
X140015666Y-100796624D01*
X140015670Y-100796621D01*
X140016205Y-100796399D01*
X140017362Y-100795770D01*
X140019466Y-100794866D01*
X140020284Y-100794577D01*
X140021917Y-100794114D01*
X140025483Y-100793589D01*
X140034171Y-100793444D01*
X140077107Y-100773458D01*
X140115446Y-100755626D01*
X140115447Y-100755624D01*
X140116723Y-100755031D01*
X140116820Y-100754972D01*
X140300962Y-100669259D01*
X140311666Y-100668800D01*
X140319561Y-100676044D01*
X140320869Y-100681952D01*
X140320869Y-100930919D01*
X140331341Y-100983571D01*
X140371237Y-101043278D01*
X140430937Y-101083169D01*
X140430939Y-101083169D01*
X140430941Y-101083171D01*
X140483592Y-101093644D01*
X141517204Y-101093643D01*
X141527103Y-101097743D01*
X141531204Y-101107643D01*
X141527104Y-101117542D01*
X141483568Y-101161078D01*
X141428849Y-101268470D01*
X141409994Y-101387518D01*
X141428849Y-101506565D01*
X141483569Y-101613959D01*
X141568795Y-101699185D01*
X141568797Y-101699186D01*
X141676190Y-101753906D01*
X141795237Y-101772761D01*
X141914284Y-101753906D01*
X142021677Y-101699186D01*
X142106905Y-101613958D01*
X142161625Y-101506565D01*
X142180480Y-101387518D01*
X142161625Y-101268471D01*
X142106905Y-101161078D01*
X142063368Y-101117541D01*
X142059268Y-101107643D01*
X142063368Y-101097744D01*
X142073268Y-101093643D01*
X142119144Y-101093643D01*
X142119145Y-101093643D01*
X142171797Y-101083171D01*
X142231502Y-101043277D01*
X142271396Y-100983572D01*
X142281869Y-100930921D01*
X142281868Y-99013999D01*
X142285968Y-99004101D01*
X142295868Y-99000000D01*
X142536093Y-99000000D01*
X142545992Y-99004101D01*
G37*
%TD.AperFunction*%
%TD*%
%TA.AperFunction,Conductor*%
%TO.N,QVAR1*%
G36*
X131906517Y-99014352D02*
G01*
X131920869Y-99049000D01*
X131920869Y-100930918D01*
X131931342Y-100983572D01*
X131971235Y-101043277D01*
X132010950Y-101069813D01*
X132030941Y-101083171D01*
X132030943Y-101083172D01*
X132062473Y-101089443D01*
X132083592Y-101093644D01*
X133719145Y-101093643D01*
X133771797Y-101083171D01*
X133831502Y-101043277D01*
X133871396Y-100983572D01*
X133881869Y-100930921D01*
X133881868Y-100736849D01*
X133896220Y-100702202D01*
X133930868Y-100687850D01*
X133951546Y-100692427D01*
X134121813Y-100771681D01*
X134147298Y-100783547D01*
X134147325Y-100783556D01*
X134147331Y-100783559D01*
X134147336Y-100783560D01*
X134149766Y-100784395D01*
X134149676Y-100784654D01*
X134150900Y-100785224D01*
X134150772Y-100785497D01*
X134162815Y-100790881D01*
X134164610Y-100792150D01*
X134164611Y-100792150D01*
X134164614Y-100792152D01*
X134210974Y-100801373D01*
X134241556Y-100807463D01*
X134251913Y-100810755D01*
X134255032Y-100812144D01*
X134255033Y-100812144D01*
X134301324Y-100812144D01*
X134344687Y-100812153D01*
X134344689Y-100812152D01*
X134349399Y-100812153D01*
X134349502Y-100812144D01*
X135151324Y-100812144D01*
X135163538Y-100812144D01*
X135174350Y-100813352D01*
X135174960Y-100813490D01*
X135177714Y-100814113D01*
X135212345Y-100807224D01*
X135249121Y-100814566D01*
X135269934Y-100845764D01*
X135270869Y-100855288D01*
X135270869Y-100930917D01*
X135281342Y-100983572D01*
X135321235Y-101043277D01*
X135345150Y-101059255D01*
X135380941Y-101083171D01*
X135433592Y-101093644D01*
X135669564Y-101093643D01*
X135704210Y-101107995D01*
X135718562Y-101142643D01*
X135704210Y-101177291D01*
X135691808Y-101186302D01*
X135598072Y-101234064D01*
X135598065Y-101234069D01*
X135512844Y-101319290D01*
X135512839Y-101319296D01*
X135458122Y-101426684D01*
X135458121Y-101426685D01*
X135458121Y-101426687D01*
X135448029Y-101490406D01*
X135440158Y-101540105D01*
X135439266Y-101545734D01*
X135458121Y-101664781D01*
X135458121Y-101664782D01*
X135458122Y-101664783D01*
X135505630Y-101758022D01*
X135508573Y-101795410D01*
X135489196Y-101821009D01*
X135471235Y-101833010D01*
X135431343Y-101892715D01*
X135431342Y-101892716D01*
X135420869Y-101945367D01*
X135420869Y-101945368D01*
X135420869Y-101945370D01*
X135420869Y-103330918D01*
X135431342Y-103383572D01*
X135471235Y-103443277D01*
X135487884Y-103454401D01*
X135530941Y-103483171D01*
X135583592Y-103493644D01*
X136019145Y-103493643D01*
X136071797Y-103483171D01*
X136099145Y-103464896D01*
X136135925Y-103457579D01*
X136153590Y-103464895D01*
X136180941Y-103483171D01*
X136233592Y-103493644D01*
X136660468Y-103493643D01*
X136695116Y-103507995D01*
X136709468Y-103542643D01*
X136708865Y-103550306D01*
X136705177Y-103573598D01*
X136704729Y-103576428D01*
X136723584Y-103695475D01*
X136723584Y-103695476D01*
X136723585Y-103695477D01*
X136774465Y-103795335D01*
X136778304Y-103802868D01*
X136863532Y-103888096D01*
X136970925Y-103942816D01*
X137089972Y-103961671D01*
X137209019Y-103942816D01*
X137316412Y-103888096D01*
X137364174Y-103840333D01*
X137398823Y-103825981D01*
X137433471Y-103840333D01*
X137508372Y-103915234D01*
X137615765Y-103969954D01*
X137734812Y-103988809D01*
X137853859Y-103969954D01*
X137961252Y-103915234D01*
X137967705Y-103908780D01*
X138002351Y-103894427D01*
X138037000Y-103908777D01*
X138051354Y-103943424D01*
X138050751Y-103951092D01*
X138044778Y-103988808D01*
X138037082Y-104037396D01*
X138055937Y-104156443D01*
X138055937Y-104156444D01*
X138055938Y-104156445D01*
X138108634Y-104259867D01*
X138110657Y-104263836D01*
X138195885Y-104349064D01*
X138303278Y-104403784D01*
X138422325Y-104422639D01*
X138541372Y-104403784D01*
X138648765Y-104349064D01*
X138733993Y-104263836D01*
X138788713Y-104156443D01*
X138807568Y-104037396D01*
X138788713Y-103918349D01*
X138733993Y-103810956D01*
X138648765Y-103725728D01*
X138648763Y-103725727D01*
X138648762Y-103725726D01*
X138541374Y-103671009D01*
X138541373Y-103671008D01*
X138541372Y-103671008D01*
X138422325Y-103652153D01*
X138422324Y-103652153D01*
X138394726Y-103656524D01*
X138303278Y-103671008D01*
X138303276Y-103671008D01*
X138303275Y-103671009D01*
X138195887Y-103725726D01*
X138195880Y-103725731D01*
X138189428Y-103732184D01*
X138154779Y-103746534D01*
X138120132Y-103732180D01*
X138105782Y-103697531D01*
X138106383Y-103689883D01*
X138120055Y-103603566D01*
X138111009Y-103546455D01*
X138119764Y-103509992D01*
X138151740Y-103490396D01*
X138168962Y-103490733D01*
X138183592Y-103493644D01*
X138619145Y-103493643D01*
X138671797Y-103483171D01*
X138731502Y-103443277D01*
X138771396Y-103383572D01*
X138781869Y-103330921D01*
X138781868Y-101945368D01*
X138771396Y-101892716D01*
X138738118Y-101842913D01*
X138730803Y-101806132D01*
X138735199Y-101793451D01*
X138768295Y-101728500D01*
X138787150Y-101609453D01*
X138768295Y-101490406D01*
X138713575Y-101383013D01*
X138628347Y-101297785D01*
X138628345Y-101297784D01*
X138628344Y-101297783D01*
X138520956Y-101243066D01*
X138520955Y-101243065D01*
X138520954Y-101243065D01*
X138401907Y-101224210D01*
X138282860Y-101243065D01*
X138282858Y-101243065D01*
X138282857Y-101243066D01*
X138175469Y-101297783D01*
X138175463Y-101297788D01*
X138090242Y-101383009D01*
X138090237Y-101383015D01*
X138035520Y-101490403D01*
X138035519Y-101490404D01*
X138035519Y-101490406D01*
X138016664Y-101609453D01*
X138033440Y-101715375D01*
X138035535Y-101728598D01*
X138026780Y-101765064D01*
X137994803Y-101784660D01*
X137977582Y-101784322D01*
X137969146Y-101782644D01*
X137969142Y-101782644D01*
X137533594Y-101782644D01*
X137480940Y-101793117D01*
X137453592Y-101811391D01*
X137416809Y-101818707D01*
X137399146Y-101811391D01*
X137371797Y-101793117D01*
X137369424Y-101792645D01*
X137319146Y-101782644D01*
X137319142Y-101782644D01*
X136883594Y-101782644D01*
X136830940Y-101793117D01*
X136803592Y-101811391D01*
X136766809Y-101818707D01*
X136749146Y-101811391D01*
X136721797Y-101793117D01*
X136719424Y-101792645D01*
X136669146Y-101782644D01*
X136669142Y-101782644D01*
X136233594Y-101782644D01*
X136220391Y-101785270D01*
X136218333Y-101785679D01*
X136181552Y-101778362D01*
X136160717Y-101747179D01*
X136165116Y-101715377D01*
X136190897Y-101664781D01*
X136209752Y-101545734D01*
X136190897Y-101426687D01*
X136136177Y-101319294D01*
X136050949Y-101234066D01*
X136050947Y-101234065D01*
X136050946Y-101234064D01*
X135957209Y-101186302D01*
X135932853Y-101157784D01*
X135935796Y-101120397D01*
X135964314Y-101096041D01*
X135979451Y-101093643D01*
X136869145Y-101093643D01*
X136921797Y-101083171D01*
X136981502Y-101043277D01*
X137021396Y-100983572D01*
X137031869Y-100930921D01*
X137031868Y-100410997D01*
X137046220Y-100376350D01*
X137080868Y-100361998D01*
X137088528Y-100362600D01*
X137117093Y-100367125D01*
X137117094Y-100367124D01*
X137117095Y-100367125D01*
X137120950Y-100367125D01*
X137120950Y-100369207D01*
X137150652Y-100376324D01*
X137170262Y-100408291D01*
X137170869Y-100415979D01*
X137170869Y-100930918D01*
X137181342Y-100983572D01*
X137221235Y-101043277D01*
X137245150Y-101059255D01*
X137280941Y-101083171D01*
X137333592Y-101093644D01*
X138769145Y-101093643D01*
X138821797Y-101083171D01*
X138881502Y-101043277D01*
X138921396Y-100983572D01*
X138931869Y-100930921D01*
X138931868Y-100855295D01*
X138946219Y-100820648D01*
X138980867Y-100806296D01*
X138990449Y-100807242D01*
X138991546Y-100807461D01*
X138991566Y-100807465D01*
X139001913Y-100810755D01*
X139005032Y-100812144D01*
X139005033Y-100812144D01*
X139051324Y-100812144D01*
X139094687Y-100812153D01*
X139094689Y-100812152D01*
X139099399Y-100812153D01*
X139099502Y-100812144D01*
X139301000Y-100812144D01*
X139335648Y-100826496D01*
X139350000Y-100861144D01*
X139350000Y-105544188D01*
X139335648Y-105578836D01*
X139301000Y-105593188D01*
X139278229Y-105587575D01*
X139190032Y-105541286D01*
X139029578Y-105501738D01*
X138864322Y-105501738D01*
X138722452Y-105536705D01*
X138685376Y-105531062D01*
X138667068Y-105511375D01*
X138660325Y-105498141D01*
X138575097Y-105412913D01*
X138575095Y-105412912D01*
X138575094Y-105412911D01*
X138467706Y-105358194D01*
X138467705Y-105358193D01*
X138467704Y-105358193D01*
X138348657Y-105339338D01*
X138229610Y-105358193D01*
X138229608Y-105358193D01*
X138229607Y-105358194D01*
X138122219Y-105412911D01*
X138122213Y-105412916D01*
X138036992Y-105498137D01*
X138036987Y-105498144D01*
X138029506Y-105512825D01*
X138000987Y-105537180D01*
X137974122Y-105538153D01*
X137826378Y-105501738D01*
X137661122Y-105501738D01*
X137500669Y-105541285D01*
X137354351Y-105618079D01*
X137354346Y-105618082D01*
X137354343Y-105618084D01*
X137354339Y-105618086D01*
X137354341Y-105618086D01*
X137230651Y-105727664D01*
X137230648Y-105727667D01*
X137230647Y-105727669D01*
X137214538Y-105751007D01*
X137182475Y-105797458D01*
X137150981Y-105817819D01*
X137114313Y-105809948D01*
X137101824Y-105797458D01*
X137092958Y-105784614D01*
X137085088Y-105747947D01*
X137098636Y-105722132D01*
X137125480Y-105695289D01*
X137180200Y-105587896D01*
X137199055Y-105468849D01*
X137180200Y-105349802D01*
X137142540Y-105275893D01*
X137139598Y-105238507D01*
X137142534Y-105231416D01*
X137196411Y-105125680D01*
X137215266Y-105006633D01*
X137196411Y-104887586D01*
X137141691Y-104780193D01*
X137056463Y-104694965D01*
X137056461Y-104694964D01*
X137056460Y-104694963D01*
X136949072Y-104640246D01*
X136949071Y-104640245D01*
X136949070Y-104640245D01*
X136830023Y-104621390D01*
X136710976Y-104640245D01*
X136710974Y-104640245D01*
X136710973Y-104640246D01*
X136603585Y-104694963D01*
X136603579Y-104694968D01*
X136518358Y-104780189D01*
X136518353Y-104780195D01*
X136463636Y-104887583D01*
X136463635Y-104887584D01*
X136463635Y-104887586D01*
X136444780Y-105006633D01*
X136463635Y-105125680D01*
X136463635Y-105125681D01*
X136463636Y-105125683D01*
X136463636Y-105125685D01*
X136501292Y-105199588D01*
X136504235Y-105236975D01*
X136501292Y-105244078D01*
X136447425Y-105349796D01*
X136447425Y-105349798D01*
X136447424Y-105349800D01*
X136447424Y-105349802D01*
X136435388Y-105425796D01*
X136428569Y-105468850D01*
X136428569Y-105470583D01*
X136428124Y-105471655D01*
X136427966Y-105472658D01*
X136427725Y-105472619D01*
X136414217Y-105505231D01*
X136391296Y-105518159D01*
X136297468Y-105541286D01*
X136151151Y-105618079D01*
X136151146Y-105618082D01*
X136151143Y-105618084D01*
X136151139Y-105618086D01*
X136151141Y-105618086D01*
X136027449Y-105727665D01*
X136027445Y-105727670D01*
X135933572Y-105863669D01*
X135874971Y-106018186D01*
X135855052Y-106182238D01*
X135874971Y-106346289D01*
X135933572Y-106500806D01*
X136027445Y-106636805D01*
X136027449Y-106636810D01*
X136056615Y-106662648D01*
X136073033Y-106696366D01*
X136060799Y-106731818D01*
X136051346Y-106740067D01*
X135991269Y-106780210D01*
X135991268Y-106780211D01*
X135989495Y-106782030D01*
X135988106Y-106783347D01*
X135961665Y-106806534D01*
X135960818Y-106807381D01*
X135952328Y-106814163D01*
X135948333Y-106816683D01*
X135948332Y-106816684D01*
X135921694Y-106856553D01*
X135897022Y-106893466D01*
X135896990Y-106893523D01*
X135801473Y-107036475D01*
X135801469Y-107036482D01*
X135800531Y-107038833D01*
X135799751Y-107040585D01*
X135784189Y-107072138D01*
X135783732Y-107073241D01*
X135778488Y-107082750D01*
X135775761Y-107086610D01*
X135775760Y-107086612D01*
X135766723Y-107132045D01*
X135757718Y-107177301D01*
X135757714Y-107177334D01*
X135738034Y-107276268D01*
X135737964Y-107276501D01*
X135732635Y-107303362D01*
X135732613Y-107303394D01*
X135724403Y-107344777D01*
X135724382Y-107344903D01*
X135724190Y-107345865D01*
X135724189Y-107345876D01*
X135724219Y-107348184D01*
X135724169Y-107350089D01*
X135721862Y-107385518D01*
X135721862Y-107386645D01*
X135720655Y-107397454D01*
X135719619Y-107402030D01*
X135719619Y-107402031D01*
X135724442Y-107426281D01*
X135724462Y-107426399D01*
X135727938Y-107443849D01*
X135771189Y-107661287D01*
X135772203Y-107663647D01*
X135772893Y-107665445D01*
X135784178Y-107698706D01*
X135784642Y-107699827D01*
X135787658Y-107710261D01*
X135788460Y-107714924D01*
X135810073Y-107747270D01*
X135814189Y-107753431D01*
X135838276Y-107789489D01*
X135838278Y-107789490D01*
X135840948Y-107793487D01*
X135840982Y-107793529D01*
X135894028Y-107872917D01*
X135894850Y-107874473D01*
X135894885Y-107874525D01*
X135896234Y-107877048D01*
X135923465Y-107916973D01*
X135935535Y-107935038D01*
X135936177Y-107935895D01*
X135936424Y-107936189D01*
X135937889Y-107938121D01*
X137657569Y-110459488D01*
X137684832Y-110499460D01*
X137691578Y-110514011D01*
X137691786Y-110514761D01*
X137711428Y-110538630D01*
X137712744Y-110540385D01*
X137716972Y-110546584D01*
X137720605Y-110550056D01*
X137722597Y-110552202D01*
X137768982Y-110608568D01*
X138185535Y-111114754D01*
X138196469Y-111150626D01*
X138195955Y-111154396D01*
X138194952Y-111160086D01*
X138197235Y-111173032D01*
X138213333Y-111264330D01*
X138205215Y-111300944D01*
X138173586Y-111321095D01*
X138148319Y-111318884D01*
X138109034Y-111304586D01*
X138109033Y-111304586D01*
X138001297Y-111304586D01*
X137900061Y-111341433D01*
X137900055Y-111341436D01*
X137817528Y-111410683D01*
X137817526Y-111410686D01*
X137763660Y-111503984D01*
X137744952Y-111610086D01*
X137763333Y-111714330D01*
X137755215Y-111750944D01*
X137723586Y-111771095D01*
X137698319Y-111768884D01*
X137659034Y-111754586D01*
X137659033Y-111754586D01*
X137551297Y-111754586D01*
X137450061Y-111791433D01*
X137450055Y-111791436D01*
X137367528Y-111860683D01*
X137367526Y-111860686D01*
X137313660Y-111953984D01*
X137294952Y-112060086D01*
X137313660Y-112166187D01*
X137367526Y-112259485D01*
X137367528Y-112259488D01*
X137428543Y-112310685D01*
X137450058Y-112328738D01*
X137551297Y-112365586D01*
X137659033Y-112365586D01*
X137760272Y-112328738D01*
X137798668Y-112296518D01*
X137834435Y-112285241D01*
X137861660Y-112296518D01*
X137900058Y-112328738D01*
X138001297Y-112365586D01*
X138109033Y-112365586D01*
X138210272Y-112328738D01*
X138248668Y-112296518D01*
X138284435Y-112285241D01*
X138311660Y-112296518D01*
X138350058Y-112328738D01*
X138451297Y-112365586D01*
X138559033Y-112365586D01*
X138660272Y-112328738D01*
X138698668Y-112296518D01*
X138734435Y-112285241D01*
X138761660Y-112296518D01*
X138800058Y-112328738D01*
X138901297Y-112365586D01*
X139009033Y-112365586D01*
X139048319Y-112351287D01*
X139085785Y-112352923D01*
X139111122Y-112380573D01*
X139113333Y-112405840D01*
X139094952Y-112510085D01*
X139113660Y-112616187D01*
X139167526Y-112709485D01*
X139167528Y-112709488D01*
X139250057Y-112778738D01*
X139271290Y-112786465D01*
X139317759Y-112803379D01*
X139345409Y-112828714D01*
X139350000Y-112849423D01*
X139350000Y-116174607D01*
X139335648Y-116209255D01*
X139308666Y-116223003D01*
X139267632Y-116229503D01*
X139267630Y-116229503D01*
X139267629Y-116229504D01*
X139160241Y-116284221D01*
X139160235Y-116284226D01*
X139075014Y-116369447D01*
X139075009Y-116369453D01*
X139020292Y-116476841D01*
X139020291Y-116476842D01*
X139020291Y-116476844D01*
X139001436Y-116595891D01*
X139020291Y-116714938D01*
X139020291Y-116714939D01*
X139020292Y-116714940D01*
X139032859Y-116739605D01*
X139075011Y-116822331D01*
X139160239Y-116907559D01*
X139160244Y-116907561D01*
X139163359Y-116909825D01*
X139162703Y-116910727D01*
X139184167Y-116935856D01*
X139181226Y-116973244D01*
X139152710Y-116997601D01*
X139137566Y-117000000D01*
X135887987Y-117000000D01*
X135853339Y-116985648D01*
X135839590Y-116958665D01*
X135828183Y-116886641D01*
X135773463Y-116779248D01*
X135688235Y-116694020D01*
X135688233Y-116694019D01*
X135688232Y-116694018D01*
X135580844Y-116639301D01*
X135580843Y-116639300D01*
X135580842Y-116639300D01*
X135461795Y-116620445D01*
X135461794Y-116620445D01*
X135434196Y-116624816D01*
X135342748Y-116639300D01*
X135342746Y-116639300D01*
X135342745Y-116639301D01*
X135235359Y-116694016D01*
X135235352Y-116694022D01*
X135227167Y-116702206D01*
X135192518Y-116716555D01*
X135163715Y-116707193D01*
X135161182Y-116705352D01*
X135053795Y-116650636D01*
X135053796Y-116650636D01*
X135053794Y-116650635D01*
X135053793Y-116650635D01*
X134934746Y-116631780D01*
X134815699Y-116650635D01*
X134815697Y-116650635D01*
X134815696Y-116650636D01*
X134708310Y-116705351D01*
X134708301Y-116705358D01*
X134708168Y-116705492D01*
X134708051Y-116705540D01*
X134705191Y-116707619D01*
X134704691Y-116706931D01*
X134673517Y-116719838D01*
X134649316Y-116711969D01*
X134648907Y-116712772D01*
X134538080Y-116656303D01*
X134538081Y-116656303D01*
X134538079Y-116656302D01*
X134538078Y-116656302D01*
X134419031Y-116637447D01*
X134299984Y-116656302D01*
X134299982Y-116656302D01*
X134299980Y-116656303D01*
X134299978Y-116656303D01*
X134190193Y-116712242D01*
X134152806Y-116715185D01*
X134133300Y-116703231D01*
X134124089Y-116694020D01*
X134124084Y-116694016D01*
X134016698Y-116639301D01*
X134016699Y-116639301D01*
X134016697Y-116639300D01*
X134016696Y-116639300D01*
X133897649Y-116620445D01*
X133897648Y-116620445D01*
X133870050Y-116624816D01*
X133778602Y-116639300D01*
X133778600Y-116639300D01*
X133778599Y-116639301D01*
X133718517Y-116669915D01*
X133673343Y-116692933D01*
X133668813Y-116695241D01*
X133631425Y-116698184D01*
X133617752Y-116689805D01*
X133617161Y-116690620D01*
X133614039Y-116688351D01*
X133506651Y-116633634D01*
X133506650Y-116633633D01*
X133506649Y-116633633D01*
X133387602Y-116614778D01*
X133268555Y-116633633D01*
X133268553Y-116633633D01*
X133268552Y-116633634D01*
X133161166Y-116688349D01*
X133158047Y-116690617D01*
X133156793Y-116688892D01*
X133128655Y-116700518D01*
X133102810Y-116692109D01*
X133102654Y-116692417D01*
X133100708Y-116691425D01*
X133099904Y-116691164D01*
X133099220Y-116690667D01*
X132991827Y-116635947D01*
X132991826Y-116635946D01*
X132991825Y-116635946D01*
X132872778Y-116617091D01*
X132753731Y-116635946D01*
X132753729Y-116635946D01*
X132753728Y-116635947D01*
X132646340Y-116690664D01*
X132643219Y-116692933D01*
X132642081Y-116691366D01*
X132613504Y-116703204D01*
X132584926Y-116691366D01*
X132583789Y-116692933D01*
X132580667Y-116690664D01*
X132473279Y-116635947D01*
X132473278Y-116635946D01*
X132473277Y-116635946D01*
X132354230Y-116617091D01*
X132235183Y-116635946D01*
X132235181Y-116635946D01*
X132235180Y-116635947D01*
X132127794Y-116690662D01*
X132124675Y-116692930D01*
X132123382Y-116691151D01*
X132094882Y-116702307D01*
X132071612Y-116694490D01*
X132071225Y-116695251D01*
X132067172Y-116693186D01*
X131960396Y-116638780D01*
X131841349Y-116619925D01*
X131722302Y-116638780D01*
X131722300Y-116638780D01*
X131722299Y-116638781D01*
X131614905Y-116693501D01*
X131612864Y-116694985D01*
X131576397Y-116703737D01*
X131555692Y-116693186D01*
X131554756Y-116694475D01*
X131551634Y-116692206D01*
X131444246Y-116637489D01*
X131444245Y-116637488D01*
X131444244Y-116637488D01*
X131325197Y-116618633D01*
X131206150Y-116637488D01*
X131206148Y-116637488D01*
X131206147Y-116637489D01*
X131101311Y-116690906D01*
X131063923Y-116693849D01*
X131044417Y-116681895D01*
X131030689Y-116668167D01*
X131030687Y-116668165D01*
X131030686Y-116668164D01*
X131030684Y-116668163D01*
X131030683Y-116668162D01*
X130923295Y-116613445D01*
X130923294Y-116613444D01*
X130923293Y-116613444D01*
X130804246Y-116594589D01*
X130685199Y-116613444D01*
X130685197Y-116613444D01*
X130685196Y-116613445D01*
X130577803Y-116668165D01*
X130577796Y-116668171D01*
X130577789Y-116668172D01*
X130574370Y-116669915D01*
X130573951Y-116669093D01*
X130541327Y-116676921D01*
X130509354Y-116657321D01*
X130500000Y-116628525D01*
X130500000Y-114967586D01*
X136097452Y-114967586D01*
X136116160Y-115073687D01*
X136170026Y-115166985D01*
X136170028Y-115166988D01*
X136241118Y-115226639D01*
X136252558Y-115236238D01*
X136353797Y-115273086D01*
X136461533Y-115273086D01*
X136562772Y-115236238D01*
X136601168Y-115204018D01*
X136636935Y-115192741D01*
X136664160Y-115204018D01*
X136702558Y-115236238D01*
X136803797Y-115273086D01*
X136911533Y-115273086D01*
X137012772Y-115236238D01*
X137095302Y-115166987D01*
X137149170Y-115073685D01*
X137167878Y-114967586D01*
X137447452Y-114967586D01*
X137466160Y-115073687D01*
X137520026Y-115166985D01*
X137520028Y-115166988D01*
X137591118Y-115226639D01*
X137602558Y-115236238D01*
X137703797Y-115273086D01*
X137811533Y-115273086D01*
X137912772Y-115236238D01*
X137995302Y-115166987D01*
X138049170Y-115073685D01*
X138067878Y-114967586D01*
X138049170Y-114861487D01*
X138049169Y-114861485D01*
X138049169Y-114861484D01*
X137994668Y-114767086D01*
X137993746Y-114760086D01*
X138194952Y-114760086D01*
X138213660Y-114866187D01*
X138267526Y-114959485D01*
X138267528Y-114959488D01*
X138338618Y-115019139D01*
X138350058Y-115028738D01*
X138451297Y-115065586D01*
X138559033Y-115065586D01*
X138660272Y-115028738D01*
X138742802Y-114959487D01*
X138796670Y-114866185D01*
X138815378Y-114760086D01*
X138796670Y-114653987D01*
X138796669Y-114653985D01*
X138796669Y-114653984D01*
X138742803Y-114560686D01*
X138742801Y-114560683D01*
X138660272Y-114491434D01*
X138559033Y-114454586D01*
X138451297Y-114454586D01*
X138350061Y-114491433D01*
X138350055Y-114491436D01*
X138267528Y-114560683D01*
X138267526Y-114560686D01*
X138213660Y-114653984D01*
X138194952Y-114760086D01*
X137993746Y-114760086D01*
X137989773Y-114729904D01*
X137994668Y-114718086D01*
X138049169Y-114623687D01*
X138049169Y-114623686D01*
X138049170Y-114623685D01*
X138067878Y-114517586D01*
X138049170Y-114411487D01*
X138049169Y-114411485D01*
X138049169Y-114411484D01*
X137995303Y-114318186D01*
X137995301Y-114318183D01*
X137912772Y-114248934D01*
X137811533Y-114212086D01*
X137703797Y-114212086D01*
X137602561Y-114248933D01*
X137602555Y-114248936D01*
X137520028Y-114318183D01*
X137520026Y-114318186D01*
X137466160Y-114411484D01*
X137447452Y-114517586D01*
X137466160Y-114623687D01*
X137520662Y-114718086D01*
X137525557Y-114755268D01*
X137520662Y-114767086D01*
X137466160Y-114861484D01*
X137447452Y-114967586D01*
X137167878Y-114967586D01*
X137149170Y-114861487D01*
X137149169Y-114861485D01*
X137149169Y-114861484D01*
X137095303Y-114768186D01*
X137095301Y-114768183D01*
X137012772Y-114698934D01*
X136911533Y-114662086D01*
X136803797Y-114662086D01*
X136702561Y-114698933D01*
X136702559Y-114698934D01*
X136664161Y-114731153D01*
X136628393Y-114742429D01*
X136601168Y-114731152D01*
X136562772Y-114698934D01*
X136461533Y-114662086D01*
X136353797Y-114662086D01*
X136252561Y-114698933D01*
X136252555Y-114698936D01*
X136170028Y-114768183D01*
X136170026Y-114768186D01*
X136116160Y-114861484D01*
X136097452Y-114967586D01*
X130500000Y-114967586D01*
X130500000Y-114320626D01*
X134997723Y-114320626D01*
X135016578Y-114439673D01*
X135071298Y-114547066D01*
X135156526Y-114632294D01*
X135263919Y-114687014D01*
X135382966Y-114705869D01*
X135502013Y-114687014D01*
X135609406Y-114632294D01*
X135694634Y-114547066D01*
X135749354Y-114439673D01*
X135768209Y-114320626D01*
X135749354Y-114201579D01*
X135694634Y-114094186D01*
X135609406Y-114008958D01*
X135609404Y-114008957D01*
X135609403Y-114008956D01*
X135502015Y-113954239D01*
X135502014Y-113954238D01*
X135502013Y-113954238D01*
X135382966Y-113935383D01*
X135263919Y-113954238D01*
X135263917Y-113954238D01*
X135263916Y-113954239D01*
X135156528Y-114008956D01*
X135156522Y-114008961D01*
X135071301Y-114094182D01*
X135071296Y-114094188D01*
X135016579Y-114201576D01*
X135016578Y-114201577D01*
X135016578Y-114201579D01*
X134997723Y-114320626D01*
X130500000Y-114320626D01*
X130500000Y-113110803D01*
X135747321Y-113110803D01*
X135766176Y-113229850D01*
X135766176Y-113229851D01*
X135766177Y-113229852D01*
X135808077Y-113312086D01*
X135820896Y-113337243D01*
X135906124Y-113422471D01*
X136013517Y-113477191D01*
X136070006Y-113486137D01*
X136101982Y-113505732D01*
X136110737Y-113542199D01*
X136110596Y-113543043D01*
X136097452Y-113617585D01*
X136116160Y-113723687D01*
X136170662Y-113818085D01*
X136175557Y-113855267D01*
X136170662Y-113867085D01*
X136116160Y-113961484D01*
X136097452Y-114067585D01*
X136116160Y-114173687D01*
X136170026Y-114266985D01*
X136170028Y-114266988D01*
X136231041Y-114318183D01*
X136252558Y-114336238D01*
X136353797Y-114373086D01*
X136461533Y-114373086D01*
X136562772Y-114336238D01*
X136645302Y-114266987D01*
X136699170Y-114173685D01*
X136717878Y-114067586D01*
X136699170Y-113961487D01*
X136699169Y-113961485D01*
X136699169Y-113961484D01*
X136644667Y-113867086D01*
X136639772Y-113829904D01*
X136644667Y-113818086D01*
X136699169Y-113723687D01*
X136699169Y-113723686D01*
X136699170Y-113723685D01*
X136717878Y-113617586D01*
X136699170Y-113511487D01*
X136699169Y-113511485D01*
X136699169Y-113511484D01*
X136645303Y-113418186D01*
X136645301Y-113418183D01*
X136562772Y-113348934D01*
X136509795Y-113329652D01*
X136482145Y-113304315D01*
X136480509Y-113266848D01*
X136482884Y-113261383D01*
X136487745Y-113251844D01*
X136516260Y-113227490D01*
X136548161Y-113228047D01*
X136550056Y-113228737D01*
X136550058Y-113228738D01*
X136651297Y-113265586D01*
X136759033Y-113265586D01*
X136860272Y-113228738D01*
X136898668Y-113196518D01*
X136934435Y-113185241D01*
X136961660Y-113196518D01*
X137000058Y-113228738D01*
X137101297Y-113265586D01*
X137209033Y-113265586D01*
X137310272Y-113228738D01*
X137392802Y-113159487D01*
X137446670Y-113066185D01*
X137465378Y-112960086D01*
X137446670Y-112853987D01*
X137446669Y-112853985D01*
X137446669Y-112853984D01*
X137392803Y-112760686D01*
X137392801Y-112760683D01*
X137310272Y-112691434D01*
X137209033Y-112654586D01*
X137101297Y-112654586D01*
X137000061Y-112691433D01*
X137000059Y-112691434D01*
X136961661Y-112723653D01*
X136925893Y-112734929D01*
X136898668Y-112723652D01*
X136860272Y-112691434D01*
X136759033Y-112654586D01*
X136651297Y-112654586D01*
X136550061Y-112691433D01*
X136550055Y-112691436D01*
X136467528Y-112760683D01*
X136467524Y-112760688D01*
X136445658Y-112798560D01*
X136415905Y-112821390D01*
X136378723Y-112816493D01*
X136368576Y-112808707D01*
X136359007Y-112799138D01*
X136359004Y-112799135D01*
X136359002Y-112799134D01*
X136359001Y-112799133D01*
X136251613Y-112744416D01*
X136251612Y-112744415D01*
X136251611Y-112744415D01*
X136132564Y-112725560D01*
X136013517Y-112744415D01*
X136013515Y-112744415D01*
X136013514Y-112744416D01*
X135906126Y-112799133D01*
X135906120Y-112799138D01*
X135820899Y-112884359D01*
X135820894Y-112884365D01*
X135766177Y-112991753D01*
X135766176Y-112991754D01*
X135766176Y-112991756D01*
X135747321Y-113110803D01*
X130500000Y-113110803D01*
X130500000Y-112656040D01*
X133505710Y-112656040D01*
X133524565Y-112775087D01*
X133524565Y-112775088D01*
X133524566Y-112775089D01*
X133551889Y-112828714D01*
X133579285Y-112882480D01*
X133664513Y-112967708D01*
X133771906Y-113022428D01*
X133890953Y-113041283D01*
X134010000Y-113022428D01*
X134117393Y-112967708D01*
X134202621Y-112882480D01*
X134257341Y-112775087D01*
X134276196Y-112656040D01*
X134257341Y-112536993D01*
X134202621Y-112429600D01*
X134117393Y-112344372D01*
X134117391Y-112344371D01*
X134117390Y-112344370D01*
X134010002Y-112289653D01*
X134010001Y-112289652D01*
X134010000Y-112289652D01*
X133890953Y-112270797D01*
X133890952Y-112270797D01*
X133863354Y-112275168D01*
X133771906Y-112289652D01*
X133771904Y-112289652D01*
X133771903Y-112289653D01*
X133664515Y-112344370D01*
X133664509Y-112344375D01*
X133579288Y-112429596D01*
X133579283Y-112429602D01*
X133524566Y-112536990D01*
X133524565Y-112536991D01*
X133524565Y-112536993D01*
X133505710Y-112656040D01*
X130500000Y-112656040D01*
X130500000Y-111949233D01*
X135311960Y-111949233D01*
X135330815Y-112068280D01*
X135330815Y-112068281D01*
X135330816Y-112068282D01*
X135380701Y-112166187D01*
X135385535Y-112175673D01*
X135470763Y-112260901D01*
X135578156Y-112315621D01*
X135697203Y-112334476D01*
X135816250Y-112315621D01*
X135923643Y-112260901D01*
X136008871Y-112175673D01*
X136063591Y-112068280D01*
X136064889Y-112060086D01*
X136394952Y-112060086D01*
X136413660Y-112166187D01*
X136467526Y-112259485D01*
X136467528Y-112259488D01*
X136528543Y-112310685D01*
X136550058Y-112328738D01*
X136651297Y-112365586D01*
X136759033Y-112365586D01*
X136860272Y-112328738D01*
X136942802Y-112259487D01*
X136996670Y-112166185D01*
X137015378Y-112060086D01*
X136996670Y-111953987D01*
X136996669Y-111953985D01*
X136996669Y-111953984D01*
X136942803Y-111860686D01*
X136942801Y-111860683D01*
X136860272Y-111791434D01*
X136759033Y-111754586D01*
X136651297Y-111754586D01*
X136550061Y-111791433D01*
X136550055Y-111791436D01*
X136467528Y-111860683D01*
X136467526Y-111860686D01*
X136413660Y-111953984D01*
X136394952Y-112060086D01*
X136064889Y-112060086D01*
X136082446Y-111949233D01*
X136063591Y-111830186D01*
X136008871Y-111722793D01*
X135923643Y-111637565D01*
X135923641Y-111637564D01*
X135923640Y-111637563D01*
X135816252Y-111582846D01*
X135816251Y-111582845D01*
X135816250Y-111582845D01*
X135697203Y-111563990D01*
X135578156Y-111582845D01*
X135578154Y-111582845D01*
X135578153Y-111582846D01*
X135470765Y-111637563D01*
X135470759Y-111637568D01*
X135385538Y-111722789D01*
X135385533Y-111722795D01*
X135330816Y-111830183D01*
X135330815Y-111830184D01*
X135330815Y-111830186D01*
X135311960Y-111949233D01*
X130500000Y-111949233D01*
X130500000Y-110946589D01*
X135700299Y-110946589D01*
X135719154Y-111065636D01*
X135719154Y-111065637D01*
X135719155Y-111065638D01*
X135767278Y-111160085D01*
X135773874Y-111173029D01*
X135859102Y-111258257D01*
X135966495Y-111312977D01*
X136085542Y-111331832D01*
X136204589Y-111312977D01*
X136311982Y-111258257D01*
X136397210Y-111173029D01*
X136451930Y-111065636D01*
X136470785Y-110946589D01*
X136451930Y-110827542D01*
X136397210Y-110720149D01*
X136311982Y-110634921D01*
X136311980Y-110634920D01*
X136311979Y-110634919D01*
X136204591Y-110580202D01*
X136204590Y-110580201D01*
X136204589Y-110580201D01*
X136085542Y-110561346D01*
X135966495Y-110580201D01*
X135966493Y-110580201D01*
X135966492Y-110580202D01*
X135859104Y-110634919D01*
X135859098Y-110634924D01*
X135773877Y-110720145D01*
X135773872Y-110720151D01*
X135719155Y-110827539D01*
X135719154Y-110827540D01*
X135719154Y-110827542D01*
X135700299Y-110946589D01*
X130500000Y-110946589D01*
X130500000Y-110800000D01*
X126603597Y-110800000D01*
X126568949Y-110785648D01*
X126554597Y-110751000D01*
X126559938Y-110728754D01*
X126569450Y-110710085D01*
X126606914Y-110636559D01*
X126625769Y-110517512D01*
X126606914Y-110398465D01*
X126552194Y-110291072D01*
X126550782Y-110289660D01*
X126550271Y-110288426D01*
X126549927Y-110287953D01*
X126550040Y-110287870D01*
X126536430Y-110255012D01*
X126550040Y-110222153D01*
X126549927Y-110222071D01*
X126550271Y-110221597D01*
X126550782Y-110220364D01*
X126552194Y-110218952D01*
X126606914Y-110111559D01*
X126625769Y-109992512D01*
X126606914Y-109873465D01*
X126583700Y-109827905D01*
X126552195Y-109766072D01*
X126551707Y-109765401D01*
X126551576Y-109764859D01*
X126550444Y-109762636D01*
X126550977Y-109762364D01*
X126542949Y-109728935D01*
X126556698Y-109701947D01*
X126564694Y-109693952D01*
X126611817Y-109601468D01*
X129328455Y-109601468D01*
X129347310Y-109720515D01*
X129347310Y-109720516D01*
X129347311Y-109720517D01*
X129370522Y-109766072D01*
X129402030Y-109827908D01*
X129487258Y-109913136D01*
X129594651Y-109967856D01*
X129643512Y-109975594D01*
X129675488Y-109995190D01*
X129684243Y-110031656D01*
X129670495Y-110058638D01*
X129658678Y-110070455D01*
X129658673Y-110070461D01*
X129603956Y-110177849D01*
X129603955Y-110177850D01*
X129603955Y-110177852D01*
X129585100Y-110296899D01*
X129603955Y-110415946D01*
X129603955Y-110415947D01*
X129603956Y-110415948D01*
X129653922Y-110514012D01*
X129658675Y-110523339D01*
X129743903Y-110608567D01*
X129851296Y-110663287D01*
X129970343Y-110682142D01*
X130089390Y-110663287D01*
X130196783Y-110608567D01*
X130282011Y-110523339D01*
X130336731Y-110415946D01*
X130355586Y-110296899D01*
X130336731Y-110177852D01*
X130282011Y-110070459D01*
X130196783Y-109985231D01*
X130196781Y-109985230D01*
X130196780Y-109985229D01*
X130089392Y-109930512D01*
X130089391Y-109930511D01*
X130089390Y-109930511D01*
X130046683Y-109923747D01*
X130040528Y-109922772D01*
X130008552Y-109903176D01*
X129999797Y-109866709D01*
X130013545Y-109839728D01*
X130025366Y-109827908D01*
X130080086Y-109720515D01*
X130098941Y-109601468D01*
X130080086Y-109482421D01*
X130025366Y-109375028D01*
X129940138Y-109289800D01*
X129940136Y-109289799D01*
X129940135Y-109289798D01*
X129832747Y-109235081D01*
X129832746Y-109235080D01*
X129832745Y-109235080D01*
X129713698Y-109216225D01*
X129594651Y-109235080D01*
X129594649Y-109235080D01*
X129594648Y-109235081D01*
X129487260Y-109289798D01*
X129487254Y-109289803D01*
X129402033Y-109375024D01*
X129402028Y-109375030D01*
X129347311Y-109482418D01*
X129347310Y-109482419D01*
X129347310Y-109482421D01*
X129328455Y-109601468D01*
X126611817Y-109601468D01*
X126619414Y-109586559D01*
X126638269Y-109467512D01*
X126619414Y-109348465D01*
X126564694Y-109241072D01*
X126560158Y-109236536D01*
X126545805Y-109201890D01*
X126557694Y-109173179D01*
X126556175Y-109172075D01*
X126558437Y-109168958D01*
X126558444Y-109168952D01*
X126568153Y-109149897D01*
X133373449Y-109149897D01*
X133392304Y-109268944D01*
X133392304Y-109268945D01*
X133392305Y-109268946D01*
X133432820Y-109348462D01*
X133447024Y-109376337D01*
X133532252Y-109461565D01*
X133639645Y-109516285D01*
X133758692Y-109535140D01*
X133877739Y-109516285D01*
X133985132Y-109461565D01*
X134070360Y-109376337D01*
X134075734Y-109365791D01*
X135864326Y-109365791D01*
X135883181Y-109484838D01*
X135883181Y-109484839D01*
X135883182Y-109484840D01*
X135935010Y-109586559D01*
X135937901Y-109592231D01*
X136023129Y-109677459D01*
X136130522Y-109732179D01*
X136249569Y-109751034D01*
X136368616Y-109732179D01*
X136476009Y-109677459D01*
X136561237Y-109592231D01*
X136615957Y-109484838D01*
X136634812Y-109365791D01*
X136615957Y-109246744D01*
X136561237Y-109139351D01*
X136476009Y-109054123D01*
X136476007Y-109054122D01*
X136476006Y-109054121D01*
X136368618Y-108999404D01*
X136368617Y-108999403D01*
X136368616Y-108999403D01*
X136249569Y-108980548D01*
X136130522Y-108999403D01*
X136130520Y-108999403D01*
X136130519Y-108999404D01*
X136023131Y-109054121D01*
X136023125Y-109054126D01*
X135937904Y-109139347D01*
X135937899Y-109139353D01*
X135883182Y-109246741D01*
X135883181Y-109246742D01*
X135883181Y-109246744D01*
X135864326Y-109365791D01*
X134075734Y-109365791D01*
X134125080Y-109268944D01*
X134143935Y-109149897D01*
X134125080Y-109030850D01*
X134070360Y-108923457D01*
X133985132Y-108838229D01*
X133985130Y-108838228D01*
X133985129Y-108838227D01*
X133877741Y-108783510D01*
X133877740Y-108783509D01*
X133877739Y-108783509D01*
X133758692Y-108764654D01*
X133639645Y-108783509D01*
X133639643Y-108783509D01*
X133639642Y-108783510D01*
X133532254Y-108838227D01*
X133532248Y-108838232D01*
X133447027Y-108923453D01*
X133447022Y-108923459D01*
X133392305Y-109030847D01*
X133392304Y-109030848D01*
X133392304Y-109030850D01*
X133373449Y-109149897D01*
X126568153Y-109149897D01*
X126613164Y-109061559D01*
X126632019Y-108942512D01*
X126613164Y-108823465D01*
X126558444Y-108716072D01*
X126556697Y-108714325D01*
X126542345Y-108679677D01*
X126550756Y-108653797D01*
X126550443Y-108653638D01*
X126551451Y-108651657D01*
X126551709Y-108650867D01*
X126552186Y-108650209D01*
X126552194Y-108650202D01*
X126572484Y-108610382D01*
X130388495Y-108610382D01*
X130407350Y-108729429D01*
X130407350Y-108729430D01*
X130407351Y-108729431D01*
X130460610Y-108833958D01*
X130462070Y-108836822D01*
X130547298Y-108922050D01*
X130654691Y-108976770D01*
X130773738Y-108995625D01*
X130892785Y-108976770D01*
X131000178Y-108922050D01*
X131085406Y-108836822D01*
X131140126Y-108729429D01*
X131158981Y-108610382D01*
X131140126Y-108491335D01*
X131085406Y-108383942D01*
X131000178Y-108298714D01*
X131000176Y-108298713D01*
X131000175Y-108298712D01*
X130892787Y-108243995D01*
X130892786Y-108243994D01*
X130892785Y-108243994D01*
X130773738Y-108225139D01*
X130654691Y-108243994D01*
X130654689Y-108243994D01*
X130654688Y-108243995D01*
X130547300Y-108298712D01*
X130547294Y-108298717D01*
X130462073Y-108383938D01*
X130462068Y-108383944D01*
X130407351Y-108491332D01*
X130407350Y-108491333D01*
X130407350Y-108491335D01*
X130388495Y-108610382D01*
X126572484Y-108610382D01*
X126606914Y-108542809D01*
X126625769Y-108423762D01*
X126606914Y-108304715D01*
X126589381Y-108270306D01*
X126552195Y-108197322D01*
X126551707Y-108196651D01*
X126551576Y-108196109D01*
X126550444Y-108193886D01*
X126550977Y-108193614D01*
X126542949Y-108160185D01*
X126556702Y-108133194D01*
X126556782Y-108133113D01*
X126558444Y-108131452D01*
X126613164Y-108024059D01*
X126632019Y-107905012D01*
X126613164Y-107785965D01*
X126558444Y-107678572D01*
X126550782Y-107670910D01*
X126536430Y-107636262D01*
X126550040Y-107603403D01*
X126549927Y-107603321D01*
X126550271Y-107602847D01*
X126550782Y-107601614D01*
X126552194Y-107600202D01*
X126606914Y-107492809D01*
X126625769Y-107373762D01*
X126606914Y-107254715D01*
X126552194Y-107147322D01*
X126547656Y-107142784D01*
X126533305Y-107108137D01*
X126547657Y-107073489D01*
X126551112Y-107070034D01*
X126558444Y-107062702D01*
X126613164Y-106955309D01*
X126616788Y-106932423D01*
X126636382Y-106900446D01*
X126672848Y-106891690D01*
X126695128Y-106902205D01*
X126695376Y-106901848D01*
X126697549Y-106903348D01*
X126697676Y-106903408D01*
X126697815Y-106903531D01*
X126844141Y-106980329D01*
X127004594Y-107019877D01*
X127169850Y-107019877D01*
X127330303Y-106980329D01*
X127476629Y-106903531D01*
X127600325Y-106793946D01*
X127694200Y-106657944D01*
X127696607Y-106651596D01*
X127722308Y-106624289D01*
X127746995Y-106620184D01*
X131008396Y-106925930D01*
X131041552Y-106943453D01*
X131052607Y-106979290D01*
X131047481Y-106996960D01*
X131035491Y-107020491D01*
X131017433Y-107134505D01*
X131016636Y-107139540D01*
X131035491Y-107258587D01*
X131035491Y-107258588D01*
X131035492Y-107258589D01*
X131079961Y-107345865D01*
X131090211Y-107365980D01*
X131175439Y-107451208D01*
X131282832Y-107505928D01*
X131401879Y-107524783D01*
X131520926Y-107505928D01*
X131628319Y-107451208D01*
X131713547Y-107365980D01*
X131768267Y-107258587D01*
X131783685Y-107161240D01*
X131803279Y-107129265D01*
X131839746Y-107120510D01*
X131854323Y-107125246D01*
X131947113Y-107172526D01*
X132000195Y-107180933D01*
X132032170Y-107200527D01*
X132040925Y-107236994D01*
X132027178Y-107263976D01*
X132016700Y-107274454D01*
X131961983Y-107381842D01*
X131961982Y-107381843D01*
X131961982Y-107381845D01*
X131943127Y-107500892D01*
X131961982Y-107619939D01*
X131961982Y-107619940D01*
X131961983Y-107619941D01*
X132010379Y-107714924D01*
X132016702Y-107727332D01*
X132101930Y-107812560D01*
X132209323Y-107867280D01*
X132328370Y-107886135D01*
X132447417Y-107867280D01*
X132554810Y-107812560D01*
X132640038Y-107727332D01*
X132694758Y-107619939D01*
X132713613Y-107500892D01*
X132694758Y-107381845D01*
X132640038Y-107274452D01*
X132554810Y-107189224D01*
X132554808Y-107189223D01*
X132554807Y-107189222D01*
X132447420Y-107134505D01*
X132447418Y-107134504D01*
X132447417Y-107134504D01*
X132394334Y-107126096D01*
X132362359Y-107106501D01*
X132353604Y-107070034D01*
X132367351Y-107043054D01*
X132377828Y-107032578D01*
X132432548Y-106925185D01*
X132451403Y-106806138D01*
X132432548Y-106687091D01*
X132377828Y-106579698D01*
X132292600Y-106494470D01*
X132292598Y-106494469D01*
X132292597Y-106494468D01*
X132185209Y-106439751D01*
X132185208Y-106439750D01*
X132185207Y-106439750D01*
X132066160Y-106420895D01*
X131947113Y-106439750D01*
X131947111Y-106439750D01*
X131947110Y-106439751D01*
X131839724Y-106494466D01*
X131839719Y-106494469D01*
X131839720Y-106494470D01*
X131790648Y-106543540D01*
X131756002Y-106557891D01*
X131751428Y-106557677D01*
X127786156Y-106185943D01*
X127753411Y-106168638D01*
X134868417Y-106168638D01*
X134887272Y-106287685D01*
X134887272Y-106287686D01*
X134887273Y-106287687D01*
X134917132Y-106346289D01*
X134941992Y-106395078D01*
X135027220Y-106480306D01*
X135134613Y-106535026D01*
X135253660Y-106553881D01*
X135372707Y-106535026D01*
X135480100Y-106480306D01*
X135565328Y-106395078D01*
X135620048Y-106287685D01*
X135638903Y-106168638D01*
X135620048Y-106049591D01*
X135565328Y-105942198D01*
X135480100Y-105856970D01*
X135480098Y-105856969D01*
X135480097Y-105856968D01*
X135372709Y-105802251D01*
X135372708Y-105802250D01*
X135372707Y-105802250D01*
X135253660Y-105783395D01*
X135134613Y-105802250D01*
X135134611Y-105802250D01*
X135134610Y-105802251D01*
X135027222Y-105856968D01*
X135027216Y-105856973D01*
X134941995Y-105942194D01*
X134941990Y-105942200D01*
X134887273Y-106049588D01*
X134887272Y-106049589D01*
X134887272Y-106049591D01*
X134868417Y-106168638D01*
X127753411Y-106168638D01*
X127752999Y-106168420D01*
X127744916Y-106154537D01*
X127694200Y-106020810D01*
X127692390Y-106018188D01*
X127600326Y-105884809D01*
X127600322Y-105884804D01*
X127485853Y-105783395D01*
X127484803Y-105782464D01*
X127468386Y-105748748D01*
X127480620Y-105713296D01*
X127484804Y-105709112D01*
X127584759Y-105620560D01*
X127584759Y-105620559D01*
X127584762Y-105620557D01*
X127636758Y-105545226D01*
X127668250Y-105524866D01*
X127687644Y-105525214D01*
X129350451Y-105892281D01*
X129350508Y-105892300D01*
X129350534Y-105892306D01*
X129359469Y-105895168D01*
X129359529Y-105895193D01*
X129359533Y-105895196D01*
X129401187Y-105903481D01*
X129419821Y-105907595D01*
X129419830Y-105907595D01*
X129422377Y-105907883D01*
X129422351Y-105908107D01*
X129426498Y-105908515D01*
X129552069Y-105933494D01*
X129594598Y-105941954D01*
X129594598Y-105941953D01*
X129607991Y-105944618D01*
X129609085Y-105944836D01*
X129609090Y-105944836D01*
X129617060Y-105946422D01*
X129617063Y-105946422D01*
X129617072Y-105946424D01*
X129617080Y-105946423D01*
X129619633Y-105946659D01*
X129619585Y-105947173D01*
X129634180Y-105949836D01*
X129636423Y-105950718D01*
X129667617Y-105949332D01*
X129667685Y-105949332D01*
X129680193Y-105948774D01*
X129688875Y-105948389D01*
X129726024Y-105946742D01*
X129726025Y-105946741D01*
X129733400Y-105946414D01*
X129733412Y-105946411D01*
X131653468Y-105861167D01*
X131688718Y-105873968D01*
X131690289Y-105875471D01*
X131754884Y-105940066D01*
X131862277Y-105994786D01*
X131981324Y-106013641D01*
X132100371Y-105994786D01*
X132207764Y-105940066D01*
X132292992Y-105854838D01*
X132347712Y-105747445D01*
X132365889Y-105632680D01*
X133949125Y-105632680D01*
X133967980Y-105751727D01*
X133967980Y-105751728D01*
X133967981Y-105751729D01*
X134021604Y-105856970D01*
X134022700Y-105859120D01*
X134107928Y-105944348D01*
X134215321Y-105999068D01*
X134334368Y-106017923D01*
X134453415Y-105999068D01*
X134560808Y-105944348D01*
X134646036Y-105859120D01*
X134700756Y-105751727D01*
X134719611Y-105632680D01*
X134700756Y-105513633D01*
X134646036Y-105406240D01*
X134560808Y-105321012D01*
X134560806Y-105321011D01*
X134560805Y-105321010D01*
X134453417Y-105266293D01*
X134453416Y-105266292D01*
X134453415Y-105266292D01*
X134334368Y-105247437D01*
X134215321Y-105266292D01*
X134215319Y-105266292D01*
X134215318Y-105266293D01*
X134107930Y-105321010D01*
X134107924Y-105321015D01*
X134022703Y-105406236D01*
X134022698Y-105406242D01*
X133967981Y-105513630D01*
X133967980Y-105513631D01*
X133967980Y-105513633D01*
X133949125Y-105632680D01*
X132365889Y-105632680D01*
X132366567Y-105628398D01*
X132347712Y-105509351D01*
X132292992Y-105401958D01*
X132207764Y-105316730D01*
X132207762Y-105316729D01*
X132207761Y-105316728D01*
X132100373Y-105262011D01*
X132100372Y-105262010D01*
X132100371Y-105262010D01*
X131981324Y-105243155D01*
X131981323Y-105243155D01*
X131957281Y-105246963D01*
X131862277Y-105262010D01*
X131862275Y-105262010D01*
X131862274Y-105262011D01*
X131754886Y-105316728D01*
X131754880Y-105316733D01*
X131669659Y-105401953D01*
X131667390Y-105405077D01*
X131665630Y-105403798D01*
X131642529Y-105423469D01*
X131629630Y-105425796D01*
X130225971Y-105488113D01*
X130190721Y-105475312D01*
X130174846Y-105441334D01*
X130184925Y-105409331D01*
X130197917Y-105392401D01*
X130259231Y-105244375D01*
X130280144Y-105085525D01*
X130259231Y-104926675D01*
X130252113Y-104909491D01*
X132788331Y-104909491D01*
X132807186Y-105028538D01*
X132807186Y-105028539D01*
X132807187Y-105028540D01*
X132859456Y-105131124D01*
X132861906Y-105135931D01*
X132947134Y-105221159D01*
X133054527Y-105275879D01*
X133173574Y-105294734D01*
X133292621Y-105275879D01*
X133400014Y-105221159D01*
X133485242Y-105135931D01*
X133539962Y-105028538D01*
X133552888Y-104946921D01*
X133572482Y-104914947D01*
X133608949Y-104906192D01*
X133640926Y-104925787D01*
X133644943Y-104932343D01*
X133665314Y-104972322D01*
X133750542Y-105057550D01*
X133857935Y-105112270D01*
X133976982Y-105131125D01*
X134096029Y-105112270D01*
X134150768Y-105084379D01*
X134860568Y-105084379D01*
X134879423Y-105203426D01*
X134879423Y-105203427D01*
X134879424Y-105203428D01*
X134925946Y-105294733D01*
X134934143Y-105310819D01*
X135019371Y-105396047D01*
X135126764Y-105450767D01*
X135245811Y-105469622D01*
X135364858Y-105450767D01*
X135472251Y-105396047D01*
X135557479Y-105310819D01*
X135612199Y-105203426D01*
X135631054Y-105084379D01*
X135612199Y-104965332D01*
X135557479Y-104857939D01*
X135472251Y-104772711D01*
X135472249Y-104772710D01*
X135472248Y-104772709D01*
X135364860Y-104717992D01*
X135364859Y-104717991D01*
X135364858Y-104717991D01*
X135245811Y-104699136D01*
X135126764Y-104717991D01*
X135126762Y-104717991D01*
X135126761Y-104717992D01*
X135019373Y-104772709D01*
X135019367Y-104772714D01*
X134934146Y-104857935D01*
X134934141Y-104857941D01*
X134879424Y-104965329D01*
X134879423Y-104965330D01*
X134879423Y-104965332D01*
X134860568Y-105084379D01*
X134150768Y-105084379D01*
X134203422Y-105057550D01*
X134288650Y-104972322D01*
X134343370Y-104864929D01*
X134362225Y-104745882D01*
X134343370Y-104626835D01*
X134288650Y-104519442D01*
X134203422Y-104434214D01*
X134203420Y-104434213D01*
X134203419Y-104434212D01*
X134096031Y-104379495D01*
X134096030Y-104379494D01*
X134096029Y-104379494D01*
X133976982Y-104360639D01*
X133976981Y-104360639D01*
X133949383Y-104365010D01*
X133857935Y-104379494D01*
X133857933Y-104379494D01*
X133857932Y-104379495D01*
X133750544Y-104434212D01*
X133750538Y-104434217D01*
X133665317Y-104519438D01*
X133665312Y-104519444D01*
X133610595Y-104626831D01*
X133610594Y-104626833D01*
X133610594Y-104626835D01*
X133599803Y-104694968D01*
X133597668Y-104708449D01*
X133578072Y-104740425D01*
X133541605Y-104749180D01*
X133509629Y-104729584D01*
X133505612Y-104723029D01*
X133485242Y-104683051D01*
X133400014Y-104597823D01*
X133400012Y-104597822D01*
X133400011Y-104597821D01*
X133292623Y-104543104D01*
X133292622Y-104543103D01*
X133292621Y-104543103D01*
X133173574Y-104524248D01*
X133173573Y-104524248D01*
X133153881Y-104527367D01*
X133054527Y-104543103D01*
X133054525Y-104543103D01*
X133054524Y-104543104D01*
X132947136Y-104597821D01*
X132947130Y-104597826D01*
X132861909Y-104683047D01*
X132861904Y-104683053D01*
X132807187Y-104790441D01*
X132807186Y-104790442D01*
X132807186Y-104790444D01*
X132788331Y-104909491D01*
X130252113Y-104909491D01*
X130233655Y-104864929D01*
X130197919Y-104778654D01*
X130197916Y-104778649D01*
X130146328Y-104711419D01*
X130100380Y-104651538D01*
X130100377Y-104651536D01*
X129973268Y-104554001D01*
X129973263Y-104553998D01*
X129825242Y-104492686D01*
X129743468Y-104481921D01*
X129706278Y-104477025D01*
X129626508Y-104477025D01*
X129545674Y-104487667D01*
X129504359Y-104493106D01*
X129504224Y-104492082D01*
X129470777Y-104487667D01*
X129447956Y-104457906D01*
X129452864Y-104420726D01*
X129476247Y-104400093D01*
X129865627Y-104235885D01*
X129903129Y-104235646D01*
X129914494Y-104242159D01*
X130011916Y-104316913D01*
X130011919Y-104316914D01*
X130011920Y-104316915D01*
X130131726Y-104366540D01*
X130151549Y-104374751D01*
X130301393Y-104394478D01*
X130451237Y-104374751D01*
X130590870Y-104316913D01*
X130710775Y-104224907D01*
X130802781Y-104105002D01*
X130860619Y-103965369D01*
X130880346Y-103815525D01*
X130860619Y-103665681D01*
X130802781Y-103526049D01*
X130802779Y-103526047D01*
X130802778Y-103526044D01*
X130710775Y-103406143D01*
X130710774Y-103406142D01*
X130590870Y-103314137D01*
X130590865Y-103314134D01*
X130451236Y-103256298D01*
X130301393Y-103236572D01*
X130151550Y-103256298D01*
X130011916Y-103314137D01*
X130011912Y-103314139D01*
X129892011Y-103406142D01*
X129892010Y-103406143D01*
X129800007Y-103526044D01*
X129800005Y-103526048D01*
X129742166Y-103665683D01*
X129725051Y-103795689D01*
X129706299Y-103828167D01*
X129695509Y-103834443D01*
X129676414Y-103842495D01*
X129638912Y-103842733D01*
X129612225Y-103816384D01*
X129608794Y-103803743D01*
X129590619Y-103665681D01*
X129532781Y-103526049D01*
X129532779Y-103526047D01*
X129532778Y-103526044D01*
X129440775Y-103406143D01*
X129440774Y-103406142D01*
X129320870Y-103314137D01*
X129320865Y-103314134D01*
X129287402Y-103300274D01*
X129260883Y-103273756D01*
X129260883Y-103236253D01*
X129287111Y-103209855D01*
X129299489Y-103204635D01*
X129305566Y-103202073D01*
X129349823Y-103183434D01*
X129350017Y-103183326D01*
X129865627Y-102965885D01*
X129903129Y-102965646D01*
X129914494Y-102972159D01*
X130011916Y-103046913D01*
X130011919Y-103046914D01*
X130011920Y-103046915D01*
X130105814Y-103085807D01*
X130151549Y-103104751D01*
X130301393Y-103124478D01*
X130451237Y-103104751D01*
X130590870Y-103046913D01*
X130710775Y-102954907D01*
X130802781Y-102835002D01*
X130860619Y-102695369D01*
X130880346Y-102545525D01*
X130860619Y-102395681D01*
X130802781Y-102256049D01*
X130802779Y-102256047D01*
X130802778Y-102256044D01*
X130710775Y-102136143D01*
X130710774Y-102136142D01*
X130590870Y-102044137D01*
X130590865Y-102044134D01*
X130451236Y-101986298D01*
X130301393Y-101966572D01*
X130151550Y-101986298D01*
X130011916Y-102044137D01*
X130011912Y-102044139D01*
X129892011Y-102136142D01*
X129892010Y-102136143D01*
X129800007Y-102256044D01*
X129800005Y-102256048D01*
X129742166Y-102395683D01*
X129725051Y-102525689D01*
X129706299Y-102558167D01*
X129695509Y-102564443D01*
X129676414Y-102572495D01*
X129638912Y-102572733D01*
X129612225Y-102546384D01*
X129608794Y-102533743D01*
X129590619Y-102395681D01*
X129532781Y-102256049D01*
X129532779Y-102256047D01*
X129532778Y-102256044D01*
X129440775Y-102136143D01*
X129440774Y-102136142D01*
X129320870Y-102044137D01*
X129320865Y-102044134D01*
X129181236Y-101986298D01*
X129031393Y-101966572D01*
X128881550Y-101986298D01*
X128741916Y-102044137D01*
X128741912Y-102044139D01*
X128622011Y-102136142D01*
X128622010Y-102136143D01*
X128569948Y-102203992D01*
X128537470Y-102222744D01*
X128508828Y-102217822D01*
X128426468Y-102175857D01*
X128426467Y-102175856D01*
X128426466Y-102175856D01*
X128307419Y-102157001D01*
X128307418Y-102157001D01*
X128279820Y-102161372D01*
X128188372Y-102175856D01*
X128188370Y-102175856D01*
X128188369Y-102175857D01*
X128080981Y-102230574D01*
X128080975Y-102230579D01*
X127995754Y-102315800D01*
X127995749Y-102315806D01*
X127941032Y-102423194D01*
X127941031Y-102423195D01*
X127941031Y-102423197D01*
X127922176Y-102542244D01*
X127941031Y-102661291D01*
X127941031Y-102661292D01*
X127941032Y-102661293D01*
X127972366Y-102722790D01*
X127995751Y-102768684D01*
X128080979Y-102853912D01*
X128080981Y-102853913D01*
X128148929Y-102888535D01*
X128173285Y-102917053D01*
X128170342Y-102954440D01*
X128141824Y-102978796D01*
X128135364Y-102980419D01*
X127342527Y-103123136D01*
X127305884Y-103115149D01*
X127299198Y-103109559D01*
X127275451Y-103085812D01*
X127275448Y-103085809D01*
X127275446Y-103085808D01*
X127275445Y-103085807D01*
X127168057Y-103031090D01*
X127168056Y-103031089D01*
X127168055Y-103031089D01*
X127049008Y-103012234D01*
X127049007Y-103012234D01*
X127021409Y-103016605D01*
X126929961Y-103031089D01*
X126929959Y-103031089D01*
X126929958Y-103031090D01*
X126822570Y-103085807D01*
X126822564Y-103085812D01*
X126737343Y-103171033D01*
X126737338Y-103171039D01*
X126682621Y-103278426D01*
X126682620Y-103278428D01*
X126682620Y-103278430D01*
X126676965Y-103314139D01*
X126675789Y-103321562D01*
X126656193Y-103353538D01*
X126619726Y-103362293D01*
X126587750Y-103342697D01*
X126583733Y-103336142D01*
X126572591Y-103314276D01*
X126571419Y-103311975D01*
X126571415Y-103311971D01*
X126557506Y-103298061D01*
X126543155Y-103263413D01*
X126556765Y-103230556D01*
X126556652Y-103230474D01*
X126556996Y-103229999D01*
X126557507Y-103228766D01*
X126558919Y-103227355D01*
X126613639Y-103119962D01*
X126632494Y-103000915D01*
X126613639Y-102881868D01*
X126558919Y-102774475D01*
X126548130Y-102763686D01*
X126533779Y-102729042D01*
X126548127Y-102694396D01*
X126565169Y-102677355D01*
X126619889Y-102569962D01*
X126638744Y-102450915D01*
X126619889Y-102331868D01*
X126565169Y-102224475D01*
X126565168Y-102224474D01*
X126564499Y-102223161D01*
X126561556Y-102185774D01*
X126564499Y-102178669D01*
X126565932Y-102175857D01*
X126619889Y-102069962D01*
X126638744Y-101950915D01*
X126619889Y-101831868D01*
X126565169Y-101724475D01*
X126565167Y-101724473D01*
X126562902Y-101721356D01*
X126564422Y-101720251D01*
X126552530Y-101691540D01*
X126564422Y-101662828D01*
X126562902Y-101661724D01*
X126565164Y-101658609D01*
X126565169Y-101658605D01*
X126619889Y-101551212D01*
X126638744Y-101432165D01*
X126619889Y-101313118D01*
X126576741Y-101228437D01*
X127865848Y-101228437D01*
X127884703Y-101347484D01*
X127884703Y-101347485D01*
X127884704Y-101347486D01*
X127927850Y-101432165D01*
X127939423Y-101454877D01*
X128024651Y-101540105D01*
X128132044Y-101594825D01*
X128251091Y-101613680D01*
X128370138Y-101594825D01*
X128465539Y-101546214D01*
X128502925Y-101543272D01*
X128527316Y-101563016D01*
X128528050Y-101562454D01*
X128601826Y-101658602D01*
X128622011Y-101684907D01*
X128741916Y-101776913D01*
X128741918Y-101776913D01*
X128741920Y-101776915D01*
X128874582Y-101831865D01*
X128881549Y-101834751D01*
X129031393Y-101854478D01*
X129181237Y-101834751D01*
X129320870Y-101776913D01*
X129440775Y-101684907D01*
X129532781Y-101565002D01*
X129590619Y-101425369D01*
X129610346Y-101275525D01*
X129610346Y-101275524D01*
X129722440Y-101275524D01*
X129742166Y-101425368D01*
X129800002Y-101564997D01*
X129800005Y-101565002D01*
X129871826Y-101658602D01*
X129892011Y-101684907D01*
X130011916Y-101776913D01*
X130011918Y-101776913D01*
X130011920Y-101776915D01*
X130144582Y-101831865D01*
X130151549Y-101834751D01*
X130301393Y-101854478D01*
X130451237Y-101834751D01*
X130590870Y-101776913D01*
X130710775Y-101684907D01*
X130794321Y-101576026D01*
X130826799Y-101557275D01*
X130863024Y-101566982D01*
X130867843Y-101571208D01*
X130873155Y-101576520D01*
X130980548Y-101631240D01*
X131099595Y-101650095D01*
X131218642Y-101631240D01*
X131326035Y-101576520D01*
X131411263Y-101491292D01*
X131465983Y-101383899D01*
X131484838Y-101264852D01*
X131465983Y-101145805D01*
X131411263Y-101038412D01*
X131326035Y-100953184D01*
X131326033Y-100953183D01*
X131326032Y-100953182D01*
X131218644Y-100898465D01*
X131218643Y-100898464D01*
X131218642Y-100898464D01*
X131099595Y-100879609D01*
X131099594Y-100879609D01*
X131071996Y-100883980D01*
X130980548Y-100898464D01*
X130980546Y-100898464D01*
X130980545Y-100898465D01*
X130873159Y-100953180D01*
X130873152Y-100953185D01*
X130858572Y-100967765D01*
X130823923Y-100982115D01*
X130789276Y-100967761D01*
X130785059Y-100962954D01*
X130710775Y-100866143D01*
X130590870Y-100774137D01*
X130590865Y-100774134D01*
X130451236Y-100716298D01*
X130301393Y-100696572D01*
X130151550Y-100716298D01*
X130011916Y-100774137D01*
X130011912Y-100774139D01*
X129892011Y-100866142D01*
X129892010Y-100866143D01*
X129800007Y-100986044D01*
X129800005Y-100986048D01*
X129742166Y-101125682D01*
X129722440Y-101275524D01*
X129610346Y-101275524D01*
X129590619Y-101125681D01*
X129532781Y-100986049D01*
X129532779Y-100986047D01*
X129532778Y-100986044D01*
X129440775Y-100866143D01*
X129440774Y-100866142D01*
X129320870Y-100774137D01*
X129320865Y-100774134D01*
X129181236Y-100716298D01*
X129051119Y-100699168D01*
X129031393Y-100696572D01*
X129031392Y-100696572D01*
X128881550Y-100716298D01*
X128741916Y-100774137D01*
X128741912Y-100774139D01*
X128622012Y-100866141D01*
X128571314Y-100932212D01*
X128538835Y-100950963D01*
X128502610Y-100941256D01*
X128497792Y-100937030D01*
X128477534Y-100916772D01*
X128477531Y-100916769D01*
X128477529Y-100916768D01*
X128477528Y-100916767D01*
X128370140Y-100862050D01*
X128370139Y-100862049D01*
X128370138Y-100862049D01*
X128251091Y-100843194D01*
X128251090Y-100843194D01*
X128234864Y-100845764D01*
X128132044Y-100862049D01*
X128132042Y-100862049D01*
X128132041Y-100862050D01*
X128024653Y-100916767D01*
X128024647Y-100916772D01*
X127939426Y-101001993D01*
X127939421Y-101001999D01*
X127884704Y-101109387D01*
X127884703Y-101109388D01*
X127884703Y-101109390D01*
X127865848Y-101228437D01*
X126576741Y-101228437D01*
X126565169Y-101205725D01*
X126557505Y-101198061D01*
X126543154Y-101163417D01*
X126557502Y-101128771D01*
X126565169Y-101121105D01*
X126619889Y-101013712D01*
X126638744Y-100894665D01*
X126619889Y-100775618D01*
X126565169Y-100668225D01*
X126565168Y-100668224D01*
X126565166Y-100668220D01*
X126563076Y-100665343D01*
X126554323Y-100628876D01*
X126568075Y-100601892D01*
X126568159Y-100601807D01*
X126569871Y-100600096D01*
X126624591Y-100492703D01*
X126643446Y-100373656D01*
X126624591Y-100254609D01*
X126569871Y-100147216D01*
X126564593Y-100141938D01*
X126550241Y-100107290D01*
X126555582Y-100085044D01*
X126556609Y-100083027D01*
X126556613Y-100083024D01*
X126596101Y-100005525D01*
X128036642Y-100005525D01*
X128057554Y-100164374D01*
X128118866Y-100312395D01*
X128118867Y-100312396D01*
X128118869Y-100312400D01*
X128216406Y-100439512D01*
X128343518Y-100537049D01*
X128343520Y-100537049D01*
X128343522Y-100537051D01*
X128425116Y-100570848D01*
X128491543Y-100598363D01*
X128610508Y-100614025D01*
X128610512Y-100614025D01*
X128690274Y-100614025D01*
X128690278Y-100614025D01*
X128809243Y-100598363D01*
X128957268Y-100537049D01*
X129084380Y-100439512D01*
X129181917Y-100312401D01*
X129243231Y-100164375D01*
X129264144Y-100005525D01*
X130068642Y-100005525D01*
X130089554Y-100164374D01*
X130150866Y-100312395D01*
X130150867Y-100312396D01*
X130150869Y-100312400D01*
X130248406Y-100439512D01*
X130375518Y-100537049D01*
X130375520Y-100537049D01*
X130375522Y-100537051D01*
X130457116Y-100570848D01*
X130523543Y-100598363D01*
X130642508Y-100614025D01*
X130642512Y-100614025D01*
X130722274Y-100614025D01*
X130722278Y-100614025D01*
X130841243Y-100598363D01*
X130989268Y-100537049D01*
X131116380Y-100439512D01*
X131213917Y-100312401D01*
X131275231Y-100164375D01*
X131296144Y-100005525D01*
X131275231Y-99846675D01*
X131230025Y-99737537D01*
X131213919Y-99698654D01*
X131213916Y-99698649D01*
X131116380Y-99571538D01*
X131116379Y-99571537D01*
X130989268Y-99474001D01*
X130989263Y-99473998D01*
X130841242Y-99412686D01*
X130759468Y-99401921D01*
X130722278Y-99397025D01*
X130642508Y-99397025D01*
X130608827Y-99401459D01*
X130523543Y-99412686D01*
X130375522Y-99473998D01*
X130375517Y-99474001D01*
X130248407Y-99571536D01*
X130150869Y-99698648D01*
X130150866Y-99698653D01*
X130089554Y-99846675D01*
X130068642Y-100005525D01*
X129264144Y-100005525D01*
X129243231Y-99846675D01*
X129198025Y-99737537D01*
X129181919Y-99698654D01*
X129181916Y-99698649D01*
X129084380Y-99571538D01*
X129084379Y-99571537D01*
X128957268Y-99474001D01*
X128957263Y-99473998D01*
X128809242Y-99412686D01*
X128727468Y-99401921D01*
X128690278Y-99397025D01*
X128610508Y-99397025D01*
X128576827Y-99401459D01*
X128491543Y-99412686D01*
X128343522Y-99473998D01*
X128343517Y-99474001D01*
X128216407Y-99571536D01*
X128118869Y-99698648D01*
X128118866Y-99698653D01*
X128057554Y-99846675D01*
X128036642Y-100005525D01*
X126596101Y-100005525D01*
X126611333Y-99975631D01*
X126630188Y-99856584D01*
X126611333Y-99737537D01*
X126556613Y-99630144D01*
X126556611Y-99630142D01*
X126554346Y-99627025D01*
X126556244Y-99625645D01*
X126544813Y-99598048D01*
X126559164Y-99563401D01*
X126561033Y-99561533D01*
X126615753Y-99454140D01*
X126634608Y-99335093D01*
X126615753Y-99216046D01*
X126561033Y-99108653D01*
X126536028Y-99083648D01*
X126521676Y-99049000D01*
X126536028Y-99014352D01*
X126570676Y-99000000D01*
X131871869Y-99000000D01*
X131906517Y-99014352D01*
G37*
%TD.AperFunction*%
%TD*%
M02*
