%TF.GenerationSoftware,KiCad,Pcbnew,7.0.10*%
%TF.CreationDate,2024-02-12T16:24:20-08:00*%
%TF.ProjectId,beeper-design,62656570-6572-42d6-9465-7369676e2e6b,rev?*%
%TF.SameCoordinates,Original*%
%TF.FileFunction,Copper,L3,Inr*%
%TF.FilePolarity,Positive*%
%FSLAX46Y46*%
G04 Gerber Fmt 4.6, Leading zero omitted, Abs format (unit mm)*
G04 Created by KiCad (PCBNEW 7.0.10) date 2024-02-12 16:24:20*
%MOMM*%
%LPD*%
G01*
G04 APERTURE LIST*
G04 Aperture macros list*
%AMFreePoly0*
4,1,12,0.288625,-0.252760,0.298140,-0.300595,0.288625,-0.348431,0.261528,-0.388984,0.220975,-0.416080,0.173140,-0.425595,0.125304,-0.416080,0.084751,-0.388984,0.057655,-0.348431,-0.298140,0.288507,-0.031294,0.425595,0.288625,-0.252760,0.288625,-0.252760,$1*%
%AMFreePoly1*
4,1,22,-0.660579,1.085110,-0.620026,1.058013,-0.592930,1.017460,-0.233907,0.426181,-0.193262,0.365352,0.796803,-0.881237,0.823899,-0.921789,0.833415,-0.969625,0.823899,-1.017460,0.796803,-1.058013,0.756250,-1.085110,0.708415,-1.094625,0.660579,-1.085110,0.620026,-1.058013,-0.796803,0.881237,-0.823899,0.921789,-0.833415,0.969625,-0.823899,1.017460,-0.796803,1.058013,-0.756250,1.085110,
-0.708415,1.094625,-0.660579,1.085110,-0.660579,1.085110,$1*%
%AMFreePoly2*
4,1,19,0.003299,0.999318,0.043852,0.972222,0.070949,0.931669,0.080464,0.883833,0.169536,-0.883833,0.160021,-0.931669,0.132924,-0.972222,0.092371,-0.999318,0.044536,-1.008833,-0.003299,-0.999318,-0.043852,-0.972222,-0.070949,-0.931669,-0.080464,-0.883833,-0.169536,0.883833,-0.160021,0.931669,-0.132924,0.972222,-0.092371,0.999318,-0.044536,1.008833,0.003299,0.999318,0.003299,0.999318,
$1*%
%AMFreePoly3*
4,1,19,-0.936712,0.849265,-0.896159,0.822168,1.072935,-0.645391,1.100032,-0.685944,1.109547,-0.733780,1.100032,-0.781615,1.072935,-0.822168,1.032383,-0.849265,0.984547,-0.858780,0.936712,-0.849265,0.896159,-0.822168,-1.072935,0.645391,-1.100032,0.685944,-1.109547,0.733780,-1.100032,0.781615,-1.072935,0.822168,-1.032383,0.849265,-0.984547,0.858780,-0.936712,0.849265,-0.936712,0.849265,
$1*%
%AMFreePoly4*
4,1,19,0.047835,0.315485,0.088388,0.288388,0.115485,0.247835,0.125000,0.200000,0.125000,-0.200000,0.115485,-0.247835,0.088388,-0.288388,0.047835,-0.315485,0.000000,-0.325000,-0.047835,-0.315485,-0.088388,-0.288388,-0.115485,-0.247835,-0.125000,-0.200000,-0.125000,0.200000,-0.115485,0.247835,-0.088388,0.288388,-0.047835,0.315485,0.000000,0.325000,0.047835,0.315485,0.047835,0.315485,
$1*%
%AMFreePoly5*
4,1,19,-0.128423,0.962266,-0.087870,0.935169,-0.060773,0.894616,0.291743,-0.798945,0.301258,-0.846781,0.291743,-0.894616,0.264647,-0.935169,0.224094,-0.962266,0.176258,-0.971781,0.128423,-0.962266,0.087870,-0.935169,0.060773,-0.894616,-0.291743,0.798945,-0.301258,0.846781,-0.291743,0.894616,-0.264647,0.935169,-0.224094,0.962266,-0.176258,0.971781,-0.128423,0.962266,-0.128423,0.962266,
$1*%
%AMFreePoly6*
4,1,19,0.474527,0.371789,0.515080,0.344692,0.542177,0.304139,0.551692,0.256304,0.542177,0.208468,0.515080,0.167915,0.474527,0.140819,-0.378857,-0.371789,-0.426692,-0.381304,-0.474527,-0.371789,-0.515080,-0.344692,-0.542177,-0.304139,-0.551692,-0.256304,-0.542177,-0.208468,-0.515080,-0.167915,-0.474527,-0.140819,0.378857,0.371789,0.426692,0.381304,0.474527,0.371789,0.474527,0.371789,
$1*%
%AMFreePoly7*
4,1,14,-0.075758,0.253324,-0.035205,0.226228,0.193948,-0.016310,0.248594,-0.054972,0.109701,-0.262840,0.017171,-0.193086,-0.211982,0.049451,-0.239078,0.090004,-0.248594,0.137840,-0.239078,0.185675,-0.211982,0.226228,-0.171429,0.253324,-0.123594,0.262840,-0.075758,0.253324,-0.075758,0.253324,$1*%
%AMFreePoly8*
4,1,14,0.176678,0.250935,0.217231,0.223839,0.244328,0.183286,0.253843,0.135450,0.244328,0.087615,0.217231,0.047062,-0.022420,-0.190697,-0.114950,-0.260450,-0.253843,-0.052583,-0.199197,-0.013920,0.040454,0.223839,0.081007,0.250935,0.128843,0.260450,0.176678,0.250935,0.176678,0.250935,$1*%
%AMFreePoly9*
4,1,19,-0.072016,1.516075,-0.031464,1.488979,-0.004367,1.448426,0.005148,1.400590,0.244852,-1.400590,0.235337,-1.448426,0.208240,-1.488979,0.167687,-1.516075,0.119852,-1.525590,0.072016,-1.516075,0.031464,-1.488979,0.004367,-1.448426,-0.005148,-1.400590,-0.244852,1.400590,-0.235337,1.448426,-0.208240,1.488979,-0.167687,1.516075,-0.119852,1.525590,-0.072016,1.516075,-0.072016,1.516075,
$1*%
G04 Aperture macros list end*
%TA.AperFunction,Conductor*%
%ADD10FreePoly0,0.000000*%
%TD*%
%TA.AperFunction,Conductor*%
%ADD11FreePoly1,0.000000*%
%TD*%
%TA.AperFunction,Conductor*%
%ADD12FreePoly2,0.000000*%
%TD*%
%TA.AperFunction,Conductor*%
%ADD13FreePoly3,0.000000*%
%TD*%
%TA.AperFunction,Conductor*%
%ADD14FreePoly4,0.000000*%
%TD*%
%TA.AperFunction,Conductor*%
%ADD15FreePoly5,0.000000*%
%TD*%
%TA.AperFunction,Conductor*%
%ADD16FreePoly6,0.000000*%
%TD*%
%TA.AperFunction,Conductor*%
%ADD17FreePoly7,0.000000*%
%TD*%
%TA.AperFunction,Conductor*%
%ADD18FreePoly8,0.000000*%
%TD*%
%TA.AperFunction,Conductor*%
%ADD19FreePoly9,0.000000*%
%TD*%
%TA.AperFunction,ViaPad*%
%ADD20C,0.250000*%
%TD*%
%TA.AperFunction,ViaPad*%
%ADD21C,0.400000*%
%TD*%
%TA.AperFunction,Conductor*%
%ADD22C,0.090000*%
%TD*%
%TA.AperFunction,Conductor*%
%ADD23C,0.200000*%
%TD*%
%TA.AperFunction,Conductor*%
%ADD24C,0.075000*%
%TD*%
%TA.AperFunction,Conductor*%
%ADD25C,0.100000*%
%TD*%
%TA.AperFunction,Conductor*%
%ADD26C,0.300000*%
%TD*%
%TA.AperFunction,Conductor*%
%ADD27C,0.250000*%
%TD*%
%TA.AperFunction,Profile*%
%ADD28C,0.050000*%
%TD*%
G04 APERTURE END LIST*
D10*
%TO.N,VBAT*%
%TO.C,*%
X141094920Y-107537377D03*
%TD*%
D11*
%TO.N,FOD*%
%TO.C,*%
X146633512Y-100439200D03*
%TD*%
D12*
%TO.N,RECT*%
%TO.C,*%
X148497390Y-100524992D03*
%TD*%
D13*
%TO.N,RECT*%
%TO.C,*%
X147557379Y-100675046D03*
%TD*%
D14*
%TO.N,RECT*%
%TO.C,*%
X148541927Y-101608825D03*
%TD*%
D15*
%TO.N,RECT*%
%TO.C,*%
X148718185Y-102655606D03*
%TD*%
D16*
%TO.N,V18F*%
%TO.C,*%
X144327724Y-116793664D03*
%TD*%
D17*
%TO.N,V18F*%
%TO.C,*%
X143784922Y-114386626D03*
%TD*%
D18*
%TO.N,V18F*%
%TO.C,*%
X144486365Y-114389016D03*
%TD*%
D19*
%TO.N,V18F*%
%TO.C,*%
X143781180Y-115649377D03*
%TD*%
D20*
%TO.N,mcu_data0*%
X138505165Y-111160086D03*
D21*
%TO.N,mcu_swdclk*%
X131099806Y-102486398D03*
D20*
%TO.N,D-*%
X137656635Y-103037404D03*
D21*
%TO.N,QVAR1*%
X134437302Y-103872356D03*
D20*
%TO.N,mcu_scl2*%
X148719173Y-112571735D03*
X140755165Y-113860086D03*
%TO.N,mcu1_gpio2*%
X141655165Y-112960086D03*
X146794797Y-113129689D03*
%TO.N,mcu3_gpio*%
X146280878Y-112615029D03*
X141205165Y-112510086D03*
%TO.N,VLED*%
X142791677Y-110203298D03*
X141631769Y-104364936D03*
%TO.N,SP_N*%
X150315097Y-110938575D03*
%TO.N,mcu_data3*%
X139405165Y-110710086D03*
%TO.N,VDD1P8*%
X133926649Y-107220038D03*
X135016650Y-107661488D03*
X141205165Y-110710086D03*
X135015724Y-103681760D03*
D21*
X133325956Y-104235270D03*
D20*
%TO.N,VDD1P8P*%
X143695241Y-112543850D03*
X151044033Y-108500601D03*
D21*
%TO.N,AC2*%
X151108026Y-101264622D03*
X151733181Y-101256460D03*
D20*
%TO.N,VDDSYS*%
X150315097Y-110438575D03*
X144251451Y-111802192D03*
X144792591Y-111787456D03*
X130381632Y-107879426D03*
X140755165Y-109810086D03*
X131912614Y-110352663D03*
D21*
%TO.N,QVAR2*%
X132672133Y-107033068D03*
X141062328Y-116503834D03*
D20*
%TO.N,VBUS*%
X148207021Y-103326510D03*
X137167141Y-101381040D03*
X140261103Y-107837973D03*
D21*
X128185938Y-103832108D03*
D20*
%TO.N,mcu_sda*%
X140305165Y-113410086D03*
X148536088Y-111998078D03*
%TO.N,GND*%
X149975097Y-108188575D03*
D21*
X138422325Y-104037396D03*
X131338093Y-113051743D03*
X126402896Y-115065217D03*
D20*
X133318088Y-103317714D03*
X151515723Y-108500601D03*
X151541188Y-111678849D03*
X138505165Y-110260086D03*
D21*
X128077499Y-101282656D03*
D20*
X136705165Y-112060086D03*
X145393914Y-102593098D03*
D21*
X131338093Y-115067252D03*
D20*
X144133019Y-114248787D03*
X139405165Y-111610086D03*
X149744277Y-103579559D03*
X141191434Y-113867717D03*
X136407665Y-113617586D03*
X138946950Y-106182238D03*
X143028580Y-106065238D03*
X138505165Y-114760086D03*
X151515723Y-110414103D03*
X136705165Y-112960086D03*
X138179500Y-105250000D03*
D21*
X128179500Y-104775000D03*
D20*
X140261103Y-107018250D03*
X136407665Y-114967586D03*
X137155165Y-112960086D03*
X146560594Y-103800248D03*
X144812655Y-109504617D03*
X145435963Y-110909046D03*
X149341927Y-101808825D03*
X137448712Y-116990399D03*
X138955165Y-112060086D03*
X137443867Y-116359377D03*
X149271820Y-99641158D03*
X145429651Y-110216438D03*
X139405165Y-112510086D03*
X151515723Y-112346569D03*
X149000000Y-114050000D03*
X136857665Y-114967586D03*
X145104416Y-116337360D03*
D21*
X144918929Y-98872494D03*
D20*
X137420500Y-105250000D03*
X141613456Y-104852764D03*
X145502802Y-112527682D03*
D21*
X126402896Y-116432783D03*
D20*
X139855165Y-112510086D03*
X141655165Y-109810086D03*
X144813195Y-108866826D03*
X138055165Y-110260086D03*
X148198022Y-103789201D03*
X138505165Y-111610086D03*
X137087147Y-100028027D03*
X137757665Y-114517586D03*
D21*
X126402896Y-115737686D03*
D20*
X151515723Y-111033303D03*
X143429342Y-117049967D03*
X147354287Y-99464227D03*
X141268060Y-107018250D03*
X141655165Y-111610086D03*
X135053591Y-116689001D03*
D21*
X131380525Y-116488716D03*
D20*
X145624121Y-111787456D03*
X145393914Y-100592371D03*
X143553007Y-106065238D03*
D21*
X126402896Y-113804210D03*
D20*
X147420500Y-105250000D03*
X151515723Y-109154256D03*
X135487414Y-103681760D03*
X134984739Y-111731155D03*
X137757665Y-114967586D03*
X149341927Y-101408825D03*
D21*
X126402896Y-113188950D03*
D20*
X138013865Y-101359212D03*
D21*
X126402896Y-117057853D03*
D20*
X149341927Y-102208825D03*
D21*
X135801369Y-101738144D03*
D20*
X132922454Y-116687814D03*
X139405165Y-112060086D03*
D21*
X131338093Y-114388344D03*
D20*
X139855165Y-112060086D03*
D21*
X126402896Y-112520649D03*
X131342103Y-117017561D03*
D20*
X145277363Y-99941266D03*
X148146998Y-110241780D03*
X149341927Y-101008825D03*
X136407665Y-114067586D03*
X148500000Y-114050000D03*
X130877672Y-109097419D03*
X134085739Y-113031155D03*
X138955165Y-111610086D03*
X148000000Y-114050000D03*
D21*
X131338093Y-113709436D03*
D20*
X142166975Y-107010533D03*
D21*
X126390525Y-114451295D03*
D20*
X130048096Y-107545891D03*
X148146998Y-110879259D03*
X148179500Y-105250000D03*
X151515723Y-109809374D03*
X149975097Y-110188575D03*
X150181490Y-112983089D03*
X132383298Y-109878436D03*
X139254147Y-106768250D03*
D21*
%TO.N,cap_p1*%
X152660705Y-101934348D03*
D20*
%TO.N,mcu_clk*%
X139855165Y-110710086D03*
%TO.N,VDD3P0*%
X149975097Y-111188575D03*
X149295097Y-110188575D03*
X139491383Y-107828414D03*
D21*
%TO.N,OUT-*%
X130137965Y-108999330D03*
D20*
%TO.N,mcu0_gpio2*%
X147131101Y-112451640D03*
X140755165Y-112960086D03*
%TO.N,V14RF*%
X141205002Y-110255575D03*
X138955165Y-114760086D03*
%TO.N,mcu2_gpio*%
X141205165Y-113410086D03*
X148078465Y-112461044D03*
D21*
%TO.N,mcu_tx*%
X131099595Y-101264852D03*
D20*
%TO.N,CLAMP1*%
X147741927Y-101808825D03*
X151108765Y-102999943D03*
%TO.N,SHIELD*%
X136470931Y-99532767D03*
%TO.N,VBAT*%
X141268060Y-107837973D03*
D21*
X142820354Y-101439858D03*
%TO.N,mcu_rx*%
X128133424Y-102542244D03*
D20*
%TO.N,mcu_data2*%
X138955165Y-111160086D03*
%TO.N,mcu_data1*%
X138955165Y-110710086D03*
%TO.N,FOD*%
X147341927Y-101408825D03*
X145925098Y-99469575D03*
%TO.N,RECT*%
X148541927Y-101808825D03*
X146572832Y-99941266D03*
X148541927Y-101408825D03*
X148894443Y-103502387D03*
X148452854Y-99641158D03*
%TO.N,D+*%
X137179787Y-103023399D03*
%TO.N,CLAMP2*%
X147741927Y-101408825D03*
X151108026Y-100366194D03*
D21*
%TO.N,mcu_swdio*%
X131034915Y-103779895D03*
D20*
%TO.N,SP_P*%
X149975097Y-110688575D03*
%TO.N,mcu2_gpio1*%
X140305165Y-113860086D03*
X147870297Y-113163719D03*
%TO.N,V18F*%
X144754416Y-116537360D03*
X143901032Y-117049967D03*
X144615208Y-114253566D03*
X143661328Y-114248787D03*
D21*
%TO.N,OUT+*%
X130996736Y-109842314D03*
%TD*%
D22*
%TO.N,mcu_scl2*%
X140755165Y-113860086D02*
X141011559Y-114068600D01*
X141011561Y-114068597D02*
G75*
G03*
X141022488Y-114076668I91539J112497D01*
G01*
X141022488Y-114076668D02*
X141063041Y-114103765D01*
X141063041Y-114103765D02*
G75*
G03*
X141115311Y-114125416I80559J120565D01*
G01*
X141115311Y-114125416D02*
X141163146Y-114134931D01*
X141163144Y-114134943D02*
G75*
G03*
X141211997Y-114136252I28256J142243D01*
G01*
X141211997Y-114136252D02*
X143613822Y-113792172D01*
X143655707Y-113788839D02*
G75*
G03*
X143613822Y-113792172I5593J-335061D01*
G01*
X143655707Y-113788834D02*
X145521343Y-113757526D01*
X145521343Y-113757527D02*
G75*
G03*
X145642032Y-113748874I-18543J1104627D01*
G01*
X145642032Y-113748875D02*
X146838266Y-113596940D01*
X146838266Y-113596940D02*
G75*
G03*
X146862103Y-113593059I-43366J341540D01*
G01*
X146862103Y-113593060D02*
X146909938Y-113583545D01*
X146909941Y-113583560D02*
G75*
G03*
X147034304Y-113532031I-67341J338360D01*
G01*
X147034304Y-113532031D02*
X147074857Y-113504935D01*
X147074858Y-113504936D02*
G75*
G03*
X147112260Y-113476050I-191758J286936D01*
G01*
X147112260Y-113476050D02*
X147685631Y-112966907D01*
X147701354Y-112954771D02*
G75*
G03*
X147685631Y-112966907I80646J-120729D01*
G01*
X147701351Y-112954767D02*
X147741904Y-112927671D01*
X147773402Y-112911785D02*
G75*
G03*
X147741904Y-112927671I49098J-136515D01*
G01*
X147773402Y-112911785D02*
X148719173Y-112571735D01*
%TO.N,mcu1_gpio2*%
X146794797Y-113129689D02*
X145639369Y-113354518D01*
X145509198Y-113367656D02*
G75*
G03*
X145639369Y-113354517I-6398J714756D01*
G01*
X145509198Y-113367653D02*
X143701636Y-113383821D01*
X143555750Y-113370119D02*
G75*
G03*
X143701636Y-113383820I139450J701319D01*
G01*
X143555751Y-113370112D02*
X143507916Y-113360596D01*
X143496296Y-113358185D02*
G75*
G03*
X143507916Y-113360595I148804J688185D01*
G01*
X143496296Y-113358185D02*
X141655165Y-112960086D01*
%TO.N,mcu3_gpio*%
X146280878Y-112615029D02*
X145715556Y-112934761D01*
X145615996Y-112971744D02*
G75*
G03*
X145715556Y-112934760I-65396J328544D01*
G01*
X145615993Y-112971730D02*
X145568158Y-112981245D01*
X145505799Y-112987669D02*
G75*
G03*
X145568158Y-112981244I-2999J334969D01*
G01*
X145505799Y-112987669D02*
X143698237Y-113003837D01*
X143629887Y-112997403D02*
G75*
G03*
X143698237Y-113003836I65413J328703D01*
G01*
X143629885Y-112997413D02*
X143582050Y-112987898D01*
X143562857Y-112983491D02*
G75*
G03*
X143582050Y-112987898I84543J324191D01*
G01*
X143562857Y-112983490D02*
X141787548Y-112520446D01*
X141787548Y-112520446D02*
G75*
G03*
X141768355Y-112516039I-84548J-324254D01*
G01*
X141768355Y-112516038D02*
X141720520Y-112506523D01*
X141720521Y-112506518D02*
G75*
G03*
X141647660Y-112500171I-65321J-328482D01*
G01*
X141647660Y-112500170D02*
X141205165Y-112510086D01*
D23*
%TO.N,VLED*%
X141631769Y-104364936D02*
X141856170Y-104637161D01*
X141868140Y-104653260D02*
G75*
G03*
X141856169Y-104637161I-166140J-111040D01*
G01*
X141868138Y-104653262D02*
X141895235Y-104693815D01*
X141925082Y-104765913D02*
G75*
G03*
X141895235Y-104693815I-196182J-38987D01*
G01*
X141925098Y-104765910D02*
X141934613Y-104813746D01*
X141938263Y-104861735D02*
G75*
G03*
X141934612Y-104813746I-199763J8935D01*
G01*
X141938255Y-104861735D02*
X141842176Y-107001562D01*
X141842168Y-107001562D02*
G75*
G03*
X141845819Y-107049551I199732J-8938D01*
G01*
X141845818Y-107049551D02*
X141855333Y-107097387D01*
X141855337Y-107097386D02*
G75*
G03*
X141860020Y-107116152I196163J38986D01*
G01*
X141860019Y-107116152D02*
X142791677Y-110203298D01*
D24*
%TO.N,VDD1P8*%
X141205165Y-110710086D02*
X135016650Y-107661488D01*
X135016650Y-107661488D02*
X133926649Y-107220038D01*
X133325956Y-104235270D02*
X133926649Y-107220038D01*
X133325956Y-104235270D02*
X134306608Y-103603514D01*
X134341254Y-103589492D02*
G75*
G03*
X134306608Y-103603514I19546J-98108D01*
G01*
X134341256Y-103589502D02*
X134417792Y-103574277D01*
X134456186Y-103574156D02*
G75*
G03*
X134417792Y-103574277I-18886J-98244D01*
G01*
X134456186Y-103574155D02*
X135015724Y-103681760D01*
D23*
%TO.N,VDD1P8P*%
X143695241Y-112543850D02*
X145465330Y-112206224D01*
X145468403Y-112205662D02*
G75*
G03*
X145465330Y-112206224I35097J-200538D01*
G01*
X145468403Y-112205662D02*
X148501688Y-111676058D01*
X148556001Y-111674069D02*
G75*
G03*
X148501688Y-111676058I-19901J-199031D01*
G01*
X148556001Y-111674072D02*
X149925313Y-111811091D01*
X149925313Y-111811090D02*
G75*
G03*
X150072642Y-111803968I49787J497490D01*
G01*
X150072642Y-111803968D02*
X150120477Y-111794453D01*
X150120480Y-111794469D02*
G75*
G03*
X150300717Y-111719794I-97580J490369D01*
G01*
X150300717Y-111719795D02*
X150341270Y-111692699D01*
X150341269Y-111692697D02*
G75*
G03*
X150359679Y-111679788I-278169J416297D01*
G01*
X150359680Y-111679789D02*
X150699680Y-111429789D01*
X150699683Y-111429793D02*
G75*
G03*
X150819219Y-111304749I-296183J402793D01*
G01*
X150819220Y-111304749D02*
X150846317Y-111264196D01*
X150846310Y-111264191D02*
G75*
G03*
X150920973Y-111083956I-415710J277791D01*
G01*
X150920974Y-111083956D02*
X150930490Y-111036121D01*
X150930492Y-111036121D02*
G75*
G03*
X150939646Y-110959780I-490392J97521D01*
G01*
X150939647Y-110959780D02*
X151044033Y-108500601D01*
D24*
%TO.N,VDDSYS*%
X140755165Y-109810086D02*
X141293364Y-110048671D01*
X141304398Y-110054407D02*
G75*
G03*
X141293364Y-110048672I-51598J-85793D01*
G01*
X141304398Y-110054408D02*
X144129859Y-111754664D01*
D23*
X150315097Y-110438575D02*
X150555605Y-110720342D01*
X150569781Y-110739072D02*
G75*
G03*
X150555605Y-110720342I-166281J-111128D01*
G01*
X150569779Y-110739073D02*
X150596876Y-110779626D01*
X150626727Y-110851724D02*
G75*
G03*
X150596875Y-110779626I-196127J-38976D01*
G01*
X150626739Y-110851722D02*
X150636254Y-110899557D01*
X150636263Y-110977596D02*
G75*
G03*
X150636253Y-110899557I-196163J38996D01*
G01*
X150636254Y-110977594D02*
X150626739Y-111025429D01*
X150596870Y-111097521D02*
G75*
G03*
X150626739Y-111025429I-166270J111121D01*
G01*
X150596876Y-111097525D02*
X150569779Y-111138078D01*
X150521966Y-111188098D02*
G75*
G03*
X150569779Y-111138078I-118466J161098D01*
G01*
X150521963Y-111188094D02*
X150181963Y-111438094D01*
X150174598Y-111443256D02*
G75*
G03*
X150181963Y-111438094I-111898J167456D01*
G01*
X150174599Y-111443258D02*
X150134046Y-111470354D01*
X150061953Y-111500234D02*
G75*
G03*
X150134046Y-111470354I-39053J196134D01*
G01*
X150061950Y-111500217D02*
X150014115Y-111509733D01*
X149955184Y-111512579D02*
G75*
G03*
X150014115Y-111509732I19916J199079D01*
G01*
X149955184Y-111512582D02*
X148585871Y-111375563D01*
X148585871Y-111375561D02*
G75*
G03*
X148520724Y-111373314I-49771J-497639D01*
G01*
X148520724Y-111373314D02*
X145617975Y-111462550D01*
X145617975Y-111462557D02*
G75*
G03*
X145585102Y-111466299I6125J-200043D01*
G01*
X145585102Y-111466299D02*
X145537267Y-111475814D01*
X145537266Y-111475807D02*
G75*
G03*
X145498117Y-111487880I39034J-196093D01*
G01*
X145498117Y-111487879D02*
X144792591Y-111787456D01*
D24*
X140755165Y-109810086D02*
X135653417Y-103530316D01*
X135653421Y-103530313D02*
G75*
G03*
X135631359Y-103510224I-77621J-63087D01*
G01*
X135631359Y-103510224D02*
X135590806Y-103483128D01*
X135590798Y-103483140D02*
G75*
G03*
X135554758Y-103468197I-55598J-83160D01*
G01*
X135554758Y-103468196D02*
X135506923Y-103458681D01*
X135506923Y-103458681D02*
G75*
G03*
X135503964Y-103458140I-19523J-98419D01*
G01*
X135503964Y-103458139D02*
X133334638Y-103094093D01*
X133334639Y-103094089D02*
G75*
G03*
X133298579Y-103094636I-16539J-98611D01*
G01*
X133298579Y-103094636D02*
X133250743Y-103104151D01*
X133250739Y-103104131D02*
G75*
G03*
X133214695Y-103119084I19561J-98069D01*
G01*
X133214695Y-103119083D02*
X133174142Y-103146179D01*
X133174138Y-103146173D02*
G75*
G03*
X133146552Y-103173769I55562J-83127D01*
G01*
X133146552Y-103173769D02*
X133119456Y-103214322D01*
X133119457Y-103214323D02*
G75*
G03*
X133116357Y-103219267I83443J-55777D01*
G01*
X133116356Y-103219267D02*
X130381632Y-107879426D01*
X144251451Y-111802192D02*
X144792591Y-111787456D01*
X130381632Y-107879426D02*
X131078021Y-108996687D01*
X131078317Y-108997167D02*
G75*
G03*
X131078020Y-108996687I-79817J-49033D01*
G01*
X131078318Y-108997167D02*
X131912614Y-110352663D01*
D25*
%TO.N,QVAR2*%
X132672133Y-107033068D02*
X133053168Y-109803496D01*
X133055017Y-109818462D02*
G75*
G03*
X133053167Y-109803496I-539817J-59138D01*
G01*
X133055018Y-109818462D02*
X133414019Y-113091128D01*
X133414018Y-113091128D02*
G75*
G03*
X133421308Y-113138455I546982J60028D01*
G01*
X133421307Y-113138455D02*
X133430822Y-113186290D01*
X133430833Y-113186288D02*
G75*
G03*
X133512947Y-113384554I539467J107288D01*
G01*
X133512946Y-113384554D02*
X133540043Y-113425107D01*
X133540028Y-113425117D02*
G75*
G03*
X133645089Y-113541931I457272J305617D01*
G01*
X133645089Y-113541931D02*
X135967015Y-115478362D01*
X135967019Y-115478357D02*
G75*
G03*
X136013713Y-115513282I352081J422057D01*
G01*
X136013713Y-115513282D02*
X136054266Y-115540379D01*
X136054263Y-115540384D02*
G75*
G03*
X136252530Y-115622502I305537J457284D01*
G01*
X136252530Y-115622503D02*
X136300365Y-115632018D01*
X136300364Y-115632025D02*
G75*
G03*
X136385955Y-115642157I107236J539325D01*
G01*
X136385955Y-115642157D02*
X137465577Y-115684806D01*
X137551166Y-115694952D02*
G75*
G03*
X137465577Y-115684806I-107366J-539648D01*
G01*
X137551167Y-115694945D02*
X137599002Y-115704460D01*
X137615435Y-115707992D02*
G75*
G03*
X137599002Y-115704461I-124235J-538208D01*
G01*
X137615435Y-115707991D02*
X141062328Y-116503834D01*
D24*
%TO.N,VBUS*%
X141343371Y-100393562D02*
X144308598Y-100423819D01*
X144308598Y-100423819D02*
X148207021Y-103326510D01*
X137167141Y-101381040D02*
X137937061Y-101148015D01*
X137944414Y-101146093D02*
G75*
G03*
X137937061Y-101148016I21486J-97207D01*
G01*
X137944413Y-101146091D02*
X141343371Y-100393562D01*
X137167141Y-101381040D02*
X135797198Y-101438231D01*
X135797198Y-101438226D02*
G75*
G03*
X135785652Y-101439388I4202J-99774D01*
G01*
X135785652Y-101439387D02*
X131084089Y-102187641D01*
X131084089Y-102187640D02*
G75*
G03*
X131080297Y-102188319I16011J-100360D01*
G01*
X131080297Y-102188319D02*
X131003761Y-102203543D01*
X131003759Y-102203533D02*
G75*
G03*
X130973088Y-102215126I19541J-98067D01*
G01*
X130973088Y-102215125D02*
X128185938Y-103832108D01*
X140261103Y-107837973D02*
X139932565Y-107171037D01*
X139920364Y-107141361D02*
G75*
G03*
X139932566Y-107171037I225236J75261D01*
G01*
X139920363Y-107141361D02*
X138832356Y-103885584D01*
X138832342Y-103885589D02*
G75*
G03*
X138804506Y-103828810I-225242J-75211D01*
G01*
X138804507Y-103828810D02*
X137167141Y-101381040D01*
D22*
%TO.N,mcu_sda*%
X140305165Y-113410086D02*
X140852376Y-113211905D01*
X140852377Y-113211907D02*
G75*
G03*
X140883557Y-113196133I-49377J136307D01*
G01*
X140883558Y-113196134D02*
X140924111Y-113169037D01*
X140924112Y-113169039D02*
G75*
G03*
X140930127Y-113164792I-80112J119839D01*
G01*
X140930127Y-113164792D02*
X141480202Y-112755379D01*
X141486220Y-112751136D02*
G75*
G03*
X141480203Y-112755380I82080J-122764D01*
G01*
X141486219Y-112751134D02*
X141526772Y-112724038D01*
X141579043Y-112702398D02*
G75*
G03*
X141526772Y-112724038I28257J-142202D01*
G01*
X141579041Y-112702387D02*
X141626877Y-112692872D01*
X141683453Y-112692873D02*
G75*
G03*
X141626877Y-112692873I-28288J-142219D01*
G01*
X141683453Y-112692872D02*
X141731288Y-112702387D01*
X141739597Y-112704293D02*
G75*
G03*
X141731288Y-112702387I-36597J-140507D01*
G01*
X141739596Y-112704295D02*
X143514905Y-113167340D01*
X143514904Y-113167342D02*
G75*
G03*
X143544983Y-113174246I132696J509142D01*
G01*
X143544983Y-113174247D02*
X143592818Y-113183762D01*
X143592817Y-113183769D02*
G75*
G03*
X143699936Y-113193829I102383J514869D01*
G01*
X143699936Y-113193829D02*
X145507498Y-113177661D01*
X145507498Y-113177663D02*
G75*
G03*
X145605225Y-113167594I-4698J524863D01*
G01*
X145605225Y-113167594D02*
X145653060Y-113158079D01*
X145653060Y-113158080D02*
G75*
G03*
X145696708Y-113147436I-102460J514980D01*
G01*
X145696708Y-113147437D02*
X147219280Y-112706400D01*
X147219282Y-112706405D02*
G75*
G03*
X147259646Y-112687585I-40382J139305D01*
G01*
X147259646Y-112687586D02*
X147949919Y-112225098D01*
X147979061Y-112210039D02*
G75*
G03*
X147949919Y-112225099I51539J-135461D01*
G01*
X147979061Y-112210039D02*
X148536088Y-111998078D01*
D24*
%TO.N,GND*%
X131338093Y-113051743D02*
X131353434Y-111076223D01*
X126416432Y-110882333D02*
X131366432Y-110932333D01*
D25*
X128179500Y-104775000D02*
X127861499Y-103963365D01*
X127854039Y-103937910D02*
G75*
G03*
X127861500Y-103963365I147161J29310D01*
G01*
X127854044Y-103937909D02*
X127838820Y-103861372D01*
X127836061Y-103838210D02*
G75*
G03*
X127838821Y-103861372I149839J6110D01*
G01*
X127836062Y-103838210D02*
X127783548Y-102548346D01*
X127786297Y-102512979D02*
G75*
G03*
X127783549Y-102548346I147103J-29221D01*
G01*
X127786306Y-102512981D02*
X127801530Y-102436444D01*
X127802768Y-102430801D02*
G75*
G03*
X127801530Y-102436444I146132J-34999D01*
G01*
X127802766Y-102430801D02*
X128077499Y-101282656D01*
D24*
X126402896Y-112520649D02*
X126416432Y-110882333D01*
D23*
%TO.N,VDD3P0*%
X149295097Y-110188575D02*
X148242187Y-109931982D01*
X148242186Y-109931984D02*
G75*
G03*
X148233851Y-109930139I-46886J-192016D01*
G01*
X148233851Y-109930138D02*
X148186016Y-109920623D01*
X148186016Y-109920624D02*
G75*
G03*
X148148863Y-109916789I-39016J-196076D01*
G01*
X148148863Y-109916788D02*
X145431516Y-109891447D01*
X145431516Y-109891457D02*
G75*
G03*
X145390633Y-109895282I-1916J-199943D01*
G01*
X145390633Y-109895281D02*
X145342797Y-109904796D01*
X145342797Y-109904794D02*
G75*
G03*
X145333714Y-109906824I39003J-195806D01*
G01*
X145333714Y-109906824D02*
X142887613Y-110512912D01*
X142878530Y-110514938D02*
G75*
G03*
X142887613Y-110512911I-38930J195838D01*
G01*
X142878530Y-110514940D02*
X142830695Y-110524455D01*
X142752659Y-110524455D02*
G75*
G03*
X142830695Y-110524455I39018J196153D01*
G01*
X142752659Y-110524455D02*
X142704823Y-110514940D01*
X142632740Y-110485056D02*
G75*
G03*
X142704823Y-110514939I111160J166256D01*
G01*
X142632727Y-110485076D02*
X142592174Y-110457980D01*
X142546327Y-110415625D02*
G75*
G03*
X142592174Y-110457980I156973J123925D01*
G01*
X142546323Y-110415628D02*
X141900519Y-109597755D01*
X141900511Y-109597761D02*
G75*
G03*
X141861545Y-109560212I-157011J-123939D01*
G01*
X141861546Y-109560211D02*
X139491383Y-107828414D01*
D22*
%TO.N,mcu0_gpio2*%
X140755165Y-112960086D02*
X140953346Y-112412875D01*
X140969116Y-112381692D02*
G75*
G03*
X140953346Y-112412875I120484J-80508D01*
G01*
X140969117Y-112381693D02*
X140996213Y-112341140D01*
X141036216Y-112301129D02*
G75*
G03*
X140996213Y-112341140I80584J-120571D01*
G01*
X141036219Y-112301134D02*
X141076772Y-112274038D01*
X141129043Y-112252398D02*
G75*
G03*
X141076772Y-112274038I28257J-142202D01*
G01*
X141129041Y-112252387D02*
X141176877Y-112242872D01*
X141226190Y-112241607D02*
G75*
G03*
X141176877Y-112242873I-20990J-143493D01*
G01*
X141226188Y-112241618D02*
X141731284Y-112315633D01*
X141757587Y-112320173D02*
G75*
G03*
X141731284Y-112315633I-102287J-514127D01*
G01*
X141757587Y-112320174D02*
X141805423Y-112329689D01*
X141835500Y-112336597D02*
G75*
G03*
X141805423Y-112329689I-132300J-507103D01*
G01*
X141835500Y-112336596D02*
X143610810Y-112799641D01*
X143610810Y-112799639D02*
G75*
G03*
X143619117Y-112801549I36590J140139D01*
G01*
X143619117Y-112801549D02*
X143666952Y-112811064D01*
X143666951Y-112811071D02*
G75*
G03*
X143696538Y-112813844I28249J142171D01*
G01*
X143696538Y-112813844D02*
X145504099Y-112797676D01*
X145504099Y-112797677D02*
G75*
G03*
X145531091Y-112794896I-1299J144977D01*
G01*
X145531091Y-112794896D02*
X145578926Y-112785381D01*
X145578927Y-112785384D02*
G75*
G03*
X145631195Y-112763729I-28327J142284D01*
G01*
X145631196Y-112763730D02*
X145671748Y-112736633D01*
X145671747Y-112736632D02*
G75*
G03*
X145678357Y-112731946I-80347J120332D01*
G01*
X145678357Y-112731946D02*
X146105324Y-112410765D01*
X146111932Y-112406078D02*
G75*
G03*
X146105324Y-112410766I79968J-119722D01*
G01*
X146111932Y-112406078D02*
X146152485Y-112378981D01*
X146204752Y-112357319D02*
G75*
G03*
X146152485Y-112378981I28348J-142281D01*
G01*
X146204754Y-112357330D02*
X146252590Y-112347815D01*
X146299112Y-112346174D02*
G75*
G03*
X146252590Y-112347815I-18212J-143926D01*
G01*
X146299111Y-112346180D02*
X147131101Y-112451640D01*
D23*
%TO.N,V14RF*%
X141205002Y-110255575D02*
X141433319Y-110478640D01*
X141459854Y-110510578D02*
G75*
G03*
X141433319Y-110478640I-166354J-111222D01*
G01*
X141459847Y-110510583D02*
X141486944Y-110551136D01*
X141499536Y-110572808D02*
G75*
G03*
X141486944Y-110551136I-179136J-89592D01*
G01*
X141499535Y-110572808D02*
X141949535Y-111472808D01*
X141966814Y-111523231D02*
G75*
G03*
X141949535Y-111472808I-196214J-39069D01*
G01*
X141966807Y-111523232D02*
X141976322Y-111571068D01*
X141976327Y-111649105D02*
G75*
G03*
X141976322Y-111571068I-196127J39005D01*
G01*
X141976322Y-111649104D02*
X141966807Y-111696939D01*
X141936931Y-111769026D02*
G75*
G03*
X141966806Y-111696939I-166231J111126D01*
G01*
X141936944Y-111769035D02*
X141909847Y-111809588D01*
X141854663Y-111864763D02*
G75*
G03*
X141909847Y-111809588I-111063J166263D01*
G01*
X141854667Y-111864768D02*
X141814114Y-111891865D01*
X141742019Y-111921731D02*
G75*
G03*
X141814113Y-111891864I-39019J196131D01*
G01*
X141742018Y-111921728D02*
X141694183Y-111931243D01*
X141679657Y-111933581D02*
G75*
G03*
X141694183Y-111931243I-24657J199481D01*
G01*
X141679657Y-111933581D02*
X141157405Y-111998021D01*
X141157405Y-111998018D02*
G75*
G03*
X141129080Y-112002580I47795J-386982D01*
G01*
X141129080Y-112002580D02*
X141081244Y-112012095D01*
X141081246Y-112012106D02*
G75*
G03*
X140940657Y-112070329I76054J-382494D01*
G01*
X140940657Y-112070328D02*
X140900104Y-112097424D01*
X140900101Y-112097420D02*
G75*
G03*
X140802929Y-112190182I216699J-324280D01*
G01*
X140802928Y-112190182D02*
X140055829Y-113202972D01*
X140055829Y-113202972D02*
G75*
G03*
X140053457Y-113206258I158871J-117228D01*
G01*
X140053456Y-113206258D02*
X138955165Y-114760086D01*
D25*
%TO.N,mcu2_gpio*%
X141205165Y-113410086D02*
X143632930Y-113576714D01*
X143632930Y-113576710D02*
G75*
G03*
X143703380Y-113578813I62370J908310D01*
G01*
X143703380Y-113578814D02*
X145510942Y-113562646D01*
X145510942Y-113562644D02*
G75*
G03*
X145617462Y-113555430I-8142J910244D01*
G01*
X145617462Y-113555430D02*
X146813697Y-113403494D01*
X146813697Y-113403495D02*
G75*
G03*
X146824060Y-113401806I-18997J149195D01*
G01*
X146824060Y-113401807D02*
X146871896Y-113392292D01*
X146871899Y-113392307D02*
G75*
G03*
X146925968Y-113369894I-29299J147107D01*
G01*
X146925968Y-113369895D02*
X146966521Y-113342798D01*
X146966521Y-113342798D02*
G75*
G03*
X146982782Y-113330239I-83321J124698D01*
G01*
X146982783Y-113330240D02*
X147556154Y-112821097D01*
X147590146Y-112794568D02*
G75*
G03*
X147556154Y-112821097I191754J-280732D01*
G01*
X147590146Y-112794568D02*
X148078465Y-112461044D01*
D26*
%TO.N,VBAT*%
X142820354Y-101439858D02*
X141297462Y-104196200D01*
X141297461Y-104196199D02*
G75*
G03*
X141271088Y-104268328I218839J-120901D01*
G01*
X141271088Y-104268328D02*
X141261573Y-104316163D01*
X141261574Y-104316163D02*
G75*
G03*
X141259086Y-104330984I246126J-48937D01*
G01*
X141259085Y-104330984D02*
X140895376Y-106984298D01*
X140895391Y-106984300D02*
G75*
G03*
X140897863Y-107067023I247609J-34000D01*
G01*
X140897863Y-107067023D02*
X140907378Y-107114858D01*
X140907384Y-107114857D02*
G75*
G03*
X140930203Y-107180326I245216J48757D01*
G01*
D22*
%TO.N,mcu2_gpio1*%
X140305165Y-113860086D02*
X140580202Y-114064792D01*
X140580202Y-114064792D02*
G75*
G03*
X140586219Y-114069037I86598J116392D01*
G01*
X140586219Y-114069037D02*
X140626772Y-114096134D01*
X140626775Y-114096130D02*
G75*
G03*
X140641917Y-114104978I80525J120430D01*
G01*
X140641917Y-114104978D02*
X140992473Y-114282177D01*
X140992473Y-114282177D02*
G75*
G03*
X141078244Y-114311765I151127J298977D01*
G01*
X141078244Y-114311765D02*
X141126079Y-114321280D01*
X141126077Y-114321290D02*
G75*
G03*
X141238940Y-114324331I65323J328490D01*
G01*
X141238940Y-114324331D02*
X143640766Y-113980252D01*
X143658895Y-113978811D02*
G75*
G03*
X143640766Y-113980252I2405J-144989D01*
G01*
X143658895Y-113978807D02*
X145524531Y-113947500D01*
X145524531Y-113947500D02*
G75*
G03*
X145665972Y-113937361I-21731J1294800D01*
G01*
X145665972Y-113937361D02*
X146862206Y-113785426D01*
X146862206Y-113785425D02*
G75*
G03*
X146899170Y-113779409I-67406J530725D01*
G01*
X146899170Y-113779409D02*
X146947005Y-113769894D01*
X146947008Y-113769909D02*
G75*
G03*
X147139862Y-113690010I-104408J524709D01*
G01*
X147139862Y-113690011D02*
X147180415Y-113662914D01*
X147180415Y-113662913D02*
G75*
G03*
X147197008Y-113651368I-298315J446413D01*
G01*
X147197008Y-113651368D02*
X147870297Y-113163719D01*
D27*
%TO.N,V18F*%
X143964075Y-114545523D02*
G75*
G03*
X144042654Y-114578082I121125J181223D01*
G01*
X144042654Y-114578083D02*
X144090489Y-114587598D01*
X144090489Y-114587598D02*
G75*
G03*
X144175549Y-114587598I42530J213804D01*
G01*
X144175549Y-114587598D02*
X144223384Y-114578083D01*
X144223382Y-114578071D02*
G75*
G03*
X144301969Y-114545532I-42482J213771D01*
G01*
%TD*%
%TA.AperFunction,Conductor*%
%TO.N,VDD1P8*%
G36*
X134407314Y-103466134D02*
G01*
X134458121Y-103470246D01*
X134459438Y-103470417D01*
X134476059Y-103473410D01*
X135032487Y-103573587D01*
X135034649Y-103574158D01*
X135116741Y-103603118D01*
X135120323Y-103605005D01*
X135197335Y-103661160D01*
X135199657Y-103663294D01*
X135244810Y-103715369D01*
X135275885Y-103751208D01*
X135277250Y-103753074D01*
X135344902Y-103863677D01*
X135346959Y-103870885D01*
X135348652Y-104115703D01*
X135348442Y-104118216D01*
X135295442Y-104420717D01*
X135295022Y-104422454D01*
X135186051Y-104773287D01*
X135185611Y-104774503D01*
X135024942Y-105161451D01*
X134773889Y-104939289D01*
X134612235Y-104779021D01*
X133325956Y-104235270D01*
X132981896Y-104304513D01*
X133039301Y-104123897D01*
X133041191Y-104120089D01*
X133158402Y-103953722D01*
X133159735Y-103952105D01*
X133236232Y-103872356D01*
X134169150Y-103872356D01*
X134189561Y-103974971D01*
X134189561Y-103974972D01*
X134189562Y-103974973D01*
X134247690Y-104061968D01*
X134334685Y-104120096D01*
X134437302Y-104140508D01*
X134539919Y-104120096D01*
X134626914Y-104061968D01*
X134685042Y-103974973D01*
X134705454Y-103872356D01*
X134705161Y-103870885D01*
X134685042Y-103769740D01*
X134685042Y-103769739D01*
X134626914Y-103682744D01*
X134539919Y-103624616D01*
X134539918Y-103624615D01*
X134539917Y-103624615D01*
X134437302Y-103604204D01*
X134334686Y-103624615D01*
X134247690Y-103682744D01*
X134189561Y-103769740D01*
X134169150Y-103872355D01*
X134169150Y-103872356D01*
X133236232Y-103872356D01*
X133464302Y-103634590D01*
X133471577Y-103630572D01*
X134208589Y-103478856D01*
X134208590Y-103478856D01*
X134226089Y-103475253D01*
X134227349Y-103475053D01*
X134291416Y-103467877D01*
X134292732Y-103467795D01*
X134309413Y-103467544D01*
X134388741Y-103466350D01*
X134405978Y-103466091D01*
X134407314Y-103466134D01*
G37*
%TD.AperFunction*%
%TD*%
%TA.AperFunction,Conductor*%
%TO.N,VDD1P8*%
G36*
X134612235Y-104779021D02*
G01*
X134773889Y-104939289D01*
X135024942Y-105161451D01*
X135024125Y-105163419D01*
X135022884Y-105170799D01*
X135020068Y-105173700D01*
X135019509Y-105174535D01*
X135019509Y-105174536D01*
X135016355Y-105190355D01*
X135020292Y-105207941D01*
X135390306Y-105993021D01*
X135396828Y-106000967D01*
X133926649Y-107220038D01*
X132841935Y-107438338D01*
X132817632Y-107261633D01*
X132820345Y-107251267D01*
X132823721Y-107248085D01*
X132861745Y-107222680D01*
X132919873Y-107135685D01*
X132940285Y-107033068D01*
X132919873Y-106930451D01*
X132861745Y-106843456D01*
X132774750Y-106785328D01*
X132774749Y-106785327D01*
X132774748Y-106785327D01*
X132672133Y-106764916D01*
X132582972Y-106782651D01*
X132572463Y-106780561D01*
X132566510Y-106771651D01*
X132566434Y-106766612D01*
X132975854Y-104323524D01*
X132976338Y-104320637D01*
X132976877Y-104314146D01*
X132981486Y-104304880D01*
X132981893Y-104304513D01*
X132981896Y-104304513D01*
X133325956Y-104235270D01*
X134612235Y-104779021D01*
G37*
%TD.AperFunction*%
%TD*%
%TA.AperFunction,Conductor*%
%TO.N,VDD1P8*%
G36*
X135403096Y-106008604D02*
G01*
X135612014Y-106163075D01*
X135612218Y-106163225D01*
X135612324Y-106163303D01*
X135612513Y-106163365D01*
X135612615Y-106163452D01*
X135613312Y-106163813D01*
X135613226Y-106163978D01*
X135616884Y-106167126D01*
X135617036Y-106166930D01*
X135620780Y-106169805D01*
X135016650Y-107661488D01*
X134108142Y-109688980D01*
X133898462Y-109470583D01*
X133896443Y-109468619D01*
X133666483Y-109259712D01*
X133666479Y-109259708D01*
X133665389Y-109258752D01*
X133256079Y-108912638D01*
X133255692Y-108912299D01*
X133049981Y-108724953D01*
X133049224Y-108724209D01*
X133016669Y-108689698D01*
X133012984Y-108681999D01*
X132966461Y-108343737D01*
X132841935Y-107438338D01*
X133926649Y-107220038D01*
X135396828Y-106000967D01*
X135403096Y-106008604D01*
G37*
%TD.AperFunction*%
%TD*%
%TA.AperFunction,Conductor*%
%TO.N,VDD1P8*%
G36*
X135708678Y-106237296D02*
G01*
X135708870Y-106237446D01*
X140482003Y-110043365D01*
X140485924Y-110046134D01*
X140485934Y-110046141D01*
X140527624Y-110072086D01*
X140610018Y-110123363D01*
X140614337Y-110125706D01*
X141020332Y-110315602D01*
X141027562Y-110323509D01*
X141028050Y-110325166D01*
X141031263Y-110339242D01*
X141051111Y-110364131D01*
X141084771Y-110406339D01*
X141162092Y-110443575D01*
X141162093Y-110443575D01*
X141163513Y-110444259D01*
X141163342Y-110444612D01*
X141167640Y-110446954D01*
X141291645Y-110568105D01*
X141291688Y-110568157D01*
X141292812Y-110569255D01*
X141292813Y-110569257D01*
X141319176Y-110595004D01*
X141319258Y-110595084D01*
X141319600Y-110595430D01*
X141320876Y-110596766D01*
X141321522Y-110597492D01*
X141322531Y-110598707D01*
X141323120Y-110599467D01*
X141324066Y-110600780D01*
X141324347Y-110601186D01*
X141349939Y-110639486D01*
X141351323Y-110641557D01*
X141351489Y-110641811D01*
X141352099Y-110642768D01*
X141352399Y-110643261D01*
X141352873Y-110644077D01*
X141353157Y-110644590D01*
X141353670Y-110645565D01*
X141353802Y-110645823D01*
X141737515Y-111413249D01*
X141738275Y-111423937D01*
X141731254Y-111432032D01*
X141720566Y-111432792D01*
X141718919Y-111432124D01*
X141714654Y-111430070D01*
X141698075Y-111422086D01*
X141612255Y-111422086D01*
X141595676Y-111430070D01*
X141534934Y-111459321D01*
X141481427Y-111526418D01*
X141481426Y-111526419D01*
X141462330Y-111610086D01*
X141481426Y-111693752D01*
X141481427Y-111693754D01*
X141534934Y-111760850D01*
X141535560Y-111761151D01*
X141542702Y-111769138D01*
X141542104Y-111779837D01*
X141534117Y-111786979D01*
X141531203Y-111787661D01*
X141175644Y-111831533D01*
X141175604Y-111831534D01*
X141143078Y-111835551D01*
X141137401Y-111835085D01*
X141136685Y-111834874D01*
X141136682Y-111834873D01*
X141104060Y-111841362D01*
X141104010Y-111841372D01*
X141103997Y-111841375D01*
X141103919Y-111841390D01*
X141103911Y-111841392D01*
X141097259Y-111842716D01*
X141097250Y-111842717D01*
X141095532Y-111843057D01*
X141095533Y-111843058D01*
X141029307Y-111856232D01*
X141029146Y-111856274D01*
X141013906Y-111859303D01*
X140945269Y-111882597D01*
X140887219Y-111911218D01*
X140885081Y-111911838D01*
X140885103Y-111911899D01*
X140883505Y-111912477D01*
X140850107Y-111934793D01*
X140850105Y-111934794D01*
X140840841Y-111940982D01*
X140840831Y-111940989D01*
X140840825Y-111940993D01*
X140834058Y-111945515D01*
X140834056Y-111945516D01*
X140818617Y-111955830D01*
X140818593Y-111955848D01*
X140814182Y-111958796D01*
X140814173Y-111958798D01*
X140814174Y-111958800D01*
X140809537Y-111961895D01*
X140804299Y-111965391D01*
X140782967Y-111979631D01*
X140734298Y-112020999D01*
X140734291Y-112021006D01*
X140699710Y-112058055D01*
X140695627Y-112061071D01*
X140695603Y-112061091D01*
X140691107Y-112067185D01*
X140690770Y-112067617D01*
X140672222Y-112092789D01*
X140672217Y-112092795D01*
X139946971Y-113075959D01*
X139944594Y-113077992D01*
X139944823Y-113078256D01*
X139943536Y-113079370D01*
X139922563Y-113109039D01*
X139922399Y-113109267D01*
X139912904Y-113122141D01*
X139912582Y-113122711D01*
X139911438Y-113124781D01*
X138878244Y-114586511D01*
X138872887Y-114591043D01*
X138834936Y-114609320D01*
X138834935Y-114609321D01*
X138781427Y-114676418D01*
X138781426Y-114676419D01*
X138762330Y-114760086D01*
X138781426Y-114843752D01*
X138781427Y-114843754D01*
X138834934Y-114910850D01*
X138912255Y-114948086D01*
X138912256Y-114948086D01*
X138998074Y-114948086D01*
X138998075Y-114948086D01*
X139075396Y-114910850D01*
X139128903Y-114843754D01*
X139144154Y-114776934D01*
X139146368Y-114771974D01*
X140091476Y-113434865D01*
X140100536Y-113429150D01*
X140110987Y-113431516D01*
X140116555Y-113439832D01*
X140122632Y-113466454D01*
X140129117Y-113494866D01*
X140183336Y-113562855D01*
X140261685Y-113600586D01*
X140261686Y-113600586D01*
X140348644Y-113600586D01*
X140348645Y-113600586D01*
X140426994Y-113562855D01*
X140481213Y-113494866D01*
X140487230Y-113468501D01*
X140493430Y-113459763D01*
X140496104Y-113458457D01*
X140860357Y-113326537D01*
X140860378Y-113326533D01*
X140862172Y-113325882D01*
X140862173Y-113325883D01*
X140884395Y-113317832D01*
X140884405Y-113317828D01*
X140884466Y-113317830D01*
X140884460Y-113317812D01*
X140890011Y-113315800D01*
X140890012Y-113315801D01*
X140899690Y-113312295D01*
X140899699Y-113312290D01*
X140900048Y-113312164D01*
X140900083Y-113312149D01*
X140906461Y-113309841D01*
X140907134Y-113309316D01*
X140909920Y-113307625D01*
X140918419Y-113303748D01*
X140926547Y-113299215D01*
X140929570Y-113297967D01*
X140930396Y-113297735D01*
X140959161Y-113278512D01*
X140959206Y-113278492D01*
X140960905Y-113277356D01*
X140960907Y-113277356D01*
X140978493Y-113265598D01*
X140981797Y-113263974D01*
X140982062Y-113263885D01*
X140990630Y-113257506D01*
X140991155Y-113257135D01*
X141000055Y-113251190D01*
X141000229Y-113250968D01*
X141002865Y-113248400D01*
X141323162Y-113010007D01*
X141333549Y-113007387D01*
X141342749Y-113012880D01*
X141345370Y-113023270D01*
X141342791Y-113029541D01*
X141205193Y-113216388D01*
X141196021Y-113221927D01*
X141193920Y-113222086D01*
X141162255Y-113222086D01*
X141145884Y-113229970D01*
X141084934Y-113259321D01*
X141031427Y-113326418D01*
X141031426Y-113326419D01*
X141012330Y-113410085D01*
X141012330Y-113410086D01*
X141022783Y-113455890D01*
X141020988Y-113466454D01*
X141020407Y-113467307D01*
X140859271Y-113686116D01*
X140850099Y-113691655D01*
X140841924Y-113690428D01*
X140804191Y-113672257D01*
X140798645Y-113669586D01*
X140711685Y-113669586D01*
X140706139Y-113672257D01*
X140633336Y-113707316D01*
X140579117Y-113775306D01*
X140579116Y-113775307D01*
X140560318Y-113857666D01*
X140559766Y-113860086D01*
X140560645Y-113863937D01*
X140566403Y-113889165D01*
X140564608Y-113899728D01*
X140555869Y-113905929D01*
X140545306Y-113904134D01*
X140544395Y-113903511D01*
X140503585Y-113873137D01*
X140498092Y-113863937D01*
X140498186Y-113861665D01*
X140498000Y-113861665D01*
X140498000Y-113860086D01*
X140489323Y-113822072D01*
X140478903Y-113776418D01*
X140425396Y-113709322D01*
X140425395Y-113709321D01*
X140377042Y-113686036D01*
X140348075Y-113672086D01*
X140262255Y-113672086D01*
X140245996Y-113679916D01*
X140184934Y-113709321D01*
X140131427Y-113776418D01*
X140131426Y-113776419D01*
X140112330Y-113860086D01*
X140131426Y-113943752D01*
X140131427Y-113943754D01*
X140184934Y-114010850D01*
X140262255Y-114048086D01*
X140262256Y-114048086D01*
X140348074Y-114048086D01*
X140348075Y-114048086D01*
X140357923Y-114043342D01*
X140368618Y-114042741D01*
X140372355Y-114044725D01*
X140491058Y-114133074D01*
X140491089Y-114133104D01*
X140505111Y-114143537D01*
X140510606Y-114152736D01*
X140508027Y-114163071D01*
X139193733Y-115947756D01*
X139184561Y-115953295D01*
X139179310Y-115953095D01*
X137895606Y-115656705D01*
X137670353Y-115604697D01*
X137670352Y-115604696D01*
X137657814Y-115601802D01*
X137654472Y-115600565D01*
X137653591Y-115600104D01*
X137631165Y-115595643D01*
X137630748Y-115595553D01*
X137625024Y-115594231D01*
X137624151Y-115594158D01*
X137622599Y-115593939D01*
X137615439Y-115592515D01*
X137589848Y-115587422D01*
X137589829Y-115587421D01*
X137556383Y-115580768D01*
X137556358Y-115580765D01*
X137556358Y-115580767D01*
X137556320Y-115580760D01*
X137556289Y-115580756D01*
X137556212Y-115580741D01*
X137556210Y-115580740D01*
X137556185Y-115580736D01*
X137521899Y-115575761D01*
X137508224Y-115574500D01*
X137505040Y-115573826D01*
X137503192Y-115573203D01*
X137467958Y-115571812D01*
X137438251Y-115570634D01*
X137438218Y-115570636D01*
X137412935Y-115569638D01*
X136422430Y-115530509D01*
X136422404Y-115530505D01*
X136391683Y-115529295D01*
X136391672Y-115529290D01*
X136391663Y-115529294D01*
X136390563Y-115529249D01*
X136390218Y-115529231D01*
X136367968Y-115527771D01*
X136367240Y-115527704D01*
X136345286Y-115525106D01*
X136344561Y-115525001D01*
X136322871Y-115521275D01*
X136322510Y-115521208D01*
X136306306Y-115517985D01*
X136306301Y-115517983D01*
X136278250Y-115512404D01*
X136275709Y-115511898D01*
X136275023Y-115511762D01*
X136274133Y-115511554D01*
X136220239Y-115497116D01*
X136218505Y-115496527D01*
X136167394Y-115475358D01*
X136165751Y-115474548D01*
X136117525Y-115446706D01*
X136116747Y-115446222D01*
X136107298Y-115439908D01*
X136101345Y-115430999D01*
X136101325Y-115430901D01*
X136014904Y-114967586D01*
X136214830Y-114967586D01*
X136233926Y-115051252D01*
X136233927Y-115051254D01*
X136287434Y-115118350D01*
X136364755Y-115155586D01*
X136364756Y-115155586D01*
X136450574Y-115155586D01*
X136450575Y-115155586D01*
X136527896Y-115118350D01*
X136581403Y-115051254D01*
X136600500Y-114967586D01*
X136664830Y-114967586D01*
X136683926Y-115051252D01*
X136683927Y-115051254D01*
X136737434Y-115118350D01*
X136814755Y-115155586D01*
X136814756Y-115155586D01*
X136900574Y-115155586D01*
X136900575Y-115155586D01*
X136977896Y-115118350D01*
X137031403Y-115051254D01*
X137050500Y-114967586D01*
X137564830Y-114967586D01*
X137583926Y-115051252D01*
X137583927Y-115051254D01*
X137637434Y-115118350D01*
X137714755Y-115155586D01*
X137714756Y-115155586D01*
X137800574Y-115155586D01*
X137800575Y-115155586D01*
X137877896Y-115118350D01*
X137931403Y-115051254D01*
X137950500Y-114967586D01*
X137931403Y-114883918D01*
X137877896Y-114816822D01*
X137877895Y-114816821D01*
X137837810Y-114797517D01*
X137800575Y-114779586D01*
X137714755Y-114779586D01*
X137689622Y-114791688D01*
X137637434Y-114816821D01*
X137583927Y-114883918D01*
X137583926Y-114883919D01*
X137564830Y-114967586D01*
X137050500Y-114967586D01*
X137031403Y-114883918D01*
X136977896Y-114816822D01*
X136977895Y-114816821D01*
X136937810Y-114797517D01*
X136900575Y-114779586D01*
X136814755Y-114779586D01*
X136789622Y-114791688D01*
X136737434Y-114816821D01*
X136683927Y-114883918D01*
X136683926Y-114883919D01*
X136664830Y-114967586D01*
X136600500Y-114967586D01*
X136581403Y-114883918D01*
X136527896Y-114816822D01*
X136527895Y-114816821D01*
X136487810Y-114797517D01*
X136450575Y-114779586D01*
X136364755Y-114779586D01*
X136339622Y-114791688D01*
X136287434Y-114816821D01*
X136233927Y-114883918D01*
X136233926Y-114883919D01*
X136214830Y-114967586D01*
X136014904Y-114967586D01*
X135976199Y-114760086D01*
X138312330Y-114760086D01*
X138331426Y-114843752D01*
X138331427Y-114843754D01*
X138384934Y-114910850D01*
X138462255Y-114948086D01*
X138462256Y-114948086D01*
X138548074Y-114948086D01*
X138548075Y-114948086D01*
X138625396Y-114910850D01*
X138678903Y-114843754D01*
X138698000Y-114760086D01*
X138678903Y-114676418D01*
X138625396Y-114609322D01*
X138625395Y-114609321D01*
X138579015Y-114586986D01*
X138548075Y-114572086D01*
X138462255Y-114572086D01*
X138437122Y-114584188D01*
X138384934Y-114609321D01*
X138331427Y-114676418D01*
X138331426Y-114676419D01*
X138312330Y-114760086D01*
X135976199Y-114760086D01*
X135958808Y-114666851D01*
X135958770Y-114666629D01*
X135949181Y-114609321D01*
X135933832Y-114517586D01*
X137564830Y-114517586D01*
X137583926Y-114601252D01*
X137583927Y-114601254D01*
X137637434Y-114668350D01*
X137714755Y-114705586D01*
X137714756Y-114705586D01*
X137800574Y-114705586D01*
X137800575Y-114705586D01*
X137877896Y-114668350D01*
X137931403Y-114601254D01*
X137950500Y-114517586D01*
X137931403Y-114433918D01*
X137877896Y-114366822D01*
X137877895Y-114366821D01*
X137827374Y-114342492D01*
X137800575Y-114329586D01*
X137714755Y-114329586D01*
X137690445Y-114341293D01*
X137637434Y-114366821D01*
X137583927Y-114433918D01*
X137583926Y-114433919D01*
X137564830Y-114517586D01*
X135933832Y-114517586D01*
X135858538Y-114067586D01*
X136214830Y-114067586D01*
X136233926Y-114151252D01*
X136233927Y-114151254D01*
X136287434Y-114218350D01*
X136364755Y-114255586D01*
X136364756Y-114255586D01*
X136450574Y-114255586D01*
X136450575Y-114255586D01*
X136527896Y-114218350D01*
X136581403Y-114151254D01*
X136600500Y-114067586D01*
X136581403Y-113983918D01*
X136527896Y-113916822D01*
X136527895Y-113916821D01*
X136487810Y-113897517D01*
X136450575Y-113879586D01*
X136364755Y-113879586D01*
X136344864Y-113889165D01*
X136287434Y-113916821D01*
X136233927Y-113983918D01*
X136233926Y-113983919D01*
X136214830Y-114067586D01*
X135858538Y-114067586D01*
X135854713Y-114044725D01*
X135823728Y-113859543D01*
X135823370Y-113857666D01*
X135771809Y-113617586D01*
X136214830Y-113617586D01*
X136233926Y-113701252D01*
X136233927Y-113701254D01*
X136287434Y-113768350D01*
X136364755Y-113805586D01*
X136364756Y-113805586D01*
X136450574Y-113805586D01*
X136450575Y-113805586D01*
X136527896Y-113768350D01*
X136581403Y-113701254D01*
X136600500Y-113617586D01*
X136581403Y-113533918D01*
X136527896Y-113466822D01*
X136527895Y-113466821D01*
X136463366Y-113435746D01*
X136450575Y-113429586D01*
X136364755Y-113429586D01*
X136351964Y-113435746D01*
X136287434Y-113466821D01*
X136233927Y-113533918D01*
X136233926Y-113533919D01*
X136214830Y-113617586D01*
X135771809Y-113617586D01*
X135745453Y-113494865D01*
X135661553Y-113104205D01*
X135661051Y-113102130D01*
X135622762Y-112960086D01*
X136512330Y-112960086D01*
X136531426Y-113043752D01*
X136531427Y-113043754D01*
X136584934Y-113110850D01*
X136662255Y-113148086D01*
X136662256Y-113148086D01*
X136748074Y-113148086D01*
X136748075Y-113148086D01*
X136825396Y-113110850D01*
X136878903Y-113043754D01*
X136898000Y-112960086D01*
X136962330Y-112960086D01*
X136981426Y-113043752D01*
X136981427Y-113043754D01*
X137034934Y-113110850D01*
X137112255Y-113148086D01*
X137112256Y-113148086D01*
X137198074Y-113148086D01*
X137198075Y-113148086D01*
X137275396Y-113110850D01*
X137328903Y-113043754D01*
X137348000Y-112960086D01*
X137328903Y-112876418D01*
X137275396Y-112809322D01*
X137275395Y-112809321D01*
X137216244Y-112780836D01*
X137198075Y-112772086D01*
X137112255Y-112772086D01*
X137094086Y-112780836D01*
X137034934Y-112809321D01*
X136981427Y-112876418D01*
X136981426Y-112876419D01*
X136962330Y-112960086D01*
X136898000Y-112960086D01*
X136878903Y-112876418D01*
X136825396Y-112809322D01*
X136825395Y-112809321D01*
X136766244Y-112780836D01*
X136748075Y-112772086D01*
X136662255Y-112772086D01*
X136644086Y-112780836D01*
X136584934Y-112809321D01*
X136531427Y-112876418D01*
X136531426Y-112876419D01*
X136512330Y-112960086D01*
X135622762Y-112960086D01*
X135501461Y-112510086D01*
X139212330Y-112510086D01*
X139231426Y-112593752D01*
X139231427Y-112593754D01*
X139284934Y-112660850D01*
X139362255Y-112698086D01*
X139362256Y-112698086D01*
X139448074Y-112698086D01*
X139448075Y-112698086D01*
X139525396Y-112660850D01*
X139578903Y-112593754D01*
X139598000Y-112510086D01*
X139662330Y-112510086D01*
X139681426Y-112593752D01*
X139681427Y-112593754D01*
X139734934Y-112660850D01*
X139812255Y-112698086D01*
X139812256Y-112698086D01*
X139898074Y-112698086D01*
X139898075Y-112698086D01*
X139975396Y-112660850D01*
X140028903Y-112593754D01*
X140048000Y-112510086D01*
X140028903Y-112426418D01*
X139975396Y-112359322D01*
X139975395Y-112359321D01*
X139923288Y-112334228D01*
X139898075Y-112322086D01*
X139812255Y-112322086D01*
X139799439Y-112328258D01*
X139734934Y-112359321D01*
X139681427Y-112426418D01*
X139681426Y-112426419D01*
X139662330Y-112510086D01*
X139598000Y-112510086D01*
X139578903Y-112426418D01*
X139525396Y-112359322D01*
X139525395Y-112359321D01*
X139473288Y-112334228D01*
X139448075Y-112322086D01*
X139362255Y-112322086D01*
X139349439Y-112328258D01*
X139284934Y-112359321D01*
X139231427Y-112426418D01*
X139231426Y-112426419D01*
X139212330Y-112510086D01*
X135501461Y-112510086D01*
X135472549Y-112402831D01*
X135471851Y-112400515D01*
X135358300Y-112060086D01*
X136512330Y-112060086D01*
X136531426Y-112143752D01*
X136531427Y-112143754D01*
X136584934Y-112210850D01*
X136662255Y-112248086D01*
X136662256Y-112248086D01*
X136748074Y-112248086D01*
X136748075Y-112248086D01*
X136825396Y-112210850D01*
X136878903Y-112143754D01*
X136898000Y-112060086D01*
X138762330Y-112060086D01*
X138781426Y-112143752D01*
X138781427Y-112143754D01*
X138834934Y-112210850D01*
X138912255Y-112248086D01*
X138912256Y-112248086D01*
X138998074Y-112248086D01*
X138998075Y-112248086D01*
X139075396Y-112210850D01*
X139128903Y-112143754D01*
X139148000Y-112060086D01*
X139212330Y-112060086D01*
X139231426Y-112143752D01*
X139231427Y-112143754D01*
X139284934Y-112210850D01*
X139362255Y-112248086D01*
X139362256Y-112248086D01*
X139448074Y-112248086D01*
X139448075Y-112248086D01*
X139525396Y-112210850D01*
X139578903Y-112143754D01*
X139598000Y-112060086D01*
X139662330Y-112060086D01*
X139681426Y-112143752D01*
X139681427Y-112143754D01*
X139734934Y-112210850D01*
X139812255Y-112248086D01*
X139812256Y-112248086D01*
X139898074Y-112248086D01*
X139898075Y-112248086D01*
X139975396Y-112210850D01*
X140028903Y-112143754D01*
X140048000Y-112060086D01*
X140028903Y-111976418D01*
X139975396Y-111909322D01*
X139975395Y-111909321D01*
X139919901Y-111882597D01*
X139898075Y-111872086D01*
X139812255Y-111872086D01*
X139790429Y-111882597D01*
X139734934Y-111909321D01*
X139681427Y-111976418D01*
X139681426Y-111976419D01*
X139662330Y-112060086D01*
X139598000Y-112060086D01*
X139578903Y-111976418D01*
X139525396Y-111909322D01*
X139525395Y-111909321D01*
X139469901Y-111882597D01*
X139448075Y-111872086D01*
X139362255Y-111872086D01*
X139340429Y-111882597D01*
X139284934Y-111909321D01*
X139231427Y-111976418D01*
X139231426Y-111976419D01*
X139212330Y-112060086D01*
X139148000Y-112060086D01*
X139128903Y-111976418D01*
X139075396Y-111909322D01*
X139075395Y-111909321D01*
X139019901Y-111882597D01*
X138998075Y-111872086D01*
X138912255Y-111872086D01*
X138890429Y-111882597D01*
X138834934Y-111909321D01*
X138781427Y-111976418D01*
X138781426Y-111976419D01*
X138762330Y-112060086D01*
X136898000Y-112060086D01*
X136878903Y-111976418D01*
X136825396Y-111909322D01*
X136825395Y-111909321D01*
X136769901Y-111882597D01*
X136748075Y-111872086D01*
X136662255Y-111872086D01*
X136640429Y-111882597D01*
X136584934Y-111909321D01*
X136531427Y-111976418D01*
X136531426Y-111976419D01*
X136512330Y-112060086D01*
X135358300Y-112060086D01*
X135256665Y-111755384D01*
X135255711Y-111752811D01*
X135197296Y-111610086D01*
X138312330Y-111610086D01*
X138331426Y-111693752D01*
X138331427Y-111693754D01*
X138384934Y-111760850D01*
X138462255Y-111798086D01*
X138462256Y-111798086D01*
X138548074Y-111798086D01*
X138548075Y-111798086D01*
X138625396Y-111760850D01*
X138678903Y-111693754D01*
X138698000Y-111610086D01*
X138762330Y-111610086D01*
X138781426Y-111693752D01*
X138781427Y-111693754D01*
X138834934Y-111760850D01*
X138912255Y-111798086D01*
X138912256Y-111798086D01*
X138998074Y-111798086D01*
X138998075Y-111798086D01*
X139075396Y-111760850D01*
X139128903Y-111693754D01*
X139148000Y-111610086D01*
X139212330Y-111610086D01*
X139231426Y-111693752D01*
X139231427Y-111693754D01*
X139284934Y-111760850D01*
X139362255Y-111798086D01*
X139362256Y-111798086D01*
X139448074Y-111798086D01*
X139448075Y-111798086D01*
X139525396Y-111760850D01*
X139578903Y-111693754D01*
X139598000Y-111610086D01*
X139578903Y-111526418D01*
X139525396Y-111459322D01*
X139525395Y-111459321D01*
X139468728Y-111432032D01*
X139448075Y-111422086D01*
X139362255Y-111422086D01*
X139345676Y-111430070D01*
X139284934Y-111459321D01*
X139231427Y-111526418D01*
X139231426Y-111526419D01*
X139212330Y-111610086D01*
X139148000Y-111610086D01*
X139128903Y-111526418D01*
X139075396Y-111459322D01*
X139075395Y-111459321D01*
X139018728Y-111432032D01*
X138998075Y-111422086D01*
X138912255Y-111422086D01*
X138895676Y-111430070D01*
X138834934Y-111459321D01*
X138781427Y-111526418D01*
X138781426Y-111526419D01*
X138762330Y-111610086D01*
X138698000Y-111610086D01*
X138678903Y-111526418D01*
X138625396Y-111459322D01*
X138625395Y-111459321D01*
X138568728Y-111432032D01*
X138548075Y-111422086D01*
X138462255Y-111422086D01*
X138445676Y-111430070D01*
X138384934Y-111459321D01*
X138331427Y-111526418D01*
X138331426Y-111526419D01*
X138312330Y-111610086D01*
X135197296Y-111610086D01*
X135013840Y-111161847D01*
X135013040Y-111160086D01*
X138312330Y-111160086D01*
X138331426Y-111243752D01*
X138331427Y-111243754D01*
X138384934Y-111310850D01*
X138462255Y-111348086D01*
X138462256Y-111348086D01*
X138548074Y-111348086D01*
X138548075Y-111348086D01*
X138625396Y-111310850D01*
X138678903Y-111243754D01*
X138698000Y-111160086D01*
X138762330Y-111160086D01*
X138781426Y-111243752D01*
X138781427Y-111243754D01*
X138834934Y-111310850D01*
X138912255Y-111348086D01*
X138912256Y-111348086D01*
X138998074Y-111348086D01*
X138998075Y-111348086D01*
X139075396Y-111310850D01*
X139128903Y-111243754D01*
X139148000Y-111160086D01*
X139128903Y-111076418D01*
X139075396Y-111009322D01*
X139075395Y-111009321D01*
X139001019Y-110973504D01*
X138998075Y-110972086D01*
X138912255Y-110972086D01*
X138909311Y-110973504D01*
X138834934Y-111009321D01*
X138781427Y-111076418D01*
X138781426Y-111076419D01*
X138762330Y-111160086D01*
X138698000Y-111160086D01*
X138678903Y-111076418D01*
X138625396Y-111009322D01*
X138625395Y-111009321D01*
X138551019Y-110973504D01*
X138548075Y-110972086D01*
X138462255Y-110972086D01*
X138459311Y-110973504D01*
X138384934Y-111009321D01*
X138331427Y-111076418D01*
X138331426Y-111076419D01*
X138312330Y-111160086D01*
X135013040Y-111160086D01*
X135012554Y-111159016D01*
X134787958Y-110710086D01*
X138762330Y-110710086D01*
X138781426Y-110793752D01*
X138781427Y-110793754D01*
X138834934Y-110860850D01*
X138912255Y-110898086D01*
X138912256Y-110898086D01*
X138998074Y-110898086D01*
X138998075Y-110898086D01*
X139075396Y-110860850D01*
X139128903Y-110793754D01*
X139148000Y-110710086D01*
X139212330Y-110710086D01*
X139231426Y-110793752D01*
X139231427Y-110793754D01*
X139284934Y-110860850D01*
X139362255Y-110898086D01*
X139362256Y-110898086D01*
X139448074Y-110898086D01*
X139448075Y-110898086D01*
X139525396Y-110860850D01*
X139578903Y-110793754D01*
X139598000Y-110710086D01*
X139662330Y-110710086D01*
X139681426Y-110793752D01*
X139681427Y-110793754D01*
X139734934Y-110860850D01*
X139812255Y-110898086D01*
X139812256Y-110898086D01*
X139898074Y-110898086D01*
X139898075Y-110898086D01*
X139975396Y-110860850D01*
X140028903Y-110793754D01*
X140048000Y-110710086D01*
X140028903Y-110626418D01*
X139975396Y-110559322D01*
X139975395Y-110559321D01*
X139927910Y-110536454D01*
X139898075Y-110522086D01*
X139812255Y-110522086D01*
X139787122Y-110534188D01*
X139734934Y-110559321D01*
X139681427Y-110626418D01*
X139681426Y-110626419D01*
X139662330Y-110710086D01*
X139598000Y-110710086D01*
X139578903Y-110626418D01*
X139525396Y-110559322D01*
X139525395Y-110559321D01*
X139477910Y-110536454D01*
X139448075Y-110522086D01*
X139362255Y-110522086D01*
X139337122Y-110534188D01*
X139284934Y-110559321D01*
X139231427Y-110626418D01*
X139231426Y-110626419D01*
X139212330Y-110710086D01*
X139148000Y-110710086D01*
X139128903Y-110626418D01*
X139075396Y-110559322D01*
X139075395Y-110559321D01*
X139027910Y-110536454D01*
X138998075Y-110522086D01*
X138912255Y-110522086D01*
X138887122Y-110534188D01*
X138834934Y-110559321D01*
X138781427Y-110626418D01*
X138781426Y-110626419D01*
X138762330Y-110710086D01*
X134787958Y-110710086D01*
X134743999Y-110622220D01*
X134742297Y-110619151D01*
X134522645Y-110260086D01*
X137862330Y-110260086D01*
X137881426Y-110343752D01*
X137881427Y-110343754D01*
X137934934Y-110410850D01*
X138012255Y-110448086D01*
X138012256Y-110448086D01*
X138098074Y-110448086D01*
X138098075Y-110448086D01*
X138175396Y-110410850D01*
X138228903Y-110343754D01*
X138248000Y-110260086D01*
X138312330Y-110260086D01*
X138331426Y-110343752D01*
X138331427Y-110343754D01*
X138384934Y-110410850D01*
X138462255Y-110448086D01*
X138462256Y-110448086D01*
X138548074Y-110448086D01*
X138548075Y-110448086D01*
X138625396Y-110410850D01*
X138678903Y-110343754D01*
X138698000Y-110260086D01*
X138678903Y-110176418D01*
X138625396Y-110109322D01*
X138625395Y-110109321D01*
X138572038Y-110083626D01*
X138548075Y-110072086D01*
X138462255Y-110072086D01*
X138438292Y-110083626D01*
X138384934Y-110109321D01*
X138331427Y-110176418D01*
X138331426Y-110176419D01*
X138312330Y-110260086D01*
X138248000Y-110260086D01*
X138228903Y-110176418D01*
X138175396Y-110109322D01*
X138175395Y-110109321D01*
X138122038Y-110083626D01*
X138098075Y-110072086D01*
X138012255Y-110072086D01*
X137988292Y-110083626D01*
X137934934Y-110109321D01*
X137881427Y-110176418D01*
X137881426Y-110176419D01*
X137862330Y-110260086D01*
X134522645Y-110260086D01*
X134447058Y-110136523D01*
X134444848Y-110133270D01*
X134122925Y-109704810D01*
X134122922Y-109704807D01*
X134122918Y-109704801D01*
X134122914Y-109704796D01*
X134119702Y-109701020D01*
X134116477Y-109699645D01*
X134108978Y-109691990D01*
X134108173Y-109689160D01*
X134108141Y-109688981D01*
X134108142Y-109688980D01*
X135016650Y-107661488D01*
X135620780Y-106169805D01*
X135708678Y-106237296D01*
G37*
%TD.AperFunction*%
%TD*%
%TA.AperFunction,Conductor*%
%TO.N,VDD1P8P*%
G36*
X153067776Y-104110526D02*
G01*
X153069500Y-104117257D01*
X153069500Y-115805500D01*
X153065399Y-115815399D01*
X153055500Y-115819500D01*
X152907093Y-115819500D01*
X152723565Y-115848568D01*
X152546842Y-115905988D01*
X152381286Y-115990344D01*
X152381270Y-115990354D01*
X152230957Y-116099563D01*
X152230949Y-116099570D01*
X152099570Y-116230949D01*
X152099563Y-116230957D01*
X151990354Y-116381270D01*
X151990344Y-116381286D01*
X151905988Y-116546842D01*
X151848568Y-116723565D01*
X151819500Y-116907093D01*
X151819500Y-117305500D01*
X151815399Y-117315399D01*
X151805500Y-117319500D01*
X138360267Y-117319500D01*
X138350368Y-117315399D01*
X138346267Y-117305500D01*
X138348994Y-117297198D01*
X138385801Y-117247218D01*
X139139979Y-116223115D01*
X139149150Y-116217578D01*
X139154399Y-116217777D01*
X140763604Y-116589322D01*
X140772327Y-116595544D01*
X140774241Y-116600531D01*
X140775592Y-116608193D01*
X140775594Y-116608198D01*
X140828577Y-116699969D01*
X140828579Y-116699971D01*
X140828580Y-116699972D01*
X140909760Y-116768090D01*
X141009342Y-116804334D01*
X141009343Y-116804334D01*
X141115313Y-116804334D01*
X141115314Y-116804334D01*
X141214896Y-116768090D01*
X141296076Y-116699972D01*
X141349062Y-116608197D01*
X141359881Y-116546842D01*
X141367464Y-116503836D01*
X141367464Y-116503831D01*
X141349062Y-116399471D01*
X141296078Y-116307698D01*
X141295773Y-116307442D01*
X141214896Y-116239578D01*
X141154450Y-116217578D01*
X141115315Y-116203334D01*
X141115314Y-116203334D01*
X141009342Y-116203334D01*
X141009340Y-116203334D01*
X140909759Y-116239578D01*
X140845413Y-116293570D01*
X140835194Y-116296792D01*
X140833264Y-116296486D01*
X139360625Y-115956472D01*
X139351902Y-115950250D01*
X139350134Y-115939681D01*
X139352499Y-115934534D01*
X140589609Y-114254658D01*
X140598779Y-114249121D01*
X140603901Y-114249942D01*
X140604028Y-114249364D01*
X140604060Y-114249371D01*
X140607111Y-114250457D01*
X140607205Y-114250472D01*
X140607326Y-114250533D01*
X140607379Y-114250552D01*
X140929697Y-114413477D01*
X140929699Y-114413479D01*
X140934967Y-114416143D01*
X140946263Y-114421856D01*
X140986741Y-114437904D01*
X141028504Y-114450227D01*
X141049474Y-114454392D01*
X141063470Y-114457176D01*
X141063497Y-114457184D01*
X141065128Y-114457508D01*
X141065129Y-114457509D01*
X141091999Y-114462852D01*
X141092026Y-114462870D01*
X141124328Y-114469282D01*
X141124340Y-114469283D01*
X141134935Y-114470168D01*
X141178440Y-114473804D01*
X141232716Y-114472202D01*
X141239662Y-114471208D01*
X141239728Y-114471203D01*
X141240608Y-114471076D01*
X141240611Y-114471077D01*
X141258268Y-114468546D01*
X141258281Y-114468550D01*
X141258281Y-114468545D01*
X141259580Y-114468360D01*
X141259981Y-114468302D01*
X141261741Y-114468049D01*
X141261751Y-114468051D01*
X141261751Y-114468048D01*
X141357083Y-114454391D01*
X143430582Y-114157347D01*
X143440963Y-114160003D01*
X143446426Y-114169221D01*
X143446298Y-114173937D01*
X143431410Y-114248786D01*
X143431410Y-114248787D01*
X143434898Y-114266325D01*
X143435116Y-114267862D01*
X143664530Y-116948790D01*
X143661288Y-116959003D01*
X143651775Y-116963933D01*
X143641562Y-116960691D01*
X143638940Y-116957762D01*
X143632945Y-116948790D01*
X143591919Y-116887390D01*
X143517328Y-116837550D01*
X143517327Y-116837549D01*
X143517326Y-116837549D01*
X143429342Y-116820049D01*
X143341357Y-116837549D01*
X143266765Y-116887390D01*
X143216924Y-116961982D01*
X143199424Y-117049966D01*
X143199424Y-117049967D01*
X143216924Y-117137951D01*
X143216924Y-117137952D01*
X143216925Y-117137953D01*
X143266765Y-117212544D01*
X143341356Y-117262384D01*
X143429342Y-117279885D01*
X143517328Y-117262384D01*
X143591919Y-117212544D01*
X143641759Y-117137953D01*
X143651456Y-117089200D01*
X143657409Y-117080292D01*
X143667918Y-117078201D01*
X143676827Y-117084154D01*
X143678918Y-117089201D01*
X143688614Y-117137951D01*
X143688614Y-117137952D01*
X143688615Y-117137953D01*
X143738455Y-117212544D01*
X143813046Y-117262384D01*
X143901032Y-117279885D01*
X143989018Y-117262384D01*
X144011231Y-117247540D01*
X144011697Y-117247245D01*
X144836543Y-116751779D01*
X144841017Y-116750052D01*
X144842402Y-116749777D01*
X144916993Y-116699937D01*
X144966833Y-116625346D01*
X144981832Y-116549938D01*
X144987784Y-116541031D01*
X144998293Y-116538940D01*
X145003337Y-116541028D01*
X145016430Y-116549777D01*
X145104416Y-116567278D01*
X145192402Y-116549777D01*
X145266993Y-116499937D01*
X145316833Y-116425346D01*
X145334334Y-116337360D01*
X145316833Y-116249374D01*
X145266993Y-116174783D01*
X145192402Y-116124943D01*
X145192401Y-116124942D01*
X145192400Y-116124942D01*
X145104416Y-116107442D01*
X145016431Y-116124942D01*
X144941839Y-116174783D01*
X144891998Y-116249375D01*
X144877000Y-116324779D01*
X144871047Y-116333689D01*
X144860538Y-116335779D01*
X144855492Y-116333689D01*
X144842402Y-116324943D01*
X144842401Y-116324942D01*
X144842400Y-116324942D01*
X144754416Y-116307442D01*
X144666430Y-116324943D01*
X144666428Y-116324943D01*
X144644244Y-116339765D01*
X144643676Y-116340125D01*
X144115514Y-116657380D01*
X144104916Y-116658963D01*
X144096304Y-116652588D01*
X144094356Y-116646573D01*
X144089457Y-116589322D01*
X143936783Y-114805182D01*
X143940025Y-114794971D01*
X143949538Y-114790041D01*
X143953458Y-114790258D01*
X143993725Y-114798267D01*
X143993726Y-114798268D01*
X143993727Y-114798268D01*
X143998639Y-114799245D01*
X143998639Y-114799246D01*
X144042631Y-114808001D01*
X144042632Y-114808000D01*
X144044212Y-114808315D01*
X144044247Y-114808317D01*
X144045714Y-114808609D01*
X144046498Y-114808766D01*
X144046497Y-114808766D01*
X144054656Y-114810388D01*
X144075005Y-114814436D01*
X144133019Y-114818239D01*
X144162056Y-114816335D01*
X144166056Y-114816650D01*
X144172528Y-114818115D01*
X144172529Y-114818116D01*
X144172530Y-114818115D01*
X144172531Y-114818116D01*
X144191030Y-114814436D01*
X144191033Y-114814436D01*
X144219544Y-114808765D01*
X144263536Y-114800014D01*
X144263536Y-114800013D01*
X144266682Y-114799388D01*
X144267337Y-114799258D01*
X144267336Y-114799257D01*
X144268195Y-114799087D01*
X144268202Y-114799086D01*
X144275540Y-114797629D01*
X144275561Y-114797621D01*
X144290623Y-114794626D01*
X144290626Y-114794624D01*
X144291317Y-114794487D01*
X144291441Y-114794454D01*
X144295848Y-114793579D01*
X144350908Y-114774898D01*
X144403057Y-114749189D01*
X144420597Y-114737471D01*
X144422287Y-114736506D01*
X144424922Y-114735234D01*
X144433097Y-114731290D01*
X144458053Y-114712475D01*
X144458670Y-114712037D01*
X144464529Y-114708125D01*
X144465504Y-114707150D01*
X144465606Y-114707252D01*
X144467132Y-114705631D01*
X144525627Y-114661537D01*
X144536114Y-114652456D01*
X144766178Y-114424206D01*
X144768256Y-114422509D01*
X144777785Y-114416143D01*
X144827625Y-114341552D01*
X144845126Y-114253566D01*
X144844175Y-114248787D01*
X144841397Y-114234817D01*
X144827625Y-114165580D01*
X144827623Y-114165578D01*
X144827623Y-114165576D01*
X144801670Y-114126735D01*
X144799579Y-114116226D01*
X144805532Y-114107317D01*
X144813074Y-114104959D01*
X145490923Y-114093583D01*
X145490925Y-114093584D01*
X145493767Y-114093536D01*
X145493768Y-114093537D01*
X145526973Y-114092980D01*
X145526973Y-114092979D01*
X145532691Y-114092884D01*
X145532697Y-114092883D01*
X145546126Y-114092658D01*
X145546126Y-114092657D01*
X145551856Y-114092562D01*
X145551856Y-114092564D01*
X145551862Y-114092561D01*
X145553183Y-114092539D01*
X145553276Y-114092538D01*
X145559111Y-114092226D01*
X145605811Y-114089735D01*
X145658210Y-114085016D01*
X145665302Y-114084115D01*
X145933901Y-114050000D01*
X147770082Y-114050000D01*
X147787582Y-114137984D01*
X147787582Y-114137985D01*
X147787583Y-114137986D01*
X147837423Y-114212577D01*
X147912014Y-114262417D01*
X148000000Y-114279918D01*
X148087986Y-114262417D01*
X148162577Y-114212577D01*
X148212417Y-114137986D01*
X148229918Y-114050000D01*
X148270082Y-114050000D01*
X148287582Y-114137984D01*
X148287582Y-114137985D01*
X148287583Y-114137986D01*
X148337423Y-114212577D01*
X148412014Y-114262417D01*
X148500000Y-114279918D01*
X148587986Y-114262417D01*
X148662577Y-114212577D01*
X148712417Y-114137986D01*
X148729918Y-114050000D01*
X148770082Y-114050000D01*
X148787582Y-114137984D01*
X148787582Y-114137985D01*
X148787583Y-114137986D01*
X148837423Y-114212577D01*
X148912014Y-114262417D01*
X149000000Y-114279918D01*
X149087986Y-114262417D01*
X149162577Y-114212577D01*
X149212417Y-114137986D01*
X149229918Y-114050000D01*
X149224480Y-114022663D01*
X149212417Y-113962015D01*
X149212417Y-113962014D01*
X149162577Y-113887423D01*
X149087986Y-113837583D01*
X149087985Y-113837582D01*
X149087984Y-113837582D01*
X149000000Y-113820082D01*
X148912015Y-113837582D01*
X148837423Y-113887423D01*
X148787582Y-113962015D01*
X148770082Y-114049999D01*
X148770082Y-114050000D01*
X148729918Y-114050000D01*
X148724480Y-114022663D01*
X148712417Y-113962015D01*
X148712417Y-113962014D01*
X148662577Y-113887423D01*
X148587986Y-113837583D01*
X148587985Y-113837582D01*
X148587984Y-113837582D01*
X148500000Y-113820082D01*
X148412015Y-113837582D01*
X148337423Y-113887423D01*
X148287582Y-113962015D01*
X148270082Y-114049999D01*
X148270082Y-114050000D01*
X148229918Y-114050000D01*
X148224480Y-114022663D01*
X148212417Y-113962015D01*
X148212417Y-113962014D01*
X148162577Y-113887423D01*
X148087986Y-113837583D01*
X148087985Y-113837582D01*
X148087984Y-113837582D01*
X148000000Y-113820082D01*
X147912015Y-113837582D01*
X147837423Y-113887423D01*
X147787582Y-113962015D01*
X147770082Y-114049999D01*
X147770082Y-114050000D01*
X145933901Y-114050000D01*
X146899542Y-113927353D01*
X146899546Y-113927350D01*
X146900435Y-113927118D01*
X146900450Y-113927175D01*
X146902235Y-113926679D01*
X146904121Y-113926396D01*
X146906009Y-113926065D01*
X146907853Y-113925966D01*
X146907850Y-113925910D01*
X146908766Y-113925850D01*
X146908766Y-113925849D01*
X146908768Y-113925850D01*
X146935509Y-113920531D01*
X146941029Y-113919432D01*
X146941053Y-113919431D01*
X146942828Y-113919077D01*
X146942829Y-113919078D01*
X146969703Y-113913729D01*
X146969741Y-113913737D01*
X146975402Y-113912610D01*
X146975403Y-113912611D01*
X147019149Y-113903907D01*
X147103618Y-113875226D01*
X147183622Y-113835766D01*
X147202487Y-113823157D01*
X147207169Y-113820029D01*
X147207170Y-113820029D01*
X147231910Y-113803497D01*
X147231923Y-113803491D01*
X147233644Y-113802341D01*
X147233645Y-113802341D01*
X147261017Y-113784049D01*
X147264531Y-113781701D01*
X147266051Y-113780916D01*
X147266033Y-113780881D01*
X147266839Y-113780444D01*
X147266842Y-113780443D01*
X147271758Y-113776881D01*
X147272132Y-113776621D01*
X147277179Y-113773250D01*
X147277181Y-113773248D01*
X147277873Y-113772642D01*
X147277899Y-113772672D01*
X147279158Y-113771521D01*
X147282346Y-113769214D01*
X147309244Y-113749736D01*
X147309244Y-113749734D01*
X147310766Y-113748633D01*
X147310787Y-113748613D01*
X147810900Y-113386391D01*
X147821323Y-113383906D01*
X147821839Y-113383998D01*
X147870297Y-113393637D01*
X147958283Y-113376136D01*
X148032874Y-113326296D01*
X148082714Y-113251705D01*
X148100215Y-113163719D01*
X148095510Y-113140067D01*
X148085528Y-113089881D01*
X148082714Y-113075733D01*
X148032874Y-113001142D01*
X148028679Y-112998339D01*
X148022726Y-112989431D01*
X148023987Y-112983089D01*
X149951572Y-112983089D01*
X149969072Y-113071073D01*
X149969072Y-113071074D01*
X149969073Y-113071075D01*
X150018913Y-113145666D01*
X150093504Y-113195506D01*
X150181490Y-113213007D01*
X150269476Y-113195506D01*
X150344067Y-113145666D01*
X150393907Y-113071075D01*
X150411408Y-112983089D01*
X150393907Y-112895103D01*
X150344067Y-112820512D01*
X150269476Y-112770672D01*
X150269475Y-112770671D01*
X150269474Y-112770671D01*
X150181490Y-112753171D01*
X150093505Y-112770671D01*
X150018913Y-112820512D01*
X149969072Y-112895104D01*
X149951572Y-112983088D01*
X149951572Y-112983089D01*
X148023987Y-112983089D01*
X148024816Y-112978922D01*
X148031719Y-112973525D01*
X148599086Y-112769529D01*
X148609787Y-112770038D01*
X148611590Y-112771057D01*
X148631187Y-112784152D01*
X148719173Y-112801653D01*
X148807159Y-112784152D01*
X148881750Y-112734312D01*
X148931590Y-112659721D01*
X148949091Y-112571735D01*
X148931590Y-112483749D01*
X148881750Y-112409158D01*
X148807159Y-112359318D01*
X148807158Y-112359317D01*
X148807157Y-112359317D01*
X148743064Y-112346569D01*
X151285805Y-112346569D01*
X151303305Y-112434553D01*
X151303305Y-112434554D01*
X151303306Y-112434555D01*
X151353146Y-112509146D01*
X151427737Y-112558986D01*
X151515723Y-112576487D01*
X151603709Y-112558986D01*
X151678300Y-112509146D01*
X151728140Y-112434555D01*
X151745641Y-112346569D01*
X151728140Y-112258583D01*
X151678300Y-112183992D01*
X151603709Y-112134152D01*
X151603708Y-112134151D01*
X151603707Y-112134151D01*
X151515723Y-112116651D01*
X151427738Y-112134151D01*
X151353146Y-112183992D01*
X151303305Y-112258584D01*
X151285805Y-112346568D01*
X151285805Y-112346569D01*
X148743064Y-112346569D01*
X148719173Y-112341817D01*
X148631188Y-112359317D01*
X148556596Y-112409158D01*
X148506756Y-112483748D01*
X148506213Y-112486477D01*
X148500258Y-112495386D01*
X148497219Y-112496918D01*
X148309450Y-112564430D01*
X148298747Y-112563921D01*
X148291539Y-112555993D01*
X148290982Y-112548525D01*
X148295510Y-112525765D01*
X148308383Y-112461044D01*
X148290882Y-112373058D01*
X148241042Y-112298467D01*
X148241040Y-112298466D01*
X148241040Y-112298465D01*
X148232670Y-112292872D01*
X148226717Y-112283963D01*
X148228808Y-112273454D01*
X148235466Y-112268148D01*
X148419174Y-112198244D01*
X148429883Y-112198556D01*
X148431920Y-112199683D01*
X148448102Y-112210495D01*
X148536088Y-112227996D01*
X148624074Y-112210495D01*
X148698665Y-112160655D01*
X148748505Y-112086064D01*
X148766006Y-111998078D01*
X148748505Y-111910092D01*
X148698665Y-111835501D01*
X148624074Y-111785661D01*
X148624073Y-111785660D01*
X148624072Y-111785660D01*
X148536088Y-111768160D01*
X148448103Y-111785660D01*
X148373511Y-111835501D01*
X148323671Y-111910090D01*
X148322354Y-111916708D01*
X148316399Y-111925616D01*
X148313602Y-111927059D01*
X147932985Y-112071893D01*
X147920878Y-112076500D01*
X147917054Y-112077955D01*
X147917046Y-112077958D01*
X147917014Y-112077970D01*
X147917013Y-112077969D01*
X147909413Y-112080863D01*
X147909406Y-112080866D01*
X147907764Y-112082052D01*
X147905526Y-112083370D01*
X147897167Y-112087297D01*
X147889133Y-112091840D01*
X147886767Y-112092902D01*
X147884847Y-112093557D01*
X147884843Y-112093559D01*
X147877485Y-112098489D01*
X147877478Y-112098494D01*
X147875194Y-112100022D01*
X147875195Y-112100023D01*
X147868923Y-112104226D01*
X147868922Y-112104226D01*
X147865291Y-112106659D01*
X147865291Y-112106660D01*
X147377200Y-112433683D01*
X147366693Y-112435786D01*
X147357776Y-112429845D01*
X147355677Y-112424786D01*
X147343518Y-112363654D01*
X147293678Y-112289063D01*
X147219087Y-112239223D01*
X147219086Y-112239222D01*
X147219085Y-112239222D01*
X147131101Y-112221722D01*
X147043116Y-112239222D01*
X146978778Y-112282210D01*
X146969239Y-112284458D01*
X146351830Y-112206197D01*
X146351773Y-112206183D01*
X146323429Y-112202596D01*
X146323420Y-112202591D01*
X146323420Y-112202593D01*
X146301714Y-112199834D01*
X146301327Y-112199795D01*
X146298411Y-112199426D01*
X146298398Y-112199426D01*
X146297108Y-112199602D01*
X146294964Y-112199728D01*
X146270642Y-112199279D01*
X146246470Y-112201435D01*
X146244315Y-112201460D01*
X146242995Y-112201373D01*
X146242991Y-112201374D01*
X146240025Y-112201963D01*
X146239712Y-112202017D01*
X146224197Y-112205112D01*
X146224190Y-112205113D01*
X146218417Y-112206261D01*
X146215490Y-112206844D01*
X146215489Y-112206844D01*
X146210430Y-112207850D01*
X146210326Y-112207859D01*
X146182150Y-112213473D01*
X146182119Y-112213467D01*
X146157625Y-112218347D01*
X146156820Y-112218620D01*
X146156748Y-112218649D01*
X146121605Y-112230588D01*
X146088467Y-112246936D01*
X146088248Y-112247028D01*
X146087569Y-112247363D01*
X146087550Y-112247375D01*
X146077089Y-112254367D01*
X146077088Y-112254368D01*
X146037166Y-112281042D01*
X146034627Y-112282384D01*
X146033167Y-112282972D01*
X146033163Y-112282975D01*
X146024659Y-112289372D01*
X146024023Y-112289824D01*
X146015167Y-112295742D01*
X146014133Y-112296921D01*
X146012025Y-112298876D01*
X145747285Y-112498024D01*
X145736909Y-112500698D01*
X145727681Y-112495252D01*
X145725138Y-112489567D01*
X145724523Y-112486477D01*
X145715219Y-112439696D01*
X145665379Y-112365105D01*
X145590788Y-112315265D01*
X145590787Y-112315264D01*
X145590786Y-112315264D01*
X145502802Y-112297764D01*
X145414817Y-112315264D01*
X145340225Y-112365105D01*
X145290384Y-112439697D01*
X145272884Y-112527681D01*
X145272884Y-112527682D01*
X145290384Y-112615666D01*
X145290384Y-112615667D01*
X145290385Y-112615668D01*
X145295631Y-112623520D01*
X145301503Y-112632307D01*
X145303593Y-112642816D01*
X145297640Y-112651726D01*
X145289987Y-112654084D01*
X143729961Y-112668038D01*
X143729872Y-112668029D01*
X143696730Y-112668335D01*
X143693937Y-112668080D01*
X143693808Y-112668055D01*
X143693809Y-112668048D01*
X143693740Y-112668042D01*
X143649161Y-112659175D01*
X143649161Y-112659173D01*
X143649152Y-112659173D01*
X143647934Y-112658930D01*
X143647137Y-112658747D01*
X143614108Y-112650124D01*
X143614022Y-112650110D01*
X142439512Y-112343769D01*
X142430968Y-112337303D01*
X142429498Y-112326689D01*
X142435964Y-112318145D01*
X142437971Y-112317175D01*
X142804255Y-112175175D01*
X142805796Y-112174678D01*
X143024085Y-112118332D01*
X143025391Y-112118062D01*
X143228222Y-112086408D01*
X143229823Y-112086254D01*
X143415748Y-112079192D01*
X143417658Y-112079251D01*
X143589776Y-112096495D01*
X143590826Y-112096641D01*
X143793160Y-112132753D01*
X143914315Y-112154377D01*
X143914318Y-112154377D01*
X143914327Y-112154379D01*
X143919421Y-112155065D01*
X144056458Y-112167560D01*
X144059346Y-112167753D01*
X144257443Y-112176215D01*
X144260004Y-112176269D01*
X144266462Y-112175921D01*
X144806411Y-112117460D01*
X144811964Y-112116594D01*
X144910821Y-112096396D01*
X144916255Y-112095018D01*
X145420361Y-111941832D01*
X145422673Y-111941130D01*
X145422728Y-111941113D01*
X145427397Y-111939714D01*
X145427449Y-111939698D01*
X145428827Y-111939291D01*
X145428916Y-111939593D01*
X145428923Y-111939589D01*
X145428835Y-111939289D01*
X145431265Y-111938570D01*
X145440276Y-111935909D01*
X145450928Y-111937036D01*
X145455879Y-111941555D01*
X145461544Y-111950033D01*
X145536135Y-111999873D01*
X145624121Y-112017374D01*
X145712107Y-111999873D01*
X145786698Y-111950033D01*
X145836538Y-111875442D01*
X145838380Y-111866179D01*
X145844333Y-111857271D01*
X145850684Y-111854984D01*
X148481681Y-111586236D01*
X148507683Y-111583580D01*
X148508178Y-111583539D01*
X148526665Y-111582348D01*
X148527568Y-111582320D01*
X148542242Y-111582378D01*
X148542659Y-111582386D01*
X148542953Y-111582396D01*
X148543723Y-111582422D01*
X148544606Y-111582482D01*
X148564962Y-111584519D01*
X149934274Y-111721538D01*
X149963953Y-111724508D01*
X149966169Y-111724688D01*
X149988387Y-111726082D01*
X149992145Y-111726200D01*
X150001662Y-111725441D01*
X150023642Y-111721910D01*
X150023670Y-111721905D01*
X150025811Y-111721520D01*
X150055084Y-111715697D01*
X150102919Y-111706182D01*
X150141937Y-111698421D01*
X150144818Y-111697774D01*
X150173514Y-111690583D01*
X150189768Y-111683850D01*
X150198113Y-111678849D01*
X151311270Y-111678849D01*
X151328770Y-111766833D01*
X151328770Y-111766834D01*
X151328771Y-111766835D01*
X151378611Y-111841426D01*
X151453202Y-111891266D01*
X151541188Y-111908767D01*
X151629174Y-111891266D01*
X151703765Y-111841426D01*
X151753605Y-111766835D01*
X151771106Y-111678849D01*
X151770312Y-111674859D01*
X151758010Y-111613009D01*
X151753605Y-111590863D01*
X151703765Y-111516272D01*
X151629174Y-111466432D01*
X151629173Y-111466431D01*
X151629172Y-111466431D01*
X151541188Y-111448931D01*
X151453203Y-111466431D01*
X151378611Y-111516272D01*
X151328770Y-111590864D01*
X151311270Y-111678848D01*
X151311270Y-111678849D01*
X150198113Y-111678849D01*
X150200042Y-111677693D01*
X150215150Y-111668641D01*
X150216290Y-111667918D01*
X150217638Y-111667065D01*
X150250716Y-111644963D01*
X150291269Y-111617866D01*
X150295009Y-111615367D01*
X150295289Y-111615179D01*
X150298083Y-111613289D01*
X150299740Y-111612127D01*
X150302469Y-111610144D01*
X150302741Y-111609945D01*
X150304562Y-111608605D01*
X150304566Y-111608604D01*
X150306365Y-111607281D01*
X150306366Y-111607281D01*
X150646365Y-111357281D01*
X150674666Y-111336472D01*
X150676736Y-111334879D01*
X150697125Y-111318473D01*
X150707901Y-111307201D01*
X150723374Y-111286095D01*
X150724872Y-111283955D01*
X150744388Y-111254748D01*
X150771484Y-111214195D01*
X150793586Y-111181117D01*
X150795166Y-111178623D01*
X150810371Y-111153246D01*
X150817104Y-111136992D01*
X150824296Y-111108296D01*
X150824943Y-111105416D01*
X150832704Y-111066398D01*
X150839287Y-111033303D01*
X151285805Y-111033303D01*
X151303305Y-111121287D01*
X151303305Y-111121288D01*
X151303306Y-111121289D01*
X151353146Y-111195880D01*
X151427737Y-111245720D01*
X151515723Y-111263221D01*
X151603709Y-111245720D01*
X151678300Y-111195880D01*
X151728140Y-111121289D01*
X151745641Y-111033303D01*
X151728140Y-110945317D01*
X151678300Y-110870726D01*
X151603709Y-110820886D01*
X151603708Y-110820885D01*
X151603707Y-110820885D01*
X151515723Y-110803385D01*
X151427738Y-110820885D01*
X151353146Y-110870726D01*
X151303305Y-110945318D01*
X151285805Y-111033302D01*
X151285805Y-111033303D01*
X150839287Y-111033303D01*
X150842219Y-111018562D01*
X150847485Y-110992090D01*
X150848210Y-110987531D01*
X150849738Y-110974793D01*
X150849892Y-110973369D01*
X150851248Y-110959215D01*
X150851522Y-110953492D01*
X150851521Y-110953317D01*
X150851392Y-110909085D01*
X150851214Y-110904647D01*
X150848134Y-110864698D01*
X150844357Y-110815721D01*
X150841276Y-110775772D01*
X150840513Y-110769804D01*
X150828314Y-110701711D01*
X150827027Y-110696097D01*
X150815730Y-110655799D01*
X150801881Y-110606395D01*
X150801881Y-110606394D01*
X150798547Y-110594500D01*
X150798038Y-110592782D01*
X150793003Y-110576679D01*
X150789912Y-110566791D01*
X150789367Y-110565134D01*
X150785247Y-110553184D01*
X150783787Y-110548950D01*
X150783786Y-110548949D01*
X150737286Y-110414103D01*
X151285805Y-110414103D01*
X151303305Y-110502087D01*
X151303305Y-110502088D01*
X151303306Y-110502089D01*
X151353146Y-110576680D01*
X151427737Y-110626520D01*
X151515723Y-110644021D01*
X151603709Y-110626520D01*
X151678300Y-110576680D01*
X151728140Y-110502089D01*
X151745641Y-110414103D01*
X151743702Y-110404357D01*
X151728140Y-110326118D01*
X151728140Y-110326117D01*
X151678300Y-110251526D01*
X151603709Y-110201686D01*
X151603708Y-110201685D01*
X151603707Y-110201685D01*
X151515723Y-110184185D01*
X151427738Y-110201685D01*
X151353146Y-110251526D01*
X151303305Y-110326118D01*
X151285805Y-110414102D01*
X151285805Y-110414103D01*
X150737286Y-110414103D01*
X150706945Y-110326118D01*
X150655484Y-110176887D01*
X150653038Y-110170871D01*
X150571493Y-109997824D01*
X150565911Y-109988345D01*
X150439974Y-109813414D01*
X150439963Y-109813400D01*
X150439955Y-109813390D01*
X150436605Y-109809374D01*
X151285805Y-109809374D01*
X151303305Y-109897358D01*
X151303305Y-109897359D01*
X151303306Y-109897360D01*
X151353146Y-109971951D01*
X151427737Y-110021791D01*
X151515723Y-110039292D01*
X151603709Y-110021791D01*
X151678300Y-109971951D01*
X151728140Y-109897360D01*
X151745641Y-109809374D01*
X151728140Y-109721388D01*
X151678300Y-109646797D01*
X151603709Y-109596957D01*
X151603708Y-109596956D01*
X151603707Y-109596956D01*
X151515723Y-109579456D01*
X151427738Y-109596956D01*
X151353146Y-109646797D01*
X151303305Y-109721389D01*
X151285805Y-109809373D01*
X151285805Y-109809374D01*
X150436605Y-109809374D01*
X150434502Y-109806853D01*
X150264170Y-109630035D01*
X150264167Y-109630032D01*
X150264163Y-109630028D01*
X150259332Y-109625537D01*
X150057091Y-109457224D01*
X150053409Y-109452486D01*
X149911304Y-109154256D01*
X151285805Y-109154256D01*
X151303305Y-109242240D01*
X151303305Y-109242241D01*
X151303306Y-109242242D01*
X151353146Y-109316833D01*
X151427737Y-109366673D01*
X151515723Y-109384174D01*
X151603709Y-109366673D01*
X151678300Y-109316833D01*
X151728140Y-109242242D01*
X151745641Y-109154256D01*
X151728140Y-109066270D01*
X151678300Y-108991679D01*
X151603709Y-108941839D01*
X151603708Y-108941838D01*
X151603707Y-108941838D01*
X151515723Y-108924338D01*
X151427738Y-108941838D01*
X151353146Y-108991679D01*
X151303305Y-109066271D01*
X151285805Y-109154255D01*
X151285805Y-109154256D01*
X149911304Y-109154256D01*
X149902256Y-109135268D01*
X149898149Y-109128000D01*
X149898146Y-109127994D01*
X149677098Y-108793470D01*
X149677096Y-108793467D01*
X149677086Y-108793452D01*
X149674985Y-108790474D01*
X149523201Y-108588585D01*
X149457053Y-108500601D01*
X151285805Y-108500601D01*
X151303305Y-108588585D01*
X151303305Y-108588586D01*
X151303306Y-108588587D01*
X151353146Y-108663178D01*
X151427737Y-108713018D01*
X151515723Y-108730519D01*
X151603709Y-108713018D01*
X151678300Y-108663178D01*
X151728140Y-108588587D01*
X151745641Y-108500601D01*
X151728140Y-108412615D01*
X151678300Y-108338024D01*
X151603709Y-108288184D01*
X151603708Y-108288183D01*
X151603707Y-108288183D01*
X151515723Y-108270683D01*
X151427738Y-108288183D01*
X151353146Y-108338024D01*
X151303305Y-108412616D01*
X151285805Y-108500600D01*
X151285805Y-108500601D01*
X149457053Y-108500601D01*
X149376244Y-108393117D01*
X149375847Y-108392562D01*
X149237498Y-108188575D01*
X149745179Y-108188575D01*
X149762679Y-108276559D01*
X149762679Y-108276560D01*
X149762680Y-108276561D01*
X149812520Y-108351152D01*
X149887111Y-108400992D01*
X149975097Y-108418493D01*
X150063083Y-108400992D01*
X150137674Y-108351152D01*
X150187514Y-108276561D01*
X150205015Y-108188575D01*
X150203179Y-108179347D01*
X150192754Y-108126935D01*
X150187514Y-108100589D01*
X150137674Y-108025998D01*
X150063083Y-107976158D01*
X150063082Y-107976157D01*
X150063081Y-107976157D01*
X149975097Y-107958657D01*
X149887112Y-107976157D01*
X149812520Y-108025998D01*
X149762679Y-108100590D01*
X149745179Y-108188574D01*
X149745179Y-108188575D01*
X149237498Y-108188575D01*
X149114381Y-108007047D01*
X149113750Y-108006025D01*
X148865763Y-107562773D01*
X148865538Y-107562353D01*
X148863201Y-107557772D01*
X148863193Y-107557757D01*
X148863188Y-107557748D01*
X148863142Y-107557657D01*
X148863142Y-107557656D01*
X148863122Y-107557619D01*
X148787606Y-107409475D01*
X148787589Y-107409443D01*
X148784575Y-107403523D01*
X148784543Y-107403459D01*
X148749143Y-107333044D01*
X148749102Y-107332963D01*
X148735569Y-107305603D01*
X148735558Y-107305581D01*
X148417487Y-106659628D01*
X148416793Y-106648935D01*
X148423314Y-106641168D01*
X153048769Y-104104980D01*
X153059421Y-104103817D01*
X153067776Y-104110526D01*
G37*
%TD.AperFunction*%
%TD*%
%TA.AperFunction,Conductor*%
%TO.N,VDDSYS*%
G36*
X140988350Y-109517868D02*
G01*
X141412879Y-109763276D01*
X141417355Y-109765864D01*
X141417662Y-109766049D01*
X141454574Y-109788943D01*
X141454916Y-109789162D01*
X141457446Y-109790843D01*
X141463424Y-109799736D01*
X141463349Y-109805618D01*
X141462330Y-109810084D01*
X141462330Y-109810086D01*
X141481426Y-109893752D01*
X141481427Y-109893754D01*
X141534934Y-109960850D01*
X141612255Y-109998086D01*
X141612256Y-109998086D01*
X141698075Y-109998086D01*
X141708445Y-109993091D01*
X141719142Y-109992490D01*
X141723771Y-109995198D01*
X142372523Y-110566576D01*
X142396625Y-110587803D01*
X142399242Y-110589933D01*
X142400237Y-110590743D01*
X142441012Y-110621379D01*
X142442525Y-110622424D01*
X142444904Y-110624069D01*
X142471591Y-110641001D01*
X142512785Y-110667138D01*
X142546386Y-110688457D01*
X142551546Y-110691383D01*
X142607259Y-110719437D01*
X142612601Y-110721809D01*
X142612618Y-110721815D01*
X142612619Y-110721816D01*
X142650260Y-110736374D01*
X142650265Y-110736375D01*
X142696441Y-110754234D01*
X142734106Y-110768801D01*
X142736978Y-110769748D01*
X142739838Y-110770692D01*
X142739841Y-110770692D01*
X142739851Y-110770696D01*
X142815862Y-110791582D01*
X142821432Y-110792830D01*
X142821430Y-110792830D01*
X142821439Y-110792831D01*
X142821450Y-110792834D01*
X142863470Y-110800163D01*
X142863469Y-110800163D01*
X142871434Y-110801552D01*
X142914985Y-110809148D01*
X142919900Y-110810006D01*
X142920592Y-110810122D01*
X142932653Y-110812081D01*
X142932684Y-110812086D01*
X142932869Y-110812114D01*
X142933339Y-110812188D01*
X142938320Y-110812938D01*
X144412829Y-111034905D01*
X144296200Y-111478240D01*
X144246886Y-111634570D01*
X144084995Y-112048738D01*
X144084994Y-112048738D01*
X144084665Y-112048953D01*
X144074132Y-112050923D01*
X144070795Y-112049763D01*
X144067357Y-112048056D01*
X144067349Y-112048053D01*
X144065915Y-112047923D01*
X144065909Y-112047923D01*
X143933477Y-112035848D01*
X143932288Y-112035688D01*
X143609134Y-111978011D01*
X143604543Y-111977373D01*
X143424563Y-111959342D01*
X143424546Y-111959341D01*
X143424545Y-111959341D01*
X143422848Y-111959256D01*
X143418569Y-111959042D01*
X143418565Y-111959042D01*
X143418564Y-111959042D01*
X143418157Y-111959049D01*
X143416263Y-111959085D01*
X143220947Y-111966505D01*
X143216071Y-111966976D01*
X143213979Y-111967179D01*
X143003329Y-112000053D01*
X142999138Y-112000919D01*
X142997594Y-112001238D01*
X142997591Y-112001238D01*
X142997585Y-112001240D01*
X142884601Y-112030404D01*
X142771608Y-112059570D01*
X142764912Y-112061725D01*
X142267052Y-112254734D01*
X142267031Y-112254743D01*
X142260743Y-112257608D01*
X142166212Y-112307452D01*
X142156149Y-112308615D01*
X141915668Y-112245892D01*
X141846205Y-112227775D01*
X141846204Y-112227775D01*
X141845142Y-112227498D01*
X141845142Y-112227494D01*
X141844351Y-112227313D01*
X141844351Y-112227316D01*
X141826712Y-112223807D01*
X141817803Y-112217854D01*
X141815531Y-112208520D01*
X141819005Y-112177504D01*
X141819202Y-112175122D01*
X141824463Y-112076972D01*
X141829086Y-112067309D01*
X141833941Y-112064468D01*
X141842221Y-112061657D01*
X141862872Y-112051470D01*
X141867589Y-112050105D01*
X141867613Y-112050102D01*
X141871268Y-112049715D01*
X141884296Y-112041009D01*
X141884303Y-112041005D01*
X141884896Y-112040608D01*
X141884900Y-112040607D01*
X141892021Y-112035848D01*
X141892961Y-112035220D01*
X141892962Y-112035219D01*
X141900168Y-112030404D01*
X141961681Y-111989302D01*
X141961683Y-111989299D01*
X141962483Y-111988765D01*
X141962521Y-111988736D01*
X141963426Y-111988130D01*
X141964991Y-111987086D01*
X142000774Y-111955711D01*
X142015968Y-111938385D01*
X142019795Y-111935325D01*
X142023055Y-111933552D01*
X142043426Y-111903065D01*
X142043427Y-111903065D01*
X142067194Y-111867496D01*
X142067201Y-111867483D01*
X142071088Y-111861666D01*
X142071089Y-111861666D01*
X142071090Y-111861660D01*
X142072453Y-111859624D01*
X142072452Y-111859623D01*
X142075231Y-111855470D01*
X142075234Y-111855459D01*
X142083468Y-111843138D01*
X142083469Y-111843134D01*
X142083902Y-111842487D01*
X142083995Y-111842328D01*
X142084621Y-111841392D01*
X142085663Y-111839834D01*
X142106719Y-111797158D01*
X142114131Y-111775332D01*
X142116498Y-111771035D01*
X142118837Y-111768143D01*
X142126670Y-111728763D01*
X142133934Y-111692275D01*
X142133933Y-111692273D01*
X142134268Y-111690594D01*
X142134271Y-111690544D01*
X142135058Y-111686592D01*
X142135066Y-111686580D01*
X142140835Y-111657573D01*
X142140837Y-111657559D01*
X142143947Y-111610075D01*
X142142438Y-111587098D01*
X142142980Y-111582219D01*
X142144028Y-111578673D01*
X142140928Y-111563092D01*
X142140918Y-111563026D01*
X142137337Y-111545038D01*
X142137337Y-111545037D01*
X142137336Y-111545036D01*
X142134275Y-111529644D01*
X142134269Y-111529571D01*
X142133641Y-111526418D01*
X142127846Y-111497314D01*
X142127850Y-111497292D01*
X142126675Y-111491400D01*
X142126676Y-111491400D01*
X142123512Y-111475532D01*
X142122814Y-111472022D01*
X142122375Y-111471084D01*
X142121620Y-111469090D01*
X142114398Y-111444494D01*
X142114395Y-111444485D01*
X142114395Y-111444484D01*
X142114207Y-111444007D01*
X142113239Y-111438605D01*
X142113294Y-111435848D01*
X142113293Y-111435847D01*
X142113294Y-111435847D01*
X142098807Y-111406875D01*
X142098807Y-111406870D01*
X142093655Y-111396570D01*
X142093654Y-111396568D01*
X141662693Y-110534645D01*
X141662679Y-110534607D01*
X141646583Y-110502423D01*
X141645182Y-110497637D01*
X141644794Y-110493983D01*
X141644794Y-110493982D01*
X141617794Y-110453574D01*
X141617007Y-110452397D01*
X141616971Y-110452324D01*
X141598508Y-110424709D01*
X141598503Y-110424684D01*
X141588277Y-110409393D01*
X141588187Y-110409263D01*
X141584384Y-110403573D01*
X141584383Y-110403571D01*
X141583138Y-110402434D01*
X141581510Y-110400667D01*
X141579343Y-110397868D01*
X141577099Y-110393621D01*
X141575966Y-110390125D01*
X141554027Y-110368691D01*
X141553942Y-110368608D01*
X141553941Y-110368605D01*
X141544575Y-110359456D01*
X141544574Y-110359455D01*
X141389186Y-110207641D01*
X141385321Y-110200742D01*
X141378740Y-110171908D01*
X141378740Y-110171907D01*
X141325233Y-110104811D01*
X141325232Y-110104810D01*
X141285147Y-110085506D01*
X141247912Y-110067575D01*
X141162092Y-110067575D01*
X141136959Y-110079677D01*
X141084771Y-110104810D01*
X141031264Y-110171907D01*
X141023219Y-110207150D01*
X141017018Y-110215888D01*
X141006454Y-110217683D01*
X141003639Y-110216715D01*
X140652279Y-110052373D01*
X140650813Y-110051578D01*
X140648695Y-110050260D01*
X140755165Y-109810086D01*
X140982179Y-109513255D01*
X140988350Y-109517868D01*
G37*
%TD.AperFunction*%
%TD*%
%TA.AperFunction,Conductor*%
%TO.N,VDDSYS*%
G36*
X132322282Y-107873323D02*
G01*
X132466660Y-108129039D01*
X132467568Y-108130567D01*
X132467719Y-108130808D01*
X132467728Y-108130822D01*
X132473010Y-108139292D01*
X132473069Y-108139374D01*
X132473806Y-108140503D01*
X132473819Y-108140522D01*
X132626180Y-108364161D01*
X132628146Y-108366813D01*
X132762421Y-108533559D01*
X132765386Y-108540432D01*
X132936854Y-109787137D01*
X132936855Y-109787194D01*
X132941188Y-109818652D01*
X132941197Y-109818714D01*
X132941224Y-109818916D01*
X132941749Y-109822862D01*
X132942055Y-109825333D01*
X132942229Y-109826744D01*
X132942244Y-109826873D01*
X132942705Y-109830916D01*
X132942712Y-109830976D01*
X132946170Y-109862526D01*
X132946175Y-109862548D01*
X133181141Y-112004504D01*
X133178144Y-112014792D01*
X133168751Y-112019948D01*
X133158463Y-112016951D01*
X133157623Y-112016220D01*
X133156107Y-112014792D01*
X131589652Y-110538832D01*
X131585640Y-110535504D01*
X131395775Y-110397304D01*
X131395768Y-110397299D01*
X131395755Y-110397290D01*
X131391799Y-110394745D01*
X131391793Y-110394741D01*
X130906464Y-110120341D01*
X130899864Y-110111899D01*
X130901167Y-110101264D01*
X130909609Y-110094664D01*
X130916083Y-110094423D01*
X130996736Y-110110466D01*
X131099353Y-110090054D01*
X131186348Y-110031926D01*
X131244476Y-109944931D01*
X131257703Y-109878436D01*
X132190463Y-109878436D01*
X132209559Y-109962102D01*
X132209560Y-109962104D01*
X132263067Y-110029200D01*
X132340388Y-110066436D01*
X132340389Y-110066436D01*
X132426207Y-110066436D01*
X132426208Y-110066436D01*
X132503529Y-110029200D01*
X132557036Y-109962104D01*
X132576133Y-109878436D01*
X132557036Y-109794768D01*
X132503529Y-109727672D01*
X132503528Y-109727671D01*
X132463443Y-109708367D01*
X132426208Y-109690436D01*
X132340388Y-109690436D01*
X132315255Y-109702538D01*
X132263067Y-109727671D01*
X132209560Y-109794768D01*
X132209559Y-109794769D01*
X132190463Y-109878436D01*
X131257703Y-109878436D01*
X131264888Y-109842314D01*
X131255894Y-109797101D01*
X131244476Y-109739698D01*
X131244476Y-109739697D01*
X131186348Y-109652702D01*
X131099353Y-109594574D01*
X131099352Y-109594573D01*
X131099351Y-109594573D01*
X130996736Y-109574162D01*
X130894120Y-109594573D01*
X130807124Y-109652702D01*
X130748995Y-109739698D01*
X130728584Y-109842313D01*
X130728584Y-109842314D01*
X130748995Y-109944929D01*
X130748995Y-109944930D01*
X130748996Y-109944931D01*
X130760470Y-109962103D01*
X130807124Y-110031926D01*
X130808375Y-110032762D01*
X130814329Y-110041671D01*
X130812239Y-110052180D01*
X130803330Y-110058134D01*
X130793708Y-110056590D01*
X130028375Y-109623879D01*
X130028307Y-109623841D01*
X130028241Y-109623804D01*
X129976198Y-109594573D01*
X129762886Y-109474761D01*
X128916430Y-108999330D01*
X129869813Y-108999330D01*
X129890224Y-109101945D01*
X129890224Y-109101946D01*
X129890225Y-109101947D01*
X129948353Y-109188942D01*
X130035348Y-109247070D01*
X130137965Y-109267482D01*
X130240582Y-109247070D01*
X130327577Y-109188942D01*
X130385705Y-109101947D01*
X130386606Y-109097419D01*
X130684837Y-109097419D01*
X130703933Y-109181085D01*
X130703934Y-109181087D01*
X130757441Y-109248183D01*
X130834762Y-109285419D01*
X130834763Y-109285419D01*
X130920581Y-109285419D01*
X130920582Y-109285419D01*
X130997903Y-109248183D01*
X131051410Y-109181087D01*
X131070507Y-109097419D01*
X131051410Y-109013751D01*
X130997903Y-108946655D01*
X130997902Y-108946654D01*
X130957817Y-108927350D01*
X130920582Y-108909419D01*
X130834762Y-108909419D01*
X130809629Y-108921521D01*
X130757441Y-108946654D01*
X130703934Y-109013751D01*
X130703933Y-109013752D01*
X130684837Y-109097419D01*
X130386606Y-109097419D01*
X130406117Y-108999330D01*
X130385705Y-108896713D01*
X130327577Y-108809718D01*
X130240582Y-108751590D01*
X130240581Y-108751589D01*
X130240580Y-108751589D01*
X130137965Y-108731178D01*
X130035349Y-108751589D01*
X129948353Y-108809718D01*
X129890224Y-108896714D01*
X129869813Y-108999329D01*
X129869813Y-108999330D01*
X128916430Y-108999330D01*
X128742044Y-108901382D01*
X130381632Y-107879426D01*
X132317097Y-107853590D01*
X132322282Y-107873323D01*
G37*
%TD.AperFunction*%
%TD*%
%TA.AperFunction,Conductor*%
%TO.N,VDDSYS*%
G36*
X144792591Y-111787456D02*
G01*
X144798293Y-111996907D01*
X144793301Y-111997928D01*
X144793233Y-111997599D01*
X144791923Y-111998327D01*
X144791842Y-111998336D01*
X144790697Y-111998460D01*
X144259088Y-112056017D01*
X144256984Y-112056085D01*
X144084995Y-112048738D01*
X144246886Y-111634570D01*
X144296200Y-111478240D01*
X144412829Y-111034905D01*
X144412829Y-111034904D01*
X144418131Y-111035703D01*
X144418118Y-111035786D01*
X144418486Y-111035814D01*
X144418671Y-111035776D01*
X144418982Y-111035851D01*
X144419250Y-111035871D01*
X144419252Y-111035872D01*
X144428184Y-111036541D01*
X144436262Y-111035994D01*
X144618711Y-111011203D01*
X144623342Y-111010125D01*
X144792591Y-111787456D01*
G37*
%TD.AperFunction*%
%TD*%
%TA.AperFunction,Conductor*%
%TO.N,VDDSYS*%
G36*
X150058868Y-109614823D02*
G01*
X150179438Y-109715167D01*
X150180565Y-109716215D01*
X150344398Y-109886286D01*
X150345677Y-109887819D01*
X150395278Y-109956716D01*
X150445155Y-110025998D01*
X150464544Y-110052929D01*
X150465846Y-110055141D01*
X150542776Y-110218394D01*
X150543347Y-110219798D01*
X150671421Y-110591199D01*
X150671422Y-110591203D01*
X150675571Y-110603234D01*
X150675698Y-110603620D01*
X150683178Y-110627543D01*
X150683276Y-110627874D01*
X150686335Y-110638786D01*
X150686335Y-110638787D01*
X150700184Y-110688190D01*
X150710519Y-110725056D01*
X150710820Y-110726366D01*
X150721739Y-110787310D01*
X150721917Y-110788703D01*
X150724712Y-110824948D01*
X150728489Y-110873925D01*
X150731359Y-110911146D01*
X150731400Y-110912181D01*
X150731510Y-110950024D01*
X150731446Y-110951399D01*
X150730522Y-110961052D01*
X150730486Y-110961385D01*
X150729404Y-110970405D01*
X150729235Y-110971469D01*
X150724525Y-110995152D01*
X150715010Y-111042986D01*
X150715010Y-111042987D01*
X150707602Y-111080225D01*
X150707451Y-111080896D01*
X150703370Y-111097181D01*
X150701799Y-111100974D01*
X150693162Y-111115387D01*
X150692794Y-111115969D01*
X150671708Y-111147526D01*
X150644611Y-111188079D01*
X150625984Y-111215956D01*
X150625634Y-111216455D01*
X150616856Y-111228429D01*
X150614342Y-111231059D01*
X150602758Y-111240381D01*
X150602274Y-111240753D01*
X150575278Y-111260603D01*
X150232600Y-111512571D01*
X150232057Y-111512970D01*
X150231792Y-111513166D01*
X150231788Y-111513169D01*
X150230202Y-111514321D01*
X150229819Y-111514590D01*
X150228234Y-111515661D01*
X150228200Y-111515684D01*
X150224601Y-111518089D01*
X150185774Y-111544033D01*
X150184048Y-111545187D01*
X150184047Y-111545187D01*
X150165563Y-111557538D01*
X150152477Y-111566281D01*
X150151895Y-111566649D01*
X150137495Y-111575277D01*
X150133702Y-111576848D01*
X150117413Y-111580930D01*
X150116741Y-111581081D01*
X150080184Y-111588352D01*
X150080182Y-111588354D01*
X150031673Y-111598003D01*
X150003770Y-111603553D01*
X150003259Y-111603645D01*
X149990771Y-111605651D01*
X149987674Y-111605800D01*
X149975028Y-111605006D01*
X149974511Y-111604964D01*
X149945876Y-111602099D01*
X149945857Y-111602096D01*
X148576910Y-111465115D01*
X148554162Y-111462838D01*
X148550271Y-111462576D01*
X148547037Y-111462465D01*
X148545683Y-111462419D01*
X148545667Y-111462418D01*
X148545647Y-111462418D01*
X148543875Y-111462383D01*
X148534692Y-111462347D01*
X148525538Y-111462312D01*
X148525510Y-111462312D01*
X148525309Y-111462312D01*
X148525304Y-111462312D01*
X148524870Y-111462325D01*
X148521439Y-111462435D01*
X148499096Y-111463875D01*
X148496853Y-111464062D01*
X148469486Y-111466856D01*
X148469487Y-111466857D01*
X145856289Y-111733785D01*
X145846024Y-111730711D01*
X145841136Y-111722590D01*
X145836538Y-111699470D01*
X145786698Y-111624879D01*
X145712107Y-111575039D01*
X145712106Y-111575038D01*
X145712105Y-111575038D01*
X145624121Y-111557538D01*
X145536136Y-111575038D01*
X145461544Y-111624879D01*
X145411703Y-111699471D01*
X145394203Y-111787455D01*
X145398651Y-111809823D01*
X145396560Y-111820333D01*
X145388951Y-111825961D01*
X145388166Y-111826197D01*
X145387973Y-111826256D01*
X145387937Y-111826267D01*
X145387466Y-111826409D01*
X145387436Y-111826418D01*
X145386659Y-111826655D01*
X145384840Y-111827207D01*
X144884679Y-111979195D01*
X144883411Y-111979517D01*
X144848271Y-111986697D01*
X144798294Y-111996908D01*
X144792591Y-111787456D01*
X144623342Y-111010125D01*
X144623343Y-111010125D01*
X144624869Y-111009769D01*
X144629632Y-111008661D01*
X145202955Y-110817257D01*
X145213641Y-110818012D01*
X145220666Y-110826104D01*
X145221117Y-110833268D01*
X145206045Y-110909045D01*
X145206045Y-110909046D01*
X145223545Y-110997030D01*
X145223545Y-110997031D01*
X145223546Y-110997032D01*
X145273386Y-111071623D01*
X145347977Y-111121463D01*
X145435963Y-111138964D01*
X145523949Y-111121463D01*
X145598540Y-111071623D01*
X145648380Y-110997032D01*
X145665881Y-110909046D01*
X145648380Y-110821060D01*
X145607226Y-110759469D01*
X145605137Y-110748962D01*
X145611090Y-110740052D01*
X145618715Y-110737694D01*
X147960792Y-110712625D01*
X147970733Y-110716619D01*
X147974939Y-110726474D01*
X147972581Y-110734402D01*
X147934580Y-110791274D01*
X147917080Y-110879258D01*
X147917080Y-110879259D01*
X147934580Y-110967243D01*
X147934580Y-110967244D01*
X147934581Y-110967245D01*
X147984421Y-111041836D01*
X148059012Y-111091676D01*
X148146998Y-111109177D01*
X148234984Y-111091676D01*
X148309575Y-111041836D01*
X148359415Y-110967245D01*
X148376916Y-110879259D01*
X148376290Y-110876114D01*
X148371325Y-110851151D01*
X148359415Y-110791273D01*
X148359413Y-110791271D01*
X148359413Y-110791269D01*
X148339008Y-110760731D01*
X148336917Y-110750222D01*
X148342870Y-110741313D01*
X148352100Y-110739029D01*
X148493607Y-110753822D01*
X148525221Y-110757126D01*
X148525634Y-110757176D01*
X148610304Y-110768820D01*
X148610732Y-110768885D01*
X148641848Y-110774207D01*
X149136078Y-110858733D01*
X149142503Y-110859478D01*
X149412530Y-110876113D01*
X149412549Y-110876113D01*
X149412556Y-110876114D01*
X149416209Y-110876227D01*
X149416212Y-110876226D01*
X149416220Y-110876227D01*
X149425138Y-110875560D01*
X149591260Y-110850590D01*
X149700975Y-110834099D01*
X149700976Y-110834098D01*
X149700979Y-110834098D01*
X149732510Y-110819080D01*
X149748730Y-110791751D01*
X149757308Y-110785333D01*
X149767914Y-110786860D01*
X149772408Y-110791120D01*
X149812520Y-110851152D01*
X149887111Y-110900992D01*
X149975097Y-110918493D01*
X150063083Y-110900992D01*
X150069083Y-110896983D01*
X150079593Y-110894892D01*
X150088502Y-110900844D01*
X150090593Y-110911354D01*
X150085179Y-110938574D01*
X150085179Y-110938575D01*
X150090593Y-110965796D01*
X150088502Y-110976305D01*
X150079593Y-110982258D01*
X150069084Y-110980168D01*
X150063083Y-110976158D01*
X150063082Y-110976157D01*
X150063081Y-110976157D01*
X149975097Y-110958657D01*
X149887112Y-110976157D01*
X149812520Y-111025998D01*
X149762679Y-111100590D01*
X149745179Y-111188574D01*
X149745179Y-111188575D01*
X149762679Y-111276559D01*
X149762679Y-111276560D01*
X149762680Y-111276561D01*
X149812520Y-111351152D01*
X149887111Y-111400992D01*
X149975097Y-111418493D01*
X150063083Y-111400992D01*
X150137674Y-111351152D01*
X150187514Y-111276561D01*
X150205015Y-111188575D01*
X150204916Y-111188079D01*
X150199600Y-111161353D01*
X150201690Y-111150844D01*
X150210600Y-111144891D01*
X150221107Y-111146980D01*
X150221109Y-111146981D01*
X150221109Y-111146982D01*
X150224261Y-111149088D01*
X150227111Y-111150992D01*
X150315097Y-111168493D01*
X150403083Y-111150992D01*
X150477674Y-111101152D01*
X150527514Y-111026561D01*
X150545015Y-110938575D01*
X150539141Y-110909046D01*
X150533007Y-110878204D01*
X150527514Y-110850589D01*
X150477674Y-110775998D01*
X150403083Y-110726158D01*
X150403082Y-110726157D01*
X150403081Y-110726157D01*
X150315097Y-110708657D01*
X150227110Y-110726157D01*
X150221108Y-110730168D01*
X150210599Y-110732258D01*
X150201690Y-110726304D01*
X150199600Y-110715796D01*
X150205015Y-110688575D01*
X150205015Y-110688574D01*
X150189612Y-110611139D01*
X150187514Y-110600589D01*
X150137674Y-110525998D01*
X150063083Y-110476158D01*
X150063082Y-110476157D01*
X150063081Y-110476157D01*
X149975097Y-110458657D01*
X149887112Y-110476157D01*
X149845207Y-110504156D01*
X149834697Y-110506246D01*
X149825788Y-110500293D01*
X149823698Y-110489783D01*
X149823819Y-110489232D01*
X149846553Y-110396478D01*
X149852892Y-110387842D01*
X149863483Y-110386216D01*
X149867924Y-110388171D01*
X149887111Y-110400992D01*
X149975097Y-110418493D01*
X150063083Y-110400992D01*
X150137674Y-110351152D01*
X150187514Y-110276561D01*
X150205015Y-110188575D01*
X150198124Y-110153933D01*
X150187514Y-110100590D01*
X150187514Y-110100589D01*
X150137674Y-110025998D01*
X150063083Y-109976158D01*
X150063082Y-109976157D01*
X150063081Y-109976157D01*
X149975097Y-109958657D01*
X149974333Y-109958809D01*
X149963824Y-109956716D01*
X149957873Y-109947805D01*
X149958006Y-109941748D01*
X150036315Y-109622249D01*
X150042654Y-109613612D01*
X150053245Y-109611986D01*
X150058868Y-109614823D01*
G37*
%TD.AperFunction*%
%TD*%
%TA.AperFunction,Conductor*%
%TO.N,VDDSYS*%
G36*
X133440573Y-102503041D02*
G01*
X135669410Y-102512446D01*
X135670775Y-102512451D01*
X135701108Y-102512808D01*
X135702474Y-102512833D01*
X135702475Y-102512834D01*
X135702476Y-102512834D01*
X135752011Y-102513788D01*
X135771412Y-102514162D01*
X135771812Y-102514175D01*
X135889189Y-102519881D01*
X135891368Y-102520158D01*
X136185747Y-102581617D01*
X136186625Y-102581832D01*
X136204979Y-102586984D01*
X136254373Y-102600850D01*
X136254375Y-102600850D01*
X136255294Y-102601108D01*
X136255296Y-102601108D01*
X136268306Y-102604760D01*
X136268951Y-102604959D01*
X136392348Y-102646543D01*
X136398903Y-102651185D01*
X136427022Y-102687148D01*
X136429236Y-102691231D01*
X136437361Y-102714934D01*
X136437365Y-102714941D01*
X136478680Y-102768127D01*
X136510713Y-102809365D01*
X136510908Y-102809622D01*
X136518981Y-102820557D01*
X137699048Y-104419112D01*
X137700055Y-104420686D01*
X138063037Y-105081368D01*
X138064210Y-105092018D01*
X138060219Y-105097976D01*
X138060253Y-105098003D01*
X138059931Y-105098405D01*
X138059499Y-105099052D01*
X138059271Y-105099233D01*
X138005762Y-105166332D01*
X138005761Y-105166333D01*
X137986665Y-105250000D01*
X138005761Y-105333666D01*
X138005762Y-105333668D01*
X138059269Y-105400764D01*
X138136590Y-105438000D01*
X138136591Y-105438000D01*
X138222410Y-105438000D01*
X138239369Y-105429832D01*
X138250064Y-105429231D01*
X138257711Y-105435705D01*
X139309995Y-107351020D01*
X139309996Y-107351022D01*
X139314998Y-107356274D01*
X139316537Y-107357891D01*
X139317312Y-107358704D01*
X139321170Y-107368701D01*
X139320548Y-107372499D01*
X139282474Y-107495485D01*
X139280223Y-107506054D01*
X139280222Y-107506059D01*
X139278418Y-107521060D01*
X139258753Y-107684545D01*
X139258322Y-107691719D01*
X139259141Y-107701602D01*
X139282809Y-107843416D01*
X139282812Y-107843426D01*
X139291786Y-107866396D01*
X139291790Y-107866405D01*
X139314106Y-107900505D01*
X139316041Y-107905056D01*
X139317644Y-107912080D01*
X139317644Y-107912081D01*
X139339747Y-107939798D01*
X139340516Y-107940861D01*
X139360601Y-107971553D01*
X139369470Y-107982185D01*
X139369473Y-107982188D01*
X139369479Y-107982195D01*
X140977053Y-109509422D01*
X140982179Y-109513255D01*
X140755165Y-109810086D01*
X140648695Y-110050260D01*
X140532250Y-109977792D01*
X140530919Y-109976852D01*
X135759867Y-106172593D01*
X135759373Y-106172207D01*
X135661964Y-106097412D01*
X135661371Y-106096964D01*
X135463338Y-105950543D01*
X135458997Y-105945255D01*
X135340590Y-105694025D01*
X135131318Y-105250000D01*
X137227665Y-105250000D01*
X137246761Y-105333666D01*
X137246762Y-105333668D01*
X137300269Y-105400764D01*
X137377590Y-105438000D01*
X137377591Y-105438000D01*
X137463409Y-105438000D01*
X137463410Y-105438000D01*
X137540731Y-105400764D01*
X137594238Y-105333668D01*
X137613335Y-105250000D01*
X137594238Y-105166332D01*
X137540731Y-105099236D01*
X137540730Y-105099235D01*
X137497357Y-105078348D01*
X137463410Y-105062000D01*
X137377590Y-105062000D01*
X137352457Y-105074102D01*
X137300269Y-105099235D01*
X137246762Y-105166332D01*
X137246761Y-105166333D01*
X137227665Y-105250000D01*
X135131318Y-105250000D01*
X135105352Y-105194907D01*
X135104842Y-105184205D01*
X135105087Y-105183570D01*
X135262784Y-104803783D01*
X135264081Y-104800200D01*
X135374858Y-104443553D01*
X135376095Y-104438436D01*
X135430567Y-104127531D01*
X135431186Y-104120412D01*
X135431185Y-104120127D01*
X135429650Y-103898006D01*
X135429552Y-103883857D01*
X135433584Y-103873929D01*
X135443455Y-103869760D01*
X135530323Y-103869760D01*
X135530324Y-103869760D01*
X135607645Y-103832524D01*
X135661152Y-103765428D01*
X135680249Y-103681760D01*
X135661152Y-103598092D01*
X135607645Y-103530996D01*
X135607644Y-103530995D01*
X135563723Y-103509844D01*
X135530324Y-103493760D01*
X135444504Y-103493760D01*
X135428756Y-103501344D01*
X135367183Y-103530995D01*
X135313676Y-103598092D01*
X135313675Y-103598092D01*
X135307031Y-103627199D01*
X135300830Y-103635938D01*
X135290266Y-103637732D01*
X135282804Y-103633254D01*
X135257878Y-103604506D01*
X135257874Y-103604502D01*
X135251022Y-103598204D01*
X135251004Y-103598189D01*
X135162392Y-103533577D01*
X135162387Y-103533574D01*
X135151814Y-103528008D01*
X135151809Y-103528006D01*
X135070039Y-103499158D01*
X135068623Y-103498570D01*
X135058634Y-103493760D01*
X135055497Y-103493760D01*
X135051911Y-103493293D01*
X135051854Y-103493278D01*
X135051487Y-103493180D01*
X135051475Y-103493178D01*
X134490677Y-103392215D01*
X134471440Y-103388751D01*
X134471437Y-103388750D01*
X134467848Y-103388283D01*
X134467442Y-103388231D01*
X134467440Y-103388230D01*
X134467426Y-103388229D01*
X134411350Y-103383691D01*
X134411338Y-103383690D01*
X134411332Y-103383690D01*
X134408005Y-103383556D01*
X134407992Y-103383556D01*
X134407990Y-103383556D01*
X134407886Y-103383556D01*
X134407384Y-103383561D01*
X134407338Y-103383561D01*
X134387500Y-103383860D01*
X134308172Y-103385053D01*
X134308171Y-103385053D01*
X134288861Y-103385343D01*
X134288827Y-103385344D01*
X134284848Y-103385597D01*
X134215666Y-103393346D01*
X134215650Y-103393348D01*
X134211945Y-103393935D01*
X134211936Y-103393937D01*
X134192651Y-103397907D01*
X134192650Y-103397906D01*
X133438114Y-103553231D01*
X133416661Y-103565080D01*
X133416657Y-103565082D01*
X133097329Y-103897986D01*
X133097301Y-103898017D01*
X133093356Y-103902805D01*
X132968843Y-104079538D01*
X132963259Y-104090787D01*
X132963254Y-104090800D01*
X132896342Y-104301326D01*
X132894971Y-104307004D01*
X132466179Y-106865689D01*
X132464013Y-106871153D01*
X132424392Y-106930452D01*
X132403981Y-107033067D01*
X132403981Y-107033068D01*
X132422014Y-107123729D01*
X132422090Y-107128774D01*
X132356351Y-107521053D01*
X132356074Y-107522985D01*
X132317245Y-107848130D01*
X132317242Y-107848168D01*
X132316952Y-107853039D01*
X132316953Y-107853041D01*
X132317097Y-107853590D01*
X130381632Y-107879426D01*
X128742044Y-108901383D01*
X128742043Y-108901383D01*
X128742041Y-108901382D01*
X128738450Y-108901464D01*
X128728459Y-108897590D01*
X128725843Y-108894177D01*
X128724416Y-108891564D01*
X128723388Y-108890903D01*
X128243595Y-108582604D01*
X128242386Y-108581733D01*
X127764127Y-108196853D01*
X127763170Y-108196008D01*
X127284803Y-107733203D01*
X127284050Y-107732416D01*
X127119088Y-107545891D01*
X129855261Y-107545891D01*
X129874357Y-107629557D01*
X129874358Y-107629559D01*
X129927865Y-107696655D01*
X130005186Y-107733891D01*
X130005187Y-107733891D01*
X130091005Y-107733891D01*
X130091006Y-107733891D01*
X130168327Y-107696655D01*
X130221834Y-107629559D01*
X130240931Y-107545891D01*
X130221834Y-107462223D01*
X130168327Y-107395127D01*
X130168326Y-107395126D01*
X130128241Y-107375822D01*
X130091006Y-107357891D01*
X130005186Y-107357891D01*
X129995842Y-107362391D01*
X129927865Y-107395126D01*
X129874358Y-107462223D01*
X129874357Y-107462224D01*
X129855261Y-107545891D01*
X127119088Y-107545891D01*
X126850551Y-107242253D01*
X126847064Y-107232121D01*
X126851763Y-107222491D01*
X126854356Y-107220675D01*
X128082022Y-106554660D01*
X128083165Y-106554017D01*
X128415414Y-106359854D01*
X128417755Y-106358379D01*
X128725362Y-106149755D01*
X128727747Y-106148009D01*
X129010710Y-105924924D01*
X129013093Y-105922894D01*
X129271413Y-105685348D01*
X129272587Y-105684225D01*
X129339874Y-105617271D01*
X129349781Y-105613197D01*
X129358267Y-105616089D01*
X129359518Y-105617049D01*
X129507543Y-105678363D01*
X129626508Y-105694025D01*
X129706278Y-105694025D01*
X129825243Y-105678363D01*
X129973268Y-105617049D01*
X130100380Y-105519512D01*
X130197917Y-105392401D01*
X130259231Y-105244375D01*
X130280144Y-105085525D01*
X130259231Y-104926675D01*
X130197917Y-104778650D01*
X130197914Y-104778646D01*
X130197745Y-104778353D01*
X130197722Y-104778179D01*
X130197566Y-104777803D01*
X130197666Y-104777761D01*
X130196341Y-104767731D01*
X130199987Y-104761430D01*
X130931300Y-104033748D01*
X130941208Y-104029674D01*
X130943897Y-104029942D01*
X131034915Y-104048047D01*
X131137532Y-104027635D01*
X131224527Y-103969507D01*
X131282655Y-103882512D01*
X131303067Y-103779895D01*
X131285258Y-103690365D01*
X131287348Y-103679857D01*
X131289107Y-103677719D01*
X131470942Y-103496786D01*
X131472922Y-103495150D01*
X131473319Y-103494879D01*
X131732853Y-103317714D01*
X133125253Y-103317714D01*
X133144349Y-103401380D01*
X133144350Y-103401382D01*
X133197857Y-103468478D01*
X133275178Y-103505714D01*
X133275179Y-103505714D01*
X133360997Y-103505714D01*
X133360998Y-103505714D01*
X133438319Y-103468478D01*
X133491826Y-103401382D01*
X133510923Y-103317714D01*
X133491826Y-103234046D01*
X133438319Y-103166950D01*
X133438318Y-103166949D01*
X133398233Y-103147645D01*
X133360998Y-103129714D01*
X133275178Y-103129714D01*
X133250045Y-103141816D01*
X133197857Y-103166949D01*
X133144350Y-103234046D01*
X133144349Y-103234047D01*
X133125253Y-103317714D01*
X131732853Y-103317714D01*
X132433867Y-102839183D01*
X132436285Y-102837532D01*
X132478883Y-102809350D01*
X132481020Y-102807980D01*
X132481086Y-102807940D01*
X132481201Y-102807864D01*
X132481302Y-102807800D01*
X132481309Y-102807796D01*
X132481313Y-102807793D01*
X132526130Y-102779081D01*
X132526132Y-102779078D01*
X132526440Y-102778882D01*
X132526444Y-102778878D01*
X132542202Y-102768782D01*
X132543327Y-102768134D01*
X132800369Y-102636023D01*
X132801628Y-102635456D01*
X132817990Y-102629045D01*
X132817991Y-102629045D01*
X132864478Y-102610830D01*
X132880952Y-102604374D01*
X132882204Y-102603952D01*
X133118243Y-102536996D01*
X133119567Y-102536691D01*
X133136457Y-102533668D01*
X133184475Y-102525075D01*
X133184476Y-102525075D01*
X133200059Y-102522285D01*
X133201299Y-102522121D01*
X133423237Y-102503023D01*
X133424466Y-102502972D01*
X133440573Y-102503041D01*
G37*
%TD.AperFunction*%
%TD*%
%TA.AperFunction,Conductor*%
%TO.N,VBUS*%
G36*
X137805927Y-101609642D02*
G01*
X137848604Y-101645452D01*
X137956471Y-101684712D01*
X137956472Y-101684712D01*
X138015694Y-101684712D01*
X138088190Y-101710656D01*
X140037939Y-102493198D01*
X140037939Y-102493199D01*
X140022258Y-102531052D01*
X140022358Y-102535744D01*
X140039243Y-102933700D01*
X140039243Y-102933712D01*
X140040669Y-102967324D01*
X140040679Y-102968225D01*
X140030987Y-103407969D01*
X140030932Y-103408934D01*
X140028153Y-103439358D01*
X140028153Y-103439359D01*
X140018927Y-103540316D01*
X140015064Y-103582578D01*
X140014622Y-103590824D01*
X140008069Y-103997525D01*
X140008069Y-103997581D01*
X140008055Y-103999354D01*
X140008055Y-103999367D01*
X140008273Y-104006289D01*
X140010808Y-104046414D01*
X140013974Y-104096537D01*
X140013975Y-104096559D01*
X140014478Y-104104546D01*
X140014592Y-104106135D01*
X140014596Y-104106184D01*
X140020148Y-104177176D01*
X140020290Y-104178829D01*
X140021008Y-104186515D01*
X140253688Y-106677449D01*
X140250527Y-106687686D01*
X140241052Y-106692689D01*
X140239750Y-106692750D01*
X140203707Y-106692750D01*
X140095843Y-106732010D01*
X140007906Y-106805797D01*
X139950514Y-106905205D01*
X139930582Y-107018248D01*
X139930582Y-107018251D01*
X139950514Y-107131294D01*
X140007906Y-107230702D01*
X140007908Y-107230704D01*
X140007909Y-107230705D01*
X140095842Y-107304490D01*
X140203709Y-107343750D01*
X140203710Y-107343750D01*
X140318496Y-107343750D01*
X140318497Y-107343750D01*
X140372600Y-107324058D01*
X140383302Y-107324526D01*
X140390301Y-107331810D01*
X140416769Y-107395064D01*
X140419989Y-107402062D01*
X140435714Y-107433316D01*
X140435716Y-107433319D01*
X140439995Y-107441037D01*
X140514791Y-107564027D01*
X140524825Y-107577950D01*
X140575907Y-107638282D01*
X140620315Y-107690732D01*
X140620322Y-107690740D01*
X140620324Y-107690742D01*
X140625825Y-107696770D01*
X140833703Y-107908268D01*
X140837717Y-107918203D01*
X140833532Y-107928067D01*
X140828025Y-107931403D01*
X140694734Y-107974502D01*
X140691968Y-107975096D01*
X140439000Y-108003115D01*
X140435851Y-108003107D01*
X140343305Y-107992406D01*
X140340670Y-107991841D01*
X140260998Y-107966505D01*
X140258178Y-107965251D01*
X140192491Y-107926871D01*
X140189913Y-107924934D01*
X140129604Y-107867617D01*
X140128532Y-107866477D01*
X139985952Y-107696770D01*
X139790271Y-107463859D01*
X139790261Y-107463849D01*
X139790256Y-107463843D01*
X139778882Y-107452184D01*
X139778880Y-107452182D01*
X139778875Y-107452177D01*
X139706532Y-107388272D01*
X139595747Y-107290409D01*
X139595735Y-107290400D01*
X139595732Y-107290397D01*
X139583924Y-107281312D01*
X139583918Y-107281307D01*
X139583388Y-107280957D01*
X139583388Y-107280956D01*
X139567860Y-107270732D01*
X139567831Y-107270713D01*
X139567032Y-107270192D01*
X139499458Y-107226530D01*
X139499438Y-107226517D01*
X139499438Y-107226516D01*
X139498761Y-107226083D01*
X139491978Y-107221774D01*
X139487215Y-107216698D01*
X139409511Y-107075265D01*
X139408338Y-107064615D01*
X139415040Y-107056254D01*
X139416986Y-107055371D01*
X139419408Y-107054490D01*
X139507341Y-106980705D01*
X139564735Y-106881295D01*
X139584668Y-106768250D01*
X139571344Y-106692689D01*
X139564735Y-106655205D01*
X139507343Y-106555797D01*
X139507341Y-106555795D01*
X139419408Y-106482010D01*
X139332087Y-106450228D01*
X139311542Y-106442750D01*
X139311541Y-106442750D01*
X139196753Y-106442750D01*
X139196751Y-106442750D01*
X139176206Y-106450228D01*
X139165501Y-106449760D01*
X139158262Y-106441860D01*
X139158730Y-106431155D01*
X139162416Y-106426350D01*
X139200144Y-106394693D01*
X139257538Y-106295283D01*
X139277471Y-106182238D01*
X139257538Y-106069193D01*
X139200146Y-105969785D01*
X139200144Y-105969783D01*
X139112211Y-105895998D01*
X139058277Y-105876368D01*
X139004345Y-105856738D01*
X139004344Y-105856738D01*
X138889556Y-105856738D01*
X138889554Y-105856738D01*
X138781689Y-105895998D01*
X138781687Y-105895999D01*
X138781003Y-105896573D01*
X138770782Y-105899789D01*
X138761280Y-105894836D01*
X138759740Y-105892584D01*
X138740046Y-105856738D01*
X138482980Y-105388839D01*
X138481808Y-105378191D01*
X138483122Y-105375110D01*
X138490088Y-105363045D01*
X138510021Y-105250000D01*
X138490088Y-105136955D01*
X138432696Y-105037547D01*
X138422440Y-105028941D01*
X138344761Y-104963760D01*
X138290827Y-104944130D01*
X138236895Y-104924500D01*
X138236894Y-104924500D01*
X138236152Y-104924500D01*
X138226253Y-104920399D01*
X138223882Y-104917241D01*
X137888884Y-104307493D01*
X137880969Y-104295120D01*
X137880968Y-104295119D01*
X137690714Y-104037396D01*
X138016833Y-104037396D01*
X138036679Y-104162700D01*
X138094275Y-104275739D01*
X138183981Y-104365445D01*
X138183983Y-104365446D01*
X138297021Y-104423042D01*
X138422325Y-104442888D01*
X138547629Y-104423042D01*
X138660667Y-104365446D01*
X138750375Y-104275738D01*
X138807971Y-104162700D01*
X138827817Y-104037396D01*
X138807971Y-103912092D01*
X138750375Y-103799054D01*
X138750374Y-103799052D01*
X138660668Y-103709346D01*
X138547629Y-103651750D01*
X138547630Y-103651750D01*
X138422325Y-103631904D01*
X138297020Y-103651750D01*
X138183981Y-103709346D01*
X138094275Y-103799052D01*
X138036679Y-103912091D01*
X138016833Y-104037396D01*
X137690714Y-104037396D01*
X137198932Y-103371214D01*
X137196351Y-103360814D01*
X137201880Y-103351636D01*
X137210195Y-103348899D01*
X137237180Y-103348899D01*
X137237181Y-103348899D01*
X137345048Y-103309639D01*
X137400866Y-103262800D01*
X137411085Y-103259579D01*
X137418863Y-103262800D01*
X137491374Y-103323644D01*
X137599241Y-103362904D01*
X137599242Y-103362904D01*
X137714028Y-103362904D01*
X137714029Y-103362904D01*
X137821896Y-103323644D01*
X137909829Y-103249859D01*
X137967223Y-103150449D01*
X137987156Y-103037404D01*
X137967223Y-102924359D01*
X137953046Y-102899803D01*
X137909831Y-102824951D01*
X137909829Y-102824949D01*
X137821896Y-102751164D01*
X137767962Y-102731534D01*
X137714030Y-102711904D01*
X137714029Y-102711904D01*
X137599241Y-102711904D01*
X137599239Y-102711904D01*
X137491374Y-102751164D01*
X137435555Y-102798001D01*
X137425336Y-102801223D01*
X137417557Y-102798001D01*
X137345048Y-102737159D01*
X137237182Y-102697899D01*
X137237181Y-102697899D01*
X137122393Y-102697899D01*
X137122391Y-102697899D01*
X137014527Y-102737159D01*
X136926590Y-102810946D01*
X136875289Y-102899803D01*
X136866788Y-102906326D01*
X136856165Y-102904927D01*
X136851902Y-102901118D01*
X136850931Y-102899803D01*
X136695977Y-102689897D01*
X136687007Y-102677746D01*
X136685379Y-102675596D01*
X136611103Y-102579977D01*
X136609784Y-102578904D01*
X136573865Y-102549691D01*
X137167141Y-101381040D01*
X137805927Y-101609642D01*
G37*
%TD.AperFunction*%
%TD*%
%TA.AperFunction,Conductor*%
%TO.N,VBUS*%
G36*
X131434892Y-98682104D02*
G01*
X131456880Y-98693644D01*
X131465725Y-98693644D01*
X131470688Y-98694553D01*
X131478961Y-98697691D01*
X131511449Y-98693745D01*
X131513137Y-98693644D01*
X134106869Y-98693644D01*
X134116768Y-98697745D01*
X134120869Y-98707644D01*
X134120869Y-100357500D01*
X134119959Y-100362465D01*
X134116822Y-100370735D01*
X134116822Y-100370736D01*
X134120767Y-100403223D01*
X134120869Y-100404911D01*
X134120869Y-100415063D01*
X134123297Y-100424915D01*
X134123602Y-100426577D01*
X134127548Y-100459066D01*
X134132572Y-100466345D01*
X134134643Y-100470947D01*
X134136760Y-100479536D01*
X134136761Y-100479537D01*
X134158457Y-100504026D01*
X134159497Y-100505354D01*
X134178093Y-100532294D01*
X134185257Y-100536054D01*
X134185926Y-100536405D01*
X134189899Y-100539517D01*
X134195765Y-100546138D01*
X134226367Y-100557744D01*
X134227895Y-100558431D01*
X134256880Y-100573644D01*
X134265725Y-100573644D01*
X134270688Y-100574553D01*
X134278961Y-100577691D01*
X134311449Y-100573745D01*
X134313137Y-100573644D01*
X135115725Y-100573644D01*
X135120688Y-100574553D01*
X135128961Y-100577691D01*
X135161449Y-100573745D01*
X135163137Y-100573644D01*
X135173285Y-100573644D01*
X135173286Y-100573644D01*
X135183162Y-100571208D01*
X135184791Y-100570910D01*
X135217291Y-100566965D01*
X135224572Y-100561938D01*
X135229169Y-100559869D01*
X135237762Y-100557752D01*
X135262265Y-100536042D01*
X135263576Y-100535016D01*
X135290519Y-100516420D01*
X135294632Y-100508582D01*
X135297745Y-100504610D01*
X135304363Y-100498748D01*
X135315971Y-100468138D01*
X135316650Y-100466629D01*
X135331869Y-100437633D01*
X135331869Y-100428787D01*
X135332779Y-100423822D01*
X135335916Y-100415552D01*
X135331971Y-100383063D01*
X135331869Y-100381375D01*
X135331869Y-99532767D01*
X136278096Y-99532767D01*
X136297192Y-99616433D01*
X136297193Y-99616435D01*
X136350700Y-99683531D01*
X136428021Y-99720767D01*
X136428022Y-99720767D01*
X136513840Y-99720767D01*
X136513841Y-99720767D01*
X136591162Y-99683531D01*
X136644669Y-99616435D01*
X136663766Y-99532767D01*
X136644669Y-99449099D01*
X136591162Y-99382003D01*
X136591161Y-99382002D01*
X136551076Y-99362698D01*
X136513841Y-99344767D01*
X136428021Y-99344767D01*
X136402888Y-99356869D01*
X136350700Y-99382002D01*
X136297193Y-99449099D01*
X136297192Y-99449100D01*
X136278096Y-99532767D01*
X135331869Y-99532767D01*
X135331869Y-98707644D01*
X135335970Y-98697745D01*
X135345869Y-98693644D01*
X136711889Y-98693644D01*
X136921948Y-99933648D01*
X136913409Y-99944358D01*
X136913408Y-99944360D01*
X136894312Y-100028027D01*
X136913408Y-100111693D01*
X136913409Y-100111695D01*
X136962549Y-100173315D01*
X137167141Y-101381040D01*
X136573865Y-102549691D01*
X136573863Y-102549692D01*
X136548582Y-102599491D01*
X136540445Y-102606461D01*
X136531628Y-102606420D01*
X136443529Y-102576732D01*
X136392862Y-102559658D01*
X136293974Y-102526334D01*
X136291949Y-102525709D01*
X136276670Y-102521420D01*
X136276669Y-102521420D01*
X136227275Y-102507554D01*
X136227275Y-102507553D01*
X136207144Y-102501903D01*
X136204416Y-102501235D01*
X135903973Y-102438511D01*
X135897559Y-102437691D01*
X135897528Y-102437688D01*
X135775047Y-102431735D01*
X135774127Y-102431704D01*
X135773803Y-102431693D01*
X135773797Y-102431692D01*
X135773771Y-102431692D01*
X135753600Y-102431304D01*
X135704065Y-102430349D01*
X135703995Y-102430347D01*
X135702553Y-102430319D01*
X135702553Y-102430320D01*
X135702231Y-102430314D01*
X135671600Y-102429955D01*
X135671590Y-102429955D01*
X135671280Y-102429953D01*
X135671240Y-102429952D01*
X135669808Y-102429946D01*
X135669759Y-102429946D01*
X135669758Y-102429946D01*
X135669751Y-102429945D01*
X133440921Y-102420542D01*
X133440920Y-102420541D01*
X133424367Y-102420471D01*
X133422346Y-102420463D01*
X133422317Y-102420463D01*
X133422171Y-102420463D01*
X133418625Y-102420615D01*
X133191736Y-102440140D01*
X133188010Y-102440632D01*
X133187970Y-102440638D01*
X133170554Y-102443754D01*
X133170551Y-102443756D01*
X133169943Y-102443865D01*
X133169942Y-102443865D01*
X133158667Y-102445883D01*
X133121924Y-102452459D01*
X133102327Y-102455965D01*
X133098349Y-102456884D01*
X133006494Y-102482940D01*
X132857131Y-102525310D01*
X132857122Y-102525312D01*
X132857115Y-102525315D01*
X132853330Y-102526590D01*
X132834379Y-102534016D01*
X132789115Y-102551750D01*
X132789112Y-102551753D01*
X132787892Y-102552231D01*
X132787891Y-102552231D01*
X132778620Y-102555863D01*
X132768937Y-102559658D01*
X132768922Y-102559664D01*
X132765470Y-102561223D01*
X132765125Y-102561379D01*
X132503300Y-102695949D01*
X132501896Y-102696756D01*
X132499896Y-102697908D01*
X132499885Y-102697915D01*
X132483317Y-102708530D01*
X132483315Y-102708531D01*
X132436643Y-102738431D01*
X132436644Y-102738432D01*
X132436627Y-102738443D01*
X132436570Y-102738479D01*
X132434137Y-102740036D01*
X132433649Y-102740354D01*
X132433650Y-102740355D01*
X132390514Y-102768893D01*
X132390012Y-102769230D01*
X132387354Y-102771045D01*
X131422205Y-103429882D01*
X131416361Y-103434714D01*
X131250761Y-103599490D01*
X131240851Y-103603566D01*
X131230962Y-103599441D01*
X131229246Y-103597344D01*
X131224528Y-103590284D01*
X131139974Y-103533787D01*
X131137532Y-103532155D01*
X131137531Y-103532154D01*
X131137530Y-103532154D01*
X131034915Y-103511743D01*
X130932299Y-103532154D01*
X130845303Y-103590283D01*
X130787174Y-103677279D01*
X130766763Y-103779894D01*
X130766763Y-103779895D01*
X130787174Y-103882510D01*
X130787174Y-103882511D01*
X130787175Y-103882512D01*
X130845303Y-103969507D01*
X130851181Y-103973434D01*
X130857134Y-103982343D01*
X130855044Y-103992853D01*
X130853278Y-103994999D01*
X130151969Y-104692826D01*
X130142059Y-104696902D01*
X130132170Y-104692777D01*
X130130987Y-104691425D01*
X130116375Y-104672383D01*
X130100380Y-104651538D01*
X130025467Y-104594055D01*
X129973270Y-104554002D01*
X129973268Y-104554001D01*
X129825243Y-104492687D01*
X129795501Y-104488771D01*
X129706281Y-104477025D01*
X129706278Y-104477025D01*
X129626508Y-104477025D01*
X129626504Y-104477025D01*
X129531336Y-104489554D01*
X129507543Y-104492687D01*
X129507542Y-104492687D01*
X129359517Y-104554001D01*
X129359515Y-104554002D01*
X129232406Y-104651538D01*
X129134870Y-104778646D01*
X129134869Y-104778648D01*
X129134656Y-104779164D01*
X129073555Y-104926675D01*
X129068326Y-104966387D01*
X129052642Y-105085522D01*
X129052642Y-105085527D01*
X129073555Y-105244373D01*
X129073555Y-105244375D01*
X129134869Y-105392400D01*
X129134870Y-105392402D01*
X129174923Y-105444599D01*
X129232406Y-105519512D01*
X129269818Y-105548219D01*
X129275175Y-105557499D01*
X129272402Y-105567849D01*
X129271170Y-105569250D01*
X129215158Y-105624985D01*
X129214759Y-105625366D01*
X128958799Y-105860742D01*
X128957991Y-105861431D01*
X128678226Y-106081994D01*
X128677416Y-106082587D01*
X128372977Y-106289063D01*
X128372183Y-106289563D01*
X128042309Y-106482338D01*
X128041921Y-106482557D01*
X126772277Y-107171345D01*
X126762486Y-107172688D01*
X126463953Y-107104554D01*
X126463660Y-107104484D01*
X125941092Y-106973326D01*
X125932488Y-106966939D01*
X125930500Y-106959747D01*
X125930500Y-102519790D01*
X127669291Y-102519790D01*
X127721863Y-103811068D01*
X127721861Y-103811097D01*
X127722912Y-103836849D01*
X127722911Y-103836854D01*
X127723177Y-103843402D01*
X127722218Y-103849092D01*
X127721517Y-103850873D01*
X127721517Y-103850875D01*
X127726615Y-103876505D01*
X127726619Y-103876522D01*
X127727484Y-103880871D01*
X127736982Y-103928620D01*
X127736987Y-103928687D01*
X127742087Y-103954291D01*
X127742085Y-103954301D01*
X127743216Y-103959982D01*
X127743216Y-103959983D01*
X127744520Y-103966540D01*
X127744517Y-103972021D01*
X127744182Y-103973692D01*
X127744182Y-103973694D01*
X127753363Y-103997129D01*
X127753387Y-103997195D01*
X127755320Y-104002121D01*
X127755321Y-104002127D01*
X127755322Y-104002127D01*
X127983411Y-104584280D01*
X127983205Y-104594993D01*
X127982017Y-104597165D01*
X127931759Y-104672384D01*
X127911348Y-104774999D01*
X127911348Y-104775000D01*
X127931759Y-104877615D01*
X127931759Y-104877616D01*
X127931760Y-104877617D01*
X127989888Y-104964612D01*
X128076883Y-105022740D01*
X128179500Y-105043152D01*
X128282117Y-105022740D01*
X128369112Y-104964612D01*
X128427240Y-104877617D01*
X128447652Y-104775000D01*
X128427240Y-104672383D01*
X128369112Y-104585388D01*
X128282117Y-104527260D01*
X128282116Y-104527259D01*
X128282115Y-104527259D01*
X128204688Y-104511857D01*
X128195778Y-104505904D01*
X128194384Y-104503233D01*
X128089395Y-104235270D01*
X127978467Y-103952148D01*
X127978457Y-103952103D01*
X127966789Y-103922340D01*
X127966645Y-103921956D01*
X127966106Y-103920453D01*
X127965855Y-103919684D01*
X127965464Y-103918346D01*
X127965264Y-103917578D01*
X127964940Y-103916168D01*
X127964853Y-103915764D01*
X127956009Y-103871302D01*
X127956009Y-103871288D01*
X127951946Y-103850873D01*
X127950342Y-103842814D01*
X127949676Y-103839469D01*
X127949632Y-103839228D01*
X127949380Y-103837766D01*
X127949283Y-103837091D01*
X127949139Y-103835890D01*
X127949070Y-103835152D01*
X127948979Y-103833784D01*
X127948960Y-103833425D01*
X127948111Y-103812561D01*
X127903561Y-102718319D01*
X127907255Y-102708262D01*
X127916979Y-102703763D01*
X127927038Y-102707457D01*
X127929189Y-102709973D01*
X127943810Y-102731854D01*
X127943811Y-102731854D01*
X127943812Y-102731856D01*
X128030807Y-102789984D01*
X128133424Y-102810396D01*
X128236041Y-102789984D01*
X128323036Y-102731856D01*
X128381164Y-102644861D01*
X128401576Y-102542244D01*
X128400988Y-102539290D01*
X128390467Y-102486398D01*
X130831654Y-102486398D01*
X130852065Y-102589013D01*
X130852065Y-102589014D01*
X130852066Y-102589015D01*
X130910194Y-102676010D01*
X130997189Y-102734138D01*
X131099806Y-102754550D01*
X131202423Y-102734138D01*
X131289418Y-102676010D01*
X131347546Y-102589015D01*
X131367958Y-102486398D01*
X131364647Y-102469755D01*
X131354843Y-102420463D01*
X131347546Y-102383781D01*
X131289418Y-102296786D01*
X131202423Y-102238658D01*
X131202422Y-102238657D01*
X131202421Y-102238657D01*
X131099806Y-102218246D01*
X130997190Y-102238657D01*
X130910194Y-102296786D01*
X130852065Y-102383782D01*
X130831654Y-102486397D01*
X130831654Y-102486398D01*
X128390467Y-102486398D01*
X128387157Y-102469755D01*
X128381164Y-102439627D01*
X128323036Y-102352632D01*
X128236041Y-102294504D01*
X128236040Y-102294503D01*
X128236039Y-102294503D01*
X128133424Y-102274092D01*
X128030808Y-102294503D01*
X127966198Y-102337674D01*
X127955689Y-102339764D01*
X127946779Y-102333811D01*
X127944689Y-102323302D01*
X127944804Y-102322775D01*
X127969816Y-102218246D01*
X128084697Y-101738144D01*
X135533217Y-101738144D01*
X135553628Y-101840759D01*
X135553628Y-101840760D01*
X135553629Y-101840761D01*
X135611757Y-101927756D01*
X135698752Y-101985884D01*
X135801369Y-102006296D01*
X135903986Y-101985884D01*
X135990981Y-101927756D01*
X136049109Y-101840761D01*
X136069521Y-101738144D01*
X136049109Y-101635527D01*
X135990981Y-101548532D01*
X135903986Y-101490404D01*
X135903985Y-101490403D01*
X135903984Y-101490403D01*
X135801369Y-101469992D01*
X135698753Y-101490403D01*
X135611757Y-101548532D01*
X135553628Y-101635528D01*
X135533217Y-101738143D01*
X135533217Y-101738144D01*
X128084697Y-101738144D01*
X128130037Y-101548663D01*
X128136328Y-101539992D01*
X128140919Y-101538192D01*
X128180116Y-101530396D01*
X128267111Y-101472268D01*
X128325239Y-101385273D01*
X128345651Y-101282656D01*
X128342110Y-101264852D01*
X130831443Y-101264852D01*
X130851854Y-101367467D01*
X130851854Y-101367468D01*
X130851855Y-101367469D01*
X130909983Y-101454464D01*
X130996978Y-101512592D01*
X131099595Y-101533004D01*
X131202212Y-101512592D01*
X131289207Y-101454464D01*
X131347335Y-101367469D01*
X131367747Y-101264852D01*
X131347335Y-101162235D01*
X131289207Y-101075240D01*
X131202212Y-101017112D01*
X131202211Y-101017111D01*
X131202210Y-101017111D01*
X131099595Y-100996700D01*
X130996979Y-101017111D01*
X130909983Y-101075240D01*
X130851854Y-101162236D01*
X130831443Y-101264851D01*
X130831443Y-101264852D01*
X128342110Y-101264852D01*
X128325239Y-101180039D01*
X128267111Y-101093044D01*
X128180116Y-101034916D01*
X128180115Y-101034915D01*
X128180114Y-101034915D01*
X128077499Y-101014504D01*
X127974883Y-101034915D01*
X127887887Y-101093044D01*
X127829758Y-101180040D01*
X127809347Y-101282655D01*
X127809347Y-101282656D01*
X127829758Y-101385271D01*
X127829758Y-101385272D01*
X127829759Y-101385273D01*
X127887887Y-101472268D01*
X127903964Y-101483010D01*
X127909917Y-101491920D01*
X127909802Y-101497909D01*
X127699542Y-102376610D01*
X127697748Y-102379888D01*
X127698105Y-102380075D01*
X127697173Y-102381856D01*
X127691747Y-102409139D01*
X127691632Y-102409664D01*
X127689086Y-102420306D01*
X127689086Y-102420312D01*
X127689087Y-102420322D01*
X127688835Y-102423760D01*
X127684442Y-102445814D01*
X127684438Y-102445883D01*
X127681718Y-102459555D01*
X127681701Y-102459607D01*
X127676545Y-102485556D01*
X127676531Y-102485578D01*
X127673414Y-102501284D01*
X127673370Y-102501523D01*
X127672307Y-102506868D01*
X127672306Y-102506879D01*
X127672376Y-102507652D01*
X127672336Y-102510536D01*
X127672081Y-102512703D01*
X127670255Y-102518147D01*
X127669292Y-102519789D01*
X127669291Y-102519790D01*
X125930500Y-102519790D01*
X125930500Y-100005525D01*
X128036642Y-100005525D01*
X128050619Y-100111694D01*
X128057555Y-100164373D01*
X128057555Y-100164375D01*
X128118869Y-100312400D01*
X128118870Y-100312402D01*
X128118871Y-100312403D01*
X128216406Y-100439512D01*
X128303462Y-100506313D01*
X128342678Y-100536405D01*
X128343518Y-100537049D01*
X128491543Y-100598363D01*
X128610508Y-100614025D01*
X128690278Y-100614025D01*
X128809243Y-100598363D01*
X128957268Y-100537049D01*
X129084380Y-100439512D01*
X129181917Y-100312401D01*
X129243231Y-100164375D01*
X129264144Y-100005525D01*
X130068642Y-100005525D01*
X130082619Y-100111694D01*
X130089555Y-100164373D01*
X130089555Y-100164375D01*
X130150869Y-100312400D01*
X130150870Y-100312402D01*
X130150871Y-100312403D01*
X130248406Y-100439512D01*
X130335462Y-100506313D01*
X130374678Y-100536405D01*
X130375518Y-100537049D01*
X130523543Y-100598363D01*
X130642508Y-100614025D01*
X130722278Y-100614025D01*
X130841243Y-100598363D01*
X130989268Y-100537049D01*
X131116380Y-100439512D01*
X131213917Y-100312401D01*
X131275231Y-100164375D01*
X131296144Y-100005525D01*
X131275231Y-99846675D01*
X131213917Y-99698650D01*
X131213915Y-99698648D01*
X131213915Y-99698647D01*
X131191291Y-99669164D01*
X131116380Y-99571538D01*
X131041467Y-99514055D01*
X130989270Y-99474002D01*
X130989268Y-99474001D01*
X130841243Y-99412687D01*
X130811501Y-99408771D01*
X130722281Y-99397025D01*
X130722278Y-99397025D01*
X130642508Y-99397025D01*
X130642504Y-99397025D01*
X130547336Y-99409554D01*
X130523543Y-99412687D01*
X130523542Y-99412687D01*
X130375517Y-99474001D01*
X130375515Y-99474002D01*
X130248406Y-99571538D01*
X130150870Y-99698646D01*
X130150869Y-99698648D01*
X130089555Y-99846674D01*
X130089555Y-99846676D01*
X130076695Y-99944360D01*
X130068642Y-100005525D01*
X129264144Y-100005525D01*
X129243231Y-99846675D01*
X129181917Y-99698650D01*
X129181915Y-99698648D01*
X129181915Y-99698647D01*
X129159291Y-99669164D01*
X129084380Y-99571538D01*
X129009467Y-99514055D01*
X128957270Y-99474002D01*
X128957268Y-99474001D01*
X128809243Y-99412687D01*
X128779501Y-99408771D01*
X128690281Y-99397025D01*
X128690278Y-99397025D01*
X128610508Y-99397025D01*
X128610504Y-99397025D01*
X128515336Y-99409554D01*
X128491543Y-99412687D01*
X128491542Y-99412687D01*
X128343517Y-99474001D01*
X128343515Y-99474002D01*
X128216406Y-99571538D01*
X128118870Y-99698646D01*
X128118869Y-99698648D01*
X128057555Y-99846674D01*
X128057555Y-99846676D01*
X128044695Y-99944360D01*
X128036642Y-100005525D01*
X125930500Y-100005525D01*
X125930500Y-98694500D01*
X125934601Y-98684601D01*
X125944500Y-98680500D01*
X131428386Y-98680500D01*
X131434892Y-98682104D01*
G37*
%TD.AperFunction*%
%TD*%
%TA.AperFunction,Conductor*%
%TO.N,VBUS*%
G36*
X138866768Y-98697745D02*
G01*
X138870869Y-98707644D01*
X138870869Y-100357500D01*
X138869959Y-100362465D01*
X138866822Y-100370735D01*
X138866822Y-100370736D01*
X138870767Y-100403223D01*
X138870869Y-100404911D01*
X138870869Y-100415063D01*
X138873297Y-100424915D01*
X138873602Y-100426577D01*
X138877548Y-100459066D01*
X138882572Y-100466345D01*
X138884643Y-100470947D01*
X138886760Y-100479536D01*
X138886761Y-100479537D01*
X138908457Y-100504026D01*
X138909497Y-100505354D01*
X138928093Y-100532294D01*
X138935257Y-100536054D01*
X138935926Y-100536405D01*
X138939899Y-100539517D01*
X138945765Y-100546138D01*
X138976367Y-100557744D01*
X138977895Y-100558431D01*
X139006880Y-100573644D01*
X139015725Y-100573644D01*
X139020688Y-100574553D01*
X139028961Y-100577691D01*
X139061449Y-100573745D01*
X139063137Y-100573644D01*
X139865725Y-100573644D01*
X139870688Y-100574553D01*
X139878961Y-100577691D01*
X139911449Y-100573745D01*
X139913137Y-100573644D01*
X139923285Y-100573644D01*
X139923286Y-100573644D01*
X139933162Y-100571208D01*
X139934791Y-100570910D01*
X139967291Y-100566965D01*
X139974572Y-100561938D01*
X139979169Y-100559869D01*
X139987762Y-100557752D01*
X140012265Y-100536042D01*
X140013576Y-100535016D01*
X140040519Y-100516420D01*
X140044632Y-100508582D01*
X140047745Y-100504610D01*
X140054363Y-100498748D01*
X140065971Y-100468138D01*
X140066650Y-100466629D01*
X140081869Y-100437633D01*
X140081869Y-100428787D01*
X140082779Y-100423822D01*
X140085916Y-100415552D01*
X140081971Y-100383063D01*
X140081869Y-100381375D01*
X140081869Y-98707644D01*
X140085970Y-98697745D01*
X140095869Y-98693644D01*
X140967009Y-98693644D01*
X141343371Y-100393562D01*
X141455667Y-101471104D01*
X141455667Y-101471105D01*
X141454182Y-101474034D01*
X141446046Y-101481007D01*
X141445350Y-101481215D01*
X141432267Y-101484751D01*
X141426572Y-101488522D01*
X140162784Y-102433321D01*
X140096333Y-102482999D01*
X140088076Y-102499482D01*
X140079976Y-102506496D01*
X140070345Y-102506204D01*
X140037940Y-102493198D01*
X140037939Y-102493198D01*
X138088190Y-101710656D01*
X137167141Y-101381040D01*
X137163443Y-101359212D01*
X137821030Y-101359212D01*
X137840126Y-101442878D01*
X137840127Y-101442880D01*
X137893634Y-101509976D01*
X137970955Y-101547212D01*
X137970956Y-101547212D01*
X138056774Y-101547212D01*
X138056775Y-101547212D01*
X138134096Y-101509976D01*
X138187603Y-101442880D01*
X138206700Y-101359212D01*
X138187603Y-101275544D01*
X138134096Y-101208448D01*
X138134095Y-101208447D01*
X138094010Y-101189143D01*
X138056775Y-101171212D01*
X137970955Y-101171212D01*
X137945822Y-101183314D01*
X137893634Y-101208447D01*
X137840127Y-101275544D01*
X137840126Y-101275545D01*
X137821030Y-101359212D01*
X137163443Y-101359212D01*
X136962549Y-100173316D01*
X136966914Y-100178789D01*
X136966916Y-100178791D01*
X137044237Y-100216027D01*
X137044238Y-100216027D01*
X137130056Y-100216027D01*
X137130057Y-100216027D01*
X137207378Y-100178791D01*
X137260885Y-100111695D01*
X137279982Y-100028027D01*
X137260885Y-99944359D01*
X137207378Y-99877263D01*
X137207377Y-99877262D01*
X137167292Y-99857958D01*
X137130057Y-99840027D01*
X137044237Y-99840027D01*
X137019104Y-99852129D01*
X136966916Y-99877262D01*
X136921949Y-99933649D01*
X136711889Y-98693644D01*
X138856869Y-98693644D01*
X138866768Y-98697745D01*
G37*
%TD.AperFunction*%
%TD*%
%TA.AperFunction,Conductor*%
%TO.N,VBUS*%
G36*
X144714616Y-98684601D02*
G01*
X144718717Y-98694500D01*
X144716358Y-98702275D01*
X144682898Y-98752352D01*
X144671188Y-98769878D01*
X144650777Y-98872493D01*
X144650777Y-98872494D01*
X144671188Y-98975109D01*
X144671188Y-98975110D01*
X144671189Y-98975111D01*
X144729317Y-99062106D01*
X144816312Y-99120234D01*
X144918929Y-99140646D01*
X145021546Y-99120234D01*
X145108541Y-99062106D01*
X145166669Y-98975111D01*
X145187081Y-98872494D01*
X145166669Y-98769877D01*
X145121499Y-98702275D01*
X145119410Y-98691769D01*
X145125363Y-98682859D01*
X145133141Y-98680500D01*
X153055500Y-98680500D01*
X153065399Y-98684601D01*
X153069500Y-98694500D01*
X153069500Y-103948468D01*
X153065399Y-103958367D01*
X153062231Y-103960744D01*
X148320358Y-106560766D01*
X148313543Y-106562490D01*
X148198785Y-106561804D01*
X148198775Y-106561800D01*
X148198766Y-106561803D01*
X148197994Y-106561798D01*
X148181596Y-106561677D01*
X148181005Y-106561660D01*
X147647454Y-106535150D01*
X147646324Y-106535048D01*
X147114510Y-106465114D01*
X147113413Y-106464925D01*
X146581781Y-106351453D01*
X146580736Y-106351187D01*
X146047932Y-106193740D01*
X146047433Y-106193583D01*
X145714803Y-106081625D01*
X145486372Y-106004738D01*
X145486369Y-106004737D01*
X145486365Y-106004736D01*
X145486363Y-106004735D01*
X145486353Y-106004731D01*
X145486245Y-106004695D01*
X145486097Y-106004645D01*
X145486080Y-106004630D01*
X145486078Y-106004638D01*
X145465838Y-105997825D01*
X145464353Y-105997346D01*
X145102283Y-105885547D01*
X145094033Y-105878708D01*
X145093507Y-105877596D01*
X144898126Y-105411938D01*
X144897355Y-105409493D01*
X144862859Y-105250000D01*
X147227665Y-105250000D01*
X147246761Y-105333666D01*
X147246762Y-105333668D01*
X147300269Y-105400764D01*
X147377590Y-105438000D01*
X147377591Y-105438000D01*
X147463409Y-105438000D01*
X147463410Y-105438000D01*
X147540731Y-105400764D01*
X147594238Y-105333668D01*
X147613335Y-105250000D01*
X147986665Y-105250000D01*
X148005761Y-105333666D01*
X148005762Y-105333668D01*
X148059269Y-105400764D01*
X148136590Y-105438000D01*
X148136591Y-105438000D01*
X148222409Y-105438000D01*
X148222410Y-105438000D01*
X148299731Y-105400764D01*
X148353238Y-105333668D01*
X148372335Y-105250000D01*
X148353238Y-105166332D01*
X148299731Y-105099236D01*
X148299730Y-105099235D01*
X148257650Y-105078971D01*
X148222410Y-105062000D01*
X148136590Y-105062000D01*
X148111457Y-105074102D01*
X148059269Y-105099235D01*
X148005762Y-105166332D01*
X148005761Y-105166333D01*
X147986665Y-105250000D01*
X147613335Y-105250000D01*
X147594238Y-105166332D01*
X147540731Y-105099236D01*
X147540730Y-105099235D01*
X147498650Y-105078971D01*
X147463410Y-105062000D01*
X147377590Y-105062000D01*
X147352457Y-105074102D01*
X147300269Y-105099235D01*
X147246762Y-105166332D01*
X147246761Y-105166333D01*
X147227665Y-105250000D01*
X144862859Y-105250000D01*
X144549300Y-103800248D01*
X146367759Y-103800248D01*
X146386855Y-103883914D01*
X146386856Y-103883916D01*
X146440363Y-103951012D01*
X146517684Y-103988248D01*
X146517685Y-103988248D01*
X146603503Y-103988248D01*
X146603504Y-103988248D01*
X146680825Y-103951012D01*
X146734332Y-103883916D01*
X146753429Y-103800248D01*
X146750908Y-103789201D01*
X148005187Y-103789201D01*
X148024283Y-103872867D01*
X148024284Y-103872869D01*
X148077791Y-103939965D01*
X148155112Y-103977201D01*
X148155113Y-103977201D01*
X148240931Y-103977201D01*
X148240932Y-103977201D01*
X148318253Y-103939965D01*
X148371760Y-103872869D01*
X148390857Y-103789201D01*
X148371760Y-103705533D01*
X148318253Y-103638437D01*
X148318252Y-103638436D01*
X148263871Y-103612248D01*
X148240932Y-103601201D01*
X148155112Y-103601201D01*
X148132173Y-103612248D01*
X148077791Y-103638436D01*
X148024284Y-103705533D01*
X148024283Y-103705534D01*
X148005187Y-103789201D01*
X146750908Y-103789201D01*
X146734332Y-103716580D01*
X146680825Y-103649484D01*
X146680824Y-103649483D01*
X146634745Y-103627293D01*
X146603504Y-103612248D01*
X146517684Y-103612248D01*
X146493688Y-103623804D01*
X146440363Y-103649483D01*
X146386856Y-103716580D01*
X146386855Y-103716581D01*
X146367759Y-103800248D01*
X144549300Y-103800248D01*
X144288212Y-102593098D01*
X145201079Y-102593098D01*
X145220175Y-102676764D01*
X145220176Y-102676766D01*
X145273683Y-102743862D01*
X145351004Y-102781098D01*
X145351005Y-102781098D01*
X145436823Y-102781098D01*
X145436824Y-102781098D01*
X145514145Y-102743862D01*
X145567652Y-102676766D01*
X145586749Y-102593098D01*
X145567652Y-102509430D01*
X145514145Y-102442334D01*
X145514144Y-102442333D01*
X145474059Y-102423029D01*
X145436824Y-102405098D01*
X145351004Y-102405098D01*
X145325871Y-102417200D01*
X145273683Y-102442333D01*
X145220176Y-102509430D01*
X145220175Y-102509431D01*
X145201079Y-102593098D01*
X144288212Y-102593098D01*
X144193070Y-102153205D01*
X144192417Y-102150494D01*
X144185691Y-102125158D01*
X144104483Y-101819245D01*
X144104482Y-101819243D01*
X144104475Y-101819215D01*
X144102559Y-101813265D01*
X143989368Y-101515894D01*
X143989365Y-101515890D01*
X143989364Y-101515887D01*
X143975624Y-101494716D01*
X143963155Y-101489568D01*
X143955570Y-101482000D01*
X143955397Y-101476973D01*
X143954661Y-101473848D01*
X144251784Y-100592371D01*
X145201079Y-100592371D01*
X145220175Y-100676037D01*
X145220176Y-100676039D01*
X145273683Y-100743135D01*
X145351004Y-100780371D01*
X145351005Y-100780371D01*
X145436823Y-100780371D01*
X145436824Y-100780371D01*
X145514145Y-100743135D01*
X145567652Y-100676039D01*
X145586749Y-100592371D01*
X145567652Y-100508703D01*
X145514145Y-100441607D01*
X145514144Y-100441606D01*
X145474059Y-100422302D01*
X145436824Y-100404371D01*
X145351004Y-100404371D01*
X145325871Y-100416473D01*
X145273683Y-100441606D01*
X145220176Y-100508703D01*
X145220175Y-100508704D01*
X145201079Y-100592371D01*
X144251784Y-100592371D01*
X144308598Y-100423819D01*
X144313522Y-99941266D01*
X145084528Y-99941266D01*
X145103624Y-100024932D01*
X145103625Y-100024934D01*
X145157132Y-100092030D01*
X145234453Y-100129266D01*
X145234454Y-100129266D01*
X145320272Y-100129266D01*
X145320273Y-100129266D01*
X145397594Y-100092030D01*
X145451101Y-100024934D01*
X145470198Y-99941266D01*
X145451101Y-99857598D01*
X145397594Y-99790502D01*
X145397593Y-99790501D01*
X145353823Y-99769423D01*
X145320273Y-99753266D01*
X145234453Y-99753266D01*
X145209320Y-99765368D01*
X145157132Y-99790501D01*
X145103625Y-99857598D01*
X145103624Y-99857599D01*
X145084528Y-99941266D01*
X144313522Y-99941266D01*
X144318335Y-99469575D01*
X145732263Y-99469575D01*
X145751359Y-99553241D01*
X145751360Y-99553243D01*
X145781470Y-99591001D01*
X145782161Y-99591947D01*
X145783300Y-99593650D01*
X145784843Y-99595857D01*
X147096350Y-101390951D01*
X147165418Y-101485486D01*
X147167762Y-101490625D01*
X147168188Y-101492492D01*
X147172839Y-101498324D01*
X147186847Y-101515890D01*
X147196029Y-101527403D01*
X147196373Y-101527854D01*
X147198039Y-101530134D01*
X147201667Y-101535102D01*
X147201669Y-101535103D01*
X147201672Y-101535107D01*
X147202538Y-101535937D01*
X147203120Y-101536495D01*
X147204376Y-101537872D01*
X147221694Y-101559587D01*
X147221696Y-101559589D01*
X147255104Y-101575677D01*
X147256796Y-101576644D01*
X147258404Y-101577718D01*
X147258405Y-101577719D01*
X147264761Y-101580351D01*
X147265470Y-101580669D01*
X147299017Y-101596825D01*
X147384837Y-101596825D01*
X147418423Y-101580649D01*
X147419094Y-101580349D01*
X147425449Y-101577718D01*
X147427046Y-101576649D01*
X147428741Y-101575680D01*
X147462158Y-101559589D01*
X147481846Y-101534899D01*
X147482885Y-101533737D01*
X147483724Y-101532899D01*
X147484854Y-101531205D01*
X147485550Y-101530254D01*
X147487649Y-101527623D01*
X147515665Y-101492493D01*
X147528278Y-101437231D01*
X147534479Y-101428493D01*
X147545042Y-101426698D01*
X147553781Y-101432899D01*
X147555576Y-101437232D01*
X147568188Y-101492491D01*
X147568189Y-101492493D01*
X147621694Y-101559587D01*
X147621696Y-101559589D01*
X147697742Y-101596211D01*
X147704882Y-101604201D01*
X147704282Y-101614899D01*
X147697742Y-101621439D01*
X147621696Y-101658060D01*
X147568189Y-101725157D01*
X147568188Y-101725158D01*
X147549092Y-101808825D01*
X147568188Y-101892491D01*
X147568189Y-101892493D01*
X147621696Y-101959589D01*
X147699017Y-101996825D01*
X147699018Y-101996825D01*
X147784836Y-101996825D01*
X147784837Y-101996825D01*
X147862158Y-101959589D01*
X147915665Y-101892493D01*
X147934762Y-101808825D01*
X147915665Y-101725157D01*
X147862158Y-101658061D01*
X147862157Y-101658060D01*
X147822317Y-101638874D01*
X147786110Y-101621438D01*
X147778971Y-101613449D01*
X147779571Y-101602751D01*
X147786110Y-101596211D01*
X147862158Y-101559589D01*
X147915665Y-101492493D01*
X147934762Y-101408825D01*
X147915665Y-101325157D01*
X147862158Y-101258061D01*
X147862157Y-101258060D01*
X147822072Y-101238756D01*
X147784837Y-101220825D01*
X147699017Y-101220825D01*
X147673884Y-101232927D01*
X147621696Y-101258060D01*
X147568189Y-101325157D01*
X147568188Y-101325158D01*
X147555576Y-101380417D01*
X147549375Y-101389156D01*
X147538812Y-101390951D01*
X147530073Y-101384750D01*
X147528278Y-101380417D01*
X147515665Y-101325159D01*
X147515665Y-101325158D01*
X147515665Y-101325157D01*
X147485542Y-101287383D01*
X147484853Y-101286439D01*
X147483728Y-101284755D01*
X147480617Y-101280491D01*
X147461531Y-101256460D01*
X146713894Y-100315112D01*
X146710949Y-100304811D01*
X146716151Y-100295443D01*
X146726453Y-100292497D01*
X146733224Y-100295181D01*
X148347059Y-101497966D01*
X148352546Y-101507169D01*
X148352693Y-101509191D01*
X148352693Y-101791470D01*
X148352342Y-101794585D01*
X148349092Y-101808825D01*
X148351470Y-101819243D01*
X148368534Y-101894008D01*
X148368716Y-101894545D01*
X148701917Y-103495312D01*
X148701861Y-103501276D01*
X148701608Y-103502386D01*
X148701608Y-103502387D01*
X148720704Y-103586053D01*
X148720705Y-103586055D01*
X148750826Y-103623827D01*
X148751518Y-103624775D01*
X148752642Y-103626457D01*
X148752646Y-103626461D01*
X148752647Y-103626462D01*
X148753478Y-103627293D01*
X148754519Y-103628457D01*
X148774212Y-103653151D01*
X148807033Y-103668956D01*
X148808606Y-103670322D01*
X148810921Y-103671280D01*
X148810921Y-103671281D01*
X148815993Y-103673381D01*
X148817265Y-103673908D01*
X148817984Y-103674230D01*
X148851533Y-103690387D01*
X148937353Y-103690387D01*
X148970921Y-103674220D01*
X148971605Y-103673914D01*
X148977966Y-103671280D01*
X148979571Y-103670206D01*
X148981259Y-103669242D01*
X149014674Y-103653151D01*
X149034359Y-103628465D01*
X149035408Y-103627293D01*
X149035416Y-103627285D01*
X149036241Y-103626461D01*
X149037384Y-103624747D01*
X149038068Y-103623813D01*
X149068181Y-103586055D01*
X149069664Y-103579559D01*
X149551442Y-103579559D01*
X149570538Y-103663225D01*
X149570539Y-103663227D01*
X149624046Y-103730323D01*
X149701367Y-103767559D01*
X149701368Y-103767559D01*
X149787186Y-103767559D01*
X149787187Y-103767559D01*
X149864508Y-103730323D01*
X149918015Y-103663227D01*
X149937112Y-103579559D01*
X149918015Y-103495891D01*
X149864508Y-103428795D01*
X149864507Y-103428794D01*
X149824422Y-103409490D01*
X149787187Y-103391559D01*
X149701367Y-103391559D01*
X149676234Y-103403661D01*
X149624046Y-103428794D01*
X149570539Y-103495891D01*
X149570538Y-103495892D01*
X149551442Y-103579559D01*
X149069664Y-103579559D01*
X149087278Y-103502387D01*
X149068181Y-103418719D01*
X149067835Y-103417203D01*
X149067653Y-103416670D01*
X148980911Y-102999943D01*
X150915930Y-102999943D01*
X150935026Y-103083609D01*
X150935027Y-103083611D01*
X150988534Y-103150707D01*
X151065855Y-103187943D01*
X151065856Y-103187943D01*
X151151674Y-103187943D01*
X151151675Y-103187943D01*
X151228996Y-103150707D01*
X151282503Y-103083611D01*
X151301600Y-102999943D01*
X151282503Y-102916275D01*
X151228996Y-102849179D01*
X151228995Y-102849178D01*
X151188910Y-102829874D01*
X151151675Y-102811943D01*
X151065855Y-102811943D01*
X151040722Y-102824045D01*
X150988534Y-102849178D01*
X150935027Y-102916275D01*
X150935026Y-102916276D01*
X150915930Y-102999943D01*
X148980911Y-102999943D01*
X148816239Y-102208825D01*
X149149092Y-102208825D01*
X149168188Y-102292491D01*
X149168189Y-102292493D01*
X149221696Y-102359589D01*
X149299017Y-102396825D01*
X149299018Y-102396825D01*
X149384836Y-102396825D01*
X149384837Y-102396825D01*
X149462158Y-102359589D01*
X149515665Y-102292493D01*
X149534762Y-102208825D01*
X149515665Y-102125157D01*
X149462158Y-102058061D01*
X149462157Y-102058060D01*
X149418348Y-102036963D01*
X149386110Y-102021438D01*
X149378971Y-102013449D01*
X149379571Y-102002751D01*
X149386110Y-101996211D01*
X149462158Y-101959589D01*
X149482287Y-101934348D01*
X152392553Y-101934348D01*
X152412964Y-102036963D01*
X152412964Y-102036964D01*
X152412965Y-102036965D01*
X152471093Y-102123960D01*
X152558088Y-102182088D01*
X152660705Y-102202500D01*
X152763322Y-102182088D01*
X152850317Y-102123960D01*
X152908445Y-102036965D01*
X152928857Y-101934348D01*
X152908445Y-101831731D01*
X152850317Y-101744736D01*
X152763322Y-101686608D01*
X152763321Y-101686607D01*
X152763320Y-101686607D01*
X152660705Y-101666196D01*
X152558089Y-101686607D01*
X152471093Y-101744736D01*
X152412964Y-101831732D01*
X152392553Y-101934347D01*
X152392553Y-101934348D01*
X149482287Y-101934348D01*
X149515665Y-101892493D01*
X149534762Y-101808825D01*
X149515665Y-101725157D01*
X149462158Y-101658061D01*
X149462157Y-101658060D01*
X149422317Y-101638874D01*
X149386110Y-101621438D01*
X149378971Y-101613449D01*
X149379571Y-101602751D01*
X149386110Y-101596211D01*
X149462158Y-101559589D01*
X149515665Y-101492493D01*
X149534762Y-101408825D01*
X149515665Y-101325157D01*
X149467390Y-101264622D01*
X150839874Y-101264622D01*
X150860285Y-101367237D01*
X150860285Y-101367238D01*
X150860286Y-101367239D01*
X150918414Y-101454234D01*
X151005409Y-101512362D01*
X151108026Y-101532774D01*
X151210643Y-101512362D01*
X151297638Y-101454234D01*
X151355766Y-101367239D01*
X151376178Y-101264622D01*
X151374554Y-101256460D01*
X151465029Y-101256460D01*
X151485440Y-101359075D01*
X151485440Y-101359076D01*
X151485441Y-101359077D01*
X151543569Y-101446072D01*
X151630564Y-101504200D01*
X151733181Y-101524612D01*
X151835798Y-101504200D01*
X151922793Y-101446072D01*
X151980921Y-101359077D01*
X152001333Y-101256460D01*
X151992777Y-101213449D01*
X151990938Y-101204201D01*
X151980921Y-101153843D01*
X151922793Y-101066848D01*
X151835798Y-101008720D01*
X151835797Y-101008719D01*
X151835796Y-101008719D01*
X151733181Y-100988308D01*
X151630565Y-101008719D01*
X151543569Y-101066848D01*
X151485440Y-101153844D01*
X151465029Y-101256459D01*
X151465029Y-101256460D01*
X151374554Y-101256460D01*
X151355766Y-101162006D01*
X151355766Y-101162005D01*
X151297638Y-101075010D01*
X151210643Y-101016882D01*
X151210642Y-101016881D01*
X151210641Y-101016881D01*
X151108026Y-100996470D01*
X151005410Y-101016881D01*
X150918414Y-101075010D01*
X150860285Y-101162006D01*
X150839874Y-101264621D01*
X150839874Y-101264622D01*
X149467390Y-101264622D01*
X149462158Y-101258061D01*
X149462157Y-101258060D01*
X149422317Y-101238874D01*
X149386110Y-101221438D01*
X149378971Y-101213449D01*
X149379571Y-101202751D01*
X149386110Y-101196211D01*
X149462158Y-101159589D01*
X149515665Y-101092493D01*
X149534762Y-101008825D01*
X149515665Y-100925157D01*
X149462158Y-100858061D01*
X149462157Y-100858060D01*
X149422072Y-100838756D01*
X149384837Y-100820825D01*
X149299017Y-100820825D01*
X149273884Y-100832927D01*
X149221696Y-100858060D01*
X149168189Y-100925157D01*
X149168188Y-100925158D01*
X149149092Y-101008825D01*
X149168188Y-101092491D01*
X149168189Y-101092493D01*
X149193281Y-101123957D01*
X149221696Y-101159589D01*
X149297742Y-101196211D01*
X149304882Y-101204201D01*
X149304282Y-101214899D01*
X149297742Y-101221439D01*
X149221696Y-101258060D01*
X149168189Y-101325157D01*
X149168188Y-101325158D01*
X149149092Y-101408825D01*
X149168188Y-101492491D01*
X149168189Y-101492493D01*
X149221694Y-101559587D01*
X149221696Y-101559589D01*
X149297742Y-101596211D01*
X149304882Y-101604201D01*
X149304282Y-101614899D01*
X149297742Y-101621439D01*
X149221696Y-101658060D01*
X149168189Y-101725157D01*
X149168188Y-101725158D01*
X149149092Y-101808825D01*
X149168188Y-101892491D01*
X149168189Y-101892493D01*
X149201567Y-101934348D01*
X149221696Y-101959589D01*
X149297742Y-101996211D01*
X149304882Y-102004201D01*
X149304282Y-102014899D01*
X149297742Y-102021439D01*
X149221696Y-102058060D01*
X149168189Y-102125157D01*
X149168188Y-102125158D01*
X149149092Y-102208825D01*
X148816239Y-102208825D01*
X148734451Y-101815897D01*
X148734509Y-101809928D01*
X148734762Y-101808825D01*
X148731512Y-101794585D01*
X148731161Y-101791470D01*
X148731161Y-101426178D01*
X148731512Y-101423063D01*
X148734762Y-101408825D01*
X148730514Y-101390217D01*
X148730182Y-101387811D01*
X148730028Y-101384750D01*
X148678704Y-100366194D01*
X150915191Y-100366194D01*
X150934287Y-100449860D01*
X150934288Y-100449862D01*
X150987795Y-100516958D01*
X151065116Y-100554194D01*
X151065117Y-100554194D01*
X151150935Y-100554194D01*
X151150936Y-100554194D01*
X151228257Y-100516958D01*
X151281764Y-100449862D01*
X151300861Y-100366194D01*
X151281764Y-100282526D01*
X151228257Y-100215430D01*
X151228256Y-100215429D01*
X151188171Y-100196125D01*
X151150936Y-100178194D01*
X151065116Y-100178194D01*
X151039983Y-100190296D01*
X150987795Y-100215429D01*
X150934288Y-100282526D01*
X150934287Y-100282527D01*
X150915191Y-100366194D01*
X148678704Y-100366194D01*
X148642903Y-99655718D01*
X148643235Y-99651904D01*
X148645689Y-99641158D01*
X149078985Y-99641158D01*
X149098081Y-99724824D01*
X149098082Y-99724826D01*
X149151589Y-99791922D01*
X149228910Y-99829158D01*
X149228911Y-99829158D01*
X149314729Y-99829158D01*
X149314730Y-99829158D01*
X149392051Y-99791922D01*
X149445558Y-99724826D01*
X149464655Y-99641158D01*
X149445558Y-99557490D01*
X149392051Y-99490394D01*
X149392050Y-99490393D01*
X149337715Y-99464227D01*
X149314730Y-99453158D01*
X149228910Y-99453158D01*
X149205925Y-99464227D01*
X149151589Y-99490393D01*
X149098082Y-99557490D01*
X149098081Y-99557491D01*
X149078985Y-99641158D01*
X148645689Y-99641158D01*
X148626592Y-99557490D01*
X148596462Y-99519708D01*
X148595787Y-99518784D01*
X148594650Y-99517083D01*
X148593815Y-99516248D01*
X148592774Y-99515084D01*
X148573085Y-99490394D01*
X148573083Y-99490393D01*
X148573082Y-99490392D01*
X148539667Y-99474299D01*
X148537966Y-99473328D01*
X148536375Y-99472265D01*
X148536373Y-99472264D01*
X148530058Y-99469648D01*
X148529342Y-99469328D01*
X148513879Y-99461882D01*
X148495764Y-99453158D01*
X148409944Y-99453158D01*
X148398218Y-99458804D01*
X148376364Y-99469328D01*
X148375649Y-99469648D01*
X148369331Y-99472265D01*
X148367730Y-99473335D01*
X148366032Y-99474304D01*
X148332625Y-99490392D01*
X148332621Y-99490395D01*
X148312936Y-99515078D01*
X148311902Y-99516237D01*
X148311061Y-99517079D01*
X148311051Y-99517091D01*
X148309927Y-99518772D01*
X148309238Y-99519714D01*
X148279116Y-99557489D01*
X148279115Y-99557491D01*
X148260019Y-99641158D01*
X148264263Y-99659753D01*
X148264596Y-99662163D01*
X148331454Y-100989000D01*
X148327857Y-100999094D01*
X148318177Y-101003687D01*
X148309106Y-101000930D01*
X146706306Y-99806368D01*
X146703727Y-99803873D01*
X146693063Y-99790502D01*
X146660241Y-99774696D01*
X146658670Y-99773331D01*
X146650008Y-99769743D01*
X146649292Y-99769423D01*
X146644758Y-99767239D01*
X146615742Y-99753266D01*
X146529922Y-99753266D01*
X146513343Y-99761249D01*
X146496365Y-99769425D01*
X146495652Y-99769744D01*
X146489309Y-99772372D01*
X146487698Y-99773448D01*
X146486003Y-99774415D01*
X146452603Y-99790500D01*
X146452599Y-99790503D01*
X146432914Y-99815186D01*
X146431880Y-99816345D01*
X146431039Y-99817187D01*
X146431029Y-99817199D01*
X146429905Y-99818880D01*
X146429216Y-99819822D01*
X146400974Y-99855240D01*
X146391596Y-99860424D01*
X146381300Y-99857458D01*
X146378062Y-99853779D01*
X146173621Y-99517083D01*
X146141527Y-99464227D01*
X147161452Y-99464227D01*
X147180548Y-99547893D01*
X147180549Y-99547895D01*
X147234056Y-99614991D01*
X147311377Y-99652227D01*
X147311378Y-99652227D01*
X147397196Y-99652227D01*
X147397197Y-99652227D01*
X147474518Y-99614991D01*
X147528025Y-99547895D01*
X147547122Y-99464227D01*
X147528025Y-99380559D01*
X147474518Y-99313463D01*
X147474517Y-99313462D01*
X147434432Y-99294158D01*
X147397197Y-99276227D01*
X147311377Y-99276227D01*
X147300272Y-99281575D01*
X147234056Y-99313462D01*
X147180549Y-99380559D01*
X147180548Y-99380560D01*
X147161452Y-99464227D01*
X146141527Y-99464227D01*
X146102942Y-99400680D01*
X146101260Y-99396529D01*
X146098836Y-99385907D01*
X146068715Y-99348137D01*
X146068019Y-99347183D01*
X146066897Y-99345504D01*
X146066895Y-99345501D01*
X146066059Y-99344665D01*
X146065018Y-99343501D01*
X146045329Y-99318811D01*
X146045327Y-99318810D01*
X146045326Y-99318809D01*
X146011920Y-99302721D01*
X146010223Y-99301753D01*
X146009772Y-99301452D01*
X146009765Y-99301446D01*
X146009765Y-99301447D01*
X146009763Y-99301446D01*
X146008620Y-99300682D01*
X146008619Y-99300681D01*
X146002273Y-99298052D01*
X146001576Y-99297741D01*
X145968008Y-99281575D01*
X145882188Y-99281575D01*
X145848630Y-99297734D01*
X145847917Y-99298053D01*
X145841575Y-99300681D01*
X145839964Y-99301757D01*
X145838269Y-99302724D01*
X145804869Y-99318809D01*
X145804865Y-99318812D01*
X145785184Y-99343490D01*
X145784150Y-99344649D01*
X145783302Y-99345498D01*
X145783296Y-99345505D01*
X145782166Y-99347197D01*
X145781473Y-99348146D01*
X145751360Y-99385907D01*
X145751359Y-99385908D01*
X145732263Y-99469575D01*
X144318335Y-99469575D01*
X144326387Y-98680500D01*
X144704717Y-98680500D01*
X144714616Y-98684601D01*
G37*
%TD.AperFunction*%
%TD*%
%TA.AperFunction,Conductor*%
%TO.N,VBUS*%
G36*
X144308598Y-100423819D02*
G01*
X143954661Y-101473848D01*
X143761617Y-101281674D01*
X143759046Y-101279404D01*
X143756259Y-101276941D01*
X143756249Y-101276933D01*
X143541780Y-101109204D01*
X143534512Y-101104330D01*
X143534508Y-101104327D01*
X143534504Y-101104325D01*
X143534494Y-101104319D01*
X143319583Y-100981916D01*
X143310112Y-100977564D01*
X143310109Y-100977562D01*
X143310107Y-100977562D01*
X143257672Y-100958793D01*
X143094726Y-100900466D01*
X143094716Y-100900463D01*
X143094715Y-100900462D01*
X143094713Y-100900462D01*
X143090891Y-100899506D01*
X143083240Y-100897593D01*
X143083235Y-100897592D01*
X143083234Y-100897592D01*
X142867377Y-100865805D01*
X142858636Y-100865165D01*
X142858631Y-100865165D01*
X142858629Y-100865165D01*
X142858622Y-100865165D01*
X142854904Y-100865281D01*
X142638572Y-100878809D01*
X142626597Y-100880788D01*
X142626596Y-100880788D01*
X142409825Y-100939628D01*
X142409820Y-100939630D01*
X142399599Y-100943430D01*
X142182349Y-101047591D01*
X142178066Y-101049861D01*
X141455667Y-101471104D01*
X141343371Y-100393562D01*
X140967009Y-98693644D01*
X142665725Y-98693644D01*
X142670688Y-98694553D01*
X142678961Y-98697691D01*
X142711449Y-98693745D01*
X142713137Y-98693644D01*
X142723285Y-98693644D01*
X142723286Y-98693644D01*
X142733162Y-98691208D01*
X142734791Y-98690910D01*
X142767291Y-98686965D01*
X142770116Y-98685014D01*
X142773068Y-98682978D01*
X142781020Y-98680500D01*
X144326387Y-98680500D01*
X144308598Y-100423819D01*
G37*
%TD.AperFunction*%
%TD*%
%TA.AperFunction,Conductor*%
%TO.N,GND*%
G36*
X125947906Y-107060096D02*
G01*
X126444145Y-107184646D01*
X126445008Y-107184852D01*
X126747127Y-107253805D01*
X126754499Y-107258179D01*
X127223675Y-107788681D01*
X127225895Y-107791004D01*
X127707610Y-108257046D01*
X127707617Y-108257052D01*
X127707621Y-108257056D01*
X127710441Y-108259546D01*
X127710456Y-108259558D01*
X127710465Y-108259566D01*
X128192953Y-108647850D01*
X128196500Y-108650406D01*
X128196510Y-108650412D01*
X128196519Y-108650419D01*
X128679819Y-108960972D01*
X128681918Y-108962234D01*
X129987742Y-109695678D01*
X129987767Y-109695710D01*
X129987775Y-109695697D01*
X131348435Y-110465001D01*
X131349784Y-110465869D01*
X131534261Y-110600147D01*
X131535623Y-110601277D01*
X133195400Y-112165167D01*
X133199716Y-112173829D01*
X133298226Y-113071846D01*
X133298226Y-113071852D01*
X133298391Y-113073357D01*
X133298391Y-113073358D01*
X133300391Y-113091584D01*
X133301011Y-113097238D01*
X133301009Y-113097245D01*
X133302744Y-113113045D01*
X133302746Y-113113060D01*
X133302761Y-113113191D01*
X133303465Y-113119601D01*
X133303688Y-113120470D01*
X133303992Y-113122009D01*
X133304102Y-113122795D01*
X133304181Y-113125982D01*
X133304004Y-113127956D01*
X133323331Y-113225118D01*
X133323369Y-113225259D01*
X133328476Y-113250938D01*
X133328479Y-113250950D01*
X133356409Y-113333240D01*
X133356411Y-113333244D01*
X133356412Y-113333247D01*
X133371041Y-113362916D01*
X133394848Y-113411199D01*
X133399786Y-113418590D01*
X133399801Y-113418619D01*
X133418980Y-113447321D01*
X133418986Y-113447328D01*
X133428595Y-113461711D01*
X133428605Y-113461729D01*
X133443035Y-113483321D01*
X133443047Y-113483373D01*
X133463685Y-113514243D01*
X133463710Y-113514277D01*
X133503778Y-113563350D01*
X133503798Y-113563373D01*
X133525085Y-113584879D01*
X133545874Y-113605883D01*
X133547014Y-113607278D01*
X133547233Y-113607461D01*
X133547234Y-113607462D01*
X135907119Y-115575550D01*
X135907123Y-115575552D01*
X135907785Y-115575960D01*
X135909019Y-115576814D01*
X135920075Y-115585393D01*
X135922233Y-115587475D01*
X135923343Y-115588803D01*
X135956944Y-115611255D01*
X135956945Y-115611255D01*
X135966311Y-115617514D01*
X135966312Y-115617515D01*
X135968963Y-115619285D01*
X135968966Y-115619290D01*
X135968968Y-115619289D01*
X135977824Y-115625208D01*
X135977827Y-115625208D01*
X135986827Y-115631222D01*
X135986835Y-115631234D01*
X135991485Y-115634340D01*
X135991485Y-115634341D01*
X136027617Y-115658483D01*
X136056834Y-115672890D01*
X136063898Y-115680944D01*
X136064404Y-115682878D01*
X136087738Y-115807976D01*
X136087850Y-115808674D01*
X136251993Y-117027056D01*
X136252061Y-117027667D01*
X136277024Y-117304242D01*
X136273830Y-117314470D01*
X136264339Y-117319443D01*
X136263081Y-117319500D01*
X130915127Y-117319500D01*
X130905228Y-117315399D01*
X130901127Y-117305500D01*
X130901127Y-111362070D01*
X126901127Y-111362070D01*
X126901127Y-117305500D01*
X126897026Y-117315399D01*
X126887127Y-117319500D01*
X125944500Y-117319500D01*
X125934601Y-117315399D01*
X125930500Y-117305500D01*
X125930500Y-107073676D01*
X125934601Y-107063777D01*
X125944500Y-107059676D01*
X125947906Y-107060096D01*
G37*
%TD.AperFunction*%
%TA.AperFunction,Conductor*%
G36*
X133479539Y-112432951D02*
G01*
X133480372Y-112433676D01*
X134725931Y-113607278D01*
X135876767Y-114691629D01*
X135880929Y-114699251D01*
X135997537Y-115324402D01*
X135995321Y-115334885D01*
X135986341Y-115340732D01*
X135975858Y-115338516D01*
X135974812Y-115337725D01*
X134773927Y-114336215D01*
X133742051Y-113475654D01*
X133742034Y-113475636D01*
X133721296Y-113458346D01*
X133721295Y-113458345D01*
X133717711Y-113455356D01*
X133717210Y-113454916D01*
X133687201Y-113427363D01*
X133686260Y-113426413D01*
X133659251Y-113396383D01*
X133658405Y-113395348D01*
X133634400Y-113362901D01*
X133634036Y-113362383D01*
X133607156Y-113322154D01*
X133606672Y-113321375D01*
X133578787Y-113273070D01*
X133577980Y-113271435D01*
X133556801Y-113220298D01*
X133556218Y-113218580D01*
X133541728Y-113164489D01*
X133541529Y-113163638D01*
X133533107Y-113121293D01*
X133532136Y-113116409D01*
X133529878Y-113104130D01*
X133529814Y-113103751D01*
X133527932Y-113091536D01*
X133527890Y-113091233D01*
X133526357Y-113078910D01*
X133526345Y-113078801D01*
X133525330Y-113069555D01*
X133456861Y-112445396D01*
X133459858Y-112435110D01*
X133469251Y-112429954D01*
X133479539Y-112432951D01*
G37*
%TD.AperFunction*%
%TD*%
%TA.AperFunction,Conductor*%
%TO.N,VDD3P0*%
G36*
X145076614Y-106003211D02*
G01*
X145428059Y-106111730D01*
X145428370Y-106111830D01*
X145448090Y-106118468D01*
X145448092Y-106118469D01*
X146010448Y-106307750D01*
X146012585Y-106308425D01*
X146549471Y-106467078D01*
X146553950Y-106468216D01*
X147007016Y-106564918D01*
X147091254Y-106582898D01*
X147093429Y-106583272D01*
X147095948Y-106583706D01*
X147364801Y-106619060D01*
X147633644Y-106654414D01*
X147633651Y-106654414D01*
X147633654Y-106654415D01*
X147636214Y-106654646D01*
X147638487Y-106654852D01*
X147638489Y-106654852D01*
X147638499Y-106654853D01*
X148176615Y-106681590D01*
X148178667Y-106681649D01*
X148179049Y-106681661D01*
X148179055Y-106681661D01*
X148179152Y-106681662D01*
X148197908Y-106681801D01*
X148197960Y-106681801D01*
X148197994Y-106681801D01*
X148286278Y-106682329D01*
X148296153Y-106686489D01*
X148298754Y-106690144D01*
X148464181Y-107026100D01*
X148627939Y-107358666D01*
X148627986Y-107358762D01*
X148641625Y-107386337D01*
X148641741Y-107386569D01*
X148641742Y-107386571D01*
X148641751Y-107386588D01*
X148641771Y-107386628D01*
X148641808Y-107386703D01*
X148676697Y-107456102D01*
X148676707Y-107456131D01*
X148677399Y-107457499D01*
X148677431Y-107457562D01*
X148677431Y-107457563D01*
X148677571Y-107457840D01*
X148680655Y-107463897D01*
X148680673Y-107463969D01*
X148680688Y-107463962D01*
X148715676Y-107532598D01*
X148756290Y-107612270D01*
X148756302Y-107612294D01*
X148759276Y-107618122D01*
X148759381Y-107618327D01*
X148759720Y-107618989D01*
X148759832Y-107619167D01*
X148760358Y-107620146D01*
X149010577Y-108067389D01*
X149012149Y-108069937D01*
X149013281Y-108071771D01*
X149277540Y-108461402D01*
X149279250Y-108463798D01*
X149577720Y-108860790D01*
X149578208Y-108861482D01*
X149581738Y-108866825D01*
X149795184Y-109189846D01*
X149796143Y-109191542D01*
X149940713Y-109494944D01*
X149941672Y-109504299D01*
X149815135Y-110020568D01*
X149813178Y-110025013D01*
X149762679Y-110100590D01*
X149745179Y-110188574D01*
X149745179Y-110188575D01*
X149757464Y-110250343D01*
X149757331Y-110256407D01*
X149645595Y-110712294D01*
X149639255Y-110720932D01*
X149634078Y-110722805D01*
X149415044Y-110755729D01*
X149412102Y-110755859D01*
X149153866Y-110739950D01*
X149152367Y-110739776D01*
X148662078Y-110655925D01*
X148629810Y-110650406D01*
X148627806Y-110650097D01*
X148540829Y-110638136D01*
X148538866Y-110637899D01*
X148506083Y-110634472D01*
X148095684Y-110591572D01*
X148095642Y-110591568D01*
X148089446Y-110591246D01*
X148089412Y-110591245D01*
X148088747Y-110591249D01*
X148088746Y-110591248D01*
X145593213Y-110617961D01*
X145576645Y-110618138D01*
X145575817Y-110618158D01*
X145574943Y-110618180D01*
X145487482Y-110621550D01*
X145477518Y-110622774D01*
X145477516Y-110622774D01*
X145435397Y-110631574D01*
X145434630Y-110631740D01*
X145419901Y-110635028D01*
X145416852Y-110635364D01*
X145416038Y-110635364D01*
X145414423Y-110636251D01*
X145370782Y-110645993D01*
X145350674Y-110650481D01*
X145347685Y-110651230D01*
X145192089Y-110694458D01*
X145189138Y-110695360D01*
X145169545Y-110701901D01*
X144598219Y-110892637D01*
X144595671Y-110893230D01*
X144430603Y-110915660D01*
X144426634Y-110915631D01*
X142956183Y-110694275D01*
X142956182Y-110694274D01*
X142954423Y-110694009D01*
X142951616Y-110693587D01*
X142951458Y-110693562D01*
X142940277Y-110691746D01*
X142940118Y-110691719D01*
X142935607Y-110690933D01*
X142935605Y-110690933D01*
X142884089Y-110681948D01*
X142845551Y-110675225D01*
X142844248Y-110674933D01*
X142775241Y-110655972D01*
X142773910Y-110655533D01*
X142739727Y-110642313D01*
X142693551Y-110624454D01*
X142659248Y-110611186D01*
X142658001Y-110610633D01*
X142608781Y-110585848D01*
X142607582Y-110585168D01*
X142577074Y-110565812D01*
X142535880Y-110539675D01*
X142511662Y-110524309D01*
X142510752Y-110523681D01*
X142474609Y-110496525D01*
X142473780Y-110495850D01*
X142451836Y-110476523D01*
X142417584Y-110446356D01*
X141849905Y-109946382D01*
X141845186Y-109936762D01*
X141847517Y-109928100D01*
X141867582Y-109898072D01*
X141885083Y-109810086D01*
X141884941Y-109809374D01*
X141867733Y-109722858D01*
X141867582Y-109722100D01*
X141817742Y-109647509D01*
X141743151Y-109597669D01*
X141743150Y-109597668D01*
X141743149Y-109597668D01*
X141655165Y-109580168D01*
X141567180Y-109597668D01*
X141492587Y-109647509D01*
X141488675Y-109653364D01*
X141479765Y-109659316D01*
X141470029Y-109657706D01*
X141205202Y-109504617D01*
X141055988Y-109418360D01*
X141053352Y-109416389D01*
X139458368Y-107901123D01*
X139456296Y-107898639D01*
X139400708Y-107813695D01*
X139398615Y-107808336D01*
X139379250Y-107692313D01*
X139379160Y-107688348D01*
X139398564Y-107527028D01*
X139399087Y-107524578D01*
X139419674Y-107458073D01*
X139426518Y-107449832D01*
X139437187Y-107448842D01*
X139440644Y-107450457D01*
X139447236Y-107454716D01*
X139447281Y-107454745D01*
X139455088Y-107459887D01*
X139456650Y-107461081D01*
X139626313Y-107610954D01*
X139627763Y-107612441D01*
X139680786Y-107675552D01*
X139964565Y-108013321D01*
X139973007Y-108022296D01*
X140048790Y-108094320D01*
X140069076Y-108109562D01*
X140069078Y-108109563D01*
X140159069Y-108162144D01*
X140181215Y-108171989D01*
X140181224Y-108171993D01*
X140285422Y-108205128D01*
X140306122Y-108209573D01*
X140306133Y-108209575D01*
X140389469Y-108219210D01*
X140424527Y-108223264D01*
X140437162Y-108223992D01*
X140449272Y-108223324D01*
X140728704Y-108192373D01*
X140750437Y-108187706D01*
X141086698Y-108078979D01*
X141123368Y-108052395D01*
X141133789Y-108049906D01*
X141134002Y-108049942D01*
X141259449Y-108072600D01*
X141266015Y-108073415D01*
X141266023Y-108073415D01*
X141266027Y-108073416D01*
X141383121Y-108081434D01*
X141500228Y-108089454D01*
X141504327Y-108089594D01*
X141506038Y-108089570D01*
X141757204Y-108082405D01*
X141762246Y-108082048D01*
X141924534Y-108063667D01*
X141934831Y-108066627D01*
X141939512Y-108073533D01*
X142568886Y-110159034D01*
X142569214Y-110165810D01*
X142561759Y-110203297D01*
X142561759Y-110203298D01*
X142579259Y-110291282D01*
X142579259Y-110291283D01*
X142579260Y-110291284D01*
X142629100Y-110365875D01*
X142703691Y-110415715D01*
X142791677Y-110433216D01*
X142879663Y-110415715D01*
X142954254Y-110365875D01*
X143004094Y-110291284D01*
X143018981Y-110216438D01*
X145199733Y-110216438D01*
X145217233Y-110304422D01*
X145217233Y-110304423D01*
X145217234Y-110304424D01*
X145267074Y-110379015D01*
X145341665Y-110428855D01*
X145429651Y-110446356D01*
X145517637Y-110428855D01*
X145592228Y-110379015D01*
X145642068Y-110304424D01*
X145654528Y-110241780D01*
X147917080Y-110241780D01*
X147934580Y-110329764D01*
X147934580Y-110329765D01*
X147934581Y-110329766D01*
X147984421Y-110404357D01*
X148059012Y-110454197D01*
X148146998Y-110471698D01*
X148234984Y-110454197D01*
X148309575Y-110404357D01*
X148359415Y-110329766D01*
X148376916Y-110241780D01*
X148369261Y-110203297D01*
X148359415Y-110153795D01*
X148359415Y-110153794D01*
X148309575Y-110079203D01*
X148234984Y-110029363D01*
X148234983Y-110029362D01*
X148234982Y-110029362D01*
X148146998Y-110011862D01*
X148059013Y-110029362D01*
X147984421Y-110079203D01*
X147934580Y-110153795D01*
X147917080Y-110241779D01*
X147917080Y-110241780D01*
X145654528Y-110241780D01*
X145659569Y-110216438D01*
X145656955Y-110203298D01*
X145642068Y-110128453D01*
X145642068Y-110128452D01*
X145592228Y-110053861D01*
X145517637Y-110004021D01*
X145517636Y-110004020D01*
X145517635Y-110004020D01*
X145429651Y-109986520D01*
X145341666Y-110004020D01*
X145267074Y-110053861D01*
X145217233Y-110128453D01*
X145199733Y-110216437D01*
X145199733Y-110216438D01*
X143018981Y-110216438D01*
X143021595Y-110203298D01*
X143018666Y-110188575D01*
X143012791Y-110159034D01*
X143004094Y-110115312D01*
X142954254Y-110040721D01*
X142954253Y-110040720D01*
X142954251Y-110040717D01*
X142953577Y-110040043D01*
X142950073Y-110034189D01*
X142932560Y-109976158D01*
X142790256Y-109504617D01*
X144582737Y-109504617D01*
X144600237Y-109592601D01*
X144600237Y-109592602D01*
X144600238Y-109592603D01*
X144650078Y-109667194D01*
X144724669Y-109717034D01*
X144812655Y-109734535D01*
X144900641Y-109717034D01*
X144975232Y-109667194D01*
X145025072Y-109592603D01*
X145042573Y-109504617D01*
X145025072Y-109416631D01*
X144975232Y-109342040D01*
X144900641Y-109292200D01*
X144900640Y-109292199D01*
X144900639Y-109292199D01*
X144812655Y-109274699D01*
X144724670Y-109292199D01*
X144650078Y-109342040D01*
X144600237Y-109416632D01*
X144582737Y-109504616D01*
X144582737Y-109504617D01*
X142790256Y-109504617D01*
X142597779Y-108866826D01*
X144583277Y-108866826D01*
X144600777Y-108954810D01*
X144600777Y-108954811D01*
X144600778Y-108954812D01*
X144650618Y-109029403D01*
X144725209Y-109079243D01*
X144813195Y-109096744D01*
X144901181Y-109079243D01*
X144975772Y-109029403D01*
X145025612Y-108954812D01*
X145043113Y-108866826D01*
X145041912Y-108860790D01*
X145025612Y-108778841D01*
X145025612Y-108778840D01*
X144975772Y-108704249D01*
X144901181Y-108654409D01*
X144901180Y-108654408D01*
X144901179Y-108654408D01*
X144813195Y-108636908D01*
X144725210Y-108654408D01*
X144650618Y-108704249D01*
X144600777Y-108778841D01*
X144583277Y-108866825D01*
X144583277Y-108866826D01*
X142597779Y-108866826D01*
X142336052Y-107999565D01*
X142337118Y-107988904D01*
X142345410Y-107982118D01*
X142346390Y-107981862D01*
X142623719Y-107920291D01*
X142630067Y-107918510D01*
X143284984Y-107695353D01*
X143287496Y-107694434D01*
X143287497Y-107694433D01*
X143287503Y-107694430D01*
X143288497Y-107694067D01*
X143288737Y-107693944D01*
X143335184Y-107675614D01*
X143335342Y-107675552D01*
X143694598Y-107532600D01*
X143719289Y-107514306D01*
X144108906Y-107026699D01*
X144109397Y-107026119D01*
X144536785Y-106550533D01*
X144540304Y-106546617D01*
X144676434Y-106398662D01*
X144680111Y-106394756D01*
X144721161Y-106351161D01*
X144721163Y-106351159D01*
X144721165Y-106351157D01*
X144737895Y-106333388D01*
X144738071Y-106333207D01*
X145062556Y-106006719D01*
X145072442Y-106002589D01*
X145076614Y-106003211D01*
G37*
%TD.AperFunction*%
%TD*%
%TA.AperFunction,Conductor*%
%TO.N,VBAT*%
G36*
X142857556Y-100985652D02*
G01*
X143058501Y-101015243D01*
X143061175Y-101015912D01*
X143263592Y-101088368D01*
X143265797Y-101089381D01*
X143380562Y-101154746D01*
X143470419Y-101205924D01*
X143472115Y-101207061D01*
X143678843Y-101368736D01*
X143680089Y-101369836D01*
X143879677Y-101568526D01*
X143882883Y-101573467D01*
X143989035Y-101852347D01*
X143989482Y-101853735D01*
X144075987Y-102179604D01*
X144076140Y-102180236D01*
X144585676Y-104536083D01*
X144654534Y-104854454D01*
X144781514Y-105441546D01*
X144783170Y-105446803D01*
X144784829Y-105452068D01*
X144934322Y-105808358D01*
X144977062Y-105910222D01*
X144977111Y-105920937D01*
X144974082Y-105925508D01*
X144652316Y-106249261D01*
X144651151Y-106250464D01*
X144633952Y-106268729D01*
X144633945Y-106268738D01*
X144633801Y-106268892D01*
X144633800Y-106268893D01*
X144633798Y-106268895D01*
X144592746Y-106312492D01*
X144592745Y-106312492D01*
X144588805Y-106316678D01*
X144588387Y-106317125D01*
X144588360Y-106317156D01*
X144451756Y-106465627D01*
X144451282Y-106466147D01*
X144447529Y-106470324D01*
X144018719Y-106947494D01*
X144016487Y-106950127D01*
X143637778Y-107424080D01*
X143632017Y-107428349D01*
X143291093Y-107564007D01*
X143291056Y-107564022D01*
X143245234Y-107582105D01*
X143244610Y-107582334D01*
X142595214Y-107803610D01*
X142593733Y-107804025D01*
X142309610Y-107867104D01*
X142299057Y-107865247D01*
X142293173Y-107857482D01*
X142288266Y-107841221D01*
X142109866Y-107250075D01*
X142110932Y-107239414D01*
X142119224Y-107232628D01*
X142125998Y-107232300D01*
X142166975Y-107240451D01*
X142254961Y-107222950D01*
X142329552Y-107173110D01*
X142379392Y-107098519D01*
X142396893Y-107010533D01*
X142396527Y-107008695D01*
X142385168Y-106951585D01*
X142379392Y-106922547D01*
X142329552Y-106847956D01*
X142254961Y-106798116D01*
X142254960Y-106798115D01*
X142254959Y-106798115D01*
X142166975Y-106780615D01*
X142078988Y-106798115D01*
X142074182Y-106801327D01*
X142063673Y-106803417D01*
X142054764Y-106797463D01*
X142052419Y-106789058D01*
X142075774Y-106268893D01*
X142084918Y-106065238D01*
X142798662Y-106065238D01*
X142816162Y-106153222D01*
X142816162Y-106153223D01*
X142816163Y-106153224D01*
X142866003Y-106227815D01*
X142940594Y-106277655D01*
X143028580Y-106295156D01*
X143116566Y-106277655D01*
X143191157Y-106227815D01*
X143240997Y-106153224D01*
X143258498Y-106065238D01*
X143323089Y-106065238D01*
X143340589Y-106153222D01*
X143340589Y-106153223D01*
X143340590Y-106153224D01*
X143390430Y-106227815D01*
X143465021Y-106277655D01*
X143553007Y-106295156D01*
X143640993Y-106277655D01*
X143715584Y-106227815D01*
X143765424Y-106153224D01*
X143782925Y-106065238D01*
X143765424Y-105977252D01*
X143715584Y-105902661D01*
X143640993Y-105852821D01*
X143640992Y-105852820D01*
X143640991Y-105852820D01*
X143553007Y-105835320D01*
X143465022Y-105852820D01*
X143390430Y-105902661D01*
X143340589Y-105977253D01*
X143323089Y-106065237D01*
X143323089Y-106065238D01*
X143258498Y-106065238D01*
X143240997Y-105977252D01*
X143191157Y-105902661D01*
X143116566Y-105852821D01*
X143116565Y-105852820D01*
X143116564Y-105852820D01*
X143028580Y-105835320D01*
X142940595Y-105852820D01*
X142866003Y-105902661D01*
X142816162Y-105977253D01*
X142798662Y-106065237D01*
X142798662Y-106065238D01*
X142084918Y-106065238D01*
X142136697Y-104912038D01*
X142136708Y-104911964D01*
X142136771Y-104910538D01*
X142136773Y-104910536D01*
X142138280Y-104876821D01*
X142138289Y-104876803D01*
X142138563Y-104870695D01*
X142139284Y-104854599D01*
X142139283Y-104854593D01*
X142139290Y-104854454D01*
X142139298Y-104854111D01*
X142139566Y-104848161D01*
X142139104Y-104845619D01*
X142138892Y-104843650D01*
X142138133Y-104822396D01*
X142135681Y-104801387D01*
X142135594Y-104799386D01*
X142135668Y-104796787D01*
X142134458Y-104790705D01*
X142134431Y-104790549D01*
X142132053Y-104778614D01*
X142132052Y-104778609D01*
X142117203Y-104703952D01*
X142117144Y-104703726D01*
X142116623Y-104701104D01*
X142116622Y-104701103D01*
X142116620Y-104701089D01*
X142099756Y-104651376D01*
X142076548Y-104604290D01*
X142074991Y-104601960D01*
X142074935Y-104601863D01*
X142070573Y-104595336D01*
X142061555Y-104581840D01*
X142061555Y-104581837D01*
X142061554Y-104581838D01*
X142057761Y-104576158D01*
X142057748Y-104576134D01*
X142053241Y-104569391D01*
X142053238Y-104569386D01*
X142039087Y-104548196D01*
X142039027Y-104548124D01*
X142038348Y-104547107D01*
X142038346Y-104547100D01*
X142030983Y-104536083D01*
X142030932Y-104536009D01*
X142026636Y-104529580D01*
X142025761Y-104528078D01*
X142025478Y-104527513D01*
X142025251Y-104527060D01*
X142025249Y-104527057D01*
X142025246Y-104527053D01*
X142024123Y-104525691D01*
X142023283Y-104524562D01*
X142022298Y-104523088D01*
X142022297Y-104523086D01*
X142022294Y-104523083D01*
X142021462Y-104522296D01*
X142020279Y-104521029D01*
X142015215Y-104514885D01*
X142015185Y-104514848D01*
X142013372Y-104512649D01*
X142013371Y-104512648D01*
X141891607Y-104364935D01*
X141854409Y-104319809D01*
X141851483Y-104313639D01*
X141844186Y-104276950D01*
X141794346Y-104202359D01*
X141719755Y-104152519D01*
X141719754Y-104152518D01*
X141719753Y-104152518D01*
X141631769Y-104135018D01*
X141543784Y-104152518D01*
X141469192Y-104202359D01*
X141419351Y-104276951D01*
X141401851Y-104364935D01*
X141401851Y-104364936D01*
X141419351Y-104452920D01*
X141419351Y-104452921D01*
X141419352Y-104452922D01*
X141469192Y-104527513D01*
X141543783Y-104577353D01*
X141543784Y-104577353D01*
X141545056Y-104577880D01*
X141544843Y-104578393D01*
X141550841Y-104581977D01*
X141573711Y-104609721D01*
X141576844Y-104619968D01*
X141571813Y-104629429D01*
X141565639Y-104632357D01*
X141525471Y-104640346D01*
X141450879Y-104690187D01*
X141401038Y-104764779D01*
X141383538Y-104852763D01*
X141383538Y-104852764D01*
X141401038Y-104940748D01*
X141401038Y-104940749D01*
X141401039Y-104940750D01*
X141450879Y-105015341D01*
X141525470Y-105065181D01*
X141613456Y-105082682D01*
X141701442Y-105065181D01*
X141706244Y-105061971D01*
X141716753Y-105059880D01*
X141725663Y-105065831D01*
X141728010Y-105074239D01*
X141643721Y-106951508D01*
X141643711Y-106951585D01*
X141642127Y-106986978D01*
X141642118Y-106986999D01*
X141641142Y-107008792D01*
X141641134Y-107009138D01*
X141640865Y-107015135D01*
X141640865Y-107015136D01*
X141641322Y-107017657D01*
X141641537Y-107019653D01*
X141642297Y-107040895D01*
X141644746Y-107061896D01*
X141644835Y-107063901D01*
X141644763Y-107066505D01*
X141644764Y-107066519D01*
X141645967Y-107072569D01*
X141646002Y-107072761D01*
X141648266Y-107084124D01*
X141648266Y-107084129D01*
X141648267Y-107084129D01*
X141661201Y-107149154D01*
X141661437Y-107150920D01*
X141661542Y-107152452D01*
X141661543Y-107152456D01*
X141662269Y-107154861D01*
X141662597Y-107156171D01*
X141663092Y-107158659D01*
X141663719Y-107160061D01*
X141664341Y-107161728D01*
X141668060Y-107174048D01*
X141675456Y-107198572D01*
X141679981Y-107213573D01*
X141680007Y-107213637D01*
X141896047Y-107929509D01*
X141894981Y-107940171D01*
X141886689Y-107946957D01*
X141884220Y-107947465D01*
X141751837Y-107962459D01*
X141750660Y-107962542D01*
X141646809Y-107965504D01*
X141636797Y-107961688D01*
X141632416Y-107951909D01*
X141633476Y-107946152D01*
X141637545Y-107936327D01*
X141647060Y-107888494D01*
X141647060Y-107787448D01*
X141637547Y-107739624D01*
X141637543Y-107739608D01*
X141617777Y-107679665D01*
X141399194Y-107216185D01*
X141398680Y-107205482D01*
X141404076Y-107198574D01*
X141430637Y-107180827D01*
X141480477Y-107106236D01*
X141497978Y-107018250D01*
X141497358Y-107015135D01*
X141484718Y-106951585D01*
X141480477Y-106930264D01*
X141430637Y-106855673D01*
X141356046Y-106805833D01*
X141356045Y-106805832D01*
X141356044Y-106805832D01*
X141268060Y-106788332D01*
X141180075Y-106805832D01*
X141163813Y-106816698D01*
X141108477Y-106853673D01*
X141104337Y-106856439D01*
X141104162Y-106856178D01*
X141095649Y-106859699D01*
X141094058Y-106859607D01*
X141042449Y-106853673D01*
X141042448Y-106853674D01*
X140945285Y-106881425D01*
X140945279Y-106881428D01*
X140678453Y-107018506D01*
X140670483Y-107022776D01*
X140593576Y-107088318D01*
X140573833Y-107126962D01*
X140565678Y-107133912D01*
X140554996Y-107133059D01*
X140548108Y-107125088D01*
X140547120Y-107122175D01*
X140535128Y-107086825D01*
X140534813Y-107085752D01*
X140529319Y-107063901D01*
X140501063Y-106951508D01*
X140500025Y-106947379D01*
X140499663Y-106945268D01*
X140495835Y-106904287D01*
X140485071Y-106789058D01*
X140240054Y-104166054D01*
X140240054Y-104166052D01*
X140239421Y-104159271D01*
X140239406Y-104159094D01*
X140233999Y-104089965D01*
X140233984Y-104089755D01*
X140233580Y-104083355D01*
X140233566Y-104082940D01*
X140233524Y-104082481D01*
X140230370Y-104032545D01*
X140228144Y-103997298D01*
X140228119Y-103996237D01*
X140234519Y-103599003D01*
X140234574Y-103597982D01*
X140238015Y-103560337D01*
X140247240Y-103459379D01*
X140250411Y-103424683D01*
X140250840Y-103417097D01*
X140260713Y-102969091D01*
X140260740Y-102966668D01*
X140260641Y-102962005D01*
X140259058Y-102924683D01*
X140259058Y-102924682D01*
X140242368Y-102531267D01*
X140246045Y-102521203D01*
X140247963Y-102519468D01*
X141495047Y-101587157D01*
X141496355Y-101586291D01*
X142235937Y-101155028D01*
X142236919Y-101154507D01*
X142445395Y-101054554D01*
X142447766Y-101053672D01*
X142650778Y-100998568D01*
X142653563Y-100998107D01*
X142854652Y-100985531D01*
X142857556Y-100985652D01*
G37*
%TD.AperFunction*%
%TD*%
D28*
X131501369Y-98513144D02*
X134301369Y-98513144D01*
X134301369Y-98513144D02*
X134301369Y-100393144D01*
X134301369Y-100393144D02*
X135151369Y-100393144D01*
X135151369Y-100393144D02*
X135151369Y-98513144D01*
X135151369Y-98513144D02*
X139051369Y-98513144D01*
X139051369Y-98513144D02*
X139051369Y-100393144D01*
X139051369Y-100393144D02*
X139901369Y-100393144D01*
X139901369Y-100393144D02*
X139901369Y-98513144D01*
X139901369Y-98513144D02*
X142701369Y-98513144D01*
X142701369Y-98513144D02*
X142701369Y-98363144D01*
X142701369Y-98363144D02*
X131501369Y-98363144D01*
X131501369Y-98363144D02*
X131501369Y-98513144D01*
X152000000Y-117500000D02*
X125750000Y-117500000D01*
X125750000Y-117500000D02*
X125750000Y-98500000D01*
X125750000Y-98500000D02*
X153250000Y-98500000D01*
X153250000Y-98500000D02*
X153250000Y-116000000D01*
X153250000Y-116000000D02*
X153000000Y-116000000D01*
X153000000Y-116000000D02*
G75*
G03*
X152000000Y-117000000I0J-1000000D01*
G01*
X152000000Y-117000000D02*
X152000000Y-117500000D01*
M02*
