%TF.GenerationSoftware,KiCad,Pcbnew,7.0.7*%
%TF.CreationDate,2024-01-17T15:08:19-08:00*%
%TF.ProjectId,beeper-design,62656570-6572-42d6-9465-7369676e2e6b,rev?*%
%TF.SameCoordinates,Original*%
%TF.FileFunction,Copper,L3,Inr*%
%TF.FilePolarity,Positive*%
%FSLAX46Y46*%
G04 Gerber Fmt 4.6, Leading zero omitted, Abs format (unit mm)*
G04 Created by KiCad (PCBNEW 7.0.7) date 2024-01-17 15:08:19*
%MOMM*%
%LPD*%
G01*
G04 APERTURE LIST*
%TA.AperFunction,ViaPad*%
%ADD10C,0.400000*%
%TD*%
%TA.AperFunction,ViaPad*%
%ADD11C,0.250000*%
%TD*%
%TA.AperFunction,Conductor*%
%ADD12C,0.075000*%
%TD*%
G04 APERTURE END LIST*
D10*
%TO.N,GND*%
X143575073Y-101370644D03*
D11*
X151354476Y-104415097D03*
D10*
X126240526Y-108423762D03*
X152711911Y-111192564D03*
X138422325Y-104037396D03*
X126259751Y-103538415D03*
X148605548Y-102305725D03*
X129713698Y-109601468D03*
X126259751Y-104094665D03*
D11*
X138505165Y-110260086D03*
X136705165Y-112060086D03*
D10*
X140205110Y-107243578D03*
D11*
X139405165Y-111610086D03*
D10*
X144814899Y-99034754D03*
X133897649Y-117005688D03*
D11*
X141191434Y-113867717D03*
X136407665Y-113617586D03*
D10*
X126253026Y-109467512D03*
X152799901Y-103522006D03*
X152711911Y-111784766D03*
D11*
X138505165Y-114760086D03*
D10*
X152793651Y-102990756D03*
D11*
X136705165Y-112960086D03*
D10*
X133890953Y-112656040D03*
X134419031Y-117022690D03*
D11*
X136407665Y-114967586D03*
D10*
X143875200Y-102372149D03*
D11*
X137155165Y-112960086D03*
D10*
X141382907Y-104922276D03*
X146498655Y-113498351D03*
D11*
X138955165Y-112060086D03*
D10*
X152856151Y-99790756D03*
X126246776Y-108942512D03*
X133387602Y-117000021D03*
D11*
X139405165Y-112510086D03*
D10*
X152837401Y-100315756D03*
X149154405Y-106113213D03*
X140194743Y-105415830D03*
X144168737Y-114869371D03*
D11*
X136857665Y-114967586D03*
D10*
X132354230Y-117002334D03*
X152812401Y-101378256D03*
D11*
X139855165Y-112510086D03*
D10*
X152793651Y-102447006D03*
X131841349Y-117005168D03*
D11*
X141655165Y-109810086D03*
X138055165Y-110260086D03*
D10*
X144945957Y-113738611D03*
X132872778Y-117002334D03*
D11*
X138505165Y-111610086D03*
D10*
X152824901Y-100847006D03*
X141700420Y-107317823D03*
X152703073Y-110618040D03*
D11*
X137757665Y-114517586D03*
D10*
X126240526Y-109992512D03*
X126246776Y-107905012D03*
X126244945Y-99856584D03*
X135461795Y-117005688D03*
X126253501Y-101950915D03*
D11*
X141655165Y-111610086D03*
D10*
X152720750Y-110052354D03*
X142647398Y-110810142D03*
X126253026Y-105798762D03*
X126258203Y-100373656D03*
X152694234Y-113720471D03*
X152711911Y-115125845D03*
X126253501Y-100894665D03*
X128251091Y-101228437D03*
D11*
X137757665Y-114967586D03*
D10*
X136830023Y-105006633D03*
X152694234Y-114409900D03*
X134934746Y-117017023D03*
X152793651Y-104047006D03*
D11*
X139405165Y-112060086D03*
D10*
X147316827Y-109072434D03*
X152703073Y-113075236D03*
X126272251Y-104650915D03*
X149161034Y-108872389D03*
D11*
X139855165Y-112060086D03*
D10*
X126247251Y-103000915D03*
X135697203Y-111949233D03*
D11*
X136407665Y-114067586D03*
D10*
X131401879Y-107139540D03*
X138348657Y-105724581D03*
X146839751Y-104076758D03*
X152729402Y-115643825D03*
X126280462Y-105271625D03*
D11*
X138955165Y-111610086D03*
D10*
X126240526Y-107373762D03*
X152793651Y-101903256D03*
X126249365Y-99335093D03*
X126253501Y-102450915D03*
X126240526Y-110517512D03*
X126253501Y-101432165D03*
X126246776Y-106317512D03*
X131325197Y-117003876D03*
X135824509Y-101545734D03*
D11*
X151354476Y-106415097D03*
D10*
X126246776Y-106836262D03*
X152711911Y-112421162D03*
X130804246Y-116979832D03*
D11*
%TO.N,mcu_mcu-etm_data3*%
X139405165Y-110710086D03*
D10*
%TO.N,VBUS*%
X145719549Y-104167509D03*
X138401907Y-101609453D03*
X141795237Y-101387518D03*
X128286276Y-103832108D03*
D11*
%TO.N,VDD1P8*%
X141205165Y-110710086D03*
D10*
X130773738Y-108610382D03*
X129970343Y-110296899D03*
X133758692Y-109149897D03*
%TO.N,AC2*%
X150035218Y-100088430D03*
%TO.N,VDDSYS*%
X135253660Y-106168638D03*
X135245811Y-105084379D03*
X152205282Y-106653960D03*
X133173574Y-104909491D03*
X145736583Y-111169977D03*
D11*
X140755165Y-109810086D03*
D10*
X145717991Y-107794103D03*
%TO.N,QVAR2*%
X141115303Y-116773148D03*
X135382966Y-114320626D03*
%TO.N,FOD*%
X145395132Y-101008981D03*
D11*
X146163236Y-101299687D03*
%TO.N,mcu_mcu-mem_sdio3*%
X140755165Y-112510086D03*
X144512568Y-115468836D03*
D10*
%TO.N,mcu_mcu-uart_tx*%
X131099595Y-101264852D03*
D11*
X138055165Y-112060086D03*
D10*
%TO.N,cap_p1*%
X150713795Y-100350924D03*
D11*
%TO.N,mcu_mcu-etm_clk*%
X139855165Y-110710086D03*
D10*
X136813812Y-105468849D03*
D11*
%TO.N,mcu_conn-uart_rx*%
X138505165Y-112060086D03*
D10*
X128307419Y-102542244D03*
D11*
%TO.N,VDD3P0*%
X151354476Y-107415097D03*
D10*
X139485444Y-106837731D03*
X150032519Y-106716031D03*
%TO.N,OUT-*%
X131981324Y-105628398D03*
D11*
%TO.N,codec-i2c-net_scl*%
X150674476Y-105915097D03*
D10*
X149135986Y-104674643D03*
X142078952Y-114703743D03*
D11*
%TO.N,RECT*%
X147363236Y-101299687D03*
D10*
X147432192Y-100388488D03*
%TO.N,board-io_rgb_r*%
X139570173Y-108951200D03*
X142899067Y-104366671D03*
%TO.N,mcu_q-spi_sdi*%
X132328370Y-107500892D03*
X136085542Y-110946589D03*
%TO.N,SHIELD*%
X137117093Y-99981882D03*
%TO.N,mcu_hap-i2c_sda*%
X137982440Y-109241617D03*
X138776380Y-109309812D03*
%TO.N,mcu_mcu-wpwr2_gpio*%
X146062497Y-102528897D03*
D11*
X140755165Y-110710086D03*
D10*
%TO.N,mcu_mcu-wpwr3_gpio*%
X145245596Y-100348780D03*
D11*
X139855165Y-111160086D03*
D10*
%TO.N,mcu_mcu-etm_data1*%
X138610093Y-108833959D03*
%TO.N,V14*%
X143452612Y-109789874D03*
X139386679Y-116595891D03*
D11*
%TO.N,CLAMP1*%
X146563236Y-101699687D03*
D10*
X147538753Y-104259505D03*
D11*
%TO.N,mcu_mcu-etm_data0*%
X138505165Y-111160086D03*
D10*
%TO.N,VBAT*%
X142151568Y-105049570D03*
D11*
%TO.N,mcu_mcu-mem_sdio2*%
X140305165Y-111610086D03*
X143812568Y-115868836D03*
D10*
%TO.N,codec-i2c-net_sda*%
X142405550Y-112118891D03*
X149104453Y-105382189D03*
D11*
X151014476Y-106165097D03*
D10*
%TO.N,mcu_hap-gpio1_gpio*%
X134334368Y-105632680D03*
D11*
X138055165Y-111610086D03*
D10*
%TO.N,OUT+*%
X132066160Y-106806138D03*
D11*
%TO.N,mcu_mcu-mem_sck*%
X144512568Y-115868836D03*
X140305165Y-112510086D03*
%TO.N,mcu_mcu-mem_cs*%
X140755165Y-111160086D03*
X143812568Y-115068836D03*
%TO.N,mcu_mcu-mem_sdio0*%
X144162568Y-115668836D03*
X139405165Y-111160086D03*
D10*
%TO.N,mcu_hap-i2c_scl*%
X133976982Y-104745882D03*
D11*
X137605165Y-112060086D03*
D10*
%TO.N,mcu_mcu-button2_gpio*%
X142694670Y-112843262D03*
D11*
X140755165Y-111610086D03*
D10*
%TO.N,D+*%
X137089972Y-103576428D03*
X142309553Y-113834073D03*
%TO.N,CLAMP2*%
X146170132Y-100282418D03*
D11*
X146563236Y-101299687D03*
%TO.N,mcu_mcu-wpwr0_gpio*%
X140305165Y-110710086D03*
D10*
X144600759Y-102778021D03*
%TO.N,mcu_mcu-etm_data2*%
X138331450Y-106815731D03*
X136249569Y-109365791D03*
D11*
%TO.N,SP_P*%
X151354476Y-106915097D03*
D10*
%TO.N,mcu_mcu-dbg-m33_swdclk*%
X127049008Y-103397477D03*
%TO.N,D-*%
X137734812Y-103603566D03*
X142929816Y-114303052D03*
%TO.N,QVAR1*%
X130784824Y-109115470D03*
%TO.N,mcu_mcu-dbg-m33_swdio*%
X127590593Y-103948199D03*
X136132564Y-113110803D03*
D11*
%TO.N,SP_N*%
X151694476Y-107165097D03*
%TD*%
D12*
%TO.N,VBUS*%
X145719549Y-104167509D02*
X141795237Y-101387518D01*
%TO.N,VDD1P8*%
X133758692Y-109149897D02*
X136214876Y-110676887D01*
X136217636Y-110678666D02*
G75*
G03*
X136214876Y-110676888I-59236J-88934D01*
G01*
X136217636Y-110678666D02*
X136282520Y-110722021D01*
X136310126Y-110749600D02*
G75*
G03*
X136282520Y-110722021I-83126J-55600D01*
G01*
X136310110Y-110749611D02*
X136353465Y-110814495D01*
X136353336Y-110814658D02*
G75*
G03*
X136353833Y-110815051I937388488J1184556482D01*
G01*
X136353833Y-110815051D02*
X137291331Y-112238551D01*
X137291331Y-112238551D02*
G75*
G03*
X137292206Y-112239869I144969J95351D01*
G01*
X137292206Y-112239869D02*
X137319302Y-112280422D01*
X137319314Y-112280414D02*
G75*
G03*
X137384829Y-112345948I197486J131914D01*
G01*
X137384829Y-112345948D02*
X137425381Y-112373045D01*
X137425378Y-112373049D02*
G75*
G03*
X137510995Y-112408507I131922J197449D01*
G01*
X137510995Y-112408507D02*
X137558831Y-112418022D01*
X137558832Y-112418016D02*
G75*
G03*
X137605165Y-112422586I46368J232916D01*
G01*
X137605165Y-112422586D02*
X138055165Y-112422586D01*
X138055165Y-112422580D02*
G75*
G03*
X138091450Y-112419797I35J237480D01*
G01*
X138091450Y-112419798D02*
X138970443Y-112283912D01*
X138970443Y-112283910D02*
G75*
G03*
X138974674Y-112283163I-15143J98110D01*
G01*
X138974674Y-112283164D02*
X139022509Y-112273649D01*
X139022510Y-112273653D02*
G75*
G03*
X139058556Y-112258717I-19510J98053D01*
G01*
X139058557Y-112258718D02*
X139099110Y-112231621D01*
X139099107Y-112231616D02*
G75*
G03*
X139126700Y-112204031I-55507J83116D01*
G01*
X139126700Y-112204031D02*
X139153797Y-112163478D01*
X139153784Y-112163469D02*
G75*
G03*
X139168727Y-112127430I-83084J55569D01*
G01*
X139168728Y-112127430D02*
X139178243Y-112079595D01*
X139178247Y-112079596D02*
G75*
G03*
X139180165Y-112060086I-98147J19496D01*
G01*
X139180165Y-112060086D02*
X139180165Y-111610086D01*
X139182090Y-111590578D02*
G75*
G03*
X139180165Y-111610086I98010J-19522D01*
G01*
X139182086Y-111590577D02*
X139191601Y-111542741D01*
X139206546Y-111506702D02*
G75*
G03*
X139191602Y-111542741I83154J-55598D01*
G01*
X139206533Y-111506693D02*
X139233629Y-111466140D01*
X139261216Y-111438546D02*
G75*
G03*
X139233630Y-111466140I55584J-83154D01*
G01*
X139261219Y-111438551D02*
X139301772Y-111411454D01*
X139337822Y-111396533D02*
G75*
G03*
X139301772Y-111411454I19478J-98067D01*
G01*
X139337820Y-111396522D02*
X139385656Y-111387007D01*
X139405165Y-111385078D02*
G75*
G03*
X139385656Y-111387008I35J-99922D01*
G01*
X139405165Y-111385086D02*
X139855165Y-111385086D01*
X139855165Y-111385077D02*
G75*
G03*
X139874674Y-111383164I35J100077D01*
G01*
X139874674Y-111383164D02*
X139922509Y-111373649D01*
X139922510Y-111373653D02*
G75*
G03*
X139952772Y-111362305I-19510J98053D01*
G01*
X139952772Y-111362305D02*
X140657558Y-110957867D01*
X140690649Y-110946012D02*
G75*
G03*
X140657558Y-110957867I16651J-98588D01*
G01*
X140690647Y-110946002D02*
X140819683Y-110924169D01*
X140819684Y-110924173D02*
G75*
G03*
X140852772Y-110912305I-16684J98573D01*
G01*
X140852772Y-110912305D02*
X141205165Y-110710086D01*
X130773738Y-108610382D02*
X133758692Y-109149897D01*
%TO.N,QVAR2*%
X135382966Y-114320626D02*
X136251124Y-115129153D01*
X136251126Y-115129151D02*
G75*
G03*
X136263719Y-115139121I68074J73051D01*
G01*
X136263719Y-115139121D02*
X136304272Y-115166218D01*
X136304273Y-115166216D02*
G75*
G03*
X136309957Y-115169746I55627J83216D01*
G01*
X136309957Y-115169747D02*
X139260270Y-116867343D01*
X139260266Y-116867350D02*
G75*
G03*
X139290634Y-116878744I49834J86650D01*
G01*
X139290634Y-116878745D02*
X139367170Y-116893969D01*
X139367171Y-116893963D02*
G75*
G03*
X139393777Y-116895638I19529J98063D01*
G01*
X139393777Y-116895639D02*
X141115303Y-116773148D01*
%TO.N,mcu_mcu-uart_tx*%
X131099595Y-101264852D02*
X134191079Y-104535771D01*
X134201552Y-104548903D02*
G75*
G03*
X134191079Y-104535771I-83052J-55497D01*
G01*
X134201550Y-104548904D02*
X134244905Y-104613788D01*
X134259827Y-104649838D02*
G75*
G03*
X134244905Y-104613788I-98027J-19462D01*
G01*
X134259836Y-104649836D02*
X134275060Y-104726373D01*
X134275067Y-104765392D02*
G75*
G03*
X134275060Y-104726373I-98067J19492D01*
G01*
X134275060Y-104765391D02*
X134259836Y-104841928D01*
X134257501Y-104851262D02*
G75*
G03*
X134259835Y-104841928I-95601J28862D01*
G01*
X134257507Y-104851264D02*
X134053843Y-105527298D01*
X134053841Y-105527297D02*
G75*
G03*
X134051514Y-105536634I96059J-28903D01*
G01*
X134051513Y-105536634D02*
X134036289Y-105613171D01*
X134036298Y-105613173D02*
G75*
G03*
X134036290Y-105652189I98102J-19527D01*
G01*
X134036289Y-105652189D02*
X134051513Y-105728726D01*
X134051509Y-105728727D02*
G75*
G03*
X134066445Y-105764774I98091J19527D01*
G01*
X134066445Y-105764774D02*
X134109799Y-105829658D01*
X134109800Y-105829657D02*
G75*
G03*
X134111336Y-105831889I88700J59357D01*
G01*
X134111335Y-105831890D02*
X136472602Y-109166581D01*
X136474137Y-109168813D02*
G75*
G03*
X136472601Y-109166581I-84637J-56587D01*
G01*
X136474137Y-109168813D02*
X136517492Y-109233698D01*
X136522346Y-109241772D02*
G75*
G03*
X136517492Y-109233698I-88346J-47628D01*
G01*
X136522351Y-109241769D02*
X137851674Y-111705407D01*
X137851675Y-111705406D02*
G75*
G03*
X137852947Y-111707693I84325J45406D01*
G01*
X137852946Y-111707693D02*
X138055165Y-112060086D01*
%TO.N,mcu_mcu-etm_clk*%
X139855165Y-110710086D02*
X138884808Y-108713707D01*
X138884811Y-108713705D02*
G75*
G03*
X138879154Y-108703607I-90011J-43795D01*
G01*
X138879154Y-108703607D02*
X136813812Y-105468849D01*
%TO.N,mcu_conn-uart_rx*%
X138505165Y-112060086D02*
X138152772Y-112262305D01*
X138122510Y-112273653D02*
G75*
G03*
X138152772Y-112262305I-19510J98053D01*
G01*
X138122509Y-112273649D02*
X138074674Y-112283164D01*
X138055165Y-112285077D02*
G75*
G03*
X138074674Y-112283164I35J100077D01*
G01*
X138055165Y-112285086D02*
X137605165Y-112285086D01*
X137585657Y-112283159D02*
G75*
G03*
X137605165Y-112285086I19543J98159D01*
G01*
X137585656Y-112283164D02*
X137537820Y-112273649D01*
X137501769Y-112258722D02*
G75*
G03*
X137537820Y-112273649I55531J83122D01*
G01*
X137501772Y-112258718D02*
X137461219Y-112231621D01*
X137433641Y-112204023D02*
G75*
G03*
X137461219Y-112231620I83159J55523D01*
G01*
X137433629Y-112204031D02*
X137406533Y-112163478D01*
X137406166Y-112162922D02*
G75*
G03*
X137406534Y-112163477I41834J27322D01*
G01*
X137406165Y-112162923D02*
X136468666Y-110739423D01*
X136468666Y-110739423D02*
G75*
G03*
X136467792Y-110738105I-188366J-123977D01*
G01*
X136467792Y-110738105D02*
X136424437Y-110673220D01*
X136424444Y-110673215D02*
G75*
G03*
X136394979Y-110637308I-197444J-131985D01*
G01*
X136394979Y-110637308D02*
X128307419Y-102542244D01*
%TO.N,VDD3P0*%
X139485444Y-106837731D02*
X138572146Y-105526019D01*
X138572145Y-105526020D02*
G75*
G03*
X138561634Y-105513303I-82245J-57280D01*
G01*
X138561634Y-105513303D02*
X136876996Y-103787706D01*
X136865414Y-103773399D02*
G75*
G03*
X136876996Y-103787706I83186J55499D01*
G01*
X136865404Y-103773406D02*
X136822049Y-103708522D01*
X136807131Y-103672471D02*
G75*
G03*
X136822050Y-103708521I98069J19471D01*
G01*
X136807118Y-103672474D02*
X136791893Y-103595937D01*
X136791883Y-103556917D02*
G75*
G03*
X136791893Y-103595937I98117J-19483D01*
G01*
X136791893Y-103556919D02*
X136807118Y-103480382D01*
X136822052Y-103444336D02*
G75*
G03*
X136807118Y-103480382I83148J-55564D01*
G01*
X136822049Y-103444334D02*
X136865404Y-103379450D01*
X136893001Y-103351871D02*
G75*
G03*
X136865405Y-103379450I55499J-83129D01*
G01*
X136892994Y-103351860D02*
X136957878Y-103308505D01*
X136993927Y-103293579D02*
G75*
G03*
X136957878Y-103308505I19473J-98021D01*
G01*
X136993926Y-103293574D02*
X137070463Y-103278349D01*
X137094177Y-103276509D02*
G75*
G03*
X137070463Y-103278349I-4177J-99891D01*
G01*
X137094177Y-103276516D02*
X137739017Y-103303655D01*
X137754320Y-103305491D02*
G75*
G03*
X137739017Y-103303655I-19520J-98009D01*
G01*
X137754321Y-103305488D02*
X137830857Y-103320712D01*
X137838158Y-103322454D02*
G75*
G03*
X137830857Y-103320713I-26858J-96446D01*
G01*
X137838159Y-103322451D02*
X150032519Y-106716031D01*
%TO.N,codec-i2c-net_scl*%
X150674476Y-105915097D02*
X149135986Y-104674643D01*
%TO.N,V14*%
X139386679Y-116595891D02*
X140988964Y-113770551D01*
X140991879Y-113765736D02*
G75*
G03*
X140988964Y-113770551I84221J-54264D01*
G01*
X140991877Y-113765735D02*
X142136702Y-111988207D01*
X142137627Y-111986797D02*
G75*
G03*
X142136702Y-111988207I92773J-61903D01*
G01*
X142137627Y-111986797D02*
X142180982Y-111921913D01*
X142184353Y-111917175D02*
G75*
G03*
X142180982Y-111921913I78947J-59725D01*
G01*
X142184352Y-111917174D02*
X142868596Y-111011859D01*
X142868594Y-111011857D02*
G75*
G03*
X142871965Y-111007120I-80494J60857D01*
G01*
X142871966Y-111007120D02*
X142915320Y-110942235D01*
X142915321Y-110942235D02*
G75*
G03*
X142922845Y-110928852I-83121J55535D01*
G01*
X142922845Y-110928852D02*
X143452612Y-109789874D01*
%TO.N,codec-i2c-net_sda*%
X149104453Y-105382189D02*
X150580707Y-106122214D01*
X150580703Y-106122221D02*
G75*
G03*
X150606643Y-106131112I45897J91621D01*
G01*
X150606643Y-106131112D02*
X150654479Y-106140628D01*
X150654479Y-106140629D02*
G75*
G03*
X150667773Y-106142378I20021J100829D01*
G01*
X150667773Y-106142378D02*
X151014476Y-106165097D01*
%TO.N,mcu_hap-gpio1_gpio*%
X134334368Y-105632680D02*
X136633308Y-109159564D01*
X136639780Y-109170087D02*
G75*
G03*
X136633308Y-109159564I-204780J-118713D01*
G01*
X136639783Y-109170085D02*
X138055165Y-111610086D01*
%TO.N,mcu_hap-i2c_scl*%
X133976982Y-104745882D02*
X133897855Y-105611049D01*
X133897862Y-105611050D02*
G75*
G03*
X133901432Y-105679014I236538J-21650D01*
G01*
X133901431Y-105679014D02*
X133916655Y-105755551D01*
X133916653Y-105755551D02*
G75*
G03*
X133941946Y-105824494I232947J46351D01*
G01*
X133941945Y-105824494D02*
X135977363Y-109490866D01*
X135977363Y-109490866D02*
G75*
G03*
X135980324Y-109495853I87637J48666D01*
G01*
X135980323Y-109495853D02*
X137605165Y-112060086D01*
%TO.N,D+*%
X142309553Y-113834073D02*
X142395033Y-112834739D01*
X142396591Y-112823753D02*
G75*
G03*
X142395033Y-112834739I98309J-19547D01*
G01*
X142396591Y-112823753D02*
X142411815Y-112747216D01*
X142421837Y-112719317D02*
G75*
G03*
X142411815Y-112747216I88063J-47383D01*
G01*
X142421844Y-112719321D02*
X142678376Y-112242832D01*
X142678375Y-112242832D02*
G75*
G03*
X142681532Y-112236432I-87675J47232D01*
G01*
X142681533Y-112236432D02*
X143728594Y-109907415D01*
X143728597Y-109907416D02*
G75*
G03*
X143735465Y-109885920I-91297J41016D01*
G01*
X143735466Y-109885920D02*
X143750690Y-109809383D01*
X143750700Y-109809385D02*
G75*
G03*
X143750690Y-109770365I-98100J19485D01*
G01*
X143750690Y-109770365D02*
X143735466Y-109693828D01*
X143735454Y-109693830D02*
G75*
G03*
X143720533Y-109657780I-98054J-19470D01*
G01*
X143720534Y-109657780D02*
X143677180Y-109592896D01*
X143677181Y-109592895D02*
G75*
G03*
X143659119Y-109572533I-83081J-55505D01*
G01*
X143659119Y-109572533D02*
X141404418Y-107639553D01*
X141396164Y-107632135D02*
G75*
G03*
X141404419Y-107639552I163736J173935D01*
G01*
X141396164Y-107632135D02*
X137089972Y-103576428D01*
%TO.N,D-*%
X137734812Y-103603566D02*
X138200278Y-104237973D01*
X138200284Y-104237969D02*
G75*
G03*
X138210168Y-104249503I80716J59169D01*
G01*
X138210168Y-104249503D02*
X141488262Y-107529930D01*
X141488263Y-107529929D02*
G75*
G03*
X141493913Y-107535163I71237J71229D01*
G01*
X141493912Y-107535164D02*
X143748613Y-109468144D01*
X143791493Y-109516514D02*
G75*
G03*
X143748613Y-109468144I-197493J-131886D01*
G01*
X143791507Y-109516505D02*
X143834862Y-109581389D01*
X143870313Y-109667005D02*
G75*
G03*
X143834862Y-109581389I-232913J-46295D01*
G01*
X143870324Y-109667003D02*
X143885548Y-109743540D01*
X143885558Y-109836210D02*
G75*
G03*
X143885548Y-109743540I-232958J46310D01*
G01*
X143885548Y-109836208D02*
X143870324Y-109912745D01*
X143869617Y-109916161D02*
G75*
G03*
X143870323Y-109912745I-244717J52361D01*
G01*
X143869618Y-109916161D02*
X142929816Y-114303052D01*
%TD*%
%TA.AperFunction,Conductor*%
%TO.N,VDDSYS*%
G36*
X131442529Y-98686112D02*
G01*
X131456880Y-98693644D01*
X134071869Y-98693644D01*
X134106517Y-98707996D01*
X134120869Y-98742644D01*
X134120868Y-100351084D01*
X134117686Y-100368455D01*
X134116822Y-100370733D01*
X134116822Y-100370734D01*
X134120690Y-100402592D01*
X134120869Y-100405548D01*
X134120869Y-100415061D01*
X134123145Y-100424297D01*
X134123678Y-100427207D01*
X134127547Y-100459064D01*
X134127548Y-100459066D01*
X134128930Y-100461068D01*
X134136176Y-100477167D01*
X134136761Y-100479537D01*
X134148556Y-100492851D01*
X134158037Y-100503552D01*
X134159861Y-100505880D01*
X134178093Y-100532294D01*
X134180246Y-100533424D01*
X134194150Y-100544316D01*
X134195763Y-100546137D01*
X134195764Y-100546137D01*
X134195765Y-100546138D01*
X134225772Y-100557518D01*
X134228456Y-100558726D01*
X134256880Y-100573644D01*
X134259309Y-100573644D01*
X134276685Y-100576828D01*
X134278960Y-100577691D01*
X134278960Y-100577690D01*
X134278961Y-100577691D01*
X134286068Y-100576828D01*
X134310820Y-100573823D01*
X134313775Y-100573644D01*
X135109309Y-100573644D01*
X135126685Y-100576828D01*
X135128960Y-100577691D01*
X135128960Y-100577690D01*
X135128961Y-100577691D01*
X135136068Y-100576828D01*
X135160820Y-100573823D01*
X135163775Y-100573644D01*
X135173285Y-100573644D01*
X135173286Y-100573644D01*
X135182527Y-100571365D01*
X135185434Y-100570833D01*
X135209023Y-100567968D01*
X135217291Y-100566965D01*
X135219289Y-100565585D01*
X135235400Y-100558333D01*
X135237762Y-100557752D01*
X135261794Y-100536460D01*
X135264086Y-100534664D01*
X135290519Y-100516420D01*
X135291649Y-100514265D01*
X135302544Y-100500359D01*
X135304363Y-100498748D01*
X135315742Y-100468742D01*
X135316958Y-100466044D01*
X135330882Y-100439513D01*
X135331869Y-100437633D01*
X135331869Y-100435201D01*
X135335053Y-100417827D01*
X135335916Y-100415552D01*
X135333789Y-100398037D01*
X135332048Y-100383693D01*
X135331869Y-100380738D01*
X135331869Y-99981882D01*
X136811957Y-99981882D01*
X136830359Y-100086247D01*
X136883343Y-100178018D01*
X136883345Y-100178021D01*
X136964524Y-100246138D01*
X137064107Y-100282382D01*
X137170079Y-100282382D01*
X137269661Y-100246138D01*
X137350840Y-100178021D01*
X137350842Y-100178018D01*
X137403826Y-100086247D01*
X137403826Y-100086246D01*
X137403827Y-100086245D01*
X137422229Y-99981882D01*
X137403827Y-99877519D01*
X137403826Y-99877517D01*
X137403826Y-99877516D01*
X137350842Y-99785745D01*
X137350840Y-99785742D01*
X137269661Y-99717625D01*
X137170079Y-99681382D01*
X137064107Y-99681382D01*
X136964524Y-99717625D01*
X136883345Y-99785742D01*
X136883343Y-99785745D01*
X136830359Y-99877516D01*
X136811957Y-99981882D01*
X135331869Y-99981882D01*
X135331869Y-98742644D01*
X135346221Y-98707996D01*
X135380869Y-98693644D01*
X138821869Y-98693644D01*
X138856517Y-98707996D01*
X138870869Y-98742644D01*
X138870869Y-100351084D01*
X138867685Y-100368460D01*
X138866822Y-100370735D01*
X138870690Y-100402592D01*
X138870869Y-100405548D01*
X138870869Y-100415061D01*
X138873145Y-100424297D01*
X138873678Y-100427207D01*
X138877547Y-100459064D01*
X138877548Y-100459066D01*
X138878930Y-100461068D01*
X138886176Y-100477167D01*
X138886761Y-100479537D01*
X138898556Y-100492851D01*
X138908037Y-100503552D01*
X138909861Y-100505880D01*
X138928093Y-100532294D01*
X138930246Y-100533424D01*
X138944150Y-100544316D01*
X138945763Y-100546137D01*
X138945764Y-100546137D01*
X138945765Y-100546138D01*
X138975772Y-100557518D01*
X138978456Y-100558726D01*
X139006880Y-100573644D01*
X139009309Y-100573644D01*
X139026685Y-100576828D01*
X139028960Y-100577691D01*
X139028960Y-100577690D01*
X139028961Y-100577691D01*
X139036068Y-100576828D01*
X139060820Y-100573823D01*
X139063775Y-100573644D01*
X139859309Y-100573644D01*
X139876685Y-100576828D01*
X139878960Y-100577691D01*
X139878960Y-100577690D01*
X139878961Y-100577691D01*
X139886068Y-100576828D01*
X139910820Y-100573823D01*
X139913775Y-100573644D01*
X139923285Y-100573644D01*
X139923286Y-100573644D01*
X139932527Y-100571365D01*
X139935434Y-100570833D01*
X139959023Y-100567968D01*
X139967291Y-100566965D01*
X139969289Y-100565585D01*
X139985400Y-100558333D01*
X139987762Y-100557752D01*
X140011794Y-100536460D01*
X140014086Y-100534664D01*
X140040519Y-100516420D01*
X140041649Y-100514265D01*
X140052544Y-100500359D01*
X140054363Y-100498748D01*
X140065742Y-100468742D01*
X140066958Y-100466044D01*
X140080882Y-100439513D01*
X140081869Y-100437633D01*
X140081869Y-100435201D01*
X140085053Y-100417827D01*
X140085916Y-100415552D01*
X140083789Y-100398037D01*
X140082048Y-100383693D01*
X140081869Y-100380738D01*
X140081869Y-100348780D01*
X144940460Y-100348780D01*
X144958862Y-100453145D01*
X145011846Y-100544916D01*
X145011848Y-100544919D01*
X145093027Y-100613036D01*
X145192610Y-100649280D01*
X145226904Y-100649280D01*
X145261552Y-100663632D01*
X145275904Y-100698280D01*
X145261552Y-100732928D01*
X145243662Y-100744325D01*
X145242563Y-100744724D01*
X145161384Y-100812841D01*
X145161382Y-100812844D01*
X145108398Y-100904615D01*
X145089996Y-101008981D01*
X145108398Y-101113346D01*
X145161382Y-101205117D01*
X145161384Y-101205120D01*
X145242563Y-101273237D01*
X145342146Y-101309481D01*
X145448118Y-101309481D01*
X145475027Y-101299687D01*
X145933318Y-101299687D01*
X145943422Y-101350486D01*
X145950819Y-101387673D01*
X146000658Y-101462264D01*
X146019730Y-101475007D01*
X146075250Y-101512104D01*
X146163236Y-101529605D01*
X146251222Y-101512104D01*
X146325813Y-101462264D01*
X146325813Y-101462263D01*
X146328588Y-101459490D01*
X146363236Y-101445138D01*
X146397884Y-101459490D01*
X146403433Y-101465039D01*
X146417785Y-101499687D01*
X146403433Y-101534335D01*
X146400659Y-101537108D01*
X146350819Y-101611700D01*
X146333318Y-101699687D01*
X146350819Y-101787673D01*
X146400658Y-101862264D01*
X146450498Y-101895565D01*
X146475250Y-101912104D01*
X146563236Y-101929605D01*
X146651222Y-101912104D01*
X146725813Y-101862264D01*
X146775653Y-101787673D01*
X146793154Y-101699687D01*
X146775653Y-101611701D01*
X146744606Y-101565236D01*
X146725812Y-101537108D01*
X146723039Y-101534335D01*
X146708687Y-101499687D01*
X146723039Y-101465039D01*
X146725812Y-101462265D01*
X146725813Y-101462264D01*
X146775653Y-101387673D01*
X146793154Y-101299687D01*
X147133318Y-101299687D01*
X147150819Y-101387673D01*
X147200658Y-101462264D01*
X147219730Y-101475007D01*
X147275250Y-101512104D01*
X147363236Y-101529605D01*
X147451222Y-101512104D01*
X147525813Y-101462264D01*
X147575653Y-101387673D01*
X147593154Y-101299687D01*
X147575653Y-101211701D01*
X147546242Y-101167684D01*
X147525813Y-101137109D01*
X147451222Y-101087270D01*
X147363236Y-101069769D01*
X147275249Y-101087270D01*
X147200658Y-101137109D01*
X147150819Y-101211700D01*
X147133318Y-101299687D01*
X146793154Y-101299687D01*
X146775653Y-101211701D01*
X146746242Y-101167684D01*
X146725813Y-101137109D01*
X146651222Y-101087270D01*
X146563236Y-101069769D01*
X146475249Y-101087270D01*
X146400657Y-101137110D01*
X146397884Y-101139884D01*
X146363236Y-101154236D01*
X146328588Y-101139884D01*
X146325814Y-101137110D01*
X146251222Y-101087270D01*
X146163236Y-101069769D01*
X146075249Y-101087270D01*
X146000658Y-101137109D01*
X145950819Y-101211700D01*
X145938449Y-101273893D01*
X145933318Y-101299687D01*
X145475027Y-101299687D01*
X145547700Y-101273237D01*
X145628879Y-101205120D01*
X145628881Y-101205117D01*
X145636812Y-101191381D01*
X145676140Y-101123262D01*
X145681865Y-101113346D01*
X145681865Y-101113345D01*
X145681866Y-101113344D01*
X145700268Y-101008981D01*
X145681866Y-100904618D01*
X145681865Y-100904616D01*
X145681865Y-100904615D01*
X145628881Y-100812844D01*
X145628879Y-100812841D01*
X145547700Y-100744724D01*
X145448118Y-100708481D01*
X145413824Y-100708481D01*
X145379176Y-100694129D01*
X145364824Y-100659481D01*
X145379176Y-100624833D01*
X145397066Y-100613436D01*
X145398164Y-100613036D01*
X145479343Y-100544919D01*
X145479345Y-100544916D01*
X145479692Y-100544316D01*
X145527755Y-100461068D01*
X145532329Y-100453145D01*
X145532329Y-100453144D01*
X145532330Y-100453143D01*
X145550732Y-100348780D01*
X145539031Y-100282418D01*
X145864996Y-100282418D01*
X145883398Y-100386783D01*
X145936382Y-100478554D01*
X145936384Y-100478557D01*
X146017563Y-100546674D01*
X146117146Y-100582918D01*
X146223118Y-100582918D01*
X146322700Y-100546674D01*
X146403879Y-100478557D01*
X146403881Y-100478554D01*
X146426423Y-100439511D01*
X146455625Y-100388930D01*
X146455881Y-100388487D01*
X147127056Y-100388487D01*
X147145458Y-100492853D01*
X147198442Y-100584624D01*
X147198444Y-100584627D01*
X147279623Y-100652744D01*
X147379206Y-100688988D01*
X147485178Y-100688988D01*
X147584760Y-100652744D01*
X147665939Y-100584627D01*
X147665941Y-100584624D01*
X147673308Y-100571865D01*
X147714595Y-100500353D01*
X147718925Y-100492853D01*
X147718925Y-100492852D01*
X147718926Y-100492851D01*
X147737328Y-100388488D01*
X147718926Y-100284125D01*
X147718925Y-100284123D01*
X147718925Y-100284122D01*
X147665941Y-100192351D01*
X147665939Y-100192348D01*
X147584760Y-100124231D01*
X147486390Y-100088429D01*
X149730082Y-100088429D01*
X149748484Y-100192795D01*
X149801468Y-100284566D01*
X149801470Y-100284569D01*
X149882649Y-100352686D01*
X149982232Y-100388930D01*
X150088204Y-100388930D01*
X150187786Y-100352686D01*
X150189886Y-100350924D01*
X150408659Y-100350924D01*
X150427061Y-100455289D01*
X150480045Y-100547060D01*
X150480047Y-100547063D01*
X150561226Y-100615180D01*
X150660809Y-100651424D01*
X150766781Y-100651424D01*
X150866363Y-100615180D01*
X150947542Y-100547063D01*
X150947544Y-100547060D01*
X150953325Y-100537048D01*
X150993559Y-100467360D01*
X151000528Y-100455289D01*
X151000528Y-100455288D01*
X151000529Y-100455287D01*
X151018931Y-100350924D01*
X151000529Y-100246561D01*
X151000528Y-100246559D01*
X151000528Y-100246558D01*
X150947544Y-100154787D01*
X150947542Y-100154784D01*
X150866363Y-100086667D01*
X150766781Y-100050424D01*
X150660809Y-100050424D01*
X150561226Y-100086667D01*
X150480047Y-100154784D01*
X150480045Y-100154787D01*
X150427061Y-100246558D01*
X150408659Y-100350924D01*
X150189886Y-100350924D01*
X150268965Y-100284569D01*
X150268967Y-100284566D01*
X150321951Y-100192795D01*
X150321951Y-100192794D01*
X150321952Y-100192793D01*
X150340354Y-100088430D01*
X150321952Y-99984067D01*
X150321951Y-99984065D01*
X150321951Y-99984064D01*
X150268967Y-99892293D01*
X150268965Y-99892290D01*
X150187786Y-99824173D01*
X150088204Y-99787930D01*
X149982232Y-99787930D01*
X149882649Y-99824173D01*
X149801470Y-99892290D01*
X149801468Y-99892293D01*
X149748484Y-99984064D01*
X149730082Y-100088429D01*
X147486390Y-100088429D01*
X147485178Y-100087988D01*
X147379206Y-100087988D01*
X147279623Y-100124231D01*
X147198444Y-100192348D01*
X147198442Y-100192351D01*
X147145458Y-100284122D01*
X147127056Y-100388487D01*
X146455881Y-100388487D01*
X146456865Y-100386783D01*
X146456865Y-100386782D01*
X146456866Y-100386781D01*
X146475268Y-100282418D01*
X146456866Y-100178055D01*
X146456865Y-100178053D01*
X146456865Y-100178052D01*
X146403881Y-100086281D01*
X146403879Y-100086278D01*
X146322700Y-100018161D01*
X146223118Y-99981918D01*
X146117146Y-99981918D01*
X146017563Y-100018161D01*
X145936384Y-100086278D01*
X145936382Y-100086281D01*
X145883398Y-100178052D01*
X145864996Y-100282418D01*
X145539031Y-100282418D01*
X145532330Y-100244417D01*
X145532329Y-100244415D01*
X145532329Y-100244414D01*
X145479345Y-100152643D01*
X145479343Y-100152640D01*
X145398164Y-100084523D01*
X145298582Y-100048280D01*
X145192610Y-100048280D01*
X145093027Y-100084523D01*
X145011848Y-100152640D01*
X145011846Y-100152643D01*
X144958862Y-100244414D01*
X144940460Y-100348780D01*
X140081869Y-100348780D01*
X140081869Y-98742644D01*
X140096221Y-98707996D01*
X140130869Y-98693644D01*
X142723286Y-98693644D01*
X142770836Y-98681924D01*
X142782562Y-98680500D01*
X144635341Y-98680500D01*
X144669989Y-98694852D01*
X144684341Y-98729500D01*
X144669989Y-98764148D01*
X144665493Y-98767597D01*
X144665615Y-98767742D01*
X144581151Y-98838614D01*
X144581149Y-98838617D01*
X144528165Y-98930388D01*
X144509763Y-99034754D01*
X144528165Y-99139119D01*
X144581149Y-99230890D01*
X144581151Y-99230893D01*
X144662330Y-99299010D01*
X144761913Y-99335254D01*
X144867885Y-99335254D01*
X144967467Y-99299010D01*
X145048646Y-99230893D01*
X145048648Y-99230890D01*
X145048741Y-99230730D01*
X145075139Y-99185004D01*
X145101632Y-99139119D01*
X145101632Y-99139118D01*
X145101633Y-99139117D01*
X145120035Y-99034754D01*
X145101633Y-98930391D01*
X145101632Y-98930389D01*
X145101632Y-98930388D01*
X145048648Y-98838617D01*
X145048646Y-98838614D01*
X144964183Y-98767742D01*
X144965518Y-98766150D01*
X144947127Y-98742185D01*
X144952020Y-98705003D01*
X144981772Y-98682170D01*
X144994457Y-98680500D01*
X153020500Y-98680500D01*
X153055148Y-98694852D01*
X153069500Y-98729500D01*
X153069500Y-99478643D01*
X153055148Y-99513291D01*
X153020500Y-99527643D01*
X153003742Y-99524688D01*
X152909137Y-99490256D01*
X152803165Y-99490256D01*
X152703582Y-99526499D01*
X152622403Y-99594616D01*
X152622401Y-99594619D01*
X152569417Y-99686390D01*
X152551015Y-99790756D01*
X152569417Y-99895121D01*
X152622401Y-99986892D01*
X152647381Y-100007853D01*
X152664698Y-100041119D01*
X152653420Y-100076886D01*
X152647381Y-100082925D01*
X152603653Y-100119616D01*
X152603651Y-100119619D01*
X152550667Y-100211390D01*
X152532265Y-100315755D01*
X152550667Y-100420121D01*
X152603651Y-100511892D01*
X152603652Y-100511894D01*
X152635479Y-100538599D01*
X152652796Y-100571865D01*
X152641520Y-100607632D01*
X152635480Y-100613672D01*
X152591153Y-100650866D01*
X152591151Y-100650869D01*
X152538167Y-100742640D01*
X152519765Y-100847005D01*
X152538167Y-100951371D01*
X152591151Y-101043142D01*
X152591152Y-101043144D01*
X152622979Y-101069849D01*
X152640296Y-101103115D01*
X152629020Y-101138882D01*
X152622980Y-101144922D01*
X152578653Y-101182116D01*
X152578651Y-101182119D01*
X152525667Y-101273890D01*
X152507265Y-101378256D01*
X152525667Y-101482621D01*
X152578651Y-101574392D01*
X152578652Y-101574393D01*
X152578653Y-101574394D01*
X152589689Y-101583654D01*
X152603631Y-101595353D01*
X152620948Y-101628619D01*
X152609670Y-101664386D01*
X152603631Y-101670425D01*
X152559903Y-101707116D01*
X152559901Y-101707119D01*
X152506917Y-101798890D01*
X152488515Y-101903256D01*
X152506917Y-102007621D01*
X152559901Y-102099392D01*
X152559905Y-102099397D01*
X152605427Y-102137594D01*
X152622745Y-102170859D01*
X152611467Y-102206626D01*
X152605428Y-102212666D01*
X152559903Y-102250866D01*
X152559901Y-102250869D01*
X152506917Y-102342640D01*
X152488515Y-102447005D01*
X152506917Y-102551371D01*
X152559901Y-102643142D01*
X152559903Y-102643145D01*
X152605428Y-102681345D01*
X152622745Y-102714611D01*
X152611467Y-102750378D01*
X152605428Y-102756417D01*
X152559903Y-102794616D01*
X152559901Y-102794619D01*
X152506917Y-102886390D01*
X152488515Y-102990756D01*
X152506917Y-103095121D01*
X152559901Y-103186892D01*
X152559903Y-103186895D01*
X152601105Y-103221467D01*
X152618422Y-103254732D01*
X152607144Y-103290500D01*
X152601105Y-103296539D01*
X152566153Y-103325866D01*
X152566151Y-103325869D01*
X152513167Y-103417640D01*
X152498786Y-103499203D01*
X152494765Y-103522006D01*
X152499317Y-103547819D01*
X152513167Y-103626371D01*
X152566151Y-103718142D01*
X152566152Y-103718144D01*
X152577309Y-103727505D01*
X152597380Y-103744346D01*
X152614697Y-103777612D01*
X152603421Y-103813379D01*
X152597381Y-103819419D01*
X152559903Y-103850866D01*
X152559901Y-103850869D01*
X152506917Y-103942640D01*
X152488515Y-104047005D01*
X152506917Y-104151371D01*
X152559901Y-104243142D01*
X152559903Y-104243145D01*
X152641082Y-104311262D01*
X152740665Y-104347506D01*
X152846637Y-104347506D01*
X152946219Y-104311262D01*
X152989003Y-104275361D01*
X153024770Y-104264084D01*
X153058036Y-104281401D01*
X153069500Y-104312898D01*
X153069500Y-109872534D01*
X153055148Y-109907182D01*
X153020500Y-109921534D01*
X152985852Y-109907182D01*
X152978065Y-109897034D01*
X152954499Y-109856217D01*
X152954497Y-109856214D01*
X152873318Y-109788097D01*
X152773736Y-109751854D01*
X152667764Y-109751854D01*
X152568181Y-109788097D01*
X152487002Y-109856214D01*
X152487000Y-109856217D01*
X152434016Y-109947988D01*
X152415614Y-110052354D01*
X152434016Y-110156719D01*
X152487000Y-110248490D01*
X152487004Y-110248495D01*
X152536759Y-110290244D01*
X152554077Y-110323509D01*
X152542799Y-110359276D01*
X152536760Y-110365316D01*
X152469325Y-110421900D01*
X152469323Y-110421903D01*
X152416339Y-110513674D01*
X152397937Y-110618040D01*
X152416339Y-110722405D01*
X152469323Y-110814176D01*
X152469327Y-110814181D01*
X152537606Y-110871473D01*
X152554924Y-110904738D01*
X152543646Y-110940505D01*
X152537607Y-110946545D01*
X152478163Y-110996424D01*
X152478161Y-110996427D01*
X152425177Y-111088198D01*
X152406775Y-111192564D01*
X152425177Y-111296929D01*
X152478161Y-111388700D01*
X152478163Y-111388703D01*
X152552560Y-111451129D01*
X152569877Y-111484394D01*
X152558599Y-111520162D01*
X152552560Y-111526201D01*
X152478163Y-111588626D01*
X152478161Y-111588629D01*
X152425177Y-111680400D01*
X152406775Y-111784766D01*
X152425177Y-111889131D01*
X152478161Y-111980902D01*
X152478163Y-111980905D01*
X152535975Y-112029414D01*
X152559343Y-112049022D01*
X152571916Y-112053598D01*
X152581040Y-112056919D01*
X152608690Y-112082256D01*
X152610326Y-112119723D01*
X152584989Y-112147373D01*
X152581040Y-112149009D01*
X152559342Y-112156906D01*
X152478163Y-112225022D01*
X152478161Y-112225025D01*
X152425177Y-112316796D01*
X152407087Y-112419391D01*
X152406775Y-112421162D01*
X152406970Y-112422267D01*
X152425177Y-112525527D01*
X152478161Y-112617298D01*
X152478163Y-112617301D01*
X152559342Y-112685418D01*
X152561329Y-112686141D01*
X152600906Y-112700545D01*
X152628557Y-112725881D01*
X152630193Y-112763348D01*
X152604857Y-112790999D01*
X152600907Y-112792635D01*
X152550504Y-112810980D01*
X152469325Y-112879096D01*
X152469323Y-112879099D01*
X152416339Y-112970870D01*
X152397937Y-113075236D01*
X152416339Y-113179601D01*
X152469323Y-113271372D01*
X152469325Y-113271375D01*
X152550504Y-113339492D01*
X152564912Y-113344735D01*
X152579924Y-113350199D01*
X152607574Y-113375534D01*
X152609211Y-113413002D01*
X152583876Y-113440652D01*
X152579926Y-113442289D01*
X152541664Y-113456215D01*
X152460486Y-113524331D01*
X152460484Y-113524334D01*
X152407500Y-113616105D01*
X152393679Y-113694489D01*
X152389098Y-113720471D01*
X152391526Y-113734239D01*
X152407500Y-113824836D01*
X152460484Y-113916607D01*
X152460486Y-113916610D01*
X152541665Y-113984727D01*
X152591506Y-114002867D01*
X152636218Y-114019140D01*
X152663869Y-114044476D01*
X152665505Y-114081943D01*
X152640169Y-114109594D01*
X152636219Y-114111230D01*
X152541665Y-114145644D01*
X152460486Y-114213760D01*
X152460484Y-114213763D01*
X152407500Y-114305534D01*
X152389098Y-114409900D01*
X152407500Y-114514265D01*
X152460484Y-114606036D01*
X152460486Y-114606039D01*
X152541665Y-114674156D01*
X152641248Y-114710400D01*
X152747220Y-114710400D01*
X152846802Y-114674156D01*
X152927981Y-114606039D01*
X152927983Y-114606036D01*
X152971243Y-114531108D01*
X152978065Y-114519290D01*
X153007817Y-114496461D01*
X153045000Y-114501356D01*
X153067830Y-114531108D01*
X153069500Y-114543791D01*
X153069500Y-114961335D01*
X153055148Y-114995983D01*
X153020500Y-115010335D01*
X152985852Y-114995983D01*
X152978065Y-114985835D01*
X152945660Y-114929708D01*
X152945658Y-114929705D01*
X152864479Y-114861588D01*
X152764897Y-114825345D01*
X152658925Y-114825345D01*
X152559342Y-114861588D01*
X152478163Y-114929705D01*
X152478161Y-114929708D01*
X152425177Y-115021479D01*
X152416827Y-115068835D01*
X152406775Y-115125845D01*
X152411366Y-115151884D01*
X152425177Y-115230210D01*
X152478161Y-115321981D01*
X152478163Y-115321984D01*
X152517078Y-115354637D01*
X152534395Y-115387902D01*
X152523117Y-115423670D01*
X152517079Y-115429708D01*
X152495655Y-115447685D01*
X152495652Y-115447689D01*
X152442668Y-115539459D01*
X152426454Y-115631414D01*
X152424266Y-115643825D01*
X152426487Y-115656419D01*
X152442668Y-115748190D01*
X152495652Y-115839960D01*
X152495656Y-115839965D01*
X152507240Y-115849685D01*
X152524557Y-115882950D01*
X152513280Y-115918717D01*
X152497990Y-115930880D01*
X152381283Y-115990345D01*
X152230954Y-116099566D01*
X152099566Y-116230954D01*
X151990344Y-116381285D01*
X151905988Y-116546843D01*
X151848568Y-116723565D01*
X151848567Y-116723568D01*
X151819500Y-116907093D01*
X151819500Y-117270500D01*
X151805148Y-117305148D01*
X151770500Y-117319500D01*
X135689932Y-117319500D01*
X135655284Y-117305148D01*
X135640932Y-117270500D01*
X135655284Y-117235852D01*
X135658435Y-117232964D01*
X135695542Y-117201827D01*
X135695544Y-117201824D01*
X135698739Y-117196291D01*
X135748529Y-117110051D01*
X135766931Y-117005688D01*
X135748529Y-116901325D01*
X135748528Y-116901323D01*
X135748528Y-116901322D01*
X135695544Y-116809551D01*
X135695542Y-116809548D01*
X135614363Y-116741431D01*
X135514781Y-116705188D01*
X135408809Y-116705188D01*
X135309226Y-116741431D01*
X135224763Y-116812305D01*
X135223639Y-116810966D01*
X135196087Y-116825306D01*
X135160324Y-116814028D01*
X135087315Y-116752767D01*
X134987732Y-116716523D01*
X134881760Y-116716523D01*
X134782177Y-116752766D01*
X134705009Y-116817519D01*
X134669241Y-116828797D01*
X134642016Y-116817519D01*
X134571600Y-116758434D01*
X134472017Y-116722190D01*
X134366045Y-116722190D01*
X134266461Y-116758434D01*
X134266460Y-116758434D01*
X134199569Y-116814563D01*
X134163802Y-116825841D01*
X134135628Y-116811176D01*
X134134681Y-116812305D01*
X134050217Y-116741431D01*
X133950635Y-116705188D01*
X133844663Y-116705188D01*
X133745079Y-116741432D01*
X133745078Y-116741432D01*
X133677498Y-116798139D01*
X133641731Y-116809417D01*
X133614505Y-116798139D01*
X133540170Y-116735764D01*
X133440588Y-116699521D01*
X133334616Y-116699521D01*
X133235033Y-116735764D01*
X133160309Y-116798466D01*
X133124541Y-116809744D01*
X133097316Y-116798466D01*
X133025347Y-116738078D01*
X132925764Y-116701834D01*
X132819792Y-116701834D01*
X132720208Y-116738078D01*
X132720207Y-116738078D01*
X132645000Y-116801185D01*
X132609233Y-116812463D01*
X132582008Y-116801185D01*
X132506799Y-116738078D01*
X132407216Y-116701834D01*
X132301244Y-116701834D01*
X132201660Y-116738078D01*
X132201659Y-116738078D01*
X132127597Y-116800224D01*
X132091830Y-116811502D01*
X132064605Y-116800224D01*
X131993918Y-116740912D01*
X131894335Y-116704668D01*
X131788363Y-116704668D01*
X131688779Y-116740912D01*
X131688778Y-116740912D01*
X131615538Y-116802368D01*
X131579771Y-116813646D01*
X131552545Y-116802368D01*
X131530291Y-116783695D01*
X131493432Y-116752766D01*
X131477764Y-116739619D01*
X131378183Y-116703376D01*
X131272211Y-116703376D01*
X131172627Y-116739620D01*
X131172626Y-116739620D01*
X131109455Y-116792627D01*
X131073688Y-116803905D01*
X131040423Y-116786588D01*
X131037994Y-116783693D01*
X130956814Y-116715575D01*
X130857232Y-116679332D01*
X130751260Y-116679332D01*
X130651677Y-116715575D01*
X130570498Y-116783692D01*
X130570496Y-116783695D01*
X130517512Y-116875466D01*
X130499110Y-116979832D01*
X130517512Y-117084197D01*
X130570496Y-117175968D01*
X130570498Y-117175971D01*
X130638420Y-117232964D01*
X130655737Y-117266229D01*
X130644459Y-117301997D01*
X130611194Y-117319314D01*
X130606923Y-117319500D01*
X125979500Y-117319500D01*
X125944852Y-117305148D01*
X125930500Y-117270500D01*
X125930500Y-114320626D01*
X135077830Y-114320626D01*
X135078603Y-114325008D01*
X135096232Y-114424991D01*
X135149216Y-114516762D01*
X135149218Y-114516765D01*
X135230397Y-114584882D01*
X135329980Y-114621126D01*
X135435952Y-114621126D01*
X135456065Y-114613805D01*
X135493532Y-114615439D01*
X135506216Y-114623988D01*
X136092359Y-115169871D01*
X136170481Y-115242627D01*
X136171818Y-115243685D01*
X136171942Y-115243768D01*
X136171944Y-115243770D01*
X136180151Y-115249253D01*
X136187042Y-115253859D01*
X136198447Y-115261480D01*
X136213231Y-115271360D01*
X136213232Y-115271360D01*
X136218922Y-115275162D01*
X136222821Y-115278359D01*
X136222832Y-115278345D01*
X136225382Y-115280295D01*
X136225386Y-115280299D01*
X136229850Y-115282867D01*
X136233506Y-115284971D01*
X136234892Y-115285831D01*
X136242708Y-115291054D01*
X136242711Y-115291055D01*
X136245588Y-115292474D01*
X136245580Y-115292489D01*
X136250195Y-115294577D01*
X136273334Y-115307899D01*
X136273402Y-115307927D01*
X138052540Y-116331634D01*
X139159052Y-116968316D01*
X139159115Y-116968362D01*
X139164165Y-116971266D01*
X139164166Y-116971267D01*
X139173904Y-116976867D01*
X139173925Y-116976894D01*
X139191466Y-116986976D01*
X139191466Y-116986977D01*
X139202684Y-116993425D01*
X139202689Y-116993427D01*
X139203289Y-116993772D01*
X139203339Y-116993799D01*
X139207192Y-116996016D01*
X139207194Y-116996016D01*
X139207195Y-116996017D01*
X139207282Y-116996053D01*
X139214188Y-116998470D01*
X139226383Y-117003818D01*
X139238972Y-117007776D01*
X139245829Y-117010527D01*
X139245887Y-117010546D01*
X139245888Y-117010546D01*
X139245894Y-117010549D01*
X139246570Y-117010683D01*
X139246638Y-117010725D01*
X139263760Y-117014102D01*
X139263760Y-117014103D01*
X139264490Y-117014247D01*
X139339468Y-117029162D01*
X139339469Y-117029162D01*
X139358025Y-117032858D01*
X139358062Y-117032860D01*
X139358065Y-117032861D01*
X139358067Y-117032860D01*
X139358728Y-117032904D01*
X139366186Y-117033059D01*
X139370676Y-117033544D01*
X139371732Y-117033658D01*
X139371992Y-117033662D01*
X139377380Y-117033761D01*
X139384818Y-117034542D01*
X139385442Y-117034579D01*
X139385444Y-117034578D01*
X139385450Y-117034580D01*
X139392380Y-117034086D01*
X139392425Y-117034085D01*
X139392957Y-117034047D01*
X139399881Y-117033552D01*
X139403544Y-117033292D01*
X139403544Y-117033293D01*
X139434963Y-117031064D01*
X139434963Y-117031063D01*
X139440823Y-117030648D01*
X139440886Y-117030635D01*
X140828146Y-116931928D01*
X140863726Y-116943784D01*
X140874059Y-116956304D01*
X140881553Y-116969284D01*
X140881555Y-116969287D01*
X140962734Y-117037404D01*
X141062317Y-117073648D01*
X141168289Y-117073648D01*
X141267871Y-117037404D01*
X141349050Y-116969287D01*
X141349052Y-116969284D01*
X141370620Y-116931928D01*
X141402037Y-116877511D01*
X141420439Y-116773148D01*
X141402037Y-116668785D01*
X141402036Y-116668783D01*
X141402036Y-116668782D01*
X141349052Y-116577011D01*
X141349050Y-116577008D01*
X141267871Y-116508891D01*
X141168289Y-116472648D01*
X141062317Y-116472648D01*
X140962734Y-116508891D01*
X140881555Y-116577008D01*
X140881553Y-116577011D01*
X140849754Y-116632089D01*
X140820001Y-116654919D01*
X140810797Y-116656465D01*
X139729419Y-116733407D01*
X139693839Y-116721551D01*
X139677065Y-116688009D01*
X139677684Y-116676028D01*
X139691815Y-116595891D01*
X139673413Y-116491528D01*
X139673412Y-116491526D01*
X139673412Y-116491525D01*
X139652673Y-116455605D01*
X139647778Y-116418423D01*
X139652482Y-116406938D01*
X139957646Y-115868836D01*
X143582650Y-115868836D01*
X143585706Y-115884198D01*
X143600151Y-115956822D01*
X143649990Y-116031413D01*
X143699830Y-116064714D01*
X143724582Y-116081253D01*
X143812568Y-116098754D01*
X143900554Y-116081253D01*
X143975145Y-116031413D01*
X144024985Y-115956822D01*
X144031772Y-115922695D01*
X144052608Y-115891514D01*
X144089386Y-115884197D01*
X144162568Y-115898754D01*
X144235746Y-115884198D01*
X144272527Y-115891515D01*
X144293362Y-115922697D01*
X144300150Y-115956820D01*
X144349990Y-116031413D01*
X144399830Y-116064714D01*
X144424582Y-116081253D01*
X144512568Y-116098754D01*
X144600554Y-116081253D01*
X144675145Y-116031413D01*
X144724985Y-115956822D01*
X144742486Y-115868836D01*
X144724985Y-115780850D01*
X144675145Y-115706259D01*
X144675144Y-115706257D01*
X144672371Y-115703484D01*
X144658019Y-115668836D01*
X144672371Y-115634188D01*
X144675144Y-115631414D01*
X144708929Y-115580851D01*
X144724985Y-115556822D01*
X144742486Y-115468836D01*
X144724985Y-115380850D01*
X144697663Y-115339959D01*
X144675145Y-115306258D01*
X144600554Y-115256419D01*
X144512568Y-115238918D01*
X144424581Y-115256419D01*
X144349990Y-115306258D01*
X144300150Y-115380851D01*
X144293362Y-115414975D01*
X144272526Y-115446157D01*
X144235746Y-115453473D01*
X144162568Y-115438918D01*
X144162567Y-115438918D01*
X144074581Y-115456419D01*
X143999990Y-115506258D01*
X143950150Y-115580851D01*
X143943362Y-115614975D01*
X143922526Y-115646157D01*
X143885746Y-115653473D01*
X143812568Y-115638918D01*
X143812567Y-115638918D01*
X143724581Y-115656419D01*
X143649990Y-115706258D01*
X143600151Y-115780849D01*
X143588393Y-115839965D01*
X143582650Y-115868836D01*
X139957646Y-115868836D01*
X140411336Y-115068836D01*
X143582650Y-115068836D01*
X143594848Y-115130163D01*
X143600151Y-115156822D01*
X143649990Y-115231413D01*
X143674694Y-115247919D01*
X143724582Y-115281253D01*
X143812568Y-115298754D01*
X143900554Y-115281253D01*
X143975145Y-115231413D01*
X144014362Y-115172719D01*
X144045544Y-115151884D01*
X144071862Y-115153896D01*
X144115751Y-115169871D01*
X144221723Y-115169871D01*
X144321305Y-115133627D01*
X144402484Y-115065510D01*
X144402486Y-115065507D01*
X144455470Y-114973736D01*
X144455470Y-114973735D01*
X144455471Y-114973734D01*
X144473873Y-114869371D01*
X144455471Y-114765008D01*
X144455470Y-114765006D01*
X144455470Y-114765005D01*
X144402486Y-114673234D01*
X144402484Y-114673231D01*
X144321305Y-114605114D01*
X144221723Y-114568871D01*
X144115751Y-114568871D01*
X144016168Y-114605114D01*
X143934989Y-114673231D01*
X143934987Y-114673234D01*
X143882002Y-114765007D01*
X143875754Y-114800438D01*
X143855603Y-114832067D01*
X143818988Y-114840182D01*
X143817944Y-114839986D01*
X143812572Y-114838918D01*
X143812570Y-114838918D01*
X143812569Y-114838918D01*
X143812568Y-114838918D01*
X143758080Y-114849756D01*
X143724581Y-114856419D01*
X143649990Y-114906258D01*
X143600151Y-114980849D01*
X143583312Y-115065510D01*
X143582650Y-115068836D01*
X140411336Y-115068836D01*
X140618385Y-114703743D01*
X141773816Y-114703743D01*
X141792218Y-114808108D01*
X141845202Y-114899879D01*
X141845204Y-114899882D01*
X141926383Y-114967999D01*
X142025966Y-115004243D01*
X142131938Y-115004243D01*
X142231520Y-114967999D01*
X142312699Y-114899882D01*
X142312701Y-114899879D01*
X142365685Y-114808108D01*
X142365685Y-114808107D01*
X142365686Y-114808106D01*
X142384088Y-114703743D01*
X142365686Y-114599380D01*
X142365685Y-114599378D01*
X142365685Y-114599377D01*
X142312701Y-114507606D01*
X142312699Y-114507603D01*
X142231520Y-114439486D01*
X142131938Y-114403243D01*
X142025966Y-114403243D01*
X141926383Y-114439486D01*
X141845204Y-114507603D01*
X141845202Y-114507606D01*
X141792218Y-114599377D01*
X141773816Y-114703743D01*
X140618385Y-114703743D01*
X140982144Y-114062319D01*
X141011719Y-114039262D01*
X141048938Y-114043870D01*
X141051988Y-114045751D01*
X141103446Y-114080133D01*
X141103448Y-114080134D01*
X141191434Y-114097635D01*
X141279420Y-114080134D01*
X141354011Y-114030294D01*
X141403851Y-113955703D01*
X141421352Y-113867717D01*
X141403851Y-113779731D01*
X141373508Y-113734319D01*
X141354011Y-113705139D01*
X141282934Y-113657648D01*
X141262099Y-113626466D01*
X141268961Y-113590377D01*
X142089823Y-112315853D01*
X142120647Y-112294497D01*
X142157548Y-112301192D01*
X142168245Y-112312418D01*
X142169047Y-112311746D01*
X142171802Y-112315030D01*
X142252981Y-112383147D01*
X142288079Y-112395921D01*
X142352564Y-112419391D01*
X142352571Y-112419391D01*
X142353390Y-112419536D01*
X142353959Y-112419898D01*
X142356592Y-112420857D01*
X142356379Y-112421440D01*
X142385020Y-112439686D01*
X142393138Y-112476300D01*
X142388026Y-112491020D01*
X142317658Y-112621722D01*
X142317613Y-112621789D01*
X142309341Y-112637162D01*
X142309330Y-112637171D01*
X142309333Y-112637173D01*
X142300311Y-112653930D01*
X142299175Y-112656040D01*
X142294660Y-112664427D01*
X142294588Y-112664575D01*
X142291724Y-112669895D01*
X142291632Y-112670136D01*
X142289313Y-112677296D01*
X142285635Y-112686134D01*
X142285632Y-112686141D01*
X142282878Y-112695197D01*
X142280078Y-112702276D01*
X142280010Y-112702477D01*
X142278808Y-112708519D01*
X142278782Y-112708626D01*
X142276459Y-112720328D01*
X142267912Y-112763299D01*
X142267902Y-112763335D01*
X142262632Y-112789843D01*
X142261045Y-112797818D01*
X142259093Y-112804827D01*
X142259082Y-112804876D01*
X142258777Y-112808452D01*
X142258397Y-112811130D01*
X142258047Y-112812892D01*
X142257697Y-112814651D01*
X142257692Y-112814734D01*
X142257621Y-112821968D01*
X142257536Y-112822954D01*
X142254394Y-112859619D01*
X142254395Y-112859673D01*
X142197497Y-113524872D01*
X142180244Y-113558171D01*
X142165435Y-113566740D01*
X142156989Y-113569814D01*
X142156984Y-113569817D01*
X142075805Y-113637933D01*
X142075803Y-113637936D01*
X142022819Y-113729707D01*
X142004417Y-113834073D01*
X142022819Y-113938438D01*
X142075803Y-114030209D01*
X142075805Y-114030212D01*
X142156984Y-114098329D01*
X142256567Y-114134573D01*
X142362539Y-114134573D01*
X142462121Y-114098329D01*
X142543300Y-114030212D01*
X142543302Y-114030209D01*
X142549124Y-114020126D01*
X142596287Y-113938436D01*
X142614689Y-113834073D01*
X142596287Y-113729710D01*
X142596286Y-113729708D01*
X142596286Y-113729707D01*
X142543302Y-113637936D01*
X142543301Y-113637934D01*
X142509560Y-113609623D01*
X142489581Y-113592858D01*
X142472265Y-113559594D01*
X142472256Y-113551156D01*
X142505713Y-113160009D01*
X142522966Y-113126712D01*
X142558711Y-113115365D01*
X142571288Y-113118140D01*
X142641684Y-113143762D01*
X142641685Y-113143762D01*
X142747656Y-113143762D01*
X142847238Y-113107518D01*
X142928417Y-113039401D01*
X142928417Y-113039400D01*
X142928418Y-113039400D01*
X142981176Y-112948018D01*
X143010928Y-112925189D01*
X143014639Y-112925677D01*
X143000326Y-112915807D01*
X142993209Y-112880676D01*
X142999806Y-112843264D01*
X142999806Y-112843262D01*
X142981404Y-112738899D01*
X142981403Y-112738897D01*
X142981403Y-112738896D01*
X142928419Y-112647125D01*
X142928417Y-112647122D01*
X142847238Y-112579005D01*
X142747651Y-112542760D01*
X142746822Y-112542614D01*
X142746252Y-112542251D01*
X142743628Y-112541296D01*
X142743839Y-112540713D01*
X142715195Y-112522460D01*
X142707083Y-112485845D01*
X142712190Y-112471136D01*
X142795430Y-112316522D01*
X142798495Y-112311938D01*
X142799943Y-112309593D01*
X142799949Y-112309587D01*
X142803560Y-112301551D01*
X142804323Y-112300003D01*
X142808497Y-112292254D01*
X142808498Y-112292249D01*
X142809482Y-112289659D01*
X142811250Y-112284446D01*
X143404914Y-110963939D01*
X143432210Y-110938224D01*
X143469696Y-110939342D01*
X143495413Y-110966639D01*
X143497517Y-110994297D01*
X143089377Y-112899449D01*
X143068086Y-112930323D01*
X143050739Y-112933509D01*
X143070941Y-112959836D01*
X143071524Y-112982783D01*
X142856728Y-113985425D01*
X142835437Y-114016299D01*
X142825575Y-114021206D01*
X142777246Y-114038796D01*
X142696068Y-114106912D01*
X142696066Y-114106915D01*
X142643082Y-114198686D01*
X142624680Y-114303052D01*
X142643082Y-114407417D01*
X142696066Y-114499188D01*
X142696068Y-114499191D01*
X142777247Y-114567308D01*
X142876830Y-114603552D01*
X142982802Y-114603552D01*
X143082384Y-114567308D01*
X143163563Y-114499191D01*
X143163565Y-114499188D01*
X143165140Y-114496461D01*
X143216550Y-114407415D01*
X143234952Y-114303052D01*
X143216550Y-114198689D01*
X143216549Y-114198687D01*
X143216549Y-114198686D01*
X143163565Y-114106915D01*
X143163561Y-114106910D01*
X143143270Y-114089884D01*
X143125952Y-114056619D01*
X143126852Y-114042089D01*
X143191866Y-113738611D01*
X144640821Y-113738611D01*
X144659223Y-113842976D01*
X144712207Y-113934747D01*
X144712209Y-113934750D01*
X144793388Y-114002867D01*
X144892971Y-114039111D01*
X144998943Y-114039111D01*
X145098525Y-114002867D01*
X145179704Y-113934750D01*
X145179706Y-113934747D01*
X145232690Y-113842976D01*
X145232690Y-113842975D01*
X145232691Y-113842974D01*
X145251093Y-113738611D01*
X145232691Y-113634248D01*
X145232690Y-113634246D01*
X145232690Y-113634245D01*
X145179706Y-113542474D01*
X145179704Y-113542471D01*
X145127124Y-113498351D01*
X146193519Y-113498351D01*
X146211921Y-113602716D01*
X146264905Y-113694487D01*
X146264907Y-113694490D01*
X146346086Y-113762607D01*
X146445669Y-113798851D01*
X146551641Y-113798851D01*
X146651223Y-113762607D01*
X146732402Y-113694490D01*
X146732404Y-113694487D01*
X146738428Y-113684054D01*
X146765055Y-113637933D01*
X146785388Y-113602716D01*
X146785388Y-113602715D01*
X146785389Y-113602714D01*
X146803791Y-113498351D01*
X146785389Y-113393988D01*
X146785388Y-113393986D01*
X146785388Y-113393985D01*
X146732404Y-113302214D01*
X146732402Y-113302211D01*
X146651223Y-113234094D01*
X146551641Y-113197851D01*
X146445669Y-113197851D01*
X146346086Y-113234094D01*
X146264907Y-113302211D01*
X146264905Y-113302214D01*
X146211921Y-113393985D01*
X146193519Y-113498351D01*
X145127124Y-113498351D01*
X145098525Y-113474354D01*
X144998943Y-113438111D01*
X144892971Y-113438111D01*
X144793388Y-113474354D01*
X144712209Y-113542471D01*
X144712207Y-113542474D01*
X144659223Y-113634245D01*
X144640821Y-113738611D01*
X143191866Y-113738611D01*
X143996692Y-109981772D01*
X143996718Y-109981699D01*
X143997973Y-109975835D01*
X144001212Y-109960693D01*
X144001976Y-109957929D01*
X144002122Y-109957495D01*
X144002128Y-109957485D01*
X144005134Y-109942369D01*
X144008362Y-109927305D01*
X144008361Y-109927300D01*
X144008398Y-109926850D01*
X144008791Y-109924022D01*
X144011819Y-109908846D01*
X144011818Y-109908844D01*
X144012875Y-109903549D01*
X144012888Y-109903387D01*
X144013333Y-109901148D01*
X144013342Y-109901126D01*
X144014756Y-109894009D01*
X144014758Y-109894008D01*
X144016877Y-109883347D01*
X144016890Y-109883328D01*
X144020908Y-109863116D01*
X144020909Y-109863117D01*
X144025708Y-109838978D01*
X144027990Y-109804111D01*
X144028922Y-109789864D01*
X144028922Y-109789860D01*
X144025698Y-109740743D01*
X144021762Y-109720968D01*
X144001826Y-109620740D01*
X144001791Y-109620611D01*
X144000868Y-109615969D01*
X144000867Y-109615962D01*
X143985050Y-109569348D01*
X143984793Y-109568827D01*
X143965812Y-109530326D01*
X143963284Y-109525198D01*
X143962216Y-109523600D01*
X143961819Y-109523005D01*
X143961807Y-109522983D01*
X143951970Y-109508260D01*
X143929243Y-109474240D01*
X143929211Y-109474201D01*
X143906874Y-109440771D01*
X143906270Y-109439866D01*
X143904858Y-109437753D01*
X143896156Y-109424730D01*
X143896152Y-109424727D01*
X143896150Y-109424723D01*
X143894310Y-109422624D01*
X143888931Y-109415970D01*
X143875263Y-109399061D01*
X143853864Y-109377028D01*
X143852225Y-109375200D01*
X143849582Y-109372934D01*
X143836881Y-109362045D01*
X143819755Y-109347354D01*
X143810505Y-109339420D01*
X143810430Y-109339368D01*
X143499068Y-109072434D01*
X147011691Y-109072434D01*
X147030093Y-109176799D01*
X147083077Y-109268570D01*
X147083079Y-109268573D01*
X147164258Y-109336690D01*
X147263841Y-109372934D01*
X147369813Y-109372934D01*
X147469395Y-109336690D01*
X147550574Y-109268573D01*
X147550576Y-109268570D01*
X147568352Y-109237782D01*
X147603561Y-109176797D01*
X147621963Y-109072434D01*
X147603561Y-108968071D01*
X147603560Y-108968069D01*
X147603560Y-108968068D01*
X147550576Y-108876297D01*
X147550574Y-108876294D01*
X147545919Y-108872388D01*
X148855898Y-108872388D01*
X148874300Y-108976754D01*
X148927284Y-109068525D01*
X148927286Y-109068528D01*
X149008465Y-109136645D01*
X149108048Y-109172889D01*
X149214020Y-109172889D01*
X149313602Y-109136645D01*
X149394781Y-109068528D01*
X149394783Y-109068525D01*
X149402266Y-109055565D01*
X149439399Y-108991247D01*
X149447767Y-108976754D01*
X149447767Y-108976753D01*
X149447768Y-108976752D01*
X149466170Y-108872389D01*
X149447768Y-108768026D01*
X149447767Y-108768024D01*
X149447767Y-108768023D01*
X149394783Y-108676252D01*
X149394781Y-108676249D01*
X149313602Y-108608132D01*
X149214020Y-108571889D01*
X149108048Y-108571889D01*
X149008465Y-108608132D01*
X148927286Y-108676249D01*
X148927284Y-108676252D01*
X148874300Y-108768023D01*
X148855898Y-108872388D01*
X147545919Y-108872388D01*
X147469395Y-108808177D01*
X147369813Y-108771934D01*
X147263841Y-108771934D01*
X147164258Y-108808177D01*
X147083079Y-108876294D01*
X147083077Y-108876297D01*
X147030093Y-108968068D01*
X147011691Y-109072434D01*
X143499068Y-109072434D01*
X142366125Y-108101150D01*
X141850187Y-107658831D01*
X141833224Y-107625385D01*
X141844880Y-107589740D01*
X141850584Y-107584095D01*
X141852985Y-107582079D01*
X141852988Y-107582079D01*
X141934168Y-107513961D01*
X141987154Y-107422186D01*
X142005556Y-107317823D01*
X141987154Y-107213460D01*
X141987153Y-107213458D01*
X141987153Y-107213457D01*
X141934169Y-107121686D01*
X141934167Y-107121683D01*
X141852988Y-107053566D01*
X141753406Y-107017323D01*
X141647434Y-107017323D01*
X141547851Y-107053566D01*
X141466672Y-107121683D01*
X141466670Y-107121686D01*
X141428570Y-107187678D01*
X141398817Y-107210508D01*
X141361635Y-107205613D01*
X141351474Y-107197814D01*
X141345984Y-107192320D01*
X139570758Y-105415830D01*
X139889607Y-105415830D01*
X139908009Y-105520195D01*
X139960993Y-105611966D01*
X139960995Y-105611969D01*
X140042174Y-105680086D01*
X140141757Y-105716330D01*
X140247729Y-105716330D01*
X140347311Y-105680086D01*
X140428490Y-105611969D01*
X140428492Y-105611966D01*
X140433885Y-105602626D01*
X140472420Y-105535881D01*
X140481476Y-105520195D01*
X140481476Y-105520194D01*
X140481477Y-105520193D01*
X140499879Y-105415830D01*
X140481477Y-105311467D01*
X140481476Y-105311465D01*
X140481476Y-105311464D01*
X140428492Y-105219693D01*
X140428490Y-105219690D01*
X140347311Y-105151573D01*
X140247729Y-105115330D01*
X140141757Y-105115330D01*
X140042174Y-105151573D01*
X139960995Y-105219690D01*
X139960993Y-105219693D01*
X139908009Y-105311464D01*
X139889607Y-105415830D01*
X139570758Y-105415830D01*
X139077555Y-104922276D01*
X141077771Y-104922276D01*
X141081814Y-104945204D01*
X141096173Y-105026641D01*
X141149157Y-105118412D01*
X141149159Y-105118415D01*
X141230338Y-105186532D01*
X141329921Y-105222776D01*
X141435893Y-105222776D01*
X141535475Y-105186532D01*
X141616654Y-105118415D01*
X141616656Y-105118412D01*
X141618436Y-105115330D01*
X141669641Y-105026639D01*
X141688043Y-104922276D01*
X141669641Y-104817913D01*
X141669640Y-104817911D01*
X141669640Y-104817910D01*
X141616656Y-104726139D01*
X141616654Y-104726136D01*
X141535475Y-104658019D01*
X141435893Y-104621776D01*
X141329921Y-104621776D01*
X141230338Y-104658019D01*
X141149159Y-104726136D01*
X141149157Y-104726139D01*
X141096173Y-104817910D01*
X141077771Y-104922275D01*
X141077771Y-104922276D01*
X139077555Y-104922276D01*
X138543060Y-104387401D01*
X138528722Y-104352749D01*
X138543086Y-104318105D01*
X138560963Y-104306721D01*
X138574893Y-104301652D01*
X138619665Y-104264084D01*
X138656070Y-104233537D01*
X138656071Y-104233535D01*
X138656073Y-104233534D01*
X138709059Y-104141759D01*
X138727461Y-104037396D01*
X138709059Y-103933033D01*
X138709058Y-103933031D01*
X138709058Y-103933030D01*
X138656074Y-103841259D01*
X138656072Y-103841256D01*
X138574894Y-103773140D01*
X138564994Y-103769537D01*
X138537344Y-103744199D01*
X138535709Y-103706732D01*
X138561047Y-103679082D01*
X138594889Y-103676286D01*
X141751176Y-104554652D01*
X142105384Y-104653225D01*
X142134916Y-104676341D01*
X142139453Y-104713568D01*
X142116337Y-104743100D01*
X142100759Y-104748686D01*
X142098582Y-104749069D01*
X141998999Y-104785313D01*
X141917820Y-104853430D01*
X141917818Y-104853433D01*
X141864834Y-104945204D01*
X141846432Y-105049570D01*
X141864834Y-105153935D01*
X141917818Y-105245706D01*
X141917820Y-105245709D01*
X141998999Y-105313826D01*
X142098582Y-105350070D01*
X142204554Y-105350070D01*
X142304136Y-105313826D01*
X142385315Y-105245709D01*
X142385317Y-105245706D01*
X142386086Y-105244375D01*
X142438302Y-105153933D01*
X142456704Y-105049570D01*
X142438302Y-104945207D01*
X142438301Y-104945205D01*
X142438301Y-104945204D01*
X142385317Y-104853433D01*
X142385313Y-104853428D01*
X142340487Y-104815815D01*
X142323169Y-104782550D01*
X142334447Y-104746783D01*
X142367712Y-104729465D01*
X142385120Y-104731073D01*
X142580024Y-104785313D01*
X149708442Y-106769087D01*
X149737974Y-106792203D01*
X149743560Y-106807781D01*
X149745784Y-106820394D01*
X149798769Y-106912167D01*
X149798771Y-106912170D01*
X149879950Y-106980287D01*
X149979533Y-107016531D01*
X150085505Y-107016531D01*
X150185087Y-106980287D01*
X150266266Y-106912170D01*
X150266268Y-106912167D01*
X150274423Y-106898043D01*
X150319253Y-106820394D01*
X150337655Y-106716031D01*
X150319253Y-106611668D01*
X150319252Y-106611666D01*
X150319252Y-106611665D01*
X150266268Y-106519894D01*
X150266266Y-106519891D01*
X150185087Y-106451774D01*
X150085505Y-106415531D01*
X149979533Y-106415531D01*
X149879954Y-106451773D01*
X149879948Y-106451777D01*
X149829417Y-106494175D01*
X149793650Y-106505451D01*
X149784785Y-106503844D01*
X149402501Y-106397458D01*
X149372969Y-106374343D01*
X149368432Y-106337115D01*
X149384143Y-106312715D01*
X149388153Y-106309351D01*
X149424960Y-106245599D01*
X149441138Y-106217578D01*
X149441138Y-106217577D01*
X149441139Y-106217576D01*
X149459541Y-106113213D01*
X149441139Y-106008850D01*
X149441138Y-106008848D01*
X149441138Y-106008847D01*
X149388154Y-105917076D01*
X149388152Y-105917073D01*
X149306973Y-105848956D01*
X149207391Y-105812713D01*
X149101419Y-105812713D01*
X149001836Y-105848956D01*
X148920657Y-105917073D01*
X148920655Y-105917076D01*
X148867671Y-106008847D01*
X148849269Y-106113213D01*
X148859928Y-106173665D01*
X148851810Y-106210279D01*
X148820180Y-106230429D01*
X148798535Y-106229379D01*
X145754274Y-105382189D01*
X148799317Y-105382189D01*
X148801118Y-105392401D01*
X148817719Y-105486554D01*
X148870703Y-105578325D01*
X148870705Y-105578328D01*
X148951884Y-105646445D01*
X149051467Y-105682689D01*
X149157439Y-105682689D01*
X149257021Y-105646445D01*
X149257273Y-105646233D01*
X149257528Y-105646152D01*
X149260736Y-105644301D01*
X149261146Y-105645011D01*
X149293040Y-105634952D01*
X149310733Y-105639962D01*
X150486048Y-106229131D01*
X150486127Y-106229181D01*
X150490736Y-106231490D01*
X150490737Y-106231491D01*
X150500036Y-106236149D01*
X150500047Y-106236162D01*
X150518895Y-106245605D01*
X150518895Y-106245606D01*
X150528519Y-106250428D01*
X150528522Y-106250429D01*
X150528925Y-106250631D01*
X150529147Y-106250736D01*
X150535106Y-106253723D01*
X150535107Y-106253723D01*
X150535109Y-106253724D01*
X150535852Y-106253982D01*
X150542777Y-106256039D01*
X150548552Y-106258312D01*
X150554394Y-106260026D01*
X150561162Y-106262664D01*
X150561896Y-106262914D01*
X150561899Y-106262914D01*
X150561900Y-106262915D01*
X150564209Y-106263374D01*
X150568600Y-106264248D01*
X150568780Y-106264288D01*
X150569200Y-106264371D01*
X150569209Y-106264374D01*
X150576221Y-106265766D01*
X150579765Y-106266470D01*
X150580707Y-106266656D01*
X150581675Y-106266848D01*
X150591097Y-106268722D01*
X150591218Y-106268761D01*
X150596706Y-106269850D01*
X150596707Y-106269851D01*
X150603811Y-106271261D01*
X150603824Y-106271270D01*
X150632444Y-106276948D01*
X150633241Y-106277106D01*
X150636777Y-106277809D01*
X150639854Y-106278634D01*
X150640621Y-106278895D01*
X150641431Y-106278948D01*
X150644579Y-106279362D01*
X150645372Y-106279520D01*
X150646165Y-106279468D01*
X150649367Y-106279468D01*
X150669205Y-106280768D01*
X150690173Y-106282143D01*
X150690173Y-106282142D01*
X150700727Y-106282835D01*
X150700734Y-106282834D01*
X150803376Y-106289560D01*
X150837009Y-106306145D01*
X150840911Y-106311230D01*
X150851898Y-106327672D01*
X150851901Y-106327676D01*
X150866028Y-106337115D01*
X150926490Y-106377514D01*
X151014476Y-106395015D01*
X151014477Y-106395014D01*
X151014478Y-106395015D01*
X151014479Y-106395015D01*
X151068467Y-106384276D01*
X151105249Y-106391592D01*
X151126084Y-106422775D01*
X151142057Y-106503080D01*
X151191898Y-106577674D01*
X151261762Y-106624355D01*
X151282597Y-106655537D01*
X151275281Y-106692320D01*
X151261762Y-106705839D01*
X151191898Y-106752519D01*
X151142059Y-106827110D01*
X151134242Y-106866413D01*
X151124558Y-106915097D01*
X151129233Y-106938601D01*
X151142059Y-107003083D01*
X151191898Y-107077674D01*
X151261762Y-107124355D01*
X151282597Y-107155537D01*
X151275281Y-107192320D01*
X151261762Y-107205839D01*
X151191898Y-107252519D01*
X151142059Y-107327110D01*
X151130689Y-107384276D01*
X151124558Y-107415097D01*
X151129455Y-107439716D01*
X151142059Y-107503083D01*
X151191898Y-107577674D01*
X151232942Y-107605098D01*
X151266490Y-107627514D01*
X151354476Y-107645015D01*
X151442462Y-107627514D01*
X151517053Y-107577674D01*
X151566893Y-107503083D01*
X151582867Y-107422773D01*
X151603702Y-107391592D01*
X151640482Y-107384275D01*
X151640484Y-107384275D01*
X151640484Y-107384276D01*
X151694473Y-107395015D01*
X151694474Y-107395015D01*
X151694474Y-107395014D01*
X151694476Y-107395015D01*
X151782462Y-107377514D01*
X151857053Y-107327674D01*
X151906893Y-107253083D01*
X151924394Y-107165097D01*
X151906893Y-107077111D01*
X151878872Y-107035174D01*
X151857053Y-107002519D01*
X151782462Y-106952680D01*
X151748466Y-106945918D01*
X151694476Y-106935179D01*
X151694475Y-106935179D01*
X151640484Y-106945918D01*
X151603701Y-106938601D01*
X151582866Y-106907419D01*
X151566893Y-106827111D01*
X151528123Y-106769087D01*
X151517053Y-106752519D01*
X151462443Y-106716031D01*
X151447188Y-106705838D01*
X151426354Y-106674657D01*
X151433670Y-106637874D01*
X151447187Y-106624356D01*
X151517053Y-106577674D01*
X151566893Y-106503083D01*
X151584394Y-106415097D01*
X151566893Y-106327111D01*
X151537308Y-106282834D01*
X151517053Y-106252519D01*
X151442462Y-106202680D01*
X151408466Y-106195918D01*
X151354476Y-106185179D01*
X151354475Y-106185179D01*
X151300484Y-106195918D01*
X151263701Y-106188601D01*
X151242866Y-106157419D01*
X151226893Y-106077111D01*
X151187382Y-106017978D01*
X151177053Y-106002519D01*
X151102462Y-105952680D01*
X151054972Y-105943234D01*
X151014476Y-105935179D01*
X151014475Y-105935179D01*
X150960484Y-105945918D01*
X150923701Y-105938601D01*
X150902866Y-105907419D01*
X150886893Y-105827111D01*
X150868978Y-105800299D01*
X150837053Y-105752519D01*
X150762462Y-105702680D01*
X150726852Y-105695597D01*
X150674476Y-105685179D01*
X150674475Y-105685179D01*
X150674474Y-105685179D01*
X150644571Y-105691126D01*
X150607789Y-105683808D01*
X150604258Y-105681212D01*
X149768515Y-105007369D01*
X149453029Y-104752999D01*
X149435065Y-104720080D01*
X149435530Y-104706350D01*
X149441122Y-104674643D01*
X149422720Y-104570280D01*
X149422719Y-104570278D01*
X149422719Y-104570277D01*
X149369735Y-104478506D01*
X149369733Y-104478503D01*
X149294168Y-104415097D01*
X151124558Y-104415097D01*
X151141132Y-104498421D01*
X151142059Y-104503083D01*
X151191898Y-104577674D01*
X151231583Y-104604190D01*
X151266490Y-104627514D01*
X151354476Y-104645015D01*
X151442462Y-104627514D01*
X151517053Y-104577674D01*
X151566893Y-104503083D01*
X151584394Y-104415097D01*
X151566893Y-104327111D01*
X151542633Y-104290803D01*
X151517053Y-104252519D01*
X151442462Y-104202680D01*
X151354476Y-104185179D01*
X151354475Y-104185179D01*
X151266489Y-104202680D01*
X151191898Y-104252519D01*
X151142059Y-104327110D01*
X151128263Y-104396472D01*
X151124558Y-104415097D01*
X149294168Y-104415097D01*
X149288554Y-104410386D01*
X149188972Y-104374143D01*
X149083000Y-104374143D01*
X148983417Y-104410386D01*
X148902238Y-104478503D01*
X148902236Y-104478506D01*
X148849252Y-104570277D01*
X148830850Y-104674643D01*
X148849252Y-104779008D01*
X148902236Y-104870779D01*
X148902238Y-104870782D01*
X148983417Y-104938899D01*
X149083000Y-104975143D01*
X149188972Y-104975143D01*
X149231783Y-104959561D01*
X149269249Y-104961197D01*
X149279297Y-104967461D01*
X149879332Y-105451257D01*
X150030588Y-105573212D01*
X150064991Y-105600950D01*
X150082956Y-105633870D01*
X150072380Y-105669851D01*
X150039460Y-105687816D01*
X150012277Y-105682899D01*
X149431336Y-105391682D01*
X149406793Y-105363325D01*
X149405040Y-105356396D01*
X149391187Y-105277826D01*
X149391186Y-105277824D01*
X149391186Y-105277823D01*
X149338202Y-105186052D01*
X149338200Y-105186049D01*
X149257021Y-105117932D01*
X149157439Y-105081689D01*
X149051467Y-105081689D01*
X148951884Y-105117932D01*
X148870705Y-105186049D01*
X148870703Y-105186052D01*
X148817719Y-105277823D01*
X148800410Y-105375988D01*
X148799317Y-105382189D01*
X145754274Y-105382189D01*
X143142028Y-104655225D01*
X143112496Y-104632109D01*
X143107959Y-104594882D01*
X143123668Y-104570484D01*
X143132815Y-104562809D01*
X143137525Y-104554652D01*
X143185800Y-104471036D01*
X143185800Y-104471035D01*
X143185801Y-104471034D01*
X143204203Y-104366671D01*
X143185801Y-104262308D01*
X143185800Y-104262306D01*
X143185800Y-104262305D01*
X143132816Y-104170534D01*
X143132814Y-104170531D01*
X143051635Y-104102414D01*
X142952053Y-104066171D01*
X142846081Y-104066171D01*
X142746498Y-104102414D01*
X142665319Y-104170531D01*
X142665317Y-104170534D01*
X142612333Y-104262305D01*
X142593931Y-104366671D01*
X142605654Y-104433158D01*
X142597536Y-104469772D01*
X142565906Y-104489922D01*
X142544261Y-104488872D01*
X137883357Y-103191785D01*
X137877633Y-103189599D01*
X137875595Y-103188907D01*
X137867449Y-103187287D01*
X137865675Y-103186864D01*
X137861471Y-103185694D01*
X137857650Y-103184631D01*
X137855534Y-103184332D01*
X137849422Y-103183699D01*
X137821968Y-103178231D01*
X137821885Y-103178223D01*
X137763954Y-103166699D01*
X137763941Y-103166695D01*
X137763211Y-103166550D01*
X137762000Y-103166500D01*
X137761959Y-103166497D01*
X137751574Y-103166060D01*
X137744334Y-103165756D01*
X137729655Y-103165136D01*
X137708216Y-103164230D01*
X137708159Y-103164234D01*
X137136912Y-103140191D01*
X137136818Y-103140177D01*
X137119632Y-103139459D01*
X137119620Y-103139453D01*
X137090326Y-103138227D01*
X137090219Y-103138226D01*
X137081827Y-103137873D01*
X137080319Y-103138007D01*
X137073669Y-103138868D01*
X137072334Y-103138919D01*
X137071571Y-103138948D01*
X137069598Y-103139180D01*
X137062936Y-103139352D01*
X137061357Y-103139455D01*
X137053121Y-103141093D01*
X137053068Y-103141103D01*
X137046845Y-103142342D01*
X136949180Y-103161770D01*
X136948289Y-103162210D01*
X136945331Y-103163434D01*
X136922172Y-103171293D01*
X136900185Y-103182134D01*
X136897233Y-103183357D01*
X136896317Y-103183668D01*
X136896314Y-103183669D01*
X136896314Y-103183670D01*
X136887574Y-103189510D01*
X136884411Y-103191623D01*
X136881208Y-103193763D01*
X136852997Y-103212612D01*
X136852995Y-103212614D01*
X136801219Y-103247210D01*
X136801217Y-103247211D01*
X136800520Y-103248007D01*
X136798252Y-103250273D01*
X136779942Y-103266319D01*
X136779923Y-103266338D01*
X136763746Y-103284772D01*
X136761495Y-103287023D01*
X136760761Y-103287667D01*
X136760754Y-103287674D01*
X136750678Y-103302756D01*
X136730520Y-103332909D01*
X136730489Y-103332967D01*
X136697214Y-103382767D01*
X136697209Y-103382776D01*
X136696890Y-103383716D01*
X136695668Y-103386663D01*
X136684849Y-103408601D01*
X136684843Y-103408616D01*
X136676965Y-103431814D01*
X136675746Y-103434758D01*
X136675316Y-103435629D01*
X136675313Y-103435640D01*
X136670847Y-103458094D01*
X136665095Y-103486995D01*
X136665093Y-103487016D01*
X136663707Y-103493988D01*
X136663670Y-103494107D01*
X136660444Y-103510352D01*
X136660429Y-103510374D01*
X136653366Y-103545946D01*
X136653337Y-103546119D01*
X136653000Y-103547813D01*
X136653000Y-103547819D01*
X136653058Y-103548708D01*
X136653058Y-103551896D01*
X136652688Y-103557577D01*
X136651459Y-103576428D01*
X136651456Y-103576467D01*
X136651456Y-103576477D01*
X136653061Y-103600875D01*
X136653063Y-103604076D01*
X136653000Y-103605030D01*
X136653002Y-103605049D01*
X136653328Y-103606689D01*
X136653349Y-103606818D01*
X136655862Y-103619434D01*
X136656444Y-103622355D01*
X136663146Y-103656047D01*
X136675314Y-103717217D01*
X136675781Y-103718164D01*
X136677006Y-103721123D01*
X136684830Y-103744195D01*
X136695681Y-103766216D01*
X136696899Y-103769160D01*
X136697106Y-103769769D01*
X136697214Y-103770088D01*
X136705358Y-103782274D01*
X136727753Y-103815813D01*
X136727817Y-103815889D01*
X136744770Y-103841259D01*
X136760755Y-103865181D01*
X136760758Y-103865184D01*
X136762651Y-103867344D01*
X136763844Y-103868815D01*
X136765558Y-103871105D01*
X136765560Y-103871108D01*
X136774846Y-103880620D01*
X136778145Y-103883999D01*
X136778223Y-103884079D01*
X136804051Y-103910573D01*
X136804227Y-103910715D01*
X137689889Y-104817910D01*
X138232316Y-105373526D01*
X138246250Y-105408345D01*
X138231484Y-105442818D01*
X138214013Y-105453801D01*
X138196088Y-105460325D01*
X138114909Y-105528441D01*
X138114907Y-105528444D01*
X138061923Y-105620215D01*
X138043521Y-105724581D01*
X138061923Y-105828946D01*
X138114907Y-105920717D01*
X138114909Y-105920720D01*
X138196088Y-105988837D01*
X138295671Y-106025081D01*
X138401643Y-106025081D01*
X138501225Y-105988837D01*
X138544315Y-105952680D01*
X138582405Y-105920719D01*
X138587534Y-105911833D01*
X138617285Y-105889002D01*
X138654467Y-105893895D01*
X138670181Y-105908332D01*
X139180725Y-106641594D01*
X139201738Y-106671773D01*
X139209758Y-106708409D01*
X139203962Y-106724269D01*
X139198711Y-106733365D01*
X139198710Y-106733366D01*
X139198710Y-106733368D01*
X139195333Y-106752520D01*
X139180308Y-106837731D01*
X139198710Y-106942096D01*
X139251694Y-107033867D01*
X139251696Y-107033870D01*
X139332875Y-107101987D01*
X139432458Y-107138231D01*
X139538430Y-107138231D01*
X139638012Y-107101987D01*
X139719191Y-107033870D01*
X139719193Y-107033867D01*
X139719357Y-107033584D01*
X139772178Y-106942094D01*
X139790580Y-106837731D01*
X139772178Y-106733368D01*
X139772177Y-106733366D01*
X139772177Y-106733365D01*
X139719193Y-106641594D01*
X139719191Y-106641591D01*
X139638012Y-106573474D01*
X139538430Y-106537231D01*
X139469963Y-106537231D01*
X139435315Y-106522879D01*
X139429750Y-106516230D01*
X138706797Y-105477898D01*
X138706778Y-105477863D01*
X138699741Y-105467760D01*
X138688247Y-105451257D01*
X138678001Y-105436540D01*
X138675021Y-105432260D01*
X138675019Y-105432258D01*
X138675018Y-105432256D01*
X138675015Y-105432253D01*
X138674780Y-105431996D01*
X138673270Y-105430168D01*
X138673073Y-105429906D01*
X138673070Y-105429900D01*
X138660403Y-105416925D01*
X138638406Y-105394382D01*
X138638404Y-105394381D01*
X138634947Y-105390838D01*
X138634886Y-105390787D01*
X138608873Y-105364142D01*
X138259850Y-105006633D01*
X138208405Y-104953937D01*
X138194471Y-104919119D01*
X138209237Y-104884645D01*
X138244055Y-104870711D01*
X138277061Y-104884036D01*
X138695172Y-105277826D01*
X140434287Y-106915780D01*
X140449670Y-106949983D01*
X140436362Y-106985045D01*
X140402159Y-107000428D01*
X140369195Y-106988986D01*
X140357677Y-106979321D01*
X140258096Y-106943078D01*
X140152124Y-106943078D01*
X140052541Y-106979321D01*
X139971362Y-107047438D01*
X139971360Y-107047441D01*
X139918376Y-107139212D01*
X139899974Y-107243577D01*
X139918376Y-107347943D01*
X139971360Y-107439714D01*
X139971362Y-107439717D01*
X140052541Y-107507834D01*
X140152124Y-107544078D01*
X140258096Y-107544078D01*
X140357678Y-107507834D01*
X140438857Y-107439717D01*
X140438859Y-107439714D01*
X140491843Y-107347943D01*
X140491843Y-107347942D01*
X140491844Y-107347941D01*
X140510246Y-107243578D01*
X140491844Y-107139215D01*
X140491843Y-107139213D01*
X140491843Y-107139212D01*
X140444455Y-107057133D01*
X140439560Y-107019951D01*
X140462390Y-106990198D01*
X140499572Y-106985303D01*
X140520484Y-106996962D01*
X141274638Y-107707248D01*
X141274701Y-107707323D01*
X141296572Y-107727909D01*
X141298016Y-107729388D01*
X141300803Y-107732494D01*
X141307504Y-107738239D01*
X141308345Y-107738995D01*
X141314774Y-107745050D01*
X141314777Y-107745051D01*
X141318163Y-107747491D01*
X141319774Y-107748758D01*
X141338509Y-107764821D01*
X141338510Y-107764821D01*
X141345168Y-107770530D01*
X141345169Y-107770530D01*
X143302842Y-109448865D01*
X143319806Y-109482311D01*
X143308150Y-109517956D01*
X143302447Y-109523600D01*
X143218864Y-109593734D01*
X143218862Y-109593737D01*
X143165878Y-109685508D01*
X143147476Y-109789874D01*
X143165878Y-109894239D01*
X143200764Y-109954662D01*
X143205659Y-109991844D01*
X143202758Y-109999827D01*
X142933958Y-110577738D01*
X142906333Y-110603102D01*
X142868864Y-110601502D01*
X142858032Y-110594609D01*
X142799966Y-110545885D01*
X142700384Y-110509642D01*
X142594412Y-110509642D01*
X142494829Y-110545885D01*
X142413650Y-110614002D01*
X142413648Y-110614005D01*
X142360664Y-110705776D01*
X142342262Y-110810141D01*
X142360664Y-110914507D01*
X142413648Y-111006278D01*
X142413650Y-111006281D01*
X142494829Y-111074398D01*
X142552905Y-111095535D01*
X142580556Y-111120871D01*
X142582192Y-111158338D01*
X142575238Y-111171125D01*
X142081776Y-111824018D01*
X142078380Y-111827673D01*
X142078445Y-111827730D01*
X142076332Y-111830139D01*
X142070469Y-111838910D01*
X142069648Y-111840065D01*
X142063305Y-111848457D01*
X142061722Y-111851247D01*
X142061647Y-111851204D01*
X142059312Y-111855610D01*
X142043346Y-111879504D01*
X142043206Y-111879671D01*
X142032786Y-111895287D01*
X142031104Y-111897521D01*
X142030519Y-111898211D01*
X142021789Y-111911767D01*
X142012788Y-111925236D01*
X142012418Y-111925986D01*
X142011036Y-111928422D01*
X142000893Y-111944137D01*
X142000731Y-111944459D01*
X140882834Y-113680178D01*
X140879734Y-113684054D01*
X140879816Y-113684116D01*
X140877882Y-113686677D01*
X140872569Y-113696044D01*
X140871858Y-113697220D01*
X140866022Y-113706281D01*
X140864651Y-113709186D01*
X140864555Y-113709140D01*
X140862565Y-113713678D01*
X140850898Y-113734239D01*
X140850863Y-113734319D01*
X139412529Y-116270563D01*
X139382953Y-116293622D01*
X139369906Y-116295391D01*
X139333693Y-116295391D01*
X139234110Y-116331634D01*
X139152931Y-116399751D01*
X139152929Y-116399754D01*
X139099944Y-116491528D01*
X139092170Y-116535616D01*
X139072020Y-116567245D01*
X139035405Y-116575361D01*
X139019477Y-116569577D01*
X137171495Y-115506258D01*
X136775627Y-115278477D01*
X136752754Y-115248759D01*
X136757595Y-115211569D01*
X136787314Y-115188695D01*
X136809622Y-115187948D01*
X136857665Y-115197504D01*
X136945651Y-115180003D01*
X137020242Y-115130163D01*
X137070082Y-115055572D01*
X137087583Y-114967586D01*
X137527747Y-114967586D01*
X137545248Y-115055572D01*
X137595087Y-115130163D01*
X137634986Y-115156822D01*
X137669679Y-115180003D01*
X137757665Y-115197504D01*
X137845651Y-115180003D01*
X137920242Y-115130163D01*
X137970082Y-115055572D01*
X137987583Y-114967586D01*
X137970082Y-114879600D01*
X137942899Y-114838918D01*
X137920242Y-114805008D01*
X137887794Y-114783328D01*
X137872264Y-114760086D01*
X138275247Y-114760086D01*
X138290590Y-114837225D01*
X138292748Y-114848072D01*
X138342587Y-114922663D01*
X138372815Y-114942860D01*
X138417179Y-114972503D01*
X138505165Y-114990004D01*
X138593151Y-114972503D01*
X138667742Y-114922663D01*
X138717582Y-114848072D01*
X138735083Y-114760086D01*
X138717582Y-114672100D01*
X138685437Y-114623991D01*
X138667742Y-114597508D01*
X138593151Y-114547669D01*
X138573654Y-114543791D01*
X138505165Y-114530168D01*
X138505164Y-114530168D01*
X138417178Y-114547669D01*
X138342587Y-114597508D01*
X138292748Y-114672099D01*
X138292523Y-114673233D01*
X138275247Y-114760086D01*
X137872264Y-114760086D01*
X137866959Y-114752146D01*
X137874275Y-114715363D01*
X137887794Y-114701844D01*
X137920242Y-114680163D01*
X137924874Y-114673231D01*
X137970082Y-114605572D01*
X137987583Y-114517586D01*
X137970082Y-114429600D01*
X137952135Y-114402740D01*
X137920242Y-114355008D01*
X137845651Y-114305169D01*
X137757665Y-114287668D01*
X137669678Y-114305169D01*
X137595087Y-114355008D01*
X137545248Y-114429599D01*
X137527747Y-114517585D01*
X137545248Y-114605572D01*
X137595087Y-114680163D01*
X137627535Y-114701844D01*
X137648371Y-114733027D01*
X137641054Y-114769809D01*
X137627535Y-114783328D01*
X137595087Y-114805008D01*
X137545248Y-114879599D01*
X137527747Y-114967586D01*
X137087583Y-114967586D01*
X137070082Y-114879600D01*
X137042899Y-114838918D01*
X137020242Y-114805008D01*
X136945651Y-114755169D01*
X136930453Y-114752146D01*
X136857665Y-114737668D01*
X136857664Y-114737668D01*
X136769678Y-114755169D01*
X136695087Y-114805008D01*
X136673407Y-114837456D01*
X136642224Y-114858292D01*
X136605442Y-114850975D01*
X136591923Y-114837456D01*
X136570242Y-114805008D01*
X136495651Y-114755169D01*
X136407665Y-114737668D01*
X136319678Y-114755169D01*
X136245087Y-114805008D01*
X136223561Y-114837225D01*
X136192378Y-114858061D01*
X136155596Y-114850744D01*
X136149424Y-114845860D01*
X135693106Y-114420885D01*
X135677532Y-114386769D01*
X135678246Y-114376517D01*
X135687329Y-114325008D01*
X135688102Y-114320626D01*
X135669700Y-114216263D01*
X135669699Y-114216261D01*
X135669699Y-114216260D01*
X135616715Y-114124489D01*
X135616713Y-114124486D01*
X135535534Y-114056369D01*
X135435952Y-114020126D01*
X135329980Y-114020126D01*
X135230397Y-114056369D01*
X135149218Y-114124486D01*
X135149216Y-114124489D01*
X135096232Y-114216260D01*
X135079588Y-114310656D01*
X135077830Y-114320626D01*
X125930500Y-114320626D01*
X125930500Y-113110803D01*
X135827428Y-113110803D01*
X135828376Y-113116178D01*
X135845830Y-113215168D01*
X135898814Y-113306939D01*
X135898816Y-113306942D01*
X135979995Y-113375059D01*
X136079578Y-113411303D01*
X136182619Y-113411303D01*
X136217267Y-113425655D01*
X136231619Y-113460303D01*
X136223361Y-113487526D01*
X136195248Y-113529599D01*
X136178042Y-113616105D01*
X136177747Y-113617586D01*
X136181795Y-113637935D01*
X136195248Y-113705572D01*
X136245087Y-113780163D01*
X136277535Y-113801844D01*
X136298371Y-113833027D01*
X136291054Y-113869809D01*
X136277535Y-113883328D01*
X136245087Y-113905008D01*
X136195248Y-113979599D01*
X136177747Y-114067586D01*
X136195248Y-114155572D01*
X136245087Y-114230163D01*
X136294926Y-114263464D01*
X136319679Y-114280003D01*
X136407665Y-114297504D01*
X136495651Y-114280003D01*
X136570242Y-114230163D01*
X136620082Y-114155572D01*
X136637583Y-114067586D01*
X136620082Y-113979600D01*
X136603543Y-113954847D01*
X136570242Y-113905008D01*
X136537794Y-113883328D01*
X136516959Y-113852146D01*
X136524275Y-113815363D01*
X136537794Y-113801844D01*
X136570242Y-113780163D01*
X136570531Y-113779730D01*
X136620082Y-113705572D01*
X136637583Y-113617586D01*
X136620082Y-113529600D01*
X136583168Y-113474354D01*
X136570242Y-113455008D01*
X136495651Y-113405169D01*
X136407665Y-113387668D01*
X136407664Y-113387668D01*
X136407663Y-113387668D01*
X136403656Y-113387668D01*
X136369008Y-113373316D01*
X136354656Y-113338668D01*
X136364732Y-113310979D01*
X136364169Y-113310654D01*
X136366013Y-113307458D01*
X136366117Y-113307175D01*
X136366311Y-113306943D01*
X136413945Y-113224437D01*
X136419298Y-113215166D01*
X136436752Y-113116175D01*
X136456901Y-113084548D01*
X136493515Y-113076430D01*
X136525145Y-113096580D01*
X136525749Y-113097463D01*
X136542587Y-113122663D01*
X136574165Y-113143762D01*
X136617179Y-113172503D01*
X136705165Y-113190004D01*
X136793151Y-113172503D01*
X136867742Y-113122663D01*
X136889423Y-113090214D01*
X136920605Y-113069380D01*
X136957388Y-113076696D01*
X136970907Y-113090215D01*
X136992587Y-113122663D01*
X137024165Y-113143762D01*
X137067179Y-113172503D01*
X137155165Y-113190004D01*
X137243151Y-113172503D01*
X137317742Y-113122663D01*
X137367582Y-113048072D01*
X137385083Y-112960086D01*
X137367582Y-112872100D01*
X137348313Y-112843262D01*
X137317742Y-112797508D01*
X137243151Y-112747669D01*
X137204610Y-112740003D01*
X137155165Y-112730168D01*
X137155164Y-112730168D01*
X137067178Y-112747669D01*
X136992587Y-112797508D01*
X136970907Y-112829956D01*
X136939724Y-112850792D01*
X136902942Y-112843475D01*
X136889423Y-112829956D01*
X136867742Y-112797508D01*
X136793151Y-112747669D01*
X136705165Y-112730168D01*
X136617178Y-112747669D01*
X136542587Y-112797508D01*
X136492748Y-112872099D01*
X136492747Y-112872100D01*
X136492748Y-112872100D01*
X136480534Y-112933509D01*
X136479452Y-112938947D01*
X136458616Y-112970130D01*
X136421834Y-112977447D01*
X136390651Y-112956611D01*
X136388958Y-112953888D01*
X136366313Y-112914666D01*
X136366311Y-112914663D01*
X136285132Y-112846546D01*
X136185550Y-112810303D01*
X136079578Y-112810303D01*
X135979995Y-112846546D01*
X135898816Y-112914663D01*
X135898814Y-112914666D01*
X135845830Y-113006437D01*
X135840018Y-113039400D01*
X135827428Y-113110803D01*
X125930500Y-113110803D01*
X125930500Y-112656040D01*
X133585817Y-112656040D01*
X133604219Y-112760405D01*
X133657203Y-112852176D01*
X133657205Y-112852179D01*
X133738384Y-112920296D01*
X133837967Y-112956540D01*
X133943939Y-112956540D01*
X134043521Y-112920296D01*
X134124700Y-112852179D01*
X134124702Y-112852176D01*
X134127953Y-112846546D01*
X134159078Y-112792635D01*
X134177686Y-112760405D01*
X134177686Y-112760404D01*
X134177687Y-112760403D01*
X134196089Y-112656040D01*
X134177687Y-112551677D01*
X134177686Y-112551675D01*
X134177686Y-112551674D01*
X134124702Y-112459903D01*
X134124700Y-112459900D01*
X134043521Y-112391783D01*
X133943939Y-112355540D01*
X133837967Y-112355540D01*
X133738384Y-112391783D01*
X133657205Y-112459900D01*
X133657203Y-112459903D01*
X133604219Y-112551674D01*
X133585817Y-112656040D01*
X125930500Y-112656040D01*
X125930500Y-111949233D01*
X135392067Y-111949233D01*
X135410469Y-112053598D01*
X135463453Y-112145369D01*
X135463455Y-112145372D01*
X135544634Y-112213489D01*
X135644217Y-112249733D01*
X135750189Y-112249733D01*
X135849771Y-112213489D01*
X135930950Y-112145372D01*
X135930952Y-112145369D01*
X135983936Y-112053598D01*
X135983936Y-112053597D01*
X135983937Y-112053596D01*
X136002339Y-111949233D01*
X135983937Y-111844870D01*
X135983936Y-111844868D01*
X135983936Y-111844867D01*
X135930952Y-111753096D01*
X135930950Y-111753093D01*
X135849771Y-111684976D01*
X135750189Y-111648733D01*
X135644217Y-111648733D01*
X135544634Y-111684976D01*
X135463455Y-111753093D01*
X135463453Y-111753096D01*
X135410469Y-111844867D01*
X135392067Y-111949233D01*
X125930500Y-111949233D01*
X125930500Y-110754726D01*
X125944852Y-110720078D01*
X125979500Y-110705726D01*
X126010996Y-110717189D01*
X126087958Y-110781768D01*
X126187540Y-110818012D01*
X126293512Y-110818012D01*
X126393094Y-110781768D01*
X126474273Y-110713651D01*
X126474275Y-110713648D01*
X126527259Y-110621877D01*
X126527259Y-110621876D01*
X126527260Y-110621875D01*
X126545662Y-110517512D01*
X126527260Y-110413149D01*
X126527259Y-110413147D01*
X126527259Y-110413146D01*
X126474275Y-110321376D01*
X126474274Y-110321374D01*
X126445105Y-110296899D01*
X129665207Y-110296899D01*
X129683609Y-110401264D01*
X129736593Y-110493035D01*
X129736595Y-110493038D01*
X129817774Y-110561155D01*
X129917357Y-110597399D01*
X130023329Y-110597399D01*
X130122911Y-110561155D01*
X130204090Y-110493038D01*
X130204092Y-110493035D01*
X130218860Y-110467457D01*
X130257077Y-110401262D01*
X130275479Y-110296899D01*
X130257077Y-110192536D01*
X130257076Y-110192534D01*
X130257076Y-110192533D01*
X130204092Y-110100762D01*
X130204090Y-110100759D01*
X130122911Y-110032642D01*
X130023329Y-109996399D01*
X129917357Y-109996399D01*
X129817774Y-110032642D01*
X129736595Y-110100759D01*
X129736593Y-110100762D01*
X129683609Y-110192533D01*
X129665207Y-110296899D01*
X126445105Y-110296899D01*
X126439918Y-110292547D01*
X126422603Y-110259283D01*
X126433879Y-110223516D01*
X126439913Y-110217481D01*
X126474274Y-110188650D01*
X126525016Y-110100762D01*
X126527259Y-110096877D01*
X126527259Y-110096876D01*
X126527260Y-110096875D01*
X126545662Y-109992512D01*
X126527260Y-109888149D01*
X126527259Y-109888147D01*
X126527259Y-109888146D01*
X126474275Y-109796375D01*
X126474274Y-109796373D01*
X126446171Y-109772793D01*
X126428854Y-109739527D01*
X126440130Y-109703760D01*
X126446165Y-109697724D01*
X126486774Y-109663650D01*
X126522675Y-109601468D01*
X129408562Y-109601468D01*
X129411960Y-109620740D01*
X129426964Y-109705833D01*
X129479948Y-109797604D01*
X129479950Y-109797607D01*
X129561129Y-109865724D01*
X129660712Y-109901968D01*
X129766684Y-109901968D01*
X129866266Y-109865724D01*
X129947445Y-109797607D01*
X129947447Y-109797604D01*
X130000431Y-109705833D01*
X130000431Y-109705832D01*
X130000432Y-109705831D01*
X130018834Y-109601468D01*
X130000432Y-109497105D01*
X130000431Y-109497103D01*
X130000431Y-109497102D01*
X129947447Y-109405331D01*
X129947445Y-109405328D01*
X129866266Y-109337211D01*
X129766684Y-109300968D01*
X129660712Y-109300968D01*
X129561129Y-109337211D01*
X129479950Y-109405328D01*
X129479948Y-109405331D01*
X129426964Y-109497102D01*
X129409232Y-109597669D01*
X129408562Y-109601468D01*
X126522675Y-109601468D01*
X126538494Y-109574068D01*
X126539759Y-109571877D01*
X126539759Y-109571876D01*
X126539760Y-109571875D01*
X126558162Y-109467512D01*
X126539760Y-109363149D01*
X126539759Y-109363147D01*
X126539759Y-109363146D01*
X126486775Y-109271375D01*
X126486774Y-109271373D01*
X126455545Y-109245170D01*
X126449294Y-109239924D01*
X126431978Y-109206660D01*
X126443254Y-109170893D01*
X126449289Y-109164858D01*
X126480524Y-109138650D01*
X126511425Y-109085127D01*
X126533509Y-109046877D01*
X126533509Y-109046876D01*
X126533510Y-109046875D01*
X126551912Y-108942512D01*
X126533510Y-108838149D01*
X126533509Y-108838147D01*
X126533509Y-108838146D01*
X126480525Y-108746375D01*
X126480521Y-108746370D01*
X126446770Y-108718050D01*
X126429452Y-108684785D01*
X126440730Y-108649018D01*
X126446764Y-108642982D01*
X126474274Y-108619900D01*
X126523323Y-108534944D01*
X126527259Y-108528127D01*
X126527259Y-108528126D01*
X126527260Y-108528125D01*
X126545662Y-108423762D01*
X126527260Y-108319399D01*
X126527259Y-108319397D01*
X126527259Y-108319396D01*
X126474275Y-108227626D01*
X126474274Y-108227624D01*
X126446767Y-108204543D01*
X126429452Y-108171281D01*
X126440728Y-108135513D01*
X126446760Y-108129480D01*
X126480524Y-108101150D01*
X126533510Y-108009375D01*
X126551912Y-107905012D01*
X126533510Y-107800649D01*
X126533509Y-107800647D01*
X126533509Y-107800646D01*
X126480525Y-107708875D01*
X126480523Y-107708872D01*
X126439321Y-107674300D01*
X126422004Y-107641035D01*
X126433282Y-107605267D01*
X126439314Y-107599234D01*
X126474274Y-107569900D01*
X126514116Y-107500892D01*
X132023234Y-107500892D01*
X132041636Y-107605257D01*
X132094620Y-107697028D01*
X132094622Y-107697031D01*
X132175801Y-107765148D01*
X132275384Y-107801392D01*
X132381356Y-107801392D01*
X132480938Y-107765148D01*
X132562117Y-107697031D01*
X132562119Y-107697028D01*
X132575700Y-107673506D01*
X132596188Y-107638018D01*
X132615103Y-107605257D01*
X132615103Y-107605256D01*
X132615104Y-107605255D01*
X132633506Y-107500892D01*
X132615104Y-107396529D01*
X132615103Y-107396527D01*
X132615103Y-107396526D01*
X132562119Y-107304755D01*
X132562117Y-107304752D01*
X132480938Y-107236635D01*
X132381356Y-107200392D01*
X132275384Y-107200392D01*
X132175801Y-107236635D01*
X132094622Y-107304752D01*
X132094620Y-107304755D01*
X132041636Y-107396526D01*
X132023234Y-107500892D01*
X126514116Y-107500892D01*
X126527260Y-107478125D01*
X126545662Y-107373762D01*
X126527260Y-107269399D01*
X126527259Y-107269397D01*
X126527259Y-107269396D01*
X126474275Y-107177625D01*
X126474273Y-107177622D01*
X126435597Y-107145169D01*
X126432667Y-107139540D01*
X131096743Y-107139540D01*
X131097736Y-107145169D01*
X131115145Y-107243905D01*
X131168129Y-107335676D01*
X131168131Y-107335679D01*
X131249310Y-107403796D01*
X131348893Y-107440040D01*
X131454865Y-107440040D01*
X131554447Y-107403796D01*
X131635626Y-107335679D01*
X131635628Y-107335676D01*
X131645936Y-107317823D01*
X131688613Y-107243903D01*
X131707015Y-107139540D01*
X131688613Y-107035177D01*
X131688612Y-107035175D01*
X131688612Y-107035174D01*
X131635628Y-106943403D01*
X131635626Y-106943400D01*
X131554447Y-106875283D01*
X131454865Y-106839040D01*
X131348893Y-106839040D01*
X131249310Y-106875283D01*
X131168131Y-106943400D01*
X131168129Y-106943403D01*
X131115145Y-107035174D01*
X131097740Y-107133885D01*
X131096743Y-107139540D01*
X126432667Y-107139540D01*
X126418280Y-107111903D01*
X126429558Y-107076136D01*
X126435589Y-107070104D01*
X126480524Y-107032400D01*
X126533510Y-106940625D01*
X126551912Y-106836262D01*
X126533510Y-106731899D01*
X126533509Y-106731897D01*
X126533509Y-106731896D01*
X126480525Y-106640125D01*
X126480523Y-106640122D01*
X126449894Y-106614422D01*
X126432576Y-106581157D01*
X126443854Y-106545390D01*
X126449886Y-106539357D01*
X126480524Y-106513650D01*
X126516248Y-106451774D01*
X126533509Y-106421877D01*
X126533509Y-106421876D01*
X126533510Y-106421875D01*
X126551912Y-106317512D01*
X126533510Y-106213149D01*
X126533509Y-106213147D01*
X126533509Y-106213146D01*
X126480525Y-106121376D01*
X126480524Y-106121374D01*
X126453017Y-106098293D01*
X126435702Y-106065031D01*
X126446978Y-106029263D01*
X126453010Y-106023230D01*
X126486774Y-105994900D01*
X126536753Y-105908333D01*
X126539759Y-105903127D01*
X126539759Y-105903126D01*
X126539760Y-105903125D01*
X126558162Y-105798762D01*
X126539760Y-105694399D01*
X126539759Y-105694397D01*
X126539759Y-105694396D01*
X126491803Y-105611334D01*
X126486774Y-105602624D01*
X126481823Y-105598470D01*
X126464865Y-105584240D01*
X126447548Y-105550974D01*
X126458826Y-105515207D01*
X126464863Y-105509169D01*
X126514210Y-105467763D01*
X126557723Y-105392396D01*
X126567195Y-105375990D01*
X126567195Y-105375989D01*
X126567196Y-105375988D01*
X126585598Y-105271625D01*
X126567196Y-105167262D01*
X126567195Y-105167260D01*
X126567195Y-105167259D01*
X126514211Y-105075488D01*
X126514209Y-105075485D01*
X126433030Y-105007368D01*
X126428773Y-105005819D01*
X126401125Y-104980480D01*
X126399491Y-104943013D01*
X126421856Y-104918609D01*
X126421108Y-104917314D01*
X126424818Y-104915172D01*
X126505998Y-104847054D01*
X126506000Y-104847051D01*
X126508422Y-104842857D01*
X126549343Y-104771978D01*
X126558984Y-104755280D01*
X126558984Y-104755279D01*
X126558985Y-104755278D01*
X126577387Y-104650915D01*
X126558985Y-104546552D01*
X126558984Y-104546550D01*
X126558984Y-104546549D01*
X126506000Y-104454778D01*
X126505996Y-104454773D01*
X126446775Y-104405081D01*
X126429457Y-104371816D01*
X126440735Y-104336049D01*
X126446768Y-104330014D01*
X126493499Y-104290803D01*
X126546485Y-104199028D01*
X126564887Y-104094665D01*
X126546485Y-103990302D01*
X126546484Y-103990300D01*
X126546484Y-103990299D01*
X126522178Y-103948199D01*
X127285457Y-103948199D01*
X127303859Y-104052564D01*
X127356843Y-104144335D01*
X127356845Y-104144338D01*
X127438024Y-104212455D01*
X127537607Y-104248699D01*
X127643579Y-104248699D01*
X127743161Y-104212455D01*
X127824340Y-104144338D01*
X127824342Y-104144335D01*
X127827137Y-104139495D01*
X127877327Y-104052562D01*
X127895729Y-103948199D01*
X127877327Y-103843836D01*
X127877326Y-103843834D01*
X127877326Y-103843833D01*
X127870557Y-103832108D01*
X127981140Y-103832108D01*
X127983208Y-103843836D01*
X127999542Y-103936473D01*
X128052526Y-104028244D01*
X128052528Y-104028247D01*
X128133707Y-104096364D01*
X128233290Y-104132608D01*
X128339262Y-104132608D01*
X128438844Y-104096364D01*
X128520023Y-104028247D01*
X128520025Y-104028244D01*
X128573009Y-103936473D01*
X128573009Y-103936472D01*
X128573010Y-103936471D01*
X128591412Y-103832108D01*
X128573010Y-103727745D01*
X128573009Y-103727743D01*
X128573009Y-103727742D01*
X128520025Y-103635971D01*
X128520023Y-103635968D01*
X128438844Y-103567851D01*
X128339262Y-103531608D01*
X128233290Y-103531608D01*
X128133707Y-103567851D01*
X128052528Y-103635968D01*
X128052526Y-103635971D01*
X127999542Y-103727742D01*
X127981140Y-103832107D01*
X127981140Y-103832108D01*
X127870557Y-103832108D01*
X127824342Y-103752062D01*
X127824340Y-103752059D01*
X127743161Y-103683942D01*
X127643579Y-103647699D01*
X127537607Y-103647699D01*
X127438024Y-103683942D01*
X127356845Y-103752059D01*
X127356843Y-103752062D01*
X127303859Y-103843833D01*
X127285457Y-103948199D01*
X126522178Y-103948199D01*
X126493500Y-103898528D01*
X126493498Y-103898525D01*
X126440524Y-103854075D01*
X126423207Y-103820810D01*
X126434485Y-103785042D01*
X126440516Y-103779010D01*
X126493499Y-103734553D01*
X126546485Y-103642778D01*
X126564887Y-103538415D01*
X126546485Y-103434052D01*
X126546484Y-103434050D01*
X126546484Y-103434049D01*
X126525369Y-103397477D01*
X126743872Y-103397477D01*
X126762274Y-103501842D01*
X126815258Y-103593613D01*
X126815260Y-103593616D01*
X126896439Y-103661733D01*
X126996022Y-103697977D01*
X127101994Y-103697977D01*
X127201576Y-103661733D01*
X127282755Y-103593616D01*
X127282757Y-103593613D01*
X127292651Y-103576477D01*
X127335742Y-103501840D01*
X127354144Y-103397477D01*
X127335742Y-103293114D01*
X127335741Y-103293112D01*
X127335741Y-103293111D01*
X127282757Y-103201340D01*
X127282755Y-103201337D01*
X127201576Y-103133220D01*
X127101994Y-103096977D01*
X126996022Y-103096977D01*
X126896439Y-103133220D01*
X126815260Y-103201337D01*
X126815258Y-103201340D01*
X126762274Y-103293111D01*
X126743872Y-103397477D01*
X126525369Y-103397477D01*
X126493500Y-103342278D01*
X126493498Y-103342275D01*
X126445447Y-103301956D01*
X126428130Y-103268691D01*
X126439408Y-103232923D01*
X126445443Y-103226887D01*
X126480999Y-103197053D01*
X126514254Y-103139453D01*
X126533984Y-103105280D01*
X126533984Y-103105279D01*
X126533985Y-103105278D01*
X126552387Y-103000915D01*
X126533985Y-102896552D01*
X126533984Y-102896550D01*
X126533984Y-102896549D01*
X126481000Y-102804778D01*
X126480998Y-102804775D01*
X126434873Y-102766072D01*
X126417556Y-102732807D01*
X126428834Y-102697039D01*
X126434862Y-102691010D01*
X126487249Y-102647053D01*
X126532724Y-102568287D01*
X126540234Y-102555280D01*
X126540234Y-102555279D01*
X126540235Y-102555278D01*
X126542533Y-102542244D01*
X128002283Y-102542244D01*
X128003892Y-102551369D01*
X128020685Y-102646609D01*
X128073669Y-102738380D01*
X128073671Y-102738383D01*
X128154850Y-102806500D01*
X128254433Y-102842744D01*
X128360403Y-102842744D01*
X128360405Y-102842744D01*
X128369309Y-102839503D01*
X128406773Y-102841136D01*
X128420730Y-102850913D01*
X130079216Y-104510938D01*
X130085068Y-104516795D01*
X130099404Y-104551450D01*
X130085036Y-104586091D01*
X130050381Y-104600427D01*
X130020575Y-104590301D01*
X129973268Y-104554001D01*
X129973263Y-104553998D01*
X129825242Y-104492686D01*
X129741226Y-104481626D01*
X129706278Y-104477025D01*
X129626508Y-104477025D01*
X129592827Y-104481459D01*
X129507543Y-104492686D01*
X129359522Y-104553998D01*
X129359517Y-104554001D01*
X129232407Y-104651536D01*
X129134869Y-104778648D01*
X129134866Y-104778653D01*
X129073554Y-104926675D01*
X129052642Y-105085524D01*
X129073554Y-105244374D01*
X129134866Y-105392395D01*
X129134869Y-105392400D01*
X129229102Y-105515207D01*
X129232406Y-105519512D01*
X129359518Y-105617049D01*
X129359520Y-105617049D01*
X129359522Y-105617051D01*
X129475250Y-105664987D01*
X129507543Y-105678363D01*
X129626508Y-105694025D01*
X129626512Y-105694025D01*
X129706274Y-105694025D01*
X129706278Y-105694025D01*
X129825243Y-105678363D01*
X129973268Y-105617049D01*
X130100380Y-105519512D01*
X130197917Y-105392401D01*
X130259231Y-105244375D01*
X130280144Y-105085525D01*
X130259231Y-104926675D01*
X130244112Y-104890175D01*
X130197919Y-104778654D01*
X130197916Y-104778649D01*
X130195899Y-104776021D01*
X130186602Y-104763905D01*
X130162077Y-104731942D01*
X130152370Y-104695717D01*
X130171122Y-104663239D01*
X130207347Y-104653532D01*
X130235613Y-104667480D01*
X131988383Y-106421875D01*
X132002029Y-106435534D01*
X132016365Y-106470189D01*
X132001997Y-106504830D01*
X131984124Y-106516211D01*
X131913591Y-106541882D01*
X131832412Y-106609998D01*
X131832410Y-106610001D01*
X131779426Y-106701772D01*
X131761024Y-106806138D01*
X131779426Y-106910503D01*
X131832410Y-107002274D01*
X131832412Y-107002277D01*
X131913591Y-107070394D01*
X132013174Y-107106638D01*
X132119146Y-107106638D01*
X132218728Y-107070394D01*
X132299907Y-107002277D01*
X132299909Y-107002274D01*
X132333898Y-106943403D01*
X132352894Y-106910501D01*
X132355090Y-106898041D01*
X132375240Y-106866413D01*
X132411854Y-106858295D01*
X132438009Y-106871918D01*
X132710853Y-107145015D01*
X135550968Y-109987766D01*
X135565304Y-110022421D01*
X135550936Y-110057062D01*
X135516281Y-110071398D01*
X135490433Y-110064012D01*
X135464145Y-110047669D01*
X134712342Y-109580279D01*
X134086957Y-109191482D01*
X134065109Y-109161000D01*
X134063838Y-109149958D01*
X134063827Y-109149899D01*
X134063828Y-109149897D01*
X134045426Y-109045534D01*
X134045425Y-109045532D01*
X134045425Y-109045531D01*
X133992441Y-108953760D01*
X133992439Y-108953757D01*
X133911260Y-108885640D01*
X133811678Y-108849397D01*
X133705706Y-108849397D01*
X133606122Y-108885641D01*
X133606121Y-108885641D01*
X133529157Y-108950222D01*
X133493390Y-108961500D01*
X133488946Y-108960905D01*
X131093114Y-108527870D01*
X131061571Y-108507584D01*
X131059394Y-108504151D01*
X131007487Y-108414245D01*
X131007485Y-108414242D01*
X130926306Y-108346125D01*
X130826724Y-108309882D01*
X130720752Y-108309882D01*
X130621169Y-108346125D01*
X130539990Y-108414242D01*
X130539988Y-108414245D01*
X130487004Y-108506016D01*
X130468602Y-108610382D01*
X130487004Y-108714747D01*
X130539988Y-108806518D01*
X130539990Y-108806521D01*
X130568020Y-108830041D01*
X130585337Y-108863307D01*
X130574059Y-108899074D01*
X130568020Y-108905113D01*
X130551076Y-108919330D01*
X130551074Y-108919333D01*
X130498090Y-109011104D01*
X130479688Y-109115470D01*
X130498090Y-109219835D01*
X130551074Y-109311606D01*
X130551076Y-109311609D01*
X130632255Y-109379726D01*
X130731838Y-109415970D01*
X130837810Y-109415970D01*
X130937392Y-109379726D01*
X131018571Y-109311609D01*
X131018573Y-109311606D01*
X131071557Y-109219835D01*
X131071557Y-109219834D01*
X131071558Y-109219833D01*
X131089960Y-109115470D01*
X131071558Y-109011107D01*
X131071557Y-109011105D01*
X131071557Y-109011104D01*
X131018573Y-108919333D01*
X131018569Y-108919328D01*
X130990541Y-108895810D01*
X130973223Y-108862545D01*
X130984501Y-108826778D01*
X130990534Y-108820743D01*
X131003274Y-108810053D01*
X131039041Y-108798778D01*
X131043477Y-108799371D01*
X133345530Y-109215456D01*
X133439314Y-109232407D01*
X133470857Y-109252693D01*
X133473034Y-109256126D01*
X133524942Y-109346033D01*
X133524944Y-109346036D01*
X133606123Y-109414153D01*
X133705706Y-109450397D01*
X133811677Y-109450397D01*
X133811678Y-109450397D01*
X133895879Y-109419751D01*
X133933346Y-109421387D01*
X133938508Y-109424182D01*
X134791793Y-109954662D01*
X135888023Y-110636179D01*
X135909871Y-110666661D01*
X135903766Y-110703664D01*
X135893649Y-110715329D01*
X135851794Y-110750449D01*
X135851792Y-110750452D01*
X135798808Y-110842223D01*
X135780406Y-110946589D01*
X135798808Y-111050954D01*
X135851792Y-111142725D01*
X135851794Y-111142728D01*
X135932973Y-111210845D01*
X136032556Y-111247089D01*
X136138528Y-111247089D01*
X136238110Y-111210845D01*
X136319288Y-111142729D01*
X136319288Y-111142728D01*
X136319290Y-111142727D01*
X136319351Y-111142621D01*
X136319430Y-111142560D01*
X136322043Y-111139446D01*
X136322733Y-111140025D01*
X136349100Y-111119788D01*
X136386283Y-111124679D01*
X136402710Y-111140166D01*
X136815587Y-111767081D01*
X136822659Y-111803911D01*
X136801616Y-111834954D01*
X136765106Y-111842090D01*
X136705165Y-111830168D01*
X136617178Y-111847669D01*
X136542587Y-111897508D01*
X136492748Y-111972099D01*
X136476538Y-112053598D01*
X136475247Y-112060086D01*
X136492210Y-112145369D01*
X136492748Y-112148072D01*
X136542587Y-112222663D01*
X136568605Y-112240047D01*
X136617179Y-112272503D01*
X136705165Y-112290004D01*
X136793151Y-112272503D01*
X136867742Y-112222663D01*
X136917582Y-112148072D01*
X136928829Y-112091524D01*
X136949663Y-112060344D01*
X136986446Y-112053027D01*
X137017629Y-112073862D01*
X137017809Y-112074135D01*
X137092423Y-112187429D01*
X137164916Y-112297503D01*
X137166127Y-112299341D01*
X137167059Y-112300967D01*
X137176727Y-112315437D01*
X137186375Y-112330087D01*
X137187515Y-112331584D01*
X137215479Y-112373435D01*
X137215588Y-112373577D01*
X137218230Y-112377532D01*
X137250673Y-112414538D01*
X137250682Y-112414547D01*
X137259483Y-112422267D01*
X137287682Y-112447004D01*
X137289505Y-112448222D01*
X137291388Y-112449481D01*
X137291415Y-112449501D01*
X137293052Y-112450595D01*
X137293053Y-112450596D01*
X137306977Y-112459900D01*
X137306980Y-112459902D01*
X137308144Y-112460680D01*
X137334281Y-112478150D01*
X137334287Y-112478157D01*
X137369175Y-112501466D01*
X137369179Y-112501469D01*
X137411006Y-112522092D01*
X137413330Y-112523238D01*
X137446937Y-112534643D01*
X137449641Y-112537013D01*
X137474495Y-112541951D01*
X137484086Y-112543858D01*
X137484085Y-112543858D01*
X137487130Y-112544463D01*
X137549727Y-112556915D01*
X137549732Y-112556914D01*
X137552929Y-112557124D01*
X137552917Y-112557300D01*
X137556503Y-112557414D01*
X137568319Y-112558972D01*
X137580272Y-112559756D01*
X137583790Y-112560340D01*
X137583814Y-112560166D01*
X137586998Y-112560586D01*
X137605145Y-112560586D01*
X137636642Y-112560591D01*
X137636643Y-112560590D01*
X137642315Y-112560591D01*
X137642366Y-112560586D01*
X138073335Y-112560586D01*
X138076523Y-112560166D01*
X138076554Y-112560408D01*
X138080561Y-112559774D01*
X138083353Y-112559632D01*
X138083924Y-112559603D01*
X138083919Y-112559604D01*
X138087329Y-112559254D01*
X138091362Y-112559272D01*
X138091357Y-112559026D01*
X138094583Y-112558953D01*
X138110019Y-112556566D01*
X138112515Y-112556180D01*
X138112515Y-112556181D01*
X138143643Y-112551373D01*
X138143644Y-112551372D01*
X138150507Y-112550312D01*
X138150546Y-112550299D01*
X138975887Y-112422709D01*
X138980589Y-112422505D01*
X138980574Y-112422267D01*
X138983778Y-112422057D01*
X138983778Y-112422056D01*
X138983779Y-112422057D01*
X138990172Y-112420785D01*
X138996566Y-112419513D01*
X138998717Y-112419180D01*
X139009480Y-112417517D01*
X139009489Y-112417512D01*
X139012563Y-112416615D01*
X139012631Y-112416850D01*
X139017116Y-112415427D01*
X139018545Y-112415142D01*
X139018547Y-112415143D01*
X139030210Y-112412822D01*
X139030221Y-112412824D01*
X139049439Y-112408999D01*
X139049440Y-112409000D01*
X139064742Y-112405955D01*
X139064747Y-112405953D01*
X139065386Y-112405826D01*
X139065460Y-112405808D01*
X139067249Y-112405453D01*
X139068094Y-112405035D01*
X139071034Y-112403817D01*
X139094289Y-112395922D01*
X139116250Y-112385088D01*
X139119216Y-112383859D01*
X139120121Y-112383553D01*
X139120121Y-112383552D01*
X139123172Y-112382518D01*
X139123462Y-112383373D01*
X139157447Y-112381140D01*
X139185648Y-112405862D01*
X139189764Y-112437102D01*
X139176962Y-112501466D01*
X139175247Y-112510086D01*
X139185127Y-112559756D01*
X139192748Y-112598072D01*
X139242587Y-112672663D01*
X139292427Y-112705964D01*
X139317179Y-112722503D01*
X139405165Y-112740004D01*
X139493151Y-112722503D01*
X139567742Y-112672663D01*
X139589423Y-112640214D01*
X139620605Y-112619380D01*
X139657388Y-112626696D01*
X139670907Y-112640215D01*
X139692587Y-112672663D01*
X139742427Y-112705964D01*
X139767179Y-112722503D01*
X139855165Y-112740004D01*
X139943151Y-112722503D01*
X140017742Y-112672663D01*
X140039423Y-112640214D01*
X140070605Y-112619380D01*
X140107388Y-112626696D01*
X140120907Y-112640215D01*
X140142587Y-112672663D01*
X140192427Y-112705964D01*
X140217179Y-112722503D01*
X140305165Y-112740004D01*
X140393151Y-112722503D01*
X140467742Y-112672663D01*
X140489423Y-112640214D01*
X140520605Y-112619380D01*
X140557388Y-112626696D01*
X140570907Y-112640215D01*
X140592587Y-112672663D01*
X140642427Y-112705964D01*
X140667179Y-112722503D01*
X140755165Y-112740004D01*
X140843151Y-112722503D01*
X140917742Y-112672663D01*
X140967582Y-112598072D01*
X140985083Y-112510086D01*
X140967582Y-112422100D01*
X140942853Y-112385090D01*
X140917742Y-112347508D01*
X140843151Y-112297669D01*
X140755165Y-112280168D01*
X140667178Y-112297669D01*
X140592587Y-112347508D01*
X140570907Y-112379956D01*
X140539724Y-112400792D01*
X140502942Y-112393475D01*
X140489423Y-112379956D01*
X140467742Y-112347508D01*
X140393151Y-112297669D01*
X140305165Y-112280168D01*
X140217178Y-112297669D01*
X140142587Y-112347508D01*
X140120907Y-112379956D01*
X140089724Y-112400792D01*
X140052942Y-112393475D01*
X140039423Y-112379956D01*
X140017742Y-112347508D01*
X139985294Y-112325828D01*
X139964459Y-112294646D01*
X139971775Y-112257863D01*
X139985294Y-112244344D01*
X140017742Y-112222663D01*
X140039423Y-112190215D01*
X140067582Y-112148072D01*
X140085083Y-112060086D01*
X140067582Y-111972100D01*
X140046012Y-111939818D01*
X140017742Y-111897508D01*
X139943151Y-111847669D01*
X139855165Y-111830168D01*
X139767178Y-111847669D01*
X139692587Y-111897508D01*
X139670907Y-111929956D01*
X139639724Y-111950792D01*
X139602942Y-111943475D01*
X139589423Y-111929956D01*
X139567742Y-111897508D01*
X139535294Y-111875828D01*
X139514459Y-111844646D01*
X139521775Y-111807863D01*
X139535294Y-111794344D01*
X139567742Y-111772663D01*
X139575788Y-111760621D01*
X139617582Y-111698072D01*
X139635083Y-111610086D01*
X139629425Y-111581644D01*
X139636744Y-111544862D01*
X139667927Y-111524027D01*
X139677485Y-111523086D01*
X139873332Y-111523086D01*
X139876513Y-111522667D01*
X139876586Y-111523225D01*
X139880608Y-111522829D01*
X139880572Y-111522267D01*
X139883771Y-111522056D01*
X139883779Y-111522057D01*
X139902508Y-111518331D01*
X139932423Y-111512397D01*
X139932423Y-111512396D01*
X139937950Y-111511300D01*
X139938071Y-111511261D01*
X139949439Y-111508999D01*
X139949440Y-111509000D01*
X139962084Y-111506485D01*
X139962091Y-111506482D01*
X139962677Y-111506366D01*
X139962808Y-111506335D01*
X139967249Y-111505453D01*
X139967250Y-111505452D01*
X139967252Y-111505452D01*
X139967353Y-111505418D01*
X139974160Y-111502688D01*
X139980511Y-111500690D01*
X139986679Y-111498752D01*
X139998653Y-111493505D01*
X140005598Y-111491081D01*
X140005689Y-111491042D01*
X140005700Y-111491040D01*
X140009611Y-111488794D01*
X140009734Y-111488729D01*
X140015901Y-111485188D01*
X140015908Y-111485185D01*
X140017446Y-111484302D01*
X140018910Y-111484112D01*
X140032249Y-111479345D01*
X140032255Y-111479344D01*
X140032751Y-111482320D01*
X140054639Y-111479487D01*
X140084343Y-111502381D01*
X140089913Y-111536348D01*
X140082198Y-111575137D01*
X140075247Y-111610085D01*
X140092748Y-111698072D01*
X140142587Y-111772663D01*
X140175036Y-111794344D01*
X140217179Y-111822503D01*
X140305165Y-111840004D01*
X140393151Y-111822503D01*
X140467742Y-111772663D01*
X140489423Y-111740214D01*
X140520605Y-111719380D01*
X140557388Y-111726696D01*
X140570907Y-111740215D01*
X140592587Y-111772663D01*
X140625036Y-111794344D01*
X140667179Y-111822503D01*
X140755165Y-111840004D01*
X140843151Y-111822503D01*
X140917742Y-111772663D01*
X140967582Y-111698072D01*
X140985083Y-111610086D01*
X140985083Y-111610085D01*
X141425247Y-111610085D01*
X141442748Y-111698072D01*
X141492587Y-111772663D01*
X141525036Y-111794344D01*
X141567179Y-111822503D01*
X141655165Y-111840004D01*
X141743151Y-111822503D01*
X141817742Y-111772663D01*
X141867582Y-111698072D01*
X141885083Y-111610086D01*
X141867582Y-111522100D01*
X141851043Y-111497348D01*
X141817742Y-111447508D01*
X141743151Y-111397669D01*
X141655165Y-111380168D01*
X141567178Y-111397669D01*
X141492587Y-111447508D01*
X141442748Y-111522099D01*
X141425247Y-111610085D01*
X140985083Y-111610085D01*
X140967582Y-111522100D01*
X140951043Y-111497348D01*
X140917742Y-111447508D01*
X140885294Y-111425828D01*
X140864459Y-111394646D01*
X140871775Y-111357863D01*
X140885294Y-111344344D01*
X140917742Y-111322663D01*
X140934938Y-111296927D01*
X140967582Y-111248072D01*
X140985083Y-111160086D01*
X140967582Y-111072100D01*
X140964571Y-111067593D01*
X140957255Y-111030811D01*
X140978091Y-110999629D01*
X140980913Y-110997878D01*
X141097599Y-110930918D01*
X141131543Y-110925360D01*
X141205165Y-110940004D01*
X141293151Y-110922503D01*
X141367742Y-110872663D01*
X141417582Y-110798072D01*
X141435083Y-110710086D01*
X141417582Y-110622100D01*
X141398455Y-110593475D01*
X141367742Y-110547508D01*
X141293151Y-110497669D01*
X141271377Y-110493338D01*
X141205165Y-110480168D01*
X141205164Y-110480168D01*
X141117178Y-110497669D01*
X141042587Y-110547508D01*
X141020907Y-110579956D01*
X140989724Y-110600792D01*
X140952942Y-110593475D01*
X140939423Y-110579956D01*
X140917742Y-110547508D01*
X140843151Y-110497669D01*
X140755165Y-110480168D01*
X140667178Y-110497669D01*
X140592587Y-110547508D01*
X140570907Y-110579956D01*
X140539724Y-110600792D01*
X140502942Y-110593475D01*
X140489423Y-110579956D01*
X140467742Y-110547508D01*
X140393151Y-110497669D01*
X140371377Y-110493338D01*
X140305165Y-110480168D01*
X140305164Y-110480168D01*
X140217178Y-110497669D01*
X140142587Y-110547508D01*
X140120907Y-110579956D01*
X140089724Y-110600792D01*
X140052942Y-110593475D01*
X140039423Y-110579956D01*
X140017742Y-110547508D01*
X139943151Y-110497669D01*
X139925179Y-110494094D01*
X139893998Y-110473259D01*
X139890674Y-110467464D01*
X139571149Y-109810085D01*
X141425247Y-109810085D01*
X141442748Y-109898072D01*
X141492587Y-109972663D01*
X141533242Y-109999827D01*
X141567179Y-110022503D01*
X141655165Y-110040004D01*
X141743151Y-110022503D01*
X141817742Y-109972663D01*
X141867582Y-109898072D01*
X141885083Y-109810086D01*
X141867582Y-109722100D01*
X141828527Y-109663650D01*
X141817742Y-109647508D01*
X141743151Y-109597669D01*
X141669880Y-109583095D01*
X141655165Y-109580168D01*
X141655164Y-109580168D01*
X141567178Y-109597669D01*
X141492587Y-109647508D01*
X141442748Y-109722099D01*
X141425247Y-109810085D01*
X139571149Y-109810085D01*
X139289253Y-109230121D01*
X139287015Y-109192686D01*
X139311903Y-109164632D01*
X139349340Y-109162393D01*
X139364820Y-109171166D01*
X139417603Y-109215455D01*
X139417604Y-109215455D01*
X139417605Y-109215456D01*
X139517187Y-109251700D01*
X139623159Y-109251700D01*
X139722741Y-109215456D01*
X139803920Y-109147339D01*
X139803922Y-109147336D01*
X139808938Y-109138649D01*
X139839838Y-109085127D01*
X139856906Y-109055565D01*
X139856906Y-109055564D01*
X139856907Y-109055563D01*
X139875309Y-108951200D01*
X139856907Y-108846837D01*
X139856906Y-108846835D01*
X139856906Y-108846834D01*
X139803922Y-108755063D01*
X139803920Y-108755060D01*
X139722741Y-108686943D01*
X139623159Y-108650700D01*
X139517187Y-108650700D01*
X139417604Y-108686943D01*
X139336425Y-108755060D01*
X139336423Y-108755063D01*
X139283439Y-108846834D01*
X139278244Y-108876297D01*
X139265210Y-108950222D01*
X139265037Y-108951202D01*
X139267588Y-108965673D01*
X139259469Y-109002286D01*
X139227838Y-109022435D01*
X139191225Y-109014316D01*
X139175263Y-108995602D01*
X139025120Y-108686702D01*
X139025080Y-108686587D01*
X139016944Y-108669864D01*
X139016943Y-108669852D01*
X139007862Y-108651190D01*
X139005317Y-108644811D01*
X139005245Y-108644658D01*
X139005244Y-108644655D01*
X139003659Y-108642172D01*
X139002274Y-108639698D01*
X139001527Y-108638162D01*
X139000982Y-108637041D01*
X139000979Y-108637037D01*
X139000901Y-108636919D01*
X138996790Y-108631412D01*
X138995459Y-108629330D01*
X138995173Y-108628883D01*
X138989437Y-108619900D01*
X137837505Y-106815731D01*
X138026314Y-106815731D01*
X138044716Y-106920096D01*
X138097700Y-107011867D01*
X138097702Y-107011870D01*
X138178881Y-107079987D01*
X138278464Y-107116231D01*
X138384436Y-107116231D01*
X138484018Y-107079987D01*
X138565197Y-107011870D01*
X138565199Y-107011867D01*
X138570271Y-107003083D01*
X138606329Y-106940627D01*
X138618183Y-106920096D01*
X138618183Y-106920095D01*
X138618184Y-106920094D01*
X138636586Y-106815731D01*
X138618184Y-106711368D01*
X138618183Y-106711366D01*
X138618183Y-106711365D01*
X138565199Y-106619594D01*
X138565197Y-106619591D01*
X138484018Y-106551474D01*
X138384436Y-106515231D01*
X138278464Y-106515231D01*
X138178881Y-106551474D01*
X138097702Y-106619591D01*
X138097700Y-106619594D01*
X138044716Y-106711365D01*
X138026314Y-106815731D01*
X137837505Y-106815731D01*
X137488247Y-106268720D01*
X137089797Y-105644664D01*
X137083248Y-105607738D01*
X137088663Y-105593793D01*
X137092506Y-105587137D01*
X137100546Y-105573212D01*
X137118948Y-105468849D01*
X137100546Y-105364486D01*
X137100545Y-105364484D01*
X137100545Y-105364483D01*
X137046207Y-105270366D01*
X137041312Y-105233184D01*
X137057147Y-105208329D01*
X137060977Y-105205115D01*
X137063771Y-105202771D01*
X137112474Y-105118414D01*
X137116756Y-105110998D01*
X137116756Y-105110997D01*
X137116757Y-105110996D01*
X137135159Y-105006633D01*
X137116757Y-104902270D01*
X137116756Y-104902268D01*
X137116756Y-104902267D01*
X137063772Y-104810496D01*
X137063770Y-104810493D01*
X136982591Y-104742376D01*
X136883009Y-104706133D01*
X136777037Y-104706133D01*
X136677454Y-104742376D01*
X136596275Y-104810493D01*
X136596273Y-104810496D01*
X136543289Y-104902267D01*
X136524887Y-105006633D01*
X136543289Y-105110998D01*
X136597627Y-105205115D01*
X136602522Y-105242298D01*
X136586692Y-105267149D01*
X136580064Y-105272711D01*
X136580062Y-105272713D01*
X136527078Y-105364483D01*
X136508676Y-105468849D01*
X136527078Y-105573214D01*
X136580062Y-105664985D01*
X136580064Y-105664988D01*
X136661243Y-105733105D01*
X136760826Y-105769349D01*
X136815097Y-105769349D01*
X136849745Y-105783701D01*
X136856394Y-105791977D01*
X137517311Y-106827111D01*
X138564529Y-108467275D01*
X138571078Y-108504201D01*
X138549598Y-108534944D01*
X138539988Y-108539689D01*
X138457524Y-108569703D01*
X138376345Y-108637819D01*
X138376343Y-108637822D01*
X138323359Y-108729593D01*
X138304957Y-108833959D01*
X138323359Y-108938324D01*
X138376343Y-109030095D01*
X138376347Y-109030100D01*
X138451231Y-109092934D01*
X138457525Y-109098215D01*
X138480353Y-109106523D01*
X138508003Y-109131858D01*
X138509641Y-109169325D01*
X138506031Y-109177067D01*
X138489646Y-109205447D01*
X138471244Y-109309811D01*
X138489646Y-109414177D01*
X138542630Y-109505948D01*
X138542632Y-109505951D01*
X138623811Y-109574068D01*
X138723394Y-109610312D01*
X138829366Y-109610312D01*
X138928948Y-109574068D01*
X139010127Y-109505951D01*
X139010129Y-109505948D01*
X139012392Y-109502029D01*
X139021696Y-109485912D01*
X139051448Y-109463081D01*
X139088630Y-109467975D01*
X139108202Y-109488990D01*
X139448807Y-110189738D01*
X139551621Y-110401264D01*
X139570103Y-110439287D01*
X139572342Y-110476723D01*
X139547454Y-110504778D01*
X139510018Y-110507017D01*
X139498812Y-110501451D01*
X139493152Y-110497669D01*
X139449158Y-110488918D01*
X139405165Y-110480168D01*
X139405164Y-110480168D01*
X139317178Y-110497669D01*
X139242587Y-110547508D01*
X139192748Y-110622099D01*
X139176104Y-110705779D01*
X139175247Y-110710086D01*
X139183276Y-110750451D01*
X139192748Y-110798072D01*
X139242587Y-110872663D01*
X139275035Y-110894344D01*
X139295871Y-110925527D01*
X139288554Y-110962309D01*
X139275035Y-110975828D01*
X139242587Y-110997508D01*
X139192748Y-111072099D01*
X139175595Y-111158338D01*
X139175247Y-111160086D01*
X139192748Y-111248072D01*
X139197977Y-111255898D01*
X139205294Y-111292679D01*
X139184465Y-111323857D01*
X139171382Y-111332602D01*
X139171333Y-111332638D01*
X139169444Y-111333901D01*
X139169437Y-111333907D01*
X139168829Y-111334601D01*
X139166573Y-111336856D01*
X139148112Y-111353051D01*
X139148105Y-111353059D01*
X139131964Y-111371467D01*
X139129703Y-111373730D01*
X139128978Y-111374365D01*
X139128974Y-111374370D01*
X139128182Y-111375556D01*
X139128175Y-111375567D01*
X139121847Y-111385039D01*
X139118940Y-111389388D01*
X139087754Y-111410218D01*
X139050981Y-111402901D01*
X139043151Y-111397669D01*
X138955165Y-111380168D01*
X138955164Y-111380168D01*
X138867178Y-111397669D01*
X138792587Y-111447508D01*
X138770907Y-111479956D01*
X138739724Y-111500792D01*
X138702942Y-111493475D01*
X138689423Y-111479956D01*
X138667742Y-111447508D01*
X138635294Y-111425828D01*
X138614459Y-111394646D01*
X138621775Y-111357863D01*
X138635294Y-111344344D01*
X138667742Y-111322663D01*
X138684938Y-111296927D01*
X138717582Y-111248072D01*
X138735083Y-111160086D01*
X138717582Y-111072100D01*
X138689994Y-111030811D01*
X138667742Y-110997508D01*
X138593151Y-110947669D01*
X138505165Y-110930168D01*
X138417178Y-110947669D01*
X138342587Y-110997508D01*
X138292748Y-111072099D01*
X138275247Y-111160085D01*
X138292748Y-111248072D01*
X138342587Y-111322663D01*
X138375035Y-111344344D01*
X138395871Y-111375527D01*
X138388554Y-111412309D01*
X138375035Y-111425828D01*
X138342587Y-111447508D01*
X138320907Y-111479956D01*
X138289724Y-111500792D01*
X138252942Y-111493475D01*
X138239423Y-111479956D01*
X138217742Y-111447508D01*
X138150981Y-111402901D01*
X138143151Y-111397669D01*
X138143150Y-111397668D01*
X138143149Y-111397668D01*
X138106460Y-111390370D01*
X138075278Y-111369535D01*
X138073635Y-111366899D01*
X138068393Y-111357863D01*
X137431601Y-110260086D01*
X137825247Y-110260086D01*
X137837438Y-110321374D01*
X137842748Y-110348072D01*
X137892587Y-110422663D01*
X137942427Y-110455964D01*
X137967179Y-110472503D01*
X138055165Y-110490004D01*
X138143151Y-110472503D01*
X138217742Y-110422663D01*
X138239423Y-110390214D01*
X138270605Y-110369380D01*
X138307388Y-110376696D01*
X138320907Y-110390215D01*
X138342587Y-110422663D01*
X138392427Y-110455964D01*
X138417179Y-110472503D01*
X138505165Y-110490004D01*
X138593151Y-110472503D01*
X138667742Y-110422663D01*
X138717582Y-110348072D01*
X138735083Y-110260086D01*
X138717582Y-110172100D01*
X138698455Y-110143475D01*
X138667742Y-110097508D01*
X138593151Y-110047669D01*
X138505165Y-110030168D01*
X138417178Y-110047669D01*
X138342587Y-110097508D01*
X138320907Y-110129956D01*
X138289724Y-110150792D01*
X138252942Y-110143475D01*
X138239423Y-110129956D01*
X138217742Y-110097508D01*
X138143151Y-110047669D01*
X138055165Y-110030168D01*
X137967178Y-110047669D01*
X137892587Y-110097508D01*
X137842748Y-110172099D01*
X137827553Y-110248495D01*
X137825247Y-110260086D01*
X137431601Y-110260086D01*
X136840813Y-109241617D01*
X137677304Y-109241617D01*
X137678221Y-109246819D01*
X137695706Y-109345982D01*
X137748690Y-109437753D01*
X137748692Y-109437756D01*
X137829871Y-109505873D01*
X137929454Y-109542117D01*
X138035426Y-109542117D01*
X138135008Y-109505873D01*
X138216187Y-109437756D01*
X138216189Y-109437753D01*
X138226583Y-109419751D01*
X138269142Y-109346035D01*
X138269173Y-109345982D01*
X138269173Y-109345981D01*
X138269174Y-109345980D01*
X138287576Y-109241617D01*
X138269174Y-109137254D01*
X138269173Y-109137252D01*
X138269173Y-109137251D01*
X138216189Y-109045480D01*
X138216187Y-109045477D01*
X138135008Y-108977360D01*
X138035426Y-108941117D01*
X137929454Y-108941117D01*
X137829871Y-108977360D01*
X137748692Y-109045477D01*
X137748690Y-109045480D01*
X137695706Y-109137251D01*
X137678928Y-109232407D01*
X137677304Y-109241617D01*
X136840813Y-109241617D01*
X136762075Y-109105880D01*
X136760445Y-109102221D01*
X136760225Y-109102327D01*
X136758834Y-109099422D01*
X136754604Y-109092934D01*
X136753936Y-109091847D01*
X136750037Y-109085125D01*
X136748076Y-109082580D01*
X136748267Y-109082432D01*
X136745734Y-109079324D01*
X136731727Y-109057829D01*
X136731725Y-109057828D01*
X136729022Y-109053679D01*
X136728991Y-109053640D01*
X136724583Y-109046877D01*
X134612175Y-105806158D01*
X134605278Y-105769297D01*
X134610791Y-105754901D01*
X134612167Y-105752519D01*
X134621102Y-105737043D01*
X134639504Y-105632680D01*
X134621102Y-105528317D01*
X134621101Y-105528315D01*
X134621101Y-105528314D01*
X134568117Y-105436543D01*
X134568115Y-105436540D01*
X134486936Y-105368423D01*
X134387354Y-105332180D01*
X134322688Y-105332180D01*
X134288040Y-105317828D01*
X134273688Y-105283180D01*
X134275771Y-105269046D01*
X134321296Y-105117932D01*
X134388736Y-104894070D01*
X134391556Y-104886914D01*
X134391640Y-104886668D01*
X134392718Y-104881247D01*
X134393287Y-104878965D01*
X134394881Y-104873676D01*
X134394881Y-104873672D01*
X134394927Y-104873392D01*
X134395796Y-104865782D01*
X134401331Y-104838024D01*
X134401330Y-104838021D01*
X134402422Y-104832547D01*
X134402434Y-104832399D01*
X134403006Y-104829521D01*
X134403022Y-104829478D01*
X134406223Y-104813373D01*
X134406233Y-104813357D01*
X134410419Y-104792296D01*
X134413460Y-104776994D01*
X134413460Y-104776992D01*
X134413630Y-104776137D01*
X134413644Y-104776043D01*
X134413953Y-104774496D01*
X134413892Y-104773585D01*
X134413891Y-104770388D01*
X134415496Y-104745858D01*
X134415496Y-104745849D01*
X134413890Y-104721441D01*
X134413890Y-104718218D01*
X134413953Y-104717268D01*
X134413607Y-104715528D01*
X134413595Y-104715460D01*
X134413449Y-104714728D01*
X134413449Y-104714723D01*
X134411137Y-104703112D01*
X134391640Y-104605096D01*
X134391184Y-104604173D01*
X134389960Y-104601214D01*
X134389693Y-104600427D01*
X134382123Y-104578104D01*
X134371269Y-104556082D01*
X134370046Y-104553127D01*
X134369740Y-104552224D01*
X134359891Y-104537484D01*
X134359659Y-104537136D01*
X134342163Y-104510944D01*
X134342162Y-104510943D01*
X134339162Y-104506452D01*
X134339131Y-104506415D01*
X134333791Y-104498422D01*
X134333790Y-104498420D01*
X134329763Y-104492394D01*
X134329760Y-104492379D01*
X134315495Y-104471036D01*
X134312583Y-104466679D01*
X134312557Y-104466645D01*
X134306199Y-104457129D01*
X134306195Y-104457125D01*
X134305719Y-104456582D01*
X134304283Y-104454781D01*
X134303849Y-104454180D01*
X134297640Y-104447611D01*
X134296217Y-104446105D01*
X134296201Y-104446088D01*
X134295944Y-104445816D01*
X134295937Y-104445808D01*
X134294459Y-104444245D01*
X134292531Y-104442205D01*
X132608023Y-102659926D01*
X131554953Y-101545734D01*
X135519373Y-101545734D01*
X135522812Y-101565236D01*
X135537775Y-101650099D01*
X135590759Y-101741870D01*
X135590761Y-101741873D01*
X135671940Y-101809990D01*
X135771523Y-101846234D01*
X135877495Y-101846234D01*
X135977077Y-101809990D01*
X136058256Y-101741873D01*
X136058258Y-101741870D01*
X136078322Y-101707119D01*
X136105500Y-101660044D01*
X136111242Y-101650099D01*
X136111242Y-101650098D01*
X136111243Y-101650097D01*
X136118410Y-101609453D01*
X138096771Y-101609453D01*
X138101258Y-101634900D01*
X138115173Y-101713818D01*
X138168157Y-101805589D01*
X138168159Y-101805592D01*
X138249338Y-101873709D01*
X138348921Y-101909953D01*
X138454893Y-101909953D01*
X138554475Y-101873709D01*
X138635654Y-101805592D01*
X138635656Y-101805589D01*
X138653126Y-101775331D01*
X138688641Y-101713816D01*
X138707043Y-101609453D01*
X138688641Y-101505090D01*
X138688640Y-101505088D01*
X138688640Y-101505087D01*
X138635656Y-101413316D01*
X138635654Y-101413313D01*
X138604913Y-101387518D01*
X141490101Y-101387518D01*
X141508503Y-101491883D01*
X141561487Y-101583654D01*
X141561489Y-101583657D01*
X141642668Y-101651774D01*
X141742251Y-101688018D01*
X141848223Y-101688018D01*
X141911607Y-101664948D01*
X141949072Y-101666584D01*
X141956687Y-101671008D01*
X144315900Y-103342279D01*
X145396467Y-104107755D01*
X145416443Y-104139495D01*
X145416398Y-104156244D01*
X145414413Y-104167506D01*
X145414413Y-104167507D01*
X145414413Y-104167509D01*
X145416814Y-104181123D01*
X145432815Y-104271874D01*
X145485799Y-104363645D01*
X145485801Y-104363648D01*
X145566980Y-104431765D01*
X145666563Y-104468009D01*
X145772535Y-104468009D01*
X145872117Y-104431765D01*
X145953296Y-104363648D01*
X145953298Y-104363645D01*
X145956026Y-104358921D01*
X145995354Y-104290801D01*
X146006282Y-104271874D01*
X146006282Y-104271873D01*
X146006283Y-104271872D01*
X146024685Y-104167509D01*
X146008683Y-104076758D01*
X146534615Y-104076758D01*
X146553017Y-104181123D01*
X146606001Y-104272894D01*
X146606003Y-104272897D01*
X146687182Y-104341014D01*
X146786765Y-104377258D01*
X146892737Y-104377258D01*
X146992319Y-104341014D01*
X147073498Y-104272897D01*
X147073500Y-104272894D01*
X147078587Y-104264084D01*
X147081231Y-104259505D01*
X147233617Y-104259505D01*
X147235798Y-104271872D01*
X147252019Y-104363870D01*
X147305003Y-104455641D01*
X147305005Y-104455644D01*
X147386184Y-104523761D01*
X147485767Y-104560005D01*
X147591739Y-104560005D01*
X147691321Y-104523761D01*
X147772500Y-104455644D01*
X147772502Y-104455641D01*
X147773002Y-104454776D01*
X147820898Y-104371816D01*
X147825486Y-104363870D01*
X147825486Y-104363869D01*
X147825487Y-104363868D01*
X147843889Y-104259505D01*
X147825487Y-104155142D01*
X147825486Y-104155140D01*
X147825486Y-104155139D01*
X147772502Y-104063368D01*
X147772500Y-104063365D01*
X147691321Y-103995248D01*
X147591739Y-103959005D01*
X147485767Y-103959005D01*
X147386184Y-103995248D01*
X147305005Y-104063365D01*
X147305003Y-104063368D01*
X147252019Y-104155139D01*
X147233617Y-104259504D01*
X147233617Y-104259505D01*
X147081231Y-104259505D01*
X147116145Y-104199030D01*
X147126484Y-104181123D01*
X147126484Y-104181122D01*
X147126485Y-104181121D01*
X147144887Y-104076758D01*
X147126485Y-103972395D01*
X147126484Y-103972393D01*
X147126484Y-103972392D01*
X147073500Y-103880621D01*
X147073498Y-103880618D01*
X146992319Y-103812501D01*
X146892737Y-103776258D01*
X146786765Y-103776258D01*
X146687182Y-103812501D01*
X146606003Y-103880618D01*
X146606001Y-103880621D01*
X146553017Y-103972392D01*
X146534615Y-104076758D01*
X146008683Y-104076758D01*
X146006283Y-104063146D01*
X146006282Y-104063144D01*
X146006282Y-104063143D01*
X145953298Y-103971372D01*
X145953296Y-103971369D01*
X145872117Y-103903252D01*
X145772535Y-103867009D01*
X145666563Y-103867009D01*
X145603178Y-103890077D01*
X145565710Y-103888440D01*
X145558095Y-103884016D01*
X144546648Y-103167505D01*
X144526672Y-103135765D01*
X144534989Y-103099196D01*
X144566729Y-103079220D01*
X144574973Y-103078521D01*
X144653745Y-103078521D01*
X144753327Y-103042277D01*
X144834506Y-102974160D01*
X144834508Y-102974157D01*
X144840435Y-102963892D01*
X144881905Y-102892063D01*
X144887492Y-102882386D01*
X144887492Y-102882385D01*
X144887493Y-102882384D01*
X144905895Y-102778021D01*
X144887493Y-102673658D01*
X144887492Y-102673656D01*
X144887492Y-102673655D01*
X144834508Y-102581884D01*
X144834506Y-102581881D01*
X144771362Y-102528897D01*
X145757361Y-102528897D01*
X145759715Y-102542246D01*
X145775763Y-102633262D01*
X145828747Y-102725033D01*
X145828749Y-102725036D01*
X145909928Y-102793153D01*
X146009511Y-102829397D01*
X146115483Y-102829397D01*
X146215065Y-102793153D01*
X146296244Y-102725036D01*
X146296246Y-102725033D01*
X146349230Y-102633262D01*
X146349230Y-102633261D01*
X146349231Y-102633260D01*
X146367633Y-102528897D01*
X146349231Y-102424534D01*
X146349230Y-102424532D01*
X146349230Y-102424531D01*
X146296246Y-102332760D01*
X146296244Y-102332757D01*
X146264028Y-102305725D01*
X148300412Y-102305725D01*
X148318814Y-102410090D01*
X148371798Y-102501861D01*
X148371800Y-102501864D01*
X148452979Y-102569981D01*
X148552562Y-102606225D01*
X148658534Y-102606225D01*
X148758116Y-102569981D01*
X148839295Y-102501864D01*
X148839297Y-102501861D01*
X148892281Y-102410090D01*
X148892281Y-102410089D01*
X148892282Y-102410088D01*
X148910684Y-102305725D01*
X148892282Y-102201362D01*
X148892281Y-102201360D01*
X148892281Y-102201359D01*
X148839297Y-102109588D01*
X148839295Y-102109585D01*
X148758116Y-102041468D01*
X148658534Y-102005225D01*
X148552562Y-102005225D01*
X148452979Y-102041468D01*
X148371800Y-102109585D01*
X148371798Y-102109588D01*
X148318814Y-102201359D01*
X148300412Y-102305725D01*
X146264028Y-102305725D01*
X146215065Y-102264640D01*
X146115483Y-102228397D01*
X146009511Y-102228397D01*
X145909928Y-102264640D01*
X145828749Y-102332757D01*
X145828747Y-102332760D01*
X145775763Y-102424531D01*
X145760029Y-102513764D01*
X145757361Y-102528897D01*
X144771362Y-102528897D01*
X144753327Y-102513764D01*
X144653745Y-102477521D01*
X144547773Y-102477521D01*
X144448190Y-102513764D01*
X144367011Y-102581881D01*
X144367009Y-102581884D01*
X144314025Y-102673655D01*
X144295623Y-102778021D01*
X144314025Y-102882385D01*
X144319613Y-102892063D01*
X144324507Y-102929245D01*
X144301676Y-102958998D01*
X144264494Y-102963892D01*
X144248852Y-102956546D01*
X144164163Y-102896552D01*
X143951574Y-102745953D01*
X143931599Y-102714215D01*
X143939916Y-102677646D01*
X143963141Y-102659926D01*
X144027768Y-102636405D01*
X144108948Y-102568287D01*
X144150001Y-102497180D01*
X144161933Y-102476514D01*
X144161933Y-102476513D01*
X144161934Y-102476512D01*
X144180336Y-102372149D01*
X144161934Y-102267786D01*
X144161933Y-102267784D01*
X144161933Y-102267783D01*
X144108949Y-102176012D01*
X144108947Y-102176009D01*
X144027768Y-102107892D01*
X143928186Y-102071649D01*
X143822214Y-102071649D01*
X143722631Y-102107892D01*
X143641452Y-102176009D01*
X143641450Y-102176012D01*
X143588466Y-102267783D01*
X143581776Y-102305725D01*
X143574578Y-102346552D01*
X143570064Y-102372151D01*
X143570225Y-102373064D01*
X143570064Y-102373790D01*
X143570064Y-102376436D01*
X143569477Y-102376436D01*
X143562106Y-102409677D01*
X143530475Y-102429826D01*
X143493862Y-102421707D01*
X143493644Y-102421554D01*
X142118317Y-101447270D01*
X142098341Y-101415530D01*
X142098386Y-101398780D01*
X142100373Y-101387518D01*
X142097398Y-101370644D01*
X143269937Y-101370644D01*
X143288339Y-101475009D01*
X143341323Y-101566780D01*
X143341325Y-101566783D01*
X143422504Y-101634900D01*
X143522087Y-101671144D01*
X143628059Y-101671144D01*
X143727641Y-101634900D01*
X143808820Y-101566783D01*
X143808822Y-101566780D01*
X143809621Y-101565397D01*
X143861807Y-101475007D01*
X143880209Y-101370644D01*
X143861807Y-101266281D01*
X143861806Y-101266279D01*
X143861806Y-101266278D01*
X143808822Y-101174507D01*
X143808820Y-101174504D01*
X143727641Y-101106387D01*
X143628059Y-101070144D01*
X143522087Y-101070144D01*
X143422504Y-101106387D01*
X143341325Y-101174504D01*
X143341323Y-101174507D01*
X143288339Y-101266278D01*
X143269937Y-101370644D01*
X142097398Y-101370644D01*
X142081971Y-101283155D01*
X142081970Y-101283153D01*
X142081970Y-101283152D01*
X142028986Y-101191381D01*
X142028984Y-101191378D01*
X141947805Y-101123261D01*
X141848223Y-101087018D01*
X141742251Y-101087018D01*
X141642668Y-101123261D01*
X141561489Y-101191378D01*
X141561487Y-101191381D01*
X141508503Y-101283152D01*
X141490101Y-101387518D01*
X138604913Y-101387518D01*
X138554475Y-101345196D01*
X138454893Y-101308953D01*
X138348921Y-101308953D01*
X138249338Y-101345196D01*
X138168159Y-101413313D01*
X138168157Y-101413316D01*
X138115173Y-101505087D01*
X138099257Y-101595353D01*
X138096771Y-101609453D01*
X136118410Y-101609453D01*
X136129645Y-101545734D01*
X136111243Y-101441371D01*
X136111242Y-101441369D01*
X136111242Y-101441368D01*
X136058258Y-101349597D01*
X136058256Y-101349594D01*
X135977077Y-101281477D01*
X135877495Y-101245234D01*
X135771523Y-101245234D01*
X135671940Y-101281477D01*
X135590761Y-101349594D01*
X135590759Y-101349597D01*
X135537775Y-101441368D01*
X135519373Y-101545733D01*
X135519373Y-101545734D01*
X131554953Y-101545734D01*
X131403531Y-101385523D01*
X131390162Y-101350486D01*
X131390888Y-101343358D01*
X131404731Y-101264854D01*
X131404731Y-101264852D01*
X131386329Y-101160489D01*
X131386328Y-101160487D01*
X131386328Y-101160486D01*
X131333344Y-101068715D01*
X131333342Y-101068712D01*
X131252163Y-101000595D01*
X131152581Y-100964352D01*
X131046609Y-100964352D01*
X130947026Y-101000595D01*
X130865847Y-101068712D01*
X130865845Y-101068715D01*
X130812861Y-101160486D01*
X130799541Y-101236028D01*
X130794459Y-101264852D01*
X130797391Y-101281478D01*
X130812861Y-101369217D01*
X130865845Y-101460988D01*
X130865847Y-101460991D01*
X130947026Y-101529108D01*
X131046609Y-101565352D01*
X131152579Y-101565352D01*
X131152581Y-101565352D01*
X131152935Y-101565223D01*
X131153239Y-101565236D01*
X131156803Y-101564608D01*
X131156942Y-101565397D01*
X131190401Y-101566854D01*
X131205309Y-101577608D01*
X133866646Y-104393413D01*
X133880016Y-104428452D01*
X133864693Y-104462682D01*
X133847794Y-104473116D01*
X133824413Y-104481626D01*
X133743234Y-104549742D01*
X133743232Y-104549745D01*
X133690248Y-104641516D01*
X133671846Y-104745882D01*
X133690248Y-104850247D01*
X133743232Y-104942018D01*
X133743236Y-104942023D01*
X133795327Y-104985732D01*
X133812645Y-105018997D01*
X133812627Y-105027731D01*
X133761466Y-105587137D01*
X133760429Y-105598470D01*
X133758773Y-105616572D01*
X133758804Y-105617360D01*
X133758964Y-105652407D01*
X133758965Y-105652433D01*
X133760721Y-105669851D01*
X133762496Y-105687477D01*
X133762538Y-105688121D01*
X133766368Y-105707370D01*
X133773155Y-105741515D01*
X133773166Y-105741550D01*
X133774623Y-105748876D01*
X133774627Y-105748911D01*
X133778076Y-105766243D01*
X133778073Y-105766264D01*
X133783008Y-105791025D01*
X133785092Y-105801505D01*
X133785105Y-105801553D01*
X133796588Y-105838694D01*
X133796597Y-105838717D01*
X133811853Y-105874465D01*
X133811897Y-105874555D01*
X133812472Y-105875592D01*
X133812473Y-105875593D01*
X134492501Y-107100518D01*
X135838937Y-109525836D01*
X135838955Y-109525879D01*
X135850635Y-109546912D01*
X135852599Y-109551492D01*
X135852679Y-109551456D01*
X135854029Y-109554369D01*
X135859694Y-109563310D01*
X135860419Y-109564531D01*
X135865524Y-109573726D01*
X135865527Y-109573731D01*
X135865530Y-109573734D01*
X135867440Y-109576312D01*
X135867367Y-109576365D01*
X135870447Y-109580279D01*
X135884183Y-109601959D01*
X135884192Y-109601970D01*
X136131662Y-109992512D01*
X136200254Y-110100761D01*
X136216549Y-110126476D01*
X136222972Y-110163425D01*
X136201386Y-110194093D01*
X136164437Y-110200516D01*
X136140495Y-110187335D01*
X132348270Y-106391592D01*
X131969558Y-106012529D01*
X131955223Y-105977875D01*
X131969591Y-105943234D01*
X132004223Y-105928898D01*
X132034310Y-105928898D01*
X132133892Y-105892654D01*
X132215071Y-105824537D01*
X132215073Y-105824534D01*
X132229953Y-105798762D01*
X132265714Y-105736821D01*
X132268057Y-105732763D01*
X132268057Y-105732762D01*
X132268058Y-105732761D01*
X132286460Y-105628398D01*
X132268058Y-105524035D01*
X132268057Y-105524033D01*
X132268057Y-105524032D01*
X132215073Y-105432261D01*
X132215071Y-105432258D01*
X132133892Y-105364141D01*
X132034310Y-105327898D01*
X131928338Y-105327898D01*
X131828755Y-105364141D01*
X131747576Y-105432258D01*
X131747574Y-105432261D01*
X131694589Y-105524035D01*
X131678979Y-105612561D01*
X131658829Y-105644191D01*
X131622215Y-105652307D01*
X131596060Y-105638684D01*
X128614060Y-102653918D01*
X128599725Y-102619264D01*
X128600470Y-102610777D01*
X128605565Y-102581883D01*
X128612555Y-102542244D01*
X128594153Y-102437881D01*
X128594152Y-102437879D01*
X128594152Y-102437878D01*
X128541168Y-102346107D01*
X128541166Y-102346104D01*
X128459987Y-102277987D01*
X128360405Y-102241744D01*
X128254433Y-102241744D01*
X128154850Y-102277987D01*
X128073671Y-102346104D01*
X128073669Y-102346107D01*
X128020685Y-102437878D01*
X128004636Y-102528897D01*
X128002283Y-102542244D01*
X126542533Y-102542244D01*
X126558637Y-102450915D01*
X126540235Y-102346552D01*
X126540234Y-102346550D01*
X126540234Y-102346549D01*
X126487250Y-102254779D01*
X126487249Y-102254777D01*
X126467790Y-102238449D01*
X126450475Y-102205187D01*
X126461751Y-102169419D01*
X126467784Y-102163385D01*
X126487249Y-102147053D01*
X126540235Y-102055278D01*
X126558637Y-101950915D01*
X126540235Y-101846552D01*
X126540234Y-101846550D01*
X126540234Y-101846549D01*
X126487250Y-101754779D01*
X126487249Y-101754777D01*
X126456617Y-101729074D01*
X126439302Y-101695812D01*
X126450578Y-101660044D01*
X126456611Y-101654010D01*
X126487249Y-101628303D01*
X126540235Y-101536528D01*
X126558637Y-101432165D01*
X126540235Y-101327802D01*
X126540234Y-101327800D01*
X126540234Y-101327799D01*
X126487250Y-101236028D01*
X126487248Y-101236025D01*
X126478205Y-101228437D01*
X127945955Y-101228437D01*
X127947864Y-101239264D01*
X127964357Y-101332802D01*
X128017341Y-101424573D01*
X128017343Y-101424576D01*
X128098522Y-101492693D01*
X128198105Y-101528937D01*
X128304077Y-101528937D01*
X128403659Y-101492693D01*
X128484838Y-101424576D01*
X128484840Y-101424573D01*
X128537824Y-101332802D01*
X128537824Y-101332801D01*
X128537825Y-101332800D01*
X128556227Y-101228437D01*
X128537825Y-101124074D01*
X128537824Y-101124072D01*
X128537824Y-101124071D01*
X128484840Y-101032300D01*
X128484838Y-101032297D01*
X128403659Y-100964180D01*
X128304077Y-100927937D01*
X128198105Y-100927937D01*
X128098522Y-100964180D01*
X128017343Y-101032297D01*
X128017341Y-101032300D01*
X127964357Y-101124071D01*
X127948906Y-101211700D01*
X127945955Y-101228437D01*
X126478205Y-101228437D01*
X126445447Y-101200950D01*
X126428130Y-101167684D01*
X126439408Y-101131917D01*
X126445440Y-101125884D01*
X126487249Y-101090803D01*
X126540235Y-100999028D01*
X126558637Y-100894665D01*
X126540235Y-100790302D01*
X126540234Y-100790300D01*
X126540234Y-100790299D01*
X126487250Y-100698529D01*
X126487249Y-100698527D01*
X126457622Y-100673668D01*
X126440307Y-100640404D01*
X126451583Y-100604637D01*
X126457615Y-100598604D01*
X126491951Y-100569794D01*
X126544061Y-100479536D01*
X126544936Y-100478021D01*
X126544936Y-100478020D01*
X126544937Y-100478019D01*
X126563339Y-100373656D01*
X126544937Y-100269293D01*
X126544936Y-100269291D01*
X126544936Y-100269290D01*
X126491952Y-100177519D01*
X126491948Y-100177514D01*
X126455693Y-100147093D01*
X126438375Y-100113828D01*
X126449653Y-100078061D01*
X126455687Y-100072025D01*
X126478693Y-100052722D01*
X126505942Y-100005525D01*
X128036642Y-100005525D01*
X128057554Y-100164374D01*
X128118866Y-100312395D01*
X128118869Y-100312400D01*
X128214962Y-100437631D01*
X128216406Y-100439512D01*
X128343518Y-100537049D01*
X128343520Y-100537049D01*
X128343522Y-100537051D01*
X128431866Y-100573644D01*
X128491543Y-100598363D01*
X128610508Y-100614025D01*
X128610512Y-100614025D01*
X128690274Y-100614025D01*
X128690278Y-100614025D01*
X128809243Y-100598363D01*
X128957268Y-100537049D01*
X129084380Y-100439512D01*
X129181917Y-100312401D01*
X129243231Y-100164375D01*
X129264144Y-100005525D01*
X130068642Y-100005525D01*
X130089554Y-100164374D01*
X130150866Y-100312395D01*
X130150869Y-100312400D01*
X130246962Y-100437631D01*
X130248406Y-100439512D01*
X130375518Y-100537049D01*
X130375520Y-100537049D01*
X130375522Y-100537051D01*
X130463866Y-100573644D01*
X130523543Y-100598363D01*
X130642508Y-100614025D01*
X130642512Y-100614025D01*
X130722274Y-100614025D01*
X130722278Y-100614025D01*
X130841243Y-100598363D01*
X130989268Y-100537049D01*
X131116380Y-100439512D01*
X131213917Y-100312401D01*
X131275231Y-100164375D01*
X131296144Y-100005525D01*
X131275231Y-99846675D01*
X131213917Y-99698650D01*
X131116380Y-99571538D01*
X131116377Y-99571536D01*
X130989268Y-99474001D01*
X130989263Y-99473998D01*
X130841242Y-99412686D01*
X130759468Y-99401921D01*
X130722278Y-99397025D01*
X130642508Y-99397025D01*
X130608827Y-99401459D01*
X130523543Y-99412686D01*
X130375522Y-99473998D01*
X130375517Y-99474001D01*
X130248407Y-99571536D01*
X130150869Y-99698648D01*
X130150866Y-99698653D01*
X130089554Y-99846675D01*
X130068642Y-100005525D01*
X129264144Y-100005525D01*
X129243231Y-99846675D01*
X129181917Y-99698650D01*
X129084380Y-99571538D01*
X129084377Y-99571536D01*
X128957268Y-99474001D01*
X128957263Y-99473998D01*
X128809242Y-99412686D01*
X128727468Y-99401921D01*
X128690278Y-99397025D01*
X128610508Y-99397025D01*
X128576827Y-99401459D01*
X128491543Y-99412686D01*
X128343522Y-99473998D01*
X128343517Y-99474001D01*
X128216407Y-99571536D01*
X128118869Y-99698648D01*
X128118866Y-99698653D01*
X128057554Y-99846675D01*
X128036642Y-100005525D01*
X126505942Y-100005525D01*
X126531679Y-99960947D01*
X126550081Y-99856584D01*
X126531679Y-99752221D01*
X126531678Y-99752219D01*
X126531678Y-99752218D01*
X126478694Y-99660447D01*
X126478692Y-99660444D01*
X126448640Y-99635228D01*
X126431323Y-99601963D01*
X126442601Y-99566195D01*
X126448636Y-99560159D01*
X126483113Y-99531231D01*
X126536099Y-99439456D01*
X126554501Y-99335093D01*
X126536099Y-99230730D01*
X126536098Y-99230728D01*
X126536098Y-99230727D01*
X126483114Y-99138956D01*
X126483112Y-99138953D01*
X126401933Y-99070836D01*
X126302351Y-99034593D01*
X126196379Y-99034593D01*
X126096796Y-99070836D01*
X126012333Y-99141710D01*
X126011166Y-99140319D01*
X125983768Y-99154580D01*
X125948001Y-99143300D01*
X125930686Y-99110034D01*
X125930500Y-99105766D01*
X125930500Y-98729500D01*
X125944852Y-98694852D01*
X125979500Y-98680500D01*
X131419760Y-98680500D01*
X131442529Y-98686112D01*
G37*
%TD.AperFunction*%
%TD*%
M02*
