%TF.GenerationSoftware,KiCad,Pcbnew,7.0.10*%
%TF.CreationDate,2024-02-12T16:24:21-08:00*%
%TF.ProjectId,beeper-design,62656570-6572-42d6-9465-7369676e2e6b,rev?*%
%TF.SameCoordinates,Original*%
%TF.FileFunction,Other,User*%
%FSLAX46Y46*%
G04 Gerber Fmt 4.6, Leading zero omitted, Abs format (unit mm)*
G04 Created by KiCad (PCBNEW 7.0.10) date 2024-02-12 16:24:21*
%MOMM*%
%LPD*%
G01*
G04 APERTURE LIST*
%ADD10C,0.050000*%
%TA.AperFunction,Profile*%
%ADD11C,0.050000*%
%TD*%
G04 APERTURE END LIST*
D10*
%TO.C,R18*%
X136143667Y-100229658D02*
X136773667Y-100229658D01*
X136773667Y-100229658D02*
X136773667Y-99299658D01*
X136773667Y-99299658D02*
X136143667Y-99299658D01*
X136143667Y-99299658D02*
X136143667Y-100229658D01*
%TO.C,C36*%
X135418934Y-100242476D02*
X136048934Y-100242476D01*
X136048934Y-100242476D02*
X136048934Y-99312476D01*
X136048934Y-99312476D02*
X135418934Y-99312476D01*
X135418934Y-99312476D02*
X135418934Y-100242476D01*
%TO.C,C24*%
X148615502Y-103106407D02*
X148615502Y-104006407D01*
X148615502Y-104006407D02*
X150015502Y-104006407D01*
X150015502Y-104006407D02*
X150015502Y-103106407D01*
X150015502Y-103106407D02*
X148615502Y-103106407D01*
%TO.C,C6*%
X143207540Y-112229541D02*
X143207540Y-113829541D01*
X143207540Y-113829541D02*
X146007540Y-113829541D01*
X146007540Y-113829541D02*
X146007540Y-112229541D01*
X146007540Y-112229541D02*
X143207540Y-112229541D01*
%TO.C,D1*%
X140827328Y-104063321D02*
X143367328Y-104063321D01*
X143367328Y-104063321D02*
X143367328Y-102031321D01*
X143367328Y-102031321D02*
X140827328Y-102031321D01*
X140827328Y-102031321D02*
X140827328Y-104063321D01*
%TO.C,U7*%
X136855635Y-103118286D02*
X138457635Y-103118286D01*
X138457635Y-103118286D02*
X138457635Y-101965286D01*
X138457635Y-101965286D02*
X136855635Y-101965286D01*
X136855635Y-101965286D02*
X136855635Y-103118286D01*
%TO.C,C39*%
X150814878Y-109494374D02*
X150814878Y-110124374D01*
X150814878Y-110124374D02*
X151744878Y-110124374D01*
X151744878Y-110124374D02*
X151744878Y-109494374D01*
X151744878Y-109494374D02*
X150814878Y-109494374D01*
%TO.C,C7*%
X138804147Y-108128112D02*
X139704147Y-108128112D01*
X139704147Y-108128112D02*
X139704147Y-106728112D01*
X139704147Y-106728112D02*
X138804147Y-106728112D01*
X138804147Y-106728112D02*
X138804147Y-108128112D01*
%TO.C,C21*%
X150129158Y-102142536D02*
X150759158Y-102142536D01*
X150759158Y-102142536D02*
X150759158Y-101212536D01*
X150759158Y-101212536D02*
X150129158Y-101212536D01*
X150129158Y-101212536D02*
X150129158Y-102142536D01*
%TO.C,C22*%
X151594860Y-101619348D02*
X151594860Y-102249348D01*
X151594860Y-102249348D02*
X152524860Y-102249348D01*
X152524860Y-102249348D02*
X152524860Y-101619348D01*
X152524860Y-101619348D02*
X151594860Y-101619348D01*
%TO.C,C25*%
X136892485Y-100920126D02*
X136892485Y-101820126D01*
X136892485Y-101820126D02*
X138292485Y-101820126D01*
X138292485Y-101820126D02*
X138292485Y-100920126D01*
X138292485Y-100920126D02*
X136892485Y-100920126D01*
%TO.C,R12*%
X148490605Y-108746226D02*
X147860605Y-108746226D01*
X147860605Y-108746226D02*
X147860605Y-109676226D01*
X147860605Y-109676226D02*
X148490605Y-109676226D01*
X148490605Y-109676226D02*
X148490605Y-108746226D01*
%TO.C,C23*%
X148158479Y-99206593D02*
X148158479Y-100106593D01*
X148158479Y-100106593D02*
X149558479Y-100106593D01*
X149558479Y-100106593D02*
X149558479Y-99206593D01*
X149558479Y-99206593D02*
X148158479Y-99206593D01*
%TO.C,C5*%
X143432174Y-113933787D02*
X143432174Y-114563787D01*
X143432174Y-114563787D02*
X144362174Y-114563787D01*
X144362174Y-114563787D02*
X144362174Y-113933787D01*
X144362174Y-113933787D02*
X143432174Y-113933787D01*
%TO.C,C31*%
X150814878Y-108839256D02*
X150814878Y-109469256D01*
X150814878Y-109469256D02*
X151744878Y-109469256D01*
X151744878Y-109469256D02*
X151744878Y-108839256D01*
X151744878Y-108839256D02*
X150814878Y-108839256D01*
%TO.C,C9*%
X139811103Y-108128112D02*
X140711103Y-108128112D01*
X140711103Y-108128112D02*
X140711103Y-106728112D01*
X140711103Y-106728112D02*
X139811103Y-106728112D01*
X139811103Y-106728112D02*
X139811103Y-108128112D01*
%TO.C,C26*%
X150814878Y-111363849D02*
X150814878Y-111993849D01*
X150814878Y-111993849D02*
X151744878Y-111993849D01*
X151744878Y-111993849D02*
X151744878Y-111363849D01*
X151744878Y-111363849D02*
X150814878Y-111363849D01*
%TO.C,XTAL1*%
X133331739Y-110893155D02*
X133331739Y-113651155D01*
X133331739Y-113651155D02*
X135550739Y-113651155D01*
X135550739Y-113651155D02*
X135550739Y-110893155D01*
X135550739Y-110893155D02*
X133331739Y-110893155D01*
%TO.C,U4*%
X148975097Y-107638575D02*
X148975097Y-112238575D01*
X148975097Y-112238575D02*
X150635097Y-112238575D01*
X150635097Y-112238575D02*
X150635097Y-107638575D01*
X150635097Y-107638575D02*
X148975097Y-107638575D01*
%TO.C,C8*%
X140818060Y-108128112D02*
X141718060Y-108128112D01*
X141718060Y-108128112D02*
X141718060Y-106728112D01*
X141718060Y-106728112D02*
X140818060Y-106728112D01*
X140818060Y-106728112D02*
X140818060Y-108128112D01*
%TO.C,C2*%
X143118721Y-108529617D02*
X143118721Y-109779617D01*
X143118721Y-109779617D02*
X145168721Y-109779617D01*
X145168721Y-109779617D02*
X145168721Y-108529617D01*
X145168721Y-108529617D02*
X143118721Y-108529617D01*
%TO.C,C3*%
X139137801Y-117334377D02*
X139137801Y-116084377D01*
X139137801Y-116084377D02*
X137087801Y-116084377D01*
X137087801Y-116084377D02*
X137087801Y-117334377D01*
X137087801Y-117334377D02*
X139137801Y-117334377D01*
%TO.C,C38*%
X150496490Y-112282243D02*
X149866490Y-112282243D01*
X149866490Y-112282243D02*
X149866490Y-113212243D01*
X149866490Y-113212243D02*
X150496490Y-113212243D01*
X150496490Y-113212243D02*
X150496490Y-112282243D01*
%TO.C,C12*%
X141716975Y-108120394D02*
X142616975Y-108120394D01*
X142616975Y-108120394D02*
X142616975Y-106720394D01*
X142616975Y-106720394D02*
X141716975Y-106720394D01*
X141716975Y-106720394D02*
X141716975Y-108120394D01*
%TO.C,C4*%
X143141240Y-109759046D02*
X143141240Y-111359046D01*
X143141240Y-111359046D02*
X145941240Y-111359046D01*
X145941240Y-111359046D02*
X145941240Y-109759046D01*
X145941240Y-109759046D02*
X143141240Y-109759046D01*
%TO.C,C13*%
X144130187Y-117364967D02*
X144130187Y-116734967D01*
X144130187Y-116734967D02*
X143200187Y-116734967D01*
X143200187Y-116734967D02*
X143200187Y-117364967D01*
X143200187Y-117364967D02*
X144130187Y-117364967D01*
%TO.C,C10*%
X141928456Y-104151919D02*
X141298456Y-104151919D01*
X141298456Y-104151919D02*
X141298456Y-105081919D01*
X141298456Y-105081919D02*
X141928456Y-105081919D01*
X141928456Y-105081919D02*
X141928456Y-104151919D01*
%TO.C,C30*%
X150814878Y-110099103D02*
X150814878Y-110729103D01*
X150814878Y-110729103D02*
X151744878Y-110729103D01*
X151744878Y-110729103D02*
X151744878Y-110099103D01*
X151744878Y-110099103D02*
X150814878Y-110099103D01*
%TO.C,C15*%
X150793765Y-103229097D02*
X151423765Y-103229097D01*
X151423765Y-103229097D02*
X151423765Y-102299097D01*
X151423765Y-102299097D02*
X150793765Y-102299097D01*
X150793765Y-102299097D02*
X150793765Y-103229097D01*
%TO.C,U9*%
X136077203Y-104143391D02*
X132925203Y-104143391D01*
X132925203Y-104143391D02*
X132925203Y-106796391D01*
X132925203Y-106796391D02*
X136077203Y-106796391D01*
X136077203Y-106796391D02*
X136077203Y-104143391D01*
%TO.C,R17*%
X130574698Y-106695216D02*
X130129221Y-107140693D01*
X130129221Y-107140693D02*
X130786830Y-107798302D01*
X130786830Y-107798302D02*
X131232307Y-107352825D01*
X131232307Y-107352825D02*
X130574698Y-106695216D01*
%TO.C,U15*%
X138699500Y-108250000D02*
X138699500Y-105250000D01*
X138699500Y-105250000D02*
X136900500Y-105250000D01*
X136900500Y-105250000D02*
X136900500Y-108250000D01*
X136900500Y-108250000D02*
X138699500Y-108250000D01*
%TO.C,L1*%
X143988942Y-108547005D02*
X144618942Y-108547005D01*
X144618942Y-108547005D02*
X144618942Y-107617005D01*
X144618942Y-107617005D02*
X143988942Y-107617005D01*
X143988942Y-107617005D02*
X143988942Y-108547005D01*
%TO.C,L2*%
X143141589Y-111352192D02*
X143141589Y-112252192D01*
X143141589Y-112252192D02*
X144541589Y-112252192D01*
X144541589Y-112252192D02*
X144541589Y-111352192D01*
X144541589Y-111352192D02*
X143141589Y-111352192D01*
%TO.C,C11*%
X144518939Y-111348039D02*
X144518939Y-112248039D01*
X144518939Y-112248039D02*
X145918939Y-112248039D01*
X145918939Y-112248039D02*
X145918939Y-111348039D01*
X145918939Y-111348039D02*
X144518939Y-111348039D01*
%TO.C,R10*%
X134012098Y-108474140D02*
X134642098Y-108474140D01*
X134642098Y-108474140D02*
X134642098Y-107544140D01*
X134642098Y-107544140D02*
X134012098Y-107544140D01*
X134012098Y-107544140D02*
X134012098Y-108474140D01*
%TO.C,R4*%
X146257832Y-100170421D02*
X146887832Y-100170421D01*
X146887832Y-100170421D02*
X146887832Y-99240421D01*
X146887832Y-99240421D02*
X146257832Y-99240421D01*
X146257832Y-99240421D02*
X146257832Y-100170421D01*
%TO.C,R2*%
X146240098Y-99240421D02*
X145610098Y-99240421D01*
X145610098Y-99240421D02*
X145610098Y-100170421D01*
X145610098Y-100170421D02*
X146240098Y-100170421D01*
X146240098Y-100170421D02*
X146240098Y-99240421D01*
%TO.C,U2*%
X146004416Y-114937360D02*
X144204416Y-114937360D01*
X144204416Y-114937360D02*
X144204416Y-117337360D01*
X144204416Y-117337360D02*
X146004416Y-117337360D01*
X146004416Y-117337360D02*
X146004416Y-114937360D01*
%TO.C,U16*%
X148699500Y-108250000D02*
X148699500Y-105250000D01*
X148699500Y-105250000D02*
X146900500Y-105250000D01*
X146900500Y-105250000D02*
X146900500Y-108250000D01*
X146900500Y-108250000D02*
X148699500Y-108250000D01*
%TO.C,R6*%
X144962363Y-100170421D02*
X145592363Y-100170421D01*
X145592363Y-100170421D02*
X145592363Y-99240421D01*
X145592363Y-99240421D02*
X144962363Y-99240421D01*
X144962363Y-99240421D02*
X144962363Y-100170421D01*
%TO.C,C28*%
X150814878Y-108185601D02*
X150814878Y-108815601D01*
X150814878Y-108815601D02*
X151744878Y-108815601D01*
X151744878Y-108815601D02*
X151744878Y-108185601D01*
X151744878Y-108185601D02*
X150814878Y-108185601D01*
%TO.C,C14*%
X148522021Y-103097355D02*
X147892021Y-103097355D01*
X147892021Y-103097355D02*
X147892021Y-104027355D01*
X147892021Y-104027355D02*
X148522021Y-104027355D01*
X148522021Y-104027355D02*
X148522021Y-103097355D01*
%TO.C,R9*%
X135381833Y-107890643D02*
X136011833Y-107890643D01*
X136011833Y-107890643D02*
X136011833Y-106960643D01*
X136011833Y-106960643D02*
X135381833Y-106960643D01*
X135381833Y-106960643D02*
X135381833Y-107890643D01*
%TO.C,C50*%
X132607454Y-116916969D02*
X133237454Y-116916969D01*
X133237454Y-116916969D02*
X133237454Y-115986969D01*
X133237454Y-115986969D02*
X132607454Y-115986969D01*
X132607454Y-115986969D02*
X132607454Y-116916969D01*
%TO.C,C49*%
X134738591Y-116918155D02*
X135368591Y-116918155D01*
X135368591Y-116918155D02*
X135368591Y-115988155D01*
X135368591Y-115988155D02*
X134738591Y-115988155D01*
X134738591Y-115988155D02*
X134738591Y-116918155D01*
%TO.C,U12*%
X132407763Y-108739668D02*
X131238915Y-107570820D01*
X131238915Y-107570820D02*
X130070067Y-108739668D01*
X130070067Y-108739668D02*
X131238915Y-109908516D01*
X131238915Y-109908516D02*
X132407763Y-108739668D01*
%TO.C,R11*%
X133618137Y-115906026D02*
X133618137Y-116536026D01*
X133618137Y-116536026D02*
X134548137Y-116536026D01*
X134548137Y-116536026D02*
X134548137Y-115906026D01*
X134548137Y-115906026D02*
X133618137Y-115906026D01*
%TO.C,C37*%
X150814878Y-112031569D02*
X150814878Y-112661569D01*
X150814878Y-112661569D02*
X151744878Y-112661569D01*
X151744878Y-112661569D02*
X151744878Y-112031569D01*
X151744878Y-112031569D02*
X150814878Y-112031569D01*
%TO.C,R15*%
X133697494Y-106905038D02*
X133697494Y-107535038D01*
X133697494Y-107535038D02*
X134627494Y-107535038D01*
X134627494Y-107535038D02*
X134627494Y-106905038D01*
X134627494Y-106905038D02*
X133697494Y-106905038D01*
%TO.C,C32*%
X148847843Y-110556780D02*
X148847843Y-109926780D01*
X148847843Y-109926780D02*
X147917843Y-109926780D01*
X147917843Y-109926780D02*
X147917843Y-110556780D01*
X147917843Y-110556780D02*
X148847843Y-110556780D01*
%TO.C,R21*%
X145164759Y-100944280D02*
X145164759Y-101574280D01*
X145164759Y-101574280D02*
X146094759Y-101574280D01*
X146094759Y-101574280D02*
X146094759Y-100944280D01*
X146094759Y-100944280D02*
X145164759Y-100944280D01*
%TO.C,C29*%
X150814878Y-110718303D02*
X150814878Y-111348303D01*
X150814878Y-111348303D02*
X151744878Y-111348303D01*
X151744878Y-111348303D02*
X151744878Y-110718303D01*
X151744878Y-110718303D02*
X150814878Y-110718303D01*
%TO.C,C1*%
X142636150Y-107764017D02*
X143886150Y-107764017D01*
X143886150Y-107764017D02*
X143886150Y-105714017D01*
X143886150Y-105714017D02*
X142636150Y-105714017D01*
X142636150Y-105714017D02*
X142636150Y-107764017D01*
%TO.C,R1*%
X145316053Y-114568566D02*
X145316053Y-113938566D01*
X145316053Y-113938566D02*
X144386053Y-113938566D01*
X144386053Y-113938566D02*
X144386053Y-114568566D01*
X144386053Y-114568566D02*
X145316053Y-114568566D01*
%TO.C,C42*%
X133003088Y-104018560D02*
X133633088Y-104018560D01*
X133633088Y-104018560D02*
X133633088Y-103088560D01*
X133633088Y-103088560D02*
X133003088Y-103088560D01*
X133003088Y-103088560D02*
X133003088Y-104018560D01*
%TO.C,U14*%
X128699500Y-108250000D02*
X128699500Y-105250000D01*
X128699500Y-105250000D02*
X126900500Y-105250000D01*
X126900500Y-105250000D02*
X126900500Y-108250000D01*
X126900500Y-108250000D02*
X128699500Y-108250000D01*
%TO.C,C48*%
X130320930Y-108264202D02*
X130766407Y-107818725D01*
X130766407Y-107818725D02*
X130108798Y-107161116D01*
X130108798Y-107161116D02*
X129663321Y-107606593D01*
X129663321Y-107606593D02*
X130320930Y-108264202D01*
%TO.C,U5*%
X146250000Y-116950000D02*
X151250000Y-116950000D01*
X151250000Y-116950000D02*
X151250000Y-113650000D01*
X151250000Y-113650000D02*
X146250000Y-113650000D01*
X146250000Y-113650000D02*
X146250000Y-116950000D01*
%TO.C,R19*%
X131602192Y-115496562D02*
X131439136Y-116105095D01*
X131439136Y-116105095D02*
X132337448Y-116345796D01*
X132337448Y-116345796D02*
X132500504Y-115737263D01*
X132500504Y-115737263D02*
X131602192Y-115496562D01*
%TO.C,R5*%
X145164759Y-102278098D02*
X145164759Y-102908098D01*
X145164759Y-102908098D02*
X146094759Y-102908098D01*
X146094759Y-102908098D02*
X146094759Y-102278098D01*
X146094759Y-102278098D02*
X145164759Y-102278098D01*
%TO.C,C43*%
X134786569Y-103366760D02*
X134786569Y-103996760D01*
X134786569Y-103996760D02*
X135716569Y-103996760D01*
X135716569Y-103996760D02*
X135716569Y-103366760D01*
X135716569Y-103366760D02*
X134786569Y-103366760D01*
%TO.C,C19*%
X150129158Y-103229097D02*
X150759158Y-103229097D01*
X150759158Y-103229097D02*
X150759158Y-102299097D01*
X150759158Y-102299097D02*
X150129158Y-102299097D01*
X150129158Y-102299097D02*
X150129158Y-103229097D01*
%TO.C,C20*%
X150759158Y-100137039D02*
X150129158Y-100137039D01*
X150129158Y-100137039D02*
X150129158Y-101067039D01*
X150129158Y-101067039D02*
X150759158Y-101067039D01*
X150759158Y-101067039D02*
X150759158Y-100137039D01*
%TO.C,R3*%
X145164759Y-100277371D02*
X145164759Y-100907371D01*
X145164759Y-100907371D02*
X146094759Y-100907371D01*
X146094759Y-100907371D02*
X146094759Y-100277371D01*
X146094759Y-100277371D02*
X145164759Y-100277371D01*
%TO.C,U1*%
X142715165Y-108650086D02*
X135645165Y-108650086D01*
X135645165Y-108650086D02*
X135645165Y-115920086D01*
X135645165Y-115920086D02*
X142715165Y-115920086D01*
X142715165Y-115920086D02*
X142715165Y-108650086D01*
%TO.C,C47*%
X132106792Y-109160022D02*
X131661315Y-109605499D01*
X131661315Y-109605499D02*
X132318924Y-110263108D01*
X132318924Y-110263108D02*
X132764401Y-109817631D01*
X132764401Y-109817631D02*
X132106792Y-109160022D01*
%TO.C,C17*%
X152088372Y-102299097D02*
X151458372Y-102299097D01*
X151458372Y-102299097D02*
X151458372Y-103229097D01*
X151458372Y-103229097D02*
X152088372Y-103229097D01*
X152088372Y-103229097D02*
X152088372Y-102299097D01*
%TO.C,C18*%
X151456895Y-101067039D02*
X152086895Y-101067039D01*
X152086895Y-101067039D02*
X152086895Y-100137039D01*
X152086895Y-100137039D02*
X151456895Y-100137039D01*
X151456895Y-100137039D02*
X151456895Y-101067039D01*
%TO.C,R7*%
X147669287Y-99235072D02*
X147039287Y-99235072D01*
X147039287Y-99235072D02*
X147039287Y-100165072D01*
X147039287Y-100165072D02*
X147669287Y-100165072D01*
X147669287Y-100165072D02*
X147669287Y-99235072D01*
%TO.C,R8*%
X146245594Y-104029403D02*
X146875594Y-104029403D01*
X146875594Y-104029403D02*
X146875594Y-103099403D01*
X146875594Y-103099403D02*
X146245594Y-103099403D01*
X146245594Y-103099403D02*
X146245594Y-104029403D01*
%TO.C,R16*%
X131851913Y-110737438D02*
X132297390Y-110291961D01*
X132297390Y-110291961D02*
X131639781Y-109634352D01*
X131639781Y-109634352D02*
X131194304Y-110079829D01*
X131194304Y-110079829D02*
X131851913Y-110737438D01*
%TO.C,R20*%
X145164759Y-101611189D02*
X145164759Y-102241189D01*
X145164759Y-102241189D02*
X146094759Y-102241189D01*
X146094759Y-102241189D02*
X146094759Y-101611189D01*
X146094759Y-101611189D02*
X145164759Y-101611189D01*
%TO.C,U3*%
X146241927Y-100308825D02*
X146241927Y-102908825D01*
X146241927Y-102908825D02*
X150041927Y-102908825D01*
X150041927Y-102908825D02*
X150041927Y-100308825D01*
X150041927Y-100308825D02*
X146241927Y-100308825D01*
%TO.C,R13*%
X147852573Y-108746226D02*
X147222573Y-108746226D01*
X147222573Y-108746226D02*
X147222573Y-109676226D01*
X147222573Y-109676226D02*
X147852573Y-109676226D01*
X147852573Y-109676226D02*
X147852573Y-108746226D01*
%TO.C,R14*%
X134701650Y-107890643D02*
X135331650Y-107890643D01*
X135331650Y-107890643D02*
X135331650Y-106960643D01*
X135331650Y-106960643D02*
X134701650Y-106960643D01*
X134701650Y-106960643D02*
X134701650Y-107890643D01*
%TO.C,C16*%
X151423026Y-100137039D02*
X150793026Y-100137039D01*
X150793026Y-100137039D02*
X150793026Y-101067039D01*
X150793026Y-101067039D02*
X151423026Y-101067039D01*
X151423026Y-101067039D02*
X151423026Y-100137039D01*
%TO.C,C27*%
X148847843Y-111194259D02*
X148847843Y-110564259D01*
X148847843Y-110564259D02*
X147917843Y-110564259D01*
X147917843Y-110564259D02*
X147917843Y-111194259D01*
X147917843Y-111194259D02*
X148847843Y-111194259D01*
%TD*%
D11*
X131501369Y-98513144D02*
X134301369Y-98513144D01*
X134301369Y-98513144D02*
X134301369Y-100393144D01*
X134301369Y-100393144D02*
X135151369Y-100393144D01*
X135151369Y-100393144D02*
X135151369Y-98513144D01*
X135151369Y-98513144D02*
X139051369Y-98513144D01*
X139051369Y-98513144D02*
X139051369Y-100393144D01*
X139051369Y-100393144D02*
X139901369Y-100393144D01*
X139901369Y-100393144D02*
X139901369Y-98513144D01*
X139901369Y-98513144D02*
X142701369Y-98513144D01*
X142701369Y-98513144D02*
X142701369Y-98363144D01*
X142701369Y-98363144D02*
X131501369Y-98363144D01*
X131501369Y-98363144D02*
X131501369Y-98513144D01*
X152000000Y-117500000D02*
X125750000Y-117500000D01*
X125750000Y-117500000D02*
X125750000Y-98500000D01*
X125750000Y-98500000D02*
X153250000Y-98500000D01*
X153250000Y-98500000D02*
X153250000Y-116000000D01*
X153250000Y-116000000D02*
X153000000Y-116000000D01*
X153000000Y-116000000D02*
G75*
G03*
X152000000Y-117000000I0J-1000000D01*
G01*
X152000000Y-117000000D02*
X152000000Y-117500000D01*
M02*
