%TF.GenerationSoftware,KiCad,Pcbnew,7.0.10*%
%TF.CreationDate,2024-02-22T14:43:34-08:00*%
%TF.ProjectId,beeper-design,62656570-6572-42d6-9465-7369676e2e6b,rev?*%
%TF.SameCoordinates,Original*%
%TF.FileFunction,Legend,Bot*%
%TF.FilePolarity,Positive*%
%FSLAX46Y46*%
G04 Gerber Fmt 4.6, Leading zero omitted, Abs format (unit mm)*
G04 Created by KiCad (PCBNEW 7.0.10) date 2024-02-22 14:43:34*
%MOMM*%
%LPD*%
G01*
G04 APERTURE LIST*
%ADD10C,0.100000*%
%ADD11C,0.200000*%
%TA.AperFunction,Profile*%
%ADD12C,0.050000*%
%TD*%
G04 APERTURE END LIST*
D10*
X127877143Y-107392371D02*
X127534286Y-107392371D01*
X127705714Y-107992371D02*
X127705714Y-107392371D01*
X127334285Y-107992371D02*
X127334285Y-107392371D01*
X127334285Y-107392371D02*
X127105714Y-107392371D01*
X127105714Y-107392371D02*
X127048571Y-107420942D01*
X127048571Y-107420942D02*
X127020000Y-107449514D01*
X127020000Y-107449514D02*
X126991428Y-107506657D01*
X126991428Y-107506657D02*
X126991428Y-107592371D01*
X126991428Y-107592371D02*
X127020000Y-107649514D01*
X127020000Y-107649514D02*
X127048571Y-107678085D01*
X127048571Y-107678085D02*
X127105714Y-107706657D01*
X127105714Y-107706657D02*
X127334285Y-107706657D01*
X126762857Y-107449514D02*
X126734285Y-107420942D01*
X126734285Y-107420942D02*
X126677143Y-107392371D01*
X126677143Y-107392371D02*
X126534285Y-107392371D01*
X126534285Y-107392371D02*
X126477143Y-107420942D01*
X126477143Y-107420942D02*
X126448571Y-107449514D01*
X126448571Y-107449514D02*
X126420000Y-107506657D01*
X126420000Y-107506657D02*
X126420000Y-107563800D01*
X126420000Y-107563800D02*
X126448571Y-107649514D01*
X126448571Y-107649514D02*
X126791428Y-107992371D01*
X126791428Y-107992371D02*
X126420000Y-107992371D01*
X135177143Y-105542371D02*
X134834286Y-105542371D01*
X135005714Y-106142371D02*
X135005714Y-105542371D01*
X134634285Y-106142371D02*
X134634285Y-105542371D01*
X134634285Y-105542371D02*
X134405714Y-105542371D01*
X134405714Y-105542371D02*
X134348571Y-105570942D01*
X134348571Y-105570942D02*
X134320000Y-105599514D01*
X134320000Y-105599514D02*
X134291428Y-105656657D01*
X134291428Y-105656657D02*
X134291428Y-105742371D01*
X134291428Y-105742371D02*
X134320000Y-105799514D01*
X134320000Y-105799514D02*
X134348571Y-105828085D01*
X134348571Y-105828085D02*
X134405714Y-105856657D01*
X134405714Y-105856657D02*
X134634285Y-105856657D01*
X133748571Y-105542371D02*
X134034285Y-105542371D01*
X134034285Y-105542371D02*
X134062857Y-105828085D01*
X134062857Y-105828085D02*
X134034285Y-105799514D01*
X134034285Y-105799514D02*
X133977143Y-105770942D01*
X133977143Y-105770942D02*
X133834285Y-105770942D01*
X133834285Y-105770942D02*
X133777143Y-105799514D01*
X133777143Y-105799514D02*
X133748571Y-105828085D01*
X133748571Y-105828085D02*
X133720000Y-105885228D01*
X133720000Y-105885228D02*
X133720000Y-106028085D01*
X133720000Y-106028085D02*
X133748571Y-106085228D01*
X133748571Y-106085228D02*
X133777143Y-106113800D01*
X133777143Y-106113800D02*
X133834285Y-106142371D01*
X133834285Y-106142371D02*
X133977143Y-106142371D01*
X133977143Y-106142371D02*
X134034285Y-106113800D01*
X134034285Y-106113800D02*
X134062857Y-106085228D01*
X152657143Y-106472371D02*
X152314286Y-106472371D01*
X152485714Y-107072371D02*
X152485714Y-106472371D01*
X152114285Y-107072371D02*
X152114285Y-106472371D01*
X152114285Y-106472371D02*
X151885714Y-106472371D01*
X151885714Y-106472371D02*
X151828571Y-106500942D01*
X151828571Y-106500942D02*
X151800000Y-106529514D01*
X151800000Y-106529514D02*
X151771428Y-106586657D01*
X151771428Y-106586657D02*
X151771428Y-106672371D01*
X151771428Y-106672371D02*
X151800000Y-106729514D01*
X151800000Y-106729514D02*
X151828571Y-106758085D01*
X151828571Y-106758085D02*
X151885714Y-106786657D01*
X151885714Y-106786657D02*
X152114285Y-106786657D01*
X151257143Y-106672371D02*
X151257143Y-107072371D01*
X151400000Y-106443800D02*
X151542857Y-106872371D01*
X151542857Y-106872371D02*
X151171428Y-106872371D01*
X145852857Y-101262371D02*
X145510000Y-101262371D01*
X145681428Y-101862371D02*
X145681428Y-101262371D01*
X145309999Y-101862371D02*
X145309999Y-101262371D01*
X145309999Y-101262371D02*
X145081428Y-101262371D01*
X145081428Y-101262371D02*
X145024285Y-101290942D01*
X145024285Y-101290942D02*
X144995714Y-101319514D01*
X144995714Y-101319514D02*
X144967142Y-101376657D01*
X144967142Y-101376657D02*
X144967142Y-101462371D01*
X144967142Y-101462371D02*
X144995714Y-101519514D01*
X144995714Y-101519514D02*
X145024285Y-101548085D01*
X145024285Y-101548085D02*
X145081428Y-101576657D01*
X145081428Y-101576657D02*
X145309999Y-101576657D01*
X144395714Y-101862371D02*
X144738571Y-101862371D01*
X144567142Y-101862371D02*
X144567142Y-101262371D01*
X144567142Y-101262371D02*
X144624285Y-101348085D01*
X144624285Y-101348085D02*
X144681428Y-101405228D01*
X144681428Y-101405228D02*
X144738571Y-101433800D01*
X144167142Y-101319514D02*
X144138570Y-101290942D01*
X144138570Y-101290942D02*
X144081428Y-101262371D01*
X144081428Y-101262371D02*
X143938570Y-101262371D01*
X143938570Y-101262371D02*
X143881428Y-101290942D01*
X143881428Y-101290942D02*
X143852856Y-101319514D01*
X143852856Y-101319514D02*
X143824285Y-101376657D01*
X143824285Y-101376657D02*
X143824285Y-101433800D01*
X143824285Y-101433800D02*
X143852856Y-101519514D01*
X143852856Y-101519514D02*
X144195713Y-101862371D01*
X144195713Y-101862371D02*
X143824285Y-101862371D01*
X152712857Y-100282371D02*
X152370000Y-100282371D01*
X152541428Y-100882371D02*
X152541428Y-100282371D01*
X152169999Y-100882371D02*
X152169999Y-100282371D01*
X152169999Y-100282371D02*
X151941428Y-100282371D01*
X151941428Y-100282371D02*
X151884285Y-100310942D01*
X151884285Y-100310942D02*
X151855714Y-100339514D01*
X151855714Y-100339514D02*
X151827142Y-100396657D01*
X151827142Y-100396657D02*
X151827142Y-100482371D01*
X151827142Y-100482371D02*
X151855714Y-100539514D01*
X151855714Y-100539514D02*
X151884285Y-100568085D01*
X151884285Y-100568085D02*
X151941428Y-100596657D01*
X151941428Y-100596657D02*
X152169999Y-100596657D01*
X151255714Y-100882371D02*
X151598571Y-100882371D01*
X151427142Y-100882371D02*
X151427142Y-100282371D01*
X151427142Y-100282371D02*
X151484285Y-100368085D01*
X151484285Y-100368085D02*
X151541428Y-100425228D01*
X151541428Y-100425228D02*
X151598571Y-100453800D01*
X151055713Y-100282371D02*
X150684285Y-100282371D01*
X150684285Y-100282371D02*
X150884285Y-100510942D01*
X150884285Y-100510942D02*
X150798570Y-100510942D01*
X150798570Y-100510942D02*
X150741428Y-100539514D01*
X150741428Y-100539514D02*
X150712856Y-100568085D01*
X150712856Y-100568085D02*
X150684285Y-100625228D01*
X150684285Y-100625228D02*
X150684285Y-100768085D01*
X150684285Y-100768085D02*
X150712856Y-100825228D01*
X150712856Y-100825228D02*
X150741428Y-100853800D01*
X150741428Y-100853800D02*
X150798570Y-100882371D01*
X150798570Y-100882371D02*
X150969999Y-100882371D01*
X150969999Y-100882371D02*
X151027142Y-100853800D01*
X151027142Y-100853800D02*
X151055713Y-100825228D01*
X139580000Y-103232371D02*
X139580000Y-103660942D01*
X139580000Y-103660942D02*
X139608571Y-103746657D01*
X139608571Y-103746657D02*
X139665714Y-103803800D01*
X139665714Y-103803800D02*
X139751428Y-103832371D01*
X139751428Y-103832371D02*
X139808571Y-103832371D01*
X139037143Y-103232371D02*
X139151428Y-103232371D01*
X139151428Y-103232371D02*
X139208571Y-103260942D01*
X139208571Y-103260942D02*
X139237143Y-103289514D01*
X139237143Y-103289514D02*
X139294285Y-103375228D01*
X139294285Y-103375228D02*
X139322857Y-103489514D01*
X139322857Y-103489514D02*
X139322857Y-103718085D01*
X139322857Y-103718085D02*
X139294285Y-103775228D01*
X139294285Y-103775228D02*
X139265714Y-103803800D01*
X139265714Y-103803800D02*
X139208571Y-103832371D01*
X139208571Y-103832371D02*
X139094285Y-103832371D01*
X139094285Y-103832371D02*
X139037143Y-103803800D01*
X139037143Y-103803800D02*
X139008571Y-103775228D01*
X139008571Y-103775228D02*
X138980000Y-103718085D01*
X138980000Y-103718085D02*
X138980000Y-103575228D01*
X138980000Y-103575228D02*
X139008571Y-103518085D01*
X139008571Y-103518085D02*
X139037143Y-103489514D01*
X139037143Y-103489514D02*
X139094285Y-103460942D01*
X139094285Y-103460942D02*
X139208571Y-103460942D01*
X139208571Y-103460942D02*
X139265714Y-103489514D01*
X139265714Y-103489514D02*
X139294285Y-103518085D01*
X139294285Y-103518085D02*
X139322857Y-103575228D01*
X144532857Y-102432371D02*
X144190000Y-102432371D01*
X144361428Y-103032371D02*
X144361428Y-102432371D01*
X143989999Y-103032371D02*
X143989999Y-102432371D01*
X143989999Y-102432371D02*
X143761428Y-102432371D01*
X143761428Y-102432371D02*
X143704285Y-102460942D01*
X143704285Y-102460942D02*
X143675714Y-102489514D01*
X143675714Y-102489514D02*
X143647142Y-102546657D01*
X143647142Y-102546657D02*
X143647142Y-102632371D01*
X143647142Y-102632371D02*
X143675714Y-102689514D01*
X143675714Y-102689514D02*
X143704285Y-102718085D01*
X143704285Y-102718085D02*
X143761428Y-102746657D01*
X143761428Y-102746657D02*
X143989999Y-102746657D01*
X143075714Y-103032371D02*
X143418571Y-103032371D01*
X143247142Y-103032371D02*
X143247142Y-102432371D01*
X143247142Y-102432371D02*
X143304285Y-102518085D01*
X143304285Y-102518085D02*
X143361428Y-102575228D01*
X143361428Y-102575228D02*
X143418571Y-102603800D01*
X142504285Y-103032371D02*
X142847142Y-103032371D01*
X142675713Y-103032371D02*
X142675713Y-102432371D01*
X142675713Y-102432371D02*
X142732856Y-102518085D01*
X142732856Y-102518085D02*
X142789999Y-102575228D01*
X142789999Y-102575228D02*
X142847142Y-102603800D01*
X127767143Y-110692371D02*
X127424286Y-110692371D01*
X127595714Y-111292371D02*
X127595714Y-110692371D01*
X127224285Y-111292371D02*
X127224285Y-110692371D01*
X127224285Y-110692371D02*
X126995714Y-110692371D01*
X126995714Y-110692371D02*
X126938571Y-110720942D01*
X126938571Y-110720942D02*
X126910000Y-110749514D01*
X126910000Y-110749514D02*
X126881428Y-110806657D01*
X126881428Y-110806657D02*
X126881428Y-110892371D01*
X126881428Y-110892371D02*
X126910000Y-110949514D01*
X126910000Y-110949514D02*
X126938571Y-110978085D01*
X126938571Y-110978085D02*
X126995714Y-111006657D01*
X126995714Y-111006657D02*
X127224285Y-111006657D01*
X126310000Y-111292371D02*
X126652857Y-111292371D01*
X126481428Y-111292371D02*
X126481428Y-110692371D01*
X126481428Y-110692371D02*
X126538571Y-110778085D01*
X126538571Y-110778085D02*
X126595714Y-110835228D01*
X126595714Y-110835228D02*
X126652857Y-110863800D01*
X136177143Y-108862371D02*
X135834286Y-108862371D01*
X136005714Y-109462371D02*
X136005714Y-108862371D01*
X135634285Y-109462371D02*
X135634285Y-108862371D01*
X135634285Y-108862371D02*
X135405714Y-108862371D01*
X135405714Y-108862371D02*
X135348571Y-108890942D01*
X135348571Y-108890942D02*
X135320000Y-108919514D01*
X135320000Y-108919514D02*
X135291428Y-108976657D01*
X135291428Y-108976657D02*
X135291428Y-109062371D01*
X135291428Y-109062371D02*
X135320000Y-109119514D01*
X135320000Y-109119514D02*
X135348571Y-109148085D01*
X135348571Y-109148085D02*
X135405714Y-109176657D01*
X135405714Y-109176657D02*
X135634285Y-109176657D01*
X135005714Y-109462371D02*
X134891428Y-109462371D01*
X134891428Y-109462371D02*
X134834285Y-109433800D01*
X134834285Y-109433800D02*
X134805714Y-109405228D01*
X134805714Y-109405228D02*
X134748571Y-109319514D01*
X134748571Y-109319514D02*
X134720000Y-109205228D01*
X134720000Y-109205228D02*
X134720000Y-108976657D01*
X134720000Y-108976657D02*
X134748571Y-108919514D01*
X134748571Y-108919514D02*
X134777143Y-108890942D01*
X134777143Y-108890942D02*
X134834285Y-108862371D01*
X134834285Y-108862371D02*
X134948571Y-108862371D01*
X134948571Y-108862371D02*
X135005714Y-108890942D01*
X135005714Y-108890942D02*
X135034285Y-108919514D01*
X135034285Y-108919514D02*
X135062857Y-108976657D01*
X135062857Y-108976657D02*
X135062857Y-109119514D01*
X135062857Y-109119514D02*
X135034285Y-109176657D01*
X135034285Y-109176657D02*
X135005714Y-109205228D01*
X135005714Y-109205228D02*
X134948571Y-109233800D01*
X134948571Y-109233800D02*
X134834285Y-109233800D01*
X134834285Y-109233800D02*
X134777143Y-109205228D01*
X134777143Y-109205228D02*
X134748571Y-109176657D01*
X134748571Y-109176657D02*
X134720000Y-109119514D01*
X152667143Y-110112371D02*
X152324286Y-110112371D01*
X152495714Y-110712371D02*
X152495714Y-110112371D01*
X152124285Y-110712371D02*
X152124285Y-110112371D01*
X152124285Y-110112371D02*
X151895714Y-110112371D01*
X151895714Y-110112371D02*
X151838571Y-110140942D01*
X151838571Y-110140942D02*
X151810000Y-110169514D01*
X151810000Y-110169514D02*
X151781428Y-110226657D01*
X151781428Y-110226657D02*
X151781428Y-110312371D01*
X151781428Y-110312371D02*
X151810000Y-110369514D01*
X151810000Y-110369514D02*
X151838571Y-110398085D01*
X151838571Y-110398085D02*
X151895714Y-110426657D01*
X151895714Y-110426657D02*
X152124285Y-110426657D01*
X151581428Y-110112371D02*
X151210000Y-110112371D01*
X151210000Y-110112371D02*
X151410000Y-110340942D01*
X151410000Y-110340942D02*
X151324285Y-110340942D01*
X151324285Y-110340942D02*
X151267143Y-110369514D01*
X151267143Y-110369514D02*
X151238571Y-110398085D01*
X151238571Y-110398085D02*
X151210000Y-110455228D01*
X151210000Y-110455228D02*
X151210000Y-110598085D01*
X151210000Y-110598085D02*
X151238571Y-110655228D01*
X151238571Y-110655228D02*
X151267143Y-110683800D01*
X151267143Y-110683800D02*
X151324285Y-110712371D01*
X151324285Y-110712371D02*
X151495714Y-110712371D01*
X151495714Y-110712371D02*
X151552857Y-110683800D01*
X151552857Y-110683800D02*
X151581428Y-110655228D01*
X140922857Y-104752371D02*
X140580000Y-104752371D01*
X140751428Y-105352371D02*
X140751428Y-104752371D01*
X140379999Y-105352371D02*
X140379999Y-104752371D01*
X140379999Y-104752371D02*
X140151428Y-104752371D01*
X140151428Y-104752371D02*
X140094285Y-104780942D01*
X140094285Y-104780942D02*
X140065714Y-104809514D01*
X140065714Y-104809514D02*
X140037142Y-104866657D01*
X140037142Y-104866657D02*
X140037142Y-104952371D01*
X140037142Y-104952371D02*
X140065714Y-105009514D01*
X140065714Y-105009514D02*
X140094285Y-105038085D01*
X140094285Y-105038085D02*
X140151428Y-105066657D01*
X140151428Y-105066657D02*
X140379999Y-105066657D01*
X139465714Y-105352371D02*
X139808571Y-105352371D01*
X139637142Y-105352371D02*
X139637142Y-104752371D01*
X139637142Y-104752371D02*
X139694285Y-104838085D01*
X139694285Y-104838085D02*
X139751428Y-104895228D01*
X139751428Y-104895228D02*
X139808571Y-104923800D01*
X139094285Y-104752371D02*
X139037142Y-104752371D01*
X139037142Y-104752371D02*
X138979999Y-104780942D01*
X138979999Y-104780942D02*
X138951428Y-104809514D01*
X138951428Y-104809514D02*
X138922856Y-104866657D01*
X138922856Y-104866657D02*
X138894285Y-104980942D01*
X138894285Y-104980942D02*
X138894285Y-105123800D01*
X138894285Y-105123800D02*
X138922856Y-105238085D01*
X138922856Y-105238085D02*
X138951428Y-105295228D01*
X138951428Y-105295228D02*
X138979999Y-105323800D01*
X138979999Y-105323800D02*
X139037142Y-105352371D01*
X139037142Y-105352371D02*
X139094285Y-105352371D01*
X139094285Y-105352371D02*
X139151428Y-105323800D01*
X139151428Y-105323800D02*
X139179999Y-105295228D01*
X139179999Y-105295228D02*
X139208570Y-105238085D01*
X139208570Y-105238085D02*
X139237142Y-105123800D01*
X139237142Y-105123800D02*
X139237142Y-104980942D01*
X139237142Y-104980942D02*
X139208570Y-104866657D01*
X139208570Y-104866657D02*
X139179999Y-104809514D01*
X139179999Y-104809514D02*
X139151428Y-104780942D01*
X139151428Y-104780942D02*
X139094285Y-104752371D01*
X150242857Y-100122371D02*
X149900000Y-100122371D01*
X150071428Y-100722371D02*
X150071428Y-100122371D01*
X149699999Y-100722371D02*
X149699999Y-100122371D01*
X149699999Y-100122371D02*
X149471428Y-100122371D01*
X149471428Y-100122371D02*
X149414285Y-100150942D01*
X149414285Y-100150942D02*
X149385714Y-100179514D01*
X149385714Y-100179514D02*
X149357142Y-100236657D01*
X149357142Y-100236657D02*
X149357142Y-100322371D01*
X149357142Y-100322371D02*
X149385714Y-100379514D01*
X149385714Y-100379514D02*
X149414285Y-100408085D01*
X149414285Y-100408085D02*
X149471428Y-100436657D01*
X149471428Y-100436657D02*
X149699999Y-100436657D01*
X148785714Y-100722371D02*
X149128571Y-100722371D01*
X148957142Y-100722371D02*
X148957142Y-100122371D01*
X148957142Y-100122371D02*
X149014285Y-100208085D01*
X149014285Y-100208085D02*
X149071428Y-100265228D01*
X149071428Y-100265228D02*
X149128571Y-100293800D01*
X148271428Y-100322371D02*
X148271428Y-100722371D01*
X148414285Y-100093800D02*
X148557142Y-100522371D01*
X148557142Y-100522371D02*
X148185713Y-100522371D01*
X140147143Y-108212371D02*
X139804286Y-108212371D01*
X139975714Y-108812371D02*
X139975714Y-108212371D01*
X139604285Y-108812371D02*
X139604285Y-108212371D01*
X139604285Y-108212371D02*
X139375714Y-108212371D01*
X139375714Y-108212371D02*
X139318571Y-108240942D01*
X139318571Y-108240942D02*
X139290000Y-108269514D01*
X139290000Y-108269514D02*
X139261428Y-108326657D01*
X139261428Y-108326657D02*
X139261428Y-108412371D01*
X139261428Y-108412371D02*
X139290000Y-108469514D01*
X139290000Y-108469514D02*
X139318571Y-108498085D01*
X139318571Y-108498085D02*
X139375714Y-108526657D01*
X139375714Y-108526657D02*
X139604285Y-108526657D01*
X138918571Y-108469514D02*
X138975714Y-108440942D01*
X138975714Y-108440942D02*
X139004285Y-108412371D01*
X139004285Y-108412371D02*
X139032857Y-108355228D01*
X139032857Y-108355228D02*
X139032857Y-108326657D01*
X139032857Y-108326657D02*
X139004285Y-108269514D01*
X139004285Y-108269514D02*
X138975714Y-108240942D01*
X138975714Y-108240942D02*
X138918571Y-108212371D01*
X138918571Y-108212371D02*
X138804285Y-108212371D01*
X138804285Y-108212371D02*
X138747143Y-108240942D01*
X138747143Y-108240942D02*
X138718571Y-108269514D01*
X138718571Y-108269514D02*
X138690000Y-108326657D01*
X138690000Y-108326657D02*
X138690000Y-108355228D01*
X138690000Y-108355228D02*
X138718571Y-108412371D01*
X138718571Y-108412371D02*
X138747143Y-108440942D01*
X138747143Y-108440942D02*
X138804285Y-108469514D01*
X138804285Y-108469514D02*
X138918571Y-108469514D01*
X138918571Y-108469514D02*
X138975714Y-108498085D01*
X138975714Y-108498085D02*
X139004285Y-108526657D01*
X139004285Y-108526657D02*
X139032857Y-108583800D01*
X139032857Y-108583800D02*
X139032857Y-108698085D01*
X139032857Y-108698085D02*
X139004285Y-108755228D01*
X139004285Y-108755228D02*
X138975714Y-108783800D01*
X138975714Y-108783800D02*
X138918571Y-108812371D01*
X138918571Y-108812371D02*
X138804285Y-108812371D01*
X138804285Y-108812371D02*
X138747143Y-108783800D01*
X138747143Y-108783800D02*
X138718571Y-108755228D01*
X138718571Y-108755228D02*
X138690000Y-108698085D01*
X138690000Y-108698085D02*
X138690000Y-108583800D01*
X138690000Y-108583800D02*
X138718571Y-108526657D01*
X138718571Y-108526657D02*
X138747143Y-108498085D01*
X138747143Y-108498085D02*
X138804285Y-108469514D01*
X127580000Y-104652371D02*
X127580000Y-105080942D01*
X127580000Y-105080942D02*
X127608571Y-105166657D01*
X127608571Y-105166657D02*
X127665714Y-105223800D01*
X127665714Y-105223800D02*
X127751428Y-105252371D01*
X127751428Y-105252371D02*
X127808571Y-105252371D01*
X126980000Y-105252371D02*
X127322857Y-105252371D01*
X127151428Y-105252371D02*
X127151428Y-104652371D01*
X127151428Y-104652371D02*
X127208571Y-104738085D01*
X127208571Y-104738085D02*
X127265714Y-104795228D01*
X127265714Y-104795228D02*
X127322857Y-104823800D01*
X137687143Y-104472371D02*
X137344286Y-104472371D01*
X137515714Y-105072371D02*
X137515714Y-104472371D01*
X137144285Y-105072371D02*
X137144285Y-104472371D01*
X137144285Y-104472371D02*
X136915714Y-104472371D01*
X136915714Y-104472371D02*
X136858571Y-104500942D01*
X136858571Y-104500942D02*
X136830000Y-104529514D01*
X136830000Y-104529514D02*
X136801428Y-104586657D01*
X136801428Y-104586657D02*
X136801428Y-104672371D01*
X136801428Y-104672371D02*
X136830000Y-104729514D01*
X136830000Y-104729514D02*
X136858571Y-104758085D01*
X136858571Y-104758085D02*
X136915714Y-104786657D01*
X136915714Y-104786657D02*
X137144285Y-104786657D01*
X136287143Y-104472371D02*
X136401428Y-104472371D01*
X136401428Y-104472371D02*
X136458571Y-104500942D01*
X136458571Y-104500942D02*
X136487143Y-104529514D01*
X136487143Y-104529514D02*
X136544285Y-104615228D01*
X136544285Y-104615228D02*
X136572857Y-104729514D01*
X136572857Y-104729514D02*
X136572857Y-104958085D01*
X136572857Y-104958085D02*
X136544285Y-105015228D01*
X136544285Y-105015228D02*
X136515714Y-105043800D01*
X136515714Y-105043800D02*
X136458571Y-105072371D01*
X136458571Y-105072371D02*
X136344285Y-105072371D01*
X136344285Y-105072371D02*
X136287143Y-105043800D01*
X136287143Y-105043800D02*
X136258571Y-105015228D01*
X136258571Y-105015228D02*
X136230000Y-104958085D01*
X136230000Y-104958085D02*
X136230000Y-104815228D01*
X136230000Y-104815228D02*
X136258571Y-104758085D01*
X136258571Y-104758085D02*
X136287143Y-104729514D01*
X136287143Y-104729514D02*
X136344285Y-104700942D01*
X136344285Y-104700942D02*
X136458571Y-104700942D01*
X136458571Y-104700942D02*
X136515714Y-104729514D01*
X136515714Y-104729514D02*
X136544285Y-104758085D01*
X136544285Y-104758085D02*
X136572857Y-104815228D01*
X138107143Y-108652371D02*
X137764286Y-108652371D01*
X137935714Y-109252371D02*
X137935714Y-108652371D01*
X137564285Y-109252371D02*
X137564285Y-108652371D01*
X137564285Y-108652371D02*
X137335714Y-108652371D01*
X137335714Y-108652371D02*
X137278571Y-108680942D01*
X137278571Y-108680942D02*
X137250000Y-108709514D01*
X137250000Y-108709514D02*
X137221428Y-108766657D01*
X137221428Y-108766657D02*
X137221428Y-108852371D01*
X137221428Y-108852371D02*
X137250000Y-108909514D01*
X137250000Y-108909514D02*
X137278571Y-108938085D01*
X137278571Y-108938085D02*
X137335714Y-108966657D01*
X137335714Y-108966657D02*
X137564285Y-108966657D01*
X137021428Y-108652371D02*
X136621428Y-108652371D01*
X136621428Y-108652371D02*
X136878571Y-109252371D01*
D11*
%TO.C,J6*%
X140801369Y-101163144D02*
X140801369Y-102738144D01*
X138901369Y-102738144D02*
X140801369Y-102738144D01*
X133401369Y-102738144D02*
X135301369Y-102738144D01*
X133401369Y-101163144D02*
X133401369Y-102738144D01*
X138503369Y-103763144D02*
G75*
G03*
X138299369Y-103763144I-102000J0D01*
G01*
X138299369Y-103763144D02*
G75*
G03*
X138503369Y-103763144I102000J0D01*
G01*
%TD*%
D12*
X134301369Y-98513144D02*
X134301369Y-100393144D01*
X139051369Y-100393144D02*
X139901369Y-100393144D01*
X125750000Y-117500000D02*
X125750000Y-98500000D01*
X152000000Y-117000000D02*
X152000000Y-117500000D01*
X139901369Y-98513144D02*
X142701369Y-98513144D01*
X152000000Y-117500000D02*
X125750000Y-117500000D01*
X139051369Y-98513144D02*
X139051369Y-100393144D01*
X139901369Y-100393144D02*
X139901369Y-98513144D01*
X153250000Y-116000000D02*
X153000000Y-116000000D01*
X125750000Y-98500000D02*
X153250000Y-98500000D01*
X134301369Y-100393144D02*
X135151369Y-100393144D01*
X131501369Y-98513144D02*
X134301369Y-98513144D01*
X153250000Y-98500000D02*
X153250000Y-116000000D01*
X135151369Y-100393144D02*
X135151369Y-98513144D01*
X135151369Y-98513144D02*
X139051369Y-98513144D01*
X131501369Y-98363144D02*
X131501369Y-98513144D01*
X142701369Y-98363144D02*
X131501369Y-98363144D01*
X142701369Y-98513144D02*
X142701369Y-98363144D01*
X153000000Y-116000000D02*
G75*
G03*
X152000000Y-117000000I0J-1000000D01*
G01*
M02*
