M48
; DRILL file {KiCad 7.0.7} date 2024 January 17, Wednesday 15:08:28
; FORMAT={-:-/ absolute / inch / decimal}
; #@! TF.CreationDate,2024-01-17T15:08:28-08:00
; #@! TF.GenerationSoftware,Kicad,Pcbnew,7.0.7
; #@! TF.FileFunction,Plated,1,4,PTH
FMAT,2
INCH
; #@! TA.AperFunction,Plated,PTH,ViaDrill
T1C0.0059
; #@! TA.AperFunction,Plated,PTH,ViaDrill
T2C0.0079
%
G90
G05
T1
X5.3704Y-4.4731
X5.3704Y-4.4908
X5.3704Y-4.5263
X5.3821Y-4.4118
X5.3821Y-4.4472
X5.3881Y-4.5263
X5.3998Y-4.4472
X5.4175Y-4.4118
X5.4235Y-4.5086
X5.4235Y-4.5263
X5.4352Y-4.3409
X5.4352Y-4.3941
X5.4352Y-4.4118
X5.453Y-4.3409
X5.453Y-4.3764
X5.453Y-4.3941
X5.453Y-4.4118
X5.453Y-4.5181
X5.4707Y-4.3941
X5.4707Y-4.4118
X5.4884Y-4.3587
X5.4884Y-4.3764
X5.4884Y-4.3941
X5.4884Y-4.4118
X5.4884Y-4.4295
X5.5061Y-4.3587
X5.5061Y-4.3764
X5.5061Y-4.4118
X5.5061Y-4.4295
X5.5238Y-4.3587
X5.5238Y-4.3941
X5.5238Y-4.4295
X5.5415Y-4.3232
X5.5415Y-4.3587
X5.5415Y-4.3764
X5.5415Y-4.3941
X5.5415Y-4.4295
X5.5587Y-4.483
X5.5593Y-4.3587
X5.577Y-4.3232
X5.577Y-4.3941
X5.6619Y-4.5303
X5.6619Y-4.5618
X5.6757Y-4.5539
X5.6895Y-4.546
X5.6895Y-4.5618
X5.7545Y-3.9882
X5.7702Y-3.9882
X5.7702Y-4.0039
X5.8017Y-3.9882
X5.9321Y-4.1699
X5.9455Y-4.1797
X5.9588Y-4.1108
X5.9588Y-4.1896
X5.9588Y-4.2093
X5.9588Y-4.2289
X5.9722Y-4.2191
T2
X4.9701Y-4.2273
X4.9701Y-4.2687
X4.9701Y-4.3304
X4.9701Y-4.3511
X4.9703Y-3.9314
X4.9703Y-4.1857
X4.9703Y-4.2062
X4.9703Y-4.2482
X4.9703Y-4.2891
X4.9704Y-4.0552
X4.9704Y-3.9108
X4.9706Y-4.1653
X4.9706Y-4.3097
X4.9706Y-3.9722
X4.9706Y-3.9934
X4.9706Y-4.0138
X4.9706Y-4.0335
X4.9708Y-3.9517
X4.9709Y-4.0763
X4.9709Y-4.0982
X4.9713Y-4.1201
X4.9717Y-4.1446
X5.0019Y-4.0708
X5.0233Y-4.0924
X5.0493Y-3.9854
X5.0506Y-4.0879
X5.0515Y-4.0371
X5.1068Y-4.315
X5.1169Y-4.3424
X5.1486Y-4.276
X5.149Y-4.2959
X5.1498Y-4.6055
X5.1614Y-3.9868
X5.1703Y-4.6065
X5.1733Y-4.2181
X5.1906Y-4.6065
X5.1961Y-4.1586
X5.1995Y-4.205
X5.2098Y-4.2323
X5.2108Y-4.6064
X5.2312Y-4.6064
X5.2431Y-4.1303
X5.2515Y-4.6063
X5.2661Y-4.2972
X5.2713Y-4.4353
X5.2716Y-4.6065
X5.2747Y-4.1239
X5.2888Y-4.1588
X5.2921Y-4.6072
X5.3124Y-4.607
X5.3246Y-4.1372
X5.3249Y-4.1799
X5.33Y-4.5008
X5.3331Y-4.6065
X5.3424Y-4.4075
X5.3474Y-3.9979
X5.3577Y-4.368
X5.3595Y-4.4532
X5.3642Y-4.3057
X5.3864Y-4.1523
X5.387Y-4.1341
X5.3972Y-4.0778
X5.3983Y-3.9363
X5.4226Y-4.0789
X5.4324Y-4.3009
X5.4461Y-4.2053
X5.4468Y-4.1624
X5.4489Y-4.0004
X5.4497Y-4.096
X5.4571Y-4.2848
X5.4636Y-4.3035
X5.4877Y-4.5904
X5.4916Y-4.2062
X5.4949Y-4.2894
X5.5195Y-4.1502
X5.5199Y-4.2222
X5.5557Y-4.5974
X5.5663Y-4.1308
X5.5788Y-4.2251
X5.5825Y-3.9916
X5.5937Y-4.5159
X5.5965Y-4.1358
X5.6027Y-4.4817
X5.6065Y-4.4141
X5.616Y-4.3626
X5.6179Y-4.4426
X5.6259Y-4.1089
X5.6272Y-4.5001
X5.6477Y-4.3224
X5.6526Y-3.991
X5.6644Y-4.0304
X5.6759Y-4.5224
X5.6929Y-4.0464
X5.7014Y-3.899
X5.7065Y-4.4779
X5.7183Y-3.9507
X5.7242Y-3.9767
X5.7369Y-4.2439
X5.737Y-4.1011
X5.7377Y-4.3768
X5.7505Y-4.0366
X5.7547Y-3.9481
X5.7677Y-4.4684
X5.7811Y-4.0975
X5.7999Y-4.2942
X5.8044Y-3.9523
X5.8086Y-4.1047
X5.8506Y-4.0278
X5.8703Y-4.1489
X5.8715Y-4.121
X5.8722Y-4.1777
X5.8725Y-4.2863
X5.9068Y-4.2014
X5.9069Y-3.9405
X5.9336Y-3.9508
X5.9923Y-4.199
X6.0116Y-4.4772
X6.0116Y-4.5043
X6.0119Y-4.355
X6.0119Y-4.4518
X6.0123Y-4.3777
X6.0123Y-4.401
X6.0123Y-4.426
X6.0123Y-4.5325
X6.0126Y-4.3328
X6.013Y-4.5529
X6.0155Y-4.0119
X6.0155Y-4.0333
X6.0155Y-4.0548
X6.0155Y-4.0963
X6.0157Y-4.0757
X6.0162Y-3.9913
X6.0167Y-3.9704
X6.0172Y-3.9494
X6.018Y-3.9288
T0
M30
