%TF.GenerationSoftware,KiCad,Pcbnew,7.0.7*%
%TF.CreationDate,2024-01-17T15:08:19-08:00*%
%TF.ProjectId,beeper-design,62656570-6572-42d6-9465-7369676e2e6b,rev?*%
%TF.SameCoordinates,Original*%
%TF.FileFunction,Copper,L2,Inr*%
%TF.FilePolarity,Positive*%
%FSLAX46Y46*%
G04 Gerber Fmt 4.6, Leading zero omitted, Abs format (unit mm)*
G04 Created by KiCad (PCBNEW 7.0.7) date 2024-01-17 15:08:19*
%MOMM*%
%LPD*%
G01*
G04 APERTURE LIST*
%TA.AperFunction,ViaPad*%
%ADD10C,0.400000*%
%TD*%
%TA.AperFunction,ViaPad*%
%ADD11C,0.250000*%
%TD*%
%TA.AperFunction,Conductor*%
%ADD12C,0.075000*%
%TD*%
G04 APERTURE END LIST*
D10*
%TO.N,GND*%
X143575073Y-101370644D03*
D11*
X151354476Y-104415097D03*
D10*
X126240526Y-108423762D03*
X152711911Y-111192564D03*
X138422325Y-104037396D03*
X126259751Y-103538415D03*
X148605548Y-102305725D03*
X129713698Y-109601468D03*
X126259751Y-104094665D03*
D11*
X138505165Y-110260086D03*
X136705165Y-112060086D03*
D10*
X140205110Y-107243578D03*
D11*
X139405165Y-111610086D03*
D10*
X144814899Y-99034754D03*
X133897649Y-117005688D03*
D11*
X141191434Y-113867717D03*
X136407665Y-113617586D03*
D10*
X126253026Y-109467512D03*
X152799901Y-103522006D03*
X152711911Y-111784766D03*
D11*
X138505165Y-114760086D03*
D10*
X152793651Y-102990756D03*
D11*
X136705165Y-112960086D03*
D10*
X133890953Y-112656040D03*
X134419031Y-117022690D03*
D11*
X136407665Y-114967586D03*
D10*
X143875200Y-102372149D03*
D11*
X137155165Y-112960086D03*
D10*
X141382907Y-104922276D03*
X146498655Y-113498351D03*
D11*
X138955165Y-112060086D03*
D10*
X152856151Y-99790756D03*
X126246776Y-108942512D03*
X133387602Y-117000021D03*
D11*
X139405165Y-112510086D03*
D10*
X152837401Y-100315756D03*
X149154405Y-106113213D03*
X140194743Y-105415830D03*
X144168737Y-114869371D03*
D11*
X136857665Y-114967586D03*
D10*
X132354230Y-117002334D03*
X152812401Y-101378256D03*
D11*
X139855165Y-112510086D03*
D10*
X152793651Y-102447006D03*
X131841349Y-117005168D03*
D11*
X141655165Y-109810086D03*
X138055165Y-110260086D03*
D10*
X144945957Y-113738611D03*
X132872778Y-117002334D03*
D11*
X138505165Y-111610086D03*
D10*
X152824901Y-100847006D03*
X141700420Y-107317823D03*
X152703073Y-110618040D03*
D11*
X137757665Y-114517586D03*
D10*
X126240526Y-109992512D03*
X126246776Y-107905012D03*
X126244945Y-99856584D03*
X135461795Y-117005688D03*
X126253501Y-101950915D03*
D11*
X141655165Y-111610086D03*
D10*
X152720750Y-110052354D03*
X142647398Y-110810142D03*
X126253026Y-105798762D03*
X126258203Y-100373656D03*
X152694234Y-113720471D03*
X152711911Y-115125845D03*
X126253501Y-100894665D03*
X128251091Y-101228437D03*
D11*
X137757665Y-114967586D03*
D10*
X136830023Y-105006633D03*
X152694234Y-114409900D03*
X134934746Y-117017023D03*
X152793651Y-104047006D03*
D11*
X139405165Y-112060086D03*
D10*
X147316827Y-109072434D03*
X152703073Y-113075236D03*
X126272251Y-104650915D03*
X149161034Y-108872389D03*
D11*
X139855165Y-112060086D03*
D10*
X126247251Y-103000915D03*
X135697203Y-111949233D03*
D11*
X136407665Y-114067586D03*
D10*
X131401879Y-107139540D03*
X138348657Y-105724581D03*
X146839751Y-104076758D03*
X152729402Y-115643825D03*
X126280462Y-105271625D03*
D11*
X138955165Y-111610086D03*
D10*
X126240526Y-107373762D03*
X152793651Y-101903256D03*
X126249365Y-99335093D03*
X126253501Y-102450915D03*
X126240526Y-110517512D03*
X126253501Y-101432165D03*
X126246776Y-106317512D03*
X131325197Y-117003876D03*
X135824509Y-101545734D03*
D11*
X151354476Y-106415097D03*
D10*
X126246776Y-106836262D03*
X152711911Y-112421162D03*
X130804246Y-116979832D03*
D11*
%TO.N,mcu_mcu-etm_data3*%
X139405165Y-110710086D03*
D10*
%TO.N,VBUS*%
X145719549Y-104167509D03*
X138401907Y-101609453D03*
X141795237Y-101387518D03*
X128286276Y-103832108D03*
D11*
%TO.N,VDD1P8*%
X141205165Y-110710086D03*
D10*
X130773738Y-108610382D03*
X129970343Y-110296899D03*
X133758692Y-109149897D03*
%TO.N,AC2*%
X150035218Y-100088430D03*
%TO.N,VDDSYS*%
X135253660Y-106168638D03*
X135245811Y-105084379D03*
X152205282Y-106653960D03*
X133173574Y-104909491D03*
X145736583Y-111169977D03*
D11*
X140755165Y-109810086D03*
D10*
X145717991Y-107794103D03*
%TO.N,QVAR2*%
X141115303Y-116773148D03*
X135382966Y-114320626D03*
%TO.N,FOD*%
X145395132Y-101008981D03*
D11*
X146163236Y-101299687D03*
%TO.N,mcu_mcu-mem_sdio3*%
X140755165Y-112510086D03*
X144512568Y-115468836D03*
D10*
%TO.N,mcu_mcu-uart_tx*%
X131099595Y-101264852D03*
D11*
X138055165Y-112060086D03*
D10*
%TO.N,cap_p1*%
X150713795Y-100350924D03*
D11*
%TO.N,mcu_mcu-etm_clk*%
X139855165Y-110710086D03*
D10*
X136813812Y-105468849D03*
D11*
%TO.N,mcu_conn-uart_rx*%
X138505165Y-112060086D03*
D10*
X128307419Y-102542244D03*
D11*
%TO.N,VDD3P0*%
X151354476Y-107415097D03*
D10*
X139485444Y-106837731D03*
X150032519Y-106716031D03*
%TO.N,OUT-*%
X131981324Y-105628398D03*
D11*
%TO.N,codec-i2c-net_scl*%
X150674476Y-105915097D03*
D10*
X149135986Y-104674643D03*
X142078952Y-114703743D03*
D11*
%TO.N,RECT*%
X147363236Y-101299687D03*
D10*
X147432192Y-100388488D03*
%TO.N,board-io_rgb_r*%
X139570173Y-108951200D03*
X142899067Y-104366671D03*
%TO.N,mcu_q-spi_sdi*%
X132328370Y-107500892D03*
X136085542Y-110946589D03*
%TO.N,SHIELD*%
X137117093Y-99981882D03*
%TO.N,mcu_hap-i2c_sda*%
X137982440Y-109241617D03*
X138776380Y-109309812D03*
%TO.N,mcu_mcu-wpwr2_gpio*%
X146062497Y-102528897D03*
D11*
X140755165Y-110710086D03*
D10*
%TO.N,mcu_mcu-wpwr3_gpio*%
X145245596Y-100348780D03*
D11*
X139855165Y-111160086D03*
D10*
%TO.N,mcu_mcu-etm_data1*%
X138610093Y-108833959D03*
%TO.N,V14*%
X143452612Y-109789874D03*
X139386679Y-116595891D03*
D11*
%TO.N,CLAMP1*%
X146563236Y-101699687D03*
D10*
X147538753Y-104259505D03*
D11*
%TO.N,mcu_mcu-etm_data0*%
X138505165Y-111160086D03*
D10*
%TO.N,VBAT*%
X142151568Y-105049570D03*
D11*
%TO.N,mcu_mcu-mem_sdio2*%
X140305165Y-111610086D03*
X143812568Y-115868836D03*
D10*
%TO.N,codec-i2c-net_sda*%
X142405550Y-112118891D03*
X149104453Y-105382189D03*
D11*
X151014476Y-106165097D03*
D10*
%TO.N,mcu_hap-gpio1_gpio*%
X134334368Y-105632680D03*
D11*
X138055165Y-111610086D03*
D10*
%TO.N,OUT+*%
X132066160Y-106806138D03*
D11*
%TO.N,mcu_mcu-mem_sck*%
X144512568Y-115868836D03*
X140305165Y-112510086D03*
%TO.N,mcu_mcu-mem_cs*%
X140755165Y-111160086D03*
X143812568Y-115068836D03*
%TO.N,mcu_mcu-mem_sdio0*%
X144162568Y-115668836D03*
X139405165Y-111160086D03*
D10*
%TO.N,mcu_hap-i2c_scl*%
X133976982Y-104745882D03*
D11*
X137605165Y-112060086D03*
D10*
%TO.N,mcu_mcu-button2_gpio*%
X142694670Y-112843262D03*
D11*
X140755165Y-111610086D03*
D10*
%TO.N,D+*%
X137089972Y-103576428D03*
X142309553Y-113834073D03*
%TO.N,CLAMP2*%
X146170132Y-100282418D03*
D11*
X146563236Y-101299687D03*
%TO.N,mcu_mcu-wpwr0_gpio*%
X140305165Y-110710086D03*
D10*
X144600759Y-102778021D03*
%TO.N,mcu_mcu-etm_data2*%
X138331450Y-106815731D03*
X136249569Y-109365791D03*
D11*
%TO.N,SP_P*%
X151354476Y-106915097D03*
D10*
%TO.N,mcu_mcu-dbg-m33_swdclk*%
X127049008Y-103397477D03*
%TO.N,D-*%
X137734812Y-103603566D03*
X142929816Y-114303052D03*
%TO.N,QVAR1*%
X130784824Y-109115470D03*
%TO.N,mcu_mcu-dbg-m33_swdio*%
X127590593Y-103948199D03*
X136132564Y-113110803D03*
D11*
%TO.N,SP_N*%
X151694476Y-107165097D03*
%TD*%
D12*
%TO.N,VDD1P8*%
X129970343Y-110296899D02*
X130507671Y-109000641D01*
X130516908Y-108983381D02*
G75*
G03*
X130507672Y-109000641I83192J-55619D01*
G01*
X130516901Y-108983376D02*
X130560256Y-108918492D01*
X130561208Y-108917093D02*
G75*
G03*
X130560256Y-108918492I75692J-52507D01*
G01*
X130561208Y-108917093D02*
X130773738Y-108610382D01*
%TO.N,FOD*%
X146163236Y-101299687D02*
X145395132Y-101008981D01*
%TO.N,VDD3P0*%
X151354476Y-107415097D02*
X150032519Y-106716031D01*
%TO.N,codec-i2c-net_scl*%
X142078952Y-114703743D02*
X148932131Y-105908791D01*
X148949041Y-105891682D02*
G75*
G03*
X148932132Y-105908792I63959J-80118D01*
G01*
X148949041Y-105891682D02*
X149309816Y-105603721D01*
X149309811Y-105603715D02*
G75*
G03*
X149331100Y-105580556I-63911J80115D01*
G01*
X149331100Y-105580556D02*
X149374455Y-105515672D01*
X149374450Y-105515669D02*
G75*
G03*
X149389759Y-105478722I-85250J56969D01*
G01*
X149389760Y-105478722D02*
X149404984Y-105402186D01*
X149404988Y-105402187D02*
G75*
G03*
X149404983Y-105362192I-100588J19987D01*
G01*
X149404984Y-105362192D02*
X149389760Y-105285656D01*
X149389767Y-105285655D02*
G75*
G03*
X149383766Y-105266043I-100567J-20045D01*
G01*
X149383767Y-105266043D02*
X149135986Y-104674643D01*
%TO.N,RECT*%
X147363236Y-101299687D02*
X147432192Y-100388488D01*
%TO.N,board-io_rgb_r*%
X142899067Y-104366671D02*
X142422538Y-105176807D01*
X142419490Y-105181663D02*
G75*
G03*
X142422537Y-105176807I-82990J55463D01*
G01*
X142419491Y-105181664D02*
X142376136Y-105246549D01*
X142372704Y-105251373D02*
G75*
G03*
X142376136Y-105246549I-79204J59973D01*
G01*
X142372702Y-105251372D02*
X139570173Y-108951200D01*
%TO.N,mcu_q-spi_sdi*%
X136085542Y-110946589D02*
X133629357Y-109419599D01*
X133626598Y-109417820D02*
G75*
G03*
X133629357Y-109419599I54502J81520D01*
G01*
X133626598Y-109417820D02*
X133561713Y-109374465D01*
X133534126Y-109346873D02*
G75*
G03*
X133561713Y-109374464I83174J55573D01*
G01*
X133534123Y-109346875D02*
X133490769Y-109281991D01*
X133490173Y-109281087D02*
G75*
G03*
X133490769Y-109281991I68227J44387D01*
G01*
X133490172Y-109281087D02*
X132328370Y-107500892D01*
%TO.N,mcu_hap-i2c_sda*%
X138776380Y-109309812D02*
X137982440Y-109241617D01*
%TO.N,mcu_mcu-wpwr2_gpio*%
X140755165Y-110710086D02*
X141183100Y-110065285D01*
X141183100Y-110065285D02*
G75*
G03*
X141185434Y-110061725I-296000J196585D01*
G01*
X141185434Y-110061725D02*
X146062497Y-102528897D01*
%TO.N,mcu_mcu-wpwr3_gpio*%
X139855165Y-111160086D02*
X140394153Y-110916710D01*
X140394154Y-110916712D02*
G75*
G03*
X140408556Y-110908717I-41154J91112D01*
G01*
X140408557Y-110908718D02*
X140449110Y-110881621D01*
X140449107Y-110881616D02*
G75*
G03*
X140476700Y-110854031I-55507J83116D01*
G01*
X140476700Y-110854031D02*
X140503797Y-110813478D01*
X140503783Y-110813468D02*
G75*
G03*
X140519247Y-110774604I-83083J55568D01*
G01*
X140519248Y-110774604D02*
X140541081Y-110645568D01*
X140556547Y-110606702D02*
G75*
G03*
X140541081Y-110645568I83153J-55598D01*
G01*
X140556533Y-110606693D02*
X140583629Y-110566140D01*
X140590949Y-110556494D02*
G75*
G03*
X140583629Y-110566140I76051J-65306D01*
G01*
X140590954Y-110556498D02*
X141023632Y-110053323D01*
X141023634Y-110053325D02*
G75*
G03*
X141041027Y-110030422I-180234J154925D01*
G01*
X141041027Y-110030422D02*
X141068124Y-109989869D01*
X141068127Y-109989871D02*
G75*
G03*
X141079913Y-109970237I-197427J131871D01*
G01*
X141079914Y-109970237D02*
X144873646Y-102901848D01*
X144873659Y-102901855D02*
G75*
G03*
X144883612Y-102874067I-88159J47255D01*
G01*
X144883613Y-102874067D02*
X144898837Y-102797530D01*
X144898838Y-102797530D02*
G75*
G03*
X144900167Y-102788877I-98338J19530D01*
G01*
X144900168Y-102788877D02*
X145095723Y-100998125D01*
X145097050Y-100989471D02*
G75*
G03*
X145095724Y-100998125I97850J-19429D01*
G01*
X145097053Y-100989472D02*
X145112277Y-100912935D01*
X145113041Y-100909436D02*
G75*
G03*
X145112278Y-100912935I95959J-22764D01*
G01*
X145113039Y-100909435D02*
X145245596Y-100348780D01*
%TO.N,CLAMP1*%
X146563236Y-101699687D02*
X147538753Y-104259505D01*
%TO.N,codec-i2c-net_sda*%
X142405550Y-112118891D02*
X149104453Y-105382189D01*
%TO.N,CLAMP2*%
X146563236Y-101299687D02*
X146170132Y-100282418D01*
%TO.N,mcu_mcu-wpwr0_gpio*%
X144600759Y-102778021D02*
X140959697Y-109903424D01*
X140953795Y-109913477D02*
G75*
G03*
X140959696Y-109903424I-82995J55477D01*
G01*
X140953797Y-109913478D02*
X140926700Y-109954031D01*
X140919380Y-109963677D02*
G75*
G03*
X140926699Y-109954031I-75880J65177D01*
G01*
X140919376Y-109963673D02*
X140486698Y-110466849D01*
X140486698Y-110466849D02*
G75*
G03*
X140476161Y-110480022I180602J-155251D01*
G01*
X140476161Y-110480022D02*
X140305165Y-110710086D01*
%TO.N,mcu_mcu-etm_data2*%
X136249569Y-109365791D02*
X138331450Y-106815731D01*
%TO.N,mcu_mcu-dbg-m33_swdio*%
X136132564Y-113110803D02*
X127590593Y-103948199D01*
%TD*%
%TA.AperFunction,Conductor*%
%TO.N,GND*%
G36*
X131442529Y-98686112D02*
G01*
X131456880Y-98693644D01*
X134071869Y-98693644D01*
X134106517Y-98707996D01*
X134120869Y-98742644D01*
X134120868Y-100351084D01*
X134117686Y-100368455D01*
X134116822Y-100370733D01*
X134116822Y-100370734D01*
X134120690Y-100402592D01*
X134120869Y-100405548D01*
X134120869Y-100415061D01*
X134123145Y-100424297D01*
X134123678Y-100427207D01*
X134127547Y-100459064D01*
X134127548Y-100459066D01*
X134128930Y-100461068D01*
X134136176Y-100477167D01*
X134136761Y-100479537D01*
X134148556Y-100492851D01*
X134158037Y-100503552D01*
X134159861Y-100505880D01*
X134178093Y-100532294D01*
X134180246Y-100533424D01*
X134194150Y-100544316D01*
X134195763Y-100546137D01*
X134195764Y-100546137D01*
X134195765Y-100546138D01*
X134225772Y-100557518D01*
X134228456Y-100558726D01*
X134256880Y-100573644D01*
X134259309Y-100573644D01*
X134276685Y-100576828D01*
X134278960Y-100577691D01*
X134278960Y-100577690D01*
X134278961Y-100577691D01*
X134286093Y-100576825D01*
X134310820Y-100573823D01*
X134313775Y-100573644D01*
X135109309Y-100573644D01*
X135126685Y-100576828D01*
X135128960Y-100577691D01*
X135128960Y-100577690D01*
X135128961Y-100577691D01*
X135136093Y-100576825D01*
X135160820Y-100573823D01*
X135163775Y-100573644D01*
X135173285Y-100573644D01*
X135173286Y-100573644D01*
X135182527Y-100571365D01*
X135185434Y-100570833D01*
X135209023Y-100567968D01*
X135217291Y-100566965D01*
X135219289Y-100565585D01*
X135235400Y-100558333D01*
X135237762Y-100557752D01*
X135261794Y-100536460D01*
X135264086Y-100534664D01*
X135290519Y-100516420D01*
X135291649Y-100514265D01*
X135302544Y-100500359D01*
X135304363Y-100498748D01*
X135315742Y-100468742D01*
X135316958Y-100466044D01*
X135330882Y-100439513D01*
X135331869Y-100437633D01*
X135331869Y-100435201D01*
X135335053Y-100417827D01*
X135335916Y-100415552D01*
X135333789Y-100398037D01*
X135332048Y-100383693D01*
X135331869Y-100380738D01*
X135331869Y-99981882D01*
X136811957Y-99981882D01*
X136830359Y-100086247D01*
X136883343Y-100178018D01*
X136883345Y-100178021D01*
X136964524Y-100246138D01*
X137064107Y-100282382D01*
X137170079Y-100282382D01*
X137269661Y-100246138D01*
X137350840Y-100178021D01*
X137350842Y-100178018D01*
X137403826Y-100086247D01*
X137403826Y-100086246D01*
X137403827Y-100086245D01*
X137422229Y-99981882D01*
X137403827Y-99877519D01*
X137403826Y-99877517D01*
X137403826Y-99877516D01*
X137350842Y-99785745D01*
X137350840Y-99785742D01*
X137269661Y-99717625D01*
X137170079Y-99681382D01*
X137064107Y-99681382D01*
X136964524Y-99717625D01*
X136883345Y-99785742D01*
X136883343Y-99785745D01*
X136830359Y-99877516D01*
X136811957Y-99981882D01*
X135331869Y-99981882D01*
X135331869Y-98742644D01*
X135346221Y-98707996D01*
X135380869Y-98693644D01*
X138821869Y-98693644D01*
X138856517Y-98707996D01*
X138870869Y-98742644D01*
X138870869Y-100351084D01*
X138867685Y-100368460D01*
X138866822Y-100370735D01*
X138870690Y-100402592D01*
X138870869Y-100405548D01*
X138870869Y-100415061D01*
X138873145Y-100424297D01*
X138873678Y-100427207D01*
X138877547Y-100459064D01*
X138877548Y-100459066D01*
X138878930Y-100461068D01*
X138886176Y-100477167D01*
X138886761Y-100479537D01*
X138898556Y-100492851D01*
X138908037Y-100503552D01*
X138909861Y-100505880D01*
X138928093Y-100532294D01*
X138930246Y-100533424D01*
X138944150Y-100544316D01*
X138945763Y-100546137D01*
X138945764Y-100546137D01*
X138945765Y-100546138D01*
X138975772Y-100557518D01*
X138978456Y-100558726D01*
X139006880Y-100573644D01*
X139009309Y-100573644D01*
X139026685Y-100576828D01*
X139028960Y-100577691D01*
X139028960Y-100577690D01*
X139028961Y-100577691D01*
X139036093Y-100576825D01*
X139060820Y-100573823D01*
X139063775Y-100573644D01*
X139859309Y-100573644D01*
X139876685Y-100576828D01*
X139878960Y-100577691D01*
X139878960Y-100577690D01*
X139878961Y-100577691D01*
X139886093Y-100576825D01*
X139910820Y-100573823D01*
X139913775Y-100573644D01*
X139923285Y-100573644D01*
X139923286Y-100573644D01*
X139932527Y-100571365D01*
X139935434Y-100570833D01*
X139959023Y-100567968D01*
X139967291Y-100566965D01*
X139969289Y-100565585D01*
X139985400Y-100558333D01*
X139987762Y-100557752D01*
X140011794Y-100536460D01*
X140014086Y-100534664D01*
X140040519Y-100516420D01*
X140041649Y-100514265D01*
X140052544Y-100500359D01*
X140054363Y-100498748D01*
X140065742Y-100468742D01*
X140066958Y-100466044D01*
X140080882Y-100439513D01*
X140081869Y-100437633D01*
X140081869Y-100435201D01*
X140085053Y-100417827D01*
X140085916Y-100415552D01*
X140083789Y-100398037D01*
X140082048Y-100383693D01*
X140081869Y-100380738D01*
X140081869Y-98742644D01*
X140096221Y-98707996D01*
X140130869Y-98693644D01*
X142723286Y-98693644D01*
X142770836Y-98681924D01*
X142782562Y-98680500D01*
X153020500Y-98680500D01*
X153055148Y-98694852D01*
X153069500Y-98729500D01*
X153069500Y-115770500D01*
X153055148Y-115805148D01*
X153020500Y-115819500D01*
X153000000Y-115819500D01*
X152907093Y-115819500D01*
X152872555Y-115824970D01*
X152723568Y-115848567D01*
X152723565Y-115848568D01*
X152546843Y-115905988D01*
X152381285Y-115990344D01*
X152230954Y-116099566D01*
X152099566Y-116230954D01*
X151990344Y-116381285D01*
X151905988Y-116546843D01*
X151848568Y-116723565D01*
X151848567Y-116723568D01*
X151819500Y-116907093D01*
X151819500Y-117270500D01*
X151805148Y-117305148D01*
X151770500Y-117319500D01*
X125979500Y-117319500D01*
X125944852Y-117305148D01*
X125930500Y-117270500D01*
X125930500Y-116595890D01*
X139081543Y-116595890D01*
X139099945Y-116700256D01*
X139152929Y-116792027D01*
X139152931Y-116792030D01*
X139234110Y-116860147D01*
X139333693Y-116896391D01*
X139439665Y-116896391D01*
X139539247Y-116860147D01*
X139620426Y-116792030D01*
X139620428Y-116792027D01*
X139631328Y-116773148D01*
X140810167Y-116773148D01*
X140828569Y-116877513D01*
X140881553Y-116969284D01*
X140881555Y-116969287D01*
X140962734Y-117037404D01*
X141062317Y-117073648D01*
X141168289Y-117073648D01*
X141267871Y-117037404D01*
X141349050Y-116969287D01*
X141349052Y-116969284D01*
X141402036Y-116877513D01*
X141402036Y-116877512D01*
X141402037Y-116877511D01*
X141420439Y-116773148D01*
X141402037Y-116668785D01*
X141402036Y-116668783D01*
X141402036Y-116668782D01*
X141349052Y-116577011D01*
X141349050Y-116577008D01*
X141267871Y-116508891D01*
X141168289Y-116472648D01*
X141062317Y-116472648D01*
X140962734Y-116508891D01*
X140881555Y-116577008D01*
X140881553Y-116577011D01*
X140828569Y-116668782D01*
X140810167Y-116773148D01*
X139631328Y-116773148D01*
X139673412Y-116700256D01*
X139673412Y-116700255D01*
X139673413Y-116700254D01*
X139691815Y-116595891D01*
X139673413Y-116491528D01*
X139673412Y-116491526D01*
X139673412Y-116491525D01*
X139620428Y-116399754D01*
X139620426Y-116399751D01*
X139539247Y-116331634D01*
X139439665Y-116295391D01*
X139333693Y-116295391D01*
X139234110Y-116331634D01*
X139152931Y-116399751D01*
X139152929Y-116399754D01*
X139099945Y-116491525D01*
X139081543Y-116595890D01*
X125930500Y-116595890D01*
X125930500Y-115868836D01*
X143582650Y-115868836D01*
X143585706Y-115884198D01*
X143600151Y-115956822D01*
X143649990Y-116031413D01*
X143699830Y-116064714D01*
X143724582Y-116081253D01*
X143812568Y-116098754D01*
X143900554Y-116081253D01*
X143975145Y-116031413D01*
X144024985Y-115956822D01*
X144031772Y-115922695D01*
X144052608Y-115891514D01*
X144089386Y-115884197D01*
X144162568Y-115898754D01*
X144235746Y-115884198D01*
X144272527Y-115891515D01*
X144293362Y-115922697D01*
X144300150Y-115956820D01*
X144349990Y-116031413D01*
X144399830Y-116064714D01*
X144424582Y-116081253D01*
X144512568Y-116098754D01*
X144600554Y-116081253D01*
X144675145Y-116031413D01*
X144724985Y-115956822D01*
X144742486Y-115868836D01*
X144724985Y-115780850D01*
X144675145Y-115706259D01*
X144675144Y-115706257D01*
X144672371Y-115703484D01*
X144658019Y-115668836D01*
X144672371Y-115634188D01*
X144675144Y-115631414D01*
X144708929Y-115580851D01*
X144724985Y-115556822D01*
X144742486Y-115468836D01*
X144724985Y-115380850D01*
X144708446Y-115356098D01*
X144675145Y-115306258D01*
X144600554Y-115256419D01*
X144512568Y-115238918D01*
X144424581Y-115256419D01*
X144349990Y-115306258D01*
X144300150Y-115380851D01*
X144293362Y-115414975D01*
X144272526Y-115446157D01*
X144235746Y-115453473D01*
X144162568Y-115438918D01*
X144162567Y-115438918D01*
X144074581Y-115456419D01*
X143999990Y-115506258D01*
X143950150Y-115580851D01*
X143943362Y-115614975D01*
X143922526Y-115646157D01*
X143885746Y-115653473D01*
X143812568Y-115638918D01*
X143812567Y-115638918D01*
X143724581Y-115656419D01*
X143649990Y-115706258D01*
X143600151Y-115780849D01*
X143586682Y-115848567D01*
X143582650Y-115868836D01*
X125930500Y-115868836D01*
X125930500Y-115068835D01*
X143582650Y-115068835D01*
X143600151Y-115156822D01*
X143649990Y-115231413D01*
X143687415Y-115256419D01*
X143724582Y-115281253D01*
X143812568Y-115298754D01*
X143900554Y-115281253D01*
X143975145Y-115231413D01*
X144024985Y-115156822D01*
X144042486Y-115068836D01*
X144024985Y-114980850D01*
X144008446Y-114956098D01*
X143975145Y-114906258D01*
X143900554Y-114856419D01*
X143812568Y-114838918D01*
X143724581Y-114856419D01*
X143649990Y-114906258D01*
X143600151Y-114980849D01*
X143582650Y-115068835D01*
X125930500Y-115068835D01*
X125930500Y-114703743D01*
X141773816Y-114703743D01*
X141792218Y-114808108D01*
X141845202Y-114899879D01*
X141845204Y-114899882D01*
X141926383Y-114967999D01*
X142025966Y-115004243D01*
X142131938Y-115004243D01*
X142231520Y-114967999D01*
X142312699Y-114899882D01*
X142312701Y-114899879D01*
X142365685Y-114808108D01*
X142365685Y-114808107D01*
X142365686Y-114808106D01*
X142384088Y-114703743D01*
X142365686Y-114599380D01*
X142365684Y-114599377D01*
X142365684Y-114599375D01*
X142365262Y-114598214D01*
X142365305Y-114597223D01*
X142364941Y-114595158D01*
X142365398Y-114595077D01*
X142366898Y-114560747D01*
X142372656Y-114551338D01*
X142399597Y-114516764D01*
X142546113Y-114328734D01*
X142578729Y-114310226D01*
X142614881Y-114320202D01*
X142633019Y-114350344D01*
X142643082Y-114407417D01*
X142696066Y-114499188D01*
X142696068Y-114499191D01*
X142777247Y-114567308D01*
X142876830Y-114603552D01*
X142982802Y-114603552D01*
X143082384Y-114567308D01*
X143163563Y-114499191D01*
X143163565Y-114499188D01*
X143216549Y-114407417D01*
X143216549Y-114407416D01*
X143216550Y-114407415D01*
X143234952Y-114303052D01*
X143216550Y-114198689D01*
X143216549Y-114198687D01*
X143216549Y-114198686D01*
X143163565Y-114106915D01*
X143163563Y-114106912D01*
X143082384Y-114038795D01*
X142982802Y-114002552D01*
X142900581Y-114002552D01*
X142865933Y-113988200D01*
X142851581Y-113953552D01*
X142861930Y-113923434D01*
X142931562Y-113834073D01*
X145007471Y-111169977D01*
X145431447Y-111169977D01*
X145449849Y-111274342D01*
X145502833Y-111366113D01*
X145502835Y-111366116D01*
X145584014Y-111434233D01*
X145683597Y-111470477D01*
X145789569Y-111470477D01*
X145889151Y-111434233D01*
X145970330Y-111366116D01*
X145970332Y-111366113D01*
X146023316Y-111274342D01*
X146023316Y-111274341D01*
X146023317Y-111274340D01*
X146041719Y-111169977D01*
X146023317Y-111065614D01*
X146023316Y-111065612D01*
X146023316Y-111065611D01*
X145970332Y-110973840D01*
X145970330Y-110973837D01*
X145889151Y-110905720D01*
X145789569Y-110869477D01*
X145683597Y-110869477D01*
X145584014Y-110905720D01*
X145502835Y-110973837D01*
X145502833Y-110973840D01*
X145449849Y-111065611D01*
X145431447Y-111169977D01*
X145007471Y-111169977D01*
X148478063Y-106716031D01*
X149727383Y-106716031D01*
X149730440Y-106733368D01*
X149745785Y-106820396D01*
X149798769Y-106912167D01*
X149798771Y-106912170D01*
X149879950Y-106980287D01*
X149979533Y-107016531D01*
X150085505Y-107016531D01*
X150185087Y-106980287D01*
X150185094Y-106980280D01*
X150186455Y-106979496D01*
X150187719Y-106979329D01*
X150189116Y-106978821D01*
X150189228Y-106979130D01*
X150223636Y-106974596D01*
X150233864Y-106978610D01*
X151111626Y-107442782D01*
X151135546Y-107471666D01*
X151136778Y-107476538D01*
X151142058Y-107503081D01*
X151191898Y-107577674D01*
X151222268Y-107597966D01*
X151266490Y-107627514D01*
X151354476Y-107645015D01*
X151442462Y-107627514D01*
X151517053Y-107577674D01*
X151566893Y-107503083D01*
X151582867Y-107422773D01*
X151603702Y-107391592D01*
X151640482Y-107384275D01*
X151640484Y-107384275D01*
X151640484Y-107384276D01*
X151694473Y-107395015D01*
X151694474Y-107395015D01*
X151694474Y-107395014D01*
X151694476Y-107395015D01*
X151782462Y-107377514D01*
X151857053Y-107327674D01*
X151906893Y-107253083D01*
X151924394Y-107165097D01*
X151906893Y-107077111D01*
X151890354Y-107052359D01*
X151857053Y-107002519D01*
X151782462Y-106952680D01*
X151729251Y-106942096D01*
X151694476Y-106935179D01*
X151694475Y-106935179D01*
X151640484Y-106945918D01*
X151603701Y-106938601D01*
X151582866Y-106907419D01*
X151566893Y-106827111D01*
X151520932Y-106758325D01*
X151517053Y-106752519D01*
X151442462Y-106702680D01*
X151420029Y-106698218D01*
X151354476Y-106685179D01*
X151354475Y-106685179D01*
X151266489Y-106702680D01*
X151191898Y-106752519D01*
X151142059Y-106827110D01*
X151137487Y-106850099D01*
X151124558Y-106915097D01*
X151128889Y-106936870D01*
X151142059Y-107003083D01*
X151182749Y-107063980D01*
X151190065Y-107100763D01*
X151169230Y-107131945D01*
X151132447Y-107139261D01*
X151119101Y-107134519D01*
X150581252Y-106850099D01*
X150359862Y-106733025D01*
X150335943Y-106704142D01*
X150334517Y-106698234D01*
X150326710Y-106653960D01*
X151900146Y-106653960D01*
X151918548Y-106758325D01*
X151971532Y-106850096D01*
X151971534Y-106850099D01*
X152052713Y-106918216D01*
X152152296Y-106954460D01*
X152258268Y-106954460D01*
X152357850Y-106918216D01*
X152439029Y-106850099D01*
X152439031Y-106850096D01*
X152456180Y-106820394D01*
X152492016Y-106758323D01*
X152510418Y-106653960D01*
X152492016Y-106549597D01*
X152492015Y-106549595D01*
X152492015Y-106549594D01*
X152439031Y-106457823D01*
X152439029Y-106457820D01*
X152357850Y-106389703D01*
X152258268Y-106353460D01*
X152152296Y-106353460D01*
X152052713Y-106389703D01*
X151971534Y-106457820D01*
X151971532Y-106457823D01*
X151918548Y-106549594D01*
X151900146Y-106653960D01*
X150326710Y-106653960D01*
X150319253Y-106611668D01*
X150314399Y-106603261D01*
X150266268Y-106519894D01*
X150266266Y-106519891D01*
X150185087Y-106451774D01*
X150085505Y-106415531D01*
X149979533Y-106415531D01*
X149879950Y-106451774D01*
X149798771Y-106519891D01*
X149798769Y-106519894D01*
X149745785Y-106611665D01*
X149729737Y-106702680D01*
X149727383Y-106716031D01*
X148478063Y-106716031D01*
X149017176Y-106024166D01*
X149017182Y-106024161D01*
X149021628Y-106018454D01*
X149021630Y-106018454D01*
X149034848Y-106001487D01*
X149042930Y-105993310D01*
X149140920Y-105915097D01*
X150444558Y-105915097D01*
X150455976Y-105972500D01*
X150462059Y-106003083D01*
X150511898Y-106077674D01*
X150552385Y-106104726D01*
X150586490Y-106127514D01*
X150674476Y-106145015D01*
X150674477Y-106145014D01*
X150674478Y-106145015D01*
X150674479Y-106145015D01*
X150728467Y-106134276D01*
X150765249Y-106141592D01*
X150786084Y-106172775D01*
X150802057Y-106253080D01*
X150851898Y-106327674D01*
X150901738Y-106360975D01*
X150926490Y-106377514D01*
X151014476Y-106395015D01*
X151102462Y-106377514D01*
X151177053Y-106327674D01*
X151226893Y-106253083D01*
X151244394Y-106165097D01*
X151226893Y-106077111D01*
X151191513Y-106024161D01*
X151177053Y-106002519D01*
X151102462Y-105952680D01*
X151068466Y-105945918D01*
X151014476Y-105935179D01*
X151014475Y-105935179D01*
X150960484Y-105945918D01*
X150923701Y-105938601D01*
X150902866Y-105907419D01*
X150886893Y-105827111D01*
X150842627Y-105760862D01*
X150837053Y-105752519D01*
X150762462Y-105702680D01*
X150674476Y-105685179D01*
X150586489Y-105702680D01*
X150511898Y-105752519D01*
X150462059Y-105827110D01*
X150462058Y-105827111D01*
X150462059Y-105827111D01*
X150444558Y-105915097D01*
X149140920Y-105915097D01*
X149410102Y-105700244D01*
X149410105Y-105700239D01*
X149410244Y-105700095D01*
X149415138Y-105694458D01*
X149423180Y-105686566D01*
X149430431Y-105677814D01*
X149435611Y-105672488D01*
X149435748Y-105672332D01*
X149440656Y-105664988D01*
X149445826Y-105657250D01*
X149463331Y-105631065D01*
X149463331Y-105631062D01*
X149466535Y-105626270D01*
X149466564Y-105626211D01*
X149482864Y-105601818D01*
X149489194Y-105592347D01*
X149489193Y-105592346D01*
X149498903Y-105577818D01*
X149498905Y-105577812D01*
X149499290Y-105577236D01*
X149499556Y-105576449D01*
X149500782Y-105573486D01*
X149511889Y-105550972D01*
X149519982Y-105527137D01*
X149521203Y-105524193D01*
X149521564Y-105523462D01*
X149522562Y-105518443D01*
X149525104Y-105505670D01*
X149529801Y-105482074D01*
X149531254Y-105474778D01*
X149531253Y-105474777D01*
X149532387Y-105469085D01*
X149532391Y-105469026D01*
X149533014Y-105465895D01*
X149533033Y-105465839D01*
X149536505Y-105448371D01*
X149536919Y-105446282D01*
X149536923Y-105446277D01*
X149540340Y-105429081D01*
X149540341Y-105429081D01*
X149543413Y-105413625D01*
X149543413Y-105413620D01*
X149543874Y-105411301D01*
X149543873Y-105411301D01*
X149543876Y-105411291D01*
X149543825Y-105410515D01*
X149543825Y-105407311D01*
X149545470Y-105382178D01*
X149545470Y-105382177D01*
X149544308Y-105364483D01*
X149543823Y-105357087D01*
X149543823Y-105353892D01*
X149543876Y-105353087D01*
X149539717Y-105332180D01*
X149534187Y-105304376D01*
X149532769Y-105297245D01*
X149532769Y-105297244D01*
X149532766Y-105297236D01*
X149532390Y-105295344D01*
X149532379Y-105295209D01*
X149529156Y-105279039D01*
X149529158Y-105279026D01*
X149523551Y-105250884D01*
X149523550Y-105250882D01*
X149523534Y-105250799D01*
X149523518Y-105250740D01*
X149522517Y-105245709D01*
X149521564Y-105240916D01*
X149520531Y-105237874D01*
X149520917Y-105237742D01*
X149519304Y-105232462D01*
X149518910Y-105232570D01*
X149518068Y-105229480D01*
X149518067Y-105229471D01*
X149516445Y-105225601D01*
X149514185Y-105220205D01*
X149514175Y-105220178D01*
X149514136Y-105220085D01*
X149512222Y-105215521D01*
X149387909Y-104918813D01*
X149377990Y-104895137D01*
X149377838Y-104857634D01*
X149380749Y-104851702D01*
X149422719Y-104779008D01*
X149422719Y-104779007D01*
X149422720Y-104779006D01*
X149441122Y-104674643D01*
X149422720Y-104570280D01*
X149422719Y-104570278D01*
X149422719Y-104570277D01*
X149369735Y-104478506D01*
X149369733Y-104478503D01*
X149288554Y-104410386D01*
X149188972Y-104374143D01*
X149083000Y-104374143D01*
X148983417Y-104410386D01*
X148902238Y-104478503D01*
X148902236Y-104478506D01*
X148849252Y-104570277D01*
X148830850Y-104674643D01*
X148849252Y-104779008D01*
X148902236Y-104870779D01*
X148902238Y-104870782D01*
X148983417Y-104938899D01*
X149033209Y-104957021D01*
X149083000Y-104975143D01*
X149083001Y-104975143D01*
X149087223Y-104975888D01*
X149086831Y-104978110D01*
X149114315Y-104989495D01*
X149124860Y-105005206D01*
X149128441Y-105013752D01*
X149128595Y-105051255D01*
X149102185Y-105077882D01*
X149083248Y-105081689D01*
X149051467Y-105081689D01*
X148951884Y-105117932D01*
X148870705Y-105186049D01*
X148870703Y-105186052D01*
X148817719Y-105277823D01*
X148799317Y-105382189D01*
X148811548Y-105451559D01*
X148803430Y-105488173D01*
X148798038Y-105494618D01*
X142518218Y-111809873D01*
X142483610Y-111824322D01*
X142466715Y-111821368D01*
X142458536Y-111818391D01*
X142352564Y-111818391D01*
X142252981Y-111854634D01*
X142171802Y-111922751D01*
X142171800Y-111922754D01*
X142118816Y-112014525D01*
X142100414Y-112118891D01*
X142118816Y-112223256D01*
X142171800Y-112315027D01*
X142171802Y-112315030D01*
X142252981Y-112383147D01*
X142352564Y-112419391D01*
X142458536Y-112419391D01*
X142558118Y-112383147D01*
X142639297Y-112315030D01*
X142639299Y-112315027D01*
X142692283Y-112223256D01*
X142692283Y-112223255D01*
X142692284Y-112223254D01*
X142710686Y-112118891D01*
X142698453Y-112049519D01*
X142706570Y-112012906D01*
X142711958Y-112006465D01*
X148119067Y-106568846D01*
X148153672Y-106554399D01*
X148188361Y-106568653D01*
X148202810Y-106603261D01*
X148192461Y-106633517D01*
X142669387Y-113721495D01*
X142636770Y-113740004D01*
X142600618Y-113730028D01*
X142588301Y-113715877D01*
X142543302Y-113637936D01*
X142543300Y-113637933D01*
X142462121Y-113569816D01*
X142362539Y-113533573D01*
X142256567Y-113533573D01*
X142156984Y-113569816D01*
X142075805Y-113637933D01*
X142075803Y-113637936D01*
X142022819Y-113729707D01*
X142004417Y-113834073D01*
X142022819Y-113938438D01*
X142075803Y-114030209D01*
X142075805Y-114030212D01*
X142156984Y-114098329D01*
X142260595Y-114136039D01*
X142260237Y-114137021D01*
X142287956Y-114154676D01*
X142296078Y-114191289D01*
X142286472Y-114212904D01*
X142152870Y-114384361D01*
X142120253Y-114402870D01*
X142114219Y-114403243D01*
X142025966Y-114403243D01*
X141926383Y-114439486D01*
X141845204Y-114507603D01*
X141845202Y-114507606D01*
X141792218Y-114599377D01*
X141773816Y-114703743D01*
X125930500Y-114703743D01*
X125930500Y-114320625D01*
X135077830Y-114320625D01*
X135096232Y-114424991D01*
X135149216Y-114516762D01*
X135149218Y-114516765D01*
X135230397Y-114584882D01*
X135329980Y-114621126D01*
X135435952Y-114621126D01*
X135535534Y-114584882D01*
X135616713Y-114516765D01*
X135616715Y-114516762D01*
X135669699Y-114424991D01*
X135669699Y-114424990D01*
X135669700Y-114424989D01*
X135688102Y-114320626D01*
X135669700Y-114216263D01*
X135669699Y-114216261D01*
X135669699Y-114216260D01*
X135616715Y-114124489D01*
X135616713Y-114124486D01*
X135535534Y-114056369D01*
X135435952Y-114020126D01*
X135329980Y-114020126D01*
X135230397Y-114056369D01*
X135149218Y-114124486D01*
X135149216Y-114124489D01*
X135096232Y-114216260D01*
X135077830Y-114320625D01*
X125930500Y-114320625D01*
X125930500Y-110296899D01*
X129665207Y-110296899D01*
X129683609Y-110401264D01*
X129736593Y-110493035D01*
X129736595Y-110493038D01*
X129817774Y-110561155D01*
X129917357Y-110597399D01*
X130023329Y-110597399D01*
X130122911Y-110561155D01*
X130204090Y-110493038D01*
X130204092Y-110493035D01*
X130257076Y-110401264D01*
X130257076Y-110401263D01*
X130257077Y-110401262D01*
X130275479Y-110296899D01*
X130257077Y-110192536D01*
X130257076Y-110192534D01*
X130257076Y-110192533D01*
X130218918Y-110126443D01*
X130214395Y-110118609D01*
X130209501Y-110081429D01*
X130211561Y-110075361D01*
X130508486Y-109359052D01*
X130535010Y-109332542D01*
X130572513Y-109332552D01*
X130585247Y-109340281D01*
X130632255Y-109379726D01*
X130731838Y-109415970D01*
X130837810Y-109415970D01*
X130937392Y-109379726D01*
X131018571Y-109311609D01*
X131018573Y-109311606D01*
X131071557Y-109219835D01*
X131071557Y-109219834D01*
X131071558Y-109219833D01*
X131089960Y-109115470D01*
X131071558Y-109011107D01*
X131071557Y-109011105D01*
X131071557Y-109011104D01*
X131018573Y-108919333D01*
X131018569Y-108919328D01*
X130990541Y-108895810D01*
X130973223Y-108862545D01*
X130984501Y-108826778D01*
X130990542Y-108820737D01*
X131007486Y-108806520D01*
X131060472Y-108714745D01*
X131078874Y-108610382D01*
X131060472Y-108506019D01*
X131060471Y-108506017D01*
X131060471Y-108506016D01*
X131007487Y-108414245D01*
X131007485Y-108414242D01*
X130926306Y-108346125D01*
X130826724Y-108309882D01*
X130720752Y-108309882D01*
X130621169Y-108346125D01*
X130539990Y-108414242D01*
X130539988Y-108414245D01*
X130487004Y-108506016D01*
X130468602Y-108610381D01*
X130468602Y-108610382D01*
X130487004Y-108714745D01*
X130492625Y-108724481D01*
X130497521Y-108761663D01*
X130490466Y-108776889D01*
X130457991Y-108823755D01*
X130456280Y-108825947D01*
X130455613Y-108826708D01*
X130446612Y-108840177D01*
X130437430Y-108853428D01*
X130436971Y-108854320D01*
X130435560Y-108856716D01*
X130392065Y-108921811D01*
X130390645Y-108924691D01*
X130390151Y-108924447D01*
X130388269Y-108927966D01*
X130388748Y-108928243D01*
X130387142Y-108931022D01*
X130379764Y-108948820D01*
X130366159Y-108981603D01*
X130366121Y-108981733D01*
X129958031Y-109966215D01*
X129931506Y-109992727D01*
X129921280Y-109995707D01*
X129917356Y-109996399D01*
X129817774Y-110032642D01*
X129736595Y-110100759D01*
X129736593Y-110100762D01*
X129683609Y-110192533D01*
X129665207Y-110296899D01*
X125930500Y-110296899D01*
X125930500Y-103948199D01*
X127285457Y-103948199D01*
X127303859Y-104052564D01*
X127356843Y-104144335D01*
X127356845Y-104144338D01*
X127438024Y-104212455D01*
X127537607Y-104248699D01*
X127643578Y-104248699D01*
X127643579Y-104248699D01*
X127643579Y-104248698D01*
X127647803Y-104247954D01*
X127648095Y-104249611D01*
X127679282Y-104250957D01*
X127694436Y-104261963D01*
X135664444Y-112811047D01*
X135829296Y-112987876D01*
X135842425Y-113023006D01*
X135841711Y-113029797D01*
X135827428Y-113110802D01*
X135845830Y-113215168D01*
X135898814Y-113306939D01*
X135898816Y-113306942D01*
X135979995Y-113375059D01*
X136079578Y-113411303D01*
X136185550Y-113411303D01*
X136285132Y-113375059D01*
X136366311Y-113306942D01*
X136366313Y-113306939D01*
X136419297Y-113215168D01*
X136419297Y-113215167D01*
X136419298Y-113215166D01*
X136437700Y-113110803D01*
X136419298Y-113006440D01*
X136419297Y-113006438D01*
X136419297Y-113006437D01*
X136366313Y-112914666D01*
X136366311Y-112914663D01*
X136285132Y-112846546D01*
X136276109Y-112843262D01*
X142389534Y-112843262D01*
X142407936Y-112947627D01*
X142460920Y-113039398D01*
X142460922Y-113039401D01*
X142542101Y-113107518D01*
X142641684Y-113143762D01*
X142747656Y-113143762D01*
X142847238Y-113107518D01*
X142928417Y-113039401D01*
X142928419Y-113039398D01*
X142981403Y-112947627D01*
X142981403Y-112947626D01*
X142981404Y-112947625D01*
X142999806Y-112843262D01*
X142981404Y-112738899D01*
X142981403Y-112738897D01*
X142981403Y-112738896D01*
X142928419Y-112647125D01*
X142928417Y-112647122D01*
X142847238Y-112579005D01*
X142747656Y-112542762D01*
X142641684Y-112542762D01*
X142542101Y-112579005D01*
X142460922Y-112647122D01*
X142460920Y-112647125D01*
X142407936Y-112738896D01*
X142389534Y-112843262D01*
X136276109Y-112843262D01*
X136185550Y-112810303D01*
X136079578Y-112810303D01*
X136079577Y-112810303D01*
X136075358Y-112811047D01*
X136075067Y-112809399D01*
X136043839Y-112808027D01*
X136028719Y-112797037D01*
X135825456Y-112579006D01*
X135761204Y-112510086D01*
X140075247Y-112510086D01*
X140088955Y-112579005D01*
X140092748Y-112598072D01*
X140142587Y-112672663D01*
X140192427Y-112705964D01*
X140217179Y-112722503D01*
X140305165Y-112740004D01*
X140393151Y-112722503D01*
X140467742Y-112672663D01*
X140489423Y-112640214D01*
X140520605Y-112619380D01*
X140557388Y-112626696D01*
X140570907Y-112640215D01*
X140592587Y-112672663D01*
X140642427Y-112705964D01*
X140667179Y-112722503D01*
X140755165Y-112740004D01*
X140843151Y-112722503D01*
X140917742Y-112672663D01*
X140967582Y-112598072D01*
X140985083Y-112510086D01*
X140967582Y-112422100D01*
X140948455Y-112393475D01*
X140917742Y-112347508D01*
X140843151Y-112297669D01*
X140755165Y-112280168D01*
X140667178Y-112297669D01*
X140592587Y-112347508D01*
X140570907Y-112379956D01*
X140539724Y-112400792D01*
X140502942Y-112393475D01*
X140489423Y-112379956D01*
X140467742Y-112347508D01*
X140393151Y-112297669D01*
X140305165Y-112280168D01*
X140217178Y-112297669D01*
X140142587Y-112347508D01*
X140092748Y-112422099D01*
X140092747Y-112422100D01*
X140092748Y-112422100D01*
X140075247Y-112510086D01*
X135761204Y-112510086D01*
X135341685Y-112060086D01*
X137375247Y-112060086D01*
X137392748Y-112148072D01*
X137442587Y-112222663D01*
X137443472Y-112223254D01*
X137517179Y-112272503D01*
X137605165Y-112290004D01*
X137693151Y-112272503D01*
X137767742Y-112222663D01*
X137789423Y-112190214D01*
X137820605Y-112169380D01*
X137857388Y-112176696D01*
X137870907Y-112190215D01*
X137892587Y-112222663D01*
X137893472Y-112223254D01*
X137967179Y-112272503D01*
X138055165Y-112290004D01*
X138143151Y-112272503D01*
X138217742Y-112222663D01*
X138239423Y-112190214D01*
X138270605Y-112169380D01*
X138307388Y-112176696D01*
X138320907Y-112190215D01*
X138342587Y-112222663D01*
X138343472Y-112223254D01*
X138417179Y-112272503D01*
X138505165Y-112290004D01*
X138593151Y-112272503D01*
X138667742Y-112222663D01*
X138717582Y-112148072D01*
X138735083Y-112060086D01*
X138717582Y-111972100D01*
X138698455Y-111943475D01*
X138667742Y-111897508D01*
X138593151Y-111847669D01*
X138554610Y-111840003D01*
X138505165Y-111830168D01*
X138505164Y-111830168D01*
X138417178Y-111847669D01*
X138342587Y-111897508D01*
X138320907Y-111929956D01*
X138289724Y-111950792D01*
X138252942Y-111943475D01*
X138239423Y-111929956D01*
X138217742Y-111897508D01*
X138185294Y-111875828D01*
X138164459Y-111844646D01*
X138171775Y-111807863D01*
X138185294Y-111794344D01*
X138217742Y-111772663D01*
X138239423Y-111740215D01*
X138267582Y-111698072D01*
X138285083Y-111610086D01*
X138267582Y-111522100D01*
X138248455Y-111493475D01*
X138217742Y-111447508D01*
X138143151Y-111397669D01*
X138055165Y-111380168D01*
X137967178Y-111397669D01*
X137892587Y-111447508D01*
X137842748Y-111522099D01*
X137825247Y-111610086D01*
X137842748Y-111698072D01*
X137892587Y-111772663D01*
X137925035Y-111794344D01*
X137945871Y-111825527D01*
X137938554Y-111862309D01*
X137925035Y-111875828D01*
X137892587Y-111897508D01*
X137870907Y-111929956D01*
X137839724Y-111950792D01*
X137802942Y-111943475D01*
X137789423Y-111929956D01*
X137767742Y-111897508D01*
X137693151Y-111847669D01*
X137654610Y-111840003D01*
X137605165Y-111830168D01*
X137605164Y-111830168D01*
X137517178Y-111847669D01*
X137442587Y-111897508D01*
X137392748Y-111972099D01*
X137375247Y-112060086D01*
X135341685Y-112060086D01*
X131091310Y-107500892D01*
X132023234Y-107500892D01*
X132041636Y-107605257D01*
X132094620Y-107697028D01*
X132094622Y-107697031D01*
X132175801Y-107765148D01*
X132275384Y-107801392D01*
X132333163Y-107801392D01*
X132367811Y-107815744D01*
X132374197Y-107823612D01*
X133364451Y-109340951D01*
X133365897Y-109343485D01*
X133365923Y-109343538D01*
X133365932Y-109343551D01*
X133365933Y-109343554D01*
X133367591Y-109346035D01*
X133375293Y-109357563D01*
X133384536Y-109371725D01*
X133384570Y-109371764D01*
X133386346Y-109374106D01*
X133404969Y-109401976D01*
X133429473Y-109438649D01*
X133430220Y-109439304D01*
X133432482Y-109441567D01*
X133448611Y-109459961D01*
X133448612Y-109459962D01*
X133448613Y-109459963D01*
X133467032Y-109476119D01*
X133469297Y-109478383D01*
X133469939Y-109479115D01*
X133487246Y-109490679D01*
X133511214Y-109506699D01*
X133511215Y-109506699D01*
X133516088Y-109509956D01*
X133516124Y-109509975D01*
X133536371Y-109523504D01*
X133538300Y-109524934D01*
X133541066Y-109527203D01*
X133541068Y-109527205D01*
X133553183Y-109534737D01*
X133565035Y-109542656D01*
X133565044Y-109542659D01*
X133568228Y-109544229D01*
X133570333Y-109545399D01*
X134388635Y-110054130D01*
X135757277Y-110905003D01*
X135779125Y-110935485D01*
X135780395Y-110946528D01*
X135798808Y-111050954D01*
X135851792Y-111142725D01*
X135851794Y-111142728D01*
X135932973Y-111210845D01*
X136032556Y-111247089D01*
X136138528Y-111247089D01*
X136238110Y-111210845D01*
X136298602Y-111160086D01*
X138275247Y-111160086D01*
X138285343Y-111210845D01*
X138292748Y-111248072D01*
X138342587Y-111322663D01*
X138375036Y-111344344D01*
X138417179Y-111372503D01*
X138505165Y-111390004D01*
X138593151Y-111372503D01*
X138667742Y-111322663D01*
X138717582Y-111248072D01*
X138735083Y-111160086D01*
X139175247Y-111160086D01*
X139185343Y-111210845D01*
X139192748Y-111248072D01*
X139242587Y-111322663D01*
X139275036Y-111344344D01*
X139317179Y-111372503D01*
X139405165Y-111390004D01*
X139493151Y-111372503D01*
X139567742Y-111322663D01*
X139589423Y-111290214D01*
X139620605Y-111269380D01*
X139657388Y-111276696D01*
X139670907Y-111290215D01*
X139692587Y-111322663D01*
X139725036Y-111344344D01*
X139767179Y-111372503D01*
X139855165Y-111390004D01*
X139943151Y-111372503D01*
X140017742Y-111322663D01*
X140067582Y-111248072D01*
X140069763Y-111237104D01*
X140090596Y-111205924D01*
X140097648Y-111202010D01*
X140416359Y-111058098D01*
X140416395Y-111058088D01*
X140422252Y-111055441D01*
X140422254Y-111055442D01*
X140432974Y-111050599D01*
X140432978Y-111050599D01*
X140450959Y-111042477D01*
X140450960Y-111042478D01*
X140456924Y-111039784D01*
X140456930Y-111039780D01*
X140457250Y-111039636D01*
X140457319Y-111039603D01*
X140470436Y-111033682D01*
X140471110Y-111035175D01*
X140502829Y-111029954D01*
X140533303Y-111051813D01*
X140539739Y-111087228D01*
X140528700Y-111142728D01*
X140525247Y-111160086D01*
X140535343Y-111210845D01*
X140542748Y-111248072D01*
X140592587Y-111322663D01*
X140625035Y-111344344D01*
X140645871Y-111375527D01*
X140638554Y-111412309D01*
X140625035Y-111425828D01*
X140592587Y-111447508D01*
X140570907Y-111479956D01*
X140539724Y-111500792D01*
X140502942Y-111493475D01*
X140489423Y-111479956D01*
X140467742Y-111447508D01*
X140393151Y-111397669D01*
X140305165Y-111380168D01*
X140217178Y-111397669D01*
X140142587Y-111447508D01*
X140092748Y-111522099D01*
X140075247Y-111610085D01*
X140092748Y-111698072D01*
X140142587Y-111772663D01*
X140175036Y-111794344D01*
X140217179Y-111822503D01*
X140305165Y-111840004D01*
X140393151Y-111822503D01*
X140467742Y-111772663D01*
X140489423Y-111740214D01*
X140520605Y-111719380D01*
X140557388Y-111726696D01*
X140570907Y-111740215D01*
X140592587Y-111772663D01*
X140625036Y-111794344D01*
X140667179Y-111822503D01*
X140755165Y-111840004D01*
X140843151Y-111822503D01*
X140917742Y-111772663D01*
X140967582Y-111698072D01*
X140985083Y-111610086D01*
X140967582Y-111522100D01*
X140948455Y-111493475D01*
X140917742Y-111447508D01*
X140885294Y-111425828D01*
X140864459Y-111394646D01*
X140871775Y-111357863D01*
X140885294Y-111344344D01*
X140917742Y-111322663D01*
X140939423Y-111290215D01*
X140967582Y-111248072D01*
X140985083Y-111160086D01*
X140967582Y-111072100D01*
X140941826Y-111033553D01*
X140917742Y-110997508D01*
X140885294Y-110975828D01*
X140864459Y-110944646D01*
X140871775Y-110907863D01*
X140885294Y-110894344D01*
X140917742Y-110872663D01*
X140939423Y-110840215D01*
X140970605Y-110819380D01*
X141007388Y-110826696D01*
X141020907Y-110840215D01*
X141042587Y-110872663D01*
X141068605Y-110890047D01*
X141117179Y-110922503D01*
X141205165Y-110940004D01*
X141293151Y-110922503D01*
X141367742Y-110872663D01*
X141417582Y-110798072D01*
X141435083Y-110710086D01*
X141417582Y-110622100D01*
X141398455Y-110593475D01*
X141367742Y-110547508D01*
X141293151Y-110497669D01*
X141293150Y-110497668D01*
X141205165Y-110480168D01*
X141205164Y-110480168D01*
X141168847Y-110487391D01*
X141132065Y-110480073D01*
X141111230Y-110448890D01*
X141118461Y-110412240D01*
X141289652Y-110154293D01*
X141291395Y-110151982D01*
X141291397Y-110151978D01*
X141291401Y-110151975D01*
X141299732Y-110139106D01*
X141308127Y-110126458D01*
X141308126Y-110126458D01*
X141308137Y-110126443D01*
X141309555Y-110123934D01*
X141525839Y-109789874D01*
X143147476Y-109789874D01*
X143165878Y-109894239D01*
X143218862Y-109986010D01*
X143218864Y-109986013D01*
X143300043Y-110054130D01*
X143399626Y-110090374D01*
X143505598Y-110090374D01*
X143605180Y-110054130D01*
X143686359Y-109986013D01*
X143686361Y-109986010D01*
X143739345Y-109894239D01*
X143739345Y-109894238D01*
X143739346Y-109894237D01*
X143757748Y-109789874D01*
X143739346Y-109685511D01*
X143739345Y-109685509D01*
X143739345Y-109685508D01*
X143686361Y-109593737D01*
X143686359Y-109593734D01*
X143605180Y-109525617D01*
X143505598Y-109489374D01*
X143399626Y-109489374D01*
X143300043Y-109525617D01*
X143218864Y-109593734D01*
X143218862Y-109593737D01*
X143165878Y-109685508D01*
X143147476Y-109789874D01*
X141525839Y-109789874D01*
X142817984Y-107794103D01*
X145412855Y-107794103D01*
X145431257Y-107898468D01*
X145484241Y-107990239D01*
X145484243Y-107990242D01*
X145565422Y-108058359D01*
X145665005Y-108094603D01*
X145770977Y-108094603D01*
X145870559Y-108058359D01*
X145951738Y-107990242D01*
X145951740Y-107990239D01*
X146004724Y-107898468D01*
X146004724Y-107898467D01*
X146004725Y-107898466D01*
X146023127Y-107794103D01*
X146004725Y-107689740D01*
X146004724Y-107689738D01*
X146004724Y-107689737D01*
X145951740Y-107597966D01*
X145951738Y-107597963D01*
X145870559Y-107529846D01*
X145770977Y-107493603D01*
X145665005Y-107493603D01*
X145565422Y-107529846D01*
X145484243Y-107597963D01*
X145484241Y-107597966D01*
X145431257Y-107689737D01*
X145412855Y-107794103D01*
X142817984Y-107794103D01*
X144721510Y-104854029D01*
X145165991Y-104167509D01*
X145414413Y-104167509D01*
X145432815Y-104271874D01*
X145485799Y-104363645D01*
X145485801Y-104363648D01*
X145566980Y-104431765D01*
X145666563Y-104468009D01*
X145772535Y-104468009D01*
X145872117Y-104431765D01*
X145953296Y-104363648D01*
X145953298Y-104363645D01*
X146006282Y-104271874D01*
X146006282Y-104271873D01*
X146006283Y-104271872D01*
X146024685Y-104167509D01*
X146006283Y-104063146D01*
X146006282Y-104063144D01*
X146006282Y-104063143D01*
X145953298Y-103971372D01*
X145953296Y-103971369D01*
X145872117Y-103903252D01*
X145772535Y-103867009D01*
X145666563Y-103867009D01*
X145566980Y-103903252D01*
X145485801Y-103971369D01*
X145485799Y-103971372D01*
X145432815Y-104063143D01*
X145414413Y-104167509D01*
X145165991Y-104167509D01*
X146017857Y-102851767D01*
X146048735Y-102830482D01*
X146058989Y-102829397D01*
X146115483Y-102829397D01*
X146215065Y-102793153D01*
X146296244Y-102725036D01*
X146296246Y-102725033D01*
X146349230Y-102633262D01*
X146349230Y-102633261D01*
X146349231Y-102633260D01*
X146367633Y-102528897D01*
X146349231Y-102424534D01*
X146349230Y-102424532D01*
X146349230Y-102424531D01*
X146296246Y-102332760D01*
X146296244Y-102332757D01*
X146215065Y-102264640D01*
X146115483Y-102228397D01*
X146009511Y-102228397D01*
X145909928Y-102264640D01*
X145828749Y-102332757D01*
X145828747Y-102332760D01*
X145775763Y-102424531D01*
X145761446Y-102505728D01*
X145757361Y-102528897D01*
X145759852Y-102543022D01*
X145775763Y-102633262D01*
X145786588Y-102652010D01*
X145791483Y-102689192D01*
X145785285Y-102703140D01*
X142643288Y-107556084D01*
X142612410Y-107577369D01*
X142575526Y-107570586D01*
X142554241Y-107539708D01*
X142558981Y-107506284D01*
X144977670Y-102999843D01*
X144977765Y-102999708D01*
X144985668Y-102984965D01*
X144985711Y-102984929D01*
X144995288Y-102967050D01*
X145000840Y-102956685D01*
X145000840Y-102956684D01*
X145001082Y-102956233D01*
X145001157Y-102956082D01*
X145002034Y-102954448D01*
X145003831Y-102951102D01*
X145003832Y-102951095D01*
X145003920Y-102950866D01*
X145006239Y-102943669D01*
X145009853Y-102934963D01*
X145012530Y-102926137D01*
X145015344Y-102919018D01*
X145015411Y-102918817D01*
X145015417Y-102918807D01*
X145016523Y-102913239D01*
X145016540Y-102913172D01*
X145016682Y-102912458D01*
X145018974Y-102900924D01*
X145026947Y-102860840D01*
X145026976Y-102860753D01*
X145028058Y-102855306D01*
X145033131Y-102829758D01*
X145035195Y-102822675D01*
X145035379Y-102821923D01*
X145036102Y-102815297D01*
X145036426Y-102813184D01*
X145037730Y-102806635D01*
X145037729Y-102806634D01*
X145037777Y-102805909D01*
X145037939Y-102798478D01*
X145045959Y-102725035D01*
X145199175Y-101321996D01*
X145217202Y-101289113D01*
X145253203Y-101278608D01*
X145264642Y-101281273D01*
X145342146Y-101309481D01*
X145448118Y-101309481D01*
X145547700Y-101273237D01*
X145557694Y-101264851D01*
X145574131Y-101251057D01*
X145609898Y-101239779D01*
X145622969Y-101242764D01*
X145920925Y-101355531D01*
X145948250Y-101381218D01*
X145948899Y-101383242D01*
X145948971Y-101383213D01*
X145950817Y-101387670D01*
X146000658Y-101462264D01*
X146044984Y-101491881D01*
X146075250Y-101512104D01*
X146163236Y-101529605D01*
X146251222Y-101512104D01*
X146325813Y-101462264D01*
X146325813Y-101462263D01*
X146328588Y-101459490D01*
X146363236Y-101445138D01*
X146397884Y-101459490D01*
X146403433Y-101465039D01*
X146417785Y-101499687D01*
X146403433Y-101534335D01*
X146400659Y-101537108D01*
X146350819Y-101611700D01*
X146333318Y-101699687D01*
X146350819Y-101787673D01*
X146400658Y-101862264D01*
X146450498Y-101895565D01*
X146475250Y-101912104D01*
X146475252Y-101912104D01*
X146479710Y-101913951D01*
X146478797Y-101916154D01*
X146502852Y-101932229D01*
X146507897Y-101942001D01*
X147303527Y-104029784D01*
X147302454Y-104067271D01*
X147300174Y-104071733D01*
X147252019Y-104155139D01*
X147233617Y-104259504D01*
X147252019Y-104363870D01*
X147305003Y-104455641D01*
X147305005Y-104455644D01*
X147386184Y-104523761D01*
X147485767Y-104560005D01*
X147591739Y-104560005D01*
X147691321Y-104523761D01*
X147772500Y-104455644D01*
X147772502Y-104455641D01*
X147825486Y-104363870D01*
X147825486Y-104363869D01*
X147825487Y-104363868D01*
X147843889Y-104259505D01*
X147825487Y-104155142D01*
X147825486Y-104155140D01*
X147825486Y-104155139D01*
X147772502Y-104063368D01*
X147772500Y-104063365D01*
X147691321Y-103995248D01*
X147589777Y-103958291D01*
X147562126Y-103932955D01*
X147560747Y-103929695D01*
X147550670Y-103903253D01*
X146764789Y-101841050D01*
X146765862Y-101803564D01*
X146769836Y-101796378D01*
X146775653Y-101787673D01*
X146793154Y-101699687D01*
X146775653Y-101611701D01*
X146725813Y-101537110D01*
X146725812Y-101537108D01*
X146723039Y-101534335D01*
X146708687Y-101499687D01*
X146723039Y-101465039D01*
X146725812Y-101462265D01*
X146725813Y-101462264D01*
X146775653Y-101387673D01*
X146793154Y-101299687D01*
X146775653Y-101211701D01*
X146756347Y-101182807D01*
X146725813Y-101137109D01*
X146660405Y-101093406D01*
X146651222Y-101087270D01*
X146651220Y-101087269D01*
X146646761Y-101085422D01*
X146647503Y-101083630D01*
X146622499Y-101066916D01*
X146617540Y-101057363D01*
X146603810Y-101021834D01*
X146406332Y-100510803D01*
X146407230Y-100473312D01*
X146409597Y-100468653D01*
X146455625Y-100388930D01*
X146455881Y-100388487D01*
X147127056Y-100388487D01*
X147145458Y-100492853D01*
X147198442Y-100584624D01*
X147198443Y-100584626D01*
X147254885Y-100631985D01*
X147272202Y-100665251D01*
X147272249Y-100673219D01*
X147240888Y-101087641D01*
X147223963Y-101121108D01*
X147219252Y-101124685D01*
X147200659Y-101137108D01*
X147150819Y-101211700D01*
X147133318Y-101299687D01*
X147150819Y-101387673D01*
X147200658Y-101462264D01*
X147244984Y-101491881D01*
X147275250Y-101512104D01*
X147363236Y-101529605D01*
X147451222Y-101512104D01*
X147525813Y-101462264D01*
X147575653Y-101387673D01*
X147593154Y-101299687D01*
X147575653Y-101211701D01*
X147525813Y-101137110D01*
X147525812Y-101137109D01*
X147524535Y-101135198D01*
X147516417Y-101104279D01*
X147547233Y-100697063D01*
X147564158Y-100663599D01*
X147579336Y-100654717D01*
X147584760Y-100652744D01*
X147632086Y-100613033D01*
X147665937Y-100584629D01*
X147665938Y-100584627D01*
X147665940Y-100584626D01*
X147714595Y-100500353D01*
X147718925Y-100492853D01*
X147718925Y-100492852D01*
X147718926Y-100492851D01*
X147737328Y-100388488D01*
X147718926Y-100284125D01*
X147718925Y-100284123D01*
X147718925Y-100284122D01*
X147665941Y-100192351D01*
X147665939Y-100192348D01*
X147584760Y-100124231D01*
X147486390Y-100088429D01*
X149730082Y-100088429D01*
X149748484Y-100192795D01*
X149801468Y-100284566D01*
X149801470Y-100284569D01*
X149882649Y-100352686D01*
X149982232Y-100388930D01*
X150088204Y-100388930D01*
X150187786Y-100352686D01*
X150189886Y-100350924D01*
X150408659Y-100350924D01*
X150427061Y-100455289D01*
X150480045Y-100547060D01*
X150480047Y-100547063D01*
X150561226Y-100615180D01*
X150660809Y-100651424D01*
X150766781Y-100651424D01*
X150866363Y-100615180D01*
X150947542Y-100547063D01*
X150947544Y-100547060D01*
X150947768Y-100546673D01*
X150993559Y-100467360D01*
X151000528Y-100455289D01*
X151000528Y-100455288D01*
X151000529Y-100455287D01*
X151018931Y-100350924D01*
X151000529Y-100246561D01*
X151000528Y-100246559D01*
X151000528Y-100246558D01*
X150947544Y-100154787D01*
X150947542Y-100154784D01*
X150866363Y-100086667D01*
X150766781Y-100050424D01*
X150660809Y-100050424D01*
X150561226Y-100086667D01*
X150480047Y-100154784D01*
X150480045Y-100154787D01*
X150427061Y-100246558D01*
X150408659Y-100350924D01*
X150189886Y-100350924D01*
X150268965Y-100284569D01*
X150268967Y-100284566D01*
X150321951Y-100192795D01*
X150321951Y-100192794D01*
X150321952Y-100192793D01*
X150340354Y-100088430D01*
X150321952Y-99984067D01*
X150321951Y-99984065D01*
X150321951Y-99984064D01*
X150268967Y-99892293D01*
X150268965Y-99892290D01*
X150187786Y-99824173D01*
X150088204Y-99787930D01*
X149982232Y-99787930D01*
X149882649Y-99824173D01*
X149801470Y-99892290D01*
X149801468Y-99892293D01*
X149748484Y-99984064D01*
X149730082Y-100088429D01*
X147486390Y-100088429D01*
X147485178Y-100087988D01*
X147379206Y-100087988D01*
X147279623Y-100124231D01*
X147198444Y-100192348D01*
X147198442Y-100192351D01*
X147145458Y-100284122D01*
X147127056Y-100388487D01*
X146455881Y-100388487D01*
X146456865Y-100386783D01*
X146456865Y-100386782D01*
X146456866Y-100386781D01*
X146475268Y-100282418D01*
X146456866Y-100178055D01*
X146456865Y-100178053D01*
X146456865Y-100178052D01*
X146403881Y-100086281D01*
X146403879Y-100086278D01*
X146322700Y-100018161D01*
X146223118Y-99981918D01*
X146117146Y-99981918D01*
X146017563Y-100018161D01*
X145936384Y-100086278D01*
X145936382Y-100086281D01*
X145883398Y-100178052D01*
X145864996Y-100282418D01*
X145883398Y-100386783D01*
X145936382Y-100478554D01*
X145936384Y-100478557D01*
X146001772Y-100533423D01*
X146017564Y-100546674D01*
X146117146Y-100582918D01*
X146120850Y-100584266D01*
X146148500Y-100609602D01*
X146149797Y-100612649D01*
X146307919Y-101021834D01*
X146307021Y-101059326D01*
X146279875Y-101085202D01*
X146252654Y-101087555D01*
X146251222Y-101087270D01*
X146163236Y-101069769D01*
X146075250Y-101087270D01*
X146066067Y-101093406D01*
X146029284Y-101100721D01*
X146021503Y-101098491D01*
X145720278Y-100984486D01*
X145692955Y-100958800D01*
X145689369Y-100947172D01*
X145681866Y-100904618D01*
X145628880Y-100812843D01*
X145628879Y-100812841D01*
X145547700Y-100744724D01*
X145448118Y-100708481D01*
X145413824Y-100708481D01*
X145379176Y-100694129D01*
X145364824Y-100659481D01*
X145379176Y-100624833D01*
X145397066Y-100613436D01*
X145397561Y-100613255D01*
X145398164Y-100613036D01*
X145448460Y-100570833D01*
X145479341Y-100544921D01*
X145479342Y-100544919D01*
X145479344Y-100544918D01*
X145518459Y-100477168D01*
X145532329Y-100453145D01*
X145532329Y-100453144D01*
X145532330Y-100453143D01*
X145550732Y-100348780D01*
X145532330Y-100244417D01*
X145532329Y-100244415D01*
X145532329Y-100244414D01*
X145479345Y-100152643D01*
X145479343Y-100152640D01*
X145398164Y-100084523D01*
X145298582Y-100048280D01*
X145192610Y-100048280D01*
X145093027Y-100084523D01*
X145011848Y-100152640D01*
X145011846Y-100152643D01*
X144958862Y-100244414D01*
X144940460Y-100348780D01*
X144958862Y-100453145D01*
X145011846Y-100544916D01*
X145011847Y-100544917D01*
X145011848Y-100544918D01*
X145026734Y-100557409D01*
X145044052Y-100590672D01*
X145042924Y-100606219D01*
X145038523Y-100624833D01*
X144982425Y-100862096D01*
X144981787Y-100864321D01*
X144980471Y-100868199D01*
X144977757Y-100881846D01*
X144974562Y-100895362D01*
X144974155Y-100899369D01*
X144973808Y-100901677D01*
X144969764Y-100921989D01*
X144969758Y-100922053D01*
X144968899Y-100926371D01*
X144968867Y-100926473D01*
X144962756Y-100957247D01*
X144960693Y-100964339D01*
X144960510Y-100965089D01*
X144959789Y-100971691D01*
X144959463Y-100973809D01*
X144958160Y-100980365D01*
X144958113Y-100981068D01*
X144957950Y-100988522D01*
X144796714Y-102465002D01*
X144778686Y-102497888D01*
X144742685Y-102508393D01*
X144731246Y-102505728D01*
X144653745Y-102477521D01*
X144547773Y-102477521D01*
X144448190Y-102513764D01*
X144367011Y-102581881D01*
X144367009Y-102581884D01*
X144314025Y-102673655D01*
X144295623Y-102778021D01*
X144314025Y-102882386D01*
X144342309Y-102931375D01*
X144347204Y-102968558D01*
X144343507Y-102978171D01*
X140956038Y-109607307D01*
X140927492Y-109631630D01*
X140890109Y-109628644D01*
X140885182Y-109625753D01*
X140843151Y-109597669D01*
X140823368Y-109593734D01*
X140755165Y-109580168D01*
X140755164Y-109580168D01*
X140667178Y-109597669D01*
X140592587Y-109647508D01*
X140542748Y-109722099D01*
X140525247Y-109810085D01*
X140542748Y-109898072D01*
X140592588Y-109972664D01*
X140633625Y-110000083D01*
X140654461Y-110031265D01*
X140647145Y-110068047D01*
X140643556Y-110072773D01*
X140405779Y-110349292D01*
X140405739Y-110349330D01*
X140384595Y-110373927D01*
X140380699Y-110378458D01*
X140378358Y-110380710D01*
X140378471Y-110380820D01*
X140376238Y-110383123D01*
X140373888Y-110386285D01*
X140372806Y-110387638D01*
X140370218Y-110390648D01*
X140368462Y-110393331D01*
X140368331Y-110393245D01*
X140366653Y-110396016D01*
X140365644Y-110397375D01*
X140365607Y-110397425D01*
X140365594Y-110397443D01*
X140365407Y-110397696D01*
X140346617Y-110422975D01*
X140345333Y-110424703D01*
X140345316Y-110424721D01*
X140315183Y-110465266D01*
X140285416Y-110484095D01*
X140217180Y-110497668D01*
X140142587Y-110547508D01*
X140120907Y-110579956D01*
X140089724Y-110600792D01*
X140052942Y-110593475D01*
X140039423Y-110579956D01*
X140017742Y-110547508D01*
X139943151Y-110497669D01*
X139855165Y-110480168D01*
X139767178Y-110497669D01*
X139692587Y-110547508D01*
X139670907Y-110579956D01*
X139639724Y-110600792D01*
X139602942Y-110593475D01*
X139589423Y-110579956D01*
X139567742Y-110547508D01*
X139493151Y-110497669D01*
X139493150Y-110497668D01*
X139405165Y-110480168D01*
X139405164Y-110480168D01*
X139317178Y-110497669D01*
X139242587Y-110547508D01*
X139192748Y-110622099D01*
X139190073Y-110635551D01*
X139175247Y-110710086D01*
X139183276Y-110750451D01*
X139192748Y-110798072D01*
X139242587Y-110872663D01*
X139275035Y-110894344D01*
X139295871Y-110925527D01*
X139288554Y-110962309D01*
X139275035Y-110975828D01*
X139242587Y-110997508D01*
X139192748Y-111072099D01*
X139178700Y-111142728D01*
X139175247Y-111160086D01*
X138735083Y-111160086D01*
X138717582Y-111072100D01*
X138691826Y-111033553D01*
X138667742Y-110997508D01*
X138593151Y-110947669D01*
X138505165Y-110930168D01*
X138417178Y-110947669D01*
X138342587Y-110997508D01*
X138292748Y-111072099D01*
X138278700Y-111142728D01*
X138275247Y-111160086D01*
X136298602Y-111160086D01*
X136319289Y-111142728D01*
X136319291Y-111142725D01*
X136372275Y-111050954D01*
X136372275Y-111050953D01*
X136372276Y-111050952D01*
X136390678Y-110946589D01*
X136372276Y-110842226D01*
X136372275Y-110842224D01*
X136372275Y-110842223D01*
X136319291Y-110750452D01*
X136319289Y-110750449D01*
X136238110Y-110682332D01*
X136138528Y-110646089D01*
X136032556Y-110646089D01*
X135948354Y-110676734D01*
X135910887Y-110675098D01*
X135905725Y-110672303D01*
X133956210Y-109460306D01*
X133934362Y-109429824D01*
X133940467Y-109392821D01*
X133950583Y-109381156D01*
X133968895Y-109365791D01*
X135944433Y-109365791D01*
X135945899Y-109374106D01*
X135962835Y-109470156D01*
X136015819Y-109561927D01*
X136015821Y-109561930D01*
X136097000Y-109630047D01*
X136196583Y-109666291D01*
X136302555Y-109666291D01*
X136402137Y-109630047D01*
X136483316Y-109561930D01*
X136483318Y-109561927D01*
X136492861Y-109545399D01*
X136525206Y-109489374D01*
X136536302Y-109470156D01*
X136536302Y-109470155D01*
X136536303Y-109470154D01*
X136554705Y-109365791D01*
X136536303Y-109261428D01*
X136536301Y-109261425D01*
X136536047Y-109259981D01*
X136540118Y-109241616D01*
X137677304Y-109241616D01*
X137695706Y-109345982D01*
X137748690Y-109437753D01*
X137748692Y-109437756D01*
X137829871Y-109505873D01*
X137929454Y-109542117D01*
X138035426Y-109542117D01*
X138135008Y-109505873D01*
X138216188Y-109437755D01*
X138221263Y-109428963D01*
X138251015Y-109406132D01*
X138267886Y-109404642D01*
X138469963Y-109421999D01*
X138503255Y-109439263D01*
X138508204Y-109446319D01*
X138542630Y-109505948D01*
X138542632Y-109505951D01*
X138623811Y-109574068D01*
X138723394Y-109610312D01*
X138829366Y-109610312D01*
X138928948Y-109574068D01*
X139010127Y-109505951D01*
X139010129Y-109505948D01*
X139063113Y-109414177D01*
X139063113Y-109414176D01*
X139063114Y-109414175D01*
X139081516Y-109309812D01*
X139063114Y-109205449D01*
X139063113Y-109205447D01*
X139063113Y-109205446D01*
X139010129Y-109113675D01*
X139010127Y-109113672D01*
X138928949Y-109045556D01*
X138906117Y-109037246D01*
X138878468Y-109011909D01*
X138876832Y-108974441D01*
X138880439Y-108966705D01*
X138889391Y-108951200D01*
X139265037Y-108951200D01*
X139265903Y-108956113D01*
X139283439Y-109055565D01*
X139336423Y-109147336D01*
X139336425Y-109147339D01*
X139417604Y-109215456D01*
X139517187Y-109251700D01*
X139623159Y-109251700D01*
X139722741Y-109215456D01*
X139803920Y-109147339D01*
X139803922Y-109147336D01*
X139810550Y-109135857D01*
X139856907Y-109055563D01*
X139875309Y-108951200D01*
X139856907Y-108846837D01*
X139856905Y-108846834D01*
X139856905Y-108846832D01*
X139855440Y-108842805D01*
X139857302Y-108842127D01*
X139853320Y-108811936D01*
X139861591Y-108795025D01*
X142459660Y-105365120D01*
X142459691Y-105365089D01*
X142463703Y-105359790D01*
X142463706Y-105359789D01*
X142475316Y-105344453D01*
X142478724Y-105340795D01*
X142478664Y-105340742D01*
X142480781Y-105338326D01*
X142480786Y-105338323D01*
X142486563Y-105329676D01*
X142487396Y-105328505D01*
X142493676Y-105320216D01*
X142493677Y-105320211D01*
X142495267Y-105317420D01*
X142495335Y-105317458D01*
X142497672Y-105313049D01*
X142527206Y-105268849D01*
X142530374Y-105265023D01*
X142530299Y-105264965D01*
X142532268Y-105262439D01*
X142532276Y-105262432D01*
X142537687Y-105253230D01*
X142538402Y-105252092D01*
X142544327Y-105243227D01*
X142544329Y-105243222D01*
X142545749Y-105240344D01*
X142545834Y-105240386D01*
X142547902Y-105235864D01*
X142855248Y-104713354D01*
X142868204Y-104691328D01*
X142898141Y-104668739D01*
X142910439Y-104667171D01*
X142952053Y-104667171D01*
X143051635Y-104630927D01*
X143132814Y-104562810D01*
X143132816Y-104562807D01*
X143185800Y-104471036D01*
X143185800Y-104471035D01*
X143185801Y-104471034D01*
X143204203Y-104366671D01*
X143185801Y-104262308D01*
X143185800Y-104262306D01*
X143185800Y-104262305D01*
X143132816Y-104170534D01*
X143132814Y-104170531D01*
X143051635Y-104102414D01*
X142952053Y-104066171D01*
X142846081Y-104066171D01*
X142746498Y-104102414D01*
X142665319Y-104170531D01*
X142665317Y-104170534D01*
X142612333Y-104262305D01*
X142594464Y-104363647D01*
X142593931Y-104366671D01*
X142612333Y-104471034D01*
X142624834Y-104492687D01*
X142630373Y-104502281D01*
X142635267Y-104539463D01*
X142630172Y-104551623D01*
X142459760Y-104841336D01*
X142429823Y-104863925D01*
X142392682Y-104858728D01*
X142386028Y-104854029D01*
X142304136Y-104785313D01*
X142204554Y-104749070D01*
X142098582Y-104749070D01*
X141998999Y-104785313D01*
X141917820Y-104853430D01*
X141917818Y-104853433D01*
X141864834Y-104945204D01*
X141846432Y-105049570D01*
X141864834Y-105153935D01*
X141917818Y-105245706D01*
X141917820Y-105245709D01*
X141998999Y-105313826D01*
X142056759Y-105334848D01*
X142084410Y-105360184D01*
X142086046Y-105397651D01*
X142079060Y-105410480D01*
X139639378Y-108631287D01*
X139607017Y-108650240D01*
X139600319Y-108650700D01*
X139517187Y-108650700D01*
X139417604Y-108686943D01*
X139336425Y-108755060D01*
X139336423Y-108755063D01*
X139283439Y-108846834D01*
X139265456Y-108948821D01*
X139265037Y-108951200D01*
X138889391Y-108951200D01*
X138896827Y-108938322D01*
X138915229Y-108833959D01*
X138896827Y-108729596D01*
X138896826Y-108729594D01*
X138896826Y-108729593D01*
X138843842Y-108637822D01*
X138843840Y-108637819D01*
X138762661Y-108569702D01*
X138663079Y-108533459D01*
X138557107Y-108533459D01*
X138457524Y-108569702D01*
X138376345Y-108637819D01*
X138376343Y-108637822D01*
X138323359Y-108729593D01*
X138304957Y-108833959D01*
X138323359Y-108938324D01*
X138376343Y-109030095D01*
X138376344Y-109030097D01*
X138399477Y-109049507D01*
X138416794Y-109082773D01*
X138405518Y-109118540D01*
X138372252Y-109135857D01*
X138363788Y-109135864D01*
X138288856Y-109129428D01*
X138255563Y-109112164D01*
X138250618Y-109105115D01*
X138216188Y-109045479D01*
X138216187Y-109045478D01*
X138216187Y-109045477D01*
X138135008Y-108977360D01*
X138035426Y-108941117D01*
X137929454Y-108941117D01*
X137829871Y-108977360D01*
X137748692Y-109045477D01*
X137748690Y-109045480D01*
X137695706Y-109137251D01*
X137677304Y-109241616D01*
X136540118Y-109241616D01*
X136544164Y-109223367D01*
X136546332Y-109220501D01*
X138249563Y-107134242D01*
X138282592Y-107116479D01*
X138287520Y-107116231D01*
X138384436Y-107116231D01*
X138484018Y-107079987D01*
X138565197Y-107011870D01*
X138565199Y-107011867D01*
X138570271Y-107003083D01*
X138607499Y-106938601D01*
X138618183Y-106920096D01*
X138618183Y-106920095D01*
X138618184Y-106920094D01*
X138632707Y-106837730D01*
X139180308Y-106837730D01*
X139198710Y-106942096D01*
X139251694Y-107033867D01*
X139251696Y-107033870D01*
X139332875Y-107101987D01*
X139432458Y-107138231D01*
X139538430Y-107138231D01*
X139638012Y-107101987D01*
X139719191Y-107033870D01*
X139719193Y-107033867D01*
X139737432Y-107002277D01*
X139750584Y-106979496D01*
X139772177Y-106942096D01*
X139772177Y-106942095D01*
X139772178Y-106942094D01*
X139790580Y-106837731D01*
X139772178Y-106733368D01*
X139772177Y-106733366D01*
X139772177Y-106733365D01*
X139719193Y-106641594D01*
X139719191Y-106641591D01*
X139638012Y-106573474D01*
X139538430Y-106537231D01*
X139432458Y-106537231D01*
X139332875Y-106573474D01*
X139251696Y-106641591D01*
X139251694Y-106641594D01*
X139198710Y-106733365D01*
X139180308Y-106837730D01*
X138632707Y-106837730D01*
X138636586Y-106815731D01*
X138618184Y-106711368D01*
X138618183Y-106711366D01*
X138618183Y-106711365D01*
X138565199Y-106619594D01*
X138565197Y-106619591D01*
X138484018Y-106551474D01*
X138384436Y-106515231D01*
X138278464Y-106515231D01*
X138178881Y-106551474D01*
X138097702Y-106619591D01*
X138097700Y-106619594D01*
X138044716Y-106711365D01*
X138026314Y-106815731D01*
X138043318Y-106912167D01*
X138044971Y-106921538D01*
X138036853Y-106958152D01*
X138034672Y-106961035D01*
X136331454Y-109047279D01*
X136298425Y-109065043D01*
X136293497Y-109065291D01*
X136196583Y-109065291D01*
X136097000Y-109101534D01*
X136015821Y-109169651D01*
X136015819Y-109169654D01*
X135962835Y-109261425D01*
X135945884Y-109357563D01*
X135944433Y-109365791D01*
X133968895Y-109365791D01*
X133992440Y-109346035D01*
X134045426Y-109254260D01*
X134063828Y-109149897D01*
X134045426Y-109045534D01*
X134045425Y-109045532D01*
X134045425Y-109045531D01*
X133992441Y-108953760D01*
X133992439Y-108953757D01*
X133911260Y-108885640D01*
X133811678Y-108849397D01*
X133705706Y-108849397D01*
X133606123Y-108885640D01*
X133524944Y-108953757D01*
X133522189Y-108957042D01*
X133521082Y-108956113D01*
X133495813Y-108975493D01*
X133458632Y-108970590D01*
X133442108Y-108954940D01*
X133431263Y-108938322D01*
X132606284Y-107674233D01*
X132599367Y-107637376D01*
X132604882Y-107622959D01*
X132615104Y-107605255D01*
X132633506Y-107500892D01*
X132615104Y-107396529D01*
X132615103Y-107396527D01*
X132615103Y-107396526D01*
X132562119Y-107304755D01*
X132562117Y-107304752D01*
X132480938Y-107236635D01*
X132381356Y-107200392D01*
X132275384Y-107200392D01*
X132175801Y-107236635D01*
X132094622Y-107304752D01*
X132094620Y-107304755D01*
X132041636Y-107396526D01*
X132023234Y-107500892D01*
X131091310Y-107500892D01*
X130443615Y-106806138D01*
X131761024Y-106806138D01*
X131779426Y-106910503D01*
X131832410Y-107002274D01*
X131832412Y-107002277D01*
X131913591Y-107070394D01*
X132013174Y-107106638D01*
X132119146Y-107106638D01*
X132218728Y-107070394D01*
X132299907Y-107002277D01*
X132299909Y-107002274D01*
X132352893Y-106910503D01*
X132352893Y-106910502D01*
X132352894Y-106910501D01*
X132371296Y-106806138D01*
X132352894Y-106701775D01*
X132352893Y-106701773D01*
X132352893Y-106701772D01*
X132299909Y-106610001D01*
X132299907Y-106609998D01*
X132218728Y-106541881D01*
X132119146Y-106505638D01*
X132013174Y-106505638D01*
X131913591Y-106541881D01*
X131832412Y-106609998D01*
X131832410Y-106610001D01*
X131779426Y-106701772D01*
X131761024Y-106806138D01*
X130443615Y-106806138D01*
X129849296Y-106168638D01*
X134948524Y-106168638D01*
X134954658Y-106203425D01*
X134966926Y-106273003D01*
X135019910Y-106364774D01*
X135019912Y-106364777D01*
X135101091Y-106432894D01*
X135200674Y-106469138D01*
X135306646Y-106469138D01*
X135406228Y-106432894D01*
X135487407Y-106364777D01*
X135487409Y-106364774D01*
X135540393Y-106273003D01*
X135540393Y-106273002D01*
X135540394Y-106273001D01*
X135558796Y-106168638D01*
X135540394Y-106064275D01*
X135540393Y-106064273D01*
X135540393Y-106064272D01*
X135487409Y-105972501D01*
X135487407Y-105972498D01*
X135406228Y-105904381D01*
X135306646Y-105868138D01*
X135200674Y-105868138D01*
X135101091Y-105904381D01*
X135019912Y-105972498D01*
X135019910Y-105972501D01*
X134966926Y-106064272D01*
X134949148Y-106165097D01*
X134948524Y-106168638D01*
X129849296Y-106168638D01*
X129469140Y-105760861D01*
X129456012Y-105725732D01*
X129471569Y-105691608D01*
X129506699Y-105678479D01*
X129511378Y-105678868D01*
X129520072Y-105680012D01*
X129626508Y-105694025D01*
X129626512Y-105694025D01*
X129706274Y-105694025D01*
X129706278Y-105694025D01*
X129825243Y-105678363D01*
X129945872Y-105628397D01*
X131676188Y-105628397D01*
X131694590Y-105732763D01*
X131747574Y-105824534D01*
X131747576Y-105824537D01*
X131828755Y-105892654D01*
X131928338Y-105928898D01*
X132034310Y-105928898D01*
X132133892Y-105892654D01*
X132215071Y-105824537D01*
X132215073Y-105824534D01*
X132268057Y-105732763D01*
X132268057Y-105732762D01*
X132268058Y-105732761D01*
X132285705Y-105632680D01*
X134029232Y-105632680D01*
X134047634Y-105737045D01*
X134100618Y-105828816D01*
X134100620Y-105828819D01*
X134181799Y-105896936D01*
X134281382Y-105933180D01*
X134387354Y-105933180D01*
X134486936Y-105896936D01*
X134568115Y-105828819D01*
X134568117Y-105828816D01*
X134569102Y-105827111D01*
X134607350Y-105760862D01*
X134621101Y-105737045D01*
X134621101Y-105737044D01*
X134621102Y-105737043D01*
X134639504Y-105632680D01*
X134621102Y-105528317D01*
X134621101Y-105528315D01*
X134621101Y-105528314D01*
X134586769Y-105468849D01*
X136508676Y-105468849D01*
X136527078Y-105573214D01*
X136580062Y-105664985D01*
X136580064Y-105664988D01*
X136661243Y-105733105D01*
X136760826Y-105769349D01*
X136866798Y-105769349D01*
X136966380Y-105733105D01*
X137047559Y-105664988D01*
X137047561Y-105664985D01*
X137069950Y-105626207D01*
X137084030Y-105601818D01*
X137100545Y-105573214D01*
X137100545Y-105573213D01*
X137100546Y-105573212D01*
X137118948Y-105468849D01*
X137100546Y-105364486D01*
X137100545Y-105364484D01*
X137100545Y-105364483D01*
X137047561Y-105272712D01*
X137047559Y-105272709D01*
X136966380Y-105204592D01*
X136866798Y-105168349D01*
X136760826Y-105168349D01*
X136661243Y-105204592D01*
X136580064Y-105272709D01*
X136580062Y-105272712D01*
X136527078Y-105364483D01*
X136508676Y-105468849D01*
X134586769Y-105468849D01*
X134568117Y-105436543D01*
X134568115Y-105436540D01*
X134486936Y-105368423D01*
X134387354Y-105332180D01*
X134281382Y-105332180D01*
X134181799Y-105368423D01*
X134100620Y-105436540D01*
X134100618Y-105436543D01*
X134047634Y-105528314D01*
X134029232Y-105632680D01*
X132285705Y-105632680D01*
X132286460Y-105628398D01*
X132268058Y-105524035D01*
X132268057Y-105524033D01*
X132268057Y-105524032D01*
X132215073Y-105432261D01*
X132215071Y-105432258D01*
X132133892Y-105364141D01*
X132034310Y-105327898D01*
X131928338Y-105327898D01*
X131828755Y-105364141D01*
X131747576Y-105432258D01*
X131747574Y-105432261D01*
X131694590Y-105524032D01*
X131676188Y-105628397D01*
X129945872Y-105628397D01*
X129973268Y-105617049D01*
X130100380Y-105519512D01*
X130197917Y-105392401D01*
X130259231Y-105244375D01*
X130280144Y-105085525D01*
X130259231Y-104926675D01*
X130252113Y-104909490D01*
X132868438Y-104909490D01*
X132886840Y-105013856D01*
X132939824Y-105105627D01*
X132939826Y-105105630D01*
X133021005Y-105173747D01*
X133120588Y-105209991D01*
X133226560Y-105209991D01*
X133326142Y-105173747D01*
X133407321Y-105105630D01*
X133407323Y-105105627D01*
X133418930Y-105085524D01*
X133419591Y-105084379D01*
X134940675Y-105084379D01*
X134959077Y-105188744D01*
X135012061Y-105280515D01*
X135012063Y-105280518D01*
X135093242Y-105348635D01*
X135192825Y-105384879D01*
X135298797Y-105384879D01*
X135398379Y-105348635D01*
X135479558Y-105280518D01*
X135479560Y-105280515D01*
X135481113Y-105277826D01*
X135520277Y-105209991D01*
X135532544Y-105188744D01*
X135532544Y-105188743D01*
X135532545Y-105188742D01*
X135550947Y-105084379D01*
X135532545Y-104980016D01*
X135532544Y-104980014D01*
X135532544Y-104980013D01*
X135479560Y-104888242D01*
X135479558Y-104888239D01*
X135398379Y-104820122D01*
X135298797Y-104783879D01*
X135192825Y-104783879D01*
X135093242Y-104820122D01*
X135012063Y-104888239D01*
X135012061Y-104888242D01*
X134959077Y-104980013D01*
X134940675Y-105084379D01*
X133419591Y-105084379D01*
X133438715Y-105051255D01*
X133460307Y-105013856D01*
X133460307Y-105013855D01*
X133460308Y-105013854D01*
X133478710Y-104909491D01*
X133460308Y-104805128D01*
X133460307Y-104805126D01*
X133460307Y-104805125D01*
X133426103Y-104745882D01*
X133671846Y-104745882D01*
X133690248Y-104850247D01*
X133743232Y-104942018D01*
X133743234Y-104942021D01*
X133824413Y-105010138D01*
X133923996Y-105046382D01*
X134029968Y-105046382D01*
X134129550Y-105010138D01*
X134210729Y-104942021D01*
X134210731Y-104942018D01*
X134229511Y-104909491D01*
X134261531Y-104854029D01*
X134263715Y-104850247D01*
X134263715Y-104850246D01*
X134263716Y-104850245D01*
X134282118Y-104745882D01*
X134263716Y-104641519D01*
X134263715Y-104641517D01*
X134263715Y-104641516D01*
X134210731Y-104549745D01*
X134210729Y-104549742D01*
X134129550Y-104481625D01*
X134029968Y-104445382D01*
X133923996Y-104445382D01*
X133824413Y-104481625D01*
X133743234Y-104549742D01*
X133743232Y-104549745D01*
X133690248Y-104641516D01*
X133671846Y-104745882D01*
X133426103Y-104745882D01*
X133407323Y-104713354D01*
X133407321Y-104713351D01*
X133326142Y-104645234D01*
X133226560Y-104608991D01*
X133120588Y-104608991D01*
X133021005Y-104645234D01*
X132939826Y-104713351D01*
X132939824Y-104713354D01*
X132886840Y-104805125D01*
X132868438Y-104909490D01*
X130252113Y-104909490D01*
X130233239Y-104863925D01*
X130197919Y-104778654D01*
X130197916Y-104778649D01*
X130147812Y-104713353D01*
X130100380Y-104651538D01*
X130100377Y-104651536D01*
X129973268Y-104554001D01*
X129973263Y-104553998D01*
X129825242Y-104492686D01*
X129741226Y-104481626D01*
X129706278Y-104477025D01*
X129626508Y-104477025D01*
X129592827Y-104481459D01*
X129507543Y-104492686D01*
X129359522Y-104553998D01*
X129359517Y-104554001D01*
X129232407Y-104651536D01*
X129134869Y-104778648D01*
X129134866Y-104778653D01*
X129073554Y-104926675D01*
X129052642Y-105085525D01*
X129067697Y-105199887D01*
X129057990Y-105236112D01*
X129025511Y-105254863D01*
X128989286Y-105245156D01*
X128983279Y-105239699D01*
X127893859Y-104071125D01*
X127880731Y-104035996D01*
X127881444Y-104029213D01*
X127895729Y-103948199D01*
X127877327Y-103843836D01*
X127877326Y-103843834D01*
X127877326Y-103843833D01*
X127870557Y-103832108D01*
X127981140Y-103832108D01*
X127983208Y-103843836D01*
X127999542Y-103936473D01*
X128052526Y-104028244D01*
X128052528Y-104028247D01*
X128133707Y-104096364D01*
X128233290Y-104132608D01*
X128339262Y-104132608D01*
X128438844Y-104096364D01*
X128520023Y-104028247D01*
X128520025Y-104028244D01*
X128573009Y-103936473D01*
X128573009Y-103936472D01*
X128573010Y-103936471D01*
X128591412Y-103832108D01*
X128573010Y-103727745D01*
X128573009Y-103727743D01*
X128573009Y-103727742D01*
X128520025Y-103635971D01*
X128520023Y-103635968D01*
X128449065Y-103576427D01*
X136784836Y-103576427D01*
X136803238Y-103680793D01*
X136856222Y-103772564D01*
X136856224Y-103772567D01*
X136937403Y-103840684D01*
X137036986Y-103876928D01*
X137142958Y-103876928D01*
X137242540Y-103840684D01*
X137323719Y-103772567D01*
X137323721Y-103772564D01*
X137362123Y-103706050D01*
X137391875Y-103683220D01*
X137429058Y-103688115D01*
X137446993Y-103706050D01*
X137501062Y-103799702D01*
X137501064Y-103799705D01*
X137582243Y-103867822D01*
X137681826Y-103904066D01*
X137787798Y-103904066D01*
X137887380Y-103867822D01*
X137968559Y-103799705D01*
X137968561Y-103799702D01*
X138021545Y-103707931D01*
X138021545Y-103707930D01*
X138021546Y-103707929D01*
X138039948Y-103603566D01*
X138021546Y-103499203D01*
X138021545Y-103499201D01*
X138021545Y-103499200D01*
X137968561Y-103407429D01*
X137968559Y-103407426D01*
X137887380Y-103339309D01*
X137787798Y-103303066D01*
X137681826Y-103303066D01*
X137582243Y-103339309D01*
X137501064Y-103407426D01*
X137501062Y-103407429D01*
X137462660Y-103473943D01*
X137432907Y-103496773D01*
X137395725Y-103491878D01*
X137377790Y-103473943D01*
X137323721Y-103380291D01*
X137323719Y-103380288D01*
X137242540Y-103312171D01*
X137142958Y-103275928D01*
X137036986Y-103275928D01*
X136937403Y-103312171D01*
X136856224Y-103380288D01*
X136856222Y-103380291D01*
X136803238Y-103472062D01*
X136784836Y-103576427D01*
X128449065Y-103576427D01*
X128438844Y-103567851D01*
X128339262Y-103531608D01*
X128233290Y-103531608D01*
X128133707Y-103567851D01*
X128052528Y-103635968D01*
X128052526Y-103635971D01*
X127999542Y-103727742D01*
X127981140Y-103832107D01*
X127981140Y-103832108D01*
X127870557Y-103832108D01*
X127824342Y-103752062D01*
X127824340Y-103752059D01*
X127743161Y-103683942D01*
X127643579Y-103647699D01*
X127537607Y-103647699D01*
X127438024Y-103683942D01*
X127356845Y-103752059D01*
X127356843Y-103752062D01*
X127303859Y-103843833D01*
X127285457Y-103948199D01*
X125930500Y-103948199D01*
X125930500Y-103397477D01*
X126743872Y-103397477D01*
X126762274Y-103501842D01*
X126815258Y-103593613D01*
X126815260Y-103593616D01*
X126896439Y-103661733D01*
X126996022Y-103697977D01*
X127101994Y-103697977D01*
X127201576Y-103661733D01*
X127282755Y-103593616D01*
X127282757Y-103593613D01*
X127335741Y-103501842D01*
X127335741Y-103501841D01*
X127335742Y-103501840D01*
X127354144Y-103397477D01*
X127335742Y-103293114D01*
X127335741Y-103293112D01*
X127335741Y-103293111D01*
X127282757Y-103201340D01*
X127282755Y-103201337D01*
X127201576Y-103133220D01*
X127101994Y-103096977D01*
X126996022Y-103096977D01*
X126896439Y-103133220D01*
X126815260Y-103201337D01*
X126815258Y-103201340D01*
X126762274Y-103293111D01*
X126743872Y-103397477D01*
X125930500Y-103397477D01*
X125930500Y-102542243D01*
X128002283Y-102542243D01*
X128020685Y-102646609D01*
X128073669Y-102738380D01*
X128073671Y-102738383D01*
X128154850Y-102806500D01*
X128254433Y-102842744D01*
X128360405Y-102842744D01*
X128459987Y-102806500D01*
X128541166Y-102738383D01*
X128541168Y-102738380D01*
X128594152Y-102646609D01*
X128594152Y-102646608D01*
X128594153Y-102646607D01*
X128612555Y-102542244D01*
X128594153Y-102437881D01*
X128594152Y-102437879D01*
X128594152Y-102437878D01*
X128541168Y-102346107D01*
X128541166Y-102346104D01*
X128459987Y-102277987D01*
X128360405Y-102241744D01*
X128254433Y-102241744D01*
X128154850Y-102277987D01*
X128073671Y-102346104D01*
X128073669Y-102346107D01*
X128020685Y-102437878D01*
X128002283Y-102542243D01*
X125930500Y-102542243D01*
X125930500Y-101609453D01*
X138096771Y-101609453D01*
X138102905Y-101644240D01*
X138115173Y-101713818D01*
X138168157Y-101805589D01*
X138168159Y-101805592D01*
X138249338Y-101873709D01*
X138348921Y-101909953D01*
X138454893Y-101909953D01*
X138554475Y-101873709D01*
X138635654Y-101805592D01*
X138635656Y-101805589D01*
X138688640Y-101713818D01*
X138688640Y-101713817D01*
X138688641Y-101713816D01*
X138707043Y-101609453D01*
X138688641Y-101505090D01*
X138688640Y-101505088D01*
X138688640Y-101505087D01*
X138635656Y-101413316D01*
X138635654Y-101413313D01*
X138604913Y-101387518D01*
X141490101Y-101387518D01*
X141508503Y-101491883D01*
X141561487Y-101583654D01*
X141561489Y-101583657D01*
X141642668Y-101651774D01*
X141742251Y-101688018D01*
X141848223Y-101688018D01*
X141947805Y-101651774D01*
X142028984Y-101583657D01*
X142028986Y-101583654D01*
X142081970Y-101491883D01*
X142081970Y-101491882D01*
X142081971Y-101491881D01*
X142100373Y-101387518D01*
X142081971Y-101283155D01*
X142081970Y-101283153D01*
X142081970Y-101283152D01*
X142028986Y-101191381D01*
X142028984Y-101191378D01*
X141947805Y-101123261D01*
X141848223Y-101087018D01*
X141742251Y-101087018D01*
X141642668Y-101123261D01*
X141561489Y-101191378D01*
X141561487Y-101191381D01*
X141508503Y-101283152D01*
X141490101Y-101387518D01*
X138604913Y-101387518D01*
X138554475Y-101345196D01*
X138454893Y-101308953D01*
X138348921Y-101308953D01*
X138249338Y-101345196D01*
X138168159Y-101413313D01*
X138168157Y-101413316D01*
X138115173Y-101505087D01*
X138096771Y-101609452D01*
X138096771Y-101609453D01*
X125930500Y-101609453D01*
X125930500Y-101264852D01*
X130794459Y-101264852D01*
X130797686Y-101283152D01*
X130812861Y-101369217D01*
X130865845Y-101460988D01*
X130865847Y-101460991D01*
X130947026Y-101529108D01*
X131046609Y-101565352D01*
X131152581Y-101565352D01*
X131252163Y-101529108D01*
X131333342Y-101460991D01*
X131333344Y-101460988D01*
X131386328Y-101369217D01*
X131386328Y-101369216D01*
X131386329Y-101369215D01*
X131404731Y-101264852D01*
X131386329Y-101160489D01*
X131386328Y-101160487D01*
X131386328Y-101160486D01*
X131333344Y-101068715D01*
X131333342Y-101068712D01*
X131252163Y-101000595D01*
X131152581Y-100964352D01*
X131046609Y-100964352D01*
X130947026Y-101000595D01*
X130865847Y-101068712D01*
X130865845Y-101068715D01*
X130812861Y-101160486D01*
X130798139Y-101243979D01*
X130794459Y-101264852D01*
X125930500Y-101264852D01*
X125930500Y-100005525D01*
X128036642Y-100005525D01*
X128057554Y-100164374D01*
X128118866Y-100312395D01*
X128118869Y-100312400D01*
X128214962Y-100437631D01*
X128216406Y-100439512D01*
X128343518Y-100537049D01*
X128343520Y-100537049D01*
X128343522Y-100537051D01*
X128439553Y-100576828D01*
X128491543Y-100598363D01*
X128610508Y-100614025D01*
X128610512Y-100614025D01*
X128690274Y-100614025D01*
X128690278Y-100614025D01*
X128809243Y-100598363D01*
X128957268Y-100537049D01*
X129084380Y-100439512D01*
X129181917Y-100312401D01*
X129243231Y-100164375D01*
X129264144Y-100005525D01*
X130068642Y-100005525D01*
X130089554Y-100164374D01*
X130150866Y-100312395D01*
X130150869Y-100312400D01*
X130246962Y-100437631D01*
X130248406Y-100439512D01*
X130375518Y-100537049D01*
X130375520Y-100537049D01*
X130375522Y-100537051D01*
X130471553Y-100576828D01*
X130523543Y-100598363D01*
X130642508Y-100614025D01*
X130642512Y-100614025D01*
X130722274Y-100614025D01*
X130722278Y-100614025D01*
X130841243Y-100598363D01*
X130989268Y-100537049D01*
X131116380Y-100439512D01*
X131213917Y-100312401D01*
X131275231Y-100164375D01*
X131296144Y-100005525D01*
X131275231Y-99846675D01*
X131213917Y-99698650D01*
X131116380Y-99571538D01*
X131116377Y-99571536D01*
X130989268Y-99474001D01*
X130989263Y-99473998D01*
X130841242Y-99412686D01*
X130759468Y-99401921D01*
X130722278Y-99397025D01*
X130642508Y-99397025D01*
X130608827Y-99401459D01*
X130523543Y-99412686D01*
X130375522Y-99473998D01*
X130375517Y-99474001D01*
X130248407Y-99571536D01*
X130150869Y-99698648D01*
X130150866Y-99698653D01*
X130089554Y-99846675D01*
X130068642Y-100005525D01*
X129264144Y-100005525D01*
X129243231Y-99846675D01*
X129181917Y-99698650D01*
X129084380Y-99571538D01*
X129084377Y-99571536D01*
X128957268Y-99474001D01*
X128957263Y-99473998D01*
X128809242Y-99412686D01*
X128727468Y-99401921D01*
X128690278Y-99397025D01*
X128610508Y-99397025D01*
X128576827Y-99401459D01*
X128491543Y-99412686D01*
X128343522Y-99473998D01*
X128343517Y-99474001D01*
X128216407Y-99571536D01*
X128118869Y-99698648D01*
X128118866Y-99698653D01*
X128057554Y-99846675D01*
X128036642Y-100005525D01*
X125930500Y-100005525D01*
X125930500Y-98729500D01*
X125944852Y-98694852D01*
X125979500Y-98680500D01*
X131419760Y-98680500D01*
X131442529Y-98686112D01*
G37*
%TD.AperFunction*%
%TD*%
M02*
