%TF.GenerationSoftware,KiCad,Pcbnew,7.0.10*%
%TF.CreationDate,2024-02-12T16:24:20-08:00*%
%TF.ProjectId,beeper-design,62656570-6572-42d6-9465-7369676e2e6b,rev?*%
%TF.SameCoordinates,Original*%
%TF.FileFunction,Paste,Bot*%
%TF.FilePolarity,Positive*%
%FSLAX46Y46*%
G04 Gerber Fmt 4.6, Leading zero omitted, Abs format (unit mm)*
G04 Created by KiCad (PCBNEW 7.0.10) date 2024-02-12 16:24:20*
%MOMM*%
%LPD*%
G01*
G04 APERTURE LIST*
%ADD10R,1.600000X1.900000*%
%ADD11R,1.400000X1.900000*%
%ADD12R,0.400000X1.350000*%
%TA.AperFunction,Profile*%
%ADD13C,0.050000*%
%TD*%
G04 APERTURE END LIST*
D10*
%TO.C,J6*%
X141301369Y-99963144D03*
X132901369Y-99963144D03*
D11*
X138051369Y-99963144D03*
X136151369Y-99963144D03*
D12*
X135801369Y-102638144D03*
X136451369Y-102638144D03*
X137101369Y-102638144D03*
X137751369Y-102638144D03*
X138401369Y-102638144D03*
%TD*%
D13*
X131501369Y-98513144D02*
X134301369Y-98513144D01*
X134301369Y-98513144D02*
X134301369Y-100393144D01*
X134301369Y-100393144D02*
X135151369Y-100393144D01*
X135151369Y-100393144D02*
X135151369Y-98513144D01*
X135151369Y-98513144D02*
X139051369Y-98513144D01*
X139051369Y-98513144D02*
X139051369Y-100393144D01*
X139051369Y-100393144D02*
X139901369Y-100393144D01*
X139901369Y-100393144D02*
X139901369Y-98513144D01*
X139901369Y-98513144D02*
X142701369Y-98513144D01*
X142701369Y-98513144D02*
X142701369Y-98363144D01*
X142701369Y-98363144D02*
X131501369Y-98363144D01*
X131501369Y-98363144D02*
X131501369Y-98513144D01*
X152000000Y-117500000D02*
X125750000Y-117500000D01*
X125750000Y-117500000D02*
X125750000Y-98500000D01*
X125750000Y-98500000D02*
X153250000Y-98500000D01*
X153250000Y-98500000D02*
X153250000Y-116000000D01*
X153250000Y-116000000D02*
X153000000Y-116000000D01*
X153000000Y-116000000D02*
G75*
G03*
X152000000Y-117000000I0J-1000000D01*
G01*
X152000000Y-117000000D02*
X152000000Y-117500000D01*
M02*
