%TF.GenerationSoftware,KiCad,Pcbnew,7.0.10*%
%TF.CreationDate,2024-02-12T16:24:20-08:00*%
%TF.ProjectId,beeper-design,62656570-6572-42d6-9465-7369676e2e6b,rev?*%
%TF.SameCoordinates,Original*%
%TF.FileFunction,Soldermask,Top*%
%TF.FilePolarity,Negative*%
%FSLAX46Y46*%
G04 Gerber Fmt 4.6, Leading zero omitted, Abs format (unit mm)*
G04 Created by KiCad (PCBNEW 7.0.10) date 2024-02-12 16:24:20*
%MOMM*%
%LPD*%
G01*
G04 APERTURE LIST*
G04 Aperture macros list*
%AMRoundRect*
0 Rectangle with rounded corners*
0 $1 Rounding radius*
0 $2 $3 $4 $5 $6 $7 $8 $9 X,Y pos of 4 corners*
0 Add a 4 corners polygon primitive as box body*
4,1,4,$2,$3,$4,$5,$6,$7,$8,$9,$2,$3,0*
0 Add four circle primitives for the rounded corners*
1,1,$1+$1,$2,$3*
1,1,$1+$1,$4,$5*
1,1,$1+$1,$6,$7*
1,1,$1+$1,$8,$9*
0 Add four rect primitives between the rounded corners*
20,1,$1+$1,$2,$3,$4,$5,0*
20,1,$1+$1,$4,$5,$6,$7,0*
20,1,$1+$1,$6,$7,$8,$9,0*
20,1,$1+$1,$8,$9,$2,$3,0*%
G04 Aperture macros list end*
%ADD10RoundRect,0.050000X-0.165000X-0.079155X0.165000X-0.079155X0.165000X0.079155X-0.165000X0.079155X0*%
%ADD11RoundRect,0.050000X-0.140139X0.300000X-0.140139X-0.300000X0.140139X-0.300000X0.140139X0.300000X0*%
%ADD12RoundRect,0.050000X-0.355277X0.650000X-0.355277X-0.650000X0.355277X-0.650000X0.355277X0.650000X0*%
%ADD13RoundRect,0.051000X0.500000X0.360000X-0.500000X0.360000X-0.500000X-0.360000X0.500000X-0.360000X0*%
%ADD14RoundRect,0.051000X-0.150000X-0.260000X0.150000X-0.260000X0.150000X0.260000X-0.150000X0.260000X0*%
%ADD15RoundRect,0.050000X-0.079155X0.165000X-0.079155X-0.165000X0.079155X-0.165000X0.079155X0.165000X0*%
%ADD16RoundRect,0.050000X-0.300000X-0.140139X0.300000X-0.140139X0.300000X0.140139X-0.300000X0.140139X0*%
%ADD17RoundRect,0.050000X0.165000X0.079155X-0.165000X0.079155X-0.165000X-0.079155X0.165000X-0.079155X0*%
%ADD18RoundRect,0.051000X-0.350000X0.375000X-0.350000X-0.375000X0.350000X-0.375000X0.350000X0.375000X0*%
%ADD19C,0.260000*%
%ADD20C,0.991000*%
%ADD21RoundRect,0.050000X-0.206066X0.475000X-0.206066X-0.475000X0.206066X-0.475000X0.206066X0.475000X0*%
%ADD22RoundRect,0.050000X0.206066X-0.475000X0.206066X0.475000X-0.206066X0.475000X-0.206066X-0.475000X0*%
%ADD23RoundRect,0.050000X0.079155X-0.165000X0.079155X0.165000X-0.079155X0.165000X-0.079155X-0.165000X0*%
%ADD24RoundRect,0.051000X0.140000X0.250000X-0.140000X0.250000X-0.140000X-0.250000X0.140000X-0.250000X0*%
%ADD25RoundRect,0.051000X0.250000X0.140000X-0.250000X0.140000X-0.250000X-0.140000X0.250000X-0.140000X0*%
%ADD26RoundRect,0.050000X0.060702X0.172644X-0.172644X-0.060702X-0.060702X-0.172644X0.172644X0.060702X0*%
%ADD27RoundRect,0.051000X0.225000X-0.225000X0.225000X0.225000X-0.225000X0.225000X-0.225000X-0.225000X0*%
%ADD28C,0.250000*%
%ADD29RoundRect,0.050800X-0.500000X-0.300000X0.500000X-0.300000X0.500000X0.300000X-0.500000X0.300000X0*%
%ADD30C,0.340000*%
%ADD31RoundRect,0.050000X-0.475000X-0.206066X0.475000X-0.206066X0.475000X0.206066X-0.475000X0.206066X0*%
%ADD32RoundRect,0.050000X-0.060702X-0.172644X0.172644X0.060702X0.060702X0.172644X-0.172644X-0.060702X0*%
%ADD33R,0.400000X0.800000*%
%ADD34R,0.300000X0.800000*%
%ADD35RoundRect,0.050000X-0.033753X0.179865X-0.119163X-0.138891X0.033753X-0.179865X0.119163X0.138891X0*%
%ADD36C,0.210000*%
%ADD37C,0.212500*%
%TA.AperFunction,Profile*%
%ADD38C,0.050000*%
%TD*%
G04 APERTURE END LIST*
D10*
%TO.C,R18*%
X136458667Y-100000503D03*
X136458667Y-99528813D03*
%TD*%
%TO.C,C36*%
X135733934Y-100013321D03*
X135733934Y-99541631D03*
%TD*%
D11*
%TO.C,C24*%
X148905641Y-103556407D03*
X149725363Y-103556407D03*
%TD*%
D12*
%TO.C,C6*%
X143712818Y-113029541D03*
X145502262Y-113029541D03*
%TD*%
D13*
%TO.C,D1*%
X142897328Y-102457321D03*
X141297328Y-102457321D03*
X141297328Y-103637321D03*
X142897328Y-103637321D03*
%TD*%
D14*
%TO.C,U7*%
X138156635Y-102156286D03*
X137656635Y-102156286D03*
X137156635Y-102156286D03*
X138156635Y-102927286D03*
X137656635Y-102927286D03*
X137156635Y-102927286D03*
%TD*%
D15*
%TO.C,C39*%
X151044033Y-109809374D03*
X151515723Y-109809374D03*
%TD*%
D16*
%TO.C,C7*%
X139254147Y-107837973D03*
X139254147Y-107018251D03*
%TD*%
D10*
%TO.C,C21*%
X150444158Y-101913381D03*
X150444158Y-101441691D03*
%TD*%
D15*
%TO.C,C22*%
X151824015Y-101934348D03*
X152295705Y-101934348D03*
%TD*%
D11*
%TO.C,C25*%
X137182624Y-101370126D03*
X138002346Y-101370126D03*
%TD*%
D17*
%TO.C,R12*%
X148175605Y-108975381D03*
X148175605Y-109447071D03*
%TD*%
D11*
%TO.C,C23*%
X148448618Y-99656593D03*
X149268340Y-99656593D03*
%TD*%
D15*
%TO.C,C5*%
X143661329Y-114248787D03*
X144133019Y-114248787D03*
%TD*%
%TO.C,C31*%
X151044033Y-109154256D03*
X151515723Y-109154256D03*
%TD*%
D16*
%TO.C,C9*%
X140261103Y-107837973D03*
X140261103Y-107018251D03*
%TD*%
D15*
%TO.C,C26*%
X151044033Y-111678849D03*
X151515723Y-111678849D03*
%TD*%
D18*
%TO.C,XTAL1*%
X134084739Y-111731155D03*
X134984739Y-111731155D03*
X134985739Y-113031155D03*
X134085739Y-113031155D03*
%TD*%
D19*
%TO.C,U4*%
X149295097Y-111688575D03*
X149295097Y-111188575D03*
X149295097Y-110688575D03*
X149295097Y-110188575D03*
X149295097Y-109688575D03*
X149295097Y-109188575D03*
X149295097Y-108688575D03*
X149295097Y-108188575D03*
X149635097Y-111938575D03*
X149635097Y-111438575D03*
X149635097Y-110938575D03*
X149635097Y-110438575D03*
X149635097Y-109938575D03*
X149635097Y-109438575D03*
X149635097Y-108938575D03*
X149635097Y-108438575D03*
X149635097Y-107938575D03*
X149975097Y-111688575D03*
X149975097Y-111188575D03*
X149975097Y-110688575D03*
X149975097Y-110188575D03*
X149975097Y-109688575D03*
X149975097Y-109188575D03*
X149975097Y-108688575D03*
X149975097Y-108188575D03*
X150315097Y-111938575D03*
X150315097Y-111438575D03*
X150315097Y-110938575D03*
X150315097Y-110438575D03*
X150315097Y-109938575D03*
X150315097Y-109438575D03*
X150315097Y-108938575D03*
X150315097Y-108438575D03*
X150315097Y-107938575D03*
%TD*%
D20*
%TO.C,J1*%
X129666393Y-105085525D03*
X130682393Y-100005525D03*
X128650393Y-100005525D03*
%TD*%
D16*
%TO.C,C8*%
X141268060Y-107837973D03*
X141268060Y-107018251D03*
%TD*%
D21*
%TO.C,C2*%
X143474787Y-109154617D03*
X144812655Y-109154617D03*
%TD*%
D22*
%TO.C,C3*%
X138781735Y-116709377D03*
X137443867Y-116709377D03*
%TD*%
D17*
%TO.C,C38*%
X150181490Y-112511398D03*
X150181490Y-112983088D03*
%TD*%
D16*
%TO.C,C12*%
X142166975Y-107830255D03*
X142166975Y-107010533D03*
%TD*%
D12*
%TO.C,C4*%
X143646518Y-110559046D03*
X145435962Y-110559046D03*
%TD*%
D23*
%TO.C,C13*%
X143901032Y-117049967D03*
X143429342Y-117049967D03*
%TD*%
D17*
%TO.C,C10*%
X141613456Y-104381074D03*
X141613456Y-104852764D03*
%TD*%
D15*
%TO.C,C30*%
X151044033Y-110414103D03*
X151515723Y-110414103D03*
%TD*%
D10*
%TO.C,C15*%
X151108765Y-102999942D03*
X151108765Y-102528252D03*
%TD*%
D24*
%TO.C,U9*%
X135001203Y-106394791D03*
X134501203Y-106394391D03*
X134001203Y-106394391D03*
D25*
X133326203Y-106220391D03*
X133326203Y-105719391D03*
X133326203Y-105220391D03*
X133326203Y-104719391D03*
D24*
X134001203Y-104544891D03*
X134501203Y-104544891D03*
X135001203Y-104544891D03*
D25*
X135676203Y-104719391D03*
X135676203Y-105220391D03*
X135676203Y-105719391D03*
X135676203Y-106220391D03*
%TD*%
D26*
%TO.C,R17*%
X130513996Y-107079991D03*
X130847532Y-107413527D03*
%TD*%
D27*
%TO.C,U15*%
X138179500Y-105250000D03*
X137420500Y-105250000D03*
X138179500Y-108250000D03*
X137420500Y-108250000D03*
%TD*%
D10*
%TO.C,L1*%
X144303942Y-108317850D03*
X144303942Y-107846160D03*
%TD*%
D11*
%TO.C,L2*%
X143431728Y-111802192D03*
X144251450Y-111802192D03*
%TD*%
%TO.C,C11*%
X144809078Y-111798039D03*
X145628800Y-111798039D03*
%TD*%
D10*
%TO.C,R10*%
X134327098Y-108244985D03*
X134327098Y-107773295D03*
%TD*%
%TO.C,R4*%
X146572832Y-99941266D03*
X146572832Y-99469576D03*
%TD*%
D17*
%TO.C,R2*%
X145925098Y-99469576D03*
X145925098Y-99941266D03*
%TD*%
D28*
%TO.C,U2*%
X145804416Y-115537360D03*
X144404416Y-115537360D03*
X145454416Y-115737360D03*
X144754416Y-115737360D03*
X145104416Y-115937360D03*
X145454416Y-116137360D03*
X144754416Y-116137360D03*
X145104416Y-116337360D03*
X145454416Y-116537360D03*
X144754416Y-116537360D03*
X145804416Y-116737360D03*
X144404416Y-116737360D03*
%TD*%
D27*
%TO.C,U16*%
X148179500Y-105250000D03*
X147420500Y-105250000D03*
X148179500Y-108250000D03*
X147420500Y-108250000D03*
%TD*%
D10*
%TO.C,R6*%
X145277363Y-99941266D03*
X145277363Y-99469576D03*
%TD*%
D15*
%TO.C,C28*%
X151044033Y-108500601D03*
X151515723Y-108500601D03*
%TD*%
D17*
%TO.C,C14*%
X148207021Y-103326510D03*
X148207021Y-103798200D03*
%TD*%
D10*
%TO.C,R9*%
X135696833Y-107661488D03*
X135696833Y-107189798D03*
%TD*%
%TO.C,C50*%
X132922454Y-116687814D03*
X132922454Y-116216124D03*
%TD*%
D29*
%TO.C,U17*%
X130401127Y-117062070D03*
X127401127Y-117062070D03*
X127401127Y-115762070D03*
X130401127Y-115762070D03*
%TD*%
D10*
%TO.C,C49*%
X135053591Y-116689000D03*
X135053591Y-116217310D03*
%TD*%
D30*
%TO.C,U12*%
X130531808Y-108739668D03*
X130885362Y-108386115D03*
X131238915Y-108032561D03*
X130885362Y-109093221D03*
X131238915Y-108739668D03*
X131592468Y-108386115D03*
X131238915Y-109446775D03*
X131592468Y-109093221D03*
X131946022Y-108739668D03*
%TD*%
D15*
%TO.C,R11*%
X133847292Y-116221026D03*
X134318982Y-116221026D03*
%TD*%
%TO.C,C37*%
X151044033Y-112346569D03*
X151515723Y-112346569D03*
%TD*%
%TO.C,R15*%
X133926649Y-107220038D03*
X134398339Y-107220038D03*
%TD*%
D23*
%TO.C,C32*%
X148618688Y-110241780D03*
X148146998Y-110241780D03*
%TD*%
D15*
%TO.C,R21*%
X145393914Y-101259280D03*
X145865604Y-101259280D03*
%TD*%
%TO.C,C29*%
X151044033Y-111033303D03*
X151515723Y-111033303D03*
%TD*%
D31*
%TO.C,C1*%
X143261150Y-107407951D03*
X143261150Y-106070083D03*
%TD*%
D23*
%TO.C,R1*%
X145086898Y-114253566D03*
X144615208Y-114253566D03*
%TD*%
D10*
%TO.C,C42*%
X133318088Y-103789405D03*
X133318088Y-103317715D03*
%TD*%
D27*
%TO.C,U14*%
X128179500Y-105250000D03*
X127420500Y-105250000D03*
X128179500Y-108250000D03*
X127420500Y-108250000D03*
%TD*%
D32*
%TO.C,C48*%
X130381632Y-107879427D03*
X130048096Y-107545891D03*
%TD*%
D33*
%TO.C,U5*%
X150750000Y-116550000D03*
X146750000Y-116550000D03*
D34*
X150000000Y-114050000D03*
X149500000Y-114050000D03*
X149000000Y-114050000D03*
X148500000Y-114050000D03*
X148000000Y-114050000D03*
X147500000Y-114050000D03*
%TD*%
D35*
%TO.C,R19*%
X131742011Y-115860138D03*
X132197629Y-115982220D03*
%TD*%
D15*
%TO.C,R5*%
X145393914Y-102593098D03*
X145865604Y-102593098D03*
%TD*%
%TO.C,C43*%
X135015724Y-103681760D03*
X135487414Y-103681760D03*
%TD*%
D10*
%TO.C,C19*%
X150444158Y-102999942D03*
X150444158Y-102528252D03*
%TD*%
D17*
%TO.C,C20*%
X150444158Y-100366194D03*
X150444158Y-100837884D03*
%TD*%
D15*
%TO.C,R3*%
X145393914Y-100592371D03*
X145865604Y-100592371D03*
%TD*%
D36*
%TO.C,U1*%
X136705165Y-109810086D03*
X137155165Y-109810086D03*
X137605165Y-109810086D03*
X138055165Y-109810086D03*
X138505165Y-109810086D03*
X138955165Y-109810086D03*
X139405165Y-109810086D03*
X139855165Y-109810086D03*
X140305165Y-109810086D03*
X140755165Y-109810086D03*
X141205165Y-109810086D03*
X141655165Y-109810086D03*
X136705165Y-110260086D03*
X137155165Y-110260086D03*
X137605165Y-110260086D03*
X138055165Y-110260086D03*
X138505165Y-110260086D03*
X138955165Y-110260086D03*
X139405165Y-110260086D03*
X139855165Y-110260086D03*
X140305165Y-110260086D03*
X140755165Y-110260086D03*
X141205165Y-110260086D03*
X141655165Y-110260086D03*
X136705165Y-110710086D03*
X137155165Y-110710086D03*
X137605165Y-110710086D03*
X138055165Y-110710086D03*
X138505165Y-110710086D03*
X138955165Y-110710086D03*
X139405165Y-110710086D03*
X139855165Y-110710086D03*
X140305165Y-110710086D03*
X140755165Y-110710086D03*
X141205165Y-110710086D03*
X141655165Y-110710086D03*
X136705165Y-111160086D03*
X137155165Y-111160086D03*
X137605165Y-111160086D03*
X138055165Y-111160086D03*
X138505165Y-111160086D03*
X138955165Y-111160086D03*
X139405165Y-111160086D03*
X139855165Y-111160086D03*
X140305165Y-111160086D03*
X140755165Y-111160086D03*
X141205165Y-111160086D03*
X141655165Y-111160086D03*
X136705165Y-111610086D03*
X137155165Y-111610086D03*
X137605165Y-111610086D03*
X138055165Y-111610086D03*
X138505165Y-111610086D03*
X138955165Y-111610086D03*
X139405165Y-111610086D03*
X139855165Y-111610086D03*
X140305165Y-111610086D03*
X140755165Y-111610086D03*
X141205165Y-111610086D03*
X141655165Y-111610086D03*
X136705165Y-112060086D03*
X137605165Y-112060086D03*
X138055165Y-112060086D03*
X138505165Y-112060086D03*
X138955165Y-112060086D03*
X139405165Y-112060086D03*
X139855165Y-112060086D03*
X140305165Y-112060086D03*
X140755165Y-112060086D03*
X141205165Y-112060086D03*
X141655165Y-112060086D03*
X136705165Y-112510086D03*
X137155165Y-112510086D03*
X138055165Y-112510086D03*
X138505165Y-112510086D03*
X138955165Y-112510086D03*
X139405165Y-112510086D03*
X139855165Y-112510086D03*
X140305165Y-112510086D03*
X140755165Y-112510086D03*
X141205165Y-112510086D03*
X141655165Y-112510086D03*
X136705165Y-112960086D03*
X137155165Y-112960086D03*
X137605165Y-112960086D03*
X138055165Y-112960086D03*
X138505165Y-112960086D03*
X138955165Y-112960086D03*
X139405165Y-112960086D03*
X139855165Y-112960086D03*
X140305165Y-112960086D03*
X140755165Y-112960086D03*
X141205165Y-112960086D03*
X141655165Y-112960086D03*
X136407665Y-113617586D03*
X136857665Y-113617586D03*
X137307665Y-113617586D03*
X137757665Y-113617586D03*
X138505165Y-113410086D03*
X138955165Y-113410086D03*
X139405165Y-113410086D03*
X139855165Y-113410086D03*
X140305165Y-113410086D03*
X140755165Y-113410086D03*
X141205165Y-113410086D03*
X141655165Y-113410086D03*
X136407665Y-114067586D03*
X136857665Y-114067586D03*
X137307665Y-114067586D03*
X137757665Y-114067586D03*
X138505165Y-113860086D03*
X138955165Y-113860086D03*
X139405165Y-113860086D03*
X139855165Y-113860086D03*
X140305165Y-113860086D03*
X140755165Y-113860086D03*
X141205165Y-113860086D03*
X141655165Y-113860086D03*
X136407665Y-114517586D03*
X136857665Y-114517586D03*
X137307665Y-114517586D03*
X137757665Y-114517586D03*
X138505165Y-114310086D03*
X138955165Y-114310086D03*
X139405165Y-114310086D03*
X139855165Y-114310086D03*
X140305165Y-114310086D03*
X140755165Y-114310086D03*
X141205165Y-114310086D03*
X141655165Y-114310086D03*
X136407665Y-114967586D03*
X136857665Y-114967586D03*
X137307665Y-114967586D03*
X137757665Y-114967586D03*
X138505165Y-114760086D03*
X138955165Y-114760086D03*
X139405165Y-114760086D03*
X139855165Y-114760086D03*
X140305165Y-114760086D03*
X140755165Y-114760086D03*
X141205165Y-114760086D03*
X141655165Y-114760086D03*
%TD*%
D26*
%TO.C,C47*%
X132046090Y-109544797D03*
X132379626Y-109878333D03*
%TD*%
D17*
%TO.C,C17*%
X151773372Y-102528252D03*
X151773372Y-102999942D03*
%TD*%
D10*
%TO.C,C18*%
X151771895Y-100837884D03*
X151771895Y-100366194D03*
%TD*%
D17*
%TO.C,R7*%
X147354287Y-99464227D03*
X147354287Y-99935917D03*
%TD*%
D10*
%TO.C,R8*%
X146560594Y-103800248D03*
X146560594Y-103328558D03*
%TD*%
D32*
%TO.C,R16*%
X131912615Y-110352663D03*
X131579079Y-110019127D03*
%TD*%
D15*
%TO.C,R20*%
X145393914Y-101926189D03*
X145865604Y-101926189D03*
%TD*%
D37*
%TO.C,U3*%
X146941927Y-102208825D03*
X146941927Y-101808825D03*
X146941927Y-101408825D03*
X146941927Y-101008825D03*
X147341927Y-102208825D03*
X147341927Y-101808825D03*
X147341927Y-101408825D03*
X147341927Y-101008825D03*
X147741927Y-102208825D03*
X147741927Y-101808825D03*
X147741927Y-101408825D03*
X147741927Y-101008825D03*
X148141927Y-102208825D03*
X148141927Y-101808825D03*
X148141927Y-101408825D03*
X148141927Y-101008825D03*
X148541927Y-102208825D03*
X148541927Y-101808825D03*
X148541927Y-101408825D03*
X148541927Y-101008825D03*
X148941927Y-102208825D03*
X148941927Y-101808825D03*
X148941927Y-101408825D03*
X148941927Y-101008825D03*
X149341927Y-102208825D03*
X149341927Y-101808825D03*
X149341927Y-101408825D03*
X149341927Y-101008825D03*
%TD*%
D17*
%TO.C,R13*%
X147537573Y-108975381D03*
X147537573Y-109447071D03*
%TD*%
D10*
%TO.C,R14*%
X135016650Y-107661488D03*
X135016650Y-107189798D03*
%TD*%
D17*
%TO.C,C16*%
X151108026Y-100366194D03*
X151108026Y-100837884D03*
%TD*%
D23*
%TO.C,C27*%
X148618688Y-110879259D03*
X148146998Y-110879259D03*
%TD*%
D38*
X131501369Y-98513144D02*
X134301369Y-98513144D01*
X134301369Y-98513144D02*
X134301369Y-100393144D01*
X134301369Y-100393144D02*
X135151369Y-100393144D01*
X135151369Y-100393144D02*
X135151369Y-98513144D01*
X135151369Y-98513144D02*
X139051369Y-98513144D01*
X139051369Y-98513144D02*
X139051369Y-100393144D01*
X139051369Y-100393144D02*
X139901369Y-100393144D01*
X139901369Y-100393144D02*
X139901369Y-98513144D01*
X139901369Y-98513144D02*
X142701369Y-98513144D01*
X142701369Y-98513144D02*
X142701369Y-98363144D01*
X142701369Y-98363144D02*
X131501369Y-98363144D01*
X131501369Y-98363144D02*
X131501369Y-98513144D01*
X152000000Y-117500000D02*
X125750000Y-117500000D01*
X125750000Y-117500000D02*
X125750000Y-98500000D01*
X125750000Y-98500000D02*
X153250000Y-98500000D01*
X153250000Y-98500000D02*
X153250000Y-116000000D01*
X153250000Y-116000000D02*
X153000000Y-116000000D01*
X153000000Y-116000000D02*
G75*
G03*
X152000000Y-117000000I0J-1000000D01*
G01*
X152000000Y-117000000D02*
X152000000Y-117500000D01*
M02*
