%TF.GenerationSoftware,KiCad,Pcbnew,7.0.7*%
%TF.CreationDate,2024-01-17T15:08:19-08:00*%
%TF.ProjectId,beeper-design,62656570-6572-42d6-9465-7369676e2e6b,rev?*%
%TF.SameCoordinates,Original*%
%TF.FileFunction,Paste,Top*%
%TF.FilePolarity,Positive*%
%FSLAX46Y46*%
G04 Gerber Fmt 4.6, Leading zero omitted, Abs format (unit mm)*
G04 Created by KiCad (PCBNEW 7.0.7) date 2024-01-17 15:08:19*
%MOMM*%
%LPD*%
G01*
G04 APERTURE LIST*
%ADD10R,0.158310X0.330000*%
%ADD11C,0.250000*%
%ADD12R,0.330000X0.158310*%
%ADD13R,0.300000X0.520000*%
%ADD14C,0.240000*%
%ADD15R,0.280000X0.500000*%
%ADD16R,0.500000X0.280000*%
%ADD17R,0.710555X1.300000*%
%ADD18R,0.412132X0.950000*%
%ADD19R,0.450000X0.450000*%
%ADD20R,1.000000X0.600000*%
%ADD21R,1.000000X0.720000*%
%ADD22R,0.700000X0.750000*%
%ADD23R,0.300000X0.800000*%
%ADD24R,0.400000X0.800000*%
%ADD25R,0.950000X0.412132*%
G04 APERTURE END LIST*
D10*
%TO.C,C31*%
X152769463Y-104739451D03*
X152297773Y-104739451D03*
%TD*%
%TO.C,C26*%
X152790823Y-107296520D03*
X152319133Y-107296520D03*
%TD*%
D11*
%TO.C,U4*%
X151694476Y-104165097D03*
X151694476Y-104665097D03*
X151694476Y-105165097D03*
X151694476Y-105665097D03*
X151694476Y-106165097D03*
X151694476Y-106665097D03*
X151694476Y-107165097D03*
X151694476Y-107665097D03*
X151694476Y-108165097D03*
X151354476Y-104415097D03*
X151354476Y-104915097D03*
X151354476Y-105415097D03*
X151354476Y-105915097D03*
X151354476Y-106415097D03*
X151354476Y-106915097D03*
X151354476Y-107415097D03*
X151354476Y-107915097D03*
X151014476Y-104165097D03*
X151014476Y-104665097D03*
X151014476Y-105165097D03*
X151014476Y-105665097D03*
X151014476Y-106165097D03*
X151014476Y-106665097D03*
X151014476Y-107165097D03*
X151014476Y-107665097D03*
X151014476Y-108165097D03*
X150674476Y-104415097D03*
X150674476Y-104915097D03*
X150674476Y-105415097D03*
X150674476Y-105915097D03*
X150674476Y-106415097D03*
X150674476Y-106915097D03*
X150674476Y-107415097D03*
X150674476Y-107915097D03*
%TD*%
D10*
%TO.C,C39*%
X152777026Y-105394569D03*
X152305336Y-105394569D03*
%TD*%
%TO.C,R1*%
X143255416Y-112467171D03*
X143727106Y-112467171D03*
%TD*%
%TO.C,C30*%
X152785089Y-106045190D03*
X152313399Y-106045190D03*
%TD*%
%TO.C,R9*%
X132896618Y-107840123D03*
X133368308Y-107840123D03*
%TD*%
%TO.C,R15*%
X132908236Y-109149322D03*
X133379926Y-109149322D03*
%TD*%
D12*
%TO.C,C17*%
X146313595Y-103547872D03*
X146313595Y-103076182D03*
%TD*%
D10*
%TO.C,R14*%
X132904657Y-108495783D03*
X133376347Y-108495783D03*
%TD*%
%TO.C,C47*%
X132675248Y-107100149D03*
X133146938Y-107100149D03*
%TD*%
D13*
%TO.C,U7*%
X137156635Y-102927286D03*
X137656635Y-102927286D03*
X138156635Y-102927286D03*
X137156635Y-102156286D03*
X137656635Y-102156286D03*
X138156635Y-102156286D03*
%TD*%
D14*
%TO.C,U12*%
X133671887Y-106327878D03*
X133171887Y-106327878D03*
X132671887Y-106327878D03*
X133671887Y-105827878D03*
X133171887Y-105827878D03*
X132671887Y-105827878D03*
X133671887Y-105327878D03*
X133171887Y-105327878D03*
X132671887Y-105327878D03*
%TD*%
D10*
%TO.C,C15*%
X148009438Y-103807741D03*
X147537748Y-103807741D03*
%TD*%
%TO.C,R10*%
X132932136Y-109820273D03*
X133403826Y-109820273D03*
%TD*%
%TO.C,C38*%
X152540550Y-109392102D03*
X152068860Y-109392102D03*
%TD*%
D12*
%TO.C,C16*%
X145986114Y-99386365D03*
X145986114Y-99858055D03*
%TD*%
%TO.C,L1*%
X143144542Y-108085815D03*
X143144542Y-108557505D03*
%TD*%
D10*
%TO.C,R6*%
X143802774Y-100774174D03*
X143331084Y-100774174D03*
%TD*%
%TO.C,C12*%
X145912039Y-108605838D03*
X145440349Y-108605838D03*
%TD*%
%TO.C,C43*%
X129082764Y-108622303D03*
X129554454Y-108622303D03*
%TD*%
D15*
%TO.C,U9*%
X131955464Y-107946651D03*
X131454464Y-107946651D03*
X130955464Y-107946651D03*
X130454464Y-107946651D03*
D16*
X130279964Y-108621651D03*
X130279964Y-109121651D03*
X130279964Y-109621651D03*
D15*
X130454464Y-110296651D03*
X130955464Y-110296651D03*
X131454464Y-110296651D03*
X131955464Y-110296651D03*
D16*
X132129464Y-109621651D03*
X132129464Y-109121651D03*
X132129864Y-108621651D03*
%TD*%
D10*
%TO.C,R2*%
X144774818Y-100772979D03*
X144303128Y-100772979D03*
%TD*%
D12*
%TO.C,C14*%
X146962235Y-103549205D03*
X146962235Y-103077515D03*
%TD*%
%TO.C,C7*%
X139268449Y-107578835D03*
X139268449Y-108050525D03*
%TD*%
D10*
%TO.C,C42*%
X129052788Y-110304767D03*
X129524478Y-110304767D03*
%TD*%
%TO.C,C10*%
X141384787Y-104494776D03*
X140913097Y-104494776D03*
%TD*%
D17*
%TO.C,C4*%
X146502199Y-109902067D03*
X144712755Y-109902067D03*
%TD*%
D10*
%TO.C,R4*%
X144309848Y-100117355D03*
X144781538Y-100117355D03*
%TD*%
D18*
%TO.C,C3*%
X140169314Y-116617757D03*
X138831446Y-116617757D03*
%TD*%
D19*
%TO.C,U14*%
X127420500Y-108250000D03*
X128179500Y-108250000D03*
X127420500Y-105250000D03*
X128179500Y-105250000D03*
%TD*%
D10*
%TO.C,R5*%
X144697221Y-102107433D03*
X144225531Y-102107433D03*
%TD*%
%TO.C,C5*%
X143935145Y-113268921D03*
X143463455Y-113268921D03*
%TD*%
D12*
%TO.C,C9*%
X139800342Y-105921652D03*
X139800342Y-106393342D03*
%TD*%
D19*
%TO.C,U15*%
X137420500Y-108250000D03*
X138179500Y-108250000D03*
X137420500Y-105250000D03*
X138179500Y-105250000D03*
%TD*%
D10*
%TO.C,R3*%
X144723801Y-101440168D03*
X144252111Y-101440168D03*
%TD*%
D12*
%TO.C,C24*%
X147412919Y-99150191D03*
X147412919Y-99621881D03*
%TD*%
D20*
%TO.C,U17*%
X129831496Y-115535195D03*
X126831496Y-116835195D03*
X126831496Y-115535195D03*
X129831496Y-116835195D03*
%TD*%
D12*
%TO.C,C23*%
X148336985Y-99149412D03*
X148336985Y-99621102D03*
%TD*%
D21*
%TO.C,D1*%
X142897328Y-103637321D03*
X141297328Y-103637321D03*
X141297328Y-102457321D03*
X142897328Y-102457321D03*
%TD*%
D12*
%TO.C,C25*%
X137155799Y-101117295D03*
X137155799Y-101588985D03*
%TD*%
%TO.C,C11*%
X141016654Y-107676255D03*
X141016654Y-108147945D03*
%TD*%
D10*
%TO.C,C13*%
X143926190Y-113918956D03*
X143454500Y-113918956D03*
%TD*%
%TO.C,L2*%
X144670767Y-111162222D03*
X145142457Y-111162222D03*
%TD*%
%TO.C,R12*%
X149562746Y-105366339D03*
X150034436Y-105366339D03*
%TD*%
D22*
%TO.C,XTAL1*%
X133900526Y-113293541D03*
X134800526Y-113293541D03*
X134799526Y-111993541D03*
X133899526Y-111993541D03*
%TD*%
D12*
%TO.C,C29*%
X145396860Y-106661803D03*
X145396860Y-107133493D03*
%TD*%
D10*
%TO.C,C28*%
X149577174Y-106094842D03*
X150048864Y-106094842D03*
%TD*%
D12*
%TO.C,C49*%
X134611295Y-115866545D03*
X134611295Y-116338235D03*
%TD*%
D10*
%TO.C,R11*%
X133876687Y-115870261D03*
X133404997Y-115870261D03*
%TD*%
D12*
%TO.C,C8*%
X140218368Y-107559015D03*
X140218368Y-108030705D03*
%TD*%
%TO.C,C50*%
X132480158Y-115865359D03*
X132480158Y-116337049D03*
%TD*%
D10*
%TO.C,C27*%
X149580031Y-107558483D03*
X150051721Y-107558483D03*
%TD*%
D23*
%TO.C,U5*%
X147500000Y-114050000D03*
X148000000Y-114050000D03*
X148500000Y-114050000D03*
X149000000Y-114050000D03*
X149500000Y-114050000D03*
X150000000Y-114050000D03*
D24*
X146750000Y-116550000D03*
X150750000Y-116550000D03*
%TD*%
D17*
%TO.C,C6*%
X146495367Y-112436869D03*
X144705923Y-112436869D03*
%TD*%
D10*
%TO.C,R13*%
X149572755Y-104668146D03*
X150044445Y-104668146D03*
%TD*%
%TO.C,R19*%
X131654361Y-115870261D03*
X131182671Y-115870261D03*
%TD*%
%TO.C,R17*%
X134368671Y-105075313D03*
X134840361Y-105075313D03*
%TD*%
%TO.C,C22*%
X149643882Y-102457326D03*
X149172192Y-102457326D03*
%TD*%
%TO.C,C21*%
X149658855Y-101268288D03*
X149187165Y-101268288D03*
%TD*%
D11*
%TO.C,U2*%
X144862568Y-114868836D03*
X143462568Y-114868836D03*
X144512568Y-115068836D03*
X143812568Y-115068836D03*
X144162568Y-115268836D03*
X144512568Y-115468836D03*
X143812568Y-115468836D03*
X144162568Y-115668836D03*
X144512568Y-115868836D03*
X143812568Y-115868836D03*
X144862568Y-116068836D03*
X143462568Y-116068836D03*
%TD*%
D10*
%TO.C,R16*%
X134377741Y-106172786D03*
X134849431Y-106172786D03*
%TD*%
%TO.C,C20*%
X149533053Y-99845030D03*
X149061363Y-99845030D03*
%TD*%
D12*
%TO.C,R7*%
X145332967Y-99855796D03*
X145332967Y-99384106D03*
%TD*%
D10*
%TO.C,C19*%
X148002726Y-103159876D03*
X147531036Y-103159876D03*
%TD*%
D25*
%TO.C,C2*%
X143482328Y-110623039D03*
X143482328Y-109285171D03*
%TD*%
D12*
%TO.C,C36*%
X135733934Y-99541631D03*
X135733934Y-100013321D03*
%TD*%
D10*
%TO.C,C37*%
X152768376Y-108695047D03*
X152296686Y-108695047D03*
%TD*%
D19*
%TO.C,U16*%
X147420500Y-108250000D03*
X148179500Y-108250000D03*
X147420500Y-105250000D03*
X148179500Y-105250000D03*
%TD*%
D25*
%TO.C,C1*%
X142015967Y-106701356D03*
X142015967Y-108039224D03*
%TD*%
D12*
%TO.C,R8*%
X145381903Y-103055713D03*
X145381903Y-103527403D03*
%TD*%
D10*
%TO.C,C48*%
X133645878Y-104375575D03*
X133174188Y-104375575D03*
%TD*%
%TO.C,C32*%
X152790863Y-108002676D03*
X152319173Y-108002676D03*
%TD*%
D12*
%TO.C,R18*%
X136458667Y-99528813D03*
X136458667Y-100000503D03*
%TD*%
%TO.C,C18*%
X146637795Y-99385541D03*
X146637795Y-99857231D03*
%TD*%
M02*
