%TF.GenerationSoftware,KiCad,Pcbnew,7.0.10*%
%TF.CreationDate,2024-02-12T16:24:21-08:00*%
%TF.ProjectId,beeper-design,62656570-6572-42d6-9465-7369676e2e6b,rev?*%
%TF.SameCoordinates,Original*%
%TF.FileFunction,Soldermask,Bot*%
%TF.FilePolarity,Negative*%
%FSLAX46Y46*%
G04 Gerber Fmt 4.6, Leading zero omitted, Abs format (unit mm)*
G04 Created by KiCad (PCBNEW 7.0.10) date 2024-02-12 16:24:21*
%MOMM*%
%LPD*%
G01*
G04 APERTURE LIST*
G04 Aperture macros list*
%AMRoundRect*
0 Rectangle with rounded corners*
0 $1 Rounding radius*
0 $2 $3 $4 $5 $6 $7 $8 $9 X,Y pos of 4 corners*
0 Add a 4 corners polygon primitive as box body*
4,1,4,$2,$3,$4,$5,$6,$7,$8,$9,$2,$3,0*
0 Add four circle primitives for the rounded corners*
1,1,$1+$1,$2,$3*
1,1,$1+$1,$4,$5*
1,1,$1+$1,$6,$7*
1,1,$1+$1,$8,$9*
0 Add four rect primitives between the rounded corners*
20,1,$1+$1,$2,$3,$4,$5,0*
20,1,$1+$1,$4,$5,$6,$7,0*
20,1,$1+$1,$6,$7,$8,$9,0*
20,1,$1+$1,$8,$9,$2,$3,0*%
G04 Aperture macros list end*
%ADD10C,1.000000*%
%ADD11C,0.787000*%
%ADD12C,0.991000*%
%ADD13RoundRect,0.102000X0.800000X0.950000X-0.800000X0.950000X-0.800000X-0.950000X0.800000X-0.950000X0*%
%ADD14RoundRect,0.102000X0.700000X0.950000X-0.700000X0.950000X-0.700000X-0.950000X0.700000X-0.950000X0*%
%ADD15RoundRect,0.102000X0.200000X0.675000X-0.200000X0.675000X-0.200000X-0.675000X0.200000X-0.675000X0*%
%TA.AperFunction,Profile*%
%ADD16C,0.050000*%
%TD*%
G04 APERTURE END LIST*
D10*
%TO.C,TP2*%
X126365609Y-108749100D03*
%TD*%
%TO.C,TP1*%
X126381172Y-109922490D03*
%TD*%
D11*
%TO.C,J1*%
X129031393Y-101275525D03*
X129031393Y-102545525D03*
X129031393Y-103815525D03*
X130301393Y-101275525D03*
X130301393Y-102545525D03*
X130301393Y-103815525D03*
D12*
X129666393Y-105085525D03*
X130682393Y-100005525D03*
X128650393Y-100005525D03*
%TD*%
D10*
%TO.C,TP6*%
X137743750Y-106182238D03*
%TD*%
%TO.C,TP5*%
X136540550Y-106182238D03*
%TD*%
%TO.C,TP9*%
X136540550Y-107385438D03*
%TD*%
%TO.C,TP7*%
X137743750Y-107385438D03*
%TD*%
%TO.C,TP8*%
X138946950Y-107385438D03*
%TD*%
%TO.C,TP10*%
X138946950Y-106182238D03*
%TD*%
%TO.C,TP12*%
X144158639Y-99506956D03*
%TD*%
%TO.C,TP11*%
X143021457Y-99511848D03*
%TD*%
%TO.C,TP4*%
X152251110Y-107880430D03*
%TD*%
%TO.C,TP3*%
X152235589Y-109145315D03*
%TD*%
%TO.C,TP14*%
X150510572Y-99489893D03*
%TD*%
D13*
%TO.C,J6*%
X141301369Y-99963144D03*
X132901369Y-99963144D03*
D14*
X138051369Y-99963144D03*
X136151369Y-99963144D03*
D15*
X135801369Y-102638144D03*
X136451369Y-102638144D03*
X137101369Y-102638144D03*
X137751369Y-102638144D03*
X138401369Y-102638144D03*
%TD*%
D10*
%TO.C,TP13*%
X151811611Y-99505517D03*
%TD*%
D16*
X131501369Y-98513144D02*
X134301369Y-98513144D01*
X134301369Y-98513144D02*
X134301369Y-100393144D01*
X134301369Y-100393144D02*
X135151369Y-100393144D01*
X135151369Y-100393144D02*
X135151369Y-98513144D01*
X135151369Y-98513144D02*
X139051369Y-98513144D01*
X139051369Y-98513144D02*
X139051369Y-100393144D01*
X139051369Y-100393144D02*
X139901369Y-100393144D01*
X139901369Y-100393144D02*
X139901369Y-98513144D01*
X139901369Y-98513144D02*
X142701369Y-98513144D01*
X142701369Y-98513144D02*
X142701369Y-98363144D01*
X142701369Y-98363144D02*
X131501369Y-98363144D01*
X131501369Y-98363144D02*
X131501369Y-98513144D01*
X152000000Y-117500000D02*
X125750000Y-117500000D01*
X125750000Y-117500000D02*
X125750000Y-98500000D01*
X125750000Y-98500000D02*
X153250000Y-98500000D01*
X153250000Y-98500000D02*
X153250000Y-116000000D01*
X153250000Y-116000000D02*
X153000000Y-116000000D01*
X153000000Y-116000000D02*
G75*
G03*
X152000000Y-117000000I0J-1000000D01*
G01*
X152000000Y-117000000D02*
X152000000Y-117500000D01*
M02*
