%TF.GenerationSoftware,KiCad,Pcbnew,7.0.7*%
%TF.CreationDate,2024-01-17T15:08:19-08:00*%
%TF.ProjectId,beeper-design,62656570-6572-42d6-9465-7369676e2e6b,rev?*%
%TF.SameCoordinates,Original*%
%TF.FileFunction,AssemblyDrawing,Top*%
%FSLAX46Y46*%
G04 Gerber Fmt 4.6, Leading zero omitted, Abs format (unit mm)*
G04 Created by KiCad (PCBNEW 7.0.7) date 2024-01-17 15:08:19*
%MOMM*%
%LPD*%
G01*
G04 APERTURE LIST*
%ADD10C,0.075000*%
%ADD11C,0.100000*%
%ADD12C,0.060000*%
%ADD13C,0.150000*%
%ADD14C,0.254000*%
%ADD15C,0.300000*%
%ADD16C,0.102000*%
G04 APERTURE END LIST*
D10*
X152097903Y-105067908D02*
X152112189Y-105053622D01*
X152112189Y-105053622D02*
X152140761Y-105039336D01*
X152140761Y-105039336D02*
X152212189Y-105039336D01*
X152212189Y-105039336D02*
X152240761Y-105053622D01*
X152240761Y-105053622D02*
X152255046Y-105067908D01*
X152255046Y-105067908D02*
X152269332Y-105096479D01*
X152269332Y-105096479D02*
X152269332Y-105125051D01*
X152269332Y-105125051D02*
X152255046Y-105167908D01*
X152255046Y-105167908D02*
X152083618Y-105339336D01*
X152083618Y-105339336D02*
X152269332Y-105339336D01*
X152397903Y-105310765D02*
X152412189Y-105325051D01*
X152412189Y-105325051D02*
X152397903Y-105339336D01*
X152397903Y-105339336D02*
X152383617Y-105325051D01*
X152383617Y-105325051D02*
X152397903Y-105310765D01*
X152397903Y-105310765D02*
X152397903Y-105339336D01*
X152526474Y-105067908D02*
X152540760Y-105053622D01*
X152540760Y-105053622D02*
X152569332Y-105039336D01*
X152569332Y-105039336D02*
X152640760Y-105039336D01*
X152640760Y-105039336D02*
X152669332Y-105053622D01*
X152669332Y-105053622D02*
X152683617Y-105067908D01*
X152683617Y-105067908D02*
X152697903Y-105096479D01*
X152697903Y-105096479D02*
X152697903Y-105125051D01*
X152697903Y-105125051D02*
X152683617Y-105167908D01*
X152683617Y-105167908D02*
X152512189Y-105339336D01*
X152512189Y-105339336D02*
X152697903Y-105339336D01*
X152955046Y-105139336D02*
X152955046Y-105339336D01*
X152826474Y-105139336D02*
X152826474Y-105296479D01*
X152826474Y-105296479D02*
X152840760Y-105325051D01*
X152840760Y-105325051D02*
X152869331Y-105339336D01*
X152869331Y-105339336D02*
X152912188Y-105339336D01*
X152912188Y-105339336D02*
X152940760Y-105325051D01*
X152940760Y-105325051D02*
X152955046Y-105310765D01*
X152119263Y-107624977D02*
X152133549Y-107610691D01*
X152133549Y-107610691D02*
X152162121Y-107596405D01*
X152162121Y-107596405D02*
X152233549Y-107596405D01*
X152233549Y-107596405D02*
X152262121Y-107610691D01*
X152262121Y-107610691D02*
X152276406Y-107624977D01*
X152276406Y-107624977D02*
X152290692Y-107653548D01*
X152290692Y-107653548D02*
X152290692Y-107682120D01*
X152290692Y-107682120D02*
X152276406Y-107724977D01*
X152276406Y-107724977D02*
X152104978Y-107896405D01*
X152104978Y-107896405D02*
X152290692Y-107896405D01*
X152419263Y-107867834D02*
X152433549Y-107882120D01*
X152433549Y-107882120D02*
X152419263Y-107896405D01*
X152419263Y-107896405D02*
X152404977Y-107882120D01*
X152404977Y-107882120D02*
X152419263Y-107867834D01*
X152419263Y-107867834D02*
X152419263Y-107896405D01*
X152547834Y-107624977D02*
X152562120Y-107610691D01*
X152562120Y-107610691D02*
X152590692Y-107596405D01*
X152590692Y-107596405D02*
X152662120Y-107596405D01*
X152662120Y-107596405D02*
X152690692Y-107610691D01*
X152690692Y-107610691D02*
X152704977Y-107624977D01*
X152704977Y-107624977D02*
X152719263Y-107653548D01*
X152719263Y-107653548D02*
X152719263Y-107682120D01*
X152719263Y-107682120D02*
X152704977Y-107724977D01*
X152704977Y-107724977D02*
X152533549Y-107896405D01*
X152533549Y-107896405D02*
X152719263Y-107896405D01*
X152976406Y-107696405D02*
X152976406Y-107896405D01*
X152847834Y-107696405D02*
X152847834Y-107853548D01*
X152847834Y-107853548D02*
X152862120Y-107882120D01*
X152862120Y-107882120D02*
X152890691Y-107896405D01*
X152890691Y-107896405D02*
X152933548Y-107896405D01*
X152933548Y-107896405D02*
X152962120Y-107882120D01*
X152962120Y-107882120D02*
X152976406Y-107867834D01*
X152105466Y-105723026D02*
X152119752Y-105708740D01*
X152119752Y-105708740D02*
X152148324Y-105694454D01*
X152148324Y-105694454D02*
X152219752Y-105694454D01*
X152219752Y-105694454D02*
X152248324Y-105708740D01*
X152248324Y-105708740D02*
X152262609Y-105723026D01*
X152262609Y-105723026D02*
X152276895Y-105751597D01*
X152276895Y-105751597D02*
X152276895Y-105780169D01*
X152276895Y-105780169D02*
X152262609Y-105823026D01*
X152262609Y-105823026D02*
X152091181Y-105994454D01*
X152091181Y-105994454D02*
X152276895Y-105994454D01*
X152405466Y-105965883D02*
X152419752Y-105980169D01*
X152419752Y-105980169D02*
X152405466Y-105994454D01*
X152405466Y-105994454D02*
X152391180Y-105980169D01*
X152391180Y-105980169D02*
X152405466Y-105965883D01*
X152405466Y-105965883D02*
X152405466Y-105994454D01*
X152534037Y-105723026D02*
X152548323Y-105708740D01*
X152548323Y-105708740D02*
X152576895Y-105694454D01*
X152576895Y-105694454D02*
X152648323Y-105694454D01*
X152648323Y-105694454D02*
X152676895Y-105708740D01*
X152676895Y-105708740D02*
X152691180Y-105723026D01*
X152691180Y-105723026D02*
X152705466Y-105751597D01*
X152705466Y-105751597D02*
X152705466Y-105780169D01*
X152705466Y-105780169D02*
X152691180Y-105823026D01*
X152691180Y-105823026D02*
X152519752Y-105994454D01*
X152519752Y-105994454D02*
X152705466Y-105994454D01*
X152962609Y-105794454D02*
X152962609Y-105994454D01*
X152834037Y-105794454D02*
X152834037Y-105951597D01*
X152834037Y-105951597D02*
X152848323Y-105980169D01*
X152848323Y-105980169D02*
X152876894Y-105994454D01*
X152876894Y-105994454D02*
X152919751Y-105994454D01*
X152919751Y-105994454D02*
X152948323Y-105980169D01*
X152948323Y-105980169D02*
X152962609Y-105965883D01*
X143326975Y-111837056D02*
X143355546Y-111837056D01*
X143355546Y-111837056D02*
X143384118Y-111851342D01*
X143384118Y-111851342D02*
X143398404Y-111865628D01*
X143398404Y-111865628D02*
X143412689Y-111894199D01*
X143412689Y-111894199D02*
X143426975Y-111951342D01*
X143426975Y-111951342D02*
X143426975Y-112022771D01*
X143426975Y-112022771D02*
X143412689Y-112079913D01*
X143412689Y-112079913D02*
X143398404Y-112108485D01*
X143398404Y-112108485D02*
X143384118Y-112122771D01*
X143384118Y-112122771D02*
X143355546Y-112137056D01*
X143355546Y-112137056D02*
X143326975Y-112137056D01*
X143326975Y-112137056D02*
X143298404Y-112122771D01*
X143298404Y-112122771D02*
X143284118Y-112108485D01*
X143284118Y-112108485D02*
X143269832Y-112079913D01*
X143269832Y-112079913D02*
X143255546Y-112022771D01*
X143255546Y-112022771D02*
X143255546Y-111951342D01*
X143255546Y-111951342D02*
X143269832Y-111894199D01*
X143269832Y-111894199D02*
X143284118Y-111865628D01*
X143284118Y-111865628D02*
X143298404Y-111851342D01*
X143298404Y-111851342D02*
X143326975Y-111837056D01*
X143726975Y-112137056D02*
X143626975Y-111994199D01*
X143555546Y-112137056D02*
X143555546Y-111837056D01*
X143555546Y-111837056D02*
X143669832Y-111837056D01*
X143669832Y-111837056D02*
X143698403Y-111851342D01*
X143698403Y-111851342D02*
X143712689Y-111865628D01*
X143712689Y-111865628D02*
X143726975Y-111894199D01*
X143726975Y-111894199D02*
X143726975Y-111937056D01*
X143726975Y-111937056D02*
X143712689Y-111965628D01*
X143712689Y-111965628D02*
X143698403Y-111979913D01*
X143698403Y-111979913D02*
X143669832Y-111994199D01*
X143669832Y-111994199D02*
X143555546Y-111994199D01*
X152113529Y-106373647D02*
X152127815Y-106359361D01*
X152127815Y-106359361D02*
X152156387Y-106345075D01*
X152156387Y-106345075D02*
X152227815Y-106345075D01*
X152227815Y-106345075D02*
X152256387Y-106359361D01*
X152256387Y-106359361D02*
X152270672Y-106373647D01*
X152270672Y-106373647D02*
X152284958Y-106402218D01*
X152284958Y-106402218D02*
X152284958Y-106430790D01*
X152284958Y-106430790D02*
X152270672Y-106473647D01*
X152270672Y-106473647D02*
X152099244Y-106645075D01*
X152099244Y-106645075D02*
X152284958Y-106645075D01*
X152413529Y-106616504D02*
X152427815Y-106630790D01*
X152427815Y-106630790D02*
X152413529Y-106645075D01*
X152413529Y-106645075D02*
X152399243Y-106630790D01*
X152399243Y-106630790D02*
X152413529Y-106616504D01*
X152413529Y-106616504D02*
X152413529Y-106645075D01*
X152542100Y-106373647D02*
X152556386Y-106359361D01*
X152556386Y-106359361D02*
X152584958Y-106345075D01*
X152584958Y-106345075D02*
X152656386Y-106345075D01*
X152656386Y-106345075D02*
X152684958Y-106359361D01*
X152684958Y-106359361D02*
X152699243Y-106373647D01*
X152699243Y-106373647D02*
X152713529Y-106402218D01*
X152713529Y-106402218D02*
X152713529Y-106430790D01*
X152713529Y-106430790D02*
X152699243Y-106473647D01*
X152699243Y-106473647D02*
X152527815Y-106645075D01*
X152527815Y-106645075D02*
X152713529Y-106645075D01*
X152970672Y-106445075D02*
X152970672Y-106645075D01*
X152842100Y-106445075D02*
X152842100Y-106602218D01*
X152842100Y-106602218D02*
X152856386Y-106630790D01*
X152856386Y-106630790D02*
X152884957Y-106645075D01*
X152884957Y-106645075D02*
X152927814Y-106645075D01*
X152927814Y-106645075D02*
X152956386Y-106630790D01*
X152956386Y-106630790D02*
X152970672Y-106616504D01*
X132968177Y-107210008D02*
X132996748Y-107210008D01*
X132996748Y-107210008D02*
X133025320Y-107224294D01*
X133025320Y-107224294D02*
X133039606Y-107238580D01*
X133039606Y-107238580D02*
X133053891Y-107267151D01*
X133053891Y-107267151D02*
X133068177Y-107324294D01*
X133068177Y-107324294D02*
X133068177Y-107395723D01*
X133068177Y-107395723D02*
X133053891Y-107452865D01*
X133053891Y-107452865D02*
X133039606Y-107481437D01*
X133039606Y-107481437D02*
X133025320Y-107495723D01*
X133025320Y-107495723D02*
X132996748Y-107510008D01*
X132996748Y-107510008D02*
X132968177Y-107510008D01*
X132968177Y-107510008D02*
X132939606Y-107495723D01*
X132939606Y-107495723D02*
X132925320Y-107481437D01*
X132925320Y-107481437D02*
X132911034Y-107452865D01*
X132911034Y-107452865D02*
X132896748Y-107395723D01*
X132896748Y-107395723D02*
X132896748Y-107324294D01*
X132896748Y-107324294D02*
X132911034Y-107267151D01*
X132911034Y-107267151D02*
X132925320Y-107238580D01*
X132925320Y-107238580D02*
X132939606Y-107224294D01*
X132939606Y-107224294D02*
X132968177Y-107210008D01*
X133368177Y-107510008D02*
X133268177Y-107367151D01*
X133196748Y-107510008D02*
X133196748Y-107210008D01*
X133196748Y-107210008D02*
X133311034Y-107210008D01*
X133311034Y-107210008D02*
X133339605Y-107224294D01*
X133339605Y-107224294D02*
X133353891Y-107238580D01*
X133353891Y-107238580D02*
X133368177Y-107267151D01*
X133368177Y-107267151D02*
X133368177Y-107310008D01*
X133368177Y-107310008D02*
X133353891Y-107338580D01*
X133353891Y-107338580D02*
X133339605Y-107352865D01*
X133339605Y-107352865D02*
X133311034Y-107367151D01*
X133311034Y-107367151D02*
X133196748Y-107367151D01*
X132822652Y-108647779D02*
X132794081Y-108633493D01*
X132794081Y-108633493D02*
X132779795Y-108619207D01*
X132779795Y-108619207D02*
X132765509Y-108590636D01*
X132765509Y-108590636D02*
X132765509Y-108576350D01*
X132765509Y-108576350D02*
X132779795Y-108547779D01*
X132779795Y-108547779D02*
X132794081Y-108533493D01*
X132794081Y-108533493D02*
X132822652Y-108519207D01*
X132822652Y-108519207D02*
X132879795Y-108519207D01*
X132879795Y-108519207D02*
X132908367Y-108533493D01*
X132908367Y-108533493D02*
X132922652Y-108547779D01*
X132922652Y-108547779D02*
X132936938Y-108576350D01*
X132936938Y-108576350D02*
X132936938Y-108590636D01*
X132936938Y-108590636D02*
X132922652Y-108619207D01*
X132922652Y-108619207D02*
X132908367Y-108633493D01*
X132908367Y-108633493D02*
X132879795Y-108647779D01*
X132879795Y-108647779D02*
X132822652Y-108647779D01*
X132822652Y-108647779D02*
X132794081Y-108662064D01*
X132794081Y-108662064D02*
X132779795Y-108676350D01*
X132779795Y-108676350D02*
X132765509Y-108704922D01*
X132765509Y-108704922D02*
X132765509Y-108762064D01*
X132765509Y-108762064D02*
X132779795Y-108790636D01*
X132779795Y-108790636D02*
X132794081Y-108804922D01*
X132794081Y-108804922D02*
X132822652Y-108819207D01*
X132822652Y-108819207D02*
X132879795Y-108819207D01*
X132879795Y-108819207D02*
X132908367Y-108804922D01*
X132908367Y-108804922D02*
X132922652Y-108790636D01*
X132922652Y-108790636D02*
X132936938Y-108762064D01*
X132936938Y-108762064D02*
X132936938Y-108704922D01*
X132936938Y-108704922D02*
X132922652Y-108676350D01*
X132922652Y-108676350D02*
X132908367Y-108662064D01*
X132908367Y-108662064D02*
X132879795Y-108647779D01*
X133065509Y-108819207D02*
X133065509Y-108519207D01*
X133236938Y-108819207D02*
X133108366Y-108647779D01*
X133236938Y-108519207D02*
X133065509Y-108690636D01*
X133351223Y-108547779D02*
X133365509Y-108533493D01*
X133365509Y-108533493D02*
X133394081Y-108519207D01*
X133394081Y-108519207D02*
X133465509Y-108519207D01*
X133465509Y-108519207D02*
X133494081Y-108533493D01*
X133494081Y-108533493D02*
X133508366Y-108547779D01*
X133508366Y-108547779D02*
X133522652Y-108576350D01*
X133522652Y-108576350D02*
X133522652Y-108604922D01*
X133522652Y-108604922D02*
X133508366Y-108647779D01*
X133508366Y-108647779D02*
X133336938Y-108819207D01*
X133336938Y-108819207D02*
X133522652Y-108819207D01*
X145712052Y-103747741D02*
X145697766Y-103733455D01*
X145697766Y-103733455D02*
X145683480Y-103704884D01*
X145683480Y-103704884D02*
X145683480Y-103633455D01*
X145683480Y-103633455D02*
X145697766Y-103604884D01*
X145697766Y-103604884D02*
X145712052Y-103590598D01*
X145712052Y-103590598D02*
X145740623Y-103576312D01*
X145740623Y-103576312D02*
X145769195Y-103576312D01*
X145769195Y-103576312D02*
X145812052Y-103590598D01*
X145812052Y-103590598D02*
X145983480Y-103762026D01*
X145983480Y-103762026D02*
X145983480Y-103576312D01*
X145954909Y-103447741D02*
X145969195Y-103433455D01*
X145969195Y-103433455D02*
X145983480Y-103447741D01*
X145983480Y-103447741D02*
X145969195Y-103462027D01*
X145969195Y-103462027D02*
X145954909Y-103447741D01*
X145954909Y-103447741D02*
X145983480Y-103447741D01*
X145712052Y-103319170D02*
X145697766Y-103304884D01*
X145697766Y-103304884D02*
X145683480Y-103276313D01*
X145683480Y-103276313D02*
X145683480Y-103204884D01*
X145683480Y-103204884D02*
X145697766Y-103176313D01*
X145697766Y-103176313D02*
X145712052Y-103162027D01*
X145712052Y-103162027D02*
X145740623Y-103147741D01*
X145740623Y-103147741D02*
X145769195Y-103147741D01*
X145769195Y-103147741D02*
X145812052Y-103162027D01*
X145812052Y-103162027D02*
X145983480Y-103333455D01*
X145983480Y-103333455D02*
X145983480Y-103147741D01*
X145783480Y-102890599D02*
X145983480Y-102890599D01*
X145783480Y-103019170D02*
X145940623Y-103019170D01*
X145940623Y-103019170D02*
X145969195Y-103004884D01*
X145969195Y-103004884D02*
X145983480Y-102976313D01*
X145983480Y-102976313D02*
X145983480Y-102933456D01*
X145983480Y-102933456D02*
X145969195Y-102904884D01*
X145969195Y-102904884D02*
X145954909Y-102890599D01*
X132819073Y-107994240D02*
X132790502Y-107979954D01*
X132790502Y-107979954D02*
X132776216Y-107965668D01*
X132776216Y-107965668D02*
X132761930Y-107937097D01*
X132761930Y-107937097D02*
X132761930Y-107922811D01*
X132761930Y-107922811D02*
X132776216Y-107894240D01*
X132776216Y-107894240D02*
X132790502Y-107879954D01*
X132790502Y-107879954D02*
X132819073Y-107865668D01*
X132819073Y-107865668D02*
X132876216Y-107865668D01*
X132876216Y-107865668D02*
X132904788Y-107879954D01*
X132904788Y-107879954D02*
X132919073Y-107894240D01*
X132919073Y-107894240D02*
X132933359Y-107922811D01*
X132933359Y-107922811D02*
X132933359Y-107937097D01*
X132933359Y-107937097D02*
X132919073Y-107965668D01*
X132919073Y-107965668D02*
X132904788Y-107979954D01*
X132904788Y-107979954D02*
X132876216Y-107994240D01*
X132876216Y-107994240D02*
X132819073Y-107994240D01*
X132819073Y-107994240D02*
X132790502Y-108008525D01*
X132790502Y-108008525D02*
X132776216Y-108022811D01*
X132776216Y-108022811D02*
X132761930Y-108051383D01*
X132761930Y-108051383D02*
X132761930Y-108108525D01*
X132761930Y-108108525D02*
X132776216Y-108137097D01*
X132776216Y-108137097D02*
X132790502Y-108151383D01*
X132790502Y-108151383D02*
X132819073Y-108165668D01*
X132819073Y-108165668D02*
X132876216Y-108165668D01*
X132876216Y-108165668D02*
X132904788Y-108151383D01*
X132904788Y-108151383D02*
X132919073Y-108137097D01*
X132919073Y-108137097D02*
X132933359Y-108108525D01*
X132933359Y-108108525D02*
X132933359Y-108051383D01*
X132933359Y-108051383D02*
X132919073Y-108022811D01*
X132919073Y-108022811D02*
X132904788Y-108008525D01*
X132904788Y-108008525D02*
X132876216Y-107994240D01*
X133061930Y-108165668D02*
X133061930Y-107865668D01*
X133233359Y-108165668D02*
X133104787Y-107994240D01*
X133233359Y-107865668D02*
X133061930Y-108037097D01*
X133347644Y-107894240D02*
X133361930Y-107879954D01*
X133361930Y-107879954D02*
X133390502Y-107865668D01*
X133390502Y-107865668D02*
X133461930Y-107865668D01*
X133461930Y-107865668D02*
X133490502Y-107879954D01*
X133490502Y-107879954D02*
X133504787Y-107894240D01*
X133504787Y-107894240D02*
X133519073Y-107922811D01*
X133519073Y-107922811D02*
X133519073Y-107951383D01*
X133519073Y-107951383D02*
X133504787Y-107994240D01*
X133504787Y-107994240D02*
X133333359Y-108165668D01*
X133333359Y-108165668D02*
X133519073Y-108165668D01*
X132475378Y-106498606D02*
X132489664Y-106484320D01*
X132489664Y-106484320D02*
X132518236Y-106470034D01*
X132518236Y-106470034D02*
X132589664Y-106470034D01*
X132589664Y-106470034D02*
X132618236Y-106484320D01*
X132618236Y-106484320D02*
X132632521Y-106498606D01*
X132632521Y-106498606D02*
X132646807Y-106527177D01*
X132646807Y-106527177D02*
X132646807Y-106555749D01*
X132646807Y-106555749D02*
X132632521Y-106598606D01*
X132632521Y-106598606D02*
X132461093Y-106770034D01*
X132461093Y-106770034D02*
X132646807Y-106770034D01*
X132775378Y-106741463D02*
X132789664Y-106755749D01*
X132789664Y-106755749D02*
X132775378Y-106770034D01*
X132775378Y-106770034D02*
X132761092Y-106755749D01*
X132761092Y-106755749D02*
X132775378Y-106741463D01*
X132775378Y-106741463D02*
X132775378Y-106770034D01*
X132903949Y-106498606D02*
X132918235Y-106484320D01*
X132918235Y-106484320D02*
X132946807Y-106470034D01*
X132946807Y-106470034D02*
X133018235Y-106470034D01*
X133018235Y-106470034D02*
X133046807Y-106484320D01*
X133046807Y-106484320D02*
X133061092Y-106498606D01*
X133061092Y-106498606D02*
X133075378Y-106527177D01*
X133075378Y-106527177D02*
X133075378Y-106555749D01*
X133075378Y-106555749D02*
X133061092Y-106598606D01*
X133061092Y-106598606D02*
X132889664Y-106770034D01*
X132889664Y-106770034D02*
X133075378Y-106770034D01*
X133332521Y-106570034D02*
X133332521Y-106770034D01*
X133203949Y-106570034D02*
X133203949Y-106727177D01*
X133203949Y-106727177D02*
X133218235Y-106755749D01*
X133218235Y-106755749D02*
X133246806Y-106770034D01*
X133246806Y-106770034D02*
X133289663Y-106770034D01*
X133289663Y-106770034D02*
X133318235Y-106755749D01*
X133318235Y-106755749D02*
X133332521Y-106741463D01*
D11*
X131716253Y-107166850D02*
X131668634Y-107119231D01*
X131668634Y-107119231D02*
X131621015Y-107023993D01*
X131621015Y-107023993D02*
X131716253Y-106833517D01*
X131716253Y-106833517D02*
X131668634Y-106738279D01*
X131668634Y-106738279D02*
X131621015Y-106690660D01*
D10*
X147337878Y-104136198D02*
X147352164Y-104121912D01*
X147352164Y-104121912D02*
X147380736Y-104107626D01*
X147380736Y-104107626D02*
X147452164Y-104107626D01*
X147452164Y-104107626D02*
X147480736Y-104121912D01*
X147480736Y-104121912D02*
X147495021Y-104136198D01*
X147495021Y-104136198D02*
X147509307Y-104164769D01*
X147509307Y-104164769D02*
X147509307Y-104193341D01*
X147509307Y-104193341D02*
X147495021Y-104236198D01*
X147495021Y-104236198D02*
X147323593Y-104407626D01*
X147323593Y-104407626D02*
X147509307Y-104407626D01*
X147637878Y-104379055D02*
X147652164Y-104393341D01*
X147652164Y-104393341D02*
X147637878Y-104407626D01*
X147637878Y-104407626D02*
X147623592Y-104393341D01*
X147623592Y-104393341D02*
X147637878Y-104379055D01*
X147637878Y-104379055D02*
X147637878Y-104407626D01*
X147766449Y-104136198D02*
X147780735Y-104121912D01*
X147780735Y-104121912D02*
X147809307Y-104107626D01*
X147809307Y-104107626D02*
X147880735Y-104107626D01*
X147880735Y-104107626D02*
X147909307Y-104121912D01*
X147909307Y-104121912D02*
X147923592Y-104136198D01*
X147923592Y-104136198D02*
X147937878Y-104164769D01*
X147937878Y-104164769D02*
X147937878Y-104193341D01*
X147937878Y-104193341D02*
X147923592Y-104236198D01*
X147923592Y-104236198D02*
X147752164Y-104407626D01*
X147752164Y-104407626D02*
X147937878Y-104407626D01*
X148195021Y-104207626D02*
X148195021Y-104407626D01*
X148066449Y-104207626D02*
X148066449Y-104364769D01*
X148066449Y-104364769D02*
X148080735Y-104393341D01*
X148080735Y-104393341D02*
X148109306Y-104407626D01*
X148109306Y-104407626D02*
X148152163Y-104407626D01*
X148152163Y-104407626D02*
X148180735Y-104393341D01*
X148180735Y-104393341D02*
X148195021Y-104379055D01*
X133003695Y-109190158D02*
X133032266Y-109190158D01*
X133032266Y-109190158D02*
X133060838Y-109204444D01*
X133060838Y-109204444D02*
X133075124Y-109218730D01*
X133075124Y-109218730D02*
X133089409Y-109247301D01*
X133089409Y-109247301D02*
X133103695Y-109304444D01*
X133103695Y-109304444D02*
X133103695Y-109375873D01*
X133103695Y-109375873D02*
X133089409Y-109433015D01*
X133089409Y-109433015D02*
X133075124Y-109461587D01*
X133075124Y-109461587D02*
X133060838Y-109475873D01*
X133060838Y-109475873D02*
X133032266Y-109490158D01*
X133032266Y-109490158D02*
X133003695Y-109490158D01*
X133003695Y-109490158D02*
X132975124Y-109475873D01*
X132975124Y-109475873D02*
X132960838Y-109461587D01*
X132960838Y-109461587D02*
X132946552Y-109433015D01*
X132946552Y-109433015D02*
X132932266Y-109375873D01*
X132932266Y-109375873D02*
X132932266Y-109304444D01*
X132932266Y-109304444D02*
X132946552Y-109247301D01*
X132946552Y-109247301D02*
X132960838Y-109218730D01*
X132960838Y-109218730D02*
X132975124Y-109204444D01*
X132975124Y-109204444D02*
X133003695Y-109190158D01*
X133403695Y-109490158D02*
X133303695Y-109347301D01*
X133232266Y-109490158D02*
X133232266Y-109190158D01*
X133232266Y-109190158D02*
X133346552Y-109190158D01*
X133346552Y-109190158D02*
X133375123Y-109204444D01*
X133375123Y-109204444D02*
X133389409Y-109218730D01*
X133389409Y-109218730D02*
X133403695Y-109247301D01*
X133403695Y-109247301D02*
X133403695Y-109290158D01*
X133403695Y-109290158D02*
X133389409Y-109318730D01*
X133389409Y-109318730D02*
X133375123Y-109333015D01*
X133375123Y-109333015D02*
X133346552Y-109347301D01*
X133346552Y-109347301D02*
X133232266Y-109347301D01*
X151868990Y-109720559D02*
X151883276Y-109706273D01*
X151883276Y-109706273D02*
X151911848Y-109691987D01*
X151911848Y-109691987D02*
X151983276Y-109691987D01*
X151983276Y-109691987D02*
X152011848Y-109706273D01*
X152011848Y-109706273D02*
X152026133Y-109720559D01*
X152026133Y-109720559D02*
X152040419Y-109749130D01*
X152040419Y-109749130D02*
X152040419Y-109777702D01*
X152040419Y-109777702D02*
X152026133Y-109820559D01*
X152026133Y-109820559D02*
X151854705Y-109991987D01*
X151854705Y-109991987D02*
X152040419Y-109991987D01*
X152168990Y-109963416D02*
X152183276Y-109977702D01*
X152183276Y-109977702D02*
X152168990Y-109991987D01*
X152168990Y-109991987D02*
X152154704Y-109977702D01*
X152154704Y-109977702D02*
X152168990Y-109963416D01*
X152168990Y-109963416D02*
X152168990Y-109991987D01*
X152297561Y-109720559D02*
X152311847Y-109706273D01*
X152311847Y-109706273D02*
X152340419Y-109691987D01*
X152340419Y-109691987D02*
X152411847Y-109691987D01*
X152411847Y-109691987D02*
X152440419Y-109706273D01*
X152440419Y-109706273D02*
X152454704Y-109720559D01*
X152454704Y-109720559D02*
X152468990Y-109749130D01*
X152468990Y-109749130D02*
X152468990Y-109777702D01*
X152468990Y-109777702D02*
X152454704Y-109820559D01*
X152454704Y-109820559D02*
X152283276Y-109991987D01*
X152283276Y-109991987D02*
X152468990Y-109991987D01*
X152726133Y-109791987D02*
X152726133Y-109991987D01*
X152597561Y-109791987D02*
X152597561Y-109949130D01*
X152597561Y-109949130D02*
X152611847Y-109977702D01*
X152611847Y-109977702D02*
X152640418Y-109991987D01*
X152640418Y-109991987D02*
X152683275Y-109991987D01*
X152683275Y-109991987D02*
X152711847Y-109977702D01*
X152711847Y-109977702D02*
X152726133Y-109963416D01*
X146314571Y-100057924D02*
X146300285Y-100043638D01*
X146300285Y-100043638D02*
X146285999Y-100015067D01*
X146285999Y-100015067D02*
X146285999Y-99943638D01*
X146285999Y-99943638D02*
X146300285Y-99915067D01*
X146300285Y-99915067D02*
X146314571Y-99900781D01*
X146314571Y-99900781D02*
X146343142Y-99886495D01*
X146343142Y-99886495D02*
X146371714Y-99886495D01*
X146371714Y-99886495D02*
X146414571Y-99900781D01*
X146414571Y-99900781D02*
X146585999Y-100072209D01*
X146585999Y-100072209D02*
X146585999Y-99886495D01*
X146557428Y-99757924D02*
X146571714Y-99743638D01*
X146571714Y-99743638D02*
X146585999Y-99757924D01*
X146585999Y-99757924D02*
X146571714Y-99772210D01*
X146571714Y-99772210D02*
X146557428Y-99757924D01*
X146557428Y-99757924D02*
X146585999Y-99757924D01*
X146314571Y-99629353D02*
X146300285Y-99615067D01*
X146300285Y-99615067D02*
X146285999Y-99586496D01*
X146285999Y-99586496D02*
X146285999Y-99515067D01*
X146285999Y-99515067D02*
X146300285Y-99486496D01*
X146300285Y-99486496D02*
X146314571Y-99472210D01*
X146314571Y-99472210D02*
X146343142Y-99457924D01*
X146343142Y-99457924D02*
X146371714Y-99457924D01*
X146371714Y-99457924D02*
X146414571Y-99472210D01*
X146414571Y-99472210D02*
X146585999Y-99643638D01*
X146585999Y-99643638D02*
X146585999Y-99457924D01*
X146385999Y-99200782D02*
X146585999Y-99200782D01*
X146385999Y-99329353D02*
X146543142Y-99329353D01*
X146543142Y-99329353D02*
X146571714Y-99315067D01*
X146571714Y-99315067D02*
X146585999Y-99286496D01*
X146585999Y-99286496D02*
X146585999Y-99243639D01*
X146585999Y-99243639D02*
X146571714Y-99215067D01*
X146571714Y-99215067D02*
X146557428Y-99200782D01*
X143544427Y-108685945D02*
X143744427Y-108685945D01*
X143430142Y-108757373D02*
X143644427Y-108828802D01*
X143644427Y-108828802D02*
X143644427Y-108643087D01*
X143444427Y-108557373D02*
X143444427Y-108357373D01*
X143444427Y-108357373D02*
X143744427Y-108485945D01*
X143444427Y-108185945D02*
X143444427Y-108157374D01*
X143444427Y-108157374D02*
X143458713Y-108128802D01*
X143458713Y-108128802D02*
X143472999Y-108114517D01*
X143472999Y-108114517D02*
X143501570Y-108100231D01*
X143501570Y-108100231D02*
X143558713Y-108085945D01*
X143558713Y-108085945D02*
X143630142Y-108085945D01*
X143630142Y-108085945D02*
X143687284Y-108100231D01*
X143687284Y-108100231D02*
X143715856Y-108114517D01*
X143715856Y-108114517D02*
X143730142Y-108128802D01*
X143730142Y-108128802D02*
X143744427Y-108157374D01*
X143744427Y-108157374D02*
X143744427Y-108185945D01*
X143744427Y-108185945D02*
X143730142Y-108214517D01*
X143730142Y-108214517D02*
X143715856Y-108228802D01*
X143715856Y-108228802D02*
X143687284Y-108243088D01*
X143687284Y-108243088D02*
X143630142Y-108257374D01*
X143630142Y-108257374D02*
X143558713Y-108257374D01*
X143558713Y-108257374D02*
X143501570Y-108243088D01*
X143501570Y-108243088D02*
X143472999Y-108228802D01*
X143472999Y-108228802D02*
X143458713Y-108214517D01*
X143458713Y-108214517D02*
X143444427Y-108185945D01*
X143544427Y-107957374D02*
X143744427Y-107957374D01*
X143572999Y-107957374D02*
X143558713Y-107943088D01*
X143558713Y-107943088D02*
X143544427Y-107914517D01*
X143544427Y-107914517D02*
X143544427Y-107871660D01*
X143544427Y-107871660D02*
X143558713Y-107843088D01*
X143558713Y-107843088D02*
X143587284Y-107828803D01*
X143587284Y-107828803D02*
X143744427Y-107828803D01*
X143216929Y-101374059D02*
X143045500Y-101374059D01*
X143131215Y-101374059D02*
X143131215Y-101074059D01*
X143131215Y-101074059D02*
X143102643Y-101116916D01*
X143102643Y-101116916D02*
X143074072Y-101145488D01*
X143074072Y-101145488D02*
X143045500Y-101159774D01*
X143359786Y-101374059D02*
X143416929Y-101374059D01*
X143416929Y-101374059D02*
X143445500Y-101359774D01*
X143445500Y-101359774D02*
X143459786Y-101345488D01*
X143459786Y-101345488D02*
X143488357Y-101302631D01*
X143488357Y-101302631D02*
X143502643Y-101245488D01*
X143502643Y-101245488D02*
X143502643Y-101131202D01*
X143502643Y-101131202D02*
X143488357Y-101102631D01*
X143488357Y-101102631D02*
X143474072Y-101088345D01*
X143474072Y-101088345D02*
X143445500Y-101074059D01*
X143445500Y-101074059D02*
X143388357Y-101074059D01*
X143388357Y-101074059D02*
X143359786Y-101088345D01*
X143359786Y-101088345D02*
X143345500Y-101102631D01*
X143345500Y-101102631D02*
X143331214Y-101131202D01*
X143331214Y-101131202D02*
X143331214Y-101202631D01*
X143331214Y-101202631D02*
X143345500Y-101231202D01*
X143345500Y-101231202D02*
X143359786Y-101245488D01*
X143359786Y-101245488D02*
X143388357Y-101259774D01*
X143388357Y-101259774D02*
X143445500Y-101259774D01*
X143445500Y-101259774D02*
X143474072Y-101245488D01*
X143474072Y-101245488D02*
X143488357Y-101231202D01*
X143488357Y-101231202D02*
X143502643Y-101202631D01*
X143759786Y-101074059D02*
X143702643Y-101074059D01*
X143702643Y-101074059D02*
X143674071Y-101088345D01*
X143674071Y-101088345D02*
X143659786Y-101102631D01*
X143659786Y-101102631D02*
X143631214Y-101145488D01*
X143631214Y-101145488D02*
X143616928Y-101202631D01*
X143616928Y-101202631D02*
X143616928Y-101316916D01*
X143616928Y-101316916D02*
X143631214Y-101345488D01*
X143631214Y-101345488D02*
X143645500Y-101359774D01*
X143645500Y-101359774D02*
X143674071Y-101374059D01*
X143674071Y-101374059D02*
X143731214Y-101374059D01*
X143731214Y-101374059D02*
X143759786Y-101359774D01*
X143759786Y-101359774D02*
X143774071Y-101345488D01*
X143774071Y-101345488D02*
X143788357Y-101316916D01*
X143788357Y-101316916D02*
X143788357Y-101245488D01*
X143788357Y-101245488D02*
X143774071Y-101216916D01*
X143774071Y-101216916D02*
X143759786Y-101202631D01*
X143759786Y-101202631D02*
X143731214Y-101188345D01*
X143731214Y-101188345D02*
X143674071Y-101188345D01*
X143674071Y-101188345D02*
X143645500Y-101202631D01*
X143645500Y-101202631D02*
X143631214Y-101216916D01*
X143631214Y-101216916D02*
X143616928Y-101245488D01*
X144088357Y-101374059D02*
X143988357Y-101231202D01*
X143916928Y-101374059D02*
X143916928Y-101074059D01*
X143916928Y-101074059D02*
X144031214Y-101074059D01*
X144031214Y-101074059D02*
X144059785Y-101088345D01*
X144059785Y-101088345D02*
X144074071Y-101102631D01*
X144074071Y-101102631D02*
X144088357Y-101131202D01*
X144088357Y-101131202D02*
X144088357Y-101174059D01*
X144088357Y-101174059D02*
X144074071Y-101202631D01*
X144074071Y-101202631D02*
X144059785Y-101216916D01*
X144059785Y-101216916D02*
X144031214Y-101231202D01*
X144031214Y-101231202D02*
X143916928Y-101231202D01*
X145240479Y-108934295D02*
X145254765Y-108920009D01*
X145254765Y-108920009D02*
X145283337Y-108905723D01*
X145283337Y-108905723D02*
X145354765Y-108905723D01*
X145354765Y-108905723D02*
X145383337Y-108920009D01*
X145383337Y-108920009D02*
X145397622Y-108934295D01*
X145397622Y-108934295D02*
X145411908Y-108962866D01*
X145411908Y-108962866D02*
X145411908Y-108991438D01*
X145411908Y-108991438D02*
X145397622Y-109034295D01*
X145397622Y-109034295D02*
X145226194Y-109205723D01*
X145226194Y-109205723D02*
X145411908Y-109205723D01*
X145540479Y-109177152D02*
X145554765Y-109191438D01*
X145554765Y-109191438D02*
X145540479Y-109205723D01*
X145540479Y-109205723D02*
X145526193Y-109191438D01*
X145526193Y-109191438D02*
X145540479Y-109177152D01*
X145540479Y-109177152D02*
X145540479Y-109205723D01*
X145669050Y-108934295D02*
X145683336Y-108920009D01*
X145683336Y-108920009D02*
X145711908Y-108905723D01*
X145711908Y-108905723D02*
X145783336Y-108905723D01*
X145783336Y-108905723D02*
X145811908Y-108920009D01*
X145811908Y-108920009D02*
X145826193Y-108934295D01*
X145826193Y-108934295D02*
X145840479Y-108962866D01*
X145840479Y-108962866D02*
X145840479Y-108991438D01*
X145840479Y-108991438D02*
X145826193Y-109034295D01*
X145826193Y-109034295D02*
X145654765Y-109205723D01*
X145654765Y-109205723D02*
X145840479Y-109205723D01*
X146097622Y-109005723D02*
X146097622Y-109205723D01*
X145969050Y-109005723D02*
X145969050Y-109162866D01*
X145969050Y-109162866D02*
X145983336Y-109191438D01*
X145983336Y-109191438D02*
X146011907Y-109205723D01*
X146011907Y-109205723D02*
X146054764Y-109205723D01*
X146054764Y-109205723D02*
X146083336Y-109191438D01*
X146083336Y-109191438D02*
X146097622Y-109177152D01*
X128882894Y-108020760D02*
X128897180Y-108006474D01*
X128897180Y-108006474D02*
X128925752Y-107992188D01*
X128925752Y-107992188D02*
X128997180Y-107992188D01*
X128997180Y-107992188D02*
X129025752Y-108006474D01*
X129025752Y-108006474D02*
X129040037Y-108020760D01*
X129040037Y-108020760D02*
X129054323Y-108049331D01*
X129054323Y-108049331D02*
X129054323Y-108077903D01*
X129054323Y-108077903D02*
X129040037Y-108120760D01*
X129040037Y-108120760D02*
X128868609Y-108292188D01*
X128868609Y-108292188D02*
X129054323Y-108292188D01*
X129182894Y-108263617D02*
X129197180Y-108277903D01*
X129197180Y-108277903D02*
X129182894Y-108292188D01*
X129182894Y-108292188D02*
X129168608Y-108277903D01*
X129168608Y-108277903D02*
X129182894Y-108263617D01*
X129182894Y-108263617D02*
X129182894Y-108292188D01*
X129311465Y-108020760D02*
X129325751Y-108006474D01*
X129325751Y-108006474D02*
X129354323Y-107992188D01*
X129354323Y-107992188D02*
X129425751Y-107992188D01*
X129425751Y-107992188D02*
X129454323Y-108006474D01*
X129454323Y-108006474D02*
X129468608Y-108020760D01*
X129468608Y-108020760D02*
X129482894Y-108049331D01*
X129482894Y-108049331D02*
X129482894Y-108077903D01*
X129482894Y-108077903D02*
X129468608Y-108120760D01*
X129468608Y-108120760D02*
X129297180Y-108292188D01*
X129297180Y-108292188D02*
X129482894Y-108292188D01*
X129740037Y-108092188D02*
X129740037Y-108292188D01*
X129611465Y-108092188D02*
X129611465Y-108249331D01*
X129611465Y-108249331D02*
X129625751Y-108277903D01*
X129625751Y-108277903D02*
X129654322Y-108292188D01*
X129654322Y-108292188D02*
X129697179Y-108292188D01*
X129697179Y-108292188D02*
X129725751Y-108277903D01*
X129725751Y-108277903D02*
X129740037Y-108263617D01*
D11*
X133313530Y-108306487D02*
X133265911Y-108258868D01*
X133265911Y-108258868D02*
X133218292Y-108163630D01*
X133218292Y-108163630D02*
X133313530Y-107973154D01*
X133313530Y-107973154D02*
X133265911Y-107877916D01*
X133265911Y-107877916D02*
X133218292Y-107830297D01*
D10*
X144074687Y-101201436D02*
X144046116Y-101187150D01*
X144046116Y-101187150D02*
X144031830Y-101172864D01*
X144031830Y-101172864D02*
X144017544Y-101144293D01*
X144017544Y-101144293D02*
X144017544Y-101130007D01*
X144017544Y-101130007D02*
X144031830Y-101101436D01*
X144031830Y-101101436D02*
X144046116Y-101087150D01*
X144046116Y-101087150D02*
X144074687Y-101072864D01*
X144074687Y-101072864D02*
X144131830Y-101072864D01*
X144131830Y-101072864D02*
X144160402Y-101087150D01*
X144160402Y-101087150D02*
X144174687Y-101101436D01*
X144174687Y-101101436D02*
X144188973Y-101130007D01*
X144188973Y-101130007D02*
X144188973Y-101144293D01*
X144188973Y-101144293D02*
X144174687Y-101172864D01*
X144174687Y-101172864D02*
X144160402Y-101187150D01*
X144160402Y-101187150D02*
X144131830Y-101201436D01*
X144131830Y-101201436D02*
X144074687Y-101201436D01*
X144074687Y-101201436D02*
X144046116Y-101215721D01*
X144046116Y-101215721D02*
X144031830Y-101230007D01*
X144031830Y-101230007D02*
X144017544Y-101258579D01*
X144017544Y-101258579D02*
X144017544Y-101315721D01*
X144017544Y-101315721D02*
X144031830Y-101344293D01*
X144031830Y-101344293D02*
X144046116Y-101358579D01*
X144046116Y-101358579D02*
X144074687Y-101372864D01*
X144074687Y-101372864D02*
X144131830Y-101372864D01*
X144131830Y-101372864D02*
X144160402Y-101358579D01*
X144160402Y-101358579D02*
X144174687Y-101344293D01*
X144174687Y-101344293D02*
X144188973Y-101315721D01*
X144188973Y-101315721D02*
X144188973Y-101258579D01*
X144188973Y-101258579D02*
X144174687Y-101230007D01*
X144174687Y-101230007D02*
X144160402Y-101215721D01*
X144160402Y-101215721D02*
X144131830Y-101201436D01*
X144446116Y-101172864D02*
X144446116Y-101372864D01*
X144374687Y-101058579D02*
X144303258Y-101272864D01*
X144303258Y-101272864D02*
X144488973Y-101272864D01*
X144746115Y-101072864D02*
X144603258Y-101072864D01*
X144603258Y-101072864D02*
X144588972Y-101215721D01*
X144588972Y-101215721D02*
X144603258Y-101201436D01*
X144603258Y-101201436D02*
X144631830Y-101187150D01*
X144631830Y-101187150D02*
X144703258Y-101187150D01*
X144703258Y-101187150D02*
X144731830Y-101201436D01*
X144731830Y-101201436D02*
X144746115Y-101215721D01*
X144746115Y-101215721D02*
X144760401Y-101244293D01*
X144760401Y-101244293D02*
X144760401Y-101315721D01*
X144760401Y-101315721D02*
X144746115Y-101344293D01*
X144746115Y-101344293D02*
X144731830Y-101358579D01*
X144731830Y-101358579D02*
X144703258Y-101372864D01*
X144703258Y-101372864D02*
X144631830Y-101372864D01*
X144631830Y-101372864D02*
X144603258Y-101358579D01*
X144603258Y-101358579D02*
X144588972Y-101344293D01*
X145060401Y-101372864D02*
X144960401Y-101230007D01*
X144888972Y-101372864D02*
X144888972Y-101072864D01*
X144888972Y-101072864D02*
X145003258Y-101072864D01*
X145003258Y-101072864D02*
X145031829Y-101087150D01*
X145031829Y-101087150D02*
X145046115Y-101101436D01*
X145046115Y-101101436D02*
X145060401Y-101130007D01*
X145060401Y-101130007D02*
X145060401Y-101172864D01*
X145060401Y-101172864D02*
X145046115Y-101201436D01*
X145046115Y-101201436D02*
X145031829Y-101215721D01*
X145031829Y-101215721D02*
X145003258Y-101230007D01*
X145003258Y-101230007D02*
X144888972Y-101230007D01*
X146360692Y-103749074D02*
X146346406Y-103734788D01*
X146346406Y-103734788D02*
X146332120Y-103706217D01*
X146332120Y-103706217D02*
X146332120Y-103634788D01*
X146332120Y-103634788D02*
X146346406Y-103606217D01*
X146346406Y-103606217D02*
X146360692Y-103591931D01*
X146360692Y-103591931D02*
X146389263Y-103577645D01*
X146389263Y-103577645D02*
X146417835Y-103577645D01*
X146417835Y-103577645D02*
X146460692Y-103591931D01*
X146460692Y-103591931D02*
X146632120Y-103763359D01*
X146632120Y-103763359D02*
X146632120Y-103577645D01*
X146603549Y-103449074D02*
X146617835Y-103434788D01*
X146617835Y-103434788D02*
X146632120Y-103449074D01*
X146632120Y-103449074D02*
X146617835Y-103463360D01*
X146617835Y-103463360D02*
X146603549Y-103449074D01*
X146603549Y-103449074D02*
X146632120Y-103449074D01*
X146360692Y-103320503D02*
X146346406Y-103306217D01*
X146346406Y-103306217D02*
X146332120Y-103277646D01*
X146332120Y-103277646D02*
X146332120Y-103206217D01*
X146332120Y-103206217D02*
X146346406Y-103177646D01*
X146346406Y-103177646D02*
X146360692Y-103163360D01*
X146360692Y-103163360D02*
X146389263Y-103149074D01*
X146389263Y-103149074D02*
X146417835Y-103149074D01*
X146417835Y-103149074D02*
X146460692Y-103163360D01*
X146460692Y-103163360D02*
X146632120Y-103334788D01*
X146632120Y-103334788D02*
X146632120Y-103149074D01*
X146432120Y-102891932D02*
X146632120Y-102891932D01*
X146432120Y-103020503D02*
X146589263Y-103020503D01*
X146589263Y-103020503D02*
X146617835Y-103006217D01*
X146617835Y-103006217D02*
X146632120Y-102977646D01*
X146632120Y-102977646D02*
X146632120Y-102934789D01*
X146632120Y-102934789D02*
X146617835Y-102906217D01*
X146617835Y-102906217D02*
X146603549Y-102891932D01*
X139596906Y-108250394D02*
X139582620Y-108236108D01*
X139582620Y-108236108D02*
X139568334Y-108207537D01*
X139568334Y-108207537D02*
X139568334Y-108136108D01*
X139568334Y-108136108D02*
X139582620Y-108107537D01*
X139582620Y-108107537D02*
X139596906Y-108093251D01*
X139596906Y-108093251D02*
X139625477Y-108078965D01*
X139625477Y-108078965D02*
X139654049Y-108078965D01*
X139654049Y-108078965D02*
X139696906Y-108093251D01*
X139696906Y-108093251D02*
X139868334Y-108264679D01*
X139868334Y-108264679D02*
X139868334Y-108078965D01*
X139839763Y-107950394D02*
X139854049Y-107936108D01*
X139854049Y-107936108D02*
X139868334Y-107950394D01*
X139868334Y-107950394D02*
X139854049Y-107964680D01*
X139854049Y-107964680D02*
X139839763Y-107950394D01*
X139839763Y-107950394D02*
X139868334Y-107950394D01*
X139596906Y-107821823D02*
X139582620Y-107807537D01*
X139582620Y-107807537D02*
X139568334Y-107778966D01*
X139568334Y-107778966D02*
X139568334Y-107707537D01*
X139568334Y-107707537D02*
X139582620Y-107678966D01*
X139582620Y-107678966D02*
X139596906Y-107664680D01*
X139596906Y-107664680D02*
X139625477Y-107650394D01*
X139625477Y-107650394D02*
X139654049Y-107650394D01*
X139654049Y-107650394D02*
X139696906Y-107664680D01*
X139696906Y-107664680D02*
X139868334Y-107836108D01*
X139868334Y-107836108D02*
X139868334Y-107650394D01*
X139668334Y-107393252D02*
X139868334Y-107393252D01*
X139668334Y-107521823D02*
X139825477Y-107521823D01*
X139825477Y-107521823D02*
X139854049Y-107507537D01*
X139854049Y-107507537D02*
X139868334Y-107478966D01*
X139868334Y-107478966D02*
X139868334Y-107436109D01*
X139868334Y-107436109D02*
X139854049Y-107407537D01*
X139854049Y-107407537D02*
X139839763Y-107393252D01*
X128852918Y-109703224D02*
X128867204Y-109688938D01*
X128867204Y-109688938D02*
X128895776Y-109674652D01*
X128895776Y-109674652D02*
X128967204Y-109674652D01*
X128967204Y-109674652D02*
X128995776Y-109688938D01*
X128995776Y-109688938D02*
X129010061Y-109703224D01*
X129010061Y-109703224D02*
X129024347Y-109731795D01*
X129024347Y-109731795D02*
X129024347Y-109760367D01*
X129024347Y-109760367D02*
X129010061Y-109803224D01*
X129010061Y-109803224D02*
X128838633Y-109974652D01*
X128838633Y-109974652D02*
X129024347Y-109974652D01*
X129152918Y-109946081D02*
X129167204Y-109960367D01*
X129167204Y-109960367D02*
X129152918Y-109974652D01*
X129152918Y-109974652D02*
X129138632Y-109960367D01*
X129138632Y-109960367D02*
X129152918Y-109946081D01*
X129152918Y-109946081D02*
X129152918Y-109974652D01*
X129281489Y-109703224D02*
X129295775Y-109688938D01*
X129295775Y-109688938D02*
X129324347Y-109674652D01*
X129324347Y-109674652D02*
X129395775Y-109674652D01*
X129395775Y-109674652D02*
X129424347Y-109688938D01*
X129424347Y-109688938D02*
X129438632Y-109703224D01*
X129438632Y-109703224D02*
X129452918Y-109731795D01*
X129452918Y-109731795D02*
X129452918Y-109760367D01*
X129452918Y-109760367D02*
X129438632Y-109803224D01*
X129438632Y-109803224D02*
X129267204Y-109974652D01*
X129267204Y-109974652D02*
X129452918Y-109974652D01*
X129710061Y-109774652D02*
X129710061Y-109974652D01*
X129581489Y-109774652D02*
X129581489Y-109931795D01*
X129581489Y-109931795D02*
X129595775Y-109960367D01*
X129595775Y-109960367D02*
X129624346Y-109974652D01*
X129624346Y-109974652D02*
X129667203Y-109974652D01*
X129667203Y-109974652D02*
X129695775Y-109960367D01*
X129695775Y-109960367D02*
X129710061Y-109946081D01*
X140713227Y-104823233D02*
X140727513Y-104808947D01*
X140727513Y-104808947D02*
X140756085Y-104794661D01*
X140756085Y-104794661D02*
X140827513Y-104794661D01*
X140827513Y-104794661D02*
X140856085Y-104808947D01*
X140856085Y-104808947D02*
X140870370Y-104823233D01*
X140870370Y-104823233D02*
X140884656Y-104851804D01*
X140884656Y-104851804D02*
X140884656Y-104880376D01*
X140884656Y-104880376D02*
X140870370Y-104923233D01*
X140870370Y-104923233D02*
X140698942Y-105094661D01*
X140698942Y-105094661D02*
X140884656Y-105094661D01*
X141013227Y-105066090D02*
X141027513Y-105080376D01*
X141027513Y-105080376D02*
X141013227Y-105094661D01*
X141013227Y-105094661D02*
X140998941Y-105080376D01*
X140998941Y-105080376D02*
X141013227Y-105066090D01*
X141013227Y-105066090D02*
X141013227Y-105094661D01*
X141141798Y-104823233D02*
X141156084Y-104808947D01*
X141156084Y-104808947D02*
X141184656Y-104794661D01*
X141184656Y-104794661D02*
X141256084Y-104794661D01*
X141256084Y-104794661D02*
X141284656Y-104808947D01*
X141284656Y-104808947D02*
X141298941Y-104823233D01*
X141298941Y-104823233D02*
X141313227Y-104851804D01*
X141313227Y-104851804D02*
X141313227Y-104880376D01*
X141313227Y-104880376D02*
X141298941Y-104923233D01*
X141298941Y-104923233D02*
X141127513Y-105094661D01*
X141127513Y-105094661D02*
X141313227Y-105094661D01*
X141570370Y-104894661D02*
X141570370Y-105094661D01*
X141441798Y-104894661D02*
X141441798Y-105051804D01*
X141441798Y-105051804D02*
X141456084Y-105080376D01*
X141456084Y-105080376D02*
X141484655Y-105094661D01*
X141484655Y-105094661D02*
X141527512Y-105094661D01*
X141527512Y-105094661D02*
X141556084Y-105080376D01*
X141556084Y-105080376D02*
X141570370Y-105066090D01*
X145386049Y-110786952D02*
X145386049Y-110986952D01*
X145314620Y-110672667D02*
X145243191Y-110886952D01*
X145243191Y-110886952D02*
X145428906Y-110886952D01*
X145514620Y-110686952D02*
X145714620Y-110686952D01*
X145714620Y-110686952D02*
X145586048Y-110986952D01*
X145957477Y-110786952D02*
X145957477Y-110986952D01*
X145828905Y-110786952D02*
X145828905Y-110944095D01*
X145828905Y-110944095D02*
X145843191Y-110972667D01*
X145843191Y-110972667D02*
X145871762Y-110986952D01*
X145871762Y-110986952D02*
X145914619Y-110986952D01*
X145914619Y-110986952D02*
X145943191Y-110972667D01*
X145943191Y-110972667D02*
X145957477Y-110958381D01*
X144167121Y-99515812D02*
X144181407Y-99501526D01*
X144181407Y-99501526D02*
X144209979Y-99487240D01*
X144209979Y-99487240D02*
X144281407Y-99487240D01*
X144281407Y-99487240D02*
X144309979Y-99501526D01*
X144309979Y-99501526D02*
X144324264Y-99515812D01*
X144324264Y-99515812D02*
X144338550Y-99544383D01*
X144338550Y-99544383D02*
X144338550Y-99572955D01*
X144338550Y-99572955D02*
X144324264Y-99615812D01*
X144324264Y-99615812D02*
X144152836Y-99787240D01*
X144152836Y-99787240D02*
X144338550Y-99787240D01*
X144524264Y-99487240D02*
X144552835Y-99487240D01*
X144552835Y-99487240D02*
X144581407Y-99501526D01*
X144581407Y-99501526D02*
X144595693Y-99515812D01*
X144595693Y-99515812D02*
X144609978Y-99544383D01*
X144609978Y-99544383D02*
X144624264Y-99601526D01*
X144624264Y-99601526D02*
X144624264Y-99672955D01*
X144624264Y-99672955D02*
X144609978Y-99730097D01*
X144609978Y-99730097D02*
X144595693Y-99758669D01*
X144595693Y-99758669D02*
X144581407Y-99772955D01*
X144581407Y-99772955D02*
X144552835Y-99787240D01*
X144552835Y-99787240D02*
X144524264Y-99787240D01*
X144524264Y-99787240D02*
X144495693Y-99772955D01*
X144495693Y-99772955D02*
X144481407Y-99758669D01*
X144481407Y-99758669D02*
X144467121Y-99730097D01*
X144467121Y-99730097D02*
X144452835Y-99672955D01*
X144452835Y-99672955D02*
X144452835Y-99601526D01*
X144452835Y-99601526D02*
X144467121Y-99544383D01*
X144467121Y-99544383D02*
X144481407Y-99515812D01*
X144481407Y-99515812D02*
X144495693Y-99501526D01*
X144495693Y-99501526D02*
X144524264Y-99487240D01*
X144752835Y-99787240D02*
X144752835Y-99487240D01*
X144924264Y-99787240D02*
X144795692Y-99615812D01*
X144924264Y-99487240D02*
X144752835Y-99658669D01*
X139136094Y-117256214D02*
X139150380Y-117241928D01*
X139150380Y-117241928D02*
X139178952Y-117227642D01*
X139178952Y-117227642D02*
X139250380Y-117227642D01*
X139250380Y-117227642D02*
X139278952Y-117241928D01*
X139278952Y-117241928D02*
X139293237Y-117256214D01*
X139293237Y-117256214D02*
X139307523Y-117284785D01*
X139307523Y-117284785D02*
X139307523Y-117313357D01*
X139307523Y-117313357D02*
X139293237Y-117356214D01*
X139293237Y-117356214D02*
X139121809Y-117527642D01*
X139121809Y-117527642D02*
X139307523Y-117527642D01*
X139421808Y-117256214D02*
X139436094Y-117241928D01*
X139436094Y-117241928D02*
X139464666Y-117227642D01*
X139464666Y-117227642D02*
X139536094Y-117227642D01*
X139536094Y-117227642D02*
X139564666Y-117241928D01*
X139564666Y-117241928D02*
X139578951Y-117256214D01*
X139578951Y-117256214D02*
X139593237Y-117284785D01*
X139593237Y-117284785D02*
X139593237Y-117313357D01*
X139593237Y-117313357D02*
X139578951Y-117356214D01*
X139578951Y-117356214D02*
X139407523Y-117527642D01*
X139407523Y-117527642D02*
X139593237Y-117527642D01*
X139850380Y-117327642D02*
X139850380Y-117527642D01*
X139721808Y-117327642D02*
X139721808Y-117484785D01*
X139721808Y-117484785D02*
X139736094Y-117513357D01*
X139736094Y-117513357D02*
X139764665Y-117527642D01*
X139764665Y-117527642D02*
X139807522Y-117527642D01*
X139807522Y-117527642D02*
X139836094Y-117513357D01*
X139836094Y-117513357D02*
X139850380Y-117499071D01*
D11*
X126271366Y-108088972D02*
X126223747Y-108041353D01*
X126223747Y-108041353D02*
X126176128Y-107946115D01*
X126176128Y-107946115D02*
X126271366Y-107755639D01*
X126271366Y-107755639D02*
X126223747Y-107660401D01*
X126223747Y-107660401D02*
X126176128Y-107612782D01*
D10*
X144254233Y-102707318D02*
X144082804Y-102707318D01*
X144168519Y-102707318D02*
X144168519Y-102407318D01*
X144168519Y-102407318D02*
X144139947Y-102450175D01*
X144139947Y-102450175D02*
X144111376Y-102478747D01*
X144111376Y-102478747D02*
X144082804Y-102493033D01*
X144439947Y-102407318D02*
X144468518Y-102407318D01*
X144468518Y-102407318D02*
X144497090Y-102421604D01*
X144497090Y-102421604D02*
X144511376Y-102435890D01*
X144511376Y-102435890D02*
X144525661Y-102464461D01*
X144525661Y-102464461D02*
X144539947Y-102521604D01*
X144539947Y-102521604D02*
X144539947Y-102593033D01*
X144539947Y-102593033D02*
X144525661Y-102650175D01*
X144525661Y-102650175D02*
X144511376Y-102678747D01*
X144511376Y-102678747D02*
X144497090Y-102693033D01*
X144497090Y-102693033D02*
X144468518Y-102707318D01*
X144468518Y-102707318D02*
X144439947Y-102707318D01*
X144439947Y-102707318D02*
X144411376Y-102693033D01*
X144411376Y-102693033D02*
X144397090Y-102678747D01*
X144397090Y-102678747D02*
X144382804Y-102650175D01*
X144382804Y-102650175D02*
X144368518Y-102593033D01*
X144368518Y-102593033D02*
X144368518Y-102521604D01*
X144368518Y-102521604D02*
X144382804Y-102464461D01*
X144382804Y-102464461D02*
X144397090Y-102435890D01*
X144397090Y-102435890D02*
X144411376Y-102421604D01*
X144411376Y-102421604D02*
X144439947Y-102407318D01*
X144668518Y-102707318D02*
X144668518Y-102407318D01*
X144839947Y-102707318D02*
X144711375Y-102535890D01*
X144839947Y-102407318D02*
X144668518Y-102578747D01*
X143263585Y-113597378D02*
X143277871Y-113583092D01*
X143277871Y-113583092D02*
X143306443Y-113568806D01*
X143306443Y-113568806D02*
X143377871Y-113568806D01*
X143377871Y-113568806D02*
X143406443Y-113583092D01*
X143406443Y-113583092D02*
X143420728Y-113597378D01*
X143420728Y-113597378D02*
X143435014Y-113625949D01*
X143435014Y-113625949D02*
X143435014Y-113654521D01*
X143435014Y-113654521D02*
X143420728Y-113697378D01*
X143420728Y-113697378D02*
X143249300Y-113868806D01*
X143249300Y-113868806D02*
X143435014Y-113868806D01*
X143563585Y-113840235D02*
X143577871Y-113854521D01*
X143577871Y-113854521D02*
X143563585Y-113868806D01*
X143563585Y-113868806D02*
X143549299Y-113854521D01*
X143549299Y-113854521D02*
X143563585Y-113840235D01*
X143563585Y-113840235D02*
X143563585Y-113868806D01*
X143692156Y-113597378D02*
X143706442Y-113583092D01*
X143706442Y-113583092D02*
X143735014Y-113568806D01*
X143735014Y-113568806D02*
X143806442Y-113568806D01*
X143806442Y-113568806D02*
X143835014Y-113583092D01*
X143835014Y-113583092D02*
X143849299Y-113597378D01*
X143849299Y-113597378D02*
X143863585Y-113625949D01*
X143863585Y-113625949D02*
X143863585Y-113654521D01*
X143863585Y-113654521D02*
X143849299Y-113697378D01*
X143849299Y-113697378D02*
X143677871Y-113868806D01*
X143677871Y-113868806D02*
X143863585Y-113868806D01*
X144120728Y-113668806D02*
X144120728Y-113868806D01*
X143992156Y-113668806D02*
X143992156Y-113825949D01*
X143992156Y-113825949D02*
X144006442Y-113854521D01*
X144006442Y-113854521D02*
X144035013Y-113868806D01*
X144035013Y-113868806D02*
X144077870Y-113868806D01*
X144077870Y-113868806D02*
X144106442Y-113854521D01*
X144106442Y-113854521D02*
X144120728Y-113840235D01*
X140128799Y-106593211D02*
X140114513Y-106578925D01*
X140114513Y-106578925D02*
X140100227Y-106550354D01*
X140100227Y-106550354D02*
X140100227Y-106478925D01*
X140100227Y-106478925D02*
X140114513Y-106450354D01*
X140114513Y-106450354D02*
X140128799Y-106436068D01*
X140128799Y-106436068D02*
X140157370Y-106421782D01*
X140157370Y-106421782D02*
X140185942Y-106421782D01*
X140185942Y-106421782D02*
X140228799Y-106436068D01*
X140228799Y-106436068D02*
X140400227Y-106607496D01*
X140400227Y-106607496D02*
X140400227Y-106421782D01*
X140371656Y-106293211D02*
X140385942Y-106278925D01*
X140385942Y-106278925D02*
X140400227Y-106293211D01*
X140400227Y-106293211D02*
X140385942Y-106307497D01*
X140385942Y-106307497D02*
X140371656Y-106293211D01*
X140371656Y-106293211D02*
X140400227Y-106293211D01*
X140128799Y-106164640D02*
X140114513Y-106150354D01*
X140114513Y-106150354D02*
X140100227Y-106121783D01*
X140100227Y-106121783D02*
X140100227Y-106050354D01*
X140100227Y-106050354D02*
X140114513Y-106021783D01*
X140114513Y-106021783D02*
X140128799Y-106007497D01*
X140128799Y-106007497D02*
X140157370Y-105993211D01*
X140157370Y-105993211D02*
X140185942Y-105993211D01*
X140185942Y-105993211D02*
X140228799Y-106007497D01*
X140228799Y-106007497D02*
X140400227Y-106178925D01*
X140400227Y-106178925D02*
X140400227Y-105993211D01*
X140200227Y-105736069D02*
X140400227Y-105736069D01*
X140200227Y-105864640D02*
X140357370Y-105864640D01*
X140357370Y-105864640D02*
X140385942Y-105850354D01*
X140385942Y-105850354D02*
X140400227Y-105821783D01*
X140400227Y-105821783D02*
X140400227Y-105778926D01*
X140400227Y-105778926D02*
X140385942Y-105750354D01*
X140385942Y-105750354D02*
X140371656Y-105736069D01*
D11*
X136271366Y-108088972D02*
X136223747Y-108041353D01*
X136223747Y-108041353D02*
X136176128Y-107946115D01*
X136176128Y-107946115D02*
X136271366Y-107755639D01*
X136271366Y-107755639D02*
X136223747Y-107660401D01*
X136223747Y-107660401D02*
X136176128Y-107612782D01*
D10*
X144280813Y-102040053D02*
X144109384Y-102040053D01*
X144195099Y-102040053D02*
X144195099Y-101740053D01*
X144195099Y-101740053D02*
X144166527Y-101782910D01*
X144166527Y-101782910D02*
X144137956Y-101811482D01*
X144137956Y-101811482D02*
X144109384Y-101825768D01*
X144466527Y-101740053D02*
X144495098Y-101740053D01*
X144495098Y-101740053D02*
X144523670Y-101754339D01*
X144523670Y-101754339D02*
X144537956Y-101768625D01*
X144537956Y-101768625D02*
X144552241Y-101797196D01*
X144552241Y-101797196D02*
X144566527Y-101854339D01*
X144566527Y-101854339D02*
X144566527Y-101925768D01*
X144566527Y-101925768D02*
X144552241Y-101982910D01*
X144552241Y-101982910D02*
X144537956Y-102011482D01*
X144537956Y-102011482D02*
X144523670Y-102025768D01*
X144523670Y-102025768D02*
X144495098Y-102040053D01*
X144495098Y-102040053D02*
X144466527Y-102040053D01*
X144466527Y-102040053D02*
X144437956Y-102025768D01*
X144437956Y-102025768D02*
X144423670Y-102011482D01*
X144423670Y-102011482D02*
X144409384Y-101982910D01*
X144409384Y-101982910D02*
X144395098Y-101925768D01*
X144395098Y-101925768D02*
X144395098Y-101854339D01*
X144395098Y-101854339D02*
X144409384Y-101797196D01*
X144409384Y-101797196D02*
X144423670Y-101768625D01*
X144423670Y-101768625D02*
X144437956Y-101754339D01*
X144437956Y-101754339D02*
X144466527Y-101740053D01*
X144695098Y-102040053D02*
X144695098Y-101740053D01*
X144866527Y-102040053D02*
X144737955Y-101868625D01*
X144866527Y-101740053D02*
X144695098Y-101911482D01*
X147741376Y-99821750D02*
X147727090Y-99807464D01*
X147727090Y-99807464D02*
X147712804Y-99778893D01*
X147712804Y-99778893D02*
X147712804Y-99707464D01*
X147712804Y-99707464D02*
X147727090Y-99678893D01*
X147727090Y-99678893D02*
X147741376Y-99664607D01*
X147741376Y-99664607D02*
X147769947Y-99650321D01*
X147769947Y-99650321D02*
X147798519Y-99650321D01*
X147798519Y-99650321D02*
X147841376Y-99664607D01*
X147841376Y-99664607D02*
X148012804Y-99836035D01*
X148012804Y-99836035D02*
X148012804Y-99650321D01*
X147984233Y-99521750D02*
X147998519Y-99507464D01*
X147998519Y-99507464D02*
X148012804Y-99521750D01*
X148012804Y-99521750D02*
X147998519Y-99536036D01*
X147998519Y-99536036D02*
X147984233Y-99521750D01*
X147984233Y-99521750D02*
X148012804Y-99521750D01*
X147741376Y-99393179D02*
X147727090Y-99378893D01*
X147727090Y-99378893D02*
X147712804Y-99350322D01*
X147712804Y-99350322D02*
X147712804Y-99278893D01*
X147712804Y-99278893D02*
X147727090Y-99250322D01*
X147727090Y-99250322D02*
X147741376Y-99236036D01*
X147741376Y-99236036D02*
X147769947Y-99221750D01*
X147769947Y-99221750D02*
X147798519Y-99221750D01*
X147798519Y-99221750D02*
X147841376Y-99236036D01*
X147841376Y-99236036D02*
X148012804Y-99407464D01*
X148012804Y-99407464D02*
X148012804Y-99221750D01*
X147812804Y-98964608D02*
X148012804Y-98964608D01*
X147812804Y-99093179D02*
X147969947Y-99093179D01*
X147969947Y-99093179D02*
X147998519Y-99078893D01*
X147998519Y-99078893D02*
X148012804Y-99050322D01*
X148012804Y-99050322D02*
X148012804Y-99007465D01*
X148012804Y-99007465D02*
X147998519Y-98978893D01*
X147998519Y-98978893D02*
X147984233Y-98964608D01*
X148665442Y-99820971D02*
X148651156Y-99806685D01*
X148651156Y-99806685D02*
X148636870Y-99778114D01*
X148636870Y-99778114D02*
X148636870Y-99706685D01*
X148636870Y-99706685D02*
X148651156Y-99678114D01*
X148651156Y-99678114D02*
X148665442Y-99663828D01*
X148665442Y-99663828D02*
X148694013Y-99649542D01*
X148694013Y-99649542D02*
X148722585Y-99649542D01*
X148722585Y-99649542D02*
X148765442Y-99663828D01*
X148765442Y-99663828D02*
X148936870Y-99835256D01*
X148936870Y-99835256D02*
X148936870Y-99649542D01*
X148908299Y-99520971D02*
X148922585Y-99506685D01*
X148922585Y-99506685D02*
X148936870Y-99520971D01*
X148936870Y-99520971D02*
X148922585Y-99535257D01*
X148922585Y-99535257D02*
X148908299Y-99520971D01*
X148908299Y-99520971D02*
X148936870Y-99520971D01*
X148665442Y-99392400D02*
X148651156Y-99378114D01*
X148651156Y-99378114D02*
X148636870Y-99349543D01*
X148636870Y-99349543D02*
X148636870Y-99278114D01*
X148636870Y-99278114D02*
X148651156Y-99249543D01*
X148651156Y-99249543D02*
X148665442Y-99235257D01*
X148665442Y-99235257D02*
X148694013Y-99220971D01*
X148694013Y-99220971D02*
X148722585Y-99220971D01*
X148722585Y-99220971D02*
X148765442Y-99235257D01*
X148765442Y-99235257D02*
X148936870Y-99406685D01*
X148936870Y-99406685D02*
X148936870Y-99220971D01*
X148736870Y-98963829D02*
X148936870Y-98963829D01*
X148736870Y-99092400D02*
X148894013Y-99092400D01*
X148894013Y-99092400D02*
X148922585Y-99078114D01*
X148922585Y-99078114D02*
X148936870Y-99049543D01*
X148936870Y-99049543D02*
X148936870Y-99006686D01*
X148936870Y-99006686D02*
X148922585Y-98978114D01*
X148922585Y-98978114D02*
X148908299Y-98963829D01*
X137484256Y-101788854D02*
X137469970Y-101774568D01*
X137469970Y-101774568D02*
X137455684Y-101745997D01*
X137455684Y-101745997D02*
X137455684Y-101674568D01*
X137455684Y-101674568D02*
X137469970Y-101645997D01*
X137469970Y-101645997D02*
X137484256Y-101631711D01*
X137484256Y-101631711D02*
X137512827Y-101617425D01*
X137512827Y-101617425D02*
X137541399Y-101617425D01*
X137541399Y-101617425D02*
X137584256Y-101631711D01*
X137584256Y-101631711D02*
X137755684Y-101803139D01*
X137755684Y-101803139D02*
X137755684Y-101617425D01*
X137727113Y-101488854D02*
X137741399Y-101474568D01*
X137741399Y-101474568D02*
X137755684Y-101488854D01*
X137755684Y-101488854D02*
X137741399Y-101503140D01*
X137741399Y-101503140D02*
X137727113Y-101488854D01*
X137727113Y-101488854D02*
X137755684Y-101488854D01*
X137484256Y-101360283D02*
X137469970Y-101345997D01*
X137469970Y-101345997D02*
X137455684Y-101317426D01*
X137455684Y-101317426D02*
X137455684Y-101245997D01*
X137455684Y-101245997D02*
X137469970Y-101217426D01*
X137469970Y-101217426D02*
X137484256Y-101203140D01*
X137484256Y-101203140D02*
X137512827Y-101188854D01*
X137512827Y-101188854D02*
X137541399Y-101188854D01*
X137541399Y-101188854D02*
X137584256Y-101203140D01*
X137584256Y-101203140D02*
X137755684Y-101374568D01*
X137755684Y-101374568D02*
X137755684Y-101188854D01*
X137555684Y-100931712D02*
X137755684Y-100931712D01*
X137555684Y-101060283D02*
X137712827Y-101060283D01*
X137712827Y-101060283D02*
X137741399Y-101045997D01*
X137741399Y-101045997D02*
X137755684Y-101017426D01*
X137755684Y-101017426D02*
X137755684Y-100974569D01*
X137755684Y-100974569D02*
X137741399Y-100945997D01*
X137741399Y-100945997D02*
X137727113Y-100931712D01*
X141345111Y-108347814D02*
X141330825Y-108333528D01*
X141330825Y-108333528D02*
X141316539Y-108304957D01*
X141316539Y-108304957D02*
X141316539Y-108233528D01*
X141316539Y-108233528D02*
X141330825Y-108204957D01*
X141330825Y-108204957D02*
X141345111Y-108190671D01*
X141345111Y-108190671D02*
X141373682Y-108176385D01*
X141373682Y-108176385D02*
X141402254Y-108176385D01*
X141402254Y-108176385D02*
X141445111Y-108190671D01*
X141445111Y-108190671D02*
X141616539Y-108362099D01*
X141616539Y-108362099D02*
X141616539Y-108176385D01*
X141587968Y-108047814D02*
X141602254Y-108033528D01*
X141602254Y-108033528D02*
X141616539Y-108047814D01*
X141616539Y-108047814D02*
X141602254Y-108062100D01*
X141602254Y-108062100D02*
X141587968Y-108047814D01*
X141587968Y-108047814D02*
X141616539Y-108047814D01*
X141345111Y-107919243D02*
X141330825Y-107904957D01*
X141330825Y-107904957D02*
X141316539Y-107876386D01*
X141316539Y-107876386D02*
X141316539Y-107804957D01*
X141316539Y-107804957D02*
X141330825Y-107776386D01*
X141330825Y-107776386D02*
X141345111Y-107762100D01*
X141345111Y-107762100D02*
X141373682Y-107747814D01*
X141373682Y-107747814D02*
X141402254Y-107747814D01*
X141402254Y-107747814D02*
X141445111Y-107762100D01*
X141445111Y-107762100D02*
X141616539Y-107933528D01*
X141616539Y-107933528D02*
X141616539Y-107747814D01*
X141416539Y-107490672D02*
X141616539Y-107490672D01*
X141416539Y-107619243D02*
X141573682Y-107619243D01*
X141573682Y-107619243D02*
X141602254Y-107604957D01*
X141602254Y-107604957D02*
X141616539Y-107576386D01*
X141616539Y-107576386D02*
X141616539Y-107533529D01*
X141616539Y-107533529D02*
X141602254Y-107504957D01*
X141602254Y-107504957D02*
X141587968Y-107490672D01*
X143254630Y-114247413D02*
X143268916Y-114233127D01*
X143268916Y-114233127D02*
X143297488Y-114218841D01*
X143297488Y-114218841D02*
X143368916Y-114218841D01*
X143368916Y-114218841D02*
X143397488Y-114233127D01*
X143397488Y-114233127D02*
X143411773Y-114247413D01*
X143411773Y-114247413D02*
X143426059Y-114275984D01*
X143426059Y-114275984D02*
X143426059Y-114304556D01*
X143426059Y-114304556D02*
X143411773Y-114347413D01*
X143411773Y-114347413D02*
X143240345Y-114518841D01*
X143240345Y-114518841D02*
X143426059Y-114518841D01*
X143554630Y-114490270D02*
X143568916Y-114504556D01*
X143568916Y-114504556D02*
X143554630Y-114518841D01*
X143554630Y-114518841D02*
X143540344Y-114504556D01*
X143540344Y-114504556D02*
X143554630Y-114490270D01*
X143554630Y-114490270D02*
X143554630Y-114518841D01*
X143683201Y-114247413D02*
X143697487Y-114233127D01*
X143697487Y-114233127D02*
X143726059Y-114218841D01*
X143726059Y-114218841D02*
X143797487Y-114218841D01*
X143797487Y-114218841D02*
X143826059Y-114233127D01*
X143826059Y-114233127D02*
X143840344Y-114247413D01*
X143840344Y-114247413D02*
X143854630Y-114275984D01*
X143854630Y-114275984D02*
X143854630Y-114304556D01*
X143854630Y-114304556D02*
X143840344Y-114347413D01*
X143840344Y-114347413D02*
X143668916Y-114518841D01*
X143668916Y-114518841D02*
X143854630Y-114518841D01*
X144111773Y-114318841D02*
X144111773Y-114518841D01*
X143983201Y-114318841D02*
X143983201Y-114475984D01*
X143983201Y-114475984D02*
X143997487Y-114504556D01*
X143997487Y-114504556D02*
X144026058Y-114518841D01*
X144026058Y-114518841D02*
X144068915Y-114518841D01*
X144068915Y-114518841D02*
X144097487Y-114504556D01*
X144097487Y-114504556D02*
X144111773Y-114490270D01*
X144542327Y-110632107D02*
X144542327Y-110832107D01*
X144470898Y-110517822D02*
X144399469Y-110732107D01*
X144399469Y-110732107D02*
X144585184Y-110732107D01*
X144670898Y-110532107D02*
X144870898Y-110532107D01*
X144870898Y-110532107D02*
X144742326Y-110832107D01*
X145042326Y-110532107D02*
X145070897Y-110532107D01*
X145070897Y-110532107D02*
X145099469Y-110546393D01*
X145099469Y-110546393D02*
X145113755Y-110560679D01*
X145113755Y-110560679D02*
X145128040Y-110589250D01*
X145128040Y-110589250D02*
X145142326Y-110646393D01*
X145142326Y-110646393D02*
X145142326Y-110717822D01*
X145142326Y-110717822D02*
X145128040Y-110774964D01*
X145128040Y-110774964D02*
X145113755Y-110803536D01*
X145113755Y-110803536D02*
X145099469Y-110817822D01*
X145099469Y-110817822D02*
X145070897Y-110832107D01*
X145070897Y-110832107D02*
X145042326Y-110832107D01*
X145042326Y-110832107D02*
X145013755Y-110817822D01*
X145013755Y-110817822D02*
X144999469Y-110803536D01*
X144999469Y-110803536D02*
X144985183Y-110774964D01*
X144985183Y-110774964D02*
X144970897Y-110717822D01*
X144970897Y-110717822D02*
X144970897Y-110646393D01*
X144970897Y-110646393D02*
X144985183Y-110589250D01*
X144985183Y-110589250D02*
X144999469Y-110560679D01*
X144999469Y-110560679D02*
X145013755Y-110546393D01*
X145013755Y-110546393D02*
X145042326Y-110532107D01*
X145270897Y-110632107D02*
X145270897Y-110832107D01*
X145270897Y-110660679D02*
X145285183Y-110646393D01*
X145285183Y-110646393D02*
X145313754Y-110632107D01*
X145313754Y-110632107D02*
X145356611Y-110632107D01*
X145356611Y-110632107D02*
X145385183Y-110646393D01*
X145385183Y-110646393D02*
X145399469Y-110674964D01*
X145399469Y-110674964D02*
X145399469Y-110832107D01*
X149477162Y-104864796D02*
X149448591Y-104850510D01*
X149448591Y-104850510D02*
X149434305Y-104836224D01*
X149434305Y-104836224D02*
X149420019Y-104807653D01*
X149420019Y-104807653D02*
X149420019Y-104793367D01*
X149420019Y-104793367D02*
X149434305Y-104764796D01*
X149434305Y-104764796D02*
X149448591Y-104750510D01*
X149448591Y-104750510D02*
X149477162Y-104736224D01*
X149477162Y-104736224D02*
X149534305Y-104736224D01*
X149534305Y-104736224D02*
X149562877Y-104750510D01*
X149562877Y-104750510D02*
X149577162Y-104764796D01*
X149577162Y-104764796D02*
X149591448Y-104793367D01*
X149591448Y-104793367D02*
X149591448Y-104807653D01*
X149591448Y-104807653D02*
X149577162Y-104836224D01*
X149577162Y-104836224D02*
X149562877Y-104850510D01*
X149562877Y-104850510D02*
X149534305Y-104864796D01*
X149534305Y-104864796D02*
X149477162Y-104864796D01*
X149477162Y-104864796D02*
X149448591Y-104879081D01*
X149448591Y-104879081D02*
X149434305Y-104893367D01*
X149434305Y-104893367D02*
X149420019Y-104921939D01*
X149420019Y-104921939D02*
X149420019Y-104979081D01*
X149420019Y-104979081D02*
X149434305Y-105007653D01*
X149434305Y-105007653D02*
X149448591Y-105021939D01*
X149448591Y-105021939D02*
X149477162Y-105036224D01*
X149477162Y-105036224D02*
X149534305Y-105036224D01*
X149534305Y-105036224D02*
X149562877Y-105021939D01*
X149562877Y-105021939D02*
X149577162Y-105007653D01*
X149577162Y-105007653D02*
X149591448Y-104979081D01*
X149591448Y-104979081D02*
X149591448Y-104921939D01*
X149591448Y-104921939D02*
X149577162Y-104893367D01*
X149577162Y-104893367D02*
X149562877Y-104879081D01*
X149562877Y-104879081D02*
X149534305Y-104864796D01*
X149720019Y-105036224D02*
X149720019Y-104736224D01*
X149891448Y-105036224D02*
X149762876Y-104864796D01*
X149891448Y-104736224D02*
X149720019Y-104907653D01*
X150005733Y-104764796D02*
X150020019Y-104750510D01*
X150020019Y-104750510D02*
X150048591Y-104736224D01*
X150048591Y-104736224D02*
X150120019Y-104736224D01*
X150120019Y-104736224D02*
X150148591Y-104750510D01*
X150148591Y-104750510D02*
X150162876Y-104764796D01*
X150162876Y-104764796D02*
X150177162Y-104793367D01*
X150177162Y-104793367D02*
X150177162Y-104821939D01*
X150177162Y-104821939D02*
X150162876Y-104864796D01*
X150162876Y-104864796D02*
X149991448Y-105036224D01*
X149991448Y-105036224D02*
X150177162Y-105036224D01*
D11*
X136106759Y-112159853D02*
X136082949Y-112136044D01*
X136082949Y-112136044D02*
X136059140Y-112088425D01*
X136059140Y-112088425D02*
X136106759Y-111993187D01*
X136106759Y-111993187D02*
X136082949Y-111945568D01*
X136082949Y-111945568D02*
X136059140Y-111921758D01*
D10*
X145725317Y-107333362D02*
X145711031Y-107319076D01*
X145711031Y-107319076D02*
X145696745Y-107290505D01*
X145696745Y-107290505D02*
X145696745Y-107219076D01*
X145696745Y-107219076D02*
X145711031Y-107190505D01*
X145711031Y-107190505D02*
X145725317Y-107176219D01*
X145725317Y-107176219D02*
X145753888Y-107161933D01*
X145753888Y-107161933D02*
X145782460Y-107161933D01*
X145782460Y-107161933D02*
X145825317Y-107176219D01*
X145825317Y-107176219D02*
X145996745Y-107347647D01*
X145996745Y-107347647D02*
X145996745Y-107161933D01*
X145968174Y-107033362D02*
X145982460Y-107019076D01*
X145982460Y-107019076D02*
X145996745Y-107033362D01*
X145996745Y-107033362D02*
X145982460Y-107047648D01*
X145982460Y-107047648D02*
X145968174Y-107033362D01*
X145968174Y-107033362D02*
X145996745Y-107033362D01*
X145725317Y-106904791D02*
X145711031Y-106890505D01*
X145711031Y-106890505D02*
X145696745Y-106861934D01*
X145696745Y-106861934D02*
X145696745Y-106790505D01*
X145696745Y-106790505D02*
X145711031Y-106761934D01*
X145711031Y-106761934D02*
X145725317Y-106747648D01*
X145725317Y-106747648D02*
X145753888Y-106733362D01*
X145753888Y-106733362D02*
X145782460Y-106733362D01*
X145782460Y-106733362D02*
X145825317Y-106747648D01*
X145825317Y-106747648D02*
X145996745Y-106919076D01*
X145996745Y-106919076D02*
X145996745Y-106733362D01*
X145796745Y-106476220D02*
X145996745Y-106476220D01*
X145796745Y-106604791D02*
X145953888Y-106604791D01*
X145953888Y-106604791D02*
X145982460Y-106590505D01*
X145982460Y-106590505D02*
X145996745Y-106561934D01*
X145996745Y-106561934D02*
X145996745Y-106519077D01*
X145996745Y-106519077D02*
X145982460Y-106490505D01*
X145982460Y-106490505D02*
X145968174Y-106476220D01*
X149377304Y-105493299D02*
X149391590Y-105479013D01*
X149391590Y-105479013D02*
X149420162Y-105464727D01*
X149420162Y-105464727D02*
X149491590Y-105464727D01*
X149491590Y-105464727D02*
X149520162Y-105479013D01*
X149520162Y-105479013D02*
X149534447Y-105493299D01*
X149534447Y-105493299D02*
X149548733Y-105521870D01*
X149548733Y-105521870D02*
X149548733Y-105550442D01*
X149548733Y-105550442D02*
X149534447Y-105593299D01*
X149534447Y-105593299D02*
X149363019Y-105764727D01*
X149363019Y-105764727D02*
X149548733Y-105764727D01*
X149677304Y-105736156D02*
X149691590Y-105750442D01*
X149691590Y-105750442D02*
X149677304Y-105764727D01*
X149677304Y-105764727D02*
X149663018Y-105750442D01*
X149663018Y-105750442D02*
X149677304Y-105736156D01*
X149677304Y-105736156D02*
X149677304Y-105764727D01*
X149805875Y-105493299D02*
X149820161Y-105479013D01*
X149820161Y-105479013D02*
X149848733Y-105464727D01*
X149848733Y-105464727D02*
X149920161Y-105464727D01*
X149920161Y-105464727D02*
X149948733Y-105479013D01*
X149948733Y-105479013D02*
X149963018Y-105493299D01*
X149963018Y-105493299D02*
X149977304Y-105521870D01*
X149977304Y-105521870D02*
X149977304Y-105550442D01*
X149977304Y-105550442D02*
X149963018Y-105593299D01*
X149963018Y-105593299D02*
X149791590Y-105764727D01*
X149791590Y-105764727D02*
X149977304Y-105764727D01*
X150234447Y-105564727D02*
X150234447Y-105764727D01*
X150105875Y-105564727D02*
X150105875Y-105721870D01*
X150105875Y-105721870D02*
X150120161Y-105750442D01*
X150120161Y-105750442D02*
X150148732Y-105764727D01*
X150148732Y-105764727D02*
X150191589Y-105764727D01*
X150191589Y-105764727D02*
X150220161Y-105750442D01*
X150220161Y-105750442D02*
X150234447Y-105736156D01*
X134939752Y-116538104D02*
X134925466Y-116523818D01*
X134925466Y-116523818D02*
X134911180Y-116495247D01*
X134911180Y-116495247D02*
X134911180Y-116423818D01*
X134911180Y-116423818D02*
X134925466Y-116395247D01*
X134925466Y-116395247D02*
X134939752Y-116380961D01*
X134939752Y-116380961D02*
X134968323Y-116366675D01*
X134968323Y-116366675D02*
X134996895Y-116366675D01*
X134996895Y-116366675D02*
X135039752Y-116380961D01*
X135039752Y-116380961D02*
X135211180Y-116552389D01*
X135211180Y-116552389D02*
X135211180Y-116366675D01*
X135182609Y-116238104D02*
X135196895Y-116223818D01*
X135196895Y-116223818D02*
X135211180Y-116238104D01*
X135211180Y-116238104D02*
X135196895Y-116252390D01*
X135196895Y-116252390D02*
X135182609Y-116238104D01*
X135182609Y-116238104D02*
X135211180Y-116238104D01*
X134939752Y-116109533D02*
X134925466Y-116095247D01*
X134925466Y-116095247D02*
X134911180Y-116066676D01*
X134911180Y-116066676D02*
X134911180Y-115995247D01*
X134911180Y-115995247D02*
X134925466Y-115966676D01*
X134925466Y-115966676D02*
X134939752Y-115952390D01*
X134939752Y-115952390D02*
X134968323Y-115938104D01*
X134968323Y-115938104D02*
X134996895Y-115938104D01*
X134996895Y-115938104D02*
X135039752Y-115952390D01*
X135039752Y-115952390D02*
X135211180Y-116123818D01*
X135211180Y-116123818D02*
X135211180Y-115938104D01*
X135011180Y-115680962D02*
X135211180Y-115680962D01*
X135011180Y-115809533D02*
X135168323Y-115809533D01*
X135168323Y-115809533D02*
X135196895Y-115795247D01*
X135196895Y-115795247D02*
X135211180Y-115766676D01*
X135211180Y-115766676D02*
X135211180Y-115723819D01*
X135211180Y-115723819D02*
X135196895Y-115695247D01*
X135196895Y-115695247D02*
X135182609Y-115680962D01*
X133476556Y-116170146D02*
X133505127Y-116170146D01*
X133505127Y-116170146D02*
X133533699Y-116184432D01*
X133533699Y-116184432D02*
X133547985Y-116198718D01*
X133547985Y-116198718D02*
X133562270Y-116227289D01*
X133562270Y-116227289D02*
X133576556Y-116284432D01*
X133576556Y-116284432D02*
X133576556Y-116355861D01*
X133576556Y-116355861D02*
X133562270Y-116413003D01*
X133562270Y-116413003D02*
X133547985Y-116441575D01*
X133547985Y-116441575D02*
X133533699Y-116455861D01*
X133533699Y-116455861D02*
X133505127Y-116470146D01*
X133505127Y-116470146D02*
X133476556Y-116470146D01*
X133476556Y-116470146D02*
X133447985Y-116455861D01*
X133447985Y-116455861D02*
X133433699Y-116441575D01*
X133433699Y-116441575D02*
X133419413Y-116413003D01*
X133419413Y-116413003D02*
X133405127Y-116355861D01*
X133405127Y-116355861D02*
X133405127Y-116284432D01*
X133405127Y-116284432D02*
X133419413Y-116227289D01*
X133419413Y-116227289D02*
X133433699Y-116198718D01*
X133433699Y-116198718D02*
X133447985Y-116184432D01*
X133447985Y-116184432D02*
X133476556Y-116170146D01*
X133876556Y-116470146D02*
X133776556Y-116327289D01*
X133705127Y-116470146D02*
X133705127Y-116170146D01*
X133705127Y-116170146D02*
X133819413Y-116170146D01*
X133819413Y-116170146D02*
X133847984Y-116184432D01*
X133847984Y-116184432D02*
X133862270Y-116198718D01*
X133862270Y-116198718D02*
X133876556Y-116227289D01*
X133876556Y-116227289D02*
X133876556Y-116270146D01*
X133876556Y-116270146D02*
X133862270Y-116298718D01*
X133862270Y-116298718D02*
X133847984Y-116313003D01*
X133847984Y-116313003D02*
X133819413Y-116327289D01*
X133819413Y-116327289D02*
X133705127Y-116327289D01*
X140546825Y-108230574D02*
X140532539Y-108216288D01*
X140532539Y-108216288D02*
X140518253Y-108187717D01*
X140518253Y-108187717D02*
X140518253Y-108116288D01*
X140518253Y-108116288D02*
X140532539Y-108087717D01*
X140532539Y-108087717D02*
X140546825Y-108073431D01*
X140546825Y-108073431D02*
X140575396Y-108059145D01*
X140575396Y-108059145D02*
X140603968Y-108059145D01*
X140603968Y-108059145D02*
X140646825Y-108073431D01*
X140646825Y-108073431D02*
X140818253Y-108244859D01*
X140818253Y-108244859D02*
X140818253Y-108059145D01*
X140789682Y-107930574D02*
X140803968Y-107916288D01*
X140803968Y-107916288D02*
X140818253Y-107930574D01*
X140818253Y-107930574D02*
X140803968Y-107944860D01*
X140803968Y-107944860D02*
X140789682Y-107930574D01*
X140789682Y-107930574D02*
X140818253Y-107930574D01*
X140546825Y-107802003D02*
X140532539Y-107787717D01*
X140532539Y-107787717D02*
X140518253Y-107759146D01*
X140518253Y-107759146D02*
X140518253Y-107687717D01*
X140518253Y-107687717D02*
X140532539Y-107659146D01*
X140532539Y-107659146D02*
X140546825Y-107644860D01*
X140546825Y-107644860D02*
X140575396Y-107630574D01*
X140575396Y-107630574D02*
X140603968Y-107630574D01*
X140603968Y-107630574D02*
X140646825Y-107644860D01*
X140646825Y-107644860D02*
X140818253Y-107816288D01*
X140818253Y-107816288D02*
X140818253Y-107630574D01*
X140618253Y-107373432D02*
X140818253Y-107373432D01*
X140618253Y-107502003D02*
X140775396Y-107502003D01*
X140775396Y-107502003D02*
X140803968Y-107487717D01*
X140803968Y-107487717D02*
X140818253Y-107459146D01*
X140818253Y-107459146D02*
X140818253Y-107416289D01*
X140818253Y-107416289D02*
X140803968Y-107387717D01*
X140803968Y-107387717D02*
X140789682Y-107373432D01*
X132808615Y-116536918D02*
X132794329Y-116522632D01*
X132794329Y-116522632D02*
X132780043Y-116494061D01*
X132780043Y-116494061D02*
X132780043Y-116422632D01*
X132780043Y-116422632D02*
X132794329Y-116394061D01*
X132794329Y-116394061D02*
X132808615Y-116379775D01*
X132808615Y-116379775D02*
X132837186Y-116365489D01*
X132837186Y-116365489D02*
X132865758Y-116365489D01*
X132865758Y-116365489D02*
X132908615Y-116379775D01*
X132908615Y-116379775D02*
X133080043Y-116551203D01*
X133080043Y-116551203D02*
X133080043Y-116365489D01*
X133051472Y-116236918D02*
X133065758Y-116222632D01*
X133065758Y-116222632D02*
X133080043Y-116236918D01*
X133080043Y-116236918D02*
X133065758Y-116251204D01*
X133065758Y-116251204D02*
X133051472Y-116236918D01*
X133051472Y-116236918D02*
X133080043Y-116236918D01*
X132808615Y-116108347D02*
X132794329Y-116094061D01*
X132794329Y-116094061D02*
X132780043Y-116065490D01*
X132780043Y-116065490D02*
X132780043Y-115994061D01*
X132780043Y-115994061D02*
X132794329Y-115965490D01*
X132794329Y-115965490D02*
X132808615Y-115951204D01*
X132808615Y-115951204D02*
X132837186Y-115936918D01*
X132837186Y-115936918D02*
X132865758Y-115936918D01*
X132865758Y-115936918D02*
X132908615Y-115951204D01*
X132908615Y-115951204D02*
X133080043Y-116122632D01*
X133080043Y-116122632D02*
X133080043Y-115936918D01*
X132880043Y-115679776D02*
X133080043Y-115679776D01*
X132880043Y-115808347D02*
X133037186Y-115808347D01*
X133037186Y-115808347D02*
X133065758Y-115794061D01*
X133065758Y-115794061D02*
X133080043Y-115765490D01*
X133080043Y-115765490D02*
X133080043Y-115722633D01*
X133080043Y-115722633D02*
X133065758Y-115694061D01*
X133065758Y-115694061D02*
X133051472Y-115679776D01*
X149380161Y-106956940D02*
X149394447Y-106942654D01*
X149394447Y-106942654D02*
X149423019Y-106928368D01*
X149423019Y-106928368D02*
X149494447Y-106928368D01*
X149494447Y-106928368D02*
X149523019Y-106942654D01*
X149523019Y-106942654D02*
X149537304Y-106956940D01*
X149537304Y-106956940D02*
X149551590Y-106985511D01*
X149551590Y-106985511D02*
X149551590Y-107014083D01*
X149551590Y-107014083D02*
X149537304Y-107056940D01*
X149537304Y-107056940D02*
X149365876Y-107228368D01*
X149365876Y-107228368D02*
X149551590Y-107228368D01*
X149680161Y-107199797D02*
X149694447Y-107214083D01*
X149694447Y-107214083D02*
X149680161Y-107228368D01*
X149680161Y-107228368D02*
X149665875Y-107214083D01*
X149665875Y-107214083D02*
X149680161Y-107199797D01*
X149680161Y-107199797D02*
X149680161Y-107228368D01*
X149808732Y-106956940D02*
X149823018Y-106942654D01*
X149823018Y-106942654D02*
X149851590Y-106928368D01*
X149851590Y-106928368D02*
X149923018Y-106928368D01*
X149923018Y-106928368D02*
X149951590Y-106942654D01*
X149951590Y-106942654D02*
X149965875Y-106956940D01*
X149965875Y-106956940D02*
X149980161Y-106985511D01*
X149980161Y-106985511D02*
X149980161Y-107014083D01*
X149980161Y-107014083D02*
X149965875Y-107056940D01*
X149965875Y-107056940D02*
X149794447Y-107228368D01*
X149794447Y-107228368D02*
X149980161Y-107228368D01*
X150237304Y-107028368D02*
X150237304Y-107228368D01*
X150108732Y-107028368D02*
X150108732Y-107185511D01*
X150108732Y-107185511D02*
X150123018Y-107214083D01*
X150123018Y-107214083D02*
X150151589Y-107228368D01*
X150151589Y-107228368D02*
X150194446Y-107228368D01*
X150194446Y-107228368D02*
X150223018Y-107214083D01*
X150223018Y-107214083D02*
X150237304Y-107199797D01*
D11*
X155047446Y-95389620D02*
X154971250Y-95313424D01*
X154971250Y-95313424D02*
X154818858Y-95237228D01*
X154818858Y-95237228D02*
X154514074Y-95389620D01*
X154514074Y-95389620D02*
X154361681Y-95313424D01*
X154361681Y-95313424D02*
X154285485Y-95237228D01*
X131269643Y-97656261D02*
X131269643Y-97130306D01*
X131269643Y-97130306D02*
X131069279Y-97130306D01*
X131069279Y-97130306D02*
X131019188Y-97155351D01*
X131019188Y-97155351D02*
X130994143Y-97180397D01*
X130994143Y-97180397D02*
X130969097Y-97230488D01*
X130969097Y-97230488D02*
X130969097Y-97305624D01*
X130969097Y-97305624D02*
X130994143Y-97355715D01*
X130994143Y-97355715D02*
X131019188Y-97380761D01*
X131019188Y-97380761D02*
X131069279Y-97405806D01*
X131069279Y-97405806D02*
X131269643Y-97405806D01*
X130443142Y-97606170D02*
X130468188Y-97631216D01*
X130468188Y-97631216D02*
X130543324Y-97656261D01*
X130543324Y-97656261D02*
X130593415Y-97656261D01*
X130593415Y-97656261D02*
X130668552Y-97631216D01*
X130668552Y-97631216D02*
X130718643Y-97581125D01*
X130718643Y-97581125D02*
X130743688Y-97531034D01*
X130743688Y-97531034D02*
X130768734Y-97430852D01*
X130768734Y-97430852D02*
X130768734Y-97355715D01*
X130768734Y-97355715D02*
X130743688Y-97255533D01*
X130743688Y-97255533D02*
X130718643Y-97205442D01*
X130718643Y-97205442D02*
X130668552Y-97155351D01*
X130668552Y-97155351D02*
X130593415Y-97130306D01*
X130593415Y-97130306D02*
X130543324Y-97130306D01*
X130543324Y-97130306D02*
X130468188Y-97155351D01*
X130468188Y-97155351D02*
X130443142Y-97180397D01*
X130042415Y-97380761D02*
X129967278Y-97405806D01*
X129967278Y-97405806D02*
X129942233Y-97430852D01*
X129942233Y-97430852D02*
X129917187Y-97480943D01*
X129917187Y-97480943D02*
X129917187Y-97556079D01*
X129917187Y-97556079D02*
X129942233Y-97606170D01*
X129942233Y-97606170D02*
X129967278Y-97631216D01*
X129967278Y-97631216D02*
X130017369Y-97656261D01*
X130017369Y-97656261D02*
X130217733Y-97656261D01*
X130217733Y-97656261D02*
X130217733Y-97130306D01*
X130217733Y-97130306D02*
X130042415Y-97130306D01*
X130042415Y-97130306D02*
X129992324Y-97155351D01*
X129992324Y-97155351D02*
X129967278Y-97180397D01*
X129967278Y-97180397D02*
X129942233Y-97230488D01*
X129942233Y-97230488D02*
X129942233Y-97280579D01*
X129942233Y-97280579D02*
X129967278Y-97330670D01*
X129967278Y-97330670D02*
X129992324Y-97355715D01*
X129992324Y-97355715D02*
X130042415Y-97380761D01*
X130042415Y-97380761D02*
X130217733Y-97380761D01*
X129291050Y-97380761D02*
X129115732Y-97380761D01*
X129040595Y-97656261D02*
X129291050Y-97656261D01*
X129291050Y-97656261D02*
X129291050Y-97130306D01*
X129291050Y-97130306D02*
X129040595Y-97130306D01*
X128589777Y-97656261D02*
X128589777Y-97130306D01*
X128589777Y-97631216D02*
X128639868Y-97656261D01*
X128639868Y-97656261D02*
X128740050Y-97656261D01*
X128740050Y-97656261D02*
X128790141Y-97631216D01*
X128790141Y-97631216D02*
X128815186Y-97606170D01*
X128815186Y-97606170D02*
X128840232Y-97556079D01*
X128840232Y-97556079D02*
X128840232Y-97405806D01*
X128840232Y-97405806D02*
X128815186Y-97355715D01*
X128815186Y-97355715D02*
X128790141Y-97330670D01*
X128790141Y-97330670D02*
X128740050Y-97305624D01*
X128740050Y-97305624D02*
X128639868Y-97305624D01*
X128639868Y-97305624D02*
X128589777Y-97330670D01*
X128113913Y-97305624D02*
X128113913Y-97731397D01*
X128113913Y-97731397D02*
X128138958Y-97781488D01*
X128138958Y-97781488D02*
X128164004Y-97806534D01*
X128164004Y-97806534D02*
X128214095Y-97831579D01*
X128214095Y-97831579D02*
X128289231Y-97831579D01*
X128289231Y-97831579D02*
X128339322Y-97806534D01*
X128113913Y-97631216D02*
X128164004Y-97656261D01*
X128164004Y-97656261D02*
X128264186Y-97656261D01*
X128264186Y-97656261D02*
X128314277Y-97631216D01*
X128314277Y-97631216D02*
X128339322Y-97606170D01*
X128339322Y-97606170D02*
X128364368Y-97556079D01*
X128364368Y-97556079D02*
X128364368Y-97405806D01*
X128364368Y-97405806D02*
X128339322Y-97355715D01*
X128339322Y-97355715D02*
X128314277Y-97330670D01*
X128314277Y-97330670D02*
X128264186Y-97305624D01*
X128264186Y-97305624D02*
X128164004Y-97305624D01*
X128164004Y-97305624D02*
X128113913Y-97330670D01*
X127663094Y-97631216D02*
X127713185Y-97656261D01*
X127713185Y-97656261D02*
X127813367Y-97656261D01*
X127813367Y-97656261D02*
X127863458Y-97631216D01*
X127863458Y-97631216D02*
X127888504Y-97581125D01*
X127888504Y-97581125D02*
X127888504Y-97380761D01*
X127888504Y-97380761D02*
X127863458Y-97330670D01*
X127863458Y-97330670D02*
X127813367Y-97305624D01*
X127813367Y-97305624D02*
X127713185Y-97305624D01*
X127713185Y-97305624D02*
X127663094Y-97330670D01*
X127663094Y-97330670D02*
X127638049Y-97380761D01*
X127638049Y-97380761D02*
X127638049Y-97430852D01*
X127638049Y-97430852D02*
X127888504Y-97480943D01*
X146411027Y-113288466D02*
X146458646Y-113240847D01*
X146458646Y-113240847D02*
X146553884Y-113193228D01*
X146553884Y-113193228D02*
X146744360Y-113288466D01*
X146744360Y-113288466D02*
X146839598Y-113240847D01*
X146839598Y-113240847D02*
X146887217Y-113193228D01*
D10*
X145379217Y-113321754D02*
X145379217Y-113521754D01*
X145307788Y-113207469D02*
X145236359Y-113421754D01*
X145236359Y-113421754D02*
X145422074Y-113421754D01*
X145507788Y-113221754D02*
X145707788Y-113221754D01*
X145707788Y-113221754D02*
X145579216Y-113521754D01*
X145950645Y-113321754D02*
X145950645Y-113521754D01*
X145822073Y-113321754D02*
X145822073Y-113478897D01*
X145822073Y-113478897D02*
X145836359Y-113507469D01*
X145836359Y-113507469D02*
X145864930Y-113521754D01*
X145864930Y-113521754D02*
X145907787Y-113521754D01*
X145907787Y-113521754D02*
X145936359Y-113507469D01*
X145936359Y-113507469D02*
X145950645Y-113493183D01*
X149487171Y-104166603D02*
X149458600Y-104152317D01*
X149458600Y-104152317D02*
X149444314Y-104138031D01*
X149444314Y-104138031D02*
X149430028Y-104109460D01*
X149430028Y-104109460D02*
X149430028Y-104095174D01*
X149430028Y-104095174D02*
X149444314Y-104066603D01*
X149444314Y-104066603D02*
X149458600Y-104052317D01*
X149458600Y-104052317D02*
X149487171Y-104038031D01*
X149487171Y-104038031D02*
X149544314Y-104038031D01*
X149544314Y-104038031D02*
X149572886Y-104052317D01*
X149572886Y-104052317D02*
X149587171Y-104066603D01*
X149587171Y-104066603D02*
X149601457Y-104095174D01*
X149601457Y-104095174D02*
X149601457Y-104109460D01*
X149601457Y-104109460D02*
X149587171Y-104138031D01*
X149587171Y-104138031D02*
X149572886Y-104152317D01*
X149572886Y-104152317D02*
X149544314Y-104166603D01*
X149544314Y-104166603D02*
X149487171Y-104166603D01*
X149487171Y-104166603D02*
X149458600Y-104180888D01*
X149458600Y-104180888D02*
X149444314Y-104195174D01*
X149444314Y-104195174D02*
X149430028Y-104223746D01*
X149430028Y-104223746D02*
X149430028Y-104280888D01*
X149430028Y-104280888D02*
X149444314Y-104309460D01*
X149444314Y-104309460D02*
X149458600Y-104323746D01*
X149458600Y-104323746D02*
X149487171Y-104338031D01*
X149487171Y-104338031D02*
X149544314Y-104338031D01*
X149544314Y-104338031D02*
X149572886Y-104323746D01*
X149572886Y-104323746D02*
X149587171Y-104309460D01*
X149587171Y-104309460D02*
X149601457Y-104280888D01*
X149601457Y-104280888D02*
X149601457Y-104223746D01*
X149601457Y-104223746D02*
X149587171Y-104195174D01*
X149587171Y-104195174D02*
X149572886Y-104180888D01*
X149572886Y-104180888D02*
X149544314Y-104166603D01*
X149730028Y-104338031D02*
X149730028Y-104038031D01*
X149901457Y-104338031D02*
X149772885Y-104166603D01*
X149901457Y-104038031D02*
X149730028Y-104209460D01*
X150015742Y-104066603D02*
X150030028Y-104052317D01*
X150030028Y-104052317D02*
X150058600Y-104038031D01*
X150058600Y-104038031D02*
X150130028Y-104038031D01*
X150130028Y-104038031D02*
X150158600Y-104052317D01*
X150158600Y-104052317D02*
X150172885Y-104066603D01*
X150172885Y-104066603D02*
X150187171Y-104095174D01*
X150187171Y-104095174D02*
X150187171Y-104123746D01*
X150187171Y-104123746D02*
X150172885Y-104166603D01*
X150172885Y-104166603D02*
X150001457Y-104338031D01*
X150001457Y-104338031D02*
X150187171Y-104338031D01*
X131254230Y-116170146D02*
X131282801Y-116170146D01*
X131282801Y-116170146D02*
X131311373Y-116184432D01*
X131311373Y-116184432D02*
X131325659Y-116198718D01*
X131325659Y-116198718D02*
X131339944Y-116227289D01*
X131339944Y-116227289D02*
X131354230Y-116284432D01*
X131354230Y-116284432D02*
X131354230Y-116355861D01*
X131354230Y-116355861D02*
X131339944Y-116413003D01*
X131339944Y-116413003D02*
X131325659Y-116441575D01*
X131325659Y-116441575D02*
X131311373Y-116455861D01*
X131311373Y-116455861D02*
X131282801Y-116470146D01*
X131282801Y-116470146D02*
X131254230Y-116470146D01*
X131254230Y-116470146D02*
X131225659Y-116455861D01*
X131225659Y-116455861D02*
X131211373Y-116441575D01*
X131211373Y-116441575D02*
X131197087Y-116413003D01*
X131197087Y-116413003D02*
X131182801Y-116355861D01*
X131182801Y-116355861D02*
X131182801Y-116284432D01*
X131182801Y-116284432D02*
X131197087Y-116227289D01*
X131197087Y-116227289D02*
X131211373Y-116198718D01*
X131211373Y-116198718D02*
X131225659Y-116184432D01*
X131225659Y-116184432D02*
X131254230Y-116170146D01*
X131654230Y-116470146D02*
X131554230Y-116327289D01*
X131482801Y-116470146D02*
X131482801Y-116170146D01*
X131482801Y-116170146D02*
X131597087Y-116170146D01*
X131597087Y-116170146D02*
X131625658Y-116184432D01*
X131625658Y-116184432D02*
X131639944Y-116198718D01*
X131639944Y-116198718D02*
X131654230Y-116227289D01*
X131654230Y-116227289D02*
X131654230Y-116270146D01*
X131654230Y-116270146D02*
X131639944Y-116298718D01*
X131639944Y-116298718D02*
X131625658Y-116313003D01*
X131625658Y-116313003D02*
X131597087Y-116327289D01*
X131597087Y-116327289D02*
X131482801Y-116327289D01*
X134283087Y-104573770D02*
X134254516Y-104559484D01*
X134254516Y-104559484D02*
X134240230Y-104545198D01*
X134240230Y-104545198D02*
X134225944Y-104516627D01*
X134225944Y-104516627D02*
X134225944Y-104502341D01*
X134225944Y-104502341D02*
X134240230Y-104473770D01*
X134240230Y-104473770D02*
X134254516Y-104459484D01*
X134254516Y-104459484D02*
X134283087Y-104445198D01*
X134283087Y-104445198D02*
X134340230Y-104445198D01*
X134340230Y-104445198D02*
X134368802Y-104459484D01*
X134368802Y-104459484D02*
X134383087Y-104473770D01*
X134383087Y-104473770D02*
X134397373Y-104502341D01*
X134397373Y-104502341D02*
X134397373Y-104516627D01*
X134397373Y-104516627D02*
X134383087Y-104545198D01*
X134383087Y-104545198D02*
X134368802Y-104559484D01*
X134368802Y-104559484D02*
X134340230Y-104573770D01*
X134340230Y-104573770D02*
X134283087Y-104573770D01*
X134283087Y-104573770D02*
X134254516Y-104588055D01*
X134254516Y-104588055D02*
X134240230Y-104602341D01*
X134240230Y-104602341D02*
X134225944Y-104630913D01*
X134225944Y-104630913D02*
X134225944Y-104688055D01*
X134225944Y-104688055D02*
X134240230Y-104716627D01*
X134240230Y-104716627D02*
X134254516Y-104730913D01*
X134254516Y-104730913D02*
X134283087Y-104745198D01*
X134283087Y-104745198D02*
X134340230Y-104745198D01*
X134340230Y-104745198D02*
X134368802Y-104730913D01*
X134368802Y-104730913D02*
X134383087Y-104716627D01*
X134383087Y-104716627D02*
X134397373Y-104688055D01*
X134397373Y-104688055D02*
X134397373Y-104630913D01*
X134397373Y-104630913D02*
X134383087Y-104602341D01*
X134383087Y-104602341D02*
X134368802Y-104588055D01*
X134368802Y-104588055D02*
X134340230Y-104573770D01*
X134525944Y-104745198D02*
X134525944Y-104445198D01*
X134697373Y-104745198D02*
X134568801Y-104573770D01*
X134697373Y-104445198D02*
X134525944Y-104616627D01*
X134811658Y-104473770D02*
X134825944Y-104459484D01*
X134825944Y-104459484D02*
X134854516Y-104445198D01*
X134854516Y-104445198D02*
X134925944Y-104445198D01*
X134925944Y-104445198D02*
X134954516Y-104459484D01*
X134954516Y-104459484D02*
X134968801Y-104473770D01*
X134968801Y-104473770D02*
X134983087Y-104502341D01*
X134983087Y-104502341D02*
X134983087Y-104530913D01*
X134983087Y-104530913D02*
X134968801Y-104573770D01*
X134968801Y-104573770D02*
X134797373Y-104745198D01*
X134797373Y-104745198D02*
X134983087Y-104745198D01*
X148972322Y-102785783D02*
X148986608Y-102771497D01*
X148986608Y-102771497D02*
X149015180Y-102757211D01*
X149015180Y-102757211D02*
X149086608Y-102757211D01*
X149086608Y-102757211D02*
X149115180Y-102771497D01*
X149115180Y-102771497D02*
X149129465Y-102785783D01*
X149129465Y-102785783D02*
X149143751Y-102814354D01*
X149143751Y-102814354D02*
X149143751Y-102842926D01*
X149143751Y-102842926D02*
X149129465Y-102885783D01*
X149129465Y-102885783D02*
X148958037Y-103057211D01*
X148958037Y-103057211D02*
X149143751Y-103057211D01*
X149272322Y-103028640D02*
X149286608Y-103042926D01*
X149286608Y-103042926D02*
X149272322Y-103057211D01*
X149272322Y-103057211D02*
X149258036Y-103042926D01*
X149258036Y-103042926D02*
X149272322Y-103028640D01*
X149272322Y-103028640D02*
X149272322Y-103057211D01*
X149400893Y-102785783D02*
X149415179Y-102771497D01*
X149415179Y-102771497D02*
X149443751Y-102757211D01*
X149443751Y-102757211D02*
X149515179Y-102757211D01*
X149515179Y-102757211D02*
X149543751Y-102771497D01*
X149543751Y-102771497D02*
X149558036Y-102785783D01*
X149558036Y-102785783D02*
X149572322Y-102814354D01*
X149572322Y-102814354D02*
X149572322Y-102842926D01*
X149572322Y-102842926D02*
X149558036Y-102885783D01*
X149558036Y-102885783D02*
X149386608Y-103057211D01*
X149386608Y-103057211D02*
X149572322Y-103057211D01*
X149829465Y-102857211D02*
X149829465Y-103057211D01*
X149700893Y-102857211D02*
X149700893Y-103014354D01*
X149700893Y-103014354D02*
X149715179Y-103042926D01*
X149715179Y-103042926D02*
X149743750Y-103057211D01*
X149743750Y-103057211D02*
X149786607Y-103057211D01*
X149786607Y-103057211D02*
X149815179Y-103042926D01*
X149815179Y-103042926D02*
X149829465Y-103028640D01*
X148987295Y-101596745D02*
X149001581Y-101582459D01*
X149001581Y-101582459D02*
X149030153Y-101568173D01*
X149030153Y-101568173D02*
X149101581Y-101568173D01*
X149101581Y-101568173D02*
X149130153Y-101582459D01*
X149130153Y-101582459D02*
X149144438Y-101596745D01*
X149144438Y-101596745D02*
X149158724Y-101625316D01*
X149158724Y-101625316D02*
X149158724Y-101653888D01*
X149158724Y-101653888D02*
X149144438Y-101696745D01*
X149144438Y-101696745D02*
X148973010Y-101868173D01*
X148973010Y-101868173D02*
X149158724Y-101868173D01*
X149287295Y-101839602D02*
X149301581Y-101853888D01*
X149301581Y-101853888D02*
X149287295Y-101868173D01*
X149287295Y-101868173D02*
X149273009Y-101853888D01*
X149273009Y-101853888D02*
X149287295Y-101839602D01*
X149287295Y-101839602D02*
X149287295Y-101868173D01*
X149415866Y-101596745D02*
X149430152Y-101582459D01*
X149430152Y-101582459D02*
X149458724Y-101568173D01*
X149458724Y-101568173D02*
X149530152Y-101568173D01*
X149530152Y-101568173D02*
X149558724Y-101582459D01*
X149558724Y-101582459D02*
X149573009Y-101596745D01*
X149573009Y-101596745D02*
X149587295Y-101625316D01*
X149587295Y-101625316D02*
X149587295Y-101653888D01*
X149587295Y-101653888D02*
X149573009Y-101696745D01*
X149573009Y-101696745D02*
X149401581Y-101868173D01*
X149401581Y-101868173D02*
X149587295Y-101868173D01*
X149844438Y-101668173D02*
X149844438Y-101868173D01*
X149715866Y-101668173D02*
X149715866Y-101825316D01*
X149715866Y-101825316D02*
X149730152Y-101853888D01*
X149730152Y-101853888D02*
X149758723Y-101868173D01*
X149758723Y-101868173D02*
X149801580Y-101868173D01*
X149801580Y-101868173D02*
X149830152Y-101853888D01*
X149830152Y-101853888D02*
X149844438Y-101839602D01*
X134292157Y-105671243D02*
X134263586Y-105656957D01*
X134263586Y-105656957D02*
X134249300Y-105642671D01*
X134249300Y-105642671D02*
X134235014Y-105614100D01*
X134235014Y-105614100D02*
X134235014Y-105599814D01*
X134235014Y-105599814D02*
X134249300Y-105571243D01*
X134249300Y-105571243D02*
X134263586Y-105556957D01*
X134263586Y-105556957D02*
X134292157Y-105542671D01*
X134292157Y-105542671D02*
X134349300Y-105542671D01*
X134349300Y-105542671D02*
X134377872Y-105556957D01*
X134377872Y-105556957D02*
X134392157Y-105571243D01*
X134392157Y-105571243D02*
X134406443Y-105599814D01*
X134406443Y-105599814D02*
X134406443Y-105614100D01*
X134406443Y-105614100D02*
X134392157Y-105642671D01*
X134392157Y-105642671D02*
X134377872Y-105656957D01*
X134377872Y-105656957D02*
X134349300Y-105671243D01*
X134349300Y-105671243D02*
X134292157Y-105671243D01*
X134292157Y-105671243D02*
X134263586Y-105685528D01*
X134263586Y-105685528D02*
X134249300Y-105699814D01*
X134249300Y-105699814D02*
X134235014Y-105728386D01*
X134235014Y-105728386D02*
X134235014Y-105785528D01*
X134235014Y-105785528D02*
X134249300Y-105814100D01*
X134249300Y-105814100D02*
X134263586Y-105828386D01*
X134263586Y-105828386D02*
X134292157Y-105842671D01*
X134292157Y-105842671D02*
X134349300Y-105842671D01*
X134349300Y-105842671D02*
X134377872Y-105828386D01*
X134377872Y-105828386D02*
X134392157Y-105814100D01*
X134392157Y-105814100D02*
X134406443Y-105785528D01*
X134406443Y-105785528D02*
X134406443Y-105728386D01*
X134406443Y-105728386D02*
X134392157Y-105699814D01*
X134392157Y-105699814D02*
X134377872Y-105685528D01*
X134377872Y-105685528D02*
X134349300Y-105671243D01*
X134535014Y-105842671D02*
X134535014Y-105542671D01*
X134706443Y-105842671D02*
X134577871Y-105671243D01*
X134706443Y-105542671D02*
X134535014Y-105714100D01*
X134820728Y-105571243D02*
X134835014Y-105556957D01*
X134835014Y-105556957D02*
X134863586Y-105542671D01*
X134863586Y-105542671D02*
X134935014Y-105542671D01*
X134935014Y-105542671D02*
X134963586Y-105556957D01*
X134963586Y-105556957D02*
X134977871Y-105571243D01*
X134977871Y-105571243D02*
X134992157Y-105599814D01*
X134992157Y-105599814D02*
X134992157Y-105628386D01*
X134992157Y-105628386D02*
X134977871Y-105671243D01*
X134977871Y-105671243D02*
X134806443Y-105842671D01*
X134806443Y-105842671D02*
X134992157Y-105842671D01*
X148861493Y-100173487D02*
X148875779Y-100159201D01*
X148875779Y-100159201D02*
X148904351Y-100144915D01*
X148904351Y-100144915D02*
X148975779Y-100144915D01*
X148975779Y-100144915D02*
X149004351Y-100159201D01*
X149004351Y-100159201D02*
X149018636Y-100173487D01*
X149018636Y-100173487D02*
X149032922Y-100202058D01*
X149032922Y-100202058D02*
X149032922Y-100230630D01*
X149032922Y-100230630D02*
X149018636Y-100273487D01*
X149018636Y-100273487D02*
X148847208Y-100444915D01*
X148847208Y-100444915D02*
X149032922Y-100444915D01*
X149161493Y-100416344D02*
X149175779Y-100430630D01*
X149175779Y-100430630D02*
X149161493Y-100444915D01*
X149161493Y-100444915D02*
X149147207Y-100430630D01*
X149147207Y-100430630D02*
X149161493Y-100416344D01*
X149161493Y-100416344D02*
X149161493Y-100444915D01*
X149290064Y-100173487D02*
X149304350Y-100159201D01*
X149304350Y-100159201D02*
X149332922Y-100144915D01*
X149332922Y-100144915D02*
X149404350Y-100144915D01*
X149404350Y-100144915D02*
X149432922Y-100159201D01*
X149432922Y-100159201D02*
X149447207Y-100173487D01*
X149447207Y-100173487D02*
X149461493Y-100202058D01*
X149461493Y-100202058D02*
X149461493Y-100230630D01*
X149461493Y-100230630D02*
X149447207Y-100273487D01*
X149447207Y-100273487D02*
X149275779Y-100444915D01*
X149275779Y-100444915D02*
X149461493Y-100444915D01*
X149718636Y-100244915D02*
X149718636Y-100444915D01*
X149590064Y-100244915D02*
X149590064Y-100402058D01*
X149590064Y-100402058D02*
X149604350Y-100430630D01*
X149604350Y-100430630D02*
X149632921Y-100444915D01*
X149632921Y-100444915D02*
X149675778Y-100444915D01*
X149675778Y-100444915D02*
X149704350Y-100430630D01*
X149704350Y-100430630D02*
X149718636Y-100416344D01*
X145002852Y-99827093D02*
X145002852Y-99998522D01*
X145002852Y-99912807D02*
X144702852Y-99912807D01*
X144702852Y-99912807D02*
X144745709Y-99941379D01*
X144745709Y-99941379D02*
X144774281Y-99969950D01*
X144774281Y-99969950D02*
X144788567Y-99998522D01*
X144702852Y-99641379D02*
X144702852Y-99612808D01*
X144702852Y-99612808D02*
X144717138Y-99584236D01*
X144717138Y-99584236D02*
X144731424Y-99569951D01*
X144731424Y-99569951D02*
X144759995Y-99555665D01*
X144759995Y-99555665D02*
X144817138Y-99541379D01*
X144817138Y-99541379D02*
X144888567Y-99541379D01*
X144888567Y-99541379D02*
X144945709Y-99555665D01*
X144945709Y-99555665D02*
X144974281Y-99569951D01*
X144974281Y-99569951D02*
X144988567Y-99584236D01*
X144988567Y-99584236D02*
X145002852Y-99612808D01*
X145002852Y-99612808D02*
X145002852Y-99641379D01*
X145002852Y-99641379D02*
X144988567Y-99669951D01*
X144988567Y-99669951D02*
X144974281Y-99684236D01*
X144974281Y-99684236D02*
X144945709Y-99698522D01*
X144945709Y-99698522D02*
X144888567Y-99712808D01*
X144888567Y-99712808D02*
X144817138Y-99712808D01*
X144817138Y-99712808D02*
X144759995Y-99698522D01*
X144759995Y-99698522D02*
X144731424Y-99684236D01*
X144731424Y-99684236D02*
X144717138Y-99669951D01*
X144717138Y-99669951D02*
X144702852Y-99641379D01*
X145002852Y-99412808D02*
X144702852Y-99412808D01*
X145002852Y-99241379D02*
X144831424Y-99369951D01*
X144702852Y-99241379D02*
X144874281Y-99412808D01*
X147331166Y-103488333D02*
X147345452Y-103474047D01*
X147345452Y-103474047D02*
X147374024Y-103459761D01*
X147374024Y-103459761D02*
X147445452Y-103459761D01*
X147445452Y-103459761D02*
X147474024Y-103474047D01*
X147474024Y-103474047D02*
X147488309Y-103488333D01*
X147488309Y-103488333D02*
X147502595Y-103516904D01*
X147502595Y-103516904D02*
X147502595Y-103545476D01*
X147502595Y-103545476D02*
X147488309Y-103588333D01*
X147488309Y-103588333D02*
X147316881Y-103759761D01*
X147316881Y-103759761D02*
X147502595Y-103759761D01*
X147631166Y-103731190D02*
X147645452Y-103745476D01*
X147645452Y-103745476D02*
X147631166Y-103759761D01*
X147631166Y-103759761D02*
X147616880Y-103745476D01*
X147616880Y-103745476D02*
X147631166Y-103731190D01*
X147631166Y-103731190D02*
X147631166Y-103759761D01*
X147759737Y-103488333D02*
X147774023Y-103474047D01*
X147774023Y-103474047D02*
X147802595Y-103459761D01*
X147802595Y-103459761D02*
X147874023Y-103459761D01*
X147874023Y-103459761D02*
X147902595Y-103474047D01*
X147902595Y-103474047D02*
X147916880Y-103488333D01*
X147916880Y-103488333D02*
X147931166Y-103516904D01*
X147931166Y-103516904D02*
X147931166Y-103545476D01*
X147931166Y-103545476D02*
X147916880Y-103588333D01*
X147916880Y-103588333D02*
X147745452Y-103759761D01*
X147745452Y-103759761D02*
X147931166Y-103759761D01*
X148188309Y-103559761D02*
X148188309Y-103759761D01*
X148059737Y-103559761D02*
X148059737Y-103716904D01*
X148059737Y-103716904D02*
X148074023Y-103745476D01*
X148074023Y-103745476D02*
X148102594Y-103759761D01*
X148102594Y-103759761D02*
X148145451Y-103759761D01*
X148145451Y-103759761D02*
X148174023Y-103745476D01*
X148174023Y-103745476D02*
X148188309Y-103731190D01*
X142570785Y-110318390D02*
X142556499Y-110304104D01*
X142556499Y-110304104D02*
X142542213Y-110275533D01*
X142542213Y-110275533D02*
X142542213Y-110204104D01*
X142542213Y-110204104D02*
X142556499Y-110175533D01*
X142556499Y-110175533D02*
X142570785Y-110161247D01*
X142570785Y-110161247D02*
X142599356Y-110146961D01*
X142599356Y-110146961D02*
X142627928Y-110146961D01*
X142627928Y-110146961D02*
X142670785Y-110161247D01*
X142670785Y-110161247D02*
X142842213Y-110332675D01*
X142842213Y-110332675D02*
X142842213Y-110146961D01*
X142570785Y-110032676D02*
X142556499Y-110018390D01*
X142556499Y-110018390D02*
X142542213Y-109989819D01*
X142542213Y-109989819D02*
X142542213Y-109918390D01*
X142542213Y-109918390D02*
X142556499Y-109889819D01*
X142556499Y-109889819D02*
X142570785Y-109875533D01*
X142570785Y-109875533D02*
X142599356Y-109861247D01*
X142599356Y-109861247D02*
X142627928Y-109861247D01*
X142627928Y-109861247D02*
X142670785Y-109875533D01*
X142670785Y-109875533D02*
X142842213Y-110046961D01*
X142842213Y-110046961D02*
X142842213Y-109861247D01*
X142642213Y-109604105D02*
X142842213Y-109604105D01*
X142642213Y-109732676D02*
X142799356Y-109732676D01*
X142799356Y-109732676D02*
X142827928Y-109718390D01*
X142827928Y-109718390D02*
X142842213Y-109689819D01*
X142842213Y-109689819D02*
X142842213Y-109646962D01*
X142842213Y-109646962D02*
X142827928Y-109618390D01*
X142827928Y-109618390D02*
X142813642Y-109604105D01*
X136062391Y-100213190D02*
X136048105Y-100198904D01*
X136048105Y-100198904D02*
X136033819Y-100170333D01*
X136033819Y-100170333D02*
X136033819Y-100098904D01*
X136033819Y-100098904D02*
X136048105Y-100070333D01*
X136048105Y-100070333D02*
X136062391Y-100056047D01*
X136062391Y-100056047D02*
X136090962Y-100041761D01*
X136090962Y-100041761D02*
X136119534Y-100041761D01*
X136119534Y-100041761D02*
X136162391Y-100056047D01*
X136162391Y-100056047D02*
X136333819Y-100227475D01*
X136333819Y-100227475D02*
X136333819Y-100041761D01*
X136305248Y-99913190D02*
X136319534Y-99898904D01*
X136319534Y-99898904D02*
X136333819Y-99913190D01*
X136333819Y-99913190D02*
X136319534Y-99927476D01*
X136319534Y-99927476D02*
X136305248Y-99913190D01*
X136305248Y-99913190D02*
X136333819Y-99913190D01*
X136062391Y-99784619D02*
X136048105Y-99770333D01*
X136048105Y-99770333D02*
X136033819Y-99741762D01*
X136033819Y-99741762D02*
X136033819Y-99670333D01*
X136033819Y-99670333D02*
X136048105Y-99641762D01*
X136048105Y-99641762D02*
X136062391Y-99627476D01*
X136062391Y-99627476D02*
X136090962Y-99613190D01*
X136090962Y-99613190D02*
X136119534Y-99613190D01*
X136119534Y-99613190D02*
X136162391Y-99627476D01*
X136162391Y-99627476D02*
X136333819Y-99798904D01*
X136333819Y-99798904D02*
X136333819Y-99613190D01*
X136133819Y-99356048D02*
X136333819Y-99356048D01*
X136133819Y-99484619D02*
X136290962Y-99484619D01*
X136290962Y-99484619D02*
X136319534Y-99470333D01*
X136319534Y-99470333D02*
X136333819Y-99441762D01*
X136333819Y-99441762D02*
X136333819Y-99398905D01*
X136333819Y-99398905D02*
X136319534Y-99370333D01*
X136319534Y-99370333D02*
X136305248Y-99356048D01*
X152096816Y-109023504D02*
X152111102Y-109009218D01*
X152111102Y-109009218D02*
X152139674Y-108994932D01*
X152139674Y-108994932D02*
X152211102Y-108994932D01*
X152211102Y-108994932D02*
X152239674Y-109009218D01*
X152239674Y-109009218D02*
X152253959Y-109023504D01*
X152253959Y-109023504D02*
X152268245Y-109052075D01*
X152268245Y-109052075D02*
X152268245Y-109080647D01*
X152268245Y-109080647D02*
X152253959Y-109123504D01*
X152253959Y-109123504D02*
X152082531Y-109294932D01*
X152082531Y-109294932D02*
X152268245Y-109294932D01*
X152396816Y-109266361D02*
X152411102Y-109280647D01*
X152411102Y-109280647D02*
X152396816Y-109294932D01*
X152396816Y-109294932D02*
X152382530Y-109280647D01*
X152382530Y-109280647D02*
X152396816Y-109266361D01*
X152396816Y-109266361D02*
X152396816Y-109294932D01*
X152525387Y-109023504D02*
X152539673Y-109009218D01*
X152539673Y-109009218D02*
X152568245Y-108994932D01*
X152568245Y-108994932D02*
X152639673Y-108994932D01*
X152639673Y-108994932D02*
X152668245Y-109009218D01*
X152668245Y-109009218D02*
X152682530Y-109023504D01*
X152682530Y-109023504D02*
X152696816Y-109052075D01*
X152696816Y-109052075D02*
X152696816Y-109080647D01*
X152696816Y-109080647D02*
X152682530Y-109123504D01*
X152682530Y-109123504D02*
X152511102Y-109294932D01*
X152511102Y-109294932D02*
X152696816Y-109294932D01*
X152953959Y-109094932D02*
X152953959Y-109294932D01*
X152825387Y-109094932D02*
X152825387Y-109252075D01*
X152825387Y-109252075D02*
X152839673Y-109280647D01*
X152839673Y-109280647D02*
X152868244Y-109294932D01*
X152868244Y-109294932D02*
X152911101Y-109294932D01*
X152911101Y-109294932D02*
X152939673Y-109280647D01*
X152939673Y-109280647D02*
X152953959Y-109266361D01*
D11*
X146271366Y-108088972D02*
X146223747Y-108041353D01*
X146223747Y-108041353D02*
X146176128Y-107946115D01*
X146176128Y-107946115D02*
X146271366Y-107755639D01*
X146271366Y-107755639D02*
X146223747Y-107660401D01*
X146223747Y-107660401D02*
X146176128Y-107612782D01*
D10*
X142654424Y-107734575D02*
X142640138Y-107720289D01*
X142640138Y-107720289D02*
X142625852Y-107691718D01*
X142625852Y-107691718D02*
X142625852Y-107620289D01*
X142625852Y-107620289D02*
X142640138Y-107591718D01*
X142640138Y-107591718D02*
X142654424Y-107577432D01*
X142654424Y-107577432D02*
X142682995Y-107563146D01*
X142682995Y-107563146D02*
X142711567Y-107563146D01*
X142711567Y-107563146D02*
X142754424Y-107577432D01*
X142754424Y-107577432D02*
X142925852Y-107748860D01*
X142925852Y-107748860D02*
X142925852Y-107563146D01*
X142654424Y-107448861D02*
X142640138Y-107434575D01*
X142640138Y-107434575D02*
X142625852Y-107406004D01*
X142625852Y-107406004D02*
X142625852Y-107334575D01*
X142625852Y-107334575D02*
X142640138Y-107306004D01*
X142640138Y-107306004D02*
X142654424Y-107291718D01*
X142654424Y-107291718D02*
X142682995Y-107277432D01*
X142682995Y-107277432D02*
X142711567Y-107277432D01*
X142711567Y-107277432D02*
X142754424Y-107291718D01*
X142754424Y-107291718D02*
X142925852Y-107463146D01*
X142925852Y-107463146D02*
X142925852Y-107277432D01*
X142725852Y-107020290D02*
X142925852Y-107020290D01*
X142725852Y-107148861D02*
X142882995Y-107148861D01*
X142882995Y-107148861D02*
X142911567Y-107134575D01*
X142911567Y-107134575D02*
X142925852Y-107106004D01*
X142925852Y-107106004D02*
X142925852Y-107063147D01*
X142925852Y-107063147D02*
X142911567Y-107034575D01*
X142911567Y-107034575D02*
X142897281Y-107020290D01*
X145981788Y-103355843D02*
X145981788Y-103527272D01*
X145981788Y-103441557D02*
X145681788Y-103441557D01*
X145681788Y-103441557D02*
X145724645Y-103470129D01*
X145724645Y-103470129D02*
X145753217Y-103498700D01*
X145753217Y-103498700D02*
X145767503Y-103527272D01*
X145981788Y-103227272D02*
X145681788Y-103227272D01*
X145981788Y-103055843D02*
X145810360Y-103184415D01*
X145681788Y-103055843D02*
X145853217Y-103227272D01*
X132974318Y-104704032D02*
X132988604Y-104689746D01*
X132988604Y-104689746D02*
X133017176Y-104675460D01*
X133017176Y-104675460D02*
X133088604Y-104675460D01*
X133088604Y-104675460D02*
X133117176Y-104689746D01*
X133117176Y-104689746D02*
X133131461Y-104704032D01*
X133131461Y-104704032D02*
X133145747Y-104732603D01*
X133145747Y-104732603D02*
X133145747Y-104761175D01*
X133145747Y-104761175D02*
X133131461Y-104804032D01*
X133131461Y-104804032D02*
X132960033Y-104975460D01*
X132960033Y-104975460D02*
X133145747Y-104975460D01*
X133274318Y-104946889D02*
X133288604Y-104961175D01*
X133288604Y-104961175D02*
X133274318Y-104975460D01*
X133274318Y-104975460D02*
X133260032Y-104961175D01*
X133260032Y-104961175D02*
X133274318Y-104946889D01*
X133274318Y-104946889D02*
X133274318Y-104975460D01*
X133402889Y-104704032D02*
X133417175Y-104689746D01*
X133417175Y-104689746D02*
X133445747Y-104675460D01*
X133445747Y-104675460D02*
X133517175Y-104675460D01*
X133517175Y-104675460D02*
X133545747Y-104689746D01*
X133545747Y-104689746D02*
X133560032Y-104704032D01*
X133560032Y-104704032D02*
X133574318Y-104732603D01*
X133574318Y-104732603D02*
X133574318Y-104761175D01*
X133574318Y-104761175D02*
X133560032Y-104804032D01*
X133560032Y-104804032D02*
X133388604Y-104975460D01*
X133388604Y-104975460D02*
X133574318Y-104975460D01*
X133831461Y-104775460D02*
X133831461Y-104975460D01*
X133702889Y-104775460D02*
X133702889Y-104932603D01*
X133702889Y-104932603D02*
X133717175Y-104961175D01*
X133717175Y-104961175D02*
X133745746Y-104975460D01*
X133745746Y-104975460D02*
X133788603Y-104975460D01*
X133788603Y-104975460D02*
X133817175Y-104961175D01*
X133817175Y-104961175D02*
X133831461Y-104946889D01*
X152119303Y-108331133D02*
X152133589Y-108316847D01*
X152133589Y-108316847D02*
X152162161Y-108302561D01*
X152162161Y-108302561D02*
X152233589Y-108302561D01*
X152233589Y-108302561D02*
X152262161Y-108316847D01*
X152262161Y-108316847D02*
X152276446Y-108331133D01*
X152276446Y-108331133D02*
X152290732Y-108359704D01*
X152290732Y-108359704D02*
X152290732Y-108388276D01*
X152290732Y-108388276D02*
X152276446Y-108431133D01*
X152276446Y-108431133D02*
X152105018Y-108602561D01*
X152105018Y-108602561D02*
X152290732Y-108602561D01*
X152419303Y-108573990D02*
X152433589Y-108588276D01*
X152433589Y-108588276D02*
X152419303Y-108602561D01*
X152419303Y-108602561D02*
X152405017Y-108588276D01*
X152405017Y-108588276D02*
X152419303Y-108573990D01*
X152419303Y-108573990D02*
X152419303Y-108602561D01*
X152547874Y-108331133D02*
X152562160Y-108316847D01*
X152562160Y-108316847D02*
X152590732Y-108302561D01*
X152590732Y-108302561D02*
X152662160Y-108302561D01*
X152662160Y-108302561D02*
X152690732Y-108316847D01*
X152690732Y-108316847D02*
X152705017Y-108331133D01*
X152705017Y-108331133D02*
X152719303Y-108359704D01*
X152719303Y-108359704D02*
X152719303Y-108388276D01*
X152719303Y-108388276D02*
X152705017Y-108431133D01*
X152705017Y-108431133D02*
X152533589Y-108602561D01*
X152533589Y-108602561D02*
X152719303Y-108602561D01*
X152976446Y-108402561D02*
X152976446Y-108602561D01*
X152847874Y-108402561D02*
X152847874Y-108559704D01*
X152847874Y-108559704D02*
X152862160Y-108588276D01*
X152862160Y-108588276D02*
X152890731Y-108602561D01*
X152890731Y-108602561D02*
X152933588Y-108602561D01*
X152933588Y-108602561D02*
X152962160Y-108588276D01*
X152962160Y-108588276D02*
X152976446Y-108573990D01*
X137058552Y-100114657D02*
X137058552Y-100286086D01*
X137058552Y-100200371D02*
X136758552Y-100200371D01*
X136758552Y-100200371D02*
X136801409Y-100228943D01*
X136801409Y-100228943D02*
X136829981Y-100257514D01*
X136829981Y-100257514D02*
X136844267Y-100286086D01*
X136758552Y-99928943D02*
X136758552Y-99900372D01*
X136758552Y-99900372D02*
X136772838Y-99871800D01*
X136772838Y-99871800D02*
X136787124Y-99857515D01*
X136787124Y-99857515D02*
X136815695Y-99843229D01*
X136815695Y-99843229D02*
X136872838Y-99828943D01*
X136872838Y-99828943D02*
X136944267Y-99828943D01*
X136944267Y-99828943D02*
X137001409Y-99843229D01*
X137001409Y-99843229D02*
X137029981Y-99857515D01*
X137029981Y-99857515D02*
X137044267Y-99871800D01*
X137044267Y-99871800D02*
X137058552Y-99900372D01*
X137058552Y-99900372D02*
X137058552Y-99928943D01*
X137058552Y-99928943D02*
X137044267Y-99957515D01*
X137044267Y-99957515D02*
X137029981Y-99971800D01*
X137029981Y-99971800D02*
X137001409Y-99986086D01*
X137001409Y-99986086D02*
X136944267Y-100000372D01*
X136944267Y-100000372D02*
X136872838Y-100000372D01*
X136872838Y-100000372D02*
X136815695Y-99986086D01*
X136815695Y-99986086D02*
X136787124Y-99971800D01*
X136787124Y-99971800D02*
X136772838Y-99957515D01*
X136772838Y-99957515D02*
X136758552Y-99928943D01*
X136758552Y-99643229D02*
X136758552Y-99614658D01*
X136758552Y-99614658D02*
X136772838Y-99586086D01*
X136772838Y-99586086D02*
X136787124Y-99571801D01*
X136787124Y-99571801D02*
X136815695Y-99557515D01*
X136815695Y-99557515D02*
X136872838Y-99543229D01*
X136872838Y-99543229D02*
X136944267Y-99543229D01*
X136944267Y-99543229D02*
X137001409Y-99557515D01*
X137001409Y-99557515D02*
X137029981Y-99571801D01*
X137029981Y-99571801D02*
X137044267Y-99586086D01*
X137044267Y-99586086D02*
X137058552Y-99614658D01*
X137058552Y-99614658D02*
X137058552Y-99643229D01*
X137058552Y-99643229D02*
X137044267Y-99671801D01*
X137044267Y-99671801D02*
X137029981Y-99686086D01*
X137029981Y-99686086D02*
X137001409Y-99700372D01*
X137001409Y-99700372D02*
X136944267Y-99714658D01*
X136944267Y-99714658D02*
X136872838Y-99714658D01*
X136872838Y-99714658D02*
X136815695Y-99700372D01*
X136815695Y-99700372D02*
X136787124Y-99686086D01*
X136787124Y-99686086D02*
X136772838Y-99671801D01*
X136772838Y-99671801D02*
X136758552Y-99643229D01*
X137058552Y-99414658D02*
X136758552Y-99414658D01*
X137058552Y-99243229D02*
X136887124Y-99371801D01*
X136758552Y-99243229D02*
X136929981Y-99414658D01*
X146966252Y-100057100D02*
X146951966Y-100042814D01*
X146951966Y-100042814D02*
X146937680Y-100014243D01*
X146937680Y-100014243D02*
X146937680Y-99942814D01*
X146937680Y-99942814D02*
X146951966Y-99914243D01*
X146951966Y-99914243D02*
X146966252Y-99899957D01*
X146966252Y-99899957D02*
X146994823Y-99885671D01*
X146994823Y-99885671D02*
X147023395Y-99885671D01*
X147023395Y-99885671D02*
X147066252Y-99899957D01*
X147066252Y-99899957D02*
X147237680Y-100071385D01*
X147237680Y-100071385D02*
X147237680Y-99885671D01*
X147209109Y-99757100D02*
X147223395Y-99742814D01*
X147223395Y-99742814D02*
X147237680Y-99757100D01*
X147237680Y-99757100D02*
X147223395Y-99771386D01*
X147223395Y-99771386D02*
X147209109Y-99757100D01*
X147209109Y-99757100D02*
X147237680Y-99757100D01*
X146966252Y-99628529D02*
X146951966Y-99614243D01*
X146951966Y-99614243D02*
X146937680Y-99585672D01*
X146937680Y-99585672D02*
X146937680Y-99514243D01*
X146937680Y-99514243D02*
X146951966Y-99485672D01*
X146951966Y-99485672D02*
X146966252Y-99471386D01*
X146966252Y-99471386D02*
X146994823Y-99457100D01*
X146994823Y-99457100D02*
X147023395Y-99457100D01*
X147023395Y-99457100D02*
X147066252Y-99471386D01*
X147066252Y-99471386D02*
X147237680Y-99642814D01*
X147237680Y-99642814D02*
X147237680Y-99457100D01*
X147037680Y-99199958D02*
X147237680Y-99199958D01*
X147037680Y-99328529D02*
X147194823Y-99328529D01*
X147194823Y-99328529D02*
X147223395Y-99314243D01*
X147223395Y-99314243D02*
X147237680Y-99285672D01*
X147237680Y-99285672D02*
X147237680Y-99242815D01*
X147237680Y-99242815D02*
X147223395Y-99214243D01*
X147223395Y-99214243D02*
X147209109Y-99199958D01*
D12*
%TO.C,U12*%
X133952387Y-106577878D02*
G75*
G03*
X133952387Y-106577878I-30000J0D01*
G01*
D13*
%TO.C,U9*%
X132041464Y-107470651D02*
G75*
G03*
X132041464Y-107470651I-75000J0D01*
G01*
D12*
X132484464Y-107621651D02*
G75*
G03*
X132484464Y-107621651I-30000J0D01*
G01*
D14*
%TO.C,U14*%
X126999500Y-107766000D02*
X126999500Y-105734000D01*
X126999500Y-105734000D02*
X128600500Y-105734000D01*
X128600500Y-105734000D02*
X128600500Y-107766000D01*
X128600500Y-107766000D02*
X126999500Y-107766000D01*
D12*
X128856500Y-108475000D02*
G75*
G03*
X128856500Y-108475000I-30000J0D01*
G01*
D14*
%TO.C,U15*%
X136999500Y-107766000D02*
X136999500Y-105734000D01*
X136999500Y-105734000D02*
X138600500Y-105734000D01*
X138600500Y-105734000D02*
X138600500Y-107766000D01*
X138600500Y-107766000D02*
X136999500Y-107766000D01*
D12*
X138856500Y-108475000D02*
G75*
G03*
X138856500Y-108475000I-30000J0D01*
G01*
%TO.C,XTAL1*%
X133579526Y-111643541D02*
G75*
G03*
X133579526Y-111643541I-30000J0D01*
G01*
D15*
X133737526Y-111754541D02*
G75*
G03*
X133737526Y-111754541I-150000J0D01*
G01*
D16*
%TO.C,J6*%
X131501369Y-98513144D02*
X134301369Y-98513144D01*
D11*
X133401369Y-102738144D02*
X140801369Y-102738144D01*
X133401369Y-97188144D02*
X133401369Y-102738144D01*
X133401369Y-97188144D02*
X140801369Y-97188144D01*
D16*
X134301369Y-100393144D02*
X135151369Y-100393144D01*
X134301369Y-98513144D02*
X134301369Y-100393144D01*
X135151369Y-98513144D02*
X135151369Y-100393144D01*
X135151369Y-98513144D02*
X139051369Y-98513144D01*
D11*
X136593369Y-99963144D02*
X137609369Y-99963144D01*
X137101369Y-99455144D02*
X137101369Y-100471144D01*
D16*
X139051369Y-100393144D02*
X139901369Y-100393144D01*
X139051369Y-98513144D02*
X139051369Y-100393144D01*
X139901369Y-98513144D02*
X139901369Y-100393144D01*
X139901369Y-98513144D02*
X142701369Y-98513144D01*
D11*
X140801369Y-97188144D02*
X140801369Y-102738144D01*
%TO.C,U5*%
X147600000Y-113250000D02*
G75*
G03*
X147600000Y-113250000I-50000J0D01*
G01*
D14*
%TO.C,U16*%
X146999500Y-107766000D02*
X146999500Y-105734000D01*
X146999500Y-105734000D02*
X148600500Y-105734000D01*
X148600500Y-105734000D02*
X148600500Y-107766000D01*
X148600500Y-107766000D02*
X146999500Y-107766000D01*
D12*
X148856500Y-108475000D02*
G75*
G03*
X148856500Y-108475000I-30000J0D01*
G01*
%TD*%
M02*
