%TF.GenerationSoftware,KiCad,Pcbnew,7.0.10*%
%TF.CreationDate,2024-02-22T14:43:34-08:00*%
%TF.ProjectId,beeper-design,62656570-6572-42d6-9465-7369676e2e6b,rev?*%
%TF.SameCoordinates,Original*%
%TF.FileFunction,Legend,Top*%
%TF.FilePolarity,Positive*%
%FSLAX46Y46*%
G04 Gerber Fmt 4.6, Leading zero omitted, Abs format (unit mm)*
G04 Created by KiCad (PCBNEW 7.0.10) date 2024-02-22 14:43:34*
%MOMM*%
%LPD*%
G01*
G04 APERTURE LIST*
%ADD10C,0.100000*%
%ADD11C,0.180000*%
%ADD12C,0.254000*%
%ADD13C,0.152000*%
%ADD14C,0.150000*%
%ADD15C,0.076200*%
%ADD16C,0.200000*%
%TA.AperFunction,Profile*%
%ADD17C,0.050000*%
%TD*%
G04 APERTURE END LIST*
D10*
X145010000Y-108265228D02*
X144981428Y-108293800D01*
X144981428Y-108293800D02*
X144895714Y-108322371D01*
X144895714Y-108322371D02*
X144838571Y-108322371D01*
X144838571Y-108322371D02*
X144752857Y-108293800D01*
X144752857Y-108293800D02*
X144695714Y-108236657D01*
X144695714Y-108236657D02*
X144667143Y-108179514D01*
X144667143Y-108179514D02*
X144638571Y-108065228D01*
X144638571Y-108065228D02*
X144638571Y-107979514D01*
X144638571Y-107979514D02*
X144667143Y-107865228D01*
X144667143Y-107865228D02*
X144695714Y-107808085D01*
X144695714Y-107808085D02*
X144752857Y-107750942D01*
X144752857Y-107750942D02*
X144838571Y-107722371D01*
X144838571Y-107722371D02*
X144895714Y-107722371D01*
X144895714Y-107722371D02*
X144981428Y-107750942D01*
X144981428Y-107750942D02*
X145010000Y-107779514D01*
X145238571Y-107779514D02*
X145267143Y-107750942D01*
X145267143Y-107750942D02*
X145324286Y-107722371D01*
X145324286Y-107722371D02*
X145467143Y-107722371D01*
X145467143Y-107722371D02*
X145524286Y-107750942D01*
X145524286Y-107750942D02*
X145552857Y-107779514D01*
X145552857Y-107779514D02*
X145581428Y-107836657D01*
X145581428Y-107836657D02*
X145581428Y-107893800D01*
X145581428Y-107893800D02*
X145552857Y-107979514D01*
X145552857Y-107979514D02*
X145210000Y-108322371D01*
X145210000Y-108322371D02*
X145581428Y-108322371D01*
X140004285Y-104765228D02*
X139975713Y-104793800D01*
X139975713Y-104793800D02*
X139889999Y-104822371D01*
X139889999Y-104822371D02*
X139832856Y-104822371D01*
X139832856Y-104822371D02*
X139747142Y-104793800D01*
X139747142Y-104793800D02*
X139689999Y-104736657D01*
X139689999Y-104736657D02*
X139661428Y-104679514D01*
X139661428Y-104679514D02*
X139632856Y-104565228D01*
X139632856Y-104565228D02*
X139632856Y-104479514D01*
X139632856Y-104479514D02*
X139661428Y-104365228D01*
X139661428Y-104365228D02*
X139689999Y-104308085D01*
X139689999Y-104308085D02*
X139747142Y-104250942D01*
X139747142Y-104250942D02*
X139832856Y-104222371D01*
X139832856Y-104222371D02*
X139889999Y-104222371D01*
X139889999Y-104222371D02*
X139975713Y-104250942D01*
X139975713Y-104250942D02*
X140004285Y-104279514D01*
X140575713Y-104822371D02*
X140232856Y-104822371D01*
X140404285Y-104822371D02*
X140404285Y-104222371D01*
X140404285Y-104222371D02*
X140347142Y-104308085D01*
X140347142Y-104308085D02*
X140289999Y-104365228D01*
X140289999Y-104365228D02*
X140232856Y-104393800D01*
X140947142Y-104222371D02*
X141004285Y-104222371D01*
X141004285Y-104222371D02*
X141061428Y-104250942D01*
X141061428Y-104250942D02*
X141090000Y-104279514D01*
X141090000Y-104279514D02*
X141118571Y-104336657D01*
X141118571Y-104336657D02*
X141147142Y-104450942D01*
X141147142Y-104450942D02*
X141147142Y-104593800D01*
X141147142Y-104593800D02*
X141118571Y-104708085D01*
X141118571Y-104708085D02*
X141090000Y-104765228D01*
X141090000Y-104765228D02*
X141061428Y-104793800D01*
X141061428Y-104793800D02*
X141004285Y-104822371D01*
X141004285Y-104822371D02*
X140947142Y-104822371D01*
X140947142Y-104822371D02*
X140890000Y-104793800D01*
X140890000Y-104793800D02*
X140861428Y-104765228D01*
X140861428Y-104765228D02*
X140832857Y-104708085D01*
X140832857Y-104708085D02*
X140804285Y-104593800D01*
X140804285Y-104593800D02*
X140804285Y-104450942D01*
X140804285Y-104450942D02*
X140832857Y-104336657D01*
X140832857Y-104336657D02*
X140861428Y-104279514D01*
X140861428Y-104279514D02*
X140890000Y-104250942D01*
X140890000Y-104250942D02*
X140947142Y-104222371D01*
X134924285Y-103185228D02*
X134895713Y-103213800D01*
X134895713Y-103213800D02*
X134809999Y-103242371D01*
X134809999Y-103242371D02*
X134752856Y-103242371D01*
X134752856Y-103242371D02*
X134667142Y-103213800D01*
X134667142Y-103213800D02*
X134609999Y-103156657D01*
X134609999Y-103156657D02*
X134581428Y-103099514D01*
X134581428Y-103099514D02*
X134552856Y-102985228D01*
X134552856Y-102985228D02*
X134552856Y-102899514D01*
X134552856Y-102899514D02*
X134581428Y-102785228D01*
X134581428Y-102785228D02*
X134609999Y-102728085D01*
X134609999Y-102728085D02*
X134667142Y-102670942D01*
X134667142Y-102670942D02*
X134752856Y-102642371D01*
X134752856Y-102642371D02*
X134809999Y-102642371D01*
X134809999Y-102642371D02*
X134895713Y-102670942D01*
X134895713Y-102670942D02*
X134924285Y-102699514D01*
X135438571Y-102842371D02*
X135438571Y-103242371D01*
X135295713Y-102613800D02*
X135152856Y-103042371D01*
X135152856Y-103042371D02*
X135524285Y-103042371D01*
X135695714Y-102642371D02*
X136067142Y-102642371D01*
X136067142Y-102642371D02*
X135867142Y-102870942D01*
X135867142Y-102870942D02*
X135952857Y-102870942D01*
X135952857Y-102870942D02*
X136010000Y-102899514D01*
X136010000Y-102899514D02*
X136038571Y-102928085D01*
X136038571Y-102928085D02*
X136067142Y-102985228D01*
X136067142Y-102985228D02*
X136067142Y-103128085D01*
X136067142Y-103128085D02*
X136038571Y-103185228D01*
X136038571Y-103185228D02*
X136010000Y-103213800D01*
X136010000Y-103213800D02*
X135952857Y-103242371D01*
X135952857Y-103242371D02*
X135781428Y-103242371D01*
X135781428Y-103242371D02*
X135724285Y-103213800D01*
X135724285Y-103213800D02*
X135695714Y-103185228D01*
X130324285Y-111042371D02*
X130124285Y-110756657D01*
X129981428Y-111042371D02*
X129981428Y-110442371D01*
X129981428Y-110442371D02*
X130209999Y-110442371D01*
X130209999Y-110442371D02*
X130267142Y-110470942D01*
X130267142Y-110470942D02*
X130295713Y-110499514D01*
X130295713Y-110499514D02*
X130324285Y-110556657D01*
X130324285Y-110556657D02*
X130324285Y-110642371D01*
X130324285Y-110642371D02*
X130295713Y-110699514D01*
X130295713Y-110699514D02*
X130267142Y-110728085D01*
X130267142Y-110728085D02*
X130209999Y-110756657D01*
X130209999Y-110756657D02*
X129981428Y-110756657D01*
X130895713Y-111042371D02*
X130552856Y-111042371D01*
X130724285Y-111042371D02*
X130724285Y-110442371D01*
X130724285Y-110442371D02*
X130667142Y-110528085D01*
X130667142Y-110528085D02*
X130609999Y-110585228D01*
X130609999Y-110585228D02*
X130552856Y-110613800D01*
X131410000Y-110442371D02*
X131295714Y-110442371D01*
X131295714Y-110442371D02*
X131238571Y-110470942D01*
X131238571Y-110470942D02*
X131210000Y-110499514D01*
X131210000Y-110499514D02*
X131152857Y-110585228D01*
X131152857Y-110585228D02*
X131124285Y-110699514D01*
X131124285Y-110699514D02*
X131124285Y-110928085D01*
X131124285Y-110928085D02*
X131152857Y-110985228D01*
X131152857Y-110985228D02*
X131181428Y-111013800D01*
X131181428Y-111013800D02*
X131238571Y-111042371D01*
X131238571Y-111042371D02*
X131352857Y-111042371D01*
X131352857Y-111042371D02*
X131410000Y-111013800D01*
X131410000Y-111013800D02*
X131438571Y-110985228D01*
X131438571Y-110985228D02*
X131467142Y-110928085D01*
X131467142Y-110928085D02*
X131467142Y-110785228D01*
X131467142Y-110785228D02*
X131438571Y-110728085D01*
X131438571Y-110728085D02*
X131410000Y-110699514D01*
X131410000Y-110699514D02*
X131352857Y-110670942D01*
X131352857Y-110670942D02*
X131238571Y-110670942D01*
X131238571Y-110670942D02*
X131181428Y-110699514D01*
X131181428Y-110699514D02*
X131152857Y-110728085D01*
X131152857Y-110728085D02*
X131124285Y-110785228D01*
X144410000Y-105945228D02*
X144381428Y-105973800D01*
X144381428Y-105973800D02*
X144295714Y-106002371D01*
X144295714Y-106002371D02*
X144238571Y-106002371D01*
X144238571Y-106002371D02*
X144152857Y-105973800D01*
X144152857Y-105973800D02*
X144095714Y-105916657D01*
X144095714Y-105916657D02*
X144067143Y-105859514D01*
X144067143Y-105859514D02*
X144038571Y-105745228D01*
X144038571Y-105745228D02*
X144038571Y-105659514D01*
X144038571Y-105659514D02*
X144067143Y-105545228D01*
X144067143Y-105545228D02*
X144095714Y-105488085D01*
X144095714Y-105488085D02*
X144152857Y-105430942D01*
X144152857Y-105430942D02*
X144238571Y-105402371D01*
X144238571Y-105402371D02*
X144295714Y-105402371D01*
X144295714Y-105402371D02*
X144381428Y-105430942D01*
X144381428Y-105430942D02*
X144410000Y-105459514D01*
X144981428Y-106002371D02*
X144638571Y-106002371D01*
X144810000Y-106002371D02*
X144810000Y-105402371D01*
X144810000Y-105402371D02*
X144752857Y-105488085D01*
X144752857Y-105488085D02*
X144695714Y-105545228D01*
X144695714Y-105545228D02*
X144638571Y-105573800D01*
X147610000Y-99172371D02*
X147410000Y-98886657D01*
X147267143Y-99172371D02*
X147267143Y-98572371D01*
X147267143Y-98572371D02*
X147495714Y-98572371D01*
X147495714Y-98572371D02*
X147552857Y-98600942D01*
X147552857Y-98600942D02*
X147581428Y-98629514D01*
X147581428Y-98629514D02*
X147610000Y-98686657D01*
X147610000Y-98686657D02*
X147610000Y-98772371D01*
X147610000Y-98772371D02*
X147581428Y-98829514D01*
X147581428Y-98829514D02*
X147552857Y-98858085D01*
X147552857Y-98858085D02*
X147495714Y-98886657D01*
X147495714Y-98886657D02*
X147267143Y-98886657D01*
X147810000Y-98572371D02*
X148210000Y-98572371D01*
X148210000Y-98572371D02*
X147952857Y-99172371D01*
X151568646Y-115222371D02*
X151568646Y-115708085D01*
X151568646Y-115708085D02*
X151597217Y-115765228D01*
X151597217Y-115765228D02*
X151625789Y-115793800D01*
X151625789Y-115793800D02*
X151682931Y-115822371D01*
X151682931Y-115822371D02*
X151797217Y-115822371D01*
X151797217Y-115822371D02*
X151854360Y-115793800D01*
X151854360Y-115793800D02*
X151882931Y-115765228D01*
X151882931Y-115765228D02*
X151911503Y-115708085D01*
X151911503Y-115708085D02*
X151911503Y-115222371D01*
X152482931Y-115222371D02*
X152197217Y-115222371D01*
X152197217Y-115222371D02*
X152168645Y-115508085D01*
X152168645Y-115508085D02*
X152197217Y-115479514D01*
X152197217Y-115479514D02*
X152254360Y-115450942D01*
X152254360Y-115450942D02*
X152397217Y-115450942D01*
X152397217Y-115450942D02*
X152454360Y-115479514D01*
X152454360Y-115479514D02*
X152482931Y-115508085D01*
X152482931Y-115508085D02*
X152511502Y-115565228D01*
X152511502Y-115565228D02*
X152511502Y-115708085D01*
X152511502Y-115708085D02*
X152482931Y-115765228D01*
X152482931Y-115765228D02*
X152454360Y-115793800D01*
X152454360Y-115793800D02*
X152397217Y-115822371D01*
X152397217Y-115822371D02*
X152254360Y-115822371D01*
X152254360Y-115822371D02*
X152197217Y-115793800D01*
X152197217Y-115793800D02*
X152168645Y-115765228D01*
X148864285Y-99145228D02*
X148835713Y-99173800D01*
X148835713Y-99173800D02*
X148749999Y-99202371D01*
X148749999Y-99202371D02*
X148692856Y-99202371D01*
X148692856Y-99202371D02*
X148607142Y-99173800D01*
X148607142Y-99173800D02*
X148549999Y-99116657D01*
X148549999Y-99116657D02*
X148521428Y-99059514D01*
X148521428Y-99059514D02*
X148492856Y-98945228D01*
X148492856Y-98945228D02*
X148492856Y-98859514D01*
X148492856Y-98859514D02*
X148521428Y-98745228D01*
X148521428Y-98745228D02*
X148549999Y-98688085D01*
X148549999Y-98688085D02*
X148607142Y-98630942D01*
X148607142Y-98630942D02*
X148692856Y-98602371D01*
X148692856Y-98602371D02*
X148749999Y-98602371D01*
X148749999Y-98602371D02*
X148835713Y-98630942D01*
X148835713Y-98630942D02*
X148864285Y-98659514D01*
X149092856Y-98659514D02*
X149121428Y-98630942D01*
X149121428Y-98630942D02*
X149178571Y-98602371D01*
X149178571Y-98602371D02*
X149321428Y-98602371D01*
X149321428Y-98602371D02*
X149378571Y-98630942D01*
X149378571Y-98630942D02*
X149407142Y-98659514D01*
X149407142Y-98659514D02*
X149435713Y-98716657D01*
X149435713Y-98716657D02*
X149435713Y-98773800D01*
X149435713Y-98773800D02*
X149407142Y-98859514D01*
X149407142Y-98859514D02*
X149064285Y-99202371D01*
X149064285Y-99202371D02*
X149435713Y-99202371D01*
X149635714Y-98602371D02*
X150007142Y-98602371D01*
X150007142Y-98602371D02*
X149807142Y-98830942D01*
X149807142Y-98830942D02*
X149892857Y-98830942D01*
X149892857Y-98830942D02*
X149950000Y-98859514D01*
X149950000Y-98859514D02*
X149978571Y-98888085D01*
X149978571Y-98888085D02*
X150007142Y-98945228D01*
X150007142Y-98945228D02*
X150007142Y-99088085D01*
X150007142Y-99088085D02*
X149978571Y-99145228D01*
X149978571Y-99145228D02*
X149950000Y-99173800D01*
X149950000Y-99173800D02*
X149892857Y-99202371D01*
X149892857Y-99202371D02*
X149721428Y-99202371D01*
X149721428Y-99202371D02*
X149664285Y-99173800D01*
X149664285Y-99173800D02*
X149635714Y-99145228D01*
X150914285Y-99155228D02*
X150885713Y-99183800D01*
X150885713Y-99183800D02*
X150799999Y-99212371D01*
X150799999Y-99212371D02*
X150742856Y-99212371D01*
X150742856Y-99212371D02*
X150657142Y-99183800D01*
X150657142Y-99183800D02*
X150599999Y-99126657D01*
X150599999Y-99126657D02*
X150571428Y-99069514D01*
X150571428Y-99069514D02*
X150542856Y-98955228D01*
X150542856Y-98955228D02*
X150542856Y-98869514D01*
X150542856Y-98869514D02*
X150571428Y-98755228D01*
X150571428Y-98755228D02*
X150599999Y-98698085D01*
X150599999Y-98698085D02*
X150657142Y-98640942D01*
X150657142Y-98640942D02*
X150742856Y-98612371D01*
X150742856Y-98612371D02*
X150799999Y-98612371D01*
X150799999Y-98612371D02*
X150885713Y-98640942D01*
X150885713Y-98640942D02*
X150914285Y-98669514D01*
X151485713Y-99212371D02*
X151142856Y-99212371D01*
X151314285Y-99212371D02*
X151314285Y-98612371D01*
X151314285Y-98612371D02*
X151257142Y-98698085D01*
X151257142Y-98698085D02*
X151199999Y-98755228D01*
X151199999Y-98755228D02*
X151142856Y-98783800D01*
X152000000Y-98612371D02*
X151885714Y-98612371D01*
X151885714Y-98612371D02*
X151828571Y-98640942D01*
X151828571Y-98640942D02*
X151800000Y-98669514D01*
X151800000Y-98669514D02*
X151742857Y-98755228D01*
X151742857Y-98755228D02*
X151714285Y-98869514D01*
X151714285Y-98869514D02*
X151714285Y-99098085D01*
X151714285Y-99098085D02*
X151742857Y-99155228D01*
X151742857Y-99155228D02*
X151771428Y-99183800D01*
X151771428Y-99183800D02*
X151828571Y-99212371D01*
X151828571Y-99212371D02*
X151942857Y-99212371D01*
X151942857Y-99212371D02*
X152000000Y-99183800D01*
X152000000Y-99183800D02*
X152028571Y-99155228D01*
X152028571Y-99155228D02*
X152057142Y-99098085D01*
X152057142Y-99098085D02*
X152057142Y-98955228D01*
X152057142Y-98955228D02*
X152028571Y-98898085D01*
X152028571Y-98898085D02*
X152000000Y-98869514D01*
X152000000Y-98869514D02*
X151942857Y-98840942D01*
X151942857Y-98840942D02*
X151828571Y-98840942D01*
X151828571Y-98840942D02*
X151771428Y-98869514D01*
X151771428Y-98869514D02*
X151742857Y-98898085D01*
X151742857Y-98898085D02*
X151714285Y-98955228D01*
X152004285Y-103925228D02*
X151975713Y-103953800D01*
X151975713Y-103953800D02*
X151889999Y-103982371D01*
X151889999Y-103982371D02*
X151832856Y-103982371D01*
X151832856Y-103982371D02*
X151747142Y-103953800D01*
X151747142Y-103953800D02*
X151689999Y-103896657D01*
X151689999Y-103896657D02*
X151661428Y-103839514D01*
X151661428Y-103839514D02*
X151632856Y-103725228D01*
X151632856Y-103725228D02*
X151632856Y-103639514D01*
X151632856Y-103639514D02*
X151661428Y-103525228D01*
X151661428Y-103525228D02*
X151689999Y-103468085D01*
X151689999Y-103468085D02*
X151747142Y-103410942D01*
X151747142Y-103410942D02*
X151832856Y-103382371D01*
X151832856Y-103382371D02*
X151889999Y-103382371D01*
X151889999Y-103382371D02*
X151975713Y-103410942D01*
X151975713Y-103410942D02*
X152004285Y-103439514D01*
X152575713Y-103982371D02*
X152232856Y-103982371D01*
X152404285Y-103982371D02*
X152404285Y-103382371D01*
X152404285Y-103382371D02*
X152347142Y-103468085D01*
X152347142Y-103468085D02*
X152289999Y-103525228D01*
X152289999Y-103525228D02*
X152232856Y-103553800D01*
X152775714Y-103382371D02*
X153175714Y-103382371D01*
X153175714Y-103382371D02*
X152918571Y-103982371D01*
X151774285Y-113385228D02*
X151745713Y-113413800D01*
X151745713Y-113413800D02*
X151659999Y-113442371D01*
X151659999Y-113442371D02*
X151602856Y-113442371D01*
X151602856Y-113442371D02*
X151517142Y-113413800D01*
X151517142Y-113413800D02*
X151459999Y-113356657D01*
X151459999Y-113356657D02*
X151431428Y-113299514D01*
X151431428Y-113299514D02*
X151402856Y-113185228D01*
X151402856Y-113185228D02*
X151402856Y-113099514D01*
X151402856Y-113099514D02*
X151431428Y-112985228D01*
X151431428Y-112985228D02*
X151459999Y-112928085D01*
X151459999Y-112928085D02*
X151517142Y-112870942D01*
X151517142Y-112870942D02*
X151602856Y-112842371D01*
X151602856Y-112842371D02*
X151659999Y-112842371D01*
X151659999Y-112842371D02*
X151745713Y-112870942D01*
X151745713Y-112870942D02*
X151774285Y-112899514D01*
X151974285Y-112842371D02*
X152345713Y-112842371D01*
X152345713Y-112842371D02*
X152145713Y-113070942D01*
X152145713Y-113070942D02*
X152231428Y-113070942D01*
X152231428Y-113070942D02*
X152288571Y-113099514D01*
X152288571Y-113099514D02*
X152317142Y-113128085D01*
X152317142Y-113128085D02*
X152345713Y-113185228D01*
X152345713Y-113185228D02*
X152345713Y-113328085D01*
X152345713Y-113328085D02*
X152317142Y-113385228D01*
X152317142Y-113385228D02*
X152288571Y-113413800D01*
X152288571Y-113413800D02*
X152231428Y-113442371D01*
X152231428Y-113442371D02*
X152059999Y-113442371D01*
X152059999Y-113442371D02*
X152002856Y-113413800D01*
X152002856Y-113413800D02*
X151974285Y-113385228D01*
X152545714Y-112842371D02*
X152945714Y-112842371D01*
X152945714Y-112842371D02*
X152688571Y-113442371D01*
X131444285Y-117265228D02*
X131415713Y-117293800D01*
X131415713Y-117293800D02*
X131329999Y-117322371D01*
X131329999Y-117322371D02*
X131272856Y-117322371D01*
X131272856Y-117322371D02*
X131187142Y-117293800D01*
X131187142Y-117293800D02*
X131129999Y-117236657D01*
X131129999Y-117236657D02*
X131101428Y-117179514D01*
X131101428Y-117179514D02*
X131072856Y-117065228D01*
X131072856Y-117065228D02*
X131072856Y-116979514D01*
X131072856Y-116979514D02*
X131101428Y-116865228D01*
X131101428Y-116865228D02*
X131129999Y-116808085D01*
X131129999Y-116808085D02*
X131187142Y-116750942D01*
X131187142Y-116750942D02*
X131272856Y-116722371D01*
X131272856Y-116722371D02*
X131329999Y-116722371D01*
X131329999Y-116722371D02*
X131415713Y-116750942D01*
X131415713Y-116750942D02*
X131444285Y-116779514D01*
X131987142Y-116722371D02*
X131701428Y-116722371D01*
X131701428Y-116722371D02*
X131672856Y-117008085D01*
X131672856Y-117008085D02*
X131701428Y-116979514D01*
X131701428Y-116979514D02*
X131758571Y-116950942D01*
X131758571Y-116950942D02*
X131901428Y-116950942D01*
X131901428Y-116950942D02*
X131958571Y-116979514D01*
X131958571Y-116979514D02*
X131987142Y-117008085D01*
X131987142Y-117008085D02*
X132015713Y-117065228D01*
X132015713Y-117065228D02*
X132015713Y-117208085D01*
X132015713Y-117208085D02*
X131987142Y-117265228D01*
X131987142Y-117265228D02*
X131958571Y-117293800D01*
X131958571Y-117293800D02*
X131901428Y-117322371D01*
X131901428Y-117322371D02*
X131758571Y-117322371D01*
X131758571Y-117322371D02*
X131701428Y-117293800D01*
X131701428Y-117293800D02*
X131672856Y-117265228D01*
X132387142Y-116722371D02*
X132444285Y-116722371D01*
X132444285Y-116722371D02*
X132501428Y-116750942D01*
X132501428Y-116750942D02*
X132530000Y-116779514D01*
X132530000Y-116779514D02*
X132558571Y-116836657D01*
X132558571Y-116836657D02*
X132587142Y-116950942D01*
X132587142Y-116950942D02*
X132587142Y-117093800D01*
X132587142Y-117093800D02*
X132558571Y-117208085D01*
X132558571Y-117208085D02*
X132530000Y-117265228D01*
X132530000Y-117265228D02*
X132501428Y-117293800D01*
X132501428Y-117293800D02*
X132444285Y-117322371D01*
X132444285Y-117322371D02*
X132387142Y-117322371D01*
X132387142Y-117322371D02*
X132330000Y-117293800D01*
X132330000Y-117293800D02*
X132301428Y-117265228D01*
X132301428Y-117265228D02*
X132272857Y-117208085D01*
X132272857Y-117208085D02*
X132244285Y-117093800D01*
X132244285Y-117093800D02*
X132244285Y-116950942D01*
X132244285Y-116950942D02*
X132272857Y-116836657D01*
X132272857Y-116836657D02*
X132301428Y-116779514D01*
X132301428Y-116779514D02*
X132330000Y-116750942D01*
X132330000Y-116750942D02*
X132387142Y-116722371D01*
X138764285Y-101575228D02*
X138735713Y-101603800D01*
X138735713Y-101603800D02*
X138649999Y-101632371D01*
X138649999Y-101632371D02*
X138592856Y-101632371D01*
X138592856Y-101632371D02*
X138507142Y-101603800D01*
X138507142Y-101603800D02*
X138449999Y-101546657D01*
X138449999Y-101546657D02*
X138421428Y-101489514D01*
X138421428Y-101489514D02*
X138392856Y-101375228D01*
X138392856Y-101375228D02*
X138392856Y-101289514D01*
X138392856Y-101289514D02*
X138421428Y-101175228D01*
X138421428Y-101175228D02*
X138449999Y-101118085D01*
X138449999Y-101118085D02*
X138507142Y-101060942D01*
X138507142Y-101060942D02*
X138592856Y-101032371D01*
X138592856Y-101032371D02*
X138649999Y-101032371D01*
X138649999Y-101032371D02*
X138735713Y-101060942D01*
X138735713Y-101060942D02*
X138764285Y-101089514D01*
X138992856Y-101089514D02*
X139021428Y-101060942D01*
X139021428Y-101060942D02*
X139078571Y-101032371D01*
X139078571Y-101032371D02*
X139221428Y-101032371D01*
X139221428Y-101032371D02*
X139278571Y-101060942D01*
X139278571Y-101060942D02*
X139307142Y-101089514D01*
X139307142Y-101089514D02*
X139335713Y-101146657D01*
X139335713Y-101146657D02*
X139335713Y-101203800D01*
X139335713Y-101203800D02*
X139307142Y-101289514D01*
X139307142Y-101289514D02*
X138964285Y-101632371D01*
X138964285Y-101632371D02*
X139335713Y-101632371D01*
X139878571Y-101032371D02*
X139592857Y-101032371D01*
X139592857Y-101032371D02*
X139564285Y-101318085D01*
X139564285Y-101318085D02*
X139592857Y-101289514D01*
X139592857Y-101289514D02*
X139650000Y-101260942D01*
X139650000Y-101260942D02*
X139792857Y-101260942D01*
X139792857Y-101260942D02*
X139850000Y-101289514D01*
X139850000Y-101289514D02*
X139878571Y-101318085D01*
X139878571Y-101318085D02*
X139907142Y-101375228D01*
X139907142Y-101375228D02*
X139907142Y-101518085D01*
X139907142Y-101518085D02*
X139878571Y-101575228D01*
X139878571Y-101575228D02*
X139850000Y-101603800D01*
X139850000Y-101603800D02*
X139792857Y-101632371D01*
X139792857Y-101632371D02*
X139650000Y-101632371D01*
X139650000Y-101632371D02*
X139592857Y-101603800D01*
X139592857Y-101603800D02*
X139564285Y-101575228D01*
X147654285Y-112655228D02*
X147625713Y-112683800D01*
X147625713Y-112683800D02*
X147539999Y-112712371D01*
X147539999Y-112712371D02*
X147482856Y-112712371D01*
X147482856Y-112712371D02*
X147397142Y-112683800D01*
X147397142Y-112683800D02*
X147339999Y-112626657D01*
X147339999Y-112626657D02*
X147311428Y-112569514D01*
X147311428Y-112569514D02*
X147282856Y-112455228D01*
X147282856Y-112455228D02*
X147282856Y-112369514D01*
X147282856Y-112369514D02*
X147311428Y-112255228D01*
X147311428Y-112255228D02*
X147339999Y-112198085D01*
X147339999Y-112198085D02*
X147397142Y-112140942D01*
X147397142Y-112140942D02*
X147482856Y-112112371D01*
X147482856Y-112112371D02*
X147539999Y-112112371D01*
X147539999Y-112112371D02*
X147625713Y-112140942D01*
X147625713Y-112140942D02*
X147654285Y-112169514D01*
X147882856Y-112169514D02*
X147911428Y-112140942D01*
X147911428Y-112140942D02*
X147968571Y-112112371D01*
X147968571Y-112112371D02*
X148111428Y-112112371D01*
X148111428Y-112112371D02*
X148168571Y-112140942D01*
X148168571Y-112140942D02*
X148197142Y-112169514D01*
X148197142Y-112169514D02*
X148225713Y-112226657D01*
X148225713Y-112226657D02*
X148225713Y-112283800D01*
X148225713Y-112283800D02*
X148197142Y-112369514D01*
X148197142Y-112369514D02*
X147854285Y-112712371D01*
X147854285Y-112712371D02*
X148225713Y-112712371D01*
X148425714Y-112112371D02*
X148825714Y-112112371D01*
X148825714Y-112112371D02*
X148568571Y-112712371D01*
X145130000Y-103752371D02*
X144930000Y-103466657D01*
X144787143Y-103752371D02*
X144787143Y-103152371D01*
X144787143Y-103152371D02*
X145015714Y-103152371D01*
X145015714Y-103152371D02*
X145072857Y-103180942D01*
X145072857Y-103180942D02*
X145101428Y-103209514D01*
X145101428Y-103209514D02*
X145130000Y-103266657D01*
X145130000Y-103266657D02*
X145130000Y-103352371D01*
X145130000Y-103352371D02*
X145101428Y-103409514D01*
X145101428Y-103409514D02*
X145072857Y-103438085D01*
X145072857Y-103438085D02*
X145015714Y-103466657D01*
X145015714Y-103466657D02*
X144787143Y-103466657D01*
X145672857Y-103152371D02*
X145387143Y-103152371D01*
X145387143Y-103152371D02*
X145358571Y-103438085D01*
X145358571Y-103438085D02*
X145387143Y-103409514D01*
X145387143Y-103409514D02*
X145444286Y-103380942D01*
X145444286Y-103380942D02*
X145587143Y-103380942D01*
X145587143Y-103380942D02*
X145644286Y-103409514D01*
X145644286Y-103409514D02*
X145672857Y-103438085D01*
X145672857Y-103438085D02*
X145701428Y-103495228D01*
X145701428Y-103495228D02*
X145701428Y-103638085D01*
X145701428Y-103638085D02*
X145672857Y-103695228D01*
X145672857Y-103695228D02*
X145644286Y-103723800D01*
X145644286Y-103723800D02*
X145587143Y-103752371D01*
X145587143Y-103752371D02*
X145444286Y-103752371D01*
X145444286Y-103752371D02*
X145387143Y-103723800D01*
X145387143Y-103723800D02*
X145358571Y-103695228D01*
X136702371Y-107449999D02*
X136416657Y-107649999D01*
X136702371Y-107792856D02*
X136102371Y-107792856D01*
X136102371Y-107792856D02*
X136102371Y-107564285D01*
X136102371Y-107564285D02*
X136130942Y-107507142D01*
X136130942Y-107507142D02*
X136159514Y-107478571D01*
X136159514Y-107478571D02*
X136216657Y-107449999D01*
X136216657Y-107449999D02*
X136302371Y-107449999D01*
X136302371Y-107449999D02*
X136359514Y-107478571D01*
X136359514Y-107478571D02*
X136388085Y-107507142D01*
X136388085Y-107507142D02*
X136416657Y-107564285D01*
X136416657Y-107564285D02*
X136416657Y-107792856D01*
X136702371Y-107164285D02*
X136702371Y-107049999D01*
X136702371Y-107049999D02*
X136673800Y-106992856D01*
X136673800Y-106992856D02*
X136645228Y-106964285D01*
X136645228Y-106964285D02*
X136559514Y-106907142D01*
X136559514Y-106907142D02*
X136445228Y-106878571D01*
X136445228Y-106878571D02*
X136216657Y-106878571D01*
X136216657Y-106878571D02*
X136159514Y-106907142D01*
X136159514Y-106907142D02*
X136130942Y-106935714D01*
X136130942Y-106935714D02*
X136102371Y-106992856D01*
X136102371Y-106992856D02*
X136102371Y-107107142D01*
X136102371Y-107107142D02*
X136130942Y-107164285D01*
X136130942Y-107164285D02*
X136159514Y-107192856D01*
X136159514Y-107192856D02*
X136216657Y-107221428D01*
X136216657Y-107221428D02*
X136359514Y-107221428D01*
X136359514Y-107221428D02*
X136416657Y-107192856D01*
X136416657Y-107192856D02*
X136445228Y-107164285D01*
X136445228Y-107164285D02*
X136473800Y-107107142D01*
X136473800Y-107107142D02*
X136473800Y-106992856D01*
X136473800Y-106992856D02*
X136445228Y-106935714D01*
X136445228Y-106935714D02*
X136416657Y-106907142D01*
X136416657Y-106907142D02*
X136359514Y-106878571D01*
X152074285Y-112215228D02*
X152045713Y-112243800D01*
X152045713Y-112243800D02*
X151959999Y-112272371D01*
X151959999Y-112272371D02*
X151902856Y-112272371D01*
X151902856Y-112272371D02*
X151817142Y-112243800D01*
X151817142Y-112243800D02*
X151759999Y-112186657D01*
X151759999Y-112186657D02*
X151731428Y-112129514D01*
X151731428Y-112129514D02*
X151702856Y-112015228D01*
X151702856Y-112015228D02*
X151702856Y-111929514D01*
X151702856Y-111929514D02*
X151731428Y-111815228D01*
X151731428Y-111815228D02*
X151759999Y-111758085D01*
X151759999Y-111758085D02*
X151817142Y-111700942D01*
X151817142Y-111700942D02*
X151902856Y-111672371D01*
X151902856Y-111672371D02*
X151959999Y-111672371D01*
X151959999Y-111672371D02*
X152045713Y-111700942D01*
X152045713Y-111700942D02*
X152074285Y-111729514D01*
X152302856Y-111729514D02*
X152331428Y-111700942D01*
X152331428Y-111700942D02*
X152388571Y-111672371D01*
X152388571Y-111672371D02*
X152531428Y-111672371D01*
X152531428Y-111672371D02*
X152588571Y-111700942D01*
X152588571Y-111700942D02*
X152617142Y-111729514D01*
X152617142Y-111729514D02*
X152645713Y-111786657D01*
X152645713Y-111786657D02*
X152645713Y-111843800D01*
X152645713Y-111843800D02*
X152617142Y-111929514D01*
X152617142Y-111929514D02*
X152274285Y-112272371D01*
X152274285Y-112272371D02*
X152645713Y-112272371D01*
X153160000Y-111672371D02*
X153045714Y-111672371D01*
X153045714Y-111672371D02*
X152988571Y-111700942D01*
X152988571Y-111700942D02*
X152960000Y-111729514D01*
X152960000Y-111729514D02*
X152902857Y-111815228D01*
X152902857Y-111815228D02*
X152874285Y-111929514D01*
X152874285Y-111929514D02*
X152874285Y-112158085D01*
X152874285Y-112158085D02*
X152902857Y-112215228D01*
X152902857Y-112215228D02*
X152931428Y-112243800D01*
X152931428Y-112243800D02*
X152988571Y-112272371D01*
X152988571Y-112272371D02*
X153102857Y-112272371D01*
X153102857Y-112272371D02*
X153160000Y-112243800D01*
X153160000Y-112243800D02*
X153188571Y-112215228D01*
X153188571Y-112215228D02*
X153217142Y-112158085D01*
X153217142Y-112158085D02*
X153217142Y-112015228D01*
X153217142Y-112015228D02*
X153188571Y-111958085D01*
X153188571Y-111958085D02*
X153160000Y-111929514D01*
X153160000Y-111929514D02*
X153102857Y-111900942D01*
X153102857Y-111900942D02*
X152988571Y-111900942D01*
X152988571Y-111900942D02*
X152931428Y-111929514D01*
X152931428Y-111929514D02*
X152902857Y-111958085D01*
X152902857Y-111958085D02*
X152874285Y-112015228D01*
X152054285Y-109905228D02*
X152025713Y-109933800D01*
X152025713Y-109933800D02*
X151939999Y-109962371D01*
X151939999Y-109962371D02*
X151882856Y-109962371D01*
X151882856Y-109962371D02*
X151797142Y-109933800D01*
X151797142Y-109933800D02*
X151739999Y-109876657D01*
X151739999Y-109876657D02*
X151711428Y-109819514D01*
X151711428Y-109819514D02*
X151682856Y-109705228D01*
X151682856Y-109705228D02*
X151682856Y-109619514D01*
X151682856Y-109619514D02*
X151711428Y-109505228D01*
X151711428Y-109505228D02*
X151739999Y-109448085D01*
X151739999Y-109448085D02*
X151797142Y-109390942D01*
X151797142Y-109390942D02*
X151882856Y-109362371D01*
X151882856Y-109362371D02*
X151939999Y-109362371D01*
X151939999Y-109362371D02*
X152025713Y-109390942D01*
X152025713Y-109390942D02*
X152054285Y-109419514D01*
X152254285Y-109362371D02*
X152625713Y-109362371D01*
X152625713Y-109362371D02*
X152425713Y-109590942D01*
X152425713Y-109590942D02*
X152511428Y-109590942D01*
X152511428Y-109590942D02*
X152568571Y-109619514D01*
X152568571Y-109619514D02*
X152597142Y-109648085D01*
X152597142Y-109648085D02*
X152625713Y-109705228D01*
X152625713Y-109705228D02*
X152625713Y-109848085D01*
X152625713Y-109848085D02*
X152597142Y-109905228D01*
X152597142Y-109905228D02*
X152568571Y-109933800D01*
X152568571Y-109933800D02*
X152511428Y-109962371D01*
X152511428Y-109962371D02*
X152339999Y-109962371D01*
X152339999Y-109962371D02*
X152282856Y-109933800D01*
X152282856Y-109933800D02*
X152254285Y-109905228D01*
X152911428Y-109962371D02*
X153025714Y-109962371D01*
X153025714Y-109962371D02*
X153082857Y-109933800D01*
X153082857Y-109933800D02*
X153111428Y-109905228D01*
X153111428Y-109905228D02*
X153168571Y-109819514D01*
X153168571Y-109819514D02*
X153197142Y-109705228D01*
X153197142Y-109705228D02*
X153197142Y-109476657D01*
X153197142Y-109476657D02*
X153168571Y-109419514D01*
X153168571Y-109419514D02*
X153140000Y-109390942D01*
X153140000Y-109390942D02*
X153082857Y-109362371D01*
X153082857Y-109362371D02*
X152968571Y-109362371D01*
X152968571Y-109362371D02*
X152911428Y-109390942D01*
X152911428Y-109390942D02*
X152882857Y-109419514D01*
X152882857Y-109419514D02*
X152854285Y-109476657D01*
X152854285Y-109476657D02*
X152854285Y-109619514D01*
X152854285Y-109619514D02*
X152882857Y-109676657D01*
X152882857Y-109676657D02*
X152911428Y-109705228D01*
X152911428Y-109705228D02*
X152968571Y-109733800D01*
X152968571Y-109733800D02*
X153082857Y-109733800D01*
X153082857Y-109733800D02*
X153140000Y-109705228D01*
X153140000Y-109705228D02*
X153168571Y-109676657D01*
X153168571Y-109676657D02*
X153197142Y-109619514D01*
X132424285Y-107742371D02*
X132224285Y-107456657D01*
X132081428Y-107742371D02*
X132081428Y-107142371D01*
X132081428Y-107142371D02*
X132309999Y-107142371D01*
X132309999Y-107142371D02*
X132367142Y-107170942D01*
X132367142Y-107170942D02*
X132395713Y-107199514D01*
X132395713Y-107199514D02*
X132424285Y-107256657D01*
X132424285Y-107256657D02*
X132424285Y-107342371D01*
X132424285Y-107342371D02*
X132395713Y-107399514D01*
X132395713Y-107399514D02*
X132367142Y-107428085D01*
X132367142Y-107428085D02*
X132309999Y-107456657D01*
X132309999Y-107456657D02*
X132081428Y-107456657D01*
X132995713Y-107742371D02*
X132652856Y-107742371D01*
X132824285Y-107742371D02*
X132824285Y-107142371D01*
X132824285Y-107142371D02*
X132767142Y-107228085D01*
X132767142Y-107228085D02*
X132709999Y-107285228D01*
X132709999Y-107285228D02*
X132652856Y-107313800D01*
X133538571Y-107142371D02*
X133252857Y-107142371D01*
X133252857Y-107142371D02*
X133224285Y-107428085D01*
X133224285Y-107428085D02*
X133252857Y-107399514D01*
X133252857Y-107399514D02*
X133310000Y-107370942D01*
X133310000Y-107370942D02*
X133452857Y-107370942D01*
X133452857Y-107370942D02*
X133510000Y-107399514D01*
X133510000Y-107399514D02*
X133538571Y-107428085D01*
X133538571Y-107428085D02*
X133567142Y-107485228D01*
X133567142Y-107485228D02*
X133567142Y-107628085D01*
X133567142Y-107628085D02*
X133538571Y-107685228D01*
X133538571Y-107685228D02*
X133510000Y-107713800D01*
X133510000Y-107713800D02*
X133452857Y-107742371D01*
X133452857Y-107742371D02*
X133310000Y-107742371D01*
X133310000Y-107742371D02*
X133252857Y-107713800D01*
X133252857Y-107713800D02*
X133224285Y-107685228D01*
X143092857Y-115832371D02*
X143092857Y-116318085D01*
X143092857Y-116318085D02*
X143121428Y-116375228D01*
X143121428Y-116375228D02*
X143150000Y-116403800D01*
X143150000Y-116403800D02*
X143207142Y-116432371D01*
X143207142Y-116432371D02*
X143321428Y-116432371D01*
X143321428Y-116432371D02*
X143378571Y-116403800D01*
X143378571Y-116403800D02*
X143407142Y-116375228D01*
X143407142Y-116375228D02*
X143435714Y-116318085D01*
X143435714Y-116318085D02*
X143435714Y-115832371D01*
X143692856Y-115889514D02*
X143721428Y-115860942D01*
X143721428Y-115860942D02*
X143778571Y-115832371D01*
X143778571Y-115832371D02*
X143921428Y-115832371D01*
X143921428Y-115832371D02*
X143978571Y-115860942D01*
X143978571Y-115860942D02*
X144007142Y-115889514D01*
X144007142Y-115889514D02*
X144035713Y-115946657D01*
X144035713Y-115946657D02*
X144035713Y-116003800D01*
X144035713Y-116003800D02*
X144007142Y-116089514D01*
X144007142Y-116089514D02*
X143664285Y-116432371D01*
X143664285Y-116432371D02*
X144035713Y-116432371D01*
X129088646Y-109492371D02*
X129088646Y-109978085D01*
X129088646Y-109978085D02*
X129117217Y-110035228D01*
X129117217Y-110035228D02*
X129145789Y-110063800D01*
X129145789Y-110063800D02*
X129202931Y-110092371D01*
X129202931Y-110092371D02*
X129317217Y-110092371D01*
X129317217Y-110092371D02*
X129374360Y-110063800D01*
X129374360Y-110063800D02*
X129402931Y-110035228D01*
X129402931Y-110035228D02*
X129431503Y-109978085D01*
X129431503Y-109978085D02*
X129431503Y-109492371D01*
X130031502Y-110092371D02*
X129688645Y-110092371D01*
X129860074Y-110092371D02*
X129860074Y-109492371D01*
X129860074Y-109492371D02*
X129802931Y-109578085D01*
X129802931Y-109578085D02*
X129745788Y-109635228D01*
X129745788Y-109635228D02*
X129688645Y-109663800D01*
X130260074Y-109549514D02*
X130288646Y-109520942D01*
X130288646Y-109520942D02*
X130345789Y-109492371D01*
X130345789Y-109492371D02*
X130488646Y-109492371D01*
X130488646Y-109492371D02*
X130545789Y-109520942D01*
X130545789Y-109520942D02*
X130574360Y-109549514D01*
X130574360Y-109549514D02*
X130602931Y-109606657D01*
X130602931Y-109606657D02*
X130602931Y-109663800D01*
X130602931Y-109663800D02*
X130574360Y-109749514D01*
X130574360Y-109749514D02*
X130231503Y-110092371D01*
X130231503Y-110092371D02*
X130602931Y-110092371D01*
X144320000Y-107392371D02*
X144034286Y-107392371D01*
X144034286Y-107392371D02*
X144034286Y-106792371D01*
X144834285Y-107392371D02*
X144491428Y-107392371D01*
X144662857Y-107392371D02*
X144662857Y-106792371D01*
X144662857Y-106792371D02*
X144605714Y-106878085D01*
X144605714Y-106878085D02*
X144548571Y-106935228D01*
X144548571Y-106935228D02*
X144491428Y-106963800D01*
X126888646Y-104332371D02*
X126888646Y-104818085D01*
X126888646Y-104818085D02*
X126917217Y-104875228D01*
X126917217Y-104875228D02*
X126945789Y-104903800D01*
X126945789Y-104903800D02*
X127002931Y-104932371D01*
X127002931Y-104932371D02*
X127117217Y-104932371D01*
X127117217Y-104932371D02*
X127174360Y-104903800D01*
X127174360Y-104903800D02*
X127202931Y-104875228D01*
X127202931Y-104875228D02*
X127231503Y-104818085D01*
X127231503Y-104818085D02*
X127231503Y-104332371D01*
X127831502Y-104932371D02*
X127488645Y-104932371D01*
X127660074Y-104932371D02*
X127660074Y-104332371D01*
X127660074Y-104332371D02*
X127602931Y-104418085D01*
X127602931Y-104418085D02*
X127545788Y-104475228D01*
X127545788Y-104475228D02*
X127488645Y-104503800D01*
X128345789Y-104532371D02*
X128345789Y-104932371D01*
X128202931Y-104303800D02*
X128060074Y-104732371D01*
X128060074Y-104732371D02*
X128431503Y-104732371D01*
X135084285Y-101065228D02*
X135055713Y-101093800D01*
X135055713Y-101093800D02*
X134969999Y-101122371D01*
X134969999Y-101122371D02*
X134912856Y-101122371D01*
X134912856Y-101122371D02*
X134827142Y-101093800D01*
X134827142Y-101093800D02*
X134769999Y-101036657D01*
X134769999Y-101036657D02*
X134741428Y-100979514D01*
X134741428Y-100979514D02*
X134712856Y-100865228D01*
X134712856Y-100865228D02*
X134712856Y-100779514D01*
X134712856Y-100779514D02*
X134741428Y-100665228D01*
X134741428Y-100665228D02*
X134769999Y-100608085D01*
X134769999Y-100608085D02*
X134827142Y-100550942D01*
X134827142Y-100550942D02*
X134912856Y-100522371D01*
X134912856Y-100522371D02*
X134969999Y-100522371D01*
X134969999Y-100522371D02*
X135055713Y-100550942D01*
X135055713Y-100550942D02*
X135084285Y-100579514D01*
X135284285Y-100522371D02*
X135655713Y-100522371D01*
X135655713Y-100522371D02*
X135455713Y-100750942D01*
X135455713Y-100750942D02*
X135541428Y-100750942D01*
X135541428Y-100750942D02*
X135598571Y-100779514D01*
X135598571Y-100779514D02*
X135627142Y-100808085D01*
X135627142Y-100808085D02*
X135655713Y-100865228D01*
X135655713Y-100865228D02*
X135655713Y-101008085D01*
X135655713Y-101008085D02*
X135627142Y-101065228D01*
X135627142Y-101065228D02*
X135598571Y-101093800D01*
X135598571Y-101093800D02*
X135541428Y-101122371D01*
X135541428Y-101122371D02*
X135369999Y-101122371D01*
X135369999Y-101122371D02*
X135312856Y-101093800D01*
X135312856Y-101093800D02*
X135284285Y-101065228D01*
X136170000Y-100522371D02*
X136055714Y-100522371D01*
X136055714Y-100522371D02*
X135998571Y-100550942D01*
X135998571Y-100550942D02*
X135970000Y-100579514D01*
X135970000Y-100579514D02*
X135912857Y-100665228D01*
X135912857Y-100665228D02*
X135884285Y-100779514D01*
X135884285Y-100779514D02*
X135884285Y-101008085D01*
X135884285Y-101008085D02*
X135912857Y-101065228D01*
X135912857Y-101065228D02*
X135941428Y-101093800D01*
X135941428Y-101093800D02*
X135998571Y-101122371D01*
X135998571Y-101122371D02*
X136112857Y-101122371D01*
X136112857Y-101122371D02*
X136170000Y-101093800D01*
X136170000Y-101093800D02*
X136198571Y-101065228D01*
X136198571Y-101065228D02*
X136227142Y-101008085D01*
X136227142Y-101008085D02*
X136227142Y-100865228D01*
X136227142Y-100865228D02*
X136198571Y-100808085D01*
X136198571Y-100808085D02*
X136170000Y-100779514D01*
X136170000Y-100779514D02*
X136112857Y-100750942D01*
X136112857Y-100750942D02*
X135998571Y-100750942D01*
X135998571Y-100750942D02*
X135941428Y-100779514D01*
X135941428Y-100779514D02*
X135912857Y-100808085D01*
X135912857Y-100808085D02*
X135884285Y-100865228D01*
X141484285Y-105795228D02*
X141455713Y-105823800D01*
X141455713Y-105823800D02*
X141369999Y-105852371D01*
X141369999Y-105852371D02*
X141312856Y-105852371D01*
X141312856Y-105852371D02*
X141227142Y-105823800D01*
X141227142Y-105823800D02*
X141169999Y-105766657D01*
X141169999Y-105766657D02*
X141141428Y-105709514D01*
X141141428Y-105709514D02*
X141112856Y-105595228D01*
X141112856Y-105595228D02*
X141112856Y-105509514D01*
X141112856Y-105509514D02*
X141141428Y-105395228D01*
X141141428Y-105395228D02*
X141169999Y-105338085D01*
X141169999Y-105338085D02*
X141227142Y-105280942D01*
X141227142Y-105280942D02*
X141312856Y-105252371D01*
X141312856Y-105252371D02*
X141369999Y-105252371D01*
X141369999Y-105252371D02*
X141455713Y-105280942D01*
X141455713Y-105280942D02*
X141484285Y-105309514D01*
X142055713Y-105852371D02*
X141712856Y-105852371D01*
X141884285Y-105852371D02*
X141884285Y-105252371D01*
X141884285Y-105252371D02*
X141827142Y-105338085D01*
X141827142Y-105338085D02*
X141769999Y-105395228D01*
X141769999Y-105395228D02*
X141712856Y-105423800D01*
X142284285Y-105309514D02*
X142312857Y-105280942D01*
X142312857Y-105280942D02*
X142370000Y-105252371D01*
X142370000Y-105252371D02*
X142512857Y-105252371D01*
X142512857Y-105252371D02*
X142570000Y-105280942D01*
X142570000Y-105280942D02*
X142598571Y-105309514D01*
X142598571Y-105309514D02*
X142627142Y-105366657D01*
X142627142Y-105366657D02*
X142627142Y-105423800D01*
X142627142Y-105423800D02*
X142598571Y-105509514D01*
X142598571Y-105509514D02*
X142255714Y-105852371D01*
X142255714Y-105852371D02*
X142627142Y-105852371D01*
X133674285Y-117242371D02*
X133474285Y-116956657D01*
X133331428Y-117242371D02*
X133331428Y-116642371D01*
X133331428Y-116642371D02*
X133559999Y-116642371D01*
X133559999Y-116642371D02*
X133617142Y-116670942D01*
X133617142Y-116670942D02*
X133645713Y-116699514D01*
X133645713Y-116699514D02*
X133674285Y-116756657D01*
X133674285Y-116756657D02*
X133674285Y-116842371D01*
X133674285Y-116842371D02*
X133645713Y-116899514D01*
X133645713Y-116899514D02*
X133617142Y-116928085D01*
X133617142Y-116928085D02*
X133559999Y-116956657D01*
X133559999Y-116956657D02*
X133331428Y-116956657D01*
X134245713Y-117242371D02*
X133902856Y-117242371D01*
X134074285Y-117242371D02*
X134074285Y-116642371D01*
X134074285Y-116642371D02*
X134017142Y-116728085D01*
X134017142Y-116728085D02*
X133959999Y-116785228D01*
X133959999Y-116785228D02*
X133902856Y-116813800D01*
X134817142Y-117242371D02*
X134474285Y-117242371D01*
X134645714Y-117242371D02*
X134645714Y-116642371D01*
X134645714Y-116642371D02*
X134588571Y-116728085D01*
X134588571Y-116728085D02*
X134531428Y-116785228D01*
X134531428Y-116785228D02*
X134474285Y-116813800D01*
X136318646Y-104222371D02*
X136318646Y-104708085D01*
X136318646Y-104708085D02*
X136347217Y-104765228D01*
X136347217Y-104765228D02*
X136375789Y-104793800D01*
X136375789Y-104793800D02*
X136432931Y-104822371D01*
X136432931Y-104822371D02*
X136547217Y-104822371D01*
X136547217Y-104822371D02*
X136604360Y-104793800D01*
X136604360Y-104793800D02*
X136632931Y-104765228D01*
X136632931Y-104765228D02*
X136661503Y-104708085D01*
X136661503Y-104708085D02*
X136661503Y-104222371D01*
X136975788Y-104822371D02*
X137090074Y-104822371D01*
X137090074Y-104822371D02*
X137147217Y-104793800D01*
X137147217Y-104793800D02*
X137175788Y-104765228D01*
X137175788Y-104765228D02*
X137232931Y-104679514D01*
X137232931Y-104679514D02*
X137261502Y-104565228D01*
X137261502Y-104565228D02*
X137261502Y-104336657D01*
X137261502Y-104336657D02*
X137232931Y-104279514D01*
X137232931Y-104279514D02*
X137204360Y-104250942D01*
X137204360Y-104250942D02*
X137147217Y-104222371D01*
X137147217Y-104222371D02*
X137032931Y-104222371D01*
X137032931Y-104222371D02*
X136975788Y-104250942D01*
X136975788Y-104250942D02*
X136947217Y-104279514D01*
X136947217Y-104279514D02*
X136918645Y-104336657D01*
X136918645Y-104336657D02*
X136918645Y-104479514D01*
X136918645Y-104479514D02*
X136947217Y-104536657D01*
X136947217Y-104536657D02*
X136975788Y-104565228D01*
X136975788Y-104565228D02*
X137032931Y-104593800D01*
X137032931Y-104593800D02*
X137147217Y-104593800D01*
X137147217Y-104593800D02*
X137204360Y-104565228D01*
X137204360Y-104565228D02*
X137232931Y-104536657D01*
X137232931Y-104536657D02*
X137261502Y-104479514D01*
X151044285Y-104685228D02*
X151015713Y-104713800D01*
X151015713Y-104713800D02*
X150929999Y-104742371D01*
X150929999Y-104742371D02*
X150872856Y-104742371D01*
X150872856Y-104742371D02*
X150787142Y-104713800D01*
X150787142Y-104713800D02*
X150729999Y-104656657D01*
X150729999Y-104656657D02*
X150701428Y-104599514D01*
X150701428Y-104599514D02*
X150672856Y-104485228D01*
X150672856Y-104485228D02*
X150672856Y-104399514D01*
X150672856Y-104399514D02*
X150701428Y-104285228D01*
X150701428Y-104285228D02*
X150729999Y-104228085D01*
X150729999Y-104228085D02*
X150787142Y-104170942D01*
X150787142Y-104170942D02*
X150872856Y-104142371D01*
X150872856Y-104142371D02*
X150929999Y-104142371D01*
X150929999Y-104142371D02*
X151015713Y-104170942D01*
X151015713Y-104170942D02*
X151044285Y-104199514D01*
X151615713Y-104742371D02*
X151272856Y-104742371D01*
X151444285Y-104742371D02*
X151444285Y-104142371D01*
X151444285Y-104142371D02*
X151387142Y-104228085D01*
X151387142Y-104228085D02*
X151329999Y-104285228D01*
X151329999Y-104285228D02*
X151272856Y-104313800D01*
X152158571Y-104142371D02*
X151872857Y-104142371D01*
X151872857Y-104142371D02*
X151844285Y-104428085D01*
X151844285Y-104428085D02*
X151872857Y-104399514D01*
X151872857Y-104399514D02*
X151930000Y-104370942D01*
X151930000Y-104370942D02*
X152072857Y-104370942D01*
X152072857Y-104370942D02*
X152130000Y-104399514D01*
X152130000Y-104399514D02*
X152158571Y-104428085D01*
X152158571Y-104428085D02*
X152187142Y-104485228D01*
X152187142Y-104485228D02*
X152187142Y-104628085D01*
X152187142Y-104628085D02*
X152158571Y-104685228D01*
X152158571Y-104685228D02*
X152130000Y-104713800D01*
X152130000Y-104713800D02*
X152072857Y-104742371D01*
X152072857Y-104742371D02*
X151930000Y-104742371D01*
X151930000Y-104742371D02*
X151872857Y-104713800D01*
X151872857Y-104713800D02*
X151844285Y-104685228D01*
X152715228Y-101285714D02*
X152743800Y-101314286D01*
X152743800Y-101314286D02*
X152772371Y-101400000D01*
X152772371Y-101400000D02*
X152772371Y-101457143D01*
X152772371Y-101457143D02*
X152743800Y-101542857D01*
X152743800Y-101542857D02*
X152686657Y-101600000D01*
X152686657Y-101600000D02*
X152629514Y-101628571D01*
X152629514Y-101628571D02*
X152515228Y-101657143D01*
X152515228Y-101657143D02*
X152429514Y-101657143D01*
X152429514Y-101657143D02*
X152315228Y-101628571D01*
X152315228Y-101628571D02*
X152258085Y-101600000D01*
X152258085Y-101600000D02*
X152200942Y-101542857D01*
X152200942Y-101542857D02*
X152172371Y-101457143D01*
X152172371Y-101457143D02*
X152172371Y-101400000D01*
X152172371Y-101400000D02*
X152200942Y-101314286D01*
X152200942Y-101314286D02*
X152229514Y-101285714D01*
X152229514Y-101057143D02*
X152200942Y-101028571D01*
X152200942Y-101028571D02*
X152172371Y-100971429D01*
X152172371Y-100971429D02*
X152172371Y-100828571D01*
X152172371Y-100828571D02*
X152200942Y-100771429D01*
X152200942Y-100771429D02*
X152229514Y-100742857D01*
X152229514Y-100742857D02*
X152286657Y-100714286D01*
X152286657Y-100714286D02*
X152343800Y-100714286D01*
X152343800Y-100714286D02*
X152429514Y-100742857D01*
X152429514Y-100742857D02*
X152772371Y-101085714D01*
X152772371Y-101085714D02*
X152772371Y-100714286D01*
X152772371Y-100142857D02*
X152772371Y-100485714D01*
X152772371Y-100314285D02*
X152172371Y-100314285D01*
X152172371Y-100314285D02*
X152258085Y-100371428D01*
X152258085Y-100371428D02*
X152315228Y-100428571D01*
X152315228Y-100428571D02*
X152343800Y-100485714D01*
X147744285Y-111835228D02*
X147715713Y-111863800D01*
X147715713Y-111863800D02*
X147629999Y-111892371D01*
X147629999Y-111892371D02*
X147572856Y-111892371D01*
X147572856Y-111892371D02*
X147487142Y-111863800D01*
X147487142Y-111863800D02*
X147429999Y-111806657D01*
X147429999Y-111806657D02*
X147401428Y-111749514D01*
X147401428Y-111749514D02*
X147372856Y-111635228D01*
X147372856Y-111635228D02*
X147372856Y-111549514D01*
X147372856Y-111549514D02*
X147401428Y-111435228D01*
X147401428Y-111435228D02*
X147429999Y-111378085D01*
X147429999Y-111378085D02*
X147487142Y-111320942D01*
X147487142Y-111320942D02*
X147572856Y-111292371D01*
X147572856Y-111292371D02*
X147629999Y-111292371D01*
X147629999Y-111292371D02*
X147715713Y-111320942D01*
X147715713Y-111320942D02*
X147744285Y-111349514D01*
X147944285Y-111292371D02*
X148315713Y-111292371D01*
X148315713Y-111292371D02*
X148115713Y-111520942D01*
X148115713Y-111520942D02*
X148201428Y-111520942D01*
X148201428Y-111520942D02*
X148258571Y-111549514D01*
X148258571Y-111549514D02*
X148287142Y-111578085D01*
X148287142Y-111578085D02*
X148315713Y-111635228D01*
X148315713Y-111635228D02*
X148315713Y-111778085D01*
X148315713Y-111778085D02*
X148287142Y-111835228D01*
X148287142Y-111835228D02*
X148258571Y-111863800D01*
X148258571Y-111863800D02*
X148201428Y-111892371D01*
X148201428Y-111892371D02*
X148029999Y-111892371D01*
X148029999Y-111892371D02*
X147972856Y-111863800D01*
X147972856Y-111863800D02*
X147944285Y-111835228D01*
X148544285Y-111349514D02*
X148572857Y-111320942D01*
X148572857Y-111320942D02*
X148630000Y-111292371D01*
X148630000Y-111292371D02*
X148772857Y-111292371D01*
X148772857Y-111292371D02*
X148830000Y-111320942D01*
X148830000Y-111320942D02*
X148858571Y-111349514D01*
X148858571Y-111349514D02*
X148887142Y-111406657D01*
X148887142Y-111406657D02*
X148887142Y-111463800D01*
X148887142Y-111463800D02*
X148858571Y-111549514D01*
X148858571Y-111549514D02*
X148515714Y-111892371D01*
X148515714Y-111892371D02*
X148887142Y-111892371D01*
X146370000Y-111312371D02*
X146084286Y-111312371D01*
X146084286Y-111312371D02*
X146084286Y-110712371D01*
X146541428Y-110769514D02*
X146570000Y-110740942D01*
X146570000Y-110740942D02*
X146627143Y-110712371D01*
X146627143Y-110712371D02*
X146770000Y-110712371D01*
X146770000Y-110712371D02*
X146827143Y-110740942D01*
X146827143Y-110740942D02*
X146855714Y-110769514D01*
X146855714Y-110769514D02*
X146884285Y-110826657D01*
X146884285Y-110826657D02*
X146884285Y-110883800D01*
X146884285Y-110883800D02*
X146855714Y-110969514D01*
X146855714Y-110969514D02*
X146512857Y-111312371D01*
X146512857Y-111312371D02*
X146884285Y-111312371D01*
X143894285Y-102382371D02*
X143694285Y-102096657D01*
X143551428Y-102382371D02*
X143551428Y-101782371D01*
X143551428Y-101782371D02*
X143779999Y-101782371D01*
X143779999Y-101782371D02*
X143837142Y-101810942D01*
X143837142Y-101810942D02*
X143865713Y-101839514D01*
X143865713Y-101839514D02*
X143894285Y-101896657D01*
X143894285Y-101896657D02*
X143894285Y-101982371D01*
X143894285Y-101982371D02*
X143865713Y-102039514D01*
X143865713Y-102039514D02*
X143837142Y-102068085D01*
X143837142Y-102068085D02*
X143779999Y-102096657D01*
X143779999Y-102096657D02*
X143551428Y-102096657D01*
X144122856Y-101839514D02*
X144151428Y-101810942D01*
X144151428Y-101810942D02*
X144208571Y-101782371D01*
X144208571Y-101782371D02*
X144351428Y-101782371D01*
X144351428Y-101782371D02*
X144408571Y-101810942D01*
X144408571Y-101810942D02*
X144437142Y-101839514D01*
X144437142Y-101839514D02*
X144465713Y-101896657D01*
X144465713Y-101896657D02*
X144465713Y-101953800D01*
X144465713Y-101953800D02*
X144437142Y-102039514D01*
X144437142Y-102039514D02*
X144094285Y-102382371D01*
X144094285Y-102382371D02*
X144465713Y-102382371D01*
X144837142Y-101782371D02*
X144894285Y-101782371D01*
X144894285Y-101782371D02*
X144951428Y-101810942D01*
X144951428Y-101810942D02*
X144980000Y-101839514D01*
X144980000Y-101839514D02*
X145008571Y-101896657D01*
X145008571Y-101896657D02*
X145037142Y-102010942D01*
X145037142Y-102010942D02*
X145037142Y-102153800D01*
X145037142Y-102153800D02*
X145008571Y-102268085D01*
X145008571Y-102268085D02*
X144980000Y-102325228D01*
X144980000Y-102325228D02*
X144951428Y-102353800D01*
X144951428Y-102353800D02*
X144894285Y-102382371D01*
X144894285Y-102382371D02*
X144837142Y-102382371D01*
X144837142Y-102382371D02*
X144780000Y-102353800D01*
X144780000Y-102353800D02*
X144751428Y-102325228D01*
X144751428Y-102325228D02*
X144722857Y-102268085D01*
X144722857Y-102268085D02*
X144694285Y-102153800D01*
X144694285Y-102153800D02*
X144694285Y-102010942D01*
X144694285Y-102010942D02*
X144722857Y-101896657D01*
X144722857Y-101896657D02*
X144751428Y-101839514D01*
X144751428Y-101839514D02*
X144780000Y-101810942D01*
X144780000Y-101810942D02*
X144837142Y-101782371D01*
X146450000Y-99222371D02*
X146250000Y-98936657D01*
X146107143Y-99222371D02*
X146107143Y-98622371D01*
X146107143Y-98622371D02*
X146335714Y-98622371D01*
X146335714Y-98622371D02*
X146392857Y-98650942D01*
X146392857Y-98650942D02*
X146421428Y-98679514D01*
X146421428Y-98679514D02*
X146450000Y-98736657D01*
X146450000Y-98736657D02*
X146450000Y-98822371D01*
X146450000Y-98822371D02*
X146421428Y-98879514D01*
X146421428Y-98879514D02*
X146392857Y-98908085D01*
X146392857Y-98908085D02*
X146335714Y-98936657D01*
X146335714Y-98936657D02*
X146107143Y-98936657D01*
X146964286Y-98822371D02*
X146964286Y-99222371D01*
X146821428Y-98593800D02*
X146678571Y-99022371D01*
X146678571Y-99022371D02*
X147050000Y-99022371D01*
X151964285Y-99925228D02*
X151935713Y-99953800D01*
X151935713Y-99953800D02*
X151849999Y-99982371D01*
X151849999Y-99982371D02*
X151792856Y-99982371D01*
X151792856Y-99982371D02*
X151707142Y-99953800D01*
X151707142Y-99953800D02*
X151649999Y-99896657D01*
X151649999Y-99896657D02*
X151621428Y-99839514D01*
X151621428Y-99839514D02*
X151592856Y-99725228D01*
X151592856Y-99725228D02*
X151592856Y-99639514D01*
X151592856Y-99639514D02*
X151621428Y-99525228D01*
X151621428Y-99525228D02*
X151649999Y-99468085D01*
X151649999Y-99468085D02*
X151707142Y-99410942D01*
X151707142Y-99410942D02*
X151792856Y-99382371D01*
X151792856Y-99382371D02*
X151849999Y-99382371D01*
X151849999Y-99382371D02*
X151935713Y-99410942D01*
X151935713Y-99410942D02*
X151964285Y-99439514D01*
X152535713Y-99982371D02*
X152192856Y-99982371D01*
X152364285Y-99982371D02*
X152364285Y-99382371D01*
X152364285Y-99382371D02*
X152307142Y-99468085D01*
X152307142Y-99468085D02*
X152249999Y-99525228D01*
X152249999Y-99525228D02*
X152192856Y-99553800D01*
X152878571Y-99639514D02*
X152821428Y-99610942D01*
X152821428Y-99610942D02*
X152792857Y-99582371D01*
X152792857Y-99582371D02*
X152764285Y-99525228D01*
X152764285Y-99525228D02*
X152764285Y-99496657D01*
X152764285Y-99496657D02*
X152792857Y-99439514D01*
X152792857Y-99439514D02*
X152821428Y-99410942D01*
X152821428Y-99410942D02*
X152878571Y-99382371D01*
X152878571Y-99382371D02*
X152992857Y-99382371D01*
X152992857Y-99382371D02*
X153050000Y-99410942D01*
X153050000Y-99410942D02*
X153078571Y-99439514D01*
X153078571Y-99439514D02*
X153107142Y-99496657D01*
X153107142Y-99496657D02*
X153107142Y-99525228D01*
X153107142Y-99525228D02*
X153078571Y-99582371D01*
X153078571Y-99582371D02*
X153050000Y-99610942D01*
X153050000Y-99610942D02*
X152992857Y-99639514D01*
X152992857Y-99639514D02*
X152878571Y-99639514D01*
X152878571Y-99639514D02*
X152821428Y-99668085D01*
X152821428Y-99668085D02*
X152792857Y-99696657D01*
X152792857Y-99696657D02*
X152764285Y-99753800D01*
X152764285Y-99753800D02*
X152764285Y-99868085D01*
X152764285Y-99868085D02*
X152792857Y-99925228D01*
X152792857Y-99925228D02*
X152821428Y-99953800D01*
X152821428Y-99953800D02*
X152878571Y-99982371D01*
X152878571Y-99982371D02*
X152992857Y-99982371D01*
X152992857Y-99982371D02*
X153050000Y-99953800D01*
X153050000Y-99953800D02*
X153078571Y-99925228D01*
X153078571Y-99925228D02*
X153107142Y-99868085D01*
X153107142Y-99868085D02*
X153107142Y-99753800D01*
X153107142Y-99753800D02*
X153078571Y-99696657D01*
X153078571Y-99696657D02*
X153050000Y-99668085D01*
X153050000Y-99668085D02*
X152992857Y-99639514D01*
X148998646Y-105882371D02*
X148998646Y-106368085D01*
X148998646Y-106368085D02*
X149027217Y-106425228D01*
X149027217Y-106425228D02*
X149055789Y-106453800D01*
X149055789Y-106453800D02*
X149112931Y-106482371D01*
X149112931Y-106482371D02*
X149227217Y-106482371D01*
X149227217Y-106482371D02*
X149284360Y-106453800D01*
X149284360Y-106453800D02*
X149312931Y-106425228D01*
X149312931Y-106425228D02*
X149341503Y-106368085D01*
X149341503Y-106368085D02*
X149341503Y-105882371D01*
X149941502Y-106482371D02*
X149598645Y-106482371D01*
X149770074Y-106482371D02*
X149770074Y-105882371D01*
X149770074Y-105882371D02*
X149712931Y-105968085D01*
X149712931Y-105968085D02*
X149655788Y-106025228D01*
X149655788Y-106025228D02*
X149598645Y-106053800D01*
X150455789Y-105882371D02*
X150341503Y-105882371D01*
X150341503Y-105882371D02*
X150284360Y-105910942D01*
X150284360Y-105910942D02*
X150255789Y-105939514D01*
X150255789Y-105939514D02*
X150198646Y-106025228D01*
X150198646Y-106025228D02*
X150170074Y-106139514D01*
X150170074Y-106139514D02*
X150170074Y-106368085D01*
X150170074Y-106368085D02*
X150198646Y-106425228D01*
X150198646Y-106425228D02*
X150227217Y-106453800D01*
X150227217Y-106453800D02*
X150284360Y-106482371D01*
X150284360Y-106482371D02*
X150398646Y-106482371D01*
X150398646Y-106482371D02*
X150455789Y-106453800D01*
X150455789Y-106453800D02*
X150484360Y-106425228D01*
X150484360Y-106425228D02*
X150512931Y-106368085D01*
X150512931Y-106368085D02*
X150512931Y-106225228D01*
X150512931Y-106225228D02*
X150484360Y-106168085D01*
X150484360Y-106168085D02*
X150455789Y-106139514D01*
X150455789Y-106139514D02*
X150398646Y-106110942D01*
X150398646Y-106110942D02*
X150284360Y-106110942D01*
X150284360Y-106110942D02*
X150227217Y-106139514D01*
X150227217Y-106139514D02*
X150198646Y-106168085D01*
X150198646Y-106168085D02*
X150170074Y-106225228D01*
X143944285Y-101532371D02*
X143744285Y-101246657D01*
X143601428Y-101532371D02*
X143601428Y-100932371D01*
X143601428Y-100932371D02*
X143829999Y-100932371D01*
X143829999Y-100932371D02*
X143887142Y-100960942D01*
X143887142Y-100960942D02*
X143915713Y-100989514D01*
X143915713Y-100989514D02*
X143944285Y-101046657D01*
X143944285Y-101046657D02*
X143944285Y-101132371D01*
X143944285Y-101132371D02*
X143915713Y-101189514D01*
X143915713Y-101189514D02*
X143887142Y-101218085D01*
X143887142Y-101218085D02*
X143829999Y-101246657D01*
X143829999Y-101246657D02*
X143601428Y-101246657D01*
X144172856Y-100989514D02*
X144201428Y-100960942D01*
X144201428Y-100960942D02*
X144258571Y-100932371D01*
X144258571Y-100932371D02*
X144401428Y-100932371D01*
X144401428Y-100932371D02*
X144458571Y-100960942D01*
X144458571Y-100960942D02*
X144487142Y-100989514D01*
X144487142Y-100989514D02*
X144515713Y-101046657D01*
X144515713Y-101046657D02*
X144515713Y-101103800D01*
X144515713Y-101103800D02*
X144487142Y-101189514D01*
X144487142Y-101189514D02*
X144144285Y-101532371D01*
X144144285Y-101532371D02*
X144515713Y-101532371D01*
X145087142Y-101532371D02*
X144744285Y-101532371D01*
X144915714Y-101532371D02*
X144915714Y-100932371D01*
X144915714Y-100932371D02*
X144858571Y-101018085D01*
X144858571Y-101018085D02*
X144801428Y-101075228D01*
X144801428Y-101075228D02*
X144744285Y-101103800D01*
X136377801Y-117085228D02*
X136349229Y-117113800D01*
X136349229Y-117113800D02*
X136263515Y-117142371D01*
X136263515Y-117142371D02*
X136206372Y-117142371D01*
X136206372Y-117142371D02*
X136120658Y-117113800D01*
X136120658Y-117113800D02*
X136063515Y-117056657D01*
X136063515Y-117056657D02*
X136034944Y-116999514D01*
X136034944Y-116999514D02*
X136006372Y-116885228D01*
X136006372Y-116885228D02*
X136006372Y-116799514D01*
X136006372Y-116799514D02*
X136034944Y-116685228D01*
X136034944Y-116685228D02*
X136063515Y-116628085D01*
X136063515Y-116628085D02*
X136120658Y-116570942D01*
X136120658Y-116570942D02*
X136206372Y-116542371D01*
X136206372Y-116542371D02*
X136263515Y-116542371D01*
X136263515Y-116542371D02*
X136349229Y-116570942D01*
X136349229Y-116570942D02*
X136377801Y-116599514D01*
X136577801Y-116542371D02*
X136949229Y-116542371D01*
X136949229Y-116542371D02*
X136749229Y-116770942D01*
X136749229Y-116770942D02*
X136834944Y-116770942D01*
X136834944Y-116770942D02*
X136892087Y-116799514D01*
X136892087Y-116799514D02*
X136920658Y-116828085D01*
X136920658Y-116828085D02*
X136949229Y-116885228D01*
X136949229Y-116885228D02*
X136949229Y-117028085D01*
X136949229Y-117028085D02*
X136920658Y-117085228D01*
X136920658Y-117085228D02*
X136892087Y-117113800D01*
X136892087Y-117113800D02*
X136834944Y-117142371D01*
X136834944Y-117142371D02*
X136663515Y-117142371D01*
X136663515Y-117142371D02*
X136606372Y-117113800D01*
X136606372Y-117113800D02*
X136577801Y-117085228D01*
X135412371Y-109145714D02*
X135126657Y-109345714D01*
X135412371Y-109488571D02*
X134812371Y-109488571D01*
X134812371Y-109488571D02*
X134812371Y-109260000D01*
X134812371Y-109260000D02*
X134840942Y-109202857D01*
X134840942Y-109202857D02*
X134869514Y-109174286D01*
X134869514Y-109174286D02*
X134926657Y-109145714D01*
X134926657Y-109145714D02*
X135012371Y-109145714D01*
X135012371Y-109145714D02*
X135069514Y-109174286D01*
X135069514Y-109174286D02*
X135098085Y-109202857D01*
X135098085Y-109202857D02*
X135126657Y-109260000D01*
X135126657Y-109260000D02*
X135126657Y-109488571D01*
X135412371Y-108574286D02*
X135412371Y-108917143D01*
X135412371Y-108745714D02*
X134812371Y-108745714D01*
X134812371Y-108745714D02*
X134898085Y-108802857D01*
X134898085Y-108802857D02*
X134955228Y-108860000D01*
X134955228Y-108860000D02*
X134983800Y-108917143D01*
X135012371Y-108060000D02*
X135412371Y-108060000D01*
X134783800Y-108202857D02*
X135212371Y-108345714D01*
X135212371Y-108345714D02*
X135212371Y-107974285D01*
X131704285Y-103795228D02*
X131675713Y-103823800D01*
X131675713Y-103823800D02*
X131589999Y-103852371D01*
X131589999Y-103852371D02*
X131532856Y-103852371D01*
X131532856Y-103852371D02*
X131447142Y-103823800D01*
X131447142Y-103823800D02*
X131389999Y-103766657D01*
X131389999Y-103766657D02*
X131361428Y-103709514D01*
X131361428Y-103709514D02*
X131332856Y-103595228D01*
X131332856Y-103595228D02*
X131332856Y-103509514D01*
X131332856Y-103509514D02*
X131361428Y-103395228D01*
X131361428Y-103395228D02*
X131389999Y-103338085D01*
X131389999Y-103338085D02*
X131447142Y-103280942D01*
X131447142Y-103280942D02*
X131532856Y-103252371D01*
X131532856Y-103252371D02*
X131589999Y-103252371D01*
X131589999Y-103252371D02*
X131675713Y-103280942D01*
X131675713Y-103280942D02*
X131704285Y-103309514D01*
X132218571Y-103452371D02*
X132218571Y-103852371D01*
X132075713Y-103223800D02*
X131932856Y-103652371D01*
X131932856Y-103652371D02*
X132304285Y-103652371D01*
X132504285Y-103309514D02*
X132532857Y-103280942D01*
X132532857Y-103280942D02*
X132590000Y-103252371D01*
X132590000Y-103252371D02*
X132732857Y-103252371D01*
X132732857Y-103252371D02*
X132790000Y-103280942D01*
X132790000Y-103280942D02*
X132818571Y-103309514D01*
X132818571Y-103309514D02*
X132847142Y-103366657D01*
X132847142Y-103366657D02*
X132847142Y-103423800D01*
X132847142Y-103423800D02*
X132818571Y-103509514D01*
X132818571Y-103509514D02*
X132475714Y-103852371D01*
X132475714Y-103852371D02*
X132847142Y-103852371D01*
X141784285Y-117285228D02*
X141755713Y-117313800D01*
X141755713Y-117313800D02*
X141669999Y-117342371D01*
X141669999Y-117342371D02*
X141612856Y-117342371D01*
X141612856Y-117342371D02*
X141527142Y-117313800D01*
X141527142Y-117313800D02*
X141469999Y-117256657D01*
X141469999Y-117256657D02*
X141441428Y-117199514D01*
X141441428Y-117199514D02*
X141412856Y-117085228D01*
X141412856Y-117085228D02*
X141412856Y-116999514D01*
X141412856Y-116999514D02*
X141441428Y-116885228D01*
X141441428Y-116885228D02*
X141469999Y-116828085D01*
X141469999Y-116828085D02*
X141527142Y-116770942D01*
X141527142Y-116770942D02*
X141612856Y-116742371D01*
X141612856Y-116742371D02*
X141669999Y-116742371D01*
X141669999Y-116742371D02*
X141755713Y-116770942D01*
X141755713Y-116770942D02*
X141784285Y-116799514D01*
X142355713Y-117342371D02*
X142012856Y-117342371D01*
X142184285Y-117342371D02*
X142184285Y-116742371D01*
X142184285Y-116742371D02*
X142127142Y-116828085D01*
X142127142Y-116828085D02*
X142069999Y-116885228D01*
X142069999Y-116885228D02*
X142012856Y-116913800D01*
X142555714Y-116742371D02*
X142927142Y-116742371D01*
X142927142Y-116742371D02*
X142727142Y-116970942D01*
X142727142Y-116970942D02*
X142812857Y-116970942D01*
X142812857Y-116970942D02*
X142870000Y-116999514D01*
X142870000Y-116999514D02*
X142898571Y-117028085D01*
X142898571Y-117028085D02*
X142927142Y-117085228D01*
X142927142Y-117085228D02*
X142927142Y-117228085D01*
X142927142Y-117228085D02*
X142898571Y-117285228D01*
X142898571Y-117285228D02*
X142870000Y-117313800D01*
X142870000Y-117313800D02*
X142812857Y-117342371D01*
X142812857Y-117342371D02*
X142641428Y-117342371D01*
X142641428Y-117342371D02*
X142584285Y-117313800D01*
X142584285Y-117313800D02*
X142555714Y-117285228D01*
X147604285Y-104705228D02*
X147575713Y-104733800D01*
X147575713Y-104733800D02*
X147489999Y-104762371D01*
X147489999Y-104762371D02*
X147432856Y-104762371D01*
X147432856Y-104762371D02*
X147347142Y-104733800D01*
X147347142Y-104733800D02*
X147289999Y-104676657D01*
X147289999Y-104676657D02*
X147261428Y-104619514D01*
X147261428Y-104619514D02*
X147232856Y-104505228D01*
X147232856Y-104505228D02*
X147232856Y-104419514D01*
X147232856Y-104419514D02*
X147261428Y-104305228D01*
X147261428Y-104305228D02*
X147289999Y-104248085D01*
X147289999Y-104248085D02*
X147347142Y-104190942D01*
X147347142Y-104190942D02*
X147432856Y-104162371D01*
X147432856Y-104162371D02*
X147489999Y-104162371D01*
X147489999Y-104162371D02*
X147575713Y-104190942D01*
X147575713Y-104190942D02*
X147604285Y-104219514D01*
X148175713Y-104762371D02*
X147832856Y-104762371D01*
X148004285Y-104762371D02*
X148004285Y-104162371D01*
X148004285Y-104162371D02*
X147947142Y-104248085D01*
X147947142Y-104248085D02*
X147889999Y-104305228D01*
X147889999Y-104305228D02*
X147832856Y-104333800D01*
X148690000Y-104362371D02*
X148690000Y-104762371D01*
X148547142Y-104133800D02*
X148404285Y-104562371D01*
X148404285Y-104562371D02*
X148775714Y-104562371D01*
X130801503Y-111882371D02*
X131201503Y-112482371D01*
X131201503Y-111882371D02*
X130801503Y-112482371D01*
X131344360Y-111882371D02*
X131687218Y-111882371D01*
X131515789Y-112482371D02*
X131515789Y-111882371D01*
X131858646Y-112310942D02*
X132144361Y-112310942D01*
X131801503Y-112482371D02*
X132001503Y-111882371D01*
X132001503Y-111882371D02*
X132201503Y-112482371D01*
X132687218Y-112482371D02*
X132401504Y-112482371D01*
X132401504Y-112482371D02*
X132401504Y-111882371D01*
X133201503Y-112482371D02*
X132858646Y-112482371D01*
X133030075Y-112482371D02*
X133030075Y-111882371D01*
X133030075Y-111882371D02*
X132972932Y-111968085D01*
X132972932Y-111968085D02*
X132915789Y-112025228D01*
X132915789Y-112025228D02*
X132858646Y-112053800D01*
X137474285Y-99652371D02*
X137274285Y-99366657D01*
X137131428Y-99652371D02*
X137131428Y-99052371D01*
X137131428Y-99052371D02*
X137359999Y-99052371D01*
X137359999Y-99052371D02*
X137417142Y-99080942D01*
X137417142Y-99080942D02*
X137445713Y-99109514D01*
X137445713Y-99109514D02*
X137474285Y-99166657D01*
X137474285Y-99166657D02*
X137474285Y-99252371D01*
X137474285Y-99252371D02*
X137445713Y-99309514D01*
X137445713Y-99309514D02*
X137417142Y-99338085D01*
X137417142Y-99338085D02*
X137359999Y-99366657D01*
X137359999Y-99366657D02*
X137131428Y-99366657D01*
X138045713Y-99652371D02*
X137702856Y-99652371D01*
X137874285Y-99652371D02*
X137874285Y-99052371D01*
X137874285Y-99052371D02*
X137817142Y-99138085D01*
X137817142Y-99138085D02*
X137759999Y-99195228D01*
X137759999Y-99195228D02*
X137702856Y-99223800D01*
X138388571Y-99309514D02*
X138331428Y-99280942D01*
X138331428Y-99280942D02*
X138302857Y-99252371D01*
X138302857Y-99252371D02*
X138274285Y-99195228D01*
X138274285Y-99195228D02*
X138274285Y-99166657D01*
X138274285Y-99166657D02*
X138302857Y-99109514D01*
X138302857Y-99109514D02*
X138331428Y-99080942D01*
X138331428Y-99080942D02*
X138388571Y-99052371D01*
X138388571Y-99052371D02*
X138502857Y-99052371D01*
X138502857Y-99052371D02*
X138560000Y-99080942D01*
X138560000Y-99080942D02*
X138588571Y-99109514D01*
X138588571Y-99109514D02*
X138617142Y-99166657D01*
X138617142Y-99166657D02*
X138617142Y-99195228D01*
X138617142Y-99195228D02*
X138588571Y-99252371D01*
X138588571Y-99252371D02*
X138560000Y-99280942D01*
X138560000Y-99280942D02*
X138502857Y-99309514D01*
X138502857Y-99309514D02*
X138388571Y-99309514D01*
X138388571Y-99309514D02*
X138331428Y-99338085D01*
X138331428Y-99338085D02*
X138302857Y-99366657D01*
X138302857Y-99366657D02*
X138274285Y-99423800D01*
X138274285Y-99423800D02*
X138274285Y-99538085D01*
X138274285Y-99538085D02*
X138302857Y-99595228D01*
X138302857Y-99595228D02*
X138331428Y-99623800D01*
X138331428Y-99623800D02*
X138388571Y-99652371D01*
X138388571Y-99652371D02*
X138502857Y-99652371D01*
X138502857Y-99652371D02*
X138560000Y-99623800D01*
X138560000Y-99623800D02*
X138588571Y-99595228D01*
X138588571Y-99595228D02*
X138617142Y-99538085D01*
X138617142Y-99538085D02*
X138617142Y-99423800D01*
X138617142Y-99423800D02*
X138588571Y-99366657D01*
X138588571Y-99366657D02*
X138560000Y-99338085D01*
X138560000Y-99338085D02*
X138502857Y-99309514D01*
X150394285Y-103925228D02*
X150365713Y-103953800D01*
X150365713Y-103953800D02*
X150279999Y-103982371D01*
X150279999Y-103982371D02*
X150222856Y-103982371D01*
X150222856Y-103982371D02*
X150137142Y-103953800D01*
X150137142Y-103953800D02*
X150079999Y-103896657D01*
X150079999Y-103896657D02*
X150051428Y-103839514D01*
X150051428Y-103839514D02*
X150022856Y-103725228D01*
X150022856Y-103725228D02*
X150022856Y-103639514D01*
X150022856Y-103639514D02*
X150051428Y-103525228D01*
X150051428Y-103525228D02*
X150079999Y-103468085D01*
X150079999Y-103468085D02*
X150137142Y-103410942D01*
X150137142Y-103410942D02*
X150222856Y-103382371D01*
X150222856Y-103382371D02*
X150279999Y-103382371D01*
X150279999Y-103382371D02*
X150365713Y-103410942D01*
X150365713Y-103410942D02*
X150394285Y-103439514D01*
X150965713Y-103982371D02*
X150622856Y-103982371D01*
X150794285Y-103982371D02*
X150794285Y-103382371D01*
X150794285Y-103382371D02*
X150737142Y-103468085D01*
X150737142Y-103468085D02*
X150679999Y-103525228D01*
X150679999Y-103525228D02*
X150622856Y-103553800D01*
X151251428Y-103982371D02*
X151365714Y-103982371D01*
X151365714Y-103982371D02*
X151422857Y-103953800D01*
X151422857Y-103953800D02*
X151451428Y-103925228D01*
X151451428Y-103925228D02*
X151508571Y-103839514D01*
X151508571Y-103839514D02*
X151537142Y-103725228D01*
X151537142Y-103725228D02*
X151537142Y-103496657D01*
X151537142Y-103496657D02*
X151508571Y-103439514D01*
X151508571Y-103439514D02*
X151480000Y-103410942D01*
X151480000Y-103410942D02*
X151422857Y-103382371D01*
X151422857Y-103382371D02*
X151308571Y-103382371D01*
X151308571Y-103382371D02*
X151251428Y-103410942D01*
X151251428Y-103410942D02*
X151222857Y-103439514D01*
X151222857Y-103439514D02*
X151194285Y-103496657D01*
X151194285Y-103496657D02*
X151194285Y-103639514D01*
X151194285Y-103639514D02*
X151222857Y-103696657D01*
X151222857Y-103696657D02*
X151251428Y-103725228D01*
X151251428Y-103725228D02*
X151308571Y-103753800D01*
X151308571Y-103753800D02*
X151422857Y-103753800D01*
X151422857Y-103753800D02*
X151480000Y-103725228D01*
X151480000Y-103725228D02*
X151508571Y-103696657D01*
X151508571Y-103696657D02*
X151537142Y-103639514D01*
X151984285Y-107935228D02*
X151955713Y-107963800D01*
X151955713Y-107963800D02*
X151869999Y-107992371D01*
X151869999Y-107992371D02*
X151812856Y-107992371D01*
X151812856Y-107992371D02*
X151727142Y-107963800D01*
X151727142Y-107963800D02*
X151669999Y-107906657D01*
X151669999Y-107906657D02*
X151641428Y-107849514D01*
X151641428Y-107849514D02*
X151612856Y-107735228D01*
X151612856Y-107735228D02*
X151612856Y-107649514D01*
X151612856Y-107649514D02*
X151641428Y-107535228D01*
X151641428Y-107535228D02*
X151669999Y-107478085D01*
X151669999Y-107478085D02*
X151727142Y-107420942D01*
X151727142Y-107420942D02*
X151812856Y-107392371D01*
X151812856Y-107392371D02*
X151869999Y-107392371D01*
X151869999Y-107392371D02*
X151955713Y-107420942D01*
X151955713Y-107420942D02*
X151984285Y-107449514D01*
X152212856Y-107449514D02*
X152241428Y-107420942D01*
X152241428Y-107420942D02*
X152298571Y-107392371D01*
X152298571Y-107392371D02*
X152441428Y-107392371D01*
X152441428Y-107392371D02*
X152498571Y-107420942D01*
X152498571Y-107420942D02*
X152527142Y-107449514D01*
X152527142Y-107449514D02*
X152555713Y-107506657D01*
X152555713Y-107506657D02*
X152555713Y-107563800D01*
X152555713Y-107563800D02*
X152527142Y-107649514D01*
X152527142Y-107649514D02*
X152184285Y-107992371D01*
X152184285Y-107992371D02*
X152555713Y-107992371D01*
X152898571Y-107649514D02*
X152841428Y-107620942D01*
X152841428Y-107620942D02*
X152812857Y-107592371D01*
X152812857Y-107592371D02*
X152784285Y-107535228D01*
X152784285Y-107535228D02*
X152784285Y-107506657D01*
X152784285Y-107506657D02*
X152812857Y-107449514D01*
X152812857Y-107449514D02*
X152841428Y-107420942D01*
X152841428Y-107420942D02*
X152898571Y-107392371D01*
X152898571Y-107392371D02*
X153012857Y-107392371D01*
X153012857Y-107392371D02*
X153070000Y-107420942D01*
X153070000Y-107420942D02*
X153098571Y-107449514D01*
X153098571Y-107449514D02*
X153127142Y-107506657D01*
X153127142Y-107506657D02*
X153127142Y-107535228D01*
X153127142Y-107535228D02*
X153098571Y-107592371D01*
X153098571Y-107592371D02*
X153070000Y-107620942D01*
X153070000Y-107620942D02*
X153012857Y-107649514D01*
X153012857Y-107649514D02*
X152898571Y-107649514D01*
X152898571Y-107649514D02*
X152841428Y-107678085D01*
X152841428Y-107678085D02*
X152812857Y-107706657D01*
X152812857Y-107706657D02*
X152784285Y-107763800D01*
X152784285Y-107763800D02*
X152784285Y-107878085D01*
X152784285Y-107878085D02*
X152812857Y-107935228D01*
X152812857Y-107935228D02*
X152841428Y-107963800D01*
X152841428Y-107963800D02*
X152898571Y-107992371D01*
X152898571Y-107992371D02*
X153012857Y-107992371D01*
X153012857Y-107992371D02*
X153070000Y-107963800D01*
X153070000Y-107963800D02*
X153098571Y-107935228D01*
X153098571Y-107935228D02*
X153127142Y-107878085D01*
X153127142Y-107878085D02*
X153127142Y-107763800D01*
X153127142Y-107763800D02*
X153098571Y-107706657D01*
X153098571Y-107706657D02*
X153070000Y-107678085D01*
X153070000Y-107678085D02*
X153012857Y-107649514D01*
X144270000Y-100752371D02*
X144070000Y-100466657D01*
X143927143Y-100752371D02*
X143927143Y-100152371D01*
X143927143Y-100152371D02*
X144155714Y-100152371D01*
X144155714Y-100152371D02*
X144212857Y-100180942D01*
X144212857Y-100180942D02*
X144241428Y-100209514D01*
X144241428Y-100209514D02*
X144270000Y-100266657D01*
X144270000Y-100266657D02*
X144270000Y-100352371D01*
X144270000Y-100352371D02*
X144241428Y-100409514D01*
X144241428Y-100409514D02*
X144212857Y-100438085D01*
X144212857Y-100438085D02*
X144155714Y-100466657D01*
X144155714Y-100466657D02*
X143927143Y-100466657D01*
X144470000Y-100152371D02*
X144841428Y-100152371D01*
X144841428Y-100152371D02*
X144641428Y-100380942D01*
X144641428Y-100380942D02*
X144727143Y-100380942D01*
X144727143Y-100380942D02*
X144784286Y-100409514D01*
X144784286Y-100409514D02*
X144812857Y-100438085D01*
X144812857Y-100438085D02*
X144841428Y-100495228D01*
X144841428Y-100495228D02*
X144841428Y-100638085D01*
X144841428Y-100638085D02*
X144812857Y-100695228D01*
X144812857Y-100695228D02*
X144784286Y-100723800D01*
X144784286Y-100723800D02*
X144727143Y-100752371D01*
X144727143Y-100752371D02*
X144555714Y-100752371D01*
X144555714Y-100752371D02*
X144498571Y-100723800D01*
X144498571Y-100723800D02*
X144470000Y-100695228D01*
X129548646Y-114471371D02*
X129548646Y-114957085D01*
X129548646Y-114957085D02*
X129577217Y-115014228D01*
X129577217Y-115014228D02*
X129605789Y-115042800D01*
X129605789Y-115042800D02*
X129662931Y-115071371D01*
X129662931Y-115071371D02*
X129777217Y-115071371D01*
X129777217Y-115071371D02*
X129834360Y-115042800D01*
X129834360Y-115042800D02*
X129862931Y-115014228D01*
X129862931Y-115014228D02*
X129891503Y-114957085D01*
X129891503Y-114957085D02*
X129891503Y-114471371D01*
X130491502Y-115071371D02*
X130148645Y-115071371D01*
X130320074Y-115071371D02*
X130320074Y-114471371D01*
X130320074Y-114471371D02*
X130262931Y-114557085D01*
X130262931Y-114557085D02*
X130205788Y-114614228D01*
X130205788Y-114614228D02*
X130148645Y-114642800D01*
X130691503Y-114471371D02*
X131091503Y-114471371D01*
X131091503Y-114471371D02*
X130834360Y-115071371D01*
X152084285Y-111475228D02*
X152055713Y-111503800D01*
X152055713Y-111503800D02*
X151969999Y-111532371D01*
X151969999Y-111532371D02*
X151912856Y-111532371D01*
X151912856Y-111532371D02*
X151827142Y-111503800D01*
X151827142Y-111503800D02*
X151769999Y-111446657D01*
X151769999Y-111446657D02*
X151741428Y-111389514D01*
X151741428Y-111389514D02*
X151712856Y-111275228D01*
X151712856Y-111275228D02*
X151712856Y-111189514D01*
X151712856Y-111189514D02*
X151741428Y-111075228D01*
X151741428Y-111075228D02*
X151769999Y-111018085D01*
X151769999Y-111018085D02*
X151827142Y-110960942D01*
X151827142Y-110960942D02*
X151912856Y-110932371D01*
X151912856Y-110932371D02*
X151969999Y-110932371D01*
X151969999Y-110932371D02*
X152055713Y-110960942D01*
X152055713Y-110960942D02*
X152084285Y-110989514D01*
X152312856Y-110989514D02*
X152341428Y-110960942D01*
X152341428Y-110960942D02*
X152398571Y-110932371D01*
X152398571Y-110932371D02*
X152541428Y-110932371D01*
X152541428Y-110932371D02*
X152598571Y-110960942D01*
X152598571Y-110960942D02*
X152627142Y-110989514D01*
X152627142Y-110989514D02*
X152655713Y-111046657D01*
X152655713Y-111046657D02*
X152655713Y-111103800D01*
X152655713Y-111103800D02*
X152627142Y-111189514D01*
X152627142Y-111189514D02*
X152284285Y-111532371D01*
X152284285Y-111532371D02*
X152655713Y-111532371D01*
X152941428Y-111532371D02*
X153055714Y-111532371D01*
X153055714Y-111532371D02*
X153112857Y-111503800D01*
X153112857Y-111503800D02*
X153141428Y-111475228D01*
X153141428Y-111475228D02*
X153198571Y-111389514D01*
X153198571Y-111389514D02*
X153227142Y-111275228D01*
X153227142Y-111275228D02*
X153227142Y-111046657D01*
X153227142Y-111046657D02*
X153198571Y-110989514D01*
X153198571Y-110989514D02*
X153170000Y-110960942D01*
X153170000Y-110960942D02*
X153112857Y-110932371D01*
X153112857Y-110932371D02*
X152998571Y-110932371D01*
X152998571Y-110932371D02*
X152941428Y-110960942D01*
X152941428Y-110960942D02*
X152912857Y-110989514D01*
X152912857Y-110989514D02*
X152884285Y-111046657D01*
X152884285Y-111046657D02*
X152884285Y-111189514D01*
X152884285Y-111189514D02*
X152912857Y-111246657D01*
X152912857Y-111246657D02*
X152941428Y-111275228D01*
X152941428Y-111275228D02*
X152998571Y-111303800D01*
X152998571Y-111303800D02*
X153112857Y-111303800D01*
X153112857Y-111303800D02*
X153170000Y-111275228D01*
X153170000Y-111275228D02*
X153198571Y-111246657D01*
X153198571Y-111246657D02*
X153227142Y-111189514D01*
X146922857Y-103102371D02*
X146922857Y-103588085D01*
X146922857Y-103588085D02*
X146951428Y-103645228D01*
X146951428Y-103645228D02*
X146980000Y-103673800D01*
X146980000Y-103673800D02*
X147037142Y-103702371D01*
X147037142Y-103702371D02*
X147151428Y-103702371D01*
X147151428Y-103702371D02*
X147208571Y-103673800D01*
X147208571Y-103673800D02*
X147237142Y-103645228D01*
X147237142Y-103645228D02*
X147265714Y-103588085D01*
X147265714Y-103588085D02*
X147265714Y-103102371D01*
X147494285Y-103102371D02*
X147865713Y-103102371D01*
X147865713Y-103102371D02*
X147665713Y-103330942D01*
X147665713Y-103330942D02*
X147751428Y-103330942D01*
X147751428Y-103330942D02*
X147808571Y-103359514D01*
X147808571Y-103359514D02*
X147837142Y-103388085D01*
X147837142Y-103388085D02*
X147865713Y-103445228D01*
X147865713Y-103445228D02*
X147865713Y-103588085D01*
X147865713Y-103588085D02*
X147837142Y-103645228D01*
X147837142Y-103645228D02*
X147808571Y-103673800D01*
X147808571Y-103673800D02*
X147751428Y-103702371D01*
X147751428Y-103702371D02*
X147579999Y-103702371D01*
X147579999Y-103702371D02*
X147522856Y-103673800D01*
X147522856Y-103673800D02*
X147494285Y-103645228D01*
X146312371Y-109225714D02*
X146026657Y-109425714D01*
X146312371Y-109568571D02*
X145712371Y-109568571D01*
X145712371Y-109568571D02*
X145712371Y-109340000D01*
X145712371Y-109340000D02*
X145740942Y-109282857D01*
X145740942Y-109282857D02*
X145769514Y-109254286D01*
X145769514Y-109254286D02*
X145826657Y-109225714D01*
X145826657Y-109225714D02*
X145912371Y-109225714D01*
X145912371Y-109225714D02*
X145969514Y-109254286D01*
X145969514Y-109254286D02*
X145998085Y-109282857D01*
X145998085Y-109282857D02*
X146026657Y-109340000D01*
X146026657Y-109340000D02*
X146026657Y-109568571D01*
X146312371Y-108654286D02*
X146312371Y-108997143D01*
X146312371Y-108825714D02*
X145712371Y-108825714D01*
X145712371Y-108825714D02*
X145798085Y-108882857D01*
X145798085Y-108882857D02*
X145855228Y-108940000D01*
X145855228Y-108940000D02*
X145883800Y-108997143D01*
X145712371Y-108454285D02*
X145712371Y-108082857D01*
X145712371Y-108082857D02*
X145940942Y-108282857D01*
X145940942Y-108282857D02*
X145940942Y-108197142D01*
X145940942Y-108197142D02*
X145969514Y-108140000D01*
X145969514Y-108140000D02*
X145998085Y-108111428D01*
X145998085Y-108111428D02*
X146055228Y-108082857D01*
X146055228Y-108082857D02*
X146198085Y-108082857D01*
X146198085Y-108082857D02*
X146255228Y-108111428D01*
X146255228Y-108111428D02*
X146283800Y-108140000D01*
X146283800Y-108140000D02*
X146312371Y-108197142D01*
X146312371Y-108197142D02*
X146312371Y-108368571D01*
X146312371Y-108368571D02*
X146283800Y-108425714D01*
X146283800Y-108425714D02*
X146255228Y-108454285D01*
X146270000Y-104782371D02*
X146070000Y-104496657D01*
X145927143Y-104782371D02*
X145927143Y-104182371D01*
X145927143Y-104182371D02*
X146155714Y-104182371D01*
X146155714Y-104182371D02*
X146212857Y-104210942D01*
X146212857Y-104210942D02*
X146241428Y-104239514D01*
X146241428Y-104239514D02*
X146270000Y-104296657D01*
X146270000Y-104296657D02*
X146270000Y-104382371D01*
X146270000Y-104382371D02*
X146241428Y-104439514D01*
X146241428Y-104439514D02*
X146212857Y-104468085D01*
X146212857Y-104468085D02*
X146155714Y-104496657D01*
X146155714Y-104496657D02*
X145927143Y-104496657D01*
X146612857Y-104439514D02*
X146555714Y-104410942D01*
X146555714Y-104410942D02*
X146527143Y-104382371D01*
X146527143Y-104382371D02*
X146498571Y-104325228D01*
X146498571Y-104325228D02*
X146498571Y-104296657D01*
X146498571Y-104296657D02*
X146527143Y-104239514D01*
X146527143Y-104239514D02*
X146555714Y-104210942D01*
X146555714Y-104210942D02*
X146612857Y-104182371D01*
X146612857Y-104182371D02*
X146727143Y-104182371D01*
X146727143Y-104182371D02*
X146784286Y-104210942D01*
X146784286Y-104210942D02*
X146812857Y-104239514D01*
X146812857Y-104239514D02*
X146841428Y-104296657D01*
X146841428Y-104296657D02*
X146841428Y-104325228D01*
X146841428Y-104325228D02*
X146812857Y-104382371D01*
X146812857Y-104382371D02*
X146784286Y-104410942D01*
X146784286Y-104410942D02*
X146727143Y-104439514D01*
X146727143Y-104439514D02*
X146612857Y-104439514D01*
X146612857Y-104439514D02*
X146555714Y-104468085D01*
X146555714Y-104468085D02*
X146527143Y-104496657D01*
X146527143Y-104496657D02*
X146498571Y-104553800D01*
X146498571Y-104553800D02*
X146498571Y-104668085D01*
X146498571Y-104668085D02*
X146527143Y-104725228D01*
X146527143Y-104725228D02*
X146555714Y-104753800D01*
X146555714Y-104753800D02*
X146612857Y-104782371D01*
X146612857Y-104782371D02*
X146727143Y-104782371D01*
X146727143Y-104782371D02*
X146784286Y-104753800D01*
X146784286Y-104753800D02*
X146812857Y-104725228D01*
X146812857Y-104725228D02*
X146841428Y-104668085D01*
X146841428Y-104668085D02*
X146841428Y-104553800D01*
X146841428Y-104553800D02*
X146812857Y-104496657D01*
X146812857Y-104496657D02*
X146784286Y-104468085D01*
X146784286Y-104468085D02*
X146727143Y-104439514D01*
X146314285Y-112085228D02*
X146285713Y-112113800D01*
X146285713Y-112113800D02*
X146199999Y-112142371D01*
X146199999Y-112142371D02*
X146142856Y-112142371D01*
X146142856Y-112142371D02*
X146057142Y-112113800D01*
X146057142Y-112113800D02*
X145999999Y-112056657D01*
X145999999Y-112056657D02*
X145971428Y-111999514D01*
X145971428Y-111999514D02*
X145942856Y-111885228D01*
X145942856Y-111885228D02*
X145942856Y-111799514D01*
X145942856Y-111799514D02*
X145971428Y-111685228D01*
X145971428Y-111685228D02*
X145999999Y-111628085D01*
X145999999Y-111628085D02*
X146057142Y-111570942D01*
X146057142Y-111570942D02*
X146142856Y-111542371D01*
X146142856Y-111542371D02*
X146199999Y-111542371D01*
X146199999Y-111542371D02*
X146285713Y-111570942D01*
X146285713Y-111570942D02*
X146314285Y-111599514D01*
X146885713Y-112142371D02*
X146542856Y-112142371D01*
X146714285Y-112142371D02*
X146714285Y-111542371D01*
X146714285Y-111542371D02*
X146657142Y-111628085D01*
X146657142Y-111628085D02*
X146599999Y-111685228D01*
X146599999Y-111685228D02*
X146542856Y-111713800D01*
X147457142Y-112142371D02*
X147114285Y-112142371D01*
X147285714Y-112142371D02*
X147285714Y-111542371D01*
X147285714Y-111542371D02*
X147228571Y-111628085D01*
X147228571Y-111628085D02*
X147171428Y-111685228D01*
X147171428Y-111685228D02*
X147114285Y-111713800D01*
X149274285Y-104715228D02*
X149245713Y-104743800D01*
X149245713Y-104743800D02*
X149159999Y-104772371D01*
X149159999Y-104772371D02*
X149102856Y-104772371D01*
X149102856Y-104772371D02*
X149017142Y-104743800D01*
X149017142Y-104743800D02*
X148959999Y-104686657D01*
X148959999Y-104686657D02*
X148931428Y-104629514D01*
X148931428Y-104629514D02*
X148902856Y-104515228D01*
X148902856Y-104515228D02*
X148902856Y-104429514D01*
X148902856Y-104429514D02*
X148931428Y-104315228D01*
X148931428Y-104315228D02*
X148959999Y-104258085D01*
X148959999Y-104258085D02*
X149017142Y-104200942D01*
X149017142Y-104200942D02*
X149102856Y-104172371D01*
X149102856Y-104172371D02*
X149159999Y-104172371D01*
X149159999Y-104172371D02*
X149245713Y-104200942D01*
X149245713Y-104200942D02*
X149274285Y-104229514D01*
X149502856Y-104229514D02*
X149531428Y-104200942D01*
X149531428Y-104200942D02*
X149588571Y-104172371D01*
X149588571Y-104172371D02*
X149731428Y-104172371D01*
X149731428Y-104172371D02*
X149788571Y-104200942D01*
X149788571Y-104200942D02*
X149817142Y-104229514D01*
X149817142Y-104229514D02*
X149845713Y-104286657D01*
X149845713Y-104286657D02*
X149845713Y-104343800D01*
X149845713Y-104343800D02*
X149817142Y-104429514D01*
X149817142Y-104429514D02*
X149474285Y-104772371D01*
X149474285Y-104772371D02*
X149845713Y-104772371D01*
X150360000Y-104372371D02*
X150360000Y-104772371D01*
X150217142Y-104143800D02*
X150074285Y-104572371D01*
X150074285Y-104572371D02*
X150445714Y-104572371D01*
X150214285Y-99925228D02*
X150185713Y-99953800D01*
X150185713Y-99953800D02*
X150099999Y-99982371D01*
X150099999Y-99982371D02*
X150042856Y-99982371D01*
X150042856Y-99982371D02*
X149957142Y-99953800D01*
X149957142Y-99953800D02*
X149899999Y-99896657D01*
X149899999Y-99896657D02*
X149871428Y-99839514D01*
X149871428Y-99839514D02*
X149842856Y-99725228D01*
X149842856Y-99725228D02*
X149842856Y-99639514D01*
X149842856Y-99639514D02*
X149871428Y-99525228D01*
X149871428Y-99525228D02*
X149899999Y-99468085D01*
X149899999Y-99468085D02*
X149957142Y-99410942D01*
X149957142Y-99410942D02*
X150042856Y-99382371D01*
X150042856Y-99382371D02*
X150099999Y-99382371D01*
X150099999Y-99382371D02*
X150185713Y-99410942D01*
X150185713Y-99410942D02*
X150214285Y-99439514D01*
X150442856Y-99439514D02*
X150471428Y-99410942D01*
X150471428Y-99410942D02*
X150528571Y-99382371D01*
X150528571Y-99382371D02*
X150671428Y-99382371D01*
X150671428Y-99382371D02*
X150728571Y-99410942D01*
X150728571Y-99410942D02*
X150757142Y-99439514D01*
X150757142Y-99439514D02*
X150785713Y-99496657D01*
X150785713Y-99496657D02*
X150785713Y-99553800D01*
X150785713Y-99553800D02*
X150757142Y-99639514D01*
X150757142Y-99639514D02*
X150414285Y-99982371D01*
X150414285Y-99982371D02*
X150785713Y-99982371D01*
X151157142Y-99382371D02*
X151214285Y-99382371D01*
X151214285Y-99382371D02*
X151271428Y-99410942D01*
X151271428Y-99410942D02*
X151300000Y-99439514D01*
X151300000Y-99439514D02*
X151328571Y-99496657D01*
X151328571Y-99496657D02*
X151357142Y-99610942D01*
X151357142Y-99610942D02*
X151357142Y-99753800D01*
X151357142Y-99753800D02*
X151328571Y-99868085D01*
X151328571Y-99868085D02*
X151300000Y-99925228D01*
X151300000Y-99925228D02*
X151271428Y-99953800D01*
X151271428Y-99953800D02*
X151214285Y-99982371D01*
X151214285Y-99982371D02*
X151157142Y-99982371D01*
X151157142Y-99982371D02*
X151100000Y-99953800D01*
X151100000Y-99953800D02*
X151071428Y-99925228D01*
X151071428Y-99925228D02*
X151042857Y-99868085D01*
X151042857Y-99868085D02*
X151014285Y-99753800D01*
X151014285Y-99753800D02*
X151014285Y-99610942D01*
X151014285Y-99610942D02*
X151042857Y-99496657D01*
X151042857Y-99496657D02*
X151071428Y-99439514D01*
X151071428Y-99439514D02*
X151100000Y-99410942D01*
X151100000Y-99410942D02*
X151157142Y-99382371D01*
X152084285Y-110665228D02*
X152055713Y-110693800D01*
X152055713Y-110693800D02*
X151969999Y-110722371D01*
X151969999Y-110722371D02*
X151912856Y-110722371D01*
X151912856Y-110722371D02*
X151827142Y-110693800D01*
X151827142Y-110693800D02*
X151769999Y-110636657D01*
X151769999Y-110636657D02*
X151741428Y-110579514D01*
X151741428Y-110579514D02*
X151712856Y-110465228D01*
X151712856Y-110465228D02*
X151712856Y-110379514D01*
X151712856Y-110379514D02*
X151741428Y-110265228D01*
X151741428Y-110265228D02*
X151769999Y-110208085D01*
X151769999Y-110208085D02*
X151827142Y-110150942D01*
X151827142Y-110150942D02*
X151912856Y-110122371D01*
X151912856Y-110122371D02*
X151969999Y-110122371D01*
X151969999Y-110122371D02*
X152055713Y-110150942D01*
X152055713Y-110150942D02*
X152084285Y-110179514D01*
X152284285Y-110122371D02*
X152655713Y-110122371D01*
X152655713Y-110122371D02*
X152455713Y-110350942D01*
X152455713Y-110350942D02*
X152541428Y-110350942D01*
X152541428Y-110350942D02*
X152598571Y-110379514D01*
X152598571Y-110379514D02*
X152627142Y-110408085D01*
X152627142Y-110408085D02*
X152655713Y-110465228D01*
X152655713Y-110465228D02*
X152655713Y-110608085D01*
X152655713Y-110608085D02*
X152627142Y-110665228D01*
X152627142Y-110665228D02*
X152598571Y-110693800D01*
X152598571Y-110693800D02*
X152541428Y-110722371D01*
X152541428Y-110722371D02*
X152369999Y-110722371D01*
X152369999Y-110722371D02*
X152312856Y-110693800D01*
X152312856Y-110693800D02*
X152284285Y-110665228D01*
X153027142Y-110122371D02*
X153084285Y-110122371D01*
X153084285Y-110122371D02*
X153141428Y-110150942D01*
X153141428Y-110150942D02*
X153170000Y-110179514D01*
X153170000Y-110179514D02*
X153198571Y-110236657D01*
X153198571Y-110236657D02*
X153227142Y-110350942D01*
X153227142Y-110350942D02*
X153227142Y-110493800D01*
X153227142Y-110493800D02*
X153198571Y-110608085D01*
X153198571Y-110608085D02*
X153170000Y-110665228D01*
X153170000Y-110665228D02*
X153141428Y-110693800D01*
X153141428Y-110693800D02*
X153084285Y-110722371D01*
X153084285Y-110722371D02*
X153027142Y-110722371D01*
X153027142Y-110722371D02*
X152970000Y-110693800D01*
X152970000Y-110693800D02*
X152941428Y-110665228D01*
X152941428Y-110665228D02*
X152912857Y-110608085D01*
X152912857Y-110608085D02*
X152884285Y-110493800D01*
X152884285Y-110493800D02*
X152884285Y-110350942D01*
X152884285Y-110350942D02*
X152912857Y-110236657D01*
X152912857Y-110236657D02*
X152941428Y-110179514D01*
X152941428Y-110179514D02*
X152970000Y-110150942D01*
X152970000Y-110150942D02*
X153027142Y-110122371D01*
X145640000Y-114822371D02*
X145440000Y-114536657D01*
X145297143Y-114822371D02*
X145297143Y-114222371D01*
X145297143Y-114222371D02*
X145525714Y-114222371D01*
X145525714Y-114222371D02*
X145582857Y-114250942D01*
X145582857Y-114250942D02*
X145611428Y-114279514D01*
X145611428Y-114279514D02*
X145640000Y-114336657D01*
X145640000Y-114336657D02*
X145640000Y-114422371D01*
X145640000Y-114422371D02*
X145611428Y-114479514D01*
X145611428Y-114479514D02*
X145582857Y-114508085D01*
X145582857Y-114508085D02*
X145525714Y-114536657D01*
X145525714Y-114536657D02*
X145297143Y-114536657D01*
X146211428Y-114822371D02*
X145868571Y-114822371D01*
X146040000Y-114822371D02*
X146040000Y-114222371D01*
X146040000Y-114222371D02*
X145982857Y-114308085D01*
X145982857Y-114308085D02*
X145925714Y-114365228D01*
X145925714Y-114365228D02*
X145868571Y-114393800D01*
X146700000Y-113295228D02*
X146671428Y-113323800D01*
X146671428Y-113323800D02*
X146585714Y-113352371D01*
X146585714Y-113352371D02*
X146528571Y-113352371D01*
X146528571Y-113352371D02*
X146442857Y-113323800D01*
X146442857Y-113323800D02*
X146385714Y-113266657D01*
X146385714Y-113266657D02*
X146357143Y-113209514D01*
X146357143Y-113209514D02*
X146328571Y-113095228D01*
X146328571Y-113095228D02*
X146328571Y-113009514D01*
X146328571Y-113009514D02*
X146357143Y-112895228D01*
X146357143Y-112895228D02*
X146385714Y-112838085D01*
X146385714Y-112838085D02*
X146442857Y-112780942D01*
X146442857Y-112780942D02*
X146528571Y-112752371D01*
X146528571Y-112752371D02*
X146585714Y-112752371D01*
X146585714Y-112752371D02*
X146671428Y-112780942D01*
X146671428Y-112780942D02*
X146700000Y-112809514D01*
X147214286Y-112752371D02*
X147100000Y-112752371D01*
X147100000Y-112752371D02*
X147042857Y-112780942D01*
X147042857Y-112780942D02*
X147014286Y-112809514D01*
X147014286Y-112809514D02*
X146957143Y-112895228D01*
X146957143Y-112895228D02*
X146928571Y-113009514D01*
X146928571Y-113009514D02*
X146928571Y-113238085D01*
X146928571Y-113238085D02*
X146957143Y-113295228D01*
X146957143Y-113295228D02*
X146985714Y-113323800D01*
X146985714Y-113323800D02*
X147042857Y-113352371D01*
X147042857Y-113352371D02*
X147157143Y-113352371D01*
X147157143Y-113352371D02*
X147214286Y-113323800D01*
X147214286Y-113323800D02*
X147242857Y-113295228D01*
X147242857Y-113295228D02*
X147271428Y-113238085D01*
X147271428Y-113238085D02*
X147271428Y-113095228D01*
X147271428Y-113095228D02*
X147242857Y-113038085D01*
X147242857Y-113038085D02*
X147214286Y-113009514D01*
X147214286Y-113009514D02*
X147157143Y-112980942D01*
X147157143Y-112980942D02*
X147042857Y-112980942D01*
X147042857Y-112980942D02*
X146985714Y-113009514D01*
X146985714Y-113009514D02*
X146957143Y-113038085D01*
X146957143Y-113038085D02*
X146928571Y-113095228D01*
X150032857Y-106882371D02*
X150032857Y-107368085D01*
X150032857Y-107368085D02*
X150061428Y-107425228D01*
X150061428Y-107425228D02*
X150090000Y-107453800D01*
X150090000Y-107453800D02*
X150147142Y-107482371D01*
X150147142Y-107482371D02*
X150261428Y-107482371D01*
X150261428Y-107482371D02*
X150318571Y-107453800D01*
X150318571Y-107453800D02*
X150347142Y-107425228D01*
X150347142Y-107425228D02*
X150375714Y-107368085D01*
X150375714Y-107368085D02*
X150375714Y-106882371D01*
X150918571Y-107082371D02*
X150918571Y-107482371D01*
X150775713Y-106853800D02*
X150632856Y-107282371D01*
X150632856Y-107282371D02*
X151004285Y-107282371D01*
X129344285Y-106555228D02*
X129315713Y-106583800D01*
X129315713Y-106583800D02*
X129229999Y-106612371D01*
X129229999Y-106612371D02*
X129172856Y-106612371D01*
X129172856Y-106612371D02*
X129087142Y-106583800D01*
X129087142Y-106583800D02*
X129029999Y-106526657D01*
X129029999Y-106526657D02*
X129001428Y-106469514D01*
X129001428Y-106469514D02*
X128972856Y-106355228D01*
X128972856Y-106355228D02*
X128972856Y-106269514D01*
X128972856Y-106269514D02*
X129001428Y-106155228D01*
X129001428Y-106155228D02*
X129029999Y-106098085D01*
X129029999Y-106098085D02*
X129087142Y-106040942D01*
X129087142Y-106040942D02*
X129172856Y-106012371D01*
X129172856Y-106012371D02*
X129229999Y-106012371D01*
X129229999Y-106012371D02*
X129315713Y-106040942D01*
X129315713Y-106040942D02*
X129344285Y-106069514D01*
X129858571Y-106212371D02*
X129858571Y-106612371D01*
X129715713Y-105983800D02*
X129572856Y-106412371D01*
X129572856Y-106412371D02*
X129944285Y-106412371D01*
X130258571Y-106269514D02*
X130201428Y-106240942D01*
X130201428Y-106240942D02*
X130172857Y-106212371D01*
X130172857Y-106212371D02*
X130144285Y-106155228D01*
X130144285Y-106155228D02*
X130144285Y-106126657D01*
X130144285Y-106126657D02*
X130172857Y-106069514D01*
X130172857Y-106069514D02*
X130201428Y-106040942D01*
X130201428Y-106040942D02*
X130258571Y-106012371D01*
X130258571Y-106012371D02*
X130372857Y-106012371D01*
X130372857Y-106012371D02*
X130430000Y-106040942D01*
X130430000Y-106040942D02*
X130458571Y-106069514D01*
X130458571Y-106069514D02*
X130487142Y-106126657D01*
X130487142Y-106126657D02*
X130487142Y-106155228D01*
X130487142Y-106155228D02*
X130458571Y-106212371D01*
X130458571Y-106212371D02*
X130430000Y-106240942D01*
X130430000Y-106240942D02*
X130372857Y-106269514D01*
X130372857Y-106269514D02*
X130258571Y-106269514D01*
X130258571Y-106269514D02*
X130201428Y-106298085D01*
X130201428Y-106298085D02*
X130172857Y-106326657D01*
X130172857Y-106326657D02*
X130144285Y-106383800D01*
X130144285Y-106383800D02*
X130144285Y-106498085D01*
X130144285Y-106498085D02*
X130172857Y-106555228D01*
X130172857Y-106555228D02*
X130201428Y-106583800D01*
X130201428Y-106583800D02*
X130258571Y-106612371D01*
X130258571Y-106612371D02*
X130372857Y-106612371D01*
X130372857Y-106612371D02*
X130430000Y-106583800D01*
X130430000Y-106583800D02*
X130458571Y-106555228D01*
X130458571Y-106555228D02*
X130487142Y-106498085D01*
X130487142Y-106498085D02*
X130487142Y-106383800D01*
X130487142Y-106383800D02*
X130458571Y-106326657D01*
X130458571Y-106326657D02*
X130430000Y-106298085D01*
X130430000Y-106298085D02*
X130372857Y-106269514D01*
X147032371Y-109405714D02*
X146746657Y-109605714D01*
X147032371Y-109748571D02*
X146432371Y-109748571D01*
X146432371Y-109748571D02*
X146432371Y-109520000D01*
X146432371Y-109520000D02*
X146460942Y-109462857D01*
X146460942Y-109462857D02*
X146489514Y-109434286D01*
X146489514Y-109434286D02*
X146546657Y-109405714D01*
X146546657Y-109405714D02*
X146632371Y-109405714D01*
X146632371Y-109405714D02*
X146689514Y-109434286D01*
X146689514Y-109434286D02*
X146718085Y-109462857D01*
X146718085Y-109462857D02*
X146746657Y-109520000D01*
X146746657Y-109520000D02*
X146746657Y-109748571D01*
X147032371Y-108834286D02*
X147032371Y-109177143D01*
X147032371Y-109005714D02*
X146432371Y-109005714D01*
X146432371Y-109005714D02*
X146518085Y-109062857D01*
X146518085Y-109062857D02*
X146575228Y-109120000D01*
X146575228Y-109120000D02*
X146603800Y-109177143D01*
X146489514Y-108605714D02*
X146460942Y-108577142D01*
X146460942Y-108577142D02*
X146432371Y-108520000D01*
X146432371Y-108520000D02*
X146432371Y-108377142D01*
X146432371Y-108377142D02*
X146460942Y-108320000D01*
X146460942Y-108320000D02*
X146489514Y-108291428D01*
X146489514Y-108291428D02*
X146546657Y-108262857D01*
X146546657Y-108262857D02*
X146603800Y-108262857D01*
X146603800Y-108262857D02*
X146689514Y-108291428D01*
X146689514Y-108291428D02*
X147032371Y-108634285D01*
X147032371Y-108634285D02*
X147032371Y-108262857D01*
X145330000Y-99192371D02*
X145130000Y-98906657D01*
X144987143Y-99192371D02*
X144987143Y-98592371D01*
X144987143Y-98592371D02*
X145215714Y-98592371D01*
X145215714Y-98592371D02*
X145272857Y-98620942D01*
X145272857Y-98620942D02*
X145301428Y-98649514D01*
X145301428Y-98649514D02*
X145330000Y-98706657D01*
X145330000Y-98706657D02*
X145330000Y-98792371D01*
X145330000Y-98792371D02*
X145301428Y-98849514D01*
X145301428Y-98849514D02*
X145272857Y-98878085D01*
X145272857Y-98878085D02*
X145215714Y-98906657D01*
X145215714Y-98906657D02*
X144987143Y-98906657D01*
X145558571Y-98649514D02*
X145587143Y-98620942D01*
X145587143Y-98620942D02*
X145644286Y-98592371D01*
X145644286Y-98592371D02*
X145787143Y-98592371D01*
X145787143Y-98592371D02*
X145844286Y-98620942D01*
X145844286Y-98620942D02*
X145872857Y-98649514D01*
X145872857Y-98649514D02*
X145901428Y-98706657D01*
X145901428Y-98706657D02*
X145901428Y-98763800D01*
X145901428Y-98763800D02*
X145872857Y-98849514D01*
X145872857Y-98849514D02*
X145530000Y-99192371D01*
X145530000Y-99192371D02*
X145901428Y-99192371D01*
X141170000Y-106535228D02*
X141141428Y-106563800D01*
X141141428Y-106563800D02*
X141055714Y-106592371D01*
X141055714Y-106592371D02*
X140998571Y-106592371D01*
X140998571Y-106592371D02*
X140912857Y-106563800D01*
X140912857Y-106563800D02*
X140855714Y-106506657D01*
X140855714Y-106506657D02*
X140827143Y-106449514D01*
X140827143Y-106449514D02*
X140798571Y-106335228D01*
X140798571Y-106335228D02*
X140798571Y-106249514D01*
X140798571Y-106249514D02*
X140827143Y-106135228D01*
X140827143Y-106135228D02*
X140855714Y-106078085D01*
X140855714Y-106078085D02*
X140912857Y-106020942D01*
X140912857Y-106020942D02*
X140998571Y-105992371D01*
X140998571Y-105992371D02*
X141055714Y-105992371D01*
X141055714Y-105992371D02*
X141141428Y-106020942D01*
X141141428Y-106020942D02*
X141170000Y-106049514D01*
X141512857Y-106249514D02*
X141455714Y-106220942D01*
X141455714Y-106220942D02*
X141427143Y-106192371D01*
X141427143Y-106192371D02*
X141398571Y-106135228D01*
X141398571Y-106135228D02*
X141398571Y-106106657D01*
X141398571Y-106106657D02*
X141427143Y-106049514D01*
X141427143Y-106049514D02*
X141455714Y-106020942D01*
X141455714Y-106020942D02*
X141512857Y-105992371D01*
X141512857Y-105992371D02*
X141627143Y-105992371D01*
X141627143Y-105992371D02*
X141684286Y-106020942D01*
X141684286Y-106020942D02*
X141712857Y-106049514D01*
X141712857Y-106049514D02*
X141741428Y-106106657D01*
X141741428Y-106106657D02*
X141741428Y-106135228D01*
X141741428Y-106135228D02*
X141712857Y-106192371D01*
X141712857Y-106192371D02*
X141684286Y-106220942D01*
X141684286Y-106220942D02*
X141627143Y-106249514D01*
X141627143Y-106249514D02*
X141512857Y-106249514D01*
X141512857Y-106249514D02*
X141455714Y-106278085D01*
X141455714Y-106278085D02*
X141427143Y-106306657D01*
X141427143Y-106306657D02*
X141398571Y-106363800D01*
X141398571Y-106363800D02*
X141398571Y-106478085D01*
X141398571Y-106478085D02*
X141427143Y-106535228D01*
X141427143Y-106535228D02*
X141455714Y-106563800D01*
X141455714Y-106563800D02*
X141512857Y-106592371D01*
X141512857Y-106592371D02*
X141627143Y-106592371D01*
X141627143Y-106592371D02*
X141684286Y-106563800D01*
X141684286Y-106563800D02*
X141712857Y-106535228D01*
X141712857Y-106535228D02*
X141741428Y-106478085D01*
X141741428Y-106478085D02*
X141741428Y-106363800D01*
X141741428Y-106363800D02*
X141712857Y-106306657D01*
X141712857Y-106306657D02*
X141684286Y-106278085D01*
X141684286Y-106278085D02*
X141627143Y-106249514D01*
X146420000Y-110455228D02*
X146391428Y-110483800D01*
X146391428Y-110483800D02*
X146305714Y-110512371D01*
X146305714Y-110512371D02*
X146248571Y-110512371D01*
X146248571Y-110512371D02*
X146162857Y-110483800D01*
X146162857Y-110483800D02*
X146105714Y-110426657D01*
X146105714Y-110426657D02*
X146077143Y-110369514D01*
X146077143Y-110369514D02*
X146048571Y-110255228D01*
X146048571Y-110255228D02*
X146048571Y-110169514D01*
X146048571Y-110169514D02*
X146077143Y-110055228D01*
X146077143Y-110055228D02*
X146105714Y-109998085D01*
X146105714Y-109998085D02*
X146162857Y-109940942D01*
X146162857Y-109940942D02*
X146248571Y-109912371D01*
X146248571Y-109912371D02*
X146305714Y-109912371D01*
X146305714Y-109912371D02*
X146391428Y-109940942D01*
X146391428Y-109940942D02*
X146420000Y-109969514D01*
X146934286Y-110112371D02*
X146934286Y-110512371D01*
X146791428Y-109883800D02*
X146648571Y-110312371D01*
X146648571Y-110312371D02*
X147020000Y-110312371D01*
X141592857Y-116002371D02*
X141592857Y-116488085D01*
X141592857Y-116488085D02*
X141621428Y-116545228D01*
X141621428Y-116545228D02*
X141650000Y-116573800D01*
X141650000Y-116573800D02*
X141707142Y-116602371D01*
X141707142Y-116602371D02*
X141821428Y-116602371D01*
X141821428Y-116602371D02*
X141878571Y-116573800D01*
X141878571Y-116573800D02*
X141907142Y-116545228D01*
X141907142Y-116545228D02*
X141935714Y-116488085D01*
X141935714Y-116488085D02*
X141935714Y-116002371D01*
X142535713Y-116602371D02*
X142192856Y-116602371D01*
X142364285Y-116602371D02*
X142364285Y-116002371D01*
X142364285Y-116002371D02*
X142307142Y-116088085D01*
X142307142Y-116088085D02*
X142249999Y-116145228D01*
X142249999Y-116145228D02*
X142192856Y-116173800D01*
X134622371Y-109715714D02*
X134336657Y-109915714D01*
X134622371Y-110058571D02*
X134022371Y-110058571D01*
X134022371Y-110058571D02*
X134022371Y-109830000D01*
X134022371Y-109830000D02*
X134050942Y-109772857D01*
X134050942Y-109772857D02*
X134079514Y-109744286D01*
X134079514Y-109744286D02*
X134136657Y-109715714D01*
X134136657Y-109715714D02*
X134222371Y-109715714D01*
X134222371Y-109715714D02*
X134279514Y-109744286D01*
X134279514Y-109744286D02*
X134308085Y-109772857D01*
X134308085Y-109772857D02*
X134336657Y-109830000D01*
X134336657Y-109830000D02*
X134336657Y-110058571D01*
X134622371Y-109144286D02*
X134622371Y-109487143D01*
X134622371Y-109315714D02*
X134022371Y-109315714D01*
X134022371Y-109315714D02*
X134108085Y-109372857D01*
X134108085Y-109372857D02*
X134165228Y-109430000D01*
X134165228Y-109430000D02*
X134193800Y-109487143D01*
X134022371Y-108772857D02*
X134022371Y-108715714D01*
X134022371Y-108715714D02*
X134050942Y-108658571D01*
X134050942Y-108658571D02*
X134079514Y-108630000D01*
X134079514Y-108630000D02*
X134136657Y-108601428D01*
X134136657Y-108601428D02*
X134250942Y-108572857D01*
X134250942Y-108572857D02*
X134393800Y-108572857D01*
X134393800Y-108572857D02*
X134508085Y-108601428D01*
X134508085Y-108601428D02*
X134565228Y-108630000D01*
X134565228Y-108630000D02*
X134593800Y-108658571D01*
X134593800Y-108658571D02*
X134622371Y-108715714D01*
X134622371Y-108715714D02*
X134622371Y-108772857D01*
X134622371Y-108772857D02*
X134593800Y-108830000D01*
X134593800Y-108830000D02*
X134565228Y-108858571D01*
X134565228Y-108858571D02*
X134508085Y-108887142D01*
X134508085Y-108887142D02*
X134393800Y-108915714D01*
X134393800Y-108915714D02*
X134250942Y-108915714D01*
X134250942Y-108915714D02*
X134136657Y-108887142D01*
X134136657Y-108887142D02*
X134079514Y-108858571D01*
X134079514Y-108858571D02*
X134050942Y-108830000D01*
X134050942Y-108830000D02*
X134022371Y-108772857D01*
X137828646Y-103442371D02*
X137828646Y-103928085D01*
X137828646Y-103928085D02*
X137857217Y-103985228D01*
X137857217Y-103985228D02*
X137885789Y-104013800D01*
X137885789Y-104013800D02*
X137942931Y-104042371D01*
X137942931Y-104042371D02*
X138057217Y-104042371D01*
X138057217Y-104042371D02*
X138114360Y-104013800D01*
X138114360Y-104013800D02*
X138142931Y-103985228D01*
X138142931Y-103985228D02*
X138171503Y-103928085D01*
X138171503Y-103928085D02*
X138171503Y-103442371D01*
X138400074Y-103442371D02*
X138800074Y-103442371D01*
X138800074Y-103442371D02*
X138542931Y-104042371D01*
X131904285Y-115322371D02*
X131704285Y-115036657D01*
X131561428Y-115322371D02*
X131561428Y-114722371D01*
X131561428Y-114722371D02*
X131789999Y-114722371D01*
X131789999Y-114722371D02*
X131847142Y-114750942D01*
X131847142Y-114750942D02*
X131875713Y-114779514D01*
X131875713Y-114779514D02*
X131904285Y-114836657D01*
X131904285Y-114836657D02*
X131904285Y-114922371D01*
X131904285Y-114922371D02*
X131875713Y-114979514D01*
X131875713Y-114979514D02*
X131847142Y-115008085D01*
X131847142Y-115008085D02*
X131789999Y-115036657D01*
X131789999Y-115036657D02*
X131561428Y-115036657D01*
X132475713Y-115322371D02*
X132132856Y-115322371D01*
X132304285Y-115322371D02*
X132304285Y-114722371D01*
X132304285Y-114722371D02*
X132247142Y-114808085D01*
X132247142Y-114808085D02*
X132189999Y-114865228D01*
X132189999Y-114865228D02*
X132132856Y-114893800D01*
X132761428Y-115322371D02*
X132875714Y-115322371D01*
X132875714Y-115322371D02*
X132932857Y-115293800D01*
X132932857Y-115293800D02*
X132961428Y-115265228D01*
X132961428Y-115265228D02*
X133018571Y-115179514D01*
X133018571Y-115179514D02*
X133047142Y-115065228D01*
X133047142Y-115065228D02*
X133047142Y-114836657D01*
X133047142Y-114836657D02*
X133018571Y-114779514D01*
X133018571Y-114779514D02*
X132990000Y-114750942D01*
X132990000Y-114750942D02*
X132932857Y-114722371D01*
X132932857Y-114722371D02*
X132818571Y-114722371D01*
X132818571Y-114722371D02*
X132761428Y-114750942D01*
X132761428Y-114750942D02*
X132732857Y-114779514D01*
X132732857Y-114779514D02*
X132704285Y-114836657D01*
X132704285Y-114836657D02*
X132704285Y-114979514D01*
X132704285Y-114979514D02*
X132732857Y-115036657D01*
X132732857Y-115036657D02*
X132761428Y-115065228D01*
X132761428Y-115065228D02*
X132818571Y-115093800D01*
X132818571Y-115093800D02*
X132932857Y-115093800D01*
X132932857Y-115093800D02*
X132990000Y-115065228D01*
X132990000Y-115065228D02*
X133018571Y-115036657D01*
X133018571Y-115036657D02*
X133047142Y-114979514D01*
X143410000Y-115225228D02*
X143381428Y-115253800D01*
X143381428Y-115253800D02*
X143295714Y-115282371D01*
X143295714Y-115282371D02*
X143238571Y-115282371D01*
X143238571Y-115282371D02*
X143152857Y-115253800D01*
X143152857Y-115253800D02*
X143095714Y-115196657D01*
X143095714Y-115196657D02*
X143067143Y-115139514D01*
X143067143Y-115139514D02*
X143038571Y-115025228D01*
X143038571Y-115025228D02*
X143038571Y-114939514D01*
X143038571Y-114939514D02*
X143067143Y-114825228D01*
X143067143Y-114825228D02*
X143095714Y-114768085D01*
X143095714Y-114768085D02*
X143152857Y-114710942D01*
X143152857Y-114710942D02*
X143238571Y-114682371D01*
X143238571Y-114682371D02*
X143295714Y-114682371D01*
X143295714Y-114682371D02*
X143381428Y-114710942D01*
X143381428Y-114710942D02*
X143410000Y-114739514D01*
X143952857Y-114682371D02*
X143667143Y-114682371D01*
X143667143Y-114682371D02*
X143638571Y-114968085D01*
X143638571Y-114968085D02*
X143667143Y-114939514D01*
X143667143Y-114939514D02*
X143724286Y-114910942D01*
X143724286Y-114910942D02*
X143867143Y-114910942D01*
X143867143Y-114910942D02*
X143924286Y-114939514D01*
X143924286Y-114939514D02*
X143952857Y-114968085D01*
X143952857Y-114968085D02*
X143981428Y-115025228D01*
X143981428Y-115025228D02*
X143981428Y-115168085D01*
X143981428Y-115168085D02*
X143952857Y-115225228D01*
X143952857Y-115225228D02*
X143924286Y-115253800D01*
X143924286Y-115253800D02*
X143867143Y-115282371D01*
X143867143Y-115282371D02*
X143724286Y-115282371D01*
X143724286Y-115282371D02*
X143667143Y-115253800D01*
X143667143Y-115253800D02*
X143638571Y-115225228D01*
X152074285Y-109095228D02*
X152045713Y-109123800D01*
X152045713Y-109123800D02*
X151959999Y-109152371D01*
X151959999Y-109152371D02*
X151902856Y-109152371D01*
X151902856Y-109152371D02*
X151817142Y-109123800D01*
X151817142Y-109123800D02*
X151759999Y-109066657D01*
X151759999Y-109066657D02*
X151731428Y-109009514D01*
X151731428Y-109009514D02*
X151702856Y-108895228D01*
X151702856Y-108895228D02*
X151702856Y-108809514D01*
X151702856Y-108809514D02*
X151731428Y-108695228D01*
X151731428Y-108695228D02*
X151759999Y-108638085D01*
X151759999Y-108638085D02*
X151817142Y-108580942D01*
X151817142Y-108580942D02*
X151902856Y-108552371D01*
X151902856Y-108552371D02*
X151959999Y-108552371D01*
X151959999Y-108552371D02*
X152045713Y-108580942D01*
X152045713Y-108580942D02*
X152074285Y-108609514D01*
X152274285Y-108552371D02*
X152645713Y-108552371D01*
X152645713Y-108552371D02*
X152445713Y-108780942D01*
X152445713Y-108780942D02*
X152531428Y-108780942D01*
X152531428Y-108780942D02*
X152588571Y-108809514D01*
X152588571Y-108809514D02*
X152617142Y-108838085D01*
X152617142Y-108838085D02*
X152645713Y-108895228D01*
X152645713Y-108895228D02*
X152645713Y-109038085D01*
X152645713Y-109038085D02*
X152617142Y-109095228D01*
X152617142Y-109095228D02*
X152588571Y-109123800D01*
X152588571Y-109123800D02*
X152531428Y-109152371D01*
X152531428Y-109152371D02*
X152359999Y-109152371D01*
X152359999Y-109152371D02*
X152302856Y-109123800D01*
X152302856Y-109123800D02*
X152274285Y-109095228D01*
X153217142Y-109152371D02*
X152874285Y-109152371D01*
X153045714Y-109152371D02*
X153045714Y-108552371D01*
X153045714Y-108552371D02*
X152988571Y-108638085D01*
X152988571Y-108638085D02*
X152931428Y-108695228D01*
X152931428Y-108695228D02*
X152874285Y-108723800D01*
X144250000Y-99742371D02*
X144050000Y-99456657D01*
X143907143Y-99742371D02*
X143907143Y-99142371D01*
X143907143Y-99142371D02*
X144135714Y-99142371D01*
X144135714Y-99142371D02*
X144192857Y-99170942D01*
X144192857Y-99170942D02*
X144221428Y-99199514D01*
X144221428Y-99199514D02*
X144250000Y-99256657D01*
X144250000Y-99256657D02*
X144250000Y-99342371D01*
X144250000Y-99342371D02*
X144221428Y-99399514D01*
X144221428Y-99399514D02*
X144192857Y-99428085D01*
X144192857Y-99428085D02*
X144135714Y-99456657D01*
X144135714Y-99456657D02*
X143907143Y-99456657D01*
X144764286Y-99142371D02*
X144650000Y-99142371D01*
X144650000Y-99142371D02*
X144592857Y-99170942D01*
X144592857Y-99170942D02*
X144564286Y-99199514D01*
X144564286Y-99199514D02*
X144507143Y-99285228D01*
X144507143Y-99285228D02*
X144478571Y-99399514D01*
X144478571Y-99399514D02*
X144478571Y-99628085D01*
X144478571Y-99628085D02*
X144507143Y-99685228D01*
X144507143Y-99685228D02*
X144535714Y-99713800D01*
X144535714Y-99713800D02*
X144592857Y-99742371D01*
X144592857Y-99742371D02*
X144707143Y-99742371D01*
X144707143Y-99742371D02*
X144764286Y-99713800D01*
X144764286Y-99713800D02*
X144792857Y-99685228D01*
X144792857Y-99685228D02*
X144821428Y-99628085D01*
X144821428Y-99628085D02*
X144821428Y-99485228D01*
X144821428Y-99485228D02*
X144792857Y-99428085D01*
X144792857Y-99428085D02*
X144764286Y-99399514D01*
X144764286Y-99399514D02*
X144707143Y-99370942D01*
X144707143Y-99370942D02*
X144592857Y-99370942D01*
X144592857Y-99370942D02*
X144535714Y-99399514D01*
X144535714Y-99399514D02*
X144507143Y-99428085D01*
X144507143Y-99428085D02*
X144478571Y-99485228D01*
X134814285Y-115815228D02*
X134785713Y-115843800D01*
X134785713Y-115843800D02*
X134699999Y-115872371D01*
X134699999Y-115872371D02*
X134642856Y-115872371D01*
X134642856Y-115872371D02*
X134557142Y-115843800D01*
X134557142Y-115843800D02*
X134499999Y-115786657D01*
X134499999Y-115786657D02*
X134471428Y-115729514D01*
X134471428Y-115729514D02*
X134442856Y-115615228D01*
X134442856Y-115615228D02*
X134442856Y-115529514D01*
X134442856Y-115529514D02*
X134471428Y-115415228D01*
X134471428Y-115415228D02*
X134499999Y-115358085D01*
X134499999Y-115358085D02*
X134557142Y-115300942D01*
X134557142Y-115300942D02*
X134642856Y-115272371D01*
X134642856Y-115272371D02*
X134699999Y-115272371D01*
X134699999Y-115272371D02*
X134785713Y-115300942D01*
X134785713Y-115300942D02*
X134814285Y-115329514D01*
X135328571Y-115472371D02*
X135328571Y-115872371D01*
X135185713Y-115243800D02*
X135042856Y-115672371D01*
X135042856Y-115672371D02*
X135414285Y-115672371D01*
X135671428Y-115872371D02*
X135785714Y-115872371D01*
X135785714Y-115872371D02*
X135842857Y-115843800D01*
X135842857Y-115843800D02*
X135871428Y-115815228D01*
X135871428Y-115815228D02*
X135928571Y-115729514D01*
X135928571Y-115729514D02*
X135957142Y-115615228D01*
X135957142Y-115615228D02*
X135957142Y-115386657D01*
X135957142Y-115386657D02*
X135928571Y-115329514D01*
X135928571Y-115329514D02*
X135900000Y-115300942D01*
X135900000Y-115300942D02*
X135842857Y-115272371D01*
X135842857Y-115272371D02*
X135728571Y-115272371D01*
X135728571Y-115272371D02*
X135671428Y-115300942D01*
X135671428Y-115300942D02*
X135642857Y-115329514D01*
X135642857Y-115329514D02*
X135614285Y-115386657D01*
X135614285Y-115386657D02*
X135614285Y-115529514D01*
X135614285Y-115529514D02*
X135642857Y-115586657D01*
X135642857Y-115586657D02*
X135671428Y-115615228D01*
X135671428Y-115615228D02*
X135728571Y-115643800D01*
X135728571Y-115643800D02*
X135842857Y-115643800D01*
X135842857Y-115643800D02*
X135900000Y-115615228D01*
X135900000Y-115615228D02*
X135928571Y-115586657D01*
X135928571Y-115586657D02*
X135957142Y-115529514D01*
X153045228Y-102895714D02*
X153073800Y-102924286D01*
X153073800Y-102924286D02*
X153102371Y-103010000D01*
X153102371Y-103010000D02*
X153102371Y-103067143D01*
X153102371Y-103067143D02*
X153073800Y-103152857D01*
X153073800Y-103152857D02*
X153016657Y-103210000D01*
X153016657Y-103210000D02*
X152959514Y-103238571D01*
X152959514Y-103238571D02*
X152845228Y-103267143D01*
X152845228Y-103267143D02*
X152759514Y-103267143D01*
X152759514Y-103267143D02*
X152645228Y-103238571D01*
X152645228Y-103238571D02*
X152588085Y-103210000D01*
X152588085Y-103210000D02*
X152530942Y-103152857D01*
X152530942Y-103152857D02*
X152502371Y-103067143D01*
X152502371Y-103067143D02*
X152502371Y-103010000D01*
X152502371Y-103010000D02*
X152530942Y-102924286D01*
X152530942Y-102924286D02*
X152559514Y-102895714D01*
X152559514Y-102667143D02*
X152530942Y-102638571D01*
X152530942Y-102638571D02*
X152502371Y-102581429D01*
X152502371Y-102581429D02*
X152502371Y-102438571D01*
X152502371Y-102438571D02*
X152530942Y-102381429D01*
X152530942Y-102381429D02*
X152559514Y-102352857D01*
X152559514Y-102352857D02*
X152616657Y-102324286D01*
X152616657Y-102324286D02*
X152673800Y-102324286D01*
X152673800Y-102324286D02*
X152759514Y-102352857D01*
X152759514Y-102352857D02*
X153102371Y-102695714D01*
X153102371Y-102695714D02*
X153102371Y-102324286D01*
X152559514Y-102095714D02*
X152530942Y-102067142D01*
X152530942Y-102067142D02*
X152502371Y-102010000D01*
X152502371Y-102010000D02*
X152502371Y-101867142D01*
X152502371Y-101867142D02*
X152530942Y-101810000D01*
X152530942Y-101810000D02*
X152559514Y-101781428D01*
X152559514Y-101781428D02*
X152616657Y-101752857D01*
X152616657Y-101752857D02*
X152673800Y-101752857D01*
X152673800Y-101752857D02*
X152759514Y-101781428D01*
X152759514Y-101781428D02*
X153102371Y-102124285D01*
X153102371Y-102124285D02*
X153102371Y-101752857D01*
X131174285Y-106702371D02*
X130974285Y-106416657D01*
X130831428Y-106702371D02*
X130831428Y-106102371D01*
X130831428Y-106102371D02*
X131059999Y-106102371D01*
X131059999Y-106102371D02*
X131117142Y-106130942D01*
X131117142Y-106130942D02*
X131145713Y-106159514D01*
X131145713Y-106159514D02*
X131174285Y-106216657D01*
X131174285Y-106216657D02*
X131174285Y-106302371D01*
X131174285Y-106302371D02*
X131145713Y-106359514D01*
X131145713Y-106359514D02*
X131117142Y-106388085D01*
X131117142Y-106388085D02*
X131059999Y-106416657D01*
X131059999Y-106416657D02*
X130831428Y-106416657D01*
X131745713Y-106702371D02*
X131402856Y-106702371D01*
X131574285Y-106702371D02*
X131574285Y-106102371D01*
X131574285Y-106102371D02*
X131517142Y-106188085D01*
X131517142Y-106188085D02*
X131459999Y-106245228D01*
X131459999Y-106245228D02*
X131402856Y-106273800D01*
X131945714Y-106102371D02*
X132345714Y-106102371D01*
X132345714Y-106102371D02*
X132088571Y-106702371D01*
X148604285Y-113335228D02*
X148575713Y-113363800D01*
X148575713Y-113363800D02*
X148489999Y-113392371D01*
X148489999Y-113392371D02*
X148432856Y-113392371D01*
X148432856Y-113392371D02*
X148347142Y-113363800D01*
X148347142Y-113363800D02*
X148289999Y-113306657D01*
X148289999Y-113306657D02*
X148261428Y-113249514D01*
X148261428Y-113249514D02*
X148232856Y-113135228D01*
X148232856Y-113135228D02*
X148232856Y-113049514D01*
X148232856Y-113049514D02*
X148261428Y-112935228D01*
X148261428Y-112935228D02*
X148289999Y-112878085D01*
X148289999Y-112878085D02*
X148347142Y-112820942D01*
X148347142Y-112820942D02*
X148432856Y-112792371D01*
X148432856Y-112792371D02*
X148489999Y-112792371D01*
X148489999Y-112792371D02*
X148575713Y-112820942D01*
X148575713Y-112820942D02*
X148604285Y-112849514D01*
X148804285Y-112792371D02*
X149175713Y-112792371D01*
X149175713Y-112792371D02*
X148975713Y-113020942D01*
X148975713Y-113020942D02*
X149061428Y-113020942D01*
X149061428Y-113020942D02*
X149118571Y-113049514D01*
X149118571Y-113049514D02*
X149147142Y-113078085D01*
X149147142Y-113078085D02*
X149175713Y-113135228D01*
X149175713Y-113135228D02*
X149175713Y-113278085D01*
X149175713Y-113278085D02*
X149147142Y-113335228D01*
X149147142Y-113335228D02*
X149118571Y-113363800D01*
X149118571Y-113363800D02*
X149061428Y-113392371D01*
X149061428Y-113392371D02*
X148889999Y-113392371D01*
X148889999Y-113392371D02*
X148832856Y-113363800D01*
X148832856Y-113363800D02*
X148804285Y-113335228D01*
X149518571Y-113049514D02*
X149461428Y-113020942D01*
X149461428Y-113020942D02*
X149432857Y-112992371D01*
X149432857Y-112992371D02*
X149404285Y-112935228D01*
X149404285Y-112935228D02*
X149404285Y-112906657D01*
X149404285Y-112906657D02*
X149432857Y-112849514D01*
X149432857Y-112849514D02*
X149461428Y-112820942D01*
X149461428Y-112820942D02*
X149518571Y-112792371D01*
X149518571Y-112792371D02*
X149632857Y-112792371D01*
X149632857Y-112792371D02*
X149690000Y-112820942D01*
X149690000Y-112820942D02*
X149718571Y-112849514D01*
X149718571Y-112849514D02*
X149747142Y-112906657D01*
X149747142Y-112906657D02*
X149747142Y-112935228D01*
X149747142Y-112935228D02*
X149718571Y-112992371D01*
X149718571Y-112992371D02*
X149690000Y-113020942D01*
X149690000Y-113020942D02*
X149632857Y-113049514D01*
X149632857Y-113049514D02*
X149518571Y-113049514D01*
X149518571Y-113049514D02*
X149461428Y-113078085D01*
X149461428Y-113078085D02*
X149432857Y-113106657D01*
X149432857Y-113106657D02*
X149404285Y-113163800D01*
X149404285Y-113163800D02*
X149404285Y-113278085D01*
X149404285Y-113278085D02*
X149432857Y-113335228D01*
X149432857Y-113335228D02*
X149461428Y-113363800D01*
X149461428Y-113363800D02*
X149518571Y-113392371D01*
X149518571Y-113392371D02*
X149632857Y-113392371D01*
X149632857Y-113392371D02*
X149690000Y-113363800D01*
X149690000Y-113363800D02*
X149718571Y-113335228D01*
X149718571Y-113335228D02*
X149747142Y-113278085D01*
X149747142Y-113278085D02*
X149747142Y-113163800D01*
X149747142Y-113163800D02*
X149718571Y-113106657D01*
X149718571Y-113106657D02*
X149690000Y-113078085D01*
X149690000Y-113078085D02*
X149632857Y-113049514D01*
X140300000Y-105885228D02*
X140271428Y-105913800D01*
X140271428Y-105913800D02*
X140185714Y-105942371D01*
X140185714Y-105942371D02*
X140128571Y-105942371D01*
X140128571Y-105942371D02*
X140042857Y-105913800D01*
X140042857Y-105913800D02*
X139985714Y-105856657D01*
X139985714Y-105856657D02*
X139957143Y-105799514D01*
X139957143Y-105799514D02*
X139928571Y-105685228D01*
X139928571Y-105685228D02*
X139928571Y-105599514D01*
X139928571Y-105599514D02*
X139957143Y-105485228D01*
X139957143Y-105485228D02*
X139985714Y-105428085D01*
X139985714Y-105428085D02*
X140042857Y-105370942D01*
X140042857Y-105370942D02*
X140128571Y-105342371D01*
X140128571Y-105342371D02*
X140185714Y-105342371D01*
X140185714Y-105342371D02*
X140271428Y-105370942D01*
X140271428Y-105370942D02*
X140300000Y-105399514D01*
X140585714Y-105942371D02*
X140700000Y-105942371D01*
X140700000Y-105942371D02*
X140757143Y-105913800D01*
X140757143Y-105913800D02*
X140785714Y-105885228D01*
X140785714Y-105885228D02*
X140842857Y-105799514D01*
X140842857Y-105799514D02*
X140871428Y-105685228D01*
X140871428Y-105685228D02*
X140871428Y-105456657D01*
X140871428Y-105456657D02*
X140842857Y-105399514D01*
X140842857Y-105399514D02*
X140814286Y-105370942D01*
X140814286Y-105370942D02*
X140757143Y-105342371D01*
X140757143Y-105342371D02*
X140642857Y-105342371D01*
X140642857Y-105342371D02*
X140585714Y-105370942D01*
X140585714Y-105370942D02*
X140557143Y-105399514D01*
X140557143Y-105399514D02*
X140528571Y-105456657D01*
X140528571Y-105456657D02*
X140528571Y-105599514D01*
X140528571Y-105599514D02*
X140557143Y-105656657D01*
X140557143Y-105656657D02*
X140585714Y-105685228D01*
X140585714Y-105685228D02*
X140642857Y-105713800D01*
X140642857Y-105713800D02*
X140757143Y-105713800D01*
X140757143Y-105713800D02*
X140814286Y-105685228D01*
X140814286Y-105685228D02*
X140842857Y-105656657D01*
X140842857Y-105656657D02*
X140871428Y-105599514D01*
X139280000Y-106535228D02*
X139251428Y-106563800D01*
X139251428Y-106563800D02*
X139165714Y-106592371D01*
X139165714Y-106592371D02*
X139108571Y-106592371D01*
X139108571Y-106592371D02*
X139022857Y-106563800D01*
X139022857Y-106563800D02*
X138965714Y-106506657D01*
X138965714Y-106506657D02*
X138937143Y-106449514D01*
X138937143Y-106449514D02*
X138908571Y-106335228D01*
X138908571Y-106335228D02*
X138908571Y-106249514D01*
X138908571Y-106249514D02*
X138937143Y-106135228D01*
X138937143Y-106135228D02*
X138965714Y-106078085D01*
X138965714Y-106078085D02*
X139022857Y-106020942D01*
X139022857Y-106020942D02*
X139108571Y-105992371D01*
X139108571Y-105992371D02*
X139165714Y-105992371D01*
X139165714Y-105992371D02*
X139251428Y-106020942D01*
X139251428Y-106020942D02*
X139280000Y-106049514D01*
X139480000Y-105992371D02*
X139880000Y-105992371D01*
X139880000Y-105992371D02*
X139622857Y-106592371D01*
X137668646Y-104542371D02*
X137668646Y-105028085D01*
X137668646Y-105028085D02*
X137697217Y-105085228D01*
X137697217Y-105085228D02*
X137725789Y-105113800D01*
X137725789Y-105113800D02*
X137782931Y-105142371D01*
X137782931Y-105142371D02*
X137897217Y-105142371D01*
X137897217Y-105142371D02*
X137954360Y-105113800D01*
X137954360Y-105113800D02*
X137982931Y-105085228D01*
X137982931Y-105085228D02*
X138011503Y-105028085D01*
X138011503Y-105028085D02*
X138011503Y-104542371D01*
X138611502Y-105142371D02*
X138268645Y-105142371D01*
X138440074Y-105142371D02*
X138440074Y-104542371D01*
X138440074Y-104542371D02*
X138382931Y-104628085D01*
X138382931Y-104628085D02*
X138325788Y-104685228D01*
X138325788Y-104685228D02*
X138268645Y-104713800D01*
X139154360Y-104542371D02*
X138868646Y-104542371D01*
X138868646Y-104542371D02*
X138840074Y-104828085D01*
X138840074Y-104828085D02*
X138868646Y-104799514D01*
X138868646Y-104799514D02*
X138925789Y-104770942D01*
X138925789Y-104770942D02*
X139068646Y-104770942D01*
X139068646Y-104770942D02*
X139125789Y-104799514D01*
X139125789Y-104799514D02*
X139154360Y-104828085D01*
X139154360Y-104828085D02*
X139182931Y-104885228D01*
X139182931Y-104885228D02*
X139182931Y-105028085D01*
X139182931Y-105028085D02*
X139154360Y-105085228D01*
X139154360Y-105085228D02*
X139125789Y-105113800D01*
X139125789Y-105113800D02*
X139068646Y-105142371D01*
X139068646Y-105142371D02*
X138925789Y-105142371D01*
X138925789Y-105142371D02*
X138868646Y-105113800D01*
X138868646Y-105113800D02*
X138840074Y-105085228D01*
X132774285Y-110695228D02*
X132745713Y-110723800D01*
X132745713Y-110723800D02*
X132659999Y-110752371D01*
X132659999Y-110752371D02*
X132602856Y-110752371D01*
X132602856Y-110752371D02*
X132517142Y-110723800D01*
X132517142Y-110723800D02*
X132459999Y-110666657D01*
X132459999Y-110666657D02*
X132431428Y-110609514D01*
X132431428Y-110609514D02*
X132402856Y-110495228D01*
X132402856Y-110495228D02*
X132402856Y-110409514D01*
X132402856Y-110409514D02*
X132431428Y-110295228D01*
X132431428Y-110295228D02*
X132459999Y-110238085D01*
X132459999Y-110238085D02*
X132517142Y-110180942D01*
X132517142Y-110180942D02*
X132602856Y-110152371D01*
X132602856Y-110152371D02*
X132659999Y-110152371D01*
X132659999Y-110152371D02*
X132745713Y-110180942D01*
X132745713Y-110180942D02*
X132774285Y-110209514D01*
X133288571Y-110352371D02*
X133288571Y-110752371D01*
X133145713Y-110123800D02*
X133002856Y-110552371D01*
X133002856Y-110552371D02*
X133374285Y-110552371D01*
X133545714Y-110152371D02*
X133945714Y-110152371D01*
X133945714Y-110152371D02*
X133688571Y-110752371D01*
X143358646Y-104782371D02*
X143358646Y-104182371D01*
X143358646Y-104182371D02*
X143501503Y-104182371D01*
X143501503Y-104182371D02*
X143587217Y-104210942D01*
X143587217Y-104210942D02*
X143644360Y-104268085D01*
X143644360Y-104268085D02*
X143672931Y-104325228D01*
X143672931Y-104325228D02*
X143701503Y-104439514D01*
X143701503Y-104439514D02*
X143701503Y-104525228D01*
X143701503Y-104525228D02*
X143672931Y-104639514D01*
X143672931Y-104639514D02*
X143644360Y-104696657D01*
X143644360Y-104696657D02*
X143587217Y-104753800D01*
X143587217Y-104753800D02*
X143501503Y-104782371D01*
X143501503Y-104782371D02*
X143358646Y-104782371D01*
X144272931Y-104782371D02*
X143930074Y-104782371D01*
X144101503Y-104782371D02*
X144101503Y-104182371D01*
X144101503Y-104182371D02*
X144044360Y-104268085D01*
X144044360Y-104268085D02*
X143987217Y-104325228D01*
X143987217Y-104325228D02*
X143930074Y-104353800D01*
D11*
%TO.C,U5*%
X146250000Y-113650000D02*
X151250000Y-113650000D01*
X146250000Y-116950000D02*
X146250000Y-113650000D01*
X146571000Y-113518000D02*
X147079000Y-114074000D01*
X146571000Y-114534000D02*
X146571000Y-113518000D01*
X147079000Y-114074000D02*
X146571000Y-114534000D01*
X151250000Y-113650000D02*
X151250000Y-116950000D01*
X151250000Y-116950000D02*
X146250000Y-116950000D01*
D10*
X147600000Y-113250000D02*
G75*
G03*
X147500000Y-113250000I-50000J0D01*
G01*
X147500000Y-113250000D02*
G75*
G03*
X147600000Y-113250000I50000J0D01*
G01*
%TO.C,U2*%
G36*
X146123925Y-117289281D02*
G01*
X146142684Y-117294972D01*
X146159973Y-117304213D01*
X146175127Y-117316649D01*
X146187563Y-117331803D01*
X146196804Y-117349092D01*
X146202495Y-117367851D01*
X146204416Y-117387360D01*
X146202495Y-117406869D01*
X146196804Y-117425628D01*
X146187563Y-117442917D01*
X146175127Y-117458071D01*
X146159973Y-117470507D01*
X146142684Y-117479748D01*
X146123925Y-117485439D01*
X146104416Y-117487360D01*
X146084907Y-117485439D01*
X146066148Y-117479748D01*
X146048859Y-117470507D01*
X146033705Y-117458071D01*
X146021269Y-117442917D01*
X146012028Y-117425628D01*
X146006337Y-117406869D01*
X146004416Y-117387360D01*
X146006337Y-117367851D01*
X146012028Y-117349092D01*
X146021269Y-117331803D01*
X146033705Y-117316649D01*
X146048859Y-117304213D01*
X146066148Y-117294972D01*
X146084907Y-117289281D01*
X146104416Y-117287360D01*
X146123925Y-117289281D01*
G37*
%TO.C,U12*%
X131238561Y-109908162D02*
X130070421Y-108740022D01*
X132407409Y-108739314D02*
X131238561Y-109908162D01*
X130070421Y-108740022D02*
X131239269Y-107571174D01*
X131239269Y-107571174D02*
X132407409Y-108739314D01*
X132576352Y-108562891D02*
G75*
G03*
X132376352Y-108562891I-100000J0D01*
G01*
X132376352Y-108562891D02*
G75*
G03*
X132576352Y-108562891I100000J0D01*
G01*
D12*
%TO.C,U14*%
X126900500Y-108050000D02*
X126900500Y-105450000D01*
X127038500Y-107004000D02*
X127038500Y-106496000D01*
X128562500Y-107004000D02*
X128562500Y-106496000D01*
X128699500Y-105450000D02*
X128699500Y-108050000D01*
X127038500Y-107004000D02*
G75*
G03*
X128562500Y-107004000I762000J0D01*
G01*
X128562500Y-106496000D02*
G75*
G03*
X127038500Y-106496000I-762000J0D01*
G01*
X128181500Y-106750000D02*
G75*
G03*
X127419500Y-106750000I-381000J0D01*
G01*
X127419500Y-106750000D02*
G75*
G03*
X128181500Y-106750000I381000J0D01*
G01*
D13*
%TO.C,U9*%
X136077203Y-106796391D02*
X136077203Y-106550391D01*
X136077203Y-104143391D02*
X136077203Y-104389391D01*
X135331203Y-106796391D02*
X136077203Y-106796391D01*
X135331203Y-104143391D02*
X136077203Y-104143391D01*
X133670203Y-106796391D02*
X132925203Y-106796391D01*
X133670203Y-104143391D02*
X132925203Y-104143391D01*
X132925203Y-106796391D02*
X132925203Y-106550391D01*
X132925203Y-104143391D02*
X132925203Y-104389391D01*
D14*
X136354203Y-106231391D02*
G75*
G03*
X136204203Y-106231391I-75000J0D01*
G01*
X136204203Y-106231391D02*
G75*
G03*
X136354203Y-106231391I75000J0D01*
G01*
D12*
%TO.C,U16*%
X146900500Y-108050000D02*
X146900500Y-105450000D01*
X147038500Y-107004000D02*
X147038500Y-106496000D01*
X148562500Y-107004000D02*
X148562500Y-106496000D01*
X148699500Y-105450000D02*
X148699500Y-108050000D01*
X147038500Y-107004000D02*
G75*
G03*
X148562500Y-107004000I762000J0D01*
G01*
X148562500Y-106496000D02*
G75*
G03*
X147038500Y-106496000I-762000J0D01*
G01*
X148181500Y-106750000D02*
G75*
G03*
X147419500Y-106750000I-381000J0D01*
G01*
X147419500Y-106750000D02*
G75*
G03*
X148181500Y-106750000I381000J0D01*
G01*
D13*
%TO.C,XTAL1*%
X134788739Y-110893155D02*
X133331739Y-110893155D01*
X133331739Y-110893155D02*
X133331739Y-112150155D01*
X135550739Y-111111155D02*
X135550739Y-113651155D01*
X133518739Y-111111155D02*
X135550739Y-111111155D01*
X133518739Y-111111155D02*
X133518739Y-111111155D01*
X133518739Y-111111155D02*
X133518739Y-111111155D01*
X135550739Y-113651155D02*
X133518739Y-113651155D01*
X133518739Y-113651155D02*
X133518739Y-111111155D01*
D14*
%TO.C,U17*%
X130501127Y-116212070D02*
X130501127Y-116612070D01*
X129751127Y-117212070D02*
X128051127Y-117212070D01*
X129751127Y-115612070D02*
X128051127Y-115612070D01*
X127301127Y-116212070D02*
X127301127Y-116612070D01*
G36*
X130001127Y-116662070D02*
G01*
X129501127Y-116662070D01*
X129501127Y-116162070D01*
X130001127Y-116162070D01*
X130001127Y-116662070D01*
G37*
D15*
%TO.C,U3*%
X149642027Y-100883825D02*
X149642027Y-101112425D01*
%TO.C,U4*%
G36*
X150824606Y-107840496D02*
G01*
X150843365Y-107846187D01*
X150860654Y-107855428D01*
X150875808Y-107867864D01*
X150888244Y-107883018D01*
X150897485Y-107900307D01*
X150903176Y-107919066D01*
X150905097Y-107938575D01*
X150903176Y-107958084D01*
X150897485Y-107976843D01*
X150888244Y-107994132D01*
X150875808Y-108009286D01*
X150860654Y-108021722D01*
X150843365Y-108030963D01*
X150824606Y-108036654D01*
X150805097Y-108038575D01*
X150785588Y-108036654D01*
X150766829Y-108030963D01*
X150749540Y-108021722D01*
X150734386Y-108009286D01*
X150721950Y-107994132D01*
X150712709Y-107976843D01*
X150707018Y-107958084D01*
X150705097Y-107938575D01*
X150707018Y-107919066D01*
X150712709Y-107900307D01*
X150721950Y-107883018D01*
X150734386Y-107867864D01*
X150749540Y-107855428D01*
X150766829Y-107846187D01*
X150785588Y-107840496D01*
X150805097Y-107838575D01*
X150824606Y-107840496D01*
G37*
%TO.C,U1*%
X141755165Y-115035186D02*
X141526565Y-115035186D01*
D13*
%TO.C,U7*%
X136855635Y-103118286D02*
X136855635Y-101965286D01*
X138457635Y-101965286D02*
X138457635Y-103118286D01*
D16*
X137248635Y-103558286D02*
G75*
G03*
X137048635Y-103558286I-100000J0D01*
G01*
X137048635Y-103558286D02*
G75*
G03*
X137248635Y-103558286I100000J0D01*
G01*
D12*
%TO.C,U15*%
X136900500Y-108050000D02*
X136900500Y-105450000D01*
X137038500Y-107004000D02*
X137038500Y-106496000D01*
X138562500Y-107004000D02*
X138562500Y-106496000D01*
X138699500Y-105450000D02*
X138699500Y-108050000D01*
X137038500Y-107004000D02*
G75*
G03*
X138562500Y-107004000I762000J0D01*
G01*
X138562500Y-106496000D02*
G75*
G03*
X137038500Y-106496000I-762000J0D01*
G01*
X138181500Y-106750000D02*
G75*
G03*
X137419500Y-106750000I-381000J0D01*
G01*
X137419500Y-106750000D02*
G75*
G03*
X138181500Y-106750000I381000J0D01*
G01*
D10*
%TO.C,D1*%
X140827328Y-102967321D02*
X140827328Y-103127321D01*
X140827328Y-103036321D02*
X140827328Y-103057321D01*
X141970328Y-103047321D02*
X142224328Y-103301321D01*
X141975328Y-102031321D02*
X142219328Y-102031321D01*
X142219328Y-104063321D02*
X141975328Y-104063321D01*
X142224328Y-102793321D02*
X141970328Y-103047321D01*
X142224328Y-103301321D02*
X142224328Y-102793321D01*
X143367328Y-102967321D02*
X143367328Y-103127321D01*
X143367328Y-103036321D02*
X143367328Y-103057321D01*
X143875328Y-103936321D02*
G75*
G03*
X143621328Y-103936321I-127000J0D01*
G01*
X143621328Y-103936321D02*
G75*
G03*
X143875328Y-103936321I127000J0D01*
G01*
%TD*%
D17*
X134301369Y-98513144D02*
X134301369Y-100393144D01*
X139051369Y-100393144D02*
X139901369Y-100393144D01*
X125750000Y-117500000D02*
X125750000Y-98500000D01*
X152000000Y-117000000D02*
X152000000Y-117500000D01*
X139901369Y-98513144D02*
X142701369Y-98513144D01*
X152000000Y-117500000D02*
X125750000Y-117500000D01*
X139051369Y-98513144D02*
X139051369Y-100393144D01*
X139901369Y-100393144D02*
X139901369Y-98513144D01*
X153250000Y-116000000D02*
X153000000Y-116000000D01*
X125750000Y-98500000D02*
X153250000Y-98500000D01*
X134301369Y-100393144D02*
X135151369Y-100393144D01*
X131501369Y-98513144D02*
X134301369Y-98513144D01*
X153250000Y-98500000D02*
X153250000Y-116000000D01*
X135151369Y-100393144D02*
X135151369Y-98513144D01*
X135151369Y-98513144D02*
X139051369Y-98513144D01*
X131501369Y-98363144D02*
X131501369Y-98513144D01*
X142701369Y-98363144D02*
X131501369Y-98363144D01*
X142701369Y-98513144D02*
X142701369Y-98363144D01*
X153000000Y-116000000D02*
G75*
G03*
X152000000Y-117000000I0J-1000000D01*
G01*
M02*
