%TF.GenerationSoftware,KiCad,Pcbnew,7.0.10*%
%TF.CreationDate,2024-02-22T14:43:34-08:00*%
%TF.ProjectId,beeper-design,62656570-6572-42d6-9465-7369676e2e6b,rev?*%
%TF.SameCoordinates,Original*%
%TF.FileFunction,Copper,L2,Inr*%
%TF.FilePolarity,Positive*%
%FSLAX46Y46*%
G04 Gerber Fmt 4.6, Leading zero omitted, Abs format (unit mm)*
G04 Created by KiCad (PCBNEW 7.0.10) date 2024-02-22 14:43:34*
%MOMM*%
%LPD*%
G01*
G04 APERTURE LIST*
G04 Aperture macros list*
%AMFreePoly0*
4,1,23,-0.292165,0.615485,-0.251612,0.588388,-0.224515,0.547835,0.132127,-0.086104,0.180901,-0.159099,0.428388,-0.411612,0.455485,-0.452165,0.465000,-0.500000,0.455485,-0.547835,0.428388,-0.588388,0.387835,-0.615485,0.340000,-0.625000,0.292165,-0.615485,0.251612,-0.588388,0.039480,-0.300520,-0.052649,-0.162640,-0.455485,0.452165,-0.465000,0.500000,-0.455485,0.547835,-0.428388,0.588388,
-0.387835,0.615485,-0.340000,0.625000,-0.292165,0.615485,-0.292165,0.615485,$1*%
G04 Aperture macros list end*
%TA.AperFunction,Conductor*%
%ADD10FreePoly0,0.000000*%
%TD*%
%TA.AperFunction,ViaPad*%
%ADD11C,0.250000*%
%TD*%
%TA.AperFunction,ViaPad*%
%ADD12C,0.400000*%
%TD*%
%TA.AperFunction,Profile*%
%ADD13C,0.050000*%
%TD*%
G04 APERTURE END LIST*
D10*
%TO.N,VDD3P0*%
%TO.C,*%
X149635097Y-110688575D03*
%TD*%
D11*
%TO.N,mcu_mcu-etm_data3*%
X139405165Y-110710086D03*
%TO.N,VDD1P8*%
X135016650Y-107661488D03*
X133926649Y-107220038D03*
D12*
X133325956Y-104235270D03*
D11*
X141205165Y-110710086D03*
X135015724Y-103681760D03*
D12*
%TO.N,mcu_dbg-m33_swdio*%
X131034915Y-103779895D03*
D11*
%TO.N,VDD1P8P*%
X143703396Y-112633556D03*
X151044033Y-108500601D03*
D12*
%TO.N,AC2*%
X151108026Y-101264622D03*
X151733181Y-101256460D03*
D11*
%TO.N,VDDSYS*%
X144792591Y-111787456D03*
X131912614Y-110352663D03*
X150315097Y-110438575D03*
X144186210Y-111818502D03*
X140755165Y-109810086D03*
X130381632Y-107879426D03*
D12*
%TO.N,QVAR2*%
X141062328Y-116503834D03*
X132672133Y-107033068D03*
%TO.N,VBUS*%
X128185938Y-103832108D03*
D11*
X137167141Y-101381040D03*
X148207021Y-103326510D03*
X140261103Y-107837973D03*
%TO.N,codec-i2c-net_sda*%
X140305165Y-113410086D03*
X148536088Y-111998078D03*
%TO.N,GND*%
X151519801Y-112391422D03*
X151545265Y-111748167D03*
D12*
X131338093Y-114388344D03*
D11*
X132922454Y-116687814D03*
D12*
X138422325Y-104037396D03*
D11*
X144931444Y-108805663D03*
D12*
X126402896Y-113804210D03*
D11*
X136407665Y-113617586D03*
X151519801Y-110450801D03*
X151523878Y-111102622D03*
X145435963Y-110880213D03*
X139405165Y-112060086D03*
X144930904Y-109443453D03*
X147354287Y-99464227D03*
X145429651Y-110187605D03*
D12*
X126402896Y-117057853D03*
D11*
X137155165Y-112960086D03*
X135053591Y-116689001D03*
D12*
X131338093Y-113709436D03*
D11*
X151515723Y-108500601D03*
X141655165Y-111610086D03*
X149341927Y-101008825D03*
X142201574Y-107004767D03*
X139405165Y-111610086D03*
X144133019Y-114248787D03*
X139254147Y-106768250D03*
X149341927Y-102208825D03*
X140261103Y-107018250D03*
X136857665Y-114967586D03*
X138517064Y-106012546D03*
X149744277Y-103579559D03*
D12*
X128077499Y-101282656D03*
D11*
X148500000Y-114050000D03*
X139405165Y-112510086D03*
D12*
X131338093Y-115067252D03*
D11*
X149341927Y-101808825D03*
X138013865Y-101359212D03*
X151515723Y-109809374D03*
X149975097Y-108188575D03*
X145393914Y-102593098D03*
D12*
X126402896Y-113188950D03*
D11*
X150181490Y-112983089D03*
X145393914Y-100592371D03*
D12*
X126402896Y-116432783D03*
D11*
X139855165Y-112510086D03*
D12*
X126402896Y-112520649D03*
D11*
X148146998Y-110879259D03*
X145104416Y-116337360D03*
X130877672Y-109097419D03*
D12*
X128179500Y-104775000D03*
D11*
X149000000Y-114050000D03*
X141268060Y-107018250D03*
X145277363Y-99941266D03*
X134984739Y-111731155D03*
X137443867Y-116359377D03*
X148146998Y-110241780D03*
D12*
X131338093Y-113051743D03*
D11*
X143068945Y-106059471D03*
X137448712Y-116990399D03*
D12*
X126390525Y-114451295D03*
D11*
X136407665Y-114967586D03*
X141655165Y-109810086D03*
D12*
X126402896Y-115737686D03*
X131342103Y-117017561D03*
D11*
X138055165Y-110260086D03*
X137757665Y-114967586D03*
X146560594Y-103800248D03*
X138955165Y-111610086D03*
X133318088Y-103317714D03*
X135487414Y-103681760D03*
X141613456Y-104852764D03*
X138505165Y-110260086D03*
X145624121Y-111787456D03*
X147420500Y-105250000D03*
X136407665Y-114067586D03*
D12*
X143961683Y-100683189D03*
D11*
X132383298Y-109878436D03*
X134085739Y-113031155D03*
X130048096Y-107545891D03*
D12*
X135801369Y-101738144D03*
D11*
X148179500Y-105250000D03*
X148000000Y-114050000D03*
X136705165Y-112960086D03*
X138505165Y-111610086D03*
X137757665Y-114517586D03*
X145510958Y-112617388D03*
X151515723Y-109154256D03*
X138179500Y-105250000D03*
D12*
X126402896Y-115065217D03*
D11*
X141191434Y-113867717D03*
X137098680Y-100229856D03*
X149975097Y-110188575D03*
X138505165Y-114760086D03*
X148198022Y-103789201D03*
X143593373Y-106059471D03*
X136705165Y-112060086D03*
X138955165Y-112060086D03*
X149271820Y-99641158D03*
X137420500Y-105250000D03*
X149341927Y-101408825D03*
D12*
X131380525Y-116488716D03*
D11*
X143278472Y-116992882D03*
X139855165Y-112060086D03*
D12*
%TO.N,cap_p1*%
X152293725Y-101950659D03*
D11*
%TO.N,mcu_mcu-etm_clk*%
X139855165Y-110710086D03*
%TO.N,VDD3P0*%
X139491383Y-107828414D03*
X149975097Y-111188575D03*
X149295097Y-110188575D03*
D12*
%TO.N,OUT-*%
X130137965Y-108999330D03*
D11*
%TO.N,V14RF*%
X141205002Y-110255575D03*
X138955165Y-114760086D03*
%TO.N,mcu_mcu-button2_gpio*%
X148078465Y-112461044D03*
X141205165Y-113410086D03*
D12*
%TO.N,mcu_conn-uart_tx*%
X131099595Y-101264852D03*
D11*
%TO.N,CLAMP1*%
X147741927Y-101808825D03*
X151108765Y-102999943D03*
%TO.N,mcu_mcu-etm_data2*%
X138955165Y-111160086D03*
%TO.N,SHIELD*%
X136620862Y-99544300D03*
D12*
%TO.N,VBAT*%
X142820354Y-101439858D03*
D11*
X141268060Y-107837973D03*
%TO.N,mcu_mcu-wpwr2_gpio*%
X147870297Y-113163719D03*
X140305165Y-113860086D03*
D12*
%TO.N,mcu_conn-uart_rx*%
X128133424Y-102542244D03*
D11*
%TO.N,mcu_mcu-wpwr0_gpio*%
X147131101Y-112451640D03*
X140755165Y-112960086D03*
%TO.N,mcu_mcu-etm_data1*%
X138955165Y-110710086D03*
%TO.N,FOD*%
X147341927Y-101408825D03*
X145925098Y-99469575D03*
D12*
%TO.N,mcu_mcu-dbg-m33_swdclk*%
X131099806Y-102486398D03*
D11*
%TO.N,RECT*%
X148541927Y-101408825D03*
X148541927Y-101808825D03*
X146572832Y-99941266D03*
X148452854Y-99641158D03*
X148894443Y-103502387D03*
%TO.N,D+*%
X137179787Y-103023399D03*
%TO.N,mcu_mcu-wpwr1_gpio*%
X146794797Y-113129689D03*
X141655165Y-112960086D03*
%TO.N,CLAMP2*%
X151108026Y-100366194D03*
X147741927Y-101408825D03*
%TO.N,SP_P*%
X149975097Y-110688575D03*
%TO.N,mcu_mcu-wpwr3_gpio*%
X141205165Y-112510086D03*
X146280878Y-112615029D03*
%TO.N,V18F*%
X144754416Y-116537360D03*
X144615208Y-114253566D03*
X143750162Y-116992882D03*
X143661328Y-114248787D03*
D12*
%TO.N,OUT+*%
X130996736Y-109842314D03*
D11*
%TO.N,mcu_mcu-etm_data0*%
X138505165Y-111160086D03*
%TO.N,D-*%
X137656635Y-103037404D03*
D12*
%TO.N,QVAR1*%
X134437302Y-103872356D03*
D11*
%TO.N,codec-i2c-net_scl*%
X148719173Y-112571735D03*
X140755165Y-113860086D03*
%TO.N,VLED*%
X141631769Y-104364936D03*
X142791677Y-110203298D03*
%TO.N,SP_N*%
X150315097Y-110938575D03*
%TD*%
%TA.AperFunction,Conductor*%
%TO.N,GND*%
G36*
X131434892Y-98682104D02*
G01*
X131456880Y-98693644D01*
X131465725Y-98693644D01*
X131470688Y-98694553D01*
X131478961Y-98697691D01*
X131511449Y-98693745D01*
X131513137Y-98693644D01*
X134106869Y-98693644D01*
X134116768Y-98697745D01*
X134120869Y-98707644D01*
X134120869Y-100357500D01*
X134119959Y-100362465D01*
X134116822Y-100370735D01*
X134116822Y-100370736D01*
X134120767Y-100403223D01*
X134120869Y-100404911D01*
X134120869Y-100415063D01*
X134123297Y-100424915D01*
X134123602Y-100426577D01*
X134127548Y-100459066D01*
X134132572Y-100466345D01*
X134134643Y-100470947D01*
X134136760Y-100479536D01*
X134136761Y-100479537D01*
X134158457Y-100504026D01*
X134159500Y-100505357D01*
X134175660Y-100528770D01*
X134178093Y-100532294D01*
X134185257Y-100536054D01*
X134185926Y-100536405D01*
X134189899Y-100539517D01*
X134195765Y-100546138D01*
X134226367Y-100557744D01*
X134227895Y-100558431D01*
X134256880Y-100573644D01*
X134265725Y-100573644D01*
X134270688Y-100574553D01*
X134278961Y-100577691D01*
X134311449Y-100573745D01*
X134313137Y-100573644D01*
X135115725Y-100573644D01*
X135120688Y-100574553D01*
X135128961Y-100577691D01*
X135161449Y-100573745D01*
X135163137Y-100573644D01*
X135173285Y-100573644D01*
X135173286Y-100573644D01*
X135183162Y-100571208D01*
X135184791Y-100570910D01*
X135217291Y-100566965D01*
X135224572Y-100561938D01*
X135229169Y-100559869D01*
X135237762Y-100557752D01*
X135262265Y-100536042D01*
X135263576Y-100535016D01*
X135290519Y-100516420D01*
X135294632Y-100508582D01*
X135297745Y-100504610D01*
X135304363Y-100498748D01*
X135315971Y-100468138D01*
X135316650Y-100466629D01*
X135331869Y-100437633D01*
X135331869Y-100428787D01*
X135332779Y-100423822D01*
X135335916Y-100415552D01*
X135331971Y-100383063D01*
X135331869Y-100381375D01*
X135331869Y-99544300D01*
X136390944Y-99544300D01*
X136408444Y-99632284D01*
X136408444Y-99632285D01*
X136408445Y-99632286D01*
X136458285Y-99706877D01*
X136532876Y-99756717D01*
X136620862Y-99774218D01*
X136708848Y-99756717D01*
X136783439Y-99706877D01*
X136833279Y-99632286D01*
X136850780Y-99544300D01*
X136833279Y-99456314D01*
X136783439Y-99381723D01*
X136708848Y-99331883D01*
X136708847Y-99331882D01*
X136708846Y-99331882D01*
X136620862Y-99314382D01*
X136532877Y-99331882D01*
X136458285Y-99381723D01*
X136408444Y-99456315D01*
X136390944Y-99544299D01*
X136390944Y-99544300D01*
X135331869Y-99544300D01*
X135331869Y-98707644D01*
X135335970Y-98697745D01*
X135345869Y-98693644D01*
X138856869Y-98693644D01*
X138866768Y-98697745D01*
X138870869Y-98707644D01*
X138870869Y-100357500D01*
X138869959Y-100362465D01*
X138866822Y-100370735D01*
X138866822Y-100370736D01*
X138870767Y-100403223D01*
X138870869Y-100404911D01*
X138870869Y-100415063D01*
X138873297Y-100424915D01*
X138873602Y-100426577D01*
X138877548Y-100459066D01*
X138882572Y-100466345D01*
X138884643Y-100470947D01*
X138886760Y-100479536D01*
X138886761Y-100479537D01*
X138908457Y-100504026D01*
X138909500Y-100505357D01*
X138925660Y-100528770D01*
X138928093Y-100532294D01*
X138935257Y-100536054D01*
X138935926Y-100536405D01*
X138939899Y-100539517D01*
X138945765Y-100546138D01*
X138976367Y-100557744D01*
X138977895Y-100558431D01*
X139006880Y-100573644D01*
X139015725Y-100573644D01*
X139020688Y-100574553D01*
X139028961Y-100577691D01*
X139061449Y-100573745D01*
X139063137Y-100573644D01*
X139865725Y-100573644D01*
X139870688Y-100574553D01*
X139878961Y-100577691D01*
X139911449Y-100573745D01*
X139913137Y-100573644D01*
X139923285Y-100573644D01*
X139923286Y-100573644D01*
X139933162Y-100571208D01*
X139934791Y-100570910D01*
X139967291Y-100566965D01*
X139974572Y-100561938D01*
X139979169Y-100559869D01*
X139987762Y-100557752D01*
X140012265Y-100536042D01*
X140013576Y-100535016D01*
X140040519Y-100516420D01*
X140044632Y-100508582D01*
X140047745Y-100504610D01*
X140054363Y-100498748D01*
X140065971Y-100468138D01*
X140066650Y-100466629D01*
X140081869Y-100437633D01*
X140081869Y-100428787D01*
X140082779Y-100423822D01*
X140085916Y-100415552D01*
X140081971Y-100383063D01*
X140081869Y-100381375D01*
X140081869Y-100366194D01*
X150878108Y-100366194D01*
X150895608Y-100454178D01*
X150895608Y-100454179D01*
X150895609Y-100454180D01*
X150945449Y-100528771D01*
X151020040Y-100578611D01*
X151108026Y-100596112D01*
X151196012Y-100578611D01*
X151270603Y-100528771D01*
X151320443Y-100454180D01*
X151337944Y-100366194D01*
X151320443Y-100278208D01*
X151270603Y-100203617D01*
X151196012Y-100153777D01*
X151196011Y-100153776D01*
X151196010Y-100153776D01*
X151108026Y-100136276D01*
X151020041Y-100153776D01*
X150945449Y-100203617D01*
X150895608Y-100278209D01*
X150878108Y-100366193D01*
X150878108Y-100366194D01*
X140081869Y-100366194D01*
X140081869Y-99941266D01*
X146342914Y-99941266D01*
X146360414Y-100029250D01*
X146360414Y-100029251D01*
X146360415Y-100029252D01*
X146410255Y-100103843D01*
X146484846Y-100153683D01*
X146572832Y-100171184D01*
X146660818Y-100153683D01*
X146735409Y-100103843D01*
X146785249Y-100029252D01*
X146802750Y-99941266D01*
X146785249Y-99853280D01*
X146735409Y-99778689D01*
X146660818Y-99728849D01*
X146660817Y-99728848D01*
X146660816Y-99728848D01*
X146572832Y-99711348D01*
X146484847Y-99728848D01*
X146410255Y-99778689D01*
X146360414Y-99853281D01*
X146342914Y-99941265D01*
X146342914Y-99941266D01*
X140081869Y-99941266D01*
X140081869Y-99469575D01*
X145695180Y-99469575D01*
X145712680Y-99557559D01*
X145712680Y-99557560D01*
X145712681Y-99557561D01*
X145762521Y-99632152D01*
X145837112Y-99681992D01*
X145925098Y-99699493D01*
X146013084Y-99681992D01*
X146074197Y-99641158D01*
X148222936Y-99641158D01*
X148240436Y-99729142D01*
X148240436Y-99729143D01*
X148240437Y-99729144D01*
X148290277Y-99803735D01*
X148364868Y-99853575D01*
X148452854Y-99871076D01*
X148540840Y-99853575D01*
X148615431Y-99803735D01*
X148665271Y-99729144D01*
X148682772Y-99641158D01*
X148680980Y-99632151D01*
X148666144Y-99557561D01*
X148665271Y-99553172D01*
X148615431Y-99478581D01*
X148540840Y-99428741D01*
X148540839Y-99428740D01*
X148540838Y-99428740D01*
X148452854Y-99411240D01*
X148364869Y-99428740D01*
X148290277Y-99478581D01*
X148240436Y-99553173D01*
X148222936Y-99641157D01*
X148222936Y-99641158D01*
X146074197Y-99641158D01*
X146087675Y-99632152D01*
X146137515Y-99557561D01*
X146155016Y-99469575D01*
X146152378Y-99456315D01*
X146140585Y-99397025D01*
X146137515Y-99381589D01*
X146087675Y-99306998D01*
X146013084Y-99257158D01*
X146013083Y-99257157D01*
X146013082Y-99257157D01*
X145925098Y-99239657D01*
X145837113Y-99257157D01*
X145762521Y-99306998D01*
X145712680Y-99381590D01*
X145695180Y-99469574D01*
X145695180Y-99469575D01*
X140081869Y-99469575D01*
X140081869Y-98707644D01*
X140085970Y-98697745D01*
X140095869Y-98693644D01*
X142665725Y-98693644D01*
X142670688Y-98694553D01*
X142678961Y-98697691D01*
X142711449Y-98693745D01*
X142713137Y-98693644D01*
X142723285Y-98693644D01*
X142723286Y-98693644D01*
X142733162Y-98691208D01*
X142734791Y-98690910D01*
X142767291Y-98686965D01*
X142770716Y-98684601D01*
X142773068Y-98682978D01*
X142781020Y-98680500D01*
X153055500Y-98680500D01*
X153065399Y-98684601D01*
X153069500Y-98694500D01*
X153069500Y-115805500D01*
X153065399Y-115815399D01*
X153055500Y-115819500D01*
X152907093Y-115819500D01*
X152723565Y-115848568D01*
X152546842Y-115905988D01*
X152381286Y-115990344D01*
X152381270Y-115990354D01*
X152230957Y-116099563D01*
X152230949Y-116099570D01*
X152099570Y-116230949D01*
X152099563Y-116230957D01*
X151990354Y-116381270D01*
X151990344Y-116381286D01*
X151905988Y-116546842D01*
X151848568Y-116723565D01*
X151819500Y-116907093D01*
X151819500Y-117305500D01*
X151815399Y-117315399D01*
X151805500Y-117319500D01*
X130914000Y-117319500D01*
X130904101Y-117315399D01*
X130900000Y-117305500D01*
X130900000Y-116992882D01*
X143520244Y-116992882D01*
X143537744Y-117080866D01*
X143537744Y-117080867D01*
X143537745Y-117080868D01*
X143587585Y-117155459D01*
X143662176Y-117205299D01*
X143750162Y-117222800D01*
X143838148Y-117205299D01*
X143912739Y-117155459D01*
X143962579Y-117080868D01*
X143980080Y-116992882D01*
X143962579Y-116904896D01*
X143912739Y-116830305D01*
X143838148Y-116780465D01*
X143838147Y-116780464D01*
X143838146Y-116780464D01*
X143750162Y-116762964D01*
X143662177Y-116780464D01*
X143587585Y-116830305D01*
X143537744Y-116904897D01*
X143520244Y-116992881D01*
X143520244Y-116992882D01*
X130900000Y-116992882D01*
X130900000Y-116503836D01*
X140757192Y-116503836D01*
X140775593Y-116608196D01*
X140828577Y-116699969D01*
X140828579Y-116699971D01*
X140828580Y-116699972D01*
X140909760Y-116768090D01*
X141009342Y-116804334D01*
X141009343Y-116804334D01*
X141115313Y-116804334D01*
X141115314Y-116804334D01*
X141214896Y-116768090D01*
X141296076Y-116699972D01*
X141349062Y-116608197D01*
X141359881Y-116546842D01*
X141361553Y-116537360D01*
X144524498Y-116537360D01*
X144541998Y-116625344D01*
X144541998Y-116625345D01*
X144541999Y-116625346D01*
X144591839Y-116699937D01*
X144666430Y-116749777D01*
X144754416Y-116767278D01*
X144842402Y-116749777D01*
X144916993Y-116699937D01*
X144966833Y-116625346D01*
X144984334Y-116537360D01*
X144977665Y-116503834D01*
X144966833Y-116449375D01*
X144966833Y-116449374D01*
X144916993Y-116374783D01*
X144842402Y-116324943D01*
X144842401Y-116324942D01*
X144842400Y-116324942D01*
X144754416Y-116307442D01*
X144666431Y-116324942D01*
X144591839Y-116374783D01*
X144541998Y-116449375D01*
X144524498Y-116537359D01*
X144524498Y-116537360D01*
X141361553Y-116537360D01*
X141367464Y-116503836D01*
X141367464Y-116503831D01*
X141349062Y-116399471D01*
X141296078Y-116307698D01*
X141295773Y-116307442D01*
X141214896Y-116239578D01*
X141165105Y-116221456D01*
X141115315Y-116203334D01*
X141115314Y-116203334D01*
X141009342Y-116203334D01*
X141009340Y-116203334D01*
X140909760Y-116239578D01*
X140828577Y-116307698D01*
X140775593Y-116399471D01*
X140757192Y-116503831D01*
X140757192Y-116503836D01*
X130900000Y-116503836D01*
X130900000Y-114760086D01*
X138725247Y-114760086D01*
X138742747Y-114848070D01*
X138742747Y-114848071D01*
X138742748Y-114848072D01*
X138792588Y-114922663D01*
X138867179Y-114972503D01*
X138955165Y-114990004D01*
X139043151Y-114972503D01*
X139117742Y-114922663D01*
X139167582Y-114848072D01*
X139185083Y-114760086D01*
X139167582Y-114672100D01*
X139117742Y-114597509D01*
X139043151Y-114547669D01*
X139043150Y-114547668D01*
X139043149Y-114547668D01*
X138955165Y-114530168D01*
X138867180Y-114547668D01*
X138792588Y-114597509D01*
X138742747Y-114672101D01*
X138725247Y-114760085D01*
X138725247Y-114760086D01*
X130900000Y-114760086D01*
X130900000Y-114248787D01*
X143431410Y-114248787D01*
X143448910Y-114336771D01*
X143448910Y-114336772D01*
X143448911Y-114336773D01*
X143498751Y-114411364D01*
X143573342Y-114461204D01*
X143661328Y-114478705D01*
X143749314Y-114461204D01*
X143823905Y-114411364D01*
X143873745Y-114336773D01*
X143890295Y-114253566D01*
X144385290Y-114253566D01*
X144402790Y-114341550D01*
X144402790Y-114341551D01*
X144402791Y-114341552D01*
X144452631Y-114416143D01*
X144527222Y-114465983D01*
X144615208Y-114483484D01*
X144703194Y-114465983D01*
X144777785Y-114416143D01*
X144827625Y-114341552D01*
X144845126Y-114253566D01*
X144844175Y-114248787D01*
X144827625Y-114165581D01*
X144827625Y-114165580D01*
X144777785Y-114090989D01*
X144703194Y-114041149D01*
X144703193Y-114041148D01*
X144703192Y-114041148D01*
X144615208Y-114023648D01*
X144527223Y-114041148D01*
X144452631Y-114090989D01*
X144402790Y-114165581D01*
X144385290Y-114253565D01*
X144385290Y-114253566D01*
X143890295Y-114253566D01*
X143891246Y-114248787D01*
X143873745Y-114160801D01*
X143823905Y-114086210D01*
X143749314Y-114036370D01*
X143749313Y-114036369D01*
X143749312Y-114036369D01*
X143661328Y-114018869D01*
X143573343Y-114036369D01*
X143498751Y-114086210D01*
X143448910Y-114160802D01*
X143431410Y-114248786D01*
X143431410Y-114248787D01*
X130900000Y-114248787D01*
X130900000Y-113860086D01*
X140075247Y-113860086D01*
X140092747Y-113948070D01*
X140092747Y-113948071D01*
X140092748Y-113948072D01*
X140142588Y-114022663D01*
X140217179Y-114072503D01*
X140305165Y-114090004D01*
X140393151Y-114072503D01*
X140467742Y-114022663D01*
X140517582Y-113948072D01*
X140517582Y-113948071D01*
X140518348Y-113946925D01*
X140518874Y-113947276D01*
X140524806Y-113941344D01*
X140535522Y-113941343D01*
X140541456Y-113947276D01*
X140541982Y-113946925D01*
X140542747Y-113948071D01*
X140542748Y-113948072D01*
X140592588Y-114022663D01*
X140667179Y-114072503D01*
X140755165Y-114090004D01*
X140843151Y-114072503D01*
X140917742Y-114022663D01*
X140967582Y-113948072D01*
X140985083Y-113860086D01*
X140967582Y-113772100D01*
X140917742Y-113697509D01*
X140843151Y-113647669D01*
X140843150Y-113647668D01*
X140843149Y-113647668D01*
X140755165Y-113630168D01*
X140667180Y-113647668D01*
X140592588Y-113697509D01*
X140541982Y-113773247D01*
X140541456Y-113772895D01*
X140535513Y-113778831D01*
X140524798Y-113778823D01*
X140518871Y-113772896D01*
X140518348Y-113773247D01*
X140517582Y-113772100D01*
X140467742Y-113697509D01*
X140393151Y-113647669D01*
X140393150Y-113647668D01*
X140392004Y-113646903D01*
X140392355Y-113646376D01*
X140386423Y-113640445D01*
X140386422Y-113629729D01*
X140392355Y-113623794D01*
X140392004Y-113623269D01*
X140393150Y-113622503D01*
X140393151Y-113622503D01*
X140467742Y-113572663D01*
X140517582Y-113498072D01*
X140535083Y-113410086D01*
X140975247Y-113410086D01*
X140992747Y-113498070D01*
X140992747Y-113498071D01*
X140992748Y-113498072D01*
X141042588Y-113572663D01*
X141117179Y-113622503D01*
X141205165Y-113640004D01*
X141293151Y-113622503D01*
X141367742Y-113572663D01*
X141417582Y-113498072D01*
X141435083Y-113410086D01*
X141417582Y-113322100D01*
X141367742Y-113247509D01*
X141293151Y-113197669D01*
X141293150Y-113197668D01*
X141293149Y-113197668D01*
X141205165Y-113180168D01*
X141117180Y-113197668D01*
X141042588Y-113247509D01*
X140992747Y-113322101D01*
X140975247Y-113410085D01*
X140975247Y-113410086D01*
X140535083Y-113410086D01*
X140517582Y-113322100D01*
X140467742Y-113247509D01*
X140393151Y-113197669D01*
X140393150Y-113197668D01*
X140393149Y-113197668D01*
X140305165Y-113180168D01*
X140217180Y-113197668D01*
X140142588Y-113247509D01*
X140092747Y-113322101D01*
X140075247Y-113410085D01*
X140075247Y-113410086D01*
X140092747Y-113498070D01*
X140092747Y-113498071D01*
X140092748Y-113498072D01*
X140142588Y-113572663D01*
X140217179Y-113622503D01*
X140218326Y-113623269D01*
X140217974Y-113623794D01*
X140223910Y-113629738D01*
X140223902Y-113640453D01*
X140217975Y-113646379D01*
X140218326Y-113646903D01*
X140217179Y-113647668D01*
X140217179Y-113647669D01*
X140142588Y-113697509D01*
X140092747Y-113772101D01*
X140075247Y-113860085D01*
X140075247Y-113860086D01*
X130900000Y-113860086D01*
X130900000Y-112960086D01*
X140525247Y-112960086D01*
X140542747Y-113048070D01*
X140542747Y-113048071D01*
X140542748Y-113048072D01*
X140592588Y-113122663D01*
X140667179Y-113172503D01*
X140755165Y-113190004D01*
X140843151Y-113172503D01*
X140917742Y-113122663D01*
X140967582Y-113048072D01*
X140985083Y-112960086D01*
X141425247Y-112960086D01*
X141442747Y-113048070D01*
X141442747Y-113048071D01*
X141442748Y-113048072D01*
X141492588Y-113122663D01*
X141567179Y-113172503D01*
X141655165Y-113190004D01*
X141743151Y-113172503D01*
X141807227Y-113129689D01*
X146564879Y-113129689D01*
X146582379Y-113217673D01*
X146582379Y-113217674D01*
X146582380Y-113217675D01*
X146632220Y-113292266D01*
X146706811Y-113342106D01*
X146794797Y-113359607D01*
X146882783Y-113342106D01*
X146957374Y-113292266D01*
X147007214Y-113217675D01*
X147017946Y-113163719D01*
X147640379Y-113163719D01*
X147657879Y-113251703D01*
X147657879Y-113251704D01*
X147657880Y-113251705D01*
X147707720Y-113326296D01*
X147782311Y-113376136D01*
X147870297Y-113393637D01*
X147958283Y-113376136D01*
X148032874Y-113326296D01*
X148082714Y-113251705D01*
X148100215Y-113163719D01*
X148092048Y-113122662D01*
X148082714Y-113075734D01*
X148082714Y-113075733D01*
X148032874Y-113001142D01*
X147958283Y-112951302D01*
X147958282Y-112951301D01*
X147958281Y-112951301D01*
X147870297Y-112933801D01*
X147782312Y-112951301D01*
X147707720Y-113001142D01*
X147657879Y-113075734D01*
X147640379Y-113163718D01*
X147640379Y-113163719D01*
X147017946Y-113163719D01*
X147024715Y-113129689D01*
X147023317Y-113122663D01*
X147007214Y-113041704D01*
X147007214Y-113041703D01*
X146957374Y-112967112D01*
X146882783Y-112917272D01*
X146882782Y-112917271D01*
X146882781Y-112917271D01*
X146794797Y-112899771D01*
X146706812Y-112917271D01*
X146632220Y-112967112D01*
X146582379Y-113041704D01*
X146564879Y-113129688D01*
X146564879Y-113129689D01*
X141807227Y-113129689D01*
X141817742Y-113122663D01*
X141867582Y-113048072D01*
X141885083Y-112960086D01*
X141867582Y-112872100D01*
X141817742Y-112797509D01*
X141743151Y-112747669D01*
X141743150Y-112747668D01*
X141743149Y-112747668D01*
X141655165Y-112730168D01*
X141567180Y-112747668D01*
X141492588Y-112797509D01*
X141442747Y-112872101D01*
X141425247Y-112960085D01*
X141425247Y-112960086D01*
X140985083Y-112960086D01*
X140967582Y-112872100D01*
X140917742Y-112797509D01*
X140843151Y-112747669D01*
X140843150Y-112747668D01*
X140843149Y-112747668D01*
X140755165Y-112730168D01*
X140667180Y-112747668D01*
X140592588Y-112797509D01*
X140542747Y-112872101D01*
X140525247Y-112960085D01*
X140525247Y-112960086D01*
X130900000Y-112960086D01*
X130900000Y-112510086D01*
X140975247Y-112510086D01*
X140992747Y-112598070D01*
X140992747Y-112598071D01*
X140992748Y-112598072D01*
X141042588Y-112672663D01*
X141117179Y-112722503D01*
X141205165Y-112740004D01*
X141293151Y-112722503D01*
X141367742Y-112672663D01*
X141393872Y-112633556D01*
X143473478Y-112633556D01*
X143490978Y-112721540D01*
X143490978Y-112721541D01*
X143490979Y-112721542D01*
X143540819Y-112796133D01*
X143615410Y-112845973D01*
X143703396Y-112863474D01*
X143791382Y-112845973D01*
X143865973Y-112796133D01*
X143915813Y-112721542D01*
X143933314Y-112633556D01*
X143929629Y-112615029D01*
X146050960Y-112615029D01*
X146068460Y-112703013D01*
X146068460Y-112703014D01*
X146068461Y-112703015D01*
X146118301Y-112777606D01*
X146192892Y-112827446D01*
X146280878Y-112844947D01*
X146368864Y-112827446D01*
X146443455Y-112777606D01*
X146493295Y-112703015D01*
X146510796Y-112615029D01*
X146510634Y-112614217D01*
X146493295Y-112527044D01*
X146493295Y-112527043D01*
X146443455Y-112452452D01*
X146442240Y-112451640D01*
X146901183Y-112451640D01*
X146918683Y-112539624D01*
X146918683Y-112539625D01*
X146918684Y-112539626D01*
X146968524Y-112614217D01*
X147043115Y-112664057D01*
X147131101Y-112681558D01*
X147219087Y-112664057D01*
X147293678Y-112614217D01*
X147343518Y-112539626D01*
X147359148Y-112461044D01*
X147848547Y-112461044D01*
X147866047Y-112549028D01*
X147866047Y-112549029D01*
X147866048Y-112549030D01*
X147915888Y-112623621D01*
X147990479Y-112673461D01*
X148078465Y-112690962D01*
X148166451Y-112673461D01*
X148241042Y-112623621D01*
X148275711Y-112571735D01*
X148489255Y-112571735D01*
X148506755Y-112659719D01*
X148506755Y-112659720D01*
X148506756Y-112659721D01*
X148556596Y-112734312D01*
X148631187Y-112784152D01*
X148719173Y-112801653D01*
X148807159Y-112784152D01*
X148881750Y-112734312D01*
X148931590Y-112659721D01*
X148949091Y-112571735D01*
X148944574Y-112549028D01*
X148931590Y-112483750D01*
X148931590Y-112483749D01*
X148881750Y-112409158D01*
X148807159Y-112359318D01*
X148807158Y-112359317D01*
X148807157Y-112359317D01*
X148719173Y-112341817D01*
X148631188Y-112359317D01*
X148556596Y-112409158D01*
X148506755Y-112483750D01*
X148489255Y-112571734D01*
X148489255Y-112571735D01*
X148275711Y-112571735D01*
X148290882Y-112549030D01*
X148308383Y-112461044D01*
X148306512Y-112451640D01*
X148299632Y-112417051D01*
X148290882Y-112373058D01*
X148241042Y-112298467D01*
X148166451Y-112248627D01*
X148166450Y-112248626D01*
X148166449Y-112248626D01*
X148078465Y-112231126D01*
X147990480Y-112248626D01*
X147915888Y-112298467D01*
X147866047Y-112373059D01*
X147848547Y-112461043D01*
X147848547Y-112461044D01*
X147359148Y-112461044D01*
X147361019Y-112451640D01*
X147355143Y-112422101D01*
X147345389Y-112373059D01*
X147343518Y-112363654D01*
X147293678Y-112289063D01*
X147219087Y-112239223D01*
X147219086Y-112239222D01*
X147219085Y-112239222D01*
X147131101Y-112221722D01*
X147043116Y-112239222D01*
X146968524Y-112289063D01*
X146918683Y-112363655D01*
X146901183Y-112451639D01*
X146901183Y-112451640D01*
X146442240Y-112451640D01*
X146368864Y-112402612D01*
X146368863Y-112402611D01*
X146368862Y-112402611D01*
X146280878Y-112385111D01*
X146192893Y-112402611D01*
X146118301Y-112452452D01*
X146068460Y-112527044D01*
X146050960Y-112615028D01*
X146050960Y-112615029D01*
X143929629Y-112615029D01*
X143915813Y-112545570D01*
X143865973Y-112470979D01*
X143791382Y-112421139D01*
X143791381Y-112421138D01*
X143791380Y-112421138D01*
X143703396Y-112403638D01*
X143615411Y-112421138D01*
X143540819Y-112470979D01*
X143490978Y-112545571D01*
X143473478Y-112633555D01*
X143473478Y-112633556D01*
X141393872Y-112633556D01*
X141417582Y-112598072D01*
X141435083Y-112510086D01*
X141417582Y-112422100D01*
X141367742Y-112347509D01*
X141293151Y-112297669D01*
X141293150Y-112297668D01*
X141293149Y-112297668D01*
X141205165Y-112280168D01*
X141117180Y-112297668D01*
X141042588Y-112347509D01*
X140992747Y-112422101D01*
X140975247Y-112510085D01*
X140975247Y-112510086D01*
X130900000Y-112510086D01*
X130900000Y-111818502D01*
X143956292Y-111818502D01*
X143973792Y-111906486D01*
X143973792Y-111906487D01*
X143973793Y-111906488D01*
X144023633Y-111981079D01*
X144098224Y-112030919D01*
X144186210Y-112048420D01*
X144274196Y-112030919D01*
X144348787Y-111981079D01*
X144398627Y-111906488D01*
X144416128Y-111818502D01*
X144409953Y-111787456D01*
X144562673Y-111787456D01*
X144580173Y-111875440D01*
X144580173Y-111875441D01*
X144580174Y-111875442D01*
X144630014Y-111950033D01*
X144704605Y-111999873D01*
X144792591Y-112017374D01*
X144880577Y-111999873D01*
X144883263Y-111998078D01*
X148306170Y-111998078D01*
X148323670Y-112086062D01*
X148323670Y-112086063D01*
X148323671Y-112086064D01*
X148373511Y-112160655D01*
X148448102Y-112210495D01*
X148536088Y-112227996D01*
X148624074Y-112210495D01*
X148698665Y-112160655D01*
X148748505Y-112086064D01*
X148766006Y-111998078D01*
X148748505Y-111910092D01*
X148698665Y-111835501D01*
X148624074Y-111785661D01*
X148624073Y-111785660D01*
X148624072Y-111785660D01*
X148536088Y-111768160D01*
X148448103Y-111785660D01*
X148373511Y-111835501D01*
X148323670Y-111910093D01*
X148306170Y-111998077D01*
X148306170Y-111998078D01*
X144883263Y-111998078D01*
X144955168Y-111950033D01*
X145005008Y-111875442D01*
X145022509Y-111787456D01*
X145005008Y-111699470D01*
X144955168Y-111624879D01*
X144880577Y-111575039D01*
X144880576Y-111575038D01*
X144880575Y-111575038D01*
X144792591Y-111557538D01*
X144704606Y-111575038D01*
X144630014Y-111624879D01*
X144580173Y-111699471D01*
X144562673Y-111787455D01*
X144562673Y-111787456D01*
X144409953Y-111787456D01*
X144398627Y-111730516D01*
X144348787Y-111655925D01*
X144274196Y-111606085D01*
X144274195Y-111606084D01*
X144274194Y-111606084D01*
X144186210Y-111588584D01*
X144098225Y-111606084D01*
X144023633Y-111655925D01*
X143973792Y-111730517D01*
X143956292Y-111818501D01*
X143956292Y-111818502D01*
X130900000Y-111818502D01*
X130900000Y-111360000D01*
X126900000Y-111360000D01*
X126900000Y-117305500D01*
X126895899Y-117315399D01*
X126886000Y-117319500D01*
X125944500Y-117319500D01*
X125934601Y-117315399D01*
X125930500Y-117305500D01*
X125930500Y-111160086D01*
X138275247Y-111160086D01*
X138292747Y-111248070D01*
X138292747Y-111248071D01*
X138292748Y-111248072D01*
X138342588Y-111322663D01*
X138417179Y-111372503D01*
X138505165Y-111390004D01*
X138593151Y-111372503D01*
X138667742Y-111322663D01*
X138717582Y-111248072D01*
X138717582Y-111248071D01*
X138718348Y-111246925D01*
X138718874Y-111247276D01*
X138724806Y-111241344D01*
X138735522Y-111241343D01*
X138741456Y-111247276D01*
X138741982Y-111246925D01*
X138742747Y-111248071D01*
X138742748Y-111248072D01*
X138792588Y-111322663D01*
X138867179Y-111372503D01*
X138955165Y-111390004D01*
X139043151Y-111372503D01*
X139117742Y-111322663D01*
X139167582Y-111248072D01*
X139185083Y-111160086D01*
X139178741Y-111128204D01*
X139167582Y-111072101D01*
X139167582Y-111072100D01*
X139117742Y-110997509D01*
X139043151Y-110947669D01*
X139043150Y-110947668D01*
X139042004Y-110946903D01*
X139042355Y-110946376D01*
X139036423Y-110940445D01*
X139036422Y-110929729D01*
X139042355Y-110923794D01*
X139042004Y-110923269D01*
X139043150Y-110922503D01*
X139043151Y-110922503D01*
X139117742Y-110872663D01*
X139167582Y-110798072D01*
X139167582Y-110798071D01*
X139168348Y-110796925D01*
X139168874Y-110797276D01*
X139174806Y-110791344D01*
X139185522Y-110791343D01*
X139191456Y-110797276D01*
X139191982Y-110796925D01*
X139192747Y-110798071D01*
X139192748Y-110798072D01*
X139242588Y-110872663D01*
X139317179Y-110922503D01*
X139405165Y-110940004D01*
X139493151Y-110922503D01*
X139567742Y-110872663D01*
X139617582Y-110798072D01*
X139617582Y-110798071D01*
X139618348Y-110796925D01*
X139618874Y-110797276D01*
X139624806Y-110791344D01*
X139635522Y-110791343D01*
X139641456Y-110797276D01*
X139641982Y-110796925D01*
X139642747Y-110798071D01*
X139642748Y-110798072D01*
X139692588Y-110872663D01*
X139767179Y-110922503D01*
X139855165Y-110940004D01*
X139943151Y-110922503D01*
X140017742Y-110872663D01*
X140067582Y-110798072D01*
X140085083Y-110710086D01*
X140067582Y-110622100D01*
X140017742Y-110547509D01*
X139943151Y-110497669D01*
X139943150Y-110497668D01*
X139943149Y-110497668D01*
X139855165Y-110480168D01*
X139767180Y-110497668D01*
X139724780Y-110525999D01*
X139692588Y-110547509D01*
X139680848Y-110565080D01*
X139641982Y-110623247D01*
X139641456Y-110622895D01*
X139635513Y-110628831D01*
X139624798Y-110628823D01*
X139618871Y-110622896D01*
X139618348Y-110623247D01*
X139617582Y-110622100D01*
X139567742Y-110547509D01*
X139493151Y-110497669D01*
X139493150Y-110497668D01*
X139493149Y-110497668D01*
X139405165Y-110480168D01*
X139317180Y-110497668D01*
X139274780Y-110525999D01*
X139242588Y-110547509D01*
X139230848Y-110565080D01*
X139191982Y-110623247D01*
X139191456Y-110622895D01*
X139185513Y-110628831D01*
X139174798Y-110628823D01*
X139168871Y-110622896D01*
X139168348Y-110623247D01*
X139167582Y-110622100D01*
X139117742Y-110547509D01*
X139043151Y-110497669D01*
X139043150Y-110497668D01*
X139043149Y-110497668D01*
X138955165Y-110480168D01*
X138867180Y-110497668D01*
X138792588Y-110547509D01*
X138742747Y-110622101D01*
X138725247Y-110710085D01*
X138725247Y-110710086D01*
X138742747Y-110798070D01*
X138742747Y-110798071D01*
X138742748Y-110798072D01*
X138792588Y-110872663D01*
X138867179Y-110922503D01*
X138868326Y-110923269D01*
X138867974Y-110923794D01*
X138873910Y-110929738D01*
X138873902Y-110940453D01*
X138867975Y-110946379D01*
X138868326Y-110946903D01*
X138867179Y-110947668D01*
X138867179Y-110947669D01*
X138792588Y-110997509D01*
X138760162Y-111046039D01*
X138741982Y-111073247D01*
X138741456Y-111072895D01*
X138735513Y-111078831D01*
X138724798Y-111078823D01*
X138718871Y-111072896D01*
X138718348Y-111073247D01*
X138717582Y-111072100D01*
X138667742Y-110997509D01*
X138593151Y-110947669D01*
X138593150Y-110947668D01*
X138593149Y-110947668D01*
X138505165Y-110930168D01*
X138417180Y-110947668D01*
X138342588Y-110997509D01*
X138292747Y-111072101D01*
X138275247Y-111160085D01*
X138275247Y-111160086D01*
X125930500Y-111160086D01*
X125930500Y-110352663D01*
X131682696Y-110352663D01*
X131700196Y-110440647D01*
X131700196Y-110440648D01*
X131700197Y-110440649D01*
X131750037Y-110515240D01*
X131824628Y-110565080D01*
X131912614Y-110582581D01*
X132000600Y-110565080D01*
X132075191Y-110515240D01*
X132125031Y-110440649D01*
X132142532Y-110352663D01*
X132142119Y-110350589D01*
X132125031Y-110264678D01*
X132125031Y-110264677D01*
X132118949Y-110255575D01*
X140975084Y-110255575D01*
X140992584Y-110343559D01*
X140992584Y-110343560D01*
X140992585Y-110343561D01*
X141042425Y-110418152D01*
X141117016Y-110467992D01*
X141122663Y-110469115D01*
X141131573Y-110475067D01*
X141133664Y-110485576D01*
X141127712Y-110494486D01*
X141122666Y-110496577D01*
X141117179Y-110497668D01*
X141042588Y-110547509D01*
X140992747Y-110622101D01*
X140975247Y-110710085D01*
X140975247Y-110710086D01*
X140992747Y-110798070D01*
X140992747Y-110798071D01*
X140992748Y-110798072D01*
X141042588Y-110872663D01*
X141117179Y-110922503D01*
X141205165Y-110940004D01*
X141293151Y-110922503D01*
X141367742Y-110872663D01*
X141417582Y-110798072D01*
X141435083Y-110710086D01*
X141417582Y-110622100D01*
X141367742Y-110547509D01*
X141293151Y-110497669D01*
X141293150Y-110497668D01*
X141287501Y-110496545D01*
X141278592Y-110490592D01*
X141276502Y-110480082D01*
X141282455Y-110471173D01*
X141287501Y-110469083D01*
X141292988Y-110467992D01*
X141367579Y-110418152D01*
X141417419Y-110343561D01*
X141434920Y-110255575D01*
X141424522Y-110203298D01*
X142561759Y-110203298D01*
X142579259Y-110291282D01*
X142579259Y-110291283D01*
X142579260Y-110291284D01*
X142629100Y-110365875D01*
X142703691Y-110415715D01*
X142791677Y-110433216D01*
X142879663Y-110415715D01*
X142954254Y-110365875D01*
X143004094Y-110291284D01*
X143021595Y-110203298D01*
X143018666Y-110188575D01*
X149065179Y-110188575D01*
X149082679Y-110276559D01*
X149120555Y-110333245D01*
X149120624Y-110333350D01*
X149496719Y-110907345D01*
X149497142Y-110907984D01*
X149497248Y-110908144D01*
X149523658Y-110947669D01*
X149589387Y-111046039D01*
X149592097Y-111049899D01*
X149797032Y-111328001D01*
X149797402Y-111328528D01*
X149812518Y-111351150D01*
X149812519Y-111351150D01*
X149812520Y-111351152D01*
X149887111Y-111400992D01*
X149975097Y-111418493D01*
X150063083Y-111400992D01*
X150137674Y-111351152D01*
X150187514Y-111276561D01*
X150205015Y-111188575D01*
X150199600Y-111161353D01*
X150201690Y-111150844D01*
X150210600Y-111144891D01*
X150221107Y-111146980D01*
X150221109Y-111146981D01*
X150221109Y-111146982D01*
X150224261Y-111149088D01*
X150227111Y-111150992D01*
X150315097Y-111168493D01*
X150403083Y-111150992D01*
X150477674Y-111101152D01*
X150527514Y-111026561D01*
X150545015Y-110938575D01*
X150543255Y-110929729D01*
X150527514Y-110850590D01*
X150527514Y-110850589D01*
X150477674Y-110775998D01*
X150403083Y-110726158D01*
X150403082Y-110726157D01*
X150403081Y-110726157D01*
X150315097Y-110708657D01*
X150227110Y-110726157D01*
X150221108Y-110730168D01*
X150210599Y-110732258D01*
X150201690Y-110726304D01*
X150199600Y-110715796D01*
X150205015Y-110688575D01*
X150205015Y-110688574D01*
X150199600Y-110661353D01*
X150201690Y-110650844D01*
X150210600Y-110644891D01*
X150221107Y-110646980D01*
X150221109Y-110646981D01*
X150221109Y-110646982D01*
X150224261Y-110649088D01*
X150227111Y-110650992D01*
X150315097Y-110668493D01*
X150403083Y-110650992D01*
X150477674Y-110601152D01*
X150527514Y-110526561D01*
X150545015Y-110438575D01*
X150527514Y-110350589D01*
X150477674Y-110275998D01*
X150403083Y-110226158D01*
X150403082Y-110226157D01*
X150403081Y-110226157D01*
X150315097Y-110208657D01*
X150227112Y-110226157D01*
X150152520Y-110275998D01*
X150102679Y-110350590D01*
X150085179Y-110438574D01*
X150085179Y-110438575D01*
X150090593Y-110465796D01*
X150088502Y-110476305D01*
X150079593Y-110482258D01*
X150069084Y-110480168D01*
X150063083Y-110476158D01*
X150063082Y-110476157D01*
X150063081Y-110476157D01*
X149975097Y-110458657D01*
X149887112Y-110476157D01*
X149812518Y-110525999D01*
X149788468Y-110561992D01*
X149779559Y-110567945D01*
X149769050Y-110565854D01*
X149764627Y-110561079D01*
X149509670Y-110107888D01*
X149508143Y-110103757D01*
X149507514Y-110100589D01*
X149457674Y-110025998D01*
X149383083Y-109976158D01*
X149383082Y-109976157D01*
X149383081Y-109976157D01*
X149295097Y-109958657D01*
X149207112Y-109976157D01*
X149132520Y-110025998D01*
X149082679Y-110100590D01*
X149065179Y-110188574D01*
X149065179Y-110188575D01*
X143018666Y-110188575D01*
X143009564Y-110142813D01*
X143004094Y-110115312D01*
X142954254Y-110040721D01*
X142879663Y-109990881D01*
X142879662Y-109990880D01*
X142879661Y-109990880D01*
X142791677Y-109973380D01*
X142703692Y-109990880D01*
X142629100Y-110040721D01*
X142579259Y-110115313D01*
X142561759Y-110203297D01*
X142561759Y-110203298D01*
X141424522Y-110203298D01*
X141417419Y-110167589D01*
X141367579Y-110092998D01*
X141292988Y-110043158D01*
X141292987Y-110043157D01*
X141292986Y-110043157D01*
X141205002Y-110025657D01*
X141117017Y-110043157D01*
X141042425Y-110092998D01*
X140992584Y-110167590D01*
X140975084Y-110255574D01*
X140975084Y-110255575D01*
X132118949Y-110255575D01*
X132075191Y-110190086D01*
X132000600Y-110140246D01*
X132000599Y-110140245D01*
X132000598Y-110140245D01*
X131912614Y-110122745D01*
X131824629Y-110140245D01*
X131750037Y-110190086D01*
X131700196Y-110264678D01*
X131682696Y-110352662D01*
X131682696Y-110352663D01*
X125930500Y-110352663D01*
X125930500Y-109842316D01*
X130691600Y-109842316D01*
X130710001Y-109946676D01*
X130762985Y-110038449D01*
X130762987Y-110038451D01*
X130762988Y-110038452D01*
X130844168Y-110106570D01*
X130943750Y-110142814D01*
X130943751Y-110142814D01*
X131049721Y-110142814D01*
X131049722Y-110142814D01*
X131149304Y-110106570D01*
X131230484Y-110038452D01*
X131283470Y-109946677D01*
X131301872Y-109842314D01*
X131301872Y-109842311D01*
X131296190Y-109810086D01*
X140525247Y-109810086D01*
X140542747Y-109898070D01*
X140542747Y-109898071D01*
X140542748Y-109898072D01*
X140592588Y-109972663D01*
X140667179Y-110022503D01*
X140755165Y-110040004D01*
X140843151Y-110022503D01*
X140917742Y-109972663D01*
X140967582Y-109898072D01*
X140985083Y-109810086D01*
X140967582Y-109722100D01*
X140917742Y-109647509D01*
X140843151Y-109597669D01*
X140843150Y-109597668D01*
X140843149Y-109597668D01*
X140755165Y-109580168D01*
X140667180Y-109597668D01*
X140592588Y-109647509D01*
X140542747Y-109722101D01*
X140525247Y-109810085D01*
X140525247Y-109810086D01*
X131296190Y-109810086D01*
X131283470Y-109737951D01*
X131230486Y-109646178D01*
X131230484Y-109646176D01*
X131149304Y-109578058D01*
X131099513Y-109559936D01*
X131049723Y-109541814D01*
X131049722Y-109541814D01*
X130943750Y-109541814D01*
X130943748Y-109541814D01*
X130844168Y-109578058D01*
X130762985Y-109646178D01*
X130710001Y-109737951D01*
X130691600Y-109842311D01*
X130691600Y-109842316D01*
X125930500Y-109842316D01*
X125930500Y-108999332D01*
X129832829Y-108999332D01*
X129851230Y-109103692D01*
X129904214Y-109195465D01*
X129904216Y-109195467D01*
X129904217Y-109195468D01*
X129985397Y-109263586D01*
X130084979Y-109299830D01*
X130084980Y-109299830D01*
X130190950Y-109299830D01*
X130190951Y-109299830D01*
X130290533Y-109263586D01*
X130371713Y-109195468D01*
X130424699Y-109103693D01*
X130443101Y-108999330D01*
X130443101Y-108999327D01*
X130424699Y-108894967D01*
X130371715Y-108803194D01*
X130371713Y-108803192D01*
X130290533Y-108735074D01*
X130229933Y-108713018D01*
X130190952Y-108698830D01*
X130190951Y-108698830D01*
X130084979Y-108698830D01*
X130084977Y-108698830D01*
X129985397Y-108735074D01*
X129904214Y-108803194D01*
X129851230Y-108894967D01*
X129832829Y-108999327D01*
X129832829Y-108999332D01*
X125930500Y-108999332D01*
X125930500Y-108500601D01*
X150814115Y-108500601D01*
X150831615Y-108588585D01*
X150831615Y-108588586D01*
X150831616Y-108588587D01*
X150881456Y-108663178D01*
X150956047Y-108713018D01*
X151044033Y-108730519D01*
X151132019Y-108713018D01*
X151206610Y-108663178D01*
X151256450Y-108588587D01*
X151273951Y-108500601D01*
X151256450Y-108412615D01*
X151206610Y-108338024D01*
X151132019Y-108288184D01*
X151132018Y-108288183D01*
X151132017Y-108288183D01*
X151044033Y-108270683D01*
X150956048Y-108288183D01*
X150881456Y-108338024D01*
X150831615Y-108412616D01*
X150814115Y-108500600D01*
X150814115Y-108500601D01*
X125930500Y-108500601D01*
X125930500Y-107879426D01*
X130151714Y-107879426D01*
X130169214Y-107967410D01*
X130169214Y-107967411D01*
X130169215Y-107967412D01*
X130219055Y-108042003D01*
X130293646Y-108091843D01*
X130381632Y-108109344D01*
X130469618Y-108091843D01*
X130544209Y-108042003D01*
X130594049Y-107967412D01*
X130611550Y-107879426D01*
X130594049Y-107791440D01*
X130544209Y-107716849D01*
X130469618Y-107667009D01*
X130469617Y-107667008D01*
X130469616Y-107667008D01*
X130441863Y-107661488D01*
X134786732Y-107661488D01*
X134804232Y-107749472D01*
X134804232Y-107749473D01*
X134804233Y-107749474D01*
X134854073Y-107824065D01*
X134928664Y-107873905D01*
X135016650Y-107891406D01*
X135104636Y-107873905D01*
X135172718Y-107828414D01*
X139261465Y-107828414D01*
X139278965Y-107916398D01*
X139278965Y-107916399D01*
X139278966Y-107916400D01*
X139328806Y-107990991D01*
X139403397Y-108040831D01*
X139491383Y-108058332D01*
X139579369Y-108040831D01*
X139653960Y-107990991D01*
X139703800Y-107916400D01*
X139719400Y-107837973D01*
X140031185Y-107837973D01*
X140048685Y-107925957D01*
X140048685Y-107925958D01*
X140048686Y-107925959D01*
X140098526Y-108000550D01*
X140173117Y-108050390D01*
X140261103Y-108067891D01*
X140349089Y-108050390D01*
X140423680Y-108000550D01*
X140473520Y-107925959D01*
X140491021Y-107837973D01*
X141038142Y-107837973D01*
X141055642Y-107925957D01*
X141055642Y-107925958D01*
X141055643Y-107925959D01*
X141105483Y-108000550D01*
X141180074Y-108050390D01*
X141268060Y-108067891D01*
X141356046Y-108050390D01*
X141430637Y-108000550D01*
X141480477Y-107925959D01*
X141497978Y-107837973D01*
X141496076Y-107828413D01*
X141480477Y-107749988D01*
X141480477Y-107749987D01*
X141430637Y-107675396D01*
X141356046Y-107625556D01*
X141356045Y-107625555D01*
X141356044Y-107625555D01*
X141268060Y-107608055D01*
X141180075Y-107625555D01*
X141105483Y-107675396D01*
X141055642Y-107749988D01*
X141038142Y-107837972D01*
X141038142Y-107837973D01*
X140491021Y-107837973D01*
X140489119Y-107828413D01*
X140473520Y-107749988D01*
X140473520Y-107749987D01*
X140423680Y-107675396D01*
X140349089Y-107625556D01*
X140349088Y-107625555D01*
X140349087Y-107625555D01*
X140261103Y-107608055D01*
X140173118Y-107625555D01*
X140098526Y-107675396D01*
X140048685Y-107749988D01*
X140031185Y-107837972D01*
X140031185Y-107837973D01*
X139719400Y-107837973D01*
X139721301Y-107828414D01*
X139703800Y-107740428D01*
X139653960Y-107665837D01*
X139579369Y-107615997D01*
X139579368Y-107615996D01*
X139579367Y-107615996D01*
X139491383Y-107598496D01*
X139403398Y-107615996D01*
X139328806Y-107665837D01*
X139278965Y-107740429D01*
X139261465Y-107828413D01*
X139261465Y-107828414D01*
X135172718Y-107828414D01*
X135179227Y-107824065D01*
X135229067Y-107749474D01*
X135246568Y-107661488D01*
X135229067Y-107573502D01*
X135179227Y-107498911D01*
X135104636Y-107449071D01*
X135104635Y-107449070D01*
X135104634Y-107449070D01*
X135016650Y-107431570D01*
X134928665Y-107449070D01*
X134854073Y-107498911D01*
X134804232Y-107573503D01*
X134786732Y-107661487D01*
X134786732Y-107661488D01*
X130441863Y-107661488D01*
X130381632Y-107649508D01*
X130293647Y-107667008D01*
X130219055Y-107716849D01*
X130169214Y-107791441D01*
X130151714Y-107879425D01*
X130151714Y-107879426D01*
X125930500Y-107879426D01*
X125930500Y-107033070D01*
X132366997Y-107033070D01*
X132385398Y-107137430D01*
X132438382Y-107229203D01*
X132438384Y-107229205D01*
X132438385Y-107229206D01*
X132519565Y-107297324D01*
X132619147Y-107333568D01*
X132619148Y-107333568D01*
X132725118Y-107333568D01*
X132725119Y-107333568D01*
X132824701Y-107297324D01*
X132905881Y-107229206D01*
X132911174Y-107220038D01*
X133696731Y-107220038D01*
X133714231Y-107308022D01*
X133714231Y-107308023D01*
X133714232Y-107308024D01*
X133764072Y-107382615D01*
X133838663Y-107432455D01*
X133926649Y-107449956D01*
X134014635Y-107432455D01*
X134089226Y-107382615D01*
X134139066Y-107308024D01*
X134156567Y-107220038D01*
X134139066Y-107132052D01*
X134089226Y-107057461D01*
X134014635Y-107007621D01*
X134014634Y-107007620D01*
X134014633Y-107007620D01*
X133926649Y-106990120D01*
X133838664Y-107007620D01*
X133764072Y-107057461D01*
X133714231Y-107132053D01*
X133696731Y-107220037D01*
X133696731Y-107220038D01*
X132911174Y-107220038D01*
X132958867Y-107137431D01*
X132977269Y-107033068D01*
X132977269Y-107033065D01*
X132958867Y-106928705D01*
X132905883Y-106836932D01*
X132905881Y-106836930D01*
X132824701Y-106768812D01*
X132774910Y-106750690D01*
X132725120Y-106732568D01*
X132725119Y-106732568D01*
X132619147Y-106732568D01*
X132619145Y-106732568D01*
X132519565Y-106768812D01*
X132438382Y-106836932D01*
X132385398Y-106928705D01*
X132366997Y-107033065D01*
X132366997Y-107033070D01*
X125930500Y-107033070D01*
X125930500Y-105085527D01*
X129052642Y-105085527D01*
X129073555Y-105244373D01*
X129073555Y-105244375D01*
X129134869Y-105392400D01*
X129134870Y-105392402D01*
X129134871Y-105392403D01*
X129232406Y-105519512D01*
X129359518Y-105617049D01*
X129507543Y-105678363D01*
X129626508Y-105694025D01*
X129706278Y-105694025D01*
X129825243Y-105678363D01*
X129973268Y-105617049D01*
X130100380Y-105519512D01*
X130197917Y-105392401D01*
X130259231Y-105244375D01*
X130280144Y-105085525D01*
X130259231Y-104926675D01*
X130197917Y-104778650D01*
X130197915Y-104778648D01*
X130197915Y-104778647D01*
X130175291Y-104749164D01*
X130100380Y-104651538D01*
X130003701Y-104577353D01*
X129973270Y-104554002D01*
X129973268Y-104554001D01*
X129909318Y-104527512D01*
X129825243Y-104492687D01*
X129795501Y-104488771D01*
X129706281Y-104477025D01*
X129706278Y-104477025D01*
X129626508Y-104477025D01*
X129626504Y-104477025D01*
X129531336Y-104489554D01*
X129507543Y-104492687D01*
X129507542Y-104492687D01*
X129359517Y-104554001D01*
X129359515Y-104554002D01*
X129232406Y-104651538D01*
X129134870Y-104778646D01*
X129134869Y-104778648D01*
X129073555Y-104926674D01*
X129073555Y-104926676D01*
X129052642Y-105085522D01*
X129052642Y-105085527D01*
X125930500Y-105085527D01*
X125930500Y-104235272D01*
X133020820Y-104235272D01*
X133039221Y-104339632D01*
X133092205Y-104431405D01*
X133092207Y-104431407D01*
X133092208Y-104431408D01*
X133173388Y-104499526D01*
X133272970Y-104535770D01*
X133272971Y-104535770D01*
X133378941Y-104535770D01*
X133378942Y-104535770D01*
X133478524Y-104499526D01*
X133559704Y-104431408D01*
X133598081Y-104364936D01*
X141401851Y-104364936D01*
X141419351Y-104452920D01*
X141419351Y-104452921D01*
X141419352Y-104452922D01*
X141469192Y-104527513D01*
X141543783Y-104577353D01*
X141631769Y-104594854D01*
X141719755Y-104577353D01*
X141794346Y-104527513D01*
X141844186Y-104452922D01*
X141861687Y-104364936D01*
X141844186Y-104276950D01*
X141794346Y-104202359D01*
X141719755Y-104152519D01*
X141719754Y-104152518D01*
X141719753Y-104152518D01*
X141631769Y-104135018D01*
X141543784Y-104152518D01*
X141469192Y-104202359D01*
X141419351Y-104276951D01*
X141401851Y-104364935D01*
X141401851Y-104364936D01*
X133598081Y-104364936D01*
X133612690Y-104339633D01*
X133631092Y-104235270D01*
X133631092Y-104235267D01*
X133612690Y-104130907D01*
X133559706Y-104039134D01*
X133559704Y-104039132D01*
X133478524Y-103971014D01*
X133383616Y-103936471D01*
X133378943Y-103934770D01*
X133378942Y-103934770D01*
X133272970Y-103934770D01*
X133272968Y-103934770D01*
X133173388Y-103971014D01*
X133092205Y-104039134D01*
X133039221Y-104130907D01*
X133020820Y-104235267D01*
X133020820Y-104235272D01*
X125930500Y-104235272D01*
X125930500Y-103832110D01*
X127880802Y-103832110D01*
X127899203Y-103936470D01*
X127952187Y-104028243D01*
X127952189Y-104028245D01*
X127952190Y-104028246D01*
X128033370Y-104096364D01*
X128132952Y-104132608D01*
X128132953Y-104132608D01*
X128238923Y-104132608D01*
X128238924Y-104132608D01*
X128338506Y-104096364D01*
X128419686Y-104028246D01*
X128472672Y-103936471D01*
X128491074Y-103832108D01*
X128491074Y-103832105D01*
X128481868Y-103779897D01*
X130729779Y-103779897D01*
X130748180Y-103884257D01*
X130801164Y-103976030D01*
X130801166Y-103976032D01*
X130801167Y-103976033D01*
X130882347Y-104044151D01*
X130981929Y-104080395D01*
X130981930Y-104080395D01*
X131087900Y-104080395D01*
X131087901Y-104080395D01*
X131187483Y-104044151D01*
X131268663Y-103976033D01*
X131321649Y-103884258D01*
X131323747Y-103872358D01*
X134132166Y-103872358D01*
X134150567Y-103976718D01*
X134203551Y-104068491D01*
X134203553Y-104068493D01*
X134203554Y-104068494D01*
X134284734Y-104136612D01*
X134384316Y-104172856D01*
X134384317Y-104172856D01*
X134490287Y-104172856D01*
X134490288Y-104172856D01*
X134589870Y-104136612D01*
X134671050Y-104068494D01*
X134724036Y-103976719D01*
X134731433Y-103934770D01*
X134742438Y-103872358D01*
X134742438Y-103872353D01*
X134724036Y-103767993D01*
X134674250Y-103681760D01*
X134785806Y-103681760D01*
X134803306Y-103769744D01*
X134803306Y-103769745D01*
X134803307Y-103769746D01*
X134853147Y-103844337D01*
X134927738Y-103894177D01*
X135015724Y-103911678D01*
X135103710Y-103894177D01*
X135178301Y-103844337D01*
X135228141Y-103769746D01*
X135245642Y-103681760D01*
X135228141Y-103593774D01*
X135178301Y-103519183D01*
X135103710Y-103469343D01*
X135103709Y-103469342D01*
X135103708Y-103469342D01*
X135015724Y-103451842D01*
X134927739Y-103469342D01*
X134853147Y-103519183D01*
X134803306Y-103593775D01*
X134785806Y-103681759D01*
X134785806Y-103681760D01*
X134674250Y-103681760D01*
X134671052Y-103676220D01*
X134670232Y-103675532D01*
X134589870Y-103608100D01*
X134522987Y-103583757D01*
X134490289Y-103571856D01*
X134490288Y-103571856D01*
X134384316Y-103571856D01*
X134384314Y-103571856D01*
X134284734Y-103608100D01*
X134203551Y-103676220D01*
X134150567Y-103767993D01*
X134132166Y-103872353D01*
X134132166Y-103872358D01*
X131323747Y-103872358D01*
X131330844Y-103832110D01*
X131340051Y-103779897D01*
X131340051Y-103779892D01*
X131321649Y-103675532D01*
X131268665Y-103583759D01*
X131268663Y-103583757D01*
X131187483Y-103515639D01*
X131137692Y-103497517D01*
X131087902Y-103479395D01*
X131087901Y-103479395D01*
X130981929Y-103479395D01*
X130981927Y-103479395D01*
X130882347Y-103515639D01*
X130801164Y-103583759D01*
X130748180Y-103675532D01*
X130729779Y-103779892D01*
X130729779Y-103779897D01*
X128481868Y-103779897D01*
X128472672Y-103727745D01*
X128419688Y-103635972D01*
X128419686Y-103635970D01*
X128338506Y-103567852D01*
X128288715Y-103549730D01*
X128238925Y-103531608D01*
X128238924Y-103531608D01*
X128132952Y-103531608D01*
X128132950Y-103531608D01*
X128033370Y-103567852D01*
X127952187Y-103635972D01*
X127899203Y-103727745D01*
X127880802Y-103832105D01*
X127880802Y-103832110D01*
X125930500Y-103832110D01*
X125930500Y-103326510D01*
X147977103Y-103326510D01*
X147994603Y-103414494D01*
X147994603Y-103414495D01*
X147994604Y-103414496D01*
X148044444Y-103489087D01*
X148119035Y-103538927D01*
X148207021Y-103556428D01*
X148295007Y-103538927D01*
X148349693Y-103502387D01*
X148664525Y-103502387D01*
X148682025Y-103590371D01*
X148682025Y-103590372D01*
X148682026Y-103590373D01*
X148731866Y-103664964D01*
X148806457Y-103714804D01*
X148894443Y-103732305D01*
X148982429Y-103714804D01*
X149057020Y-103664964D01*
X149106860Y-103590373D01*
X149124361Y-103502387D01*
X149106860Y-103414401D01*
X149057020Y-103339810D01*
X148982429Y-103289970D01*
X148982428Y-103289969D01*
X148982427Y-103289969D01*
X148894443Y-103272469D01*
X148806458Y-103289969D01*
X148731866Y-103339810D01*
X148682025Y-103414402D01*
X148664525Y-103502386D01*
X148664525Y-103502387D01*
X148349693Y-103502387D01*
X148369598Y-103489087D01*
X148419438Y-103414496D01*
X148436939Y-103326510D01*
X148419438Y-103238524D01*
X148369598Y-103163933D01*
X148295007Y-103114093D01*
X148295006Y-103114092D01*
X148295005Y-103114092D01*
X148207021Y-103096592D01*
X148119036Y-103114092D01*
X148044444Y-103163933D01*
X147994603Y-103238525D01*
X147977103Y-103326509D01*
X147977103Y-103326510D01*
X125930500Y-103326510D01*
X125930500Y-103023399D01*
X136949869Y-103023399D01*
X136967369Y-103111383D01*
X136967369Y-103111384D01*
X136967370Y-103111385D01*
X137017210Y-103185976D01*
X137091801Y-103235816D01*
X137179787Y-103253317D01*
X137267773Y-103235816D01*
X137342364Y-103185976D01*
X137392204Y-103111385D01*
X137403087Y-103056669D01*
X137409040Y-103047761D01*
X137419549Y-103045670D01*
X137428458Y-103051623D01*
X137430549Y-103056670D01*
X137444217Y-103125388D01*
X137444217Y-103125389D01*
X137444218Y-103125390D01*
X137494058Y-103199981D01*
X137568649Y-103249821D01*
X137656635Y-103267322D01*
X137744621Y-103249821D01*
X137819212Y-103199981D01*
X137869052Y-103125390D01*
X137886553Y-103037404D01*
X137879102Y-102999943D01*
X150878847Y-102999943D01*
X150896347Y-103087927D01*
X150896347Y-103087928D01*
X150896348Y-103087929D01*
X150946188Y-103162520D01*
X151020779Y-103212360D01*
X151108765Y-103229861D01*
X151196751Y-103212360D01*
X151271342Y-103162520D01*
X151321182Y-103087929D01*
X151338683Y-102999943D01*
X151321182Y-102911957D01*
X151271342Y-102837366D01*
X151196751Y-102787526D01*
X151196750Y-102787525D01*
X151196749Y-102787525D01*
X151108765Y-102770025D01*
X151020780Y-102787525D01*
X150946188Y-102837366D01*
X150896347Y-102911958D01*
X150878847Y-102999942D01*
X150878847Y-102999943D01*
X137879102Y-102999943D01*
X137869052Y-102949418D01*
X137819212Y-102874827D01*
X137744621Y-102824987D01*
X137744620Y-102824986D01*
X137744619Y-102824986D01*
X137656635Y-102807486D01*
X137568650Y-102824986D01*
X137494058Y-102874827D01*
X137444217Y-102949419D01*
X137433334Y-103004132D01*
X137427381Y-103013042D01*
X137416872Y-103015132D01*
X137407962Y-103009179D01*
X137405873Y-103004135D01*
X137392204Y-102935413D01*
X137342364Y-102860822D01*
X137267773Y-102810982D01*
X137267772Y-102810981D01*
X137267771Y-102810981D01*
X137179787Y-102793481D01*
X137091802Y-102810981D01*
X137017210Y-102860822D01*
X136967369Y-102935414D01*
X136949869Y-103023398D01*
X136949869Y-103023399D01*
X125930500Y-103023399D01*
X125930500Y-102542246D01*
X127828288Y-102542246D01*
X127846689Y-102646606D01*
X127899673Y-102738379D01*
X127899675Y-102738381D01*
X127899676Y-102738382D01*
X127980856Y-102806500D01*
X128080438Y-102842744D01*
X128080439Y-102842744D01*
X128186409Y-102842744D01*
X128186410Y-102842744D01*
X128285992Y-102806500D01*
X128367172Y-102738382D01*
X128420158Y-102646607D01*
X128438560Y-102542244D01*
X128438560Y-102542241D01*
X128428713Y-102486400D01*
X130794670Y-102486400D01*
X130813071Y-102590760D01*
X130866055Y-102682533D01*
X130866057Y-102682535D01*
X130866058Y-102682536D01*
X130947238Y-102750654D01*
X131046820Y-102786898D01*
X131046821Y-102786898D01*
X131152791Y-102786898D01*
X131152792Y-102786898D01*
X131252374Y-102750654D01*
X131333554Y-102682536D01*
X131386540Y-102590761D01*
X131392674Y-102555973D01*
X131404942Y-102486400D01*
X131404942Y-102486395D01*
X131386540Y-102382035D01*
X131333556Y-102290262D01*
X131333554Y-102290260D01*
X131252374Y-102222142D01*
X131202583Y-102204020D01*
X131152793Y-102185898D01*
X131152792Y-102185898D01*
X131046820Y-102185898D01*
X131046818Y-102185898D01*
X130947238Y-102222142D01*
X130866055Y-102290262D01*
X130813071Y-102382035D01*
X130794670Y-102486395D01*
X130794670Y-102486400D01*
X128428713Y-102486400D01*
X128420158Y-102437881D01*
X128367174Y-102346108D01*
X128367172Y-102346106D01*
X128285992Y-102277988D01*
X128236201Y-102259866D01*
X128186411Y-102241744D01*
X128186410Y-102241744D01*
X128080438Y-102241744D01*
X128080436Y-102241744D01*
X127980856Y-102277988D01*
X127899673Y-102346108D01*
X127846689Y-102437881D01*
X127828288Y-102542241D01*
X127828288Y-102542246D01*
X125930500Y-102542246D01*
X125930500Y-101264854D01*
X130794459Y-101264854D01*
X130812860Y-101369214D01*
X130865844Y-101460987D01*
X130865846Y-101460989D01*
X130865847Y-101460990D01*
X130947027Y-101529108D01*
X131046609Y-101565352D01*
X131046610Y-101565352D01*
X131152580Y-101565352D01*
X131152581Y-101565352D01*
X131252163Y-101529108D01*
X131333343Y-101460990D01*
X131345544Y-101439858D01*
X131363461Y-101408824D01*
X131379502Y-101381040D01*
X136937223Y-101381040D01*
X136954723Y-101469024D01*
X136954723Y-101469025D01*
X136954724Y-101469026D01*
X137004564Y-101543617D01*
X137079155Y-101593457D01*
X137167141Y-101610958D01*
X137255127Y-101593457D01*
X137329718Y-101543617D01*
X137379558Y-101469026D01*
X137385359Y-101439860D01*
X142515218Y-101439860D01*
X142533619Y-101544220D01*
X142586603Y-101635993D01*
X142586605Y-101635995D01*
X142586606Y-101635996D01*
X142667786Y-101704114D01*
X142767368Y-101740358D01*
X142767369Y-101740358D01*
X142873339Y-101740358D01*
X142873340Y-101740358D01*
X142972922Y-101704114D01*
X143054102Y-101635996D01*
X143065299Y-101616603D01*
X143078662Y-101593457D01*
X143107088Y-101544221D01*
X143121764Y-101460990D01*
X143125490Y-101439860D01*
X143125490Y-101439855D01*
X143120018Y-101408825D01*
X147112009Y-101408825D01*
X147129509Y-101496809D01*
X147129509Y-101496810D01*
X147129510Y-101496811D01*
X147179350Y-101571402D01*
X147253941Y-101621242D01*
X147341927Y-101638743D01*
X147429913Y-101621242D01*
X147504504Y-101571402D01*
X147530286Y-101532815D01*
X147539196Y-101526863D01*
X147549705Y-101528953D01*
X147553567Y-101532815D01*
X147579349Y-101571401D01*
X147579351Y-101571403D01*
X147617935Y-101597185D01*
X147623888Y-101606094D01*
X147621797Y-101616603D01*
X147617935Y-101620465D01*
X147579351Y-101646246D01*
X147529509Y-101720840D01*
X147512009Y-101808824D01*
X147512009Y-101808825D01*
X147529509Y-101896809D01*
X147529509Y-101896810D01*
X147529510Y-101896811D01*
X147579350Y-101971402D01*
X147653941Y-102021242D01*
X147741927Y-102038743D01*
X147829913Y-102021242D01*
X147904504Y-101971402D01*
X147954344Y-101896811D01*
X147971845Y-101808825D01*
X148312009Y-101808825D01*
X148329509Y-101896809D01*
X148329509Y-101896810D01*
X148329510Y-101896811D01*
X148379350Y-101971402D01*
X148453941Y-102021242D01*
X148541927Y-102038743D01*
X148629913Y-102021242D01*
X148704504Y-101971402D01*
X148718363Y-101950661D01*
X151988589Y-101950661D01*
X152006990Y-102055021D01*
X152059974Y-102146794D01*
X152059976Y-102146796D01*
X152059977Y-102146797D01*
X152141157Y-102214915D01*
X152240739Y-102251159D01*
X152240740Y-102251159D01*
X152346710Y-102251159D01*
X152346711Y-102251159D01*
X152446293Y-102214915D01*
X152527473Y-102146797D01*
X152580459Y-102055022D01*
X152586593Y-102020234D01*
X152598861Y-101950661D01*
X152598861Y-101950656D01*
X152580459Y-101846296D01*
X152527475Y-101754523D01*
X152510594Y-101740358D01*
X152446293Y-101686403D01*
X152396502Y-101668281D01*
X152346712Y-101650159D01*
X152346711Y-101650159D01*
X152240739Y-101650159D01*
X152240737Y-101650159D01*
X152141157Y-101686403D01*
X152059974Y-101754523D01*
X152006990Y-101846296D01*
X151988589Y-101950656D01*
X151988589Y-101950661D01*
X148718363Y-101950661D01*
X148754344Y-101896811D01*
X148771845Y-101808825D01*
X148754344Y-101720839D01*
X148704504Y-101646248D01*
X148665917Y-101620465D01*
X148659965Y-101611556D01*
X148662055Y-101601047D01*
X148665918Y-101597184D01*
X148671496Y-101593457D01*
X148704504Y-101571402D01*
X148754344Y-101496811D01*
X148771845Y-101408825D01*
X148754344Y-101320839D01*
X148716782Y-101264624D01*
X150802890Y-101264624D01*
X150821291Y-101368984D01*
X150874275Y-101460757D01*
X150874277Y-101460759D01*
X150874278Y-101460760D01*
X150955458Y-101528878D01*
X151055040Y-101565122D01*
X151055041Y-101565122D01*
X151161011Y-101565122D01*
X151161012Y-101565122D01*
X151260594Y-101528878D01*
X151341774Y-101460760D01*
X151353844Y-101439855D01*
X151358571Y-101431665D01*
X151394760Y-101368985D01*
X151403249Y-101320840D01*
X151407536Y-101296530D01*
X151413293Y-101287493D01*
X151423754Y-101285174D01*
X151432791Y-101290931D01*
X151435110Y-101296530D01*
X151446446Y-101360822D01*
X151499430Y-101452595D01*
X151499432Y-101452597D01*
X151499433Y-101452598D01*
X151580613Y-101520716D01*
X151680195Y-101556960D01*
X151680196Y-101556960D01*
X151786166Y-101556960D01*
X151786167Y-101556960D01*
X151885749Y-101520716D01*
X151966929Y-101452598D01*
X151974285Y-101439858D01*
X151992202Y-101408824D01*
X152019915Y-101360823D01*
X152031864Y-101293055D01*
X152038317Y-101256462D01*
X152038317Y-101256457D01*
X152019915Y-101152097D01*
X151966931Y-101060324D01*
X151966929Y-101060322D01*
X151885749Y-100992204D01*
X151835958Y-100974082D01*
X151786168Y-100955960D01*
X151786167Y-100955960D01*
X151680195Y-100955960D01*
X151680193Y-100955960D01*
X151580613Y-100992204D01*
X151499430Y-101060324D01*
X151446446Y-101152097D01*
X151433670Y-101224551D01*
X151427913Y-101233588D01*
X151417452Y-101235907D01*
X151408415Y-101230150D01*
X151406096Y-101224551D01*
X151394760Y-101160259D01*
X151341776Y-101068486D01*
X151332049Y-101060324D01*
X151260594Y-101000366D01*
X151210803Y-100982244D01*
X151161013Y-100964122D01*
X151161012Y-100964122D01*
X151055040Y-100964122D01*
X151055038Y-100964122D01*
X150955458Y-101000366D01*
X150874275Y-101068486D01*
X150821291Y-101160259D01*
X150802890Y-101264619D01*
X150802890Y-101264624D01*
X148716782Y-101264624D01*
X148704504Y-101246248D01*
X148629913Y-101196408D01*
X148629912Y-101196407D01*
X148629911Y-101196407D01*
X148541927Y-101178907D01*
X148453942Y-101196407D01*
X148379350Y-101246248D01*
X148329509Y-101320840D01*
X148312009Y-101408824D01*
X148312009Y-101408825D01*
X148329509Y-101496809D01*
X148329509Y-101496810D01*
X148329510Y-101496811D01*
X148379350Y-101571402D01*
X148379351Y-101571403D01*
X148417935Y-101597185D01*
X148423888Y-101606094D01*
X148421797Y-101616603D01*
X148417935Y-101620465D01*
X148379351Y-101646246D01*
X148329509Y-101720840D01*
X148312009Y-101808824D01*
X148312009Y-101808825D01*
X147971845Y-101808825D01*
X147954344Y-101720839D01*
X147904504Y-101646248D01*
X147865917Y-101620465D01*
X147859965Y-101611556D01*
X147862055Y-101601047D01*
X147865918Y-101597184D01*
X147871496Y-101593457D01*
X147904504Y-101571402D01*
X147954344Y-101496811D01*
X147971845Y-101408825D01*
X147954344Y-101320839D01*
X147904504Y-101246248D01*
X147829913Y-101196408D01*
X147829912Y-101196407D01*
X147829911Y-101196407D01*
X147741927Y-101178907D01*
X147653942Y-101196407D01*
X147579348Y-101246249D01*
X147553567Y-101284833D01*
X147544658Y-101290786D01*
X147534149Y-101288695D01*
X147530287Y-101284833D01*
X147504505Y-101246249D01*
X147504504Y-101246248D01*
X147429913Y-101196408D01*
X147429912Y-101196407D01*
X147429911Y-101196407D01*
X147341927Y-101178907D01*
X147253942Y-101196407D01*
X147179350Y-101246248D01*
X147129509Y-101320840D01*
X147112009Y-101408824D01*
X147112009Y-101408825D01*
X143120018Y-101408825D01*
X143107088Y-101335495D01*
X143054104Y-101243722D01*
X143054102Y-101243720D01*
X142972922Y-101175602D01*
X142905662Y-101151122D01*
X142873341Y-101139358D01*
X142873340Y-101139358D01*
X142767368Y-101139358D01*
X142767366Y-101139358D01*
X142667786Y-101175602D01*
X142586603Y-101243722D01*
X142533619Y-101335495D01*
X142515218Y-101439855D01*
X142515218Y-101439860D01*
X137385359Y-101439860D01*
X137397059Y-101381040D01*
X137379558Y-101293054D01*
X137329718Y-101218463D01*
X137255127Y-101168623D01*
X137255126Y-101168622D01*
X137255125Y-101168622D01*
X137167141Y-101151122D01*
X137079156Y-101168622D01*
X137004564Y-101218463D01*
X136954723Y-101293055D01*
X136937223Y-101381039D01*
X136937223Y-101381040D01*
X131379502Y-101381040D01*
X131386329Y-101369215D01*
X131398136Y-101302255D01*
X131404731Y-101264854D01*
X131404731Y-101264849D01*
X131386329Y-101160489D01*
X131333345Y-101068716D01*
X131323344Y-101060324D01*
X131252163Y-101000596D01*
X131202372Y-100982474D01*
X131152582Y-100964352D01*
X131152581Y-100964352D01*
X131046609Y-100964352D01*
X131046607Y-100964352D01*
X130947027Y-101000596D01*
X130865844Y-101068716D01*
X130812860Y-101160489D01*
X130794459Y-101264849D01*
X130794459Y-101264854D01*
X125930500Y-101264854D01*
X125930500Y-100005525D01*
X128036642Y-100005525D01*
X128056147Y-100153683D01*
X128057555Y-100164373D01*
X128057555Y-100164375D01*
X128118869Y-100312400D01*
X128118870Y-100312402D01*
X128118871Y-100312403D01*
X128216406Y-100439512D01*
X128303462Y-100506313D01*
X128342678Y-100536405D01*
X128343518Y-100537049D01*
X128491543Y-100598363D01*
X128610508Y-100614025D01*
X128690278Y-100614025D01*
X128809243Y-100598363D01*
X128957268Y-100537049D01*
X129084380Y-100439512D01*
X129181917Y-100312401D01*
X129243231Y-100164375D01*
X129264144Y-100005525D01*
X130068642Y-100005525D01*
X130088147Y-100153683D01*
X130089555Y-100164373D01*
X130089555Y-100164375D01*
X130150869Y-100312400D01*
X130150870Y-100312402D01*
X130150871Y-100312403D01*
X130248406Y-100439512D01*
X130335462Y-100506313D01*
X130374678Y-100536405D01*
X130375518Y-100537049D01*
X130523543Y-100598363D01*
X130642508Y-100614025D01*
X130722278Y-100614025D01*
X130841243Y-100598363D01*
X130989268Y-100537049D01*
X131116380Y-100439512D01*
X131213917Y-100312401D01*
X131275231Y-100164375D01*
X131296144Y-100005525D01*
X131275231Y-99846675D01*
X131213917Y-99698650D01*
X131213915Y-99698648D01*
X131213915Y-99698647D01*
X131191291Y-99669164D01*
X131116380Y-99571538D01*
X130995237Y-99478581D01*
X130989270Y-99474002D01*
X130989268Y-99474001D01*
X130946568Y-99456314D01*
X130841243Y-99412687D01*
X130811501Y-99408771D01*
X130722281Y-99397025D01*
X130722278Y-99397025D01*
X130642508Y-99397025D01*
X130642504Y-99397025D01*
X130547336Y-99409554D01*
X130523543Y-99412687D01*
X130523542Y-99412687D01*
X130375517Y-99474001D01*
X130375515Y-99474002D01*
X130248406Y-99571538D01*
X130150870Y-99698646D01*
X130150869Y-99698648D01*
X130107342Y-99803734D01*
X130089555Y-99846675D01*
X130068642Y-100005525D01*
X129264144Y-100005525D01*
X129243231Y-99846675D01*
X129181917Y-99698650D01*
X129181915Y-99698648D01*
X129181915Y-99698647D01*
X129159291Y-99669164D01*
X129084380Y-99571538D01*
X128963237Y-99478581D01*
X128957270Y-99474002D01*
X128957268Y-99474001D01*
X128914568Y-99456314D01*
X128809243Y-99412687D01*
X128779501Y-99408771D01*
X128690281Y-99397025D01*
X128690278Y-99397025D01*
X128610508Y-99397025D01*
X128610504Y-99397025D01*
X128515336Y-99409554D01*
X128491543Y-99412687D01*
X128491542Y-99412687D01*
X128343517Y-99474001D01*
X128343515Y-99474002D01*
X128216406Y-99571538D01*
X128118870Y-99698646D01*
X128118869Y-99698648D01*
X128075342Y-99803734D01*
X128057555Y-99846675D01*
X128036642Y-100005525D01*
X125930500Y-100005525D01*
X125930500Y-98694500D01*
X125934601Y-98684601D01*
X125944500Y-98680500D01*
X131428386Y-98680500D01*
X131434892Y-98682104D01*
G37*
%TD.AperFunction*%
%TD*%
D13*
X134301369Y-98513144D02*
X134301369Y-100393144D01*
X139051369Y-100393144D02*
X139901369Y-100393144D01*
X125750000Y-117500000D02*
X125750000Y-98500000D01*
X152000000Y-117000000D02*
X152000000Y-117500000D01*
X139901369Y-98513144D02*
X142701369Y-98513144D01*
X152000000Y-117500000D02*
X125750000Y-117500000D01*
X139051369Y-98513144D02*
X139051369Y-100393144D01*
X139901369Y-100393144D02*
X139901369Y-98513144D01*
X153250000Y-116000000D02*
X153000000Y-116000000D01*
X125750000Y-98500000D02*
X153250000Y-98500000D01*
X134301369Y-100393144D02*
X135151369Y-100393144D01*
X131501369Y-98513144D02*
X134301369Y-98513144D01*
X153250000Y-98500000D02*
X153250000Y-116000000D01*
X135151369Y-100393144D02*
X135151369Y-98513144D01*
X135151369Y-98513144D02*
X139051369Y-98513144D01*
X131501369Y-98363144D02*
X131501369Y-98513144D01*
X142701369Y-98363144D02*
X131501369Y-98363144D01*
X142701369Y-98513144D02*
X142701369Y-98363144D01*
X153000000Y-116000000D02*
G75*
G03*
X152000000Y-117000000I0J-1000000D01*
G01*
M02*
