%TF.GenerationSoftware,KiCad,Pcbnew,7.0.10*%
%TF.CreationDate,2024-02-22T14:43:34-08:00*%
%TF.ProjectId,beeper-design,62656570-6572-42d6-9465-7369676e2e6b,rev?*%
%TF.SameCoordinates,Original*%
%TF.FileFunction,Copper,L4,Bot*%
%TF.FilePolarity,Positive*%
%FSLAX46Y46*%
G04 Gerber Fmt 4.6, Leading zero omitted, Abs format (unit mm)*
G04 Created by KiCad (PCBNEW 7.0.10) date 2024-02-22 14:43:34*
%MOMM*%
%LPD*%
G01*
G04 APERTURE LIST*
G04 Aperture macros list*
%AMFreePoly0*
4,1,19,0.530783,0.363547,0.658443,0.278247,0.743744,0.150586,0.773697,0.000000,0.743744,-0.150586,0.658443,-0.278247,0.530783,-0.363547,0.380197,-0.393500,-0.573697,-0.207131,-0.650234,-0.191907,-0.715118,-0.148552,-0.758473,-0.083667,-0.773697,-0.007131,-0.758473,0.069406,-0.715118,0.134291,-0.650234,0.177645,0.229611,0.363547,0.380197,0.393500,0.530783,0.363547,0.530783,0.363547,
$1*%
%AMFreePoly1*
4,1,25,-0.269963,1.195223,-0.107751,1.086837,0.000635,0.924625,0.528799,0.019624,0.946080,-0.956747,0.961304,-1.033284,0.946080,-1.109820,0.902726,-1.174705,0.837841,-1.218060,0.761304,-1.233284,0.684768,-1.218060,0.619883,-1.174705,0.576529,-1.109820,0.344023,-0.056913,0.295249,0.016082,0.222254,0.064856,-0.652646,0.271344,-0.814858,0.379730,-0.923244,0.541942,-0.961304,0.733284,
-0.923244,0.924625,-0.814858,1.086837,-0.652646,1.195223,-0.461304,1.233284,-0.269963,1.195223,-0.269963,1.195223,$1*%
%AMFreePoly2*
4,1,9,0.003536,0.003536,0.005000,0.000000,0.003536,-0.003536,0.000000,-0.005000,-0.003536,-0.003536,-0.005000,0.000000,-0.003536,0.003536,0.000000,0.005000,0.003536,0.003536,0.003536,0.003536,$1*%
%AMFreePoly3*
4,1,34,0.971848,1.803513,1.134060,1.695126,1.242446,1.532915,1.280506,1.341573,1.242446,1.150231,1.134060,0.988020,0.971848,0.879633,0.537290,0.626396,-0.039070,0.271000,-0.110444,0.223310,-0.158134,0.151937,-1.040021,-1.764408,-1.067118,-1.804961,-1.107671,-1.832058,-1.155506,-1.841573,-1.203342,-1.832058,-1.243895,-1.804961,-1.270991,-1.764408,-1.280506,-1.716573,-1.270991,-1.668738,
-1.243895,-1.628185,-0.999943,-1.372136,-0.952253,-1.300763,-0.241283,0.186378,-0.174083,0.286950,0.200683,0.565838,0.248373,0.637211,0.265120,0.721401,0.280506,1.341573,0.318567,1.532915,0.426953,1.695126,0.589165,1.803513,0.780506,1.841573,0.971848,1.803513,0.971848,1.803513,$1*%
%AMFreePoly4*
4,1,19,-0.151765,0.363547,0.572388,0.195448,0.637272,0.152094,0.680627,0.087209,0.695851,0.010672,0.680627,-0.065864,0.637272,-0.130749,0.572388,-0.174103,-0.151765,-0.363547,-0.302351,-0.393500,-0.452937,-0.363547,-0.580597,-0.278247,-0.665897,-0.150586,-0.695851,0.000000,-0.665897,0.150586,-0.580597,0.278247,-0.452937,0.363547,-0.302351,0.393500,-0.151765,0.363547,-0.151765,0.363547,
$1*%
%AMFreePoly5*
4,1,22,0.821643,1.213669,0.983855,1.105282,1.092241,0.943071,1.130301,0.751729,1.092241,0.560387,0.983855,0.398176,0.821643,0.289789,-0.169678,-0.350504,-0.241051,-0.398194,-1.062563,-1.251729,-1.130301,-1.192471,-0.304690,-0.334554,0.065999,-0.067893,0.113689,0.003480,0.130435,0.087670,0.130435,0.742788,0.130301,0.751729,0.168362,0.943071,0.276748,1.105282,0.438960,1.213669,
0.630301,1.251729,0.821643,1.213669,0.821643,1.213669,$1*%
%AMFreePoly6*
4,1,19,1.889386,-0.009454,1.965923,-0.024678,2.030807,-0.068033,2.074162,-0.132918,2.089386,-0.209454,2.074162,-0.285991,2.030807,-0.350876,1.965923,-0.394230,1.889386,-0.409454,-1.589386,-0.500000,-1.780728,-0.461940,-1.942939,-0.353553,-2.051326,-0.191342,-2.089386,0.000000,-2.051326,0.191342,-1.942939,0.353553,-1.780728,0.461940,-1.589386,0.500000,1.889386,-0.009454,1.889386,-0.009454,
$1*%
%AMFreePoly7*
4,1,19,-0.119425,0.363547,0.540047,0.220405,0.604932,0.177051,0.648287,0.112166,0.663511,0.035629,0.648287,-0.040907,0.604932,-0.105792,0.540047,-0.149146,-0.119425,-0.363547,-0.270011,-0.393500,-0.420597,-0.363547,-0.548257,-0.278247,-0.633557,-0.150586,-0.663511,0.000000,-0.633557,0.150586,-0.548257,0.278247,-0.420597,0.363547,-0.270011,0.393500,-0.119425,0.363547,-0.119425,0.363547,
$1*%
%AMFreePoly8*
4,1,19,2.310990,0.320951,2.387527,0.305727,2.452411,0.262372,2.495766,0.197487,2.510990,0.120951,2.495766,0.044414,2.452411,-0.020471,2.387527,-0.063825,2.310990,-0.079049,-2.010990,-0.500000,-2.202332,-0.461940,-2.364543,-0.353553,-2.472930,-0.191342,-2.510990,0.000000,-2.472930,0.191342,-2.364543,0.353553,-2.202332,0.461940,-2.010990,0.500000,2.310990,0.320951,2.310990,0.320951,
$1*%
%AMFreePoly9*
4,1,24,0.100285,1.534511,0.262497,1.426124,0.370883,1.263913,0.408943,1.072571,0.591057,-1.372571,0.575833,-1.449108,0.532478,-1.513992,0.467593,-1.557347,0.391057,-1.572571,0.314520,-1.557347,0.249635,-1.513992,0.206281,-1.449108,0.191057,-1.372571,0.150513,-0.678373,0.137536,-0.593433,0.126154,-0.555914,-0.291127,0.420457,-0.552996,0.881229,-0.591057,1.072571,-0.552996,1.263913,
-0.444610,1.426124,-0.282398,1.534511,-0.091057,1.572571,0.100285,1.534511,0.100285,1.534511,$1*%
%AMFreePoly10*
4,1,17,-0.606779,1.019037,0.779614,0.321448,0.779614,-1.028552,0.379614,-1.028552,0.249614,0.321448,0.240480,0.367370,0.214467,0.406301,0.175536,0.432313,-0.702450,0.788067,-0.743003,0.815164,-0.770099,0.855717,-0.779614,0.903552,-0.770099,0.951388,-0.743003,0.991940,-0.702450,1.019037,-0.654614,1.028552,-0.606779,1.019037,-0.606779,1.019037,$1*%
%AMFreePoly11*
4,1,19,0.476564,0.363547,0.604224,0.278247,0.689524,0.150586,0.719478,0.000000,0.689524,-0.150586,0.604224,-0.278247,0.476564,-0.363547,0.325978,-0.393500,0.175392,-0.363547,-0.596015,-0.201360,-0.660899,-0.158005,-0.704254,-0.093120,-0.719478,-0.016584,-0.704254,0.059953,-0.660899,0.124838,-0.596015,0.168192,0.175392,0.363547,0.325978,0.393500,0.476564,0.363547,0.476564,0.363547,
$1*%
%AMFreePoly12*
4,1,19,0.191342,1.275945,0.353553,1.167559,0.461940,1.005347,0.500000,0.814005,0.461940,0.622663,-0.016327,-1.190542,-0.059681,-1.255427,-0.124566,-1.298781,-0.201102,-1.314005,-0.277639,-1.298781,-0.342524,-1.255427,-0.385878,-1.190542,-0.401102,-1.114005,-0.500000,0.814005,-0.461940,1.005347,-0.353553,1.167559,-0.191342,1.275945,0.000000,1.314005,0.191342,1.275945,0.191342,1.275945,
$1*%
%AMFreePoly13*
4,1,19,0.502821,0.363547,0.630481,0.278247,0.715781,0.150586,0.745735,0.000000,0.715781,-0.150586,0.630481,-0.278247,0.502821,-0.363547,0.352235,-0.393500,0.201649,-0.363547,-0.622271,-0.181496,-0.687156,-0.138141,-0.730511,-0.073256,-0.745735,0.003280,-0.730511,0.079817,-0.687156,0.144702,-0.622271,0.188056,0.201649,0.363547,0.352235,0.393500,0.502821,0.363547,0.502821,0.363547,
$1*%
%AMFreePoly14*
4,1,14,0.121706,0.254048,0.162259,0.226951,0.189356,0.186398,0.198871,0.138563,0.189356,0.090727,0.162259,0.050175,-0.081693,-0.205874,-0.122368,-0.263563,-0.198871,-0.216158,-0.041614,0.186398,-0.014518,0.226951,0.026035,0.254048,0.073871,0.263563,0.121706,0.254048,0.121706,0.254048,$1*%
%AMFreePoly15*
4,1,21,-1.635584,0.711044,-0.169523,-0.012314,1.731254,-0.480074,1.771807,-0.507170,1.798904,-0.547723,1.808419,-0.595559,1.798904,-0.643394,1.771807,-0.683947,1.731254,-0.711044,1.683419,-0.720559,1.635584,-0.711044,-0.246059,-0.197090,-1.731254,0.480074,-1.771807,0.507170,-1.798904,0.547723,-1.808419,0.595559,-1.798904,0.643394,-1.771807,0.683947,-1.731254,0.711044,-1.683419,0.720559,
-1.635584,0.711044,-1.635584,0.711044,$1*%
%AMFreePoly16*
4,1,12,0.076537,0.872276,0.141421,0.828921,0.184776,0.764037,0.200000,0.687500,0.200000,-0.887500,-0.200000,-0.887500,-0.200000,0.687500,-0.184776,0.764037,-0.141421,0.828921,-0.076537,0.872276,0.000000,0.887500,0.076537,0.872276,0.076537,0.872276,$1*%
%AMFreePoly17*
4,1,19,0.495956,0.259127,0.572493,0.243903,0.637378,0.200548,0.680732,0.135664,0.695956,0.059127,0.680732,-0.017410,0.637378,-0.082294,0.572493,-0.125649,-0.151871,-0.363547,-0.302456,-0.393500,-0.453042,-0.363547,-0.580703,-0.278247,-0.666003,-0.150586,-0.695956,0.000000,-0.666003,0.150586,-0.580703,0.278247,-0.453042,0.363547,-0.302456,0.393500,0.495956,0.259127,0.495956,0.259127,
$1*%
%AMFreePoly18*
4,1,19,0.191342,0.900056,0.353553,0.791670,0.461940,0.629458,0.500000,0.438116,0.461940,0.246775,-0.012181,-0.814653,-0.055535,-0.879538,-0.120420,-0.922892,-0.196956,-0.938116,-0.273493,-0.922892,-0.338378,-0.879538,-0.381732,-0.814653,-0.396956,-0.738116,-0.500000,0.438116,-0.461940,0.629458,-0.353553,0.791670,-0.191342,0.900056,0.000000,0.938116,0.191342,0.900056,0.191342,0.900056,
$1*%
G04 Aperture macros list end*
%TA.AperFunction,SMDPad,CuDef*%
%ADD10FreePoly0,0.000000*%
%TD*%
%TA.AperFunction,SMDPad,CuDef*%
%ADD11FreePoly1,0.000000*%
%TD*%
%TA.AperFunction,SMDPad,CuDef*%
%ADD12FreePoly2,0.000000*%
%TD*%
%TA.AperFunction,SMDPad,CuDef*%
%ADD13FreePoly3,0.000000*%
%TD*%
%TA.AperFunction,SMDPad,CuDef*%
%ADD14FreePoly4,0.000000*%
%TD*%
%TA.AperFunction,SMDPad,CuDef*%
%ADD15FreePoly5,0.000000*%
%TD*%
%TA.AperFunction,SMDPad,CuDef*%
%ADD16FreePoly6,0.000000*%
%TD*%
%TA.AperFunction,SMDPad,CuDef*%
%ADD17FreePoly7,0.000000*%
%TD*%
%TA.AperFunction,SMDPad,CuDef*%
%ADD18FreePoly8,0.000000*%
%TD*%
%TA.AperFunction,SMDPad,CuDef*%
%ADD19FreePoly9,0.000000*%
%TD*%
%TA.AperFunction,SMDPad,CuDef*%
%ADD20FreePoly10,0.000000*%
%TD*%
%TA.AperFunction,SMDPad,CuDef*%
%ADD21FreePoly11,0.000000*%
%TD*%
%TA.AperFunction,SMDPad,CuDef*%
%ADD22FreePoly12,0.000000*%
%TD*%
%TA.AperFunction,SMDPad,CuDef*%
%ADD23FreePoly13,0.000000*%
%TD*%
%TA.AperFunction,SMDPad,CuDef*%
%ADD24FreePoly14,0.000000*%
%TD*%
%TA.AperFunction,SMDPad,CuDef*%
%ADD25FreePoly15,0.000000*%
%TD*%
%TA.AperFunction,SMDPad,CuDef*%
%ADD26FreePoly16,0.000000*%
%TD*%
%TA.AperFunction,SMDPad,CuDef*%
%ADD27FreePoly17,0.000000*%
%TD*%
%TA.AperFunction,SMDPad,CuDef*%
%ADD28FreePoly18,0.000000*%
%TD*%
%TA.AperFunction,SMDPad,CuDef*%
%ADD29C,1.000000*%
%TD*%
%TA.AperFunction,SMDPad,CuDef*%
%ADD30R,0.400000X1.350000*%
%TD*%
%TA.AperFunction,SMDPad,CuDef*%
%ADD31R,1.400000X1.900000*%
%TD*%
%TA.AperFunction,SMDPad,CuDef*%
%ADD32R,1.600000X1.900000*%
%TD*%
%TA.AperFunction,SMDPad,CuDef*%
%ADD33C,0.787000*%
%TD*%
%TA.AperFunction,ViaPad*%
%ADD34C,0.250000*%
%TD*%
%TA.AperFunction,ViaPad*%
%ADD35C,0.400000*%
%TD*%
%TA.AperFunction,Conductor*%
%ADD36C,0.075000*%
%TD*%
%TA.AperFunction,Conductor*%
%ADD37C,0.200000*%
%TD*%
%TA.AperFunction,Conductor*%
%ADD38C,0.100000*%
%TD*%
%TA.AperFunction,Conductor*%
%ADD39C,0.090000*%
%TD*%
%TA.AperFunction,Profile*%
%ADD40C,0.050000*%
%TD*%
G04 APERTURE END LIST*
D10*
%TO.P,,trace*%
%TO.N,GND*%
X128651196Y-101275525D03*
%TD*%
D11*
%TO.P,,trace*%
%TO.N,AC2*%
X150971877Y-100223177D03*
D12*
X150971877Y-100223177D03*
%TD*%
D13*
%TO.P,,trace*%
%TO.N,SP_N*%
X151470603Y-109222003D03*
D12*
X151470603Y-109222003D03*
%TD*%
D14*
%TO.P,,trace*%
%TO.N,mcu_conn-uart_tx*%
X130603744Y-101275525D03*
%TD*%
D15*
%TO.P,,trace*%
%TO.N,SP_P*%
X151605288Y-109897044D03*
D12*
X151605288Y-109897044D03*
%TD*%
D16*
%TO.P,,trace*%
%TO.N,OUT-*%
X128248579Y-108789876D03*
%TD*%
D17*
%TO.P,,trace*%
%TO.N,mcu_dbg-m33_swdio*%
X130571404Y-103815525D03*
%TD*%
D18*
%TO.P,,trace*%
%TO.N,OUT+*%
X128685746Y-109963265D03*
%TD*%
D19*
%TO.P,,trace*%
%TO.N,cap_p1*%
X151902668Y-100578088D03*
%TD*%
D20*
%TO.P,,trace*%
%TO.N,VBUS*%
X137821755Y-102284592D03*
D12*
X137821755Y-102284592D03*
%TD*%
D21*
%TO.P,,trace*%
%TO.N,VBUS*%
X128705415Y-103815525D03*
%TD*%
D22*
%TO.P,,trace*%
%TO.N,VBAT*%
X143021457Y-100325853D03*
%TD*%
D23*
%TO.P,,trace*%
%TO.N,mcu_conn-uart_rx*%
X128679159Y-102545525D03*
%TD*%
D24*
%TO.P,,trace*%
%TO.N,SP_P*%
X149901226Y-110827138D03*
%TD*%
D25*
%TO.P,,trace*%
%TO.N,CLAMP1*%
X149425346Y-102404384D03*
D12*
X149425346Y-102404384D03*
%TD*%
D26*
%TO.P,,trace*%
%TO.N,GND*%
X135801369Y-102425644D03*
%TD*%
D27*
%TO.P,,trace*%
%TO.N,mcu_mcu-dbg-m33_swdclk*%
X130603850Y-102545525D03*
%TD*%
D28*
%TO.P,,trace*%
%TO.N,GND*%
X144158639Y-99945072D03*
%TD*%
D29*
%TO.P,TP2,p*%
%TO.N,OUT-*%
X126659193Y-108789876D03*
%TD*%
%TO.P,TP5,p*%
%TO.N,mcu_mcu-etm_clk*%
X135793905Y-105989920D03*
%TD*%
%TO.P,TP4,p*%
%TO.N,SP_N*%
X152251110Y-107880430D03*
%TD*%
%TO.P,TP12,p*%
%TO.N,GND*%
X144158639Y-99506956D03*
%TD*%
%TO.P,TP13,p*%
%TO.N,cap_p1*%
X151811611Y-99505517D03*
%TD*%
D30*
%TO.P,J6,1*%
%TO.N,VBUS*%
X138401369Y-102638144D03*
%TO.P,J6,2*%
%TO.N,D-*%
X137751369Y-102638144D03*
%TO.P,J6,3*%
%TO.N,D+*%
X137101369Y-102638144D03*
%TO.P,J6,4*%
%TO.N,ID*%
X136451369Y-102638144D03*
%TO.P,J6,5*%
%TO.N,GND*%
X135801369Y-102638144D03*
D31*
%TO.P,J6,6*%
%TO.N,SHIELD*%
X136151369Y-99963144D03*
%TO.P,J6,7*%
X138051369Y-99963144D03*
D32*
%TO.P,J6,8*%
X132901369Y-99963144D03*
%TO.P,J6,9*%
X141301369Y-99963144D03*
%TD*%
D29*
%TO.P,TP11,p*%
%TO.N,VBAT*%
X143021457Y-99511848D03*
%TD*%
%TO.P,TP1,p*%
%TO.N,OUT+*%
X126674756Y-109963265D03*
%TD*%
%TO.P,TP9,p*%
%TO.N,mcu_mcu-etm_data3*%
X135839157Y-108098144D03*
%TD*%
%TO.P,TP3,p*%
%TO.N,SP_P*%
X152235589Y-109145315D03*
%TD*%
%TO.P,TP10,p*%
%TO.N,GND*%
X138517064Y-106012546D03*
%TD*%
%TO.P,TP14,p*%
%TO.N,AC2*%
X150510572Y-99489893D03*
%TD*%
%TO.P,TP8,p*%
%TO.N,mcu_mcu-etm_data2*%
X138652817Y-107543817D03*
%TD*%
D33*
%TO.P,J1,1*%
%TO.N,VBUS*%
X129031393Y-103815525D03*
%TO.P,J1,2*%
%TO.N,mcu_dbg-m33_swdio*%
X130301393Y-103815525D03*
%TO.P,J1,3*%
%TO.N,mcu_conn-uart_rx*%
X129031393Y-102545525D03*
%TO.P,J1,4*%
%TO.N,mcu_mcu-dbg-m33_swdclk*%
X130301393Y-102545525D03*
%TO.P,J1,5*%
%TO.N,GND*%
X129031393Y-101275525D03*
%TO.P,J1,6*%
%TO.N,mcu_conn-uart_tx*%
X130301393Y-101275525D03*
%TD*%
D29*
%TO.P,TP6,p*%
%TO.N,mcu_mcu-etm_data0*%
X137178110Y-106023859D03*
%TD*%
%TO.P,TP7,p*%
%TO.N,mcu_mcu-etm_data1*%
X137121546Y-107973703D03*
%TD*%
D34*
%TO.N,mcu_mcu-etm_data3*%
X139405165Y-110710086D03*
%TO.N,VDD1P8*%
X135016650Y-107661488D03*
X133926649Y-107220038D03*
D35*
X133325956Y-104235270D03*
D34*
X141205165Y-110710086D03*
X135015724Y-103681760D03*
D35*
%TO.N,mcu_dbg-m33_swdio*%
X131034915Y-103779895D03*
D34*
%TO.N,VDD1P8P*%
X143703396Y-112633556D03*
X151044033Y-108500601D03*
D35*
%TO.N,AC2*%
X151108026Y-101264622D03*
X151733181Y-101256460D03*
D34*
%TO.N,VDDSYS*%
X144792591Y-111787456D03*
X131912614Y-110352663D03*
X150315097Y-110438575D03*
X144186210Y-111818502D03*
X140755165Y-109810086D03*
X130381632Y-107879426D03*
D35*
%TO.N,QVAR2*%
X141062328Y-116503834D03*
X132672133Y-107033068D03*
%TO.N,VBUS*%
X128185938Y-103832108D03*
D34*
X137167141Y-101381040D03*
X148207021Y-103326510D03*
X140261103Y-107837973D03*
%TO.N,codec-i2c-net_sda*%
X140305165Y-113410086D03*
X148536088Y-111998078D03*
%TO.N,GND*%
X151519801Y-112391422D03*
X151545265Y-111748167D03*
D35*
X131338093Y-114388344D03*
D34*
X132922454Y-116687814D03*
D35*
X138422325Y-104037396D03*
D34*
X144931444Y-108805663D03*
D35*
X126402896Y-113804210D03*
D34*
X136407665Y-113617586D03*
X151519801Y-110450801D03*
X151523878Y-111102622D03*
X145435963Y-110880213D03*
X139405165Y-112060086D03*
X144930904Y-109443453D03*
X147354287Y-99464227D03*
X145429651Y-110187605D03*
D35*
X126402896Y-117057853D03*
D34*
X137155165Y-112960086D03*
X135053591Y-116689001D03*
D35*
X131338093Y-113709436D03*
D34*
X151515723Y-108500601D03*
X141655165Y-111610086D03*
X149341927Y-101008825D03*
X142201574Y-107004767D03*
X139405165Y-111610086D03*
X144133019Y-114248787D03*
X139254147Y-106768250D03*
X149341927Y-102208825D03*
X140261103Y-107018250D03*
X136857665Y-114967586D03*
X138517064Y-106012546D03*
X149744277Y-103579559D03*
D35*
X128077499Y-101282656D03*
D34*
X148500000Y-114050000D03*
X139405165Y-112510086D03*
D35*
X131338093Y-115067252D03*
D34*
X149341927Y-101808825D03*
X138013865Y-101359212D03*
X151515723Y-109809374D03*
X149975097Y-108188575D03*
X145393914Y-102593098D03*
D35*
X126402896Y-113188950D03*
D34*
X150181490Y-112983089D03*
X145393914Y-100592371D03*
D35*
X126402896Y-116432783D03*
D34*
X139855165Y-112510086D03*
D35*
X126402896Y-112520649D03*
D34*
X148146998Y-110879259D03*
X145104416Y-116337360D03*
X130877672Y-109097419D03*
D35*
X128179500Y-104775000D03*
D34*
X149000000Y-114050000D03*
X141268060Y-107018250D03*
X145277363Y-99941266D03*
X134984739Y-111731155D03*
X137443867Y-116359377D03*
X148146998Y-110241780D03*
D35*
X131338093Y-113051743D03*
D34*
X143068945Y-106059471D03*
X137448712Y-116990399D03*
D35*
X126390525Y-114451295D03*
D34*
X136407665Y-114967586D03*
X141655165Y-109810086D03*
D35*
X126402896Y-115737686D03*
X131342103Y-117017561D03*
D34*
X138055165Y-110260086D03*
X137757665Y-114967586D03*
X146560594Y-103800248D03*
X138955165Y-111610086D03*
X133318088Y-103317714D03*
X135487414Y-103681760D03*
X141613456Y-104852764D03*
X138505165Y-110260086D03*
X145624121Y-111787456D03*
X147420500Y-105250000D03*
X136407665Y-114067586D03*
D35*
X143961683Y-100683189D03*
D34*
X132383298Y-109878436D03*
X134085739Y-113031155D03*
X130048096Y-107545891D03*
D35*
X135801369Y-101738144D03*
D34*
X148179500Y-105250000D03*
X148000000Y-114050000D03*
X136705165Y-112960086D03*
X138505165Y-111610086D03*
X137757665Y-114517586D03*
X145510958Y-112617388D03*
X151515723Y-109154256D03*
X138179500Y-105250000D03*
D35*
X126402896Y-115065217D03*
D34*
X141191434Y-113867717D03*
X137098680Y-100229856D03*
X149975097Y-110188575D03*
X138505165Y-114760086D03*
X148198022Y-103789201D03*
X143593373Y-106059471D03*
X136705165Y-112060086D03*
X138955165Y-112060086D03*
X149271820Y-99641158D03*
X137420500Y-105250000D03*
X149341927Y-101408825D03*
D35*
X131380525Y-116488716D03*
D34*
X143278472Y-116992882D03*
X139855165Y-112060086D03*
D35*
%TO.N,cap_p1*%
X152293725Y-101950659D03*
D34*
%TO.N,mcu_mcu-etm_clk*%
X139855165Y-110710086D03*
%TO.N,VDD3P0*%
X139491383Y-107828414D03*
X149975097Y-111188575D03*
X149295097Y-110188575D03*
D35*
%TO.N,OUT-*%
X130137965Y-108999330D03*
D34*
%TO.N,V14RF*%
X141205002Y-110255575D03*
X138955165Y-114760086D03*
%TO.N,mcu_mcu-button2_gpio*%
X148078465Y-112461044D03*
X141205165Y-113410086D03*
D35*
%TO.N,mcu_conn-uart_tx*%
X131099595Y-101264852D03*
D34*
%TO.N,CLAMP1*%
X147741927Y-101808825D03*
X151108765Y-102999943D03*
%TO.N,mcu_mcu-etm_data2*%
X138955165Y-111160086D03*
%TO.N,SHIELD*%
X136620862Y-99544300D03*
D35*
%TO.N,VBAT*%
X142820354Y-101439858D03*
D34*
X141268060Y-107837973D03*
%TO.N,mcu_mcu-wpwr2_gpio*%
X147870297Y-113163719D03*
X140305165Y-113860086D03*
D35*
%TO.N,mcu_conn-uart_rx*%
X128133424Y-102542244D03*
D34*
%TO.N,mcu_mcu-wpwr0_gpio*%
X147131101Y-112451640D03*
X140755165Y-112960086D03*
%TO.N,mcu_mcu-etm_data1*%
X138955165Y-110710086D03*
%TO.N,FOD*%
X147341927Y-101408825D03*
X145925098Y-99469575D03*
D35*
%TO.N,mcu_mcu-dbg-m33_swdclk*%
X131099806Y-102486398D03*
D34*
%TO.N,RECT*%
X148541927Y-101408825D03*
X148541927Y-101808825D03*
X146572832Y-99941266D03*
X148452854Y-99641158D03*
X148894443Y-103502387D03*
%TO.N,D+*%
X137179787Y-103023399D03*
%TO.N,mcu_mcu-wpwr1_gpio*%
X146794797Y-113129689D03*
X141655165Y-112960086D03*
%TO.N,CLAMP2*%
X151108026Y-100366194D03*
X147741927Y-101408825D03*
%TO.N,SP_P*%
X149975097Y-110688575D03*
%TO.N,mcu_mcu-wpwr3_gpio*%
X141205165Y-112510086D03*
X146280878Y-112615029D03*
%TO.N,V18F*%
X144754416Y-116537360D03*
X144615208Y-114253566D03*
X143750162Y-116992882D03*
X143661328Y-114248787D03*
D35*
%TO.N,OUT+*%
X130996736Y-109842314D03*
D34*
%TO.N,mcu_mcu-etm_data0*%
X138505165Y-111160086D03*
%TO.N,D-*%
X137656635Y-103037404D03*
D35*
%TO.N,QVAR1*%
X134437302Y-103872356D03*
D34*
%TO.N,codec-i2c-net_scl*%
X148719173Y-112571735D03*
X140755165Y-113860086D03*
%TO.N,VLED*%
X141631769Y-104364936D03*
X142791677Y-110203298D03*
%TO.N,SP_N*%
X150315097Y-110938575D03*
%TD*%
D36*
%TO.N,mcu_mcu-etm_data3*%
X137589427Y-107543759D02*
X137697813Y-107705970D01*
X137389279Y-107397436D02*
X137551490Y-107505823D01*
X136903379Y-107376905D02*
X137094721Y-107338845D01*
X136691602Y-107505823D02*
X136853813Y-107397436D01*
X137148371Y-107338845D02*
X137339713Y-107376905D01*
X137703035Y-107714433D02*
X139405165Y-110710086D01*
X135839157Y-108098144D02*
X136689530Y-107507235D01*
X137148371Y-107338845D02*
G75*
G03*
X137094721Y-107338845I-26825J-134860D01*
G01*
X137589414Y-107543767D02*
G75*
G03*
X137551490Y-107505824I-114314J-76333D01*
G01*
X137703032Y-107714435D02*
G75*
G03*
X137697813Y-107705970I-119532J-67865D01*
G01*
X136691602Y-107505823D02*
G75*
G03*
X136689530Y-107507235I74998J-112277D01*
G01*
X136903380Y-107376912D02*
G75*
G03*
X136853813Y-107397436I26820J-134888D01*
G01*
X137389284Y-107397429D02*
G75*
G03*
X137339713Y-107376906I-76384J-114371D01*
G01*
D37*
%TO.N,AC2*%
X151108026Y-101264622D02*
X151515651Y-101268113D01*
D36*
%TO.N,mcu_mcu-etm_clk*%
X137660761Y-107368781D02*
X135793905Y-105989920D01*
X139855165Y-110710086D02*
X137845656Y-107612294D01*
X137843320Y-107608746D02*
X137734934Y-107446534D01*
X137734944Y-107446527D02*
G75*
G03*
X137660761Y-107368781I-259844J-173673D01*
G01*
X137845655Y-107612295D02*
G75*
G03*
X137843320Y-107608746I-262455J-170205D01*
G01*
%TO.N,mcu_mcu-etm_data2*%
X140084977Y-110834312D02*
X140057880Y-110874865D01*
X140115023Y-110736911D02*
X140105508Y-110784746D01*
X138652817Y-107543817D02*
X140095026Y-110603627D01*
X140105508Y-110635425D02*
X140115023Y-110683261D01*
X139930594Y-110960274D02*
X138955165Y-111160086D01*
X140019944Y-110912801D02*
X139979391Y-110939898D01*
X140019956Y-110912819D02*
G75*
G03*
X140057879Y-110874865I-76456J114319D01*
G01*
X139930595Y-110960277D02*
G75*
G03*
X139979391Y-110939897I-27595J134677D01*
G01*
X140115028Y-110736912D02*
G75*
G03*
X140115023Y-110683261I-134828J26812D01*
G01*
X140084977Y-110834312D02*
G75*
G03*
X140105508Y-110784746I-114377J76412D01*
G01*
X140105514Y-110635424D02*
G75*
G03*
X140095025Y-110603627I-134914J-26876D01*
G01*
D38*
%TO.N,SHIELD*%
X136151369Y-99963144D02*
X135301665Y-100598948D01*
X135151369Y-100648144D02*
X134301369Y-100648144D01*
X134241841Y-100640307D02*
X134229341Y-100636957D01*
X140018644Y-100619544D02*
X141301369Y-99963144D01*
X137099986Y-99954862D02*
X138051369Y-99963144D01*
X138979341Y-100636957D02*
X138991841Y-100640307D01*
X139051369Y-100648144D02*
X139901369Y-100648144D01*
X134184095Y-100619544D02*
X132901369Y-99963144D01*
X135223398Y-100636957D02*
X135210898Y-100640307D01*
X136151369Y-99963144D02*
X137097367Y-99954862D01*
X139960898Y-100640307D02*
X139973398Y-100636957D01*
X138051369Y-99963144D02*
X138901074Y-100598948D01*
X134241843Y-100640301D02*
G75*
G03*
X134301369Y-100648144I59557J222201D01*
G01*
X138901081Y-100598938D02*
G75*
G03*
X138979341Y-100636957I137819J184138D01*
G01*
X134184098Y-100619538D02*
G75*
G03*
X134229341Y-100636957I104802J204738D01*
G01*
X138991843Y-100640301D02*
G75*
G03*
X139051369Y-100648144I59557J222201D01*
G01*
X139901369Y-100648134D02*
G75*
G03*
X139960898Y-100640306I31J230034D01*
G01*
X139973397Y-100636952D02*
G75*
G03*
X140018644Y-100619544I-59497J222152D01*
G01*
X137099986Y-99954862D02*
G75*
G03*
X137097367Y-99954862I-1309J-142896D01*
G01*
X135151369Y-100648134D02*
G75*
G03*
X135210898Y-100640306I31J230034D01*
G01*
X135223396Y-100636948D02*
G75*
G03*
X135301665Y-100598948I-59496J222148D01*
G01*
D36*
%TO.N,mcu_mcu-etm_data1*%
X138707880Y-110095307D02*
X138734977Y-110135860D01*
X138749319Y-110163769D02*
X138955165Y-110710086D01*
X137121546Y-107973703D02*
X138703668Y-110089351D01*
X138707881Y-110095306D02*
G75*
G03*
X138703667Y-110089352I-113281J-75694D01*
G01*
X138749314Y-110163771D02*
G75*
G03*
X138734977Y-110135860I-128614J-48429D01*
G01*
D37*
%TO.N,CLAMP2*%
X149302908Y-100687668D02*
X149255073Y-100697183D01*
X151108026Y-100366194D02*
X149306864Y-100686923D01*
X149208318Y-100712667D02*
X147741927Y-101408825D01*
X149255072Y-100697179D02*
G75*
G03*
X149208318Y-100712667I39028J-196121D01*
G01*
X149306864Y-100686923D02*
G75*
G03*
X149302908Y-100687668I37436J-209477D01*
G01*
D39*
%TO.N,SP_P*%
X149899949Y-111441370D02*
X149947784Y-111450885D01*
X149712787Y-111215888D02*
X149722302Y-111263724D01*
X150002410Y-111450885D02*
X150050245Y-111441370D01*
X149743206Y-111314191D02*
X149770303Y-111354744D01*
X149808929Y-111393370D02*
X149849482Y-111420466D01*
X150100712Y-111420466D02*
X150141265Y-111393370D01*
X150146420Y-111389755D02*
X150486420Y-111139755D01*
X149722302Y-111113427D02*
X149712787Y-111161263D01*
X149849473Y-111420479D02*
G75*
G03*
X149899949Y-111441369I77727J116379D01*
G01*
X149722297Y-111263725D02*
G75*
G03*
X149743206Y-111314191I137303J27325D01*
G01*
X149740597Y-111066993D02*
G75*
G03*
X149722303Y-111113427I119003J-73707D01*
G01*
X149712797Y-111161265D02*
G75*
G03*
X149712787Y-111215888I137303J-27335D01*
G01*
X150050248Y-111441387D02*
G75*
G03*
X150100712Y-111420465I-27348J137287D01*
G01*
X149947784Y-111450884D02*
G75*
G03*
X150002410Y-111450884I27313J137316D01*
G01*
X150486422Y-111139758D02*
G75*
G03*
X150508856Y-111119143I-83022J112858D01*
G01*
X150141265Y-111393370D02*
G75*
G03*
X150146420Y-111389755I-78465J117370D01*
G01*
X149770310Y-111354740D02*
G75*
G03*
X149808929Y-111393370I116390J77740D01*
G01*
D36*
%TO.N,mcu_mcu-etm_data0*%
X136012072Y-105393122D02*
X135820730Y-105355062D01*
X135326025Y-105559976D02*
X135217639Y-105722188D01*
X135397316Y-108557109D02*
X138505165Y-111160086D01*
X135204299Y-108124969D02*
X135242359Y-108316310D01*
X135526173Y-105413653D02*
X135363961Y-105522040D01*
X135262890Y-108365876D02*
X135371276Y-108528088D01*
X135767081Y-105355062D02*
X135575739Y-105393122D01*
X137178110Y-106023859D02*
X136051242Y-105407353D01*
X135156779Y-106000051D02*
X135278777Y-107651358D01*
X135276769Y-107686968D02*
X135204038Y-108072664D01*
X135197108Y-105771754D02*
X135159048Y-105963095D01*
X135217654Y-105722198D02*
G75*
G03*
X135197108Y-105771754I114246J-76402D01*
G01*
X135363959Y-105522037D02*
G75*
G03*
X135326025Y-105559976I76441J-114363D01*
G01*
X135159042Y-105963094D02*
G75*
G03*
X135156779Y-106000051I134858J-26806D01*
G01*
X135204023Y-108072661D02*
G75*
G03*
X135204300Y-108124969I135077J-25439D01*
G01*
X135820730Y-105355063D02*
G75*
G03*
X135767081Y-105355063I-26825J-134854D01*
G01*
X135575737Y-105393113D02*
G75*
G03*
X135526173Y-105413654I26863J-134887D01*
G01*
X136051236Y-105407364D02*
G75*
G03*
X136012072Y-105393123I-66036J-120636D01*
G01*
X135276773Y-107686969D02*
G75*
G03*
X135278777Y-107651358I-135173J25469D01*
G01*
X135371277Y-108528088D02*
G75*
G03*
X135397317Y-108557108I114323J76388D01*
G01*
X135242362Y-108316309D02*
G75*
G03*
X135262890Y-108365876I134838J26809D01*
G01*
%TD*%
%TA.AperFunction,Conductor*%
%TO.N,QVAR1*%
G36*
X131916768Y-99004101D02*
G01*
X131920869Y-99014000D01*
X131920869Y-100930918D01*
X131931341Y-100983571D01*
X131951289Y-101013424D01*
X131971235Y-101043276D01*
X131971237Y-101043278D01*
X132030937Y-101083169D01*
X132030939Y-101083169D01*
X132030941Y-101083171D01*
X132083592Y-101093644D01*
X133719145Y-101093643D01*
X133771797Y-101083171D01*
X133831502Y-101043277D01*
X133871396Y-100983572D01*
X133881869Y-100930921D01*
X133881868Y-100746703D01*
X133885968Y-100736805D01*
X133895868Y-100732704D01*
X133902242Y-100734240D01*
X134042133Y-100805825D01*
X134077928Y-100824142D01*
X134077926Y-100824144D01*
X134077936Y-100824146D01*
X134079054Y-100824719D01*
X134100662Y-100835776D01*
X134102657Y-100836314D01*
X134103675Y-100836589D01*
X134105515Y-100837226D01*
X134110483Y-100839342D01*
X134113982Y-100840833D01*
X134117306Y-100842833D01*
X134122347Y-100846916D01*
X134122348Y-100846916D01*
X134122349Y-100846917D01*
X134153991Y-100855397D01*
X134169653Y-100859595D01*
X134183924Y-100863421D01*
X134208667Y-100870055D01*
X134208910Y-100870120D01*
X134209650Y-100870055D01*
X134213302Y-100870213D01*
X134241181Y-100875133D01*
X134242964Y-100875288D01*
X134247435Y-100876444D01*
X134252375Y-100878644D01*
X134252376Y-100878644D01*
X134301338Y-100878644D01*
X134341981Y-100878650D01*
X134341984Y-100878648D01*
X134343205Y-100878649D01*
X134343272Y-100878644D01*
X135175597Y-100878644D01*
X135175598Y-100878644D01*
X135177712Y-100878194D01*
X135179399Y-100877942D01*
X135211498Y-100875139D01*
X135213272Y-100874825D01*
X135217890Y-100874785D01*
X135223242Y-100875633D01*
X135253246Y-100867591D01*
X135263868Y-100868989D01*
X135270392Y-100877489D01*
X135270869Y-100881114D01*
X135270869Y-100930919D01*
X135281341Y-100983571D01*
X135301289Y-101013424D01*
X135321235Y-101043276D01*
X135321237Y-101043278D01*
X135380937Y-101083169D01*
X135380939Y-101083169D01*
X135380941Y-101083171D01*
X135433592Y-101093644D01*
X136869145Y-101093643D01*
X136921797Y-101083171D01*
X136981502Y-101043277D01*
X137021396Y-100983572D01*
X137031869Y-100930921D01*
X137031868Y-100549355D01*
X137035968Y-100539457D01*
X137045868Y-100535356D01*
X137152549Y-100535356D01*
X137153758Y-100535143D01*
X137153839Y-100535605D01*
X137162779Y-100535991D01*
X137170022Y-100543887D01*
X137170869Y-100548682D01*
X137170869Y-100930918D01*
X137181341Y-100983571D01*
X137194578Y-101003382D01*
X137221236Y-101043277D01*
X137231553Y-101050171D01*
X137237506Y-101059080D01*
X137235416Y-101069589D01*
X137226506Y-101075542D01*
X137221350Y-101075599D01*
X137221015Y-101075540D01*
X137221009Y-101075540D01*
X137113273Y-101075540D01*
X137113269Y-101075540D01*
X137092628Y-101083052D01*
X137090576Y-101083626D01*
X137084757Y-101084785D01*
X137084752Y-101084785D01*
X137084753Y-101084786D01*
X137083397Y-101085055D01*
X137056677Y-101096123D01*
X137056109Y-101096345D01*
X137012034Y-101112388D01*
X136992112Y-101129104D01*
X136990892Y-101130019D01*
X136976502Y-101139634D01*
X136976500Y-101139636D01*
X136960987Y-101155150D01*
X136960087Y-101155975D01*
X136929504Y-101181638D01*
X136929502Y-101181641D01*
X136916474Y-101204205D01*
X136915991Y-101204982D01*
X136898636Y-101230958D01*
X136898633Y-101230963D01*
X136892908Y-101244784D01*
X136892098Y-101246427D01*
X136875636Y-101274939D01*
X136875634Y-101274944D01*
X136872356Y-101293535D01*
X136871508Y-101296448D01*
X136871158Y-101297294D01*
X136871155Y-101297304D01*
X136861641Y-101345137D01*
X136861641Y-101353087D01*
X136861428Y-101355518D01*
X136856928Y-101381038D01*
X136856928Y-101381041D01*
X136861428Y-101406560D01*
X136861641Y-101408991D01*
X136861641Y-101416944D01*
X136863317Y-101425369D01*
X136871155Y-101464776D01*
X136871156Y-101464781D01*
X136871505Y-101465622D01*
X136872357Y-101468547D01*
X136875634Y-101487135D01*
X136875636Y-101487140D01*
X136892100Y-101515656D01*
X136892910Y-101517298D01*
X136898634Y-101531117D01*
X136915987Y-101557088D01*
X136916470Y-101557866D01*
X136929501Y-101580438D01*
X136929503Y-101580440D01*
X136929504Y-101580441D01*
X136955963Y-101602642D01*
X136960083Y-101606099D01*
X136960984Y-101606925D01*
X136976508Y-101622450D01*
X136990892Y-101632060D01*
X136992114Y-101632977D01*
X137012030Y-101649690D01*
X137012032Y-101649690D01*
X137012034Y-101649692D01*
X137025719Y-101654673D01*
X137028085Y-101655534D01*
X137029851Y-101656318D01*
X137050193Y-101667091D01*
X137050198Y-101667093D01*
X137050200Y-101667094D01*
X137268799Y-101755669D01*
X137276435Y-101763187D01*
X137276517Y-101773901D01*
X137268999Y-101781537D01*
X137263542Y-101782644D01*
X136883594Y-101782644D01*
X136830941Y-101793116D01*
X136784147Y-101824383D01*
X136773638Y-101826473D01*
X136768591Y-101824383D01*
X136721797Y-101793116D01*
X136677880Y-101784381D01*
X136669146Y-101782644D01*
X136669145Y-101782644D01*
X136233594Y-101782644D01*
X136202136Y-101788901D01*
X136191627Y-101786810D01*
X136185674Y-101777901D01*
X136185405Y-101775170D01*
X136185405Y-101746867D01*
X136185577Y-101744677D01*
X136186612Y-101738144D01*
X136183482Y-101718383D01*
X136183381Y-101717598D01*
X136181869Y-101702241D01*
X136177285Y-101679201D01*
X136177201Y-101678729D01*
X136167757Y-101619097D01*
X136155134Y-101594323D01*
X136147426Y-101579196D01*
X136146966Y-101578197D01*
X136139165Y-101559362D01*
X136137433Y-101556770D01*
X136131848Y-101548412D01*
X136131025Y-101547009D01*
X136113037Y-101511704D01*
X136113036Y-101511702D01*
X136027810Y-101426476D01*
X135992514Y-101408492D01*
X135991092Y-101407658D01*
X135981094Y-101400977D01*
X135980457Y-101400473D01*
X135961296Y-101392536D01*
X135960298Y-101392076D01*
X135920416Y-101371756D01*
X135860811Y-101362315D01*
X135860270Y-101362218D01*
X135837272Y-101357644D01*
X135832419Y-101357644D01*
X135830229Y-101357472D01*
X135801369Y-101352901D01*
X135772509Y-101357472D01*
X135770319Y-101357644D01*
X135765466Y-101357644D01*
X135759006Y-101358928D01*
X135742466Y-101362218D01*
X135741925Y-101362315D01*
X135682321Y-101371756D01*
X135642426Y-101392083D01*
X135641428Y-101392543D01*
X135622584Y-101400349D01*
X135611643Y-101407659D01*
X135610222Y-101408492D01*
X135574927Y-101426476D01*
X135489701Y-101511702D01*
X135471717Y-101546997D01*
X135470884Y-101548418D01*
X135464203Y-101558418D01*
X135463698Y-101559055D01*
X135455761Y-101578215D01*
X135455301Y-101579212D01*
X135434982Y-101619093D01*
X135434981Y-101619096D01*
X135425540Y-101678700D01*
X135425443Y-101679241D01*
X135420870Y-101702235D01*
X135420866Y-101702261D01*
X135419356Y-101717584D01*
X135419252Y-101718400D01*
X135416126Y-101738143D01*
X135417161Y-101744677D01*
X135417333Y-101746867D01*
X135417333Y-103313144D01*
X135427791Y-103365721D01*
X135425701Y-103376230D01*
X135418849Y-103381608D01*
X135332307Y-103413108D01*
X135260568Y-103473304D01*
X135250349Y-103476526D01*
X135242570Y-103473304D01*
X135233532Y-103465720D01*
X135170831Y-103413108D01*
X135084286Y-103381608D01*
X135069593Y-103376260D01*
X135069592Y-103376260D01*
X134961856Y-103376260D01*
X134961854Y-103376260D01*
X134860618Y-103413108D01*
X134778084Y-103482361D01*
X134724218Y-103575661D01*
X134705511Y-103681757D01*
X134705511Y-103681762D01*
X134724218Y-103787858D01*
X134778084Y-103881158D01*
X134778086Y-103881160D01*
X134778087Y-103881161D01*
X134860617Y-103950412D01*
X134961856Y-103987260D01*
X134961857Y-103987260D01*
X135069591Y-103987260D01*
X135069592Y-103987260D01*
X135170831Y-103950412D01*
X135242570Y-103890214D01*
X135252789Y-103886993D01*
X135260567Y-103890214D01*
X135332307Y-103950412D01*
X135433546Y-103987260D01*
X135433547Y-103987260D01*
X135541281Y-103987260D01*
X135541282Y-103987260D01*
X135642521Y-103950412D01*
X135725051Y-103881161D01*
X135736714Y-103860961D01*
X135749344Y-103839084D01*
X135778919Y-103787859D01*
X135797627Y-103681760D01*
X135797627Y-103681757D01*
X135778919Y-103575661D01*
X135766097Y-103553453D01*
X135745731Y-103518179D01*
X135744333Y-103507557D01*
X135750856Y-103499056D01*
X135757856Y-103497180D01*
X136001369Y-103497180D01*
X136071797Y-103483171D01*
X136118591Y-103451902D01*
X136129100Y-103449812D01*
X136134147Y-103451903D01*
X136180937Y-103483169D01*
X136180939Y-103483169D01*
X136180941Y-103483171D01*
X136233592Y-103493644D01*
X136669145Y-103493643D01*
X136721797Y-103483171D01*
X136768591Y-103451902D01*
X136779100Y-103449812D01*
X136784147Y-103451903D01*
X136830937Y-103483169D01*
X136830939Y-103483169D01*
X136830941Y-103483171D01*
X136883592Y-103493644D01*
X137319145Y-103493643D01*
X137371797Y-103483171D01*
X137418591Y-103451902D01*
X137429100Y-103449812D01*
X137434147Y-103451903D01*
X137480937Y-103483169D01*
X137480939Y-103483169D01*
X137480941Y-103483171D01*
X137533592Y-103493644D01*
X137969145Y-103493643D01*
X138021797Y-103483171D01*
X138068591Y-103451902D01*
X138079100Y-103449812D01*
X138084147Y-103451903D01*
X138130937Y-103483169D01*
X138130939Y-103483169D01*
X138130941Y-103483171D01*
X138201369Y-103497180D01*
X138601369Y-103497180D01*
X138671797Y-103483171D01*
X138731502Y-103443277D01*
X138771396Y-103383572D01*
X138785405Y-103313144D01*
X138785405Y-101963144D01*
X138776108Y-101905389D01*
X138776108Y-101905388D01*
X138773842Y-101901389D01*
X138772291Y-101897217D01*
X138771396Y-101892716D01*
X138755406Y-101868786D01*
X138754890Y-101867949D01*
X138740705Y-101842916D01*
X138737082Y-101840089D01*
X138734054Y-101836829D01*
X138731502Y-101833011D01*
X138707591Y-101817033D01*
X138706758Y-101816431D01*
X138684089Y-101798746D01*
X138684090Y-101798746D01*
X138253760Y-101582218D01*
X138246760Y-101574106D01*
X138247547Y-101563419D01*
X138251054Y-101558988D01*
X138251502Y-101558613D01*
X138305370Y-101465311D01*
X138316803Y-101400473D01*
X138324078Y-101359214D01*
X138324078Y-101359209D01*
X138305370Y-101253113D01*
X138251504Y-101159813D01*
X138246471Y-101155590D01*
X138202111Y-101118367D01*
X138197164Y-101108863D01*
X138200386Y-101098644D01*
X138209891Y-101093696D01*
X138211111Y-101093643D01*
X138769144Y-101093643D01*
X138769145Y-101093643D01*
X138821797Y-101083171D01*
X138881502Y-101043277D01*
X138921396Y-100983572D01*
X138931869Y-100930921D01*
X138931868Y-100881116D01*
X138935968Y-100871218D01*
X138945868Y-100867117D01*
X138949489Y-100867594D01*
X138958910Y-100870120D01*
X138959650Y-100870055D01*
X138963302Y-100870213D01*
X138991181Y-100875133D01*
X138992964Y-100875288D01*
X138997435Y-100876444D01*
X139002375Y-100878644D01*
X139002376Y-100878644D01*
X139051338Y-100878644D01*
X139091981Y-100878650D01*
X139091984Y-100878648D01*
X139093205Y-100878649D01*
X139093272Y-100878644D01*
X139336000Y-100878644D01*
X139345899Y-100882745D01*
X139350000Y-100892644D01*
X139350000Y-106458036D01*
X139345899Y-106467935D01*
X139336000Y-106472036D01*
X139331212Y-106471192D01*
X139308016Y-106462750D01*
X139308015Y-106462750D01*
X139200279Y-106462750D01*
X139200277Y-106462750D01*
X139099041Y-106499598D01*
X139016507Y-106568851D01*
X138962641Y-106662151D01*
X138943934Y-106768247D01*
X138943934Y-106768252D01*
X138962641Y-106874348D01*
X138991113Y-106923664D01*
X138992512Y-106934288D01*
X138985989Y-106942788D01*
X138975365Y-106944187D01*
X138972483Y-106943060D01*
X138895896Y-106902863D01*
X138735447Y-106863317D01*
X138735445Y-106863317D01*
X138570189Y-106863317D01*
X138570186Y-106863317D01*
X138409737Y-106902863D01*
X138263415Y-106979659D01*
X138263406Y-106979665D01*
X138139715Y-107089245D01*
X138139714Y-107089247D01*
X138045838Y-107225250D01*
X137987238Y-107379764D01*
X137986450Y-107386253D01*
X137981185Y-107395586D01*
X137970864Y-107398463D01*
X137961531Y-107393198D01*
X137960912Y-107392343D01*
X137941134Y-107362744D01*
X137941116Y-107362708D01*
X137940274Y-107361448D01*
X137940274Y-107361447D01*
X137919693Y-107330654D01*
X137919686Y-107330617D01*
X137905391Y-107309250D01*
X137905386Y-107309242D01*
X137903101Y-107305821D01*
X137903071Y-107305781D01*
X137899185Y-107299972D01*
X137899180Y-107299966D01*
X137859567Y-107253350D01*
X137832117Y-107227714D01*
X137829498Y-107224390D01*
X137827551Y-107220956D01*
X137162324Y-106729619D01*
X137156799Y-106720441D01*
X137159382Y-106710041D01*
X137168561Y-106704515D01*
X137170643Y-106704359D01*
X137260738Y-106704359D01*
X137340964Y-106684585D01*
X137421189Y-106664812D01*
X137567511Y-106588016D01*
X137567509Y-106588016D01*
X137567517Y-106588013D01*
X137691213Y-106478428D01*
X137785088Y-106342426D01*
X137836642Y-106206489D01*
X137843986Y-106198687D01*
X137854696Y-106198364D01*
X137862499Y-106205708D01*
X137862822Y-106206489D01*
X137910085Y-106331112D01*
X138003961Y-106467115D01*
X138003962Y-106467117D01*
X138127653Y-106576697D01*
X138127655Y-106576698D01*
X138127657Y-106576700D01*
X138127659Y-106576701D01*
X138127662Y-106576703D01*
X138273984Y-106653499D01*
X138393205Y-106682883D01*
X138434436Y-106693046D01*
X138599692Y-106693046D01*
X138691494Y-106670419D01*
X138760143Y-106653499D01*
X138884916Y-106588013D01*
X138906471Y-106576700D01*
X139017397Y-106478428D01*
X139030165Y-106467117D01*
X139030165Y-106467116D01*
X139030167Y-106467115D01*
X139124042Y-106331113D01*
X139182643Y-106176596D01*
X139202562Y-106012546D01*
X139182643Y-105848496D01*
X139124042Y-105693979D01*
X139030167Y-105557977D01*
X139030166Y-105557976D01*
X139030165Y-105557974D01*
X138906474Y-105448394D01*
X138906465Y-105448388D01*
X138760143Y-105371592D01*
X138599694Y-105332046D01*
X138599692Y-105332046D01*
X138491930Y-105332046D01*
X138482031Y-105327945D01*
X138477930Y-105318046D01*
X138478143Y-105315615D01*
X138489713Y-105250001D01*
X138489713Y-105249997D01*
X138471005Y-105143901D01*
X138417139Y-105050601D01*
X138417137Y-105050599D01*
X138334607Y-104981348D01*
X138283987Y-104962924D01*
X138233369Y-104944500D01*
X138233368Y-104944500D01*
X138125632Y-104944500D01*
X138125630Y-104944500D01*
X138024394Y-104981348D01*
X137941860Y-105050601D01*
X137887994Y-105143901D01*
X137869287Y-105249997D01*
X137869287Y-105250002D01*
X137887994Y-105356098D01*
X137941860Y-105449398D01*
X137941862Y-105449400D01*
X137941863Y-105449401D01*
X137972271Y-105474916D01*
X138024257Y-105518538D01*
X138029205Y-105528043D01*
X138025983Y-105538262D01*
X138024542Y-105539742D01*
X138003960Y-105557977D01*
X137910085Y-105693979D01*
X137858531Y-105829913D01*
X137851187Y-105837715D01*
X137840476Y-105838038D01*
X137832674Y-105830694D01*
X137832351Y-105829913D01*
X137785088Y-105705292D01*
X137762926Y-105673185D01*
X137691213Y-105569290D01*
X137691212Y-105569289D01*
X137691211Y-105569287D01*
X137617776Y-105504230D01*
X137613086Y-105494596D01*
X137616581Y-105484467D01*
X137618048Y-105483037D01*
X137658137Y-105449401D01*
X137658719Y-105448394D01*
X137689726Y-105394687D01*
X137712005Y-105356099D01*
X137730713Y-105250000D01*
X137730713Y-105249997D01*
X137712005Y-105143901D01*
X137658139Y-105050601D01*
X137658137Y-105050599D01*
X137575607Y-104981348D01*
X137524987Y-104962924D01*
X137474369Y-104944500D01*
X137474368Y-104944500D01*
X137366632Y-104944500D01*
X137366630Y-104944500D01*
X137265394Y-104981348D01*
X137182860Y-105050601D01*
X137128994Y-105143901D01*
X137110287Y-105249997D01*
X137110287Y-105250000D01*
X137121929Y-105316026D01*
X137123852Y-105326928D01*
X137121533Y-105337389D01*
X137112496Y-105343146D01*
X137110065Y-105343359D01*
X137095479Y-105343359D01*
X136935030Y-105382905D01*
X136788708Y-105459701D01*
X136788699Y-105459707D01*
X136724460Y-105516617D01*
X136714330Y-105520112D01*
X136708457Y-105518420D01*
X136135770Y-105205105D01*
X136135771Y-105205105D01*
X136132023Y-105203982D01*
X136130598Y-105203470D01*
X136109254Y-105194460D01*
X136106626Y-105192999D01*
X136100048Y-105188351D01*
X136100047Y-105188350D01*
X136054667Y-105179324D01*
X136054662Y-105179323D01*
X136010880Y-105170599D01*
X136010730Y-105170584D01*
X135876583Y-105143901D01*
X135863261Y-105141251D01*
X135840424Y-105136708D01*
X135840409Y-105136706D01*
X135840408Y-105136706D01*
X135840406Y-105136705D01*
X135840399Y-105136705D01*
X135793906Y-105133658D01*
X135793905Y-105133658D01*
X135782353Y-105134415D01*
X135778348Y-105134100D01*
X135769999Y-105132210D01*
X135724552Y-105141251D01*
X135682700Y-105149574D01*
X135682694Y-105149576D01*
X135577067Y-105170586D01*
X135576961Y-105170597D01*
X135539250Y-105178107D01*
X135539227Y-105178102D01*
X135510325Y-105183857D01*
X135510314Y-105183859D01*
X135510309Y-105183861D01*
X135497094Y-105188350D01*
X135466194Y-105198846D01*
X135455828Y-105203959D01*
X135452007Y-105205201D01*
X135443586Y-105206648D01*
X135424745Y-105219236D01*
X135424690Y-105219271D01*
X135409717Y-105229278D01*
X135409716Y-105229279D01*
X135279943Y-105315991D01*
X135279878Y-105316026D01*
X135248077Y-105337283D01*
X135248065Y-105337285D01*
X135223457Y-105353733D01*
X135223453Y-105353736D01*
X135188424Y-105384462D01*
X135180793Y-105393162D01*
X135177741Y-105395769D01*
X135170507Y-105400335D01*
X135157195Y-105420254D01*
X135157196Y-105420255D01*
X135157194Y-105420258D01*
X135157185Y-105420270D01*
X135153860Y-105425244D01*
X135153861Y-105425245D01*
X135144765Y-105438860D01*
X135144764Y-105438861D01*
X135121066Y-105474324D01*
X135121055Y-105474344D01*
X135023548Y-105620275D01*
X135023485Y-105620385D01*
X135002855Y-105662183D01*
X135002854Y-105662185D01*
X134999116Y-105673185D01*
X134997295Y-105676759D01*
X134992337Y-105683776D01*
X134983308Y-105729168D01*
X134983307Y-105729172D01*
X134974588Y-105772945D01*
X134974576Y-105773061D01*
X134953917Y-105876920D01*
X134953897Y-105876991D01*
X134946337Y-105915025D01*
X134946327Y-105915041D01*
X134942139Y-105936129D01*
X134942135Y-105936156D01*
X134940767Y-105943038D01*
X134940823Y-105947395D01*
X134940745Y-105949058D01*
X134939783Y-105958082D01*
X134939037Y-105961333D01*
X134935957Y-105969901D01*
X134935957Y-105969902D01*
X134948772Y-106143359D01*
X135037250Y-107340957D01*
X135033890Y-107351131D01*
X135024319Y-107355950D01*
X135023288Y-107355988D01*
X134962780Y-107355988D01*
X134861544Y-107392836D01*
X134779010Y-107462089D01*
X134725144Y-107555389D01*
X134706437Y-107661485D01*
X134706437Y-107661490D01*
X134725144Y-107767586D01*
X134779010Y-107860886D01*
X134779012Y-107860888D01*
X134779013Y-107860889D01*
X134861543Y-107930140D01*
X134962782Y-107966988D01*
X134985237Y-107966988D01*
X134995136Y-107971089D01*
X134999237Y-107980988D01*
X134998994Y-107983584D01*
X134998091Y-107988369D01*
X134998059Y-107988481D01*
X134990888Y-108026557D01*
X134990869Y-108026586D01*
X134985574Y-108054654D01*
X134985553Y-108054950D01*
X134985550Y-108054974D01*
X134985544Y-108055208D01*
X134982921Y-108099980D01*
X134982921Y-108099984D01*
X134983603Y-108109849D01*
X134983291Y-108113903D01*
X134981447Y-108122050D01*
X134981447Y-108122052D01*
X134985940Y-108144641D01*
X134986023Y-108145136D01*
X134990414Y-108167126D01*
X134990415Y-108167137D01*
X134990416Y-108167137D01*
X135033088Y-108381664D01*
X135033093Y-108381684D01*
X135048067Y-108425802D01*
X135048073Y-108425817D01*
X135053193Y-108436199D01*
X135054435Y-108440020D01*
X135055885Y-108448461D01*
X135079547Y-108483873D01*
X135081627Y-108486986D01*
X135106727Y-108524555D01*
X135106732Y-108524559D01*
X135193357Y-108654203D01*
X135199387Y-108663231D01*
X135199393Y-108663239D01*
X135199537Y-108663454D01*
X135199536Y-108663454D01*
X135199550Y-108663474D01*
X135202743Y-108668252D01*
X135205738Y-108671169D01*
X135206815Y-108672344D01*
X135216243Y-108683912D01*
X135217961Y-108686595D01*
X135221817Y-108694482D01*
X135237059Y-108707248D01*
X135244141Y-108713180D01*
X135244225Y-108713253D01*
X135251825Y-108719616D01*
X135251827Y-108719617D01*
X136193956Y-109508696D01*
X138196117Y-111185604D01*
X138200915Y-111193906D01*
X138213659Y-111266184D01*
X138267526Y-111359484D01*
X138267528Y-111359487D01*
X138285254Y-111374362D01*
X138290202Y-111383866D01*
X138286979Y-111394085D01*
X138285254Y-111395810D01*
X138267528Y-111410684D01*
X138267526Y-111410687D01*
X138213659Y-111503987D01*
X138194952Y-111610083D01*
X138194952Y-111610088D01*
X138213659Y-111716184D01*
X138267525Y-111809484D01*
X138267527Y-111809486D01*
X138267528Y-111809487D01*
X138350058Y-111878738D01*
X138451297Y-111915586D01*
X138451298Y-111915586D01*
X138559032Y-111915586D01*
X138559033Y-111915586D01*
X138660272Y-111878738D01*
X138660273Y-111878736D01*
X138660275Y-111878736D01*
X138690291Y-111853549D01*
X138700510Y-111850326D01*
X138710014Y-111855274D01*
X138713237Y-111865493D01*
X138711414Y-111871273D01*
X138663659Y-111953987D01*
X138644952Y-112060083D01*
X138644952Y-112060088D01*
X138663659Y-112166184D01*
X138717525Y-112259484D01*
X138717527Y-112259486D01*
X138717528Y-112259487D01*
X138800058Y-112328738D01*
X138901297Y-112365586D01*
X138901298Y-112365586D01*
X139009032Y-112365586D01*
X139009033Y-112365586D01*
X139110272Y-112328738D01*
X139110273Y-112328736D01*
X139110275Y-112328736D01*
X139140291Y-112303549D01*
X139150510Y-112300326D01*
X139160014Y-112305274D01*
X139163237Y-112315493D01*
X139161414Y-112321273D01*
X139113659Y-112403987D01*
X139094952Y-112510083D01*
X139094952Y-112510088D01*
X139113659Y-112616184D01*
X139167525Y-112709484D01*
X139167527Y-112709486D01*
X139167528Y-112709487D01*
X139250058Y-112778738D01*
X139340789Y-112811761D01*
X139348688Y-112818999D01*
X139350000Y-112824916D01*
X139350000Y-116986000D01*
X139345899Y-116995899D01*
X139336000Y-117000000D01*
X137772365Y-117000000D01*
X137762466Y-116995899D01*
X137758578Y-116988431D01*
X137740217Y-116884300D01*
X137686351Y-116791000D01*
X137664125Y-116772350D01*
X137603819Y-116721747D01*
X137513856Y-116689003D01*
X137508798Y-116687162D01*
X137500898Y-116679923D01*
X137500430Y-116669218D01*
X137507669Y-116661318D01*
X137508790Y-116660853D01*
X137598974Y-116628029D01*
X137681504Y-116558778D01*
X137685516Y-116551830D01*
X137698580Y-116529200D01*
X137735372Y-116465476D01*
X137743538Y-116419162D01*
X137754080Y-116359379D01*
X137754080Y-116359374D01*
X137735372Y-116253278D01*
X137681506Y-116159978D01*
X137681504Y-116159976D01*
X137598974Y-116090725D01*
X137548354Y-116072301D01*
X137497736Y-116053877D01*
X137497735Y-116053877D01*
X137389999Y-116053877D01*
X137389997Y-116053877D01*
X137288761Y-116090725D01*
X137206227Y-116159978D01*
X137152361Y-116253278D01*
X137133654Y-116359374D01*
X137133654Y-116359379D01*
X137152361Y-116465475D01*
X137206227Y-116558775D01*
X137206229Y-116558777D01*
X137206230Y-116558778D01*
X137288760Y-116628029D01*
X137383780Y-116662613D01*
X137391680Y-116669852D01*
X137392148Y-116680557D01*
X137384909Y-116688457D01*
X137383780Y-116688925D01*
X137293606Y-116721747D01*
X137211072Y-116791000D01*
X137157206Y-116884300D01*
X137138846Y-116988431D01*
X137133089Y-116997468D01*
X137125059Y-117000000D01*
X135171749Y-117000000D01*
X135161850Y-116995899D01*
X135157749Y-116986000D01*
X135161850Y-116976101D01*
X135166961Y-116972844D01*
X135208698Y-116957653D01*
X135291228Y-116888402D01*
X135291914Y-116887215D01*
X135308304Y-116858824D01*
X135345096Y-116795100D01*
X135354137Y-116743825D01*
X135363804Y-116689003D01*
X135363804Y-116688998D01*
X135345096Y-116582902D01*
X135291230Y-116489602D01*
X135290174Y-116488716D01*
X135208698Y-116420349D01*
X135158078Y-116401925D01*
X135107460Y-116383501D01*
X135107459Y-116383501D01*
X134999723Y-116383501D01*
X134999721Y-116383501D01*
X134898485Y-116420349D01*
X134815951Y-116489602D01*
X134762085Y-116582902D01*
X134743378Y-116688998D01*
X134743378Y-116689003D01*
X134762085Y-116795099D01*
X134815951Y-116888399D01*
X134815953Y-116888401D01*
X134815954Y-116888402D01*
X134898484Y-116957653D01*
X134940221Y-116972844D01*
X134948121Y-116980083D01*
X134948589Y-116990788D01*
X134941350Y-116998688D01*
X134935433Y-117000000D01*
X133037351Y-117000000D01*
X133027452Y-116995899D01*
X133023351Y-116986000D01*
X133027452Y-116976101D01*
X133032563Y-116972844D01*
X133034448Y-116972157D01*
X133077561Y-116956466D01*
X133160091Y-116887215D01*
X133213959Y-116793913D01*
X133222528Y-116745318D01*
X133232667Y-116687816D01*
X133232667Y-116687811D01*
X133213959Y-116581715D01*
X133160093Y-116488415D01*
X133160091Y-116488413D01*
X133077561Y-116419162D01*
X133026941Y-116400738D01*
X132976323Y-116382314D01*
X132976322Y-116382314D01*
X132868586Y-116382314D01*
X132868584Y-116382314D01*
X132767348Y-116419162D01*
X132684814Y-116488415D01*
X132630948Y-116581715D01*
X132612241Y-116687811D01*
X132612241Y-116687816D01*
X132630948Y-116793912D01*
X132684814Y-116887212D01*
X132684816Y-116887214D01*
X132684817Y-116887215D01*
X132767347Y-116956466D01*
X132809812Y-116971922D01*
X132812345Y-116972844D01*
X132820245Y-116980083D01*
X132820713Y-116990788D01*
X132813474Y-116998688D01*
X132807557Y-117000000D01*
X131736522Y-117000000D01*
X131726623Y-116995899D01*
X131722694Y-116988190D01*
X131720779Y-116976101D01*
X131708491Y-116898514D01*
X131653771Y-116791121D01*
X131644897Y-116782247D01*
X131640797Y-116772350D01*
X131644896Y-116762452D01*
X131692193Y-116715156D01*
X131746913Y-116607763D01*
X131765768Y-116488716D01*
X131746913Y-116369669D01*
X131692193Y-116262276D01*
X131692192Y-116262274D01*
X131606966Y-116177048D01*
X131499572Y-116122328D01*
X131499573Y-116122328D01*
X131380525Y-116103473D01*
X131261477Y-116122328D01*
X131154083Y-116177048D01*
X131068857Y-116262274D01*
X131014137Y-116369668D01*
X130995282Y-116488716D01*
X131014137Y-116607763D01*
X131055528Y-116688998D01*
X131068857Y-116715156D01*
X131077728Y-116724027D01*
X131081829Y-116733925D01*
X131077729Y-116743825D01*
X131030434Y-116791121D01*
X130975715Y-116898513D01*
X130961512Y-116988190D01*
X130955913Y-116997326D01*
X130947684Y-117000000D01*
X130914000Y-117000000D01*
X130904101Y-116995899D01*
X130900000Y-116986000D01*
X130900000Y-115067252D01*
X130952850Y-115067252D01*
X130971705Y-115186299D01*
X131026425Y-115293693D01*
X131111651Y-115378919D01*
X131111653Y-115378920D01*
X131219046Y-115433640D01*
X131338093Y-115452495D01*
X131457140Y-115433640D01*
X131564533Y-115378920D01*
X131649761Y-115293692D01*
X131704481Y-115186299D01*
X131723336Y-115067252D01*
X131707551Y-114967588D01*
X136097452Y-114967588D01*
X136116159Y-115073684D01*
X136170025Y-115166984D01*
X136170027Y-115166986D01*
X136170028Y-115166987D01*
X136252558Y-115236238D01*
X136353797Y-115273086D01*
X136353798Y-115273086D01*
X136461532Y-115273086D01*
X136461533Y-115273086D01*
X136562772Y-115236238D01*
X136623666Y-115185140D01*
X136633885Y-115181919D01*
X136641663Y-115185140D01*
X136702558Y-115236238D01*
X136803797Y-115273086D01*
X136803798Y-115273086D01*
X136911532Y-115273086D01*
X136911533Y-115273086D01*
X137012772Y-115236238D01*
X137095302Y-115166987D01*
X137149170Y-115073685D01*
X137157095Y-115028738D01*
X137167878Y-114967588D01*
X137447452Y-114967588D01*
X137466159Y-115073684D01*
X137520025Y-115166984D01*
X137520027Y-115166986D01*
X137520028Y-115166987D01*
X137602558Y-115236238D01*
X137703797Y-115273086D01*
X137703798Y-115273086D01*
X137811532Y-115273086D01*
X137811533Y-115273086D01*
X137912772Y-115236238D01*
X137995302Y-115166987D01*
X138049170Y-115073685D01*
X138057095Y-115028738D01*
X138067878Y-114967588D01*
X138067878Y-114967583D01*
X138049170Y-114861487D01*
X137995304Y-114768187D01*
X137995302Y-114768185D01*
X137985653Y-114760088D01*
X138194952Y-114760088D01*
X138213659Y-114866184D01*
X138267525Y-114959484D01*
X138267527Y-114959486D01*
X138267528Y-114959487D01*
X138350058Y-115028738D01*
X138451297Y-115065586D01*
X138451298Y-115065586D01*
X138559032Y-115065586D01*
X138559033Y-115065586D01*
X138660272Y-115028738D01*
X138721166Y-114977640D01*
X138731385Y-114974419D01*
X138739163Y-114977640D01*
X138800058Y-115028738D01*
X138901297Y-115065586D01*
X138901298Y-115065586D01*
X139009032Y-115065586D01*
X139009033Y-115065586D01*
X139110272Y-115028738D01*
X139192802Y-114959487D01*
X139246670Y-114866185D01*
X139265378Y-114760086D01*
X139265378Y-114760083D01*
X139246670Y-114653987D01*
X139192804Y-114560687D01*
X139192802Y-114560685D01*
X139110272Y-114491434D01*
X139059652Y-114473010D01*
X139009034Y-114454586D01*
X139009033Y-114454586D01*
X138901297Y-114454586D01*
X138901295Y-114454586D01*
X138800058Y-114491434D01*
X138739164Y-114542530D01*
X138728945Y-114545752D01*
X138721166Y-114542530D01*
X138691441Y-114517588D01*
X138660272Y-114491434D01*
X138609652Y-114473010D01*
X138559034Y-114454586D01*
X138559033Y-114454586D01*
X138451297Y-114454586D01*
X138451295Y-114454586D01*
X138350059Y-114491434D01*
X138267525Y-114560687D01*
X138213659Y-114653987D01*
X138194952Y-114760083D01*
X138194952Y-114760088D01*
X137985653Y-114760088D01*
X137977574Y-114753309D01*
X137972627Y-114743806D01*
X137975849Y-114733587D01*
X137977574Y-114731862D01*
X137995302Y-114716987D01*
X138049170Y-114623685D01*
X138067878Y-114517586D01*
X138067878Y-114517583D01*
X138049170Y-114411487D01*
X137995304Y-114318187D01*
X137995302Y-114318185D01*
X137912772Y-114248934D01*
X137846616Y-114224855D01*
X137811534Y-114212086D01*
X137811533Y-114212086D01*
X137703797Y-114212086D01*
X137703795Y-114212086D01*
X137602559Y-114248934D01*
X137520025Y-114318187D01*
X137466159Y-114411487D01*
X137447452Y-114517583D01*
X137447452Y-114517588D01*
X137466159Y-114623684D01*
X137520026Y-114716984D01*
X137520028Y-114716987D01*
X137537754Y-114731862D01*
X137542702Y-114741366D01*
X137539479Y-114751585D01*
X137537754Y-114753310D01*
X137520028Y-114768184D01*
X137520026Y-114768187D01*
X137466159Y-114861487D01*
X137447452Y-114967583D01*
X137447452Y-114967588D01*
X137167878Y-114967588D01*
X137167878Y-114967583D01*
X137149170Y-114861487D01*
X137095304Y-114768187D01*
X137095302Y-114768185D01*
X137012772Y-114698934D01*
X136954528Y-114677735D01*
X136911534Y-114662086D01*
X136911533Y-114662086D01*
X136803797Y-114662086D01*
X136803795Y-114662086D01*
X136702558Y-114698934D01*
X136641664Y-114750030D01*
X136631445Y-114753252D01*
X136623666Y-114750030D01*
X136562772Y-114698934D01*
X136504528Y-114677735D01*
X136461534Y-114662086D01*
X136461533Y-114662086D01*
X136353797Y-114662086D01*
X136353795Y-114662086D01*
X136252559Y-114698934D01*
X136170025Y-114768187D01*
X136116159Y-114861487D01*
X136097452Y-114967583D01*
X136097452Y-114967588D01*
X131707551Y-114967588D01*
X131704481Y-114948205D01*
X131649761Y-114840812D01*
X131649760Y-114840810D01*
X131564534Y-114755584D01*
X131539023Y-114742586D01*
X131534480Y-114740271D01*
X131527522Y-114732124D01*
X131528363Y-114721442D01*
X131534480Y-114715324D01*
X131564533Y-114700012D01*
X131649761Y-114614784D01*
X131704481Y-114507391D01*
X131723336Y-114388344D01*
X131704481Y-114269297D01*
X131649761Y-114161904D01*
X131649760Y-114161902D01*
X131564534Y-114076676D01*
X131546697Y-114067588D01*
X136097452Y-114067588D01*
X136116159Y-114173684D01*
X136170025Y-114266984D01*
X136170027Y-114266986D01*
X136170028Y-114266987D01*
X136252558Y-114336238D01*
X136353797Y-114373086D01*
X136353798Y-114373086D01*
X136461532Y-114373086D01*
X136461533Y-114373086D01*
X136562772Y-114336238D01*
X136645302Y-114266987D01*
X136699170Y-114173685D01*
X136709363Y-114115878D01*
X136717878Y-114067588D01*
X136717878Y-114067583D01*
X136699170Y-113961487D01*
X136645304Y-113868187D01*
X136645302Y-113868185D01*
X136627574Y-113853309D01*
X136622627Y-113843806D01*
X136625849Y-113833587D01*
X136627574Y-113831862D01*
X136645302Y-113816987D01*
X136699170Y-113723685D01*
X136717878Y-113617586D01*
X136717878Y-113617583D01*
X136699170Y-113511487D01*
X136645304Y-113418187D01*
X136620971Y-113397769D01*
X136562772Y-113348934D01*
X136512152Y-113330510D01*
X136461534Y-113312086D01*
X136461533Y-113312086D01*
X136353797Y-113312086D01*
X136353795Y-113312086D01*
X136252559Y-113348934D01*
X136170025Y-113418187D01*
X136116159Y-113511487D01*
X136097452Y-113617583D01*
X136097452Y-113617588D01*
X136116159Y-113723684D01*
X136170026Y-113816984D01*
X136170028Y-113816987D01*
X136187754Y-113831862D01*
X136192702Y-113841366D01*
X136189479Y-113851585D01*
X136187754Y-113853310D01*
X136170028Y-113868184D01*
X136170026Y-113868187D01*
X136116159Y-113961487D01*
X136097452Y-114067583D01*
X136097452Y-114067588D01*
X131546697Y-114067588D01*
X131545276Y-114066864D01*
X131534480Y-114061363D01*
X131527522Y-114053216D01*
X131528363Y-114042534D01*
X131534480Y-114036416D01*
X131564533Y-114021104D01*
X131649761Y-113935876D01*
X131704481Y-113828483D01*
X131723336Y-113709436D01*
X131704481Y-113590389D01*
X131649761Y-113482996D01*
X131649760Y-113482994D01*
X131564534Y-113397768D01*
X131555299Y-113393063D01*
X131548340Y-113384916D01*
X131549181Y-113374233D01*
X131555299Y-113368115D01*
X131564533Y-113363411D01*
X131649761Y-113278183D01*
X131704481Y-113170790D01*
X131723336Y-113051743D01*
X131720076Y-113031157D01*
X133775526Y-113031157D01*
X133794233Y-113137253D01*
X133848099Y-113230553D01*
X133848101Y-113230555D01*
X133848102Y-113230556D01*
X133930632Y-113299807D01*
X134031871Y-113336655D01*
X134031872Y-113336655D01*
X134139606Y-113336655D01*
X134139607Y-113336655D01*
X134240846Y-113299807D01*
X134323376Y-113230556D01*
X134377244Y-113137254D01*
X134389775Y-113066185D01*
X134395952Y-113031157D01*
X134395952Y-113031152D01*
X134383421Y-112960088D01*
X136394952Y-112960088D01*
X136413659Y-113066184D01*
X136467525Y-113159484D01*
X136467527Y-113159486D01*
X136467528Y-113159487D01*
X136550058Y-113228738D01*
X136651297Y-113265586D01*
X136651298Y-113265586D01*
X136759032Y-113265586D01*
X136759033Y-113265586D01*
X136860272Y-113228738D01*
X136921166Y-113177640D01*
X136931385Y-113174419D01*
X136939163Y-113177640D01*
X137000058Y-113228738D01*
X137101297Y-113265586D01*
X137101298Y-113265586D01*
X137209032Y-113265586D01*
X137209033Y-113265586D01*
X137310272Y-113228738D01*
X137392802Y-113159487D01*
X137446670Y-113066185D01*
X137465378Y-112960086D01*
X137465378Y-112960083D01*
X137446670Y-112853987D01*
X137392804Y-112760687D01*
X137392802Y-112760685D01*
X137310272Y-112691434D01*
X137259652Y-112673010D01*
X137209034Y-112654586D01*
X137209033Y-112654586D01*
X137101297Y-112654586D01*
X137101295Y-112654586D01*
X137000058Y-112691434D01*
X136939164Y-112742530D01*
X136928945Y-112745752D01*
X136921166Y-112742530D01*
X136901055Y-112725655D01*
X136860272Y-112691434D01*
X136809652Y-112673010D01*
X136759034Y-112654586D01*
X136759033Y-112654586D01*
X136651297Y-112654586D01*
X136651295Y-112654586D01*
X136550059Y-112691434D01*
X136467525Y-112760687D01*
X136413659Y-112853987D01*
X136394952Y-112960083D01*
X136394952Y-112960088D01*
X134383421Y-112960088D01*
X134377244Y-112925056D01*
X134323378Y-112831756D01*
X134315688Y-112825303D01*
X134240846Y-112762503D01*
X134179226Y-112740075D01*
X134139608Y-112725655D01*
X134139607Y-112725655D01*
X134031871Y-112725655D01*
X134031869Y-112725655D01*
X133930633Y-112762503D01*
X133848099Y-112831756D01*
X133794233Y-112925056D01*
X133775526Y-113031152D01*
X133775526Y-113031157D01*
X131720076Y-113031157D01*
X131704481Y-112932696D01*
X131649761Y-112825303D01*
X131649760Y-112825301D01*
X131564534Y-112740075D01*
X131457140Y-112685355D01*
X131457141Y-112685355D01*
X131338093Y-112666500D01*
X131219045Y-112685355D01*
X131111651Y-112740075D01*
X131026425Y-112825301D01*
X130971705Y-112932695D01*
X130952850Y-113051743D01*
X130971705Y-113170790D01*
X131026425Y-113278184D01*
X131111651Y-113363410D01*
X131120885Y-113368115D01*
X131127844Y-113376262D01*
X131127003Y-113386945D01*
X131120886Y-113393063D01*
X131111650Y-113397769D01*
X131026425Y-113482994D01*
X130971705Y-113590388D01*
X130952850Y-113709436D01*
X130971705Y-113828483D01*
X131026425Y-113935877D01*
X131111651Y-114021103D01*
X131141703Y-114036416D01*
X131148662Y-114044564D01*
X131147821Y-114055246D01*
X131141703Y-114061364D01*
X131111651Y-114076676D01*
X131026425Y-114161902D01*
X130971705Y-114269296D01*
X130952850Y-114388344D01*
X130971705Y-114507391D01*
X131026425Y-114614785D01*
X131111651Y-114700011D01*
X131141703Y-114715324D01*
X131148662Y-114723472D01*
X131147821Y-114734154D01*
X131141703Y-114740272D01*
X131111651Y-114755584D01*
X131026425Y-114840810D01*
X130971705Y-114948204D01*
X130952850Y-115067252D01*
X130900000Y-115067252D01*
X130900000Y-112060088D01*
X136394952Y-112060088D01*
X136413659Y-112166184D01*
X136467525Y-112259484D01*
X136467527Y-112259486D01*
X136467528Y-112259487D01*
X136550058Y-112328738D01*
X136651297Y-112365586D01*
X136651298Y-112365586D01*
X136759032Y-112365586D01*
X136759033Y-112365586D01*
X136860272Y-112328738D01*
X136942802Y-112259487D01*
X136996670Y-112166185D01*
X137015378Y-112060086D01*
X137015378Y-112060083D01*
X136996670Y-111953987D01*
X136942804Y-111860687D01*
X136936353Y-111855274D01*
X136860272Y-111791434D01*
X136809652Y-111773010D01*
X136759034Y-111754586D01*
X136759033Y-111754586D01*
X136651297Y-111754586D01*
X136651295Y-111754586D01*
X136550059Y-111791434D01*
X136467525Y-111860687D01*
X136413659Y-111953987D01*
X136394952Y-112060083D01*
X136394952Y-112060088D01*
X130900000Y-112060088D01*
X130900000Y-111731157D01*
X134674526Y-111731157D01*
X134693233Y-111837253D01*
X134747099Y-111930553D01*
X134747101Y-111930555D01*
X134747102Y-111930556D01*
X134829632Y-111999807D01*
X134930871Y-112036655D01*
X134930872Y-112036655D01*
X135038606Y-112036655D01*
X135038607Y-112036655D01*
X135139846Y-111999807D01*
X135222376Y-111930556D01*
X135276244Y-111837254D01*
X135294952Y-111731155D01*
X135294952Y-111731152D01*
X135276244Y-111625056D01*
X135222378Y-111531756D01*
X135222376Y-111531754D01*
X135139846Y-111462503D01*
X135089226Y-111444079D01*
X135038608Y-111425655D01*
X135038607Y-111425655D01*
X134930871Y-111425655D01*
X134930869Y-111425655D01*
X134829633Y-111462503D01*
X134747099Y-111531756D01*
X134693233Y-111625056D01*
X134674526Y-111731152D01*
X134674526Y-111731157D01*
X130900000Y-111731157D01*
X130900000Y-111360000D01*
X126264000Y-111360000D01*
X126254101Y-111355899D01*
X126250000Y-111346000D01*
X126250000Y-110527209D01*
X126254101Y-110517310D01*
X126264000Y-110513209D01*
X126273283Y-110516729D01*
X126278343Y-110521212D01*
X126285345Y-110527416D01*
X126285347Y-110527417D01*
X126285349Y-110527419D01*
X126285351Y-110527420D01*
X126285354Y-110527422D01*
X126291764Y-110530786D01*
X126376920Y-110575479D01*
X126378162Y-110576216D01*
X126381168Y-110578225D01*
X126381169Y-110578225D01*
X126381283Y-110578301D01*
X126381792Y-110578483D01*
X126385257Y-110579918D01*
X126386396Y-110580452D01*
X126431676Y-110604218D01*
X126550897Y-110633602D01*
X126592128Y-110643765D01*
X126638501Y-110643765D01*
X126639195Y-110643782D01*
X126692596Y-110646434D01*
X126719321Y-110643830D01*
X126720678Y-110643765D01*
X126757384Y-110643765D01*
X126780836Y-110637983D01*
X126782807Y-110637646D01*
X129708763Y-110352665D01*
X131602401Y-110352665D01*
X131621108Y-110458761D01*
X131674974Y-110552061D01*
X131674976Y-110552063D01*
X131674977Y-110552064D01*
X131757507Y-110621315D01*
X131858746Y-110658163D01*
X131858747Y-110658163D01*
X131966481Y-110658163D01*
X131966482Y-110658163D01*
X132067721Y-110621315D01*
X132150251Y-110552064D01*
X132159533Y-110535988D01*
X132195079Y-110474419D01*
X132204119Y-110458762D01*
X132222827Y-110352663D01*
X132222827Y-110352660D01*
X132204119Y-110246564D01*
X132150253Y-110153264D01*
X132142893Y-110147088D01*
X132067721Y-110084011D01*
X132003639Y-110060687D01*
X131966483Y-110047163D01*
X131966482Y-110047163D01*
X131858746Y-110047163D01*
X131858744Y-110047163D01*
X131757508Y-110084011D01*
X131674974Y-110153264D01*
X131621108Y-110246564D01*
X131602401Y-110352660D01*
X131602401Y-110352665D01*
X129708763Y-110352665D01*
X130993641Y-110227521D01*
X130995630Y-110227582D01*
X130995630Y-110227557D01*
X130996733Y-110227557D01*
X130996734Y-110227556D01*
X130996736Y-110227557D01*
X131001856Y-110226745D01*
X131002669Y-110226642D01*
X131014576Y-110225483D01*
X131032639Y-110222814D01*
X131055686Y-110218228D01*
X131056140Y-110218147D01*
X131115783Y-110208702D01*
X131155679Y-110188372D01*
X131156652Y-110187923D01*
X131175518Y-110180110D01*
X131186482Y-110172783D01*
X131187872Y-110171970D01*
X131223176Y-110153982D01*
X131308404Y-110068754D01*
X131326389Y-110033453D01*
X131327212Y-110032049D01*
X131332986Y-110023408D01*
X131333991Y-110022404D01*
X131342340Y-110002247D01*
X131342800Y-110001248D01*
X131345612Y-109995730D01*
X131363124Y-109961361D01*
X131372569Y-109901718D01*
X131372650Y-109901264D01*
X131377192Y-109878438D01*
X132073085Y-109878438D01*
X132091792Y-109984534D01*
X132145658Y-110077834D01*
X132145660Y-110077836D01*
X132145661Y-110077837D01*
X132228191Y-110147088D01*
X132329430Y-110183936D01*
X132329431Y-110183936D01*
X132437165Y-110183936D01*
X132437166Y-110183936D01*
X132538405Y-110147088D01*
X132620935Y-110077837D01*
X132626182Y-110068750D01*
X132639459Y-110045752D01*
X132674803Y-109984535D01*
X132693511Y-109878436D01*
X132693511Y-109878433D01*
X132674803Y-109772337D01*
X132620937Y-109679037D01*
X132620935Y-109679035D01*
X132538405Y-109609784D01*
X132487785Y-109591360D01*
X132437167Y-109572936D01*
X132437166Y-109572936D01*
X132329430Y-109572936D01*
X132329428Y-109572936D01*
X132228192Y-109609784D01*
X132145658Y-109679037D01*
X132091792Y-109772337D01*
X132073085Y-109878433D01*
X132073085Y-109878438D01*
X131377192Y-109878438D01*
X131377236Y-109878217D01*
X131377236Y-109873363D01*
X131377408Y-109871173D01*
X131381979Y-109842314D01*
X131377407Y-109813452D01*
X131377236Y-109811263D01*
X131377236Y-109806411D01*
X131377236Y-109806410D01*
X131372653Y-109783374D01*
X131372567Y-109782891D01*
X131363124Y-109723267D01*
X131342794Y-109683368D01*
X131342334Y-109682369D01*
X131334533Y-109663534D01*
X131332801Y-109660942D01*
X131327216Y-109652584D01*
X131326394Y-109651181D01*
X131308404Y-109615874D01*
X131308403Y-109615872D01*
X131223177Y-109530646D01*
X131187881Y-109512662D01*
X131186459Y-109511828D01*
X131176461Y-109505147D01*
X131175824Y-109504643D01*
X131156663Y-109496706D01*
X131155665Y-109496246D01*
X131115783Y-109475926D01*
X131056178Y-109466485D01*
X131055637Y-109466388D01*
X131032651Y-109461816D01*
X131032643Y-109461814D01*
X131032639Y-109461814D01*
X131032631Y-109461813D01*
X131032624Y-109461812D01*
X131008693Y-109458953D01*
X131008165Y-109458880D01*
X130996736Y-109457071D01*
X130996734Y-109457071D01*
X130992856Y-109457684D01*
X130990091Y-109457844D01*
X129972856Y-109415703D01*
X129963134Y-109411196D01*
X129959447Y-109401136D01*
X129963954Y-109391414D01*
X129973070Y-109387720D01*
X130130476Y-109383623D01*
X130133018Y-109383789D01*
X130137965Y-109384573D01*
X130153372Y-109382131D01*
X130153993Y-109382048D01*
X130173868Y-109379830D01*
X130196915Y-109375244D01*
X130197369Y-109375163D01*
X130257012Y-109365718D01*
X130296908Y-109345388D01*
X130297881Y-109344939D01*
X130316747Y-109337126D01*
X130327711Y-109329799D01*
X130329101Y-109328986D01*
X130364405Y-109310998D01*
X130449633Y-109225770D01*
X130467618Y-109190469D01*
X130468441Y-109189065D01*
X130474215Y-109180424D01*
X130475220Y-109179420D01*
X130483569Y-109159263D01*
X130484029Y-109158264D01*
X130504353Y-109118377D01*
X130507672Y-109097421D01*
X130567459Y-109097421D01*
X130586166Y-109203517D01*
X130640032Y-109296817D01*
X130640034Y-109296819D01*
X130640035Y-109296820D01*
X130722565Y-109366071D01*
X130823804Y-109402919D01*
X130823805Y-109402919D01*
X130931539Y-109402919D01*
X130931540Y-109402919D01*
X131032779Y-109366071D01*
X131115309Y-109296820D01*
X131169177Y-109203518D01*
X131177071Y-109158749D01*
X131187885Y-109097421D01*
X131187885Y-109097416D01*
X131169177Y-108991320D01*
X131115311Y-108898020D01*
X131094172Y-108880282D01*
X131032779Y-108828767D01*
X130976247Y-108808191D01*
X130931541Y-108791919D01*
X130931540Y-108791919D01*
X130823804Y-108791919D01*
X130823802Y-108791919D01*
X130722566Y-108828767D01*
X130640032Y-108898020D01*
X130586166Y-108991320D01*
X130567459Y-109097416D01*
X130567459Y-109097421D01*
X130507672Y-109097421D01*
X130513798Y-109058734D01*
X130513879Y-109058280D01*
X130518465Y-109035233D01*
X130518465Y-109030379D01*
X130518637Y-109028189D01*
X130523208Y-108999330D01*
X130518636Y-108970468D01*
X130518465Y-108968279D01*
X130518465Y-108963427D01*
X130515059Y-108946305D01*
X130513882Y-108940390D01*
X130513796Y-108939907D01*
X130504353Y-108880283D01*
X130484023Y-108840384D01*
X130483563Y-108839385D01*
X130475762Y-108820550D01*
X130474030Y-108817958D01*
X130468445Y-108809600D01*
X130467623Y-108808197D01*
X130449633Y-108772890D01*
X130449632Y-108772888D01*
X130364406Y-108687662D01*
X130329110Y-108669678D01*
X130327688Y-108668844D01*
X130317690Y-108662163D01*
X130317053Y-108661659D01*
X130297892Y-108653722D01*
X130296894Y-108653262D01*
X130257012Y-108632942D01*
X130197407Y-108623501D01*
X130196866Y-108623404D01*
X130173861Y-108618828D01*
X130164633Y-108617236D01*
X126808478Y-108125738D01*
X126807157Y-108125479D01*
X126741823Y-108109376D01*
X126741821Y-108109376D01*
X126697763Y-108109376D01*
X126695734Y-108109228D01*
X126685864Y-108107782D01*
X126685848Y-108107781D01*
X126623486Y-108109371D01*
X126623129Y-108109376D01*
X126576562Y-108109376D01*
X126416113Y-108148922D01*
X126370835Y-108172686D01*
X126369689Y-108173223D01*
X126365608Y-108174914D01*
X126365605Y-108174915D01*
X126362611Y-108176915D01*
X126361344Y-108177667D01*
X126270506Y-108225343D01*
X126259835Y-108226313D01*
X126251604Y-108219453D01*
X126250000Y-108212947D01*
X126250000Y-107545893D01*
X129737883Y-107545893D01*
X129756590Y-107651989D01*
X129810456Y-107745289D01*
X129810458Y-107745291D01*
X129810459Y-107745292D01*
X129892989Y-107814543D01*
X129994228Y-107851391D01*
X130059678Y-107851391D01*
X130069577Y-107855492D01*
X130073678Y-107865391D01*
X130073465Y-107867822D01*
X130071419Y-107879424D01*
X130071419Y-107879428D01*
X130090126Y-107985524D01*
X130143992Y-108078824D01*
X130143994Y-108078826D01*
X130143995Y-108078827D01*
X130226525Y-108148078D01*
X130327764Y-108184926D01*
X130327765Y-108184926D01*
X130435499Y-108184926D01*
X130435500Y-108184926D01*
X130536739Y-108148078D01*
X130619269Y-108078827D01*
X130632906Y-108055208D01*
X130648721Y-108027815D01*
X130673137Y-107985525D01*
X130691845Y-107879426D01*
X130691845Y-107879424D01*
X130691845Y-107879423D01*
X130673137Y-107773327D01*
X130619271Y-107680027D01*
X130619269Y-107680025D01*
X130536739Y-107610774D01*
X130486119Y-107592350D01*
X130435501Y-107573926D01*
X130435500Y-107573926D01*
X130370050Y-107573926D01*
X130360151Y-107569825D01*
X130356050Y-107559926D01*
X130356263Y-107557495D01*
X130358309Y-107545892D01*
X130358309Y-107545888D01*
X130339601Y-107439792D01*
X130285735Y-107346492D01*
X130285733Y-107346490D01*
X130203203Y-107277239D01*
X130137563Y-107253348D01*
X130101965Y-107240391D01*
X130101964Y-107240391D01*
X129994228Y-107240391D01*
X129994226Y-107240391D01*
X129892990Y-107277239D01*
X129810456Y-107346492D01*
X129756590Y-107439792D01*
X129737883Y-107545888D01*
X129737883Y-107545893D01*
X126250000Y-107545893D01*
X126250000Y-107033068D01*
X132286890Y-107033068D01*
X132305745Y-107152115D01*
X132360465Y-107259509D01*
X132445691Y-107344735D01*
X132445693Y-107344736D01*
X132553086Y-107399456D01*
X132672133Y-107418311D01*
X132791180Y-107399456D01*
X132898573Y-107344736D01*
X132983801Y-107259508D01*
X133003911Y-107220040D01*
X133616436Y-107220040D01*
X133635143Y-107326136D01*
X133689009Y-107419436D01*
X133689011Y-107419438D01*
X133689012Y-107419439D01*
X133771542Y-107488690D01*
X133872781Y-107525538D01*
X133872782Y-107525538D01*
X133980516Y-107525538D01*
X133980517Y-107525538D01*
X134081756Y-107488690D01*
X134164286Y-107419439D01*
X134164938Y-107418311D01*
X134197019Y-107362744D01*
X134218154Y-107326137D01*
X134229902Y-107259509D01*
X134236862Y-107220040D01*
X134236862Y-107220035D01*
X134218154Y-107113939D01*
X134164288Y-107020639D01*
X134164286Y-107020637D01*
X134081756Y-106951386D01*
X134031136Y-106932962D01*
X133980518Y-106914538D01*
X133980517Y-106914538D01*
X133872781Y-106914538D01*
X133872779Y-106914538D01*
X133771543Y-106951386D01*
X133689009Y-107020639D01*
X133635143Y-107113939D01*
X133616436Y-107220035D01*
X133616436Y-107220040D01*
X133003911Y-107220040D01*
X133038521Y-107152115D01*
X133057376Y-107033068D01*
X133038521Y-106914021D01*
X132983801Y-106806628D01*
X132983800Y-106806626D01*
X132898574Y-106721400D01*
X132791180Y-106666680D01*
X132791181Y-106666680D01*
X132672133Y-106647825D01*
X132553085Y-106666680D01*
X132445691Y-106721400D01*
X132360465Y-106806626D01*
X132305745Y-106914020D01*
X132286890Y-107033068D01*
X126250000Y-107033068D01*
X126250000Y-104775000D01*
X127794257Y-104775000D01*
X127813112Y-104894047D01*
X127867832Y-105001441D01*
X127953058Y-105086667D01*
X127953060Y-105086668D01*
X128060453Y-105141388D01*
X128179500Y-105160243D01*
X128298547Y-105141388D01*
X128405940Y-105086668D01*
X128407081Y-105085527D01*
X129052642Y-105085527D01*
X129060327Y-105143901D01*
X129071567Y-105229278D01*
X129073555Y-105244373D01*
X129073555Y-105244375D01*
X129134869Y-105392400D01*
X129134870Y-105392402D01*
X129160071Y-105425244D01*
X129232406Y-105519512D01*
X129359518Y-105617049D01*
X129507543Y-105678363D01*
X129626508Y-105694025D01*
X129706278Y-105694025D01*
X129825243Y-105678363D01*
X129973268Y-105617049D01*
X130100380Y-105519512D01*
X130197917Y-105392401D01*
X130259231Y-105244375D01*
X130280144Y-105085525D01*
X130259231Y-104926675D01*
X130197917Y-104778650D01*
X130197915Y-104778648D01*
X130197915Y-104778647D01*
X130175291Y-104749164D01*
X130100380Y-104651538D01*
X130025467Y-104594055D01*
X129973270Y-104554002D01*
X129973268Y-104554001D01*
X129956214Y-104546937D01*
X129825243Y-104492687D01*
X129795501Y-104488771D01*
X129706281Y-104477025D01*
X129706278Y-104477025D01*
X129626508Y-104477025D01*
X129626504Y-104477025D01*
X129531336Y-104489554D01*
X129507543Y-104492687D01*
X129507542Y-104492687D01*
X129359517Y-104554001D01*
X129359515Y-104554002D01*
X129232406Y-104651538D01*
X129134870Y-104778646D01*
X129134869Y-104778648D01*
X129073555Y-104926674D01*
X129073555Y-104926676D01*
X129052642Y-105085522D01*
X129052642Y-105085527D01*
X128407081Y-105085527D01*
X128491168Y-105001440D01*
X128545888Y-104894047D01*
X128564743Y-104775000D01*
X128545888Y-104655953D01*
X128491168Y-104548560D01*
X128491167Y-104548558D01*
X128405941Y-104463332D01*
X128298547Y-104408612D01*
X128298548Y-104408612D01*
X128179500Y-104389757D01*
X128060452Y-104408612D01*
X127953058Y-104463332D01*
X127867832Y-104548558D01*
X127813112Y-104655952D01*
X127794257Y-104775000D01*
X126250000Y-104775000D01*
X126250000Y-103832107D01*
X127800695Y-103832107D01*
X127805265Y-103860961D01*
X127805437Y-103863151D01*
X127805437Y-103868012D01*
X127810017Y-103891042D01*
X127810114Y-103891583D01*
X127819550Y-103951155D01*
X127819551Y-103951158D01*
X127839868Y-103991035D01*
X127840328Y-103992031D01*
X127848142Y-104010893D01*
X127855457Y-104021841D01*
X127856290Y-104023262D01*
X127874270Y-104058548D01*
X127891144Y-104075422D01*
X127891171Y-104075451D01*
X127942740Y-104127020D01*
X127942759Y-104127037D01*
X127959498Y-104143776D01*
X127994793Y-104161759D01*
X127996197Y-104162582D01*
X128007154Y-104169904D01*
X128023745Y-104176882D01*
X128027440Y-104178436D01*
X128028368Y-104178867D01*
X128066891Y-104198496D01*
X128114557Y-104206044D01*
X128115242Y-104206171D01*
X128842942Y-104359170D01*
X128843594Y-104359303D01*
X128846142Y-104360084D01*
X128881549Y-104374751D01*
X128995533Y-104389757D01*
X129031391Y-104394478D01*
X129031393Y-104394478D01*
X129031395Y-104394478D01*
X129057238Y-104391075D01*
X129181237Y-104374751D01*
X129217882Y-104359572D01*
X129217883Y-104359572D01*
X129284222Y-104332093D01*
X129320870Y-104316913D01*
X129440775Y-104224907D01*
X129532781Y-104105002D01*
X129590619Y-103965369D01*
X129610346Y-103815527D01*
X129722440Y-103815527D01*
X129726982Y-103850027D01*
X129738672Y-103938824D01*
X129742167Y-103965367D01*
X129742167Y-103965369D01*
X129800005Y-104105002D01*
X129800006Y-104105004D01*
X129827621Y-104140992D01*
X129892011Y-104224907D01*
X130011916Y-104316913D01*
X130034976Y-104326464D01*
X130044636Y-104330466D01*
X130044640Y-104330469D01*
X130065106Y-104338945D01*
X130089535Y-104349064D01*
X130151549Y-104374751D01*
X130265533Y-104389757D01*
X130301391Y-104394478D01*
X130301393Y-104394478D01*
X130301395Y-104394478D01*
X130327238Y-104391075D01*
X130451237Y-104374751D01*
X130486996Y-104359937D01*
X130488812Y-104359328D01*
X130508879Y-104354091D01*
X130874358Y-104235270D01*
X132940713Y-104235270D01*
X132959568Y-104354317D01*
X133014288Y-104461711D01*
X133099514Y-104546937D01*
X133099516Y-104546938D01*
X133206909Y-104601658D01*
X133325956Y-104620513D01*
X133445003Y-104601658D01*
X133552396Y-104546938D01*
X133637624Y-104461710D01*
X133692344Y-104354317D01*
X133711199Y-104235270D01*
X133692344Y-104116223D01*
X133652179Y-104037396D01*
X138037082Y-104037396D01*
X138055937Y-104156443D01*
X138110657Y-104263837D01*
X138195883Y-104349063D01*
X138195885Y-104349064D01*
X138303278Y-104403784D01*
X138422325Y-104422639D01*
X138541372Y-104403784D01*
X138648765Y-104349064D01*
X138648766Y-104349063D01*
X138648767Y-104349063D01*
X138733992Y-104263837D01*
X138748548Y-104235270D01*
X138788713Y-104156443D01*
X138807568Y-104037396D01*
X138788713Y-103918349D01*
X138733993Y-103810956D01*
X138733992Y-103810954D01*
X138648766Y-103725728D01*
X138541372Y-103671008D01*
X138541373Y-103671008D01*
X138422325Y-103652153D01*
X138303277Y-103671008D01*
X138195883Y-103725728D01*
X138110657Y-103810954D01*
X138055937Y-103918348D01*
X138037082Y-104037396D01*
X133652179Y-104037396D01*
X133637624Y-104008830D01*
X133637623Y-104008828D01*
X133552397Y-103923602D01*
X133445003Y-103868882D01*
X133445004Y-103868882D01*
X133325956Y-103850027D01*
X133206908Y-103868882D01*
X133099514Y-103923602D01*
X133014288Y-104008828D01*
X132959568Y-104116222D01*
X132940713Y-104235270D01*
X130874358Y-104235270D01*
X131141433Y-104148441D01*
X131143555Y-104147931D01*
X131153962Y-104146283D01*
X131163373Y-104141487D01*
X131165397Y-104140650D01*
X131168336Y-104139695D01*
X131168337Y-104139694D01*
X131168351Y-104139690D01*
X131213695Y-104117692D01*
X131224656Y-104110366D01*
X131226053Y-104109548D01*
X131261355Y-104091563D01*
X131278580Y-104074338D01*
X131278581Y-104074338D01*
X131329356Y-104023562D01*
X131346583Y-104006335D01*
X131364568Y-103971034D01*
X131365391Y-103969630D01*
X131372711Y-103958677D01*
X131380525Y-103939808D01*
X131380972Y-103938839D01*
X131401303Y-103898942D01*
X131410747Y-103839307D01*
X131410828Y-103838853D01*
X131415415Y-103815800D01*
X131415415Y-103810944D01*
X131415587Y-103808754D01*
X131416805Y-103801063D01*
X131420158Y-103779895D01*
X131415586Y-103751033D01*
X131415415Y-103748844D01*
X131415415Y-103743994D01*
X131415415Y-103743993D01*
X131410833Y-103720962D01*
X131410747Y-103720480D01*
X131401303Y-103660848D01*
X131382127Y-103623214D01*
X131380973Y-103620949D01*
X131380513Y-103619950D01*
X131372712Y-103601115D01*
X131370980Y-103598523D01*
X131365395Y-103590165D01*
X131364573Y-103588762D01*
X131346583Y-103553455D01*
X131346582Y-103553453D01*
X131261356Y-103468227D01*
X131226055Y-103450240D01*
X131224634Y-103449407D01*
X131213692Y-103442097D01*
X131192479Y-103433094D01*
X131191593Y-103432681D01*
X131153962Y-103413507D01*
X131111407Y-103406766D01*
X131110628Y-103406619D01*
X130701040Y-103317716D01*
X133007875Y-103317716D01*
X133026582Y-103423812D01*
X133080448Y-103517112D01*
X133080450Y-103517114D01*
X133080451Y-103517115D01*
X133162981Y-103586366D01*
X133264220Y-103623214D01*
X133264221Y-103623214D01*
X133371955Y-103623214D01*
X133371956Y-103623214D01*
X133473195Y-103586366D01*
X133555725Y-103517115D01*
X133561244Y-103507557D01*
X133581019Y-103473304D01*
X133609593Y-103423813D01*
X133628301Y-103317714D01*
X133628301Y-103317711D01*
X133609593Y-103211615D01*
X133555727Y-103118315D01*
X133522066Y-103090070D01*
X133473195Y-103049062D01*
X133422575Y-103030638D01*
X133371957Y-103012214D01*
X133371956Y-103012214D01*
X133264220Y-103012214D01*
X133264218Y-103012214D01*
X133162982Y-103049062D01*
X133080448Y-103118315D01*
X133026582Y-103211615D01*
X133007875Y-103317711D01*
X133007875Y-103317716D01*
X130701040Y-103317716D01*
X130491029Y-103272132D01*
X130489167Y-103271745D01*
X130486665Y-103270974D01*
X130451237Y-103256299D01*
X130401289Y-103249723D01*
X130301395Y-103236572D01*
X130301391Y-103236572D01*
X130201497Y-103249723D01*
X130151549Y-103256299D01*
X130151548Y-103256299D01*
X130151545Y-103256300D01*
X130116179Y-103270949D01*
X130116176Y-103270949D01*
X130116177Y-103270950D01*
X130065237Y-103292051D01*
X130011916Y-103314137D01*
X130011914Y-103314138D01*
X129892011Y-103406143D01*
X129800006Y-103526046D01*
X129800005Y-103526048D01*
X129744169Y-103660848D01*
X129742167Y-103665681D01*
X129740051Y-103681757D01*
X129722440Y-103815522D01*
X129722440Y-103815527D01*
X129610346Y-103815527D01*
X129610346Y-103815525D01*
X129609744Y-103810956D01*
X129604701Y-103772644D01*
X129590619Y-103665681D01*
X129532781Y-103526049D01*
X129525923Y-103517112D01*
X129499878Y-103483169D01*
X129440775Y-103406143D01*
X129370109Y-103351919D01*
X129320872Y-103314138D01*
X129320870Y-103314137D01*
X129284224Y-103298957D01*
X129284224Y-103298956D01*
X129217882Y-103271478D01*
X129216605Y-103270949D01*
X129181237Y-103256299D01*
X129131289Y-103249723D01*
X129031395Y-103236572D01*
X129031391Y-103236572D01*
X128931497Y-103249723D01*
X128881549Y-103256299D01*
X128881548Y-103256299D01*
X128881545Y-103256300D01*
X128846010Y-103271019D01*
X128843739Y-103271741D01*
X128835630Y-103273573D01*
X128094204Y-103461334D01*
X128092958Y-103461589D01*
X128066895Y-103465719D01*
X128066887Y-103465721D01*
X128035977Y-103481469D01*
X128035312Y-103481786D01*
X128007160Y-103494309D01*
X128007151Y-103494314D01*
X127996215Y-103501621D01*
X127994794Y-103502454D01*
X127959496Y-103520440D01*
X127874270Y-103605666D01*
X127856285Y-103640961D01*
X127855452Y-103642382D01*
X127849689Y-103651009D01*
X127848683Y-103652015D01*
X127840327Y-103672185D01*
X127839867Y-103673182D01*
X127819551Y-103713057D01*
X127819550Y-103713060D01*
X127810112Y-103772644D01*
X127810015Y-103773184D01*
X127805437Y-103796206D01*
X127805437Y-103801063D01*
X127805265Y-103803253D01*
X127800695Y-103832107D01*
X126250000Y-103832107D01*
X126250000Y-102542244D01*
X127748181Y-102542244D01*
X127748751Y-102545845D01*
X127752752Y-102571103D01*
X127752924Y-102573293D01*
X127752924Y-102578147D01*
X127757499Y-102601153D01*
X127757596Y-102601694D01*
X127767036Y-102661291D01*
X127787360Y-102701179D01*
X127787820Y-102702177D01*
X127795627Y-102721025D01*
X127802940Y-102731969D01*
X127803773Y-102733391D01*
X127821756Y-102768685D01*
X127906982Y-102853911D01*
X127906984Y-102853912D01*
X127942277Y-102871895D01*
X127943689Y-102872722D01*
X127954643Y-102880041D01*
X127954645Y-102880042D01*
X127954647Y-102880043D01*
X127976468Y-102889352D01*
X127977317Y-102889748D01*
X128014377Y-102908632D01*
X128054379Y-102914967D01*
X128055209Y-102915124D01*
X128841102Y-103088774D01*
X128843627Y-103089303D01*
X128846102Y-103090068D01*
X128881549Y-103104751D01*
X129000160Y-103120366D01*
X129031391Y-103124478D01*
X129031393Y-103124478D01*
X129031395Y-103124478D01*
X129057238Y-103121075D01*
X129181237Y-103104751D01*
X129216611Y-103090097D01*
X129216617Y-103090096D01*
X129217882Y-103089572D01*
X129217883Y-103089572D01*
X129217884Y-103089572D01*
X129284225Y-103062092D01*
X129284225Y-103062091D01*
X129288148Y-103060467D01*
X129288149Y-103060465D01*
X129320870Y-103046913D01*
X129440775Y-102954907D01*
X129532781Y-102835002D01*
X129547959Y-102798358D01*
X129547961Y-102798356D01*
X129575440Y-102732015D01*
X129575440Y-102732013D01*
X129590619Y-102695369D01*
X129610346Y-102545527D01*
X129722440Y-102545527D01*
X129726735Y-102578147D01*
X129739723Y-102676808D01*
X129742167Y-102695367D01*
X129742167Y-102695369D01*
X129800005Y-102835002D01*
X129800006Y-102835004D01*
X129834566Y-102880043D01*
X129892011Y-102954907D01*
X130011916Y-103046913D01*
X130048561Y-103062092D01*
X130048563Y-103062093D01*
X130071822Y-103071727D01*
X130151549Y-103104751D01*
X130270160Y-103120366D01*
X130301391Y-103124478D01*
X130301393Y-103124478D01*
X130301395Y-103124478D01*
X130327238Y-103121075D01*
X130451237Y-103104751D01*
X130487009Y-103089932D01*
X130488796Y-103089330D01*
X130509403Y-103083920D01*
X131206816Y-102854871D01*
X131208985Y-102854347D01*
X131214848Y-102853419D01*
X131218848Y-102852787D01*
X131218848Y-102852786D01*
X131218853Y-102852786D01*
X131228204Y-102848020D01*
X131230176Y-102847200D01*
X131233767Y-102846022D01*
X131278588Y-102824194D01*
X131289541Y-102816874D01*
X131290945Y-102816051D01*
X131326246Y-102798066D01*
X131411474Y-102712838D01*
X131429462Y-102677534D01*
X131430279Y-102676138D01*
X131436057Y-102667491D01*
X131437061Y-102666487D01*
X131437602Y-102665180D01*
X131437603Y-102665180D01*
X131445411Y-102646328D01*
X131445870Y-102645332D01*
X131466194Y-102605445D01*
X131475639Y-102545802D01*
X131475720Y-102545348D01*
X131480306Y-102522301D01*
X131480306Y-102517447D01*
X131480478Y-102515257D01*
X131481890Y-102506342D01*
X131485049Y-102486398D01*
X131480477Y-102457536D01*
X131480306Y-102455347D01*
X131480306Y-102450496D01*
X131480306Y-102450495D01*
X131475722Y-102427455D01*
X131475638Y-102426983D01*
X131466194Y-102367351D01*
X131445866Y-102327456D01*
X131445408Y-102326461D01*
X131437603Y-102307618D01*
X131430288Y-102296670D01*
X131429455Y-102295248D01*
X131411473Y-102259956D01*
X131326247Y-102174730D01*
X131290953Y-102156747D01*
X131289531Y-102155914D01*
X131280903Y-102150149D01*
X131279897Y-102149143D01*
X131259733Y-102140790D01*
X131258735Y-102140330D01*
X131218853Y-102120010D01*
X131159248Y-102110569D01*
X131158707Y-102110472D01*
X131135744Y-102105905D01*
X131135746Y-102105905D01*
X131135709Y-102105898D01*
X131133297Y-102105455D01*
X131130332Y-102104910D01*
X130470367Y-101993838D01*
X130467335Y-101992966D01*
X130462679Y-101991038D01*
X130451241Y-101986300D01*
X130451238Y-101986299D01*
X130333614Y-101970813D01*
X130333143Y-101970743D01*
X130332662Y-101970662D01*
X130331936Y-101970540D01*
X130331386Y-101970499D01*
X130330621Y-101970419D01*
X130301396Y-101966572D01*
X130301391Y-101966572D01*
X130151547Y-101986299D01*
X130151543Y-101986300D01*
X130087375Y-102012880D01*
X130048563Y-102028957D01*
X130048560Y-102028958D01*
X130044637Y-102030583D01*
X130011918Y-102044135D01*
X130011914Y-102044138D01*
X129892011Y-102136143D01*
X129800006Y-102256046D01*
X129800005Y-102256048D01*
X129742167Y-102395680D01*
X129742167Y-102395682D01*
X129722440Y-102545522D01*
X129722440Y-102545527D01*
X129610346Y-102545527D01*
X129610346Y-102545525D01*
X129606114Y-102513383D01*
X129597835Y-102450495D01*
X129590619Y-102395681D01*
X129577274Y-102363463D01*
X129575365Y-102358853D01*
X129547629Y-102291893D01*
X129547618Y-102291870D01*
X129532781Y-102256050D01*
X129532779Y-102256046D01*
X129499145Y-102212213D01*
X129440775Y-102136143D01*
X129370109Y-102081919D01*
X129320872Y-102044138D01*
X129320870Y-102044137D01*
X129288148Y-102030583D01*
X129288145Y-102030580D01*
X129218212Y-102001614D01*
X129218110Y-102001572D01*
X129216654Y-102000969D01*
X129211335Y-101998765D01*
X129181241Y-101986300D01*
X129181238Y-101986299D01*
X129031395Y-101966572D01*
X129031391Y-101966572D01*
X128881547Y-101986299D01*
X128881543Y-101986300D01*
X128846131Y-102000969D01*
X128843605Y-102001745D01*
X128842469Y-102001980D01*
X128842427Y-102001989D01*
X128060582Y-102168517D01*
X128059857Y-102168652D01*
X128040749Y-102171678D01*
X128014377Y-102175856D01*
X128014375Y-102175856D01*
X128014375Y-102175857D01*
X127976193Y-102195311D01*
X127975282Y-102195735D01*
X127954648Y-102204445D01*
X127943708Y-102211754D01*
X127942287Y-102212586D01*
X127906982Y-102230576D01*
X127821756Y-102315802D01*
X127803771Y-102351099D01*
X127802938Y-102352520D01*
X127797175Y-102361146D01*
X127796170Y-102362150D01*
X127787819Y-102382311D01*
X127787359Y-102383309D01*
X127767036Y-102423196D01*
X127757594Y-102482805D01*
X127757497Y-102483345D01*
X127752924Y-102506342D01*
X127752924Y-102511193D01*
X127752752Y-102513382D01*
X127748181Y-102542244D01*
X126250000Y-102542244D01*
X126250000Y-101282656D01*
X127692256Y-101282656D01*
X127695051Y-101300306D01*
X127696827Y-101311515D01*
X127696999Y-101313705D01*
X127696999Y-101318558D01*
X127701573Y-101341560D01*
X127701670Y-101342101D01*
X127711111Y-101401703D01*
X127731437Y-101441595D01*
X127731897Y-101442593D01*
X127739702Y-101461436D01*
X127747013Y-101472377D01*
X127747846Y-101473799D01*
X127765831Y-101509097D01*
X127851057Y-101594323D01*
X127851059Y-101594324D01*
X127886364Y-101612313D01*
X127887763Y-101613132D01*
X127897785Y-101619828D01*
X127898416Y-101620329D01*
X127917569Y-101628262D01*
X127918564Y-101628720D01*
X127958452Y-101649044D01*
X128018084Y-101658488D01*
X128018556Y-101658572D01*
X128041596Y-101663156D01*
X128042210Y-101663277D01*
X128042230Y-101663281D01*
X128845962Y-101820311D01*
X128848636Y-101821117D01*
X128881549Y-101834751D01*
X129000160Y-101850366D01*
X129031391Y-101854478D01*
X129031393Y-101854478D01*
X129031395Y-101854478D01*
X129057238Y-101851075D01*
X129181237Y-101834751D01*
X129217882Y-101819572D01*
X129217883Y-101819572D01*
X129251053Y-101805832D01*
X129320870Y-101776913D01*
X129440775Y-101684907D01*
X129532781Y-101565002D01*
X129547960Y-101528356D01*
X129547961Y-101528356D01*
X129575440Y-101462014D01*
X129578301Y-101455107D01*
X129578302Y-101455102D01*
X129590619Y-101425369D01*
X129607480Y-101297294D01*
X129610346Y-101275527D01*
X129722440Y-101275527D01*
X129731170Y-101341840D01*
X129742089Y-101424780D01*
X129742167Y-101425367D01*
X129742167Y-101425369D01*
X129800005Y-101565002D01*
X129800006Y-101565004D01*
X129836305Y-101612309D01*
X129892011Y-101684907D01*
X129961390Y-101738143D01*
X130007990Y-101773901D01*
X130011916Y-101776913D01*
X130025755Y-101782645D01*
X130044636Y-101790466D01*
X130044640Y-101790469D01*
X130071627Y-101801646D01*
X130105661Y-101815743D01*
X130151549Y-101834751D01*
X130270160Y-101850366D01*
X130301391Y-101854478D01*
X130301393Y-101854478D01*
X130301395Y-101854478D01*
X130327238Y-101851075D01*
X130451237Y-101834751D01*
X130486805Y-101820016D01*
X130489016Y-101819310D01*
X130498557Y-101817116D01*
X131193726Y-101635253D01*
X131195047Y-101634976D01*
X131218642Y-101631240D01*
X131247356Y-101616608D01*
X131247914Y-101616340D01*
X131278377Y-101602648D01*
X131289330Y-101595328D01*
X131290731Y-101594508D01*
X131326035Y-101576520D01*
X131411263Y-101491292D01*
X131429248Y-101455991D01*
X131430071Y-101454587D01*
X131437391Y-101443634D01*
X131445205Y-101424765D01*
X131445652Y-101423796D01*
X131465983Y-101383899D01*
X131475427Y-101324264D01*
X131475508Y-101323810D01*
X131480095Y-101300757D01*
X131480095Y-101295901D01*
X131480267Y-101293711D01*
X131482018Y-101282655D01*
X131484838Y-101264852D01*
X131480266Y-101235990D01*
X131480095Y-101233801D01*
X131480095Y-101228951D01*
X131479061Y-101223753D01*
X131475513Y-101205919D01*
X131475427Y-101205437D01*
X131465983Y-101145805D01*
X131450384Y-101115192D01*
X131445653Y-101105906D01*
X131445193Y-101104907D01*
X131437392Y-101086072D01*
X131435453Y-101083171D01*
X131430075Y-101075122D01*
X131429253Y-101073719D01*
X131411263Y-101038412D01*
X131411262Y-101038410D01*
X131326036Y-100953184D01*
X131290737Y-100935198D01*
X131289316Y-100934365D01*
X131278380Y-100927058D01*
X131278374Y-100927055D01*
X131254704Y-100916808D01*
X131253910Y-100916434D01*
X131218643Y-100898464D01*
X131184519Y-100893059D01*
X131183544Y-100892868D01*
X130493609Y-100732712D01*
X130489115Y-100731743D01*
X130486711Y-100730992D01*
X130451240Y-100716300D01*
X130451238Y-100716299D01*
X130451237Y-100716299D01*
X130376315Y-100706435D01*
X130301395Y-100696572D01*
X130301391Y-100696572D01*
X130201497Y-100709723D01*
X130151549Y-100716299D01*
X130151548Y-100716299D01*
X130151545Y-100716300D01*
X130116179Y-100730949D01*
X130116176Y-100730949D01*
X130116177Y-100730950D01*
X130048564Y-100758957D01*
X130011916Y-100774137D01*
X130011914Y-100774138D01*
X129892011Y-100866143D01*
X129800006Y-100986046D01*
X129800005Y-100986048D01*
X129742167Y-101125680D01*
X129742167Y-101125682D01*
X129722440Y-101275522D01*
X129722440Y-101275527D01*
X129610346Y-101275527D01*
X129610346Y-101275522D01*
X129604479Y-101230958D01*
X129590619Y-101125681D01*
X129561845Y-101056216D01*
X129561844Y-101056214D01*
X129547435Y-101021426D01*
X129547429Y-101021414D01*
X129532781Y-100986050D01*
X129532779Y-100986046D01*
X129493762Y-100935198D01*
X129440775Y-100866143D01*
X129362167Y-100805825D01*
X129320872Y-100774138D01*
X129320870Y-100774137D01*
X129284224Y-100758957D01*
X129284224Y-100758956D01*
X129217882Y-100731478D01*
X129216709Y-100730992D01*
X129181237Y-100716299D01*
X129131289Y-100709723D01*
X129031395Y-100696572D01*
X129031391Y-100696572D01*
X128931497Y-100709723D01*
X128881549Y-100716299D01*
X128881548Y-100716299D01*
X128881545Y-100716300D01*
X128846139Y-100730965D01*
X128843609Y-100731743D01*
X128842766Y-100731916D01*
X128005948Y-100908726D01*
X128005242Y-100908856D01*
X127958452Y-100916268D01*
X127958450Y-100916269D01*
X127958448Y-100916269D01*
X127920054Y-100935831D01*
X127919134Y-100936259D01*
X127898717Y-100944860D01*
X127887774Y-100952170D01*
X127886354Y-100953002D01*
X127851057Y-100970988D01*
X127765831Y-101056214D01*
X127747848Y-101091507D01*
X127747015Y-101092928D01*
X127741250Y-101101557D01*
X127740245Y-101102561D01*
X127731891Y-101122727D01*
X127731431Y-101123724D01*
X127711112Y-101163605D01*
X127711111Y-101163608D01*
X127701670Y-101223212D01*
X127701573Y-101223753D01*
X127696999Y-101246754D01*
X127696999Y-101251605D01*
X127696827Y-101253794D01*
X127692256Y-101282656D01*
X126250000Y-101282656D01*
X126250000Y-100005527D01*
X128036642Y-100005527D01*
X128057555Y-100164373D01*
X128057555Y-100164375D01*
X128118869Y-100312400D01*
X128118870Y-100312402D01*
X128130242Y-100327222D01*
X128216406Y-100439512D01*
X128314032Y-100514423D01*
X128341311Y-100535356D01*
X128343518Y-100537049D01*
X128491543Y-100598363D01*
X128610508Y-100614025D01*
X128690278Y-100614025D01*
X128809243Y-100598363D01*
X128957268Y-100537049D01*
X129084380Y-100439512D01*
X129181917Y-100312401D01*
X129243231Y-100164375D01*
X129264144Y-100005527D01*
X130068642Y-100005527D01*
X130089555Y-100164373D01*
X130089555Y-100164375D01*
X130150869Y-100312400D01*
X130150870Y-100312402D01*
X130162242Y-100327222D01*
X130248406Y-100439512D01*
X130346032Y-100514423D01*
X130373311Y-100535356D01*
X130375518Y-100537049D01*
X130523543Y-100598363D01*
X130642508Y-100614025D01*
X130722278Y-100614025D01*
X130841243Y-100598363D01*
X130989268Y-100537049D01*
X131116380Y-100439512D01*
X131213917Y-100312401D01*
X131275231Y-100164375D01*
X131296144Y-100005525D01*
X131275231Y-99846675D01*
X131213917Y-99698650D01*
X131213915Y-99698648D01*
X131213915Y-99698647D01*
X131191291Y-99669164D01*
X131116380Y-99571538D01*
X131041467Y-99514055D01*
X130989270Y-99474002D01*
X130989268Y-99474001D01*
X130841243Y-99412687D01*
X130811501Y-99408771D01*
X130722281Y-99397025D01*
X130722278Y-99397025D01*
X130642508Y-99397025D01*
X130642504Y-99397025D01*
X130547336Y-99409554D01*
X130523543Y-99412687D01*
X130523542Y-99412687D01*
X130375517Y-99474001D01*
X130375515Y-99474002D01*
X130248406Y-99571538D01*
X130150870Y-99698646D01*
X130150869Y-99698648D01*
X130089555Y-99846674D01*
X130089555Y-99846676D01*
X130068642Y-100005522D01*
X130068642Y-100005527D01*
X129264144Y-100005527D01*
X129264144Y-100005525D01*
X129243231Y-99846675D01*
X129181917Y-99698650D01*
X129181915Y-99698648D01*
X129181915Y-99698647D01*
X129159291Y-99669164D01*
X129084380Y-99571538D01*
X129009467Y-99514055D01*
X128957270Y-99474002D01*
X128957268Y-99474001D01*
X128809243Y-99412687D01*
X128779501Y-99408771D01*
X128690281Y-99397025D01*
X128690278Y-99397025D01*
X128610508Y-99397025D01*
X128610504Y-99397025D01*
X128515336Y-99409554D01*
X128491543Y-99412687D01*
X128491542Y-99412687D01*
X128343517Y-99474001D01*
X128343515Y-99474002D01*
X128216406Y-99571538D01*
X128118870Y-99698646D01*
X128118869Y-99698648D01*
X128057555Y-99846674D01*
X128057555Y-99846676D01*
X128036642Y-100005522D01*
X128036642Y-100005527D01*
X126250000Y-100005527D01*
X126250000Y-99014000D01*
X126254101Y-99004101D01*
X126264000Y-99000000D01*
X131906869Y-99000000D01*
X131916768Y-99004101D01*
G37*
%TD.AperFunction*%
%TD*%
%TA.AperFunction,Conductor*%
%TO.N,QVAR2*%
G36*
X142545992Y-99004101D02*
G01*
X142550093Y-99014000D01*
X142545992Y-99023899D01*
X142545377Y-99024479D01*
X142508355Y-99057276D01*
X142508354Y-99057278D01*
X142414478Y-99193281D01*
X142388893Y-99260742D01*
X142388737Y-99261134D01*
X142379019Y-99284596D01*
X142379016Y-99284606D01*
X142378330Y-99288052D01*
X142377690Y-99290281D01*
X142355878Y-99347793D01*
X142355878Y-99347796D01*
X142335959Y-99511847D01*
X142335959Y-99511848D01*
X142338012Y-99528762D01*
X142338096Y-99529732D01*
X142435765Y-101433791D01*
X142435611Y-101436694D01*
X142435111Y-101439856D01*
X142435111Y-101439857D01*
X142436432Y-101448201D01*
X142436550Y-101449163D01*
X142436560Y-101449281D01*
X142439853Y-101475750D01*
X142439856Y-101475771D01*
X142444424Y-101498734D01*
X142444521Y-101499275D01*
X142453966Y-101558905D01*
X142474293Y-101598801D01*
X142474753Y-101599799D01*
X142479994Y-101612449D01*
X142482558Y-101618639D01*
X142482559Y-101618640D01*
X142489865Y-101629574D01*
X142490699Y-101630996D01*
X142508686Y-101666299D01*
X142525115Y-101682728D01*
X142525912Y-101683525D01*
X142525913Y-101683526D01*
X142551522Y-101709134D01*
X142593914Y-101751526D01*
X142629214Y-101769511D01*
X142630630Y-101770342D01*
X142641574Y-101777655D01*
X142641580Y-101777657D01*
X142641581Y-101777658D01*
X142660412Y-101785458D01*
X142661411Y-101785918D01*
X142678964Y-101794861D01*
X142701307Y-101806246D01*
X142760939Y-101815690D01*
X142761421Y-101815776D01*
X142784452Y-101820358D01*
X142789304Y-101820358D01*
X142791493Y-101820529D01*
X142820354Y-101825101D01*
X142849214Y-101820529D01*
X142851404Y-101820358D01*
X142856257Y-101820358D01*
X142856259Y-101820358D01*
X142879312Y-101815771D01*
X142879766Y-101815690D01*
X142939401Y-101806246D01*
X142979292Y-101785919D01*
X142980289Y-101785461D01*
X142991368Y-101780872D01*
X142999135Y-101777655D01*
X143010097Y-101770329D01*
X143011493Y-101769512D01*
X143046794Y-101751526D01*
X143063219Y-101735099D01*
X143063233Y-101735088D01*
X143064020Y-101734301D01*
X143064022Y-101734300D01*
X143114797Y-101683524D01*
X143115593Y-101682728D01*
X143115601Y-101682718D01*
X143120843Y-101677476D01*
X143132022Y-101666298D01*
X143150009Y-101630996D01*
X143150828Y-101629596D01*
X143158151Y-101618639D01*
X143172179Y-101587514D01*
X143172449Y-101586954D01*
X143174986Y-101581975D01*
X143186742Y-101558905D01*
X143190382Y-101535916D01*
X143190666Y-101534570D01*
X143516147Y-100300603D01*
X143522636Y-100292080D01*
X143533254Y-100290640D01*
X143541780Y-100297130D01*
X143543630Y-100302955D01*
X143576613Y-100679437D01*
X143576494Y-100682846D01*
X143576440Y-100683187D01*
X143576440Y-100683188D01*
X143577486Y-100689797D01*
X143577604Y-100690763D01*
X143578345Y-100699212D01*
X143578351Y-100699266D01*
X143581183Y-100719090D01*
X143585756Y-100742085D01*
X143585853Y-100742626D01*
X143595295Y-100802236D01*
X143615619Y-100842125D01*
X143616079Y-100843123D01*
X143623885Y-100861969D01*
X143624217Y-100862465D01*
X143631200Y-100872914D01*
X143632029Y-100874329D01*
X143650015Y-100909630D01*
X143666443Y-100926058D01*
X143667240Y-100926855D01*
X143667241Y-100926856D01*
X143693340Y-100952954D01*
X143735243Y-100994857D01*
X143770545Y-101012843D01*
X143771956Y-101013671D01*
X143782902Y-101020985D01*
X143801728Y-101028783D01*
X143801740Y-101028788D01*
X143802734Y-101029246D01*
X143842636Y-101049577D01*
X143902293Y-101059025D01*
X143902765Y-101059109D01*
X143925780Y-101063688D01*
X143930626Y-101063688D01*
X143932815Y-101063859D01*
X143961683Y-101068432D01*
X143990550Y-101063859D01*
X143992740Y-101063688D01*
X143997586Y-101063688D01*
X143997587Y-101063688D01*
X144020606Y-101059108D01*
X144021071Y-101059025D01*
X144080730Y-101049577D01*
X144120636Y-101029242D01*
X144121609Y-101028793D01*
X144140463Y-101020985D01*
X144151421Y-101013662D01*
X144152811Y-101012849D01*
X144188123Y-100994857D01*
X144273351Y-100909629D01*
X144291343Y-100874317D01*
X144292160Y-100872921D01*
X144299479Y-100861969D01*
X144314492Y-100834783D01*
X144422772Y-100592373D01*
X145083701Y-100592373D01*
X145102408Y-100698469D01*
X145156274Y-100791769D01*
X145156276Y-100791771D01*
X145156277Y-100791772D01*
X145238807Y-100861023D01*
X145340046Y-100897871D01*
X145340047Y-100897871D01*
X145447781Y-100897871D01*
X145447782Y-100897871D01*
X145549021Y-100861023D01*
X145631551Y-100791772D01*
X145685419Y-100698470D01*
X145704127Y-100592371D01*
X145704127Y-100592368D01*
X145685419Y-100486272D01*
X145631553Y-100392972D01*
X145631551Y-100392970D01*
X145549021Y-100323719D01*
X145498401Y-100305295D01*
X145447783Y-100286871D01*
X145447782Y-100286871D01*
X145340046Y-100286871D01*
X145340044Y-100286871D01*
X145238808Y-100323719D01*
X145156274Y-100392972D01*
X145102408Y-100486272D01*
X145083701Y-100592368D01*
X145083701Y-100592373D01*
X144422772Y-100592373D01*
X144713608Y-99941268D01*
X144967150Y-99941268D01*
X144985857Y-100047364D01*
X145039723Y-100140664D01*
X145039725Y-100140666D01*
X145039726Y-100140667D01*
X145122256Y-100209918D01*
X145223495Y-100246766D01*
X145223496Y-100246766D01*
X145331230Y-100246766D01*
X145331231Y-100246766D01*
X145432470Y-100209918D01*
X145515000Y-100140667D01*
X145568868Y-100047365D01*
X145577842Y-99996469D01*
X145587576Y-99941268D01*
X146262619Y-99941268D01*
X146281326Y-100047364D01*
X146335192Y-100140664D01*
X146335194Y-100140666D01*
X146335195Y-100140667D01*
X146417725Y-100209918D01*
X146518964Y-100246766D01*
X146518965Y-100246766D01*
X146626699Y-100246766D01*
X146626700Y-100246766D01*
X146727939Y-100209918D01*
X146810469Y-100140667D01*
X146864337Y-100047365D01*
X146873311Y-99996469D01*
X146883045Y-99941268D01*
X146883045Y-99941263D01*
X146864337Y-99835167D01*
X146810471Y-99741867D01*
X146806132Y-99738226D01*
X146727939Y-99672614D01*
X146676641Y-99653943D01*
X146626701Y-99635766D01*
X146626700Y-99635766D01*
X146518964Y-99635766D01*
X146518962Y-99635766D01*
X146417726Y-99672614D01*
X146335192Y-99741867D01*
X146281326Y-99835167D01*
X146262619Y-99941263D01*
X146262619Y-99941268D01*
X145587576Y-99941268D01*
X145587576Y-99941263D01*
X145568868Y-99835167D01*
X145515002Y-99741867D01*
X145510663Y-99738226D01*
X145432470Y-99672614D01*
X145381172Y-99653943D01*
X145331232Y-99635766D01*
X145331231Y-99635766D01*
X145223495Y-99635766D01*
X145223493Y-99635766D01*
X145122257Y-99672614D01*
X145039723Y-99741867D01*
X144985857Y-99835167D01*
X144967150Y-99941263D01*
X144967150Y-99941268D01*
X144713608Y-99941268D01*
X144764224Y-99827953D01*
X144765487Y-99825710D01*
X144765617Y-99825523D01*
X144767203Y-99821336D01*
X144767492Y-99820635D01*
X144788613Y-99773355D01*
X144801079Y-99734201D01*
X144801765Y-99730746D01*
X144802402Y-99728527D01*
X144824218Y-99671006D01*
X144844137Y-99506956D01*
X144839598Y-99469577D01*
X145614885Y-99469577D01*
X145633592Y-99575673D01*
X145687458Y-99668973D01*
X145687460Y-99668975D01*
X145687461Y-99668976D01*
X145769991Y-99738227D01*
X145871230Y-99775075D01*
X145871231Y-99775075D01*
X145978965Y-99775075D01*
X145978966Y-99775075D01*
X146080205Y-99738227D01*
X146162735Y-99668976D01*
X146165825Y-99663625D01*
X146181909Y-99635766D01*
X146216603Y-99575674D01*
X146222839Y-99540307D01*
X146235311Y-99469577D01*
X146235311Y-99469572D01*
X146234369Y-99464229D01*
X147044074Y-99464229D01*
X147062781Y-99570325D01*
X147116647Y-99663625D01*
X147116649Y-99663627D01*
X147116650Y-99663628D01*
X147199180Y-99732879D01*
X147300419Y-99769727D01*
X147300420Y-99769727D01*
X147408154Y-99769727D01*
X147408155Y-99769727D01*
X147509394Y-99732879D01*
X147591924Y-99663628D01*
X147597514Y-99653947D01*
X147604896Y-99641160D01*
X148142641Y-99641160D01*
X148161348Y-99747256D01*
X148215214Y-99840556D01*
X148215216Y-99840558D01*
X148215217Y-99840559D01*
X148297747Y-99909810D01*
X148398986Y-99946658D01*
X148398987Y-99946658D01*
X148506721Y-99946658D01*
X148506722Y-99946658D01*
X148607961Y-99909810D01*
X148690491Y-99840559D01*
X148697765Y-99827961D01*
X148729294Y-99773350D01*
X148744359Y-99747257D01*
X148750671Y-99711459D01*
X148763067Y-99641160D01*
X148961607Y-99641160D01*
X148980314Y-99747256D01*
X149034180Y-99840556D01*
X149034182Y-99840558D01*
X149034183Y-99840559D01*
X149116713Y-99909810D01*
X149217952Y-99946658D01*
X149217953Y-99946658D01*
X149325687Y-99946658D01*
X149325688Y-99946658D01*
X149426927Y-99909810D01*
X149509457Y-99840559D01*
X149516731Y-99827961D01*
X149548260Y-99773350D01*
X149563325Y-99747257D01*
X149569637Y-99711459D01*
X149582033Y-99641160D01*
X149582033Y-99641155D01*
X149563325Y-99535059D01*
X149509459Y-99441759D01*
X149509457Y-99441757D01*
X149426927Y-99372506D01*
X149376307Y-99354082D01*
X149325689Y-99335658D01*
X149325688Y-99335658D01*
X149217952Y-99335658D01*
X149217950Y-99335658D01*
X149116714Y-99372506D01*
X149034180Y-99441759D01*
X148980314Y-99535059D01*
X148961607Y-99641155D01*
X148961607Y-99641160D01*
X148763067Y-99641160D01*
X148763067Y-99641155D01*
X148744359Y-99535059D01*
X148690493Y-99441759D01*
X148690491Y-99441757D01*
X148607961Y-99372506D01*
X148557341Y-99354082D01*
X148506723Y-99335658D01*
X148506722Y-99335658D01*
X148398986Y-99335658D01*
X148398984Y-99335658D01*
X148297748Y-99372506D01*
X148215214Y-99441759D01*
X148161348Y-99535059D01*
X148142641Y-99641155D01*
X148142641Y-99641160D01*
X147604896Y-99641160D01*
X147642704Y-99575674D01*
X147645792Y-99570326D01*
X147657220Y-99505516D01*
X147664500Y-99464229D01*
X147664500Y-99464224D01*
X147645792Y-99358128D01*
X147591926Y-99264828D01*
X147587275Y-99260925D01*
X147509394Y-99195575D01*
X147458774Y-99177151D01*
X147408156Y-99158727D01*
X147408155Y-99158727D01*
X147300419Y-99158727D01*
X147300417Y-99158727D01*
X147199181Y-99195575D01*
X147116647Y-99264828D01*
X147062781Y-99358128D01*
X147044074Y-99464224D01*
X147044074Y-99464229D01*
X146234369Y-99464229D01*
X146216603Y-99363476D01*
X146162737Y-99270176D01*
X146162735Y-99270174D01*
X146080205Y-99200923D01*
X145998891Y-99171327D01*
X145978967Y-99164075D01*
X145978966Y-99164075D01*
X145871230Y-99164075D01*
X145871228Y-99164075D01*
X145769992Y-99200923D01*
X145687458Y-99270176D01*
X145633592Y-99363476D01*
X145614885Y-99469572D01*
X145614885Y-99469577D01*
X144839598Y-99469577D01*
X144824218Y-99342906D01*
X144802401Y-99285380D01*
X144801767Y-99283170D01*
X144801079Y-99279711D01*
X144801079Y-99279710D01*
X144791335Y-99256186D01*
X144791189Y-99255818D01*
X144790782Y-99254745D01*
X144765617Y-99188389D01*
X144671742Y-99052387D01*
X144671741Y-99052386D01*
X144671740Y-99052384D01*
X144640241Y-99024479D01*
X144635551Y-99014845D01*
X144639046Y-99004716D01*
X144648680Y-99000026D01*
X144649525Y-99000000D01*
X150000426Y-99000000D01*
X150010325Y-99004101D01*
X150014426Y-99014000D01*
X150010325Y-99023899D01*
X150009710Y-99024479D01*
X149997470Y-99035322D01*
X149997469Y-99035323D01*
X149903593Y-99171326D01*
X149878000Y-99238809D01*
X149877844Y-99239201D01*
X149868135Y-99262641D01*
X149868132Y-99262651D01*
X149867447Y-99266092D01*
X149866807Y-99268321D01*
X149844993Y-99325838D01*
X149844993Y-99325841D01*
X149825074Y-99489892D01*
X149825074Y-99489893D01*
X149844993Y-99653944D01*
X149844993Y-99653947D01*
X149866805Y-99711459D01*
X149867445Y-99713685D01*
X149868133Y-99717137D01*
X149868135Y-99717143D01*
X149877845Y-99740587D01*
X149878001Y-99740979D01*
X149903593Y-99808459D01*
X149997469Y-99944462D01*
X149997470Y-99944464D01*
X150043613Y-99985343D01*
X150044228Y-99985923D01*
X150054774Y-99996469D01*
X150059668Y-99999738D01*
X150061175Y-100000900D01*
X150121161Y-100054044D01*
X150121163Y-100054045D01*
X150121165Y-100054047D01*
X150121167Y-100054048D01*
X150121170Y-100054050D01*
X150212726Y-100102101D01*
X150213985Y-100102848D01*
X150216986Y-100104854D01*
X150216993Y-100104857D01*
X150222275Y-100107155D01*
X150223187Y-100107592D01*
X150244229Y-100118636D01*
X150267492Y-100130846D01*
X150386713Y-100160230D01*
X150427944Y-100170393D01*
X150442457Y-100170393D01*
X150445672Y-100170767D01*
X150448533Y-100171442D01*
X150457226Y-100177706D01*
X150458944Y-100188283D01*
X150452680Y-100196976D01*
X150447772Y-100198851D01*
X149307576Y-100401883D01*
X149307230Y-100401914D01*
X149304720Y-100402362D01*
X149299858Y-100402371D01*
X149299611Y-100402327D01*
X149253016Y-100411596D01*
X149252739Y-100411648D01*
X149232104Y-100415322D01*
X149232092Y-100415325D01*
X149230817Y-100415807D01*
X149228599Y-100416441D01*
X149199832Y-100422146D01*
X149199831Y-100422146D01*
X149198799Y-100422351D01*
X149198524Y-100422430D01*
X149180827Y-100425949D01*
X149180528Y-100426014D01*
X149174854Y-100427144D01*
X149170959Y-100428705D01*
X149169605Y-100429169D01*
X149147017Y-100435633D01*
X149144195Y-100436135D01*
X149135388Y-100436784D01*
X149106256Y-100450614D01*
X149105929Y-100450763D01*
X149088504Y-100459042D01*
X149088500Y-100459044D01*
X147814877Y-101063688D01*
X147734235Y-101101972D01*
X147728231Y-101103325D01*
X147688057Y-101103325D01*
X147586820Y-101140173D01*
X147550926Y-101170291D01*
X147540706Y-101173513D01*
X147532928Y-101170291D01*
X147497034Y-101140173D01*
X147395796Y-101103325D01*
X147395795Y-101103325D01*
X147288059Y-101103325D01*
X147288057Y-101103325D01*
X147186821Y-101140173D01*
X147104287Y-101209426D01*
X147050421Y-101302726D01*
X147031714Y-101408822D01*
X147031714Y-101408827D01*
X147050421Y-101514923D01*
X147104287Y-101608223D01*
X147104289Y-101608225D01*
X147104290Y-101608226D01*
X147186820Y-101677477D01*
X147288059Y-101714325D01*
X147288060Y-101714325D01*
X147395794Y-101714325D01*
X147395795Y-101714325D01*
X147429197Y-101702167D01*
X147439900Y-101702635D01*
X147447140Y-101710534D01*
X147447771Y-101717756D01*
X147447142Y-101721320D01*
X147446296Y-101724229D01*
X147445942Y-101725084D01*
X147445941Y-101725089D01*
X147436427Y-101772921D01*
X147436427Y-101780872D01*
X147436214Y-101783303D01*
X147431714Y-101808823D01*
X147431714Y-101808826D01*
X147436214Y-101834345D01*
X147436427Y-101836776D01*
X147436427Y-101844727D01*
X147445673Y-101891211D01*
X147445673Y-101891213D01*
X147445942Y-101892566D01*
X147446293Y-101893414D01*
X147447144Y-101896337D01*
X147450421Y-101914923D01*
X147466883Y-101943437D01*
X147467693Y-101945078D01*
X147473424Y-101958911D01*
X147490772Y-101984873D01*
X147491256Y-101985651D01*
X147504288Y-102008223D01*
X147504290Y-102008226D01*
X147534875Y-102033891D01*
X147535775Y-102034715D01*
X147551296Y-102050235D01*
X147565672Y-102059840D01*
X147566894Y-102060756D01*
X147586820Y-102077477D01*
X147601024Y-102082646D01*
X147603044Y-102083570D01*
X147612366Y-102088765D01*
X147617737Y-102091759D01*
X147617745Y-102091763D01*
X147804900Y-102177095D01*
X149102938Y-102768926D01*
X149130796Y-102779007D01*
X150438538Y-103136205D01*
X151012420Y-103292956D01*
X151012425Y-103292957D01*
X151012439Y-103292961D01*
X151025026Y-103295928D01*
X151032182Y-103297351D01*
X151032192Y-103297353D01*
X151034250Y-103297928D01*
X151044775Y-103301758D01*
X151054897Y-103305443D01*
X151054898Y-103305443D01*
X151162634Y-103305443D01*
X151162637Y-103305442D01*
X151183278Y-103297928D01*
X151185318Y-103297356D01*
X151191160Y-103296195D01*
X151191162Y-103296195D01*
X151192505Y-103295928D01*
X151219273Y-103284839D01*
X151219755Y-103284651D01*
X151263872Y-103268595D01*
X151283806Y-103251867D01*
X151285011Y-103250964D01*
X151299396Y-103241353D01*
X151299395Y-103241353D01*
X151299399Y-103241351D01*
X151314928Y-103225820D01*
X151315804Y-103225017D01*
X151346402Y-103199344D01*
X151359456Y-103176731D01*
X151359906Y-103176007D01*
X151377270Y-103150024D01*
X151377270Y-103150023D01*
X151377270Y-103150022D01*
X151377346Y-103149909D01*
X151377536Y-103149380D01*
X151382993Y-103136205D01*
X151383803Y-103134562D01*
X151388105Y-103127111D01*
X151400270Y-103106042D01*
X151403547Y-103087455D01*
X151404402Y-103084522D01*
X151404474Y-103084345D01*
X151404750Y-103083682D01*
X151414265Y-103035847D01*
X151414265Y-103027894D01*
X151414478Y-103025463D01*
X151418978Y-102999944D01*
X151418978Y-102999941D01*
X151414478Y-102974421D01*
X151414265Y-102971990D01*
X151414265Y-102964040D01*
X151405019Y-102917554D01*
X151405019Y-102917553D01*
X151404751Y-102916206D01*
X151404750Y-102916203D01*
X151404750Y-102916202D01*
X151404398Y-102915354D01*
X151403548Y-102912438D01*
X151400270Y-102893844D01*
X151383807Y-102865329D01*
X151382997Y-102863687D01*
X151382194Y-102861749D01*
X151377270Y-102849861D01*
X151377268Y-102849858D01*
X151377268Y-102849857D01*
X151359918Y-102823893D01*
X151359445Y-102823135D01*
X151346402Y-102800542D01*
X151346400Y-102800540D01*
X151315815Y-102774875D01*
X151314915Y-102774051D01*
X151299393Y-102758530D01*
X151285018Y-102748926D01*
X151283796Y-102748009D01*
X151263875Y-102731292D01*
X151263872Y-102731291D01*
X151233551Y-102720255D01*
X151232692Y-102719910D01*
X151200570Y-102705751D01*
X151180112Y-102700717D01*
X151178669Y-102700279D01*
X151162634Y-102694443D01*
X151162633Y-102694443D01*
X151156309Y-102694443D01*
X151152964Y-102694037D01*
X150742799Y-102593100D01*
X149645273Y-102323010D01*
X149636641Y-102316664D01*
X149634832Y-102306986D01*
X149652140Y-102208826D01*
X149652140Y-102208822D01*
X149633432Y-102102726D01*
X149583260Y-102015825D01*
X149581861Y-102005202D01*
X149583260Y-102001825D01*
X149606609Y-101961382D01*
X149633432Y-101914924D01*
X149639668Y-101879557D01*
X149652140Y-101808827D01*
X149652140Y-101808822D01*
X149633432Y-101702726D01*
X149583260Y-101615825D01*
X149581861Y-101605202D01*
X149583260Y-101601825D01*
X149603062Y-101567525D01*
X149633432Y-101514924D01*
X149645007Y-101449281D01*
X149652140Y-101408827D01*
X149652140Y-101408822D01*
X149633432Y-101302726D01*
X149583260Y-101215825D01*
X149581861Y-101205202D01*
X149583260Y-101201825D01*
X149603062Y-101167525D01*
X149633432Y-101114924D01*
X149643289Y-101059020D01*
X149652140Y-101008827D01*
X149652140Y-101008823D01*
X149637732Y-100927113D01*
X149640051Y-100916652D01*
X149649063Y-100910900D01*
X151030165Y-100664970D01*
X151037407Y-100665596D01*
X151054158Y-100671694D01*
X151161894Y-100671694D01*
X151195020Y-100659636D01*
X151205725Y-100660104D01*
X151212965Y-100668003D01*
X151213480Y-100669773D01*
X151262209Y-100890439D01*
X151260339Y-100900990D01*
X151251557Y-100907129D01*
X151242183Y-100905932D01*
X151227076Y-100898235D01*
X151227074Y-100898234D01*
X151108026Y-100879379D01*
X150988978Y-100898234D01*
X150881584Y-100952954D01*
X150796358Y-101038180D01*
X150741638Y-101145574D01*
X150722783Y-101264622D01*
X150741638Y-101383669D01*
X150796358Y-101491063D01*
X150881584Y-101576289D01*
X150881586Y-101576290D01*
X150988979Y-101631010D01*
X151108026Y-101649865D01*
X151227073Y-101631010D01*
X151334466Y-101576290D01*
X151359286Y-101551468D01*
X151369183Y-101547368D01*
X151481263Y-101548327D01*
X151491039Y-101552426D01*
X151506741Y-101568128D01*
X151542034Y-101586111D01*
X151543446Y-101586938D01*
X151554400Y-101594257D01*
X151566137Y-101599119D01*
X151573252Y-101602066D01*
X151574246Y-101602524D01*
X151614134Y-101622848D01*
X151673733Y-101632287D01*
X151674216Y-101632373D01*
X151697277Y-101636961D01*
X151702137Y-101636961D01*
X151704326Y-101637132D01*
X151733181Y-101641703D01*
X151762035Y-101637132D01*
X151764225Y-101636961D01*
X151769082Y-101636961D01*
X151769084Y-101636961D01*
X151792156Y-101632370D01*
X151792610Y-101632289D01*
X151852228Y-101622848D01*
X151870050Y-101613766D01*
X151880728Y-101612926D01*
X151888877Y-101619884D01*
X151890379Y-101625425D01*
X151909045Y-101945027D01*
X151908898Y-101948027D01*
X151908482Y-101950659D01*
X151909789Y-101958916D01*
X151909937Y-101960282D01*
X151910001Y-101961382D01*
X151910002Y-101961389D01*
X151913108Y-101985651D01*
X151913225Y-101986560D01*
X151913226Y-101986567D01*
X151917799Y-102009560D01*
X151917896Y-102010101D01*
X151927337Y-102069706D01*
X151947661Y-102109595D01*
X151948121Y-102110593D01*
X151955929Y-102129442D01*
X151963241Y-102140386D01*
X151964074Y-102141807D01*
X151982057Y-102177100D01*
X152067283Y-102262326D01*
X152067285Y-102262327D01*
X152102588Y-102280314D01*
X152103991Y-102281137D01*
X152112628Y-102286908D01*
X152113633Y-102287913D01*
X152114943Y-102288455D01*
X152114943Y-102288456D01*
X152133786Y-102296261D01*
X152133796Y-102296265D01*
X152134790Y-102296723D01*
X152174678Y-102317047D01*
X152234310Y-102326491D01*
X152234782Y-102326575D01*
X152257822Y-102331159D01*
X152262675Y-102331159D01*
X152264864Y-102331330D01*
X152293725Y-102335902D01*
X152322585Y-102331330D01*
X152324775Y-102331159D01*
X152329628Y-102331159D01*
X152329629Y-102331159D01*
X152352673Y-102326574D01*
X152353137Y-102326491D01*
X152412772Y-102317047D01*
X152452673Y-102296714D01*
X152453642Y-102296267D01*
X152472506Y-102288455D01*
X152483456Y-102281137D01*
X152484860Y-102280314D01*
X152520165Y-102262327D01*
X152605393Y-102177099D01*
X152623379Y-102141796D01*
X152624206Y-102140386D01*
X152630893Y-102130380D01*
X152631395Y-102129745D01*
X152631520Y-102129441D01*
X152631522Y-102129441D01*
X152639338Y-102110568D01*
X152639789Y-102109593D01*
X152660113Y-102069706D01*
X152669558Y-102010063D01*
X152669639Y-102009609D01*
X152674225Y-101986562D01*
X152674776Y-101977526D01*
X152674919Y-101976221D01*
X152678968Y-101950659D01*
X152677366Y-101940554D01*
X152677222Y-101937504D01*
X152677253Y-101936999D01*
X152677252Y-101936980D01*
X152675609Y-101914924D01*
X152496620Y-99511745D01*
X152496683Y-99509017D01*
X152497109Y-99505517D01*
X152477190Y-99341467D01*
X152455373Y-99283941D01*
X152454739Y-99281731D01*
X152454051Y-99278272D01*
X152454051Y-99278271D01*
X152444306Y-99254745D01*
X152444161Y-99254379D01*
X152442134Y-99249035D01*
X152418589Y-99186950D01*
X152324714Y-99050948D01*
X152294837Y-99024479D01*
X152290147Y-99014845D01*
X152293642Y-99004716D01*
X152303276Y-99000026D01*
X152304121Y-99000000D01*
X152736000Y-99000000D01*
X152745899Y-99004101D01*
X152750000Y-99014000D01*
X152750000Y-107382162D01*
X152745899Y-107392061D01*
X152736000Y-107396162D01*
X152726716Y-107392641D01*
X152718051Y-107384964D01*
X152717436Y-107384384D01*
X152706913Y-107373861D01*
X152706909Y-107373858D01*
X152706908Y-107373857D01*
X152702025Y-107370594D01*
X152700519Y-107369433D01*
X152640520Y-107316278D01*
X152640511Y-107316272D01*
X152548948Y-107268217D01*
X152547675Y-107267461D01*
X152544696Y-107265470D01*
X152540621Y-107263782D01*
X152539474Y-107263244D01*
X152494189Y-107239476D01*
X152333740Y-107199930D01*
X152333738Y-107199930D01*
X152168482Y-107199930D01*
X152168479Y-107199930D01*
X152008030Y-107239476D01*
X151962748Y-107263242D01*
X151961602Y-107263779D01*
X151957523Y-107265469D01*
X151954533Y-107267466D01*
X151953266Y-107268218D01*
X151861708Y-107316272D01*
X151861695Y-107316281D01*
X151801706Y-107369425D01*
X151800205Y-107370584D01*
X151795312Y-107373855D01*
X151784765Y-107384401D01*
X151784150Y-107384980D01*
X151738008Y-107425858D01*
X151738007Y-107425860D01*
X151644131Y-107561863D01*
X151618549Y-107629316D01*
X151618405Y-107629677D01*
X151608670Y-107653184D01*
X151608670Y-107653185D01*
X151607981Y-107656642D01*
X151607341Y-107658867D01*
X151585531Y-107716375D01*
X151585531Y-107716378D01*
X151565612Y-107880429D01*
X151565612Y-107880430D01*
X151566654Y-107889021D01*
X151566752Y-107891054D01*
X151559549Y-108181448D01*
X151555204Y-108191243D01*
X151545553Y-108195101D01*
X151461853Y-108195101D01*
X151360616Y-108231949D01*
X151288877Y-108292145D01*
X151278658Y-108295367D01*
X151270879Y-108292145D01*
X151199140Y-108231949D01*
X151148520Y-108213525D01*
X151097902Y-108195101D01*
X151097901Y-108195101D01*
X150990165Y-108195101D01*
X150990163Y-108195101D01*
X150888927Y-108231949D01*
X150806393Y-108301202D01*
X150752527Y-108394502D01*
X150733820Y-108500598D01*
X150733820Y-108500603D01*
X150752527Y-108606699D01*
X150806393Y-108699999D01*
X150806395Y-108700001D01*
X150806396Y-108700002D01*
X150888926Y-108769253D01*
X150990165Y-108806101D01*
X150990166Y-108806101D01*
X151097900Y-108806101D01*
X151097901Y-108806101D01*
X151150462Y-108786970D01*
X151161165Y-108787438D01*
X151168405Y-108795338D01*
X151167937Y-108806042D01*
X151165396Y-108809771D01*
X151143502Y-108832804D01*
X151143501Y-108832806D01*
X151076303Y-108933374D01*
X151076295Y-108933387D01*
X151063282Y-108956247D01*
X150486624Y-110162442D01*
X150478654Y-110169604D01*
X150469205Y-110169559D01*
X150368966Y-110133075D01*
X150368965Y-110133075D01*
X150287271Y-110133075D01*
X150277372Y-110128974D01*
X150273484Y-110121506D01*
X150266602Y-110082476D01*
X150212736Y-109989176D01*
X150193611Y-109973128D01*
X150130204Y-109919923D01*
X150069416Y-109897798D01*
X150028966Y-109883075D01*
X150028965Y-109883075D01*
X149921229Y-109883075D01*
X149921227Y-109883075D01*
X149819991Y-109919923D01*
X149737457Y-109989176D01*
X149683591Y-110082476D01*
X149664884Y-110188572D01*
X149664884Y-110188577D01*
X149683591Y-110294673D01*
X149737457Y-110387973D01*
X149737459Y-110387975D01*
X149737460Y-110387976D01*
X149783498Y-110426606D01*
X149788446Y-110436111D01*
X149785224Y-110446330D01*
X149784398Y-110447230D01*
X149768945Y-110462683D01*
X149768045Y-110463508D01*
X149737460Y-110489173D01*
X149737458Y-110489176D01*
X149724426Y-110511747D01*
X149723943Y-110512524D01*
X149706591Y-110538497D01*
X149706585Y-110538506D01*
X149688192Y-110573772D01*
X149687690Y-110575059D01*
X149686776Y-110576960D01*
X149683592Y-110582474D01*
X149683591Y-110582479D01*
X149682842Y-110586717D01*
X149682096Y-110589374D01*
X149530935Y-110976330D01*
X149528314Y-110985900D01*
X149527507Y-110988101D01*
X149518965Y-111006483D01*
X149518958Y-111006501D01*
X149517226Y-111011805D01*
X149515352Y-111015536D01*
X149510487Y-111022421D01*
X149510485Y-111022426D01*
X149502100Y-111064580D01*
X149502093Y-111064592D01*
X149501017Y-111070026D01*
X149501015Y-111070037D01*
X149486972Y-111140637D01*
X149486960Y-111140724D01*
X149483818Y-111188537D01*
X149483818Y-111188539D01*
X149484571Y-111200079D01*
X149484256Y-111204079D01*
X149482269Y-111212865D01*
X149482268Y-111212868D01*
X149490977Y-111256647D01*
X149490977Y-111256651D01*
X149490978Y-111256651D01*
X149491612Y-111259842D01*
X149491613Y-111259846D01*
X149492182Y-111262715D01*
X149492189Y-111262763D01*
X149492384Y-111263744D01*
X149492384Y-111263746D01*
X149495101Y-111277401D01*
X149495100Y-111277401D01*
X149495101Y-111277403D01*
X149500618Y-111305162D01*
X149500627Y-111305191D01*
X149501134Y-111307738D01*
X149501134Y-111307739D01*
X149505810Y-111331235D01*
X149521216Y-111376605D01*
X149521219Y-111376611D01*
X149521220Y-111376614D01*
X149521221Y-111376618D01*
X149526317Y-111386950D01*
X149527558Y-111390768D01*
X149529080Y-111399618D01*
X149542191Y-111419241D01*
X149542234Y-111419309D01*
X149553083Y-111435541D01*
X149580616Y-111476746D01*
X149580617Y-111476749D01*
X149580618Y-111476749D01*
X149588545Y-111488618D01*
X149588551Y-111488623D01*
X149596068Y-111499871D01*
X149596101Y-111499915D01*
X149627685Y-111535940D01*
X149636383Y-111543571D01*
X149638989Y-111546623D01*
X149643794Y-111554237D01*
X149643795Y-111554237D01*
X149643796Y-111554239D01*
X149685797Y-111582303D01*
X149685872Y-111582365D01*
X149710415Y-111598755D01*
X149710418Y-111598759D01*
X149710419Y-111598758D01*
X149719412Y-111604768D01*
X149719429Y-111604793D01*
X149724232Y-111608000D01*
X149724232Y-111608001D01*
X149744159Y-111621310D01*
X149787148Y-111642495D01*
X149787154Y-111642497D01*
X149798043Y-111646190D01*
X149801626Y-111648014D01*
X149808945Y-111653186D01*
X149831973Y-111657766D01*
X149832190Y-111657817D01*
X149832531Y-111657884D01*
X149832535Y-111657886D01*
X149851124Y-111661577D01*
X149851129Y-111661580D01*
X149857051Y-111662755D01*
X149857054Y-111662755D01*
X149857775Y-111662898D01*
X149857779Y-111662900D01*
X149859799Y-111663301D01*
X149859800Y-111663302D01*
X149876665Y-111666656D01*
X149927037Y-111676676D01*
X149927037Y-111676675D01*
X149927284Y-111676725D01*
X149927294Y-111676725D01*
X149975097Y-111679858D01*
X149986619Y-111679102D01*
X149990619Y-111679417D01*
X149999389Y-111681402D01*
X149999390Y-111681403D01*
X149999391Y-111681402D01*
X149999392Y-111681403D01*
X150048878Y-111671559D01*
X150049008Y-111671547D01*
X150050309Y-111671287D01*
X150050310Y-111671288D01*
X150088791Y-111663622D01*
X150088834Y-111663631D01*
X150117787Y-111657863D01*
X150117789Y-111657862D01*
X150117801Y-111657860D01*
X150163171Y-111642443D01*
X150173484Y-111637352D01*
X150177308Y-111636109D01*
X150186137Y-111634593D01*
X150205661Y-111621546D01*
X150205838Y-111621438D01*
X150206137Y-111621237D01*
X150206141Y-111621236D01*
X150223978Y-111609308D01*
X150228027Y-111606602D01*
X150228134Y-111606546D01*
X150229302Y-111605765D01*
X150234430Y-111602335D01*
X150239225Y-111600296D01*
X150241388Y-111599824D01*
X150273156Y-111576463D01*
X150273636Y-111576127D01*
X150286251Y-111567700D01*
X150288409Y-111565483D01*
X150290140Y-111563977D01*
X150316121Y-111544881D01*
X150316121Y-111544879D01*
X150317359Y-111543970D01*
X150317400Y-111543930D01*
X150582721Y-111348842D01*
X150582805Y-111348793D01*
X150583910Y-111347979D01*
X150583913Y-111347979D01*
X150615862Y-111324475D01*
X150615877Y-111324471D01*
X150620046Y-111321402D01*
X150620047Y-111321403D01*
X150624743Y-111317945D01*
X150627712Y-111315761D01*
X150627718Y-111315756D01*
X150639100Y-111307388D01*
X150642163Y-111303945D01*
X150643514Y-111302621D01*
X150650944Y-111296276D01*
X150660058Y-111287267D01*
X150661890Y-111285745D01*
X150675322Y-111276395D01*
X150842573Y-111102624D01*
X151213665Y-111102624D01*
X151232372Y-111208720D01*
X151286238Y-111302020D01*
X151286240Y-111302022D01*
X151286241Y-111302023D01*
X151368771Y-111371274D01*
X151470010Y-111408122D01*
X151470011Y-111408122D01*
X151577745Y-111408122D01*
X151577746Y-111408122D01*
X151678985Y-111371274D01*
X151761515Y-111302023D01*
X151764832Y-111296279D01*
X151784182Y-111262763D01*
X151815383Y-111208721D01*
X151822392Y-111168973D01*
X151834091Y-111102624D01*
X151834091Y-111102619D01*
X151815383Y-110996523D01*
X151761517Y-110903223D01*
X151761515Y-110903221D01*
X151678985Y-110833970D01*
X151612518Y-110809778D01*
X151577747Y-110797122D01*
X151577746Y-110797122D01*
X151470010Y-110797122D01*
X151470008Y-110797122D01*
X151368772Y-110833970D01*
X151286238Y-110903223D01*
X151232372Y-110996523D01*
X151213665Y-111102619D01*
X151213665Y-111102624D01*
X150842573Y-111102624D01*
X151270804Y-110657699D01*
X151280621Y-110653411D01*
X151289887Y-110656682D01*
X151364694Y-110719453D01*
X151465933Y-110756301D01*
X151465934Y-110756301D01*
X151573668Y-110756301D01*
X151573669Y-110756301D01*
X151674908Y-110719453D01*
X151757438Y-110650202D01*
X151765152Y-110636842D01*
X151792557Y-110589374D01*
X151811306Y-110556900D01*
X151822768Y-110491897D01*
X151830014Y-110450803D01*
X151830014Y-110450798D01*
X151811306Y-110344702D01*
X151767194Y-110268299D01*
X151765795Y-110257676D01*
X151771721Y-110249539D01*
X152526782Y-109761848D01*
X152529176Y-109760275D01*
X152532171Y-109758272D01*
X152533424Y-109757529D01*
X152624996Y-109709469D01*
X152684998Y-109656310D01*
X152686492Y-109655158D01*
X152691388Y-109651888D01*
X152701948Y-109641326D01*
X152702530Y-109640778D01*
X152726717Y-109619351D01*
X152736846Y-109615857D01*
X152746479Y-109620547D01*
X152750000Y-109629831D01*
X152750000Y-115832423D01*
X152745899Y-115842322D01*
X152738191Y-115846251D01*
X152723564Y-115848568D01*
X152546842Y-115905988D01*
X152381286Y-115990344D01*
X152381270Y-115990354D01*
X152230957Y-116099563D01*
X152230949Y-116099570D01*
X152099570Y-116230949D01*
X152099563Y-116230957D01*
X151990354Y-116381270D01*
X151990344Y-116381286D01*
X151905988Y-116546842D01*
X151848568Y-116723565D01*
X151819500Y-116907093D01*
X151819500Y-116986000D01*
X151815399Y-116995899D01*
X151805500Y-117000000D01*
X144073378Y-117000000D01*
X144063479Y-116995899D01*
X144059591Y-116988431D01*
X144041667Y-116886783D01*
X143987801Y-116793483D01*
X143987799Y-116793481D01*
X143905269Y-116724230D01*
X143854649Y-116705806D01*
X143804031Y-116687382D01*
X143804030Y-116687382D01*
X143696294Y-116687382D01*
X143696292Y-116687382D01*
X143595055Y-116724230D01*
X143523316Y-116784426D01*
X143513097Y-116787648D01*
X143505318Y-116784426D01*
X143433579Y-116724230D01*
X143382959Y-116705806D01*
X143332341Y-116687382D01*
X143332340Y-116687382D01*
X143224604Y-116687382D01*
X143224602Y-116687382D01*
X143123366Y-116724230D01*
X143040832Y-116793483D01*
X142986966Y-116886783D01*
X142969043Y-116988431D01*
X142963286Y-116997468D01*
X142955256Y-117000000D01*
X139674000Y-117000000D01*
X139664101Y-116995899D01*
X139660000Y-116986000D01*
X139660000Y-116537362D01*
X144444203Y-116537362D01*
X144462910Y-116643458D01*
X144516776Y-116736758D01*
X144516778Y-116736760D01*
X144516779Y-116736761D01*
X144599309Y-116806012D01*
X144700548Y-116842860D01*
X144700549Y-116842860D01*
X144808283Y-116842860D01*
X144808284Y-116842860D01*
X144909523Y-116806012D01*
X144992053Y-116736761D01*
X145020562Y-116687382D01*
X145042226Y-116649860D01*
X145050727Y-116643337D01*
X145054350Y-116642860D01*
X145158283Y-116642860D01*
X145158284Y-116642860D01*
X145259523Y-116606012D01*
X145342053Y-116536761D01*
X145395921Y-116443459D01*
X145414523Y-116337961D01*
X145414629Y-116337362D01*
X145414629Y-116337357D01*
X145395921Y-116231261D01*
X145342055Y-116137961D01*
X145342053Y-116137959D01*
X145259523Y-116068708D01*
X145208903Y-116050284D01*
X145158285Y-116031860D01*
X145158284Y-116031860D01*
X145050548Y-116031860D01*
X145050546Y-116031860D01*
X144949310Y-116068708D01*
X144866776Y-116137961D01*
X144816607Y-116224860D01*
X144808107Y-116231383D01*
X144804483Y-116231860D01*
X144700546Y-116231860D01*
X144599310Y-116268708D01*
X144516776Y-116337961D01*
X144462910Y-116431261D01*
X144444203Y-116537357D01*
X144444203Y-116537362D01*
X139660000Y-116537362D01*
X139660000Y-114248789D01*
X143351115Y-114248789D01*
X143369822Y-114354885D01*
X143423688Y-114448185D01*
X143423690Y-114448187D01*
X143423691Y-114448188D01*
X143506221Y-114517439D01*
X143607460Y-114554287D01*
X143607461Y-114554287D01*
X143715195Y-114554287D01*
X143715196Y-114554287D01*
X143816435Y-114517439D01*
X143888174Y-114457241D01*
X143898393Y-114454020D01*
X143906171Y-114457241D01*
X143977912Y-114517439D01*
X144079151Y-114554287D01*
X144079152Y-114554287D01*
X144186886Y-114554287D01*
X144186887Y-114554287D01*
X144288126Y-114517439D01*
X144362269Y-114455225D01*
X144372486Y-114452004D01*
X144380261Y-114455224D01*
X144460101Y-114522218D01*
X144561340Y-114559066D01*
X144561341Y-114559066D01*
X144669075Y-114559066D01*
X144669076Y-114559066D01*
X144770315Y-114522218D01*
X144852845Y-114452967D01*
X144854737Y-114449691D01*
X144869921Y-114423389D01*
X144906713Y-114359665D01*
X144925421Y-114253566D01*
X144925421Y-114253563D01*
X144906713Y-114147467D01*
X144852847Y-114054167D01*
X144848296Y-114050348D01*
X144847884Y-114050002D01*
X147689787Y-114050002D01*
X147708494Y-114156098D01*
X147762360Y-114249398D01*
X147762362Y-114249400D01*
X147762363Y-114249401D01*
X147844893Y-114318652D01*
X147946132Y-114355500D01*
X147946133Y-114355500D01*
X148053867Y-114355500D01*
X148053868Y-114355500D01*
X148155107Y-114318652D01*
X148237637Y-114249401D01*
X148237874Y-114248991D01*
X148238175Y-114248759D01*
X148238427Y-114248460D01*
X148238493Y-114248515D01*
X148246372Y-114242465D01*
X148256996Y-114243861D01*
X148262126Y-114248991D01*
X148262363Y-114249401D01*
X148344893Y-114318652D01*
X148446132Y-114355500D01*
X148446133Y-114355500D01*
X148553867Y-114355500D01*
X148553868Y-114355500D01*
X148655107Y-114318652D01*
X148737637Y-114249401D01*
X148737874Y-114248991D01*
X148738175Y-114248759D01*
X148738427Y-114248460D01*
X148738493Y-114248515D01*
X148746372Y-114242465D01*
X148756996Y-114243861D01*
X148762126Y-114248991D01*
X148762363Y-114249401D01*
X148844893Y-114318652D01*
X148946132Y-114355500D01*
X148946133Y-114355500D01*
X149053867Y-114355500D01*
X149053868Y-114355500D01*
X149155107Y-114318652D01*
X149237637Y-114249401D01*
X149237991Y-114248789D01*
X149254713Y-114219823D01*
X149291505Y-114156099D01*
X149305339Y-114077641D01*
X149310213Y-114050002D01*
X149310213Y-114049997D01*
X149291505Y-113943901D01*
X149237639Y-113850601D01*
X149237637Y-113850599D01*
X149155107Y-113781348D01*
X149100899Y-113761618D01*
X149053869Y-113744500D01*
X149053868Y-113744500D01*
X148946132Y-113744500D01*
X148946130Y-113744500D01*
X148844894Y-113781348D01*
X148762360Y-113850601D01*
X148762124Y-113851012D01*
X148761821Y-113851244D01*
X148761573Y-113851540D01*
X148761507Y-113851485D01*
X148753624Y-113857535D01*
X148743000Y-113856136D01*
X148737876Y-113851012D01*
X148737639Y-113850601D01*
X148737637Y-113850599D01*
X148655107Y-113781348D01*
X148600899Y-113761618D01*
X148553869Y-113744500D01*
X148553868Y-113744500D01*
X148446132Y-113744500D01*
X148446130Y-113744500D01*
X148344894Y-113781348D01*
X148262360Y-113850601D01*
X148262124Y-113851012D01*
X148261821Y-113851244D01*
X148261573Y-113851540D01*
X148261507Y-113851485D01*
X148253624Y-113857535D01*
X148243000Y-113856136D01*
X148237876Y-113851012D01*
X148237639Y-113850601D01*
X148237637Y-113850599D01*
X148155107Y-113781348D01*
X148100899Y-113761618D01*
X148053869Y-113744500D01*
X148053868Y-113744500D01*
X147946132Y-113744500D01*
X147946130Y-113744500D01*
X147844894Y-113781348D01*
X147762360Y-113850601D01*
X147708494Y-113943901D01*
X147689787Y-114049997D01*
X147689787Y-114050002D01*
X144847884Y-114050002D01*
X144770315Y-113984914D01*
X144718855Y-113966184D01*
X144669077Y-113948066D01*
X144669076Y-113948066D01*
X144561340Y-113948066D01*
X144561338Y-113948066D01*
X144460102Y-113984914D01*
X144385960Y-114047126D01*
X144375741Y-114050348D01*
X144367963Y-114047126D01*
X144288126Y-113980135D01*
X144237506Y-113961711D01*
X144186888Y-113943287D01*
X144186887Y-113943287D01*
X144079151Y-113943287D01*
X144079149Y-113943287D01*
X143977912Y-113980135D01*
X143906172Y-114040331D01*
X143895953Y-114043553D01*
X143888174Y-114040331D01*
X143816435Y-113980135D01*
X143765815Y-113961711D01*
X143715197Y-113943287D01*
X143715196Y-113943287D01*
X143607460Y-113943287D01*
X143607458Y-113943287D01*
X143506222Y-113980135D01*
X143423688Y-114049388D01*
X143369822Y-114142688D01*
X143351115Y-114248784D01*
X143351115Y-114248789D01*
X139660000Y-114248789D01*
X139660000Y-113860088D01*
X139994952Y-113860088D01*
X140013659Y-113966184D01*
X140067525Y-114059484D01*
X140067527Y-114059486D01*
X140067528Y-114059487D01*
X140150058Y-114128738D01*
X140251297Y-114165586D01*
X140251298Y-114165586D01*
X140359032Y-114165586D01*
X140359033Y-114165586D01*
X140460272Y-114128738D01*
X140521166Y-114077640D01*
X140531385Y-114074419D01*
X140539163Y-114077640D01*
X140600058Y-114128738D01*
X140701297Y-114165586D01*
X140701298Y-114165586D01*
X140809032Y-114165586D01*
X140809033Y-114165586D01*
X140910272Y-114128738D01*
X140959753Y-114087217D01*
X140969972Y-114083996D01*
X140977750Y-114087217D01*
X141036327Y-114136369D01*
X141137566Y-114173217D01*
X141137567Y-114173217D01*
X141245301Y-114173217D01*
X141245302Y-114173217D01*
X141346541Y-114136369D01*
X141429071Y-114067118D01*
X141433479Y-114059484D01*
X141446147Y-114037540D01*
X141482939Y-113973816D01*
X141501647Y-113867717D01*
X141501647Y-113867714D01*
X141482939Y-113761618D01*
X141429073Y-113668318D01*
X141429071Y-113668316D01*
X141413661Y-113655385D01*
X141408714Y-113645882D01*
X141411936Y-113635663D01*
X141413657Y-113633941D01*
X141442802Y-113609487D01*
X141496670Y-113516185D01*
X141504951Y-113469219D01*
X141515378Y-113410088D01*
X141515378Y-113410083D01*
X141496670Y-113303987D01*
X141448915Y-113221273D01*
X141447516Y-113210650D01*
X141454039Y-113202149D01*
X141464662Y-113200750D01*
X141470037Y-113203547D01*
X141500058Y-113228738D01*
X141601297Y-113265586D01*
X141601298Y-113265586D01*
X141709032Y-113265586D01*
X141709033Y-113265586D01*
X141810272Y-113228738D01*
X141892802Y-113159487D01*
X141910005Y-113129691D01*
X146484584Y-113129691D01*
X146503291Y-113235787D01*
X146557157Y-113329087D01*
X146557159Y-113329089D01*
X146557160Y-113329090D01*
X146639690Y-113398341D01*
X146740929Y-113435189D01*
X146740930Y-113435189D01*
X146848664Y-113435189D01*
X146848665Y-113435189D01*
X146949904Y-113398341D01*
X147032434Y-113329090D01*
X147086302Y-113235788D01*
X147098251Y-113168022D01*
X147099009Y-113163721D01*
X147560084Y-113163721D01*
X147578791Y-113269817D01*
X147632657Y-113363117D01*
X147632659Y-113363119D01*
X147632660Y-113363120D01*
X147715190Y-113432371D01*
X147816429Y-113469219D01*
X147816430Y-113469219D01*
X147924164Y-113469219D01*
X147924165Y-113469219D01*
X148025404Y-113432371D01*
X148107934Y-113363120D01*
X148161802Y-113269818D01*
X148173734Y-113202149D01*
X148180510Y-113163721D01*
X148180510Y-113163716D01*
X148161802Y-113057620D01*
X148118773Y-112983091D01*
X149871277Y-112983091D01*
X149889984Y-113089187D01*
X149943850Y-113182487D01*
X149943852Y-113182489D01*
X149943853Y-113182490D01*
X150026383Y-113251741D01*
X150127622Y-113288589D01*
X150127623Y-113288589D01*
X150235357Y-113288589D01*
X150235358Y-113288589D01*
X150336597Y-113251741D01*
X150419127Y-113182490D01*
X150426673Y-113169421D01*
X150442831Y-113141434D01*
X150472995Y-113089188D01*
X150491703Y-112983089D01*
X150491703Y-112983086D01*
X150472995Y-112876990D01*
X150419129Y-112783690D01*
X150419127Y-112783688D01*
X150336597Y-112714437D01*
X150273397Y-112691434D01*
X150235359Y-112677589D01*
X150235358Y-112677589D01*
X150127622Y-112677589D01*
X150127620Y-112677589D01*
X150026384Y-112714437D01*
X149943850Y-112783690D01*
X149889984Y-112876990D01*
X149871277Y-112983086D01*
X149871277Y-112983091D01*
X148118773Y-112983091D01*
X148107936Y-112964320D01*
X148107934Y-112964318D01*
X148025404Y-112895067D01*
X147974784Y-112876643D01*
X147924166Y-112858219D01*
X147924165Y-112858219D01*
X147816429Y-112858219D01*
X147816427Y-112858219D01*
X147715191Y-112895067D01*
X147632657Y-112964320D01*
X147578791Y-113057620D01*
X147560084Y-113163716D01*
X147560084Y-113163721D01*
X147099009Y-113163721D01*
X147105010Y-113129691D01*
X147105010Y-113129686D01*
X147086302Y-113023590D01*
X147032436Y-112930290D01*
X147023615Y-112922888D01*
X146949904Y-112861037D01*
X146872747Y-112832954D01*
X146848666Y-112824189D01*
X146848665Y-112824189D01*
X146740929Y-112824189D01*
X146740927Y-112824189D01*
X146639691Y-112861037D01*
X146557157Y-112930290D01*
X146503291Y-113023590D01*
X146484584Y-113129686D01*
X146484584Y-113129691D01*
X141910005Y-113129691D01*
X141946670Y-113066185D01*
X141961323Y-112983086D01*
X141965378Y-112960088D01*
X141965378Y-112960083D01*
X141946670Y-112853987D01*
X141892804Y-112760687D01*
X141886353Y-112755274D01*
X141810272Y-112691434D01*
X141759652Y-112673010D01*
X141709034Y-112654586D01*
X141709033Y-112654586D01*
X141601297Y-112654586D01*
X141601295Y-112654586D01*
X141500058Y-112691434D01*
X141470038Y-112716624D01*
X141459819Y-112719846D01*
X141450314Y-112714898D01*
X141447092Y-112704679D01*
X141448915Y-112698899D01*
X141471118Y-112660442D01*
X141486640Y-112633558D01*
X143393183Y-112633558D01*
X143411890Y-112739654D01*
X143465756Y-112832954D01*
X143465758Y-112832956D01*
X143465759Y-112832957D01*
X143548289Y-112902208D01*
X143649528Y-112939056D01*
X143649529Y-112939056D01*
X143757263Y-112939056D01*
X143757264Y-112939056D01*
X143858503Y-112902208D01*
X143941033Y-112832957D01*
X143994901Y-112739655D01*
X144008868Y-112660445D01*
X144013609Y-112633558D01*
X144013609Y-112633553D01*
X144010759Y-112617390D01*
X145200745Y-112617390D01*
X145219452Y-112723486D01*
X145273318Y-112816786D01*
X145273320Y-112816788D01*
X145273321Y-112816789D01*
X145355851Y-112886040D01*
X145457090Y-112922888D01*
X145457091Y-112922888D01*
X145564825Y-112922888D01*
X145564826Y-112922888D01*
X145666065Y-112886040D01*
X145748595Y-112816789D01*
X145802463Y-112723487D01*
X145813579Y-112660445D01*
X145821171Y-112617390D01*
X145821171Y-112617385D01*
X145820756Y-112615031D01*
X145970665Y-112615031D01*
X145989372Y-112721127D01*
X146043238Y-112814427D01*
X146043240Y-112814429D01*
X146043241Y-112814430D01*
X146125771Y-112883681D01*
X146227010Y-112920529D01*
X146227011Y-112920529D01*
X146334745Y-112920529D01*
X146334746Y-112920529D01*
X146435985Y-112883681D01*
X146518515Y-112814430D01*
X146572383Y-112721128D01*
X146583084Y-112660442D01*
X146591091Y-112615031D01*
X146591091Y-112615026D01*
X146572383Y-112508930D01*
X146539308Y-112451642D01*
X146820888Y-112451642D01*
X146839595Y-112557738D01*
X146893461Y-112651038D01*
X146893463Y-112651040D01*
X146893464Y-112651041D01*
X146975994Y-112720292D01*
X147077233Y-112757140D01*
X147077234Y-112757140D01*
X147184968Y-112757140D01*
X147184969Y-112757140D01*
X147286208Y-112720292D01*
X147368738Y-112651041D01*
X147422606Y-112557739D01*
X147431008Y-112510088D01*
X147439656Y-112461046D01*
X147768252Y-112461046D01*
X147786959Y-112567142D01*
X147840825Y-112660442D01*
X147840827Y-112660444D01*
X147840828Y-112660445D01*
X147923358Y-112729696D01*
X148024597Y-112766544D01*
X148024598Y-112766544D01*
X148132332Y-112766544D01*
X148132333Y-112766544D01*
X148233572Y-112729696D01*
X148316102Y-112660445D01*
X148321532Y-112651041D01*
X148340963Y-112617385D01*
X148369970Y-112567143D01*
X148380031Y-112510082D01*
X148388678Y-112461046D01*
X148388678Y-112461041D01*
X148369970Y-112354945D01*
X148316104Y-112261645D01*
X148316102Y-112261643D01*
X148233572Y-112192392D01*
X148161569Y-112166185D01*
X148132334Y-112155544D01*
X148132333Y-112155544D01*
X148024597Y-112155544D01*
X148024595Y-112155544D01*
X147923359Y-112192392D01*
X147840825Y-112261645D01*
X147786959Y-112354945D01*
X147768252Y-112461041D01*
X147768252Y-112461046D01*
X147439656Y-112461046D01*
X147441314Y-112451642D01*
X147441314Y-112451637D01*
X147422606Y-112345541D01*
X147368740Y-112252241D01*
X147356936Y-112242336D01*
X147286208Y-112182988D01*
X147235588Y-112164564D01*
X147184970Y-112146140D01*
X147184969Y-112146140D01*
X147077233Y-112146140D01*
X147077231Y-112146140D01*
X146975995Y-112182988D01*
X146893461Y-112252241D01*
X146839595Y-112345541D01*
X146820888Y-112451637D01*
X146820888Y-112451642D01*
X146539308Y-112451642D01*
X146518517Y-112415630D01*
X146518515Y-112415628D01*
X146435985Y-112346377D01*
X146384058Y-112327477D01*
X146334747Y-112309529D01*
X146334746Y-112309529D01*
X146227010Y-112309529D01*
X146227008Y-112309529D01*
X146125772Y-112346377D01*
X146043238Y-112415630D01*
X145989372Y-112508930D01*
X145970665Y-112615026D01*
X145970665Y-112615031D01*
X145820756Y-112615031D01*
X145802463Y-112511289D01*
X145748597Y-112417989D01*
X145745786Y-112415630D01*
X145666065Y-112348736D01*
X145609247Y-112328056D01*
X145564827Y-112311888D01*
X145564826Y-112311888D01*
X145457090Y-112311888D01*
X145457088Y-112311888D01*
X145355852Y-112348736D01*
X145273318Y-112417989D01*
X145219452Y-112511289D01*
X145200745Y-112617385D01*
X145200745Y-112617390D01*
X144010759Y-112617390D01*
X143994901Y-112527457D01*
X143941035Y-112434157D01*
X143921767Y-112417989D01*
X143858503Y-112364904D01*
X143805304Y-112345541D01*
X143757265Y-112328056D01*
X143757264Y-112328056D01*
X143649528Y-112328056D01*
X143649526Y-112328056D01*
X143548290Y-112364904D01*
X143465756Y-112434157D01*
X143411890Y-112527457D01*
X143393183Y-112633553D01*
X143393183Y-112633558D01*
X141486640Y-112633558D01*
X141496670Y-112616185D01*
X141515378Y-112510086D01*
X141515378Y-112510082D01*
X141496670Y-112403987D01*
X141442804Y-112310687D01*
X141441424Y-112309529D01*
X141360272Y-112241434D01*
X141309652Y-112223010D01*
X141259034Y-112204586D01*
X141259033Y-112204586D01*
X141151297Y-112204586D01*
X141151295Y-112204586D01*
X141050059Y-112241434D01*
X140967525Y-112310687D01*
X140913659Y-112403987D01*
X140894952Y-112510082D01*
X140894952Y-112510088D01*
X140913659Y-112616184D01*
X140961414Y-112698898D01*
X140962813Y-112709521D01*
X140956290Y-112718022D01*
X140945667Y-112719421D01*
X140940291Y-112716623D01*
X140931827Y-112709521D01*
X140910272Y-112691434D01*
X140859652Y-112673010D01*
X140809034Y-112654586D01*
X140809033Y-112654586D01*
X140701297Y-112654586D01*
X140701295Y-112654586D01*
X140600059Y-112691434D01*
X140517525Y-112760687D01*
X140463659Y-112853987D01*
X140444952Y-112960083D01*
X140444952Y-112960088D01*
X140463659Y-113066184D01*
X140511414Y-113148898D01*
X140512813Y-113159521D01*
X140506290Y-113168022D01*
X140495667Y-113169421D01*
X140490291Y-113166623D01*
X140488235Y-113164898D01*
X140460272Y-113141434D01*
X140409652Y-113123010D01*
X140359034Y-113104586D01*
X140359033Y-113104586D01*
X140251297Y-113104586D01*
X140251295Y-113104586D01*
X140150059Y-113141434D01*
X140067525Y-113210687D01*
X140013659Y-113303987D01*
X139994952Y-113410083D01*
X139994952Y-113410088D01*
X140013659Y-113516184D01*
X140067526Y-113609484D01*
X140067528Y-113609487D01*
X140085254Y-113624362D01*
X140090202Y-113633866D01*
X140086979Y-113644085D01*
X140085254Y-113645810D01*
X140067528Y-113660684D01*
X140067526Y-113660687D01*
X140013659Y-113753987D01*
X139994952Y-113860083D01*
X139994952Y-113860088D01*
X139660000Y-113860088D01*
X139660000Y-112775147D01*
X139664101Y-112765248D01*
X139674000Y-112761147D01*
X139682996Y-112764421D01*
X139700058Y-112778738D01*
X139801297Y-112815586D01*
X139801298Y-112815586D01*
X139909032Y-112815586D01*
X139909033Y-112815586D01*
X140010272Y-112778738D01*
X140092802Y-112709487D01*
X140100057Y-112696922D01*
X140121118Y-112660442D01*
X140146670Y-112616185D01*
X140165378Y-112510086D01*
X140165378Y-112510082D01*
X140146670Y-112403987D01*
X140092804Y-112310687D01*
X140091424Y-112309529D01*
X140075074Y-112295809D01*
X140070127Y-112286306D01*
X140073349Y-112276087D01*
X140075071Y-112274364D01*
X140092802Y-112259487D01*
X140096986Y-112252241D01*
X140131752Y-112192023D01*
X140146670Y-112166185D01*
X140159582Y-112092956D01*
X140165378Y-112060088D01*
X140165378Y-112060083D01*
X140146670Y-111953987D01*
X140092804Y-111860687D01*
X140085151Y-111854265D01*
X140010272Y-111791434D01*
X139932568Y-111763152D01*
X139909034Y-111754586D01*
X139909033Y-111754586D01*
X139801297Y-111754586D01*
X139801295Y-111754586D01*
X139700058Y-111791434D01*
X139682999Y-111805748D01*
X139672779Y-111808970D01*
X139663275Y-111804022D01*
X139660000Y-111795023D01*
X139660000Y-111783449D01*
X139661875Y-111776450D01*
X139696670Y-111716185D01*
X139709663Y-111642497D01*
X139715378Y-111610088D01*
X141344952Y-111610088D01*
X141363659Y-111716184D01*
X141417525Y-111809484D01*
X141417527Y-111809486D01*
X141417528Y-111809487D01*
X141500058Y-111878738D01*
X141601297Y-111915586D01*
X141601298Y-111915586D01*
X141709032Y-111915586D01*
X141709033Y-111915586D01*
X141810272Y-111878738D01*
X141882056Y-111818504D01*
X143875997Y-111818504D01*
X143894704Y-111924600D01*
X143948570Y-112017900D01*
X143948572Y-112017902D01*
X143948573Y-112017903D01*
X144031103Y-112087154D01*
X144132342Y-112124002D01*
X144132343Y-112124002D01*
X144240077Y-112124002D01*
X144240078Y-112124002D01*
X144341317Y-112087154D01*
X144423847Y-112017903D01*
X144424474Y-112016818D01*
X144464455Y-111947568D01*
X144477715Y-111924601D01*
X144480697Y-111907689D01*
X144486454Y-111898652D01*
X144496915Y-111896333D01*
X144505952Y-111902090D01*
X144506608Y-111903120D01*
X144554951Y-111986854D01*
X144554953Y-111986856D01*
X144554954Y-111986857D01*
X144637484Y-112056108D01*
X144738723Y-112092956D01*
X144738724Y-112092956D01*
X144846458Y-112092956D01*
X144846459Y-112092956D01*
X144947698Y-112056108D01*
X145030228Y-111986857D01*
X145084096Y-111893555D01*
X145094406Y-111835086D01*
X145102804Y-111787458D01*
X145313908Y-111787458D01*
X145332615Y-111893554D01*
X145386481Y-111986854D01*
X145386483Y-111986856D01*
X145386484Y-111986857D01*
X145469014Y-112056108D01*
X145570253Y-112092956D01*
X145570254Y-112092956D01*
X145677988Y-112092956D01*
X145677989Y-112092956D01*
X145779228Y-112056108D01*
X145848383Y-111998080D01*
X148225875Y-111998080D01*
X148244582Y-112104176D01*
X148298448Y-112197476D01*
X148298450Y-112197478D01*
X148298451Y-112197479D01*
X148380981Y-112266730D01*
X148482220Y-112303578D01*
X148525012Y-112303578D01*
X148534911Y-112307679D01*
X148539012Y-112317578D01*
X148534911Y-112327477D01*
X148534011Y-112328303D01*
X148481533Y-112372336D01*
X148427667Y-112465636D01*
X148408960Y-112571732D01*
X148408960Y-112571737D01*
X148427667Y-112677833D01*
X148481533Y-112771133D01*
X148481535Y-112771135D01*
X148481536Y-112771136D01*
X148564066Y-112840387D01*
X148665305Y-112877235D01*
X148665306Y-112877235D01*
X148773040Y-112877235D01*
X148773041Y-112877235D01*
X148874280Y-112840387D01*
X148956810Y-112771136D01*
X148960210Y-112765248D01*
X148987475Y-112718022D01*
X149010678Y-112677834D01*
X149021548Y-112616185D01*
X149029386Y-112571737D01*
X149029386Y-112571732D01*
X149010678Y-112465636D01*
X148967832Y-112391424D01*
X151209588Y-112391424D01*
X151228295Y-112497520D01*
X151282161Y-112590820D01*
X151282163Y-112590822D01*
X151282164Y-112590823D01*
X151364694Y-112660074D01*
X151465933Y-112696922D01*
X151465934Y-112696922D01*
X151573668Y-112696922D01*
X151573669Y-112696922D01*
X151674908Y-112660074D01*
X151757438Y-112590823D01*
X151768459Y-112571735D01*
X151804050Y-112510088D01*
X151811306Y-112497521D01*
X151825746Y-112415628D01*
X151830014Y-112391424D01*
X151830014Y-112391419D01*
X151811306Y-112285323D01*
X151757440Y-112192023D01*
X151757438Y-112192021D01*
X151674908Y-112122770D01*
X151592995Y-112092956D01*
X151573670Y-112085922D01*
X151573669Y-112085922D01*
X151465933Y-112085922D01*
X151465931Y-112085922D01*
X151364695Y-112122770D01*
X151282161Y-112192023D01*
X151228295Y-112285323D01*
X151209588Y-112391419D01*
X151209588Y-112391424D01*
X148967832Y-112391424D01*
X148956812Y-112372336D01*
X148947955Y-112364904D01*
X148874280Y-112303083D01*
X148823660Y-112284659D01*
X148773042Y-112266235D01*
X148773041Y-112266235D01*
X148730250Y-112266235D01*
X148720351Y-112262134D01*
X148716250Y-112252235D01*
X148720351Y-112242336D01*
X148721251Y-112241510D01*
X148721342Y-112241434D01*
X148773725Y-112197479D01*
X148782092Y-112182988D01*
X148797936Y-112155544D01*
X148827593Y-112104177D01*
X148836499Y-112053666D01*
X148846301Y-111998080D01*
X148846301Y-111998075D01*
X148827593Y-111891979D01*
X148773727Y-111798679D01*
X148765093Y-111791434D01*
X148713532Y-111748169D01*
X151235052Y-111748169D01*
X151253759Y-111854265D01*
X151307625Y-111947565D01*
X151307627Y-111947567D01*
X151307628Y-111947568D01*
X151390158Y-112016819D01*
X151491397Y-112053667D01*
X151491398Y-112053667D01*
X151599132Y-112053667D01*
X151599133Y-112053667D01*
X151700372Y-112016819D01*
X151782902Y-111947568D01*
X151836770Y-111854266D01*
X151845629Y-111804022D01*
X151855478Y-111748169D01*
X151855478Y-111748164D01*
X151836770Y-111642068D01*
X151782904Y-111548768D01*
X151777186Y-111543970D01*
X151700372Y-111479515D01*
X151649752Y-111461091D01*
X151599134Y-111442667D01*
X151599133Y-111442667D01*
X151491397Y-111442667D01*
X151491395Y-111442667D01*
X151390159Y-111479515D01*
X151307625Y-111548768D01*
X151253759Y-111642068D01*
X151235052Y-111748164D01*
X151235052Y-111748169D01*
X148713532Y-111748169D01*
X148691195Y-111729426D01*
X148640575Y-111711002D01*
X148589957Y-111692578D01*
X148589956Y-111692578D01*
X148482220Y-111692578D01*
X148482218Y-111692578D01*
X148380982Y-111729426D01*
X148298448Y-111798679D01*
X148244582Y-111891979D01*
X148225875Y-111998075D01*
X148225875Y-111998080D01*
X145848383Y-111998080D01*
X145861758Y-111986857D01*
X145915626Y-111893555D01*
X145925936Y-111835086D01*
X145934334Y-111787458D01*
X145934334Y-111787453D01*
X145915626Y-111681357D01*
X145861760Y-111588057D01*
X145855825Y-111583077D01*
X145779228Y-111518804D01*
X145726834Y-111499734D01*
X145677990Y-111481956D01*
X145677989Y-111481956D01*
X145570253Y-111481956D01*
X145570251Y-111481956D01*
X145469015Y-111518804D01*
X145386481Y-111588057D01*
X145332615Y-111681357D01*
X145313908Y-111787453D01*
X145313908Y-111787458D01*
X145102804Y-111787458D01*
X145102804Y-111787453D01*
X145084096Y-111681357D01*
X145030230Y-111588057D01*
X145024295Y-111583077D01*
X144947698Y-111518804D01*
X144895304Y-111499734D01*
X144846460Y-111481956D01*
X144846459Y-111481956D01*
X144738723Y-111481956D01*
X144738721Y-111481956D01*
X144637485Y-111518804D01*
X144554951Y-111588057D01*
X144501085Y-111681357D01*
X144498103Y-111698268D01*
X144492346Y-111707305D01*
X144481885Y-111709624D01*
X144472848Y-111703867D01*
X144472192Y-111702837D01*
X144423849Y-111619103D01*
X144423847Y-111619101D01*
X144341317Y-111549850D01*
X144290697Y-111531426D01*
X144240079Y-111513002D01*
X144240078Y-111513002D01*
X144132342Y-111513002D01*
X144132340Y-111513002D01*
X144031104Y-111549850D01*
X143948570Y-111619103D01*
X143894704Y-111712403D01*
X143875997Y-111818499D01*
X143875997Y-111818504D01*
X141882056Y-111818504D01*
X141892802Y-111809487D01*
X141893101Y-111808970D01*
X141909878Y-111779909D01*
X141946670Y-111716185D01*
X141959663Y-111642497D01*
X141965378Y-111610088D01*
X141965378Y-111610083D01*
X141946670Y-111503987D01*
X141892804Y-111410687D01*
X141892802Y-111410685D01*
X141810272Y-111341434D01*
X141739736Y-111315761D01*
X141709034Y-111304586D01*
X141709033Y-111304586D01*
X141601297Y-111304586D01*
X141601295Y-111304586D01*
X141500059Y-111341434D01*
X141417525Y-111410687D01*
X141363659Y-111503987D01*
X141344952Y-111610083D01*
X141344952Y-111610088D01*
X139715378Y-111610088D01*
X139715378Y-111610083D01*
X139696670Y-111503987D01*
X139661876Y-111443721D01*
X139660000Y-111436721D01*
X139660000Y-111249651D01*
X139664101Y-111239752D01*
X139671187Y-111235938D01*
X139930056Y-111182909D01*
X139930077Y-111182908D01*
X139931870Y-111182540D01*
X139931872Y-111182541D01*
X139969146Y-111174903D01*
X139969160Y-111174906D01*
X139974352Y-111173839D01*
X139974353Y-111173840D01*
X139978598Y-111172967D01*
X139981613Y-111172349D01*
X139981613Y-111172350D01*
X139981617Y-111172347D01*
X139996788Y-111169241D01*
X139996792Y-111169238D01*
X139996836Y-111169223D01*
X139996847Y-111169222D01*
X139997233Y-111169089D01*
X139997522Y-111168992D01*
X139997551Y-111168979D01*
X140040279Y-111154291D01*
X140049755Y-111149593D01*
X140053597Y-111148341D01*
X140061979Y-111146901D01*
X140100909Y-111120889D01*
X140103409Y-111119218D01*
X140103831Y-111118935D01*
X140103996Y-111118848D01*
X140105091Y-111118116D01*
X140136246Y-111097279D01*
X140136297Y-111097269D01*
X140141146Y-111094026D01*
X140141147Y-111094027D01*
X140160515Y-111081075D01*
X140195537Y-111050336D01*
X140203133Y-111041665D01*
X140206192Y-111039053D01*
X140207658Y-111038127D01*
X140213396Y-111034508D01*
X140225898Y-111015795D01*
X140226050Y-111015584D01*
X140226243Y-111015293D01*
X140226248Y-111015289D01*
X140239184Y-110995913D01*
X140239229Y-110995943D01*
X140239273Y-110995802D01*
X140239263Y-110995796D01*
X140239268Y-110995787D01*
X140241216Y-110992871D01*
X140241240Y-110992844D01*
X140250611Y-110978817D01*
X140266246Y-110955413D01*
X140278966Y-110936377D01*
X140278966Y-110936375D01*
X140279168Y-110936074D01*
X140279178Y-110936056D01*
X140279187Y-110936043D01*
X140299793Y-110894257D01*
X140303517Y-110883283D01*
X140305339Y-110879711D01*
X140305657Y-110879261D01*
X140310279Y-110872722D01*
X140319316Y-110827293D01*
X140319970Y-110824005D01*
X140319975Y-110823991D01*
X140322802Y-110809778D01*
X140322802Y-110809777D01*
X140327708Y-110785121D01*
X140327709Y-110785118D01*
X140328840Y-110779430D01*
X140328841Y-110779431D01*
X140333386Y-110756574D01*
X140336431Y-110710064D01*
X140335672Y-110698519D01*
X140335987Y-110694513D01*
X140337874Y-110686179D01*
X140333481Y-110664098D01*
X140333471Y-110664028D01*
X140329733Y-110645250D01*
X140329733Y-110645249D01*
X140328060Y-110636842D01*
X140328048Y-110636711D01*
X140327384Y-110633380D01*
X140320466Y-110598653D01*
X140320468Y-110598640D01*
X140319312Y-110592833D01*
X140319313Y-110592833D01*
X140316488Y-110578644D01*
X140316487Y-110578641D01*
X140316440Y-110578404D01*
X140316413Y-110578283D01*
X140316150Y-110576960D01*
X140314850Y-110570424D01*
X140313302Y-110566821D01*
X140312168Y-110561598D01*
X140311975Y-110552596D01*
X140298544Y-110524101D01*
X140298470Y-110523936D01*
X140298377Y-110523739D01*
X140298375Y-110523733D01*
X140292554Y-110511394D01*
X140115466Y-110135681D01*
X139962001Y-109810088D01*
X140444952Y-109810088D01*
X140463659Y-109916184D01*
X140517525Y-110009484D01*
X140517527Y-110009486D01*
X140517528Y-110009487D01*
X140600058Y-110078738D01*
X140701297Y-110115586D01*
X140701298Y-110115586D01*
X140809032Y-110115586D01*
X140809033Y-110115586D01*
X140910272Y-110078738D01*
X140910273Y-110078736D01*
X140910275Y-110078736D01*
X140927092Y-110064624D01*
X140934923Y-110058052D01*
X140945142Y-110054830D01*
X140954646Y-110059778D01*
X140957869Y-110069997D01*
X140956046Y-110075777D01*
X140913496Y-110149476D01*
X140894789Y-110255572D01*
X140894789Y-110255577D01*
X140913496Y-110361673D01*
X140967363Y-110454973D01*
X140967365Y-110454976D01*
X140987860Y-110472174D01*
X140992808Y-110481678D01*
X140989585Y-110491897D01*
X140987861Y-110493622D01*
X140967526Y-110510687D01*
X140913659Y-110603987D01*
X140894952Y-110710083D01*
X140894952Y-110710088D01*
X140913659Y-110816184D01*
X140967525Y-110909484D01*
X140967527Y-110909486D01*
X140967528Y-110909487D01*
X141050058Y-110978738D01*
X141151297Y-111015586D01*
X141151298Y-111015586D01*
X141259032Y-111015586D01*
X141259033Y-111015586D01*
X141360272Y-110978738D01*
X141442802Y-110909487D01*
X141459702Y-110880215D01*
X145125750Y-110880215D01*
X145144457Y-110986311D01*
X145198323Y-111079611D01*
X145198325Y-111079613D01*
X145198326Y-111079614D01*
X145280856Y-111148865D01*
X145382095Y-111185713D01*
X145382096Y-111185713D01*
X145489830Y-111185713D01*
X145489831Y-111185713D01*
X145591070Y-111148865D01*
X145673600Y-111079614D01*
X145727468Y-110986312D01*
X145745633Y-110883293D01*
X145746176Y-110880215D01*
X145746176Y-110880210D01*
X145746009Y-110879261D01*
X147836785Y-110879261D01*
X147855492Y-110985357D01*
X147909358Y-111078657D01*
X147909360Y-111078659D01*
X147909361Y-111078660D01*
X147991891Y-111147911D01*
X148093130Y-111184759D01*
X148093131Y-111184759D01*
X148200865Y-111184759D01*
X148200866Y-111184759D01*
X148302105Y-111147911D01*
X148384635Y-111078660D01*
X148389614Y-111070037D01*
X148417103Y-111022424D01*
X148438503Y-110985358D01*
X148447199Y-110936043D01*
X148457211Y-110879261D01*
X148457211Y-110879256D01*
X148438503Y-110773160D01*
X148384637Y-110679860D01*
X148365879Y-110664120D01*
X148302105Y-110610607D01*
X148224816Y-110582476D01*
X148200636Y-110573675D01*
X148192736Y-110566436D01*
X148192268Y-110555731D01*
X148199507Y-110547831D01*
X148200636Y-110547363D01*
X148200864Y-110547280D01*
X148200866Y-110547280D01*
X148302105Y-110510432D01*
X148384635Y-110441181D01*
X148386235Y-110438411D01*
X148415353Y-110387976D01*
X148438503Y-110347879D01*
X148446826Y-110300679D01*
X148457211Y-110241782D01*
X148457211Y-110241777D01*
X148447830Y-110188577D01*
X148984884Y-110188577D01*
X149003591Y-110294673D01*
X149057457Y-110387973D01*
X149057459Y-110387975D01*
X149057460Y-110387976D01*
X149139990Y-110457227D01*
X149241229Y-110494075D01*
X149241230Y-110494075D01*
X149348964Y-110494075D01*
X149348965Y-110494075D01*
X149450204Y-110457227D01*
X149532734Y-110387976D01*
X149547920Y-110361674D01*
X149557718Y-110344702D01*
X149586602Y-110294674D01*
X149593497Y-110255572D01*
X149605310Y-110188577D01*
X149605310Y-110188572D01*
X149586602Y-110082476D01*
X149532736Y-109989176D01*
X149513611Y-109973128D01*
X149450204Y-109919923D01*
X149389416Y-109897798D01*
X149348966Y-109883075D01*
X149348965Y-109883075D01*
X149241229Y-109883075D01*
X149241227Y-109883075D01*
X149139991Y-109919923D01*
X149057457Y-109989176D01*
X149003591Y-110082476D01*
X148984884Y-110188572D01*
X148984884Y-110188577D01*
X148447830Y-110188577D01*
X148438503Y-110135681D01*
X148384637Y-110042381D01*
X148363765Y-110024867D01*
X148302105Y-109973128D01*
X148251485Y-109954704D01*
X148200867Y-109936280D01*
X148200866Y-109936280D01*
X148093130Y-109936280D01*
X148093128Y-109936280D01*
X147991892Y-109973128D01*
X147909358Y-110042381D01*
X147855492Y-110135681D01*
X147836785Y-110241777D01*
X147836785Y-110241782D01*
X147855492Y-110347878D01*
X147909358Y-110441178D01*
X147909360Y-110441180D01*
X147909361Y-110441181D01*
X147991891Y-110510432D01*
X148093130Y-110547280D01*
X148093131Y-110547280D01*
X148093359Y-110547363D01*
X148101259Y-110554602D01*
X148101727Y-110565307D01*
X148094488Y-110573207D01*
X148093359Y-110573675D01*
X147991892Y-110610607D01*
X147909358Y-110679860D01*
X147855492Y-110773160D01*
X147836785Y-110879256D01*
X147836785Y-110879261D01*
X145746009Y-110879261D01*
X145727468Y-110774114D01*
X145673602Y-110680814D01*
X145653707Y-110664120D01*
X145591070Y-110611561D01*
X145511160Y-110582476D01*
X145489832Y-110574713D01*
X145489831Y-110574713D01*
X145382095Y-110574713D01*
X145382093Y-110574713D01*
X145280857Y-110611561D01*
X145198323Y-110680814D01*
X145144457Y-110774114D01*
X145125750Y-110880210D01*
X145125750Y-110880215D01*
X141459702Y-110880215D01*
X141496670Y-110816185D01*
X141507181Y-110756574D01*
X141515378Y-110710088D01*
X141515378Y-110710083D01*
X141496670Y-110603987D01*
X141442804Y-110510687D01*
X141440553Y-110508798D01*
X141422304Y-110493485D01*
X141417357Y-110483982D01*
X141420579Y-110473763D01*
X141422300Y-110472041D01*
X141442639Y-110454976D01*
X141445049Y-110450803D01*
X141472823Y-110402696D01*
X141496507Y-110361674D01*
X141508492Y-110293703D01*
X141515215Y-110255577D01*
X141515215Y-110255572D01*
X141505998Y-110203300D01*
X142481464Y-110203300D01*
X142500171Y-110309396D01*
X142554037Y-110402696D01*
X142554039Y-110402698D01*
X142554040Y-110402699D01*
X142636570Y-110471950D01*
X142737809Y-110508798D01*
X142737810Y-110508798D01*
X142845544Y-110508798D01*
X142845545Y-110508798D01*
X142946784Y-110471950D01*
X143029314Y-110402699D01*
X143083182Y-110309397D01*
X143101890Y-110203298D01*
X143101890Y-110203295D01*
X143099124Y-110187607D01*
X145119438Y-110187607D01*
X145138145Y-110293703D01*
X145192011Y-110387003D01*
X145192013Y-110387005D01*
X145192014Y-110387006D01*
X145274544Y-110456257D01*
X145375783Y-110493105D01*
X145375784Y-110493105D01*
X145483518Y-110493105D01*
X145483519Y-110493105D01*
X145584758Y-110456257D01*
X145667288Y-110387006D01*
X145721156Y-110293704D01*
X145737097Y-110203298D01*
X145739864Y-110187607D01*
X145739864Y-110187602D01*
X145721156Y-110081506D01*
X145667290Y-109988206D01*
X145649321Y-109973128D01*
X145584758Y-109918953D01*
X145526635Y-109897798D01*
X145483520Y-109882105D01*
X145483519Y-109882105D01*
X145375783Y-109882105D01*
X145375781Y-109882105D01*
X145274545Y-109918953D01*
X145192011Y-109988206D01*
X145138145Y-110081506D01*
X145119438Y-110187602D01*
X145119438Y-110187607D01*
X143099124Y-110187607D01*
X143083182Y-110097199D01*
X143029316Y-110003899D01*
X143013244Y-109990413D01*
X142946784Y-109934646D01*
X142894104Y-109915472D01*
X142845546Y-109897798D01*
X142845545Y-109897798D01*
X142737809Y-109897798D01*
X142737807Y-109897798D01*
X142636571Y-109934646D01*
X142554037Y-110003899D01*
X142500171Y-110097199D01*
X142481464Y-110203295D01*
X142481464Y-110203300D01*
X141505998Y-110203300D01*
X141496507Y-110149476D01*
X141453651Y-110075247D01*
X141452252Y-110064624D01*
X141458775Y-110056123D01*
X141469398Y-110054724D01*
X141474773Y-110057521D01*
X141500058Y-110078738D01*
X141601297Y-110115586D01*
X141601298Y-110115586D01*
X141709032Y-110115586D01*
X141709033Y-110115586D01*
X141810272Y-110078738D01*
X141892802Y-110009487D01*
X141893887Y-110007609D01*
X141913794Y-109973128D01*
X141946670Y-109916185D01*
X141965378Y-109810086D01*
X141965378Y-109810083D01*
X141946670Y-109703987D01*
X141892804Y-109610687D01*
X141891953Y-109609973D01*
X141810272Y-109541434D01*
X141755265Y-109521413D01*
X141709034Y-109504586D01*
X141709033Y-109504586D01*
X141601297Y-109504586D01*
X141601295Y-109504586D01*
X141500059Y-109541434D01*
X141417525Y-109610687D01*
X141363659Y-109703987D01*
X141344952Y-109810083D01*
X141344952Y-109810088D01*
X141363659Y-109916184D01*
X141406515Y-109990413D01*
X141407914Y-110001036D01*
X141401391Y-110009537D01*
X141390768Y-110010936D01*
X141385392Y-110008138D01*
X141383442Y-110006502D01*
X141360109Y-109986923D01*
X141309489Y-109968499D01*
X141258871Y-109950075D01*
X141258870Y-109950075D01*
X141151134Y-109950075D01*
X141151132Y-109950075D01*
X141049895Y-109986923D01*
X141025243Y-110007609D01*
X141015024Y-110010831D01*
X141005519Y-110005883D01*
X141002297Y-109995664D01*
X141004120Y-109989884D01*
X141014612Y-109971709D01*
X141046670Y-109916185D01*
X141065378Y-109810086D01*
X141065378Y-109810083D01*
X141046670Y-109703987D01*
X140992804Y-109610687D01*
X140991953Y-109609973D01*
X140910272Y-109541434D01*
X140855265Y-109521413D01*
X140809034Y-109504586D01*
X140809033Y-109504586D01*
X140701297Y-109504586D01*
X140701295Y-109504586D01*
X140600059Y-109541434D01*
X140517525Y-109610687D01*
X140463659Y-109703987D01*
X140444952Y-109810083D01*
X140444952Y-109810088D01*
X139962001Y-109810088D01*
X139789193Y-109443455D01*
X144620691Y-109443455D01*
X144639398Y-109549551D01*
X144693264Y-109642851D01*
X144693266Y-109642853D01*
X144693267Y-109642854D01*
X144775797Y-109712105D01*
X144877036Y-109748953D01*
X144877037Y-109748953D01*
X144984771Y-109748953D01*
X144984772Y-109748953D01*
X145086011Y-109712105D01*
X145168541Y-109642854D01*
X145169414Y-109641343D01*
X145201615Y-109585568D01*
X145222409Y-109549552D01*
X145237519Y-109463857D01*
X145241117Y-109443455D01*
X145241117Y-109443450D01*
X145222409Y-109337354D01*
X145168543Y-109244054D01*
X145168541Y-109244052D01*
X145086011Y-109174801D01*
X144984772Y-109137953D01*
X144984385Y-109137812D01*
X144976485Y-109130573D01*
X144976017Y-109119868D01*
X144983256Y-109111968D01*
X144984385Y-109111500D01*
X144985311Y-109111163D01*
X144985312Y-109111163D01*
X145086551Y-109074315D01*
X145169081Y-109005064D01*
X145222949Y-108911762D01*
X145236871Y-108832806D01*
X145241657Y-108805665D01*
X145241657Y-108805660D01*
X145222949Y-108699564D01*
X145169083Y-108606264D01*
X145139169Y-108581163D01*
X145086551Y-108537011D01*
X145000058Y-108505530D01*
X144985313Y-108500163D01*
X144985312Y-108500163D01*
X144877576Y-108500163D01*
X144877574Y-108500163D01*
X144776338Y-108537011D01*
X144693804Y-108606264D01*
X144639938Y-108699564D01*
X144621231Y-108805660D01*
X144621231Y-108805665D01*
X144639938Y-108911761D01*
X144693804Y-109005061D01*
X144693806Y-109005063D01*
X144693807Y-109005064D01*
X144776337Y-109074315D01*
X144877576Y-109111163D01*
X144877577Y-109111163D01*
X144877962Y-109111303D01*
X144885862Y-109118542D01*
X144886330Y-109129247D01*
X144879091Y-109137147D01*
X144877962Y-109137615D01*
X144775798Y-109174801D01*
X144693264Y-109244054D01*
X144639398Y-109337354D01*
X144620691Y-109443450D01*
X144620691Y-109443455D01*
X139789193Y-109443455D01*
X139661336Y-109172191D01*
X139660000Y-109166222D01*
X139660000Y-108188577D01*
X149664884Y-108188577D01*
X149683591Y-108294673D01*
X149737457Y-108387973D01*
X149737459Y-108387975D01*
X149737460Y-108387976D01*
X149819990Y-108457227D01*
X149921229Y-108494075D01*
X149921230Y-108494075D01*
X150028964Y-108494075D01*
X150028965Y-108494075D01*
X150130204Y-108457227D01*
X150212734Y-108387976D01*
X150213297Y-108387002D01*
X150262834Y-108301200D01*
X150266602Y-108294674D01*
X150277662Y-108231949D01*
X150285310Y-108188577D01*
X150285310Y-108188572D01*
X150266602Y-108082476D01*
X150212736Y-107989176D01*
X150212734Y-107989174D01*
X150130204Y-107919923D01*
X150079584Y-107901499D01*
X150028966Y-107883075D01*
X150028965Y-107883075D01*
X149921229Y-107883075D01*
X149921227Y-107883075D01*
X149819991Y-107919923D01*
X149737457Y-107989176D01*
X149683591Y-108082476D01*
X149664884Y-108188572D01*
X149664884Y-108188577D01*
X139660000Y-108188577D01*
X139660000Y-108092257D01*
X139664101Y-108082358D01*
X139664983Y-108081548D01*
X139729020Y-108027815D01*
X139782888Y-107934513D01*
X139792424Y-107880430D01*
X139799910Y-107837975D01*
X139950890Y-107837975D01*
X139969597Y-107944071D01*
X140023463Y-108037371D01*
X140023465Y-108037373D01*
X140023466Y-108037374D01*
X140105996Y-108106625D01*
X140207235Y-108143473D01*
X140207236Y-108143473D01*
X140314970Y-108143473D01*
X140314971Y-108143473D01*
X140416210Y-108106625D01*
X140498740Y-108037374D01*
X140552608Y-107944072D01*
X140558844Y-107908705D01*
X140571316Y-107837975D01*
X140957847Y-107837975D01*
X140976554Y-107944071D01*
X141030420Y-108037371D01*
X141030422Y-108037373D01*
X141030423Y-108037374D01*
X141112953Y-108106625D01*
X141214192Y-108143473D01*
X141214193Y-108143473D01*
X141321927Y-108143473D01*
X141321928Y-108143473D01*
X141423167Y-108106625D01*
X141505697Y-108037374D01*
X141559565Y-107944072D01*
X141565801Y-107908705D01*
X141578273Y-107837975D01*
X141578273Y-107837970D01*
X141559565Y-107731874D01*
X141505699Y-107638574D01*
X141495133Y-107629708D01*
X141423167Y-107569321D01*
X141372547Y-107550897D01*
X141321929Y-107532473D01*
X141321928Y-107532473D01*
X141214192Y-107532473D01*
X141214190Y-107532473D01*
X141112954Y-107569321D01*
X141030420Y-107638574D01*
X140976554Y-107731874D01*
X140957847Y-107837970D01*
X140957847Y-107837975D01*
X140571316Y-107837975D01*
X140571316Y-107837970D01*
X140552608Y-107731874D01*
X140498742Y-107638574D01*
X140488176Y-107629708D01*
X140416210Y-107569321D01*
X140365590Y-107550897D01*
X140314972Y-107532473D01*
X140314971Y-107532473D01*
X140207235Y-107532473D01*
X140207233Y-107532473D01*
X140105997Y-107569321D01*
X140023463Y-107638574D01*
X139969597Y-107731874D01*
X139950890Y-107837970D01*
X139950890Y-107837975D01*
X139799910Y-107837975D01*
X139801596Y-107828416D01*
X139801596Y-107828411D01*
X139782888Y-107722315D01*
X139729317Y-107629528D01*
X139729020Y-107629013D01*
X139729019Y-107629012D01*
X139665001Y-107575293D01*
X139660053Y-107565789D01*
X139660000Y-107564569D01*
X139660000Y-107018252D01*
X139950890Y-107018252D01*
X139969597Y-107124348D01*
X140023463Y-107217648D01*
X140023465Y-107217650D01*
X140023466Y-107217651D01*
X140105996Y-107286902D01*
X140207235Y-107323750D01*
X140207236Y-107323750D01*
X140314970Y-107323750D01*
X140314971Y-107323750D01*
X140416210Y-107286902D01*
X140498740Y-107217651D01*
X140506525Y-107204168D01*
X140515816Y-107188073D01*
X140552608Y-107124349D01*
X140571316Y-107018252D01*
X140957847Y-107018252D01*
X140976554Y-107124348D01*
X141030420Y-107217648D01*
X141030422Y-107217650D01*
X141030423Y-107217651D01*
X141112953Y-107286902D01*
X141214192Y-107323750D01*
X141214193Y-107323750D01*
X141321927Y-107323750D01*
X141321928Y-107323750D01*
X141423167Y-107286902D01*
X141505697Y-107217651D01*
X141513482Y-107204168D01*
X141522773Y-107188073D01*
X141559565Y-107124349D01*
X141578273Y-107018250D01*
X141578273Y-107018247D01*
X141575896Y-107004769D01*
X141891361Y-107004769D01*
X141910068Y-107110865D01*
X141963934Y-107204165D01*
X141963936Y-107204167D01*
X141963937Y-107204168D01*
X142046467Y-107273419D01*
X142147706Y-107310267D01*
X142147707Y-107310267D01*
X142255441Y-107310267D01*
X142255442Y-107310267D01*
X142356681Y-107273419D01*
X142439211Y-107204168D01*
X142493079Y-107110866D01*
X142499315Y-107075499D01*
X142511787Y-107004769D01*
X142511787Y-107004764D01*
X142493079Y-106898668D01*
X142439213Y-106805368D01*
X142372749Y-106749598D01*
X142356681Y-106736115D01*
X142292486Y-106712750D01*
X142255443Y-106699267D01*
X142255442Y-106699267D01*
X142147706Y-106699267D01*
X142147704Y-106699267D01*
X142046468Y-106736115D01*
X141963934Y-106805368D01*
X141910068Y-106898668D01*
X141891361Y-107004764D01*
X141891361Y-107004769D01*
X141575896Y-107004769D01*
X141559565Y-106912151D01*
X141505699Y-106818851D01*
X141505697Y-106818849D01*
X141423167Y-106749598D01*
X141372547Y-106731174D01*
X141321929Y-106712750D01*
X141321928Y-106712750D01*
X141214192Y-106712750D01*
X141214190Y-106712750D01*
X141112954Y-106749598D01*
X141030420Y-106818851D01*
X140976554Y-106912151D01*
X140957847Y-107018247D01*
X140957847Y-107018252D01*
X140571316Y-107018252D01*
X140571316Y-107018250D01*
X140571316Y-107018247D01*
X140552608Y-106912151D01*
X140498742Y-106818851D01*
X140498740Y-106818849D01*
X140416210Y-106749598D01*
X140365590Y-106731174D01*
X140314972Y-106712750D01*
X140314971Y-106712750D01*
X140207235Y-106712750D01*
X140207233Y-106712750D01*
X140105997Y-106749598D01*
X140023463Y-106818851D01*
X139969597Y-106912151D01*
X139950890Y-107018247D01*
X139950890Y-107018252D01*
X139660000Y-107018252D01*
X139660000Y-106059473D01*
X142758732Y-106059473D01*
X142777439Y-106165569D01*
X142831305Y-106258869D01*
X142831307Y-106258871D01*
X142831308Y-106258872D01*
X142913838Y-106328123D01*
X143015077Y-106364971D01*
X143015078Y-106364971D01*
X143122812Y-106364971D01*
X143122813Y-106364971D01*
X143224052Y-106328123D01*
X143306582Y-106258872D01*
X143319035Y-106237303D01*
X143327535Y-106230780D01*
X143338159Y-106232179D01*
X143343283Y-106237303D01*
X143355733Y-106258869D01*
X143355735Y-106258871D01*
X143355736Y-106258872D01*
X143438266Y-106328123D01*
X143539505Y-106364971D01*
X143539506Y-106364971D01*
X143647240Y-106364971D01*
X143647241Y-106364971D01*
X143748480Y-106328123D01*
X143831010Y-106258872D01*
X143884878Y-106165570D01*
X143903586Y-106059471D01*
X143903586Y-106059468D01*
X143884878Y-105953372D01*
X143831012Y-105860072D01*
X143831010Y-105860070D01*
X143748480Y-105790819D01*
X143697860Y-105772395D01*
X143647242Y-105753971D01*
X143647241Y-105753971D01*
X143539505Y-105753971D01*
X143539503Y-105753971D01*
X143438267Y-105790819D01*
X143355733Y-105860072D01*
X143343283Y-105881638D01*
X143334782Y-105888161D01*
X143324159Y-105886762D01*
X143319035Y-105881638D01*
X143306584Y-105860072D01*
X143306582Y-105860070D01*
X143224052Y-105790819D01*
X143173432Y-105772395D01*
X143122814Y-105753971D01*
X143122813Y-105753971D01*
X143015077Y-105753971D01*
X143015075Y-105753971D01*
X142913839Y-105790819D01*
X142831305Y-105860072D01*
X142777439Y-105953372D01*
X142758732Y-106059468D01*
X142758732Y-106059473D01*
X139660000Y-106059473D01*
X139660000Y-105250002D01*
X147110287Y-105250002D01*
X147128994Y-105356098D01*
X147182860Y-105449398D01*
X147182862Y-105449400D01*
X147182863Y-105449401D01*
X147265393Y-105518652D01*
X147366632Y-105555500D01*
X147366633Y-105555500D01*
X147474367Y-105555500D01*
X147474368Y-105555500D01*
X147575607Y-105518652D01*
X147658137Y-105449401D01*
X147712005Y-105356099D01*
X147730713Y-105250002D01*
X147869287Y-105250002D01*
X147887994Y-105356098D01*
X147941860Y-105449398D01*
X147941862Y-105449400D01*
X147941863Y-105449401D01*
X148024393Y-105518652D01*
X148125632Y-105555500D01*
X148125633Y-105555500D01*
X148233367Y-105555500D01*
X148233368Y-105555500D01*
X148334607Y-105518652D01*
X148417137Y-105449401D01*
X148471005Y-105356099D01*
X148489713Y-105250000D01*
X148489713Y-105249997D01*
X148471005Y-105143901D01*
X148417139Y-105050601D01*
X148417137Y-105050599D01*
X148334607Y-104981348D01*
X148272827Y-104958862D01*
X148233369Y-104944500D01*
X148233368Y-104944500D01*
X148125632Y-104944500D01*
X148125630Y-104944500D01*
X148024394Y-104981348D01*
X147941860Y-105050601D01*
X147887994Y-105143901D01*
X147869287Y-105249997D01*
X147869287Y-105250002D01*
X147730713Y-105250002D01*
X147730713Y-105250000D01*
X147730713Y-105249997D01*
X147712005Y-105143901D01*
X147658139Y-105050601D01*
X147658137Y-105050599D01*
X147575607Y-104981348D01*
X147513827Y-104958862D01*
X147474369Y-104944500D01*
X147474368Y-104944500D01*
X147366632Y-104944500D01*
X147366630Y-104944500D01*
X147265394Y-104981348D01*
X147182860Y-105050601D01*
X147128994Y-105143901D01*
X147110287Y-105249997D01*
X147110287Y-105250002D01*
X139660000Y-105250002D01*
X139660000Y-104852766D01*
X141303243Y-104852766D01*
X141321950Y-104958862D01*
X141375816Y-105052162D01*
X141375818Y-105052164D01*
X141375819Y-105052165D01*
X141458349Y-105121416D01*
X141559588Y-105158264D01*
X141559589Y-105158264D01*
X141667323Y-105158264D01*
X141667324Y-105158264D01*
X141768563Y-105121416D01*
X141851093Y-105052165D01*
X141904961Y-104958863D01*
X141923669Y-104852764D01*
X141923669Y-104852761D01*
X141904961Y-104746665D01*
X141851095Y-104653365D01*
X141851093Y-104653363D01*
X141819981Y-104627257D01*
X141815034Y-104617753D01*
X141818256Y-104607534D01*
X141819978Y-104605811D01*
X141869406Y-104564337D01*
X141923274Y-104471035D01*
X141941982Y-104364936D01*
X141941982Y-104364933D01*
X141923274Y-104258837D01*
X141869408Y-104165537D01*
X141869406Y-104165535D01*
X141786876Y-104096284D01*
X141736256Y-104077860D01*
X141685638Y-104059436D01*
X141685637Y-104059436D01*
X141577901Y-104059436D01*
X141577899Y-104059436D01*
X141476663Y-104096284D01*
X141394129Y-104165537D01*
X141340263Y-104258837D01*
X141321556Y-104364933D01*
X141321556Y-104364938D01*
X141340263Y-104471034D01*
X141394129Y-104564334D01*
X141394131Y-104564336D01*
X141394132Y-104564337D01*
X141425242Y-104590441D01*
X141430190Y-104599946D01*
X141426968Y-104610165D01*
X141425242Y-104611890D01*
X141375819Y-104653362D01*
X141375817Y-104653365D01*
X141321950Y-104746665D01*
X141303243Y-104852761D01*
X141303243Y-104852766D01*
X139660000Y-104852766D01*
X139660000Y-103800250D01*
X146250381Y-103800250D01*
X146269088Y-103906346D01*
X146322954Y-103999646D01*
X146322956Y-103999648D01*
X146322957Y-103999649D01*
X146405487Y-104068900D01*
X146506726Y-104105748D01*
X146506727Y-104105748D01*
X146614461Y-104105748D01*
X146614462Y-104105748D01*
X146715701Y-104068900D01*
X146798231Y-103999649D01*
X146852099Y-103906347D01*
X146869460Y-103807887D01*
X146870807Y-103800250D01*
X146870807Y-103800245D01*
X146868860Y-103789203D01*
X147887809Y-103789203D01*
X147906516Y-103895299D01*
X147960382Y-103988599D01*
X147960384Y-103988601D01*
X147960385Y-103988602D01*
X148042915Y-104057853D01*
X148144154Y-104094701D01*
X148144155Y-104094701D01*
X148251889Y-104094701D01*
X148251890Y-104094701D01*
X148353129Y-104057853D01*
X148435659Y-103988602D01*
X148489527Y-103895300D01*
X148504940Y-103807887D01*
X148508235Y-103789203D01*
X148508235Y-103789198D01*
X148489527Y-103683102D01*
X148435661Y-103589802D01*
X148423456Y-103579561D01*
X148414868Y-103572354D01*
X148409921Y-103562851D01*
X148413143Y-103552632D01*
X148414865Y-103550909D01*
X148444658Y-103525911D01*
X148458239Y-103502389D01*
X148584230Y-103502389D01*
X148602937Y-103608485D01*
X148656803Y-103701785D01*
X148656805Y-103701787D01*
X148656806Y-103701788D01*
X148739336Y-103771039D01*
X148840575Y-103807887D01*
X148840576Y-103807887D01*
X148948310Y-103807887D01*
X148948311Y-103807887D01*
X149049550Y-103771039D01*
X149132080Y-103701788D01*
X149136491Y-103694149D01*
X149149156Y-103672210D01*
X149185948Y-103608486D01*
X149191048Y-103579561D01*
X149434064Y-103579561D01*
X149452771Y-103685657D01*
X149506637Y-103778957D01*
X149506639Y-103778959D01*
X149506640Y-103778960D01*
X149589170Y-103848211D01*
X149690409Y-103885059D01*
X149690410Y-103885059D01*
X149798144Y-103885059D01*
X149798145Y-103885059D01*
X149899384Y-103848211D01*
X149981914Y-103778960D01*
X150035782Y-103685658D01*
X150042018Y-103650291D01*
X150054490Y-103579561D01*
X150054490Y-103579556D01*
X150035782Y-103473460D01*
X149981916Y-103380160D01*
X149981914Y-103380158D01*
X149899384Y-103310907D01*
X149848764Y-103292483D01*
X149798146Y-103274059D01*
X149798145Y-103274059D01*
X149690409Y-103274059D01*
X149690407Y-103274059D01*
X149589171Y-103310907D01*
X149506637Y-103380160D01*
X149452771Y-103473460D01*
X149434064Y-103579556D01*
X149434064Y-103579561D01*
X149191048Y-103579561D01*
X149195541Y-103554080D01*
X149204656Y-103502389D01*
X149204656Y-103502384D01*
X149185948Y-103396288D01*
X149132082Y-103302988D01*
X149125617Y-103297563D01*
X149049550Y-103233735D01*
X148955062Y-103199344D01*
X148948312Y-103196887D01*
X148948311Y-103196887D01*
X148840575Y-103196887D01*
X148840573Y-103196887D01*
X148739337Y-103233735D01*
X148656803Y-103302988D01*
X148602937Y-103396288D01*
X148584230Y-103502384D01*
X148584230Y-103502389D01*
X148458239Y-103502389D01*
X148462650Y-103494748D01*
X148498526Y-103432609D01*
X148507774Y-103380160D01*
X148517234Y-103326512D01*
X148517234Y-103326507D01*
X148498526Y-103220411D01*
X148444660Y-103127111D01*
X148397400Y-103087455D01*
X148362128Y-103057858D01*
X148279803Y-103027894D01*
X148260890Y-103021010D01*
X148260889Y-103021010D01*
X148153153Y-103021010D01*
X148153151Y-103021010D01*
X148051915Y-103057858D01*
X147969381Y-103127111D01*
X147915515Y-103220411D01*
X147896808Y-103326507D01*
X147896808Y-103326512D01*
X147915515Y-103432608D01*
X147969382Y-103525908D01*
X147969384Y-103525911D01*
X147990172Y-103543355D01*
X147995120Y-103552859D01*
X147991897Y-103563078D01*
X147990173Y-103564803D01*
X147960383Y-103589802D01*
X147906516Y-103683102D01*
X147887809Y-103789198D01*
X147887809Y-103789203D01*
X146868860Y-103789203D01*
X146852099Y-103694149D01*
X146798233Y-103600849D01*
X146785068Y-103589802D01*
X146715701Y-103531596D01*
X146665081Y-103513172D01*
X146614463Y-103494748D01*
X146614462Y-103494748D01*
X146506726Y-103494748D01*
X146506724Y-103494748D01*
X146405488Y-103531596D01*
X146322954Y-103600849D01*
X146269088Y-103694149D01*
X146250381Y-103800245D01*
X146250381Y-103800250D01*
X139660000Y-103800250D01*
X139660000Y-102593100D01*
X145083701Y-102593100D01*
X145102408Y-102699196D01*
X145156274Y-102792496D01*
X145156276Y-102792498D01*
X145156277Y-102792499D01*
X145238807Y-102861750D01*
X145340046Y-102898598D01*
X145340047Y-102898598D01*
X145447781Y-102898598D01*
X145447782Y-102898598D01*
X145549021Y-102861750D01*
X145631551Y-102792499D01*
X145641952Y-102774485D01*
X145684541Y-102700717D01*
X145685419Y-102699197D01*
X145704127Y-102593098D01*
X145704127Y-102593095D01*
X145685419Y-102486999D01*
X145631553Y-102393699D01*
X145631551Y-102393697D01*
X145549021Y-102324446D01*
X145498401Y-102306022D01*
X145447783Y-102287598D01*
X145447782Y-102287598D01*
X145340046Y-102287598D01*
X145340044Y-102287598D01*
X145238808Y-102324446D01*
X145156274Y-102393699D01*
X145102408Y-102486999D01*
X145083701Y-102593095D01*
X145083701Y-102593100D01*
X139660000Y-102593100D01*
X139660000Y-100892644D01*
X139664101Y-100882745D01*
X139674000Y-100878644D01*
X139925597Y-100878644D01*
X139925598Y-100878644D01*
X139927712Y-100878194D01*
X139929399Y-100877942D01*
X139961498Y-100875139D01*
X139963272Y-100874825D01*
X139967890Y-100874785D01*
X139973242Y-100875633D01*
X140022375Y-100862465D01*
X140059777Y-100852451D01*
X140060592Y-100851879D01*
X140064063Y-100850110D01*
X140069739Y-100848153D01*
X140073543Y-100847408D01*
X140080032Y-100847057D01*
X140123624Y-100824750D01*
X140159808Y-100806239D01*
X140159809Y-100806236D01*
X140160924Y-100805667D01*
X140160962Y-100805642D01*
X140300493Y-100734240D01*
X140311172Y-100733382D01*
X140319332Y-100740326D01*
X140320869Y-100746704D01*
X140320869Y-100930919D01*
X140331341Y-100983571D01*
X140331342Y-100983572D01*
X140367830Y-101038180D01*
X140371237Y-101043278D01*
X140430937Y-101083169D01*
X140430939Y-101083169D01*
X140430941Y-101083171D01*
X140483592Y-101093644D01*
X142119145Y-101093643D01*
X142171797Y-101083171D01*
X142231502Y-101043277D01*
X142271396Y-100983572D01*
X142281869Y-100930921D01*
X142281868Y-99013999D01*
X142285968Y-99004101D01*
X142295868Y-99000000D01*
X142536093Y-99000000D01*
X142545992Y-99004101D01*
G37*
%TD.AperFunction*%
%TD*%
D40*
X134301369Y-98513144D02*
X134301369Y-100393144D01*
X139051369Y-100393144D02*
X139901369Y-100393144D01*
X125750000Y-117500000D02*
X125750000Y-98500000D01*
X152000000Y-117000000D02*
X152000000Y-117500000D01*
X139901369Y-98513144D02*
X142701369Y-98513144D01*
X152000000Y-117500000D02*
X125750000Y-117500000D01*
X139051369Y-98513144D02*
X139051369Y-100393144D01*
X139901369Y-100393144D02*
X139901369Y-98513144D01*
X153250000Y-116000000D02*
X153000000Y-116000000D01*
X125750000Y-98500000D02*
X153250000Y-98500000D01*
X134301369Y-100393144D02*
X135151369Y-100393144D01*
X131501369Y-98513144D02*
X134301369Y-98513144D01*
X153250000Y-98500000D02*
X153250000Y-116000000D01*
X135151369Y-100393144D02*
X135151369Y-98513144D01*
X135151369Y-98513144D02*
X139051369Y-98513144D01*
X131501369Y-98363144D02*
X131501369Y-98513144D01*
X142701369Y-98363144D02*
X131501369Y-98363144D01*
X142701369Y-98513144D02*
X142701369Y-98363144D01*
X153000000Y-116000000D02*
G75*
G03*
X152000000Y-117000000I0J-1000000D01*
G01*
M02*
