%TF.GenerationSoftware,KiCad,Pcbnew,7.0.10*%
%TF.CreationDate,2024-02-12T16:24:21-08:00*%
%TF.ProjectId,beeper-design,62656570-6572-42d6-9465-7369676e2e6b,rev?*%
%TF.SameCoordinates,Original*%
%TF.FileFunction,Other,User*%
%FSLAX46Y46*%
G04 Gerber Fmt 4.6, Leading zero omitted, Abs format (unit mm)*
G04 Created by KiCad (PCBNEW 7.0.10) date 2024-02-12 16:24:21*
%MOMM*%
%LPD*%
G01*
G04 APERTURE LIST*
%ADD10C,0.050000*%
%TA.AperFunction,Profile*%
%ADD11C,0.050000*%
%TD*%
G04 APERTURE END LIST*
D10*
%TO.C,TP2*%
X126865609Y-108749100D02*
G75*
G03*
X125865609Y-108749100I-500000J0D01*
G01*
X125865609Y-108749100D02*
G75*
G03*
X126865609Y-108749100I500000J0D01*
G01*
%TO.C,TP1*%
X126881172Y-109922490D02*
G75*
G03*
X125881172Y-109922490I-500000J0D01*
G01*
X125881172Y-109922490D02*
G75*
G03*
X126881172Y-109922490I500000J0D01*
G01*
%TO.C,J1*%
X128150393Y-105585525D02*
X128150393Y-99505525D01*
X128150393Y-99505525D02*
X131182393Y-99505525D01*
X131182393Y-99505525D02*
X131182393Y-105585525D01*
X131182393Y-105585525D02*
X128150393Y-105585525D01*
%TO.C,TP6*%
X138243750Y-106182238D02*
G75*
G03*
X137243750Y-106182238I-500000J0D01*
G01*
X137243750Y-106182238D02*
G75*
G03*
X138243750Y-106182238I500000J0D01*
G01*
%TO.C,TP5*%
X137040550Y-106182238D02*
G75*
G03*
X136040550Y-106182238I-500000J0D01*
G01*
X136040550Y-106182238D02*
G75*
G03*
X137040550Y-106182238I500000J0D01*
G01*
%TO.C,TP9*%
X137040550Y-107385438D02*
G75*
G03*
X136040550Y-107385438I-500000J0D01*
G01*
X136040550Y-107385438D02*
G75*
G03*
X137040550Y-107385438I500000J0D01*
G01*
%TO.C,TP7*%
X138243750Y-107385438D02*
G75*
G03*
X137243750Y-107385438I-500000J0D01*
G01*
X137243750Y-107385438D02*
G75*
G03*
X138243750Y-107385438I500000J0D01*
G01*
%TO.C,TP8*%
X139446950Y-107385438D02*
G75*
G03*
X138446950Y-107385438I-500000J0D01*
G01*
X138446950Y-107385438D02*
G75*
G03*
X139446950Y-107385438I500000J0D01*
G01*
%TO.C,TP10*%
X139446950Y-106182238D02*
G75*
G03*
X138446950Y-106182238I-500000J0D01*
G01*
X138446950Y-106182238D02*
G75*
G03*
X139446950Y-106182238I500000J0D01*
G01*
%TO.C,TP12*%
X144658639Y-99506956D02*
G75*
G03*
X143658639Y-99506956I-500000J0D01*
G01*
X143658639Y-99506956D02*
G75*
G03*
X144658639Y-99506956I500000J0D01*
G01*
%TO.C,TP11*%
X143521457Y-99511848D02*
G75*
G03*
X142521457Y-99511848I-500000J0D01*
G01*
X142521457Y-99511848D02*
G75*
G03*
X143521457Y-99511848I500000J0D01*
G01*
%TO.C,TP4*%
X152751110Y-107880430D02*
G75*
G03*
X151751110Y-107880430I-500000J0D01*
G01*
X151751110Y-107880430D02*
G75*
G03*
X152751110Y-107880430I500000J0D01*
G01*
%TO.C,TP3*%
X152735589Y-109145315D02*
G75*
G03*
X151735589Y-109145315I-500000J0D01*
G01*
X151735589Y-109145315D02*
G75*
G03*
X152735589Y-109145315I500000J0D01*
G01*
%TO.C,TP14*%
X151010572Y-99489893D02*
G75*
G03*
X150010572Y-99489893I-500000J0D01*
G01*
X150010572Y-99489893D02*
G75*
G03*
X151010572Y-99489893I500000J0D01*
G01*
%TO.C,J6*%
X131851369Y-103713144D02*
X142351369Y-103713144D01*
X142351369Y-103713144D02*
X142351369Y-96963144D01*
X142351369Y-96963144D02*
X131851369Y-96963144D01*
X131851369Y-96963144D02*
X131851369Y-103713144D01*
%TO.C,TP13*%
X152311611Y-99505517D02*
G75*
G03*
X151311611Y-99505517I-500000J0D01*
G01*
X151311611Y-99505517D02*
G75*
G03*
X152311611Y-99505517I500000J0D01*
G01*
%TD*%
D11*
X131501369Y-98513144D02*
X134301369Y-98513144D01*
X134301369Y-98513144D02*
X134301369Y-100393144D01*
X134301369Y-100393144D02*
X135151369Y-100393144D01*
X135151369Y-100393144D02*
X135151369Y-98513144D01*
X135151369Y-98513144D02*
X139051369Y-98513144D01*
X139051369Y-98513144D02*
X139051369Y-100393144D01*
X139051369Y-100393144D02*
X139901369Y-100393144D01*
X139901369Y-100393144D02*
X139901369Y-98513144D01*
X139901369Y-98513144D02*
X142701369Y-98513144D01*
X142701369Y-98513144D02*
X142701369Y-98363144D01*
X142701369Y-98363144D02*
X131501369Y-98363144D01*
X131501369Y-98363144D02*
X131501369Y-98513144D01*
X152000000Y-117500000D02*
X125750000Y-117500000D01*
X125750000Y-117500000D02*
X125750000Y-98500000D01*
X125750000Y-98500000D02*
X153250000Y-98500000D01*
X153250000Y-98500000D02*
X153250000Y-116000000D01*
X153250000Y-116000000D02*
X153000000Y-116000000D01*
X153000000Y-116000000D02*
G75*
G03*
X152000000Y-117000000I0J-1000000D01*
G01*
X152000000Y-117000000D02*
X152000000Y-117500000D01*
M02*
