%TF.GenerationSoftware,KiCad,Pcbnew,7.0.10*%
%TF.CreationDate,2024-02-12T16:24:20-08:00*%
%TF.ProjectId,beeper-design,62656570-6572-42d6-9465-7369676e2e6b,rev?*%
%TF.SameCoordinates,Original*%
%TF.FileFunction,Copper,L4,Bot*%
%TF.FilePolarity,Positive*%
%FSLAX46Y46*%
G04 Gerber Fmt 4.6, Leading zero omitted, Abs format (unit mm)*
G04 Created by KiCad (PCBNEW 7.0.10) date 2024-02-12 16:24:20*
%MOMM*%
%LPD*%
G01*
G04 APERTURE LIST*
G04 Aperture macros list*
%AMFreePoly0*
4,1,19,0.495956,0.259127,0.572493,0.243903,0.637378,0.200548,0.680732,0.135664,0.695956,0.059127,0.680732,-0.017410,0.637378,-0.082294,0.572493,-0.125649,-0.151871,-0.363547,-0.302456,-0.393500,-0.453042,-0.363547,-0.580703,-0.278247,-0.666003,-0.150586,-0.695956,0.000000,-0.666003,0.150586,-0.580703,0.278247,-0.453042,0.363547,-0.302456,0.393500,0.495956,0.259127,0.495956,0.259127,
$1*%
%AMFreePoly1*
4,1,34,0.971848,1.803513,1.134060,1.695126,1.242446,1.532915,1.280506,1.341573,1.242446,1.150231,1.134060,0.988020,0.971848,0.879633,0.539203,0.621777,-0.037157,0.266381,-0.106908,0.219775,-0.153514,0.150023,-1.040021,-1.764408,-1.067118,-1.804961,-1.107671,-1.832058,-1.155506,-1.841573,-1.203342,-1.832058,-1.243895,-1.804961,-1.270991,-1.764408,-1.280506,-1.716573,-1.270991,-1.668738,
-1.243895,-1.628185,-1.003478,-1.368601,-0.956872,-1.298850,-0.236663,0.184465,-0.170548,0.283414,0.197148,0.569374,0.243754,0.639125,0.260120,0.721401,0.280506,1.341573,0.318567,1.532915,0.426953,1.695126,0.589165,1.803513,0.780506,1.841573,0.971848,1.803513,0.971848,1.803513,$1*%
%AMFreePoly2*
4,1,9,0.003536,0.003536,0.005000,0.000000,0.003536,-0.003536,0.000000,-0.005000,-0.003536,-0.003536,-0.005000,0.000000,-0.003536,0.003536,0.000000,0.005000,0.003536,0.003536,0.003536,0.003536,$1*%
%AMFreePoly3*
4,1,25,-0.269963,1.195223,-0.107751,1.086837,0.000635,0.924625,0.519560,0.015797,0.946080,-0.956747,0.961304,-1.033284,0.946080,-1.109820,0.902726,-1.174705,0.837841,-1.218060,0.761304,-1.233284,0.684768,-1.218060,0.619883,-1.174705,0.576529,-1.109820,0.334784,-0.060740,0.288178,0.009011,0.218427,0.055617,-0.652646,0.271344,-0.814858,0.379730,-0.923244,0.541942,-0.961304,0.733284,
-0.923244,0.924625,-0.814858,1.086837,-0.652646,1.195223,-0.461304,1.233284,-0.269963,1.195223,-0.269963,1.195223,$1*%
%AMFreePoly4*
4,1,17,-0.606779,1.019037,0.779614,0.321448,0.779614,-1.028552,0.379614,-1.028552,0.229614,0.321448,0.222002,0.359716,0.200325,0.392159,0.167883,0.413836,-0.702450,0.788067,-0.743003,0.815164,-0.770099,0.855717,-0.779614,0.903552,-0.770099,0.951388,-0.743003,0.991940,-0.702450,1.019037,-0.654614,1.028552,-0.606779,1.019037,-0.606779,1.019037,$1*%
%AMFreePoly5*
4,1,19,0.476564,0.363547,0.604224,0.278247,0.689524,0.150586,0.719478,0.000000,0.689524,-0.150586,0.604224,-0.278247,0.476564,-0.363547,0.325978,-0.393500,0.175392,-0.363547,-0.596015,-0.201360,-0.660899,-0.158005,-0.704254,-0.093120,-0.719478,-0.016584,-0.704254,0.059953,-0.660899,0.124838,-0.596015,0.168192,0.175392,0.363547,0.325978,0.393500,0.476564,0.363547,0.476564,0.363547,
$1*%
%AMFreePoly6*
4,1,19,0.530783,0.363547,0.658443,0.278247,0.743744,0.150586,0.773697,0.000000,0.743744,-0.150586,0.658443,-0.278247,0.530783,-0.363547,0.380197,-0.393500,-0.573697,-0.207131,-0.650234,-0.191907,-0.715118,-0.148552,-0.758473,-0.083667,-0.773697,-0.007131,-0.758473,0.069406,-0.715118,0.134291,-0.650234,0.177645,0.229611,0.363547,0.380197,0.393500,0.530783,0.363547,0.530783,0.363547,
$1*%
%AMFreePoly7*
4,1,19,0.606682,0.652007,0.671566,0.608652,0.714921,0.543767,0.730145,0.467231,0.714921,0.390694,0.231795,-0.358573,0.123409,-0.520784,-0.038803,-0.629171,-0.230145,-0.667231,-0.421487,-0.629171,-0.583698,-0.520784,-0.692085,-0.358573,-0.730145,-0.167231,-0.692085,0.024111,-0.583698,0.186323,-0.421487,0.294709,0.453608,0.652007,0.530145,0.667231,0.606682,0.652007,0.606682,0.652007,
$1*%
%AMFreePoly8*
4,1,12,0.076537,0.872276,0.141421,0.828921,0.184776,0.764037,0.200000,0.687500,0.200000,-0.887500,-0.200000,-0.887500,-0.200000,0.687500,-0.184776,0.764037,-0.141421,0.828921,-0.076537,0.872276,0.000000,0.887500,0.076537,0.872276,0.076537,0.872276,$1*%
%AMFreePoly9*
4,1,19,-0.083205,1.526356,0.079006,1.417969,0.187393,1.255758,0.759323,-1.287879,0.774547,-1.364416,0.759323,-1.440953,0.715968,-1.505837,0.651084,-1.549192,0.574547,-1.564416,0.498010,-1.549192,0.433126,-1.505837,0.389771,-1.440953,-0.736487,0.873074,-0.774547,1.064416,-0.736487,1.255758,-0.628100,1.417969,-0.465889,1.526356,-0.274547,1.564416,-0.083205,1.526356,-0.083205,1.526356,
$1*%
%AMFreePoly10*
4,1,19,2.036178,-0.050230,2.112715,-0.065454,2.177600,-0.108809,2.220954,-0.173693,2.236178,-0.250230,2.220954,-0.326767,2.177600,-0.391651,2.112715,-0.435006,2.036178,-0.450230,-1.736178,-0.500000,-1.927520,-0.461940,-2.089732,-0.353553,-2.198118,-0.191342,-2.236178,0.000000,-2.198118,0.191342,-2.089732,0.353553,-1.927520,0.461940,-1.736178,0.500000,2.036178,-0.050230,2.036178,-0.050230,
$1*%
%AMFreePoly11*
4,1,19,-0.151765,0.363547,0.572388,0.195448,0.637272,0.152094,0.680627,0.087209,0.695851,0.010672,0.680627,-0.065864,0.637272,-0.130749,0.572388,-0.174103,-0.151765,-0.363547,-0.302351,-0.393500,-0.452937,-0.363547,-0.580597,-0.278247,-0.665897,-0.150586,-0.695851,0.000000,-0.665897,0.150586,-0.580597,0.278247,-0.452937,0.363547,-0.302351,0.393500,-0.151765,0.363547,-0.151765,0.363547,
$1*%
%AMFreePoly12*
4,1,21,-1.635584,0.711044,-0.169523,-0.012314,1.731254,-0.480074,1.771807,-0.507170,1.798904,-0.547723,1.808419,-0.595559,1.798904,-0.643394,1.771807,-0.683947,1.731254,-0.711044,1.683419,-0.720559,1.635584,-0.711044,-0.265194,-0.243284,-1.731254,0.480074,-1.771807,0.507170,-1.798904,0.547723,-1.808419,0.595559,-1.798904,0.643394,-1.771807,0.683947,-1.731254,0.711044,-1.683419,0.720559,
-1.635584,0.711044,-1.635584,0.711044,$1*%
%AMFreePoly13*
4,1,19,0.191342,1.275945,0.353553,1.167559,0.461940,1.005347,0.500000,0.814005,0.461940,0.622663,-0.016327,-1.190542,-0.059681,-1.255427,-0.124566,-1.298781,-0.201102,-1.314005,-0.277639,-1.298781,-0.342524,-1.255427,-0.385878,-1.190542,-0.401102,-1.114005,-0.500000,0.814005,-0.461940,1.005347,-0.353553,1.167559,-0.191342,1.275945,0.000000,1.314005,0.191342,1.275945,0.191342,1.275945,
$1*%
%AMFreePoly14*
4,1,19,0.502821,0.363547,0.630481,0.278247,0.715781,0.150586,0.745735,0.000000,0.715781,-0.150586,0.630481,-0.278247,0.502821,-0.363547,0.352235,-0.393500,0.201649,-0.363547,-0.622271,-0.181496,-0.687156,-0.138141,-0.730511,-0.073256,-0.745735,0.003280,-0.730511,0.079817,-0.687156,0.144702,-0.622271,0.188056,0.201649,0.363547,0.352235,0.393500,0.502821,0.363547,0.502821,0.363547,
$1*%
%AMFreePoly15*
4,1,19,-0.119425,0.363547,0.540047,0.220405,0.604932,0.177051,0.648287,0.112166,0.663511,0.035629,0.648287,-0.040907,0.604932,-0.105792,0.540047,-0.149146,-0.119425,-0.363547,-0.270011,-0.393500,-0.420597,-0.363547,-0.548257,-0.278247,-0.633557,-0.150586,-0.663511,0.000000,-0.633557,0.150586,-0.548257,0.278247,-0.420597,0.363547,-0.270011,0.393500,-0.119425,0.363547,-0.119425,0.363547,
$1*%
%AMFreePoly16*
4,1,14,0.120108,0.255795,0.160661,0.228698,0.187757,0.188145,0.197272,0.140310,0.187757,0.092475,0.160661,0.051922,-0.079756,-0.207662,-0.120242,-0.265310,-0.197272,-0.218765,-0.043213,0.188145,-0.016116,0.228698,0.024437,0.255795,0.072272,0.265310,0.120108,0.255795,0.120108,0.255795,$1*%
%AMFreePoly17*
4,1,23,0.823581,1.212152,0.985793,1.103765,1.094179,0.941554,1.132240,0.750212,1.094179,0.558870,0.985793,0.396659,0.823581,0.288272,-0.169904,-0.319942,-0.239655,-0.366549,-1.064615,-1.250212,-1.132240,-1.190825,-0.303294,-0.302909,-0.204345,-0.236793,-0.005350,-0.112481,0.064401,-0.065875,0.111007,0.003876,0.127373,0.086153,0.132240,0.750212,0.170300,0.941554,0.278686,1.103765,
0.440898,1.212152,0.632240,1.250212,0.823581,1.212152,0.823581,1.212152,$1*%
%AMFreePoly18*
4,1,19,2.457782,0.280175,2.534319,0.264951,2.599204,0.221597,2.642558,0.156712,2.657782,0.080175,2.642558,0.003638,2.599204,-0.061246,2.534319,-0.104601,2.457782,-0.119825,-2.157782,-0.500000,-2.349124,-0.461940,-2.511336,-0.353553,-2.619722,-0.191342,-2.657782,0.000000,-2.619722,0.191342,-2.511336,0.353553,-2.349124,0.461940,-2.157782,0.500000,2.457782,0.280175,2.457782,0.280175,
$1*%
G04 Aperture macros list end*
%TA.AperFunction,SMDPad,CuDef*%
%ADD10FreePoly0,0.000000*%
%TD*%
%TA.AperFunction,SMDPad,CuDef*%
%ADD11FreePoly1,0.000000*%
%TD*%
%TA.AperFunction,SMDPad,CuDef*%
%ADD12FreePoly2,0.000000*%
%TD*%
%TA.AperFunction,SMDPad,CuDef*%
%ADD13FreePoly3,0.000000*%
%TD*%
%TA.AperFunction,SMDPad,CuDef*%
%ADD14FreePoly4,0.000000*%
%TD*%
%TA.AperFunction,SMDPad,CuDef*%
%ADD15FreePoly5,0.000000*%
%TD*%
%TA.AperFunction,SMDPad,CuDef*%
%ADD16FreePoly6,0.000000*%
%TD*%
%TA.AperFunction,SMDPad,CuDef*%
%ADD17FreePoly7,0.000000*%
%TD*%
%TA.AperFunction,SMDPad,CuDef*%
%ADD18FreePoly8,0.000000*%
%TD*%
%TA.AperFunction,SMDPad,CuDef*%
%ADD19FreePoly9,0.000000*%
%TD*%
%TA.AperFunction,SMDPad,CuDef*%
%ADD20FreePoly10,0.000000*%
%TD*%
%TA.AperFunction,SMDPad,CuDef*%
%ADD21FreePoly11,0.000000*%
%TD*%
%TA.AperFunction,SMDPad,CuDef*%
%ADD22FreePoly12,0.000000*%
%TD*%
%TA.AperFunction,SMDPad,CuDef*%
%ADD23FreePoly13,0.000000*%
%TD*%
%TA.AperFunction,SMDPad,CuDef*%
%ADD24FreePoly14,0.000000*%
%TD*%
%TA.AperFunction,SMDPad,CuDef*%
%ADD25FreePoly15,0.000000*%
%TD*%
%TA.AperFunction,SMDPad,CuDef*%
%ADD26FreePoly16,0.000000*%
%TD*%
%TA.AperFunction,SMDPad,CuDef*%
%ADD27FreePoly17,0.000000*%
%TD*%
%TA.AperFunction,SMDPad,CuDef*%
%ADD28FreePoly18,0.000000*%
%TD*%
%TA.AperFunction,SMDPad,CuDef*%
%ADD29C,1.000000*%
%TD*%
%TA.AperFunction,SMDPad,CuDef*%
%ADD30C,0.787000*%
%TD*%
%TA.AperFunction,SMDPad,CuDef*%
%ADD31R,1.600000X1.900000*%
%TD*%
%TA.AperFunction,SMDPad,CuDef*%
%ADD32R,1.400000X1.900000*%
%TD*%
%TA.AperFunction,SMDPad,CuDef*%
%ADD33R,0.400000X1.350000*%
%TD*%
%TA.AperFunction,ViaPad*%
%ADD34C,0.250000*%
%TD*%
%TA.AperFunction,ViaPad*%
%ADD35C,0.400000*%
%TD*%
%TA.AperFunction,Conductor*%
%ADD36C,0.075000*%
%TD*%
%TA.AperFunction,Conductor*%
%ADD37C,0.200000*%
%TD*%
%TA.AperFunction,Conductor*%
%ADD38C,0.090000*%
%TD*%
%TA.AperFunction,Profile*%
%ADD39C,0.050000*%
%TD*%
G04 APERTURE END LIST*
D10*
%TO.P,,trace*%
%TO.N,mcu_swdclk*%
X130603850Y-102545525D03*
%TD*%
D11*
%TO.P,,trace*%
%TO.N,SP_N*%
X151470603Y-109222003D03*
D12*
X151470603Y-109222003D03*
%TD*%
D13*
%TO.P,,trace*%
%TO.N,AC2*%
X150971877Y-100223177D03*
D12*
X150971877Y-100223177D03*
%TD*%
D14*
%TO.P,,trace*%
%TO.N,VBUS*%
X137821755Y-102284592D03*
D12*
X137821755Y-102284592D03*
%TD*%
D15*
%TO.P,,trace*%
%TO.N,VBUS*%
X128705415Y-103815525D03*
%TD*%
D16*
%TO.P,,trace*%
%TO.N,GND*%
X128651196Y-101275525D03*
%TD*%
D17*
%TO.P,,trace*%
%TO.N,GND*%
X144388784Y-99339725D03*
%TD*%
D18*
%TO.P,,trace*%
%TO.N,GND*%
X135801369Y-102425644D03*
%TD*%
D19*
%TO.P,,trace*%
%TO.N,cap_p1*%
X152086158Y-100569932D03*
%TD*%
D20*
%TO.P,,trace*%
%TO.N,OUT-*%
X128101787Y-108749100D03*
%TD*%
D21*
%TO.P,,trace*%
%TO.N,mcu_tx*%
X130603744Y-101275525D03*
%TD*%
D22*
%TO.P,,trace*%
%TO.N,CLAMP1*%
X149425346Y-102404384D03*
D12*
X149425346Y-102404384D03*
%TD*%
D23*
%TO.P,,trace*%
%TO.N,VBAT*%
X143021457Y-100325853D03*
%TD*%
D24*
%TO.P,,trace*%
%TO.N,mcu_rx*%
X128679159Y-102545525D03*
%TD*%
D25*
%TO.P,,trace*%
%TO.N,mcu_swdio*%
X130571404Y-103815525D03*
%TD*%
D26*
%TO.P,,trace*%
%TO.N,SP_P*%
X149902825Y-110828885D03*
%TD*%
D27*
%TO.P,,trace*%
%TO.N,SP_P*%
X151603350Y-109895527D03*
D12*
X151603350Y-109895527D03*
%TD*%
D28*
%TO.P,,trace*%
%TO.N,OUT+*%
X128538954Y-109922490D03*
%TD*%
D29*
%TO.P,TP2,p*%
%TO.N,OUT-*%
X126365609Y-108749100D03*
%TD*%
%TO.P,TP1,p*%
%TO.N,OUT+*%
X126381172Y-109922490D03*
%TD*%
D30*
%TO.P,J1,5*%
%TO.N,GND*%
X129031393Y-101275525D03*
%TO.P,J1,3*%
%TO.N,mcu_rx*%
X129031393Y-102545525D03*
%TO.P,J1,1*%
%TO.N,VBUS*%
X129031393Y-103815525D03*
%TO.P,J1,6*%
%TO.N,mcu_tx*%
X130301393Y-101275525D03*
%TO.P,J1,4*%
%TO.N,mcu_swdclk*%
X130301393Y-102545525D03*
%TO.P,J1,2*%
%TO.N,mcu_swdio*%
X130301393Y-103815525D03*
%TD*%
D29*
%TO.P,TP6,p*%
%TO.N,mcu_data0*%
X137743750Y-106182238D03*
%TD*%
%TO.P,TP5,p*%
%TO.N,mcu_clk*%
X136540550Y-106182238D03*
%TD*%
%TO.P,TP9,p*%
%TO.N,mcu_data3*%
X136540550Y-107385438D03*
%TD*%
%TO.P,TP7,p*%
%TO.N,mcu_data1*%
X137743750Y-107385438D03*
%TD*%
%TO.P,TP8,p*%
%TO.N,mcu_data2*%
X138946950Y-107385438D03*
%TD*%
%TO.P,TP10,p*%
%TO.N,GND*%
X138946950Y-106182238D03*
%TD*%
%TO.P,TP12,p*%
%TO.N,GND*%
X144158639Y-99506956D03*
%TD*%
%TO.P,TP11,p*%
%TO.N,VBAT*%
X143021457Y-99511848D03*
%TD*%
%TO.P,TP4,p*%
%TO.N,SP_N*%
X152251110Y-107880430D03*
%TD*%
%TO.P,TP3,p*%
%TO.N,SP_P*%
X152235589Y-109145315D03*
%TD*%
%TO.P,TP14,p*%
%TO.N,AC2*%
X150510572Y-99489893D03*
%TD*%
D31*
%TO.P,J6,9*%
%TO.N,SHIELD*%
X141301369Y-99963144D03*
%TO.P,J6,8*%
X132901369Y-99963144D03*
D32*
%TO.P,J6,7*%
X138051369Y-99963144D03*
%TO.P,J6,6*%
X136151369Y-99963144D03*
D33*
%TO.P,J6,5*%
%TO.N,GND*%
X135801369Y-102638144D03*
%TO.P,J6,4*%
%TO.N,ID*%
X136451369Y-102638144D03*
%TO.P,J6,3*%
%TO.N,D+*%
X137101369Y-102638144D03*
%TO.P,J6,2*%
%TO.N,D-*%
X137751369Y-102638144D03*
%TO.P,J6,1*%
%TO.N,VBUS*%
X138401369Y-102638144D03*
%TD*%
D29*
%TO.P,TP13,p*%
%TO.N,cap_p1*%
X151811611Y-99505517D03*
%TD*%
D34*
%TO.N,mcu_data0*%
X138505165Y-111160086D03*
D35*
%TO.N,mcu_swdclk*%
X131099806Y-102486398D03*
D34*
%TO.N,D-*%
X137656635Y-103037404D03*
D35*
%TO.N,QVAR1*%
X134437302Y-103872356D03*
D34*
%TO.N,mcu_scl2*%
X148719173Y-112571735D03*
X140755165Y-113860086D03*
%TO.N,mcu1_gpio2*%
X141655165Y-112960086D03*
X146794797Y-113129689D03*
%TO.N,mcu3_gpio*%
X146280878Y-112615029D03*
X141205165Y-112510086D03*
%TO.N,VLED*%
X142791677Y-110203298D03*
X141631769Y-104364936D03*
%TO.N,SP_N*%
X150315097Y-110938575D03*
%TO.N,mcu_data3*%
X139405165Y-110710086D03*
%TO.N,VDD1P8*%
X133926649Y-107220038D03*
X135016650Y-107661488D03*
X141205165Y-110710086D03*
X135015724Y-103681760D03*
D35*
X133325956Y-104235270D03*
D34*
%TO.N,VDD1P8P*%
X143695241Y-112543850D03*
X151044033Y-108500601D03*
D35*
%TO.N,AC2*%
X151108026Y-101264622D03*
X151733181Y-101256460D03*
D34*
%TO.N,VDDSYS*%
X150315097Y-110438575D03*
X144251451Y-111802192D03*
X144792591Y-111787456D03*
X130381632Y-107879426D03*
X140755165Y-109810086D03*
X131912614Y-110352663D03*
D35*
%TO.N,QVAR2*%
X132672133Y-107033068D03*
X141062328Y-116503834D03*
D34*
%TO.N,VBUS*%
X148207021Y-103326510D03*
X137167141Y-101381040D03*
X140261103Y-107837973D03*
D35*
X128185938Y-103832108D03*
D34*
%TO.N,mcu_sda*%
X140305165Y-113410086D03*
X148536088Y-111998078D03*
%TO.N,GND*%
X149975097Y-108188575D03*
D35*
X138422325Y-104037396D03*
X131338093Y-113051743D03*
X126402896Y-115065217D03*
D34*
X133318088Y-103317714D03*
X151515723Y-108500601D03*
X151541188Y-111678849D03*
X138505165Y-110260086D03*
D35*
X128077499Y-101282656D03*
D34*
X136705165Y-112060086D03*
X145393914Y-102593098D03*
D35*
X131338093Y-115067252D03*
D34*
X144133019Y-114248787D03*
X139405165Y-111610086D03*
X149744277Y-103579559D03*
X141191434Y-113867717D03*
X136407665Y-113617586D03*
X138946950Y-106182238D03*
X143028580Y-106065238D03*
X138505165Y-114760086D03*
X151515723Y-110414103D03*
X136705165Y-112960086D03*
X138179500Y-105250000D03*
D35*
X128179500Y-104775000D03*
D34*
X140261103Y-107018250D03*
X136407665Y-114967586D03*
X137155165Y-112960086D03*
X146560594Y-103800248D03*
X144812655Y-109504617D03*
X145435963Y-110909046D03*
X149341927Y-101808825D03*
X137448712Y-116990399D03*
X138955165Y-112060086D03*
X137443867Y-116359377D03*
X149271820Y-99641158D03*
X145429651Y-110216438D03*
X139405165Y-112510086D03*
X151515723Y-112346569D03*
X149000000Y-114050000D03*
X136857665Y-114967586D03*
X145104416Y-116337360D03*
D35*
X144918929Y-98872494D03*
D34*
X137420500Y-105250000D03*
X141613456Y-104852764D03*
X145502802Y-112527682D03*
D35*
X126402896Y-116432783D03*
D34*
X139855165Y-112510086D03*
X141655165Y-109810086D03*
X144813195Y-108866826D03*
X138055165Y-110260086D03*
X148198022Y-103789201D03*
X138505165Y-111610086D03*
X137087147Y-100028027D03*
X137757665Y-114517586D03*
D35*
X126402896Y-115737686D03*
D34*
X151515723Y-111033303D03*
X143429342Y-117049967D03*
X147354287Y-99464227D03*
X141268060Y-107018250D03*
X141655165Y-111610086D03*
X135053591Y-116689001D03*
D35*
X131380525Y-116488716D03*
D34*
X145624121Y-111787456D03*
X145393914Y-100592371D03*
X143553007Y-106065238D03*
D35*
X126402896Y-113804210D03*
D34*
X147420500Y-105250000D03*
X151515723Y-109154256D03*
X135487414Y-103681760D03*
X134984739Y-111731155D03*
X137757665Y-114967586D03*
X149341927Y-101408825D03*
D35*
X126402896Y-113188950D03*
D34*
X138013865Y-101359212D03*
D35*
X126402896Y-117057853D03*
D34*
X149341927Y-102208825D03*
D35*
X135801369Y-101738144D03*
D34*
X132922454Y-116687814D03*
X139405165Y-112060086D03*
D35*
X131338093Y-114388344D03*
D34*
X139855165Y-112060086D03*
D35*
X126402896Y-112520649D03*
X131342103Y-117017561D03*
D34*
X145277363Y-99941266D03*
X148146998Y-110241780D03*
X149341927Y-101008825D03*
X136407665Y-114067586D03*
X148500000Y-114050000D03*
X130877672Y-109097419D03*
X134085739Y-113031155D03*
X138955165Y-111610086D03*
X148000000Y-114050000D03*
D35*
X131338093Y-113709436D03*
D34*
X142166975Y-107010533D03*
D35*
X126390525Y-114451295D03*
D34*
X130048096Y-107545891D03*
X148146998Y-110879259D03*
X148179500Y-105250000D03*
X151515723Y-109809374D03*
X149975097Y-110188575D03*
X150181490Y-112983089D03*
X132383298Y-109878436D03*
X139254147Y-106768250D03*
D35*
%TO.N,cap_p1*%
X152660705Y-101934348D03*
D34*
%TO.N,mcu_clk*%
X139855165Y-110710086D03*
%TO.N,VDD3P0*%
X149975097Y-111188575D03*
X149295097Y-110188575D03*
X139491383Y-107828414D03*
D35*
%TO.N,OUT-*%
X130137965Y-108999330D03*
D34*
%TO.N,mcu0_gpio2*%
X147131101Y-112451640D03*
X140755165Y-112960086D03*
%TO.N,V14RF*%
X141205002Y-110255575D03*
X138955165Y-114760086D03*
%TO.N,mcu2_gpio*%
X141205165Y-113410086D03*
X148078465Y-112461044D03*
D35*
%TO.N,mcu_tx*%
X131099595Y-101264852D03*
D34*
%TO.N,CLAMP1*%
X147741927Y-101808825D03*
X151108765Y-102999943D03*
%TO.N,SHIELD*%
X136470931Y-99532767D03*
%TO.N,VBAT*%
X141268060Y-107837973D03*
D35*
X142820354Y-101439858D03*
%TO.N,mcu_rx*%
X128133424Y-102542244D03*
D34*
%TO.N,mcu_data2*%
X138955165Y-111160086D03*
%TO.N,mcu_data1*%
X138955165Y-110710086D03*
%TO.N,FOD*%
X147341927Y-101408825D03*
X145925098Y-99469575D03*
%TO.N,RECT*%
X148541927Y-101808825D03*
X146572832Y-99941266D03*
X148541927Y-101408825D03*
X148894443Y-103502387D03*
X148452854Y-99641158D03*
%TO.N,D+*%
X137179787Y-103023399D03*
%TO.N,CLAMP2*%
X147741927Y-101408825D03*
X151108026Y-100366194D03*
D35*
%TO.N,mcu_swdio*%
X131034915Y-103779895D03*
D34*
%TO.N,SP_P*%
X149975097Y-110688575D03*
%TO.N,mcu2_gpio1*%
X140305165Y-113860086D03*
X147870297Y-113163719D03*
%TO.N,V18F*%
X144754416Y-116537360D03*
X143901032Y-117049967D03*
X144615208Y-114253566D03*
X143661328Y-114248787D03*
D35*
%TO.N,OUT+*%
X130996736Y-109842314D03*
%TD*%
D36*
%TO.N,mcu_data0*%
X137743750Y-106182238D02*
X136781431Y-106731044D01*
X136751240Y-106742287D02*
G75*
G03*
X136781431Y-106731043I-19340J98087D01*
G01*
X136751240Y-106742288D02*
X136329860Y-106825388D01*
X136329861Y-106825391D02*
G75*
G03*
X136293651Y-106840351I19339J-98109D01*
G01*
X136293651Y-106840351D02*
X136131440Y-106948737D01*
X136131442Y-106948740D02*
G75*
G03*
X136103850Y-106976327I55558J-83160D01*
G01*
X136103850Y-106976327D02*
X135995463Y-107138539D01*
X135995466Y-107138541D02*
G75*
G03*
X135980532Y-107174587I83134J-55559D01*
G01*
X135980532Y-107174587D02*
X135942471Y-107365929D01*
X135942457Y-107365926D02*
G75*
G03*
X135942472Y-107404947I98143J-19474D01*
G01*
X135942471Y-107404947D02*
X135980532Y-107596289D01*
X135980538Y-107596288D02*
G75*
G03*
X135995463Y-107632337I98062J19488D01*
G01*
X135995463Y-107632337D02*
X136103850Y-107794548D01*
X136103851Y-107794547D02*
G75*
G03*
X136104383Y-107795337I113649J75947D01*
G01*
X136104382Y-107795338D02*
X137884162Y-110404821D01*
X137884161Y-110404821D02*
G75*
G03*
X137889562Y-110412017I82139J56021D01*
G01*
X137889561Y-110412017D02*
X138505165Y-111160086D01*
%TO.N,mcu_data3*%
X136540550Y-107385438D02*
X138672312Y-110110077D01*
X138676699Y-110116141D02*
G75*
G03*
X138672311Y-110110078I-83299J-55659D01*
G01*
X138676700Y-110116140D02*
X138703797Y-110156693D01*
X138718718Y-110192743D02*
G75*
G03*
X138703796Y-110156693I-98018J-19457D01*
G01*
X138718728Y-110192741D02*
X138728243Y-110240577D01*
X138730165Y-110260086D02*
G75*
G03*
X138728242Y-110240577I-100065J-14D01*
G01*
X138730165Y-110260086D02*
X138730165Y-110710086D01*
X138730167Y-110710086D02*
G75*
G03*
X138732087Y-110729595I99933J-14D01*
G01*
X138732086Y-110729595D02*
X138741601Y-110777430D01*
X138741597Y-110777431D02*
G75*
G03*
X138756533Y-110813478I98103J19531D01*
G01*
X138756533Y-110813478D02*
X138783629Y-110854031D01*
X138783641Y-110854023D02*
G75*
G03*
X138811219Y-110881620I83159J55523D01*
G01*
X138811219Y-110881621D02*
X138851772Y-110908718D01*
X138851769Y-110908722D02*
G75*
G03*
X138887820Y-110923649I55531J83122D01*
G01*
X138887820Y-110923649D02*
X138935656Y-110933164D01*
X138935656Y-110933163D02*
G75*
G03*
X138974674Y-110933163I19509J98050D01*
G01*
X138974674Y-110933164D02*
X139022509Y-110923649D01*
X139022510Y-110923653D02*
G75*
G03*
X139052772Y-110912305I-19510J98053D01*
G01*
X139052772Y-110912305D02*
X139405165Y-110710086D01*
D37*
%TO.N,AC2*%
X151108026Y-101264622D02*
X151515651Y-101268113D01*
D36*
%TO.N,mcu_clk*%
X139855165Y-110710086D02*
X138394598Y-107619507D01*
X138386944Y-107596287D02*
G75*
G03*
X138394598Y-107619507I98156J19487D01*
G01*
X138386932Y-107596289D02*
X138348872Y-107404947D01*
X138346945Y-107385704D02*
G75*
G03*
X138348873Y-107404947I100055J304D01*
G01*
X138346950Y-107385704D02*
X138343749Y-106181972D01*
X138343743Y-106181972D02*
G75*
G03*
X138341828Y-106162729I-99943J-228D01*
G01*
X138341828Y-106162729D02*
X138303768Y-105971387D01*
X138303771Y-105971387D02*
G75*
G03*
X138288836Y-105935340I-98071J-19513D01*
G01*
X138288837Y-105935339D02*
X138180450Y-105773127D01*
X138180452Y-105773126D02*
G75*
G03*
X138152859Y-105745538I-83152J-55574D01*
G01*
X138152860Y-105745537D02*
X137990649Y-105637151D01*
X137990651Y-105637149D02*
G75*
G03*
X137954601Y-105622220I-55551J-83151D01*
G01*
X137954601Y-105622219D02*
X137763259Y-105584159D01*
X137763259Y-105584160D02*
G75*
G03*
X137724241Y-105584160I-19509J-98102D01*
G01*
X137724241Y-105584159D02*
X137532899Y-105622219D01*
X137532900Y-105622222D02*
G75*
G03*
X137502868Y-105633431I19500J-98078D01*
G01*
X137502868Y-105633431D02*
X136540550Y-106182238D01*
%TO.N,SHIELD*%
X138051369Y-99963144D02*
X137103668Y-99804401D01*
X137103665Y-99804417D02*
G75*
G03*
X137070131Y-99804486I-16565J-98583D01*
G01*
X137070131Y-99804485D02*
X136151369Y-99963144D01*
X132901369Y-99963144D02*
X134228024Y-100551900D01*
X134228023Y-100551903D02*
G75*
G03*
X134250047Y-100559682I60777J137003D01*
G01*
X134250047Y-100559683D02*
X134262547Y-100563033D01*
X134262550Y-100563023D02*
G75*
G03*
X134301369Y-100568144I38850J144823D01*
G01*
X134301369Y-100568144D02*
X135151369Y-100568144D01*
X135151369Y-100568138D02*
G75*
G03*
X135190192Y-100563033I31J149938D01*
G01*
X135190192Y-100563033D02*
X135202692Y-100559683D01*
X135202690Y-100559675D02*
G75*
G03*
X135244503Y-100541277I-38790J144875D01*
G01*
X135244504Y-100541278D02*
X136151369Y-99963144D01*
X138051369Y-99963144D02*
X138958235Y-100541278D01*
X138958240Y-100541270D02*
G75*
G03*
X139000047Y-100559683I80660J126470D01*
G01*
X139000047Y-100559683D02*
X139012547Y-100563033D01*
X139012550Y-100563023D02*
G75*
G03*
X139051369Y-100568144I38850J144823D01*
G01*
X139051369Y-100568144D02*
X139901369Y-100568144D01*
X139901369Y-100568138D02*
G75*
G03*
X139940192Y-100563033I31J149938D01*
G01*
X139940192Y-100563033D02*
X139952692Y-100559683D01*
X139952692Y-100559684D02*
G75*
G03*
X139974715Y-100551900I-38792J144784D01*
G01*
X139974715Y-100551900D02*
X141301369Y-99963144D01*
%TO.N,mcu_data2*%
X138946950Y-107385438D02*
X140065191Y-110629663D01*
X140068733Y-110642740D02*
G75*
G03*
X140065191Y-110629663I-98133J-19560D01*
G01*
X140068728Y-110642741D02*
X140078243Y-110690577D01*
X140078247Y-110729596D02*
G75*
G03*
X140078242Y-110690577I-98047J19496D01*
G01*
X140078243Y-110729595D02*
X140068728Y-110777430D01*
X140053784Y-110813469D02*
G75*
G03*
X140068727Y-110777430I-83084J55569D01*
G01*
X140053797Y-110813478D02*
X140026700Y-110854031D01*
X139999107Y-110881616D02*
G75*
G03*
X140026700Y-110854031I-55507J83116D01*
G01*
X139999110Y-110881621D02*
X139958557Y-110908718D01*
X139926732Y-110922704D02*
G75*
G03*
X139958557Y-110908718I-23732J97204D01*
G01*
X139926734Y-110922714D02*
X138955165Y-111160086D01*
%TO.N,mcu_data1*%
X137743750Y-107385438D02*
X138841108Y-110123908D01*
X138853592Y-110165915D02*
G75*
G03*
X138841107Y-110123908I-232992J-46385D01*
G01*
X138853586Y-110165916D02*
X138863101Y-110213752D01*
X138863683Y-110216781D02*
G75*
G03*
X138863101Y-110213752I-225183J-41719D01*
G01*
X138863683Y-110216781D02*
X138955165Y-110710086D01*
D37*
%TO.N,CLAMP2*%
X151108026Y-100366194D02*
X149306864Y-100686923D01*
X149306864Y-100686923D02*
G75*
G03*
X149302908Y-100687668I37436J-209477D01*
G01*
X149302908Y-100687668D02*
X149255073Y-100697183D01*
X149255072Y-100697179D02*
G75*
G03*
X149208318Y-100712667I39028J-196121D01*
G01*
X149208318Y-100712667D02*
X147741927Y-101408825D01*
D38*
%TO.N,SP_P*%
X149744058Y-111070917D02*
G75*
G03*
X149727206Y-111114403I115542J-69783D01*
G01*
X149727206Y-111114403D02*
X149717691Y-111162238D01*
X149717701Y-111162240D02*
G75*
G03*
X149717691Y-111214913I132399J-26360D01*
G01*
X149717691Y-111214913D02*
X149727206Y-111262748D01*
X149727201Y-111262749D02*
G75*
G03*
X149747365Y-111311413I132399J26349D01*
G01*
X149747364Y-111311413D02*
X149774460Y-111351966D01*
X149774468Y-111351961D02*
G75*
G03*
X149811707Y-111389211I112232J74961D01*
G01*
X149811707Y-111389212D02*
X149852259Y-111416309D01*
X149852271Y-111416292D02*
G75*
G03*
X149900924Y-111436466I75029J112192D01*
G01*
X149900924Y-111436466D02*
X149948760Y-111445981D01*
X149948760Y-111445981D02*
G75*
G03*
X150001434Y-111445981I26337J132403D01*
G01*
X150001434Y-111445981D02*
X150049270Y-111436466D01*
X150049273Y-111436483D02*
G75*
G03*
X150097934Y-111416309I-26373J132383D01*
G01*
X150097934Y-111416309D02*
X150138487Y-111389212D01*
X150138488Y-111389213D02*
G75*
G03*
X150143458Y-111385726I-75988J113613D01*
G01*
X150143458Y-111385727D02*
X150483458Y-111135727D01*
X150483451Y-111135717D02*
G75*
G03*
X150504923Y-111116045I-79951J108817D01*
G01*
%TD*%
%TA.AperFunction,Conductor*%
%TO.N,QVAR1*%
G36*
X131996768Y-99004101D02*
G01*
X132000869Y-99014000D01*
X132000869Y-100923040D01*
X132000870Y-100923043D01*
X132006700Y-100952357D01*
X132028912Y-100985601D01*
X132062156Y-101007813D01*
X132091470Y-101013644D01*
X133711267Y-101013643D01*
X133740582Y-101007813D01*
X133773826Y-100985601D01*
X133796038Y-100952357D01*
X133801869Y-100923043D01*
X133801868Y-100535283D01*
X133805968Y-100525385D01*
X133815868Y-100521284D01*
X133821545Y-100522487D01*
X134122841Y-100656200D01*
X134141859Y-100664640D01*
X134141898Y-100664663D01*
X134166109Y-100675403D01*
X134166116Y-100675410D01*
X134172062Y-100678047D01*
X134172062Y-100678048D01*
X134178906Y-100681083D01*
X134179100Y-100681169D01*
X134179206Y-100681214D01*
X134185873Y-100684173D01*
X134188651Y-100685406D01*
X134189825Y-100685590D01*
X134192673Y-100686351D01*
X134192890Y-100686435D01*
X134193080Y-100686508D01*
X134193067Y-100686540D01*
X134194880Y-100687587D01*
X134194970Y-100687418D01*
X134196367Y-100688157D01*
X134196369Y-100688159D01*
X134196370Y-100688159D01*
X134196402Y-100688176D01*
X134201248Y-100689474D01*
X134206833Y-100690970D01*
X134206981Y-100691013D01*
X134207133Y-100691053D01*
X134207134Y-100691054D01*
X134213342Y-100692716D01*
X134244371Y-100701032D01*
X134244376Y-100701032D01*
X134244745Y-100701131D01*
X134244786Y-100701132D01*
X134244792Y-100701134D01*
X134244797Y-100701132D01*
X134246363Y-100701191D01*
X134246358Y-100701319D01*
X134248765Y-100701304D01*
X134263709Y-100703943D01*
X134279273Y-100705308D01*
X134281659Y-100705730D01*
X134282196Y-100705874D01*
X134283197Y-100706143D01*
X134283202Y-100706144D01*
X134301340Y-100706144D01*
X134332838Y-100706151D01*
X134332840Y-100706149D01*
X134334337Y-100706150D01*
X134334402Y-100706144D01*
X135169533Y-100706144D01*
X135169536Y-100706144D01*
X135171096Y-100705725D01*
X135173492Y-100705303D01*
X135188975Y-100703952D01*
X135204004Y-100701304D01*
X135206387Y-100701321D01*
X135206383Y-100701193D01*
X135207954Y-100701133D01*
X135207958Y-100701134D01*
X135207961Y-100701133D01*
X135207989Y-100701132D01*
X135208362Y-100701032D01*
X135208368Y-100701032D01*
X135229013Y-100695498D01*
X135256321Y-100688185D01*
X135256323Y-100688183D01*
X135256324Y-100688183D01*
X135257720Y-100687445D01*
X135257785Y-100687569D01*
X135259529Y-100686528D01*
X135280028Y-100678730D01*
X135300221Y-100668586D01*
X135302267Y-100667756D01*
X135303369Y-100667409D01*
X135320953Y-100656198D01*
X135329347Y-100650848D01*
X135339899Y-100648988D01*
X135348676Y-100655133D01*
X135350869Y-100662656D01*
X135350869Y-100923040D01*
X135350870Y-100923043D01*
X135356700Y-100952357D01*
X135378912Y-100985601D01*
X135412156Y-101007813D01*
X135441470Y-101013644D01*
X136861267Y-101013643D01*
X136890582Y-101007813D01*
X136923826Y-100985601D01*
X136946038Y-100952357D01*
X136951869Y-100923043D01*
X136951868Y-100235035D01*
X136955968Y-100225137D01*
X136965868Y-100221036D01*
X136973644Y-100223394D01*
X136999161Y-100240444D01*
X137087147Y-100257945D01*
X137175133Y-100240444D01*
X137229092Y-100204389D01*
X137239600Y-100202300D01*
X137248510Y-100208253D01*
X137250869Y-100216031D01*
X137250869Y-100923040D01*
X137250870Y-100923043D01*
X137256700Y-100952357D01*
X137278912Y-100985601D01*
X137312156Y-101007813D01*
X137341470Y-101013644D01*
X138761267Y-101013643D01*
X138790582Y-101007813D01*
X138823826Y-100985601D01*
X138846038Y-100952357D01*
X138851869Y-100923043D01*
X138851868Y-100662653D01*
X138855968Y-100652755D01*
X138865868Y-100648654D01*
X138873394Y-100650849D01*
X138899366Y-100667407D01*
X138899367Y-100667407D01*
X138899370Y-100667409D01*
X138900504Y-100667766D01*
X138902573Y-100668608D01*
X138922650Y-100678702D01*
X138922659Y-100678705D01*
X138922666Y-100678709D01*
X138943194Y-100686527D01*
X138944902Y-100687546D01*
X138944970Y-100687418D01*
X138946366Y-100688156D01*
X138946369Y-100688159D01*
X138946372Y-100688159D01*
X138946401Y-100688175D01*
X138946774Y-100688275D01*
X138946776Y-100688276D01*
X138966682Y-100693611D01*
X138994725Y-100701132D01*
X138996302Y-100701191D01*
X138996297Y-100701312D01*
X138998724Y-100701297D01*
X139004357Y-100702291D01*
X139013709Y-100703943D01*
X139029273Y-100705308D01*
X139031659Y-100705730D01*
X139032196Y-100705874D01*
X139033197Y-100706143D01*
X139033202Y-100706144D01*
X139051340Y-100706144D01*
X139082838Y-100706151D01*
X139082840Y-100706149D01*
X139084337Y-100706150D01*
X139084402Y-100706144D01*
X139336000Y-100706144D01*
X139345899Y-100710245D01*
X139350000Y-100720144D01*
X139350000Y-105706204D01*
X139345899Y-105716103D01*
X139336000Y-105720204D01*
X139327477Y-105717311D01*
X139249793Y-105657703D01*
X139249791Y-105657702D01*
X139213858Y-105642818D01*
X139103712Y-105597194D01*
X139051458Y-105590314D01*
X138946952Y-105576556D01*
X138946948Y-105576556D01*
X138842442Y-105590314D01*
X138790188Y-105597194D01*
X138790187Y-105597194D01*
X138644108Y-105657702D01*
X138644106Y-105657703D01*
X138518668Y-105753956D01*
X138431643Y-105867369D01*
X138422363Y-105872726D01*
X138412013Y-105869953D01*
X138408895Y-105866624D01*
X138313562Y-105723948D01*
X138313550Y-105723926D01*
X138312686Y-105722633D01*
X138312686Y-105722632D01*
X138298697Y-105701701D01*
X138298696Y-105701696D01*
X138286314Y-105683168D01*
X138286296Y-105683143D01*
X138285103Y-105681357D01*
X138285102Y-105681356D01*
X138285100Y-105681353D01*
X138283865Y-105680270D01*
X138282580Y-105678985D01*
X138265947Y-105660022D01*
X138265944Y-105660020D01*
X138265943Y-105660018D01*
X138247019Y-105643424D01*
X138245727Y-105642134D01*
X138245720Y-105642127D01*
X138244634Y-105640888D01*
X138242741Y-105639623D01*
X138242717Y-105639606D01*
X138232437Y-105632738D01*
X138232435Y-105632736D01*
X138222153Y-105625867D01*
X138094794Y-105540767D01*
X138094776Y-105540752D01*
X138071710Y-105525342D01*
X138071709Y-105525340D01*
X138067309Y-105522400D01*
X138067310Y-105522400D01*
X138054339Y-105513734D01*
X138054338Y-105513733D01*
X138054083Y-105513563D01*
X138054034Y-105513532D01*
X138052213Y-105512316D01*
X138052211Y-105512314D01*
X138050669Y-105511791D01*
X138048984Y-105511093D01*
X138026356Y-105499937D01*
X138026350Y-105499934D01*
X138002520Y-105491848D01*
X138000828Y-105491148D01*
X137999340Y-105490414D01*
X137996827Y-105489914D01*
X137996820Y-105489909D01*
X137996820Y-105489912D01*
X137988389Y-105488236D01*
X137981512Y-105486868D01*
X137981512Y-105486867D01*
X137977539Y-105486078D01*
X137977538Y-105486077D01*
X137977538Y-105486078D01*
X137823107Y-105455359D01*
X137823102Y-105455357D01*
X137790175Y-105448809D01*
X137772364Y-105445266D01*
X137772361Y-105445265D01*
X137770704Y-105445374D01*
X137768877Y-105445374D01*
X137743751Y-105443728D01*
X137743749Y-105443728D01*
X137718622Y-105445374D01*
X137716794Y-105445374D01*
X137715138Y-105445265D01*
X137715136Y-105445265D01*
X137697325Y-105448809D01*
X137666432Y-105454953D01*
X137666431Y-105454953D01*
X137665513Y-105455136D01*
X137665507Y-105455136D01*
X137526470Y-105482793D01*
X137515961Y-105480703D01*
X137510008Y-105471793D01*
X137512098Y-105461284D01*
X137515956Y-105457425D01*
X137583077Y-105412577D01*
X137632917Y-105337986D01*
X137650418Y-105250000D01*
X137949582Y-105250000D01*
X137967082Y-105337984D01*
X137967082Y-105337985D01*
X137967083Y-105337986D01*
X138016923Y-105412577D01*
X138091514Y-105462417D01*
X138179500Y-105479918D01*
X138267486Y-105462417D01*
X138342077Y-105412577D01*
X138391917Y-105337986D01*
X138409418Y-105250000D01*
X138391917Y-105162014D01*
X138342077Y-105087423D01*
X138267486Y-105037583D01*
X138267485Y-105037582D01*
X138267484Y-105037582D01*
X138179500Y-105020082D01*
X138091515Y-105037582D01*
X138016923Y-105087423D01*
X137967082Y-105162015D01*
X137949582Y-105249999D01*
X137949582Y-105250000D01*
X137650418Y-105250000D01*
X137632917Y-105162014D01*
X137583077Y-105087423D01*
X137508486Y-105037583D01*
X137508485Y-105037582D01*
X137508484Y-105037582D01*
X137420500Y-105020082D01*
X137332515Y-105037582D01*
X137257923Y-105087423D01*
X137208082Y-105162015D01*
X137190582Y-105249999D01*
X137190582Y-105250000D01*
X137208082Y-105337984D01*
X137208082Y-105337985D01*
X137208083Y-105337986D01*
X137257923Y-105412577D01*
X137332514Y-105462417D01*
X137420500Y-105479918D01*
X137454523Y-105473150D01*
X137465031Y-105475240D01*
X137470984Y-105484149D01*
X137468894Y-105494659D01*
X137462846Y-105499715D01*
X137454940Y-105503160D01*
X137452903Y-105503867D01*
X137450283Y-105504555D01*
X137428812Y-105516800D01*
X137428810Y-105516801D01*
X137406013Y-105529798D01*
X137405987Y-105529816D01*
X136992874Y-105765413D01*
X136982243Y-105766756D01*
X136974831Y-105761774D01*
X136968833Y-105753957D01*
X136843393Y-105657703D01*
X136843391Y-105657702D01*
X136807458Y-105642818D01*
X136697312Y-105597194D01*
X136645058Y-105590314D01*
X136540552Y-105576556D01*
X136540548Y-105576556D01*
X136436042Y-105590314D01*
X136383788Y-105597194D01*
X136383787Y-105597194D01*
X136237708Y-105657702D01*
X136237706Y-105657703D01*
X136112268Y-105753956D01*
X136016015Y-105879394D01*
X136016014Y-105879396D01*
X135955506Y-106025475D01*
X135955506Y-106025477D01*
X135934868Y-106182235D01*
X135934868Y-106182240D01*
X135955506Y-106338998D01*
X135955506Y-106339000D01*
X136016014Y-106485079D01*
X136016015Y-106485081D01*
X136055540Y-106536591D01*
X136112268Y-106610520D01*
X136194235Y-106673415D01*
X136225681Y-106697545D01*
X136231038Y-106706825D01*
X136228265Y-106717175D01*
X136224936Y-106720293D01*
X136217864Y-106725018D01*
X136217863Y-106725017D01*
X136217004Y-106725593D01*
X136216991Y-106725602D01*
X136189523Y-106743952D01*
X136189506Y-106743967D01*
X136039666Y-106844087D01*
X136039664Y-106844089D01*
X136038553Y-106845355D01*
X136037263Y-106846643D01*
X136018357Y-106863220D01*
X136001735Y-106882169D01*
X136000451Y-106883454D01*
X135999203Y-106884549D01*
X135999199Y-106884554D01*
X135989117Y-106899644D01*
X135989116Y-106899645D01*
X135971019Y-106926722D01*
X135971005Y-106926746D01*
X135870627Y-107076974D01*
X135870624Y-107076980D01*
X135870085Y-107078567D01*
X135869387Y-107080251D01*
X135858266Y-107102799D01*
X135858259Y-107102816D01*
X135850159Y-107126671D01*
X135849462Y-107128356D01*
X135848728Y-107129845D01*
X135845185Y-107147656D01*
X135838736Y-107180061D01*
X135838735Y-107180079D01*
X135813556Y-107306654D01*
X135813514Y-107306789D01*
X135808198Y-107333584D01*
X135808178Y-107333615D01*
X135803997Y-107354679D01*
X135803964Y-107354877D01*
X135803578Y-107356823D01*
X135803679Y-107358378D01*
X135803679Y-107360199D01*
X135802033Y-107385484D01*
X135802033Y-107385488D01*
X135803685Y-107410571D01*
X135803685Y-107412402D01*
X135803577Y-107414047D01*
X135803578Y-107414053D01*
X135803997Y-107416161D01*
X135804015Y-107416269D01*
X135806155Y-107427009D01*
X135806155Y-107427014D01*
X135806156Y-107427014D01*
X135848727Y-107641029D01*
X135848728Y-107641030D01*
X135849472Y-107642539D01*
X135850173Y-107644229D01*
X135858250Y-107668035D01*
X135858252Y-107668039D01*
X135858253Y-107668042D01*
X135858255Y-107668045D01*
X135869393Y-107690639D01*
X135870092Y-107692327D01*
X135870625Y-107693897D01*
X135870626Y-107693898D01*
X135870627Y-107693901D01*
X135883225Y-107712755D01*
X135899212Y-107736687D01*
X135899229Y-107736706D01*
X135978516Y-107855366D01*
X135979041Y-107856271D01*
X135979272Y-107856614D01*
X135980121Y-107858062D01*
X135989778Y-107872222D01*
X135989852Y-107872331D01*
X135999201Y-107886322D01*
X135999202Y-107886323D01*
X135999408Y-107886631D01*
X136000030Y-107887439D01*
X136000077Y-107887509D01*
X136001113Y-107888841D01*
X136295740Y-108320818D01*
X137761321Y-110469630D01*
X137761322Y-110469630D01*
X137769161Y-110481123D01*
X137770338Y-110483214D01*
X137771459Y-110485678D01*
X137773771Y-110488488D01*
X137775785Y-110490936D01*
X137776538Y-110491940D01*
X137780391Y-110497588D01*
X137782456Y-110499365D01*
X137784133Y-110501080D01*
X138280998Y-111104859D01*
X138284122Y-111115109D01*
X138283919Y-111116486D01*
X138275247Y-111160085D01*
X138275247Y-111160086D01*
X138292747Y-111248070D01*
X138292747Y-111248071D01*
X138292748Y-111248072D01*
X138342588Y-111322663D01*
X138417179Y-111372503D01*
X138418326Y-111373269D01*
X138417974Y-111373794D01*
X138423910Y-111379738D01*
X138423902Y-111390453D01*
X138417975Y-111396379D01*
X138418326Y-111396903D01*
X138417179Y-111397668D01*
X138417179Y-111397669D01*
X138342588Y-111447509D01*
X138292747Y-111522101D01*
X138275247Y-111610085D01*
X138275247Y-111610086D01*
X138292747Y-111698070D01*
X138292747Y-111698071D01*
X138292748Y-111698072D01*
X138342588Y-111772663D01*
X138417179Y-111822503D01*
X138505165Y-111840004D01*
X138593151Y-111822503D01*
X138667742Y-111772663D01*
X138717582Y-111698072D01*
X138717582Y-111698071D01*
X138718348Y-111696925D01*
X138718874Y-111697276D01*
X138724806Y-111691344D01*
X138735522Y-111691343D01*
X138741456Y-111697276D01*
X138741982Y-111696925D01*
X138742747Y-111698071D01*
X138742748Y-111698072D01*
X138792588Y-111772663D01*
X138867179Y-111822503D01*
X138868326Y-111823269D01*
X138867974Y-111823794D01*
X138873910Y-111829738D01*
X138873902Y-111840453D01*
X138867975Y-111846379D01*
X138868326Y-111846903D01*
X138867179Y-111847668D01*
X138867179Y-111847669D01*
X138798242Y-111893731D01*
X138792588Y-111897509D01*
X138742747Y-111972101D01*
X138725247Y-112060085D01*
X138725247Y-112060086D01*
X138742747Y-112148070D01*
X138742747Y-112148071D01*
X138742748Y-112148072D01*
X138792588Y-112222663D01*
X138867179Y-112272503D01*
X138955165Y-112290004D01*
X139043151Y-112272503D01*
X139117742Y-112222663D01*
X139167582Y-112148072D01*
X139167582Y-112148071D01*
X139168348Y-112146925D01*
X139168874Y-112147276D01*
X139174806Y-112141344D01*
X139185522Y-112141343D01*
X139191456Y-112147276D01*
X139191982Y-112146925D01*
X139192747Y-112148071D01*
X139192748Y-112148072D01*
X139242588Y-112222663D01*
X139317179Y-112272503D01*
X139318326Y-112273269D01*
X139317972Y-112273798D01*
X139323900Y-112279711D01*
X139323913Y-112290426D01*
X139317976Y-112296381D01*
X139318325Y-112296903D01*
X139242588Y-112347509D01*
X139192747Y-112422101D01*
X139175247Y-112510085D01*
X139175247Y-112510086D01*
X139192747Y-112598070D01*
X139192747Y-112598071D01*
X139192748Y-112598072D01*
X139242588Y-112672663D01*
X139317179Y-112722503D01*
X139338732Y-112726790D01*
X139347640Y-112732742D01*
X139350000Y-112740520D01*
X139350000Y-116986000D01*
X139345899Y-116995899D01*
X139336000Y-117000000D01*
X137692029Y-117000000D01*
X137682130Y-116995899D01*
X137678298Y-116988731D01*
X137678238Y-116988431D01*
X137661129Y-116902413D01*
X137611289Y-116827822D01*
X137536698Y-116777982D01*
X137536697Y-116777981D01*
X137536696Y-116777981D01*
X137448712Y-116760481D01*
X137360727Y-116777981D01*
X137286135Y-116827822D01*
X137236294Y-116902414D01*
X137226135Y-116953490D01*
X137219186Y-116988431D01*
X137219126Y-116988731D01*
X137213173Y-116997641D01*
X137205395Y-117000000D01*
X131655890Y-117000000D01*
X131645991Y-116995899D01*
X131642103Y-116988431D01*
X131628837Y-116913198D01*
X131575853Y-116821425D01*
X131524594Y-116778413D01*
X131519646Y-116768908D01*
X131522868Y-116758689D01*
X131528805Y-116754532D01*
X131533093Y-116752972D01*
X131610745Y-116687814D01*
X132692536Y-116687814D01*
X132710036Y-116775798D01*
X132710036Y-116775799D01*
X132710037Y-116775800D01*
X132759877Y-116850391D01*
X132834468Y-116900231D01*
X132922454Y-116917732D01*
X133010440Y-116900231D01*
X133085031Y-116850391D01*
X133134871Y-116775800D01*
X133152136Y-116689001D01*
X134823673Y-116689001D01*
X134841173Y-116776985D01*
X134841173Y-116776986D01*
X134841174Y-116776987D01*
X134891014Y-116851578D01*
X134965605Y-116901418D01*
X135053591Y-116918919D01*
X135141577Y-116901418D01*
X135216168Y-116851578D01*
X135266008Y-116776987D01*
X135283509Y-116689001D01*
X135266008Y-116601015D01*
X135216168Y-116526424D01*
X135141577Y-116476584D01*
X135141576Y-116476583D01*
X135141575Y-116476583D01*
X135053591Y-116459083D01*
X134965606Y-116476583D01*
X134891014Y-116526424D01*
X134841173Y-116601016D01*
X134823673Y-116689000D01*
X134823673Y-116689001D01*
X133152136Y-116689001D01*
X133152372Y-116687814D01*
X133134871Y-116599828D01*
X133085031Y-116525237D01*
X133010440Y-116475397D01*
X133010439Y-116475396D01*
X133010438Y-116475396D01*
X132922454Y-116457896D01*
X132834469Y-116475396D01*
X132759877Y-116525237D01*
X132710036Y-116599829D01*
X132692536Y-116687813D01*
X132692536Y-116687814D01*
X131610745Y-116687814D01*
X131614273Y-116684854D01*
X131667259Y-116593079D01*
X131673393Y-116558291D01*
X131685661Y-116488718D01*
X131685661Y-116488713D01*
X131667259Y-116384353D01*
X131652839Y-116359377D01*
X137213949Y-116359377D01*
X137231449Y-116447361D01*
X137231449Y-116447362D01*
X137231450Y-116447363D01*
X137281290Y-116521954D01*
X137355881Y-116571794D01*
X137443867Y-116589295D01*
X137531853Y-116571794D01*
X137606444Y-116521954D01*
X137656284Y-116447363D01*
X137673785Y-116359377D01*
X137667627Y-116328420D01*
X137656284Y-116271392D01*
X137656284Y-116271391D01*
X137606444Y-116196800D01*
X137531853Y-116146960D01*
X137531852Y-116146959D01*
X137531851Y-116146959D01*
X137443867Y-116129459D01*
X137355882Y-116146959D01*
X137281290Y-116196800D01*
X137231449Y-116271392D01*
X137213949Y-116359376D01*
X137213949Y-116359377D01*
X131652839Y-116359377D01*
X131614275Y-116292580D01*
X131589023Y-116271391D01*
X131533093Y-116224460D01*
X131457096Y-116196800D01*
X131433512Y-116188216D01*
X131433511Y-116188216D01*
X131327539Y-116188216D01*
X131327537Y-116188216D01*
X131227957Y-116224460D01*
X131146774Y-116292580D01*
X131093790Y-116384353D01*
X131075389Y-116488713D01*
X131075389Y-116488718D01*
X131093790Y-116593078D01*
X131146774Y-116684851D01*
X131146776Y-116684853D01*
X131146777Y-116684854D01*
X131161299Y-116697039D01*
X131198033Y-116727863D01*
X131202981Y-116737368D01*
X131199759Y-116747587D01*
X131193823Y-116751743D01*
X131189537Y-116753303D01*
X131108352Y-116821425D01*
X131055368Y-116913198D01*
X131042103Y-116988431D01*
X131036346Y-116997468D01*
X131028316Y-117000000D01*
X130915127Y-117000000D01*
X130905228Y-116995899D01*
X130901127Y-116986000D01*
X130901127Y-115067254D01*
X131032957Y-115067254D01*
X131051358Y-115171614D01*
X131104342Y-115263387D01*
X131104344Y-115263389D01*
X131104345Y-115263390D01*
X131185525Y-115331508D01*
X131285107Y-115367752D01*
X131285108Y-115367752D01*
X131391078Y-115367752D01*
X131391079Y-115367752D01*
X131490661Y-115331508D01*
X131571841Y-115263390D01*
X131624827Y-115171615D01*
X131643229Y-115067252D01*
X131643229Y-115067249D01*
X131625655Y-114967586D01*
X136177747Y-114967586D01*
X136195247Y-115055570D01*
X136195247Y-115055571D01*
X136195248Y-115055572D01*
X136245088Y-115130163D01*
X136319679Y-115180003D01*
X136407665Y-115197504D01*
X136495651Y-115180003D01*
X136570242Y-115130163D01*
X136620082Y-115055572D01*
X136620082Y-115055571D01*
X136620848Y-115054425D01*
X136621374Y-115054776D01*
X136627306Y-115048844D01*
X136638022Y-115048843D01*
X136643956Y-115054776D01*
X136644482Y-115054425D01*
X136645247Y-115055571D01*
X136645248Y-115055572D01*
X136695088Y-115130163D01*
X136769679Y-115180003D01*
X136857665Y-115197504D01*
X136945651Y-115180003D01*
X137020242Y-115130163D01*
X137070082Y-115055572D01*
X137087583Y-114967586D01*
X137527747Y-114967586D01*
X137545247Y-115055570D01*
X137545247Y-115055571D01*
X137545248Y-115055572D01*
X137595088Y-115130163D01*
X137669679Y-115180003D01*
X137757665Y-115197504D01*
X137845651Y-115180003D01*
X137920242Y-115130163D01*
X137970082Y-115055572D01*
X137987583Y-114967586D01*
X137970082Y-114879600D01*
X137920242Y-114805009D01*
X137853010Y-114760086D01*
X138275247Y-114760086D01*
X138292747Y-114848070D01*
X138292747Y-114848071D01*
X138292748Y-114848072D01*
X138342588Y-114922663D01*
X138417179Y-114972503D01*
X138505165Y-114990004D01*
X138593151Y-114972503D01*
X138667742Y-114922663D01*
X138717582Y-114848072D01*
X138717582Y-114848071D01*
X138718348Y-114846925D01*
X138718874Y-114847276D01*
X138724806Y-114841344D01*
X138735522Y-114841343D01*
X138741456Y-114847276D01*
X138741982Y-114846925D01*
X138742747Y-114848071D01*
X138742748Y-114848072D01*
X138792588Y-114922663D01*
X138867179Y-114972503D01*
X138955165Y-114990004D01*
X139043151Y-114972503D01*
X139117742Y-114922663D01*
X139167582Y-114848072D01*
X139185083Y-114760086D01*
X139183848Y-114753879D01*
X139169186Y-114680163D01*
X139167582Y-114672100D01*
X139117742Y-114597509D01*
X139043151Y-114547669D01*
X139043150Y-114547668D01*
X139043149Y-114547668D01*
X138955165Y-114530168D01*
X138867180Y-114547668D01*
X138812089Y-114584479D01*
X138792588Y-114597509D01*
X138755778Y-114652600D01*
X138741982Y-114673247D01*
X138741456Y-114672895D01*
X138735513Y-114678831D01*
X138724798Y-114678823D01*
X138718871Y-114672896D01*
X138718348Y-114673247D01*
X138717582Y-114672100D01*
X138667742Y-114597509D01*
X138593151Y-114547669D01*
X138593150Y-114547668D01*
X138593149Y-114547668D01*
X138505165Y-114530168D01*
X138417180Y-114547668D01*
X138342588Y-114597509D01*
X138292747Y-114672101D01*
X138275247Y-114760085D01*
X138275247Y-114760086D01*
X137853010Y-114760086D01*
X137845651Y-114755169D01*
X137845650Y-114755168D01*
X137844504Y-114754403D01*
X137844855Y-114753876D01*
X137838923Y-114747945D01*
X137838922Y-114737229D01*
X137844855Y-114731294D01*
X137844504Y-114730769D01*
X137845650Y-114730003D01*
X137845651Y-114730003D01*
X137920242Y-114680163D01*
X137970082Y-114605572D01*
X137987583Y-114517586D01*
X137970082Y-114429600D01*
X137920242Y-114355009D01*
X137845651Y-114305169D01*
X137845650Y-114305168D01*
X137845649Y-114305168D01*
X137757665Y-114287668D01*
X137669680Y-114305168D01*
X137595088Y-114355009D01*
X137545247Y-114429601D01*
X137527747Y-114517585D01*
X137527747Y-114517586D01*
X137545247Y-114605570D01*
X137545247Y-114605571D01*
X137545248Y-114605572D01*
X137595088Y-114680163D01*
X137669679Y-114730003D01*
X137670826Y-114730769D01*
X137670474Y-114731294D01*
X137676410Y-114737238D01*
X137676402Y-114747953D01*
X137670475Y-114753879D01*
X137670826Y-114754403D01*
X137669679Y-114755168D01*
X137669679Y-114755169D01*
X137652344Y-114766752D01*
X137595088Y-114805009D01*
X137545247Y-114879601D01*
X137527747Y-114967585D01*
X137527747Y-114967586D01*
X137087583Y-114967586D01*
X137070082Y-114879600D01*
X137020242Y-114805009D01*
X136945651Y-114755169D01*
X136945650Y-114755168D01*
X136945649Y-114755168D01*
X136857665Y-114737668D01*
X136769680Y-114755168D01*
X136701146Y-114800961D01*
X136695088Y-114805009D01*
X136666315Y-114848072D01*
X136644482Y-114880747D01*
X136643956Y-114880395D01*
X136638013Y-114886331D01*
X136627298Y-114886323D01*
X136621371Y-114880396D01*
X136620848Y-114880747D01*
X136614413Y-114871116D01*
X136570242Y-114805009D01*
X136495651Y-114755169D01*
X136495650Y-114755168D01*
X136495649Y-114755168D01*
X136407665Y-114737668D01*
X136319680Y-114755168D01*
X136245088Y-114805009D01*
X136195247Y-114879601D01*
X136177747Y-114967585D01*
X136177747Y-114967586D01*
X131625655Y-114967586D01*
X131624827Y-114962889D01*
X131571843Y-114871116D01*
X131571841Y-114871114D01*
X131490661Y-114802996D01*
X131440697Y-114784811D01*
X131391080Y-114766752D01*
X131391079Y-114766752D01*
X131285107Y-114766752D01*
X131285105Y-114766752D01*
X131185525Y-114802996D01*
X131104342Y-114871116D01*
X131051358Y-114962889D01*
X131032957Y-115067249D01*
X131032957Y-115067254D01*
X130901127Y-115067254D01*
X130901127Y-114388346D01*
X131032957Y-114388346D01*
X131051358Y-114492706D01*
X131104342Y-114584479D01*
X131104344Y-114584481D01*
X131104345Y-114584482D01*
X131185525Y-114652600D01*
X131285107Y-114688844D01*
X131285108Y-114688844D01*
X131391078Y-114688844D01*
X131391079Y-114688844D01*
X131490661Y-114652600D01*
X131571841Y-114584482D01*
X131624827Y-114492707D01*
X131635954Y-114429601D01*
X131643229Y-114388346D01*
X131643229Y-114388341D01*
X131624827Y-114283981D01*
X131571843Y-114192208D01*
X131528182Y-114155572D01*
X131490661Y-114124088D01*
X131437419Y-114104710D01*
X131391080Y-114087844D01*
X131391079Y-114087844D01*
X131285107Y-114087844D01*
X131285105Y-114087844D01*
X131185525Y-114124088D01*
X131104342Y-114192208D01*
X131051358Y-114283981D01*
X131032957Y-114388341D01*
X131032957Y-114388346D01*
X130901127Y-114388346D01*
X130901127Y-114067586D01*
X136177747Y-114067586D01*
X136195247Y-114155570D01*
X136195247Y-114155571D01*
X136195248Y-114155572D01*
X136245088Y-114230163D01*
X136319679Y-114280003D01*
X136407665Y-114297504D01*
X136495651Y-114280003D01*
X136570242Y-114230163D01*
X136620082Y-114155572D01*
X136637583Y-114067586D01*
X136620082Y-113979600D01*
X136570242Y-113905009D01*
X136495651Y-113855169D01*
X136495650Y-113855168D01*
X136494504Y-113854403D01*
X136494855Y-113853876D01*
X136488923Y-113847945D01*
X136488922Y-113837229D01*
X136494855Y-113831294D01*
X136494504Y-113830769D01*
X136495650Y-113830003D01*
X136495651Y-113830003D01*
X136570242Y-113780163D01*
X136620082Y-113705572D01*
X136637583Y-113617586D01*
X136620082Y-113529600D01*
X136570242Y-113455009D01*
X136495651Y-113405169D01*
X136495650Y-113405168D01*
X136495649Y-113405168D01*
X136407665Y-113387668D01*
X136319680Y-113405168D01*
X136245088Y-113455009D01*
X136195247Y-113529601D01*
X136177747Y-113617585D01*
X136177747Y-113617586D01*
X136195247Y-113705570D01*
X136195247Y-113705571D01*
X136195248Y-113705572D01*
X136245088Y-113780163D01*
X136319679Y-113830003D01*
X136320826Y-113830769D01*
X136320474Y-113831294D01*
X136326410Y-113837238D01*
X136326402Y-113847953D01*
X136320475Y-113853879D01*
X136320826Y-113854403D01*
X136319679Y-113855168D01*
X136319679Y-113855169D01*
X136245088Y-113905009D01*
X136195247Y-113979601D01*
X136177747Y-114067585D01*
X136177747Y-114067586D01*
X130901127Y-114067586D01*
X130901127Y-113709438D01*
X131032957Y-113709438D01*
X131051358Y-113813798D01*
X131104342Y-113905571D01*
X131104344Y-113905573D01*
X131104345Y-113905574D01*
X131185525Y-113973692D01*
X131285107Y-114009936D01*
X131285108Y-114009936D01*
X131391078Y-114009936D01*
X131391079Y-114009936D01*
X131490661Y-113973692D01*
X131571841Y-113905574D01*
X131624827Y-113813799D01*
X131643229Y-113709436D01*
X131643229Y-113709433D01*
X131624827Y-113605073D01*
X131571843Y-113513300D01*
X131560414Y-113503710D01*
X131490661Y-113445180D01*
X131440870Y-113427058D01*
X131391080Y-113408936D01*
X131391079Y-113408936D01*
X131285107Y-113408936D01*
X131285105Y-113408936D01*
X131185525Y-113445180D01*
X131104342Y-113513300D01*
X131051358Y-113605073D01*
X131032957Y-113709433D01*
X131032957Y-113709438D01*
X130901127Y-113709438D01*
X130901127Y-113051745D01*
X131032957Y-113051745D01*
X131051358Y-113156105D01*
X131104342Y-113247878D01*
X131104344Y-113247880D01*
X131104345Y-113247881D01*
X131185525Y-113315999D01*
X131285107Y-113352243D01*
X131285108Y-113352243D01*
X131391078Y-113352243D01*
X131391079Y-113352243D01*
X131490661Y-113315999D01*
X131571841Y-113247881D01*
X131624827Y-113156106D01*
X131643229Y-113051743D01*
X131643229Y-113051740D01*
X131639599Y-113031155D01*
X133855821Y-113031155D01*
X133873321Y-113119139D01*
X133873321Y-113119140D01*
X133873322Y-113119141D01*
X133923162Y-113193732D01*
X133997753Y-113243572D01*
X134085739Y-113261073D01*
X134173725Y-113243572D01*
X134248316Y-113193732D01*
X134298156Y-113119141D01*
X134315657Y-113031155D01*
X134301521Y-112960086D01*
X136475247Y-112960086D01*
X136492747Y-113048070D01*
X136492747Y-113048071D01*
X136492748Y-113048072D01*
X136542588Y-113122663D01*
X136617179Y-113172503D01*
X136705165Y-113190004D01*
X136793151Y-113172503D01*
X136867742Y-113122663D01*
X136917582Y-113048072D01*
X136917582Y-113048071D01*
X136918348Y-113046925D01*
X136918874Y-113047276D01*
X136924806Y-113041344D01*
X136935522Y-113041343D01*
X136941456Y-113047276D01*
X136941982Y-113046925D01*
X136942747Y-113048071D01*
X136942748Y-113048072D01*
X136992588Y-113122663D01*
X137067179Y-113172503D01*
X137155165Y-113190004D01*
X137243151Y-113172503D01*
X137317742Y-113122663D01*
X137367582Y-113048072D01*
X137385083Y-112960086D01*
X137367582Y-112872100D01*
X137317742Y-112797509D01*
X137243151Y-112747669D01*
X137243150Y-112747668D01*
X137243149Y-112747668D01*
X137155165Y-112730168D01*
X137067180Y-112747668D01*
X137067179Y-112747669D01*
X136992588Y-112797509D01*
X136945102Y-112868578D01*
X136941982Y-112873247D01*
X136941456Y-112872895D01*
X136935513Y-112878831D01*
X136924798Y-112878823D01*
X136918871Y-112872896D01*
X136918348Y-112873247D01*
X136917582Y-112872100D01*
X136867742Y-112797509D01*
X136793151Y-112747669D01*
X136793150Y-112747668D01*
X136793149Y-112747668D01*
X136705165Y-112730168D01*
X136617180Y-112747668D01*
X136542588Y-112797509D01*
X136492747Y-112872101D01*
X136475247Y-112960085D01*
X136475247Y-112960086D01*
X134301521Y-112960086D01*
X134298156Y-112943169D01*
X134248316Y-112868578D01*
X134173725Y-112818738D01*
X134173724Y-112818737D01*
X134173723Y-112818737D01*
X134085739Y-112801237D01*
X133997754Y-112818737D01*
X133923162Y-112868578D01*
X133873321Y-112943170D01*
X133855821Y-113031154D01*
X133855821Y-113031155D01*
X131639599Y-113031155D01*
X131624827Y-112947380D01*
X131571843Y-112855607D01*
X131571841Y-112855605D01*
X131490661Y-112787487D01*
X131440870Y-112769365D01*
X131391080Y-112751243D01*
X131391079Y-112751243D01*
X131285107Y-112751243D01*
X131285105Y-112751243D01*
X131185525Y-112787487D01*
X131104342Y-112855607D01*
X131051358Y-112947380D01*
X131032957Y-113051740D01*
X131032957Y-113051745D01*
X130901127Y-113051745D01*
X130901127Y-112060086D01*
X136475247Y-112060086D01*
X136492747Y-112148070D01*
X136492747Y-112148071D01*
X136492748Y-112148072D01*
X136542588Y-112222663D01*
X136617179Y-112272503D01*
X136705165Y-112290004D01*
X136793151Y-112272503D01*
X136867742Y-112222663D01*
X136917582Y-112148072D01*
X136935083Y-112060086D01*
X136917582Y-111972100D01*
X136867742Y-111897509D01*
X136793151Y-111847669D01*
X136793150Y-111847668D01*
X136793149Y-111847668D01*
X136705165Y-111830168D01*
X136617180Y-111847668D01*
X136542588Y-111897509D01*
X136492747Y-111972101D01*
X136475247Y-112060085D01*
X136475247Y-112060086D01*
X130901127Y-112060086D01*
X130901127Y-111731155D01*
X134754821Y-111731155D01*
X134772321Y-111819139D01*
X134772321Y-111819140D01*
X134772322Y-111819141D01*
X134822162Y-111893732D01*
X134896753Y-111943572D01*
X134984739Y-111961073D01*
X135072725Y-111943572D01*
X135147316Y-111893732D01*
X135197156Y-111819141D01*
X135214657Y-111731155D01*
X135197156Y-111643169D01*
X135147316Y-111568578D01*
X135072725Y-111518738D01*
X135072724Y-111518737D01*
X135072723Y-111518737D01*
X134984739Y-111501237D01*
X134896754Y-111518737D01*
X134822162Y-111568578D01*
X134772321Y-111643170D01*
X134754821Y-111731154D01*
X134754821Y-111731155D01*
X130901127Y-111731155D01*
X130901127Y-111361126D01*
X130900001Y-111360000D01*
X130900000Y-111360000D01*
X126264000Y-111360000D01*
X126254101Y-111355899D01*
X126250000Y-111346000D01*
X126250000Y-110526865D01*
X126254101Y-110516966D01*
X126264000Y-110512865D01*
X126265801Y-110512983D01*
X126373119Y-110527111D01*
X126381171Y-110528172D01*
X126381172Y-110528172D01*
X126381173Y-110528172D01*
X126391099Y-110526865D01*
X126439008Y-110520556D01*
X126439632Y-110520489D01*
X128477154Y-110352663D01*
X131682696Y-110352663D01*
X131700196Y-110440647D01*
X131700196Y-110440648D01*
X131700197Y-110440649D01*
X131750037Y-110515240D01*
X131824628Y-110565080D01*
X131912614Y-110582581D01*
X132000600Y-110565080D01*
X132075191Y-110515240D01*
X132125031Y-110440649D01*
X132142532Y-110352663D01*
X132141460Y-110347276D01*
X132125031Y-110264678D01*
X132125031Y-110264677D01*
X132075191Y-110190086D01*
X132000600Y-110140246D01*
X132000599Y-110140245D01*
X132000598Y-110140245D01*
X131912614Y-110122745D01*
X131824629Y-110140245D01*
X131750037Y-110190086D01*
X131700196Y-110264678D01*
X131682696Y-110352662D01*
X131682696Y-110352663D01*
X128477154Y-110352663D01*
X131005148Y-110144438D01*
X131011781Y-110143508D01*
X131015766Y-110142950D01*
X131017709Y-110142814D01*
X131049720Y-110142814D01*
X131049722Y-110142814D01*
X131088484Y-110128704D01*
X131090522Y-110128135D01*
X131093264Y-110127591D01*
X131105463Y-110122537D01*
X131105929Y-110122356D01*
X131149304Y-110106570D01*
X131149305Y-110106568D01*
X131149307Y-110106568D01*
X131189924Y-110072485D01*
X131191148Y-110071567D01*
X131195087Y-110068936D01*
X131199525Y-110064496D01*
X131200402Y-110063692D01*
X131230484Y-110038452D01*
X131266171Y-109976637D01*
X131266624Y-109975912D01*
X131266712Y-109975781D01*
X131266715Y-109975771D01*
X131266721Y-109975764D01*
X131267042Y-109975164D01*
X131267061Y-109975174D01*
X131267284Y-109974710D01*
X131283470Y-109946677D01*
X131295503Y-109878436D01*
X132153380Y-109878436D01*
X132170880Y-109966420D01*
X132170880Y-109966421D01*
X132170881Y-109966422D01*
X132220721Y-110041013D01*
X132295312Y-110090853D01*
X132383298Y-110108354D01*
X132471284Y-110090853D01*
X132545875Y-110041013D01*
X132595715Y-109966422D01*
X132613216Y-109878436D01*
X132606031Y-109842316D01*
X132595715Y-109790451D01*
X132595715Y-109790450D01*
X132545875Y-109715859D01*
X132471284Y-109666019D01*
X132471283Y-109666018D01*
X132471282Y-109666018D01*
X132383298Y-109648518D01*
X132295313Y-109666018D01*
X132220721Y-109715859D01*
X132170880Y-109790451D01*
X132153380Y-109878435D01*
X132153380Y-109878436D01*
X131295503Y-109878436D01*
X131301872Y-109842314D01*
X131301872Y-109842311D01*
X131283470Y-109737951D01*
X131267274Y-109709898D01*
X131267051Y-109709442D01*
X131267034Y-109709452D01*
X131266712Y-109708851D01*
X131266712Y-109708850D01*
X131266644Y-109708749D01*
X131266174Y-109707995D01*
X131230484Y-109646176D01*
X131218223Y-109635887D01*
X131200397Y-109620929D01*
X131199506Y-109620113D01*
X131195086Y-109615693D01*
X131191146Y-109613060D01*
X131189935Y-109612151D01*
X131149304Y-109578058D01*
X131105924Y-109562269D01*
X131105355Y-109562047D01*
X131093269Y-109557041D01*
X131093268Y-109557040D01*
X131093264Y-109557039D01*
X131093261Y-109557038D01*
X131093260Y-109557038D01*
X131090537Y-109556496D01*
X131088485Y-109555922D01*
X131049723Y-109541814D01*
X131049722Y-109541814D01*
X131017574Y-109541814D01*
X131015871Y-109541710D01*
X131014598Y-109541554D01*
X131001609Y-109539961D01*
X127358551Y-109366453D01*
X127348858Y-109361886D01*
X127345233Y-109351803D01*
X127349800Y-109342110D01*
X127359029Y-109338470D01*
X130059650Y-109302841D01*
X130139319Y-109301790D01*
X130157224Y-109299907D01*
X130158688Y-109299830D01*
X130190950Y-109299830D01*
X130190951Y-109299830D01*
X130229718Y-109285719D01*
X130231759Y-109285149D01*
X130234493Y-109284606D01*
X130246657Y-109279566D01*
X130247154Y-109279373D01*
X130290533Y-109263586D01*
X130331159Y-109229494D01*
X130332360Y-109228592D01*
X130336316Y-109225951D01*
X130340748Y-109221517D01*
X130341625Y-109220713D01*
X130371713Y-109195468D01*
X130407402Y-109133649D01*
X130407865Y-109132908D01*
X130407941Y-109132796D01*
X130407945Y-109132786D01*
X130408265Y-109132190D01*
X130408283Y-109132199D01*
X130408506Y-109131738D01*
X130424699Y-109103693D01*
X130425805Y-109097419D01*
X130647754Y-109097419D01*
X130665254Y-109185403D01*
X130665254Y-109185404D01*
X130665255Y-109185405D01*
X130715095Y-109259996D01*
X130789686Y-109309836D01*
X130877672Y-109327337D01*
X130965658Y-109309836D01*
X131040249Y-109259996D01*
X131090089Y-109185405D01*
X131107590Y-109097419D01*
X131090089Y-109009433D01*
X131040249Y-108934842D01*
X130965658Y-108885002D01*
X130965657Y-108885001D01*
X130965656Y-108885001D01*
X130877672Y-108867501D01*
X130789687Y-108885001D01*
X130715095Y-108934842D01*
X130665254Y-109009434D01*
X130647754Y-109097418D01*
X130647754Y-109097419D01*
X130425805Y-109097419D01*
X130433824Y-109051941D01*
X130443101Y-108999332D01*
X130443101Y-108999327D01*
X130424699Y-108894967D01*
X130408842Y-108867501D01*
X130408506Y-108866919D01*
X130408280Y-108866458D01*
X130408264Y-108866468D01*
X130407944Y-108865873D01*
X130407941Y-108865864D01*
X130407854Y-108865735D01*
X130407383Y-108864975D01*
X130371714Y-108803194D01*
X130371712Y-108803191D01*
X130341632Y-108777950D01*
X130340741Y-108777134D01*
X130336316Y-108772709D01*
X130332368Y-108770071D01*
X130331160Y-108769165D01*
X130307248Y-108749100D01*
X130290533Y-108735074D01*
X130247174Y-108719292D01*
X130246606Y-108719071D01*
X130234491Y-108714053D01*
X130234485Y-108714051D01*
X130231761Y-108713509D01*
X130229708Y-108712935D01*
X130190952Y-108698830D01*
X130190951Y-108698830D01*
X130159153Y-108698830D01*
X130156778Y-108698627D01*
X130152744Y-108697932D01*
X126540327Y-108171030D01*
X126536990Y-108170111D01*
X126522375Y-108164057D01*
X126522372Y-108164056D01*
X126365611Y-108143418D01*
X126365606Y-108143418D01*
X126265827Y-108156554D01*
X126255477Y-108153781D01*
X126250120Y-108144501D01*
X126250000Y-108142674D01*
X126250000Y-107545891D01*
X129818178Y-107545891D01*
X129835678Y-107633875D01*
X129835678Y-107633876D01*
X129835679Y-107633877D01*
X129885519Y-107708468D01*
X129960110Y-107758308D01*
X130048096Y-107775809D01*
X130136082Y-107758308D01*
X130177412Y-107730691D01*
X130187920Y-107728602D01*
X130196830Y-107734555D01*
X130198920Y-107745064D01*
X130196830Y-107750111D01*
X130169214Y-107791441D01*
X130151714Y-107879425D01*
X130151714Y-107879426D01*
X130169214Y-107967410D01*
X130169214Y-107967411D01*
X130169215Y-107967412D01*
X130219055Y-108042003D01*
X130293646Y-108091843D01*
X130381632Y-108109344D01*
X130469618Y-108091843D01*
X130544209Y-108042003D01*
X130594049Y-107967412D01*
X130611550Y-107879426D01*
X130610915Y-107876236D01*
X130594049Y-107791441D01*
X130594049Y-107791440D01*
X130544209Y-107716849D01*
X130469618Y-107667009D01*
X130469617Y-107667008D01*
X130469616Y-107667008D01*
X130441863Y-107661488D01*
X134786732Y-107661488D01*
X134804232Y-107749472D01*
X134804232Y-107749473D01*
X134804233Y-107749474D01*
X134854073Y-107824065D01*
X134928664Y-107873905D01*
X135016650Y-107891406D01*
X135104636Y-107873905D01*
X135179227Y-107824065D01*
X135229067Y-107749474D01*
X135246568Y-107661488D01*
X135242963Y-107643366D01*
X135229067Y-107573503D01*
X135229067Y-107573502D01*
X135179227Y-107498911D01*
X135104636Y-107449071D01*
X135104635Y-107449070D01*
X135104634Y-107449070D01*
X135016650Y-107431570D01*
X134928665Y-107449070D01*
X134854073Y-107498911D01*
X134804232Y-107573503D01*
X134786732Y-107661487D01*
X134786732Y-107661488D01*
X130441863Y-107661488D01*
X130381632Y-107649508D01*
X130293647Y-107667008D01*
X130252316Y-107694624D01*
X130241806Y-107696714D01*
X130232897Y-107690761D01*
X130230807Y-107680251D01*
X130232897Y-107675207D01*
X130260513Y-107633877D01*
X130278014Y-107545891D01*
X130277279Y-107542198D01*
X130260513Y-107457906D01*
X130260513Y-107457905D01*
X130210673Y-107383314D01*
X130136082Y-107333474D01*
X130136081Y-107333473D01*
X130136080Y-107333473D01*
X130048096Y-107315973D01*
X129960111Y-107333473D01*
X129885519Y-107383314D01*
X129835678Y-107457906D01*
X129818178Y-107545890D01*
X129818178Y-107545891D01*
X126250000Y-107545891D01*
X126250000Y-107033070D01*
X132366997Y-107033070D01*
X132385398Y-107137430D01*
X132438382Y-107229203D01*
X132438384Y-107229205D01*
X132438385Y-107229206D01*
X132519565Y-107297324D01*
X132619147Y-107333568D01*
X132619148Y-107333568D01*
X132725118Y-107333568D01*
X132725119Y-107333568D01*
X132824701Y-107297324D01*
X132905881Y-107229206D01*
X132906187Y-107228677D01*
X132911175Y-107220038D01*
X133696731Y-107220038D01*
X133714231Y-107308022D01*
X133714231Y-107308023D01*
X133714232Y-107308024D01*
X133764072Y-107382615D01*
X133838663Y-107432455D01*
X133926649Y-107449956D01*
X134014635Y-107432455D01*
X134089226Y-107382615D01*
X134139066Y-107308024D01*
X134156567Y-107220038D01*
X134139066Y-107132052D01*
X134089226Y-107057461D01*
X134014635Y-107007621D01*
X134014634Y-107007620D01*
X134014633Y-107007620D01*
X133926649Y-106990120D01*
X133838664Y-107007620D01*
X133764072Y-107057461D01*
X133714231Y-107132053D01*
X133696731Y-107220037D01*
X133696731Y-107220038D01*
X132911175Y-107220038D01*
X132935125Y-107178553D01*
X132958867Y-107137431D01*
X132977269Y-107033068D01*
X132977269Y-107033065D01*
X132958867Y-106928705D01*
X132905883Y-106836932D01*
X132905881Y-106836930D01*
X132824701Y-106768812D01*
X132774910Y-106750690D01*
X132725120Y-106732568D01*
X132725119Y-106732568D01*
X132619147Y-106732568D01*
X132619145Y-106732568D01*
X132519565Y-106768812D01*
X132438382Y-106836932D01*
X132385398Y-106928705D01*
X132366997Y-107033065D01*
X132366997Y-107033070D01*
X126250000Y-107033070D01*
X126250000Y-105085527D01*
X129052642Y-105085527D01*
X129073555Y-105244373D01*
X129073555Y-105244375D01*
X129134869Y-105392400D01*
X129134870Y-105392402D01*
X129150351Y-105412577D01*
X129232406Y-105519512D01*
X129359518Y-105617049D01*
X129507543Y-105678363D01*
X129626508Y-105694025D01*
X129706278Y-105694025D01*
X129825243Y-105678363D01*
X129973268Y-105617049D01*
X130100380Y-105519512D01*
X130197917Y-105392401D01*
X130259231Y-105244375D01*
X130280144Y-105085525D01*
X130259231Y-104926675D01*
X130197917Y-104778650D01*
X130197915Y-104778648D01*
X130197915Y-104778647D01*
X130175291Y-104749164D01*
X130100380Y-104651538D01*
X130005670Y-104578864D01*
X129973270Y-104554002D01*
X129973268Y-104554001D01*
X129868836Y-104510744D01*
X129825243Y-104492687D01*
X129795501Y-104488771D01*
X129706281Y-104477025D01*
X129706278Y-104477025D01*
X129626508Y-104477025D01*
X129626504Y-104477025D01*
X129531336Y-104489554D01*
X129507543Y-104492687D01*
X129507542Y-104492687D01*
X129359517Y-104554001D01*
X129359515Y-104554002D01*
X129232406Y-104651538D01*
X129134870Y-104778646D01*
X129134869Y-104778648D01*
X129073555Y-104926674D01*
X129073555Y-104926676D01*
X129052642Y-105085522D01*
X129052642Y-105085527D01*
X126250000Y-105085527D01*
X126250000Y-104775002D01*
X127874364Y-104775002D01*
X127892765Y-104879362D01*
X127945749Y-104971135D01*
X127945751Y-104971137D01*
X127945752Y-104971138D01*
X128026932Y-105039256D01*
X128126514Y-105075500D01*
X128126515Y-105075500D01*
X128232485Y-105075500D01*
X128232486Y-105075500D01*
X128332068Y-105039256D01*
X128413248Y-104971138D01*
X128466234Y-104879363D01*
X128472368Y-104844575D01*
X128484636Y-104775002D01*
X128484636Y-104774997D01*
X128466234Y-104670637D01*
X128413250Y-104578864D01*
X128413248Y-104578862D01*
X128332068Y-104510744D01*
X128239424Y-104477025D01*
X128232487Y-104474500D01*
X128232486Y-104474500D01*
X128126514Y-104474500D01*
X128126512Y-104474500D01*
X128026932Y-104510744D01*
X127945749Y-104578864D01*
X127892765Y-104670637D01*
X127874364Y-104774997D01*
X127874364Y-104775002D01*
X126250000Y-104775002D01*
X126250000Y-103832110D01*
X127880802Y-103832110D01*
X127899203Y-103936470D01*
X127915386Y-103964499D01*
X127915624Y-103964982D01*
X127915641Y-103964974D01*
X127915967Y-103965586D01*
X127916056Y-103965719D01*
X127916524Y-103966473D01*
X127952187Y-104028243D01*
X127952189Y-104028245D01*
X127952190Y-104028246D01*
X127965166Y-104039134D01*
X127982263Y-104053480D01*
X127983152Y-104054295D01*
X127987586Y-104058729D01*
X127991530Y-104061364D01*
X127992740Y-104062271D01*
X128033370Y-104096364D01*
X128073886Y-104111110D01*
X128074519Y-104111358D01*
X128088317Y-104117162D01*
X128092550Y-104118051D01*
X128094448Y-104118593D01*
X128132952Y-104132608D01*
X128160329Y-104132608D01*
X128163209Y-104132907D01*
X128802011Y-104267215D01*
X128851691Y-104277660D01*
X128852754Y-104277927D01*
X128960363Y-104309524D01*
X128960364Y-104309524D01*
X128960367Y-104309525D01*
X128960370Y-104309525D01*
X129102416Y-104309525D01*
X129102419Y-104309525D01*
X129238718Y-104269504D01*
X129358221Y-104192704D01*
X129392864Y-104152722D01*
X129393519Y-104152019D01*
X129394839Y-104150701D01*
X129395102Y-104150306D01*
X129396151Y-104148928D01*
X129451246Y-104085348D01*
X129478291Y-104026124D01*
X129479377Y-104024179D01*
X129480139Y-104023040D01*
X129484327Y-104012924D01*
X129484484Y-104012563D01*
X129510257Y-103956132D01*
X129530473Y-103815525D01*
X129802313Y-103815525D01*
X129822529Y-103956133D01*
X129848281Y-104012521D01*
X129848480Y-104012980D01*
X129852646Y-104023039D01*
X129852648Y-104023043D01*
X129853402Y-104024171D01*
X129854497Y-104026133D01*
X129881539Y-104085347D01*
X129881540Y-104085348D01*
X129936619Y-104148912D01*
X129936623Y-104148916D01*
X129937686Y-104150311D01*
X129937947Y-104150701D01*
X129939265Y-104152019D01*
X129939920Y-104152722D01*
X129974565Y-104192704D01*
X130089635Y-104266655D01*
X130094068Y-104269504D01*
X130230363Y-104309524D01*
X130230364Y-104309524D01*
X130230367Y-104309525D01*
X130230370Y-104309525D01*
X130372416Y-104309525D01*
X130372419Y-104309525D01*
X130508718Y-104269504D01*
X130510756Y-104268193D01*
X130513995Y-104266656D01*
X130610529Y-104235272D01*
X133020820Y-104235272D01*
X133039221Y-104339632D01*
X133092205Y-104431405D01*
X133092207Y-104431407D01*
X133092208Y-104431408D01*
X133173388Y-104499526D01*
X133272970Y-104535770D01*
X133272971Y-104535770D01*
X133378941Y-104535770D01*
X133378942Y-104535770D01*
X133478524Y-104499526D01*
X133559704Y-104431408D01*
X133612690Y-104339633D01*
X133619387Y-104301651D01*
X133631092Y-104235272D01*
X133631092Y-104235267D01*
X133612690Y-104130907D01*
X133559706Y-104039134D01*
X133557637Y-104037398D01*
X138117189Y-104037398D01*
X138135590Y-104141758D01*
X138188574Y-104233531D01*
X138188576Y-104233533D01*
X138188577Y-104233534D01*
X138269757Y-104301652D01*
X138369339Y-104337896D01*
X138369340Y-104337896D01*
X138475310Y-104337896D01*
X138475311Y-104337896D01*
X138574893Y-104301652D01*
X138656073Y-104233534D01*
X138709059Y-104141759D01*
X138723074Y-104062278D01*
X138727461Y-104037398D01*
X138727461Y-104037393D01*
X138709059Y-103933033D01*
X138656075Y-103841260D01*
X138656073Y-103841258D01*
X138574893Y-103773140D01*
X138525102Y-103755018D01*
X138475312Y-103736896D01*
X138475311Y-103736896D01*
X138369339Y-103736896D01*
X138369337Y-103736896D01*
X138269757Y-103773140D01*
X138188574Y-103841260D01*
X138135590Y-103933033D01*
X138117189Y-104037393D01*
X138117189Y-104037398D01*
X133557637Y-104037398D01*
X133557635Y-104037396D01*
X133478524Y-103971014D01*
X133383616Y-103936471D01*
X133378943Y-103934770D01*
X133378942Y-103934770D01*
X133272970Y-103934770D01*
X133272968Y-103934770D01*
X133173388Y-103971014D01*
X133092205Y-104039134D01*
X133039221Y-104130907D01*
X133020820Y-104235267D01*
X133020820Y-104235272D01*
X130610529Y-104235272D01*
X131084823Y-104081075D01*
X131086715Y-104080604D01*
X131087893Y-104080395D01*
X131087901Y-104080395D01*
X131095943Y-104077467D01*
X131096331Y-104077333D01*
X131143132Y-104062119D01*
X131157559Y-104055119D01*
X131158870Y-104054564D01*
X131187483Y-104044151D01*
X131228115Y-104010055D01*
X131229317Y-104009153D01*
X131232125Y-104007277D01*
X131232937Y-104006843D01*
X131233260Y-104006519D01*
X131233264Y-104006517D01*
X131233265Y-104006517D01*
X131237699Y-104002082D01*
X131238575Y-104001278D01*
X131268663Y-103976033D01*
X131304352Y-103914214D01*
X131304815Y-103913473D01*
X131304891Y-103913361D01*
X131304895Y-103913351D01*
X131305215Y-103912755D01*
X131305233Y-103912764D01*
X131305456Y-103912303D01*
X131321649Y-103884258D01*
X131330844Y-103832110D01*
X131340051Y-103779897D01*
X131340051Y-103779892D01*
X131322747Y-103681760D01*
X134785806Y-103681760D01*
X134803306Y-103769744D01*
X134803306Y-103769745D01*
X134803307Y-103769746D01*
X134853147Y-103844337D01*
X134927738Y-103894177D01*
X135015724Y-103911678D01*
X135103710Y-103894177D01*
X135178301Y-103844337D01*
X135228141Y-103769746D01*
X135237838Y-103720993D01*
X135243791Y-103712085D01*
X135254300Y-103709994D01*
X135263209Y-103715947D01*
X135265300Y-103720994D01*
X135274996Y-103769744D01*
X135274996Y-103769745D01*
X135274997Y-103769746D01*
X135324837Y-103844337D01*
X135399428Y-103894177D01*
X135487414Y-103911678D01*
X135575400Y-103894177D01*
X135649991Y-103844337D01*
X135699831Y-103769746D01*
X135717332Y-103681760D01*
X135715970Y-103674915D01*
X135699831Y-103593775D01*
X135699831Y-103593774D01*
X135649991Y-103519183D01*
X135575400Y-103469343D01*
X135575399Y-103469342D01*
X135575398Y-103469342D01*
X135487414Y-103451842D01*
X135399429Y-103469342D01*
X135324837Y-103519183D01*
X135274996Y-103593775D01*
X135265300Y-103642525D01*
X135259347Y-103651435D01*
X135248838Y-103653525D01*
X135239928Y-103647572D01*
X135237838Y-103642525D01*
X135228141Y-103593775D01*
X135228141Y-103593774D01*
X135178301Y-103519183D01*
X135103710Y-103469343D01*
X135103709Y-103469342D01*
X135103708Y-103469342D01*
X135015724Y-103451842D01*
X134927739Y-103469342D01*
X134853147Y-103519183D01*
X134803306Y-103593775D01*
X134785806Y-103681759D01*
X134785806Y-103681760D01*
X131322747Y-103681760D01*
X131321649Y-103675532D01*
X131305466Y-103647502D01*
X131305232Y-103647031D01*
X131305217Y-103647040D01*
X131304891Y-103646430D01*
X131304825Y-103646331D01*
X131304349Y-103645568D01*
X131268663Y-103583757D01*
X131256395Y-103573463D01*
X131238570Y-103558505D01*
X131237679Y-103557689D01*
X131233264Y-103553274D01*
X131233263Y-103553273D01*
X131233262Y-103553272D01*
X131229338Y-103550650D01*
X131228118Y-103549735D01*
X131187483Y-103515639D01*
X131148316Y-103501383D01*
X131147637Y-103501115D01*
X131137315Y-103496735D01*
X131133186Y-103494983D01*
X131133184Y-103494982D01*
X131133183Y-103494982D01*
X131128029Y-103493863D01*
X131126212Y-103493338D01*
X131087902Y-103479395D01*
X131087901Y-103479395D01*
X131062870Y-103479395D01*
X131059900Y-103479076D01*
X131056366Y-103478309D01*
X130934431Y-103451842D01*
X130481694Y-103353572D01*
X130480720Y-103353324D01*
X130382428Y-103324464D01*
X130372419Y-103321525D01*
X130230367Y-103321525D01*
X130230363Y-103321525D01*
X130094068Y-103361545D01*
X129974565Y-103438346D01*
X129974557Y-103438352D01*
X129939938Y-103478305D01*
X129939266Y-103479028D01*
X129937947Y-103480348D01*
X129937946Y-103480349D01*
X129937685Y-103480741D01*
X129936628Y-103482126D01*
X129881538Y-103545704D01*
X129854497Y-103604915D01*
X129853408Y-103606870D01*
X129852647Y-103608010D01*
X129851681Y-103610343D01*
X129848476Y-103618079D01*
X129848277Y-103618536D01*
X129822530Y-103674915D01*
X129822529Y-103674917D01*
X129802313Y-103815525D01*
X129530473Y-103815525D01*
X129510257Y-103674918D01*
X129484508Y-103618536D01*
X129484315Y-103618091D01*
X129480139Y-103608010D01*
X129479381Y-103606875D01*
X129478287Y-103604914D01*
X129451246Y-103545702D01*
X129451245Y-103545701D01*
X129412733Y-103501257D01*
X129396162Y-103482133D01*
X129395100Y-103480740D01*
X129394839Y-103480349D01*
X129394780Y-103480290D01*
X129393518Y-103479028D01*
X129392865Y-103478327D01*
X129358221Y-103438346D01*
X129276147Y-103385600D01*
X129238717Y-103361545D01*
X129102422Y-103321525D01*
X129102419Y-103321525D01*
X128960367Y-103321525D01*
X128935927Y-103328700D01*
X128846685Y-103354903D01*
X128846178Y-103355042D01*
X128150662Y-103531180D01*
X128147225Y-103531608D01*
X128132950Y-103531608D01*
X128096969Y-103544703D01*
X128095619Y-103545118D01*
X128084251Y-103547997D01*
X128084245Y-103547999D01*
X128068167Y-103555150D01*
X128067267Y-103555514D01*
X128033369Y-103567852D01*
X127992741Y-103601942D01*
X127991522Y-103602856D01*
X127987589Y-103605484D01*
X127983157Y-103609916D01*
X127982258Y-103610739D01*
X127952190Y-103635969D01*
X127952188Y-103635972D01*
X127916520Y-103697749D01*
X127916058Y-103698495D01*
X127915967Y-103698631D01*
X127915644Y-103699235D01*
X127915630Y-103699227D01*
X127915401Y-103699687D01*
X127899203Y-103727746D01*
X127880802Y-103832105D01*
X127880802Y-103832110D01*
X126250000Y-103832110D01*
X126250000Y-103317714D01*
X133088170Y-103317714D01*
X133105670Y-103405698D01*
X133105670Y-103405699D01*
X133105671Y-103405700D01*
X133155511Y-103480291D01*
X133230102Y-103530131D01*
X133318088Y-103547632D01*
X133406074Y-103530131D01*
X133480665Y-103480291D01*
X133530505Y-103405700D01*
X133548006Y-103317714D01*
X133530505Y-103229728D01*
X133480665Y-103155137D01*
X133406074Y-103105297D01*
X133406073Y-103105296D01*
X133406072Y-103105296D01*
X133318088Y-103087796D01*
X133230103Y-103105296D01*
X133155511Y-103155137D01*
X133105670Y-103229729D01*
X133088170Y-103317713D01*
X133088170Y-103317714D01*
X126250000Y-103317714D01*
X126250000Y-102542246D01*
X127828288Y-102542246D01*
X127846688Y-102646604D01*
X127862886Y-102674661D01*
X127863111Y-102675116D01*
X127863126Y-102675109D01*
X127863448Y-102675710D01*
X127863527Y-102675828D01*
X127864002Y-102676594D01*
X127899673Y-102738379D01*
X127899675Y-102738381D01*
X127899676Y-102738382D01*
X127926932Y-102761252D01*
X127929755Y-102763621D01*
X127930644Y-102764436D01*
X127935074Y-102768866D01*
X127939028Y-102771508D01*
X127940218Y-102772401D01*
X127980856Y-102806500D01*
X128005167Y-102815348D01*
X128019256Y-102820476D01*
X128019961Y-102820755D01*
X128025901Y-102823288D01*
X128034778Y-102827076D01*
X128034780Y-102827077D01*
X128040537Y-102828349D01*
X128042285Y-102828858D01*
X128080438Y-102842744D01*
X128104158Y-102842744D01*
X128107178Y-102843073D01*
X128850743Y-103007369D01*
X128851647Y-103007601D01*
X128921007Y-103027967D01*
X128960363Y-103039524D01*
X128960364Y-103039524D01*
X128960367Y-103039525D01*
X128960370Y-103039525D01*
X129102416Y-103039525D01*
X129102419Y-103039525D01*
X129238718Y-102999504D01*
X129358221Y-102922704D01*
X129392858Y-102882729D01*
X129393513Y-102882026D01*
X129394840Y-102880701D01*
X129395108Y-102880299D01*
X129396162Y-102878916D01*
X129451246Y-102815348D01*
X129478288Y-102756131D01*
X129479379Y-102754178D01*
X129480140Y-102753040D01*
X129484333Y-102742915D01*
X129484525Y-102742475D01*
X129510257Y-102686132D01*
X129530473Y-102545525D01*
X129802313Y-102545525D01*
X129822529Y-102686133D01*
X129848281Y-102742521D01*
X129848480Y-102742980D01*
X129852646Y-102753039D01*
X129852648Y-102753043D01*
X129853402Y-102754171D01*
X129854497Y-102756133D01*
X129881539Y-102815347D01*
X129881540Y-102815348D01*
X129936623Y-102878916D01*
X129937686Y-102880310D01*
X129937947Y-102880701D01*
X129939265Y-102882019D01*
X129939920Y-102882722D01*
X129974565Y-102922704D01*
X130091714Y-102997991D01*
X130094068Y-102999504D01*
X130230363Y-103039524D01*
X130230364Y-103039524D01*
X130230367Y-103039525D01*
X130230370Y-103039525D01*
X130372416Y-103039525D01*
X130372419Y-103039525D01*
X130455491Y-103015133D01*
X130508715Y-102999505D01*
X130508715Y-102999504D01*
X130508718Y-102999504D01*
X130511075Y-102997988D01*
X130514272Y-102996466D01*
X131150960Y-102787363D01*
X131152728Y-102786920D01*
X131152788Y-102786898D01*
X131152792Y-102786898D01*
X131156463Y-102785560D01*
X131156774Y-102785453D01*
X131208316Y-102768527D01*
X131222604Y-102761567D01*
X131223930Y-102761005D01*
X131252374Y-102750654D01*
X131293000Y-102716562D01*
X131294201Y-102715660D01*
X131298157Y-102713019D01*
X131302589Y-102708585D01*
X131303466Y-102707781D01*
X131333554Y-102682536D01*
X131369243Y-102620717D01*
X131369706Y-102619976D01*
X131369782Y-102619864D01*
X131369786Y-102619854D01*
X131370106Y-102619258D01*
X131370124Y-102619267D01*
X131370347Y-102618806D01*
X131386540Y-102590761D01*
X131394516Y-102545525D01*
X131404942Y-102486400D01*
X131404942Y-102486395D01*
X131386540Y-102382035D01*
X131370347Y-102353987D01*
X131370121Y-102353526D01*
X131370105Y-102353536D01*
X131369785Y-102352941D01*
X131369782Y-102352932D01*
X131369695Y-102352803D01*
X131369224Y-102352043D01*
X131367207Y-102348550D01*
X131333554Y-102290260D01*
X131333553Y-102290259D01*
X131303473Y-102265018D01*
X131302582Y-102264202D01*
X131298157Y-102259777D01*
X131294209Y-102257139D01*
X131293001Y-102256233D01*
X131275368Y-102241437D01*
X131252374Y-102222142D01*
X131209015Y-102206360D01*
X131208447Y-102206139D01*
X131196332Y-102201121D01*
X131196326Y-102201119D01*
X131193602Y-102200577D01*
X131191549Y-102200003D01*
X131152793Y-102185898D01*
X131152792Y-102185898D01*
X131121073Y-102185898D01*
X131118544Y-102185668D01*
X131116806Y-102185348D01*
X130441407Y-102071678D01*
X130439787Y-102071305D01*
X130390377Y-102056797D01*
X130372419Y-102051525D01*
X130372418Y-102051525D01*
X130322826Y-102051525D01*
X130320504Y-102051331D01*
X130318396Y-102050976D01*
X130318395Y-102050976D01*
X130282030Y-102051515D01*
X130281537Y-102051523D01*
X130281332Y-102051525D01*
X130230363Y-102051525D01*
X130094068Y-102091545D01*
X129974565Y-102168346D01*
X129974557Y-102168352D01*
X129939938Y-102208305D01*
X129939266Y-102209028D01*
X129937947Y-102210348D01*
X129937946Y-102210349D01*
X129937685Y-102210741D01*
X129936628Y-102212126D01*
X129881538Y-102275704D01*
X129854497Y-102334915D01*
X129853407Y-102336870D01*
X129852570Y-102338123D01*
X129852382Y-102338649D01*
X129848480Y-102348068D01*
X129848281Y-102348526D01*
X129822530Y-102404915D01*
X129822529Y-102404917D01*
X129802313Y-102545525D01*
X129530473Y-102545525D01*
X129510257Y-102404918D01*
X129484505Y-102348529D01*
X129484335Y-102348140D01*
X129480140Y-102338010D01*
X129479380Y-102336873D01*
X129478285Y-102334910D01*
X129471692Y-102320474D01*
X129451246Y-102275702D01*
X129396169Y-102212140D01*
X129395108Y-102210749D01*
X129394842Y-102210352D01*
X129394840Y-102210349D01*
X129393512Y-102209021D01*
X129392859Y-102208320D01*
X129358221Y-102168346D01*
X129281420Y-102118988D01*
X129238717Y-102091545D01*
X129102422Y-102051525D01*
X129102419Y-102051525D01*
X128960367Y-102051525D01*
X128935121Y-102058937D01*
X128852489Y-102083199D01*
X128851462Y-102083459D01*
X128109772Y-102241437D01*
X128106855Y-102241744D01*
X128080436Y-102241744D01*
X128042000Y-102255733D01*
X128040132Y-102256269D01*
X128035547Y-102257246D01*
X128035533Y-102257251D01*
X128021493Y-102263177D01*
X128020838Y-102263435D01*
X127980855Y-102277988D01*
X127940220Y-102312083D01*
X127939003Y-102312996D01*
X127936223Y-102314855D01*
X127935404Y-102315292D01*
X127930648Y-102320047D01*
X127929750Y-102320869D01*
X127899676Y-102346105D01*
X127899674Y-102346108D01*
X127863998Y-102407900D01*
X127863528Y-102408658D01*
X127863452Y-102408771D01*
X127863129Y-102409376D01*
X127863114Y-102409368D01*
X127862885Y-102409830D01*
X127846688Y-102437883D01*
X127828288Y-102542241D01*
X127828288Y-102542246D01*
X126250000Y-102542246D01*
X126250000Y-101282658D01*
X127772363Y-101282658D01*
X127790764Y-101387018D01*
X127806953Y-101415058D01*
X127807185Y-101415527D01*
X127807201Y-101415519D01*
X127807523Y-101416121D01*
X127807593Y-101416226D01*
X127808079Y-101417008D01*
X127843748Y-101478791D01*
X127843750Y-101478793D01*
X127843751Y-101478794D01*
X127863086Y-101495018D01*
X127873836Y-101504038D01*
X127874725Y-101504853D01*
X127879148Y-101509276D01*
X127883096Y-101511914D01*
X127884286Y-101512807D01*
X127924931Y-101546912D01*
X127968308Y-101562699D01*
X127968805Y-101562892D01*
X127980969Y-101567931D01*
X127980971Y-101567932D01*
X127983702Y-101568475D01*
X127985747Y-101569046D01*
X128024513Y-101583156D01*
X128056146Y-101583156D01*
X128058831Y-101583416D01*
X128413465Y-101652703D01*
X128858260Y-101739605D01*
X128859505Y-101739909D01*
X128926276Y-101759515D01*
X128960363Y-101769524D01*
X128960364Y-101769524D01*
X128960367Y-101769525D01*
X129010365Y-101769525D01*
X129011699Y-101769589D01*
X129011739Y-101769592D01*
X129011744Y-101769593D01*
X129051383Y-101769525D01*
X129102419Y-101769525D01*
X129238718Y-101729504D01*
X129358221Y-101652704D01*
X129392864Y-101612722D01*
X129393519Y-101612019D01*
X129394839Y-101610701D01*
X129395102Y-101610306D01*
X129396151Y-101608928D01*
X129451246Y-101545348D01*
X129478288Y-101486133D01*
X129479383Y-101484172D01*
X129480216Y-101482926D01*
X129480403Y-101482403D01*
X129484321Y-101472943D01*
X129484521Y-101472484D01*
X129510257Y-101416132D01*
X129530473Y-101275525D01*
X129802313Y-101275525D01*
X129822529Y-101416133D01*
X129848281Y-101472521D01*
X129848480Y-101472980D01*
X129852646Y-101483039D01*
X129852648Y-101483043D01*
X129853402Y-101484171D01*
X129854497Y-101486133D01*
X129881539Y-101545347D01*
X129881540Y-101545348D01*
X129936619Y-101608912D01*
X129936623Y-101608916D01*
X129937686Y-101610311D01*
X129937947Y-101610701D01*
X129939265Y-101612019D01*
X129939920Y-101612722D01*
X129974565Y-101652704D01*
X130094068Y-101729504D01*
X130230363Y-101769524D01*
X130230364Y-101769524D01*
X130230367Y-101769525D01*
X130230370Y-101769525D01*
X130372416Y-101769525D01*
X130372419Y-101769525D01*
X130479288Y-101738145D01*
X135496233Y-101738145D01*
X135498687Y-101752061D01*
X135498900Y-101754492D01*
X135498900Y-103313143D01*
X135506699Y-103352355D01*
X135506699Y-103352356D01*
X135506700Y-103352357D01*
X135528912Y-103385601D01*
X135562156Y-103407813D01*
X135601369Y-103415613D01*
X136001369Y-103415613D01*
X136040582Y-103407813D01*
X136073826Y-103385601D01*
X136096038Y-103352357D01*
X136101870Y-103323040D01*
X136150869Y-103323040D01*
X136155252Y-103345078D01*
X136156700Y-103352357D01*
X136178912Y-103385601D01*
X136212156Y-103407813D01*
X136241470Y-103413644D01*
X136661267Y-103413643D01*
X136690582Y-103407813D01*
X136723826Y-103385601D01*
X136746038Y-103352357D01*
X136751869Y-103323043D01*
X136751869Y-103323040D01*
X136800869Y-103323040D01*
X136805252Y-103345078D01*
X136806700Y-103352357D01*
X136828912Y-103385601D01*
X136862156Y-103407813D01*
X136891470Y-103413644D01*
X137311267Y-103413643D01*
X137340582Y-103407813D01*
X137373826Y-103385601D01*
X137396038Y-103352357D01*
X137401869Y-103323043D01*
X137401868Y-103064172D01*
X137402137Y-103061443D01*
X137402203Y-103061107D01*
X137403086Y-103056667D01*
X137409038Y-103047759D01*
X137419547Y-103045668D01*
X137428457Y-103051620D01*
X137430548Y-103056668D01*
X137444217Y-103125389D01*
X137444218Y-103125390D01*
X137448510Y-103131815D01*
X137450869Y-103139591D01*
X137450869Y-103323040D01*
X137455252Y-103345078D01*
X137456700Y-103352357D01*
X137478912Y-103385601D01*
X137512156Y-103407813D01*
X137541470Y-103413644D01*
X137961267Y-103413643D01*
X137990582Y-103407813D01*
X138023826Y-103385601D01*
X138046038Y-103352357D01*
X138051869Y-103323043D01*
X138051868Y-103148310D01*
X138055968Y-103138413D01*
X138065868Y-103134312D01*
X138075767Y-103138412D01*
X138079782Y-103146766D01*
X138099525Y-103324448D01*
X138099528Y-103324464D01*
X138106699Y-103352356D01*
X138106700Y-103352357D01*
X138128912Y-103385601D01*
X138162156Y-103407813D01*
X138201369Y-103415613D01*
X138601369Y-103415613D01*
X138640582Y-103407813D01*
X138673826Y-103385601D01*
X138696038Y-103352357D01*
X138703838Y-103313144D01*
X138703838Y-101963144D01*
X138698661Y-101930987D01*
X138697892Y-101929631D01*
X138696341Y-101925456D01*
X138696038Y-101923932D01*
X138696038Y-101923931D01*
X138687260Y-101910794D01*
X138686721Y-101909918D01*
X138678948Y-101896201D01*
X138678946Y-101896199D01*
X138677721Y-101895243D01*
X138674691Y-101891982D01*
X138673826Y-101890687D01*
X138673824Y-101890686D01*
X138673824Y-101890685D01*
X138660689Y-101881908D01*
X138659856Y-101881306D01*
X138647426Y-101871609D01*
X138647427Y-101871609D01*
X138101402Y-101596867D01*
X138094402Y-101588755D01*
X138095189Y-101578068D01*
X138100932Y-101572737D01*
X138100704Y-101572395D01*
X138101850Y-101571629D01*
X138101851Y-101571629D01*
X138176442Y-101521789D01*
X138226282Y-101447198D01*
X138243783Y-101359212D01*
X138226282Y-101271226D01*
X138176442Y-101196635D01*
X138101851Y-101146795D01*
X138101850Y-101146794D01*
X138101849Y-101146794D01*
X138013865Y-101129294D01*
X137925880Y-101146794D01*
X137851288Y-101196635D01*
X137801447Y-101271227D01*
X137783947Y-101359211D01*
X137783947Y-101359212D01*
X137795574Y-101417671D01*
X137793483Y-101428180D01*
X137784574Y-101434133D01*
X137775550Y-101432908D01*
X137270594Y-101178830D01*
X137269109Y-101177965D01*
X137255126Y-101168622D01*
X137167141Y-101151122D01*
X137079156Y-101168622D01*
X137004564Y-101218463D01*
X136954723Y-101293055D01*
X136937223Y-101381039D01*
X136937223Y-101381040D01*
X136954723Y-101469024D01*
X136954723Y-101469025D01*
X136954724Y-101469026D01*
X137004564Y-101543617D01*
X137079155Y-101593457D01*
X137089206Y-101595455D01*
X137091995Y-101596322D01*
X137648900Y-101835783D01*
X137656375Y-101843460D01*
X137656231Y-101854174D01*
X137648554Y-101861649D01*
X137643370Y-101862644D01*
X137541472Y-101862644D01*
X137512156Y-101868475D01*
X137478912Y-101890687D01*
X137456699Y-101923932D01*
X137450869Y-101953245D01*
X137450869Y-102935216D01*
X137448510Y-102942993D01*
X137444218Y-102949416D01*
X137444218Y-102949418D01*
X137433334Y-103004133D01*
X137427381Y-103013043D01*
X137416872Y-103015133D01*
X137407962Y-103009180D01*
X137405873Y-103004135D01*
X137402137Y-102985354D01*
X137401868Y-102982623D01*
X137401868Y-101953247D01*
X137401868Y-101953245D01*
X137396038Y-101923931D01*
X137373826Y-101890687D01*
X137340582Y-101868475D01*
X137340581Y-101868474D01*
X137340580Y-101868474D01*
X137318545Y-101864091D01*
X137311268Y-101862644D01*
X137311267Y-101862644D01*
X136891472Y-101862644D01*
X136862156Y-101868475D01*
X136828912Y-101890687D01*
X136806699Y-101923932D01*
X136800869Y-101953245D01*
X136800869Y-103323040D01*
X136751869Y-103323040D01*
X136751868Y-101953246D01*
X136746038Y-101923931D01*
X136723826Y-101890687D01*
X136690582Y-101868475D01*
X136690581Y-101868474D01*
X136690580Y-101868474D01*
X136668545Y-101864091D01*
X136661268Y-101862644D01*
X136661267Y-101862644D01*
X136241472Y-101862644D01*
X136212156Y-101868475D01*
X136178912Y-101890687D01*
X136156699Y-101923932D01*
X136150869Y-101953245D01*
X136150869Y-103323040D01*
X136101870Y-103323040D01*
X136103838Y-103313144D01*
X136103838Y-101754492D01*
X136104051Y-101752061D01*
X136106505Y-101738145D01*
X136106505Y-101738141D01*
X136088103Y-101633781D01*
X136071924Y-101605759D01*
X136071689Y-101605282D01*
X136071672Y-101605292D01*
X136071345Y-101604679D01*
X136071273Y-101604571D01*
X136070785Y-101603786D01*
X136066790Y-101596867D01*
X136035117Y-101542006D01*
X136019746Y-101529108D01*
X136005030Y-101516759D01*
X136004139Y-101515943D01*
X135999720Y-101511524D01*
X135995780Y-101508891D01*
X135994569Y-101507982D01*
X135953937Y-101473888D01*
X135910579Y-101458107D01*
X135910010Y-101457885D01*
X135897895Y-101452867D01*
X135897889Y-101452865D01*
X135895165Y-101452323D01*
X135893112Y-101451749D01*
X135854356Y-101437644D01*
X135854355Y-101437644D01*
X135748383Y-101437644D01*
X135748381Y-101437644D01*
X135709625Y-101451749D01*
X135707574Y-101452323D01*
X135704845Y-101452867D01*
X135704842Y-101452867D01*
X135692724Y-101457886D01*
X135692155Y-101458108D01*
X135648800Y-101473888D01*
X135608165Y-101507983D01*
X135606947Y-101508896D01*
X135603022Y-101511519D01*
X135603018Y-101511522D01*
X135598593Y-101515947D01*
X135597695Y-101516769D01*
X135567621Y-101542005D01*
X135567619Y-101542008D01*
X135531948Y-101603791D01*
X135531509Y-101604503D01*
X135531476Y-101604553D01*
X135531417Y-101604641D01*
X135531232Y-101604916D01*
X135530833Y-101605721D01*
X135514634Y-101633782D01*
X135496233Y-101738141D01*
X135496233Y-101738145D01*
X130479288Y-101738145D01*
X130488534Y-101735430D01*
X130488801Y-101735356D01*
X131136904Y-101565808D01*
X131140447Y-101565352D01*
X131152580Y-101565352D01*
X131152581Y-101565352D01*
X131187611Y-101552601D01*
X131188805Y-101552229D01*
X131202066Y-101548761D01*
X131218216Y-101541499D01*
X131219120Y-101541133D01*
X131252163Y-101529108D01*
X131252164Y-101529106D01*
X131252166Y-101529106D01*
X131292789Y-101495018D01*
X131293991Y-101494115D01*
X131297945Y-101491474D01*
X131302378Y-101487039D01*
X131303255Y-101486235D01*
X131333343Y-101460990D01*
X131369032Y-101399171D01*
X131369495Y-101398430D01*
X131369571Y-101398318D01*
X131369575Y-101398308D01*
X131369895Y-101397712D01*
X131369913Y-101397721D01*
X131370136Y-101397260D01*
X131386329Y-101369215D01*
X131399758Y-101293054D01*
X131404731Y-101264854D01*
X131404731Y-101264849D01*
X131386329Y-101160489D01*
X131370146Y-101132459D01*
X131369912Y-101131988D01*
X131369897Y-101131997D01*
X131369571Y-101131387D01*
X131369505Y-101131288D01*
X131369029Y-101130525D01*
X131333343Y-101068714D01*
X131314007Y-101052489D01*
X131303256Y-101043467D01*
X131302365Y-101042651D01*
X131297945Y-101038231D01*
X131294003Y-101035597D01*
X131292796Y-101034691D01*
X131252163Y-101000596D01*
X131240904Y-100996498D01*
X131215566Y-100987275D01*
X131214794Y-100986967D01*
X131199304Y-100980262D01*
X131199305Y-100980262D01*
X131191826Y-100978526D01*
X131190205Y-100978045D01*
X131152582Y-100964352D01*
X131152581Y-100964352D01*
X131132365Y-100964352D01*
X131129199Y-100963989D01*
X131079085Y-100952356D01*
X130846429Y-100898349D01*
X130483249Y-100814043D01*
X130482471Y-100813839D01*
X130372422Y-100781525D01*
X130372419Y-100781525D01*
X130230367Y-100781525D01*
X130230363Y-100781525D01*
X130094068Y-100821545D01*
X129974565Y-100898346D01*
X129974557Y-100898352D01*
X129939938Y-100938305D01*
X129939266Y-100939028D01*
X129937947Y-100940348D01*
X129937946Y-100940349D01*
X129937685Y-100940741D01*
X129936628Y-100942126D01*
X129881538Y-101005704D01*
X129854497Y-101064915D01*
X129853408Y-101066870D01*
X129853406Y-101066874D01*
X129852647Y-101068010D01*
X129848563Y-101077867D01*
X129848476Y-101078079D01*
X129848277Y-101078536D01*
X129822530Y-101134915D01*
X129822529Y-101134917D01*
X129802313Y-101275525D01*
X129530473Y-101275525D01*
X129510257Y-101134918D01*
X129484505Y-101078529D01*
X129484335Y-101078140D01*
X129480140Y-101068010D01*
X129479380Y-101066873D01*
X129478285Y-101064910D01*
X129476630Y-101061287D01*
X129451246Y-101005702D01*
X129396162Y-100942133D01*
X129395100Y-100940740D01*
X129394839Y-100940349D01*
X129394838Y-100940348D01*
X129393518Y-100939028D01*
X129392865Y-100938327D01*
X129358221Y-100898346D01*
X129281420Y-100848988D01*
X129238717Y-100821545D01*
X129102422Y-100781525D01*
X129102419Y-100781525D01*
X128960367Y-100781525D01*
X128887645Y-100802877D01*
X128852664Y-100813149D01*
X128851614Y-100813414D01*
X128054416Y-100981854D01*
X128051522Y-100982156D01*
X128024511Y-100982156D01*
X127986031Y-100996161D01*
X127984138Y-100996702D01*
X127979783Y-100997622D01*
X127979782Y-100997622D01*
X127965875Y-101003478D01*
X127965232Y-101003731D01*
X127924930Y-101018400D01*
X127884302Y-101052489D01*
X127883084Y-101053402D01*
X127879153Y-101056029D01*
X127874718Y-101060464D01*
X127873819Y-101061287D01*
X127843751Y-101086517D01*
X127843749Y-101086520D01*
X127808075Y-101148308D01*
X127807602Y-101149070D01*
X127807525Y-101149184D01*
X127807210Y-101149774D01*
X127807196Y-101149766D01*
X127806965Y-101150230D01*
X127790764Y-101178294D01*
X127772363Y-101282653D01*
X127772363Y-101282658D01*
X126250000Y-101282658D01*
X126250000Y-100005527D01*
X128036642Y-100005527D01*
X128057555Y-100164373D01*
X128057555Y-100164375D01*
X128118869Y-100312400D01*
X128118870Y-100312402D01*
X128144525Y-100345836D01*
X128216406Y-100439512D01*
X128313161Y-100513755D01*
X128341217Y-100535284D01*
X128343518Y-100537049D01*
X128491543Y-100598363D01*
X128610508Y-100614025D01*
X128690278Y-100614025D01*
X128809243Y-100598363D01*
X128957268Y-100537049D01*
X129084380Y-100439512D01*
X129181917Y-100312401D01*
X129243231Y-100164375D01*
X129264144Y-100005527D01*
X130068642Y-100005527D01*
X130089555Y-100164373D01*
X130089555Y-100164375D01*
X130150869Y-100312400D01*
X130150870Y-100312402D01*
X130176525Y-100345836D01*
X130248406Y-100439512D01*
X130345161Y-100513755D01*
X130373217Y-100535284D01*
X130375518Y-100537049D01*
X130523543Y-100598363D01*
X130642508Y-100614025D01*
X130722278Y-100614025D01*
X130841243Y-100598363D01*
X130989268Y-100537049D01*
X131116380Y-100439512D01*
X131213917Y-100312401D01*
X131275231Y-100164375D01*
X131296144Y-100005525D01*
X131275231Y-99846675D01*
X131213917Y-99698650D01*
X131213915Y-99698648D01*
X131213915Y-99698647D01*
X131187835Y-99664660D01*
X131116380Y-99571538D01*
X131041467Y-99514055D01*
X130989270Y-99474002D01*
X130989268Y-99474001D01*
X130841243Y-99412687D01*
X130811501Y-99408771D01*
X130722281Y-99397025D01*
X130722278Y-99397025D01*
X130642508Y-99397025D01*
X130642504Y-99397025D01*
X130547336Y-99409554D01*
X130523543Y-99412687D01*
X130523542Y-99412687D01*
X130375517Y-99474001D01*
X130375515Y-99474002D01*
X130248406Y-99571538D01*
X130150870Y-99698646D01*
X130150869Y-99698648D01*
X130089555Y-99846674D01*
X130089555Y-99846676D01*
X130068642Y-100005522D01*
X130068642Y-100005527D01*
X129264144Y-100005527D01*
X129264144Y-100005525D01*
X129243231Y-99846675D01*
X129181917Y-99698650D01*
X129181915Y-99698648D01*
X129181915Y-99698647D01*
X129155835Y-99664660D01*
X129084380Y-99571538D01*
X129009467Y-99514055D01*
X128957270Y-99474002D01*
X128957268Y-99474001D01*
X128809243Y-99412687D01*
X128779501Y-99408771D01*
X128690281Y-99397025D01*
X128690278Y-99397025D01*
X128610508Y-99397025D01*
X128610504Y-99397025D01*
X128515336Y-99409554D01*
X128491543Y-99412687D01*
X128491542Y-99412687D01*
X128343517Y-99474001D01*
X128343515Y-99474002D01*
X128216406Y-99571538D01*
X128118870Y-99698646D01*
X128118869Y-99698648D01*
X128057555Y-99846674D01*
X128057555Y-99846676D01*
X128036642Y-100005522D01*
X128036642Y-100005527D01*
X126250000Y-100005527D01*
X126250000Y-99014000D01*
X126254101Y-99004101D01*
X126264000Y-99000000D01*
X131986869Y-99000000D01*
X131996768Y-99004101D01*
G37*
%TD.AperFunction*%
%TD*%
%TA.AperFunction,Conductor*%
%TO.N,QVAR2*%
G36*
X142670737Y-99004101D02*
G01*
X142674838Y-99014000D01*
X142670737Y-99023899D01*
X142669364Y-99025103D01*
X142612636Y-99068633D01*
X142593175Y-99083566D01*
X142496922Y-99209004D01*
X142496921Y-99209006D01*
X142473795Y-99264832D01*
X142473788Y-99264852D01*
X142468111Y-99278561D01*
X142436413Y-99355085D01*
X142436413Y-99355087D01*
X142415775Y-99511845D01*
X142415775Y-99511850D01*
X142420745Y-99549600D01*
X142420847Y-99550710D01*
X142517098Y-101427145D01*
X142516904Y-101430291D01*
X142515218Y-101439859D01*
X142515218Y-101439860D01*
X142533619Y-101544220D01*
X142549816Y-101572275D01*
X142550046Y-101572736D01*
X142550061Y-101572729D01*
X142550380Y-101573325D01*
X142550442Y-101573418D01*
X142550923Y-101574192D01*
X142586603Y-101635993D01*
X142586605Y-101635995D01*
X142586606Y-101635996D01*
X142589880Y-101638743D01*
X142616691Y-101661240D01*
X142617580Y-101662055D01*
X142622005Y-101666480D01*
X142625940Y-101669109D01*
X142627149Y-101670015D01*
X142667786Y-101704114D01*
X142711173Y-101719905D01*
X142711686Y-101720104D01*
X142723827Y-101725134D01*
X142726559Y-101725677D01*
X142728598Y-101726247D01*
X142767368Y-101740358D01*
X142767369Y-101740358D01*
X142873339Y-101740358D01*
X142873340Y-101740358D01*
X142912107Y-101726247D01*
X142914148Y-101725677D01*
X142916882Y-101725134D01*
X142929044Y-101720095D01*
X142929541Y-101719902D01*
X142972922Y-101704114D01*
X142972923Y-101704112D01*
X142972925Y-101704112D01*
X143013548Y-101670024D01*
X143014750Y-101669121D01*
X143018704Y-101666480D01*
X143023137Y-101662045D01*
X143024016Y-101661240D01*
X143054102Y-101635996D01*
X143089795Y-101574170D01*
X143090266Y-101573418D01*
X143090330Y-101573323D01*
X143090339Y-101573302D01*
X143090582Y-101572866D01*
X143090831Y-101572376D01*
X143107088Y-101544221D01*
X143107394Y-101542489D01*
X143111232Y-101520715D01*
X143113691Y-101506765D01*
X143113933Y-101505663D01*
X143354831Y-100592371D01*
X145163996Y-100592371D01*
X145181496Y-100680355D01*
X145181496Y-100680356D01*
X145181497Y-100680357D01*
X145231337Y-100754948D01*
X145305928Y-100804788D01*
X145393914Y-100822289D01*
X145481900Y-100804788D01*
X145556491Y-100754948D01*
X145606331Y-100680357D01*
X145623832Y-100592371D01*
X145606331Y-100504385D01*
X145556491Y-100429794D01*
X145481900Y-100379954D01*
X145481899Y-100379953D01*
X145481898Y-100379953D01*
X145393914Y-100362453D01*
X145305929Y-100379953D01*
X145231337Y-100429794D01*
X145181496Y-100504386D01*
X145163996Y-100592370D01*
X145163996Y-100592371D01*
X143354831Y-100592371D01*
X143579007Y-99742477D01*
X143585497Y-99733952D01*
X143596115Y-99732512D01*
X143604641Y-99739002D01*
X143605475Y-99740686D01*
X143605896Y-99741701D01*
X143627035Y-99792734D01*
X143634103Y-99809797D01*
X143634104Y-99809799D01*
X143667469Y-99853280D01*
X143730357Y-99935238D01*
X143826701Y-100009165D01*
X143852878Y-100029252D01*
X143855798Y-100031492D01*
X143910366Y-100054095D01*
X143910368Y-100054096D01*
X143947306Y-100069396D01*
X144001877Y-100092000D01*
X144125964Y-100108336D01*
X144158637Y-100112638D01*
X144158639Y-100112638D01*
X144158641Y-100112638D01*
X144185678Y-100109078D01*
X144315401Y-100092000D01*
X144369972Y-100069396D01*
X144369973Y-100069396D01*
X144408180Y-100053570D01*
X144408184Y-100053567D01*
X144461480Y-100031492D01*
X144579065Y-99941266D01*
X145047445Y-99941266D01*
X145064945Y-100029250D01*
X145064945Y-100029251D01*
X145064946Y-100029252D01*
X145114786Y-100103843D01*
X145189377Y-100153683D01*
X145277363Y-100171184D01*
X145365349Y-100153683D01*
X145439940Y-100103843D01*
X145489780Y-100029252D01*
X145507281Y-99941266D01*
X146342914Y-99941266D01*
X146360414Y-100029250D01*
X146360414Y-100029251D01*
X146360415Y-100029252D01*
X146410255Y-100103843D01*
X146484846Y-100153683D01*
X146572832Y-100171184D01*
X146660818Y-100153683D01*
X146735409Y-100103843D01*
X146785249Y-100029252D01*
X146802750Y-99941266D01*
X146785249Y-99853280D01*
X146735409Y-99778689D01*
X146660818Y-99728849D01*
X146660817Y-99728848D01*
X146660816Y-99728848D01*
X146572832Y-99711348D01*
X146484847Y-99728848D01*
X146410255Y-99778689D01*
X146360414Y-99853281D01*
X146342914Y-99941265D01*
X146342914Y-99941266D01*
X145507281Y-99941266D01*
X145489780Y-99853280D01*
X145439940Y-99778689D01*
X145365349Y-99728849D01*
X145365348Y-99728848D01*
X145365347Y-99728848D01*
X145277363Y-99711348D01*
X145189378Y-99728848D01*
X145114786Y-99778689D01*
X145064945Y-99853281D01*
X145047445Y-99941265D01*
X145047445Y-99941266D01*
X144579065Y-99941266D01*
X144586921Y-99935238D01*
X144683175Y-99809797D01*
X144705274Y-99756445D01*
X144706506Y-99754119D01*
X144706698Y-99753827D01*
X144889982Y-99469575D01*
X145695180Y-99469575D01*
X145712680Y-99557559D01*
X145712680Y-99557560D01*
X145712681Y-99557561D01*
X145762521Y-99632152D01*
X145837112Y-99681992D01*
X145925098Y-99699493D01*
X146013084Y-99681992D01*
X146087675Y-99632152D01*
X146137515Y-99557561D01*
X146155016Y-99469575D01*
X146154205Y-99465500D01*
X146153952Y-99464227D01*
X147124369Y-99464227D01*
X147141869Y-99552211D01*
X147141869Y-99552212D01*
X147141870Y-99552213D01*
X147191710Y-99626804D01*
X147266301Y-99676644D01*
X147354287Y-99694145D01*
X147442273Y-99676644D01*
X147495382Y-99641158D01*
X148222936Y-99641158D01*
X148240436Y-99729142D01*
X148240436Y-99729143D01*
X148240437Y-99729144D01*
X148290277Y-99803735D01*
X148364868Y-99853575D01*
X148452854Y-99871076D01*
X148540840Y-99853575D01*
X148615431Y-99803735D01*
X148665271Y-99729144D01*
X148682772Y-99641158D01*
X149041902Y-99641158D01*
X149059402Y-99729142D01*
X149059402Y-99729143D01*
X149059403Y-99729144D01*
X149109243Y-99803735D01*
X149183834Y-99853575D01*
X149271820Y-99871076D01*
X149359806Y-99853575D01*
X149434397Y-99803735D01*
X149484237Y-99729144D01*
X149501738Y-99641158D01*
X149499946Y-99632151D01*
X149485110Y-99557561D01*
X149484237Y-99553172D01*
X149434397Y-99478581D01*
X149359806Y-99428741D01*
X149359805Y-99428740D01*
X149359804Y-99428740D01*
X149271820Y-99411240D01*
X149183835Y-99428740D01*
X149109243Y-99478581D01*
X149059402Y-99553173D01*
X149041902Y-99641157D01*
X149041902Y-99641158D01*
X148682772Y-99641158D01*
X148680980Y-99632151D01*
X148666144Y-99557561D01*
X148665271Y-99553172D01*
X148615431Y-99478581D01*
X148540840Y-99428741D01*
X148540839Y-99428740D01*
X148540838Y-99428740D01*
X148452854Y-99411240D01*
X148364869Y-99428740D01*
X148290277Y-99478581D01*
X148240436Y-99553173D01*
X148222936Y-99641157D01*
X148222936Y-99641158D01*
X147495382Y-99641158D01*
X147516864Y-99626804D01*
X147566704Y-99552213D01*
X147584205Y-99464227D01*
X147566704Y-99376241D01*
X147516864Y-99301650D01*
X147442273Y-99251810D01*
X147442272Y-99251809D01*
X147442271Y-99251809D01*
X147354287Y-99234309D01*
X147266302Y-99251809D01*
X147191710Y-99301650D01*
X147141869Y-99376242D01*
X147124369Y-99464226D01*
X147124369Y-99464227D01*
X146153952Y-99464227D01*
X146137515Y-99381590D01*
X146137515Y-99381589D01*
X146087675Y-99306998D01*
X146013084Y-99257158D01*
X146013083Y-99257157D01*
X146013082Y-99257157D01*
X145925098Y-99239657D01*
X145837113Y-99257157D01*
X145762521Y-99306998D01*
X145712680Y-99381590D01*
X145695180Y-99469574D01*
X145695180Y-99469575D01*
X144889982Y-99469575D01*
X145142455Y-99078020D01*
X145145215Y-99074891D01*
X145152677Y-99068632D01*
X145188196Y-99007109D01*
X145188575Y-99006496D01*
X145188679Y-99006337D01*
X145197529Y-99000296D01*
X145200395Y-99000000D01*
X150121340Y-99000000D01*
X150131239Y-99004101D01*
X150135340Y-99014000D01*
X150131239Y-99023899D01*
X150129863Y-99025107D01*
X150082290Y-99061611D01*
X149986037Y-99187049D01*
X149986036Y-99187051D01*
X149936353Y-99306998D01*
X149925528Y-99333131D01*
X149920368Y-99372321D01*
X149904890Y-99489890D01*
X149904890Y-99489895D01*
X149913221Y-99553172D01*
X149924804Y-99641158D01*
X149925528Y-99646653D01*
X149925528Y-99646655D01*
X149986036Y-99792734D01*
X149986037Y-99792736D01*
X149994477Y-99803735D01*
X150082290Y-99918175D01*
X150207731Y-100014429D01*
X150248925Y-100031492D01*
X150262133Y-100036963D01*
X150262431Y-100037091D01*
X150294588Y-100051294D01*
X150294601Y-100051298D01*
X150295801Y-100051594D01*
X150298901Y-100052362D01*
X150300880Y-100053012D01*
X150353810Y-100074937D01*
X150430415Y-100085021D01*
X150431936Y-100085309D01*
X150832219Y-100184442D01*
X150840842Y-100190802D01*
X150842442Y-100201397D01*
X150836082Y-100210020D01*
X150831307Y-100211814D01*
X149312300Y-100482300D01*
X149312043Y-100482320D01*
X149289155Y-100486410D01*
X149286312Y-100486623D01*
X149285954Y-100486613D01*
X149285952Y-100486613D01*
X149285948Y-100486613D01*
X149285944Y-100486613D01*
X149285939Y-100486614D01*
X149267852Y-100490211D01*
X149267578Y-100490263D01*
X149249473Y-100493488D01*
X149249322Y-100493552D01*
X149249144Y-100493627D01*
X149246417Y-100494465D01*
X149224788Y-100498755D01*
X149224787Y-100498755D01*
X149223600Y-100498991D01*
X149223376Y-100499058D01*
X149222435Y-100499245D01*
X149222429Y-100499243D01*
X149199674Y-100503768D01*
X149199352Y-100503838D01*
X149193798Y-100504943D01*
X149191516Y-100505964D01*
X149189656Y-100506642D01*
X149168068Y-100512821D01*
X149168045Y-100512829D01*
X149147100Y-100520738D01*
X149145197Y-100521306D01*
X149142740Y-100521852D01*
X149142734Y-100521854D01*
X149137515Y-100524331D01*
X149137289Y-100524435D01*
X149122347Y-100531533D01*
X149122344Y-100531534D01*
X147757947Y-101179271D01*
X147749214Y-101180355D01*
X147741929Y-101178907D01*
X147741927Y-101178907D01*
X147653942Y-101196407D01*
X147579348Y-101246249D01*
X147553567Y-101284833D01*
X147544658Y-101290786D01*
X147534149Y-101288695D01*
X147530287Y-101284833D01*
X147504505Y-101246249D01*
X147504504Y-101246248D01*
X147429913Y-101196408D01*
X147429912Y-101196407D01*
X147429911Y-101196407D01*
X147341927Y-101178907D01*
X147253942Y-101196407D01*
X147179350Y-101246248D01*
X147129509Y-101320840D01*
X147112009Y-101408824D01*
X147112009Y-101408825D01*
X147129509Y-101496809D01*
X147129509Y-101496810D01*
X147129510Y-101496811D01*
X147179350Y-101571402D01*
X147253941Y-101621242D01*
X147341927Y-101638743D01*
X147429913Y-101621242D01*
X147504504Y-101571402D01*
X147530286Y-101532815D01*
X147539196Y-101526863D01*
X147549705Y-101528953D01*
X147553567Y-101532815D01*
X147579349Y-101571401D01*
X147579351Y-101571403D01*
X147617935Y-101597185D01*
X147623888Y-101606094D01*
X147621797Y-101616603D01*
X147617935Y-101620465D01*
X147579351Y-101646246D01*
X147529509Y-101720840D01*
X147512009Y-101808824D01*
X147512009Y-101808825D01*
X147529509Y-101896809D01*
X147529509Y-101896810D01*
X147529510Y-101896811D01*
X147579350Y-101971402D01*
X147653941Y-102021242D01*
X147660559Y-102022557D01*
X147664010Y-102023729D01*
X149114812Y-102739560D01*
X149135666Y-102747168D01*
X149135676Y-102747170D01*
X149135688Y-102747174D01*
X149805299Y-102911957D01*
X151015343Y-103209734D01*
X151019774Y-103211689D01*
X151020188Y-103211965D01*
X151020778Y-103212360D01*
X151108765Y-103229861D01*
X151196751Y-103212360D01*
X151271342Y-103162520D01*
X151321182Y-103087929D01*
X151338683Y-102999943D01*
X151321182Y-102911957D01*
X151271342Y-102837366D01*
X151223674Y-102805515D01*
X151196751Y-102787525D01*
X151169772Y-102782159D01*
X151169158Y-102782022D01*
X149536659Y-102380282D01*
X149528026Y-102373935D01*
X149526273Y-102369419D01*
X149525429Y-102365176D01*
X149525428Y-102365173D01*
X149523844Y-102361348D01*
X149523840Y-102361340D01*
X149522729Y-102359678D01*
X149520640Y-102349170D01*
X149522731Y-102344124D01*
X149554342Y-102296814D01*
X149554342Y-102296813D01*
X149554344Y-102296811D01*
X149571845Y-102208825D01*
X149554344Y-102120839D01*
X149504504Y-102046248D01*
X149465917Y-102020465D01*
X149459965Y-102011556D01*
X149462055Y-102001047D01*
X149465918Y-101997184D01*
X149504504Y-101971402D01*
X149554344Y-101896811D01*
X149571845Y-101808825D01*
X149554344Y-101720839D01*
X149504504Y-101646248D01*
X149465917Y-101620465D01*
X149459965Y-101611556D01*
X149462055Y-101601047D01*
X149465918Y-101597184D01*
X149469317Y-101594913D01*
X149504504Y-101571402D01*
X149554344Y-101496811D01*
X149571845Y-101408825D01*
X149554344Y-101320839D01*
X149504504Y-101246248D01*
X149465917Y-101220465D01*
X149459965Y-101211556D01*
X149462055Y-101201047D01*
X149465918Y-101197184D01*
X149504504Y-101171402D01*
X149554344Y-101096811D01*
X149571845Y-101008825D01*
X149570162Y-101000366D01*
X149554344Y-100920840D01*
X149554344Y-100920839D01*
X149521855Y-100872216D01*
X149519766Y-100861709D01*
X149525719Y-100852799D01*
X149531040Y-100850658D01*
X151035761Y-100582716D01*
X151040939Y-100582767D01*
X151108026Y-100596112D01*
X151196012Y-100578611D01*
X151211677Y-100568144D01*
X151242754Y-100547379D01*
X151253263Y-100545288D01*
X151262172Y-100551241D01*
X151264174Y-100555875D01*
X151377846Y-101049164D01*
X151376074Y-101059732D01*
X151367348Y-101065950D01*
X151364084Y-101066307D01*
X151343951Y-101066135D01*
X151335072Y-101062861D01*
X151331343Y-101059732D01*
X151260594Y-101000366D01*
X151197398Y-100977365D01*
X151161013Y-100964122D01*
X151161012Y-100964122D01*
X151055040Y-100964122D01*
X151055038Y-100964122D01*
X150955458Y-101000366D01*
X150874275Y-101068486D01*
X150821291Y-101160259D01*
X150802890Y-101264619D01*
X150802890Y-101264624D01*
X150821291Y-101368984D01*
X150874275Y-101460757D01*
X150874277Y-101460759D01*
X150874278Y-101460760D01*
X150955458Y-101528878D01*
X151055040Y-101565122D01*
X151055041Y-101565122D01*
X151161011Y-101565122D01*
X151161012Y-101565122D01*
X151260594Y-101528878D01*
X151260595Y-101528876D01*
X151260597Y-101528876D01*
X151330302Y-101470385D01*
X151339420Y-101467110D01*
X151513530Y-101468601D01*
X151522407Y-101471876D01*
X151529512Y-101477838D01*
X151530402Y-101478653D01*
X151534831Y-101483082D01*
X151538785Y-101485724D01*
X151539975Y-101486617D01*
X151580613Y-101520716D01*
X151623982Y-101536500D01*
X151624471Y-101536691D01*
X151636654Y-101541737D01*
X151639392Y-101542281D01*
X151641434Y-101542852D01*
X151680195Y-101556960D01*
X151712489Y-101556960D01*
X151712509Y-101556961D01*
X151713190Y-101556961D01*
X151753853Y-101556961D01*
X151753873Y-101556960D01*
X151786165Y-101556960D01*
X151786167Y-101556960D01*
X151824929Y-101542850D01*
X151826967Y-101542281D01*
X151829709Y-101541737D01*
X151841908Y-101536683D01*
X151842374Y-101536502D01*
X151885749Y-101520716D01*
X151885750Y-101520714D01*
X151885752Y-101520714D01*
X151926369Y-101486631D01*
X151927581Y-101485720D01*
X151931532Y-101483082D01*
X151931532Y-101483081D01*
X151931531Y-101483081D01*
X151932282Y-101482580D01*
X151932998Y-101481613D01*
X151935955Y-101478657D01*
X151936841Y-101477843D01*
X151966929Y-101452598D01*
X152002622Y-101390772D01*
X152003085Y-101390031D01*
X152003157Y-101389925D01*
X152003159Y-101389918D01*
X152003162Y-101389915D01*
X152003490Y-101389302D01*
X152003507Y-101389311D01*
X152003731Y-101388852D01*
X152019915Y-101360823D01*
X152019915Y-101360822D01*
X152020528Y-101359761D01*
X152021081Y-101360080D01*
X152026807Y-101353801D01*
X152037511Y-101353306D01*
X152045344Y-101360347D01*
X152372237Y-102031986D01*
X152373436Y-102035679D01*
X152373971Y-102038711D01*
X152373972Y-102038713D01*
X152373973Y-102038715D01*
X152383649Y-102055474D01*
X152383693Y-102055554D01*
X152390722Y-102067803D01*
X152390729Y-102067813D01*
X152390730Y-102067815D01*
X152390812Y-102067938D01*
X152391282Y-102068695D01*
X152426954Y-102130483D01*
X152426956Y-102130485D01*
X152426957Y-102130486D01*
X152457042Y-102155730D01*
X152457931Y-102156545D01*
X152462354Y-102160968D01*
X152466302Y-102163606D01*
X152467492Y-102164499D01*
X152508137Y-102198604D01*
X152551514Y-102214391D01*
X152552011Y-102214584D01*
X152564175Y-102219623D01*
X152564177Y-102219624D01*
X152566908Y-102220167D01*
X152568953Y-102220738D01*
X152607719Y-102234848D01*
X152607720Y-102234848D01*
X152713690Y-102234848D01*
X152713691Y-102234848D01*
X152713692Y-102234847D01*
X152713695Y-102234847D01*
X152731211Y-102228471D01*
X152741916Y-102228937D01*
X152749155Y-102236837D01*
X152750000Y-102241626D01*
X152750000Y-107502923D01*
X152745899Y-107512822D01*
X152736000Y-107516923D01*
X152726101Y-107512822D01*
X152724893Y-107511446D01*
X152698554Y-107477121D01*
X152679392Y-107452148D01*
X152605463Y-107395420D01*
X152553953Y-107355895D01*
X152553951Y-107355894D01*
X152499380Y-107333290D01*
X152407872Y-107295386D01*
X152355618Y-107288506D01*
X152251112Y-107274748D01*
X152251108Y-107274748D01*
X152094346Y-107295386D01*
X152094342Y-107295387D01*
X152035854Y-107319614D01*
X152035853Y-107319613D01*
X152035852Y-107319615D01*
X152004115Y-107332760D01*
X152004110Y-107332761D01*
X152004111Y-107332762D01*
X151948268Y-107355894D01*
X151948266Y-107355895D01*
X151822828Y-107452148D01*
X151726575Y-107577586D01*
X151726574Y-107577588D01*
X151703442Y-107633431D01*
X151703440Y-107633437D01*
X151691591Y-107662045D01*
X151691591Y-107662046D01*
X151666066Y-107723667D01*
X151666066Y-107723669D01*
X151645428Y-107880427D01*
X151645428Y-107880431D01*
X151647803Y-107898476D01*
X151647915Y-107900763D01*
X151635330Y-108283585D01*
X151630907Y-108293344D01*
X151620878Y-108297117D01*
X151613560Y-108294766D01*
X151603708Y-108288183D01*
X151515723Y-108270683D01*
X151427738Y-108288183D01*
X151353146Y-108338024D01*
X151303305Y-108412616D01*
X151293609Y-108461366D01*
X151287656Y-108470276D01*
X151277147Y-108472366D01*
X151268237Y-108466413D01*
X151266147Y-108461366D01*
X151256450Y-108412616D01*
X151256450Y-108412615D01*
X151206610Y-108338024D01*
X151132019Y-108288184D01*
X151132018Y-108288183D01*
X151132017Y-108288183D01*
X151044033Y-108270683D01*
X150956048Y-108288183D01*
X150881456Y-108338024D01*
X150831615Y-108412616D01*
X150814115Y-108500600D01*
X150814115Y-108500601D01*
X150831615Y-108588585D01*
X150831615Y-108588586D01*
X150831616Y-108588587D01*
X150881456Y-108663178D01*
X150956047Y-108713018D01*
X151044033Y-108730519D01*
X151132019Y-108713018D01*
X151206610Y-108663178D01*
X151256450Y-108588587D01*
X151266147Y-108539834D01*
X151272100Y-108530926D01*
X151282609Y-108528835D01*
X151291518Y-108534788D01*
X151293609Y-108539835D01*
X151303305Y-108588585D01*
X151303305Y-108588586D01*
X151303306Y-108588587D01*
X151353146Y-108663178D01*
X151409155Y-108700602D01*
X151415108Y-108709511D01*
X151413018Y-108720020D01*
X151409972Y-108723293D01*
X151237145Y-108857704D01*
X151214856Y-108881659D01*
X151148738Y-108980611D01*
X151148738Y-108980613D01*
X151141776Y-108992756D01*
X151141758Y-108992788D01*
X150512105Y-110289595D01*
X150504092Y-110296709D01*
X150493396Y-110296074D01*
X150487870Y-110291258D01*
X150486759Y-110289595D01*
X150477674Y-110275998D01*
X150403083Y-110226158D01*
X150403082Y-110226157D01*
X150403081Y-110226157D01*
X150315097Y-110208657D01*
X150227110Y-110226157D01*
X150221108Y-110230168D01*
X150210599Y-110232258D01*
X150201690Y-110226304D01*
X150199600Y-110215796D01*
X150205015Y-110188575D01*
X150205015Y-110188574D01*
X150190443Y-110115313D01*
X150187514Y-110100589D01*
X150137674Y-110025998D01*
X150063083Y-109976158D01*
X150063082Y-109976157D01*
X150063081Y-109976157D01*
X149975097Y-109958657D01*
X149887112Y-109976157D01*
X149812520Y-110025998D01*
X149762679Y-110100590D01*
X149745179Y-110188574D01*
X149745179Y-110188575D01*
X149762679Y-110276559D01*
X149762679Y-110276560D01*
X149762680Y-110276561D01*
X149812520Y-110351152D01*
X149887111Y-110400992D01*
X149975097Y-110418493D01*
X150063083Y-110400992D01*
X150069083Y-110396983D01*
X150079593Y-110394892D01*
X150088502Y-110400844D01*
X150090593Y-110411354D01*
X150085179Y-110438574D01*
X150085179Y-110438575D01*
X150090593Y-110465796D01*
X150088502Y-110476305D01*
X150079593Y-110482258D01*
X150069084Y-110480168D01*
X150063083Y-110476158D01*
X150063082Y-110476157D01*
X150063081Y-110476157D01*
X149975097Y-110458657D01*
X149887112Y-110476157D01*
X149812520Y-110525998D01*
X149762680Y-110600588D01*
X149760065Y-110613730D01*
X149759427Y-110615954D01*
X149609722Y-111011365D01*
X149609241Y-111013201D01*
X149608439Y-111015453D01*
X149597626Y-111039181D01*
X149589555Y-111064221D01*
X149588789Y-111066112D01*
X149588239Y-111067228D01*
X149588237Y-111067232D01*
X149587766Y-111069601D01*
X149587697Y-111069903D01*
X149584495Y-111086050D01*
X149584494Y-111086057D01*
X149571249Y-111152643D01*
X149571244Y-111152712D01*
X149571244Y-111154386D01*
X149569000Y-111188550D01*
X149569000Y-111188552D01*
X149571240Y-111222831D01*
X149571240Y-111224373D01*
X149571249Y-111224511D01*
X149574669Y-111241698D01*
X149574669Y-111241701D01*
X149574981Y-111243271D01*
X149574981Y-111243273D01*
X149574982Y-111243273D01*
X149577052Y-111253695D01*
X149578022Y-111258575D01*
X149578022Y-111258577D01*
X149578461Y-111260785D01*
X149581454Y-111275846D01*
X149581757Y-111277369D01*
X149581768Y-111277403D01*
X149583409Y-111285650D01*
X149583408Y-111285660D01*
X149588152Y-111309502D01*
X149588174Y-111309598D01*
X149588237Y-111309917D01*
X149588299Y-111310099D01*
X149588853Y-111311433D01*
X149599912Y-111343998D01*
X149615090Y-111374772D01*
X149615679Y-111376193D01*
X149615741Y-111376318D01*
X149615914Y-111376576D01*
X149615966Y-111376660D01*
X149623026Y-111387221D01*
X149623027Y-111387224D01*
X149623028Y-111387224D01*
X149664122Y-111448728D01*
X149664125Y-111448730D01*
X149664126Y-111448732D01*
X149664173Y-111448786D01*
X149665360Y-111449973D01*
X149687928Y-111475717D01*
X149713746Y-111498365D01*
X149714836Y-111499454D01*
X149714943Y-111499548D01*
X149730860Y-111510184D01*
X149730861Y-111510184D01*
X149737632Y-111514709D01*
X149758471Y-111528636D01*
X149758472Y-111528636D01*
X149760191Y-111529785D01*
X149760207Y-111529793D01*
X149787342Y-111547925D01*
X149787346Y-111547927D01*
X149787349Y-111547929D01*
X149787356Y-111547931D01*
X149789050Y-111548633D01*
X149819638Y-111563733D01*
X149819641Y-111563734D01*
X149819643Y-111563735D01*
X149852206Y-111574801D01*
X149853626Y-111575390D01*
X149853746Y-111575430D01*
X149853751Y-111575433D01*
X149871502Y-111578963D01*
X149872490Y-111579160D01*
X149872490Y-111579161D01*
X149905059Y-111585651D01*
X149905059Y-111585650D01*
X149906671Y-111585972D01*
X149906777Y-111585979D01*
X149920374Y-111588685D01*
X149925853Y-111589775D01*
X149939080Y-111592406D01*
X149939085Y-111592406D01*
X149939163Y-111592422D01*
X149939169Y-111592421D01*
X149939172Y-111592422D01*
X149939315Y-111592431D01*
X149940843Y-111592431D01*
X149975097Y-111594677D01*
X150009350Y-111592431D01*
X150010882Y-111592431D01*
X150011026Y-111592422D01*
X150011027Y-111592421D01*
X150011031Y-111592422D01*
X150011108Y-111592406D01*
X150011113Y-111592406D01*
X150011787Y-111592272D01*
X150011788Y-111592272D01*
X150029820Y-111588685D01*
X150043469Y-111585969D01*
X150043567Y-111585962D01*
X150045128Y-111585650D01*
X150045129Y-111585651D01*
X150071904Y-111580316D01*
X150071949Y-111580325D01*
X150096037Y-111575527D01*
X150096400Y-111575441D01*
X150096443Y-111575433D01*
X150096449Y-111575429D01*
X150096718Y-111575339D01*
X150097875Y-111574859D01*
X150130552Y-111563755D01*
X150161279Y-111548588D01*
X150162706Y-111547997D01*
X150162836Y-111547932D01*
X150162843Y-111547930D01*
X150162990Y-111547831D01*
X150163122Y-111547750D01*
X150163525Y-111547480D01*
X150163528Y-111547479D01*
X150178813Y-111537259D01*
X150178819Y-111537255D01*
X150190336Y-111529558D01*
X150190449Y-111529501D01*
X150191770Y-111528617D01*
X150191773Y-111528617D01*
X150210464Y-111516114D01*
X150213155Y-111514711D01*
X150214218Y-111514297D01*
X150224352Y-111506843D01*
X150224800Y-111506529D01*
X150235251Y-111499548D01*
X150236011Y-111498680D01*
X150238245Y-111496631D01*
X150256396Y-111483288D01*
X150256396Y-111483286D01*
X150258023Y-111482091D01*
X150258042Y-111482071D01*
X150536391Y-111277403D01*
X150568618Y-111253707D01*
X150568634Y-111253695D01*
X150574581Y-111249335D01*
X150574785Y-111249173D01*
X150585084Y-111241601D01*
X150586430Y-111239918D01*
X150588270Y-111238019D01*
X150593133Y-111233877D01*
X150605421Y-111221775D01*
X150607067Y-111220387D01*
X150613637Y-111215665D01*
X150783884Y-111033303D01*
X151285805Y-111033303D01*
X151303305Y-111121287D01*
X151303305Y-111121288D01*
X151303306Y-111121289D01*
X151353146Y-111195880D01*
X151427737Y-111245720D01*
X151515723Y-111263221D01*
X151603709Y-111245720D01*
X151678300Y-111195880D01*
X151728140Y-111121289D01*
X151745641Y-111033303D01*
X151740205Y-111005976D01*
X151732501Y-110967243D01*
X151728140Y-110945317D01*
X151678300Y-110870726D01*
X151603709Y-110820886D01*
X151603708Y-110820885D01*
X151603707Y-110820885D01*
X151515723Y-110803385D01*
X151427738Y-110820885D01*
X151353146Y-110870726D01*
X151303305Y-110945318D01*
X151285805Y-111033302D01*
X151285805Y-111033303D01*
X150783884Y-111033303D01*
X151281446Y-110500333D01*
X151291198Y-110495896D01*
X151301233Y-110499654D01*
X151303320Y-110502110D01*
X151353146Y-110576680D01*
X151427737Y-110626520D01*
X151515723Y-110644021D01*
X151603709Y-110626520D01*
X151678300Y-110576680D01*
X151728140Y-110502089D01*
X151745641Y-110414103D01*
X151743702Y-110404357D01*
X151728140Y-110326118D01*
X151728140Y-110326117D01*
X151678300Y-110251526D01*
X151649463Y-110232258D01*
X151645092Y-110229337D01*
X151639139Y-110220427D01*
X151641229Y-110209918D01*
X151645557Y-110205757D01*
X152480433Y-109694647D01*
X152482822Y-109693118D01*
X152485005Y-109691980D01*
X152538430Y-109669851D01*
X152663871Y-109573597D01*
X152724893Y-109494070D01*
X152734173Y-109488714D01*
X152744523Y-109491487D01*
X152749880Y-109500767D01*
X152750000Y-109502594D01*
X152750000Y-115832423D01*
X152745899Y-115842322D01*
X152738191Y-115846251D01*
X152723564Y-115848568D01*
X152546842Y-115905988D01*
X152381286Y-115990344D01*
X152381270Y-115990354D01*
X152230957Y-116099563D01*
X152230949Y-116099570D01*
X152099570Y-116230949D01*
X152099563Y-116230957D01*
X151990354Y-116381270D01*
X151990344Y-116381286D01*
X151905988Y-116546842D01*
X151848568Y-116723565D01*
X151819500Y-116907093D01*
X151819500Y-116986000D01*
X151815399Y-116995899D01*
X151805500Y-117000000D01*
X144132501Y-117000000D01*
X144122602Y-116995899D01*
X144118770Y-116988731D01*
X144113449Y-116961982D01*
X144113449Y-116961981D01*
X144063609Y-116887390D01*
X143989018Y-116837550D01*
X143989017Y-116837549D01*
X143989016Y-116837549D01*
X143901032Y-116820049D01*
X143813047Y-116837549D01*
X143738455Y-116887390D01*
X143688614Y-116961982D01*
X143683294Y-116988731D01*
X143677341Y-116997641D01*
X143669563Y-117000000D01*
X143660811Y-117000000D01*
X143650912Y-116995899D01*
X143647080Y-116988731D01*
X143641759Y-116961982D01*
X143641759Y-116961981D01*
X143591919Y-116887390D01*
X143517328Y-116837550D01*
X143517327Y-116837549D01*
X143517326Y-116837549D01*
X143429342Y-116820049D01*
X143341357Y-116837549D01*
X143266765Y-116887390D01*
X143216924Y-116961982D01*
X143211604Y-116988731D01*
X143205651Y-116997641D01*
X143197873Y-117000000D01*
X139674000Y-117000000D01*
X139664101Y-116995899D01*
X139660000Y-116986000D01*
X139660000Y-116537360D01*
X144524498Y-116537360D01*
X144541998Y-116625344D01*
X144541998Y-116625345D01*
X144541999Y-116625346D01*
X144591839Y-116699937D01*
X144666430Y-116749777D01*
X144754416Y-116767278D01*
X144842402Y-116749777D01*
X144916993Y-116699937D01*
X144966833Y-116625346D01*
X144981832Y-116549938D01*
X144987784Y-116541031D01*
X144998293Y-116538940D01*
X145003337Y-116541028D01*
X145016430Y-116549777D01*
X145104416Y-116567278D01*
X145192402Y-116549777D01*
X145266993Y-116499937D01*
X145316833Y-116425346D01*
X145334334Y-116337360D01*
X145316833Y-116249374D01*
X145266993Y-116174783D01*
X145192402Y-116124943D01*
X145192401Y-116124942D01*
X145192400Y-116124942D01*
X145104416Y-116107442D01*
X145016431Y-116124942D01*
X144941839Y-116174783D01*
X144891998Y-116249375D01*
X144877000Y-116324779D01*
X144871047Y-116333689D01*
X144860538Y-116335779D01*
X144855492Y-116333689D01*
X144842402Y-116324943D01*
X144842401Y-116324942D01*
X144842400Y-116324942D01*
X144754416Y-116307442D01*
X144666431Y-116324942D01*
X144591839Y-116374783D01*
X144541998Y-116449375D01*
X144524498Y-116537359D01*
X144524498Y-116537360D01*
X139660000Y-116537360D01*
X139660000Y-114248787D01*
X143431410Y-114248787D01*
X143448910Y-114336771D01*
X143448910Y-114336772D01*
X143448911Y-114336773D01*
X143498751Y-114411364D01*
X143573342Y-114461204D01*
X143661328Y-114478705D01*
X143749314Y-114461204D01*
X143823905Y-114411364D01*
X143873745Y-114336773D01*
X143883442Y-114288017D01*
X143889395Y-114279110D01*
X143899904Y-114277019D01*
X143908813Y-114282972D01*
X143910904Y-114288019D01*
X143920601Y-114336771D01*
X143920601Y-114336772D01*
X143920602Y-114336773D01*
X143970442Y-114411364D01*
X144045033Y-114461204D01*
X144133019Y-114478705D01*
X144221005Y-114461204D01*
X144295596Y-114411364D01*
X144345436Y-114336773D01*
X144359907Y-114264018D01*
X144365860Y-114255110D01*
X144376369Y-114253019D01*
X144385278Y-114258972D01*
X144387369Y-114264019D01*
X144402790Y-114341550D01*
X144402790Y-114341551D01*
X144402791Y-114341552D01*
X144452631Y-114416143D01*
X144527222Y-114465983D01*
X144615208Y-114483484D01*
X144703194Y-114465983D01*
X144777785Y-114416143D01*
X144827625Y-114341552D01*
X144845126Y-114253566D01*
X144844175Y-114248787D01*
X144827625Y-114165581D01*
X144827625Y-114165580D01*
X144777785Y-114090989D01*
X144716440Y-114050000D01*
X147770082Y-114050000D01*
X147787582Y-114137984D01*
X147787582Y-114137985D01*
X147787583Y-114137986D01*
X147837423Y-114212577D01*
X147912014Y-114262417D01*
X148000000Y-114279918D01*
X148087986Y-114262417D01*
X148162577Y-114212577D01*
X148212417Y-114137986D01*
X148229918Y-114050000D01*
X148270082Y-114050000D01*
X148287582Y-114137984D01*
X148287582Y-114137985D01*
X148287583Y-114137986D01*
X148337423Y-114212577D01*
X148412014Y-114262417D01*
X148500000Y-114279918D01*
X148587986Y-114262417D01*
X148662577Y-114212577D01*
X148712417Y-114137986D01*
X148729918Y-114050000D01*
X148770082Y-114050000D01*
X148787582Y-114137984D01*
X148787582Y-114137985D01*
X148787583Y-114137986D01*
X148837423Y-114212577D01*
X148912014Y-114262417D01*
X149000000Y-114279918D01*
X149087986Y-114262417D01*
X149162577Y-114212577D01*
X149212417Y-114137986D01*
X149229918Y-114050000D01*
X149228157Y-114041149D01*
X149212417Y-113962015D01*
X149212417Y-113962014D01*
X149162577Y-113887423D01*
X149087986Y-113837583D01*
X149087985Y-113837582D01*
X149087984Y-113837582D01*
X149000000Y-113820082D01*
X148912015Y-113837582D01*
X148837423Y-113887423D01*
X148787582Y-113962015D01*
X148770082Y-114049999D01*
X148770082Y-114050000D01*
X148729918Y-114050000D01*
X148728157Y-114041149D01*
X148712417Y-113962015D01*
X148712417Y-113962014D01*
X148662577Y-113887423D01*
X148587986Y-113837583D01*
X148587985Y-113837582D01*
X148587984Y-113837582D01*
X148500000Y-113820082D01*
X148412015Y-113837582D01*
X148337423Y-113887423D01*
X148287582Y-113962015D01*
X148270082Y-114049999D01*
X148270082Y-114050000D01*
X148229918Y-114050000D01*
X148228157Y-114041149D01*
X148212417Y-113962015D01*
X148212417Y-113962014D01*
X148162577Y-113887423D01*
X148087986Y-113837583D01*
X148087985Y-113837582D01*
X148087984Y-113837582D01*
X148000000Y-113820082D01*
X147912015Y-113837582D01*
X147837423Y-113887423D01*
X147787582Y-113962015D01*
X147770082Y-114049999D01*
X147770082Y-114050000D01*
X144716440Y-114050000D01*
X144703194Y-114041149D01*
X144703193Y-114041148D01*
X144703192Y-114041148D01*
X144615208Y-114023648D01*
X144527223Y-114041148D01*
X144452631Y-114090989D01*
X144402790Y-114165581D01*
X144388319Y-114238333D01*
X144382366Y-114247243D01*
X144371857Y-114249333D01*
X144362947Y-114243380D01*
X144360858Y-114238335D01*
X144345436Y-114160801D01*
X144295596Y-114086210D01*
X144221005Y-114036370D01*
X144221004Y-114036369D01*
X144221003Y-114036369D01*
X144133019Y-114018869D01*
X144045034Y-114036369D01*
X143970442Y-114086210D01*
X143920601Y-114160802D01*
X143910904Y-114209554D01*
X143904951Y-114218464D01*
X143894442Y-114220554D01*
X143885532Y-114214601D01*
X143883442Y-114209554D01*
X143874695Y-114165580D01*
X143873745Y-114160801D01*
X143823905Y-114086210D01*
X143749314Y-114036370D01*
X143749313Y-114036369D01*
X143749312Y-114036369D01*
X143661328Y-114018869D01*
X143573343Y-114036369D01*
X143498751Y-114086210D01*
X143448910Y-114160802D01*
X143431410Y-114248786D01*
X143431410Y-114248787D01*
X139660000Y-114248787D01*
X139660000Y-113860086D01*
X140075247Y-113860086D01*
X140092747Y-113948070D01*
X140092747Y-113948071D01*
X140092748Y-113948072D01*
X140142588Y-114022663D01*
X140217179Y-114072503D01*
X140305165Y-114090004D01*
X140393151Y-114072503D01*
X140467742Y-114022663D01*
X140517582Y-113948072D01*
X140517582Y-113948071D01*
X140518348Y-113946925D01*
X140518874Y-113947276D01*
X140524806Y-113941344D01*
X140535522Y-113941343D01*
X140541456Y-113947276D01*
X140541982Y-113946925D01*
X140542747Y-113948071D01*
X140542748Y-113948072D01*
X140592588Y-114022663D01*
X140667179Y-114072503D01*
X140755165Y-114090004D01*
X140843151Y-114072503D01*
X140917742Y-114022663D01*
X140959109Y-113960751D01*
X140968019Y-113954799D01*
X140978528Y-113956889D01*
X140982389Y-113960750D01*
X141028857Y-114030294D01*
X141103448Y-114080134D01*
X141191434Y-114097635D01*
X141279420Y-114080134D01*
X141354011Y-114030294D01*
X141403851Y-113955703D01*
X141421352Y-113867717D01*
X141403851Y-113779731D01*
X141354011Y-113705140D01*
X141279420Y-113655300D01*
X141279419Y-113655299D01*
X141279418Y-113655299D01*
X141272875Y-113653998D01*
X141263965Y-113648045D01*
X141261875Y-113637536D01*
X141267828Y-113628626D01*
X141272875Y-113626536D01*
X141293151Y-113622503D01*
X141367742Y-113572663D01*
X141417582Y-113498072D01*
X141435083Y-113410086D01*
X141417582Y-113322100D01*
X141367742Y-113247509D01*
X141293151Y-113197669D01*
X141293150Y-113197668D01*
X141293149Y-113197668D01*
X141205165Y-113180168D01*
X141117180Y-113197668D01*
X141042588Y-113247509D01*
X140992747Y-113322101D01*
X140975247Y-113410085D01*
X140975247Y-113410086D01*
X140992747Y-113498070D01*
X140992747Y-113498071D01*
X140992748Y-113498072D01*
X141042588Y-113572663D01*
X141117179Y-113622503D01*
X141123722Y-113623804D01*
X141132632Y-113629756D01*
X141134723Y-113640265D01*
X141128771Y-113649175D01*
X141123724Y-113651266D01*
X141103448Y-113655299D01*
X141028855Y-113705141D01*
X140987488Y-113767050D01*
X140978579Y-113773003D01*
X140968070Y-113770912D01*
X140964209Y-113767052D01*
X140917742Y-113697509D01*
X140843151Y-113647669D01*
X140843150Y-113647668D01*
X140843149Y-113647668D01*
X140755165Y-113630168D01*
X140667180Y-113647668D01*
X140655758Y-113655300D01*
X140592588Y-113697509D01*
X140546123Y-113767050D01*
X140541982Y-113773247D01*
X140541456Y-113772895D01*
X140535513Y-113778831D01*
X140524798Y-113778823D01*
X140518871Y-113772896D01*
X140518348Y-113773247D01*
X140516788Y-113770912D01*
X140467742Y-113697509D01*
X140393151Y-113647669D01*
X140393150Y-113647668D01*
X140392004Y-113646903D01*
X140392355Y-113646376D01*
X140386423Y-113640445D01*
X140386422Y-113629729D01*
X140392355Y-113623794D01*
X140392004Y-113623269D01*
X140393150Y-113622503D01*
X140393151Y-113622503D01*
X140467742Y-113572663D01*
X140517582Y-113498072D01*
X140535083Y-113410086D01*
X140517582Y-113322100D01*
X140467742Y-113247509D01*
X140393151Y-113197669D01*
X140393150Y-113197668D01*
X140393149Y-113197668D01*
X140305165Y-113180168D01*
X140217180Y-113197668D01*
X140142588Y-113247509D01*
X140092747Y-113322101D01*
X140075247Y-113410085D01*
X140075247Y-113410086D01*
X140092747Y-113498070D01*
X140092747Y-113498071D01*
X140092748Y-113498072D01*
X140142588Y-113572663D01*
X140217179Y-113622503D01*
X140218326Y-113623269D01*
X140217974Y-113623794D01*
X140223910Y-113629738D01*
X140223902Y-113640453D01*
X140217975Y-113646379D01*
X140218326Y-113646903D01*
X140217179Y-113647668D01*
X140217179Y-113647669D01*
X140142588Y-113697509D01*
X140092747Y-113772101D01*
X140075247Y-113860085D01*
X140075247Y-113860086D01*
X139660000Y-113860086D01*
X139660000Y-112960086D01*
X140525247Y-112960086D01*
X140542747Y-113048070D01*
X140542747Y-113048071D01*
X140542748Y-113048072D01*
X140592588Y-113122663D01*
X140667179Y-113172503D01*
X140755165Y-113190004D01*
X140843151Y-113172503D01*
X140917742Y-113122663D01*
X140967582Y-113048072D01*
X140985083Y-112960086D01*
X141425247Y-112960086D01*
X141442747Y-113048070D01*
X141442747Y-113048071D01*
X141442748Y-113048072D01*
X141492588Y-113122663D01*
X141567179Y-113172503D01*
X141655165Y-113190004D01*
X141743151Y-113172503D01*
X141807227Y-113129689D01*
X146564879Y-113129689D01*
X146582379Y-113217673D01*
X146582379Y-113217674D01*
X146582380Y-113217675D01*
X146632220Y-113292266D01*
X146706811Y-113342106D01*
X146794797Y-113359607D01*
X146882783Y-113342106D01*
X146957374Y-113292266D01*
X147007214Y-113217675D01*
X147017946Y-113163719D01*
X147640379Y-113163719D01*
X147657879Y-113251703D01*
X147657879Y-113251704D01*
X147657880Y-113251705D01*
X147707720Y-113326296D01*
X147782311Y-113376136D01*
X147870297Y-113393637D01*
X147958283Y-113376136D01*
X148032874Y-113326296D01*
X148082714Y-113251705D01*
X148100215Y-113163719D01*
X148092048Y-113122662D01*
X148082714Y-113075734D01*
X148082714Y-113075733D01*
X148032874Y-113001142D01*
X148005856Y-112983089D01*
X149951572Y-112983089D01*
X149969072Y-113071073D01*
X149969072Y-113071074D01*
X149969073Y-113071075D01*
X150018913Y-113145666D01*
X150093504Y-113195506D01*
X150181490Y-113213007D01*
X150269476Y-113195506D01*
X150344067Y-113145666D01*
X150393907Y-113071075D01*
X150411408Y-112983089D01*
X150393907Y-112895103D01*
X150344067Y-112820512D01*
X150269476Y-112770672D01*
X150269475Y-112770671D01*
X150269474Y-112770671D01*
X150181490Y-112753171D01*
X150093505Y-112770671D01*
X150018913Y-112820512D01*
X149969072Y-112895104D01*
X149951572Y-112983088D01*
X149951572Y-112983089D01*
X148005856Y-112983089D01*
X147958283Y-112951302D01*
X147958282Y-112951301D01*
X147958281Y-112951301D01*
X147870297Y-112933801D01*
X147782312Y-112951301D01*
X147707720Y-113001142D01*
X147657879Y-113075734D01*
X147640379Y-113163718D01*
X147640379Y-113163719D01*
X147017946Y-113163719D01*
X147024715Y-113129689D01*
X147023317Y-113122663D01*
X147007214Y-113041704D01*
X147007214Y-113041703D01*
X146957374Y-112967112D01*
X146882783Y-112917272D01*
X146882782Y-112917271D01*
X146882781Y-112917271D01*
X146794797Y-112899771D01*
X146706812Y-112917271D01*
X146632220Y-112967112D01*
X146582379Y-113041704D01*
X146564879Y-113129688D01*
X146564879Y-113129689D01*
X141807227Y-113129689D01*
X141817742Y-113122663D01*
X141867582Y-113048072D01*
X141885083Y-112960086D01*
X141867582Y-112872100D01*
X141817742Y-112797509D01*
X141743151Y-112747669D01*
X141743150Y-112747668D01*
X141743149Y-112747668D01*
X141655165Y-112730168D01*
X141567180Y-112747668D01*
X141492588Y-112797509D01*
X141442747Y-112872101D01*
X141425247Y-112960085D01*
X141425247Y-112960086D01*
X140985083Y-112960086D01*
X140967582Y-112872100D01*
X140917742Y-112797509D01*
X140843151Y-112747669D01*
X140843150Y-112747668D01*
X140843149Y-112747668D01*
X140755165Y-112730168D01*
X140667180Y-112747668D01*
X140592588Y-112797509D01*
X140542747Y-112872101D01*
X140525247Y-112960085D01*
X140525247Y-112960086D01*
X139660000Y-112960086D01*
X139660000Y-112670043D01*
X139664101Y-112660144D01*
X139674000Y-112656043D01*
X139683899Y-112660144D01*
X139685637Y-112662260D01*
X139692588Y-112672663D01*
X139767179Y-112722503D01*
X139855165Y-112740004D01*
X139943151Y-112722503D01*
X140017742Y-112672663D01*
X140067582Y-112598072D01*
X140085083Y-112510086D01*
X140975247Y-112510086D01*
X140992747Y-112598070D01*
X140992747Y-112598071D01*
X140992748Y-112598072D01*
X141042588Y-112672663D01*
X141117179Y-112722503D01*
X141205165Y-112740004D01*
X141293151Y-112722503D01*
X141367742Y-112672663D01*
X141417582Y-112598072D01*
X141428367Y-112543850D01*
X143465323Y-112543850D01*
X143482823Y-112631834D01*
X143482823Y-112631835D01*
X143482824Y-112631836D01*
X143532664Y-112706427D01*
X143607255Y-112756267D01*
X143695241Y-112773768D01*
X143783227Y-112756267D01*
X143857818Y-112706427D01*
X143907658Y-112631836D01*
X143925159Y-112543850D01*
X143924318Y-112539624D01*
X143921943Y-112527682D01*
X145272884Y-112527682D01*
X145290384Y-112615666D01*
X145290384Y-112615667D01*
X145290385Y-112615668D01*
X145340225Y-112690259D01*
X145414816Y-112740099D01*
X145502802Y-112757600D01*
X145590788Y-112740099D01*
X145665379Y-112690259D01*
X145715219Y-112615668D01*
X145715346Y-112615029D01*
X146050960Y-112615029D01*
X146068460Y-112703013D01*
X146068460Y-112703014D01*
X146068461Y-112703015D01*
X146118301Y-112777606D01*
X146192892Y-112827446D01*
X146280878Y-112844947D01*
X146368864Y-112827446D01*
X146443455Y-112777606D01*
X146493295Y-112703015D01*
X146510796Y-112615029D01*
X146510634Y-112614217D01*
X146493295Y-112527044D01*
X146493295Y-112527043D01*
X146443455Y-112452452D01*
X146442240Y-112451640D01*
X146901183Y-112451640D01*
X146918683Y-112539624D01*
X146918683Y-112539625D01*
X146918684Y-112539626D01*
X146968524Y-112614217D01*
X147043115Y-112664057D01*
X147131101Y-112681558D01*
X147219087Y-112664057D01*
X147293678Y-112614217D01*
X147343518Y-112539626D01*
X147359148Y-112461044D01*
X147848547Y-112461044D01*
X147866047Y-112549028D01*
X147866047Y-112549029D01*
X147866048Y-112549030D01*
X147915888Y-112623621D01*
X147990479Y-112673461D01*
X148078465Y-112690962D01*
X148166451Y-112673461D01*
X148241042Y-112623621D01*
X148275711Y-112571735D01*
X148489255Y-112571735D01*
X148506755Y-112659719D01*
X148506755Y-112659720D01*
X148506756Y-112659721D01*
X148556596Y-112734312D01*
X148631187Y-112784152D01*
X148719173Y-112801653D01*
X148807159Y-112784152D01*
X148881750Y-112734312D01*
X148931590Y-112659721D01*
X148949091Y-112571735D01*
X148944574Y-112549028D01*
X148931590Y-112483750D01*
X148931590Y-112483749D01*
X148881750Y-112409158D01*
X148807159Y-112359318D01*
X148807158Y-112359317D01*
X148807157Y-112359317D01*
X148743064Y-112346569D01*
X151285805Y-112346569D01*
X151303305Y-112434553D01*
X151303305Y-112434554D01*
X151303306Y-112434555D01*
X151353146Y-112509146D01*
X151427737Y-112558986D01*
X151515723Y-112576487D01*
X151603709Y-112558986D01*
X151678300Y-112509146D01*
X151728140Y-112434555D01*
X151745641Y-112346569D01*
X151728140Y-112258583D01*
X151678300Y-112183992D01*
X151603709Y-112134152D01*
X151603708Y-112134151D01*
X151603707Y-112134151D01*
X151515723Y-112116651D01*
X151427738Y-112134151D01*
X151353146Y-112183992D01*
X151303305Y-112258584D01*
X151285805Y-112346568D01*
X151285805Y-112346569D01*
X148743064Y-112346569D01*
X148719173Y-112341817D01*
X148631188Y-112359317D01*
X148556596Y-112409158D01*
X148506755Y-112483750D01*
X148489255Y-112571734D01*
X148489255Y-112571735D01*
X148275711Y-112571735D01*
X148290882Y-112549030D01*
X148308383Y-112461044D01*
X148306512Y-112451640D01*
X148299632Y-112417051D01*
X148290882Y-112373058D01*
X148241042Y-112298467D01*
X148166451Y-112248627D01*
X148166450Y-112248626D01*
X148166449Y-112248626D01*
X148078465Y-112231126D01*
X147990480Y-112248626D01*
X147915888Y-112298467D01*
X147866047Y-112373059D01*
X147848547Y-112461043D01*
X147848547Y-112461044D01*
X147359148Y-112461044D01*
X147361019Y-112451640D01*
X147358643Y-112439697D01*
X147347786Y-112385111D01*
X147343518Y-112363654D01*
X147293678Y-112289063D01*
X147219087Y-112239223D01*
X147219086Y-112239222D01*
X147219085Y-112239222D01*
X147131101Y-112221722D01*
X147043116Y-112239222D01*
X146968524Y-112289063D01*
X146918683Y-112363655D01*
X146901183Y-112451639D01*
X146901183Y-112451640D01*
X146442240Y-112451640D01*
X146368864Y-112402612D01*
X146368863Y-112402611D01*
X146368862Y-112402611D01*
X146280878Y-112385111D01*
X146192893Y-112402611D01*
X146118301Y-112452452D01*
X146068460Y-112527044D01*
X146050960Y-112615028D01*
X146050960Y-112615029D01*
X145715346Y-112615029D01*
X145732720Y-112527682D01*
X145715219Y-112439696D01*
X145665379Y-112365105D01*
X145590788Y-112315265D01*
X145590787Y-112315264D01*
X145590786Y-112315264D01*
X145502802Y-112297764D01*
X145414817Y-112315264D01*
X145340225Y-112365105D01*
X145290384Y-112439697D01*
X145272884Y-112527681D01*
X145272884Y-112527682D01*
X143921943Y-112527682D01*
X143913205Y-112483750D01*
X143907658Y-112455864D01*
X143857818Y-112381273D01*
X143783227Y-112331433D01*
X143783226Y-112331432D01*
X143783225Y-112331432D01*
X143695241Y-112313932D01*
X143607256Y-112331432D01*
X143532664Y-112381273D01*
X143482823Y-112455865D01*
X143465323Y-112543849D01*
X143465323Y-112543850D01*
X141428367Y-112543850D01*
X141435083Y-112510086D01*
X141417582Y-112422100D01*
X141367742Y-112347509D01*
X141293151Y-112297669D01*
X141293150Y-112297668D01*
X141293149Y-112297668D01*
X141205165Y-112280168D01*
X141117180Y-112297668D01*
X141042588Y-112347509D01*
X140992747Y-112422101D01*
X140975247Y-112510085D01*
X140975247Y-112510086D01*
X140085083Y-112510086D01*
X140067582Y-112422100D01*
X140017742Y-112347509D01*
X139943151Y-112297669D01*
X139943150Y-112297668D01*
X139942004Y-112296903D01*
X139942355Y-112296376D01*
X139936423Y-112290445D01*
X139936422Y-112279729D01*
X139942355Y-112273794D01*
X139942004Y-112273269D01*
X139943150Y-112272503D01*
X139943151Y-112272503D01*
X140017742Y-112222663D01*
X140067582Y-112148072D01*
X140085083Y-112060086D01*
X140067582Y-111972100D01*
X140017742Y-111897509D01*
X139943151Y-111847669D01*
X139943150Y-111847668D01*
X139943149Y-111847668D01*
X139855165Y-111830168D01*
X139767180Y-111847668D01*
X139692586Y-111897510D01*
X139685640Y-111907906D01*
X139676731Y-111913859D01*
X139666222Y-111911768D01*
X139660269Y-111902859D01*
X139660000Y-111900128D01*
X139660000Y-111610086D01*
X141425247Y-111610086D01*
X141442747Y-111698070D01*
X141442747Y-111698071D01*
X141442748Y-111698072D01*
X141492588Y-111772663D01*
X141567179Y-111822503D01*
X141655165Y-111840004D01*
X141743151Y-111822503D01*
X141773549Y-111802192D01*
X144021533Y-111802192D01*
X144039033Y-111890176D01*
X144039033Y-111890177D01*
X144039034Y-111890178D01*
X144088874Y-111964769D01*
X144163465Y-112014609D01*
X144251451Y-112032110D01*
X144339437Y-112014609D01*
X144414028Y-111964769D01*
X144463868Y-111890178D01*
X144481369Y-111802192D01*
X144478438Y-111787456D01*
X144562673Y-111787456D01*
X144580173Y-111875440D01*
X144580173Y-111875441D01*
X144580174Y-111875442D01*
X144630014Y-111950033D01*
X144704605Y-111999873D01*
X144792591Y-112017374D01*
X144880577Y-111999873D01*
X144955168Y-111950033D01*
X145005008Y-111875442D01*
X145022509Y-111787456D01*
X145394203Y-111787456D01*
X145411703Y-111875440D01*
X145411703Y-111875441D01*
X145411704Y-111875442D01*
X145461544Y-111950033D01*
X145536135Y-111999873D01*
X145624121Y-112017374D01*
X145712107Y-111999873D01*
X145714793Y-111998078D01*
X148306170Y-111998078D01*
X148323670Y-112086062D01*
X148323670Y-112086063D01*
X148323671Y-112086064D01*
X148373511Y-112160655D01*
X148448102Y-112210495D01*
X148536088Y-112227996D01*
X148624074Y-112210495D01*
X148698665Y-112160655D01*
X148748505Y-112086064D01*
X148766006Y-111998078D01*
X148748505Y-111910092D01*
X148698665Y-111835501D01*
X148624074Y-111785661D01*
X148624073Y-111785660D01*
X148624072Y-111785660D01*
X148536088Y-111768160D01*
X148448103Y-111785660D01*
X148373511Y-111835501D01*
X148323670Y-111910093D01*
X148306170Y-111998077D01*
X148306170Y-111998078D01*
X145714793Y-111998078D01*
X145786698Y-111950033D01*
X145836538Y-111875442D01*
X145854039Y-111787456D01*
X145851096Y-111772662D01*
X145836538Y-111699471D01*
X145836538Y-111699470D01*
X145822760Y-111678849D01*
X151311270Y-111678849D01*
X151328770Y-111766833D01*
X151328770Y-111766834D01*
X151328771Y-111766835D01*
X151378611Y-111841426D01*
X151453202Y-111891266D01*
X151541188Y-111908767D01*
X151629174Y-111891266D01*
X151703765Y-111841426D01*
X151753605Y-111766835D01*
X151771106Y-111678849D01*
X151753605Y-111590863D01*
X151703765Y-111516272D01*
X151629174Y-111466432D01*
X151629173Y-111466431D01*
X151629172Y-111466431D01*
X151541188Y-111448931D01*
X151453203Y-111466431D01*
X151378611Y-111516272D01*
X151328770Y-111590864D01*
X151311270Y-111678848D01*
X151311270Y-111678849D01*
X145822760Y-111678849D01*
X145786698Y-111624879D01*
X145712107Y-111575039D01*
X145712106Y-111575038D01*
X145712105Y-111575038D01*
X145624121Y-111557538D01*
X145536136Y-111575038D01*
X145461544Y-111624879D01*
X145411703Y-111699471D01*
X145394203Y-111787455D01*
X145394203Y-111787456D01*
X145022509Y-111787456D01*
X145019566Y-111772662D01*
X145005008Y-111699471D01*
X145005008Y-111699470D01*
X144955168Y-111624879D01*
X144880577Y-111575039D01*
X144880576Y-111575038D01*
X144880575Y-111575038D01*
X144792591Y-111557538D01*
X144704606Y-111575038D01*
X144630014Y-111624879D01*
X144580173Y-111699471D01*
X144562673Y-111787455D01*
X144562673Y-111787456D01*
X144478438Y-111787456D01*
X144475495Y-111772663D01*
X144463868Y-111714207D01*
X144463868Y-111714206D01*
X144414028Y-111639615D01*
X144339437Y-111589775D01*
X144339436Y-111589774D01*
X144339435Y-111589774D01*
X144251451Y-111572274D01*
X144163466Y-111589774D01*
X144088874Y-111639615D01*
X144039033Y-111714207D01*
X144021533Y-111802191D01*
X144021533Y-111802192D01*
X141773549Y-111802192D01*
X141817742Y-111772663D01*
X141867582Y-111698072D01*
X141885083Y-111610086D01*
X141881259Y-111590863D01*
X141872720Y-111547930D01*
X141867582Y-111522100D01*
X141817742Y-111447509D01*
X141743151Y-111397669D01*
X141743150Y-111397668D01*
X141743149Y-111397668D01*
X141655165Y-111380168D01*
X141567180Y-111397668D01*
X141492588Y-111447509D01*
X141442747Y-111522101D01*
X141425247Y-111610085D01*
X141425247Y-111610086D01*
X139660000Y-111610086D01*
X139660000Y-111140932D01*
X139664101Y-111131033D01*
X139670675Y-111127332D01*
X139977135Y-111052459D01*
X139979325Y-111051258D01*
X139981171Y-111050415D01*
X139998939Y-111043811D01*
X140015936Y-111035128D01*
X140017804Y-111034339D01*
X140017806Y-111034338D01*
X140020121Y-111033553D01*
X140035180Y-111023491D01*
X140061377Y-111006002D01*
X140061378Y-111005999D01*
X140062750Y-111005084D01*
X140062835Y-111005010D01*
X140090885Y-110986270D01*
X140092002Y-110984994D01*
X140093295Y-110983702D01*
X140112190Y-110967139D01*
X140112194Y-110967134D01*
X140112198Y-110967131D01*
X140128808Y-110948193D01*
X140130101Y-110946899D01*
X140131349Y-110945806D01*
X140149538Y-110918585D01*
X140158940Y-110904516D01*
X140158940Y-110904514D01*
X140160089Y-110902795D01*
X140160091Y-110902789D01*
X140178633Y-110875042D01*
X140179200Y-110873369D01*
X140179900Y-110871680D01*
X140181952Y-110867524D01*
X140190978Y-110849240D01*
X140199100Y-110825338D01*
X140199798Y-110823655D01*
X140200532Y-110822170D01*
X140204269Y-110803385D01*
X140210223Y-110773503D01*
X140210549Y-110771869D01*
X140210554Y-110771785D01*
X140212459Y-110762203D01*
X140212467Y-110762191D01*
X140213596Y-110756508D01*
X140213598Y-110756509D01*
X140216641Y-110741206D01*
X140216641Y-110741200D01*
X140216740Y-110740704D01*
X140216752Y-110740626D01*
X140217136Y-110738700D01*
X140217029Y-110737070D01*
X140217029Y-110735270D01*
X140218678Y-110710067D01*
X140217027Y-110684951D01*
X140217027Y-110683127D01*
X140217136Y-110681473D01*
X140216720Y-110679383D01*
X140216715Y-110679353D01*
X140216632Y-110678939D01*
X140216632Y-110678929D01*
X140214366Y-110667547D01*
X140210544Y-110648338D01*
X140210536Y-110648233D01*
X140210222Y-110646658D01*
X140210223Y-110646655D01*
X140205161Y-110621260D01*
X140205163Y-110621252D01*
X140203021Y-110610495D01*
X140202946Y-110610141D01*
X140201902Y-110604888D01*
X140201668Y-110603142D01*
X140201578Y-110601874D01*
X140201578Y-110601868D01*
X140201232Y-110600865D01*
X140200739Y-110599043D01*
X140200532Y-110598001D01*
X140199970Y-110596862D01*
X140199289Y-110595229D01*
X140197487Y-110590000D01*
X140197430Y-110589827D01*
X140195644Y-110584652D01*
X140195643Y-110584649D01*
X140195354Y-110583811D01*
X140195353Y-110583809D01*
X140192895Y-110576679D01*
X140082215Y-110255575D01*
X140975084Y-110255575D01*
X140992584Y-110343559D01*
X140992584Y-110343560D01*
X140992585Y-110343561D01*
X141042425Y-110418152D01*
X141117016Y-110467992D01*
X141122663Y-110469115D01*
X141131573Y-110475067D01*
X141133664Y-110485576D01*
X141127712Y-110494486D01*
X141122666Y-110496577D01*
X141117179Y-110497668D01*
X141042588Y-110547509D01*
X140992747Y-110622101D01*
X140975247Y-110710085D01*
X140975247Y-110710086D01*
X140992747Y-110798070D01*
X140992747Y-110798071D01*
X140992748Y-110798072D01*
X141042588Y-110872663D01*
X141117179Y-110922503D01*
X141205165Y-110940004D01*
X141293151Y-110922503D01*
X141313291Y-110909046D01*
X145206045Y-110909046D01*
X145223545Y-110997030D01*
X145223545Y-110997031D01*
X145223546Y-110997032D01*
X145273386Y-111071623D01*
X145347977Y-111121463D01*
X145435963Y-111138964D01*
X145523949Y-111121463D01*
X145598540Y-111071623D01*
X145648380Y-110997032D01*
X145665881Y-110909046D01*
X145664979Y-110904513D01*
X145659956Y-110879259D01*
X147917080Y-110879259D01*
X147934580Y-110967243D01*
X147934580Y-110967244D01*
X147934581Y-110967245D01*
X147984421Y-111041836D01*
X148059012Y-111091676D01*
X148146998Y-111109177D01*
X148234984Y-111091676D01*
X148309575Y-111041836D01*
X148359415Y-110967245D01*
X148376916Y-110879259D01*
X148376077Y-110875043D01*
X148359415Y-110791274D01*
X148359415Y-110791273D01*
X148309575Y-110716682D01*
X148234984Y-110666842D01*
X148234983Y-110666841D01*
X148234982Y-110666841D01*
X148146998Y-110649341D01*
X148059013Y-110666841D01*
X147984421Y-110716682D01*
X147934580Y-110791274D01*
X147917080Y-110879258D01*
X147917080Y-110879259D01*
X145659956Y-110879259D01*
X145648601Y-110822170D01*
X145648380Y-110821060D01*
X145598540Y-110746469D01*
X145523949Y-110696629D01*
X145523948Y-110696628D01*
X145523947Y-110696628D01*
X145435963Y-110679128D01*
X145347978Y-110696628D01*
X145273386Y-110746469D01*
X145223545Y-110821061D01*
X145206045Y-110909045D01*
X145206045Y-110909046D01*
X141313291Y-110909046D01*
X141367742Y-110872663D01*
X141417582Y-110798072D01*
X141435083Y-110710086D01*
X141432555Y-110697379D01*
X141423000Y-110649341D01*
X141417582Y-110622100D01*
X141367742Y-110547509D01*
X141317901Y-110514206D01*
X141293150Y-110497668D01*
X141287501Y-110496545D01*
X141278592Y-110490592D01*
X141276502Y-110480082D01*
X141282455Y-110471173D01*
X141287501Y-110469083D01*
X141292988Y-110467992D01*
X141367579Y-110418152D01*
X141417419Y-110343561D01*
X141434920Y-110255575D01*
X141424522Y-110203298D01*
X142561759Y-110203298D01*
X142579259Y-110291282D01*
X142579259Y-110291283D01*
X142579260Y-110291284D01*
X142629100Y-110365875D01*
X142703691Y-110415715D01*
X142791677Y-110433216D01*
X142879663Y-110415715D01*
X142954254Y-110365875D01*
X143004094Y-110291284D01*
X143018981Y-110216438D01*
X145199733Y-110216438D01*
X145217233Y-110304422D01*
X145217233Y-110304423D01*
X145217234Y-110304424D01*
X145267074Y-110379015D01*
X145341665Y-110428855D01*
X145429651Y-110446356D01*
X145517637Y-110428855D01*
X145592228Y-110379015D01*
X145642068Y-110304424D01*
X145654528Y-110241780D01*
X147917080Y-110241780D01*
X147934580Y-110329764D01*
X147934580Y-110329765D01*
X147934581Y-110329766D01*
X147984421Y-110404357D01*
X148059012Y-110454197D01*
X148146998Y-110471698D01*
X148234984Y-110454197D01*
X148309575Y-110404357D01*
X148359415Y-110329766D01*
X148376916Y-110241780D01*
X148373808Y-110226157D01*
X148366333Y-110188575D01*
X149065179Y-110188575D01*
X149082679Y-110276559D01*
X149082679Y-110276560D01*
X149082680Y-110276561D01*
X149132520Y-110351152D01*
X149207111Y-110400992D01*
X149295097Y-110418493D01*
X149383083Y-110400992D01*
X149457674Y-110351152D01*
X149507514Y-110276561D01*
X149525015Y-110188575D01*
X149507514Y-110100589D01*
X149457674Y-110025998D01*
X149383083Y-109976158D01*
X149383082Y-109976157D01*
X149383081Y-109976157D01*
X149295097Y-109958657D01*
X149207112Y-109976157D01*
X149132520Y-110025998D01*
X149082679Y-110100590D01*
X149065179Y-110188574D01*
X149065179Y-110188575D01*
X148366333Y-110188575D01*
X148359415Y-110153795D01*
X148359415Y-110153794D01*
X148309575Y-110079203D01*
X148234984Y-110029363D01*
X148234983Y-110029362D01*
X148234982Y-110029362D01*
X148146998Y-110011862D01*
X148059013Y-110029362D01*
X147984421Y-110079203D01*
X147934580Y-110153795D01*
X147917080Y-110241779D01*
X147917080Y-110241780D01*
X145654528Y-110241780D01*
X145659569Y-110216438D01*
X145656955Y-110203298D01*
X145647109Y-110153794D01*
X145642068Y-110128452D01*
X145592228Y-110053861D01*
X145517637Y-110004021D01*
X145517636Y-110004020D01*
X145517635Y-110004020D01*
X145429651Y-109986520D01*
X145341666Y-110004020D01*
X145267074Y-110053861D01*
X145217233Y-110128453D01*
X145199733Y-110216437D01*
X145199733Y-110216438D01*
X143018981Y-110216438D01*
X143021595Y-110203298D01*
X143018666Y-110188575D01*
X143012844Y-110159305D01*
X143004094Y-110115312D01*
X142954254Y-110040721D01*
X142879663Y-109990881D01*
X142879662Y-109990880D01*
X142879661Y-109990880D01*
X142791677Y-109973380D01*
X142703692Y-109990880D01*
X142629100Y-110040721D01*
X142579259Y-110115313D01*
X142561759Y-110203297D01*
X142561759Y-110203298D01*
X141424522Y-110203298D01*
X141417419Y-110167589D01*
X141367579Y-110092998D01*
X141292988Y-110043158D01*
X141292987Y-110043157D01*
X141292986Y-110043157D01*
X141205002Y-110025657D01*
X141117017Y-110043157D01*
X141042425Y-110092998D01*
X140992584Y-110167590D01*
X140975084Y-110255574D01*
X140975084Y-110255575D01*
X140082215Y-110255575D01*
X139928661Y-109810086D01*
X140525247Y-109810086D01*
X140542747Y-109898070D01*
X140542747Y-109898071D01*
X140542748Y-109898072D01*
X140592588Y-109972663D01*
X140667179Y-110022503D01*
X140755165Y-110040004D01*
X140843151Y-110022503D01*
X140917742Y-109972663D01*
X140967582Y-109898072D01*
X140985083Y-109810086D01*
X141425247Y-109810086D01*
X141442747Y-109898070D01*
X141442747Y-109898071D01*
X141442748Y-109898072D01*
X141492588Y-109972663D01*
X141567179Y-110022503D01*
X141655165Y-110040004D01*
X141743151Y-110022503D01*
X141817742Y-109972663D01*
X141867582Y-109898072D01*
X141885083Y-109810086D01*
X141884941Y-109809374D01*
X141867582Y-109722101D01*
X141867582Y-109722100D01*
X141817742Y-109647509D01*
X141743151Y-109597669D01*
X141743150Y-109597668D01*
X141743149Y-109597668D01*
X141655165Y-109580168D01*
X141567180Y-109597668D01*
X141492588Y-109647509D01*
X141442747Y-109722101D01*
X141425247Y-109810085D01*
X141425247Y-109810086D01*
X140985083Y-109810086D01*
X140984941Y-109809374D01*
X140967582Y-109722101D01*
X140967582Y-109722100D01*
X140917742Y-109647509D01*
X140843151Y-109597669D01*
X140843150Y-109597668D01*
X140843149Y-109597668D01*
X140755165Y-109580168D01*
X140667180Y-109597668D01*
X140592588Y-109647509D01*
X140542747Y-109722101D01*
X140525247Y-109810085D01*
X140525247Y-109810086D01*
X139928661Y-109810086D01*
X139847147Y-109573597D01*
X139823371Y-109504617D01*
X144582737Y-109504617D01*
X144600237Y-109592601D01*
X144600237Y-109592602D01*
X144600238Y-109592603D01*
X144650078Y-109667194D01*
X144724669Y-109717034D01*
X144812655Y-109734535D01*
X144900641Y-109717034D01*
X144975232Y-109667194D01*
X145025072Y-109592603D01*
X145042573Y-109504617D01*
X145025072Y-109416631D01*
X144975232Y-109342040D01*
X144900641Y-109292200D01*
X144900640Y-109292199D01*
X144900639Y-109292199D01*
X144812655Y-109274699D01*
X144724670Y-109292199D01*
X144650078Y-109342040D01*
X144600237Y-109416632D01*
X144582737Y-109504616D01*
X144582737Y-109504617D01*
X139823371Y-109504617D01*
X139660764Y-109032865D01*
X139660000Y-109028303D01*
X139660000Y-108866826D01*
X144583277Y-108866826D01*
X144600777Y-108954810D01*
X144600777Y-108954811D01*
X144600778Y-108954812D01*
X144650618Y-109029403D01*
X144725209Y-109079243D01*
X144813195Y-109096744D01*
X144901181Y-109079243D01*
X144975772Y-109029403D01*
X145025612Y-108954812D01*
X145043113Y-108866826D01*
X145025612Y-108778840D01*
X144975772Y-108704249D01*
X144901181Y-108654409D01*
X144901180Y-108654408D01*
X144901179Y-108654408D01*
X144813195Y-108636908D01*
X144725210Y-108654408D01*
X144650618Y-108704249D01*
X144600777Y-108778841D01*
X144583277Y-108866825D01*
X144583277Y-108866826D01*
X139660000Y-108866826D01*
X139660000Y-108188575D01*
X149745179Y-108188575D01*
X149762679Y-108276559D01*
X149762679Y-108276560D01*
X149762680Y-108276561D01*
X149812520Y-108351152D01*
X149887111Y-108400992D01*
X149975097Y-108418493D01*
X150063083Y-108400992D01*
X150137674Y-108351152D01*
X150187514Y-108276561D01*
X150205015Y-108188575D01*
X150187514Y-108100589D01*
X150137674Y-108025998D01*
X150063083Y-107976158D01*
X150063082Y-107976157D01*
X150063081Y-107976157D01*
X149975097Y-107958657D01*
X149887112Y-107976157D01*
X149812520Y-108025998D01*
X149762679Y-108100590D01*
X149745179Y-108188574D01*
X149745179Y-108188575D01*
X139660000Y-108188575D01*
X139660000Y-107986198D01*
X139662358Y-107978421D01*
X139703800Y-107916400D01*
X139719400Y-107837973D01*
X140031185Y-107837973D01*
X140048685Y-107925957D01*
X140048685Y-107925958D01*
X140048686Y-107925959D01*
X140098526Y-108000550D01*
X140173117Y-108050390D01*
X140261103Y-108067891D01*
X140349089Y-108050390D01*
X140423680Y-108000550D01*
X140473520Y-107925959D01*
X140491021Y-107837973D01*
X141038142Y-107837973D01*
X141055642Y-107925957D01*
X141055642Y-107925958D01*
X141055643Y-107925959D01*
X141105483Y-108000550D01*
X141180074Y-108050390D01*
X141268060Y-108067891D01*
X141356046Y-108050390D01*
X141430637Y-108000550D01*
X141480477Y-107925959D01*
X141497978Y-107837973D01*
X141496076Y-107828413D01*
X141480477Y-107749988D01*
X141480477Y-107749987D01*
X141430637Y-107675396D01*
X141356046Y-107625556D01*
X141356045Y-107625555D01*
X141356044Y-107625555D01*
X141268060Y-107608055D01*
X141180075Y-107625555D01*
X141105483Y-107675396D01*
X141055642Y-107749988D01*
X141038142Y-107837972D01*
X141038142Y-107837973D01*
X140491021Y-107837973D01*
X140489119Y-107828413D01*
X140473520Y-107749988D01*
X140473520Y-107749987D01*
X140423680Y-107675396D01*
X140349089Y-107625556D01*
X140349088Y-107625555D01*
X140349087Y-107625555D01*
X140261103Y-107608055D01*
X140173118Y-107625555D01*
X140098526Y-107675396D01*
X140048685Y-107749988D01*
X140031185Y-107837972D01*
X140031185Y-107837973D01*
X139719400Y-107837973D01*
X139721301Y-107828414D01*
X139703800Y-107740428D01*
X139683287Y-107709728D01*
X139662359Y-107678406D01*
X139660000Y-107670628D01*
X139660000Y-107018250D01*
X140031185Y-107018250D01*
X140048685Y-107106234D01*
X140048685Y-107106235D01*
X140048686Y-107106236D01*
X140098526Y-107180827D01*
X140173117Y-107230667D01*
X140261103Y-107248168D01*
X140349089Y-107230667D01*
X140423680Y-107180827D01*
X140473520Y-107106236D01*
X140491021Y-107018250D01*
X141038142Y-107018250D01*
X141055642Y-107106234D01*
X141055642Y-107106235D01*
X141055643Y-107106236D01*
X141105483Y-107180827D01*
X141180074Y-107230667D01*
X141268060Y-107248168D01*
X141356046Y-107230667D01*
X141430637Y-107180827D01*
X141480477Y-107106236D01*
X141497978Y-107018250D01*
X141496443Y-107010533D01*
X141937057Y-107010533D01*
X141954557Y-107098517D01*
X141954557Y-107098518D01*
X141954558Y-107098519D01*
X142004398Y-107173110D01*
X142078989Y-107222950D01*
X142166975Y-107240451D01*
X142254961Y-107222950D01*
X142329552Y-107173110D01*
X142379392Y-107098519D01*
X142396893Y-107010533D01*
X142379392Y-106922547D01*
X142329552Y-106847956D01*
X142254961Y-106798116D01*
X142254960Y-106798115D01*
X142254959Y-106798115D01*
X142166975Y-106780615D01*
X142078990Y-106798115D01*
X142004398Y-106847956D01*
X141954557Y-106922548D01*
X141937057Y-107010532D01*
X141937057Y-107010533D01*
X141496443Y-107010533D01*
X141480477Y-106930264D01*
X141430637Y-106855673D01*
X141356046Y-106805833D01*
X141356045Y-106805832D01*
X141356044Y-106805832D01*
X141268060Y-106788332D01*
X141180075Y-106805832D01*
X141105483Y-106855673D01*
X141055642Y-106930265D01*
X141038142Y-107018249D01*
X141038142Y-107018250D01*
X140491021Y-107018250D01*
X140473520Y-106930264D01*
X140423680Y-106855673D01*
X140349089Y-106805833D01*
X140349088Y-106805832D01*
X140349087Y-106805832D01*
X140261103Y-106788332D01*
X140173118Y-106805832D01*
X140098526Y-106855673D01*
X140048685Y-106930265D01*
X140031185Y-107018249D01*
X140031185Y-107018250D01*
X139660000Y-107018250D01*
X139660000Y-106065238D01*
X142798662Y-106065238D01*
X142816162Y-106153222D01*
X142816162Y-106153223D01*
X142816163Y-106153224D01*
X142866003Y-106227815D01*
X142940594Y-106277655D01*
X143028580Y-106295156D01*
X143116566Y-106277655D01*
X143191157Y-106227815D01*
X143240997Y-106153224D01*
X143258498Y-106065238D01*
X143323089Y-106065238D01*
X143340589Y-106153222D01*
X143340589Y-106153223D01*
X143340590Y-106153224D01*
X143390430Y-106227815D01*
X143465021Y-106277655D01*
X143553007Y-106295156D01*
X143640993Y-106277655D01*
X143715584Y-106227815D01*
X143765424Y-106153224D01*
X143782925Y-106065238D01*
X143765424Y-105977252D01*
X143715584Y-105902661D01*
X143640993Y-105852821D01*
X143640992Y-105852820D01*
X143640991Y-105852820D01*
X143553007Y-105835320D01*
X143465022Y-105852820D01*
X143390430Y-105902661D01*
X143340589Y-105977253D01*
X143323089Y-106065237D01*
X143323089Y-106065238D01*
X143258498Y-106065238D01*
X143240997Y-105977252D01*
X143191157Y-105902661D01*
X143116566Y-105852821D01*
X143116565Y-105852820D01*
X143116564Y-105852820D01*
X143028580Y-105835320D01*
X142940595Y-105852820D01*
X142866003Y-105902661D01*
X142816162Y-105977253D01*
X142798662Y-106065237D01*
X142798662Y-106065238D01*
X139660000Y-106065238D01*
X139660000Y-105250000D01*
X147190582Y-105250000D01*
X147208082Y-105337984D01*
X147208082Y-105337985D01*
X147208083Y-105337986D01*
X147257923Y-105412577D01*
X147332514Y-105462417D01*
X147420500Y-105479918D01*
X147508486Y-105462417D01*
X147583077Y-105412577D01*
X147632917Y-105337986D01*
X147650418Y-105250000D01*
X147949582Y-105250000D01*
X147967082Y-105337984D01*
X147967082Y-105337985D01*
X147967083Y-105337986D01*
X148016923Y-105412577D01*
X148091514Y-105462417D01*
X148179500Y-105479918D01*
X148267486Y-105462417D01*
X148342077Y-105412577D01*
X148391917Y-105337986D01*
X148409418Y-105250000D01*
X148391917Y-105162014D01*
X148342077Y-105087423D01*
X148267486Y-105037583D01*
X148267485Y-105037582D01*
X148267484Y-105037582D01*
X148179500Y-105020082D01*
X148091515Y-105037582D01*
X148016923Y-105087423D01*
X147967082Y-105162015D01*
X147949582Y-105249999D01*
X147949582Y-105250000D01*
X147650418Y-105250000D01*
X147632917Y-105162014D01*
X147583077Y-105087423D01*
X147508486Y-105037583D01*
X147508485Y-105037582D01*
X147508484Y-105037582D01*
X147420500Y-105020082D01*
X147332515Y-105037582D01*
X147257923Y-105087423D01*
X147208082Y-105162015D01*
X147190582Y-105249999D01*
X147190582Y-105250000D01*
X139660000Y-105250000D01*
X139660000Y-104852764D01*
X141383538Y-104852764D01*
X141401038Y-104940748D01*
X141401038Y-104940749D01*
X141401039Y-104940750D01*
X141450879Y-105015341D01*
X141525470Y-105065181D01*
X141613456Y-105082682D01*
X141701442Y-105065181D01*
X141776033Y-105015341D01*
X141825873Y-104940750D01*
X141843374Y-104852764D01*
X141825873Y-104764778D01*
X141776033Y-104690187D01*
X141701442Y-104640347D01*
X141701441Y-104640346D01*
X141701440Y-104640346D01*
X141613456Y-104622846D01*
X141525471Y-104640346D01*
X141450879Y-104690187D01*
X141401038Y-104764779D01*
X141383538Y-104852763D01*
X141383538Y-104852764D01*
X139660000Y-104852764D01*
X139660000Y-104364936D01*
X141401851Y-104364936D01*
X141419351Y-104452920D01*
X141419351Y-104452921D01*
X141419352Y-104452922D01*
X141469192Y-104527513D01*
X141543783Y-104577353D01*
X141631769Y-104594854D01*
X141719755Y-104577353D01*
X141794346Y-104527513D01*
X141844186Y-104452922D01*
X141861687Y-104364936D01*
X141844186Y-104276950D01*
X141794346Y-104202359D01*
X141719755Y-104152519D01*
X141719754Y-104152518D01*
X141719753Y-104152518D01*
X141631769Y-104135018D01*
X141543784Y-104152518D01*
X141469192Y-104202359D01*
X141419351Y-104276951D01*
X141401851Y-104364935D01*
X141401851Y-104364936D01*
X139660000Y-104364936D01*
X139660000Y-103800248D01*
X146330676Y-103800248D01*
X146348176Y-103888232D01*
X146348176Y-103888233D01*
X146348177Y-103888234D01*
X146398017Y-103962825D01*
X146472608Y-104012665D01*
X146560594Y-104030166D01*
X146648580Y-104012665D01*
X146723171Y-103962825D01*
X146773011Y-103888234D01*
X146790512Y-103800248D01*
X146788314Y-103789201D01*
X147968104Y-103789201D01*
X147985604Y-103877185D01*
X147985604Y-103877186D01*
X147985605Y-103877187D01*
X148035445Y-103951778D01*
X148110036Y-104001618D01*
X148198022Y-104019119D01*
X148286008Y-104001618D01*
X148360599Y-103951778D01*
X148410439Y-103877187D01*
X148427940Y-103789201D01*
X148410439Y-103701215D01*
X148360599Y-103626624D01*
X148286008Y-103576784D01*
X148286007Y-103576783D01*
X148286006Y-103576783D01*
X148264377Y-103572481D01*
X148255467Y-103566528D01*
X148253377Y-103556019D01*
X148259330Y-103547109D01*
X148264374Y-103545019D01*
X148295007Y-103538927D01*
X148349693Y-103502387D01*
X148664525Y-103502387D01*
X148682025Y-103590371D01*
X148682025Y-103590372D01*
X148682026Y-103590373D01*
X148731866Y-103664964D01*
X148806457Y-103714804D01*
X148894443Y-103732305D01*
X148982429Y-103714804D01*
X149057020Y-103664964D01*
X149106860Y-103590373D01*
X149109011Y-103579559D01*
X149514359Y-103579559D01*
X149531859Y-103667543D01*
X149531859Y-103667544D01*
X149531860Y-103667545D01*
X149581700Y-103742136D01*
X149656291Y-103791976D01*
X149744277Y-103809477D01*
X149832263Y-103791976D01*
X149906854Y-103742136D01*
X149956694Y-103667545D01*
X149974195Y-103579559D01*
X149967740Y-103547109D01*
X149956694Y-103491574D01*
X149956694Y-103491573D01*
X149906854Y-103416982D01*
X149832263Y-103367142D01*
X149832262Y-103367141D01*
X149832261Y-103367141D01*
X149744277Y-103349641D01*
X149656292Y-103367141D01*
X149581700Y-103416982D01*
X149531859Y-103491574D01*
X149514359Y-103579558D01*
X149514359Y-103579559D01*
X149109011Y-103579559D01*
X149124361Y-103502387D01*
X149106860Y-103414401D01*
X149057020Y-103339810D01*
X148982429Y-103289970D01*
X148982428Y-103289969D01*
X148982427Y-103289969D01*
X148894443Y-103272469D01*
X148806458Y-103289969D01*
X148731866Y-103339810D01*
X148682025Y-103414402D01*
X148664525Y-103502386D01*
X148664525Y-103502387D01*
X148349693Y-103502387D01*
X148369598Y-103489087D01*
X148419438Y-103414496D01*
X148436939Y-103326510D01*
X148419438Y-103238524D01*
X148369598Y-103163933D01*
X148295007Y-103114093D01*
X148295006Y-103114092D01*
X148295005Y-103114092D01*
X148207021Y-103096592D01*
X148119036Y-103114092D01*
X148044444Y-103163933D01*
X147994603Y-103238525D01*
X147977103Y-103326509D01*
X147977103Y-103326510D01*
X147994603Y-103414494D01*
X147994603Y-103414495D01*
X147994604Y-103414496D01*
X148044444Y-103489087D01*
X148119035Y-103538927D01*
X148140665Y-103543229D01*
X148149574Y-103549182D01*
X148151665Y-103559691D01*
X148145712Y-103568600D01*
X148140665Y-103570691D01*
X148110037Y-103576783D01*
X148035445Y-103626624D01*
X147985604Y-103701216D01*
X147968104Y-103789200D01*
X147968104Y-103789201D01*
X146788314Y-103789201D01*
X146788314Y-103789200D01*
X146776998Y-103732305D01*
X146773011Y-103712262D01*
X146723171Y-103637671D01*
X146648580Y-103587831D01*
X146648579Y-103587830D01*
X146648578Y-103587830D01*
X146560594Y-103570330D01*
X146472609Y-103587830D01*
X146398017Y-103637671D01*
X146348176Y-103712263D01*
X146330676Y-103800247D01*
X146330676Y-103800248D01*
X139660000Y-103800248D01*
X139660000Y-102593098D01*
X145163996Y-102593098D01*
X145181496Y-102681082D01*
X145181496Y-102681083D01*
X145181497Y-102681084D01*
X145231337Y-102755675D01*
X145305928Y-102805515D01*
X145393914Y-102823016D01*
X145481900Y-102805515D01*
X145556491Y-102755675D01*
X145606331Y-102681084D01*
X145623832Y-102593098D01*
X145606331Y-102505112D01*
X145556491Y-102430521D01*
X145481900Y-102380681D01*
X145481899Y-102380680D01*
X145481898Y-102380680D01*
X145393914Y-102363180D01*
X145305929Y-102380680D01*
X145231337Y-102430521D01*
X145181496Y-102505113D01*
X145163996Y-102593097D01*
X145163996Y-102593098D01*
X139660000Y-102593098D01*
X139660000Y-100720144D01*
X139664101Y-100710245D01*
X139674000Y-100706144D01*
X139919533Y-100706144D01*
X139919536Y-100706144D01*
X139921096Y-100705725D01*
X139923492Y-100705303D01*
X139938975Y-100703952D01*
X139954016Y-100701302D01*
X139956404Y-100701318D01*
X139956400Y-100701193D01*
X139957979Y-100701132D01*
X139957982Y-100701133D01*
X139957984Y-100701132D01*
X139957991Y-100701132D01*
X139958364Y-100701032D01*
X139958368Y-100701032D01*
X139979013Y-100695498D01*
X140006321Y-100688185D01*
X140006323Y-100688183D01*
X140006324Y-100688183D01*
X140007720Y-100687445D01*
X140007809Y-100687614D01*
X140009684Y-100686525D01*
X140009675Y-100686502D01*
X140009823Y-100686444D01*
X140009835Y-100686438D01*
X140009844Y-100686434D01*
X140009880Y-100686423D01*
X140010045Y-100686359D01*
X140012918Y-100685589D01*
X140014088Y-100685406D01*
X140381190Y-100522488D01*
X140391902Y-100522221D01*
X140399665Y-100529606D01*
X140400869Y-100535285D01*
X140400869Y-100923040D01*
X140400870Y-100923043D01*
X140406700Y-100952357D01*
X140428912Y-100985601D01*
X140462156Y-101007813D01*
X140491470Y-101013644D01*
X142111267Y-101013643D01*
X142140582Y-101007813D01*
X142173826Y-100985601D01*
X142196038Y-100952357D01*
X142201869Y-100923043D01*
X142201868Y-99013999D01*
X142205968Y-99004101D01*
X142215868Y-99000000D01*
X142660838Y-99000000D01*
X142670737Y-99004101D01*
G37*
%TD.AperFunction*%
%TD*%
D39*
X131501369Y-98513144D02*
X134301369Y-98513144D01*
X134301369Y-98513144D02*
X134301369Y-100393144D01*
X134301369Y-100393144D02*
X135151369Y-100393144D01*
X135151369Y-100393144D02*
X135151369Y-98513144D01*
X135151369Y-98513144D02*
X139051369Y-98513144D01*
X139051369Y-98513144D02*
X139051369Y-100393144D01*
X139051369Y-100393144D02*
X139901369Y-100393144D01*
X139901369Y-100393144D02*
X139901369Y-98513144D01*
X139901369Y-98513144D02*
X142701369Y-98513144D01*
X142701369Y-98513144D02*
X142701369Y-98363144D01*
X142701369Y-98363144D02*
X131501369Y-98363144D01*
X131501369Y-98363144D02*
X131501369Y-98513144D01*
X152000000Y-117500000D02*
X125750000Y-117500000D01*
X125750000Y-117500000D02*
X125750000Y-98500000D01*
X125750000Y-98500000D02*
X153250000Y-98500000D01*
X153250000Y-98500000D02*
X153250000Y-116000000D01*
X153250000Y-116000000D02*
X153000000Y-116000000D01*
X153000000Y-116000000D02*
G75*
G03*
X152000000Y-117000000I0J-1000000D01*
G01*
X152000000Y-117000000D02*
X152000000Y-117500000D01*
M02*
