%TF.GenerationSoftware,KiCad,Pcbnew,7.0.7*%
%TF.CreationDate,2024-01-11T19:31:21-08:00*%
%TF.ProjectId,beeper-design,62656570-6572-42d6-9465-7369676e2e6b,rev?*%
%TF.SameCoordinates,Original*%
%TF.FileFunction,Soldermask,Bot*%
%TF.FilePolarity,Negative*%
%FSLAX46Y46*%
G04 Gerber Fmt 4.6, Leading zero omitted, Abs format (unit mm)*
G04 Created by KiCad (PCBNEW 7.0.7) date 2024-01-11 19:31:21*
%MOMM*%
%LPD*%
G01*
G04 APERTURE LIST*
%ADD10C,1.000000*%
%ADD11C,0.787000*%
%ADD12C,0.991000*%
%ADD13R,0.400000X1.750000*%
%ADD14O,0.730000X1.460000*%
%ADD15O,1.200000X2.400000*%
%ADD16R,1.425000X2.500000*%
%TA.AperFunction,Profile*%
%ADD17C,0.050000*%
%TD*%
G04 APERTURE END LIST*
D10*
%TO.C,TP1*%
X131476243Y-106170330D03*
%TD*%
%TO.C,TP2*%
X131476243Y-104967130D03*
%TD*%
D11*
%TO.C,J1*%
X130301393Y-103815525D03*
X130301393Y-102545525D03*
X130301393Y-101275525D03*
X129031393Y-103815525D03*
X129031393Y-102545525D03*
X129031393Y-101275525D03*
D12*
X129666393Y-105085525D03*
X130682393Y-100005525D03*
X128650393Y-100005525D03*
%TD*%
D10*
%TO.C,TP6*%
X137743750Y-106182238D03*
%TD*%
%TO.C,TP5*%
X136540550Y-106182238D03*
%TD*%
%TO.C,TP8*%
X138946950Y-107385438D03*
%TD*%
%TO.C,TP7*%
X137743750Y-107385438D03*
%TD*%
%TO.C,TP9*%
X136540550Y-107385438D03*
%TD*%
%TO.C,TP10*%
X138946950Y-106182238D03*
%TD*%
%TO.C,TP4*%
X151282998Y-109099930D03*
%TD*%
%TO.C,TP3*%
X150079798Y-109099930D03*
%TD*%
D13*
%TO.C,J6*%
X135844176Y-103280414D03*
X136494176Y-103280414D03*
X137144176Y-103280414D03*
X137794176Y-103280414D03*
X138444176Y-103280414D03*
D14*
X134719176Y-103485414D03*
X139569176Y-103485414D03*
D15*
X134419176Y-100455414D03*
X139869176Y-100455414D03*
D16*
X136181676Y-100205414D03*
X138106676Y-100205414D03*
%TD*%
D10*
%TO.C,TP14*%
X150181923Y-100385172D03*
%TD*%
%TO.C,TP13*%
X150181923Y-101588372D03*
%TD*%
%TO.C,TP12*%
X141485612Y-104881951D03*
%TD*%
%TO.C,TP11*%
X140282412Y-104881951D03*
%TD*%
D17*
X152000000Y-117500000D02*
X125750000Y-117500000D01*
X125750000Y-117500000D02*
X125750000Y-98500000D01*
X125750000Y-98500000D02*
X153250000Y-98500000D01*
X153250000Y-98500000D02*
X153250000Y-116000000D01*
X153250000Y-116000000D02*
X153000000Y-116000000D01*
X153000000Y-116000000D02*
G75*
G03*
X152000000Y-117000000I0J-1000000D01*
G01*
X152000000Y-117000000D02*
X152000000Y-117500000D01*
M02*
