%TF.GenerationSoftware,KiCad,Pcbnew,7.0.7*%
%TF.CreationDate,2024-01-11T19:31:21-08:00*%
%TF.ProjectId,beeper-design,62656570-6572-42d6-9465-7369676e2e6b,rev?*%
%TF.SameCoordinates,Original*%
%TF.FileFunction,Copper,L2,Inr*%
%TF.FilePolarity,Positive*%
%FSLAX46Y46*%
G04 Gerber Fmt 4.6, Leading zero omitted, Abs format (unit mm)*
G04 Created by KiCad (PCBNEW 7.0.7) date 2024-01-11 19:31:21*
%MOMM*%
%LPD*%
G01*
G04 APERTURE LIST*
%TA.AperFunction,ComponentPad*%
%ADD10O,0.730000X1.460000*%
%TD*%
%TA.AperFunction,ComponentPad*%
%ADD11O,1.200000X2.400000*%
%TD*%
%TA.AperFunction,ViaPad*%
%ADD12C,0.400000*%
%TD*%
%TA.AperFunction,ViaPad*%
%ADD13C,0.250000*%
%TD*%
%TA.AperFunction,Conductor*%
%ADD14C,0.075000*%
%TD*%
%TA.AperFunction,Profile*%
%ADD15C,0.050000*%
%TD*%
G04 APERTURE END LIST*
D10*
%TO.N,SHIELD*%
%TO.C,J6*%
X134719176Y-103485414D03*
X139569176Y-103485414D03*
D11*
X134419176Y-100455414D03*
X139869176Y-100455414D03*
%TD*%
D12*
%TO.N,codec-i2c-net_scl*%
X149104000Y-105433494D03*
D13*
%TO.N,mcu_mcu-wpwr1_gpio*%
X140305165Y-111160086D03*
D12*
X143822917Y-101514832D03*
D13*
%TO.N,CLAMP1*%
X146563236Y-101699687D03*
D12*
X147538753Y-104259505D03*
D13*
%TO.N,mcu_mcu-mem_sdio1*%
X143812568Y-115468836D03*
D12*
%TO.N,SHIELD*%
X136142594Y-99172710D03*
X137871349Y-99172710D03*
D13*
%TO.N,mcu_mcu-etm_data0*%
X138505165Y-111160086D03*
D12*
X137135702Y-106775555D03*
%TO.N,VBAT*%
X139561513Y-105189671D03*
D13*
%TO.N,mcu_mcu-mem_sdio2*%
X140305165Y-111610086D03*
X143812568Y-115868836D03*
D12*
%TO.N,codec-i2c-net_sda*%
X142405550Y-112118891D03*
X147306899Y-111638234D03*
%TO.N,VBUS*%
X135307597Y-102163983D03*
%TO.N,mcu_hap-gpio1_gpio*%
X134334368Y-105632680D03*
D13*
X138055165Y-111610086D03*
D12*
%TO.N,OUT+*%
X132066160Y-106806138D03*
D13*
%TO.N,mcu_mcu-mem_sck*%
X144512568Y-115868836D03*
X140305165Y-112510086D03*
%TO.N,mcu_mcu-mem_cs*%
X140755165Y-111160086D03*
X143812568Y-115068836D03*
%TO.N,mcu_mcu-mem_sdio0*%
X144162568Y-115668836D03*
X139405165Y-111160086D03*
D12*
%TO.N,mcu_hap-i2c_scl*%
X133976982Y-104745882D03*
D13*
X137605165Y-112060086D03*
D12*
%TO.N,mcu_mcu-button2_gpio*%
X142694670Y-112843262D03*
D13*
X140755165Y-111610086D03*
D12*
%TO.N,CLAMP2*%
X146170132Y-100282418D03*
D13*
X146563236Y-101299687D03*
%TO.N,mcu_mcu-wpwr0_gpio*%
X140305165Y-110710086D03*
D12*
X144600759Y-102778021D03*
D13*
%TO.N,mcu_mcu-etm_data2*%
X138955165Y-111160086D03*
D12*
X138331450Y-106815731D03*
X136249569Y-109365791D03*
D13*
%TO.N,SP_P*%
X151354476Y-106915097D03*
D12*
%TO.N,mcu_dbg-m33_swdclk*%
X127049008Y-103397477D03*
%TO.N,D-*%
X136498775Y-104496893D03*
X142800540Y-114330652D03*
%TO.N,nAD-EN*%
X145376382Y-102351168D03*
D13*
X146163236Y-101699687D03*
D12*
X139076222Y-102054708D03*
%TO.N,QVAR1*%
X130784824Y-109115470D03*
%TO.N,mcu_dbg-m33_swdio*%
X127590593Y-103948199D03*
X136132564Y-113110803D03*
D13*
%TO.N,SP_N*%
X151694476Y-107165097D03*
D12*
%TO.N,GND*%
X142992066Y-101488315D03*
D13*
X151354476Y-104415097D03*
D12*
X126240526Y-108423762D03*
X152711911Y-111192564D03*
X138465131Y-104529666D03*
X126259751Y-103538415D03*
X148605548Y-102305725D03*
X129713698Y-109601468D03*
X126259751Y-104094665D03*
D13*
X138505165Y-110260086D03*
X136705165Y-112060086D03*
X140218368Y-107384999D03*
X139405165Y-111610086D03*
D12*
X142329149Y-104880616D03*
X133897649Y-117005688D03*
D13*
X141191434Y-113867717D03*
X136407665Y-113617586D03*
D12*
X126253026Y-109467512D03*
X152778498Y-102986930D03*
X152711911Y-111784766D03*
D13*
X138505165Y-114760086D03*
D12*
X152772248Y-102455680D03*
D13*
X136705165Y-112960086D03*
D12*
X133890953Y-112656040D03*
X134419031Y-117022690D03*
D13*
X136407665Y-114967586D03*
X137155165Y-112960086D03*
D12*
X146498655Y-113498351D03*
D13*
X138955165Y-112060086D03*
D12*
X152834748Y-99255680D03*
X126246776Y-108942512D03*
X133387602Y-117000021D03*
D13*
X139405165Y-112510086D03*
D12*
X152815998Y-99780680D03*
X149165106Y-106915827D03*
X144168737Y-114869371D03*
D13*
X136857665Y-114967586D03*
D12*
X132354230Y-117002334D03*
X152790998Y-100843180D03*
D13*
X139855165Y-112510086D03*
D12*
X152772248Y-101911930D03*
X131841349Y-117005168D03*
D13*
X141655165Y-109810086D03*
X138055165Y-110260086D03*
D12*
X132872778Y-117002334D03*
D13*
X138505165Y-111610086D03*
D12*
X152803498Y-100311930D03*
X152703073Y-110618040D03*
D13*
X137757665Y-114517586D03*
D12*
X126240526Y-109992512D03*
X126246776Y-107905012D03*
X126244945Y-99856584D03*
X135461795Y-117005688D03*
X126253501Y-101950915D03*
D13*
X141655165Y-111610086D03*
D12*
X152720750Y-110052354D03*
X142647398Y-110810142D03*
X126253026Y-105798762D03*
X126258203Y-100373656D03*
X152694234Y-113720471D03*
X152711911Y-115125845D03*
X126253501Y-100894665D03*
X128251091Y-101228437D03*
D13*
X137757665Y-114967586D03*
D12*
X152694234Y-114409900D03*
X134934746Y-117017023D03*
X152772248Y-103511930D03*
D13*
X139405165Y-112060086D03*
D12*
X147316827Y-109072434D03*
X152703073Y-113075236D03*
X126272251Y-104650915D03*
X149161034Y-108872389D03*
D13*
X139855165Y-112060086D03*
D12*
X126247251Y-103000915D03*
X135697203Y-111949233D03*
D13*
X136407665Y-114067586D03*
D12*
X131401879Y-107139540D03*
X138348657Y-105724581D03*
X152729402Y-115643825D03*
X126280462Y-105271625D03*
D13*
X138955165Y-111610086D03*
D12*
X126240526Y-107373762D03*
X152772248Y-101368180D03*
X126249365Y-99335093D03*
X126253501Y-102450915D03*
X126240526Y-110517512D03*
X126253501Y-101432165D03*
X126246776Y-106317512D03*
X135228775Y-101572145D03*
X131325197Y-117003876D03*
D13*
X151354476Y-106415097D03*
D12*
X126246776Y-106836262D03*
X140846657Y-105538118D03*
X152711911Y-112421162D03*
X130804246Y-116979832D03*
D13*
%TO.N,mcu_hap-gpio0_gpio*%
X138055165Y-111160086D03*
D12*
%TO.N,VDD1P8*%
X135253660Y-106168638D03*
X149575571Y-105108471D03*
X146978728Y-100521254D03*
X135245811Y-105084379D03*
D13*
X141205165Y-110710086D03*
D12*
X130773738Y-108610382D03*
X152205282Y-106653960D03*
X145126723Y-113950183D03*
X133173574Y-104909491D03*
X137705469Y-102089296D03*
X145736583Y-111169977D03*
X129970343Y-110296899D03*
X149243195Y-106235422D03*
X133758692Y-109149897D03*
X146953008Y-102478299D03*
D13*
X140755165Y-109810086D03*
D12*
X144681473Y-108944675D03*
X128286276Y-103832108D03*
X144672634Y-108471798D03*
%TO.N,mcu_mcu-etm_data3*%
X137906777Y-108725171D03*
D13*
X139405165Y-110710086D03*
D12*
%TO.N,AC2*%
X149361022Y-100462983D03*
%TO.N,QVAR2*%
X141115303Y-116773148D03*
%TO.N,FOD*%
X145395132Y-101008981D03*
D13*
X146163236Y-101299687D03*
D12*
%TO.N,LX*%
X143543940Y-108319721D03*
D13*
%TO.N,mcu_mcu-mem_sdio3*%
X140755165Y-112510086D03*
X144512568Y-115468836D03*
D12*
%TO.N,mcu_mcu-uart_tx*%
X131099595Y-101264852D03*
D13*
X138055165Y-112060086D03*
D12*
%TO.N,cap_p1*%
X149451016Y-101838435D03*
D13*
%TO.N,mcu_mcu-etm_clk*%
X139855165Y-110710086D03*
D12*
X136813812Y-105468849D03*
D13*
%TO.N,mcu_mcu-uart_rx*%
X138505165Y-112060086D03*
D12*
X128307419Y-102542244D03*
%TO.N,VDD_IO*%
X152536167Y-107037869D03*
X149775319Y-108083497D03*
%TO.N,OUT-*%
X132078660Y-105549888D03*
D13*
%TO.N,RECT*%
X147363236Y-101299687D03*
D12*
X147432192Y-100388488D03*
%TO.N,board-io_rgb_r*%
X139570173Y-108951200D03*
X142899067Y-104366671D03*
%TO.N,mcu_q-spi_sdi*%
X132328370Y-107500892D03*
X136085542Y-110946589D03*
%TO.N,mcu_hap-i2c_sda*%
X137982440Y-109241617D03*
X138776380Y-109309812D03*
%TO.N,mcu_mcu-wpwr2_gpio*%
X146062497Y-102528897D03*
D13*
X140755165Y-110710086D03*
D12*
%TO.N,D+*%
X142306465Y-114008336D03*
X137170614Y-104537859D03*
%TO.N,mcu_mcu-wpwr3_gpio*%
X145245596Y-100348780D03*
D13*
X139855165Y-111160086D03*
D12*
%TO.N,mcu_mcu-etm_data1*%
X138610093Y-108833959D03*
D13*
X138955165Y-110710086D03*
D12*
%TO.N,V14RF*%
X143452612Y-109789874D03*
X139386679Y-116595891D03*
%TD*%
D14*
%TO.N,CLAMP1*%
X146563236Y-101699687D02*
X146653657Y-102489671D01*
X146653661Y-102489671D02*
G75*
G03*
X146654930Y-102497808I99039J11271D01*
G01*
X146654929Y-102497808D02*
X146670153Y-102574345D01*
X146670150Y-102574346D02*
G75*
G03*
X146679440Y-102600837I98150J19546D01*
G01*
X146679440Y-102600837D02*
X147538753Y-104259505D01*
%TO.N,SHIELD*%
X134419176Y-100455414D02*
X139869176Y-100455414D01*
%TO.N,codec-i2c-net_sda*%
X142405550Y-112118891D02*
X147306899Y-111638234D01*
%TO.N,CLAMP2*%
X146563236Y-101299687D02*
X146170132Y-100282418D01*
%TO.N,mcu_mcu-wpwr0_gpio*%
X144600759Y-102778021D02*
X140959697Y-109903424D01*
X140953795Y-109913477D02*
G75*
G03*
X140959696Y-109903424I-82995J55477D01*
G01*
X140953797Y-109913478D02*
X140926700Y-109954031D01*
X140919380Y-109963677D02*
G75*
G03*
X140926699Y-109954031I-75880J65177D01*
G01*
X140919376Y-109963673D02*
X140486698Y-110466849D01*
X140486698Y-110466849D02*
G75*
G03*
X140476161Y-110480022I180602J-155251D01*
G01*
X140476161Y-110480022D02*
X140305165Y-110710086D01*
%TO.N,mcu_mcu-etm_data2*%
X138331450Y-106815731D02*
X137449197Y-104426680D01*
X137449194Y-104426681D02*
G75*
G03*
X137438537Y-104405765I-93794J-34619D01*
G01*
X137438537Y-104405765D02*
X137395182Y-104340881D01*
X137395188Y-104340877D02*
G75*
G03*
X137367592Y-104313291I-83088J-55523D01*
G01*
X137367592Y-104313291D02*
X137302707Y-104269936D01*
X137302718Y-104269919D02*
G75*
G03*
X137266659Y-104255004I-55518J-83181D01*
G01*
X137266659Y-104255004D02*
X137190123Y-104239780D01*
X137190123Y-104239780D02*
G75*
G03*
X137176700Y-104238045I-19523J-98220D01*
G01*
X137176700Y-104238044D02*
X136504862Y-104197079D01*
X136504862Y-104197071D02*
G75*
G03*
X136479266Y-104198815I-6062J-99729D01*
G01*
X136479266Y-104198815D02*
X136402730Y-104214039D01*
X136402732Y-104214050D02*
G75*
G03*
X136366682Y-104228970I19468J-98050D01*
G01*
X136366682Y-104228970D02*
X136301797Y-104272325D01*
X136301810Y-104272344D02*
G75*
G03*
X136274208Y-104299915I55490J-83156D01*
G01*
X136274207Y-104299915D02*
X136230852Y-104364799D01*
X136230866Y-104364808D02*
G75*
G03*
X136215921Y-104400847I83134J-55592D01*
G01*
X136215921Y-104400847D02*
X136200697Y-104477384D01*
X136200700Y-104477385D02*
G75*
G03*
X136198781Y-104497936I98000J-19515D01*
G01*
X136198781Y-104497936D02*
X136249569Y-109365791D01*
%TO.N,D-*%
X142800540Y-114330652D02*
X142301974Y-114308235D01*
X142286957Y-114306408D02*
G75*
G03*
X142301974Y-114308234I19543J98008D01*
G01*
X142286956Y-114306414D02*
X142210420Y-114291190D01*
X142174366Y-114276268D02*
G75*
G03*
X142210420Y-114291189I55534J83168D01*
G01*
X142174372Y-114276259D02*
X142109487Y-114232904D01*
X142108063Y-114231935D02*
G75*
G03*
X142109487Y-114232904I66037J95535D01*
G01*
X142108063Y-114231935D02*
X141336804Y-113697151D01*
X141336804Y-113697151D02*
G75*
G03*
X141335379Y-113696183I-52604J-75849D01*
G01*
X141335380Y-113696182D02*
X141294827Y-113669085D01*
X141294825Y-113669089D02*
G75*
G03*
X141282598Y-113662107I-55625J-83211D01*
G01*
X141282598Y-113662106D02*
X139314001Y-112715697D01*
X139312608Y-112715013D02*
G75*
G03*
X139314001Y-112715696I46292J92613D01*
G01*
X139312608Y-112715014D02*
X138412608Y-112265014D01*
X138401775Y-112258713D02*
G75*
G03*
X138412608Y-112265013I55525J83013D01*
G01*
X138401772Y-112258718D02*
X138361219Y-112231621D01*
X138333641Y-112204023D02*
G75*
G03*
X138361219Y-112231620I83159J55523D01*
G01*
X138333629Y-112204031D02*
X138306533Y-112163478D01*
X138291597Y-112127431D02*
G75*
G03*
X138306533Y-112163478I98103J19531D01*
G01*
X138291601Y-112127430D02*
X138282086Y-112079595D01*
X138280167Y-112060086D02*
G75*
G03*
X138282087Y-112079595I99933J-14D01*
G01*
X138280165Y-112060086D02*
X138280165Y-111610086D01*
X138280165Y-111610086D02*
G75*
G03*
X138278242Y-111590577I-100065J-14D01*
G01*
X138278243Y-111590577D02*
X138268728Y-111542741D01*
X138268718Y-111542743D02*
G75*
G03*
X138253796Y-111506693I-98018J-19457D01*
G01*
X138253797Y-111506693D02*
X138226700Y-111466140D01*
X138226710Y-111466133D02*
G75*
G03*
X138199110Y-111438551I-83110J-55567D01*
G01*
X138199110Y-111438551D02*
X138158557Y-111411454D01*
X138158557Y-111411454D02*
G75*
G03*
X138119683Y-111396002I-55557J-83146D01*
G01*
X138119683Y-111396002D02*
X137990647Y-111374169D01*
X137951769Y-111358722D02*
G75*
G03*
X137990647Y-111374168I55531J83122D01*
G01*
X137951772Y-111358718D02*
X137911219Y-111331621D01*
X137883641Y-111304023D02*
G75*
G03*
X137911219Y-111331620I83159J55523D01*
G01*
X137883629Y-111304031D02*
X137856533Y-111263478D01*
X137842252Y-111230472D02*
G75*
G03*
X137856533Y-111263478I97448J22572D01*
G01*
X137842255Y-111230471D02*
X136531612Y-105567936D01*
X136530959Y-105564895D02*
G75*
G03*
X136531612Y-105567936I96741J19195D01*
G01*
X136530958Y-105564895D02*
X136515734Y-105488358D01*
X136513818Y-105470395D02*
G75*
G03*
X136515734Y-105488358I100082J1595D01*
G01*
X136513824Y-105470395D02*
X136498775Y-104496893D01*
%TO.N,nAD-EN*%
X146163236Y-101699687D02*
X145376382Y-102351168D01*
%TO.N,mcu_dbg-m33_swdio*%
X136132564Y-113110803D02*
X127590593Y-103948199D01*
%TO.N,FOD*%
X146163236Y-101299687D02*
X145395132Y-101008981D01*
%TO.N,VDD_IO*%
X149775319Y-108083497D02*
X151775703Y-107374842D01*
X151775703Y-107374841D02*
G75*
G03*
X151782856Y-107371993I-33303J94041D01*
G01*
X151782856Y-107371994D02*
X152536167Y-107037869D01*
%TO.N,RECT*%
X147363236Y-101299687D02*
X147432192Y-100388488D01*
%TO.N,board-io_rgb_r*%
X142899067Y-104366671D02*
X142604585Y-104999351D01*
X142597067Y-105012707D02*
G75*
G03*
X142604584Y-104999351I-83167J55607D01*
G01*
X142597072Y-105012710D02*
X142553717Y-105077594D01*
X142549791Y-105083060D02*
G75*
G03*
X142553717Y-105077594I-79391J61160D01*
G01*
X142549792Y-105083061D02*
X139570173Y-108951200D01*
%TO.N,mcu_q-spi_sdi*%
X136085542Y-110946589D02*
X133629357Y-109419599D01*
X133626598Y-109417820D02*
G75*
G03*
X133629357Y-109419599I54502J81520D01*
G01*
X133626598Y-109417820D02*
X133561713Y-109374465D01*
X133534126Y-109346873D02*
G75*
G03*
X133561713Y-109374464I83174J55573D01*
G01*
X133534123Y-109346875D02*
X133490769Y-109281991D01*
X133490173Y-109281087D02*
G75*
G03*
X133490769Y-109281991I68227J44387D01*
G01*
X133490172Y-109281087D02*
X132328370Y-107500892D01*
%TO.N,mcu_hap-i2c_sda*%
X138776380Y-109309812D02*
X137982440Y-109241617D01*
%TO.N,D+*%
X137170614Y-104537859D02*
X138052866Y-106926910D01*
X138052867Y-106926910D02*
G75*
G03*
X138056026Y-106934493I93733J34610D01*
G01*
X138056026Y-106934493D02*
X138885517Y-108715196D01*
X138889268Y-108724434D02*
G75*
G03*
X138885517Y-108715196I-94668J-33066D01*
G01*
X138889271Y-108724433D02*
X139055558Y-109200286D01*
X139059241Y-109213765D02*
G75*
G03*
X139055557Y-109200286I-98341J-19635D01*
G01*
X139059234Y-109213766D02*
X139074458Y-109290303D01*
X139076101Y-109302420D02*
G75*
G03*
X139074457Y-109290303I-99901J-7380D01*
G01*
X139076106Y-109302420D02*
X139179891Y-110702694D01*
X139180164Y-110710086D02*
G75*
G03*
X139179891Y-110702694I-100564J-14D01*
G01*
X139180165Y-110710086D02*
X139180165Y-112060086D01*
X139180167Y-112060086D02*
G75*
G03*
X139182087Y-112079595I99933J-14D01*
G01*
X139182086Y-112079595D02*
X139191601Y-112127430D01*
X139191597Y-112127431D02*
G75*
G03*
X139206533Y-112163478I98103J19531D01*
G01*
X139206533Y-112163478D02*
X139233629Y-112204031D01*
X139233641Y-112204023D02*
G75*
G03*
X139261219Y-112231620I83159J55523D01*
G01*
X139261219Y-112231621D02*
X139301772Y-112258718D01*
X139301769Y-112258722D02*
G75*
G03*
X139337820Y-112273649I55531J83122D01*
G01*
X139337820Y-112273649D02*
X139385656Y-112283164D01*
X139385657Y-112283159D02*
G75*
G03*
X139405165Y-112285086I19543J98159D01*
G01*
X139405165Y-112285086D02*
X140305165Y-112285086D01*
X140324675Y-112287002D02*
G75*
G03*
X140305165Y-112285086I-19475J-97998D01*
G01*
X140324674Y-112287007D02*
X140372509Y-112296522D01*
X140408557Y-112311454D02*
G75*
G03*
X140372509Y-112296522I-55557J-83146D01*
G01*
X140408557Y-112311454D02*
X140449110Y-112338551D01*
X140476710Y-112366133D02*
G75*
G03*
X140449110Y-112338551I-83110J-55567D01*
G01*
X140476700Y-112366140D02*
X140503797Y-112406693D01*
X140519237Y-112445570D02*
G75*
G03*
X140503796Y-112406693I-98537J-16630D01*
G01*
X140519248Y-112445568D02*
X140541081Y-112574604D01*
X140541077Y-112574605D02*
G75*
G03*
X140556533Y-112613478I98623J16705D01*
G01*
X140556533Y-112613478D02*
X140583629Y-112654031D01*
X140583639Y-112654025D02*
G75*
G03*
X140605156Y-112677233I83161J55525D01*
G01*
X140605156Y-112677233D02*
X142306465Y-114008336D01*
%TO.N,mcu_mcu-wpwr3_gpio*%
X139855165Y-111160086D02*
X140207558Y-110957867D01*
X140240649Y-110946012D02*
G75*
G03*
X140207558Y-110957867I16651J-98588D01*
G01*
X140240647Y-110946002D02*
X140369683Y-110924169D01*
X140369684Y-110924173D02*
G75*
G03*
X140408556Y-110908717I-16684J98573D01*
G01*
X140408557Y-110908718D02*
X140449110Y-110881621D01*
X140449107Y-110881616D02*
G75*
G03*
X140476700Y-110854031I-55507J83116D01*
G01*
X140476700Y-110854031D02*
X140503797Y-110813478D01*
X140503783Y-110813468D02*
G75*
G03*
X140519247Y-110774604I-83083J55568D01*
G01*
X140519248Y-110774604D02*
X140541081Y-110645568D01*
X140556547Y-110606702D02*
G75*
G03*
X140541081Y-110645568I83153J-55598D01*
G01*
X140556533Y-110606693D02*
X140583629Y-110566140D01*
X140590949Y-110556494D02*
G75*
G03*
X140583629Y-110566140I76051J-65306D01*
G01*
X140590954Y-110556498D02*
X141023632Y-110053323D01*
X141023634Y-110053325D02*
G75*
G03*
X141041027Y-110030422I-180234J154925D01*
G01*
X141041027Y-110030422D02*
X141068124Y-109989869D01*
X141068127Y-109989871D02*
G75*
G03*
X141079913Y-109970237I-197427J131871D01*
G01*
X141079914Y-109970237D02*
X144873646Y-102901848D01*
X144873659Y-102901855D02*
G75*
G03*
X144883612Y-102874067I-88159J47255D01*
G01*
X144883613Y-102874067D02*
X144898837Y-102797530D01*
X144898838Y-102797530D02*
G75*
G03*
X144900167Y-102788877I-98338J19530D01*
G01*
X144900168Y-102788877D02*
X145095723Y-100998125D01*
X145097050Y-100989471D02*
G75*
G03*
X145095724Y-100998125I97850J-19429D01*
G01*
X145097053Y-100989472D02*
X145112277Y-100912935D01*
X145113041Y-100909436D02*
G75*
G03*
X145112278Y-100912935I95959J-22764D01*
G01*
X145113039Y-100909435D02*
X145245596Y-100348780D01*
%TD*%
%TA.AperFunction,Conductor*%
%TO.N,GND*%
G36*
X138757388Y-111276696D02*
G01*
X138770907Y-111290215D01*
X138792587Y-111322663D01*
X138825036Y-111344344D01*
X138867179Y-111372503D01*
X138955165Y-111390004D01*
X138983605Y-111384347D01*
X139020388Y-111391663D01*
X139041223Y-111422845D01*
X139042165Y-111432405D01*
X139042165Y-112078253D01*
X139042166Y-112078256D01*
X139042584Y-112081432D01*
X139042039Y-112081503D01*
X139042437Y-112085535D01*
X139042983Y-112085500D01*
X139043193Y-112088703D01*
X139046737Y-112106517D01*
X139049241Y-112119110D01*
X139049247Y-112119168D01*
X139052428Y-112135146D01*
X139052426Y-112135154D01*
X139059387Y-112170121D01*
X139059393Y-112170149D01*
X139059794Y-112172163D01*
X139059797Y-112172171D01*
X139060208Y-112173004D01*
X139061435Y-112175966D01*
X139069330Y-112199213D01*
X139080159Y-112221166D01*
X139081385Y-112224125D01*
X139081695Y-112225039D01*
X139082787Y-112226672D01*
X139082800Y-112226694D01*
X139086641Y-112232442D01*
X139128977Y-112295803D01*
X139129776Y-112296504D01*
X139132048Y-112298777D01*
X139148095Y-112317088D01*
X139166539Y-112333275D01*
X139168802Y-112335538D01*
X139169444Y-112336270D01*
X139185775Y-112347182D01*
X139210694Y-112363846D01*
X139215293Y-112366921D01*
X139215350Y-112366951D01*
X139238692Y-112382546D01*
X139238773Y-112382594D01*
X139240208Y-112383554D01*
X139240214Y-112383556D01*
X139241088Y-112383853D01*
X139244051Y-112385080D01*
X139266073Y-112395937D01*
X139289271Y-112403807D01*
X139292213Y-112405025D01*
X139293080Y-112405453D01*
X139294791Y-112405792D01*
X139294876Y-112405813D01*
X139295618Y-112405960D01*
X139295625Y-112405963D01*
X139309899Y-112408798D01*
X139343679Y-112415517D01*
X139376546Y-112422056D01*
X139376547Y-112422056D01*
X139376552Y-112422057D01*
X139376556Y-112422056D01*
X139379756Y-112422266D01*
X139379718Y-112422837D01*
X139383739Y-112423232D01*
X139383814Y-112422666D01*
X139386995Y-112423085D01*
X139386998Y-112423086D01*
X139387001Y-112423086D01*
X139405117Y-112423086D01*
X139436614Y-112423097D01*
X139436615Y-112423096D01*
X139442030Y-112423098D01*
X139442146Y-112423086D01*
X140032845Y-112423086D01*
X140067493Y-112437438D01*
X140081845Y-112472086D01*
X140080904Y-112481644D01*
X140075247Y-112510086D01*
X140088955Y-112579005D01*
X140092748Y-112598072D01*
X140142587Y-112672663D01*
X140152748Y-112679452D01*
X140217179Y-112722503D01*
X140305165Y-112740004D01*
X140393151Y-112722503D01*
X140400978Y-112717272D01*
X140437759Y-112709954D01*
X140468943Y-112730787D01*
X140468944Y-112730788D01*
X140478979Y-112745806D01*
X140478999Y-112745828D01*
X140484304Y-112751269D01*
X140492021Y-112760532D01*
X140492024Y-112760535D01*
X140492029Y-112760541D01*
X140500808Y-112769057D01*
X140505754Y-112774666D01*
X140505808Y-112774720D01*
X140505812Y-112774725D01*
X140520082Y-112785890D01*
X140520082Y-112785891D01*
X140534319Y-112797037D01*
X140549269Y-112808742D01*
X140549363Y-112808799D01*
X141345679Y-113431836D01*
X141364124Y-113464490D01*
X141354077Y-113500622D01*
X141321423Y-113519067D01*
X141294254Y-113514590D01*
X139374655Y-112591737D01*
X139374034Y-112591438D01*
X138885521Y-112347182D01*
X138709611Y-112259227D01*
X138685040Y-112230896D01*
X138687698Y-112193488D01*
X138690775Y-112188190D01*
X138717582Y-112148072D01*
X138735083Y-112060086D01*
X138717582Y-111972100D01*
X138695288Y-111938734D01*
X138667742Y-111897508D01*
X138593151Y-111847669D01*
X138533605Y-111835825D01*
X138505165Y-111830168D01*
X138505164Y-111830168D01*
X138476723Y-111835825D01*
X138439941Y-111828507D01*
X138419106Y-111797324D01*
X138418165Y-111787766D01*
X138418165Y-111647286D01*
X138418169Y-111647243D01*
X138418168Y-111641565D01*
X138418169Y-111641564D01*
X138418165Y-111610067D01*
X138418165Y-111602278D01*
X138418165Y-111591919D01*
X138418165Y-111591916D01*
X138417746Y-111588735D01*
X138418305Y-111588661D01*
X138417910Y-111584643D01*
X138417346Y-111584680D01*
X138417135Y-111581480D01*
X138417136Y-111581473D01*
X138400532Y-111498001D01*
X138400297Y-111497525D01*
X138400073Y-111497069D01*
X138398846Y-111494103D01*
X138393211Y-111477487D01*
X138391015Y-111471011D01*
X138380166Y-111448999D01*
X138378943Y-111446044D01*
X138377600Y-111442084D01*
X138378450Y-111441795D01*
X138376225Y-111407790D01*
X138400955Y-111379596D01*
X138432181Y-111375487D01*
X138505165Y-111390004D01*
X138593151Y-111372503D01*
X138667742Y-111322663D01*
X138689423Y-111290214D01*
X138720605Y-111269380D01*
X138757388Y-111276696D01*
G37*
%TD.AperFunction*%
%TA.AperFunction,Conductor*%
G36*
X136874817Y-104600445D02*
G01*
X136878664Y-104612645D01*
X136881758Y-104630192D01*
X136883880Y-104642224D01*
X136936864Y-104733995D01*
X136936866Y-104733998D01*
X137018045Y-104802115D01*
X137067521Y-104820122D01*
X137115752Y-104837676D01*
X137143403Y-104863012D01*
X137144960Y-104866746D01*
X137921066Y-106968367D01*
X137922896Y-106975135D01*
X137923261Y-106976297D01*
X137926377Y-106982986D01*
X137927150Y-106984842D01*
X137929705Y-106991759D01*
X137929707Y-106991762D01*
X137930284Y-106992858D01*
X137933789Y-106998899D01*
X138616158Y-108463768D01*
X138617779Y-108501236D01*
X138592432Y-108528876D01*
X138571741Y-108533459D01*
X138557107Y-108533459D01*
X138457524Y-108569702D01*
X138376345Y-108637819D01*
X138376343Y-108637822D01*
X138323359Y-108729593D01*
X138304957Y-108833959D01*
X138323359Y-108938324D01*
X138376343Y-109030095D01*
X138376344Y-109030097D01*
X138399477Y-109049507D01*
X138416794Y-109082773D01*
X138405518Y-109118540D01*
X138372252Y-109135857D01*
X138363788Y-109135864D01*
X138288856Y-109129428D01*
X138255563Y-109112164D01*
X138250618Y-109105115D01*
X138216188Y-109045479D01*
X138216187Y-109045478D01*
X138216187Y-109045477D01*
X138148181Y-108988414D01*
X138130864Y-108955149D01*
X138140058Y-108925989D01*
X138138382Y-108925022D01*
X138193510Y-108829536D01*
X138193510Y-108829535D01*
X138193511Y-108829534D01*
X138211913Y-108725171D01*
X138193511Y-108620808D01*
X138193510Y-108620806D01*
X138193510Y-108620805D01*
X138140526Y-108529034D01*
X138140524Y-108529031D01*
X138059345Y-108460914D01*
X137959763Y-108424671D01*
X137853791Y-108424671D01*
X137754208Y-108460914D01*
X137673029Y-108529031D01*
X137673027Y-108529034D01*
X137620043Y-108620805D01*
X137603973Y-108711944D01*
X137601641Y-108725171D01*
X137605563Y-108747413D01*
X137620043Y-108829536D01*
X137673027Y-108921307D01*
X137673028Y-108921309D01*
X137708651Y-108951199D01*
X137741035Y-108978373D01*
X137758352Y-109011638D01*
X137749161Y-109040800D01*
X137750835Y-109041767D01*
X137695706Y-109137251D01*
X137686979Y-109186745D01*
X137677304Y-109241617D01*
X137679082Y-109251700D01*
X137695706Y-109345982D01*
X137748690Y-109437753D01*
X137748692Y-109437756D01*
X137829871Y-109505873D01*
X137929454Y-109542117D01*
X138035426Y-109542117D01*
X138135008Y-109505873D01*
X138216188Y-109437755D01*
X138221263Y-109428963D01*
X138251015Y-109406132D01*
X138267886Y-109404642D01*
X138469963Y-109421999D01*
X138503255Y-109439263D01*
X138508204Y-109446319D01*
X138542630Y-109505948D01*
X138542632Y-109505951D01*
X138623811Y-109574068D01*
X138723394Y-109610312D01*
X138829365Y-109610312D01*
X138829366Y-109610312D01*
X138896262Y-109585964D01*
X138933728Y-109587600D01*
X138959065Y-109615250D01*
X138961886Y-109628387D01*
X139021302Y-110430021D01*
X139009551Y-110465635D01*
X138976058Y-110482509D01*
X138962878Y-110481702D01*
X138955165Y-110480168D01*
X138867178Y-110497669D01*
X138792587Y-110547508D01*
X138742748Y-110622099D01*
X138742747Y-110622100D01*
X138742748Y-110622100D01*
X138725247Y-110710086D01*
X138733276Y-110750451D01*
X138742748Y-110798072D01*
X138792587Y-110872663D01*
X138825035Y-110894344D01*
X138845871Y-110925527D01*
X138838554Y-110962309D01*
X138825035Y-110975828D01*
X138792587Y-110997508D01*
X138770907Y-111029956D01*
X138739724Y-111050792D01*
X138702942Y-111043475D01*
X138689423Y-111029956D01*
X138667742Y-110997508D01*
X138593151Y-110947669D01*
X138505165Y-110930168D01*
X138417178Y-110947669D01*
X138342587Y-110997508D01*
X138320907Y-111029956D01*
X138289724Y-111050792D01*
X138252942Y-111043475D01*
X138239423Y-111029956D01*
X138217742Y-110997508D01*
X138143151Y-110947669D01*
X138055165Y-110930168D01*
X137967179Y-110947669D01*
X137967178Y-110947669D01*
X137967176Y-110947670D01*
X137930394Y-110940353D01*
X137909880Y-110910661D01*
X137036226Y-107136103D01*
X137042395Y-107099112D01*
X137072915Y-107077317D01*
X137083964Y-107076055D01*
X137188688Y-107076055D01*
X137288270Y-107039811D01*
X137369449Y-106971694D01*
X137369451Y-106971691D01*
X137422435Y-106879920D01*
X137422435Y-106879919D01*
X137422436Y-106879918D01*
X137440838Y-106775555D01*
X137422436Y-106671192D01*
X137422435Y-106671190D01*
X137422435Y-106671189D01*
X137369451Y-106579418D01*
X137369449Y-106579415D01*
X137288270Y-106511298D01*
X137188688Y-106475055D01*
X137082716Y-106475055D01*
X136983137Y-106511297D01*
X136983134Y-106511299D01*
X136967708Y-106524243D01*
X136931941Y-106535519D01*
X136898675Y-106518202D01*
X136888474Y-106497756D01*
X136766900Y-105972500D01*
X136733778Y-105829398D01*
X136739947Y-105792406D01*
X136770467Y-105770611D01*
X136781516Y-105769349D01*
X136866798Y-105769349D01*
X136966380Y-105733105D01*
X137047559Y-105664988D01*
X137047561Y-105664985D01*
X137067972Y-105629633D01*
X137079517Y-105609635D01*
X137100545Y-105573214D01*
X137100545Y-105573213D01*
X137100546Y-105573212D01*
X137118948Y-105468849D01*
X137100546Y-105364486D01*
X137100545Y-105364484D01*
X137100545Y-105364483D01*
X137047561Y-105272712D01*
X137047559Y-105272709D01*
X136966380Y-105204592D01*
X136866798Y-105168349D01*
X136760826Y-105168349D01*
X136712494Y-105185939D01*
X136675027Y-105184303D01*
X136649691Y-105156652D01*
X136646742Y-105140654D01*
X136641370Y-104793125D01*
X136655184Y-104758261D01*
X136658848Y-104754851D01*
X136732523Y-104693031D01*
X136760118Y-104645235D01*
X136787653Y-104597543D01*
X136789612Y-104598674D01*
X136809697Y-104576751D01*
X136847164Y-104575111D01*
X136874817Y-104600445D01*
G37*
%TD.AperFunction*%
%TA.AperFunction,Conductor*%
G36*
X153055148Y-98694852D02*
G01*
X153069500Y-98729500D01*
X153069500Y-115770500D01*
X153055148Y-115805148D01*
X153020500Y-115819500D01*
X153000000Y-115819500D01*
X152907093Y-115819500D01*
X152872555Y-115824970D01*
X152723568Y-115848567D01*
X152723565Y-115848568D01*
X152546843Y-115905988D01*
X152381285Y-115990344D01*
X152230954Y-116099566D01*
X152099566Y-116230954D01*
X151990344Y-116381285D01*
X151905988Y-116546843D01*
X151848568Y-116723565D01*
X151848567Y-116723568D01*
X151819500Y-116907093D01*
X151819500Y-117270500D01*
X151805148Y-117305148D01*
X151770500Y-117319500D01*
X125979500Y-117319500D01*
X125944852Y-117305148D01*
X125930500Y-117270500D01*
X125930500Y-116595890D01*
X139081543Y-116595890D01*
X139099945Y-116700256D01*
X139152929Y-116792027D01*
X139152931Y-116792030D01*
X139234110Y-116860147D01*
X139333693Y-116896391D01*
X139439665Y-116896391D01*
X139539247Y-116860147D01*
X139620426Y-116792030D01*
X139620428Y-116792027D01*
X139631328Y-116773148D01*
X140810167Y-116773148D01*
X140828569Y-116877513D01*
X140881553Y-116969284D01*
X140881555Y-116969287D01*
X140962734Y-117037404D01*
X141062317Y-117073648D01*
X141168289Y-117073648D01*
X141267871Y-117037404D01*
X141349050Y-116969287D01*
X141349052Y-116969284D01*
X141402036Y-116877513D01*
X141402036Y-116877512D01*
X141402037Y-116877511D01*
X141420439Y-116773148D01*
X141402037Y-116668785D01*
X141402036Y-116668783D01*
X141402036Y-116668782D01*
X141349052Y-116577011D01*
X141349050Y-116577008D01*
X141267871Y-116508891D01*
X141168289Y-116472648D01*
X141062317Y-116472648D01*
X140962734Y-116508891D01*
X140881555Y-116577008D01*
X140881553Y-116577011D01*
X140828569Y-116668782D01*
X140810167Y-116773148D01*
X139631328Y-116773148D01*
X139673412Y-116700256D01*
X139673412Y-116700255D01*
X139673413Y-116700254D01*
X139691815Y-116595891D01*
X139673413Y-116491528D01*
X139673412Y-116491526D01*
X139673412Y-116491525D01*
X139620428Y-116399754D01*
X139620426Y-116399751D01*
X139539247Y-116331634D01*
X139439665Y-116295391D01*
X139333693Y-116295391D01*
X139234110Y-116331634D01*
X139152931Y-116399751D01*
X139152929Y-116399754D01*
X139099945Y-116491525D01*
X139081543Y-116595890D01*
X125930500Y-116595890D01*
X125930500Y-115868836D01*
X143582650Y-115868836D01*
X143585706Y-115884198D01*
X143600151Y-115956822D01*
X143649990Y-116031413D01*
X143699830Y-116064714D01*
X143724582Y-116081253D01*
X143812568Y-116098754D01*
X143900554Y-116081253D01*
X143975145Y-116031413D01*
X144024985Y-115956822D01*
X144031772Y-115922695D01*
X144052608Y-115891514D01*
X144089386Y-115884197D01*
X144162568Y-115898754D01*
X144235746Y-115884198D01*
X144272527Y-115891515D01*
X144293362Y-115922697D01*
X144300150Y-115956820D01*
X144349990Y-116031413D01*
X144399830Y-116064714D01*
X144424582Y-116081253D01*
X144512568Y-116098754D01*
X144600554Y-116081253D01*
X144675145Y-116031413D01*
X144724985Y-115956822D01*
X144742486Y-115868836D01*
X144724985Y-115780850D01*
X144675145Y-115706259D01*
X144675144Y-115706257D01*
X144672371Y-115703484D01*
X144658019Y-115668836D01*
X144672371Y-115634188D01*
X144675144Y-115631414D01*
X144675145Y-115631413D01*
X144724985Y-115556822D01*
X144742486Y-115468836D01*
X144724985Y-115380850D01*
X144708446Y-115356098D01*
X144675145Y-115306258D01*
X144600554Y-115256419D01*
X144512568Y-115238918D01*
X144424581Y-115256419D01*
X144349990Y-115306258D01*
X144300150Y-115380851D01*
X144293362Y-115414975D01*
X144272526Y-115446157D01*
X144235746Y-115453473D01*
X144162568Y-115438918D01*
X144162567Y-115438918D01*
X144138646Y-115443676D01*
X144089388Y-115453473D01*
X144052608Y-115446157D01*
X144031772Y-115414974D01*
X144024985Y-115380850D01*
X143975145Y-115306259D01*
X143975144Y-115306257D01*
X143972371Y-115303484D01*
X143958019Y-115268836D01*
X143972371Y-115234188D01*
X143975144Y-115231414D01*
X143975145Y-115231413D01*
X144024985Y-115156822D01*
X144042486Y-115068836D01*
X144024985Y-114980850D01*
X144008446Y-114956098D01*
X143975145Y-114906258D01*
X143900554Y-114856419D01*
X143812568Y-114838918D01*
X143724581Y-114856419D01*
X143649990Y-114906258D01*
X143600151Y-114980849D01*
X143582650Y-115068835D01*
X143600151Y-115156822D01*
X143649993Y-115231416D01*
X143652767Y-115234191D01*
X143667116Y-115268840D01*
X143652767Y-115303481D01*
X143649993Y-115306255D01*
X143600151Y-115380849D01*
X143582650Y-115468835D01*
X143600151Y-115556822D01*
X143649993Y-115631416D01*
X143652767Y-115634191D01*
X143667116Y-115668840D01*
X143652767Y-115703481D01*
X143649993Y-115706255D01*
X143600151Y-115780849D01*
X143586682Y-115848567D01*
X143582650Y-115868836D01*
X125930500Y-115868836D01*
X125930500Y-110296899D01*
X129665207Y-110296899D01*
X129683609Y-110401264D01*
X129736593Y-110493035D01*
X129736595Y-110493038D01*
X129817774Y-110561155D01*
X129917357Y-110597399D01*
X130023329Y-110597399D01*
X130122911Y-110561155D01*
X130204090Y-110493038D01*
X130204092Y-110493035D01*
X130257076Y-110401264D01*
X130257076Y-110401263D01*
X130257077Y-110401262D01*
X130275479Y-110296899D01*
X130257077Y-110192536D01*
X130257076Y-110192534D01*
X130257076Y-110192533D01*
X130204092Y-110100762D01*
X130204090Y-110100759D01*
X130122911Y-110032642D01*
X130023329Y-109996399D01*
X129917357Y-109996399D01*
X129817774Y-110032642D01*
X129736595Y-110100759D01*
X129736593Y-110100762D01*
X129683609Y-110192533D01*
X129665207Y-110296899D01*
X125930500Y-110296899D01*
X125930500Y-108610382D01*
X130468602Y-108610382D01*
X130487004Y-108714747D01*
X130539988Y-108806518D01*
X130539990Y-108806521D01*
X130568020Y-108830041D01*
X130585337Y-108863307D01*
X130574059Y-108899074D01*
X130568020Y-108905113D01*
X130551076Y-108919330D01*
X130551074Y-108919333D01*
X130498090Y-109011104D01*
X130479688Y-109115470D01*
X130498090Y-109219835D01*
X130551074Y-109311606D01*
X130551076Y-109311609D01*
X130632255Y-109379726D01*
X130731838Y-109415970D01*
X130837810Y-109415970D01*
X130937392Y-109379726D01*
X131018571Y-109311609D01*
X131018573Y-109311606D01*
X131034315Y-109284341D01*
X131058982Y-109241616D01*
X131071557Y-109219835D01*
X131071557Y-109219834D01*
X131071558Y-109219833D01*
X131089960Y-109115470D01*
X131071558Y-109011107D01*
X131071557Y-109011105D01*
X131071557Y-109011104D01*
X131018573Y-108919333D01*
X131018569Y-108919328D01*
X130990541Y-108895810D01*
X130973223Y-108862545D01*
X130984501Y-108826778D01*
X130990542Y-108820737D01*
X131007486Y-108806520D01*
X131041611Y-108747413D01*
X131060471Y-108714747D01*
X131060471Y-108714746D01*
X131060472Y-108714745D01*
X131078874Y-108610382D01*
X131060472Y-108506019D01*
X131060471Y-108506017D01*
X131060471Y-108506016D01*
X131007487Y-108414245D01*
X131007485Y-108414242D01*
X130926306Y-108346125D01*
X130826724Y-108309882D01*
X130720752Y-108309882D01*
X130621169Y-108346125D01*
X130539990Y-108414242D01*
X130539988Y-108414245D01*
X130487004Y-108506016D01*
X130468602Y-108610382D01*
X125930500Y-108610382D01*
X125930500Y-103948199D01*
X127285457Y-103948199D01*
X127303859Y-104052564D01*
X127356843Y-104144335D01*
X127356845Y-104144338D01*
X127438024Y-104212455D01*
X127537607Y-104248699D01*
X127643578Y-104248699D01*
X127643579Y-104248699D01*
X127643579Y-104248698D01*
X127647803Y-104247954D01*
X127648095Y-104249611D01*
X127679282Y-104250957D01*
X127694436Y-104261963D01*
X135698784Y-112847882D01*
X135829296Y-112987876D01*
X135842425Y-113023006D01*
X135841711Y-113029797D01*
X135827428Y-113110802D01*
X135845830Y-113215168D01*
X135898814Y-113306939D01*
X135898816Y-113306942D01*
X135979995Y-113375059D01*
X136079578Y-113411303D01*
X136185550Y-113411303D01*
X136285132Y-113375059D01*
X136366311Y-113306942D01*
X136366313Y-113306939D01*
X136419297Y-113215168D01*
X136419297Y-113215167D01*
X136419298Y-113215166D01*
X136437700Y-113110803D01*
X136419298Y-113006440D01*
X136419297Y-113006438D01*
X136419297Y-113006437D01*
X136366313Y-112914666D01*
X136366311Y-112914663D01*
X136285132Y-112846546D01*
X136185550Y-112810303D01*
X136079578Y-112810303D01*
X136079577Y-112810303D01*
X136075358Y-112811047D01*
X136075067Y-112809399D01*
X136043839Y-112808027D01*
X136028719Y-112797037D01*
X135983301Y-112748319D01*
X131091310Y-107500892D01*
X132023234Y-107500892D01*
X132041636Y-107605257D01*
X132094620Y-107697028D01*
X132094622Y-107697031D01*
X132175801Y-107765148D01*
X132275384Y-107801392D01*
X132333163Y-107801392D01*
X132367811Y-107815744D01*
X132374197Y-107823612D01*
X133364451Y-109340951D01*
X133365897Y-109343485D01*
X133365923Y-109343538D01*
X133365932Y-109343551D01*
X133365933Y-109343554D01*
X133367591Y-109346035D01*
X133375293Y-109357563D01*
X133384536Y-109371725D01*
X133384570Y-109371764D01*
X133386346Y-109374106D01*
X133404969Y-109401976D01*
X133429473Y-109438649D01*
X133430220Y-109439304D01*
X133432482Y-109441567D01*
X133448611Y-109459961D01*
X133448612Y-109459962D01*
X133448613Y-109459963D01*
X133467032Y-109476119D01*
X133469297Y-109478383D01*
X133469939Y-109479115D01*
X133486614Y-109490257D01*
X133511214Y-109506699D01*
X133511216Y-109506699D01*
X133516096Y-109509960D01*
X133516124Y-109509975D01*
X133536372Y-109523504D01*
X133538300Y-109524934D01*
X133541066Y-109527203D01*
X133541068Y-109527205D01*
X133553183Y-109534737D01*
X133565035Y-109542656D01*
X133565044Y-109542659D01*
X133568228Y-109544229D01*
X133570333Y-109545399D01*
X134363765Y-110038669D01*
X135757277Y-110905003D01*
X135779125Y-110935485D01*
X135780395Y-110946528D01*
X135798808Y-111050954D01*
X135851792Y-111142725D01*
X135851794Y-111142728D01*
X135932973Y-111210845D01*
X136032556Y-111247089D01*
X136138528Y-111247089D01*
X136238110Y-111210845D01*
X136319289Y-111142728D01*
X136319291Y-111142725D01*
X136372275Y-111050954D01*
X136372275Y-111050953D01*
X136372276Y-111050952D01*
X136390678Y-110946589D01*
X136372276Y-110842226D01*
X136372275Y-110842224D01*
X136372275Y-110842223D01*
X136319291Y-110750452D01*
X136319289Y-110750449D01*
X136238110Y-110682332D01*
X136138528Y-110646089D01*
X136032556Y-110646089D01*
X135948354Y-110676734D01*
X135910887Y-110675098D01*
X135905725Y-110672303D01*
X133956210Y-109460306D01*
X133934362Y-109429824D01*
X133940467Y-109392821D01*
X133950583Y-109381156D01*
X133968895Y-109365791D01*
X135944433Y-109365791D01*
X135945899Y-109374106D01*
X135962835Y-109470156D01*
X136015819Y-109561927D01*
X136015821Y-109561930D01*
X136097000Y-109630047D01*
X136196583Y-109666291D01*
X136302555Y-109666291D01*
X136402137Y-109630047D01*
X136483316Y-109561930D01*
X136483318Y-109561927D01*
X136492861Y-109545399D01*
X136525206Y-109489374D01*
X136536302Y-109470156D01*
X136536302Y-109470155D01*
X136536303Y-109470154D01*
X136554705Y-109365791D01*
X136536303Y-109261428D01*
X136536302Y-109261426D01*
X136536302Y-109261425D01*
X136483318Y-109169654D01*
X136483314Y-109169649D01*
X136401931Y-109101362D01*
X136384614Y-109068097D01*
X136384431Y-109064360D01*
X136350660Y-105827626D01*
X136364649Y-105792833D01*
X136399146Y-105778121D01*
X136433942Y-105792110D01*
X136447395Y-105816069D01*
X137699578Y-111226030D01*
X137699584Y-111226081D01*
X137703535Y-111243136D01*
X137703533Y-111243144D01*
X137703536Y-111243144D01*
X137711215Y-111276319D01*
X137711248Y-111276447D01*
X137711905Y-111279288D01*
X137712605Y-111280602D01*
X137714009Y-111283759D01*
X137720846Y-111302598D01*
X137729872Y-111320428D01*
X137731213Y-111323619D01*
X137731696Y-111325041D01*
X137733292Y-111327430D01*
X137733344Y-111327513D01*
X137740985Y-111338943D01*
X137778977Y-111395803D01*
X137779776Y-111396504D01*
X137782048Y-111398777D01*
X137798095Y-111417088D01*
X137816539Y-111433275D01*
X137818802Y-111435538D01*
X137819444Y-111436270D01*
X137834072Y-111446044D01*
X137834461Y-111446304D01*
X137855297Y-111477487D01*
X137847981Y-111514267D01*
X137842749Y-111522097D01*
X137842748Y-111522099D01*
X137825247Y-111610086D01*
X137842748Y-111698072D01*
X137892587Y-111772663D01*
X137925035Y-111794344D01*
X137945871Y-111825527D01*
X137938554Y-111862309D01*
X137925035Y-111875828D01*
X137892587Y-111897508D01*
X137870907Y-111929956D01*
X137839724Y-111950792D01*
X137802942Y-111943475D01*
X137789423Y-111929956D01*
X137767742Y-111897508D01*
X137693151Y-111847669D01*
X137633605Y-111835825D01*
X137605165Y-111830168D01*
X137605164Y-111830168D01*
X137517178Y-111847669D01*
X137442587Y-111897508D01*
X137392748Y-111972099D01*
X137375247Y-112060086D01*
X137392748Y-112148072D01*
X137442587Y-112222663D01*
X137466867Y-112238886D01*
X137517179Y-112272503D01*
X137605165Y-112290004D01*
X137693151Y-112272503D01*
X137767742Y-112222663D01*
X137789423Y-112190214D01*
X137820605Y-112169380D01*
X137857388Y-112176696D01*
X137870907Y-112190215D01*
X137892587Y-112222663D01*
X137916867Y-112238886D01*
X137967179Y-112272503D01*
X138055165Y-112290004D01*
X138143151Y-112272503D01*
X138146861Y-112270023D01*
X138150980Y-112267272D01*
X138187762Y-112259954D01*
X138218945Y-112280789D01*
X138218946Y-112280790D01*
X138228977Y-112295803D01*
X138229776Y-112296504D01*
X138232048Y-112298777D01*
X138248095Y-112317088D01*
X138266539Y-112333275D01*
X138268802Y-112335538D01*
X138269444Y-112336270D01*
X138285775Y-112347182D01*
X138286262Y-112347508D01*
X138315390Y-112366986D01*
X138315488Y-112367036D01*
X138331034Y-112377424D01*
X138333677Y-112379463D01*
X138334643Y-112380320D01*
X138336145Y-112381071D01*
X138338796Y-112382610D01*
X138340208Y-112383554D01*
X138341436Y-112383970D01*
X138344515Y-112385255D01*
X138347298Y-112386647D01*
X138384064Y-112405044D01*
X138384162Y-112405079D01*
X138868247Y-112647122D01*
X139217809Y-112821903D01*
X139217856Y-112821933D01*
X139234738Y-112830370D01*
X139237204Y-112831786D01*
X139237830Y-112832195D01*
X139237835Y-112832199D01*
X139252512Y-112839255D01*
X139267142Y-112846570D01*
X139267153Y-112846572D01*
X139267811Y-112846800D01*
X139270436Y-112847880D01*
X139282540Y-112853705D01*
X139282540Y-112853704D01*
X139287838Y-112856254D01*
X139287951Y-112856292D01*
X139648854Y-113029797D01*
X141218822Y-113784564D01*
X141221826Y-113786279D01*
X141227955Y-113790376D01*
X141228287Y-113790656D01*
X141251395Y-113806050D01*
X141258499Y-113810783D01*
X141284041Y-113828499D01*
X141288896Y-113831866D01*
X141288929Y-113831884D01*
X141999042Y-114324270D01*
X141999412Y-114324593D01*
X142014872Y-114335278D01*
X142017104Y-114337020D01*
X142017713Y-114337554D01*
X142031094Y-114346495D01*
X142037726Y-114351093D01*
X142044358Y-114355692D01*
X142044361Y-114355693D01*
X142045158Y-114356104D01*
X142047583Y-114357533D01*
X142063397Y-114368122D01*
X142063676Y-114368265D01*
X142067238Y-114370646D01*
X142067322Y-114370715D01*
X142071543Y-114373533D01*
X142071544Y-114373534D01*
X142082320Y-114380729D01*
X142082340Y-114380756D01*
X142111337Y-114400120D01*
X142111518Y-114400232D01*
X142112807Y-114401094D01*
X142112808Y-114401094D01*
X142112809Y-114401095D01*
X142113639Y-114401376D01*
X142116596Y-114402599D01*
X142138692Y-114413488D01*
X142161857Y-114421344D01*
X142164826Y-114422573D01*
X142165680Y-114422994D01*
X142166334Y-114423124D01*
X142166361Y-114423140D01*
X142185536Y-114426943D01*
X142258565Y-114441470D01*
X142276237Y-114444994D01*
X142276736Y-114445122D01*
X142277613Y-114445275D01*
X142277627Y-114445280D01*
X142277641Y-114445280D01*
X142277741Y-114445298D01*
X142277845Y-114445304D01*
X142277851Y-114445306D01*
X142277856Y-114445305D01*
X142278765Y-114445365D01*
X142279374Y-114445358D01*
X142297514Y-114446174D01*
X142327190Y-114447520D01*
X142327190Y-114447519D01*
X142332951Y-114447781D01*
X142333068Y-114447772D01*
X142499370Y-114455249D01*
X142533339Y-114471143D01*
X142539604Y-114479700D01*
X142566790Y-114526788D01*
X142566792Y-114526791D01*
X142647971Y-114594908D01*
X142747554Y-114631152D01*
X142853526Y-114631152D01*
X142953108Y-114594908D01*
X143034287Y-114526791D01*
X143034289Y-114526788D01*
X143087273Y-114435017D01*
X143087273Y-114435016D01*
X143087274Y-114435015D01*
X143105676Y-114330652D01*
X143087274Y-114226289D01*
X143087273Y-114226287D01*
X143087273Y-114226286D01*
X143034289Y-114134515D01*
X143034287Y-114134512D01*
X142953108Y-114066395D01*
X142853526Y-114030152D01*
X142747554Y-114030152D01*
X142677359Y-114055700D01*
X142639892Y-114054064D01*
X142614556Y-114026413D01*
X142611601Y-114009655D01*
X142611601Y-114008338D01*
X142611601Y-114008336D01*
X142601347Y-113950182D01*
X144821587Y-113950182D01*
X144839989Y-114054548D01*
X144892973Y-114146319D01*
X144892975Y-114146322D01*
X144974154Y-114214439D01*
X145073737Y-114250683D01*
X145179709Y-114250683D01*
X145279291Y-114214439D01*
X145360470Y-114146322D01*
X145360472Y-114146319D01*
X145413456Y-114054548D01*
X145413456Y-114054547D01*
X145413457Y-114054546D01*
X145431859Y-113950183D01*
X145413457Y-113845820D01*
X145413456Y-113845818D01*
X145413456Y-113845817D01*
X145360472Y-113754046D01*
X145360470Y-113754043D01*
X145279291Y-113685926D01*
X145179709Y-113649683D01*
X145073737Y-113649683D01*
X144974154Y-113685926D01*
X144892975Y-113754043D01*
X144892973Y-113754046D01*
X144839989Y-113845817D01*
X144821587Y-113950182D01*
X142601347Y-113950182D01*
X142593199Y-113903973D01*
X142593198Y-113903971D01*
X142593198Y-113903970D01*
X142540214Y-113812199D01*
X142540212Y-113812196D01*
X142459033Y-113744079D01*
X142359451Y-113707836D01*
X142253479Y-113707836D01*
X142205899Y-113725152D01*
X142168431Y-113723515D01*
X142158947Y-113717699D01*
X142118337Y-113685926D01*
X141249869Y-113006437D01*
X141041312Y-112843262D01*
X142389534Y-112843262D01*
X142407936Y-112947627D01*
X142460920Y-113039398D01*
X142460922Y-113039401D01*
X142542101Y-113107518D01*
X142641684Y-113143762D01*
X142747656Y-113143762D01*
X142847238Y-113107518D01*
X142928417Y-113039401D01*
X142928419Y-113039398D01*
X142981403Y-112947627D01*
X142981403Y-112947626D01*
X142981404Y-112947625D01*
X142999806Y-112843262D01*
X142981404Y-112738899D01*
X142981403Y-112738897D01*
X142981403Y-112738896D01*
X142928419Y-112647125D01*
X142928417Y-112647122D01*
X142847238Y-112579005D01*
X142747656Y-112542762D01*
X142641684Y-112542762D01*
X142542101Y-112579005D01*
X142460922Y-112647122D01*
X142460920Y-112647125D01*
X142407936Y-112738896D01*
X142389534Y-112843262D01*
X141041312Y-112843262D01*
X140919860Y-112748238D01*
X140901415Y-112715584D01*
X140911462Y-112679452D01*
X140915412Y-112674992D01*
X140917738Y-112672665D01*
X140917742Y-112672663D01*
X140967582Y-112598072D01*
X140985083Y-112510086D01*
X140967582Y-112422100D01*
X140950102Y-112395939D01*
X140917742Y-112347508D01*
X140843151Y-112297669D01*
X140755165Y-112280168D01*
X140667179Y-112297669D01*
X140667178Y-112297669D01*
X140667176Y-112297670D01*
X140659356Y-112302895D01*
X140622573Y-112310210D01*
X140591400Y-112289385D01*
X140582383Y-112275898D01*
X140582235Y-112275690D01*
X140581348Y-112274363D01*
X140580688Y-112273784D01*
X140578430Y-112271526D01*
X140562182Y-112253012D01*
X140562179Y-112253009D01*
X140562177Y-112253007D01*
X140550140Y-112242458D01*
X140548377Y-112238886D01*
X140526253Y-112224125D01*
X140525732Y-112223777D01*
X140525733Y-112223777D01*
X140524516Y-112222965D01*
X140511416Y-112214211D01*
X140488970Y-112199213D01*
X140487197Y-112198028D01*
X140482197Y-112194688D01*
X140471567Y-112187584D01*
X140471549Y-112187573D01*
X140470121Y-112186619D01*
X140470112Y-112186614D01*
X140469203Y-112186306D01*
X140466247Y-112185081D01*
X140444271Y-112174244D01*
X140421072Y-112166369D01*
X140418110Y-112165142D01*
X140417251Y-112164718D01*
X140416000Y-112164469D01*
X140414731Y-112164217D01*
X140411233Y-112163521D01*
X140388258Y-112158950D01*
X140388208Y-112158934D01*
X140368773Y-112155071D01*
X140368759Y-112155063D01*
X140351573Y-112151649D01*
X140343927Y-112150130D01*
X140343922Y-112150129D01*
X140343644Y-112150074D01*
X140343582Y-112150063D01*
X140333777Y-112148113D01*
X140330575Y-112147904D01*
X140330611Y-112147353D01*
X140326585Y-112146956D01*
X140326514Y-112147504D01*
X140323336Y-112147086D01*
X140323332Y-112147086D01*
X140312964Y-112147086D01*
X140312916Y-112147084D01*
X140312912Y-112147084D01*
X140312908Y-112147084D01*
X140305117Y-112147086D01*
X139413745Y-112147086D01*
X139404172Y-112146141D01*
X139400720Y-112145454D01*
X139400658Y-112145435D01*
X139385722Y-112142468D01*
X139381688Y-112141665D01*
X139364040Y-112134352D01*
X139352292Y-112126503D01*
X139344683Y-112118891D01*
X142100414Y-112118891D01*
X142118816Y-112223256D01*
X142171800Y-112315027D01*
X142171802Y-112315030D01*
X142252981Y-112383147D01*
X142352564Y-112419391D01*
X142458536Y-112419391D01*
X142558118Y-112383147D01*
X142639298Y-112315029D01*
X142675910Y-112251611D01*
X142705662Y-112228782D01*
X142713559Y-112227346D01*
X147022842Y-111804752D01*
X147058725Y-111815654D01*
X147070059Y-111829017D01*
X147073149Y-111834370D01*
X147073151Y-111834372D01*
X147154331Y-111902490D01*
X147253913Y-111938734D01*
X147359885Y-111938734D01*
X147459467Y-111902490D01*
X147540646Y-111834373D01*
X147540648Y-111834371D01*
X147567555Y-111787766D01*
X147593632Y-111742599D01*
X147593632Y-111742598D01*
X147593633Y-111742597D01*
X147612035Y-111638234D01*
X147593633Y-111533871D01*
X147593632Y-111533869D01*
X147593632Y-111533868D01*
X147540648Y-111442097D01*
X147540646Y-111442094D01*
X147459467Y-111373977D01*
X147359885Y-111337734D01*
X147253913Y-111337734D01*
X147154330Y-111373977D01*
X147073151Y-111442094D01*
X147073149Y-111442097D01*
X147036537Y-111505511D01*
X147006784Y-111528341D01*
X146998884Y-111529777D01*
X142689606Y-111952371D01*
X142653723Y-111941469D01*
X142642389Y-111928106D01*
X142639298Y-111922752D01*
X142639297Y-111922751D01*
X142558118Y-111854634D01*
X142458536Y-111818391D01*
X142352564Y-111818391D01*
X142252981Y-111854634D01*
X142171802Y-111922751D01*
X142171800Y-111922754D01*
X142118816Y-112014525D01*
X142100414Y-112118891D01*
X139344683Y-112118891D01*
X139338761Y-112112967D01*
X139330873Y-112101152D01*
X139323567Y-112083506D01*
X139323169Y-112081503D01*
X139319106Y-112061079D01*
X139318165Y-112051525D01*
X139318169Y-112028608D01*
X139318168Y-112028606D01*
X139318169Y-112023495D01*
X139318165Y-112023447D01*
X139318165Y-111432405D01*
X139332517Y-111397757D01*
X139367165Y-111383405D01*
X139376724Y-111384346D01*
X139405165Y-111390004D01*
X139493151Y-111372503D01*
X139567742Y-111322663D01*
X139589423Y-111290214D01*
X139620605Y-111269380D01*
X139657388Y-111276696D01*
X139670907Y-111290215D01*
X139692587Y-111322663D01*
X139725036Y-111344344D01*
X139767179Y-111372503D01*
X139855165Y-111390004D01*
X139943151Y-111372503D01*
X140017742Y-111322663D01*
X140039423Y-111290214D01*
X140070605Y-111269380D01*
X140107388Y-111276696D01*
X140120907Y-111290215D01*
X140142587Y-111322663D01*
X140175035Y-111344344D01*
X140195871Y-111375527D01*
X140188554Y-111412309D01*
X140175035Y-111425828D01*
X140142587Y-111447508D01*
X140092748Y-111522099D01*
X140075247Y-111610085D01*
X140092748Y-111698072D01*
X140142587Y-111772663D01*
X140165191Y-111787766D01*
X140217179Y-111822503D01*
X140305165Y-111840004D01*
X140393151Y-111822503D01*
X140467742Y-111772663D01*
X140489423Y-111740214D01*
X140520605Y-111719380D01*
X140557388Y-111726696D01*
X140570907Y-111740215D01*
X140592587Y-111772663D01*
X140615191Y-111787766D01*
X140667179Y-111822503D01*
X140755165Y-111840004D01*
X140843151Y-111822503D01*
X140917742Y-111772663D01*
X140967582Y-111698072D01*
X140985083Y-111610086D01*
X140967582Y-111522100D01*
X140948455Y-111493475D01*
X140917742Y-111447508D01*
X140885294Y-111425828D01*
X140864459Y-111394646D01*
X140871775Y-111357863D01*
X140885294Y-111344344D01*
X140917742Y-111322663D01*
X140931965Y-111301376D01*
X140967582Y-111248072D01*
X140983116Y-111169977D01*
X145431447Y-111169977D01*
X145449849Y-111274342D01*
X145502833Y-111366113D01*
X145502835Y-111366116D01*
X145584014Y-111434233D01*
X145683597Y-111470477D01*
X145789569Y-111470477D01*
X145889151Y-111434233D01*
X145970330Y-111366116D01*
X145970332Y-111366113D01*
X146023316Y-111274342D01*
X146023316Y-111274341D01*
X146023317Y-111274340D01*
X146041719Y-111169977D01*
X146023317Y-111065614D01*
X146023316Y-111065612D01*
X146023316Y-111065611D01*
X145970332Y-110973840D01*
X145970330Y-110973837D01*
X145889151Y-110905720D01*
X145789569Y-110869477D01*
X145683597Y-110869477D01*
X145584014Y-110905720D01*
X145502835Y-110973837D01*
X145502833Y-110973840D01*
X145449849Y-111065611D01*
X145431447Y-111169977D01*
X140983116Y-111169977D01*
X140985083Y-111160086D01*
X140967582Y-111072100D01*
X140948455Y-111043475D01*
X140917742Y-110997508D01*
X140885294Y-110975828D01*
X140864459Y-110944646D01*
X140871775Y-110907863D01*
X140885294Y-110894344D01*
X140917742Y-110872663D01*
X140939423Y-110840215D01*
X140970605Y-110819380D01*
X141007388Y-110826696D01*
X141020907Y-110840215D01*
X141042587Y-110872663D01*
X141068605Y-110890047D01*
X141117179Y-110922503D01*
X141205165Y-110940004D01*
X141293151Y-110922503D01*
X141367742Y-110872663D01*
X141417582Y-110798072D01*
X141435083Y-110710086D01*
X141417582Y-110622100D01*
X141398455Y-110593475D01*
X141367742Y-110547508D01*
X141293151Y-110497669D01*
X141276404Y-110494338D01*
X141205165Y-110480168D01*
X141205164Y-110480168D01*
X141117178Y-110497669D01*
X141042587Y-110547508D01*
X141020907Y-110579956D01*
X140989724Y-110600792D01*
X140952942Y-110593475D01*
X140939423Y-110579956D01*
X140917742Y-110547508D01*
X140876702Y-110520086D01*
X140855866Y-110488903D01*
X140863183Y-110452121D01*
X140866763Y-110447407D01*
X141103575Y-110172010D01*
X141103624Y-110171967D01*
X141114341Y-110159500D01*
X141114351Y-110159494D01*
X141133050Y-110137739D01*
X141133058Y-110137728D01*
X141133228Y-110137531D01*
X141133251Y-110137501D01*
X141140112Y-110129523D01*
X141140116Y-110129513D01*
X141141692Y-110127106D01*
X141143786Y-110124351D01*
X141145673Y-110122199D01*
X141145676Y-110122197D01*
X141162069Y-110097662D01*
X141162103Y-110097623D01*
X141165383Y-110092712D01*
X141165384Y-110092712D01*
X141171609Y-110083391D01*
X141171616Y-110083386D01*
X141171615Y-110083386D01*
X141182882Y-110066521D01*
X141182884Y-110066519D01*
X141186266Y-110061456D01*
X141186310Y-110061385D01*
X141191157Y-110054130D01*
X141192852Y-110051592D01*
X141192912Y-110051509D01*
X141192916Y-110051506D01*
X141192918Y-110051501D01*
X141192936Y-110051477D01*
X141192952Y-110051443D01*
X141192960Y-110051433D01*
X141192963Y-110051420D01*
X141192999Y-110051349D01*
X141198501Y-110041097D01*
X141198528Y-110041050D01*
X141198661Y-110040802D01*
X141198665Y-110040796D01*
X141199805Y-110038670D01*
X141203041Y-110032642D01*
X141333339Y-109789874D01*
X143147476Y-109789874D01*
X143165878Y-109894239D01*
X143218862Y-109986010D01*
X143218864Y-109986013D01*
X143300043Y-110054130D01*
X143399626Y-110090374D01*
X143505598Y-110090374D01*
X143605180Y-110054130D01*
X143686359Y-109986013D01*
X143686361Y-109986010D01*
X143739345Y-109894239D01*
X143739345Y-109894238D01*
X143739346Y-109894237D01*
X143757748Y-109789874D01*
X143739346Y-109685511D01*
X143739345Y-109685509D01*
X143739345Y-109685508D01*
X143686361Y-109593737D01*
X143686359Y-109593734D01*
X143605180Y-109525617D01*
X143505598Y-109489374D01*
X143399626Y-109489374D01*
X143300043Y-109525617D01*
X143218864Y-109593734D01*
X143218862Y-109593737D01*
X143165878Y-109685508D01*
X143147476Y-109789874D01*
X141333339Y-109789874D01*
X142122396Y-108319720D01*
X143238804Y-108319720D01*
X143257206Y-108424086D01*
X143310190Y-108515857D01*
X143310192Y-108515860D01*
X143391371Y-108583977D01*
X143490954Y-108620221D01*
X143596926Y-108620221D01*
X143696508Y-108583977D01*
X143777687Y-108515860D01*
X143777689Y-108515857D01*
X143786131Y-108501236D01*
X143803127Y-108471798D01*
X144367498Y-108471798D01*
X144385900Y-108576163D01*
X144438884Y-108667934D01*
X144438885Y-108667936D01*
X144446599Y-108674408D01*
X144463916Y-108707673D01*
X144452640Y-108743441D01*
X144448668Y-108747413D01*
X144447723Y-108748539D01*
X144394739Y-108840309D01*
X144380805Y-108919333D01*
X144376337Y-108944675D01*
X144377939Y-108953759D01*
X144394739Y-109049040D01*
X144447723Y-109140811D01*
X144447725Y-109140814D01*
X144528904Y-109208931D01*
X144628487Y-109245175D01*
X144734459Y-109245175D01*
X144834041Y-109208931D01*
X144915220Y-109140814D01*
X144915222Y-109140811D01*
X144917278Y-109137251D01*
X144968207Y-109049038D01*
X144986609Y-108944675D01*
X144968207Y-108840312D01*
X144968206Y-108840310D01*
X144968206Y-108840309D01*
X144915222Y-108748538D01*
X144915221Y-108748536D01*
X144907508Y-108742065D01*
X144890191Y-108708800D01*
X144901467Y-108673032D01*
X144905433Y-108669066D01*
X144906379Y-108667937D01*
X144906382Y-108667936D01*
X144939611Y-108610382D01*
X144959367Y-108576163D01*
X144959367Y-108576162D01*
X144959368Y-108576161D01*
X144977770Y-108471798D01*
X144959368Y-108367435D01*
X144959367Y-108367433D01*
X144959367Y-108367432D01*
X144906383Y-108275661D01*
X144906381Y-108275658D01*
X144825202Y-108207541D01*
X144725620Y-108171298D01*
X144619648Y-108171298D01*
X144520065Y-108207541D01*
X144438886Y-108275658D01*
X144438884Y-108275661D01*
X144385900Y-108367432D01*
X144367498Y-108471798D01*
X143803127Y-108471798D01*
X143830674Y-108424084D01*
X143849076Y-108319721D01*
X143830674Y-108215358D01*
X143830673Y-108215356D01*
X143830673Y-108215355D01*
X143777689Y-108123584D01*
X143777687Y-108123581D01*
X143729917Y-108083497D01*
X149470183Y-108083497D01*
X149488585Y-108187862D01*
X149541569Y-108279633D01*
X149541571Y-108279636D01*
X149622750Y-108347753D01*
X149722333Y-108383997D01*
X149828305Y-108383997D01*
X149927887Y-108347753D01*
X150009066Y-108279636D01*
X150009068Y-108279633D01*
X150011363Y-108275658D01*
X150062053Y-108187860D01*
X150068289Y-108152489D01*
X150088438Y-108120862D01*
X150100175Y-108114816D01*
X151814195Y-107507608D01*
X151820430Y-107506029D01*
X151822198Y-107505508D01*
X151822201Y-107505508D01*
X151829579Y-107502234D01*
X151831310Y-107501545D01*
X151838909Y-107498854D01*
X151838909Y-107498853D01*
X151838911Y-107498853D01*
X151840560Y-107498013D01*
X151846159Y-107494881D01*
X152320087Y-107284673D01*
X152357577Y-107283745D01*
X152371446Y-107291928D01*
X152383599Y-107302125D01*
X152483181Y-107338369D01*
X152589153Y-107338369D01*
X152688735Y-107302125D01*
X152769914Y-107234008D01*
X152769916Y-107234005D01*
X152789323Y-107200392D01*
X152822901Y-107142232D01*
X152841303Y-107037869D01*
X152822901Y-106933506D01*
X152822900Y-106933504D01*
X152822900Y-106933503D01*
X152769916Y-106841732D01*
X152769914Y-106841729D01*
X152688735Y-106773612D01*
X152589153Y-106737369D01*
X152554107Y-106737369D01*
X152519459Y-106723017D01*
X152505107Y-106688369D01*
X152505851Y-106679861D01*
X152510418Y-106653960D01*
X152492016Y-106549597D01*
X152492015Y-106549595D01*
X152492015Y-106549594D01*
X152439031Y-106457823D01*
X152439029Y-106457820D01*
X152357850Y-106389703D01*
X152258268Y-106353460D01*
X152152296Y-106353460D01*
X152052713Y-106389703D01*
X151971534Y-106457820D01*
X151971532Y-106457823D01*
X151918548Y-106549594D01*
X151900146Y-106653960D01*
X151918548Y-106758325D01*
X151971532Y-106850096D01*
X151971534Y-106850099D01*
X152052713Y-106918216D01*
X152152296Y-106954460D01*
X152152525Y-106954460D01*
X152152695Y-106954530D01*
X152156519Y-106955205D01*
X152156369Y-106956052D01*
X152187173Y-106968812D01*
X152201525Y-107003460D01*
X152187173Y-107038108D01*
X152172392Y-107048252D01*
X151979121Y-107133975D01*
X151941629Y-107134904D01*
X151914462Y-107109050D01*
X151911195Y-107098742D01*
X151906893Y-107077111D01*
X151880832Y-107038108D01*
X151857053Y-107002519D01*
X151782462Y-106952680D01*
X151748466Y-106945918D01*
X151694476Y-106935179D01*
X151694475Y-106935179D01*
X151640484Y-106945918D01*
X151603701Y-106938601D01*
X151582866Y-106907419D01*
X151566893Y-106827111D01*
X151550354Y-106802359D01*
X151517053Y-106752519D01*
X151442462Y-106702680D01*
X151437897Y-106701772D01*
X151354476Y-106685179D01*
X151354475Y-106685179D01*
X151266489Y-106702680D01*
X151191898Y-106752519D01*
X151142059Y-106827110D01*
X151137487Y-106850099D01*
X151124558Y-106915097D01*
X151132536Y-106955205D01*
X151142059Y-107003083D01*
X151191898Y-107077674D01*
X151223983Y-107099112D01*
X151266490Y-107127514D01*
X151354476Y-107145015D01*
X151354477Y-107145014D01*
X151354478Y-107145015D01*
X151354479Y-107145015D01*
X151408467Y-107134276D01*
X151445249Y-107141592D01*
X151466084Y-107172774D01*
X151482058Y-107253079D01*
X151482060Y-107253085D01*
X151489952Y-107264897D01*
X151497267Y-107301679D01*
X151476430Y-107332861D01*
X151465571Y-107338305D01*
X150007754Y-107854750D01*
X149970302Y-107852792D01*
X149959895Y-107846099D01*
X149927886Y-107819240D01*
X149828305Y-107782997D01*
X149722333Y-107782997D01*
X149622750Y-107819240D01*
X149541571Y-107887357D01*
X149541569Y-107887360D01*
X149488585Y-107979131D01*
X149470183Y-108083497D01*
X143729917Y-108083497D01*
X143696508Y-108055464D01*
X143596926Y-108019221D01*
X143490954Y-108019221D01*
X143391371Y-108055464D01*
X143310192Y-108123581D01*
X143310190Y-108123584D01*
X143257206Y-108215355D01*
X143238804Y-108319720D01*
X142122396Y-108319720D01*
X142376597Y-107846099D01*
X143241077Y-106235421D01*
X148938059Y-106235421D01*
X148956461Y-106339787D01*
X149009445Y-106431558D01*
X149009447Y-106431561D01*
X149090626Y-106499678D01*
X149190209Y-106535922D01*
X149296181Y-106535922D01*
X149395763Y-106499678D01*
X149476942Y-106431561D01*
X149476944Y-106431558D01*
X149529928Y-106339787D01*
X149529928Y-106339786D01*
X149529929Y-106339785D01*
X149548331Y-106235422D01*
X149529929Y-106131059D01*
X149529928Y-106131057D01*
X149529928Y-106131056D01*
X149476944Y-106039285D01*
X149476942Y-106039282D01*
X149395763Y-105971165D01*
X149296181Y-105934922D01*
X149190209Y-105934922D01*
X149090626Y-105971165D01*
X149009447Y-106039282D01*
X149009445Y-106039285D01*
X148956461Y-106131056D01*
X148938059Y-106235421D01*
X143241077Y-106235421D01*
X143671486Y-105433494D01*
X148798864Y-105433494D01*
X148817266Y-105537859D01*
X148870250Y-105629630D01*
X148870252Y-105629633D01*
X148951431Y-105697750D01*
X149051014Y-105733994D01*
X149156986Y-105733994D01*
X149256568Y-105697750D01*
X149337747Y-105629633D01*
X149337749Y-105629630D01*
X149345012Y-105617051D01*
X149390734Y-105537857D01*
X149409136Y-105433494D01*
X149409135Y-105433492D01*
X149409880Y-105429272D01*
X149412423Y-105429720D01*
X149423488Y-105403010D01*
X149458136Y-105388658D01*
X149474891Y-105391612D01*
X149522585Y-105408971D01*
X149522586Y-105408971D01*
X149628557Y-105408971D01*
X149728139Y-105372727D01*
X149809318Y-105304610D01*
X149809320Y-105304607D01*
X149862304Y-105212836D01*
X149862304Y-105212835D01*
X149862305Y-105212834D01*
X149880707Y-105108471D01*
X149862305Y-105004108D01*
X149862304Y-105004106D01*
X149862304Y-105004105D01*
X149809320Y-104912334D01*
X149809318Y-104912331D01*
X149728139Y-104844214D01*
X149628557Y-104807971D01*
X149522585Y-104807971D01*
X149423002Y-104844214D01*
X149341823Y-104912331D01*
X149341821Y-104912334D01*
X149288837Y-105004105D01*
X149281383Y-105046382D01*
X149270436Y-105108470D01*
X149269691Y-105112693D01*
X149267146Y-105112244D01*
X149256083Y-105138954D01*
X149221435Y-105153306D01*
X149204677Y-105150351D01*
X149156986Y-105132994D01*
X149051014Y-105132994D01*
X148951431Y-105169237D01*
X148870252Y-105237354D01*
X148870250Y-105237357D01*
X148817266Y-105329128D01*
X148798864Y-105433494D01*
X143671486Y-105433494D01*
X144977670Y-102999843D01*
X144977765Y-102999708D01*
X144985668Y-102984965D01*
X144985711Y-102984929D01*
X144995288Y-102967050D01*
X145000840Y-102956685D01*
X145000840Y-102956684D01*
X145001082Y-102956233D01*
X145001157Y-102956082D01*
X145002034Y-102954448D01*
X145003831Y-102951102D01*
X145003832Y-102951095D01*
X145003920Y-102950866D01*
X145006239Y-102943669D01*
X145009853Y-102934963D01*
X145012530Y-102926137D01*
X145015344Y-102919018D01*
X145015411Y-102918817D01*
X145015417Y-102918807D01*
X145016523Y-102913239D01*
X145016540Y-102913172D01*
X145016682Y-102912458D01*
X145018974Y-102900924D01*
X145026947Y-102860840D01*
X145026976Y-102860753D01*
X145028073Y-102855228D01*
X145033131Y-102829758D01*
X145035195Y-102822675D01*
X145035379Y-102821923D01*
X145036102Y-102815297D01*
X145036426Y-102813184D01*
X145037730Y-102806635D01*
X145037729Y-102806634D01*
X145037777Y-102805909D01*
X145037939Y-102798478D01*
X145045959Y-102725035D01*
X145061898Y-102579078D01*
X145079926Y-102546193D01*
X145115927Y-102535688D01*
X145142105Y-102546862D01*
X145142633Y-102547305D01*
X145142634Y-102547306D01*
X145223814Y-102615424D01*
X145323396Y-102651668D01*
X145429368Y-102651668D01*
X145528950Y-102615424D01*
X145610129Y-102547307D01*
X145610131Y-102547304D01*
X145610773Y-102546193D01*
X145620759Y-102528897D01*
X145757361Y-102528897D01*
X145762992Y-102560831D01*
X145775763Y-102633262D01*
X145828747Y-102725033D01*
X145828749Y-102725036D01*
X145909928Y-102793153D01*
X146009511Y-102829397D01*
X146115483Y-102829397D01*
X146215065Y-102793153D01*
X146296244Y-102725036D01*
X146296246Y-102725033D01*
X146303352Y-102712726D01*
X146341525Y-102646607D01*
X146349230Y-102633262D01*
X146349230Y-102633261D01*
X146349231Y-102633260D01*
X146367633Y-102528897D01*
X146349231Y-102424534D01*
X146349230Y-102424532D01*
X146349230Y-102424531D01*
X146296246Y-102332760D01*
X146296244Y-102332757D01*
X146215065Y-102264640D01*
X146115483Y-102228397D01*
X146009511Y-102228397D01*
X145909928Y-102264640D01*
X145828749Y-102332757D01*
X145828747Y-102332760D01*
X145775763Y-102424531D01*
X145758328Y-102523411D01*
X145757361Y-102528897D01*
X145620759Y-102528897D01*
X145663116Y-102455531D01*
X145681518Y-102351168D01*
X145675162Y-102315122D01*
X145683278Y-102278508D01*
X145692162Y-102268876D01*
X146095857Y-101934634D01*
X146131695Y-101923593D01*
X146136651Y-101924317D01*
X146163236Y-101929605D01*
X146251222Y-101912104D01*
X146325813Y-101862264D01*
X146328585Y-101859492D01*
X146363232Y-101845137D01*
X146397881Y-101859486D01*
X146397887Y-101859492D01*
X146400658Y-101862264D01*
X146427566Y-101880243D01*
X146448401Y-101911425D01*
X146449025Y-101915413D01*
X146515787Y-102498684D01*
X146515957Y-102505717D01*
X146516036Y-102506910D01*
X146516036Y-102506912D01*
X146517470Y-102514124D01*
X146517781Y-102516111D01*
X146518617Y-102523411D01*
X146518924Y-102524637D01*
X146520889Y-102531324D01*
X146526722Y-102560710D01*
X146526760Y-102560831D01*
X146527744Y-102565778D01*
X146527753Y-102565860D01*
X146531192Y-102583128D01*
X146531190Y-102583139D01*
X146536729Y-102610942D01*
X146538348Y-102619081D01*
X146538471Y-102619444D01*
X146541259Y-102626543D01*
X146543385Y-102633661D01*
X146543390Y-102633674D01*
X146546165Y-102640539D01*
X146548507Y-102648104D01*
X146549276Y-102649587D01*
X146553692Y-102658111D01*
X146556909Y-102664319D01*
X146556908Y-102664319D01*
X146571397Y-102692286D01*
X147280240Y-104060512D01*
X147280395Y-104060810D01*
X147283590Y-104098176D01*
X147279324Y-104107847D01*
X147270220Y-104123617D01*
X147252019Y-104155141D01*
X147233617Y-104259505D01*
X147252019Y-104363870D01*
X147305003Y-104455641D01*
X147305005Y-104455644D01*
X147386184Y-104523761D01*
X147485767Y-104560005D01*
X147591739Y-104560005D01*
X147691321Y-104523761D01*
X147772500Y-104455644D01*
X147772502Y-104455641D01*
X147825486Y-104363870D01*
X147825486Y-104363869D01*
X147825487Y-104363868D01*
X147843889Y-104259505D01*
X147825487Y-104155142D01*
X147825486Y-104155140D01*
X147825486Y-104155139D01*
X147772502Y-104063368D01*
X147772500Y-104063365D01*
X147691321Y-103995248D01*
X147591739Y-103959005D01*
X147568292Y-103959005D01*
X147533644Y-103944653D01*
X147524784Y-103932545D01*
X146964120Y-102850339D01*
X146960925Y-102812973D01*
X146985088Y-102784291D01*
X147001886Y-102780197D01*
X147001771Y-102779544D01*
X147005992Y-102778799D01*
X147005994Y-102778799D01*
X147105576Y-102742555D01*
X147186756Y-102674437D01*
X147239742Y-102582662D01*
X147258144Y-102478299D01*
X147239742Y-102373936D01*
X147239741Y-102373934D01*
X147239741Y-102373933D01*
X147186757Y-102282162D01*
X147186755Y-102282159D01*
X147105576Y-102214042D01*
X147005994Y-102177799D01*
X146900022Y-102177799D01*
X146820962Y-102206573D01*
X146783495Y-102204937D01*
X146758159Y-102177286D01*
X146755522Y-102166100D01*
X146754718Y-102159073D01*
X146723529Y-101886590D01*
X146731468Y-101853799D01*
X146741735Y-101838434D01*
X149145880Y-101838434D01*
X149164282Y-101942800D01*
X149217266Y-102034571D01*
X149217268Y-102034574D01*
X149298447Y-102102691D01*
X149398030Y-102138935D01*
X149504002Y-102138935D01*
X149603584Y-102102691D01*
X149684763Y-102034574D01*
X149684765Y-102034571D01*
X149737749Y-101942800D01*
X149737749Y-101942799D01*
X149737750Y-101942798D01*
X149756152Y-101838435D01*
X149737750Y-101734072D01*
X149737749Y-101734070D01*
X149737749Y-101734069D01*
X149684765Y-101642298D01*
X149684763Y-101642295D01*
X149603584Y-101574178D01*
X149504002Y-101537935D01*
X149398030Y-101537935D01*
X149298447Y-101574178D01*
X149217268Y-101642295D01*
X149217266Y-101642298D01*
X149164282Y-101734069D01*
X149145880Y-101838434D01*
X146741735Y-101838434D01*
X146775653Y-101787673D01*
X146793154Y-101699687D01*
X146775653Y-101611701D01*
X146744684Y-101565352D01*
X146725812Y-101537108D01*
X146723039Y-101534335D01*
X146708687Y-101499687D01*
X146723039Y-101465039D01*
X146725812Y-101462265D01*
X146725813Y-101462264D01*
X146775653Y-101387673D01*
X146793154Y-101299687D01*
X146775653Y-101211701D01*
X146756347Y-101182807D01*
X146725813Y-101137109D01*
X146660405Y-101093406D01*
X146651222Y-101087270D01*
X146651220Y-101087269D01*
X146646761Y-101085422D01*
X146647503Y-101083630D01*
X146622499Y-101066916D01*
X146617540Y-101057363D01*
X146603810Y-101021834D01*
X146410371Y-100521254D01*
X146673592Y-100521254D01*
X146677764Y-100544916D01*
X146691994Y-100625619D01*
X146744978Y-100717390D01*
X146744980Y-100717393D01*
X146826159Y-100785510D01*
X146925742Y-100821754D01*
X147031714Y-100821754D01*
X147131296Y-100785510D01*
X147183596Y-100741624D01*
X147219362Y-100730347D01*
X147252628Y-100747664D01*
X147263952Y-100782858D01*
X147240888Y-101087641D01*
X147223963Y-101121108D01*
X147219252Y-101124685D01*
X147200659Y-101137108D01*
X147150819Y-101211700D01*
X147133318Y-101299687D01*
X147150819Y-101387673D01*
X147200658Y-101462264D01*
X147250498Y-101495565D01*
X147275250Y-101512104D01*
X147363236Y-101529605D01*
X147451222Y-101512104D01*
X147525813Y-101462264D01*
X147575653Y-101387673D01*
X147593154Y-101299687D01*
X147575653Y-101211701D01*
X147525813Y-101137110D01*
X147525812Y-101137109D01*
X147524535Y-101135198D01*
X147516417Y-101104279D01*
X147547233Y-100697063D01*
X147564158Y-100663599D01*
X147579336Y-100654717D01*
X147584760Y-100652744D01*
X147632086Y-100613033D01*
X147665937Y-100584629D01*
X147665938Y-100584627D01*
X147665940Y-100584626D01*
X147718926Y-100492851D01*
X147724193Y-100462983D01*
X149055886Y-100462983D01*
X149074288Y-100567348D01*
X149127272Y-100659119D01*
X149127274Y-100659122D01*
X149208453Y-100727239D01*
X149308036Y-100763483D01*
X149414008Y-100763483D01*
X149513590Y-100727239D01*
X149594769Y-100659122D01*
X149594771Y-100659119D01*
X149597313Y-100654717D01*
X149637778Y-100584629D01*
X149647755Y-100567348D01*
X149647755Y-100567347D01*
X149647756Y-100567346D01*
X149666158Y-100462983D01*
X149647756Y-100358620D01*
X149647755Y-100358618D01*
X149647755Y-100358617D01*
X149594771Y-100266846D01*
X149594769Y-100266843D01*
X149513590Y-100198726D01*
X149414008Y-100162483D01*
X149308036Y-100162483D01*
X149208453Y-100198726D01*
X149127274Y-100266843D01*
X149127272Y-100266846D01*
X149074288Y-100358617D01*
X149055886Y-100462983D01*
X147724193Y-100462983D01*
X147737328Y-100388488D01*
X147718926Y-100284125D01*
X147718925Y-100284123D01*
X147718925Y-100284122D01*
X147665941Y-100192351D01*
X147665939Y-100192348D01*
X147584760Y-100124231D01*
X147485178Y-100087988D01*
X147379206Y-100087988D01*
X147279623Y-100124231D01*
X147198444Y-100192348D01*
X147198442Y-100192351D01*
X147176498Y-100230360D01*
X147146745Y-100253190D01*
X147117305Y-100251905D01*
X147031714Y-100220754D01*
X146925742Y-100220754D01*
X146826159Y-100256997D01*
X146744980Y-100325114D01*
X146744978Y-100325117D01*
X146691994Y-100416888D01*
X146673592Y-100521253D01*
X146673592Y-100521254D01*
X146410371Y-100521254D01*
X146406332Y-100510803D01*
X146407230Y-100473312D01*
X146409597Y-100468653D01*
X146449332Y-100399829D01*
X146456865Y-100386783D01*
X146456865Y-100386782D01*
X146456866Y-100386781D01*
X146475268Y-100282418D01*
X146456866Y-100178055D01*
X146456865Y-100178053D01*
X146456865Y-100178052D01*
X146403881Y-100086281D01*
X146403879Y-100086278D01*
X146322700Y-100018161D01*
X146223118Y-99981918D01*
X146117146Y-99981918D01*
X146017563Y-100018161D01*
X145936384Y-100086278D01*
X145936382Y-100086281D01*
X145883398Y-100178052D01*
X145864996Y-100282418D01*
X145883398Y-100386783D01*
X145936382Y-100478554D01*
X145936384Y-100478557D01*
X146006092Y-100537048D01*
X146017564Y-100546674D01*
X146117146Y-100582918D01*
X146120850Y-100584266D01*
X146148500Y-100609602D01*
X146149797Y-100612649D01*
X146307919Y-101021834D01*
X146307021Y-101059326D01*
X146279875Y-101085202D01*
X146252654Y-101087555D01*
X146251222Y-101087270D01*
X146163236Y-101069769D01*
X146075250Y-101087270D01*
X146066067Y-101093406D01*
X146029284Y-101100721D01*
X146021503Y-101098491D01*
X145720278Y-100984486D01*
X145692955Y-100958800D01*
X145689369Y-100947172D01*
X145681866Y-100904618D01*
X145628880Y-100812843D01*
X145628879Y-100812841D01*
X145547700Y-100744724D01*
X145448118Y-100708481D01*
X145413824Y-100708481D01*
X145379176Y-100694129D01*
X145364824Y-100659481D01*
X145379176Y-100624833D01*
X145397066Y-100613436D01*
X145397561Y-100613255D01*
X145398164Y-100613036D01*
X145452613Y-100567348D01*
X145479341Y-100544921D01*
X145479342Y-100544919D01*
X145479344Y-100544918D01*
X145517659Y-100478554D01*
X145532329Y-100453145D01*
X145532329Y-100453144D01*
X145532330Y-100453143D01*
X145550732Y-100348780D01*
X145532330Y-100244417D01*
X145532329Y-100244415D01*
X145532329Y-100244414D01*
X145479345Y-100152643D01*
X145479343Y-100152640D01*
X145398164Y-100084523D01*
X145298582Y-100048280D01*
X145192610Y-100048280D01*
X145093027Y-100084523D01*
X145011848Y-100152640D01*
X145011846Y-100152643D01*
X144958862Y-100244414D01*
X144940460Y-100348780D01*
X144958862Y-100453145D01*
X145011846Y-100544916D01*
X145011847Y-100544917D01*
X145011848Y-100544918D01*
X145026734Y-100557409D01*
X145044052Y-100590672D01*
X145042924Y-100606219D01*
X145038523Y-100624833D01*
X144982425Y-100862096D01*
X144981787Y-100864321D01*
X144980471Y-100868199D01*
X144977757Y-100881846D01*
X144974562Y-100895362D01*
X144974155Y-100899369D01*
X144973808Y-100901677D01*
X144969764Y-100921989D01*
X144969758Y-100922053D01*
X144968899Y-100926371D01*
X144968867Y-100926473D01*
X144962756Y-100957247D01*
X144960693Y-100964339D01*
X144960510Y-100965089D01*
X144959789Y-100971691D01*
X144959463Y-100973809D01*
X144958160Y-100980365D01*
X144958113Y-100981068D01*
X144957950Y-100988522D01*
X144796714Y-102465002D01*
X144778686Y-102497888D01*
X144742685Y-102508393D01*
X144731246Y-102505728D01*
X144653745Y-102477521D01*
X144547773Y-102477521D01*
X144448190Y-102513764D01*
X144367011Y-102581881D01*
X144367009Y-102581884D01*
X144314025Y-102673655D01*
X144295623Y-102778021D01*
X144314025Y-102882386D01*
X144342309Y-102931375D01*
X144347204Y-102968558D01*
X144343507Y-102978171D01*
X140956038Y-109607307D01*
X140927492Y-109631630D01*
X140890109Y-109628644D01*
X140885182Y-109625753D01*
X140843151Y-109597669D01*
X140784304Y-109585964D01*
X140755165Y-109580168D01*
X140755164Y-109580168D01*
X140667178Y-109597669D01*
X140592587Y-109647508D01*
X140542748Y-109722099D01*
X140525247Y-109810085D01*
X140542748Y-109898072D01*
X140592588Y-109972664D01*
X140633625Y-110000083D01*
X140654461Y-110031265D01*
X140647145Y-110068047D01*
X140643556Y-110072773D01*
X140405779Y-110349292D01*
X140405739Y-110349330D01*
X140384595Y-110373927D01*
X140380699Y-110378458D01*
X140378358Y-110380710D01*
X140378471Y-110380820D01*
X140376238Y-110383123D01*
X140373888Y-110386285D01*
X140372806Y-110387638D01*
X140370218Y-110390648D01*
X140368462Y-110393331D01*
X140368331Y-110393245D01*
X140366653Y-110396016D01*
X140365644Y-110397375D01*
X140365607Y-110397425D01*
X140365594Y-110397443D01*
X140365407Y-110397696D01*
X140346617Y-110422975D01*
X140345333Y-110424703D01*
X140345316Y-110424721D01*
X140315183Y-110465266D01*
X140285416Y-110484095D01*
X140217180Y-110497668D01*
X140142587Y-110547508D01*
X140120907Y-110579956D01*
X140089724Y-110600792D01*
X140052942Y-110593475D01*
X140039423Y-110579956D01*
X140017742Y-110547508D01*
X139943151Y-110497669D01*
X139855165Y-110480168D01*
X139767178Y-110497669D01*
X139692587Y-110547508D01*
X139670907Y-110579956D01*
X139639724Y-110600792D01*
X139602942Y-110593475D01*
X139589423Y-110579956D01*
X139567742Y-110547508D01*
X139493151Y-110497669D01*
X139476404Y-110494338D01*
X139405165Y-110480168D01*
X139405164Y-110480168D01*
X139357606Y-110489627D01*
X139320824Y-110482309D01*
X139299989Y-110451126D01*
X139299183Y-110445203D01*
X139213269Y-109286040D01*
X139213256Y-109282639D01*
X139213351Y-109281198D01*
X139212941Y-109279138D01*
X139212540Y-109276188D01*
X139212386Y-109274102D01*
X139211912Y-109272744D01*
X139211013Y-109269446D01*
X139209819Y-109263445D01*
X139207997Y-109254262D01*
X139203689Y-109232549D01*
X139203688Y-109232547D01*
X139202637Y-109227251D01*
X139202590Y-109227102D01*
X139201852Y-109223394D01*
X139201834Y-109223167D01*
X139200729Y-109217634D01*
X139200730Y-109217633D01*
X139198694Y-109207435D01*
X139198696Y-109207423D01*
X139193488Y-109181318D01*
X139193449Y-109181146D01*
X139192246Y-109175101D01*
X139191842Y-109172131D01*
X139191826Y-109171912D01*
X139191824Y-109171907D01*
X139191778Y-109171685D01*
X139191119Y-109169268D01*
X139191037Y-109169024D01*
X139190943Y-109168833D01*
X139189788Y-109166080D01*
X139187660Y-109159993D01*
X139187647Y-109159948D01*
X139186316Y-109156145D01*
X139183239Y-109147339D01*
X139114698Y-108951200D01*
X139265037Y-108951200D01*
X139265733Y-108955149D01*
X139283439Y-109055565D01*
X139336423Y-109147336D01*
X139336425Y-109147339D01*
X139417604Y-109215456D01*
X139517187Y-109251700D01*
X139623159Y-109251700D01*
X139722741Y-109215456D01*
X139803920Y-109147339D01*
X139803922Y-109147336D01*
X139807688Y-109140814D01*
X139856907Y-109055563D01*
X139875309Y-108951200D01*
X139856907Y-108846837D01*
X139856905Y-108846833D01*
X139855805Y-108843809D01*
X139857441Y-108806342D01*
X139863026Y-108797157D01*
X142652796Y-105175479D01*
X142656256Y-105171794D01*
X142656246Y-105171786D01*
X142658363Y-105169372D01*
X142658363Y-105169371D01*
X142658366Y-105169369D01*
X142663559Y-105161594D01*
X142664507Y-105160276D01*
X142667299Y-105156652D01*
X142670204Y-105152882D01*
X142670206Y-105152878D01*
X142671817Y-105150101D01*
X142671829Y-105150108D01*
X142674218Y-105145646D01*
X142685949Y-105128099D01*
X142685949Y-105128097D01*
X142689472Y-105122828D01*
X142689499Y-105122773D01*
X142710790Y-105090911D01*
X142711792Y-105089413D01*
X142711791Y-105089412D01*
X142721271Y-105075239D01*
X142721505Y-105074875D01*
X142721907Y-105074274D01*
X142721908Y-105074270D01*
X142721972Y-105074175D01*
X142722025Y-105074060D01*
X142722030Y-105074055D01*
X142722338Y-105073392D01*
X142722385Y-105073297D01*
X142722399Y-105073260D01*
X142729675Y-105057631D01*
X142742977Y-105029081D01*
X142742976Y-105029080D01*
X142745385Y-105023913D01*
X142745423Y-105023793D01*
X142898231Y-104695494D01*
X142925865Y-104670138D01*
X142942656Y-104667171D01*
X142952053Y-104667171D01*
X143051635Y-104630927D01*
X143132814Y-104562810D01*
X143132816Y-104562807D01*
X143138220Y-104553448D01*
X143183645Y-104474768D01*
X143185800Y-104471036D01*
X143185800Y-104471035D01*
X143185801Y-104471034D01*
X143204203Y-104366671D01*
X143185801Y-104262308D01*
X143185800Y-104262306D01*
X143185800Y-104262305D01*
X143132816Y-104170534D01*
X143132814Y-104170531D01*
X143051635Y-104102414D01*
X142952053Y-104066171D01*
X142846081Y-104066171D01*
X142746498Y-104102414D01*
X142665319Y-104170531D01*
X142665317Y-104170534D01*
X142612333Y-104262305D01*
X142595043Y-104360362D01*
X142593931Y-104366671D01*
X142612333Y-104471034D01*
X142612333Y-104471035D01*
X142612334Y-104471036D01*
X142647170Y-104531375D01*
X142652065Y-104568557D01*
X142649159Y-104576552D01*
X142482297Y-104935048D01*
X142478608Y-104941604D01*
X142461819Y-104966716D01*
X142461776Y-104966800D01*
X142440144Y-104999172D01*
X142439183Y-105000511D01*
X142431768Y-105010138D01*
X142421248Y-105023795D01*
X142421247Y-105023797D01*
X139648503Y-108623372D01*
X139642163Y-108631602D01*
X139609649Y-108650293D01*
X139603344Y-108650700D01*
X139517187Y-108650700D01*
X139417604Y-108686943D01*
X139336425Y-108755060D01*
X139336423Y-108755063D01*
X139283439Y-108846834D01*
X139265037Y-108951199D01*
X139265037Y-108951200D01*
X139114698Y-108951200D01*
X139020265Y-108680967D01*
X139018337Y-108673568D01*
X139018282Y-108673396D01*
X139018282Y-108673392D01*
X139016139Y-108668793D01*
X139015221Y-108666532D01*
X139013553Y-108661758D01*
X139013550Y-108661754D01*
X139013549Y-108661750D01*
X139013467Y-108661588D01*
X139009684Y-108654931D01*
X138994999Y-108623372D01*
X138994923Y-108623248D01*
X138472735Y-107502244D01*
X138325386Y-107185922D01*
X138323765Y-107148454D01*
X138349112Y-107120814D01*
X138369803Y-107116231D01*
X138384436Y-107116231D01*
X138484018Y-107079987D01*
X138565197Y-107011870D01*
X138565199Y-107011867D01*
X138570271Y-107003083D01*
X138597913Y-106955205D01*
X138618183Y-106920096D01*
X138618183Y-106920095D01*
X138618184Y-106920094D01*
X138636586Y-106815731D01*
X138618184Y-106711368D01*
X138618183Y-106711366D01*
X138618183Y-106711365D01*
X138565199Y-106619594D01*
X138565197Y-106619591D01*
X138484018Y-106551475D01*
X138386310Y-106515913D01*
X138358660Y-106490577D01*
X138357108Y-106486855D01*
X137878071Y-105189671D01*
X139256377Y-105189671D01*
X139274779Y-105294036D01*
X139327763Y-105385807D01*
X139327765Y-105385810D01*
X139408944Y-105453927D01*
X139508527Y-105490171D01*
X139614499Y-105490171D01*
X139714081Y-105453927D01*
X139795260Y-105385810D01*
X139795262Y-105385807D01*
X139848246Y-105294036D01*
X139848246Y-105294035D01*
X139848247Y-105294034D01*
X139866649Y-105189671D01*
X139848247Y-105085308D01*
X139848246Y-105085306D01*
X139848246Y-105085305D01*
X139795262Y-104993534D01*
X139795260Y-104993531D01*
X139714081Y-104925414D01*
X139614499Y-104889171D01*
X139508527Y-104889171D01*
X139408944Y-104925414D01*
X139327765Y-104993531D01*
X139327763Y-104993534D01*
X139274779Y-105085305D01*
X139256377Y-105189671D01*
X137878071Y-105189671D01*
X137572358Y-104361832D01*
X137572357Y-104361831D01*
X137572356Y-104361827D01*
X137571584Y-104360362D01*
X137568278Y-104354638D01*
X137567599Y-104353164D01*
X137567598Y-104353162D01*
X137566799Y-104351735D01*
X137566454Y-104348819D01*
X137565162Y-104346885D01*
X137565146Y-104346857D01*
X137563372Y-104344202D01*
X137563372Y-104344201D01*
X137553289Y-104329111D01*
X137553290Y-104329111D01*
X137535794Y-104302919D01*
X137535792Y-104302917D01*
X137532795Y-104298431D01*
X137532762Y-104298391D01*
X137531461Y-104296444D01*
X137531458Y-104296437D01*
X137527422Y-104290397D01*
X137527422Y-104290396D01*
X137522213Y-104282601D01*
X137522210Y-104282584D01*
X137509926Y-104264203D01*
X137509927Y-104264203D01*
X137501256Y-104251228D01*
X137501249Y-104251219D01*
X137500927Y-104250738D01*
X137500838Y-104250613D01*
X137499831Y-104249106D01*
X137499148Y-104248507D01*
X137496882Y-104246242D01*
X137489861Y-104238238D01*
X137480673Y-104227764D01*
X137480668Y-104227760D01*
X137480662Y-104227753D01*
X137462269Y-104211632D01*
X137459990Y-104209353D01*
X137459368Y-104208643D01*
X137459367Y-104208642D01*
X137457816Y-104207605D01*
X137457717Y-104207534D01*
X137457203Y-104207191D01*
X137457201Y-104207189D01*
X137444223Y-104198523D01*
X137410063Y-104175697D01*
X137409945Y-104175598D01*
X137405515Y-104172641D01*
X137405515Y-104172640D01*
X137396872Y-104166871D01*
X137396843Y-104166828D01*
X137365831Y-104146127D01*
X137365514Y-104145930D01*
X137364270Y-104145099D01*
X137364269Y-104145098D01*
X137363482Y-104144831D01*
X137360541Y-104143613D01*
X137338369Y-104132693D01*
X137315218Y-104124847D01*
X137312245Y-104123617D01*
X137311397Y-104123199D01*
X137311398Y-104123199D01*
X137309685Y-104122858D01*
X137309402Y-104122793D01*
X137294305Y-104119799D01*
X137294305Y-104119798D01*
X137253326Y-104111647D01*
X137253285Y-104111634D01*
X137230552Y-104107115D01*
X137219581Y-104104935D01*
X137215550Y-104104133D01*
X137206797Y-104102391D01*
X137203818Y-104101601D01*
X137203236Y-104101406D01*
X137203220Y-104101403D01*
X137202866Y-104101382D01*
X137199600Y-104100960D01*
X137199235Y-104100887D01*
X137199223Y-104100886D01*
X137198592Y-104100928D01*
X137195506Y-104100934D01*
X137185107Y-104100300D01*
X137149931Y-104098153D01*
X137149909Y-104098154D01*
X136706652Y-104071126D01*
X136549638Y-104061551D01*
X136549585Y-104061543D01*
X136544675Y-104061244D01*
X136538331Y-104060858D01*
X136532637Y-104060512D01*
X136532617Y-104060503D01*
X136513236Y-104059325D01*
X136503038Y-104058705D01*
X136503033Y-104058705D01*
X136503016Y-104058704D01*
X136502851Y-104058699D01*
X136495126Y-104058228D01*
X136494203Y-104058293D01*
X136487036Y-104059106D01*
X136483249Y-104059201D01*
X136482612Y-104059218D01*
X136479384Y-104059577D01*
X136478317Y-104059696D01*
X136471110Y-104059860D01*
X136470159Y-104059923D01*
X136462549Y-104061435D01*
X136462447Y-104061452D01*
X136462309Y-104061479D01*
X136462305Y-104061480D01*
X136452286Y-104063478D01*
X136451290Y-104063675D01*
X136451077Y-104063718D01*
X136413835Y-104071126D01*
X136377136Y-104078426D01*
X136375855Y-104078681D01*
X136371419Y-104079563D01*
X136357992Y-104082234D01*
X136357976Y-104082240D01*
X136357048Y-104082697D01*
X136354096Y-104083918D01*
X136331008Y-104091748D01*
X136331005Y-104091749D01*
X136308992Y-104102597D01*
X136306046Y-104103817D01*
X136305127Y-104104129D01*
X136305120Y-104104133D01*
X136288473Y-104115256D01*
X136259687Y-104134479D01*
X136259629Y-104134528D01*
X136210025Y-104167673D01*
X136210015Y-104167682D01*
X136209285Y-104168515D01*
X136207011Y-104170788D01*
X136188771Y-104186765D01*
X136188767Y-104186770D01*
X136188764Y-104186773D01*
X136172548Y-104205240D01*
X136170309Y-104207480D01*
X136169558Y-104208138D01*
X136169558Y-104208139D01*
X136159505Y-104223185D01*
X136139122Y-104253653D01*
X136139041Y-104253808D01*
X136106018Y-104303230D01*
X136106016Y-104303236D01*
X136105672Y-104304249D01*
X136104443Y-104307213D01*
X136093669Y-104329042D01*
X136085767Y-104352287D01*
X136084549Y-104355227D01*
X136084120Y-104356096D01*
X136084116Y-104356109D01*
X136080800Y-104372778D01*
X136080585Y-104373861D01*
X136073420Y-104409798D01*
X136073407Y-104409942D01*
X136061803Y-104468281D01*
X136061594Y-104471482D01*
X136061311Y-104471463D01*
X136060703Y-104477994D01*
X136060984Y-104478028D01*
X136060598Y-104481213D01*
X136060788Y-104499366D01*
X136061172Y-104536427D01*
X136061175Y-104536446D01*
X136108459Y-109068556D01*
X136094470Y-109103352D01*
X136090959Y-109106603D01*
X136015821Y-109169651D01*
X136015819Y-109169654D01*
X135962835Y-109261425D01*
X135945884Y-109357563D01*
X135944433Y-109365791D01*
X133968895Y-109365791D01*
X133992440Y-109346035D01*
X134033970Y-109274102D01*
X134045425Y-109254262D01*
X134045425Y-109254261D01*
X134045426Y-109254260D01*
X134063828Y-109149897D01*
X134045426Y-109045534D01*
X134045425Y-109045532D01*
X134045425Y-109045531D01*
X133992441Y-108953760D01*
X133992439Y-108953757D01*
X133911260Y-108885640D01*
X133811678Y-108849397D01*
X133705706Y-108849397D01*
X133606123Y-108885640D01*
X133524944Y-108953757D01*
X133522189Y-108957042D01*
X133521082Y-108956113D01*
X133495813Y-108975493D01*
X133458632Y-108970590D01*
X133442108Y-108954940D01*
X133422583Y-108925022D01*
X132606284Y-107674233D01*
X132599367Y-107637376D01*
X132604882Y-107622959D01*
X132615104Y-107605255D01*
X132633506Y-107500892D01*
X132615104Y-107396529D01*
X132615103Y-107396527D01*
X132615103Y-107396526D01*
X132562119Y-107304755D01*
X132562117Y-107304752D01*
X132480938Y-107236635D01*
X132381356Y-107200392D01*
X132275384Y-107200392D01*
X132175801Y-107236635D01*
X132094622Y-107304752D01*
X132094620Y-107304755D01*
X132041636Y-107396526D01*
X132023234Y-107500892D01*
X131091310Y-107500892D01*
X130443615Y-106806138D01*
X131761024Y-106806138D01*
X131779426Y-106910503D01*
X131832410Y-107002274D01*
X131832412Y-107002277D01*
X131913591Y-107070394D01*
X132013174Y-107106638D01*
X132119146Y-107106638D01*
X132218728Y-107070394D01*
X132299907Y-107002277D01*
X132299909Y-107002274D01*
X132352893Y-106910503D01*
X132352893Y-106910502D01*
X132352894Y-106910501D01*
X132371296Y-106806138D01*
X132352894Y-106701775D01*
X132352893Y-106701773D01*
X132352893Y-106701772D01*
X132299909Y-106610001D01*
X132299907Y-106609998D01*
X132218728Y-106541881D01*
X132119146Y-106505638D01*
X132013174Y-106505638D01*
X131913591Y-106541881D01*
X131832412Y-106609998D01*
X131832410Y-106610001D01*
X131779426Y-106701772D01*
X131761024Y-106806138D01*
X130443615Y-106806138D01*
X129849295Y-106168637D01*
X134948524Y-106168637D01*
X134966926Y-106273003D01*
X135019910Y-106364774D01*
X135019912Y-106364777D01*
X135101091Y-106432894D01*
X135200674Y-106469138D01*
X135306646Y-106469138D01*
X135406228Y-106432894D01*
X135487407Y-106364777D01*
X135487409Y-106364774D01*
X135540393Y-106273003D01*
X135540393Y-106273002D01*
X135540394Y-106273001D01*
X135558796Y-106168638D01*
X135540394Y-106064275D01*
X135540393Y-106064273D01*
X135540393Y-106064272D01*
X135487409Y-105972501D01*
X135487407Y-105972498D01*
X135406228Y-105904381D01*
X135306646Y-105868138D01*
X135200674Y-105868138D01*
X135101091Y-105904381D01*
X135019912Y-105972498D01*
X135019910Y-105972501D01*
X134966926Y-106064272D01*
X134948524Y-106168637D01*
X129849295Y-106168637D01*
X129469140Y-105760861D01*
X129456012Y-105725732D01*
X129471569Y-105691608D01*
X129506699Y-105678479D01*
X129511378Y-105678868D01*
X129520072Y-105680012D01*
X129626508Y-105694025D01*
X129626512Y-105694025D01*
X129706274Y-105694025D01*
X129706278Y-105694025D01*
X129825243Y-105678363D01*
X129973268Y-105617049D01*
X130060793Y-105549888D01*
X131773524Y-105549888D01*
X131791926Y-105654253D01*
X131844910Y-105746024D01*
X131844912Y-105746027D01*
X131926091Y-105814144D01*
X132025674Y-105850388D01*
X132131646Y-105850388D01*
X132231228Y-105814144D01*
X132312407Y-105746027D01*
X132312409Y-105746024D01*
X132365393Y-105654253D01*
X132365393Y-105654252D01*
X132365394Y-105654251D01*
X132369198Y-105632680D01*
X134029232Y-105632680D01*
X134047634Y-105737045D01*
X134100618Y-105828816D01*
X134100620Y-105828819D01*
X134181799Y-105896936D01*
X134281382Y-105933180D01*
X134387354Y-105933180D01*
X134486936Y-105896936D01*
X134568115Y-105828819D01*
X134568117Y-105828816D01*
X134575477Y-105816069D01*
X134621102Y-105737043D01*
X134639504Y-105632680D01*
X134621102Y-105528317D01*
X134621101Y-105528315D01*
X134621101Y-105528314D01*
X134568117Y-105436543D01*
X134568115Y-105436540D01*
X134486936Y-105368423D01*
X134387354Y-105332180D01*
X134281382Y-105332180D01*
X134181799Y-105368423D01*
X134100620Y-105436540D01*
X134100618Y-105436543D01*
X134047634Y-105528314D01*
X134029232Y-105632680D01*
X132369198Y-105632680D01*
X132383796Y-105549888D01*
X132365394Y-105445525D01*
X132365393Y-105445523D01*
X132365393Y-105445522D01*
X132312409Y-105353751D01*
X132312407Y-105353748D01*
X132231228Y-105285631D01*
X132131646Y-105249388D01*
X132025674Y-105249388D01*
X131926091Y-105285631D01*
X131844912Y-105353748D01*
X131844910Y-105353751D01*
X131791926Y-105445522D01*
X131773524Y-105549888D01*
X130060793Y-105549888D01*
X130100380Y-105519512D01*
X130197917Y-105392401D01*
X130259231Y-105244375D01*
X130280144Y-105085525D01*
X130259231Y-104926675D01*
X130252113Y-104909490D01*
X132868438Y-104909490D01*
X132886840Y-105013856D01*
X132939824Y-105105627D01*
X132939826Y-105105630D01*
X133021005Y-105173747D01*
X133120588Y-105209991D01*
X133226560Y-105209991D01*
X133326142Y-105173747D01*
X133407321Y-105105630D01*
X133407323Y-105105627D01*
X133418930Y-105085524D01*
X133419591Y-105084379D01*
X134940675Y-105084379D01*
X134959077Y-105188744D01*
X135012061Y-105280515D01*
X135012063Y-105280518D01*
X135093242Y-105348635D01*
X135192825Y-105384879D01*
X135298797Y-105384879D01*
X135398379Y-105348635D01*
X135479558Y-105280518D01*
X135479560Y-105280515D01*
X135532544Y-105188744D01*
X135532544Y-105188743D01*
X135532545Y-105188742D01*
X135550947Y-105084379D01*
X135532545Y-104980016D01*
X135532544Y-104980014D01*
X135532544Y-104980013D01*
X135479560Y-104888242D01*
X135479558Y-104888239D01*
X135398379Y-104820122D01*
X135298797Y-104783879D01*
X135192825Y-104783879D01*
X135093242Y-104820122D01*
X135012063Y-104888239D01*
X135012061Y-104888242D01*
X134959077Y-104980013D01*
X134940675Y-105084379D01*
X133419591Y-105084379D01*
X133451517Y-105029081D01*
X133460307Y-105013856D01*
X133460307Y-105013855D01*
X133460308Y-105013854D01*
X133478710Y-104909491D01*
X133460308Y-104805128D01*
X133460307Y-104805126D01*
X133460307Y-104805125D01*
X133426103Y-104745882D01*
X133671846Y-104745882D01*
X133690248Y-104850247D01*
X133743232Y-104942018D01*
X133743234Y-104942021D01*
X133824413Y-105010138D01*
X133923996Y-105046382D01*
X134029968Y-105046382D01*
X134129550Y-105010138D01*
X134210729Y-104942021D01*
X134210731Y-104942018D01*
X134229511Y-104909491D01*
X134263716Y-104850245D01*
X134282118Y-104745882D01*
X134263716Y-104641519D01*
X134263715Y-104641517D01*
X134263715Y-104641516D01*
X134210731Y-104549745D01*
X134210729Y-104549742D01*
X134129550Y-104481625D01*
X134029968Y-104445382D01*
X133923996Y-104445382D01*
X133824413Y-104481625D01*
X133743234Y-104549742D01*
X133743232Y-104549745D01*
X133690248Y-104641516D01*
X133671846Y-104745882D01*
X133426103Y-104745882D01*
X133407323Y-104713354D01*
X133407321Y-104713351D01*
X133326142Y-104645234D01*
X133226560Y-104608991D01*
X133120588Y-104608991D01*
X133021005Y-104645234D01*
X132939826Y-104713351D01*
X132939824Y-104713354D01*
X132886840Y-104805125D01*
X132868438Y-104909490D01*
X130252113Y-104909490D01*
X130232861Y-104863012D01*
X130197919Y-104778654D01*
X130197916Y-104778649D01*
X130187394Y-104764937D01*
X130100380Y-104651538D01*
X130100377Y-104651536D01*
X129973268Y-104554001D01*
X129973263Y-104553998D01*
X129825242Y-104492686D01*
X129741226Y-104481626D01*
X129706278Y-104477025D01*
X129626508Y-104477025D01*
X129594720Y-104481210D01*
X129507543Y-104492686D01*
X129359522Y-104553998D01*
X129359517Y-104554001D01*
X129232407Y-104651536D01*
X129134869Y-104778648D01*
X129134866Y-104778653D01*
X129073554Y-104926675D01*
X129052642Y-105085525D01*
X129067697Y-105199887D01*
X129057990Y-105236112D01*
X129025511Y-105254863D01*
X128989286Y-105245156D01*
X128983279Y-105239699D01*
X127893859Y-104071125D01*
X127880731Y-104035996D01*
X127881444Y-104029213D01*
X127895729Y-103948199D01*
X127877327Y-103843836D01*
X127877326Y-103843834D01*
X127877326Y-103843833D01*
X127870557Y-103832108D01*
X127981140Y-103832108D01*
X127983208Y-103843836D01*
X127999542Y-103936473D01*
X128052526Y-104028244D01*
X128052528Y-104028247D01*
X128133707Y-104096364D01*
X128233290Y-104132608D01*
X128339262Y-104132608D01*
X128438844Y-104096364D01*
X128520023Y-104028247D01*
X128520025Y-104028244D01*
X128573009Y-103936473D01*
X128573009Y-103936472D01*
X128573010Y-103936471D01*
X128582033Y-103885297D01*
X134253676Y-103885297D01*
X134269332Y-103989173D01*
X134269334Y-103989180D01*
X134330215Y-104115599D01*
X134330216Y-104115600D01*
X134416547Y-104208643D01*
X134425663Y-104218467D01*
X134547189Y-104288630D01*
X134547190Y-104288630D01*
X134547192Y-104288631D01*
X134683991Y-104319855D01*
X134683991Y-104319854D01*
X134683996Y-104319856D01*
X134823930Y-104309369D01*
X134954555Y-104258102D01*
X135064266Y-104170611D01*
X135143314Y-104054668D01*
X135184676Y-103920577D01*
X135184676Y-103885297D01*
X139103676Y-103885297D01*
X139119332Y-103989173D01*
X139119334Y-103989180D01*
X139180215Y-104115599D01*
X139180216Y-104115600D01*
X139266547Y-104208643D01*
X139275663Y-104218467D01*
X139397189Y-104288630D01*
X139397190Y-104288630D01*
X139397192Y-104288631D01*
X139533991Y-104319855D01*
X139533991Y-104319854D01*
X139533996Y-104319856D01*
X139673930Y-104309369D01*
X139804555Y-104258102D01*
X139914266Y-104170611D01*
X139993314Y-104054668D01*
X140034676Y-103920577D01*
X140034676Y-103085529D01*
X140019020Y-102981656D01*
X140019018Y-102981653D01*
X140019017Y-102981647D01*
X139958136Y-102855228D01*
X139958135Y-102855227D01*
X139862690Y-102752362D01*
X139862686Y-102752359D01*
X139741165Y-102682199D01*
X139741159Y-102682196D01*
X139604360Y-102650972D01*
X139604356Y-102650972D01*
X139567879Y-102653705D01*
X139464424Y-102661458D01*
X139333797Y-102712726D01*
X139224087Y-102800216D01*
X139224085Y-102800218D01*
X139145036Y-102916162D01*
X139103676Y-103050252D01*
X139103676Y-103885297D01*
X135184676Y-103885297D01*
X135184676Y-103085529D01*
X135169020Y-102981656D01*
X135169018Y-102981653D01*
X135169017Y-102981647D01*
X135108136Y-102855228D01*
X135108135Y-102855227D01*
X135012690Y-102752362D01*
X135012686Y-102752359D01*
X134891165Y-102682199D01*
X134891159Y-102682196D01*
X134754360Y-102650972D01*
X134754356Y-102650972D01*
X134717879Y-102653705D01*
X134614424Y-102661458D01*
X134483797Y-102712726D01*
X134374087Y-102800216D01*
X134374085Y-102800218D01*
X134295036Y-102916162D01*
X134253676Y-103050252D01*
X134253676Y-103885297D01*
X128582033Y-103885297D01*
X128591412Y-103832108D01*
X128573010Y-103727745D01*
X128573009Y-103727743D01*
X128573009Y-103727742D01*
X128520025Y-103635971D01*
X128520023Y-103635968D01*
X128438844Y-103567851D01*
X128339262Y-103531608D01*
X128233290Y-103531608D01*
X128133707Y-103567851D01*
X128052528Y-103635968D01*
X128052526Y-103635971D01*
X127999542Y-103727742D01*
X127995254Y-103752061D01*
X127981140Y-103832108D01*
X127870557Y-103832108D01*
X127824342Y-103752062D01*
X127824340Y-103752059D01*
X127743161Y-103683942D01*
X127643579Y-103647699D01*
X127537607Y-103647699D01*
X127438024Y-103683942D01*
X127356845Y-103752059D01*
X127356843Y-103752062D01*
X127303859Y-103843833D01*
X127285457Y-103948199D01*
X125930500Y-103948199D01*
X125930500Y-103397477D01*
X126743872Y-103397477D01*
X126762274Y-103501842D01*
X126815258Y-103593613D01*
X126815260Y-103593616D01*
X126896439Y-103661733D01*
X126996022Y-103697977D01*
X127101994Y-103697977D01*
X127201576Y-103661733D01*
X127282755Y-103593616D01*
X127282757Y-103593613D01*
X127335741Y-103501842D01*
X127335741Y-103501841D01*
X127335742Y-103501840D01*
X127354144Y-103397477D01*
X127335742Y-103293114D01*
X127335741Y-103293112D01*
X127335741Y-103293111D01*
X127282757Y-103201340D01*
X127282755Y-103201337D01*
X127201576Y-103133220D01*
X127101994Y-103096977D01*
X126996022Y-103096977D01*
X126896439Y-103133220D01*
X126815260Y-103201337D01*
X126815258Y-103201340D01*
X126762274Y-103293111D01*
X126743872Y-103397477D01*
X125930500Y-103397477D01*
X125930500Y-102542243D01*
X128002283Y-102542243D01*
X128020685Y-102646609D01*
X128073669Y-102738380D01*
X128073671Y-102738383D01*
X128154850Y-102806500D01*
X128254433Y-102842744D01*
X128360405Y-102842744D01*
X128459987Y-102806500D01*
X128541166Y-102738383D01*
X128541168Y-102738380D01*
X128594152Y-102646609D01*
X128594152Y-102646608D01*
X128594153Y-102646607D01*
X128612555Y-102542244D01*
X128594153Y-102437881D01*
X128594152Y-102437879D01*
X128594152Y-102437878D01*
X128541168Y-102346107D01*
X128541166Y-102346104D01*
X128459987Y-102277987D01*
X128360405Y-102241744D01*
X128254433Y-102241744D01*
X128154850Y-102277987D01*
X128073671Y-102346104D01*
X128073669Y-102346107D01*
X128020685Y-102437878D01*
X128002283Y-102542243D01*
X125930500Y-102542243D01*
X125930500Y-102163983D01*
X135002461Y-102163983D01*
X135020863Y-102268348D01*
X135073847Y-102360119D01*
X135073849Y-102360122D01*
X135155028Y-102428239D01*
X135254611Y-102464483D01*
X135360583Y-102464483D01*
X135460165Y-102428239D01*
X135541344Y-102360122D01*
X135541346Y-102360119D01*
X135544182Y-102355208D01*
X135584465Y-102285434D01*
X135594330Y-102268348D01*
X135594330Y-102268347D01*
X135594331Y-102268346D01*
X135612733Y-102163983D01*
X135599564Y-102089296D01*
X137400333Y-102089296D01*
X137418735Y-102193661D01*
X137471719Y-102285432D01*
X137471721Y-102285435D01*
X137552900Y-102353552D01*
X137652483Y-102389796D01*
X137758455Y-102389796D01*
X137858037Y-102353552D01*
X137939216Y-102285435D01*
X137939218Y-102285432D01*
X137943517Y-102277987D01*
X137992203Y-102193659D01*
X138010605Y-102089296D01*
X138004506Y-102054708D01*
X138771086Y-102054708D01*
X138789488Y-102159073D01*
X138842472Y-102250844D01*
X138842474Y-102250847D01*
X138923653Y-102318964D01*
X139023236Y-102355208D01*
X139129208Y-102355208D01*
X139228790Y-102318964D01*
X139309969Y-102250847D01*
X139309971Y-102250844D01*
X139362955Y-102159073D01*
X139362955Y-102159072D01*
X139362956Y-102159071D01*
X139381358Y-102054708D01*
X139362956Y-101950345D01*
X139362955Y-101950343D01*
X139362955Y-101950342D01*
X139309971Y-101858571D01*
X139309969Y-101858568D01*
X139228790Y-101790451D01*
X139129208Y-101754208D01*
X139023236Y-101754208D01*
X138923653Y-101790451D01*
X138842474Y-101858568D01*
X138842472Y-101858571D01*
X138789488Y-101950342D01*
X138771086Y-102054708D01*
X138004506Y-102054708D01*
X137992203Y-101984933D01*
X137992202Y-101984931D01*
X137992202Y-101984930D01*
X137939218Y-101893159D01*
X137939216Y-101893156D01*
X137858037Y-101825039D01*
X137758455Y-101788796D01*
X137652483Y-101788796D01*
X137552900Y-101825039D01*
X137471721Y-101893156D01*
X137471719Y-101893159D01*
X137418735Y-101984930D01*
X137400333Y-102089296D01*
X135599564Y-102089296D01*
X135594331Y-102059620D01*
X135594330Y-102059618D01*
X135594330Y-102059617D01*
X135541346Y-101967846D01*
X135541344Y-101967843D01*
X135460165Y-101899726D01*
X135360583Y-101863483D01*
X135254611Y-101863483D01*
X135155028Y-101899726D01*
X135073849Y-101967843D01*
X135073847Y-101967846D01*
X135020863Y-102059617D01*
X135002461Y-102163983D01*
X125930500Y-102163983D01*
X125930500Y-101264852D01*
X130794459Y-101264852D01*
X130798737Y-101289113D01*
X130812861Y-101369217D01*
X130865845Y-101460988D01*
X130865847Y-101460991D01*
X130947026Y-101529108D01*
X131046609Y-101565352D01*
X131152581Y-101565352D01*
X131252163Y-101529108D01*
X131333342Y-101460991D01*
X131333344Y-101460988D01*
X131386328Y-101369217D01*
X131386328Y-101369216D01*
X131386329Y-101369215D01*
X131404731Y-101264852D01*
X131386329Y-101160489D01*
X131386328Y-101160487D01*
X131386328Y-101160486D01*
X131350126Y-101097782D01*
X133718675Y-101097782D01*
X133723451Y-101137109D01*
X133734036Y-101224286D01*
X133744006Y-101250575D01*
X133794357Y-101383343D01*
X133794358Y-101383345D01*
X133883235Y-101512104D01*
X133890993Y-101523343D01*
X134018324Y-101636148D01*
X134168951Y-101715204D01*
X134334120Y-101755914D01*
X134504232Y-101755914D01*
X134669401Y-101715204D01*
X134820028Y-101636148D01*
X134947359Y-101523343D01*
X135043994Y-101383344D01*
X135104316Y-101224286D01*
X135119676Y-101097786D01*
X135119676Y-100642414D01*
X135134028Y-100607766D01*
X135168676Y-100593414D01*
X139119676Y-100593414D01*
X139154324Y-100607766D01*
X139168676Y-100642414D01*
X139168676Y-101097786D01*
X139184036Y-101224286D01*
X139194006Y-101250575D01*
X139244357Y-101383343D01*
X139244358Y-101383345D01*
X139333235Y-101512104D01*
X139340993Y-101523343D01*
X139468324Y-101636148D01*
X139618951Y-101715204D01*
X139784120Y-101755914D01*
X139954232Y-101755914D01*
X140119401Y-101715204D01*
X140270028Y-101636148D01*
X140397359Y-101523343D01*
X140403234Y-101514832D01*
X143517781Y-101514832D01*
X143536183Y-101619197D01*
X143589167Y-101710968D01*
X143589169Y-101710971D01*
X143670348Y-101779088D01*
X143769931Y-101815332D01*
X143875903Y-101815332D01*
X143975485Y-101779088D01*
X144056664Y-101710971D01*
X144056666Y-101710968D01*
X144109650Y-101619197D01*
X144109650Y-101619196D01*
X144109651Y-101619195D01*
X144128053Y-101514832D01*
X144109651Y-101410469D01*
X144109650Y-101410467D01*
X144109650Y-101410466D01*
X144056666Y-101318695D01*
X144056664Y-101318692D01*
X143975485Y-101250575D01*
X143875903Y-101214332D01*
X143769931Y-101214332D01*
X143670348Y-101250575D01*
X143589169Y-101318692D01*
X143589167Y-101318695D01*
X143536183Y-101410466D01*
X143517781Y-101514832D01*
X140403234Y-101514832D01*
X140493994Y-101383344D01*
X140554316Y-101224286D01*
X140569676Y-101097786D01*
X140569676Y-99813042D01*
X140554316Y-99686542D01*
X140493994Y-99527484D01*
X140397359Y-99387485D01*
X140270028Y-99274680D01*
X140270020Y-99274676D01*
X140270019Y-99274675D01*
X140119400Y-99195623D01*
X139954232Y-99154914D01*
X139784120Y-99154914D01*
X139618951Y-99195623D01*
X139468332Y-99274675D01*
X139468327Y-99274678D01*
X139468324Y-99274680D01*
X139468320Y-99274682D01*
X139468322Y-99274682D01*
X139340992Y-99387485D01*
X139244358Y-99527482D01*
X139244357Y-99527484D01*
X139184037Y-99686539D01*
X139184036Y-99686542D01*
X139168676Y-99813042D01*
X139168676Y-99813045D01*
X139168676Y-100268414D01*
X139154324Y-100303062D01*
X139119676Y-100317414D01*
X135168676Y-100317414D01*
X135134028Y-100303062D01*
X135119676Y-100268414D01*
X135119676Y-99813045D01*
X135119676Y-99813042D01*
X135104316Y-99686542D01*
X135043994Y-99527484D01*
X134947359Y-99387485D01*
X134820028Y-99274680D01*
X134820020Y-99274676D01*
X134820019Y-99274675D01*
X134669400Y-99195623D01*
X134576435Y-99172710D01*
X135837458Y-99172710D01*
X135855860Y-99277075D01*
X135908844Y-99368846D01*
X135908846Y-99368849D01*
X135990025Y-99436966D01*
X136089608Y-99473210D01*
X136195580Y-99473210D01*
X136295162Y-99436966D01*
X136376341Y-99368849D01*
X136376343Y-99368846D01*
X136429327Y-99277075D01*
X136429327Y-99277074D01*
X136429328Y-99277073D01*
X136447730Y-99172710D01*
X137566213Y-99172710D01*
X137584615Y-99277075D01*
X137637599Y-99368846D01*
X137637601Y-99368849D01*
X137718780Y-99436966D01*
X137818363Y-99473210D01*
X137924335Y-99473210D01*
X138023917Y-99436966D01*
X138105096Y-99368849D01*
X138105098Y-99368846D01*
X138158082Y-99277075D01*
X138158082Y-99277074D01*
X138158083Y-99277073D01*
X138176485Y-99172710D01*
X138158083Y-99068347D01*
X138158082Y-99068345D01*
X138158082Y-99068344D01*
X138105098Y-98976573D01*
X138105096Y-98976570D01*
X138023917Y-98908453D01*
X137924335Y-98872210D01*
X137818363Y-98872210D01*
X137718780Y-98908453D01*
X137637601Y-98976570D01*
X137637599Y-98976573D01*
X137584615Y-99068344D01*
X137566213Y-99172710D01*
X136447730Y-99172710D01*
X136429328Y-99068347D01*
X136429327Y-99068345D01*
X136429327Y-99068344D01*
X136376343Y-98976573D01*
X136376341Y-98976570D01*
X136295162Y-98908453D01*
X136195580Y-98872210D01*
X136089608Y-98872210D01*
X135990025Y-98908453D01*
X135908846Y-98976570D01*
X135908844Y-98976573D01*
X135855860Y-99068344D01*
X135837458Y-99172710D01*
X134576435Y-99172710D01*
X134504232Y-99154914D01*
X134334120Y-99154914D01*
X134168951Y-99195623D01*
X134018332Y-99274675D01*
X134018327Y-99274678D01*
X134018324Y-99274680D01*
X134018320Y-99274682D01*
X134018322Y-99274682D01*
X133890992Y-99387485D01*
X133794358Y-99527482D01*
X133794357Y-99527484D01*
X133734037Y-99686539D01*
X133734036Y-99686542D01*
X133726356Y-99749792D01*
X133718675Y-99813045D01*
X133718675Y-101097782D01*
X131350126Y-101097782D01*
X131333344Y-101068715D01*
X131333342Y-101068712D01*
X131252163Y-101000595D01*
X131152581Y-100964352D01*
X131046609Y-100964352D01*
X130947026Y-101000595D01*
X130865847Y-101068712D01*
X130865845Y-101068715D01*
X130812861Y-101160486D01*
X130798139Y-101243979D01*
X130794459Y-101264852D01*
X125930500Y-101264852D01*
X125930500Y-100005525D01*
X128036642Y-100005525D01*
X128057554Y-100164374D01*
X128118866Y-100312395D01*
X128118869Y-100312400D01*
X128146784Y-100348780D01*
X128216406Y-100439512D01*
X128343518Y-100537049D01*
X128343520Y-100537049D01*
X128343522Y-100537051D01*
X128454255Y-100582918D01*
X128491543Y-100598363D01*
X128610508Y-100614025D01*
X128610512Y-100614025D01*
X128690274Y-100614025D01*
X128690278Y-100614025D01*
X128809243Y-100598363D01*
X128957268Y-100537049D01*
X129084380Y-100439512D01*
X129181917Y-100312401D01*
X129243231Y-100164375D01*
X129264144Y-100005525D01*
X130068642Y-100005525D01*
X130089554Y-100164374D01*
X130150866Y-100312395D01*
X130150869Y-100312400D01*
X130178784Y-100348780D01*
X130248406Y-100439512D01*
X130375518Y-100537049D01*
X130375520Y-100537049D01*
X130375522Y-100537051D01*
X130486255Y-100582918D01*
X130523543Y-100598363D01*
X130642508Y-100614025D01*
X130642512Y-100614025D01*
X130722274Y-100614025D01*
X130722278Y-100614025D01*
X130841243Y-100598363D01*
X130989268Y-100537049D01*
X131116380Y-100439512D01*
X131213917Y-100312401D01*
X131275231Y-100164375D01*
X131296144Y-100005525D01*
X131275231Y-99846675D01*
X131213917Y-99698650D01*
X131116380Y-99571538D01*
X131116377Y-99571536D01*
X130989268Y-99474001D01*
X130989263Y-99473998D01*
X130841242Y-99412686D01*
X130759468Y-99401921D01*
X130722278Y-99397025D01*
X130642508Y-99397025D01*
X130608827Y-99401459D01*
X130523543Y-99412686D01*
X130375522Y-99473998D01*
X130375517Y-99474001D01*
X130248407Y-99571536D01*
X130150869Y-99698648D01*
X130150866Y-99698653D01*
X130089554Y-99846675D01*
X130068642Y-100005525D01*
X129264144Y-100005525D01*
X129243231Y-99846675D01*
X129181917Y-99698650D01*
X129084380Y-99571538D01*
X129084377Y-99571536D01*
X128957268Y-99474001D01*
X128957263Y-99473998D01*
X128809242Y-99412686D01*
X128727468Y-99401921D01*
X128690278Y-99397025D01*
X128610508Y-99397025D01*
X128576827Y-99401459D01*
X128491543Y-99412686D01*
X128343522Y-99473998D01*
X128343517Y-99474001D01*
X128216407Y-99571536D01*
X128118869Y-99698648D01*
X128118866Y-99698653D01*
X128057554Y-99846675D01*
X128036642Y-100005525D01*
X125930500Y-100005525D01*
X125930500Y-98729500D01*
X125944852Y-98694852D01*
X125979500Y-98680500D01*
X153020500Y-98680500D01*
X153055148Y-98694852D01*
G37*
%TD.AperFunction*%
%TD*%
D15*
X152000000Y-117500000D02*
X125750000Y-117500000D01*
X125750000Y-117500000D02*
X125750000Y-98500000D01*
X125750000Y-98500000D02*
X153250000Y-98500000D01*
X153250000Y-98500000D02*
X153250000Y-116000000D01*
X153250000Y-116000000D02*
X153000000Y-116000000D01*
X153000000Y-116000000D02*
G75*
G03*
X152000000Y-117000000I0J-1000000D01*
G01*
X152000000Y-117000000D02*
X152000000Y-117500000D01*
M02*
