%TF.GenerationSoftware,KiCad,Pcbnew,7.0.7*%
%TF.CreationDate,2024-01-11T19:31:21-08:00*%
%TF.ProjectId,beeper-design,62656570-6572-42d6-9465-7369676e2e6b,rev?*%
%TF.SameCoordinates,Original*%
%TF.FileFunction,Copper,L3,Inr*%
%TF.FilePolarity,Positive*%
%FSLAX46Y46*%
G04 Gerber Fmt 4.6, Leading zero omitted, Abs format (unit mm)*
G04 Created by KiCad (PCBNEW 7.0.7) date 2024-01-11 19:31:21*
%MOMM*%
%LPD*%
G01*
G04 APERTURE LIST*
%TA.AperFunction,ComponentPad*%
%ADD10O,0.730000X1.460000*%
%TD*%
%TA.AperFunction,ComponentPad*%
%ADD11O,1.200000X2.400000*%
%TD*%
%TA.AperFunction,ViaPad*%
%ADD12C,0.400000*%
%TD*%
%TA.AperFunction,ViaPad*%
%ADD13C,0.250000*%
%TD*%
%TA.AperFunction,Conductor*%
%ADD14C,0.075000*%
%TD*%
%TA.AperFunction,Profile*%
%ADD15C,0.050000*%
%TD*%
G04 APERTURE END LIST*
D10*
%TO.N,SHIELD*%
%TO.C,J6*%
X134719176Y-103485414D03*
X139569176Y-103485414D03*
D11*
X134419176Y-100455414D03*
X139869176Y-100455414D03*
%TD*%
D12*
%TO.N,codec-i2c-net_scl*%
X149104000Y-105433494D03*
D13*
%TO.N,mcu_mcu-wpwr1_gpio*%
X140305165Y-111160086D03*
D12*
X143822917Y-101514832D03*
D13*
%TO.N,CLAMP1*%
X146563236Y-101699687D03*
D12*
X147538753Y-104259505D03*
D13*
%TO.N,mcu_mcu-mem_sdio1*%
X143812568Y-115468836D03*
D12*
%TO.N,SHIELD*%
X136142594Y-99172710D03*
X137871349Y-99172710D03*
D13*
%TO.N,mcu_mcu-etm_data0*%
X138505165Y-111160086D03*
D12*
X137135702Y-106775555D03*
%TO.N,VBAT*%
X139561513Y-105189671D03*
D13*
%TO.N,mcu_mcu-mem_sdio2*%
X140305165Y-111610086D03*
X143812568Y-115868836D03*
D12*
%TO.N,codec-i2c-net_sda*%
X142405550Y-112118891D03*
X147306899Y-111638234D03*
%TO.N,VBUS*%
X135307597Y-102163983D03*
%TO.N,mcu_hap-gpio1_gpio*%
X134334368Y-105632680D03*
D13*
X138055165Y-111610086D03*
D12*
%TO.N,OUT+*%
X132066160Y-106806138D03*
D13*
%TO.N,mcu_mcu-mem_sck*%
X144512568Y-115868836D03*
X140305165Y-112510086D03*
%TO.N,mcu_mcu-mem_cs*%
X140755165Y-111160086D03*
X143812568Y-115068836D03*
%TO.N,mcu_mcu-mem_sdio0*%
X144162568Y-115668836D03*
X139405165Y-111160086D03*
D12*
%TO.N,mcu_hap-i2c_scl*%
X133976982Y-104745882D03*
D13*
X137605165Y-112060086D03*
D12*
%TO.N,mcu_mcu-button2_gpio*%
X142694670Y-112843262D03*
D13*
X140755165Y-111610086D03*
D12*
%TO.N,CLAMP2*%
X146170132Y-100282418D03*
D13*
X146563236Y-101299687D03*
%TO.N,mcu_mcu-wpwr0_gpio*%
X140305165Y-110710086D03*
D12*
X144600759Y-102778021D03*
D13*
%TO.N,mcu_mcu-etm_data2*%
X138955165Y-111160086D03*
D12*
X138331450Y-106815731D03*
X136249569Y-109365791D03*
D13*
%TO.N,SP_P*%
X151354476Y-106915097D03*
D12*
%TO.N,mcu_dbg-m33_swdclk*%
X127049008Y-103397477D03*
%TO.N,D-*%
X136498775Y-104496893D03*
X142800540Y-114330652D03*
%TO.N,nAD-EN*%
X145376382Y-102351168D03*
D13*
X146163236Y-101699687D03*
D12*
X139076222Y-102054708D03*
%TO.N,QVAR1*%
X130784824Y-109115470D03*
%TO.N,mcu_dbg-m33_swdio*%
X127590593Y-103948199D03*
X136132564Y-113110803D03*
D13*
%TO.N,SP_N*%
X151694476Y-107165097D03*
D12*
%TO.N,GND*%
X142992066Y-101488315D03*
D13*
X151354476Y-104415097D03*
D12*
X126240526Y-108423762D03*
X152711911Y-111192564D03*
X138465131Y-104529666D03*
X126259751Y-103538415D03*
X148605548Y-102305725D03*
X129713698Y-109601468D03*
X126259751Y-104094665D03*
D13*
X138505165Y-110260086D03*
X136705165Y-112060086D03*
X140218368Y-107384999D03*
X139405165Y-111610086D03*
D12*
X142329149Y-104880616D03*
X133897649Y-117005688D03*
D13*
X141191434Y-113867717D03*
X136407665Y-113617586D03*
D12*
X126253026Y-109467512D03*
X152778498Y-102986930D03*
X152711911Y-111784766D03*
D13*
X138505165Y-114760086D03*
D12*
X152772248Y-102455680D03*
D13*
X136705165Y-112960086D03*
D12*
X133890953Y-112656040D03*
X134419031Y-117022690D03*
D13*
X136407665Y-114967586D03*
X137155165Y-112960086D03*
D12*
X146498655Y-113498351D03*
D13*
X138955165Y-112060086D03*
D12*
X152834748Y-99255680D03*
X126246776Y-108942512D03*
X133387602Y-117000021D03*
D13*
X139405165Y-112510086D03*
D12*
X152815998Y-99780680D03*
X149165106Y-106915827D03*
X144168737Y-114869371D03*
D13*
X136857665Y-114967586D03*
D12*
X132354230Y-117002334D03*
X152790998Y-100843180D03*
D13*
X139855165Y-112510086D03*
D12*
X152772248Y-101911930D03*
X131841349Y-117005168D03*
D13*
X141655165Y-109810086D03*
X138055165Y-110260086D03*
D12*
X132872778Y-117002334D03*
D13*
X138505165Y-111610086D03*
D12*
X152803498Y-100311930D03*
X152703073Y-110618040D03*
D13*
X137757665Y-114517586D03*
D12*
X126240526Y-109992512D03*
X126246776Y-107905012D03*
X126244945Y-99856584D03*
X135461795Y-117005688D03*
X126253501Y-101950915D03*
D13*
X141655165Y-111610086D03*
D12*
X152720750Y-110052354D03*
X142647398Y-110810142D03*
X126253026Y-105798762D03*
X126258203Y-100373656D03*
X152694234Y-113720471D03*
X152711911Y-115125845D03*
X126253501Y-100894665D03*
X128251091Y-101228437D03*
D13*
X137757665Y-114967586D03*
D12*
X152694234Y-114409900D03*
X134934746Y-117017023D03*
X152772248Y-103511930D03*
D13*
X139405165Y-112060086D03*
D12*
X147316827Y-109072434D03*
X152703073Y-113075236D03*
X126272251Y-104650915D03*
X149161034Y-108872389D03*
D13*
X139855165Y-112060086D03*
D12*
X126247251Y-103000915D03*
X135697203Y-111949233D03*
D13*
X136407665Y-114067586D03*
D12*
X131401879Y-107139540D03*
X138348657Y-105724581D03*
X152729402Y-115643825D03*
X126280462Y-105271625D03*
D13*
X138955165Y-111610086D03*
D12*
X126240526Y-107373762D03*
X152772248Y-101368180D03*
X126249365Y-99335093D03*
X126253501Y-102450915D03*
X126240526Y-110517512D03*
X126253501Y-101432165D03*
X126246776Y-106317512D03*
X135228775Y-101572145D03*
X131325197Y-117003876D03*
D13*
X151354476Y-106415097D03*
D12*
X126246776Y-106836262D03*
X140846657Y-105538118D03*
X152711911Y-112421162D03*
X130804246Y-116979832D03*
D13*
%TO.N,mcu_hap-gpio0_gpio*%
X138055165Y-111160086D03*
D12*
%TO.N,VDD1P8*%
X135253660Y-106168638D03*
X149575571Y-105108471D03*
X146978728Y-100521254D03*
X135245811Y-105084379D03*
D13*
X141205165Y-110710086D03*
D12*
X130773738Y-108610382D03*
X152205282Y-106653960D03*
X145126723Y-113950183D03*
X133173574Y-104909491D03*
X137705469Y-102089296D03*
X145736583Y-111169977D03*
X129970343Y-110296899D03*
X149243195Y-106235422D03*
X133758692Y-109149897D03*
X146953008Y-102478299D03*
D13*
X140755165Y-109810086D03*
D12*
X144681473Y-108944675D03*
X128286276Y-103832108D03*
X144672634Y-108471798D03*
%TO.N,mcu_mcu-etm_data3*%
X137906777Y-108725171D03*
D13*
X139405165Y-110710086D03*
D12*
%TO.N,AC2*%
X149361022Y-100462983D03*
%TO.N,QVAR2*%
X141115303Y-116773148D03*
%TO.N,FOD*%
X145395132Y-101008981D03*
D13*
X146163236Y-101299687D03*
D12*
%TO.N,LX*%
X143543940Y-108319721D03*
D13*
%TO.N,mcu_mcu-mem_sdio3*%
X140755165Y-112510086D03*
X144512568Y-115468836D03*
D12*
%TO.N,mcu_mcu-uart_tx*%
X131099595Y-101264852D03*
D13*
X138055165Y-112060086D03*
D12*
%TO.N,cap_p1*%
X149451016Y-101838435D03*
D13*
%TO.N,mcu_mcu-etm_clk*%
X139855165Y-110710086D03*
D12*
X136813812Y-105468849D03*
D13*
%TO.N,mcu_mcu-uart_rx*%
X138505165Y-112060086D03*
D12*
X128307419Y-102542244D03*
%TO.N,VDD_IO*%
X152536167Y-107037869D03*
X149775319Y-108083497D03*
%TO.N,OUT-*%
X132078660Y-105549888D03*
D13*
%TO.N,RECT*%
X147363236Y-101299687D03*
D12*
X147432192Y-100388488D03*
%TO.N,board-io_rgb_r*%
X139570173Y-108951200D03*
X142899067Y-104366671D03*
%TO.N,mcu_q-spi_sdi*%
X132328370Y-107500892D03*
X136085542Y-110946589D03*
%TO.N,mcu_hap-i2c_sda*%
X137982440Y-109241617D03*
X138776380Y-109309812D03*
%TO.N,mcu_mcu-wpwr2_gpio*%
X146062497Y-102528897D03*
D13*
X140755165Y-110710086D03*
D12*
%TO.N,D+*%
X142306465Y-114008336D03*
X137170614Y-104537859D03*
%TO.N,mcu_mcu-wpwr3_gpio*%
X145245596Y-100348780D03*
D13*
X139855165Y-111160086D03*
D12*
%TO.N,mcu_mcu-etm_data1*%
X138610093Y-108833959D03*
D13*
X138955165Y-110710086D03*
D12*
%TO.N,V14RF*%
X143452612Y-109789874D03*
X139386679Y-116595891D03*
%TD*%
D14*
%TO.N,mcu_hap-gpio1_gpio*%
X134334368Y-105632680D02*
X136633308Y-109159564D01*
X136639780Y-109170087D02*
G75*
G03*
X136633308Y-109159564I-204780J-118713D01*
G01*
X136639783Y-109170085D02*
X138055165Y-111610086D01*
%TO.N,mcu_hap-i2c_scl*%
X133976982Y-104745882D02*
X133897855Y-105611049D01*
X133897862Y-105611050D02*
G75*
G03*
X133901432Y-105679014I236538J-21650D01*
G01*
X133901431Y-105679014D02*
X133916655Y-105755551D01*
X133916653Y-105755551D02*
G75*
G03*
X133941946Y-105824494I232947J46351D01*
G01*
X133941945Y-105824494D02*
X135977363Y-109490866D01*
X135977363Y-109490866D02*
G75*
G03*
X135980324Y-109495853I87637J48666D01*
G01*
X135980323Y-109495853D02*
X137605165Y-112060086D01*
%TO.N,nAD-EN*%
X139076222Y-102054708D02*
X145376382Y-102351168D01*
%TO.N,mcu_mcu-uart_tx*%
X131099595Y-101264852D02*
X134191079Y-104535771D01*
X134201552Y-104548903D02*
G75*
G03*
X134191079Y-104535771I-83052J-55497D01*
G01*
X134201550Y-104548904D02*
X134244905Y-104613788D01*
X134259827Y-104649838D02*
G75*
G03*
X134244905Y-104613788I-98027J-19462D01*
G01*
X134259836Y-104649836D02*
X134275060Y-104726373D01*
X134275067Y-104765392D02*
G75*
G03*
X134275060Y-104726373I-98067J19492D01*
G01*
X134275060Y-104765391D02*
X134259836Y-104841928D01*
X134257501Y-104851262D02*
G75*
G03*
X134259835Y-104841928I-95601J28862D01*
G01*
X134257507Y-104851264D02*
X134053843Y-105527298D01*
X134053841Y-105527297D02*
G75*
G03*
X134051514Y-105536634I96059J-28903D01*
G01*
X134051513Y-105536634D02*
X134036289Y-105613171D01*
X134036298Y-105613173D02*
G75*
G03*
X134036290Y-105652189I98102J-19527D01*
G01*
X134036289Y-105652189D02*
X134051513Y-105728726D01*
X134051509Y-105728727D02*
G75*
G03*
X134066445Y-105764774I98091J19527D01*
G01*
X134066445Y-105764774D02*
X134109799Y-105829658D01*
X134109800Y-105829657D02*
G75*
G03*
X134111336Y-105831889I88700J59357D01*
G01*
X134111335Y-105831890D02*
X136472602Y-109166581D01*
X136474137Y-109168813D02*
G75*
G03*
X136472601Y-109166581I-84637J-56587D01*
G01*
X136474137Y-109168813D02*
X136517492Y-109233698D01*
X136522346Y-109241772D02*
G75*
G03*
X136517492Y-109233698I-88346J-47628D01*
G01*
X136522351Y-109241769D02*
X137851674Y-111705407D01*
X137851675Y-111705406D02*
G75*
G03*
X137852947Y-111707693I84325J45406D01*
G01*
X137852946Y-111707693D02*
X138055165Y-112060086D01*
%TO.N,mcu_mcu-uart_rx*%
X138505165Y-112060086D02*
X138152772Y-112262305D01*
X138122510Y-112273653D02*
G75*
G03*
X138152772Y-112262305I-19510J98053D01*
G01*
X138122509Y-112273649D02*
X138074674Y-112283164D01*
X138055165Y-112285077D02*
G75*
G03*
X138074674Y-112283164I35J100077D01*
G01*
X138055165Y-112285086D02*
X137605165Y-112285086D01*
X137585657Y-112283159D02*
G75*
G03*
X137605165Y-112285086I19543J98159D01*
G01*
X137585656Y-112283164D02*
X137537820Y-112273649D01*
X137501769Y-112258722D02*
G75*
G03*
X137537820Y-112273649I55531J83122D01*
G01*
X137501772Y-112258718D02*
X137461219Y-112231621D01*
X137437633Y-112209580D02*
G75*
G03*
X137461219Y-112231620I79167J61080D01*
G01*
X137437623Y-112209587D02*
X136306117Y-110744055D01*
X136306114Y-110744057D02*
G75*
G03*
X136298715Y-110735514I-79114J-61043D01*
G01*
X136298715Y-110735514D02*
X132279333Y-106595062D01*
X132279296Y-106595091D02*
G75*
G03*
X132279000Y-106594722I-1206021120J-967146733D01*
G01*
X132279001Y-106594722D02*
X128307419Y-102542244D01*
%TO.N,mcu_mcu-wpwr2_gpio*%
X140755165Y-110710086D02*
X146062497Y-102528897D01*
%TO.N,V14RF*%
X139386679Y-116595891D02*
X140988964Y-113770551D01*
X140991879Y-113765736D02*
G75*
G03*
X140988964Y-113770551I84221J-54264D01*
G01*
X140991877Y-113765735D02*
X142136702Y-111988207D01*
X142137627Y-111986797D02*
G75*
G03*
X142136702Y-111988207I92773J-61903D01*
G01*
X142137627Y-111986797D02*
X142180982Y-111921913D01*
X142184353Y-111917175D02*
G75*
G03*
X142180982Y-111921913I78947J-59725D01*
G01*
X142184352Y-111917174D02*
X142868596Y-111011859D01*
X142868594Y-111011857D02*
G75*
G03*
X142871965Y-111007120I-80494J60857D01*
G01*
X142871966Y-111007120D02*
X142915320Y-110942235D01*
X142915321Y-110942235D02*
G75*
G03*
X142922845Y-110928852I-83121J55535D01*
G01*
X142922845Y-110928852D02*
X143452612Y-109789874D01*
%TD*%
%TA.AperFunction,Conductor*%
%TO.N,VDD1P8*%
G36*
X153065399Y-98684601D02*
G01*
X153069500Y-98694500D01*
X153069500Y-99030360D01*
X153065399Y-99040259D01*
X153055500Y-99044360D01*
X153046501Y-99041085D01*
X152987316Y-98991424D01*
X152887735Y-98955180D01*
X152887734Y-98955180D01*
X152781762Y-98955180D01*
X152781760Y-98955180D01*
X152682180Y-98991424D01*
X152600997Y-99059544D01*
X152548013Y-99151317D01*
X152529612Y-99255677D01*
X152529612Y-99255682D01*
X152548013Y-99360042D01*
X152600997Y-99451815D01*
X152600999Y-99451817D01*
X152601000Y-99451818D01*
X152635776Y-99480998D01*
X152657931Y-99499588D01*
X152662879Y-99509093D01*
X152659657Y-99519312D01*
X152657931Y-99521038D01*
X152582247Y-99584544D01*
X152529263Y-99676317D01*
X152510862Y-99780677D01*
X152510862Y-99780682D01*
X152529263Y-99885042D01*
X152582247Y-99976815D01*
X152582249Y-99976817D01*
X152582250Y-99976818D01*
X152646030Y-100030335D01*
X152650978Y-100039840D01*
X152647756Y-100050059D01*
X152646030Y-100051785D01*
X152569747Y-100115794D01*
X152516763Y-100207567D01*
X152498362Y-100311927D01*
X152498362Y-100311932D01*
X152516763Y-100416292D01*
X152569747Y-100508065D01*
X152569749Y-100508067D01*
X152569750Y-100508068D01*
X152633530Y-100561585D01*
X152638478Y-100571090D01*
X152635256Y-100581309D01*
X152633530Y-100583035D01*
X152557247Y-100647044D01*
X152504263Y-100738817D01*
X152485862Y-100843177D01*
X152485862Y-100843182D01*
X152504263Y-100947542D01*
X152557247Y-101039315D01*
X152557249Y-101039317D01*
X152557250Y-101039318D01*
X152614181Y-101087088D01*
X152619129Y-101096593D01*
X152615907Y-101106812D01*
X152614181Y-101108538D01*
X152538497Y-101172044D01*
X152485513Y-101263817D01*
X152467112Y-101368177D01*
X152467112Y-101368182D01*
X152485513Y-101472542D01*
X152538497Y-101564315D01*
X152538499Y-101564317D01*
X152538500Y-101564318D01*
X152583852Y-101602372D01*
X152615978Y-101629330D01*
X152620926Y-101638835D01*
X152617704Y-101649054D01*
X152615978Y-101650780D01*
X152538497Y-101715794D01*
X152485513Y-101807567D01*
X152467112Y-101911927D01*
X152467112Y-101911932D01*
X152485513Y-102016292D01*
X152538497Y-102108065D01*
X152538499Y-102108067D01*
X152538500Y-102108068D01*
X152540313Y-102109589D01*
X152615978Y-102173080D01*
X152620926Y-102182585D01*
X152617704Y-102192804D01*
X152615978Y-102194530D01*
X152538497Y-102259544D01*
X152485513Y-102351317D01*
X152467112Y-102455677D01*
X152467112Y-102455682D01*
X152485513Y-102560042D01*
X152538497Y-102651815D01*
X152538499Y-102651817D01*
X152538500Y-102651818D01*
X152611395Y-102712984D01*
X152611655Y-102713202D01*
X152616603Y-102722707D01*
X152613381Y-102732926D01*
X152611655Y-102734652D01*
X152544747Y-102790794D01*
X152491763Y-102882567D01*
X152473362Y-102986927D01*
X152473362Y-102986932D01*
X152491763Y-103091292D01*
X152544747Y-103183065D01*
X152544749Y-103183067D01*
X152544750Y-103183068D01*
X152607931Y-103236083D01*
X152612879Y-103245587D01*
X152609657Y-103255806D01*
X152607931Y-103257532D01*
X152538497Y-103315794D01*
X152485513Y-103407567D01*
X152467112Y-103511927D01*
X152467112Y-103511932D01*
X152485513Y-103616292D01*
X152538497Y-103708065D01*
X152538499Y-103708067D01*
X152538500Y-103708068D01*
X152619680Y-103776186D01*
X152719262Y-103812430D01*
X152719263Y-103812430D01*
X152825233Y-103812430D01*
X152825234Y-103812430D01*
X152924816Y-103776186D01*
X153005996Y-103708068D01*
X153019925Y-103683943D01*
X153043376Y-103643324D01*
X153051876Y-103636801D01*
X153062500Y-103638200D01*
X153069023Y-103646700D01*
X153069500Y-103650324D01*
X153069500Y-115805500D01*
X153065399Y-115815399D01*
X153055500Y-115819500D01*
X152999212Y-115819500D01*
X152989313Y-115815399D01*
X152985212Y-115805500D01*
X152987088Y-115798500D01*
X152997278Y-115780851D01*
X153016136Y-115748188D01*
X153028075Y-115680477D01*
X153034538Y-115643827D01*
X153034538Y-115643822D01*
X153016136Y-115539462D01*
X152963152Y-115447689D01*
X152963148Y-115447686D01*
X152892280Y-115388220D01*
X152887333Y-115378716D01*
X152890555Y-115368497D01*
X152892276Y-115366775D01*
X152945659Y-115321983D01*
X152998645Y-115230208D01*
X153004779Y-115195420D01*
X153017047Y-115125847D01*
X153017047Y-115125842D01*
X152998645Y-115021482D01*
X152945661Y-114929709D01*
X152937263Y-114922662D01*
X152864479Y-114861589D01*
X152814688Y-114843467D01*
X152764898Y-114825345D01*
X152764897Y-114825345D01*
X152658925Y-114825345D01*
X152658923Y-114825345D01*
X152559343Y-114861589D01*
X152478160Y-114929709D01*
X152425176Y-115021482D01*
X152406775Y-115125842D01*
X152406775Y-115125847D01*
X152425176Y-115230207D01*
X152478160Y-115321980D01*
X152478162Y-115321982D01*
X152478163Y-115321983D01*
X152549032Y-115381449D01*
X152553979Y-115390952D01*
X152550757Y-115401171D01*
X152549031Y-115402896D01*
X152495654Y-115447686D01*
X152495652Y-115447689D01*
X152442667Y-115539462D01*
X152424266Y-115643822D01*
X152424266Y-115643827D01*
X152442667Y-115748187D01*
X152495651Y-115839960D01*
X152495653Y-115839962D01*
X152495654Y-115839963D01*
X152547748Y-115883675D01*
X152552696Y-115893180D01*
X152549474Y-115903399D01*
X152545105Y-115906874D01*
X152381286Y-115990344D01*
X152381270Y-115990354D01*
X152230957Y-116099563D01*
X152230949Y-116099570D01*
X152099570Y-116230949D01*
X152099563Y-116230957D01*
X151990354Y-116381270D01*
X151990344Y-116381286D01*
X151905988Y-116546842D01*
X151848568Y-116723565D01*
X151819500Y-116907093D01*
X151819500Y-117305500D01*
X151815399Y-117315399D01*
X151805500Y-117319500D01*
X135557606Y-117319500D01*
X135547707Y-117315399D01*
X135543606Y-117305500D01*
X135547707Y-117295601D01*
X135552818Y-117292344D01*
X135614363Y-117269944D01*
X135695543Y-117201826D01*
X135696591Y-117200012D01*
X135722048Y-117155918D01*
X135748529Y-117110051D01*
X135766931Y-117005688D01*
X135766931Y-117005685D01*
X135748529Y-116901325D01*
X135695545Y-116809552D01*
X135695543Y-116809550D01*
X135614363Y-116741432D01*
X135561495Y-116722190D01*
X135514782Y-116705188D01*
X135514781Y-116705188D01*
X135408809Y-116705188D01*
X135408807Y-116705188D01*
X135309227Y-116741432D01*
X135228044Y-116809552D01*
X135207122Y-116845792D01*
X135198621Y-116852315D01*
X135187998Y-116850916D01*
X135182874Y-116845792D01*
X135168496Y-116820887D01*
X135168494Y-116820885D01*
X135087314Y-116752767D01*
X135037523Y-116734644D01*
X134987733Y-116716523D01*
X134987732Y-116716523D01*
X134881760Y-116716523D01*
X134881758Y-116716523D01*
X134782178Y-116752767D01*
X134700995Y-116820887D01*
X134687376Y-116844477D01*
X134678875Y-116851000D01*
X134668252Y-116849601D01*
X134663128Y-116844478D01*
X134652779Y-116826552D01*
X134571599Y-116758434D01*
X134509315Y-116735765D01*
X134472018Y-116722190D01*
X134472017Y-116722190D01*
X134366045Y-116722190D01*
X134366043Y-116722190D01*
X134266463Y-116758434D01*
X134185280Y-116826554D01*
X134175372Y-116843717D01*
X134166871Y-116850240D01*
X134156248Y-116848841D01*
X134151124Y-116843717D01*
X134131399Y-116809552D01*
X134131397Y-116809550D01*
X134050217Y-116741432D01*
X133997349Y-116722190D01*
X133950636Y-116705188D01*
X133950635Y-116705188D01*
X133844663Y-116705188D01*
X133844661Y-116705188D01*
X133745081Y-116741432D01*
X133663898Y-116809552D01*
X133656385Y-116822566D01*
X133647884Y-116829089D01*
X133637261Y-116827690D01*
X133632137Y-116822566D01*
X133621352Y-116803885D01*
X133621350Y-116803883D01*
X133540170Y-116735765D01*
X133484700Y-116715576D01*
X133440589Y-116699521D01*
X133440588Y-116699521D01*
X133334616Y-116699521D01*
X133334614Y-116699521D01*
X133235034Y-116735765D01*
X133153851Y-116803885D01*
X133141646Y-116825026D01*
X133133145Y-116831549D01*
X133122522Y-116830150D01*
X133117398Y-116825026D01*
X133106528Y-116806198D01*
X133106526Y-116806196D01*
X133025346Y-116738078D01*
X132963521Y-116715576D01*
X132925765Y-116701834D01*
X132925764Y-116701834D01*
X132819792Y-116701834D01*
X132819790Y-116701834D01*
X132720210Y-116738078D01*
X132639027Y-116806198D01*
X132625628Y-116829408D01*
X132617127Y-116835931D01*
X132606504Y-116834532D01*
X132601380Y-116829408D01*
X132587980Y-116806198D01*
X132587978Y-116806196D01*
X132506798Y-116738078D01*
X132444973Y-116715576D01*
X132407217Y-116701834D01*
X132407216Y-116701834D01*
X132301244Y-116701834D01*
X132301242Y-116701834D01*
X132201662Y-116738078D01*
X132120479Y-116806198D01*
X132109095Y-116825917D01*
X132100594Y-116832440D01*
X132089971Y-116831041D01*
X132084847Y-116825917D01*
X132075099Y-116809032D01*
X132075097Y-116809030D01*
X131993917Y-116740912D01*
X131944125Y-116722790D01*
X131894336Y-116704668D01*
X131894335Y-116704668D01*
X131788363Y-116704668D01*
X131788361Y-116704668D01*
X131688781Y-116740912D01*
X131607598Y-116809032D01*
X131595769Y-116829521D01*
X131587268Y-116836044D01*
X131576645Y-116834645D01*
X131571522Y-116829523D01*
X131558945Y-116807738D01*
X131477765Y-116739620D01*
X131383162Y-116705188D01*
X131378184Y-116703376D01*
X131378183Y-116703376D01*
X131272211Y-116703376D01*
X131272209Y-116703376D01*
X131172629Y-116739620D01*
X131091446Y-116807740D01*
X131083786Y-116821009D01*
X131075285Y-116827532D01*
X131064662Y-116826133D01*
X131059538Y-116821009D01*
X131037996Y-116783696D01*
X131025428Y-116773150D01*
X130956814Y-116715576D01*
X130907022Y-116697453D01*
X130857233Y-116679332D01*
X130857232Y-116679332D01*
X130751260Y-116679332D01*
X130751258Y-116679332D01*
X130651678Y-116715576D01*
X130570495Y-116783696D01*
X130517511Y-116875469D01*
X130499110Y-116979829D01*
X130499110Y-116979834D01*
X130517511Y-117084194D01*
X130570495Y-117175967D01*
X130570497Y-117175969D01*
X130570498Y-117175970D01*
X130651678Y-117244088D01*
X130751260Y-117280332D01*
X130751261Y-117280332D01*
X130857231Y-117280332D01*
X130857232Y-117280332D01*
X130956814Y-117244088D01*
X131037994Y-117175970D01*
X131045656Y-117162698D01*
X131054156Y-117156175D01*
X131064779Y-117157573D01*
X131069904Y-117162698D01*
X131091446Y-117200011D01*
X131091448Y-117200013D01*
X131091449Y-117200014D01*
X131172629Y-117268132D01*
X131224319Y-117286945D01*
X131239152Y-117292344D01*
X131247052Y-117299583D01*
X131247520Y-117310288D01*
X131240281Y-117318188D01*
X131234364Y-117319500D01*
X125944500Y-117319500D01*
X125934601Y-117315399D01*
X125930500Y-117305500D01*
X125930500Y-116595893D01*
X139081543Y-116595893D01*
X139099944Y-116700253D01*
X139152928Y-116792026D01*
X139152930Y-116792028D01*
X139152931Y-116792029D01*
X139234111Y-116860147D01*
X139333693Y-116896391D01*
X139333694Y-116896391D01*
X139439664Y-116896391D01*
X139439665Y-116896391D01*
X139539247Y-116860147D01*
X139620427Y-116792029D01*
X139631327Y-116773150D01*
X140810167Y-116773150D01*
X140828568Y-116877510D01*
X140881552Y-116969283D01*
X140881554Y-116969285D01*
X140881555Y-116969286D01*
X140962735Y-117037404D01*
X141062317Y-117073648D01*
X141062318Y-117073648D01*
X141168288Y-117073648D01*
X141168289Y-117073648D01*
X141267871Y-117037404D01*
X141349051Y-116969286D01*
X141402037Y-116877511D01*
X141411022Y-116826553D01*
X141420439Y-116773150D01*
X141420439Y-116773145D01*
X141402037Y-116668785D01*
X141349053Y-116577012D01*
X141349051Y-116577010D01*
X141267871Y-116508892D01*
X141218080Y-116490770D01*
X141168290Y-116472648D01*
X141168289Y-116472648D01*
X141062317Y-116472648D01*
X141062315Y-116472648D01*
X140962735Y-116508892D01*
X140881552Y-116577012D01*
X140828568Y-116668785D01*
X140810167Y-116773145D01*
X140810167Y-116773150D01*
X139631327Y-116773150D01*
X139673413Y-116700254D01*
X139691815Y-116595891D01*
X139691815Y-116595888D01*
X139673413Y-116491528D01*
X139642659Y-116438260D01*
X139641260Y-116427637D01*
X139642601Y-116424361D01*
X139957646Y-115868836D01*
X143582650Y-115868836D01*
X143600150Y-115956820D01*
X143600150Y-115956821D01*
X143600151Y-115956822D01*
X143649991Y-116031413D01*
X143724582Y-116081253D01*
X143812568Y-116098754D01*
X143900554Y-116081253D01*
X143975145Y-116031413D01*
X144024985Y-115956822D01*
X144039984Y-115881414D01*
X144045936Y-115872507D01*
X144056445Y-115870416D01*
X144061489Y-115872504D01*
X144074582Y-115881253D01*
X144086759Y-115883675D01*
X144162567Y-115898754D01*
X144162567Y-115898753D01*
X144162568Y-115898754D01*
X144250554Y-115881253D01*
X144263643Y-115872506D01*
X144274151Y-115870416D01*
X144283061Y-115876368D01*
X144285152Y-115881416D01*
X144300150Y-115956820D01*
X144300150Y-115956821D01*
X144300151Y-115956822D01*
X144349991Y-116031413D01*
X144424582Y-116081253D01*
X144468574Y-116090003D01*
X144512567Y-116098754D01*
X144512567Y-116098753D01*
X144512568Y-116098754D01*
X144600554Y-116081253D01*
X144675145Y-116031413D01*
X144724985Y-115956822D01*
X144742486Y-115868836D01*
X144724985Y-115780850D01*
X144675145Y-115706259D01*
X144636558Y-115680476D01*
X144630606Y-115671567D01*
X144632696Y-115661058D01*
X144636559Y-115657195D01*
X144675145Y-115631413D01*
X144724985Y-115556822D01*
X144742486Y-115468836D01*
X144742171Y-115467254D01*
X144724985Y-115380851D01*
X144724985Y-115380850D01*
X144675145Y-115306259D01*
X144600554Y-115256419D01*
X144600553Y-115256418D01*
X144600552Y-115256418D01*
X144512568Y-115238918D01*
X144424583Y-115256418D01*
X144349991Y-115306259D01*
X144300150Y-115380851D01*
X144285152Y-115456255D01*
X144279199Y-115465165D01*
X144268690Y-115467255D01*
X144263644Y-115465165D01*
X144250554Y-115456419D01*
X144250553Y-115456418D01*
X144250552Y-115456418D01*
X144162568Y-115438918D01*
X144074581Y-115456419D01*
X144061491Y-115465164D01*
X144050981Y-115467254D01*
X144042073Y-115461300D01*
X144039983Y-115456255D01*
X144024985Y-115380850D01*
X143975145Y-115306259D01*
X143936558Y-115280476D01*
X143930606Y-115271567D01*
X143932696Y-115261058D01*
X143936559Y-115257195D01*
X143975145Y-115231413D01*
X144024985Y-115156822D01*
X144025508Y-115154190D01*
X144031460Y-115145281D01*
X144041969Y-115143190D01*
X144044021Y-115143763D01*
X144115751Y-115169871D01*
X144115752Y-115169871D01*
X144221722Y-115169871D01*
X144221723Y-115169871D01*
X144321305Y-115133627D01*
X144402485Y-115065509D01*
X144408680Y-115054780D01*
X144427904Y-115021482D01*
X144455471Y-114973734D01*
X144467369Y-114906259D01*
X144473873Y-114869373D01*
X144473873Y-114869368D01*
X144455471Y-114765008D01*
X144402487Y-114673235D01*
X144401136Y-114672101D01*
X144321305Y-114605115D01*
X144271513Y-114586993D01*
X144221724Y-114568871D01*
X144221723Y-114568871D01*
X144115751Y-114568871D01*
X144115749Y-114568871D01*
X144016169Y-114605115D01*
X143934986Y-114673235D01*
X143882002Y-114765008D01*
X143869543Y-114835664D01*
X143863786Y-114844701D01*
X143853325Y-114847020D01*
X143853025Y-114846964D01*
X143812569Y-114838918D01*
X143812568Y-114838918D01*
X143724583Y-114856418D01*
X143649991Y-114906259D01*
X143600150Y-114980851D01*
X143582650Y-115068835D01*
X143582650Y-115068836D01*
X143600150Y-115156820D01*
X143600150Y-115156821D01*
X143600151Y-115156822D01*
X143649991Y-115231413D01*
X143649992Y-115231414D01*
X143688576Y-115257196D01*
X143694529Y-115266105D01*
X143692438Y-115276614D01*
X143688576Y-115280476D01*
X143649992Y-115306257D01*
X143600150Y-115380851D01*
X143582650Y-115468835D01*
X143582650Y-115468836D01*
X143600150Y-115556820D01*
X143600150Y-115556821D01*
X143600151Y-115556822D01*
X143649991Y-115631413D01*
X143649992Y-115631414D01*
X143688576Y-115657196D01*
X143694529Y-115666105D01*
X143692438Y-115676614D01*
X143688576Y-115680476D01*
X143649992Y-115706257D01*
X143600150Y-115780851D01*
X143582650Y-115868835D01*
X143582650Y-115868836D01*
X139957646Y-115868836D01*
X141002213Y-114026932D01*
X141010661Y-114020345D01*
X141021295Y-114021662D01*
X141026027Y-114026059D01*
X141028857Y-114030294D01*
X141103448Y-114080134D01*
X141147441Y-114088884D01*
X141191433Y-114097635D01*
X141191433Y-114097634D01*
X141191434Y-114097635D01*
X141279420Y-114080134D01*
X141354011Y-114030294D01*
X141368681Y-114008338D01*
X142001329Y-114008338D01*
X142019730Y-114112698D01*
X142072714Y-114204471D01*
X142072716Y-114204473D01*
X142072717Y-114204474D01*
X142153897Y-114272592D01*
X142253479Y-114308836D01*
X142253480Y-114308836D01*
X142359450Y-114308836D01*
X142359451Y-114308836D01*
X142459033Y-114272592D01*
X142459034Y-114272590D01*
X142459036Y-114272590D01*
X142476792Y-114257690D01*
X142484269Y-114251415D01*
X142494488Y-114248193D01*
X142503992Y-114253141D01*
X142507215Y-114263360D01*
X142507055Y-114264571D01*
X142495404Y-114330649D01*
X142495404Y-114330654D01*
X142513805Y-114435014D01*
X142566789Y-114526787D01*
X142566791Y-114526789D01*
X142566792Y-114526790D01*
X142647972Y-114594908D01*
X142747554Y-114631152D01*
X142747555Y-114631152D01*
X142853525Y-114631152D01*
X142853526Y-114631152D01*
X142953108Y-114594908D01*
X143034288Y-114526790D01*
X143039603Y-114517585D01*
X143051085Y-114497695D01*
X143087274Y-114435015D01*
X143091702Y-114409902D01*
X152389098Y-114409902D01*
X152407499Y-114514262D01*
X152460483Y-114606035D01*
X152460485Y-114606037D01*
X152460486Y-114606038D01*
X152541666Y-114674156D01*
X152641248Y-114710400D01*
X152641249Y-114710400D01*
X152747219Y-114710400D01*
X152747220Y-114710400D01*
X152846802Y-114674156D01*
X152927982Y-114606038D01*
X152934409Y-114594907D01*
X152961681Y-114547669D01*
X152980968Y-114514263D01*
X152995896Y-114429601D01*
X152999370Y-114409902D01*
X152999370Y-114409897D01*
X152980968Y-114305537D01*
X152927984Y-114213764D01*
X152916909Y-114204471D01*
X152846802Y-114145644D01*
X152797011Y-114127521D01*
X152747221Y-114109400D01*
X152747220Y-114109400D01*
X152641248Y-114109400D01*
X152641246Y-114109400D01*
X152541666Y-114145644D01*
X152460483Y-114213764D01*
X152407499Y-114305537D01*
X152389098Y-114409897D01*
X152389098Y-114409902D01*
X143091702Y-114409902D01*
X143105676Y-114330652D01*
X143105676Y-114330649D01*
X143087274Y-114226289D01*
X143034290Y-114134516D01*
X143034288Y-114134514D01*
X142953108Y-114066396D01*
X142903316Y-114048274D01*
X142853527Y-114030152D01*
X142853526Y-114030152D01*
X142747554Y-114030152D01*
X142747552Y-114030152D01*
X142647971Y-114066396D01*
X142647969Y-114066397D01*
X142622733Y-114087571D01*
X142612514Y-114090793D01*
X142603010Y-114085844D01*
X142599788Y-114075625D01*
X142599945Y-114074433D01*
X142611601Y-114008336D01*
X142611601Y-114008333D01*
X142593199Y-113903973D01*
X142540215Y-113812200D01*
X142540213Y-113812198D01*
X142459033Y-113744080D01*
X142394172Y-113720473D01*
X142359452Y-113707836D01*
X142359451Y-113707836D01*
X142253479Y-113707836D01*
X142253477Y-113707836D01*
X142153897Y-113744080D01*
X142072714Y-113812200D01*
X142019730Y-113903973D01*
X142001329Y-114008333D01*
X142001329Y-114008338D01*
X141368681Y-114008338D01*
X141403851Y-113955703D01*
X141421352Y-113867717D01*
X141403851Y-113779731D01*
X141354011Y-113705140D01*
X141279420Y-113655300D01*
X141279419Y-113655299D01*
X141279418Y-113655299D01*
X141253263Y-113650097D01*
X141244353Y-113644144D01*
X141242263Y-113633635D01*
X141244222Y-113628788D01*
X141328229Y-113498353D01*
X146193519Y-113498353D01*
X146211920Y-113602713D01*
X146264904Y-113694486D01*
X146264906Y-113694488D01*
X146264907Y-113694489D01*
X146346087Y-113762607D01*
X146445669Y-113798851D01*
X146445670Y-113798851D01*
X146551640Y-113798851D01*
X146551641Y-113798851D01*
X146651223Y-113762607D01*
X146701436Y-113720473D01*
X152389098Y-113720473D01*
X152407499Y-113824833D01*
X152460483Y-113916606D01*
X152460485Y-113916608D01*
X152460486Y-113916609D01*
X152541666Y-113984727D01*
X152641248Y-114020971D01*
X152641249Y-114020971D01*
X152747219Y-114020971D01*
X152747220Y-114020971D01*
X152846802Y-113984727D01*
X152927982Y-113916609D01*
X152935278Y-113903973D01*
X152944779Y-113887514D01*
X152980968Y-113824834D01*
X152991940Y-113762607D01*
X152999370Y-113720473D01*
X152999370Y-113720468D01*
X152980968Y-113616108D01*
X152927984Y-113524335D01*
X152897020Y-113498353D01*
X152846802Y-113456215D01*
X152797010Y-113438092D01*
X152747221Y-113419971D01*
X152747220Y-113419971D01*
X152641248Y-113419971D01*
X152641246Y-113419971D01*
X152541666Y-113456215D01*
X152460483Y-113524335D01*
X152407499Y-113616108D01*
X152389098Y-113720468D01*
X152389098Y-113720473D01*
X146701436Y-113720473D01*
X146732403Y-113694489D01*
X146736915Y-113686675D01*
X146755029Y-113655299D01*
X146785389Y-113602714D01*
X146798281Y-113529600D01*
X146803791Y-113498353D01*
X146803791Y-113498348D01*
X146785389Y-113393988D01*
X146732405Y-113302215D01*
X146695650Y-113271374D01*
X146651223Y-113234095D01*
X146599212Y-113215165D01*
X146551642Y-113197851D01*
X146551641Y-113197851D01*
X146445669Y-113197851D01*
X146445667Y-113197851D01*
X146346087Y-113234095D01*
X146264904Y-113302215D01*
X146211920Y-113393988D01*
X146193519Y-113498348D01*
X146193519Y-113498353D01*
X141328229Y-113498353D01*
X141750142Y-112843264D01*
X142389534Y-112843264D01*
X142407935Y-112947624D01*
X142460919Y-113039397D01*
X142460921Y-113039399D01*
X142460922Y-113039400D01*
X142542102Y-113107518D01*
X142641684Y-113143762D01*
X142641685Y-113143762D01*
X142747655Y-113143762D01*
X142747656Y-113143762D01*
X142847238Y-113107518D01*
X142885708Y-113075238D01*
X152397937Y-113075238D01*
X152416338Y-113179598D01*
X152469322Y-113271371D01*
X152469324Y-113271373D01*
X152469325Y-113271374D01*
X152550505Y-113339492D01*
X152650087Y-113375736D01*
X152650088Y-113375736D01*
X152756058Y-113375736D01*
X152756059Y-113375736D01*
X152855641Y-113339492D01*
X152936821Y-113271374D01*
X152989807Y-113179599D01*
X153008209Y-113075236D01*
X153008209Y-113075233D01*
X152989807Y-112970873D01*
X152936823Y-112879100D01*
X152936821Y-112879098D01*
X152855641Y-112810980D01*
X152805849Y-112792857D01*
X152756060Y-112774736D01*
X152756059Y-112774736D01*
X152650087Y-112774736D01*
X152650085Y-112774736D01*
X152550505Y-112810980D01*
X152469322Y-112879100D01*
X152416338Y-112970873D01*
X152397937Y-113075233D01*
X152397937Y-113075238D01*
X142885708Y-113075238D01*
X142928418Y-113039400D01*
X142981404Y-112947625D01*
X142998234Y-112852178D01*
X142999806Y-112843264D01*
X142999806Y-112843259D01*
X142981404Y-112738899D01*
X142928420Y-112647126D01*
X142928418Y-112647124D01*
X142847238Y-112579006D01*
X142797447Y-112560884D01*
X142747657Y-112542762D01*
X142747656Y-112542762D01*
X142641684Y-112542762D01*
X142641682Y-112542762D01*
X142542102Y-112579006D01*
X142460919Y-112647126D01*
X142407935Y-112738899D01*
X142389534Y-112843259D01*
X142389534Y-112843264D01*
X141750142Y-112843264D01*
X142021997Y-112421164D01*
X152406775Y-112421164D01*
X152425176Y-112525524D01*
X152478160Y-112617297D01*
X152478162Y-112617299D01*
X152478163Y-112617300D01*
X152559343Y-112685418D01*
X152658925Y-112721662D01*
X152658926Y-112721662D01*
X152764896Y-112721662D01*
X152764897Y-112721662D01*
X152864479Y-112685418D01*
X152945659Y-112617300D01*
X152957423Y-112596925D01*
X152988693Y-112542762D01*
X152998645Y-112525525D01*
X153015696Y-112428823D01*
X153017047Y-112421164D01*
X153017047Y-112421159D01*
X152998645Y-112316799D01*
X152945661Y-112225026D01*
X152945659Y-112225024D01*
X152864479Y-112156906D01*
X152814688Y-112138784D01*
X152764898Y-112120662D01*
X152764897Y-112120662D01*
X152658925Y-112120662D01*
X152658923Y-112120662D01*
X152559343Y-112156906D01*
X152478160Y-112225026D01*
X152425176Y-112316799D01*
X152406775Y-112421159D01*
X152406775Y-112421164D01*
X142021997Y-112421164D01*
X142120879Y-112267633D01*
X142129687Y-112261532D01*
X142140230Y-112263445D01*
X142144773Y-112268215D01*
X142171799Y-112315026D01*
X142171801Y-112315028D01*
X142171802Y-112315029D01*
X142252982Y-112383147D01*
X142352564Y-112419391D01*
X142352565Y-112419391D01*
X142458535Y-112419391D01*
X142458536Y-112419391D01*
X142558118Y-112383147D01*
X142639298Y-112315029D01*
X142642242Y-112309931D01*
X142662761Y-112274389D01*
X142692284Y-112223254D01*
X142705681Y-112147276D01*
X142710686Y-112118893D01*
X142710686Y-112118888D01*
X142692284Y-112014528D01*
X142639300Y-111922755D01*
X142615148Y-111902489D01*
X142558118Y-111854635D01*
X142458536Y-111818391D01*
X142458533Y-111818390D01*
X142457649Y-111818234D01*
X142448613Y-111812475D01*
X142446295Y-111802014D01*
X142448912Y-111796008D01*
X142568157Y-111638236D01*
X147001763Y-111638236D01*
X147020164Y-111742596D01*
X147073148Y-111834369D01*
X147073150Y-111834371D01*
X147073151Y-111834372D01*
X147154331Y-111902490D01*
X147253913Y-111938734D01*
X147253914Y-111938734D01*
X147359884Y-111938734D01*
X147359885Y-111938734D01*
X147459467Y-111902490D01*
X147540647Y-111834372D01*
X147543092Y-111830138D01*
X147567332Y-111788152D01*
X147593633Y-111742597D01*
X147602670Y-111691344D01*
X147612035Y-111638236D01*
X147612035Y-111638231D01*
X147593633Y-111533871D01*
X147540649Y-111442098D01*
X147521002Y-111425612D01*
X147459467Y-111373978D01*
X147409675Y-111355856D01*
X147359886Y-111337734D01*
X147359885Y-111337734D01*
X147253913Y-111337734D01*
X147253911Y-111337734D01*
X147154331Y-111373978D01*
X147073148Y-111442098D01*
X147020164Y-111533871D01*
X147001763Y-111638231D01*
X147001763Y-111638236D01*
X142568157Y-111638236D01*
X142973325Y-111102162D01*
X142975258Y-111100083D01*
X142976617Y-111098893D01*
X142982778Y-111089672D01*
X142982968Y-111089405D01*
X142989642Y-111080575D01*
X142990308Y-111078931D01*
X142991637Y-111076423D01*
X143004174Y-111057689D01*
X143004174Y-111057686D01*
X143004994Y-111056462D01*
X143005085Y-111056286D01*
X143008649Y-111050952D01*
X143011552Y-111046606D01*
X143011556Y-111046603D01*
X143012567Y-111045090D01*
X143030065Y-111018900D01*
X143030066Y-111018900D01*
X143033454Y-111013829D01*
X143033457Y-111013822D01*
X143033533Y-111013709D01*
X143033556Y-111013672D01*
X143040156Y-111003797D01*
X143040155Y-111003797D01*
X143040243Y-111003667D01*
X143043108Y-110997509D01*
X143219608Y-110618042D01*
X152397937Y-110618042D01*
X152416338Y-110722402D01*
X152469322Y-110814175D01*
X152469324Y-110814177D01*
X152469325Y-110814178D01*
X152550505Y-110882296D01*
X152573148Y-110890537D01*
X152581987Y-110893754D01*
X152589887Y-110900993D01*
X152590355Y-110911698D01*
X152583116Y-110919598D01*
X152581987Y-110920066D01*
X152559343Y-110928308D01*
X152478160Y-110996428D01*
X152425176Y-111088201D01*
X152406775Y-111192561D01*
X152406775Y-111192566D01*
X152425176Y-111296926D01*
X152478160Y-111388699D01*
X152478162Y-111388701D01*
X152478163Y-111388702D01*
X152559343Y-111456820D01*
X152602339Y-111472469D01*
X152610691Y-111475509D01*
X152618591Y-111482748D01*
X152619059Y-111493453D01*
X152611820Y-111501353D01*
X152610691Y-111501821D01*
X152559343Y-111520510D01*
X152478160Y-111588630D01*
X152425176Y-111680403D01*
X152406775Y-111784763D01*
X152406775Y-111784768D01*
X152425176Y-111889128D01*
X152478160Y-111980901D01*
X152478162Y-111980903D01*
X152478163Y-111980904D01*
X152559343Y-112049022D01*
X152658925Y-112085266D01*
X152658926Y-112085266D01*
X152764896Y-112085266D01*
X152764897Y-112085266D01*
X152864479Y-112049022D01*
X152945659Y-111980904D01*
X152946861Y-111978823D01*
X152970006Y-111938733D01*
X152998645Y-111889129D01*
X153008126Y-111835362D01*
X153017047Y-111784768D01*
X153017047Y-111784763D01*
X152998645Y-111680403D01*
X152945661Y-111588630D01*
X152864479Y-111520510D01*
X152813128Y-111501820D01*
X152805229Y-111494582D01*
X152804761Y-111483877D01*
X152812000Y-111475977D01*
X152813122Y-111475511D01*
X152864479Y-111456820D01*
X152945659Y-111388702D01*
X152950835Y-111379738D01*
X152983787Y-111322662D01*
X152998645Y-111296927D01*
X153004779Y-111262139D01*
X153017047Y-111192566D01*
X153017047Y-111192561D01*
X152998645Y-111088201D01*
X152945661Y-110996428D01*
X152945659Y-110996426D01*
X152864479Y-110928308D01*
X152840548Y-110919598D01*
X152832996Y-110916849D01*
X152825096Y-110909610D01*
X152824628Y-110898905D01*
X152831867Y-110891005D01*
X152832985Y-110890541D01*
X152855641Y-110882296D01*
X152936821Y-110814178D01*
X152989807Y-110722403D01*
X152996872Y-110682333D01*
X153008209Y-110618042D01*
X153008209Y-110618037D01*
X152989807Y-110513677D01*
X152936823Y-110421904D01*
X152928316Y-110414766D01*
X152855641Y-110353784D01*
X152849554Y-110351568D01*
X152841655Y-110344329D01*
X152841188Y-110333624D01*
X152848428Y-110325724D01*
X152849536Y-110325265D01*
X152873318Y-110316610D01*
X152954498Y-110248492D01*
X152956927Y-110244286D01*
X152971295Y-110219397D01*
X153007484Y-110156717D01*
X153018405Y-110094780D01*
X153025886Y-110052356D01*
X153025886Y-110052351D01*
X153007484Y-109947991D01*
X152954500Y-109856218D01*
X152899522Y-109810086D01*
X152873318Y-109788098D01*
X152823527Y-109769976D01*
X152773737Y-109751854D01*
X152773736Y-109751854D01*
X152667764Y-109751854D01*
X152667762Y-109751854D01*
X152568182Y-109788098D01*
X152486999Y-109856218D01*
X152434015Y-109947991D01*
X152415614Y-110052351D01*
X152415614Y-110052356D01*
X152434015Y-110156716D01*
X152486999Y-110248489D01*
X152487001Y-110248491D01*
X152487002Y-110248492D01*
X152568182Y-110316610D01*
X152574055Y-110318747D01*
X152574265Y-110318824D01*
X152582165Y-110326063D01*
X152582633Y-110336768D01*
X152575394Y-110344668D01*
X152574265Y-110345136D01*
X152550505Y-110353784D01*
X152469322Y-110421904D01*
X152416338Y-110513677D01*
X152397937Y-110618037D01*
X152397937Y-110618042D01*
X143219608Y-110618042D01*
X143461274Y-110098469D01*
X143469167Y-110091223D01*
X143473968Y-110090374D01*
X143505597Y-110090374D01*
X143505598Y-110090374D01*
X143605180Y-110054130D01*
X143686360Y-109986012D01*
X143739346Y-109894237D01*
X143754184Y-109810086D01*
X143757748Y-109789876D01*
X143757748Y-109789871D01*
X143739346Y-109685511D01*
X143686362Y-109593738D01*
X143674465Y-109583755D01*
X143605180Y-109525618D01*
X143550927Y-109505872D01*
X143505599Y-109489374D01*
X143505598Y-109489374D01*
X143399626Y-109489374D01*
X143399624Y-109489374D01*
X143300044Y-109525618D01*
X143218861Y-109593738D01*
X143165877Y-109685511D01*
X143147476Y-109789871D01*
X143147476Y-109789876D01*
X143165877Y-109894236D01*
X143209863Y-109970422D01*
X143211262Y-109981045D01*
X143210433Y-109983326D01*
X142912408Y-110624069D01*
X142904515Y-110631316D01*
X142893810Y-110630859D01*
X142887590Y-110625166D01*
X142881146Y-110614004D01*
X142799966Y-110545886D01*
X142722013Y-110517514D01*
X142700385Y-110509642D01*
X142700384Y-110509642D01*
X142594412Y-110509642D01*
X142594410Y-110509642D01*
X142494830Y-110545886D01*
X142413647Y-110614006D01*
X142360663Y-110705779D01*
X142342262Y-110810139D01*
X142342262Y-110810144D01*
X142360663Y-110914504D01*
X142413647Y-111006277D01*
X142413649Y-111006279D01*
X142413650Y-111006280D01*
X142494830Y-111074398D01*
X142594412Y-111110642D01*
X142594416Y-111110642D01*
X142595293Y-111110797D01*
X142604331Y-111116552D01*
X142606653Y-111127013D01*
X142604034Y-111133026D01*
X142079625Y-111826865D01*
X142077691Y-111828946D01*
X142076333Y-111830137D01*
X142070193Y-111839324D01*
X142069958Y-111839654D01*
X142063307Y-111848456D01*
X142063303Y-111848463D01*
X142062625Y-111850133D01*
X142061296Y-111852639D01*
X142059964Y-111854635D01*
X142041233Y-111882667D01*
X142041102Y-111882823D01*
X142032275Y-111896052D01*
X142031055Y-111897470D01*
X142031109Y-111897516D01*
X142030516Y-111898215D01*
X142021789Y-111911767D01*
X142012789Y-111925236D01*
X142012387Y-111926052D01*
X142012322Y-111926020D01*
X142011518Y-111927676D01*
X142002944Y-111940959D01*
X142002799Y-111941248D01*
X140880883Y-113683207D01*
X140879094Y-113685443D01*
X140877886Y-113686670D01*
X140877883Y-113686675D01*
X140872318Y-113696486D01*
X140872115Y-113696823D01*
X140866019Y-113706289D01*
X140865498Y-113707912D01*
X140864346Y-113710538D01*
X140853398Y-113729834D01*
X140853397Y-113729835D01*
X140852695Y-113731074D01*
X140852665Y-113731141D01*
X139402472Y-116288297D01*
X139394022Y-116294886D01*
X139390294Y-116295391D01*
X139333691Y-116295391D01*
X139234111Y-116331635D01*
X139152928Y-116399755D01*
X139099944Y-116491528D01*
X139081543Y-116595888D01*
X139081543Y-116595893D01*
X125930500Y-116595893D01*
X125930500Y-114967586D01*
X136177747Y-114967586D01*
X136195247Y-115055570D01*
X136195247Y-115055571D01*
X136195248Y-115055572D01*
X136245088Y-115130163D01*
X136319679Y-115180003D01*
X136407665Y-115197504D01*
X136495651Y-115180003D01*
X136570242Y-115130163D01*
X136620082Y-115055572D01*
X136620082Y-115055571D01*
X136620848Y-115054425D01*
X136621379Y-115054780D01*
X136627279Y-115048855D01*
X136637994Y-115048833D01*
X136643961Y-115054774D01*
X136644482Y-115054426D01*
X136645248Y-115055572D01*
X136695088Y-115130163D01*
X136769679Y-115180003D01*
X136813671Y-115188753D01*
X136857664Y-115197504D01*
X136857664Y-115197503D01*
X136857665Y-115197504D01*
X136945651Y-115180003D01*
X137020242Y-115130163D01*
X137070082Y-115055572D01*
X137087583Y-114967586D01*
X137527747Y-114967586D01*
X137545247Y-115055570D01*
X137545247Y-115055571D01*
X137545248Y-115055572D01*
X137595088Y-115130163D01*
X137669679Y-115180003D01*
X137713672Y-115188753D01*
X137757664Y-115197504D01*
X137757664Y-115197503D01*
X137757665Y-115197504D01*
X137845651Y-115180003D01*
X137920242Y-115130163D01*
X137970082Y-115055572D01*
X137987583Y-114967586D01*
X137970082Y-114879600D01*
X137920242Y-114805009D01*
X137853010Y-114760086D01*
X138275247Y-114760086D01*
X138292747Y-114848070D01*
X138292747Y-114848071D01*
X138292748Y-114848072D01*
X138342588Y-114922663D01*
X138417179Y-114972503D01*
X138505165Y-114990004D01*
X138593151Y-114972503D01*
X138667742Y-114922663D01*
X138717582Y-114848072D01*
X138735083Y-114760086D01*
X138733848Y-114753879D01*
X138719186Y-114680163D01*
X138717582Y-114672100D01*
X138667742Y-114597509D01*
X138593151Y-114547669D01*
X138593150Y-114547668D01*
X138593149Y-114547668D01*
X138505165Y-114530168D01*
X138417180Y-114547668D01*
X138342588Y-114597509D01*
X138292747Y-114672101D01*
X138275247Y-114760085D01*
X138275247Y-114760086D01*
X137853010Y-114760086D01*
X137845651Y-114755169D01*
X137845650Y-114755168D01*
X137844504Y-114754403D01*
X137844855Y-114753876D01*
X137838923Y-114747945D01*
X137838922Y-114737229D01*
X137844855Y-114731294D01*
X137844504Y-114730769D01*
X137845650Y-114730003D01*
X137845651Y-114730003D01*
X137920242Y-114680163D01*
X137970082Y-114605572D01*
X137987583Y-114517586D01*
X137970082Y-114429600D01*
X137920242Y-114355009D01*
X137845651Y-114305169D01*
X137845650Y-114305168D01*
X137845649Y-114305168D01*
X137757665Y-114287668D01*
X137669680Y-114305168D01*
X137595088Y-114355009D01*
X137545247Y-114429601D01*
X137527747Y-114517585D01*
X137527747Y-114517586D01*
X137545247Y-114605570D01*
X137545247Y-114605571D01*
X137545248Y-114605572D01*
X137595088Y-114680163D01*
X137669679Y-114730003D01*
X137670826Y-114730769D01*
X137670474Y-114731294D01*
X137676410Y-114737238D01*
X137676402Y-114747953D01*
X137670475Y-114753879D01*
X137670826Y-114754403D01*
X137669679Y-114755168D01*
X137669679Y-114755169D01*
X137654954Y-114765008D01*
X137595088Y-114805009D01*
X137545247Y-114879601D01*
X137527747Y-114967585D01*
X137527747Y-114967586D01*
X137087583Y-114967586D01*
X137070082Y-114879600D01*
X137020242Y-114805009D01*
X136945651Y-114755169D01*
X136945650Y-114755168D01*
X136945649Y-114755168D01*
X136857665Y-114737668D01*
X136769680Y-114755168D01*
X136695088Y-114805008D01*
X136695088Y-114805009D01*
X136652082Y-114869373D01*
X136644482Y-114880747D01*
X136643956Y-114880395D01*
X136638013Y-114886331D01*
X136627298Y-114886323D01*
X136621371Y-114880396D01*
X136620848Y-114880747D01*
X136620082Y-114879600D01*
X136570242Y-114805009D01*
X136495651Y-114755169D01*
X136495650Y-114755168D01*
X136495649Y-114755168D01*
X136407665Y-114737668D01*
X136319680Y-114755168D01*
X136245088Y-114805009D01*
X136195247Y-114879601D01*
X136177747Y-114967585D01*
X136177747Y-114967586D01*
X125930500Y-114967586D01*
X125930500Y-114067586D01*
X136177747Y-114067586D01*
X136195247Y-114155570D01*
X136195247Y-114155571D01*
X136195248Y-114155572D01*
X136245088Y-114230163D01*
X136319679Y-114280003D01*
X136407665Y-114297504D01*
X136495651Y-114280003D01*
X136570242Y-114230163D01*
X136620082Y-114155572D01*
X136637583Y-114067586D01*
X136620082Y-113979600D01*
X136570242Y-113905009D01*
X136495651Y-113855169D01*
X136495650Y-113855168D01*
X136494504Y-113854403D01*
X136494855Y-113853876D01*
X136488923Y-113847945D01*
X136488922Y-113837229D01*
X136494855Y-113831294D01*
X136494504Y-113830769D01*
X136495650Y-113830003D01*
X136495651Y-113830003D01*
X136570242Y-113780163D01*
X136620082Y-113705572D01*
X136637583Y-113617586D01*
X136620082Y-113529600D01*
X136570242Y-113455009D01*
X136495651Y-113405169D01*
X136495650Y-113405168D01*
X136495649Y-113405168D01*
X136407665Y-113387668D01*
X136319680Y-113405168D01*
X136245088Y-113455009D01*
X136195247Y-113529601D01*
X136177747Y-113617585D01*
X136177747Y-113617586D01*
X136195247Y-113705570D01*
X136195247Y-113705571D01*
X136195248Y-113705572D01*
X136245088Y-113780163D01*
X136319679Y-113830003D01*
X136320826Y-113830769D01*
X136320474Y-113831294D01*
X136326410Y-113837238D01*
X136326402Y-113847953D01*
X136320475Y-113853879D01*
X136320826Y-113854403D01*
X136319679Y-113855168D01*
X136319679Y-113855169D01*
X136300901Y-113867716D01*
X136245088Y-113905009D01*
X136195247Y-113979601D01*
X136177747Y-114067585D01*
X136177747Y-114067586D01*
X125930500Y-114067586D01*
X125930500Y-113110805D01*
X135827428Y-113110805D01*
X135845829Y-113215165D01*
X135898813Y-113306938D01*
X135898815Y-113306940D01*
X135898816Y-113306941D01*
X135979996Y-113375059D01*
X136079578Y-113411303D01*
X136079579Y-113411303D01*
X136185549Y-113411303D01*
X136185550Y-113411303D01*
X136285132Y-113375059D01*
X136366312Y-113306941D01*
X136419298Y-113215166D01*
X136426821Y-113172503D01*
X136437700Y-113110805D01*
X136437700Y-113110800D01*
X136419298Y-113006440D01*
X136392536Y-112960086D01*
X136475247Y-112960086D01*
X136492747Y-113048070D01*
X136492747Y-113048071D01*
X136492748Y-113048072D01*
X136542588Y-113122663D01*
X136617179Y-113172503D01*
X136705165Y-113190004D01*
X136793151Y-113172503D01*
X136867742Y-113122663D01*
X136917582Y-113048072D01*
X136917582Y-113048071D01*
X136918348Y-113046925D01*
X136918874Y-113047276D01*
X136924806Y-113041344D01*
X136935522Y-113041343D01*
X136941456Y-113047276D01*
X136941982Y-113046925D01*
X136942747Y-113048071D01*
X136942748Y-113048072D01*
X136992588Y-113122663D01*
X137067179Y-113172503D01*
X137155165Y-113190004D01*
X137243151Y-113172503D01*
X137317742Y-113122663D01*
X137367582Y-113048072D01*
X137385083Y-112960086D01*
X137384377Y-112956539D01*
X137367582Y-112872101D01*
X137367582Y-112872100D01*
X137317742Y-112797509D01*
X137243151Y-112747669D01*
X137243150Y-112747668D01*
X137243149Y-112747668D01*
X137155165Y-112730168D01*
X137067180Y-112747668D01*
X137048121Y-112760403D01*
X136992588Y-112797509D01*
X136956060Y-112852178D01*
X136941982Y-112873247D01*
X136941456Y-112872895D01*
X136935513Y-112878831D01*
X136924798Y-112878823D01*
X136918871Y-112872896D01*
X136918348Y-112873247D01*
X136917582Y-112872100D01*
X136867742Y-112797509D01*
X136793151Y-112747669D01*
X136793150Y-112747668D01*
X136793149Y-112747668D01*
X136705165Y-112730168D01*
X136617180Y-112747668D01*
X136542588Y-112797509D01*
X136492747Y-112872101D01*
X136475247Y-112960085D01*
X136475247Y-112960086D01*
X136392536Y-112960086D01*
X136366314Y-112914667D01*
X136323927Y-112879100D01*
X136285132Y-112846547D01*
X136235340Y-112828424D01*
X136185551Y-112810303D01*
X136185550Y-112810303D01*
X136079578Y-112810303D01*
X136079576Y-112810303D01*
X135979996Y-112846547D01*
X135898813Y-112914667D01*
X135845829Y-113006440D01*
X135827428Y-113110800D01*
X135827428Y-113110805D01*
X125930500Y-113110805D01*
X125930500Y-112656042D01*
X133585817Y-112656042D01*
X133604218Y-112760402D01*
X133657202Y-112852175D01*
X133657204Y-112852177D01*
X133657205Y-112852178D01*
X133738385Y-112920296D01*
X133837967Y-112956540D01*
X133837968Y-112956540D01*
X133943938Y-112956540D01*
X133943939Y-112956540D01*
X134043521Y-112920296D01*
X134124701Y-112852178D01*
X134129848Y-112843264D01*
X134141498Y-112823083D01*
X134177687Y-112760403D01*
X134196089Y-112656040D01*
X134196089Y-112656037D01*
X134177687Y-112551677D01*
X134124703Y-112459904D01*
X134124701Y-112459902D01*
X134043521Y-112391784D01*
X133985130Y-112370532D01*
X133943940Y-112355540D01*
X133943939Y-112355540D01*
X133837967Y-112355540D01*
X133837965Y-112355540D01*
X133738385Y-112391784D01*
X133657202Y-112459904D01*
X133604218Y-112551677D01*
X133585817Y-112656037D01*
X133585817Y-112656042D01*
X125930500Y-112656042D01*
X125930500Y-111949235D01*
X135392067Y-111949235D01*
X135410468Y-112053595D01*
X135463452Y-112145368D01*
X135463454Y-112145370D01*
X135463455Y-112145371D01*
X135544635Y-112213489D01*
X135644217Y-112249733D01*
X135644218Y-112249733D01*
X135750188Y-112249733D01*
X135750189Y-112249733D01*
X135849771Y-112213489D01*
X135930951Y-112145371D01*
X135980190Y-112060086D01*
X136475247Y-112060086D01*
X136492747Y-112148070D01*
X136492747Y-112148071D01*
X136492748Y-112148072D01*
X136542588Y-112222663D01*
X136617179Y-112272503D01*
X136705165Y-112290004D01*
X136793151Y-112272503D01*
X136867742Y-112222663D01*
X136917582Y-112148072D01*
X136935083Y-112060086D01*
X136917582Y-111972100D01*
X136867742Y-111897509D01*
X136793151Y-111847669D01*
X136793150Y-111847668D01*
X136793149Y-111847668D01*
X136705165Y-111830168D01*
X136617180Y-111847668D01*
X136542588Y-111897509D01*
X136492747Y-111972101D01*
X136475247Y-112060085D01*
X136475247Y-112060086D01*
X135980190Y-112060086D01*
X135983937Y-112053596D01*
X135997120Y-111978831D01*
X136002339Y-111949235D01*
X136002339Y-111949230D01*
X135983937Y-111844870D01*
X135930953Y-111753097D01*
X135930951Y-111753095D01*
X135849771Y-111684977D01*
X135793683Y-111664563D01*
X135750190Y-111648733D01*
X135750189Y-111648733D01*
X135644217Y-111648733D01*
X135644215Y-111648733D01*
X135544635Y-111684977D01*
X135463452Y-111753097D01*
X135410468Y-111844870D01*
X135392067Y-111949230D01*
X135392067Y-111949235D01*
X125930500Y-111949235D01*
X125930500Y-110633780D01*
X125934601Y-110623881D01*
X125944500Y-110619780D01*
X125954399Y-110623881D01*
X125956624Y-110626780D01*
X126006775Y-110713647D01*
X126006777Y-110713649D01*
X126006778Y-110713650D01*
X126087958Y-110781768D01*
X126187540Y-110818012D01*
X126187541Y-110818012D01*
X126293511Y-110818012D01*
X126293512Y-110818012D01*
X126393094Y-110781768D01*
X126474274Y-110713650D01*
X126527260Y-110621875D01*
X126545662Y-110517512D01*
X126545662Y-110517509D01*
X126527260Y-110413149D01*
X126474276Y-110321376D01*
X126474272Y-110321373D01*
X126445407Y-110297152D01*
X126407967Y-110265736D01*
X126403019Y-110256231D01*
X126406241Y-110246012D01*
X126407957Y-110244295D01*
X126474274Y-110188650D01*
X126527260Y-110096875D01*
X126545662Y-109992512D01*
X126545662Y-109992509D01*
X126527260Y-109888149D01*
X126474276Y-109796376D01*
X126466530Y-109789876D01*
X126414216Y-109745979D01*
X126409269Y-109736476D01*
X126412491Y-109726257D01*
X126414207Y-109724540D01*
X126486774Y-109663650D01*
X126522673Y-109601470D01*
X129408562Y-109601470D01*
X129426963Y-109705830D01*
X129479947Y-109797603D01*
X129479949Y-109797605D01*
X129479950Y-109797606D01*
X129561130Y-109865724D01*
X129660712Y-109901968D01*
X129660713Y-109901968D01*
X129766683Y-109901968D01*
X129766684Y-109901968D01*
X129866266Y-109865724D01*
X129947446Y-109797606D01*
X129948158Y-109796374D01*
X129973861Y-109751854D01*
X130000432Y-109705831D01*
X130018834Y-109601468D01*
X130018834Y-109601465D01*
X130000432Y-109497105D01*
X129947448Y-109405332D01*
X129916932Y-109379726D01*
X129866266Y-109337212D01*
X129790989Y-109309814D01*
X129766685Y-109300968D01*
X129766684Y-109300968D01*
X129660712Y-109300968D01*
X129660710Y-109300968D01*
X129561130Y-109337212D01*
X129479947Y-109405332D01*
X129426963Y-109497105D01*
X129408562Y-109601465D01*
X129408562Y-109601470D01*
X126522673Y-109601470D01*
X126539760Y-109571875D01*
X126547268Y-109529297D01*
X126558162Y-109467514D01*
X126558162Y-109467509D01*
X126539760Y-109363149D01*
X126486776Y-109271376D01*
X126486772Y-109271373D01*
X126417341Y-109213113D01*
X126412394Y-109203609D01*
X126415616Y-109193390D01*
X126417334Y-109191671D01*
X126480524Y-109138650D01*
X126493906Y-109115472D01*
X130479688Y-109115472D01*
X130498089Y-109219832D01*
X130551073Y-109311605D01*
X130551075Y-109311607D01*
X130551076Y-109311608D01*
X130632256Y-109379726D01*
X130731838Y-109415970D01*
X130731839Y-109415970D01*
X130837809Y-109415970D01*
X130837810Y-109415970D01*
X130937392Y-109379726D01*
X131018572Y-109311608D01*
X131071558Y-109219833D01*
X131079147Y-109176796D01*
X131089960Y-109115472D01*
X131089960Y-109115467D01*
X131071558Y-109011107D01*
X131018574Y-108919334D01*
X131018572Y-108919332D01*
X130937392Y-108851214D01*
X130877825Y-108829534D01*
X130837811Y-108814970D01*
X130837810Y-108814970D01*
X130731838Y-108814970D01*
X130731836Y-108814970D01*
X130632256Y-108851214D01*
X130551073Y-108919334D01*
X130498089Y-109011107D01*
X130479688Y-109115467D01*
X130479688Y-109115472D01*
X126493906Y-109115472D01*
X126533510Y-109046875D01*
X126548325Y-108962857D01*
X126551912Y-108942514D01*
X126551912Y-108942509D01*
X126533510Y-108838149D01*
X126480526Y-108746376D01*
X126480524Y-108746374D01*
X126414815Y-108691238D01*
X126409868Y-108681734D01*
X126413090Y-108671515D01*
X126414811Y-108669793D01*
X126474274Y-108619900D01*
X126527260Y-108528125D01*
X126545502Y-108424671D01*
X126545662Y-108423764D01*
X126545662Y-108423759D01*
X126527260Y-108319399D01*
X126474276Y-108227626D01*
X126474274Y-108227624D01*
X126414815Y-108177732D01*
X126409868Y-108168229D01*
X126413090Y-108158010D01*
X126414811Y-108156288D01*
X126480524Y-108101150D01*
X126533510Y-108009375D01*
X126551912Y-107905012D01*
X126551912Y-107905009D01*
X126533510Y-107800649D01*
X126480526Y-107708876D01*
X126407369Y-107647489D01*
X126402421Y-107637984D01*
X126405643Y-107627765D01*
X126407363Y-107626044D01*
X126474274Y-107569900D01*
X126514114Y-107500894D01*
X132023234Y-107500894D01*
X132041635Y-107605254D01*
X132094619Y-107697027D01*
X132094621Y-107697029D01*
X132094622Y-107697030D01*
X132175802Y-107765148D01*
X132275384Y-107801392D01*
X132275385Y-107801392D01*
X132381355Y-107801392D01*
X132381356Y-107801392D01*
X132480938Y-107765148D01*
X132562118Y-107697030D01*
X132615104Y-107605255D01*
X132633506Y-107500892D01*
X132633506Y-107500889D01*
X132615104Y-107396529D01*
X132562120Y-107304756D01*
X132562118Y-107304754D01*
X132480938Y-107236636D01*
X132425135Y-107216326D01*
X132381357Y-107200392D01*
X132381356Y-107200392D01*
X132275384Y-107200392D01*
X132275382Y-107200392D01*
X132175802Y-107236636D01*
X132094619Y-107304756D01*
X132041635Y-107396529D01*
X132023234Y-107500889D01*
X132023234Y-107500894D01*
X126514114Y-107500894D01*
X126527260Y-107478125D01*
X126540366Y-107403796D01*
X126545662Y-107373764D01*
X126545662Y-107373759D01*
X126527260Y-107269399D01*
X126474276Y-107177626D01*
X126468264Y-107172581D01*
X126428889Y-107139542D01*
X131096743Y-107139542D01*
X131115144Y-107243902D01*
X131168128Y-107335675D01*
X131168130Y-107335677D01*
X131168131Y-107335678D01*
X131249311Y-107403796D01*
X131348893Y-107440040D01*
X131348894Y-107440040D01*
X131454864Y-107440040D01*
X131454865Y-107440040D01*
X131554447Y-107403796D01*
X131635627Y-107335678D01*
X131688613Y-107243903D01*
X131699866Y-107180083D01*
X131707015Y-107139542D01*
X131707015Y-107139537D01*
X131688613Y-107035177D01*
X131635629Y-106943404D01*
X131623833Y-106933506D01*
X131554447Y-106875284D01*
X131504656Y-106857162D01*
X131454866Y-106839040D01*
X131454865Y-106839040D01*
X131348893Y-106839040D01*
X131348891Y-106839040D01*
X131249311Y-106875284D01*
X131168128Y-106943404D01*
X131115144Y-107035177D01*
X131096743Y-107139537D01*
X131096743Y-107139542D01*
X126428889Y-107139542D01*
X126403643Y-107118358D01*
X126398696Y-107108854D01*
X126401918Y-107098635D01*
X126403638Y-107096914D01*
X126480524Y-107032400D01*
X126487574Y-107020190D01*
X126515573Y-106971693D01*
X126533510Y-106940625D01*
X126544214Y-106879918D01*
X126551912Y-106836264D01*
X126551912Y-106836259D01*
X126533510Y-106731899D01*
X126480526Y-106640126D01*
X126480522Y-106640123D01*
X126450972Y-106615327D01*
X126417941Y-106587611D01*
X126412993Y-106578106D01*
X126416215Y-106567887D01*
X126417930Y-106566171D01*
X126480524Y-106513650D01*
X126481882Y-106511299D01*
X126502807Y-106475055D01*
X126533510Y-106421875D01*
X126539643Y-106387087D01*
X126551912Y-106317514D01*
X126551912Y-106317509D01*
X126533510Y-106213149D01*
X126480526Y-106121376D01*
X126480524Y-106121374D01*
X126421065Y-106071482D01*
X126416118Y-106061979D01*
X126419340Y-106051760D01*
X126421061Y-106050038D01*
X126486774Y-105994900D01*
X126490275Y-105988837D01*
X126529602Y-105920719D01*
X126539760Y-105903125D01*
X126549081Y-105850261D01*
X126558162Y-105798764D01*
X126558162Y-105798759D01*
X126539760Y-105694399D01*
X126486776Y-105602626D01*
X126481823Y-105598470D01*
X126432911Y-105557427D01*
X126427964Y-105547924D01*
X126431186Y-105537705D01*
X126432912Y-105535979D01*
X126433027Y-105535881D01*
X126433030Y-105535881D01*
X126514210Y-105467763D01*
X126518505Y-105460325D01*
X126539430Y-105424081D01*
X126567196Y-105375988D01*
X126585204Y-105273862D01*
X126585598Y-105271627D01*
X126585598Y-105271622D01*
X126567196Y-105167262D01*
X126520006Y-105085525D01*
X129052642Y-105085525D01*
X129072665Y-105237618D01*
X129073555Y-105244373D01*
X129073555Y-105244375D01*
X129134869Y-105392400D01*
X129134870Y-105392402D01*
X129168742Y-105436544D01*
X129232406Y-105519512D01*
X129302388Y-105573211D01*
X129359103Y-105616731D01*
X129359518Y-105617049D01*
X129507543Y-105678363D01*
X129626508Y-105694025D01*
X129706278Y-105694025D01*
X129825243Y-105678363D01*
X129973268Y-105617049D01*
X130100380Y-105519512D01*
X130197917Y-105392401D01*
X130259231Y-105244375D01*
X130280144Y-105085525D01*
X130280115Y-105085308D01*
X130270135Y-105009499D01*
X130259231Y-104926675D01*
X130197917Y-104778650D01*
X130197915Y-104778648D01*
X130197915Y-104778647D01*
X130163651Y-104733994D01*
X130100380Y-104651538D01*
X130007302Y-104580116D01*
X129973270Y-104554002D01*
X129973268Y-104554001D01*
X129968978Y-104552224D01*
X129825243Y-104492687D01*
X129795501Y-104488771D01*
X129706281Y-104477025D01*
X129706278Y-104477025D01*
X129626508Y-104477025D01*
X129626504Y-104477025D01*
X129531336Y-104489554D01*
X129507543Y-104492687D01*
X129507542Y-104492687D01*
X129359517Y-104554001D01*
X129359515Y-104554002D01*
X129232406Y-104651538D01*
X129134870Y-104778646D01*
X129134869Y-104778648D01*
X129073555Y-104926674D01*
X129073555Y-104926676D01*
X129052671Y-105085308D01*
X129052642Y-105085525D01*
X126520006Y-105085525D01*
X126514212Y-105075489D01*
X126514210Y-105075487D01*
X126433030Y-105007369D01*
X126400789Y-104995634D01*
X126338412Y-104972931D01*
X126330512Y-104965692D01*
X126330044Y-104954987D01*
X126337283Y-104947087D01*
X126338395Y-104946625D01*
X126424819Y-104915171D01*
X126505999Y-104847053D01*
X126511019Y-104838359D01*
X126534134Y-104798321D01*
X126558985Y-104755278D01*
X126568183Y-104703112D01*
X126577387Y-104650917D01*
X126577387Y-104650912D01*
X126558985Y-104546552D01*
X126506001Y-104454779D01*
X126505997Y-104454776D01*
X126424819Y-104386659D01*
X126424818Y-104386658D01*
X126424816Y-104386657D01*
X126415830Y-104383386D01*
X126407930Y-104376147D01*
X126407464Y-104365442D01*
X126411620Y-104359506D01*
X126412315Y-104358922D01*
X126412319Y-104358921D01*
X126493499Y-104290803D01*
X126509951Y-104262308D01*
X126512379Y-104258102D01*
X126546485Y-104199028D01*
X126554223Y-104155142D01*
X126564887Y-104094667D01*
X126564887Y-104094662D01*
X126546485Y-103990302D01*
X126522179Y-103948201D01*
X127285457Y-103948201D01*
X127303858Y-104052561D01*
X127356842Y-104144334D01*
X127356844Y-104144336D01*
X127356845Y-104144337D01*
X127438025Y-104212455D01*
X127537607Y-104248699D01*
X127537608Y-104248699D01*
X127643578Y-104248699D01*
X127643579Y-104248699D01*
X127743161Y-104212455D01*
X127824341Y-104144337D01*
X127877327Y-104052562D01*
X127888504Y-103989173D01*
X127895729Y-103948201D01*
X127895729Y-103948196D01*
X127877327Y-103843836D01*
X127824343Y-103752063D01*
X127824341Y-103752061D01*
X127743161Y-103683943D01*
X127682138Y-103661733D01*
X127643580Y-103647699D01*
X127643579Y-103647699D01*
X127537607Y-103647699D01*
X127537605Y-103647699D01*
X127438025Y-103683943D01*
X127356842Y-103752063D01*
X127303858Y-103843836D01*
X127285457Y-103948196D01*
X127285457Y-103948201D01*
X126522179Y-103948201D01*
X126493501Y-103898529D01*
X126412318Y-103830408D01*
X126410356Y-103829694D01*
X126402458Y-103822453D01*
X126401992Y-103811748D01*
X126409233Y-103803850D01*
X126410354Y-103803386D01*
X126412319Y-103802671D01*
X126493499Y-103734553D01*
X126546485Y-103642778D01*
X126561673Y-103556642D01*
X126564887Y-103538417D01*
X126564887Y-103538412D01*
X126546485Y-103434052D01*
X126525370Y-103397479D01*
X126743872Y-103397479D01*
X126762273Y-103501839D01*
X126815257Y-103593612D01*
X126815259Y-103593614D01*
X126815260Y-103593615D01*
X126896440Y-103661733D01*
X126996022Y-103697977D01*
X126996023Y-103697977D01*
X127101993Y-103697977D01*
X127101994Y-103697977D01*
X127201576Y-103661733D01*
X127282756Y-103593615D01*
X127335742Y-103501840D01*
X127354144Y-103397477D01*
X127354144Y-103397474D01*
X127335742Y-103293114D01*
X127282758Y-103201341D01*
X127277648Y-103197053D01*
X127201576Y-103133221D01*
X127151785Y-103115099D01*
X127101995Y-103096977D01*
X127101994Y-103096977D01*
X126996022Y-103096977D01*
X126996020Y-103096977D01*
X126896440Y-103133221D01*
X126815257Y-103201341D01*
X126762273Y-103293114D01*
X126743872Y-103397474D01*
X126743872Y-103397479D01*
X126525370Y-103397479D01*
X126493501Y-103342279D01*
X126461937Y-103315794D01*
X126413493Y-103275144D01*
X126408546Y-103265640D01*
X126411768Y-103255421D01*
X126413485Y-103253703D01*
X126480999Y-103197053D01*
X126533985Y-103105278D01*
X126552387Y-103000915D01*
X126552387Y-103000912D01*
X126533985Y-102896552D01*
X126481001Y-102804779D01*
X126475565Y-102800218D01*
X126402423Y-102738844D01*
X126397476Y-102729340D01*
X126400698Y-102719121D01*
X126405142Y-102716014D01*
X126405009Y-102715783D01*
X126406066Y-102715171D01*
X126406069Y-102715171D01*
X126487249Y-102647053D01*
X126487507Y-102646607D01*
X126517836Y-102594074D01*
X126540235Y-102555278D01*
X126542533Y-102542246D01*
X128002283Y-102542246D01*
X128020684Y-102646606D01*
X128073668Y-102738379D01*
X128073670Y-102738381D01*
X128073671Y-102738382D01*
X128154851Y-102806500D01*
X128254433Y-102842744D01*
X128254434Y-102842744D01*
X128360403Y-102842744D01*
X128360405Y-102842744D01*
X128387526Y-102832872D01*
X128398229Y-102833339D01*
X128402312Y-102836229D01*
X130416211Y-104891148D01*
X131978552Y-106485312D01*
X131987125Y-106494059D01*
X131991125Y-106503999D01*
X131986925Y-106513857D01*
X131981914Y-106517014D01*
X131913592Y-106541882D01*
X131832409Y-106610002D01*
X131779425Y-106701775D01*
X131761024Y-106806135D01*
X131761024Y-106806140D01*
X131779425Y-106910500D01*
X131832409Y-107002273D01*
X131832411Y-107002275D01*
X131832412Y-107002276D01*
X131913592Y-107070394D01*
X132013174Y-107106638D01*
X132013175Y-107106638D01*
X132119145Y-107106638D01*
X132119146Y-107106638D01*
X132218728Y-107070394D01*
X132299908Y-107002276D01*
X132352894Y-106910501D01*
X132354337Y-106902319D01*
X132360093Y-106893281D01*
X132370554Y-106890962D01*
X132378167Y-106894996D01*
X136005235Y-110631316D01*
X136007904Y-110634065D01*
X136011857Y-110644025D01*
X136007611Y-110653862D01*
X136002647Y-110656973D01*
X135932974Y-110682333D01*
X135851791Y-110750453D01*
X135798807Y-110842226D01*
X135780406Y-110946586D01*
X135780406Y-110946591D01*
X135798807Y-111050951D01*
X135851791Y-111142724D01*
X135851793Y-111142726D01*
X135851794Y-111142727D01*
X135932974Y-111210845D01*
X136032556Y-111247089D01*
X136032557Y-111247089D01*
X136138527Y-111247089D01*
X136138528Y-111247089D01*
X136238110Y-111210845D01*
X136319290Y-111142727D01*
X136360314Y-111071669D01*
X136368811Y-111065150D01*
X136379435Y-111066548D01*
X136383516Y-111070117D01*
X137339491Y-112308299D01*
X137339492Y-112308300D01*
X137339494Y-112308302D01*
X137341642Y-112309940D01*
X137343238Y-112311364D01*
X137353530Y-112322080D01*
X137354070Y-112322642D01*
X137366158Y-112332771D01*
X137367692Y-112334272D01*
X137369444Y-112336270D01*
X137385775Y-112347182D01*
X137410694Y-112363846D01*
X137410695Y-112363846D01*
X137411981Y-112364706D01*
X137412060Y-112364747D01*
X137420593Y-112370448D01*
X137420719Y-112370532D01*
X137420725Y-112370540D01*
X137425110Y-112373470D01*
X137425110Y-112373471D01*
X137434308Y-112379616D01*
X137438272Y-112382265D01*
X137438360Y-112382318D01*
X137440208Y-112383554D01*
X137442174Y-112384221D01*
X137443020Y-112384572D01*
X137466077Y-112395939D01*
X137480704Y-112400900D01*
X137490353Y-112404174D01*
X137491189Y-112404520D01*
X137493080Y-112405453D01*
X137495348Y-112405903D01*
X137495450Y-112405928D01*
X137495623Y-112405962D01*
X137495625Y-112405963D01*
X137509899Y-112408798D01*
X137576552Y-112422057D01*
X137578656Y-112421918D01*
X137581408Y-112422010D01*
X137581789Y-112422061D01*
X137582112Y-112422082D01*
X137582245Y-112422091D01*
X137584956Y-112422539D01*
X137586289Y-112422896D01*
X137586998Y-112423086D01*
X137586999Y-112423086D01*
X137605117Y-112423086D01*
X137636614Y-112423097D01*
X137636615Y-112423096D01*
X137638123Y-112423097D01*
X137638231Y-112423086D01*
X138073329Y-112423086D01*
X138073332Y-112423086D01*
X138075381Y-112422536D01*
X138078114Y-112422089D01*
X138078446Y-112422068D01*
X138078912Y-112422006D01*
X138081648Y-112421917D01*
X138083779Y-112422057D01*
X138102508Y-112418331D01*
X138132423Y-112412397D01*
X138132424Y-112412396D01*
X138133947Y-112412094D01*
X138134076Y-112412052D01*
X138143943Y-112410089D01*
X138143953Y-112410091D01*
X138149439Y-112408999D01*
X138149440Y-112409000D01*
X138162084Y-112406485D01*
X138162093Y-112406481D01*
X138162198Y-112406461D01*
X138162320Y-112406432D01*
X138167249Y-112405453D01*
X138169601Y-112404292D01*
X138171577Y-112403499D01*
X138186679Y-112398752D01*
X138201135Y-112392418D01*
X138203151Y-112391714D01*
X138205700Y-112391040D01*
X138210098Y-112388515D01*
X138210192Y-112388465D01*
X138210287Y-112388409D01*
X138210295Y-112388407D01*
X138219886Y-112382899D01*
X138219888Y-112382899D01*
X138221474Y-112381988D01*
X138221475Y-112381988D01*
X138223341Y-112380916D01*
X138408979Y-112274388D01*
X138418677Y-112272801D01*
X138505165Y-112290004D01*
X138593151Y-112272503D01*
X138667742Y-112222663D01*
X138717582Y-112148072D01*
X138717582Y-112148071D01*
X138718348Y-112146925D01*
X138718874Y-112147276D01*
X138724806Y-112141344D01*
X138735522Y-112141343D01*
X138741456Y-112147276D01*
X138741982Y-112146925D01*
X138742747Y-112148071D01*
X138742748Y-112148072D01*
X138792588Y-112222663D01*
X138867179Y-112272503D01*
X138903417Y-112279711D01*
X138955164Y-112290004D01*
X138955164Y-112290003D01*
X138955165Y-112290004D01*
X139043151Y-112272503D01*
X139117742Y-112222663D01*
X139167582Y-112148072D01*
X139167582Y-112148071D01*
X139168348Y-112146925D01*
X139168874Y-112147276D01*
X139174806Y-112141344D01*
X139185522Y-112141343D01*
X139191456Y-112147276D01*
X139191982Y-112146925D01*
X139192747Y-112148071D01*
X139192748Y-112148072D01*
X139242588Y-112222663D01*
X139317179Y-112272503D01*
X139318326Y-112273269D01*
X139317972Y-112273798D01*
X139323900Y-112279711D01*
X139323913Y-112290426D01*
X139317976Y-112296381D01*
X139318325Y-112296903D01*
X139242588Y-112347509D01*
X139192747Y-112422101D01*
X139175247Y-112510085D01*
X139175247Y-112510086D01*
X139192747Y-112598070D01*
X139192747Y-112598071D01*
X139192748Y-112598072D01*
X139242588Y-112672663D01*
X139317179Y-112722503D01*
X139405165Y-112740004D01*
X139493151Y-112722503D01*
X139567742Y-112672663D01*
X139617582Y-112598072D01*
X139617582Y-112598071D01*
X139618348Y-112596925D01*
X139618874Y-112597276D01*
X139624806Y-112591344D01*
X139635522Y-112591343D01*
X139641456Y-112597276D01*
X139641982Y-112596925D01*
X139642747Y-112598071D01*
X139642748Y-112598072D01*
X139692588Y-112672663D01*
X139767179Y-112722503D01*
X139855165Y-112740004D01*
X139943151Y-112722503D01*
X140017742Y-112672663D01*
X140067582Y-112598072D01*
X140067582Y-112598071D01*
X140068348Y-112596925D01*
X140068874Y-112597276D01*
X140074806Y-112591344D01*
X140085522Y-112591343D01*
X140091456Y-112597276D01*
X140091982Y-112596925D01*
X140092747Y-112598071D01*
X140092748Y-112598072D01*
X140142588Y-112672663D01*
X140217179Y-112722503D01*
X140255715Y-112730168D01*
X140305164Y-112740004D01*
X140305164Y-112740003D01*
X140305165Y-112740004D01*
X140393151Y-112722503D01*
X140467742Y-112672663D01*
X140517582Y-112598072D01*
X140517582Y-112598071D01*
X140518348Y-112596925D01*
X140518874Y-112597276D01*
X140524806Y-112591344D01*
X140535522Y-112591343D01*
X140541456Y-112597276D01*
X140541982Y-112596925D01*
X140542747Y-112598071D01*
X140542748Y-112598072D01*
X140592588Y-112672663D01*
X140667179Y-112722503D01*
X140705715Y-112730168D01*
X140755164Y-112740004D01*
X140755164Y-112740003D01*
X140755165Y-112740004D01*
X140843151Y-112722503D01*
X140917742Y-112672663D01*
X140967582Y-112598072D01*
X140985083Y-112510086D01*
X140967582Y-112422100D01*
X140917742Y-112347509D01*
X140843151Y-112297669D01*
X140843150Y-112297668D01*
X140843149Y-112297668D01*
X140755165Y-112280168D01*
X140667180Y-112297668D01*
X140609410Y-112336269D01*
X140592588Y-112347509D01*
X140542756Y-112422089D01*
X140541982Y-112423247D01*
X140541456Y-112422895D01*
X140535513Y-112428831D01*
X140524798Y-112428823D01*
X140518871Y-112422896D01*
X140518348Y-112423247D01*
X140517576Y-112422091D01*
X140467742Y-112347509D01*
X140393151Y-112297669D01*
X140393150Y-112297668D01*
X140393149Y-112297668D01*
X140305165Y-112280168D01*
X140217180Y-112297668D01*
X140159410Y-112336269D01*
X140142588Y-112347509D01*
X140092756Y-112422089D01*
X140091982Y-112423247D01*
X140091456Y-112422895D01*
X140085513Y-112428831D01*
X140074798Y-112428823D01*
X140068871Y-112422896D01*
X140068348Y-112423247D01*
X140067576Y-112422091D01*
X140017742Y-112347509D01*
X139961502Y-112309931D01*
X139942005Y-112296903D01*
X139942354Y-112296379D01*
X139936417Y-112290428D01*
X139936429Y-112279713D01*
X139942357Y-112273797D01*
X139942004Y-112273269D01*
X139943150Y-112272503D01*
X139943151Y-112272503D01*
X140017742Y-112222663D01*
X140067582Y-112148072D01*
X140085083Y-112060086D01*
X140067582Y-111972100D01*
X140017742Y-111897509D01*
X139943151Y-111847669D01*
X139943150Y-111847668D01*
X139943149Y-111847668D01*
X139855165Y-111830168D01*
X139767180Y-111847668D01*
X139712804Y-111884001D01*
X139692588Y-111897509D01*
X139665043Y-111938734D01*
X139641982Y-111973247D01*
X139641456Y-111972895D01*
X139635513Y-111978831D01*
X139624798Y-111978823D01*
X139618871Y-111972896D01*
X139618348Y-111973247D01*
X139602304Y-111949235D01*
X139567742Y-111897509D01*
X139513744Y-111861429D01*
X139492005Y-111846903D01*
X139492354Y-111846379D01*
X139486417Y-111840428D01*
X139486429Y-111829713D01*
X139492357Y-111823797D01*
X139492004Y-111823269D01*
X139493150Y-111822503D01*
X139493151Y-111822503D01*
X139567742Y-111772663D01*
X139617582Y-111698072D01*
X139635083Y-111610086D01*
X139617582Y-111522100D01*
X139567742Y-111447509D01*
X139493151Y-111397669D01*
X139493150Y-111397668D01*
X139492004Y-111396903D01*
X139492355Y-111396376D01*
X139486423Y-111390445D01*
X139486422Y-111379729D01*
X139492355Y-111373794D01*
X139492004Y-111373269D01*
X139493150Y-111372503D01*
X139493151Y-111372503D01*
X139567742Y-111322663D01*
X139617582Y-111248072D01*
X139617582Y-111248071D01*
X139618348Y-111246925D01*
X139618874Y-111247276D01*
X139624806Y-111241344D01*
X139635522Y-111241343D01*
X139641456Y-111247276D01*
X139641982Y-111246925D01*
X139642747Y-111248071D01*
X139642748Y-111248072D01*
X139692588Y-111322663D01*
X139767179Y-111372503D01*
X139855165Y-111390004D01*
X139943151Y-111372503D01*
X140017742Y-111322663D01*
X140067582Y-111248072D01*
X140067582Y-111248071D01*
X140068348Y-111246925D01*
X140068874Y-111247276D01*
X140074806Y-111241344D01*
X140085522Y-111241343D01*
X140091456Y-111247276D01*
X140091982Y-111246925D01*
X140092747Y-111248071D01*
X140092748Y-111248072D01*
X140142588Y-111322663D01*
X140217179Y-111372503D01*
X140218326Y-111373269D01*
X140217972Y-111373798D01*
X140223900Y-111379711D01*
X140223913Y-111390426D01*
X140217976Y-111396381D01*
X140218325Y-111396903D01*
X140142588Y-111447509D01*
X140092747Y-111522101D01*
X140075247Y-111610085D01*
X140075247Y-111610086D01*
X140092747Y-111698070D01*
X140092747Y-111698071D01*
X140092748Y-111698072D01*
X140142588Y-111772663D01*
X140217179Y-111822503D01*
X140249571Y-111828946D01*
X140305164Y-111840004D01*
X140305164Y-111840003D01*
X140305165Y-111840004D01*
X140393151Y-111822503D01*
X140467742Y-111772663D01*
X140517582Y-111698072D01*
X140517582Y-111698071D01*
X140518348Y-111696925D01*
X140518874Y-111697276D01*
X140524806Y-111691344D01*
X140535522Y-111691343D01*
X140541456Y-111697276D01*
X140541982Y-111696925D01*
X140542747Y-111698071D01*
X140542748Y-111698072D01*
X140592588Y-111772663D01*
X140667179Y-111822503D01*
X140699571Y-111828946D01*
X140755164Y-111840004D01*
X140755164Y-111840003D01*
X140755165Y-111840004D01*
X140843151Y-111822503D01*
X140917742Y-111772663D01*
X140967582Y-111698072D01*
X140985083Y-111610086D01*
X141425247Y-111610086D01*
X141442747Y-111698070D01*
X141442747Y-111698071D01*
X141442748Y-111698072D01*
X141492588Y-111772663D01*
X141567179Y-111822503D01*
X141655165Y-111840004D01*
X141743151Y-111822503D01*
X141817742Y-111772663D01*
X141867582Y-111698072D01*
X141885083Y-111610086D01*
X141867582Y-111522100D01*
X141817742Y-111447509D01*
X141743151Y-111397669D01*
X141743150Y-111397668D01*
X141743149Y-111397668D01*
X141655165Y-111380168D01*
X141567180Y-111397668D01*
X141492588Y-111447509D01*
X141442747Y-111522101D01*
X141425247Y-111610085D01*
X141425247Y-111610086D01*
X140985083Y-111610086D01*
X140967582Y-111522100D01*
X140917742Y-111447509D01*
X140843151Y-111397669D01*
X140842005Y-111396903D01*
X140842354Y-111396379D01*
X140836417Y-111390428D01*
X140836429Y-111379713D01*
X140842357Y-111373797D01*
X140842004Y-111373269D01*
X140843150Y-111372503D01*
X140843151Y-111372503D01*
X140917742Y-111322663D01*
X140967582Y-111248072D01*
X140985083Y-111160086D01*
X140967582Y-111072100D01*
X140917742Y-110997509D01*
X140843151Y-110947669D01*
X140842005Y-110946903D01*
X140842354Y-110946379D01*
X140836417Y-110940428D01*
X140836429Y-110929713D01*
X140842357Y-110923797D01*
X140842004Y-110923269D01*
X140843150Y-110922503D01*
X140843151Y-110922503D01*
X140917742Y-110872663D01*
X140967582Y-110798072D01*
X140985083Y-110710086D01*
X140970839Y-110638478D01*
X140972824Y-110628131D01*
X141433045Y-109918706D01*
X141441872Y-109912634D01*
X141452408Y-109914582D01*
X141456429Y-109918549D01*
X141492586Y-109972662D01*
X141508546Y-109983326D01*
X141567179Y-110022503D01*
X141655165Y-110040004D01*
X141743151Y-110022503D01*
X141817742Y-109972663D01*
X141867582Y-109898072D01*
X141885083Y-109810086D01*
X141880709Y-109788098D01*
X141868409Y-109726257D01*
X141867582Y-109722100D01*
X141817742Y-109647509D01*
X141743151Y-109597669D01*
X141743150Y-109597668D01*
X141743149Y-109597668D01*
X141673201Y-109583755D01*
X141664291Y-109577802D01*
X141662201Y-109567293D01*
X141664185Y-109562407D01*
X141982041Y-109072436D01*
X147011691Y-109072436D01*
X147030092Y-109176796D01*
X147083076Y-109268569D01*
X147083078Y-109268571D01*
X147083079Y-109268572D01*
X147164259Y-109336690D01*
X147263841Y-109372934D01*
X147263842Y-109372934D01*
X147369812Y-109372934D01*
X147369813Y-109372934D01*
X147469395Y-109336690D01*
X147550575Y-109268572D01*
X147603561Y-109176797D01*
X147610288Y-109138647D01*
X147621963Y-109072436D01*
X147621963Y-109072431D01*
X147603561Y-108968071D01*
X147550577Y-108876298D01*
X147545921Y-108872391D01*
X148855898Y-108872391D01*
X148874299Y-108976751D01*
X148927283Y-109068524D01*
X148927285Y-109068526D01*
X148927286Y-109068527D01*
X149008466Y-109136645D01*
X149108048Y-109172889D01*
X149108049Y-109172889D01*
X149214019Y-109172889D01*
X149214020Y-109172889D01*
X149313602Y-109136645D01*
X149394782Y-109068527D01*
X149396651Y-109065291D01*
X149425258Y-109015741D01*
X149447768Y-108976752D01*
X149466170Y-108872389D01*
X149466170Y-108872386D01*
X149447768Y-108768026D01*
X149394784Y-108676253D01*
X149394782Y-108676251D01*
X149313602Y-108608133D01*
X149263811Y-108590011D01*
X149214021Y-108571889D01*
X149214020Y-108571889D01*
X149108048Y-108571889D01*
X149108046Y-108571889D01*
X149008466Y-108608133D01*
X148927283Y-108676253D01*
X148874299Y-108768026D01*
X148855898Y-108872386D01*
X148855898Y-108872391D01*
X147545921Y-108872391D01*
X147469395Y-108808178D01*
X147419603Y-108790056D01*
X147369814Y-108771934D01*
X147369813Y-108771934D01*
X147263841Y-108771934D01*
X147263839Y-108771934D01*
X147164259Y-108808178D01*
X147083076Y-108876298D01*
X147030092Y-108968071D01*
X147011691Y-109072431D01*
X147011691Y-109072436D01*
X141982041Y-109072436D01*
X142470344Y-108319723D01*
X143238804Y-108319723D01*
X143257205Y-108424083D01*
X143310189Y-108515856D01*
X143310191Y-108515858D01*
X143310192Y-108515859D01*
X143391372Y-108583977D01*
X143490954Y-108620221D01*
X143490955Y-108620221D01*
X143596925Y-108620221D01*
X143596926Y-108620221D01*
X143696508Y-108583977D01*
X143777688Y-108515859D01*
X143830674Y-108424084D01*
X143844133Y-108347753D01*
X143849076Y-108319723D01*
X143849076Y-108319718D01*
X143830674Y-108215358D01*
X143777690Y-108123585D01*
X143750953Y-108101150D01*
X143729917Y-108083499D01*
X149470183Y-108083499D01*
X149488584Y-108187859D01*
X149541568Y-108279632D01*
X149541570Y-108279634D01*
X149541571Y-108279635D01*
X149622751Y-108347753D01*
X149722333Y-108383997D01*
X149722334Y-108383997D01*
X149828304Y-108383997D01*
X149828305Y-108383997D01*
X149927887Y-108347753D01*
X150009067Y-108279635D01*
X150062053Y-108187860D01*
X150068546Y-108151039D01*
X150080455Y-108083499D01*
X150080455Y-108083494D01*
X150062053Y-107979134D01*
X150009069Y-107887361D01*
X150009067Y-107887359D01*
X149927887Y-107819241D01*
X149876805Y-107800649D01*
X149828306Y-107782997D01*
X149828305Y-107782997D01*
X149722333Y-107782997D01*
X149722331Y-107782997D01*
X149622751Y-107819241D01*
X149541568Y-107887361D01*
X149488584Y-107979134D01*
X149470183Y-108083494D01*
X149470183Y-108083499D01*
X143729917Y-108083499D01*
X143696508Y-108055465D01*
X143646716Y-108037343D01*
X143596927Y-108019221D01*
X143596926Y-108019221D01*
X143490954Y-108019221D01*
X143490952Y-108019221D01*
X143391372Y-108055465D01*
X143310189Y-108123585D01*
X143257205Y-108215358D01*
X143238804Y-108319718D01*
X143238804Y-108319723D01*
X142470344Y-108319723D01*
X143381083Y-106915829D01*
X148859970Y-106915829D01*
X148878371Y-107020189D01*
X148931355Y-107111962D01*
X148931357Y-107111964D01*
X148931358Y-107111965D01*
X149012538Y-107180083D01*
X149112120Y-107216327D01*
X149112121Y-107216327D01*
X149218091Y-107216327D01*
X149218092Y-107216327D01*
X149317674Y-107180083D01*
X149398854Y-107111965D01*
X149403034Y-107104726D01*
X149418977Y-107077111D01*
X149451840Y-107020190D01*
X149463744Y-106952679D01*
X149470242Y-106915829D01*
X149470242Y-106915824D01*
X149470114Y-106915097D01*
X151124558Y-106915097D01*
X151142058Y-107003081D01*
X151142058Y-107003082D01*
X151142059Y-107003083D01*
X151191899Y-107077674D01*
X151266490Y-107127514D01*
X151310483Y-107136264D01*
X151354475Y-107145015D01*
X151354475Y-107145014D01*
X151354476Y-107145015D01*
X151442462Y-107127514D01*
X151448461Y-107123505D01*
X151458972Y-107121414D01*
X151467881Y-107127366D01*
X151469972Y-107137876D01*
X151464558Y-107165096D01*
X151464558Y-107165097D01*
X151482058Y-107253081D01*
X151482058Y-107253082D01*
X151482059Y-107253083D01*
X151531899Y-107327674D01*
X151606490Y-107377514D01*
X151694476Y-107395015D01*
X151782462Y-107377514D01*
X151857053Y-107327674D01*
X151906893Y-107253083D01*
X151924394Y-107165097D01*
X151916918Y-107127514D01*
X151915643Y-107121104D01*
X151906893Y-107077111D01*
X151880674Y-107037871D01*
X152231031Y-107037871D01*
X152249432Y-107142231D01*
X152302416Y-107234004D01*
X152302418Y-107234006D01*
X152302419Y-107234007D01*
X152383599Y-107302125D01*
X152483181Y-107338369D01*
X152483182Y-107338369D01*
X152589152Y-107338369D01*
X152589153Y-107338369D01*
X152688735Y-107302125D01*
X152769915Y-107234007D01*
X152780123Y-107216327D01*
X152786712Y-107204912D01*
X152822901Y-107142232D01*
X152831706Y-107092298D01*
X152841303Y-107037871D01*
X152841303Y-107037866D01*
X152822901Y-106933506D01*
X152769917Y-106841733D01*
X152766708Y-106839040D01*
X152688735Y-106773613D01*
X152616843Y-106747447D01*
X152589154Y-106737369D01*
X152589153Y-106737369D01*
X152483181Y-106737369D01*
X152483179Y-106737369D01*
X152383599Y-106773613D01*
X152302416Y-106841733D01*
X152249432Y-106933506D01*
X152231031Y-107037866D01*
X152231031Y-107037871D01*
X151880674Y-107037871D01*
X151857053Y-107002520D01*
X151782462Y-106952680D01*
X151782461Y-106952679D01*
X151782460Y-106952679D01*
X151694476Y-106935179D01*
X151606489Y-106952679D01*
X151600487Y-106956690D01*
X151589978Y-106958780D01*
X151581069Y-106952826D01*
X151578979Y-106942318D01*
X151584394Y-106915097D01*
X151584394Y-106915096D01*
X151569266Y-106839040D01*
X151566893Y-106827111D01*
X151517053Y-106752520D01*
X151442462Y-106702680D01*
X151442461Y-106702679D01*
X151442460Y-106702679D01*
X151354476Y-106685179D01*
X151266491Y-106702679D01*
X151191899Y-106752520D01*
X151142058Y-106827112D01*
X151124558Y-106915096D01*
X151124558Y-106915097D01*
X149470114Y-106915097D01*
X149451840Y-106811464D01*
X149398856Y-106719691D01*
X149378582Y-106702679D01*
X149317674Y-106651571D01*
X149267883Y-106633448D01*
X149218093Y-106615327D01*
X149218092Y-106615327D01*
X149112120Y-106615327D01*
X149112118Y-106615327D01*
X149012538Y-106651571D01*
X148931355Y-106719691D01*
X148878371Y-106811464D01*
X148859970Y-106915824D01*
X148859970Y-106915829D01*
X143381083Y-106915829D01*
X143705920Y-106415097D01*
X151124558Y-106415097D01*
X151142058Y-106503081D01*
X151142058Y-106503082D01*
X151142059Y-106503083D01*
X151191899Y-106577674D01*
X151266490Y-106627514D01*
X151354476Y-106645015D01*
X151442462Y-106627514D01*
X151517053Y-106577674D01*
X151566893Y-106503083D01*
X151584394Y-106415097D01*
X151566893Y-106327111D01*
X151517053Y-106252520D01*
X151442462Y-106202680D01*
X151442461Y-106202679D01*
X151442460Y-106202679D01*
X151354476Y-106185179D01*
X151266491Y-106202679D01*
X151191899Y-106252520D01*
X151142058Y-106327112D01*
X151124558Y-106415096D01*
X151124558Y-106415097D01*
X143705920Y-106415097D01*
X144342708Y-105433496D01*
X148798864Y-105433496D01*
X148817265Y-105537856D01*
X148870249Y-105629629D01*
X148870251Y-105629631D01*
X148870252Y-105629632D01*
X148951432Y-105697750D01*
X149051014Y-105733994D01*
X149051015Y-105733994D01*
X149156985Y-105733994D01*
X149156986Y-105733994D01*
X149256568Y-105697750D01*
X149337748Y-105629632D01*
X149344835Y-105617358D01*
X149379434Y-105557429D01*
X149390734Y-105537857D01*
X149399142Y-105490171D01*
X149409136Y-105433496D01*
X149409136Y-105433491D01*
X149390734Y-105329131D01*
X149337750Y-105237358D01*
X149337748Y-105237356D01*
X149256568Y-105169238D01*
X149206777Y-105151115D01*
X149156987Y-105132994D01*
X149156986Y-105132994D01*
X149051014Y-105132994D01*
X149051012Y-105132994D01*
X148951432Y-105169238D01*
X148870249Y-105237358D01*
X148817265Y-105329131D01*
X148798864Y-105433491D01*
X148798864Y-105433496D01*
X144342708Y-105433496D01*
X145104303Y-104259507D01*
X147233617Y-104259507D01*
X147252018Y-104363867D01*
X147305002Y-104455640D01*
X147305004Y-104455642D01*
X147305005Y-104455643D01*
X147386185Y-104523761D01*
X147485767Y-104560005D01*
X147485768Y-104560005D01*
X147591738Y-104560005D01*
X147591739Y-104560005D01*
X147691321Y-104523761D01*
X147772501Y-104455643D01*
X147772967Y-104454837D01*
X147795910Y-104415097D01*
X151124558Y-104415097D01*
X151142058Y-104503081D01*
X151142058Y-104503082D01*
X151142059Y-104503083D01*
X151191899Y-104577674D01*
X151266490Y-104627514D01*
X151283644Y-104630926D01*
X151354475Y-104645015D01*
X151354475Y-104645014D01*
X151354476Y-104645015D01*
X151442462Y-104627514D01*
X151517053Y-104577674D01*
X151566893Y-104503083D01*
X151584394Y-104415097D01*
X151578737Y-104386659D01*
X151566893Y-104327112D01*
X151566893Y-104327111D01*
X151517053Y-104252520D01*
X151442462Y-104202680D01*
X151442461Y-104202679D01*
X151442460Y-104202679D01*
X151354476Y-104185179D01*
X151266491Y-104202679D01*
X151191899Y-104252520D01*
X151142058Y-104327112D01*
X151124558Y-104415096D01*
X151124558Y-104415097D01*
X147795910Y-104415097D01*
X147808939Y-104392530D01*
X147825487Y-104363868D01*
X147831968Y-104327111D01*
X147843889Y-104259507D01*
X147843889Y-104259502D01*
X147825487Y-104155142D01*
X147772503Y-104063369D01*
X147762137Y-104054671D01*
X147691321Y-103995249D01*
X147641529Y-103977126D01*
X147591740Y-103959005D01*
X147591739Y-103959005D01*
X147485767Y-103959005D01*
X147485765Y-103959005D01*
X147386185Y-103995249D01*
X147305002Y-104063369D01*
X147252018Y-104155142D01*
X147233617Y-104259502D01*
X147233617Y-104259507D01*
X145104303Y-104259507D01*
X146027910Y-102835777D01*
X146036738Y-102829704D01*
X146039655Y-102829397D01*
X146115482Y-102829397D01*
X146115483Y-102829397D01*
X146215065Y-102793153D01*
X146296245Y-102725035D01*
X146299660Y-102719121D01*
X146321704Y-102680938D01*
X146349231Y-102633260D01*
X146362141Y-102560042D01*
X146367633Y-102528899D01*
X146367633Y-102528894D01*
X146349231Y-102424534D01*
X146296247Y-102332761D01*
X146286146Y-102324285D01*
X146264029Y-102305727D01*
X148300412Y-102305727D01*
X148318813Y-102410087D01*
X148371797Y-102501860D01*
X148371799Y-102501862D01*
X148371800Y-102501863D01*
X148452980Y-102569981D01*
X148552562Y-102606225D01*
X148552563Y-102606225D01*
X148658533Y-102606225D01*
X148658534Y-102606225D01*
X148758116Y-102569981D01*
X148839296Y-102501863D01*
X148840146Y-102500392D01*
X148856093Y-102472768D01*
X148892282Y-102410088D01*
X148903485Y-102346552D01*
X148910684Y-102305727D01*
X148910684Y-102305722D01*
X148892282Y-102201362D01*
X148839298Y-102109589D01*
X148839296Y-102109587D01*
X148758116Y-102041469D01*
X148670607Y-102009619D01*
X148658535Y-102005225D01*
X148658534Y-102005225D01*
X148552562Y-102005225D01*
X148552560Y-102005225D01*
X148452980Y-102041469D01*
X148371797Y-102109589D01*
X148318813Y-102201362D01*
X148300412Y-102305722D01*
X148300412Y-102305727D01*
X146264029Y-102305727D01*
X146215065Y-102264641D01*
X146165273Y-102246518D01*
X146115484Y-102228397D01*
X146115483Y-102228397D01*
X146009511Y-102228397D01*
X146009509Y-102228397D01*
X145909929Y-102264641D01*
X145828746Y-102332761D01*
X145775762Y-102424534D01*
X145757361Y-102528894D01*
X145757361Y-102528899D01*
X145775762Y-102633259D01*
X145797155Y-102670314D01*
X145798554Y-102680938D01*
X145796776Y-102684933D01*
X140740766Y-110478712D01*
X140731938Y-110484786D01*
X140731752Y-110484824D01*
X140667180Y-110497668D01*
X140595017Y-110545886D01*
X140592588Y-110547509D01*
X140542899Y-110621875D01*
X140541982Y-110623247D01*
X140541456Y-110622895D01*
X140535513Y-110628831D01*
X140524798Y-110628823D01*
X140518871Y-110622896D01*
X140518348Y-110623247D01*
X140517582Y-110622100D01*
X140467742Y-110547509D01*
X140393151Y-110497669D01*
X140393150Y-110497668D01*
X140393149Y-110497668D01*
X140305165Y-110480168D01*
X140217180Y-110497668D01*
X140145017Y-110545886D01*
X140142588Y-110547509D01*
X140092899Y-110621875D01*
X140091982Y-110623247D01*
X140091456Y-110622895D01*
X140085513Y-110628831D01*
X140074798Y-110628823D01*
X140068871Y-110622896D01*
X140068348Y-110623247D01*
X140067582Y-110622100D01*
X140017742Y-110547509D01*
X139943151Y-110497669D01*
X139943150Y-110497668D01*
X139943149Y-110497668D01*
X139855165Y-110480168D01*
X139767180Y-110497668D01*
X139695017Y-110545886D01*
X139692588Y-110547509D01*
X139642899Y-110621875D01*
X139641982Y-110623247D01*
X139641456Y-110622895D01*
X139635513Y-110628831D01*
X139624798Y-110628823D01*
X139618871Y-110622896D01*
X139618348Y-110623247D01*
X139617582Y-110622100D01*
X139567742Y-110547509D01*
X139493151Y-110497669D01*
X139493150Y-110497668D01*
X139493149Y-110497668D01*
X139405165Y-110480168D01*
X139317180Y-110497668D01*
X139245017Y-110545886D01*
X139242588Y-110547509D01*
X139192899Y-110621875D01*
X139191982Y-110623247D01*
X139191456Y-110622895D01*
X139185513Y-110628831D01*
X139174798Y-110628823D01*
X139168871Y-110622896D01*
X139168348Y-110623247D01*
X139167582Y-110622100D01*
X139117742Y-110547509D01*
X139043151Y-110497669D01*
X139043150Y-110497668D01*
X139043149Y-110497668D01*
X138955165Y-110480168D01*
X138867180Y-110497668D01*
X138792588Y-110547509D01*
X138742747Y-110622101D01*
X138725247Y-110710085D01*
X138725247Y-110710086D01*
X138742747Y-110798070D01*
X138742747Y-110798071D01*
X138742748Y-110798072D01*
X138792588Y-110872663D01*
X138867179Y-110922503D01*
X138868326Y-110923269D01*
X138867972Y-110923798D01*
X138873900Y-110929711D01*
X138873913Y-110940426D01*
X138867976Y-110946381D01*
X138868325Y-110946903D01*
X138867178Y-110947669D01*
X138867179Y-110947669D01*
X138792588Y-110997509D01*
X138743034Y-111071673D01*
X138741982Y-111073247D01*
X138741456Y-111072895D01*
X138735513Y-111078831D01*
X138724798Y-111078823D01*
X138718871Y-111072896D01*
X138718348Y-111073247D01*
X138717582Y-111072100D01*
X138667742Y-110997509D01*
X138593151Y-110947669D01*
X138593150Y-110947668D01*
X138593149Y-110947668D01*
X138505165Y-110930168D01*
X138417180Y-110947668D01*
X138417178Y-110947669D01*
X138417179Y-110947669D01*
X138342588Y-110997509D01*
X138293034Y-111071673D01*
X138291982Y-111073247D01*
X138291456Y-111072895D01*
X138285513Y-111078831D01*
X138274798Y-111078823D01*
X138268871Y-111072896D01*
X138268348Y-111073247D01*
X138267582Y-111072100D01*
X138217742Y-110997509D01*
X138143151Y-110947669D01*
X138143150Y-110947668D01*
X138143149Y-110947668D01*
X138055165Y-110930168D01*
X137967180Y-110947668D01*
X137892588Y-110997509D01*
X137887281Y-111005451D01*
X137878372Y-111011403D01*
X137867862Y-111009312D01*
X137863531Y-111004697D01*
X137859361Y-110997509D01*
X137431601Y-110260086D01*
X137825247Y-110260086D01*
X137842747Y-110348070D01*
X137842747Y-110348071D01*
X137842748Y-110348072D01*
X137892588Y-110422663D01*
X137967179Y-110472503D01*
X138055165Y-110490004D01*
X138143151Y-110472503D01*
X138217742Y-110422663D01*
X138267582Y-110348072D01*
X138267582Y-110348071D01*
X138268348Y-110346925D01*
X138268874Y-110347276D01*
X138274806Y-110341344D01*
X138285522Y-110341343D01*
X138291456Y-110347276D01*
X138291982Y-110346925D01*
X138292747Y-110348071D01*
X138292748Y-110348072D01*
X138342588Y-110422663D01*
X138417179Y-110472503D01*
X138505165Y-110490004D01*
X138593151Y-110472503D01*
X138667742Y-110422663D01*
X138717582Y-110348072D01*
X138735083Y-110260086D01*
X138717582Y-110172100D01*
X138667742Y-110097509D01*
X138593151Y-110047669D01*
X138593150Y-110047668D01*
X138593149Y-110047668D01*
X138505165Y-110030168D01*
X138417180Y-110047668D01*
X138407509Y-110054130D01*
X138342588Y-110097509D01*
X138303028Y-110156716D01*
X138291982Y-110173247D01*
X138291456Y-110172895D01*
X138285513Y-110178831D01*
X138274798Y-110178823D01*
X138268871Y-110172896D01*
X138268348Y-110173247D01*
X138257303Y-110156717D01*
X138217742Y-110097509D01*
X138143151Y-110047669D01*
X138143150Y-110047668D01*
X138143149Y-110047668D01*
X138055165Y-110030168D01*
X137967180Y-110047668D01*
X137892588Y-110097509D01*
X137842747Y-110172101D01*
X137825247Y-110260085D01*
X137825247Y-110260086D01*
X137431601Y-110260086D01*
X137380563Y-110172100D01*
X136760226Y-109102691D01*
X136759027Y-109100011D01*
X136759021Y-109099992D01*
X136758836Y-109099426D01*
X136754365Y-109092567D01*
X136754174Y-109092257D01*
X136750037Y-109085126D01*
X136749598Y-109084689D01*
X136747746Y-109082411D01*
X136731727Y-109057829D01*
X136731725Y-109057827D01*
X136730961Y-109056655D01*
X136730935Y-109056621D01*
X136514886Y-108725173D01*
X137601641Y-108725173D01*
X137620042Y-108829533D01*
X137673026Y-108921306D01*
X137673028Y-108921308D01*
X137673029Y-108921309D01*
X137754209Y-108989427D01*
X137774166Y-108996690D01*
X137782065Y-109003928D01*
X137782533Y-109014633D01*
X137778376Y-109020569D01*
X137748692Y-109045478D01*
X137748690Y-109045481D01*
X137695705Y-109137254D01*
X137677304Y-109241614D01*
X137677304Y-109241619D01*
X137695705Y-109345979D01*
X137748689Y-109437752D01*
X137748691Y-109437754D01*
X137748692Y-109437755D01*
X137829872Y-109505873D01*
X137929454Y-109542117D01*
X137929455Y-109542117D01*
X138035425Y-109542117D01*
X138035426Y-109542117D01*
X138135008Y-109505873D01*
X138216188Y-109437755D01*
X138228766Y-109415970D01*
X138253612Y-109372934D01*
X138269174Y-109345980D01*
X138285798Y-109251700D01*
X138287576Y-109241619D01*
X138287576Y-109241614D01*
X138269174Y-109137254D01*
X138216190Y-109045481D01*
X138216188Y-109045479D01*
X138135008Y-108977361D01*
X138126599Y-108974300D01*
X138115051Y-108970097D01*
X138107151Y-108962857D01*
X138106683Y-108952153D01*
X138110837Y-108946218D01*
X138140525Y-108921309D01*
X138141666Y-108919334D01*
X138166513Y-108876296D01*
X138190955Y-108833961D01*
X138304957Y-108833961D01*
X138323358Y-108938321D01*
X138376342Y-109030094D01*
X138376344Y-109030096D01*
X138376345Y-109030097D01*
X138457525Y-109098215D01*
X138519550Y-109120789D01*
X138527450Y-109128028D01*
X138527918Y-109138733D01*
X138526886Y-109140945D01*
X138489645Y-109205449D01*
X138471244Y-109309809D01*
X138471244Y-109309814D01*
X138489645Y-109414174D01*
X138542629Y-109505947D01*
X138542631Y-109505949D01*
X138542632Y-109505950D01*
X138623812Y-109574068D01*
X138723394Y-109610312D01*
X138723395Y-109610312D01*
X138829365Y-109610312D01*
X138829366Y-109610312D01*
X138928948Y-109574068D01*
X139010128Y-109505950D01*
X139010173Y-109505873D01*
X139049502Y-109437752D01*
X139063114Y-109414175D01*
X139076777Y-109336689D01*
X139081516Y-109309814D01*
X139081516Y-109309809D01*
X139063114Y-109205449D01*
X139010130Y-109113676D01*
X139010128Y-109113674D01*
X138928948Y-109045556D01*
X138884716Y-109029457D01*
X138866921Y-109022980D01*
X138859021Y-109015741D01*
X138858553Y-109005036D01*
X138859581Y-109002832D01*
X138889391Y-108951202D01*
X139265037Y-108951202D01*
X139283438Y-109055562D01*
X139336422Y-109147335D01*
X139336424Y-109147337D01*
X139336425Y-109147338D01*
X139417605Y-109215456D01*
X139517187Y-109251700D01*
X139517188Y-109251700D01*
X139623158Y-109251700D01*
X139623159Y-109251700D01*
X139722741Y-109215456D01*
X139803921Y-109147338D01*
X139856907Y-109055563D01*
X139870696Y-108977361D01*
X139875309Y-108951202D01*
X139875309Y-108951197D01*
X139856907Y-108846837D01*
X139803923Y-108755064D01*
X139793567Y-108746374D01*
X139722741Y-108686944D01*
X139672950Y-108668822D01*
X139623160Y-108650700D01*
X139623159Y-108650700D01*
X139517187Y-108650700D01*
X139517185Y-108650700D01*
X139417605Y-108686944D01*
X139336422Y-108755064D01*
X139283438Y-108846837D01*
X139265037Y-108951197D01*
X139265037Y-108951202D01*
X138889391Y-108951202D01*
X138896827Y-108938322D01*
X138902960Y-108903534D01*
X138915229Y-108833961D01*
X138915229Y-108833956D01*
X138896827Y-108729596D01*
X138843843Y-108637823D01*
X138843841Y-108637821D01*
X138762661Y-108569703D01*
X138712870Y-108551581D01*
X138663080Y-108533459D01*
X138663079Y-108533459D01*
X138557107Y-108533459D01*
X138557105Y-108533459D01*
X138457525Y-108569703D01*
X138376342Y-108637823D01*
X138323358Y-108729596D01*
X138304957Y-108833956D01*
X138304957Y-108833961D01*
X138190955Y-108833961D01*
X138193511Y-108829534D01*
X138199644Y-108794746D01*
X138211913Y-108725173D01*
X138211913Y-108725168D01*
X138193511Y-108620808D01*
X138140527Y-108529035D01*
X138140525Y-108529033D01*
X138059345Y-108460915D01*
X138009554Y-108442793D01*
X137959764Y-108424671D01*
X137959763Y-108424671D01*
X137853791Y-108424671D01*
X137853789Y-108424671D01*
X137754209Y-108460915D01*
X137673026Y-108529035D01*
X137620042Y-108620808D01*
X137601641Y-108725168D01*
X137601641Y-108725173D01*
X136514886Y-108725173D01*
X135852430Y-107708876D01*
X135641316Y-107384999D01*
X139988450Y-107384999D01*
X140005950Y-107472983D01*
X140005950Y-107472984D01*
X140005951Y-107472985D01*
X140055791Y-107547576D01*
X140130382Y-107597416D01*
X140218368Y-107614917D01*
X140306354Y-107597416D01*
X140380945Y-107547576D01*
X140430785Y-107472985D01*
X140448286Y-107384999D01*
X140430785Y-107297013D01*
X140380945Y-107222422D01*
X140306354Y-107172582D01*
X140306353Y-107172581D01*
X140306352Y-107172581D01*
X140218368Y-107155081D01*
X140130383Y-107172581D01*
X140055791Y-107222422D01*
X140005950Y-107297014D01*
X139988450Y-107384998D01*
X139988450Y-107384999D01*
X135641316Y-107384999D01*
X135244062Y-106775557D01*
X136830566Y-106775557D01*
X136848967Y-106879917D01*
X136901951Y-106971690D01*
X136901953Y-106971692D01*
X136901954Y-106971693D01*
X136983134Y-107039811D01*
X137082716Y-107076055D01*
X137082717Y-107076055D01*
X137188687Y-107076055D01*
X137188688Y-107076055D01*
X137288270Y-107039811D01*
X137369450Y-106971693D01*
X137422436Y-106879918D01*
X137433754Y-106815733D01*
X138026314Y-106815733D01*
X138044715Y-106920093D01*
X138097699Y-107011866D01*
X138097701Y-107011868D01*
X138097702Y-107011869D01*
X138178882Y-107079987D01*
X138278464Y-107116231D01*
X138278465Y-107116231D01*
X138384435Y-107116231D01*
X138384436Y-107116231D01*
X138484018Y-107079987D01*
X138565198Y-107011869D01*
X138570737Y-107002276D01*
X138599286Y-106952826D01*
X138618184Y-106920094D01*
X138632476Y-106839040D01*
X138636586Y-106815733D01*
X138636586Y-106815728D01*
X138618184Y-106711368D01*
X138565200Y-106619595D01*
X138560114Y-106615327D01*
X138484018Y-106551475D01*
X138434227Y-106533352D01*
X138384437Y-106515231D01*
X138384436Y-106515231D01*
X138278464Y-106515231D01*
X138278462Y-106515231D01*
X138178882Y-106551475D01*
X138097699Y-106619595D01*
X138044715Y-106711368D01*
X138026314Y-106815728D01*
X138026314Y-106815733D01*
X137433754Y-106815733D01*
X137433754Y-106815731D01*
X137440838Y-106775557D01*
X137440838Y-106775552D01*
X137422436Y-106671192D01*
X137369452Y-106579419D01*
X137369450Y-106579417D01*
X137288270Y-106511299D01*
X137218205Y-106485798D01*
X137188689Y-106475055D01*
X137188688Y-106475055D01*
X137082716Y-106475055D01*
X137082714Y-106475055D01*
X136983134Y-106511299D01*
X136901951Y-106579419D01*
X136848967Y-106671192D01*
X136830566Y-106775552D01*
X136830566Y-106775557D01*
X135244062Y-106775557D01*
X134600440Y-105788155D01*
X134598470Y-105777625D01*
X134600043Y-105773516D01*
X134621102Y-105737043D01*
X134631449Y-105678362D01*
X134639504Y-105632682D01*
X134639504Y-105632677D01*
X134621102Y-105528317D01*
X134586770Y-105468851D01*
X136508676Y-105468851D01*
X136527077Y-105573211D01*
X136580061Y-105664984D01*
X136580063Y-105664986D01*
X136580064Y-105664987D01*
X136661244Y-105733105D01*
X136760826Y-105769349D01*
X136760827Y-105769349D01*
X136866797Y-105769349D01*
X136866798Y-105769349D01*
X136966380Y-105733105D01*
X136976536Y-105724583D01*
X138043521Y-105724583D01*
X138061922Y-105828943D01*
X138114906Y-105920716D01*
X138114908Y-105920718D01*
X138114909Y-105920719D01*
X138196089Y-105988837D01*
X138295671Y-106025081D01*
X138295672Y-106025081D01*
X138401642Y-106025081D01*
X138401643Y-106025081D01*
X138501225Y-105988837D01*
X138582405Y-105920719D01*
X138592564Y-105903124D01*
X138608458Y-105875593D01*
X138635391Y-105828944D01*
X138643583Y-105782483D01*
X138653793Y-105724583D01*
X138653793Y-105724578D01*
X138635391Y-105620218D01*
X138587993Y-105538120D01*
X140541521Y-105538120D01*
X140559922Y-105642480D01*
X140612906Y-105734253D01*
X140612908Y-105734255D01*
X140612909Y-105734256D01*
X140694089Y-105802374D01*
X140793671Y-105838618D01*
X140793672Y-105838618D01*
X140899642Y-105838618D01*
X140899643Y-105838618D01*
X140999225Y-105802374D01*
X141080405Y-105734256D01*
X141080557Y-105733994D01*
X141103633Y-105694024D01*
X141133391Y-105642481D01*
X141148388Y-105557429D01*
X141151793Y-105538120D01*
X141151793Y-105538115D01*
X141133391Y-105433755D01*
X141080407Y-105341982D01*
X141069338Y-105332694D01*
X140999225Y-105273862D01*
X140931982Y-105249388D01*
X140899644Y-105237618D01*
X140899643Y-105237618D01*
X140793671Y-105237618D01*
X140793669Y-105237618D01*
X140694089Y-105273862D01*
X140612906Y-105341982D01*
X140559922Y-105433755D01*
X140541521Y-105538115D01*
X140541521Y-105538120D01*
X138587993Y-105538120D01*
X138582407Y-105528445D01*
X138582405Y-105528443D01*
X138501225Y-105460325D01*
X138428223Y-105433755D01*
X138401644Y-105424081D01*
X138401643Y-105424081D01*
X138295671Y-105424081D01*
X138295669Y-105424081D01*
X138196089Y-105460325D01*
X138114906Y-105528445D01*
X138061922Y-105620218D01*
X138043521Y-105724578D01*
X138043521Y-105724583D01*
X136976536Y-105724583D01*
X137047560Y-105664987D01*
X137053759Y-105654251D01*
X137093300Y-105585762D01*
X137100546Y-105573212D01*
X137111171Y-105512957D01*
X137118948Y-105468851D01*
X137118948Y-105468846D01*
X137100546Y-105364486D01*
X137047562Y-105272713D01*
X137046268Y-105271627D01*
X136966380Y-105204593D01*
X136925387Y-105189673D01*
X139256377Y-105189673D01*
X139274778Y-105294033D01*
X139327762Y-105385806D01*
X139327764Y-105385808D01*
X139327765Y-105385809D01*
X139408945Y-105453927D01*
X139508527Y-105490171D01*
X139508528Y-105490171D01*
X139614498Y-105490171D01*
X139614499Y-105490171D01*
X139714081Y-105453927D01*
X139795261Y-105385809D01*
X139848247Y-105294034D01*
X139866649Y-105189671D01*
X139866649Y-105189668D01*
X139848247Y-105085308D01*
X139795263Y-104993535D01*
X139795261Y-104993533D01*
X139714081Y-104925415D01*
X139623841Y-104892571D01*
X139614500Y-104889171D01*
X139614499Y-104889171D01*
X139508527Y-104889171D01*
X139508525Y-104889171D01*
X139408945Y-104925415D01*
X139327762Y-104993535D01*
X139274778Y-105085308D01*
X139256377Y-105189668D01*
X139256377Y-105189673D01*
X136925387Y-105189673D01*
X136901873Y-105181115D01*
X136866799Y-105168349D01*
X136866798Y-105168349D01*
X136760826Y-105168349D01*
X136760824Y-105168349D01*
X136661244Y-105204593D01*
X136580061Y-105272713D01*
X136527077Y-105364486D01*
X136508676Y-105468846D01*
X136508676Y-105468851D01*
X134586770Y-105468851D01*
X134568118Y-105436544D01*
X134568116Y-105436542D01*
X134486936Y-105368424D01*
X134437145Y-105350302D01*
X134387355Y-105332180D01*
X134387354Y-105332180D01*
X134281382Y-105332180D01*
X134281378Y-105332180D01*
X134279968Y-105332694D01*
X134269263Y-105332226D01*
X134262025Y-105324325D01*
X134261776Y-105315500D01*
X134331059Y-105085525D01*
X134389189Y-104892568D01*
X134389581Y-104891269D01*
X134390425Y-104889130D01*
X134391640Y-104886668D01*
X134392843Y-104880618D01*
X142024013Y-104880618D01*
X142042414Y-104984978D01*
X142095398Y-105076751D01*
X142095400Y-105076753D01*
X142095401Y-105076754D01*
X142176581Y-105144872D01*
X142276163Y-105181116D01*
X142276164Y-105181116D01*
X142382134Y-105181116D01*
X142382135Y-105181116D01*
X142481717Y-105144872D01*
X142562897Y-105076754D01*
X142563628Y-105075489D01*
X142605936Y-105002207D01*
X142615883Y-104984979D01*
X142623458Y-104942017D01*
X142634285Y-104880618D01*
X142634285Y-104880613D01*
X142615883Y-104776253D01*
X142562899Y-104684480D01*
X142542270Y-104667170D01*
X142481717Y-104616360D01*
X142431925Y-104598238D01*
X142382136Y-104580116D01*
X142382135Y-104580116D01*
X142276163Y-104580116D01*
X142276161Y-104580116D01*
X142176581Y-104616360D01*
X142095398Y-104684480D01*
X142042414Y-104776253D01*
X142024013Y-104880613D01*
X142024013Y-104880618D01*
X134392843Y-104880618D01*
X134392887Y-104880395D01*
X134393039Y-104879789D01*
X134394881Y-104873676D01*
X134394965Y-104870935D01*
X134395226Y-104868637D01*
X134401331Y-104838024D01*
X134401330Y-104838021D01*
X134401634Y-104836499D01*
X134401644Y-104836369D01*
X134403905Y-104825004D01*
X134403919Y-104824966D01*
X134409215Y-104798321D01*
X134409225Y-104798305D01*
X134413493Y-104776829D01*
X134413510Y-104776715D01*
X134413953Y-104774496D01*
X134413817Y-104772433D01*
X134413817Y-104771516D01*
X134415496Y-104745858D01*
X134413814Y-104720288D01*
X134413814Y-104719371D01*
X134413953Y-104717268D01*
X134413472Y-104714852D01*
X134413468Y-104714823D01*
X134413449Y-104714729D01*
X134413449Y-104714723D01*
X134411137Y-104703112D01*
X134391640Y-104605096D01*
X134390674Y-104603137D01*
X134390333Y-104602312D01*
X134382123Y-104578104D01*
X134370763Y-104555056D01*
X134370418Y-104554223D01*
X134369740Y-104552224D01*
X134359891Y-104537484D01*
X134359659Y-104537136D01*
X134350724Y-104523760D01*
X134341314Y-104509672D01*
X134341284Y-104509637D01*
X134333790Y-104498421D01*
X134333790Y-104498420D01*
X134332771Y-104496895D01*
X136193639Y-104496895D01*
X136212040Y-104601255D01*
X136265024Y-104693028D01*
X136265026Y-104693030D01*
X136265027Y-104693031D01*
X136346207Y-104761149D01*
X136445789Y-104797393D01*
X136445790Y-104797393D01*
X136551760Y-104797393D01*
X136551761Y-104797393D01*
X136651343Y-104761149D01*
X136732523Y-104693031D01*
X136785509Y-104601256D01*
X136793727Y-104554652D01*
X136796688Y-104537861D01*
X136865478Y-104537861D01*
X136883879Y-104642221D01*
X136936863Y-104733994D01*
X136936865Y-104733996D01*
X136936866Y-104733997D01*
X137018046Y-104802115D01*
X137117628Y-104838359D01*
X137117629Y-104838359D01*
X137223599Y-104838359D01*
X137223600Y-104838359D01*
X137323182Y-104802115D01*
X137404362Y-104733997D01*
X137414021Y-104717268D01*
X137422194Y-104703111D01*
X137457348Y-104642222D01*
X137471845Y-104560004D01*
X137475750Y-104537861D01*
X137475750Y-104537856D01*
X137474306Y-104529668D01*
X138159995Y-104529668D01*
X138178396Y-104634028D01*
X138231380Y-104725801D01*
X138231382Y-104725803D01*
X138231383Y-104725804D01*
X138312563Y-104793922D01*
X138412145Y-104830166D01*
X138412146Y-104830166D01*
X138518116Y-104830166D01*
X138518117Y-104830166D01*
X138617699Y-104793922D01*
X138698879Y-104725804D01*
X138702062Y-104720292D01*
X138722738Y-104684478D01*
X138751865Y-104634029D01*
X138764424Y-104562806D01*
X138770267Y-104529668D01*
X138770267Y-104529663D01*
X138751865Y-104425303D01*
X138718016Y-104366673D01*
X142593931Y-104366673D01*
X142612332Y-104471033D01*
X142665316Y-104562806D01*
X142665318Y-104562808D01*
X142665319Y-104562809D01*
X142746499Y-104630927D01*
X142846081Y-104667171D01*
X142846082Y-104667171D01*
X142952052Y-104667171D01*
X142952053Y-104667171D01*
X143051635Y-104630927D01*
X143132815Y-104562809D01*
X143134435Y-104560004D01*
X143162759Y-104510944D01*
X143185801Y-104471034D01*
X143195664Y-104415096D01*
X143204203Y-104366673D01*
X143204203Y-104366668D01*
X143185801Y-104262308D01*
X143132817Y-104170535D01*
X143132815Y-104170533D01*
X143051635Y-104102415D01*
X142973116Y-104073837D01*
X142952054Y-104066171D01*
X142952053Y-104066171D01*
X142846081Y-104066171D01*
X142846079Y-104066171D01*
X142746499Y-104102415D01*
X142665316Y-104170535D01*
X142612332Y-104262308D01*
X142593931Y-104366668D01*
X142593931Y-104366673D01*
X138718016Y-104366673D01*
X138698881Y-104333530D01*
X138698879Y-104333528D01*
X138617699Y-104265410D01*
X138540628Y-104237359D01*
X138518118Y-104229166D01*
X138518117Y-104229166D01*
X138412145Y-104229166D01*
X138412143Y-104229166D01*
X138312563Y-104265410D01*
X138231380Y-104333530D01*
X138178396Y-104425303D01*
X138159995Y-104529663D01*
X138159995Y-104529668D01*
X137474306Y-104529668D01*
X137457348Y-104433496D01*
X137404364Y-104341723D01*
X137394600Y-104333530D01*
X137323182Y-104273603D01*
X137265256Y-104252520D01*
X137223601Y-104237359D01*
X137223600Y-104237359D01*
X137117628Y-104237359D01*
X137117626Y-104237359D01*
X137018046Y-104273603D01*
X136936863Y-104341723D01*
X136883879Y-104433496D01*
X136865478Y-104537856D01*
X136865478Y-104537861D01*
X136796688Y-104537861D01*
X136803911Y-104496895D01*
X136803911Y-104496890D01*
X136785509Y-104392530D01*
X136732525Y-104300757D01*
X136732523Y-104300755D01*
X136651343Y-104232637D01*
X136569035Y-104202680D01*
X136551762Y-104196393D01*
X136551761Y-104196393D01*
X136445789Y-104196393D01*
X136445787Y-104196393D01*
X136346207Y-104232637D01*
X136265024Y-104300757D01*
X136212040Y-104392530D01*
X136193639Y-104496890D01*
X136193639Y-104496895D01*
X134332771Y-104496895D01*
X134322798Y-104481971D01*
X134320139Y-104477992D01*
X134320137Y-104477982D01*
X134312603Y-104466708D01*
X134312595Y-104466697D01*
X134312583Y-104466679D01*
X134312557Y-104466645D01*
X134306199Y-104457129D01*
X134306198Y-104457128D01*
X134305593Y-104456438D01*
X134305705Y-104456339D01*
X134304509Y-104454837D01*
X134304388Y-104454926D01*
X134303850Y-104454182D01*
X134295973Y-104445847D01*
X134295959Y-104445832D01*
X134295944Y-104445816D01*
X134295937Y-104445808D01*
X134294509Y-104444298D01*
X134292533Y-104442207D01*
X133766175Y-103885298D01*
X134253676Y-103885298D01*
X134269332Y-103989173D01*
X134330216Y-104115599D01*
X134330217Y-104115601D01*
X134366906Y-104155142D01*
X134425663Y-104218468D01*
X134496743Y-104259505D01*
X134547189Y-104288630D01*
X134683996Y-104319856D01*
X134823930Y-104309369D01*
X134915060Y-104273603D01*
X134954555Y-104258102D01*
X134990840Y-104229166D01*
X135064266Y-104170611D01*
X135143314Y-104054668D01*
X135184676Y-103920577D01*
X135184676Y-103885298D01*
X139103676Y-103885298D01*
X139119332Y-103989173D01*
X139180216Y-104115599D01*
X139180217Y-104115601D01*
X139216906Y-104155142D01*
X139275663Y-104218468D01*
X139346743Y-104259505D01*
X139397189Y-104288630D01*
X139533996Y-104319856D01*
X139673930Y-104309369D01*
X139765060Y-104273603D01*
X139804555Y-104258102D01*
X139840840Y-104229166D01*
X139914266Y-104170611D01*
X139993314Y-104054668D01*
X140034676Y-103920577D01*
X140034676Y-103085529D01*
X140019020Y-102981656D01*
X139958135Y-102855227D01*
X139886498Y-102778021D01*
X139862688Y-102752359D01*
X139741163Y-102682198D01*
X139741160Y-102682197D01*
X139661807Y-102664085D01*
X139604356Y-102650972D01*
X139604355Y-102650972D01*
X139464418Y-102661459D01*
X139333796Y-102712725D01*
X139224086Y-102800216D01*
X139224084Y-102800218D01*
X139145040Y-102916156D01*
X139145037Y-102916161D01*
X139103676Y-103050252D01*
X139103676Y-103885298D01*
X135184676Y-103885298D01*
X135184676Y-103085529D01*
X135169020Y-102981656D01*
X135108135Y-102855227D01*
X135036498Y-102778021D01*
X135012688Y-102752359D01*
X134891163Y-102682198D01*
X134891160Y-102682197D01*
X134811807Y-102664085D01*
X134754356Y-102650972D01*
X134754355Y-102650972D01*
X134614418Y-102661459D01*
X134483796Y-102712725D01*
X134374086Y-102800216D01*
X134374084Y-102800218D01*
X134295040Y-102916156D01*
X134295037Y-102916161D01*
X134253676Y-103050252D01*
X134253676Y-103885298D01*
X133766175Y-103885298D01*
X131391444Y-101372734D01*
X131387625Y-101362723D01*
X131387832Y-101360687D01*
X131392750Y-101332800D01*
X131401913Y-101280836D01*
X131404731Y-101264853D01*
X131404731Y-101264849D01*
X131386329Y-101160489D01*
X131350131Y-101097791D01*
X133718676Y-101097791D01*
X133734036Y-101224288D01*
X133734036Y-101224290D01*
X133791531Y-101375891D01*
X133794358Y-101383344D01*
X133872779Y-101496956D01*
X133890993Y-101523343D01*
X133890994Y-101523345D01*
X134018320Y-101636145D01*
X134018322Y-101636146D01*
X134018324Y-101636148D01*
X134018326Y-101636149D01*
X134018329Y-101636151D01*
X134168952Y-101715205D01*
X134291677Y-101745452D01*
X134334120Y-101755914D01*
X134504232Y-101755914D01*
X134592850Y-101734072D01*
X134669399Y-101715205D01*
X134694054Y-101702265D01*
X134820028Y-101636148D01*
X134900674Y-101564700D01*
X134910803Y-101561206D01*
X134920437Y-101565896D01*
X134923745Y-101572749D01*
X134942040Y-101676507D01*
X134995024Y-101768280D01*
X134995026Y-101768282D01*
X134995027Y-101768283D01*
X135076207Y-101836401D01*
X135147261Y-101862262D01*
X135166466Y-101869252D01*
X135174366Y-101876491D01*
X135174834Y-101887196D01*
X135167595Y-101895096D01*
X135166467Y-101895564D01*
X135155028Y-101899727D01*
X135073846Y-101967847D01*
X135020862Y-102059620D01*
X135002461Y-102163980D01*
X135002461Y-102163985D01*
X135020862Y-102268345D01*
X135073846Y-102360118D01*
X135073848Y-102360120D01*
X135073849Y-102360121D01*
X135155029Y-102428239D01*
X135254611Y-102464483D01*
X135254612Y-102464483D01*
X135360582Y-102464483D01*
X135360583Y-102464483D01*
X135460165Y-102428239D01*
X135541345Y-102360121D01*
X135594331Y-102268346D01*
X135604634Y-102209914D01*
X135612733Y-102163985D01*
X135612733Y-102163980D01*
X135594331Y-102059620D01*
X135591496Y-102054710D01*
X138771086Y-102054710D01*
X138789487Y-102159070D01*
X138842471Y-102250843D01*
X138842473Y-102250845D01*
X138842474Y-102250846D01*
X138923654Y-102318964D01*
X139023236Y-102355208D01*
X139023237Y-102355208D01*
X139129207Y-102355208D01*
X139129208Y-102355208D01*
X139228790Y-102318964D01*
X139309970Y-102250846D01*
X139332116Y-102212486D01*
X139340614Y-102205965D01*
X139344891Y-102205503D01*
X144544240Y-102450162D01*
X144553935Y-102454724D01*
X144557566Y-102464805D01*
X144553004Y-102474501D01*
X144548369Y-102477303D01*
X144448191Y-102513765D01*
X144367008Y-102581885D01*
X144314024Y-102673658D01*
X144295623Y-102778018D01*
X144295623Y-102778023D01*
X144314024Y-102882383D01*
X144367008Y-102974156D01*
X144367010Y-102974158D01*
X144367011Y-102974159D01*
X144448191Y-103042277D01*
X144547773Y-103078521D01*
X144547774Y-103078521D01*
X144653744Y-103078521D01*
X144653745Y-103078521D01*
X144753327Y-103042277D01*
X144834507Y-102974159D01*
X144887493Y-102882384D01*
X144896836Y-102829396D01*
X144905895Y-102778023D01*
X144905895Y-102778018D01*
X144887493Y-102673658D01*
X144834509Y-102581885D01*
X144834507Y-102581883D01*
X144753327Y-102513765D01*
X144703470Y-102495619D01*
X144670127Y-102483483D01*
X144662227Y-102476244D01*
X144661759Y-102465539D01*
X144668998Y-102457639D01*
X144675570Y-102456342D01*
X145094053Y-102476034D01*
X145103748Y-102480596D01*
X145105518Y-102483019D01*
X145142631Y-102547303D01*
X145142633Y-102547305D01*
X145142634Y-102547306D01*
X145223814Y-102615424D01*
X145323396Y-102651668D01*
X145323397Y-102651668D01*
X145429367Y-102651668D01*
X145429368Y-102651668D01*
X145528950Y-102615424D01*
X145610130Y-102547306D01*
X145613052Y-102542246D01*
X145636368Y-102501860D01*
X145663116Y-102455531D01*
X145674281Y-102392210D01*
X145681518Y-102351170D01*
X145681518Y-102351165D01*
X145663116Y-102246805D01*
X145610132Y-102155032D01*
X145600623Y-102147053D01*
X145528950Y-102086912D01*
X145479159Y-102068789D01*
X145429369Y-102050668D01*
X145429368Y-102050668D01*
X145323396Y-102050668D01*
X145323394Y-102050668D01*
X145223814Y-102086912D01*
X145142631Y-102155032D01*
X145120488Y-102193386D01*
X145111987Y-102199909D01*
X145107706Y-102200371D01*
X139358550Y-101929840D01*
X139348854Y-101925278D01*
X139347086Y-101922858D01*
X139320317Y-101876491D01*
X139309972Y-101858572D01*
X139309970Y-101858570D01*
X139228790Y-101790452D01*
X139167880Y-101768283D01*
X139129209Y-101754208D01*
X139129208Y-101754208D01*
X139023236Y-101754208D01*
X139023234Y-101754208D01*
X138923654Y-101790452D01*
X138842471Y-101858572D01*
X138789487Y-101950345D01*
X138771086Y-102054705D01*
X138771086Y-102054710D01*
X135591496Y-102054710D01*
X135541347Y-101967847D01*
X135541345Y-101967845D01*
X135460165Y-101899727D01*
X135425736Y-101887196D01*
X135369905Y-101866875D01*
X135362005Y-101859636D01*
X135361537Y-101848931D01*
X135368776Y-101841031D01*
X135369893Y-101840568D01*
X135381343Y-101836401D01*
X135462523Y-101768283D01*
X135470320Y-101754779D01*
X135492827Y-101715794D01*
X135515509Y-101676508D01*
X135530213Y-101593117D01*
X135533911Y-101572147D01*
X135533911Y-101572142D01*
X135515509Y-101467782D01*
X135462525Y-101376009D01*
X135462523Y-101376007D01*
X135381343Y-101307889D01*
X135307014Y-101280836D01*
X135281762Y-101271645D01*
X135281761Y-101271645D01*
X135175789Y-101271645D01*
X135175787Y-101271645D01*
X135100747Y-101298957D01*
X135090042Y-101298489D01*
X135082803Y-101290589D01*
X135082868Y-101280837D01*
X135104316Y-101224286D01*
X135119675Y-101097791D01*
X139168676Y-101097791D01*
X139184036Y-101224288D01*
X139184036Y-101224290D01*
X139241531Y-101375891D01*
X139244358Y-101383344D01*
X139322779Y-101496956D01*
X139340993Y-101523343D01*
X139340994Y-101523345D01*
X139468320Y-101636145D01*
X139468322Y-101636146D01*
X139468324Y-101636148D01*
X139468326Y-101636149D01*
X139468329Y-101636151D01*
X139618952Y-101715205D01*
X139741677Y-101745452D01*
X139784120Y-101755914D01*
X139954232Y-101755914D01*
X140042850Y-101734072D01*
X140119399Y-101715205D01*
X140144054Y-101702265D01*
X140270028Y-101636148D01*
X140381819Y-101537110D01*
X140397357Y-101523345D01*
X140397357Y-101523344D01*
X140397359Y-101523343D01*
X140421536Y-101488317D01*
X142686930Y-101488317D01*
X142705331Y-101592677D01*
X142758315Y-101684450D01*
X142758317Y-101684452D01*
X142758318Y-101684453D01*
X142839498Y-101752571D01*
X142939080Y-101788815D01*
X142939081Y-101788815D01*
X143045051Y-101788815D01*
X143045052Y-101788815D01*
X143144634Y-101752571D01*
X143225814Y-101684453D01*
X143227915Y-101680815D01*
X143257639Y-101629330D01*
X143278800Y-101592678D01*
X143285583Y-101554209D01*
X143292526Y-101514834D01*
X143517781Y-101514834D01*
X143536182Y-101619194D01*
X143589166Y-101710967D01*
X143589168Y-101710969D01*
X143589169Y-101710970D01*
X143670349Y-101779088D01*
X143769931Y-101815332D01*
X143769932Y-101815332D01*
X143875902Y-101815332D01*
X143875903Y-101815332D01*
X143975485Y-101779088D01*
X144056665Y-101710970D01*
X144063180Y-101699687D01*
X145933318Y-101699687D01*
X145950818Y-101787671D01*
X145950818Y-101787672D01*
X145950819Y-101787673D01*
X146000659Y-101862264D01*
X146075250Y-101912104D01*
X146163236Y-101929605D01*
X146251222Y-101912104D01*
X146325813Y-101862264D01*
X146351595Y-101823676D01*
X146360503Y-101817725D01*
X146371013Y-101819815D01*
X146374875Y-101823678D01*
X146400657Y-101862262D01*
X146400658Y-101862262D01*
X146400659Y-101862264D01*
X146475250Y-101912104D01*
X146563236Y-101929605D01*
X146651222Y-101912104D01*
X146725813Y-101862264D01*
X146741734Y-101838437D01*
X149145880Y-101838437D01*
X149164281Y-101942797D01*
X149217265Y-102034570D01*
X149217267Y-102034572D01*
X149217268Y-102034573D01*
X149298448Y-102102691D01*
X149398030Y-102138935D01*
X149398031Y-102138935D01*
X149504001Y-102138935D01*
X149504002Y-102138935D01*
X149603584Y-102102691D01*
X149684764Y-102034573D01*
X149695319Y-102016292D01*
X149729757Y-101956642D01*
X149737750Y-101942798D01*
X149751137Y-101866875D01*
X149756152Y-101838437D01*
X149756152Y-101838432D01*
X149737750Y-101734072D01*
X149684766Y-101642299D01*
X149684764Y-101642297D01*
X149603584Y-101574179D01*
X149548716Y-101554209D01*
X149504003Y-101537935D01*
X149504002Y-101537935D01*
X149398030Y-101537935D01*
X149398028Y-101537935D01*
X149298448Y-101574179D01*
X149217265Y-101642299D01*
X149164281Y-101734072D01*
X149145880Y-101838432D01*
X149145880Y-101838437D01*
X146741734Y-101838437D01*
X146775653Y-101787673D01*
X146793154Y-101699687D01*
X146775653Y-101611701D01*
X146725813Y-101537110D01*
X146687226Y-101511327D01*
X146681274Y-101502418D01*
X146683364Y-101491909D01*
X146687227Y-101488046D01*
X146725813Y-101462264D01*
X146775653Y-101387673D01*
X146793154Y-101299687D01*
X147133318Y-101299687D01*
X147150818Y-101387671D01*
X147150818Y-101387672D01*
X147150819Y-101387673D01*
X147200659Y-101462264D01*
X147275250Y-101512104D01*
X147363236Y-101529605D01*
X147451222Y-101512104D01*
X147525813Y-101462264D01*
X147575653Y-101387673D01*
X147593154Y-101299687D01*
X147591344Y-101290589D01*
X147578157Y-101224290D01*
X147575653Y-101211701D01*
X147525813Y-101137110D01*
X147451222Y-101087270D01*
X147451221Y-101087269D01*
X147451220Y-101087269D01*
X147363236Y-101069769D01*
X147275251Y-101087269D01*
X147200659Y-101137110D01*
X147150818Y-101211702D01*
X147133318Y-101299686D01*
X147133318Y-101299687D01*
X146793154Y-101299687D01*
X146791344Y-101290589D01*
X146778157Y-101224290D01*
X146775653Y-101211701D01*
X146725813Y-101137110D01*
X146651222Y-101087270D01*
X146651221Y-101087269D01*
X146651220Y-101087269D01*
X146563236Y-101069769D01*
X146475251Y-101087269D01*
X146400657Y-101137111D01*
X146374876Y-101175695D01*
X146365967Y-101181648D01*
X146355458Y-101179557D01*
X146351596Y-101175695D01*
X146325814Y-101137111D01*
X146306303Y-101124074D01*
X146251222Y-101087270D01*
X146251221Y-101087269D01*
X146251220Y-101087269D01*
X146163236Y-101069769D01*
X146075251Y-101087269D01*
X146000659Y-101137110D01*
X145950818Y-101211702D01*
X145933318Y-101299686D01*
X145933318Y-101299687D01*
X145950818Y-101387671D01*
X145950818Y-101387672D01*
X145950819Y-101387673D01*
X146000659Y-101462264D01*
X146000660Y-101462265D01*
X146039244Y-101488047D01*
X146045197Y-101496956D01*
X146043106Y-101507465D01*
X146039244Y-101511327D01*
X146000660Y-101537108D01*
X145950818Y-101611702D01*
X145933318Y-101699686D01*
X145933318Y-101699687D01*
X144063180Y-101699687D01*
X144067179Y-101692760D01*
X144074075Y-101680815D01*
X144109651Y-101619195D01*
X144123754Y-101539212D01*
X144128053Y-101514834D01*
X144128053Y-101514829D01*
X144109651Y-101410469D01*
X144056667Y-101318696D01*
X144033143Y-101298957D01*
X143975485Y-101250576D01*
X143903258Y-101224288D01*
X143875904Y-101214332D01*
X143875903Y-101214332D01*
X143769931Y-101214332D01*
X143769929Y-101214332D01*
X143670349Y-101250576D01*
X143589166Y-101318696D01*
X143536182Y-101410469D01*
X143517781Y-101514829D01*
X143517781Y-101514834D01*
X143292526Y-101514834D01*
X143297202Y-101488317D01*
X143297202Y-101488312D01*
X143278800Y-101383952D01*
X143225816Y-101292179D01*
X143203242Y-101273237D01*
X143144634Y-101224059D01*
X143092587Y-101205116D01*
X143045053Y-101187815D01*
X143045052Y-101187815D01*
X142939080Y-101187815D01*
X142939078Y-101187815D01*
X142839498Y-101224059D01*
X142758315Y-101292179D01*
X142705331Y-101383952D01*
X142686930Y-101488312D01*
X142686930Y-101488317D01*
X140421536Y-101488317D01*
X140493994Y-101383344D01*
X140546921Y-101243785D01*
X140554315Y-101224290D01*
X140554315Y-101224288D01*
X140554314Y-101224288D01*
X140554316Y-101224286D01*
X140569676Y-101097786D01*
X140569676Y-101008983D01*
X145089996Y-101008983D01*
X145108397Y-101113343D01*
X145161381Y-101205116D01*
X145161383Y-101205118D01*
X145161384Y-101205119D01*
X145242564Y-101273237D01*
X145342146Y-101309481D01*
X145342147Y-101309481D01*
X145448117Y-101309481D01*
X145448118Y-101309481D01*
X145547700Y-101273237D01*
X145628880Y-101205119D01*
X145638871Y-101187815D01*
X145652958Y-101163415D01*
X145681866Y-101113344D01*
X145689735Y-101068716D01*
X145700268Y-101008983D01*
X145700268Y-101008978D01*
X145681866Y-100904618D01*
X145628882Y-100812845D01*
X145628880Y-100812843D01*
X145547700Y-100744725D01*
X145492290Y-100724558D01*
X145448119Y-100708481D01*
X145448118Y-100708481D01*
X145342146Y-100708481D01*
X145342144Y-100708481D01*
X145242564Y-100744725D01*
X145161381Y-100812845D01*
X145108397Y-100904618D01*
X145089996Y-101008978D01*
X145089996Y-101008983D01*
X140569676Y-101008983D01*
X140569676Y-100348782D01*
X144940460Y-100348782D01*
X144958861Y-100453142D01*
X145011845Y-100544915D01*
X145011847Y-100544917D01*
X145011848Y-100544918D01*
X145093028Y-100613036D01*
X145192610Y-100649280D01*
X145192611Y-100649280D01*
X145298581Y-100649280D01*
X145298582Y-100649280D01*
X145398164Y-100613036D01*
X145479344Y-100544918D01*
X145532330Y-100453143D01*
X145543730Y-100388490D01*
X145550732Y-100348782D01*
X145550732Y-100348777D01*
X145539031Y-100282420D01*
X145864996Y-100282420D01*
X145883397Y-100386780D01*
X145936381Y-100478553D01*
X145936383Y-100478555D01*
X145936384Y-100478556D01*
X146017564Y-100546674D01*
X146117146Y-100582918D01*
X146117147Y-100582918D01*
X146223117Y-100582918D01*
X146223118Y-100582918D01*
X146322700Y-100546674D01*
X146403880Y-100478556D01*
X146455879Y-100388490D01*
X147127056Y-100388490D01*
X147145457Y-100492850D01*
X147198441Y-100584623D01*
X147198443Y-100584625D01*
X147198444Y-100584626D01*
X147279624Y-100652744D01*
X147379206Y-100688988D01*
X147379207Y-100688988D01*
X147485177Y-100688988D01*
X147485178Y-100688988D01*
X147584760Y-100652744D01*
X147665940Y-100584626D01*
X147666291Y-100584019D01*
X147693409Y-100537048D01*
X147718926Y-100492851D01*
X147724192Y-100462985D01*
X149055886Y-100462985D01*
X149074287Y-100567345D01*
X149127271Y-100659118D01*
X149127273Y-100659120D01*
X149127274Y-100659121D01*
X149208454Y-100727239D01*
X149308036Y-100763483D01*
X149308037Y-100763483D01*
X149414007Y-100763483D01*
X149414008Y-100763483D01*
X149513590Y-100727239D01*
X149594770Y-100659121D01*
X149598453Y-100652743D01*
X149620806Y-100614025D01*
X149647756Y-100567346D01*
X149659485Y-100500827D01*
X149666158Y-100462985D01*
X149666158Y-100462980D01*
X149647756Y-100358620D01*
X149594772Y-100266847D01*
X149568041Y-100244417D01*
X149513590Y-100198727D01*
X149455323Y-100177520D01*
X149414009Y-100162483D01*
X149414008Y-100162483D01*
X149308036Y-100162483D01*
X149308034Y-100162483D01*
X149208454Y-100198727D01*
X149127271Y-100266847D01*
X149074287Y-100358620D01*
X149055886Y-100462980D01*
X149055886Y-100462985D01*
X147724192Y-100462985D01*
X147732425Y-100416293D01*
X147737328Y-100388490D01*
X147737328Y-100388485D01*
X147718926Y-100284125D01*
X147665942Y-100192352D01*
X147665940Y-100192350D01*
X147584760Y-100124232D01*
X147519715Y-100100558D01*
X147485179Y-100087988D01*
X147485178Y-100087988D01*
X147379206Y-100087988D01*
X147379204Y-100087988D01*
X147279624Y-100124232D01*
X147198441Y-100192352D01*
X147145457Y-100284125D01*
X147127056Y-100388485D01*
X147127056Y-100388490D01*
X146455879Y-100388490D01*
X146456866Y-100386781D01*
X146464401Y-100344049D01*
X146475268Y-100282420D01*
X146475268Y-100282415D01*
X146456866Y-100178055D01*
X146403882Y-100086282D01*
X146401787Y-100084524D01*
X146322700Y-100018162D01*
X146272908Y-100000040D01*
X146223119Y-99981918D01*
X146223118Y-99981918D01*
X146117146Y-99981918D01*
X146117144Y-99981918D01*
X146017564Y-100018162D01*
X145936381Y-100086282D01*
X145883397Y-100178055D01*
X145864996Y-100282415D01*
X145864996Y-100282420D01*
X145539031Y-100282420D01*
X145532330Y-100244417D01*
X145479346Y-100152644D01*
X145479344Y-100152642D01*
X145398164Y-100084524D01*
X145310787Y-100052722D01*
X145298583Y-100048280D01*
X145298582Y-100048280D01*
X145192610Y-100048280D01*
X145192608Y-100048280D01*
X145093028Y-100084524D01*
X145011845Y-100152644D01*
X144958861Y-100244417D01*
X144940460Y-100348777D01*
X144940460Y-100348782D01*
X140569676Y-100348782D01*
X140569676Y-99813042D01*
X140554316Y-99686542D01*
X140554315Y-99686539D01*
X140554315Y-99686537D01*
X140493994Y-99527485D01*
X140493994Y-99527484D01*
X140397359Y-99387485D01*
X140397358Y-99387484D01*
X140397357Y-99387482D01*
X140270031Y-99274682D01*
X140270022Y-99274676D01*
X140119399Y-99195622D01*
X139954234Y-99154914D01*
X139954232Y-99154914D01*
X139784120Y-99154914D01*
X139784117Y-99154914D01*
X139618952Y-99195622D01*
X139468329Y-99274676D01*
X139468320Y-99274682D01*
X139340994Y-99387482D01*
X139340993Y-99387484D01*
X139244357Y-99527485D01*
X139184036Y-99686537D01*
X139184036Y-99686539D01*
X139168676Y-99813036D01*
X139168676Y-101097791D01*
X135119675Y-101097791D01*
X135119676Y-101097786D01*
X135119676Y-99813042D01*
X135104316Y-99686542D01*
X135104315Y-99686539D01*
X135104315Y-99686537D01*
X135043994Y-99527485D01*
X135043994Y-99527484D01*
X134947359Y-99387485D01*
X134947358Y-99387484D01*
X134947357Y-99387482D01*
X134820031Y-99274682D01*
X134820022Y-99274676D01*
X134669399Y-99195622D01*
X134576446Y-99172712D01*
X135837458Y-99172712D01*
X135855859Y-99277072D01*
X135908843Y-99368845D01*
X135908845Y-99368847D01*
X135908846Y-99368848D01*
X135990026Y-99436966D01*
X136089608Y-99473210D01*
X136089609Y-99473210D01*
X136195579Y-99473210D01*
X136195580Y-99473210D01*
X136295162Y-99436966D01*
X136376342Y-99368848D01*
X136429328Y-99277073D01*
X136447730Y-99172712D01*
X137566213Y-99172712D01*
X137584614Y-99277072D01*
X137637598Y-99368845D01*
X137637600Y-99368847D01*
X137637601Y-99368848D01*
X137718781Y-99436966D01*
X137818363Y-99473210D01*
X137818364Y-99473210D01*
X137924334Y-99473210D01*
X137924335Y-99473210D01*
X138023917Y-99436966D01*
X138105097Y-99368848D01*
X138158083Y-99277073D01*
X138176485Y-99172710D01*
X138176485Y-99172707D01*
X138158083Y-99068347D01*
X138105099Y-98976574D01*
X138105097Y-98976572D01*
X138023917Y-98908454D01*
X137974126Y-98890332D01*
X137924336Y-98872210D01*
X137924335Y-98872210D01*
X137818363Y-98872210D01*
X137818361Y-98872210D01*
X137718781Y-98908454D01*
X137637598Y-98976574D01*
X137584614Y-99068347D01*
X137566213Y-99172707D01*
X137566213Y-99172712D01*
X136447730Y-99172712D01*
X136447730Y-99172710D01*
X136447730Y-99172707D01*
X136429328Y-99068347D01*
X136376344Y-98976574D01*
X136376342Y-98976572D01*
X136295162Y-98908454D01*
X136245371Y-98890332D01*
X136195581Y-98872210D01*
X136195580Y-98872210D01*
X136089608Y-98872210D01*
X136089606Y-98872210D01*
X135990026Y-98908454D01*
X135908843Y-98976574D01*
X135855859Y-99068347D01*
X135837458Y-99172707D01*
X135837458Y-99172712D01*
X134576446Y-99172712D01*
X134504234Y-99154914D01*
X134504232Y-99154914D01*
X134334120Y-99154914D01*
X134334117Y-99154914D01*
X134168952Y-99195622D01*
X134018329Y-99274676D01*
X134018320Y-99274682D01*
X133890994Y-99387482D01*
X133890993Y-99387484D01*
X133794357Y-99527485D01*
X133734036Y-99686537D01*
X133734036Y-99686539D01*
X133718676Y-99813036D01*
X133718676Y-101097791D01*
X131350131Y-101097791D01*
X131333345Y-101068716D01*
X131298310Y-101039318D01*
X131252163Y-101000596D01*
X131202371Y-100982474D01*
X131152582Y-100964352D01*
X131152581Y-100964352D01*
X131046609Y-100964352D01*
X131046607Y-100964352D01*
X130947027Y-101000596D01*
X130865844Y-101068716D01*
X130812860Y-101160489D01*
X130794459Y-101264849D01*
X130794459Y-101264854D01*
X130812860Y-101369214D01*
X130865844Y-101460987D01*
X130865846Y-101460989D01*
X130865847Y-101460990D01*
X130947027Y-101529108D01*
X131046609Y-101565352D01*
X131046610Y-101565352D01*
X131152582Y-101565352D01*
X131152585Y-101565351D01*
X131174549Y-101557356D01*
X131185254Y-101557822D01*
X131189513Y-101560895D01*
X133903235Y-104432126D01*
X133907054Y-104442137D01*
X133902676Y-104451917D01*
X133897848Y-104454898D01*
X133824414Y-104481626D01*
X133743231Y-104549746D01*
X133690247Y-104641519D01*
X133671846Y-104745879D01*
X133671846Y-104745884D01*
X133690247Y-104850244D01*
X133743231Y-104942017D01*
X133743233Y-104942019D01*
X133743234Y-104942020D01*
X133809352Y-104997500D01*
X133814300Y-105007004D01*
X133814295Y-105009499D01*
X133761592Y-105585762D01*
X133760429Y-105598470D01*
X133758773Y-105616577D01*
X133758803Y-105617358D01*
X133758965Y-105652421D01*
X133762495Y-105687471D01*
X133762537Y-105688117D01*
X133766368Y-105707370D01*
X133772485Y-105738148D01*
X133772494Y-105738175D01*
X133774979Y-105750669D01*
X133774981Y-105750683D01*
X133780384Y-105777840D01*
X133780383Y-105777852D01*
X133783008Y-105791024D01*
X133784943Y-105800754D01*
X133784952Y-105800786D01*
X133785104Y-105801551D01*
X133785107Y-105801562D01*
X133796596Y-105838716D01*
X133811854Y-105874467D01*
X133811861Y-105874482D01*
X133812230Y-105875146D01*
X133812265Y-105875219D01*
X135840708Y-109529026D01*
X135840727Y-109529071D01*
X135852371Y-109550038D01*
X135853492Y-109552652D01*
X135854028Y-109554366D01*
X135854031Y-109554373D01*
X135859969Y-109563742D01*
X135860176Y-109564092D01*
X135865528Y-109573733D01*
X135866768Y-109575015D01*
X135868530Y-109577254D01*
X135881630Y-109597929D01*
X135881636Y-109597936D01*
X137029584Y-111409563D01*
X137031419Y-111420119D01*
X137025251Y-111428882D01*
X137014695Y-111430717D01*
X137006678Y-111425612D01*
X136415765Y-110660260D01*
X136415375Y-110659754D01*
X136412766Y-110656375D01*
X136411623Y-110654644D01*
X136410387Y-110652427D01*
X136410385Y-110652425D01*
X136410383Y-110652422D01*
X136407392Y-110649342D01*
X136406880Y-110648753D01*
X136404246Y-110645340D01*
X136402226Y-110643799D01*
X136400676Y-110642423D01*
X136400347Y-110642084D01*
X136397755Y-110639414D01*
X136375821Y-110616809D01*
X136375819Y-110616808D01*
X136374718Y-110615673D01*
X136374664Y-110615628D01*
X132391320Y-106512299D01*
X132390796Y-106511686D01*
X132390751Y-106511639D01*
X132390408Y-106511238D01*
X132377933Y-106498509D01*
X132373613Y-106494059D01*
X132365697Y-106485905D01*
X132365695Y-106485904D01*
X132365678Y-106485886D01*
X132365061Y-106485329D01*
X132364899Y-106485163D01*
X132364527Y-106484830D01*
X131448250Y-105549890D01*
X131773524Y-105549890D01*
X131791925Y-105654250D01*
X131844909Y-105746023D01*
X131844911Y-105746025D01*
X131844912Y-105746026D01*
X131926092Y-105814144D01*
X132025674Y-105850388D01*
X132025675Y-105850388D01*
X132131645Y-105850388D01*
X132131646Y-105850388D01*
X132231228Y-105814144D01*
X132312408Y-105746026D01*
X132312774Y-105745393D01*
X132340280Y-105697750D01*
X132365394Y-105654251D01*
X132375230Y-105598470D01*
X132383796Y-105549890D01*
X132383796Y-105549885D01*
X132365394Y-105445525D01*
X132312410Y-105353752D01*
X132287314Y-105332694D01*
X132231228Y-105285632D01*
X132181436Y-105267510D01*
X132131647Y-105249388D01*
X132131646Y-105249388D01*
X132025674Y-105249388D01*
X132025672Y-105249388D01*
X131926092Y-105285632D01*
X131844909Y-105353752D01*
X131791925Y-105445525D01*
X131773524Y-105549885D01*
X131773524Y-105549890D01*
X131448250Y-105549890D01*
X128600528Y-102644163D01*
X128596528Y-102634223D01*
X128596740Y-102631933D01*
X128612555Y-102542245D01*
X128612555Y-102542241D01*
X128594153Y-102437881D01*
X128541169Y-102346108D01*
X128525263Y-102332761D01*
X128459987Y-102277988D01*
X128409306Y-102259542D01*
X128360406Y-102241744D01*
X128360405Y-102241744D01*
X128254433Y-102241744D01*
X128254431Y-102241744D01*
X128154851Y-102277988D01*
X128073668Y-102346108D01*
X128020684Y-102437881D01*
X128002283Y-102542241D01*
X128002283Y-102542246D01*
X126542533Y-102542246D01*
X126548715Y-102507188D01*
X126558637Y-102450917D01*
X126558637Y-102450912D01*
X126540235Y-102346552D01*
X126487251Y-102254779D01*
X126487249Y-102254777D01*
X126435838Y-102211638D01*
X126430891Y-102202135D01*
X126434113Y-102191916D01*
X126435835Y-102190193D01*
X126487249Y-102147053D01*
X126491937Y-102138934D01*
X126537728Y-102059620D01*
X126540235Y-102055278D01*
X126550031Y-101999720D01*
X126558637Y-101950917D01*
X126558637Y-101950912D01*
X126540235Y-101846552D01*
X126487251Y-101754779D01*
X126487249Y-101754777D01*
X126424665Y-101702263D01*
X126419718Y-101692760D01*
X126422940Y-101682541D01*
X126424662Y-101680818D01*
X126487249Y-101628303D01*
X126492508Y-101619195D01*
X126504046Y-101599208D01*
X126540235Y-101536528D01*
X126547213Y-101496956D01*
X126558637Y-101432167D01*
X126558637Y-101432162D01*
X126540235Y-101327802D01*
X126487251Y-101236029D01*
X126487247Y-101236026D01*
X126478205Y-101228439D01*
X127945955Y-101228439D01*
X127964356Y-101332799D01*
X128017340Y-101424572D01*
X128017342Y-101424574D01*
X128017343Y-101424575D01*
X128098523Y-101492693D01*
X128198105Y-101528937D01*
X128198106Y-101528937D01*
X128304076Y-101528937D01*
X128304077Y-101528937D01*
X128403659Y-101492693D01*
X128484839Y-101424575D01*
X128495416Y-101406256D01*
X128507729Y-101384928D01*
X128537825Y-101332800D01*
X128549989Y-101263817D01*
X128556227Y-101228439D01*
X128556227Y-101228434D01*
X128537825Y-101124074D01*
X128484841Y-101032301D01*
X128484839Y-101032299D01*
X128403659Y-100964181D01*
X128335487Y-100939369D01*
X128304078Y-100927937D01*
X128304077Y-100927937D01*
X128198105Y-100927937D01*
X128198103Y-100927937D01*
X128098523Y-100964181D01*
X128017340Y-101032301D01*
X127964356Y-101124074D01*
X127945955Y-101228434D01*
X127945955Y-101228439D01*
X126478205Y-101228439D01*
X126413494Y-101174139D01*
X126408546Y-101164634D01*
X126411768Y-101154415D01*
X126413483Y-101152699D01*
X126487249Y-101090803D01*
X126489290Y-101087269D01*
X126504046Y-101061708D01*
X126540235Y-100999028D01*
X126550031Y-100943470D01*
X126558637Y-100894667D01*
X126558637Y-100894662D01*
X126540235Y-100790302D01*
X126487251Y-100698529D01*
X126487249Y-100698527D01*
X126425670Y-100646856D01*
X126420723Y-100637353D01*
X126423945Y-100627134D01*
X126425667Y-100625411D01*
X126491951Y-100569794D01*
X126493365Y-100567346D01*
X126527590Y-100508065D01*
X126544937Y-100478019D01*
X126558119Y-100403262D01*
X126563339Y-100373658D01*
X126563339Y-100373653D01*
X126544937Y-100269293D01*
X126491953Y-100177520D01*
X126491951Y-100177518D01*
X126423738Y-100120281D01*
X126418791Y-100110777D01*
X126422013Y-100100558D01*
X126423734Y-100098836D01*
X126478693Y-100052722D01*
X126480231Y-100050059D01*
X126505941Y-100005527D01*
X128036642Y-100005527D01*
X128042862Y-100052769D01*
X128056010Y-100152642D01*
X128057555Y-100164373D01*
X128057555Y-100164375D01*
X128118869Y-100312400D01*
X128118870Y-100312402D01*
X128150089Y-100353086D01*
X128216406Y-100439512D01*
X128343518Y-100537049D01*
X128491543Y-100598363D01*
X128610508Y-100614025D01*
X128690278Y-100614025D01*
X128809243Y-100598363D01*
X128957268Y-100537049D01*
X129084380Y-100439512D01*
X129181917Y-100312401D01*
X129243231Y-100164375D01*
X129264144Y-100005527D01*
X130068642Y-100005527D01*
X130074862Y-100052769D01*
X130088010Y-100152642D01*
X130089555Y-100164373D01*
X130089555Y-100164375D01*
X130150869Y-100312400D01*
X130150870Y-100312402D01*
X130182089Y-100353086D01*
X130248406Y-100439512D01*
X130375518Y-100537049D01*
X130523543Y-100598363D01*
X130642508Y-100614025D01*
X130722278Y-100614025D01*
X130841243Y-100598363D01*
X130989268Y-100537049D01*
X131116380Y-100439512D01*
X131213917Y-100312401D01*
X131275231Y-100164375D01*
X131296144Y-100005525D01*
X131275231Y-99846675D01*
X131213917Y-99698650D01*
X131213915Y-99698648D01*
X131213915Y-99698647D01*
X131184601Y-99660445D01*
X131116380Y-99571538D01*
X131035001Y-99509093D01*
X130989270Y-99474002D01*
X130989268Y-99474001D01*
X130972489Y-99467051D01*
X130841243Y-99412687D01*
X130811501Y-99408771D01*
X130722281Y-99397025D01*
X130722278Y-99397025D01*
X130642508Y-99397025D01*
X130642504Y-99397025D01*
X130547335Y-99409554D01*
X130523543Y-99412687D01*
X130523542Y-99412687D01*
X130375517Y-99474001D01*
X130375515Y-99474002D01*
X130248406Y-99571538D01*
X130150870Y-99698646D01*
X130150869Y-99698648D01*
X130103489Y-99813036D01*
X130089555Y-99846675D01*
X130088250Y-99856586D01*
X130068642Y-100005522D01*
X130068642Y-100005527D01*
X129264144Y-100005527D01*
X129264144Y-100005525D01*
X129243231Y-99846675D01*
X129181917Y-99698650D01*
X129181915Y-99698648D01*
X129181915Y-99698647D01*
X129152601Y-99660445D01*
X129084380Y-99571538D01*
X129003001Y-99509093D01*
X128957270Y-99474002D01*
X128957268Y-99474001D01*
X128940489Y-99467051D01*
X128809243Y-99412687D01*
X128779501Y-99408771D01*
X128690281Y-99397025D01*
X128690278Y-99397025D01*
X128610508Y-99397025D01*
X128610504Y-99397025D01*
X128515335Y-99409554D01*
X128491543Y-99412687D01*
X128491542Y-99412687D01*
X128343517Y-99474001D01*
X128343515Y-99474002D01*
X128216406Y-99571538D01*
X128118870Y-99698646D01*
X128118869Y-99698648D01*
X128071489Y-99813036D01*
X128057555Y-99846675D01*
X128056250Y-99856586D01*
X128036642Y-100005522D01*
X128036642Y-100005527D01*
X126505941Y-100005527D01*
X126520945Y-99979539D01*
X126531679Y-99960947D01*
X126550081Y-99856584D01*
X126550081Y-99856581D01*
X126531679Y-99752221D01*
X126478695Y-99660448D01*
X126478693Y-99660446D01*
X126416686Y-99608416D01*
X126411739Y-99598912D01*
X126414961Y-99588693D01*
X126416682Y-99586971D01*
X126483113Y-99531231D01*
X126485277Y-99527484D01*
X126516154Y-99474002D01*
X126536099Y-99439456D01*
X126554501Y-99335093D01*
X126554501Y-99335090D01*
X126536099Y-99230730D01*
X126483115Y-99138957D01*
X126483113Y-99138955D01*
X126401933Y-99070837D01*
X126352142Y-99052714D01*
X126302352Y-99034593D01*
X126302351Y-99034593D01*
X126196379Y-99034593D01*
X126196377Y-99034593D01*
X126096797Y-99070837D01*
X126015614Y-99138957D01*
X125962630Y-99230730D01*
X125958287Y-99255362D01*
X125952530Y-99264399D01*
X125942069Y-99266718D01*
X125933032Y-99260961D01*
X125930500Y-99252931D01*
X125930500Y-98694500D01*
X125934601Y-98684601D01*
X125944500Y-98680500D01*
X153055500Y-98680500D01*
X153065399Y-98684601D01*
G37*
%TD.AperFunction*%
%TD*%
D15*
X152000000Y-117500000D02*
X125750000Y-117500000D01*
X125750000Y-117500000D02*
X125750000Y-98500000D01*
X125750000Y-98500000D02*
X153250000Y-98500000D01*
X153250000Y-98500000D02*
X153250000Y-116000000D01*
X153250000Y-116000000D02*
X153000000Y-116000000D01*
X153000000Y-116000000D02*
G75*
G03*
X152000000Y-117000000I0J-1000000D01*
G01*
X152000000Y-117000000D02*
X152000000Y-117500000D01*
M02*
