%TF.GenerationSoftware,KiCad,Pcbnew,7.0.7*%
%TF.CreationDate,2024-01-11T19:31:21-08:00*%
%TF.ProjectId,beeper-design,62656570-6572-42d6-9465-7369676e2e6b,rev?*%
%TF.SameCoordinates,Original*%
%TF.FileFunction,Legend,Top*%
%TF.FilePolarity,Positive*%
%FSLAX46Y46*%
G04 Gerber Fmt 4.6, Leading zero omitted, Abs format (unit mm)*
G04 Created by KiCad (PCBNEW 7.0.7) date 2024-01-11 19:31:21*
%MOMM*%
%LPD*%
G01*
G04 APERTURE LIST*
%ADD10C,0.100000*%
%ADD11C,0.150000*%
%ADD12C,0.076200*%
%ADD13C,0.152000*%
%ADD14C,0.200000*%
%ADD15C,0.254000*%
%ADD16C,0.180000*%
%TA.AperFunction,Profile*%
%ADD17C,0.050000*%
%TD*%
G04 APERTURE END LIST*
D10*
X143391261Y-112124542D02*
X143191261Y-111838828D01*
X143048404Y-112124542D02*
X143048404Y-111524542D01*
X143048404Y-111524542D02*
X143276975Y-111524542D01*
X143276975Y-111524542D02*
X143334118Y-111553113D01*
X143334118Y-111553113D02*
X143362689Y-111581685D01*
X143362689Y-111581685D02*
X143391261Y-111638828D01*
X143391261Y-111638828D02*
X143391261Y-111724542D01*
X143391261Y-111724542D02*
X143362689Y-111781685D01*
X143362689Y-111781685D02*
X143334118Y-111810256D01*
X143334118Y-111810256D02*
X143276975Y-111838828D01*
X143276975Y-111838828D02*
X143048404Y-111838828D01*
X143962689Y-112124542D02*
X143619832Y-112124542D01*
X143791261Y-112124542D02*
X143791261Y-111524542D01*
X143791261Y-111524542D02*
X143734118Y-111610256D01*
X143734118Y-111610256D02*
X143676975Y-111667399D01*
X143676975Y-111667399D02*
X143619832Y-111695971D01*
X147381166Y-103990104D02*
X147352594Y-104018676D01*
X147352594Y-104018676D02*
X147266880Y-104047247D01*
X147266880Y-104047247D02*
X147209737Y-104047247D01*
X147209737Y-104047247D02*
X147124023Y-104018676D01*
X147124023Y-104018676D02*
X147066880Y-103961533D01*
X147066880Y-103961533D02*
X147038309Y-103904390D01*
X147038309Y-103904390D02*
X147009737Y-103790104D01*
X147009737Y-103790104D02*
X147009737Y-103704390D01*
X147009737Y-103704390D02*
X147038309Y-103590104D01*
X147038309Y-103590104D02*
X147066880Y-103532961D01*
X147066880Y-103532961D02*
X147124023Y-103475818D01*
X147124023Y-103475818D02*
X147209737Y-103447247D01*
X147209737Y-103447247D02*
X147266880Y-103447247D01*
X147266880Y-103447247D02*
X147352594Y-103475818D01*
X147352594Y-103475818D02*
X147381166Y-103504390D01*
X147952594Y-104047247D02*
X147609737Y-104047247D01*
X147781166Y-104047247D02*
X147781166Y-103447247D01*
X147781166Y-103447247D02*
X147724023Y-103532961D01*
X147724023Y-103532961D02*
X147666880Y-103590104D01*
X147666880Y-103590104D02*
X147609737Y-103618676D01*
X148238309Y-104047247D02*
X148352595Y-104047247D01*
X148352595Y-104047247D02*
X148409738Y-104018676D01*
X148409738Y-104018676D02*
X148438309Y-103990104D01*
X148438309Y-103990104D02*
X148495452Y-103904390D01*
X148495452Y-103904390D02*
X148524023Y-103790104D01*
X148524023Y-103790104D02*
X148524023Y-103561533D01*
X148524023Y-103561533D02*
X148495452Y-103504390D01*
X148495452Y-103504390D02*
X148466881Y-103475818D01*
X148466881Y-103475818D02*
X148409738Y-103447247D01*
X148409738Y-103447247D02*
X148295452Y-103447247D01*
X148295452Y-103447247D02*
X148238309Y-103475818D01*
X148238309Y-103475818D02*
X148209738Y-103504390D01*
X148209738Y-103504390D02*
X148181166Y-103561533D01*
X148181166Y-103561533D02*
X148181166Y-103704390D01*
X148181166Y-103704390D02*
X148209738Y-103761533D01*
X148209738Y-103761533D02*
X148238309Y-103790104D01*
X148238309Y-103790104D02*
X148295452Y-103818676D01*
X148295452Y-103818676D02*
X148409738Y-103818676D01*
X148409738Y-103818676D02*
X148466881Y-103790104D01*
X148466881Y-103790104D02*
X148495452Y-103761533D01*
X148495452Y-103761533D02*
X148524023Y-103704390D01*
X149167213Y-99770971D02*
X149195785Y-99799543D01*
X149195785Y-99799543D02*
X149224356Y-99885257D01*
X149224356Y-99885257D02*
X149224356Y-99942400D01*
X149224356Y-99942400D02*
X149195785Y-100028114D01*
X149195785Y-100028114D02*
X149138642Y-100085257D01*
X149138642Y-100085257D02*
X149081499Y-100113828D01*
X149081499Y-100113828D02*
X148967213Y-100142400D01*
X148967213Y-100142400D02*
X148881499Y-100142400D01*
X148881499Y-100142400D02*
X148767213Y-100113828D01*
X148767213Y-100113828D02*
X148710070Y-100085257D01*
X148710070Y-100085257D02*
X148652927Y-100028114D01*
X148652927Y-100028114D02*
X148624356Y-99942400D01*
X148624356Y-99942400D02*
X148624356Y-99885257D01*
X148624356Y-99885257D02*
X148652927Y-99799543D01*
X148652927Y-99799543D02*
X148681499Y-99770971D01*
X148681499Y-99542400D02*
X148652927Y-99513828D01*
X148652927Y-99513828D02*
X148624356Y-99456686D01*
X148624356Y-99456686D02*
X148624356Y-99313828D01*
X148624356Y-99313828D02*
X148652927Y-99256686D01*
X148652927Y-99256686D02*
X148681499Y-99228114D01*
X148681499Y-99228114D02*
X148738642Y-99199543D01*
X148738642Y-99199543D02*
X148795785Y-99199543D01*
X148795785Y-99199543D02*
X148881499Y-99228114D01*
X148881499Y-99228114D02*
X149224356Y-99570971D01*
X149224356Y-99570971D02*
X149224356Y-99199543D01*
X148624356Y-98999542D02*
X148624356Y-98628114D01*
X148624356Y-98628114D02*
X148852927Y-98828114D01*
X148852927Y-98828114D02*
X148852927Y-98742399D01*
X148852927Y-98742399D02*
X148881499Y-98685257D01*
X148881499Y-98685257D02*
X148910070Y-98656685D01*
X148910070Y-98656685D02*
X148967213Y-98628114D01*
X148967213Y-98628114D02*
X149110070Y-98628114D01*
X149110070Y-98628114D02*
X149167213Y-98656685D01*
X149167213Y-98656685D02*
X149195785Y-98685257D01*
X149195785Y-98685257D02*
X149224356Y-98742399D01*
X149224356Y-98742399D02*
X149224356Y-98913828D01*
X149224356Y-98913828D02*
X149195785Y-98970971D01*
X149195785Y-98970971D02*
X149167213Y-98999542D01*
X133024318Y-105205803D02*
X132995746Y-105234375D01*
X132995746Y-105234375D02*
X132910032Y-105262946D01*
X132910032Y-105262946D02*
X132852889Y-105262946D01*
X132852889Y-105262946D02*
X132767175Y-105234375D01*
X132767175Y-105234375D02*
X132710032Y-105177232D01*
X132710032Y-105177232D02*
X132681461Y-105120089D01*
X132681461Y-105120089D02*
X132652889Y-105005803D01*
X132652889Y-105005803D02*
X132652889Y-104920089D01*
X132652889Y-104920089D02*
X132681461Y-104805803D01*
X132681461Y-104805803D02*
X132710032Y-104748660D01*
X132710032Y-104748660D02*
X132767175Y-104691517D01*
X132767175Y-104691517D02*
X132852889Y-104662946D01*
X132852889Y-104662946D02*
X132910032Y-104662946D01*
X132910032Y-104662946D02*
X132995746Y-104691517D01*
X132995746Y-104691517D02*
X133024318Y-104720089D01*
X133538604Y-104862946D02*
X133538604Y-105262946D01*
X133395746Y-104634375D02*
X133252889Y-105062946D01*
X133252889Y-105062946D02*
X133624318Y-105062946D01*
X133938604Y-104920089D02*
X133881461Y-104891517D01*
X133881461Y-104891517D02*
X133852890Y-104862946D01*
X133852890Y-104862946D02*
X133824318Y-104805803D01*
X133824318Y-104805803D02*
X133824318Y-104777232D01*
X133824318Y-104777232D02*
X133852890Y-104720089D01*
X133852890Y-104720089D02*
X133881461Y-104691517D01*
X133881461Y-104691517D02*
X133938604Y-104662946D01*
X133938604Y-104662946D02*
X134052890Y-104662946D01*
X134052890Y-104662946D02*
X134110033Y-104691517D01*
X134110033Y-104691517D02*
X134138604Y-104720089D01*
X134138604Y-104720089D02*
X134167175Y-104777232D01*
X134167175Y-104777232D02*
X134167175Y-104805803D01*
X134167175Y-104805803D02*
X134138604Y-104862946D01*
X134138604Y-104862946D02*
X134110033Y-104891517D01*
X134110033Y-104891517D02*
X134052890Y-104920089D01*
X134052890Y-104920089D02*
X133938604Y-104920089D01*
X133938604Y-104920089D02*
X133881461Y-104948660D01*
X133881461Y-104948660D02*
X133852890Y-104977232D01*
X133852890Y-104977232D02*
X133824318Y-105034375D01*
X133824318Y-105034375D02*
X133824318Y-105148660D01*
X133824318Y-105148660D02*
X133852890Y-105205803D01*
X133852890Y-105205803D02*
X133881461Y-105234375D01*
X133881461Y-105234375D02*
X133938604Y-105262946D01*
X133938604Y-105262946D02*
X134052890Y-105262946D01*
X134052890Y-105262946D02*
X134110033Y-105234375D01*
X134110033Y-105234375D02*
X134138604Y-105205803D01*
X134138604Y-105205803D02*
X134167175Y-105148660D01*
X134167175Y-105148660D02*
X134167175Y-105034375D01*
X134167175Y-105034375D02*
X134138604Y-104977232D01*
X134138604Y-104977232D02*
X134110033Y-104948660D01*
X134110033Y-104948660D02*
X134052890Y-104920089D01*
X134218801Y-104732684D02*
X134018801Y-104446970D01*
X133875944Y-104732684D02*
X133875944Y-104132684D01*
X133875944Y-104132684D02*
X134104515Y-104132684D01*
X134104515Y-104132684D02*
X134161658Y-104161255D01*
X134161658Y-104161255D02*
X134190229Y-104189827D01*
X134190229Y-104189827D02*
X134218801Y-104246970D01*
X134218801Y-104246970D02*
X134218801Y-104332684D01*
X134218801Y-104332684D02*
X134190229Y-104389827D01*
X134190229Y-104389827D02*
X134161658Y-104418398D01*
X134161658Y-104418398D02*
X134104515Y-104446970D01*
X134104515Y-104446970D02*
X133875944Y-104446970D01*
X134790229Y-104732684D02*
X134447372Y-104732684D01*
X134618801Y-104732684D02*
X134618801Y-104132684D01*
X134618801Y-104132684D02*
X134561658Y-104218398D01*
X134561658Y-104218398D02*
X134504515Y-104275541D01*
X134504515Y-104275541D02*
X134447372Y-104304113D01*
X134990230Y-104132684D02*
X135390230Y-104132684D01*
X135390230Y-104132684D02*
X135133087Y-104732684D01*
X148330995Y-103960580D02*
X148302423Y-103989152D01*
X148302423Y-103989152D02*
X148216709Y-104017723D01*
X148216709Y-104017723D02*
X148159566Y-104017723D01*
X148159566Y-104017723D02*
X148073852Y-103989152D01*
X148073852Y-103989152D02*
X148016709Y-103932009D01*
X148016709Y-103932009D02*
X147988138Y-103874866D01*
X147988138Y-103874866D02*
X147959566Y-103760580D01*
X147959566Y-103760580D02*
X147959566Y-103674866D01*
X147959566Y-103674866D02*
X147988138Y-103560580D01*
X147988138Y-103560580D02*
X148016709Y-103503437D01*
X148016709Y-103503437D02*
X148073852Y-103446294D01*
X148073852Y-103446294D02*
X148159566Y-103417723D01*
X148159566Y-103417723D02*
X148216709Y-103417723D01*
X148216709Y-103417723D02*
X148302423Y-103446294D01*
X148302423Y-103446294D02*
X148330995Y-103474866D01*
X148559566Y-103474866D02*
X148588138Y-103446294D01*
X148588138Y-103446294D02*
X148645281Y-103417723D01*
X148645281Y-103417723D02*
X148788138Y-103417723D01*
X148788138Y-103417723D02*
X148845281Y-103446294D01*
X148845281Y-103446294D02*
X148873852Y-103474866D01*
X148873852Y-103474866D02*
X148902423Y-103532009D01*
X148902423Y-103532009D02*
X148902423Y-103589152D01*
X148902423Y-103589152D02*
X148873852Y-103674866D01*
X148873852Y-103674866D02*
X148530995Y-104017723D01*
X148530995Y-104017723D02*
X148902423Y-104017723D01*
X149473852Y-104017723D02*
X149130995Y-104017723D01*
X149302424Y-104017723D02*
X149302424Y-103417723D01*
X149302424Y-103417723D02*
X149245281Y-103503437D01*
X149245281Y-103503437D02*
X149188138Y-103560580D01*
X149188138Y-103560580D02*
X149130995Y-103589152D01*
X143591139Y-115060600D02*
X143591139Y-115667743D01*
X143591139Y-115667743D02*
X143626853Y-115739171D01*
X143626853Y-115739171D02*
X143662568Y-115774886D01*
X143662568Y-115774886D02*
X143733996Y-115810600D01*
X143733996Y-115810600D02*
X143876853Y-115810600D01*
X143876853Y-115810600D02*
X143948282Y-115774886D01*
X143948282Y-115774886D02*
X143983996Y-115739171D01*
X143983996Y-115739171D02*
X144019710Y-115667743D01*
X144019710Y-115667743D02*
X144019710Y-115060600D01*
X144341139Y-115132028D02*
X144376853Y-115096314D01*
X144376853Y-115096314D02*
X144448282Y-115060600D01*
X144448282Y-115060600D02*
X144626853Y-115060600D01*
X144626853Y-115060600D02*
X144698282Y-115096314D01*
X144698282Y-115096314D02*
X144733996Y-115132028D01*
X144733996Y-115132028D02*
X144769710Y-115203457D01*
X144769710Y-115203457D02*
X144769710Y-115274886D01*
X144769710Y-115274886D02*
X144733996Y-115382028D01*
X144733996Y-115382028D02*
X144305424Y-115810600D01*
X144305424Y-115810600D02*
X144769710Y-115810600D01*
X148911493Y-100675258D02*
X148882921Y-100703830D01*
X148882921Y-100703830D02*
X148797207Y-100732401D01*
X148797207Y-100732401D02*
X148740064Y-100732401D01*
X148740064Y-100732401D02*
X148654350Y-100703830D01*
X148654350Y-100703830D02*
X148597207Y-100646687D01*
X148597207Y-100646687D02*
X148568636Y-100589544D01*
X148568636Y-100589544D02*
X148540064Y-100475258D01*
X148540064Y-100475258D02*
X148540064Y-100389544D01*
X148540064Y-100389544D02*
X148568636Y-100275258D01*
X148568636Y-100275258D02*
X148597207Y-100218115D01*
X148597207Y-100218115D02*
X148654350Y-100160972D01*
X148654350Y-100160972D02*
X148740064Y-100132401D01*
X148740064Y-100132401D02*
X148797207Y-100132401D01*
X148797207Y-100132401D02*
X148882921Y-100160972D01*
X148882921Y-100160972D02*
X148911493Y-100189544D01*
X149140064Y-100189544D02*
X149168636Y-100160972D01*
X149168636Y-100160972D02*
X149225779Y-100132401D01*
X149225779Y-100132401D02*
X149368636Y-100132401D01*
X149368636Y-100132401D02*
X149425779Y-100160972D01*
X149425779Y-100160972D02*
X149454350Y-100189544D01*
X149454350Y-100189544D02*
X149482921Y-100246687D01*
X149482921Y-100246687D02*
X149482921Y-100303830D01*
X149482921Y-100303830D02*
X149454350Y-100389544D01*
X149454350Y-100389544D02*
X149111493Y-100732401D01*
X149111493Y-100732401D02*
X149482921Y-100732401D01*
X149854350Y-100132401D02*
X149911493Y-100132401D01*
X149911493Y-100132401D02*
X149968636Y-100160972D01*
X149968636Y-100160972D02*
X149997208Y-100189544D01*
X149997208Y-100189544D02*
X150025779Y-100246687D01*
X150025779Y-100246687D02*
X150054350Y-100360972D01*
X150054350Y-100360972D02*
X150054350Y-100503830D01*
X150054350Y-100503830D02*
X150025779Y-100618115D01*
X150025779Y-100618115D02*
X149997208Y-100675258D01*
X149997208Y-100675258D02*
X149968636Y-100703830D01*
X149968636Y-100703830D02*
X149911493Y-100732401D01*
X149911493Y-100732401D02*
X149854350Y-100732401D01*
X149854350Y-100732401D02*
X149797208Y-100703830D01*
X149797208Y-100703830D02*
X149768636Y-100675258D01*
X149768636Y-100675258D02*
X149740065Y-100618115D01*
X149740065Y-100618115D02*
X149711493Y-100503830D01*
X149711493Y-100503830D02*
X149711493Y-100360972D01*
X149711493Y-100360972D02*
X149740065Y-100246687D01*
X149740065Y-100246687D02*
X149768636Y-100189544D01*
X149768636Y-100189544D02*
X149797208Y-100160972D01*
X149797208Y-100160972D02*
X149854350Y-100132401D01*
X148979516Y-103298256D02*
X148950944Y-103326828D01*
X148950944Y-103326828D02*
X148865230Y-103355399D01*
X148865230Y-103355399D02*
X148808087Y-103355399D01*
X148808087Y-103355399D02*
X148722373Y-103326828D01*
X148722373Y-103326828D02*
X148665230Y-103269685D01*
X148665230Y-103269685D02*
X148636659Y-103212542D01*
X148636659Y-103212542D02*
X148608087Y-103098256D01*
X148608087Y-103098256D02*
X148608087Y-103012542D01*
X148608087Y-103012542D02*
X148636659Y-102898256D01*
X148636659Y-102898256D02*
X148665230Y-102841113D01*
X148665230Y-102841113D02*
X148722373Y-102783970D01*
X148722373Y-102783970D02*
X148808087Y-102755399D01*
X148808087Y-102755399D02*
X148865230Y-102755399D01*
X148865230Y-102755399D02*
X148950944Y-102783970D01*
X148950944Y-102783970D02*
X148979516Y-102812542D01*
X149208087Y-102812542D02*
X149236659Y-102783970D01*
X149236659Y-102783970D02*
X149293802Y-102755399D01*
X149293802Y-102755399D02*
X149436659Y-102755399D01*
X149436659Y-102755399D02*
X149493802Y-102783970D01*
X149493802Y-102783970D02*
X149522373Y-102812542D01*
X149522373Y-102812542D02*
X149550944Y-102869685D01*
X149550944Y-102869685D02*
X149550944Y-102926828D01*
X149550944Y-102926828D02*
X149522373Y-103012542D01*
X149522373Y-103012542D02*
X149179516Y-103355399D01*
X149179516Y-103355399D02*
X149550944Y-103355399D01*
X149779516Y-102812542D02*
X149808088Y-102783970D01*
X149808088Y-102783970D02*
X149865231Y-102755399D01*
X149865231Y-102755399D02*
X150008088Y-102755399D01*
X150008088Y-102755399D02*
X150065231Y-102783970D01*
X150065231Y-102783970D02*
X150093802Y-102812542D01*
X150093802Y-102812542D02*
X150122373Y-102869685D01*
X150122373Y-102869685D02*
X150122373Y-102926828D01*
X150122373Y-102926828D02*
X150093802Y-103012542D01*
X150093802Y-103012542D02*
X149750945Y-103355399D01*
X149750945Y-103355399D02*
X150122373Y-103355399D01*
X134227871Y-105830157D02*
X134027871Y-105544443D01*
X133885014Y-105830157D02*
X133885014Y-105230157D01*
X133885014Y-105230157D02*
X134113585Y-105230157D01*
X134113585Y-105230157D02*
X134170728Y-105258728D01*
X134170728Y-105258728D02*
X134199299Y-105287300D01*
X134199299Y-105287300D02*
X134227871Y-105344443D01*
X134227871Y-105344443D02*
X134227871Y-105430157D01*
X134227871Y-105430157D02*
X134199299Y-105487300D01*
X134199299Y-105487300D02*
X134170728Y-105515871D01*
X134170728Y-105515871D02*
X134113585Y-105544443D01*
X134113585Y-105544443D02*
X133885014Y-105544443D01*
X134799299Y-105830157D02*
X134456442Y-105830157D01*
X134627871Y-105830157D02*
X134627871Y-105230157D01*
X134627871Y-105230157D02*
X134570728Y-105315871D01*
X134570728Y-105315871D02*
X134513585Y-105373014D01*
X134513585Y-105373014D02*
X134456442Y-105401586D01*
X135313586Y-105230157D02*
X135199300Y-105230157D01*
X135199300Y-105230157D02*
X135142157Y-105258728D01*
X135142157Y-105258728D02*
X135113586Y-105287300D01*
X135113586Y-105287300D02*
X135056443Y-105373014D01*
X135056443Y-105373014D02*
X135027871Y-105487300D01*
X135027871Y-105487300D02*
X135027871Y-105715871D01*
X135027871Y-105715871D02*
X135056443Y-105773014D01*
X135056443Y-105773014D02*
X135085014Y-105801586D01*
X135085014Y-105801586D02*
X135142157Y-105830157D01*
X135142157Y-105830157D02*
X135256443Y-105830157D01*
X135256443Y-105830157D02*
X135313586Y-105801586D01*
X135313586Y-105801586D02*
X135342157Y-105773014D01*
X135342157Y-105773014D02*
X135370728Y-105715871D01*
X135370728Y-105715871D02*
X135370728Y-105573014D01*
X135370728Y-105573014D02*
X135342157Y-105515871D01*
X135342157Y-105515871D02*
X135313586Y-105487300D01*
X135313586Y-105487300D02*
X135256443Y-105458728D01*
X135256443Y-105458728D02*
X135142157Y-105458728D01*
X135142157Y-105458728D02*
X135085014Y-105487300D01*
X135085014Y-105487300D02*
X135056443Y-105515871D01*
X135056443Y-105515871D02*
X135027871Y-105573014D01*
X128075332Y-117162004D02*
X128075332Y-117566766D01*
X128075332Y-117566766D02*
X128099142Y-117614385D01*
X128099142Y-117614385D02*
X128122951Y-117638195D01*
X128122951Y-117638195D02*
X128170570Y-117662004D01*
X128170570Y-117662004D02*
X128265808Y-117662004D01*
X128265808Y-117662004D02*
X128313427Y-117638195D01*
X128313427Y-117638195D02*
X128337237Y-117614385D01*
X128337237Y-117614385D02*
X128361046Y-117566766D01*
X128361046Y-117566766D02*
X128361046Y-117162004D01*
X128861047Y-117662004D02*
X128575333Y-117662004D01*
X128718190Y-117662004D02*
X128718190Y-117162004D01*
X128718190Y-117162004D02*
X128670571Y-117233433D01*
X128670571Y-117233433D02*
X128622952Y-117281052D01*
X128622952Y-117281052D02*
X128575333Y-117304861D01*
X129027713Y-117162004D02*
X129361046Y-117162004D01*
X129361046Y-117162004D02*
X129146761Y-117662004D01*
X139400380Y-117757985D02*
X139371808Y-117786557D01*
X139371808Y-117786557D02*
X139286094Y-117815128D01*
X139286094Y-117815128D02*
X139228951Y-117815128D01*
X139228951Y-117815128D02*
X139143237Y-117786557D01*
X139143237Y-117786557D02*
X139086094Y-117729414D01*
X139086094Y-117729414D02*
X139057523Y-117672271D01*
X139057523Y-117672271D02*
X139028951Y-117557985D01*
X139028951Y-117557985D02*
X139028951Y-117472271D01*
X139028951Y-117472271D02*
X139057523Y-117357985D01*
X139057523Y-117357985D02*
X139086094Y-117300842D01*
X139086094Y-117300842D02*
X139143237Y-117243699D01*
X139143237Y-117243699D02*
X139228951Y-117215128D01*
X139228951Y-117215128D02*
X139286094Y-117215128D01*
X139286094Y-117215128D02*
X139371808Y-117243699D01*
X139371808Y-117243699D02*
X139400380Y-117272271D01*
X139600380Y-117215128D02*
X139971808Y-117215128D01*
X139971808Y-117215128D02*
X139771808Y-117443699D01*
X139771808Y-117443699D02*
X139857523Y-117443699D01*
X139857523Y-117443699D02*
X139914666Y-117472271D01*
X139914666Y-117472271D02*
X139943237Y-117500842D01*
X139943237Y-117500842D02*
X139971808Y-117557985D01*
X139971808Y-117557985D02*
X139971808Y-117700842D01*
X139971808Y-117700842D02*
X139943237Y-117757985D01*
X139943237Y-117757985D02*
X139914666Y-117786557D01*
X139914666Y-117786557D02*
X139857523Y-117815128D01*
X139857523Y-117815128D02*
X139686094Y-117815128D01*
X139686094Y-117815128D02*
X139628951Y-117786557D01*
X139628951Y-117786557D02*
X139600380Y-117757985D01*
X144031913Y-108421659D02*
X144031913Y-108707373D01*
X144031913Y-108707373D02*
X143431913Y-108707373D01*
X144031913Y-107907374D02*
X144031913Y-108250231D01*
X144031913Y-108078802D02*
X143431913Y-108078802D01*
X143431913Y-108078802D02*
X143517627Y-108135945D01*
X143517627Y-108135945D02*
X143574770Y-108193088D01*
X143574770Y-108193088D02*
X143603342Y-108250231D01*
X141750616Y-106540959D02*
X141779188Y-106569531D01*
X141779188Y-106569531D02*
X141807759Y-106655245D01*
X141807759Y-106655245D02*
X141807759Y-106712388D01*
X141807759Y-106712388D02*
X141779188Y-106798102D01*
X141779188Y-106798102D02*
X141722045Y-106855245D01*
X141722045Y-106855245D02*
X141664902Y-106883816D01*
X141664902Y-106883816D02*
X141550616Y-106912388D01*
X141550616Y-106912388D02*
X141464902Y-106912388D01*
X141464902Y-106912388D02*
X141350616Y-106883816D01*
X141350616Y-106883816D02*
X141293473Y-106855245D01*
X141293473Y-106855245D02*
X141236330Y-106798102D01*
X141236330Y-106798102D02*
X141207759Y-106712388D01*
X141207759Y-106712388D02*
X141207759Y-106655245D01*
X141207759Y-106655245D02*
X141236330Y-106569531D01*
X141236330Y-106569531D02*
X141264902Y-106540959D01*
X141807759Y-105969531D02*
X141807759Y-106312388D01*
X141807759Y-106140959D02*
X141207759Y-106140959D01*
X141207759Y-106140959D02*
X141293473Y-106198102D01*
X141293473Y-106198102D02*
X141350616Y-106255245D01*
X141350616Y-106255245D02*
X141379188Y-106312388D01*
X141807759Y-105398102D02*
X141807759Y-105740959D01*
X141807759Y-105569530D02*
X141207759Y-105569530D01*
X141207759Y-105569530D02*
X141293473Y-105626673D01*
X141293473Y-105626673D02*
X141350616Y-105683816D01*
X141350616Y-105683816D02*
X141379188Y-105740959D01*
X143156195Y-107470289D02*
X143184767Y-107498861D01*
X143184767Y-107498861D02*
X143213338Y-107584575D01*
X143213338Y-107584575D02*
X143213338Y-107641718D01*
X143213338Y-107641718D02*
X143184767Y-107727432D01*
X143184767Y-107727432D02*
X143127624Y-107784575D01*
X143127624Y-107784575D02*
X143070481Y-107813146D01*
X143070481Y-107813146D02*
X142956195Y-107841718D01*
X142956195Y-107841718D02*
X142870481Y-107841718D01*
X142870481Y-107841718D02*
X142756195Y-107813146D01*
X142756195Y-107813146D02*
X142699052Y-107784575D01*
X142699052Y-107784575D02*
X142641909Y-107727432D01*
X142641909Y-107727432D02*
X142613338Y-107641718D01*
X142613338Y-107641718D02*
X142613338Y-107584575D01*
X142613338Y-107584575D02*
X142641909Y-107498861D01*
X142641909Y-107498861D02*
X142670481Y-107470289D01*
X143213338Y-106898861D02*
X143213338Y-107241718D01*
X143213338Y-107070289D02*
X142613338Y-107070289D01*
X142613338Y-107070289D02*
X142699052Y-107127432D01*
X142699052Y-107127432D02*
X142756195Y-107184575D01*
X142756195Y-107184575D02*
X142784767Y-107241718D01*
X132782266Y-109477644D02*
X132582266Y-109191930D01*
X132439409Y-109477644D02*
X132439409Y-108877644D01*
X132439409Y-108877644D02*
X132667980Y-108877644D01*
X132667980Y-108877644D02*
X132725123Y-108906215D01*
X132725123Y-108906215D02*
X132753694Y-108934787D01*
X132753694Y-108934787D02*
X132782266Y-108991930D01*
X132782266Y-108991930D02*
X132782266Y-109077644D01*
X132782266Y-109077644D02*
X132753694Y-109134787D01*
X132753694Y-109134787D02*
X132725123Y-109163358D01*
X132725123Y-109163358D02*
X132667980Y-109191930D01*
X132667980Y-109191930D02*
X132439409Y-109191930D01*
X133353694Y-109477644D02*
X133010837Y-109477644D01*
X133182266Y-109477644D02*
X133182266Y-108877644D01*
X133182266Y-108877644D02*
X133125123Y-108963358D01*
X133125123Y-108963358D02*
X133067980Y-109020501D01*
X133067980Y-109020501D02*
X133010837Y-109049073D01*
X133725123Y-108877644D02*
X133782266Y-108877644D01*
X133782266Y-108877644D02*
X133839409Y-108906215D01*
X133839409Y-108906215D02*
X133867981Y-108934787D01*
X133867981Y-108934787D02*
X133896552Y-108991930D01*
X133896552Y-108991930D02*
X133925123Y-109106215D01*
X133925123Y-109106215D02*
X133925123Y-109249073D01*
X133925123Y-109249073D02*
X133896552Y-109363358D01*
X133896552Y-109363358D02*
X133867981Y-109420501D01*
X133867981Y-109420501D02*
X133839409Y-109449073D01*
X133839409Y-109449073D02*
X133782266Y-109477644D01*
X133782266Y-109477644D02*
X133725123Y-109477644D01*
X133725123Y-109477644D02*
X133667981Y-109449073D01*
X133667981Y-109449073D02*
X133639409Y-109420501D01*
X133639409Y-109420501D02*
X133610838Y-109363358D01*
X133610838Y-109363358D02*
X133582266Y-109249073D01*
X133582266Y-109249073D02*
X133582266Y-109106215D01*
X133582266Y-109106215D02*
X133610838Y-108991930D01*
X133610838Y-108991930D02*
X133639409Y-108934787D01*
X133639409Y-108934787D02*
X133667981Y-108906215D01*
X133667981Y-108906215D02*
X133725123Y-108877644D01*
X144806612Y-110819593D02*
X144520898Y-110819593D01*
X144520898Y-110819593D02*
X144520898Y-110219593D01*
X144978040Y-110276736D02*
X145006612Y-110248164D01*
X145006612Y-110248164D02*
X145063755Y-110219593D01*
X145063755Y-110219593D02*
X145206612Y-110219593D01*
X145206612Y-110219593D02*
X145263755Y-110248164D01*
X145263755Y-110248164D02*
X145292326Y-110276736D01*
X145292326Y-110276736D02*
X145320897Y-110333879D01*
X145320897Y-110333879D02*
X145320897Y-110391022D01*
X145320897Y-110391022D02*
X145292326Y-110476736D01*
X145292326Y-110476736D02*
X144949469Y-110819593D01*
X144949469Y-110819593D02*
X145320897Y-110819593D01*
X133486425Y-116666872D02*
X133200711Y-116666872D01*
X133200711Y-116666872D02*
X133200711Y-116066872D01*
X133629282Y-116066872D02*
X134000710Y-116066872D01*
X134000710Y-116066872D02*
X133800710Y-116295443D01*
X133800710Y-116295443D02*
X133886425Y-116295443D01*
X133886425Y-116295443D02*
X133943568Y-116324015D01*
X133943568Y-116324015D02*
X133972139Y-116352586D01*
X133972139Y-116352586D02*
X134000710Y-116409729D01*
X134000710Y-116409729D02*
X134000710Y-116552586D01*
X134000710Y-116552586D02*
X133972139Y-116609729D01*
X133972139Y-116609729D02*
X133943568Y-116638301D01*
X133943568Y-116638301D02*
X133886425Y-116666872D01*
X133886425Y-116666872D02*
X133714996Y-116666872D01*
X133714996Y-116666872D02*
X133657853Y-116638301D01*
X133657853Y-116638301D02*
X133629282Y-116609729D01*
X150776240Y-106736525D02*
X151383383Y-106736525D01*
X151383383Y-106736525D02*
X151454811Y-106700811D01*
X151454811Y-106700811D02*
X151490526Y-106665097D01*
X151490526Y-106665097D02*
X151526240Y-106593668D01*
X151526240Y-106593668D02*
X151526240Y-106450811D01*
X151526240Y-106450811D02*
X151490526Y-106379382D01*
X151490526Y-106379382D02*
X151454811Y-106343668D01*
X151454811Y-106343668D02*
X151383383Y-106307954D01*
X151383383Y-106307954D02*
X150776240Y-106307954D01*
X151026240Y-105629383D02*
X151526240Y-105629383D01*
X150740526Y-105807954D02*
X151276240Y-105986525D01*
X151276240Y-105986525D02*
X151276240Y-105522240D01*
X142772556Y-110054104D02*
X142801128Y-110082676D01*
X142801128Y-110082676D02*
X142829699Y-110168390D01*
X142829699Y-110168390D02*
X142829699Y-110225533D01*
X142829699Y-110225533D02*
X142801128Y-110311247D01*
X142801128Y-110311247D02*
X142743985Y-110368390D01*
X142743985Y-110368390D02*
X142686842Y-110396961D01*
X142686842Y-110396961D02*
X142572556Y-110425533D01*
X142572556Y-110425533D02*
X142486842Y-110425533D01*
X142486842Y-110425533D02*
X142372556Y-110396961D01*
X142372556Y-110396961D02*
X142315413Y-110368390D01*
X142315413Y-110368390D02*
X142258270Y-110311247D01*
X142258270Y-110311247D02*
X142229699Y-110225533D01*
X142229699Y-110225533D02*
X142229699Y-110168390D01*
X142229699Y-110168390D02*
X142258270Y-110082676D01*
X142258270Y-110082676D02*
X142286842Y-110054104D01*
X142286842Y-109825533D02*
X142258270Y-109796961D01*
X142258270Y-109796961D02*
X142229699Y-109739819D01*
X142229699Y-109739819D02*
X142229699Y-109596961D01*
X142229699Y-109596961D02*
X142258270Y-109539819D01*
X142258270Y-109539819D02*
X142286842Y-109511247D01*
X142286842Y-109511247D02*
X142343985Y-109482676D01*
X142343985Y-109482676D02*
X142401128Y-109482676D01*
X142401128Y-109482676D02*
X142486842Y-109511247D01*
X142486842Y-109511247D02*
X142829699Y-109854104D01*
X142829699Y-109854104D02*
X142829699Y-109482676D01*
X133032463Y-107497494D02*
X132832463Y-107211780D01*
X132689606Y-107497494D02*
X132689606Y-106897494D01*
X132689606Y-106897494D02*
X132918177Y-106897494D01*
X132918177Y-106897494D02*
X132975320Y-106926065D01*
X132975320Y-106926065D02*
X133003891Y-106954637D01*
X133003891Y-106954637D02*
X133032463Y-107011780D01*
X133032463Y-107011780D02*
X133032463Y-107097494D01*
X133032463Y-107097494D02*
X133003891Y-107154637D01*
X133003891Y-107154637D02*
X132975320Y-107183208D01*
X132975320Y-107183208D02*
X132918177Y-107211780D01*
X132918177Y-107211780D02*
X132689606Y-107211780D01*
X133318177Y-107497494D02*
X133432463Y-107497494D01*
X133432463Y-107497494D02*
X133489606Y-107468923D01*
X133489606Y-107468923D02*
X133518177Y-107440351D01*
X133518177Y-107440351D02*
X133575320Y-107354637D01*
X133575320Y-107354637D02*
X133603891Y-107240351D01*
X133603891Y-107240351D02*
X133603891Y-107011780D01*
X133603891Y-107011780D02*
X133575320Y-106954637D01*
X133575320Y-106954637D02*
X133546749Y-106926065D01*
X133546749Y-106926065D02*
X133489606Y-106897494D01*
X133489606Y-106897494D02*
X133375320Y-106897494D01*
X133375320Y-106897494D02*
X133318177Y-106926065D01*
X133318177Y-106926065D02*
X133289606Y-106954637D01*
X133289606Y-106954637D02*
X133261034Y-107011780D01*
X133261034Y-107011780D02*
X133261034Y-107154637D01*
X133261034Y-107154637D02*
X133289606Y-107211780D01*
X133289606Y-107211780D02*
X133318177Y-107240351D01*
X133318177Y-107240351D02*
X133375320Y-107268923D01*
X133375320Y-107268923D02*
X133489606Y-107268923D01*
X133489606Y-107268923D02*
X133546749Y-107240351D01*
X133546749Y-107240351D02*
X133575320Y-107211780D01*
X133575320Y-107211780D02*
X133603891Y-107154637D01*
X135441523Y-116488104D02*
X135470095Y-116516676D01*
X135470095Y-116516676D02*
X135498666Y-116602390D01*
X135498666Y-116602390D02*
X135498666Y-116659533D01*
X135498666Y-116659533D02*
X135470095Y-116745247D01*
X135470095Y-116745247D02*
X135412952Y-116802390D01*
X135412952Y-116802390D02*
X135355809Y-116830961D01*
X135355809Y-116830961D02*
X135241523Y-116859533D01*
X135241523Y-116859533D02*
X135155809Y-116859533D01*
X135155809Y-116859533D02*
X135041523Y-116830961D01*
X135041523Y-116830961D02*
X134984380Y-116802390D01*
X134984380Y-116802390D02*
X134927237Y-116745247D01*
X134927237Y-116745247D02*
X134898666Y-116659533D01*
X134898666Y-116659533D02*
X134898666Y-116602390D01*
X134898666Y-116602390D02*
X134927237Y-116516676D01*
X134927237Y-116516676D02*
X134955809Y-116488104D01*
X135098666Y-115973819D02*
X135498666Y-115973819D01*
X134870095Y-116116676D02*
X135298666Y-116259533D01*
X135298666Y-116259533D02*
X135298666Y-115888104D01*
X135498666Y-115630961D02*
X135498666Y-115516675D01*
X135498666Y-115516675D02*
X135470095Y-115459532D01*
X135470095Y-115459532D02*
X135441523Y-115430961D01*
X135441523Y-115430961D02*
X135355809Y-115373818D01*
X135355809Y-115373818D02*
X135241523Y-115345247D01*
X135241523Y-115345247D02*
X135012952Y-115345247D01*
X135012952Y-115345247D02*
X134955809Y-115373818D01*
X134955809Y-115373818D02*
X134927237Y-115402390D01*
X134927237Y-115402390D02*
X134898666Y-115459532D01*
X134898666Y-115459532D02*
X134898666Y-115573818D01*
X134898666Y-115573818D02*
X134927237Y-115630961D01*
X134927237Y-115630961D02*
X134955809Y-115659532D01*
X134955809Y-115659532D02*
X135012952Y-115688104D01*
X135012952Y-115688104D02*
X135155809Y-115688104D01*
X135155809Y-115688104D02*
X135212952Y-115659532D01*
X135212952Y-115659532D02*
X135241523Y-115630961D01*
X135241523Y-115630961D02*
X135270095Y-115573818D01*
X135270095Y-115573818D02*
X135270095Y-115459532D01*
X135270095Y-115459532D02*
X135241523Y-115402390D01*
X135241523Y-115402390D02*
X135212952Y-115373818D01*
X135212952Y-115373818D02*
X135155809Y-115345247D01*
X146816342Y-100007924D02*
X146844914Y-100036496D01*
X146844914Y-100036496D02*
X146873485Y-100122210D01*
X146873485Y-100122210D02*
X146873485Y-100179353D01*
X146873485Y-100179353D02*
X146844914Y-100265067D01*
X146844914Y-100265067D02*
X146787771Y-100322210D01*
X146787771Y-100322210D02*
X146730628Y-100350781D01*
X146730628Y-100350781D02*
X146616342Y-100379353D01*
X146616342Y-100379353D02*
X146530628Y-100379353D01*
X146530628Y-100379353D02*
X146416342Y-100350781D01*
X146416342Y-100350781D02*
X146359199Y-100322210D01*
X146359199Y-100322210D02*
X146302056Y-100265067D01*
X146302056Y-100265067D02*
X146273485Y-100179353D01*
X146273485Y-100179353D02*
X146273485Y-100122210D01*
X146273485Y-100122210D02*
X146302056Y-100036496D01*
X146302056Y-100036496D02*
X146330628Y-100007924D01*
X146873485Y-99436496D02*
X146873485Y-99779353D01*
X146873485Y-99607924D02*
X146273485Y-99607924D01*
X146273485Y-99607924D02*
X146359199Y-99665067D01*
X146359199Y-99665067D02*
X146416342Y-99722210D01*
X146416342Y-99722210D02*
X146444914Y-99779353D01*
X146273485Y-98922210D02*
X146273485Y-99036495D01*
X146273485Y-99036495D02*
X146302056Y-99093638D01*
X146302056Y-99093638D02*
X146330628Y-99122210D01*
X146330628Y-99122210D02*
X146416342Y-99179352D01*
X146416342Y-99179352D02*
X146530628Y-99207924D01*
X146530628Y-99207924D02*
X146759199Y-99207924D01*
X146759199Y-99207924D02*
X146816342Y-99179352D01*
X146816342Y-99179352D02*
X146844914Y-99150781D01*
X146844914Y-99150781D02*
X146873485Y-99093638D01*
X146873485Y-99093638D02*
X146873485Y-98979352D01*
X146873485Y-98979352D02*
X146844914Y-98922210D01*
X146844914Y-98922210D02*
X146816342Y-98893638D01*
X146816342Y-98893638D02*
X146759199Y-98865067D01*
X146759199Y-98865067D02*
X146616342Y-98865067D01*
X146616342Y-98865067D02*
X146559199Y-98893638D01*
X146559199Y-98893638D02*
X146530628Y-98922210D01*
X146530628Y-98922210D02*
X146502056Y-98979352D01*
X146502056Y-98979352D02*
X146502056Y-99093638D01*
X146502056Y-99093638D02*
X146530628Y-99150781D01*
X146530628Y-99150781D02*
X146559199Y-99179352D01*
X146559199Y-99179352D02*
X146616342Y-99207924D01*
X145913823Y-103697741D02*
X145942395Y-103726313D01*
X145942395Y-103726313D02*
X145970966Y-103812027D01*
X145970966Y-103812027D02*
X145970966Y-103869170D01*
X145970966Y-103869170D02*
X145942395Y-103954884D01*
X145942395Y-103954884D02*
X145885252Y-104012027D01*
X145885252Y-104012027D02*
X145828109Y-104040598D01*
X145828109Y-104040598D02*
X145713823Y-104069170D01*
X145713823Y-104069170D02*
X145628109Y-104069170D01*
X145628109Y-104069170D02*
X145513823Y-104040598D01*
X145513823Y-104040598D02*
X145456680Y-104012027D01*
X145456680Y-104012027D02*
X145399537Y-103954884D01*
X145399537Y-103954884D02*
X145370966Y-103869170D01*
X145370966Y-103869170D02*
X145370966Y-103812027D01*
X145370966Y-103812027D02*
X145399537Y-103726313D01*
X145399537Y-103726313D02*
X145428109Y-103697741D01*
X145970966Y-103126313D02*
X145970966Y-103469170D01*
X145970966Y-103297741D02*
X145370966Y-103297741D01*
X145370966Y-103297741D02*
X145456680Y-103354884D01*
X145456680Y-103354884D02*
X145513823Y-103412027D01*
X145513823Y-103412027D02*
X145542395Y-103469170D01*
X145370966Y-102926312D02*
X145370966Y-102526312D01*
X145370966Y-102526312D02*
X145970966Y-102783455D01*
X132525378Y-106700377D02*
X132496806Y-106728949D01*
X132496806Y-106728949D02*
X132411092Y-106757520D01*
X132411092Y-106757520D02*
X132353949Y-106757520D01*
X132353949Y-106757520D02*
X132268235Y-106728949D01*
X132268235Y-106728949D02*
X132211092Y-106671806D01*
X132211092Y-106671806D02*
X132182521Y-106614663D01*
X132182521Y-106614663D02*
X132153949Y-106500377D01*
X132153949Y-106500377D02*
X132153949Y-106414663D01*
X132153949Y-106414663D02*
X132182521Y-106300377D01*
X132182521Y-106300377D02*
X132211092Y-106243234D01*
X132211092Y-106243234D02*
X132268235Y-106186091D01*
X132268235Y-106186091D02*
X132353949Y-106157520D01*
X132353949Y-106157520D02*
X132411092Y-106157520D01*
X132411092Y-106157520D02*
X132496806Y-106186091D01*
X132496806Y-106186091D02*
X132525378Y-106214663D01*
X133039664Y-106357520D02*
X133039664Y-106757520D01*
X132896806Y-106128949D02*
X132753949Y-106557520D01*
X132753949Y-106557520D02*
X133125378Y-106557520D01*
X133296807Y-106157520D02*
X133696807Y-106157520D01*
X133696807Y-106157520D02*
X133439664Y-106757520D01*
X147468023Y-100007100D02*
X147496595Y-100035672D01*
X147496595Y-100035672D02*
X147525166Y-100121386D01*
X147525166Y-100121386D02*
X147525166Y-100178529D01*
X147525166Y-100178529D02*
X147496595Y-100264243D01*
X147496595Y-100264243D02*
X147439452Y-100321386D01*
X147439452Y-100321386D02*
X147382309Y-100349957D01*
X147382309Y-100349957D02*
X147268023Y-100378529D01*
X147268023Y-100378529D02*
X147182309Y-100378529D01*
X147182309Y-100378529D02*
X147068023Y-100349957D01*
X147068023Y-100349957D02*
X147010880Y-100321386D01*
X147010880Y-100321386D02*
X146953737Y-100264243D01*
X146953737Y-100264243D02*
X146925166Y-100178529D01*
X146925166Y-100178529D02*
X146925166Y-100121386D01*
X146925166Y-100121386D02*
X146953737Y-100035672D01*
X146953737Y-100035672D02*
X146982309Y-100007100D01*
X147525166Y-99435672D02*
X147525166Y-99778529D01*
X147525166Y-99607100D02*
X146925166Y-99607100D01*
X146925166Y-99607100D02*
X147010880Y-99664243D01*
X147010880Y-99664243D02*
X147068023Y-99721386D01*
X147068023Y-99721386D02*
X147096595Y-99778529D01*
X147182309Y-99092814D02*
X147153737Y-99149957D01*
X147153737Y-99149957D02*
X147125166Y-99178528D01*
X147125166Y-99178528D02*
X147068023Y-99207100D01*
X147068023Y-99207100D02*
X147039452Y-99207100D01*
X147039452Y-99207100D02*
X146982309Y-99178528D01*
X146982309Y-99178528D02*
X146953737Y-99149957D01*
X146953737Y-99149957D02*
X146925166Y-99092814D01*
X146925166Y-99092814D02*
X146925166Y-98978528D01*
X146925166Y-98978528D02*
X146953737Y-98921386D01*
X146953737Y-98921386D02*
X146982309Y-98892814D01*
X146982309Y-98892814D02*
X147039452Y-98864243D01*
X147039452Y-98864243D02*
X147068023Y-98864243D01*
X147068023Y-98864243D02*
X147125166Y-98892814D01*
X147125166Y-98892814D02*
X147153737Y-98921386D01*
X147153737Y-98921386D02*
X147182309Y-98978528D01*
X147182309Y-98978528D02*
X147182309Y-99092814D01*
X147182309Y-99092814D02*
X147210880Y-99149957D01*
X147210880Y-99149957D02*
X147239452Y-99178528D01*
X147239452Y-99178528D02*
X147296595Y-99207100D01*
X147296595Y-99207100D02*
X147410880Y-99207100D01*
X147410880Y-99207100D02*
X147468023Y-99178528D01*
X147468023Y-99178528D02*
X147496595Y-99149957D01*
X147496595Y-99149957D02*
X147525166Y-99092814D01*
X147525166Y-99092814D02*
X147525166Y-98978528D01*
X147525166Y-98978528D02*
X147496595Y-98921386D01*
X147496595Y-98921386D02*
X147468023Y-98892814D01*
X147468023Y-98892814D02*
X147410880Y-98864243D01*
X147410880Y-98864243D02*
X147296595Y-98864243D01*
X147296595Y-98864243D02*
X147239452Y-98892814D01*
X147239452Y-98892814D02*
X147210880Y-98921386D01*
X147210880Y-98921386D02*
X147182309Y-98978528D01*
X130097206Y-107023993D02*
X130906729Y-107023993D01*
X130906729Y-107023993D02*
X131001967Y-106976374D01*
X131001967Y-106976374D02*
X131049587Y-106928755D01*
X131049587Y-106928755D02*
X131097206Y-106833517D01*
X131097206Y-106833517D02*
X131097206Y-106643041D01*
X131097206Y-106643041D02*
X131049587Y-106547803D01*
X131049587Y-106547803D02*
X131001967Y-106500184D01*
X131001967Y-106500184D02*
X130906729Y-106452565D01*
X130906729Y-106452565D02*
X130097206Y-106452565D01*
X131097206Y-105452565D02*
X131097206Y-106023993D01*
X131097206Y-105738279D02*
X130097206Y-105738279D01*
X130097206Y-105738279D02*
X130240063Y-105833517D01*
X130240063Y-105833517D02*
X130335301Y-105928755D01*
X130335301Y-105928755D02*
X130382920Y-106023993D01*
X130192444Y-105071612D02*
X130144825Y-105023993D01*
X130144825Y-105023993D02*
X130097206Y-104928755D01*
X130097206Y-104928755D02*
X130097206Y-104690660D01*
X130097206Y-104690660D02*
X130144825Y-104595422D01*
X130144825Y-104595422D02*
X130192444Y-104547803D01*
X130192444Y-104547803D02*
X130287682Y-104500184D01*
X130287682Y-104500184D02*
X130382920Y-104500184D01*
X130382920Y-104500184D02*
X130525777Y-104547803D01*
X130525777Y-104547803D02*
X131097206Y-105119231D01*
X131097206Y-105119231D02*
X131097206Y-104500184D01*
X143466929Y-101661545D02*
X143266929Y-101375831D01*
X143124072Y-101661545D02*
X143124072Y-101061545D01*
X143124072Y-101061545D02*
X143352643Y-101061545D01*
X143352643Y-101061545D02*
X143409786Y-101090116D01*
X143409786Y-101090116D02*
X143438357Y-101118688D01*
X143438357Y-101118688D02*
X143466929Y-101175831D01*
X143466929Y-101175831D02*
X143466929Y-101261545D01*
X143466929Y-101261545D02*
X143438357Y-101318688D01*
X143438357Y-101318688D02*
X143409786Y-101347259D01*
X143409786Y-101347259D02*
X143352643Y-101375831D01*
X143352643Y-101375831D02*
X143124072Y-101375831D01*
X143981215Y-101061545D02*
X143866929Y-101061545D01*
X143866929Y-101061545D02*
X143809786Y-101090116D01*
X143809786Y-101090116D02*
X143781215Y-101118688D01*
X143781215Y-101118688D02*
X143724072Y-101204402D01*
X143724072Y-101204402D02*
X143695500Y-101318688D01*
X143695500Y-101318688D02*
X143695500Y-101547259D01*
X143695500Y-101547259D02*
X143724072Y-101604402D01*
X143724072Y-101604402D02*
X143752643Y-101632974D01*
X143752643Y-101632974D02*
X143809786Y-101661545D01*
X143809786Y-101661545D02*
X143924072Y-101661545D01*
X143924072Y-101661545D02*
X143981215Y-101632974D01*
X143981215Y-101632974D02*
X144009786Y-101604402D01*
X144009786Y-101604402D02*
X144038357Y-101547259D01*
X144038357Y-101547259D02*
X144038357Y-101404402D01*
X144038357Y-101404402D02*
X144009786Y-101347259D01*
X144009786Y-101347259D02*
X143981215Y-101318688D01*
X143981215Y-101318688D02*
X143924072Y-101290116D01*
X143924072Y-101290116D02*
X143809786Y-101290116D01*
X143809786Y-101290116D02*
X143752643Y-101318688D01*
X143752643Y-101318688D02*
X143724072Y-101347259D01*
X143724072Y-101347259D02*
X143695500Y-101404402D01*
X128932894Y-108222531D02*
X128904322Y-108251103D01*
X128904322Y-108251103D02*
X128818608Y-108279674D01*
X128818608Y-108279674D02*
X128761465Y-108279674D01*
X128761465Y-108279674D02*
X128675751Y-108251103D01*
X128675751Y-108251103D02*
X128618608Y-108193960D01*
X128618608Y-108193960D02*
X128590037Y-108136817D01*
X128590037Y-108136817D02*
X128561465Y-108022531D01*
X128561465Y-108022531D02*
X128561465Y-107936817D01*
X128561465Y-107936817D02*
X128590037Y-107822531D01*
X128590037Y-107822531D02*
X128618608Y-107765388D01*
X128618608Y-107765388D02*
X128675751Y-107708245D01*
X128675751Y-107708245D02*
X128761465Y-107679674D01*
X128761465Y-107679674D02*
X128818608Y-107679674D01*
X128818608Y-107679674D02*
X128904322Y-107708245D01*
X128904322Y-107708245D02*
X128932894Y-107736817D01*
X129447180Y-107879674D02*
X129447180Y-108279674D01*
X129304322Y-107651103D02*
X129161465Y-108079674D01*
X129161465Y-108079674D02*
X129532894Y-108079674D01*
X129704323Y-107679674D02*
X130075751Y-107679674D01*
X130075751Y-107679674D02*
X129875751Y-107908245D01*
X129875751Y-107908245D02*
X129961466Y-107908245D01*
X129961466Y-107908245D02*
X130018609Y-107936817D01*
X130018609Y-107936817D02*
X130047180Y-107965388D01*
X130047180Y-107965388D02*
X130075751Y-108022531D01*
X130075751Y-108022531D02*
X130075751Y-108165388D01*
X130075751Y-108165388D02*
X130047180Y-108222531D01*
X130047180Y-108222531D02*
X130018609Y-108251103D01*
X130018609Y-108251103D02*
X129961466Y-108279674D01*
X129961466Y-108279674D02*
X129790037Y-108279674D01*
X129790037Y-108279674D02*
X129732894Y-108251103D01*
X129732894Y-108251103D02*
X129704323Y-108222531D01*
X138608736Y-115136850D02*
X138608736Y-115743993D01*
X138608736Y-115743993D02*
X138644450Y-115815421D01*
X138644450Y-115815421D02*
X138680165Y-115851136D01*
X138680165Y-115851136D02*
X138751593Y-115886850D01*
X138751593Y-115886850D02*
X138894450Y-115886850D01*
X138894450Y-115886850D02*
X138965879Y-115851136D01*
X138965879Y-115851136D02*
X139001593Y-115815421D01*
X139001593Y-115815421D02*
X139037307Y-115743993D01*
X139037307Y-115743993D02*
X139037307Y-115136850D01*
X139787307Y-115886850D02*
X139358736Y-115886850D01*
X139573021Y-115886850D02*
X139573021Y-115136850D01*
X139573021Y-115136850D02*
X139501593Y-115243993D01*
X139501593Y-115243993D02*
X139430164Y-115315421D01*
X139430164Y-115315421D02*
X139358736Y-115351136D01*
X147387878Y-104637969D02*
X147359306Y-104666541D01*
X147359306Y-104666541D02*
X147273592Y-104695112D01*
X147273592Y-104695112D02*
X147216449Y-104695112D01*
X147216449Y-104695112D02*
X147130735Y-104666541D01*
X147130735Y-104666541D02*
X147073592Y-104609398D01*
X147073592Y-104609398D02*
X147045021Y-104552255D01*
X147045021Y-104552255D02*
X147016449Y-104437969D01*
X147016449Y-104437969D02*
X147016449Y-104352255D01*
X147016449Y-104352255D02*
X147045021Y-104237969D01*
X147045021Y-104237969D02*
X147073592Y-104180826D01*
X147073592Y-104180826D02*
X147130735Y-104123683D01*
X147130735Y-104123683D02*
X147216449Y-104095112D01*
X147216449Y-104095112D02*
X147273592Y-104095112D01*
X147273592Y-104095112D02*
X147359306Y-104123683D01*
X147359306Y-104123683D02*
X147387878Y-104152255D01*
X147959306Y-104695112D02*
X147616449Y-104695112D01*
X147787878Y-104695112D02*
X147787878Y-104095112D01*
X147787878Y-104095112D02*
X147730735Y-104180826D01*
X147730735Y-104180826D02*
X147673592Y-104237969D01*
X147673592Y-104237969D02*
X147616449Y-104266541D01*
X148502164Y-104095112D02*
X148216450Y-104095112D01*
X148216450Y-104095112D02*
X148187878Y-104380826D01*
X148187878Y-104380826D02*
X148216450Y-104352255D01*
X148216450Y-104352255D02*
X148273593Y-104323683D01*
X148273593Y-104323683D02*
X148416450Y-104323683D01*
X148416450Y-104323683D02*
X148473593Y-104352255D01*
X148473593Y-104352255D02*
X148502164Y-104380826D01*
X148502164Y-104380826D02*
X148530735Y-104437969D01*
X148530735Y-104437969D02*
X148530735Y-104580826D01*
X148530735Y-104580826D02*
X148502164Y-104637969D01*
X148502164Y-104637969D02*
X148473593Y-104666541D01*
X148473593Y-104666541D02*
X148416450Y-104695112D01*
X148416450Y-104695112D02*
X148273593Y-104695112D01*
X148273593Y-104695112D02*
X148216450Y-104666541D01*
X148216450Y-104666541D02*
X148187878Y-104637969D01*
X144438973Y-101660350D02*
X144238973Y-101374636D01*
X144096116Y-101660350D02*
X144096116Y-101060350D01*
X144096116Y-101060350D02*
X144324687Y-101060350D01*
X144324687Y-101060350D02*
X144381830Y-101088921D01*
X144381830Y-101088921D02*
X144410401Y-101117493D01*
X144410401Y-101117493D02*
X144438973Y-101174636D01*
X144438973Y-101174636D02*
X144438973Y-101260350D01*
X144438973Y-101260350D02*
X144410401Y-101317493D01*
X144410401Y-101317493D02*
X144381830Y-101346064D01*
X144381830Y-101346064D02*
X144324687Y-101374636D01*
X144324687Y-101374636D02*
X144096116Y-101374636D01*
X144667544Y-101117493D02*
X144696116Y-101088921D01*
X144696116Y-101088921D02*
X144753259Y-101060350D01*
X144753259Y-101060350D02*
X144896116Y-101060350D01*
X144896116Y-101060350D02*
X144953259Y-101088921D01*
X144953259Y-101088921D02*
X144981830Y-101117493D01*
X144981830Y-101117493D02*
X145010401Y-101174636D01*
X145010401Y-101174636D02*
X145010401Y-101231779D01*
X145010401Y-101231779D02*
X144981830Y-101317493D01*
X144981830Y-101317493D02*
X144638973Y-101660350D01*
X144638973Y-101660350D02*
X145010401Y-101660350D01*
X133310386Y-116486918D02*
X133338958Y-116515490D01*
X133338958Y-116515490D02*
X133367529Y-116601204D01*
X133367529Y-116601204D02*
X133367529Y-116658347D01*
X133367529Y-116658347D02*
X133338958Y-116744061D01*
X133338958Y-116744061D02*
X133281815Y-116801204D01*
X133281815Y-116801204D02*
X133224672Y-116829775D01*
X133224672Y-116829775D02*
X133110386Y-116858347D01*
X133110386Y-116858347D02*
X133024672Y-116858347D01*
X133024672Y-116858347D02*
X132910386Y-116829775D01*
X132910386Y-116829775D02*
X132853243Y-116801204D01*
X132853243Y-116801204D02*
X132796100Y-116744061D01*
X132796100Y-116744061D02*
X132767529Y-116658347D01*
X132767529Y-116658347D02*
X132767529Y-116601204D01*
X132767529Y-116601204D02*
X132796100Y-116515490D01*
X132796100Y-116515490D02*
X132824672Y-116486918D01*
X132767529Y-115944061D02*
X132767529Y-116229775D01*
X132767529Y-116229775D02*
X133053243Y-116258347D01*
X133053243Y-116258347D02*
X133024672Y-116229775D01*
X133024672Y-116229775D02*
X132996100Y-116172633D01*
X132996100Y-116172633D02*
X132996100Y-116029775D01*
X132996100Y-116029775D02*
X133024672Y-115972633D01*
X133024672Y-115972633D02*
X133053243Y-115944061D01*
X133053243Y-115944061D02*
X133110386Y-115915490D01*
X133110386Y-115915490D02*
X133253243Y-115915490D01*
X133253243Y-115915490D02*
X133310386Y-115944061D01*
X133310386Y-115944061D02*
X133338958Y-115972633D01*
X133338958Y-115972633D02*
X133367529Y-116029775D01*
X133367529Y-116029775D02*
X133367529Y-116172633D01*
X133367529Y-116172633D02*
X133338958Y-116229775D01*
X133338958Y-116229775D02*
X133310386Y-116258347D01*
X132767529Y-115544061D02*
X132767529Y-115486918D01*
X132767529Y-115486918D02*
X132796100Y-115429775D01*
X132796100Y-115429775D02*
X132824672Y-115401204D01*
X132824672Y-115401204D02*
X132881815Y-115372632D01*
X132881815Y-115372632D02*
X132996100Y-115344061D01*
X132996100Y-115344061D02*
X133138958Y-115344061D01*
X133138958Y-115344061D02*
X133253243Y-115372632D01*
X133253243Y-115372632D02*
X133310386Y-115401204D01*
X133310386Y-115401204D02*
X133338958Y-115429775D01*
X133338958Y-115429775D02*
X133367529Y-115486918D01*
X133367529Y-115486918D02*
X133367529Y-115544061D01*
X133367529Y-115544061D02*
X133338958Y-115601204D01*
X133338958Y-115601204D02*
X133310386Y-115629775D01*
X133310386Y-115629775D02*
X133253243Y-115658346D01*
X133253243Y-115658346D02*
X133138958Y-115686918D01*
X133138958Y-115686918D02*
X132996100Y-115686918D01*
X132996100Y-115686918D02*
X132881815Y-115658346D01*
X132881815Y-115658346D02*
X132824672Y-115629775D01*
X132824672Y-115629775D02*
X132796100Y-115601204D01*
X132796100Y-115601204D02*
X132767529Y-115544061D01*
X144445693Y-99774726D02*
X144245693Y-99489012D01*
X144102836Y-99774726D02*
X144102836Y-99174726D01*
X144102836Y-99174726D02*
X144331407Y-99174726D01*
X144331407Y-99174726D02*
X144388550Y-99203297D01*
X144388550Y-99203297D02*
X144417121Y-99231869D01*
X144417121Y-99231869D02*
X144445693Y-99289012D01*
X144445693Y-99289012D02*
X144445693Y-99374726D01*
X144445693Y-99374726D02*
X144417121Y-99431869D01*
X144417121Y-99431869D02*
X144388550Y-99460440D01*
X144388550Y-99460440D02*
X144331407Y-99489012D01*
X144331407Y-99489012D02*
X144102836Y-99489012D01*
X144959979Y-99374726D02*
X144959979Y-99774726D01*
X144817121Y-99146155D02*
X144674264Y-99574726D01*
X144674264Y-99574726D02*
X145045693Y-99574726D01*
X146269274Y-103391557D02*
X145983560Y-103591557D01*
X146269274Y-103734414D02*
X145669274Y-103734414D01*
X145669274Y-103734414D02*
X145669274Y-103505843D01*
X145669274Y-103505843D02*
X145697845Y-103448700D01*
X145697845Y-103448700D02*
X145726417Y-103420129D01*
X145726417Y-103420129D02*
X145783560Y-103391557D01*
X145783560Y-103391557D02*
X145869274Y-103391557D01*
X145869274Y-103391557D02*
X145926417Y-103420129D01*
X145926417Y-103420129D02*
X145954988Y-103448700D01*
X145954988Y-103448700D02*
X145983560Y-103505843D01*
X145983560Y-103505843D02*
X145983560Y-103734414D01*
X145926417Y-103048700D02*
X145897845Y-103105843D01*
X145897845Y-103105843D02*
X145869274Y-103134414D01*
X145869274Y-103134414D02*
X145812131Y-103162986D01*
X145812131Y-103162986D02*
X145783560Y-103162986D01*
X145783560Y-103162986D02*
X145726417Y-103134414D01*
X145726417Y-103134414D02*
X145697845Y-103105843D01*
X145697845Y-103105843D02*
X145669274Y-103048700D01*
X145669274Y-103048700D02*
X145669274Y-102934414D01*
X145669274Y-102934414D02*
X145697845Y-102877272D01*
X145697845Y-102877272D02*
X145726417Y-102848700D01*
X145726417Y-102848700D02*
X145783560Y-102820129D01*
X145783560Y-102820129D02*
X145812131Y-102820129D01*
X145812131Y-102820129D02*
X145869274Y-102848700D01*
X145869274Y-102848700D02*
X145897845Y-102877272D01*
X145897845Y-102877272D02*
X145926417Y-102934414D01*
X145926417Y-102934414D02*
X145926417Y-103048700D01*
X145926417Y-103048700D02*
X145954988Y-103105843D01*
X145954988Y-103105843D02*
X145983560Y-103134414D01*
X145983560Y-103134414D02*
X146040703Y-103162986D01*
X146040703Y-103162986D02*
X146154988Y-103162986D01*
X146154988Y-103162986D02*
X146212131Y-103134414D01*
X146212131Y-103134414D02*
X146240703Y-103105843D01*
X146240703Y-103105843D02*
X146269274Y-103048700D01*
X146269274Y-103048700D02*
X146269274Y-102934414D01*
X146269274Y-102934414D02*
X146240703Y-102877272D01*
X146240703Y-102877272D02*
X146212131Y-102848700D01*
X146212131Y-102848700D02*
X146154988Y-102820129D01*
X146154988Y-102820129D02*
X146040703Y-102820129D01*
X146040703Y-102820129D02*
X145983560Y-102848700D01*
X145983560Y-102848700D02*
X145954988Y-102877272D01*
X145954988Y-102877272D02*
X145926417Y-102934414D01*
X131138224Y-116874311D02*
X130852510Y-116874311D01*
X130852510Y-116874311D02*
X130852510Y-116274311D01*
X131595367Y-116474311D02*
X131595367Y-116874311D01*
X131452509Y-116245740D02*
X131309652Y-116674311D01*
X131309652Y-116674311D02*
X131681081Y-116674311D01*
X140763227Y-105325004D02*
X140734655Y-105353576D01*
X140734655Y-105353576D02*
X140648941Y-105382147D01*
X140648941Y-105382147D02*
X140591798Y-105382147D01*
X140591798Y-105382147D02*
X140506084Y-105353576D01*
X140506084Y-105353576D02*
X140448941Y-105296433D01*
X140448941Y-105296433D02*
X140420370Y-105239290D01*
X140420370Y-105239290D02*
X140391798Y-105125004D01*
X140391798Y-105125004D02*
X140391798Y-105039290D01*
X140391798Y-105039290D02*
X140420370Y-104925004D01*
X140420370Y-104925004D02*
X140448941Y-104867861D01*
X140448941Y-104867861D02*
X140506084Y-104810718D01*
X140506084Y-104810718D02*
X140591798Y-104782147D01*
X140591798Y-104782147D02*
X140648941Y-104782147D01*
X140648941Y-104782147D02*
X140734655Y-104810718D01*
X140734655Y-104810718D02*
X140763227Y-104839290D01*
X141334655Y-105382147D02*
X140991798Y-105382147D01*
X141163227Y-105382147D02*
X141163227Y-104782147D01*
X141163227Y-104782147D02*
X141106084Y-104867861D01*
X141106084Y-104867861D02*
X141048941Y-104925004D01*
X141048941Y-104925004D02*
X140991798Y-104953576D01*
X141706084Y-104782147D02*
X141763227Y-104782147D01*
X141763227Y-104782147D02*
X141820370Y-104810718D01*
X141820370Y-104810718D02*
X141848942Y-104839290D01*
X141848942Y-104839290D02*
X141877513Y-104896433D01*
X141877513Y-104896433D02*
X141906084Y-105010718D01*
X141906084Y-105010718D02*
X141906084Y-105153576D01*
X141906084Y-105153576D02*
X141877513Y-105267861D01*
X141877513Y-105267861D02*
X141848942Y-105325004D01*
X141848942Y-105325004D02*
X141820370Y-105353576D01*
X141820370Y-105353576D02*
X141763227Y-105382147D01*
X141763227Y-105382147D02*
X141706084Y-105382147D01*
X141706084Y-105382147D02*
X141648942Y-105353576D01*
X141648942Y-105353576D02*
X141620370Y-105325004D01*
X141620370Y-105325004D02*
X141591799Y-105267861D01*
X141591799Y-105267861D02*
X141563227Y-105153576D01*
X141563227Y-105153576D02*
X141563227Y-105010718D01*
X141563227Y-105010718D02*
X141591799Y-104896433D01*
X141591799Y-104896433D02*
X141620370Y-104839290D01*
X141620370Y-104839290D02*
X141648942Y-104810718D01*
X141648942Y-104810718D02*
X141706084Y-104782147D01*
X136797235Y-113945566D02*
X137297235Y-113612233D01*
X136797235Y-113612233D02*
X137297235Y-113945566D01*
X136797235Y-113493185D02*
X136797235Y-113207471D01*
X137297235Y-113350328D02*
X136797235Y-113350328D01*
X137154378Y-113064614D02*
X137154378Y-112826519D01*
X137297235Y-113112233D02*
X136797235Y-112945567D01*
X136797235Y-112945567D02*
X137297235Y-112778900D01*
X137297235Y-112374139D02*
X137297235Y-112612234D01*
X137297235Y-112612234D02*
X136797235Y-112612234D01*
X137297235Y-111945567D02*
X137297235Y-112231281D01*
X137297235Y-112088424D02*
X136797235Y-112088424D01*
X136797235Y-112088424D02*
X136868664Y-112136043D01*
X136868664Y-112136043D02*
X136916283Y-112183662D01*
X136916283Y-112183662D02*
X136940092Y-112231281D01*
X136116038Y-100150372D02*
X135830324Y-100350372D01*
X136116038Y-100493229D02*
X135516038Y-100493229D01*
X135516038Y-100493229D02*
X135516038Y-100264658D01*
X135516038Y-100264658D02*
X135544609Y-100207515D01*
X135544609Y-100207515D02*
X135573181Y-100178944D01*
X135573181Y-100178944D02*
X135630324Y-100150372D01*
X135630324Y-100150372D02*
X135716038Y-100150372D01*
X135716038Y-100150372D02*
X135773181Y-100178944D01*
X135773181Y-100178944D02*
X135801752Y-100207515D01*
X135801752Y-100207515D02*
X135830324Y-100264658D01*
X135830324Y-100264658D02*
X135830324Y-100493229D01*
X136116038Y-99578944D02*
X136116038Y-99921801D01*
X136116038Y-99750372D02*
X135516038Y-99750372D01*
X135516038Y-99750372D02*
X135601752Y-99807515D01*
X135601752Y-99807515D02*
X135658895Y-99864658D01*
X135658895Y-99864658D02*
X135687467Y-99921801D01*
X135773181Y-99236086D02*
X135744609Y-99293229D01*
X135744609Y-99293229D02*
X135716038Y-99321800D01*
X135716038Y-99321800D02*
X135658895Y-99350372D01*
X135658895Y-99350372D02*
X135630324Y-99350372D01*
X135630324Y-99350372D02*
X135573181Y-99321800D01*
X135573181Y-99321800D02*
X135544609Y-99293229D01*
X135544609Y-99293229D02*
X135516038Y-99236086D01*
X135516038Y-99236086D02*
X135516038Y-99121800D01*
X135516038Y-99121800D02*
X135544609Y-99064658D01*
X135544609Y-99064658D02*
X135573181Y-99036086D01*
X135573181Y-99036086D02*
X135630324Y-99007515D01*
X135630324Y-99007515D02*
X135658895Y-99007515D01*
X135658895Y-99007515D02*
X135716038Y-99036086D01*
X135716038Y-99036086D02*
X135744609Y-99064658D01*
X135744609Y-99064658D02*
X135773181Y-99121800D01*
X135773181Y-99121800D02*
X135773181Y-99236086D01*
X135773181Y-99236086D02*
X135801752Y-99293229D01*
X135801752Y-99293229D02*
X135830324Y-99321800D01*
X135830324Y-99321800D02*
X135887467Y-99350372D01*
X135887467Y-99350372D02*
X136001752Y-99350372D01*
X136001752Y-99350372D02*
X136058895Y-99321800D01*
X136058895Y-99321800D02*
X136087467Y-99293229D01*
X136087467Y-99293229D02*
X136116038Y-99236086D01*
X136116038Y-99236086D02*
X136116038Y-99121800D01*
X136116038Y-99121800D02*
X136087467Y-99064658D01*
X136087467Y-99064658D02*
X136058895Y-99036086D01*
X136058895Y-99036086D02*
X136001752Y-99007515D01*
X136001752Y-99007515D02*
X135887467Y-99007515D01*
X135887467Y-99007515D02*
X135830324Y-99036086D01*
X135830324Y-99036086D02*
X135801752Y-99064658D01*
X135801752Y-99064658D02*
X135773181Y-99121800D01*
X136679802Y-98063618D02*
X136679802Y-98873141D01*
X136679802Y-98873141D02*
X136727421Y-98968379D01*
X136727421Y-98968379D02*
X136775040Y-99015999D01*
X136775040Y-99015999D02*
X136870278Y-99063618D01*
X136870278Y-99063618D02*
X137060754Y-99063618D01*
X137060754Y-99063618D02*
X137155992Y-99015999D01*
X137155992Y-99015999D02*
X137203611Y-98968379D01*
X137203611Y-98968379D02*
X137251230Y-98873141D01*
X137251230Y-98873141D02*
X137251230Y-98063618D01*
X138251230Y-99063618D02*
X137679802Y-99063618D01*
X137965516Y-99063618D02*
X137965516Y-98063618D01*
X137965516Y-98063618D02*
X137870278Y-98206475D01*
X137870278Y-98206475D02*
X137775040Y-98301713D01*
X137775040Y-98301713D02*
X137679802Y-98349332D01*
X138584564Y-98063618D02*
X139203611Y-98063618D01*
X139203611Y-98063618D02*
X138870278Y-98444570D01*
X138870278Y-98444570D02*
X139013135Y-98444570D01*
X139013135Y-98444570D02*
X139108373Y-98492189D01*
X139108373Y-98492189D02*
X139155992Y-98539808D01*
X139155992Y-98539808D02*
X139203611Y-98635046D01*
X139203611Y-98635046D02*
X139203611Y-98873141D01*
X139203611Y-98873141D02*
X139155992Y-98968379D01*
X139155992Y-98968379D02*
X139108373Y-99015999D01*
X139108373Y-99015999D02*
X139013135Y-99063618D01*
X139013135Y-99063618D02*
X138727421Y-99063618D01*
X138727421Y-99063618D02*
X138632183Y-99015999D01*
X138632183Y-99015999D02*
X138584564Y-98968379D01*
X144139025Y-113535230D02*
X144110453Y-113563802D01*
X144110453Y-113563802D02*
X144024739Y-113592373D01*
X144024739Y-113592373D02*
X143967596Y-113592373D01*
X143967596Y-113592373D02*
X143881882Y-113563802D01*
X143881882Y-113563802D02*
X143824739Y-113506659D01*
X143824739Y-113506659D02*
X143796168Y-113449516D01*
X143796168Y-113449516D02*
X143767596Y-113335230D01*
X143767596Y-113335230D02*
X143767596Y-113249516D01*
X143767596Y-113249516D02*
X143796168Y-113135230D01*
X143796168Y-113135230D02*
X143824739Y-113078087D01*
X143824739Y-113078087D02*
X143881882Y-113020944D01*
X143881882Y-113020944D02*
X143967596Y-112992373D01*
X143967596Y-112992373D02*
X144024739Y-112992373D01*
X144024739Y-112992373D02*
X144110453Y-113020944D01*
X144110453Y-113020944D02*
X144139025Y-113049516D01*
X144710453Y-113592373D02*
X144367596Y-113592373D01*
X144539025Y-113592373D02*
X144539025Y-112992373D01*
X144539025Y-112992373D02*
X144481882Y-113078087D01*
X144481882Y-113078087D02*
X144424739Y-113135230D01*
X144424739Y-113135230D02*
X144367596Y-113163802D01*
X144910454Y-112992373D02*
X145281882Y-112992373D01*
X145281882Y-112992373D02*
X145081882Y-113220944D01*
X145081882Y-113220944D02*
X145167597Y-113220944D01*
X145167597Y-113220944D02*
X145224740Y-113249516D01*
X145224740Y-113249516D02*
X145253311Y-113278087D01*
X145253311Y-113278087D02*
X145281882Y-113335230D01*
X145281882Y-113335230D02*
X145281882Y-113478087D01*
X145281882Y-113478087D02*
X145253311Y-113535230D01*
X145253311Y-113535230D02*
X145224740Y-113563802D01*
X145224740Y-113563802D02*
X145167597Y-113592373D01*
X145167597Y-113592373D02*
X144996168Y-113592373D01*
X144996168Y-113592373D02*
X144939025Y-113563802D01*
X144939025Y-113563802D02*
X144910454Y-113535230D01*
X135334162Y-100163190D02*
X135362734Y-100191762D01*
X135362734Y-100191762D02*
X135391305Y-100277476D01*
X135391305Y-100277476D02*
X135391305Y-100334619D01*
X135391305Y-100334619D02*
X135362734Y-100420333D01*
X135362734Y-100420333D02*
X135305591Y-100477476D01*
X135305591Y-100477476D02*
X135248448Y-100506047D01*
X135248448Y-100506047D02*
X135134162Y-100534619D01*
X135134162Y-100534619D02*
X135048448Y-100534619D01*
X135048448Y-100534619D02*
X134934162Y-100506047D01*
X134934162Y-100506047D02*
X134877019Y-100477476D01*
X134877019Y-100477476D02*
X134819876Y-100420333D01*
X134819876Y-100420333D02*
X134791305Y-100334619D01*
X134791305Y-100334619D02*
X134791305Y-100277476D01*
X134791305Y-100277476D02*
X134819876Y-100191762D01*
X134819876Y-100191762D02*
X134848448Y-100163190D01*
X134791305Y-99963190D02*
X134791305Y-99591762D01*
X134791305Y-99591762D02*
X135019876Y-99791762D01*
X135019876Y-99791762D02*
X135019876Y-99706047D01*
X135019876Y-99706047D02*
X135048448Y-99648905D01*
X135048448Y-99648905D02*
X135077019Y-99620333D01*
X135077019Y-99620333D02*
X135134162Y-99591762D01*
X135134162Y-99591762D02*
X135277019Y-99591762D01*
X135277019Y-99591762D02*
X135334162Y-99620333D01*
X135334162Y-99620333D02*
X135362734Y-99648905D01*
X135362734Y-99648905D02*
X135391305Y-99706047D01*
X135391305Y-99706047D02*
X135391305Y-99877476D01*
X135391305Y-99877476D02*
X135362734Y-99934619D01*
X135362734Y-99934619D02*
X135334162Y-99963190D01*
X134791305Y-99077476D02*
X134791305Y-99191761D01*
X134791305Y-99191761D02*
X134819876Y-99248904D01*
X134819876Y-99248904D02*
X134848448Y-99277476D01*
X134848448Y-99277476D02*
X134934162Y-99334618D01*
X134934162Y-99334618D02*
X135048448Y-99363190D01*
X135048448Y-99363190D02*
X135277019Y-99363190D01*
X135277019Y-99363190D02*
X135334162Y-99334618D01*
X135334162Y-99334618D02*
X135362734Y-99306047D01*
X135362734Y-99306047D02*
X135391305Y-99248904D01*
X135391305Y-99248904D02*
X135391305Y-99134618D01*
X135391305Y-99134618D02*
X135362734Y-99077476D01*
X135362734Y-99077476D02*
X135334162Y-99048904D01*
X135334162Y-99048904D02*
X135277019Y-99020333D01*
X135277019Y-99020333D02*
X135134162Y-99020333D01*
X135134162Y-99020333D02*
X135077019Y-99048904D01*
X135077019Y-99048904D02*
X135048448Y-99077476D01*
X135048448Y-99077476D02*
X135019876Y-99134618D01*
X135019876Y-99134618D02*
X135019876Y-99248904D01*
X135019876Y-99248904D02*
X135048448Y-99306047D01*
X135048448Y-99306047D02*
X135077019Y-99334618D01*
X135077019Y-99334618D02*
X135134162Y-99363190D01*
X146227088Y-107283362D02*
X146255660Y-107311934D01*
X146255660Y-107311934D02*
X146284231Y-107397648D01*
X146284231Y-107397648D02*
X146284231Y-107454791D01*
X146284231Y-107454791D02*
X146255660Y-107540505D01*
X146255660Y-107540505D02*
X146198517Y-107597648D01*
X146198517Y-107597648D02*
X146141374Y-107626219D01*
X146141374Y-107626219D02*
X146027088Y-107654791D01*
X146027088Y-107654791D02*
X145941374Y-107654791D01*
X145941374Y-107654791D02*
X145827088Y-107626219D01*
X145827088Y-107626219D02*
X145769945Y-107597648D01*
X145769945Y-107597648D02*
X145712802Y-107540505D01*
X145712802Y-107540505D02*
X145684231Y-107454791D01*
X145684231Y-107454791D02*
X145684231Y-107397648D01*
X145684231Y-107397648D02*
X145712802Y-107311934D01*
X145712802Y-107311934D02*
X145741374Y-107283362D01*
X145741374Y-107054791D02*
X145712802Y-107026219D01*
X145712802Y-107026219D02*
X145684231Y-106969077D01*
X145684231Y-106969077D02*
X145684231Y-106826219D01*
X145684231Y-106826219D02*
X145712802Y-106769077D01*
X145712802Y-106769077D02*
X145741374Y-106740505D01*
X145741374Y-106740505D02*
X145798517Y-106711934D01*
X145798517Y-106711934D02*
X145855660Y-106711934D01*
X145855660Y-106711934D02*
X145941374Y-106740505D01*
X145941374Y-106740505D02*
X146284231Y-107083362D01*
X146284231Y-107083362D02*
X146284231Y-106711934D01*
X146284231Y-106426219D02*
X146284231Y-106311933D01*
X146284231Y-106311933D02*
X146255660Y-106254790D01*
X146255660Y-106254790D02*
X146227088Y-106226219D01*
X146227088Y-106226219D02*
X146141374Y-106169076D01*
X146141374Y-106169076D02*
X146027088Y-106140505D01*
X146027088Y-106140505D02*
X145798517Y-106140505D01*
X145798517Y-106140505D02*
X145741374Y-106169076D01*
X145741374Y-106169076D02*
X145712802Y-106197648D01*
X145712802Y-106197648D02*
X145684231Y-106254790D01*
X145684231Y-106254790D02*
X145684231Y-106369076D01*
X145684231Y-106369076D02*
X145712802Y-106426219D01*
X145712802Y-106426219D02*
X145741374Y-106454790D01*
X145741374Y-106454790D02*
X145798517Y-106483362D01*
X145798517Y-106483362D02*
X145941374Y-106483362D01*
X145941374Y-106483362D02*
X145998517Y-106454790D01*
X145998517Y-106454790D02*
X146027088Y-106426219D01*
X146027088Y-106426219D02*
X146055660Y-106369076D01*
X146055660Y-106369076D02*
X146055660Y-106254790D01*
X146055660Y-106254790D02*
X146027088Y-106197648D01*
X146027088Y-106197648D02*
X145998517Y-106169076D01*
X145998517Y-106169076D02*
X145941374Y-106140505D01*
X140630570Y-106257496D02*
X140659142Y-106286068D01*
X140659142Y-106286068D02*
X140687713Y-106371782D01*
X140687713Y-106371782D02*
X140687713Y-106428925D01*
X140687713Y-106428925D02*
X140659142Y-106514639D01*
X140659142Y-106514639D02*
X140601999Y-106571782D01*
X140601999Y-106571782D02*
X140544856Y-106600353D01*
X140544856Y-106600353D02*
X140430570Y-106628925D01*
X140430570Y-106628925D02*
X140344856Y-106628925D01*
X140344856Y-106628925D02*
X140230570Y-106600353D01*
X140230570Y-106600353D02*
X140173427Y-106571782D01*
X140173427Y-106571782D02*
X140116284Y-106514639D01*
X140116284Y-106514639D02*
X140087713Y-106428925D01*
X140087713Y-106428925D02*
X140087713Y-106371782D01*
X140087713Y-106371782D02*
X140116284Y-106286068D01*
X140116284Y-106286068D02*
X140144856Y-106257496D01*
X140687713Y-105971782D02*
X140687713Y-105857496D01*
X140687713Y-105857496D02*
X140659142Y-105800353D01*
X140659142Y-105800353D02*
X140630570Y-105771782D01*
X140630570Y-105771782D02*
X140544856Y-105714639D01*
X140544856Y-105714639D02*
X140430570Y-105686068D01*
X140430570Y-105686068D02*
X140201999Y-105686068D01*
X140201999Y-105686068D02*
X140144856Y-105714639D01*
X140144856Y-105714639D02*
X140116284Y-105743211D01*
X140116284Y-105743211D02*
X140087713Y-105800353D01*
X140087713Y-105800353D02*
X140087713Y-105914639D01*
X140087713Y-105914639D02*
X140116284Y-105971782D01*
X140116284Y-105971782D02*
X140144856Y-106000353D01*
X140144856Y-106000353D02*
X140201999Y-106028925D01*
X140201999Y-106028925D02*
X140344856Y-106028925D01*
X140344856Y-106028925D02*
X140401999Y-106000353D01*
X140401999Y-106000353D02*
X140430570Y-105971782D01*
X140430570Y-105971782D02*
X140459142Y-105914639D01*
X140459142Y-105914639D02*
X140459142Y-105800353D01*
X140459142Y-105800353D02*
X140430570Y-105743211D01*
X140430570Y-105743211D02*
X140401999Y-105714639D01*
X140401999Y-105714639D02*
X140344856Y-105686068D01*
X145290479Y-109436066D02*
X145261907Y-109464638D01*
X145261907Y-109464638D02*
X145176193Y-109493209D01*
X145176193Y-109493209D02*
X145119050Y-109493209D01*
X145119050Y-109493209D02*
X145033336Y-109464638D01*
X145033336Y-109464638D02*
X144976193Y-109407495D01*
X144976193Y-109407495D02*
X144947622Y-109350352D01*
X144947622Y-109350352D02*
X144919050Y-109236066D01*
X144919050Y-109236066D02*
X144919050Y-109150352D01*
X144919050Y-109150352D02*
X144947622Y-109036066D01*
X144947622Y-109036066D02*
X144976193Y-108978923D01*
X144976193Y-108978923D02*
X145033336Y-108921780D01*
X145033336Y-108921780D02*
X145119050Y-108893209D01*
X145119050Y-108893209D02*
X145176193Y-108893209D01*
X145176193Y-108893209D02*
X145261907Y-108921780D01*
X145261907Y-108921780D02*
X145290479Y-108950352D01*
X145861907Y-109493209D02*
X145519050Y-109493209D01*
X145690479Y-109493209D02*
X145690479Y-108893209D01*
X145690479Y-108893209D02*
X145633336Y-108978923D01*
X145633336Y-108978923D02*
X145576193Y-109036066D01*
X145576193Y-109036066D02*
X145519050Y-109064638D01*
X146090479Y-108950352D02*
X146119051Y-108921780D01*
X146119051Y-108921780D02*
X146176194Y-108893209D01*
X146176194Y-108893209D02*
X146319051Y-108893209D01*
X146319051Y-108893209D02*
X146376194Y-108921780D01*
X146376194Y-108921780D02*
X146404765Y-108950352D01*
X146404765Y-108950352D02*
X146433336Y-109007495D01*
X146433336Y-109007495D02*
X146433336Y-109064638D01*
X146433336Y-109064638D02*
X146404765Y-109150352D01*
X146404765Y-109150352D02*
X146061908Y-109493209D01*
X146061908Y-109493209D02*
X146433336Y-109493209D01*
X152114711Y-109065110D02*
X152086139Y-109093682D01*
X152086139Y-109093682D02*
X152000425Y-109122253D01*
X152000425Y-109122253D02*
X151943282Y-109122253D01*
X151943282Y-109122253D02*
X151857568Y-109093682D01*
X151857568Y-109093682D02*
X151800425Y-109036539D01*
X151800425Y-109036539D02*
X151771854Y-108979396D01*
X151771854Y-108979396D02*
X151743282Y-108865110D01*
X151743282Y-108865110D02*
X151743282Y-108779396D01*
X151743282Y-108779396D02*
X151771854Y-108665110D01*
X151771854Y-108665110D02*
X151800425Y-108607967D01*
X151800425Y-108607967D02*
X151857568Y-108550824D01*
X151857568Y-108550824D02*
X151943282Y-108522253D01*
X151943282Y-108522253D02*
X152000425Y-108522253D01*
X152000425Y-108522253D02*
X152086139Y-108550824D01*
X152086139Y-108550824D02*
X152114711Y-108579396D01*
X152314711Y-108522253D02*
X152686139Y-108522253D01*
X152686139Y-108522253D02*
X152486139Y-108750824D01*
X152486139Y-108750824D02*
X152571854Y-108750824D01*
X152571854Y-108750824D02*
X152628997Y-108779396D01*
X152628997Y-108779396D02*
X152657568Y-108807967D01*
X152657568Y-108807967D02*
X152686139Y-108865110D01*
X152686139Y-108865110D02*
X152686139Y-109007967D01*
X152686139Y-109007967D02*
X152657568Y-109065110D01*
X152657568Y-109065110D02*
X152628997Y-109093682D01*
X152628997Y-109093682D02*
X152571854Y-109122253D01*
X152571854Y-109122253D02*
X152400425Y-109122253D01*
X152400425Y-109122253D02*
X152343282Y-109093682D01*
X152343282Y-109093682D02*
X152314711Y-109065110D01*
X152886140Y-108522253D02*
X153286140Y-108522253D01*
X153286140Y-108522253D02*
X153028997Y-109122253D01*
X148243147Y-99771750D02*
X148271719Y-99800322D01*
X148271719Y-99800322D02*
X148300290Y-99886036D01*
X148300290Y-99886036D02*
X148300290Y-99943179D01*
X148300290Y-99943179D02*
X148271719Y-100028893D01*
X148271719Y-100028893D02*
X148214576Y-100086036D01*
X148214576Y-100086036D02*
X148157433Y-100114607D01*
X148157433Y-100114607D02*
X148043147Y-100143179D01*
X148043147Y-100143179D02*
X147957433Y-100143179D01*
X147957433Y-100143179D02*
X147843147Y-100114607D01*
X147843147Y-100114607D02*
X147786004Y-100086036D01*
X147786004Y-100086036D02*
X147728861Y-100028893D01*
X147728861Y-100028893D02*
X147700290Y-99943179D01*
X147700290Y-99943179D02*
X147700290Y-99886036D01*
X147700290Y-99886036D02*
X147728861Y-99800322D01*
X147728861Y-99800322D02*
X147757433Y-99771750D01*
X147757433Y-99543179D02*
X147728861Y-99514607D01*
X147728861Y-99514607D02*
X147700290Y-99457465D01*
X147700290Y-99457465D02*
X147700290Y-99314607D01*
X147700290Y-99314607D02*
X147728861Y-99257465D01*
X147728861Y-99257465D02*
X147757433Y-99228893D01*
X147757433Y-99228893D02*
X147814576Y-99200322D01*
X147814576Y-99200322D02*
X147871719Y-99200322D01*
X147871719Y-99200322D02*
X147957433Y-99228893D01*
X147957433Y-99228893D02*
X148300290Y-99571750D01*
X148300290Y-99571750D02*
X148300290Y-99200322D01*
X147900290Y-98686036D02*
X148300290Y-98686036D01*
X147671719Y-98828893D02*
X148100290Y-98971750D01*
X148100290Y-98971750D02*
X148100290Y-98600321D01*
X141532164Y-100551430D02*
X141532164Y-100051430D01*
X141532164Y-100051430D02*
X141651212Y-100051430D01*
X141651212Y-100051430D02*
X141722640Y-100075240D01*
X141722640Y-100075240D02*
X141770259Y-100122859D01*
X141770259Y-100122859D02*
X141794069Y-100170478D01*
X141794069Y-100170478D02*
X141817878Y-100265716D01*
X141817878Y-100265716D02*
X141817878Y-100337144D01*
X141817878Y-100337144D02*
X141794069Y-100432382D01*
X141794069Y-100432382D02*
X141770259Y-100480001D01*
X141770259Y-100480001D02*
X141722640Y-100527621D01*
X141722640Y-100527621D02*
X141651212Y-100551430D01*
X141651212Y-100551430D02*
X141532164Y-100551430D01*
X142294069Y-100551430D02*
X142008355Y-100551430D01*
X142151212Y-100551430D02*
X142151212Y-100051430D01*
X142151212Y-100051430D02*
X142103593Y-100122859D01*
X142103593Y-100122859D02*
X142055974Y-100170478D01*
X142055974Y-100170478D02*
X142008355Y-100194287D01*
X149444980Y-107120533D02*
X149244980Y-106834819D01*
X149102123Y-107120533D02*
X149102123Y-106520533D01*
X149102123Y-106520533D02*
X149330694Y-106520533D01*
X149330694Y-106520533D02*
X149387837Y-106549104D01*
X149387837Y-106549104D02*
X149416408Y-106577676D01*
X149416408Y-106577676D02*
X149444980Y-106634819D01*
X149444980Y-106634819D02*
X149444980Y-106720533D01*
X149444980Y-106720533D02*
X149416408Y-106777676D01*
X149416408Y-106777676D02*
X149387837Y-106806247D01*
X149387837Y-106806247D02*
X149330694Y-106834819D01*
X149330694Y-106834819D02*
X149102123Y-106834819D01*
X150016408Y-107120533D02*
X149673551Y-107120533D01*
X149844980Y-107120533D02*
X149844980Y-106520533D01*
X149844980Y-106520533D02*
X149787837Y-106606247D01*
X149787837Y-106606247D02*
X149730694Y-106663390D01*
X149730694Y-106663390D02*
X149673551Y-106691962D01*
X150244980Y-106577676D02*
X150273552Y-106549104D01*
X150273552Y-106549104D02*
X150330695Y-106520533D01*
X150330695Y-106520533D02*
X150473552Y-106520533D01*
X150473552Y-106520533D02*
X150530695Y-106549104D01*
X150530695Y-106549104D02*
X150559266Y-106577676D01*
X150559266Y-106577676D02*
X150587837Y-106634819D01*
X150587837Y-106634819D02*
X150587837Y-106691962D01*
X150587837Y-106691962D02*
X150559266Y-106777676D01*
X150559266Y-106777676D02*
X150216409Y-107120533D01*
X150216409Y-107120533D02*
X150587837Y-107120533D01*
X144387956Y-102327539D02*
X144187956Y-102041825D01*
X144045099Y-102327539D02*
X144045099Y-101727539D01*
X144045099Y-101727539D02*
X144273670Y-101727539D01*
X144273670Y-101727539D02*
X144330813Y-101756110D01*
X144330813Y-101756110D02*
X144359384Y-101784682D01*
X144359384Y-101784682D02*
X144387956Y-101841825D01*
X144387956Y-101841825D02*
X144387956Y-101927539D01*
X144387956Y-101927539D02*
X144359384Y-101984682D01*
X144359384Y-101984682D02*
X144330813Y-102013253D01*
X144330813Y-102013253D02*
X144273670Y-102041825D01*
X144273670Y-102041825D02*
X144045099Y-102041825D01*
X144587956Y-101727539D02*
X144959384Y-101727539D01*
X144959384Y-101727539D02*
X144759384Y-101956110D01*
X144759384Y-101956110D02*
X144845099Y-101956110D01*
X144845099Y-101956110D02*
X144902242Y-101984682D01*
X144902242Y-101984682D02*
X144930813Y-102013253D01*
X144930813Y-102013253D02*
X144959384Y-102070396D01*
X144959384Y-102070396D02*
X144959384Y-102213253D01*
X144959384Y-102213253D02*
X144930813Y-102270396D01*
X144930813Y-102270396D02*
X144902242Y-102298968D01*
X144902242Y-102298968D02*
X144845099Y-102327539D01*
X144845099Y-102327539D02*
X144673670Y-102327539D01*
X144673670Y-102327539D02*
X144616527Y-102298968D01*
X144616527Y-102298968D02*
X144587956Y-102270396D01*
X149438005Y-106497684D02*
X149409433Y-106526256D01*
X149409433Y-106526256D02*
X149323719Y-106554827D01*
X149323719Y-106554827D02*
X149266576Y-106554827D01*
X149266576Y-106554827D02*
X149180862Y-106526256D01*
X149180862Y-106526256D02*
X149123719Y-106469113D01*
X149123719Y-106469113D02*
X149095148Y-106411970D01*
X149095148Y-106411970D02*
X149066576Y-106297684D01*
X149066576Y-106297684D02*
X149066576Y-106211970D01*
X149066576Y-106211970D02*
X149095148Y-106097684D01*
X149095148Y-106097684D02*
X149123719Y-106040541D01*
X149123719Y-106040541D02*
X149180862Y-105983398D01*
X149180862Y-105983398D02*
X149266576Y-105954827D01*
X149266576Y-105954827D02*
X149323719Y-105954827D01*
X149323719Y-105954827D02*
X149409433Y-105983398D01*
X149409433Y-105983398D02*
X149438005Y-106011970D01*
X149666576Y-106011970D02*
X149695148Y-105983398D01*
X149695148Y-105983398D02*
X149752291Y-105954827D01*
X149752291Y-105954827D02*
X149895148Y-105954827D01*
X149895148Y-105954827D02*
X149952291Y-105983398D01*
X149952291Y-105983398D02*
X149980862Y-106011970D01*
X149980862Y-106011970D02*
X150009433Y-106069113D01*
X150009433Y-106069113D02*
X150009433Y-106126256D01*
X150009433Y-106126256D02*
X149980862Y-106211970D01*
X149980862Y-106211970D02*
X149638005Y-106554827D01*
X149638005Y-106554827D02*
X150009433Y-106554827D01*
X150352291Y-106211970D02*
X150295148Y-106183398D01*
X150295148Y-106183398D02*
X150266577Y-106154827D01*
X150266577Y-106154827D02*
X150238005Y-106097684D01*
X150238005Y-106097684D02*
X150238005Y-106069113D01*
X150238005Y-106069113D02*
X150266577Y-106011970D01*
X150266577Y-106011970D02*
X150295148Y-105983398D01*
X150295148Y-105983398D02*
X150352291Y-105954827D01*
X150352291Y-105954827D02*
X150466577Y-105954827D01*
X150466577Y-105954827D02*
X150523720Y-105983398D01*
X150523720Y-105983398D02*
X150552291Y-106011970D01*
X150552291Y-106011970D02*
X150580862Y-106069113D01*
X150580862Y-106069113D02*
X150580862Y-106097684D01*
X150580862Y-106097684D02*
X150552291Y-106154827D01*
X150552291Y-106154827D02*
X150523720Y-106183398D01*
X150523720Y-106183398D02*
X150466577Y-106211970D01*
X150466577Y-106211970D02*
X150352291Y-106211970D01*
X150352291Y-106211970D02*
X150295148Y-106240541D01*
X150295148Y-106240541D02*
X150266577Y-106269113D01*
X150266577Y-106269113D02*
X150238005Y-106326256D01*
X150238005Y-106326256D02*
X150238005Y-106440541D01*
X150238005Y-106440541D02*
X150266577Y-106497684D01*
X150266577Y-106497684D02*
X150295148Y-106526256D01*
X150295148Y-106526256D02*
X150352291Y-106554827D01*
X150352291Y-106554827D02*
X150466577Y-106554827D01*
X150466577Y-106554827D02*
X150523720Y-106526256D01*
X150523720Y-106526256D02*
X150552291Y-106497684D01*
X150552291Y-106497684D02*
X150580862Y-106440541D01*
X150580862Y-106440541D02*
X150580862Y-106326256D01*
X150580862Y-106326256D02*
X150552291Y-106269113D01*
X150552291Y-106269113D02*
X150523720Y-106240541D01*
X150523720Y-106240541D02*
X150466577Y-106211970D01*
X134652319Y-107946115D02*
X135461842Y-107946115D01*
X135461842Y-107946115D02*
X135557080Y-107898496D01*
X135557080Y-107898496D02*
X135604700Y-107850877D01*
X135604700Y-107850877D02*
X135652319Y-107755639D01*
X135652319Y-107755639D02*
X135652319Y-107565163D01*
X135652319Y-107565163D02*
X135604700Y-107469925D01*
X135604700Y-107469925D02*
X135557080Y-107422306D01*
X135557080Y-107422306D02*
X135461842Y-107374687D01*
X135461842Y-107374687D02*
X134652319Y-107374687D01*
X135652319Y-106374687D02*
X135652319Y-106946115D01*
X135652319Y-106660401D02*
X134652319Y-106660401D01*
X134652319Y-106660401D02*
X134795176Y-106755639D01*
X134795176Y-106755639D02*
X134890414Y-106850877D01*
X134890414Y-106850877D02*
X134938033Y-106946115D01*
X134652319Y-105469925D02*
X134652319Y-105946115D01*
X134652319Y-105946115D02*
X135128509Y-105993734D01*
X135128509Y-105993734D02*
X135080890Y-105946115D01*
X135080890Y-105946115D02*
X135033271Y-105850877D01*
X135033271Y-105850877D02*
X135033271Y-105612782D01*
X135033271Y-105612782D02*
X135080890Y-105517544D01*
X135080890Y-105517544D02*
X135128509Y-105469925D01*
X135128509Y-105469925D02*
X135223747Y-105422306D01*
X135223747Y-105422306D02*
X135461842Y-105422306D01*
X135461842Y-105422306D02*
X135557080Y-105469925D01*
X135557080Y-105469925D02*
X135604700Y-105517544D01*
X135604700Y-105517544D02*
X135652319Y-105612782D01*
X135652319Y-105612782D02*
X135652319Y-105850877D01*
X135652319Y-105850877D02*
X135604700Y-105946115D01*
X135604700Y-105946115D02*
X135557080Y-105993734D01*
X149430161Y-107158711D02*
X149401589Y-107187283D01*
X149401589Y-107187283D02*
X149315875Y-107215854D01*
X149315875Y-107215854D02*
X149258732Y-107215854D01*
X149258732Y-107215854D02*
X149173018Y-107187283D01*
X149173018Y-107187283D02*
X149115875Y-107130140D01*
X149115875Y-107130140D02*
X149087304Y-107072997D01*
X149087304Y-107072997D02*
X149058732Y-106958711D01*
X149058732Y-106958711D02*
X149058732Y-106872997D01*
X149058732Y-106872997D02*
X149087304Y-106758711D01*
X149087304Y-106758711D02*
X149115875Y-106701568D01*
X149115875Y-106701568D02*
X149173018Y-106644425D01*
X149173018Y-106644425D02*
X149258732Y-106615854D01*
X149258732Y-106615854D02*
X149315875Y-106615854D01*
X149315875Y-106615854D02*
X149401589Y-106644425D01*
X149401589Y-106644425D02*
X149430161Y-106672997D01*
X149658732Y-106672997D02*
X149687304Y-106644425D01*
X149687304Y-106644425D02*
X149744447Y-106615854D01*
X149744447Y-106615854D02*
X149887304Y-106615854D01*
X149887304Y-106615854D02*
X149944447Y-106644425D01*
X149944447Y-106644425D02*
X149973018Y-106672997D01*
X149973018Y-106672997D02*
X150001589Y-106730140D01*
X150001589Y-106730140D02*
X150001589Y-106787283D01*
X150001589Y-106787283D02*
X149973018Y-106872997D01*
X149973018Y-106872997D02*
X149630161Y-107215854D01*
X149630161Y-107215854D02*
X150001589Y-107215854D01*
X150201590Y-106615854D02*
X150601590Y-106615854D01*
X150601590Y-106615854D02*
X150344447Y-107215854D01*
X149430452Y-106463571D02*
X149230452Y-106177857D01*
X149087595Y-106463571D02*
X149087595Y-105863571D01*
X149087595Y-105863571D02*
X149316166Y-105863571D01*
X149316166Y-105863571D02*
X149373309Y-105892142D01*
X149373309Y-105892142D02*
X149401880Y-105920714D01*
X149401880Y-105920714D02*
X149430452Y-105977857D01*
X149430452Y-105977857D02*
X149430452Y-106063571D01*
X149430452Y-106063571D02*
X149401880Y-106120714D01*
X149401880Y-106120714D02*
X149373309Y-106149285D01*
X149373309Y-106149285D02*
X149316166Y-106177857D01*
X149316166Y-106177857D02*
X149087595Y-106177857D01*
X150001880Y-106463571D02*
X149659023Y-106463571D01*
X149830452Y-106463571D02*
X149830452Y-105863571D01*
X149830452Y-105863571D02*
X149773309Y-105949285D01*
X149773309Y-105949285D02*
X149716166Y-106006428D01*
X149716166Y-106006428D02*
X149659023Y-106035000D01*
X150201881Y-105863571D02*
X150573309Y-105863571D01*
X150573309Y-105863571D02*
X150373309Y-106092142D01*
X150373309Y-106092142D02*
X150459024Y-106092142D01*
X150459024Y-106092142D02*
X150516167Y-106120714D01*
X150516167Y-106120714D02*
X150544738Y-106149285D01*
X150544738Y-106149285D02*
X150573309Y-106206428D01*
X150573309Y-106206428D02*
X150573309Y-106349285D01*
X150573309Y-106349285D02*
X150544738Y-106406428D01*
X150544738Y-106406428D02*
X150516167Y-106435000D01*
X150516167Y-106435000D02*
X150459024Y-106463571D01*
X150459024Y-106463571D02*
X150287595Y-106463571D01*
X150287595Y-106463571D02*
X150230452Y-106435000D01*
X150230452Y-106435000D02*
X150201881Y-106406428D01*
X144652319Y-107946115D02*
X145461842Y-107946115D01*
X145461842Y-107946115D02*
X145557080Y-107898496D01*
X145557080Y-107898496D02*
X145604700Y-107850877D01*
X145604700Y-107850877D02*
X145652319Y-107755639D01*
X145652319Y-107755639D02*
X145652319Y-107565163D01*
X145652319Y-107565163D02*
X145604700Y-107469925D01*
X145604700Y-107469925D02*
X145557080Y-107422306D01*
X145557080Y-107422306D02*
X145461842Y-107374687D01*
X145461842Y-107374687D02*
X144652319Y-107374687D01*
X145652319Y-106374687D02*
X145652319Y-106946115D01*
X145652319Y-106660401D02*
X144652319Y-106660401D01*
X144652319Y-106660401D02*
X144795176Y-106755639D01*
X144795176Y-106755639D02*
X144890414Y-106850877D01*
X144890414Y-106850877D02*
X144938033Y-106946115D01*
X144652319Y-105517544D02*
X144652319Y-105708020D01*
X144652319Y-105708020D02*
X144699938Y-105803258D01*
X144699938Y-105803258D02*
X144747557Y-105850877D01*
X144747557Y-105850877D02*
X144890414Y-105946115D01*
X144890414Y-105946115D02*
X145080890Y-105993734D01*
X145080890Y-105993734D02*
X145461842Y-105993734D01*
X145461842Y-105993734D02*
X145557080Y-105946115D01*
X145557080Y-105946115D02*
X145604700Y-105898496D01*
X145604700Y-105898496D02*
X145652319Y-105803258D01*
X145652319Y-105803258D02*
X145652319Y-105612782D01*
X145652319Y-105612782D02*
X145604700Y-105517544D01*
X145604700Y-105517544D02*
X145557080Y-105469925D01*
X145557080Y-105469925D02*
X145461842Y-105422306D01*
X145461842Y-105422306D02*
X145223747Y-105422306D01*
X145223747Y-105422306D02*
X145128509Y-105469925D01*
X145128509Y-105469925D02*
X145080890Y-105517544D01*
X145080890Y-105517544D02*
X145033271Y-105612782D01*
X145033271Y-105612782D02*
X145033271Y-105803258D01*
X145033271Y-105803258D02*
X145080890Y-105898496D01*
X145080890Y-105898496D02*
X145128509Y-105946115D01*
X145128509Y-105946115D02*
X145223747Y-105993734D01*
X137447003Y-100524459D02*
X137418431Y-100553031D01*
X137418431Y-100553031D02*
X137332717Y-100581602D01*
X137332717Y-100581602D02*
X137275574Y-100581602D01*
X137275574Y-100581602D02*
X137189860Y-100553031D01*
X137189860Y-100553031D02*
X137132717Y-100495888D01*
X137132717Y-100495888D02*
X137104146Y-100438745D01*
X137104146Y-100438745D02*
X137075574Y-100324459D01*
X137075574Y-100324459D02*
X137075574Y-100238745D01*
X137075574Y-100238745D02*
X137104146Y-100124459D01*
X137104146Y-100124459D02*
X137132717Y-100067316D01*
X137132717Y-100067316D02*
X137189860Y-100010173D01*
X137189860Y-100010173D02*
X137275574Y-99981602D01*
X137275574Y-99981602D02*
X137332717Y-99981602D01*
X137332717Y-99981602D02*
X137418431Y-100010173D01*
X137418431Y-100010173D02*
X137447003Y-100038745D01*
X137675574Y-100038745D02*
X137704146Y-100010173D01*
X137704146Y-100010173D02*
X137761289Y-99981602D01*
X137761289Y-99981602D02*
X137904146Y-99981602D01*
X137904146Y-99981602D02*
X137961289Y-100010173D01*
X137961289Y-100010173D02*
X137989860Y-100038745D01*
X137989860Y-100038745D02*
X138018431Y-100095888D01*
X138018431Y-100095888D02*
X138018431Y-100153031D01*
X138018431Y-100153031D02*
X137989860Y-100238745D01*
X137989860Y-100238745D02*
X137647003Y-100581602D01*
X137647003Y-100581602D02*
X138018431Y-100581602D01*
X138561289Y-99981602D02*
X138275575Y-99981602D01*
X138275575Y-99981602D02*
X138247003Y-100267316D01*
X138247003Y-100267316D02*
X138275575Y-100238745D01*
X138275575Y-100238745D02*
X138332718Y-100210173D01*
X138332718Y-100210173D02*
X138475575Y-100210173D01*
X138475575Y-100210173D02*
X138532718Y-100238745D01*
X138532718Y-100238745D02*
X138561289Y-100267316D01*
X138561289Y-100267316D02*
X138589860Y-100324459D01*
X138589860Y-100324459D02*
X138589860Y-100467316D01*
X138589860Y-100467316D02*
X138561289Y-100524459D01*
X138561289Y-100524459D02*
X138532718Y-100553031D01*
X138532718Y-100553031D02*
X138475575Y-100581602D01*
X138475575Y-100581602D02*
X138332718Y-100581602D01*
X138332718Y-100581602D02*
X138275575Y-100553031D01*
X138275575Y-100553031D02*
X138247003Y-100524459D01*
X144990338Y-99719950D02*
X144704624Y-99919950D01*
X144990338Y-100062807D02*
X144390338Y-100062807D01*
X144390338Y-100062807D02*
X144390338Y-99834236D01*
X144390338Y-99834236D02*
X144418909Y-99777093D01*
X144418909Y-99777093D02*
X144447481Y-99748522D01*
X144447481Y-99748522D02*
X144504624Y-99719950D01*
X144504624Y-99719950D02*
X144590338Y-99719950D01*
X144590338Y-99719950D02*
X144647481Y-99748522D01*
X144647481Y-99748522D02*
X144676052Y-99777093D01*
X144676052Y-99777093D02*
X144704624Y-99834236D01*
X144704624Y-99834236D02*
X144704624Y-100062807D01*
X144390338Y-99519950D02*
X144390338Y-99119950D01*
X144390338Y-99119950D02*
X144990338Y-99377093D01*
X144361376Y-102994804D02*
X144161376Y-102709090D01*
X144018519Y-102994804D02*
X144018519Y-102394804D01*
X144018519Y-102394804D02*
X144247090Y-102394804D01*
X144247090Y-102394804D02*
X144304233Y-102423375D01*
X144304233Y-102423375D02*
X144332804Y-102451947D01*
X144332804Y-102451947D02*
X144361376Y-102509090D01*
X144361376Y-102509090D02*
X144361376Y-102594804D01*
X144361376Y-102594804D02*
X144332804Y-102651947D01*
X144332804Y-102651947D02*
X144304233Y-102680518D01*
X144304233Y-102680518D02*
X144247090Y-102709090D01*
X144247090Y-102709090D02*
X144018519Y-102709090D01*
X144904233Y-102394804D02*
X144618519Y-102394804D01*
X144618519Y-102394804D02*
X144589947Y-102680518D01*
X144589947Y-102680518D02*
X144618519Y-102651947D01*
X144618519Y-102651947D02*
X144675662Y-102623375D01*
X144675662Y-102623375D02*
X144818519Y-102623375D01*
X144818519Y-102623375D02*
X144875662Y-102651947D01*
X144875662Y-102651947D02*
X144904233Y-102680518D01*
X144904233Y-102680518D02*
X144932804Y-102737661D01*
X144932804Y-102737661D02*
X144932804Y-102880518D01*
X144932804Y-102880518D02*
X144904233Y-102937661D01*
X144904233Y-102937661D02*
X144875662Y-102966233D01*
X144875662Y-102966233D02*
X144818519Y-102994804D01*
X144818519Y-102994804D02*
X144675662Y-102994804D01*
X144675662Y-102994804D02*
X144618519Y-102966233D01*
X144618519Y-102966233D02*
X144589947Y-102937661D01*
X152158561Y-104905591D02*
X152129989Y-104934163D01*
X152129989Y-104934163D02*
X152044275Y-104962734D01*
X152044275Y-104962734D02*
X151987132Y-104962734D01*
X151987132Y-104962734D02*
X151901418Y-104934163D01*
X151901418Y-104934163D02*
X151844275Y-104877020D01*
X151844275Y-104877020D02*
X151815704Y-104819877D01*
X151815704Y-104819877D02*
X151787132Y-104705591D01*
X151787132Y-104705591D02*
X151787132Y-104619877D01*
X151787132Y-104619877D02*
X151815704Y-104505591D01*
X151815704Y-104505591D02*
X151844275Y-104448448D01*
X151844275Y-104448448D02*
X151901418Y-104391305D01*
X151901418Y-104391305D02*
X151987132Y-104362734D01*
X151987132Y-104362734D02*
X152044275Y-104362734D01*
X152044275Y-104362734D02*
X152129989Y-104391305D01*
X152129989Y-104391305D02*
X152158561Y-104419877D01*
X152387132Y-104419877D02*
X152415704Y-104391305D01*
X152415704Y-104391305D02*
X152472847Y-104362734D01*
X152472847Y-104362734D02*
X152615704Y-104362734D01*
X152615704Y-104362734D02*
X152672847Y-104391305D01*
X152672847Y-104391305D02*
X152701418Y-104419877D01*
X152701418Y-104419877D02*
X152729989Y-104477020D01*
X152729989Y-104477020D02*
X152729989Y-104534163D01*
X152729989Y-104534163D02*
X152701418Y-104619877D01*
X152701418Y-104619877D02*
X152358561Y-104962734D01*
X152358561Y-104962734D02*
X152729989Y-104962734D01*
X153244276Y-104362734D02*
X153129990Y-104362734D01*
X153129990Y-104362734D02*
X153072847Y-104391305D01*
X153072847Y-104391305D02*
X153044276Y-104419877D01*
X153044276Y-104419877D02*
X152987133Y-104505591D01*
X152987133Y-104505591D02*
X152958561Y-104619877D01*
X152958561Y-104619877D02*
X152958561Y-104848448D01*
X152958561Y-104848448D02*
X152987133Y-104905591D01*
X152987133Y-104905591D02*
X153015704Y-104934163D01*
X153015704Y-104934163D02*
X153072847Y-104962734D01*
X153072847Y-104962734D02*
X153187133Y-104962734D01*
X153187133Y-104962734D02*
X153244276Y-104934163D01*
X153244276Y-104934163D02*
X153272847Y-104905591D01*
X153272847Y-104905591D02*
X153301418Y-104848448D01*
X153301418Y-104848448D02*
X153301418Y-104705591D01*
X153301418Y-104705591D02*
X153272847Y-104648448D01*
X153272847Y-104648448D02*
X153244276Y-104619877D01*
X153244276Y-104619877D02*
X153187133Y-104591305D01*
X153187133Y-104591305D02*
X153072847Y-104591305D01*
X153072847Y-104591305D02*
X153015704Y-104619877D01*
X153015704Y-104619877D02*
X152987133Y-104648448D01*
X152987133Y-104648448D02*
X152958561Y-104705591D01*
X124652319Y-107946115D02*
X125461842Y-107946115D01*
X125461842Y-107946115D02*
X125557080Y-107898496D01*
X125557080Y-107898496D02*
X125604700Y-107850877D01*
X125604700Y-107850877D02*
X125652319Y-107755639D01*
X125652319Y-107755639D02*
X125652319Y-107565163D01*
X125652319Y-107565163D02*
X125604700Y-107469925D01*
X125604700Y-107469925D02*
X125557080Y-107422306D01*
X125557080Y-107422306D02*
X125461842Y-107374687D01*
X125461842Y-107374687D02*
X124652319Y-107374687D01*
X125652319Y-106374687D02*
X125652319Y-106946115D01*
X125652319Y-106660401D02*
X124652319Y-106660401D01*
X124652319Y-106660401D02*
X124795176Y-106755639D01*
X124795176Y-106755639D02*
X124890414Y-106850877D01*
X124890414Y-106850877D02*
X124938033Y-106946115D01*
X124985652Y-105517544D02*
X125652319Y-105517544D01*
X124604700Y-105755639D02*
X125318985Y-105993734D01*
X125318985Y-105993734D02*
X125318985Y-105374687D01*
X152163529Y-106875418D02*
X152134957Y-106903990D01*
X152134957Y-106903990D02*
X152049243Y-106932561D01*
X152049243Y-106932561D02*
X151992100Y-106932561D01*
X151992100Y-106932561D02*
X151906386Y-106903990D01*
X151906386Y-106903990D02*
X151849243Y-106846847D01*
X151849243Y-106846847D02*
X151820672Y-106789704D01*
X151820672Y-106789704D02*
X151792100Y-106675418D01*
X151792100Y-106675418D02*
X151792100Y-106589704D01*
X151792100Y-106589704D02*
X151820672Y-106475418D01*
X151820672Y-106475418D02*
X151849243Y-106418275D01*
X151849243Y-106418275D02*
X151906386Y-106361132D01*
X151906386Y-106361132D02*
X151992100Y-106332561D01*
X151992100Y-106332561D02*
X152049243Y-106332561D01*
X152049243Y-106332561D02*
X152134957Y-106361132D01*
X152134957Y-106361132D02*
X152163529Y-106389704D01*
X152363529Y-106332561D02*
X152734957Y-106332561D01*
X152734957Y-106332561D02*
X152534957Y-106561132D01*
X152534957Y-106561132D02*
X152620672Y-106561132D01*
X152620672Y-106561132D02*
X152677815Y-106589704D01*
X152677815Y-106589704D02*
X152706386Y-106618275D01*
X152706386Y-106618275D02*
X152734957Y-106675418D01*
X152734957Y-106675418D02*
X152734957Y-106818275D01*
X152734957Y-106818275D02*
X152706386Y-106875418D01*
X152706386Y-106875418D02*
X152677815Y-106903990D01*
X152677815Y-106903990D02*
X152620672Y-106932561D01*
X152620672Y-106932561D02*
X152449243Y-106932561D01*
X152449243Y-106932561D02*
X152392100Y-106903990D01*
X152392100Y-106903990D02*
X152363529Y-106875418D01*
X153106386Y-106332561D02*
X153163529Y-106332561D01*
X153163529Y-106332561D02*
X153220672Y-106361132D01*
X153220672Y-106361132D02*
X153249244Y-106389704D01*
X153249244Y-106389704D02*
X153277815Y-106446847D01*
X153277815Y-106446847D02*
X153306386Y-106561132D01*
X153306386Y-106561132D02*
X153306386Y-106703990D01*
X153306386Y-106703990D02*
X153277815Y-106818275D01*
X153277815Y-106818275D02*
X153249244Y-106875418D01*
X153249244Y-106875418D02*
X153220672Y-106903990D01*
X153220672Y-106903990D02*
X153163529Y-106932561D01*
X153163529Y-106932561D02*
X153106386Y-106932561D01*
X153106386Y-106932561D02*
X153049244Y-106903990D01*
X153049244Y-106903990D02*
X153020672Y-106875418D01*
X153020672Y-106875418D02*
X152992101Y-106818275D01*
X152992101Y-106818275D02*
X152963529Y-106703990D01*
X152963529Y-106703990D02*
X152963529Y-106561132D01*
X152963529Y-106561132D02*
X152992101Y-106446847D01*
X152992101Y-106446847D02*
X153020672Y-106389704D01*
X153020672Y-106389704D02*
X153049244Y-106361132D01*
X153049244Y-106361132D02*
X153106386Y-106332561D01*
X152155466Y-106224797D02*
X152126894Y-106253369D01*
X152126894Y-106253369D02*
X152041180Y-106281940D01*
X152041180Y-106281940D02*
X151984037Y-106281940D01*
X151984037Y-106281940D02*
X151898323Y-106253369D01*
X151898323Y-106253369D02*
X151841180Y-106196226D01*
X151841180Y-106196226D02*
X151812609Y-106139083D01*
X151812609Y-106139083D02*
X151784037Y-106024797D01*
X151784037Y-106024797D02*
X151784037Y-105939083D01*
X151784037Y-105939083D02*
X151812609Y-105824797D01*
X151812609Y-105824797D02*
X151841180Y-105767654D01*
X151841180Y-105767654D02*
X151898323Y-105710511D01*
X151898323Y-105710511D02*
X151984037Y-105681940D01*
X151984037Y-105681940D02*
X152041180Y-105681940D01*
X152041180Y-105681940D02*
X152126894Y-105710511D01*
X152126894Y-105710511D02*
X152155466Y-105739083D01*
X152355466Y-105681940D02*
X152726894Y-105681940D01*
X152726894Y-105681940D02*
X152526894Y-105910511D01*
X152526894Y-105910511D02*
X152612609Y-105910511D01*
X152612609Y-105910511D02*
X152669752Y-105939083D01*
X152669752Y-105939083D02*
X152698323Y-105967654D01*
X152698323Y-105967654D02*
X152726894Y-106024797D01*
X152726894Y-106024797D02*
X152726894Y-106167654D01*
X152726894Y-106167654D02*
X152698323Y-106224797D01*
X152698323Y-106224797D02*
X152669752Y-106253369D01*
X152669752Y-106253369D02*
X152612609Y-106281940D01*
X152612609Y-106281940D02*
X152441180Y-106281940D01*
X152441180Y-106281940D02*
X152384037Y-106253369D01*
X152384037Y-106253369D02*
X152355466Y-106224797D01*
X153012609Y-106281940D02*
X153126895Y-106281940D01*
X153126895Y-106281940D02*
X153184038Y-106253369D01*
X153184038Y-106253369D02*
X153212609Y-106224797D01*
X153212609Y-106224797D02*
X153269752Y-106139083D01*
X153269752Y-106139083D02*
X153298323Y-106024797D01*
X153298323Y-106024797D02*
X153298323Y-105796226D01*
X153298323Y-105796226D02*
X153269752Y-105739083D01*
X153269752Y-105739083D02*
X153241181Y-105710511D01*
X153241181Y-105710511D02*
X153184038Y-105681940D01*
X153184038Y-105681940D02*
X153069752Y-105681940D01*
X153069752Y-105681940D02*
X153012609Y-105710511D01*
X153012609Y-105710511D02*
X152984038Y-105739083D01*
X152984038Y-105739083D02*
X152955466Y-105796226D01*
X152955466Y-105796226D02*
X152955466Y-105939083D01*
X152955466Y-105939083D02*
X152984038Y-105996226D01*
X152984038Y-105996226D02*
X153012609Y-106024797D01*
X153012609Y-106024797D02*
X153069752Y-106053369D01*
X153069752Y-106053369D02*
X153184038Y-106053369D01*
X153184038Y-106053369D02*
X153241181Y-106024797D01*
X153241181Y-106024797D02*
X153269752Y-105996226D01*
X153269752Y-105996226D02*
X153298323Y-105939083D01*
X133694483Y-109449344D02*
X134504006Y-109449344D01*
X134504006Y-109449344D02*
X134599244Y-109401725D01*
X134599244Y-109401725D02*
X134646864Y-109354106D01*
X134646864Y-109354106D02*
X134694483Y-109258868D01*
X134694483Y-109258868D02*
X134694483Y-109068392D01*
X134694483Y-109068392D02*
X134646864Y-108973154D01*
X134646864Y-108973154D02*
X134599244Y-108925535D01*
X134599244Y-108925535D02*
X134504006Y-108877916D01*
X134504006Y-108877916D02*
X133694483Y-108877916D01*
X134694483Y-108354106D02*
X134694483Y-108163630D01*
X134694483Y-108163630D02*
X134646864Y-108068392D01*
X134646864Y-108068392D02*
X134599244Y-108020773D01*
X134599244Y-108020773D02*
X134456387Y-107925535D01*
X134456387Y-107925535D02*
X134265911Y-107877916D01*
X134265911Y-107877916D02*
X133884959Y-107877916D01*
X133884959Y-107877916D02*
X133789721Y-107925535D01*
X133789721Y-107925535D02*
X133742102Y-107973154D01*
X133742102Y-107973154D02*
X133694483Y-108068392D01*
X133694483Y-108068392D02*
X133694483Y-108258868D01*
X133694483Y-108258868D02*
X133742102Y-108354106D01*
X133742102Y-108354106D02*
X133789721Y-108401725D01*
X133789721Y-108401725D02*
X133884959Y-108449344D01*
X133884959Y-108449344D02*
X134123054Y-108449344D01*
X134123054Y-108449344D02*
X134218292Y-108401725D01*
X134218292Y-108401725D02*
X134265911Y-108354106D01*
X134265911Y-108354106D02*
X134313530Y-108258868D01*
X134313530Y-108258868D02*
X134313530Y-108068392D01*
X134313530Y-108068392D02*
X134265911Y-107973154D01*
X134265911Y-107973154D02*
X134218292Y-107925535D01*
X134218292Y-107925535D02*
X134123054Y-107877916D01*
X148080000Y-102071115D02*
X148687143Y-102071115D01*
X148687143Y-102071115D02*
X148758571Y-102035401D01*
X148758571Y-102035401D02*
X148794286Y-101999687D01*
X148794286Y-101999687D02*
X148830000Y-101928258D01*
X148830000Y-101928258D02*
X148830000Y-101785401D01*
X148830000Y-101785401D02*
X148794286Y-101713972D01*
X148794286Y-101713972D02*
X148758571Y-101678258D01*
X148758571Y-101678258D02*
X148687143Y-101642544D01*
X148687143Y-101642544D02*
X148080000Y-101642544D01*
X148080000Y-101356830D02*
X148080000Y-100892544D01*
X148080000Y-100892544D02*
X148365714Y-101142544D01*
X148365714Y-101142544D02*
X148365714Y-101035401D01*
X148365714Y-101035401D02*
X148401428Y-100963973D01*
X148401428Y-100963973D02*
X148437143Y-100928258D01*
X148437143Y-100928258D02*
X148508571Y-100892544D01*
X148508571Y-100892544D02*
X148687143Y-100892544D01*
X148687143Y-100892544D02*
X148758571Y-100928258D01*
X148758571Y-100928258D02*
X148794286Y-100963973D01*
X148794286Y-100963973D02*
X148830000Y-101035401D01*
X148830000Y-101035401D02*
X148830000Y-101249687D01*
X148830000Y-101249687D02*
X148794286Y-101321115D01*
X148794286Y-101321115D02*
X148758571Y-101356830D01*
X133670623Y-101847599D02*
X134075385Y-101847599D01*
X134075385Y-101847599D02*
X134123004Y-101823789D01*
X134123004Y-101823789D02*
X134146814Y-101799980D01*
X134146814Y-101799980D02*
X134170623Y-101752361D01*
X134170623Y-101752361D02*
X134170623Y-101657123D01*
X134170623Y-101657123D02*
X134146814Y-101609504D01*
X134146814Y-101609504D02*
X134123004Y-101585694D01*
X134123004Y-101585694D02*
X134075385Y-101561885D01*
X134075385Y-101561885D02*
X133670623Y-101561885D01*
X133670623Y-101371408D02*
X133670623Y-101038075D01*
X133670623Y-101038075D02*
X134170623Y-101252360D01*
X151918990Y-110222330D02*
X151890418Y-110250902D01*
X151890418Y-110250902D02*
X151804704Y-110279473D01*
X151804704Y-110279473D02*
X151747561Y-110279473D01*
X151747561Y-110279473D02*
X151661847Y-110250902D01*
X151661847Y-110250902D02*
X151604704Y-110193759D01*
X151604704Y-110193759D02*
X151576133Y-110136616D01*
X151576133Y-110136616D02*
X151547561Y-110022330D01*
X151547561Y-110022330D02*
X151547561Y-109936616D01*
X151547561Y-109936616D02*
X151576133Y-109822330D01*
X151576133Y-109822330D02*
X151604704Y-109765187D01*
X151604704Y-109765187D02*
X151661847Y-109708044D01*
X151661847Y-109708044D02*
X151747561Y-109679473D01*
X151747561Y-109679473D02*
X151804704Y-109679473D01*
X151804704Y-109679473D02*
X151890418Y-109708044D01*
X151890418Y-109708044D02*
X151918990Y-109736616D01*
X152118990Y-109679473D02*
X152490418Y-109679473D01*
X152490418Y-109679473D02*
X152290418Y-109908044D01*
X152290418Y-109908044D02*
X152376133Y-109908044D01*
X152376133Y-109908044D02*
X152433276Y-109936616D01*
X152433276Y-109936616D02*
X152461847Y-109965187D01*
X152461847Y-109965187D02*
X152490418Y-110022330D01*
X152490418Y-110022330D02*
X152490418Y-110165187D01*
X152490418Y-110165187D02*
X152461847Y-110222330D01*
X152461847Y-110222330D02*
X152433276Y-110250902D01*
X152433276Y-110250902D02*
X152376133Y-110279473D01*
X152376133Y-110279473D02*
X152204704Y-110279473D01*
X152204704Y-110279473D02*
X152147561Y-110250902D01*
X152147561Y-110250902D02*
X152118990Y-110222330D01*
X152833276Y-109936616D02*
X152776133Y-109908044D01*
X152776133Y-109908044D02*
X152747562Y-109879473D01*
X152747562Y-109879473D02*
X152718990Y-109822330D01*
X152718990Y-109822330D02*
X152718990Y-109793759D01*
X152718990Y-109793759D02*
X152747562Y-109736616D01*
X152747562Y-109736616D02*
X152776133Y-109708044D01*
X152776133Y-109708044D02*
X152833276Y-109679473D01*
X152833276Y-109679473D02*
X152947562Y-109679473D01*
X152947562Y-109679473D02*
X153004705Y-109708044D01*
X153004705Y-109708044D02*
X153033276Y-109736616D01*
X153033276Y-109736616D02*
X153061847Y-109793759D01*
X153061847Y-109793759D02*
X153061847Y-109822330D01*
X153061847Y-109822330D02*
X153033276Y-109879473D01*
X153033276Y-109879473D02*
X153004705Y-109908044D01*
X153004705Y-109908044D02*
X152947562Y-109936616D01*
X152947562Y-109936616D02*
X152833276Y-109936616D01*
X152833276Y-109936616D02*
X152776133Y-109965187D01*
X152776133Y-109965187D02*
X152747562Y-109993759D01*
X152747562Y-109993759D02*
X152718990Y-110050902D01*
X152718990Y-110050902D02*
X152718990Y-110165187D01*
X152718990Y-110165187D02*
X152747562Y-110222330D01*
X152747562Y-110222330D02*
X152776133Y-110250902D01*
X152776133Y-110250902D02*
X152833276Y-110279473D01*
X152833276Y-110279473D02*
X152947562Y-110279473D01*
X152947562Y-110279473D02*
X153004705Y-110250902D01*
X153004705Y-110250902D02*
X153033276Y-110222330D01*
X153033276Y-110222330D02*
X153061847Y-110165187D01*
X153061847Y-110165187D02*
X153061847Y-110050902D01*
X153061847Y-110050902D02*
X153033276Y-109993759D01*
X153033276Y-109993759D02*
X153004705Y-109965187D01*
X153004705Y-109965187D02*
X152947562Y-109936616D01*
X146553884Y-111969419D02*
X146553884Y-112778942D01*
X146553884Y-112778942D02*
X146601503Y-112874180D01*
X146601503Y-112874180D02*
X146649122Y-112921800D01*
X146649122Y-112921800D02*
X146744360Y-112969419D01*
X146744360Y-112969419D02*
X146934836Y-112969419D01*
X146934836Y-112969419D02*
X147030074Y-112921800D01*
X147030074Y-112921800D02*
X147077693Y-112874180D01*
X147077693Y-112874180D02*
X147125312Y-112778942D01*
X147125312Y-112778942D02*
X147125312Y-111969419D01*
X148077693Y-111969419D02*
X147601503Y-111969419D01*
X147601503Y-111969419D02*
X147553884Y-112445609D01*
X147553884Y-112445609D02*
X147601503Y-112397990D01*
X147601503Y-112397990D02*
X147696741Y-112350371D01*
X147696741Y-112350371D02*
X147934836Y-112350371D01*
X147934836Y-112350371D02*
X148030074Y-112397990D01*
X148030074Y-112397990D02*
X148077693Y-112445609D01*
X148077693Y-112445609D02*
X148125312Y-112540847D01*
X148125312Y-112540847D02*
X148125312Y-112778942D01*
X148125312Y-112778942D02*
X148077693Y-112874180D01*
X148077693Y-112874180D02*
X148030074Y-112921800D01*
X148030074Y-112921800D02*
X147934836Y-112969419D01*
X147934836Y-112969419D02*
X147696741Y-112969419D01*
X147696741Y-112969419D02*
X147601503Y-112921800D01*
X147601503Y-112921800D02*
X147553884Y-112874180D01*
X140098677Y-107914679D02*
X140127249Y-107943251D01*
X140127249Y-107943251D02*
X140155820Y-108028965D01*
X140155820Y-108028965D02*
X140155820Y-108086108D01*
X140155820Y-108086108D02*
X140127249Y-108171822D01*
X140127249Y-108171822D02*
X140070106Y-108228965D01*
X140070106Y-108228965D02*
X140012963Y-108257536D01*
X140012963Y-108257536D02*
X139898677Y-108286108D01*
X139898677Y-108286108D02*
X139812963Y-108286108D01*
X139812963Y-108286108D02*
X139698677Y-108257536D01*
X139698677Y-108257536D02*
X139641534Y-108228965D01*
X139641534Y-108228965D02*
X139584391Y-108171822D01*
X139584391Y-108171822D02*
X139555820Y-108086108D01*
X139555820Y-108086108D02*
X139555820Y-108028965D01*
X139555820Y-108028965D02*
X139584391Y-107943251D01*
X139584391Y-107943251D02*
X139612963Y-107914679D01*
X139555820Y-107714679D02*
X139555820Y-107314679D01*
X139555820Y-107314679D02*
X140155820Y-107571822D01*
X152147903Y-105569679D02*
X152119331Y-105598251D01*
X152119331Y-105598251D02*
X152033617Y-105626822D01*
X152033617Y-105626822D02*
X151976474Y-105626822D01*
X151976474Y-105626822D02*
X151890760Y-105598251D01*
X151890760Y-105598251D02*
X151833617Y-105541108D01*
X151833617Y-105541108D02*
X151805046Y-105483965D01*
X151805046Y-105483965D02*
X151776474Y-105369679D01*
X151776474Y-105369679D02*
X151776474Y-105283965D01*
X151776474Y-105283965D02*
X151805046Y-105169679D01*
X151805046Y-105169679D02*
X151833617Y-105112536D01*
X151833617Y-105112536D02*
X151890760Y-105055393D01*
X151890760Y-105055393D02*
X151976474Y-105026822D01*
X151976474Y-105026822D02*
X152033617Y-105026822D01*
X152033617Y-105026822D02*
X152119331Y-105055393D01*
X152119331Y-105055393D02*
X152147903Y-105083965D01*
X152347903Y-105026822D02*
X152719331Y-105026822D01*
X152719331Y-105026822D02*
X152519331Y-105255393D01*
X152519331Y-105255393D02*
X152605046Y-105255393D01*
X152605046Y-105255393D02*
X152662189Y-105283965D01*
X152662189Y-105283965D02*
X152690760Y-105312536D01*
X152690760Y-105312536D02*
X152719331Y-105369679D01*
X152719331Y-105369679D02*
X152719331Y-105512536D01*
X152719331Y-105512536D02*
X152690760Y-105569679D01*
X152690760Y-105569679D02*
X152662189Y-105598251D01*
X152662189Y-105598251D02*
X152605046Y-105626822D01*
X152605046Y-105626822D02*
X152433617Y-105626822D01*
X152433617Y-105626822D02*
X152376474Y-105598251D01*
X152376474Y-105598251D02*
X152347903Y-105569679D01*
X153290760Y-105626822D02*
X152947903Y-105626822D01*
X153119332Y-105626822D02*
X153119332Y-105026822D01*
X153119332Y-105026822D02*
X153062189Y-105112536D01*
X153062189Y-105112536D02*
X153005046Y-105169679D01*
X153005046Y-105169679D02*
X152947903Y-105198251D01*
X152126497Y-108394142D02*
X152097925Y-108422714D01*
X152097925Y-108422714D02*
X152012211Y-108451285D01*
X152012211Y-108451285D02*
X151955068Y-108451285D01*
X151955068Y-108451285D02*
X151869354Y-108422714D01*
X151869354Y-108422714D02*
X151812211Y-108365571D01*
X151812211Y-108365571D02*
X151783640Y-108308428D01*
X151783640Y-108308428D02*
X151755068Y-108194142D01*
X151755068Y-108194142D02*
X151755068Y-108108428D01*
X151755068Y-108108428D02*
X151783640Y-107994142D01*
X151783640Y-107994142D02*
X151812211Y-107936999D01*
X151812211Y-107936999D02*
X151869354Y-107879856D01*
X151869354Y-107879856D02*
X151955068Y-107851285D01*
X151955068Y-107851285D02*
X152012211Y-107851285D01*
X152012211Y-107851285D02*
X152097925Y-107879856D01*
X152097925Y-107879856D02*
X152126497Y-107908428D01*
X152326497Y-107851285D02*
X152697925Y-107851285D01*
X152697925Y-107851285D02*
X152497925Y-108079856D01*
X152497925Y-108079856D02*
X152583640Y-108079856D01*
X152583640Y-108079856D02*
X152640783Y-108108428D01*
X152640783Y-108108428D02*
X152669354Y-108136999D01*
X152669354Y-108136999D02*
X152697925Y-108194142D01*
X152697925Y-108194142D02*
X152697925Y-108336999D01*
X152697925Y-108336999D02*
X152669354Y-108394142D01*
X152669354Y-108394142D02*
X152640783Y-108422714D01*
X152640783Y-108422714D02*
X152583640Y-108451285D01*
X152583640Y-108451285D02*
X152412211Y-108451285D01*
X152412211Y-108451285D02*
X152355068Y-108422714D01*
X152355068Y-108422714D02*
X152326497Y-108394142D01*
X152926497Y-107908428D02*
X152955069Y-107879856D01*
X152955069Y-107879856D02*
X153012212Y-107851285D01*
X153012212Y-107851285D02*
X153155069Y-107851285D01*
X153155069Y-107851285D02*
X153212212Y-107879856D01*
X153212212Y-107879856D02*
X153240783Y-107908428D01*
X153240783Y-107908428D02*
X153269354Y-107965571D01*
X153269354Y-107965571D02*
X153269354Y-108022714D01*
X153269354Y-108022714D02*
X153240783Y-108108428D01*
X153240783Y-108108428D02*
X152897926Y-108451285D01*
X152897926Y-108451285D02*
X153269354Y-108451285D01*
X141048596Y-107894859D02*
X141077168Y-107923431D01*
X141077168Y-107923431D02*
X141105739Y-108009145D01*
X141105739Y-108009145D02*
X141105739Y-108066288D01*
X141105739Y-108066288D02*
X141077168Y-108152002D01*
X141077168Y-108152002D02*
X141020025Y-108209145D01*
X141020025Y-108209145D02*
X140962882Y-108237716D01*
X140962882Y-108237716D02*
X140848596Y-108266288D01*
X140848596Y-108266288D02*
X140762882Y-108266288D01*
X140762882Y-108266288D02*
X140648596Y-108237716D01*
X140648596Y-108237716D02*
X140591453Y-108209145D01*
X140591453Y-108209145D02*
X140534310Y-108152002D01*
X140534310Y-108152002D02*
X140505739Y-108066288D01*
X140505739Y-108066288D02*
X140505739Y-108009145D01*
X140505739Y-108009145D02*
X140534310Y-107923431D01*
X140534310Y-107923431D02*
X140562882Y-107894859D01*
X140762882Y-107552002D02*
X140734310Y-107609145D01*
X140734310Y-107609145D02*
X140705739Y-107637716D01*
X140705739Y-107637716D02*
X140648596Y-107666288D01*
X140648596Y-107666288D02*
X140620025Y-107666288D01*
X140620025Y-107666288D02*
X140562882Y-107637716D01*
X140562882Y-107637716D02*
X140534310Y-107609145D01*
X140534310Y-107609145D02*
X140505739Y-107552002D01*
X140505739Y-107552002D02*
X140505739Y-107437716D01*
X140505739Y-107437716D02*
X140534310Y-107380574D01*
X140534310Y-107380574D02*
X140562882Y-107352002D01*
X140562882Y-107352002D02*
X140620025Y-107323431D01*
X140620025Y-107323431D02*
X140648596Y-107323431D01*
X140648596Y-107323431D02*
X140705739Y-107352002D01*
X140705739Y-107352002D02*
X140734310Y-107380574D01*
X140734310Y-107380574D02*
X140762882Y-107437716D01*
X140762882Y-107437716D02*
X140762882Y-107552002D01*
X140762882Y-107552002D02*
X140791453Y-107609145D01*
X140791453Y-107609145D02*
X140820025Y-107637716D01*
X140820025Y-107637716D02*
X140877168Y-107666288D01*
X140877168Y-107666288D02*
X140991453Y-107666288D01*
X140991453Y-107666288D02*
X141048596Y-107637716D01*
X141048596Y-107637716D02*
X141077168Y-107609145D01*
X141077168Y-107609145D02*
X141105739Y-107552002D01*
X141105739Y-107552002D02*
X141105739Y-107437716D01*
X141105739Y-107437716D02*
X141077168Y-107380574D01*
X141077168Y-107380574D02*
X141048596Y-107352002D01*
X141048596Y-107352002D02*
X140991453Y-107323431D01*
X140991453Y-107323431D02*
X140877168Y-107323431D01*
X140877168Y-107323431D02*
X140820025Y-107352002D01*
X140820025Y-107352002D02*
X140791453Y-107380574D01*
X140791453Y-107380574D02*
X140762882Y-107437716D01*
X145500645Y-113752097D02*
X145472073Y-113780669D01*
X145472073Y-113780669D02*
X145386359Y-113809240D01*
X145386359Y-113809240D02*
X145329216Y-113809240D01*
X145329216Y-113809240D02*
X145243502Y-113780669D01*
X145243502Y-113780669D02*
X145186359Y-113723526D01*
X145186359Y-113723526D02*
X145157788Y-113666383D01*
X145157788Y-113666383D02*
X145129216Y-113552097D01*
X145129216Y-113552097D02*
X145129216Y-113466383D01*
X145129216Y-113466383D02*
X145157788Y-113352097D01*
X145157788Y-113352097D02*
X145186359Y-113294954D01*
X145186359Y-113294954D02*
X145243502Y-113237811D01*
X145243502Y-113237811D02*
X145329216Y-113209240D01*
X145329216Y-113209240D02*
X145386359Y-113209240D01*
X145386359Y-113209240D02*
X145472073Y-113237811D01*
X145472073Y-113237811D02*
X145500645Y-113266383D01*
X146014931Y-113209240D02*
X145900645Y-113209240D01*
X145900645Y-113209240D02*
X145843502Y-113237811D01*
X145843502Y-113237811D02*
X145814931Y-113266383D01*
X145814931Y-113266383D02*
X145757788Y-113352097D01*
X145757788Y-113352097D02*
X145729216Y-113466383D01*
X145729216Y-113466383D02*
X145729216Y-113694954D01*
X145729216Y-113694954D02*
X145757788Y-113752097D01*
X145757788Y-113752097D02*
X145786359Y-113780669D01*
X145786359Y-113780669D02*
X145843502Y-113809240D01*
X145843502Y-113809240D02*
X145957788Y-113809240D01*
X145957788Y-113809240D02*
X146014931Y-113780669D01*
X146014931Y-113780669D02*
X146043502Y-113752097D01*
X146043502Y-113752097D02*
X146072073Y-113694954D01*
X146072073Y-113694954D02*
X146072073Y-113552097D01*
X146072073Y-113552097D02*
X146043502Y-113494954D01*
X146043502Y-113494954D02*
X146014931Y-113466383D01*
X146014931Y-113466383D02*
X145957788Y-113437811D01*
X145957788Y-113437811D02*
X145843502Y-113437811D01*
X145843502Y-113437811D02*
X145786359Y-113466383D01*
X145786359Y-113466383D02*
X145757788Y-113494954D01*
X145757788Y-113494954D02*
X145729216Y-113552097D01*
X143390701Y-113960084D02*
X143362129Y-113988656D01*
X143362129Y-113988656D02*
X143276415Y-114017227D01*
X143276415Y-114017227D02*
X143219272Y-114017227D01*
X143219272Y-114017227D02*
X143133558Y-113988656D01*
X143133558Y-113988656D02*
X143076415Y-113931513D01*
X143076415Y-113931513D02*
X143047844Y-113874370D01*
X143047844Y-113874370D02*
X143019272Y-113760084D01*
X143019272Y-113760084D02*
X143019272Y-113674370D01*
X143019272Y-113674370D02*
X143047844Y-113560084D01*
X143047844Y-113560084D02*
X143076415Y-113502941D01*
X143076415Y-113502941D02*
X143133558Y-113445798D01*
X143133558Y-113445798D02*
X143219272Y-113417227D01*
X143219272Y-113417227D02*
X143276415Y-113417227D01*
X143276415Y-113417227D02*
X143362129Y-113445798D01*
X143362129Y-113445798D02*
X143390701Y-113474370D01*
X143933558Y-113417227D02*
X143647844Y-113417227D01*
X143647844Y-113417227D02*
X143619272Y-113702941D01*
X143619272Y-113702941D02*
X143647844Y-113674370D01*
X143647844Y-113674370D02*
X143704987Y-113645798D01*
X143704987Y-113645798D02*
X143847844Y-113645798D01*
X143847844Y-113645798D02*
X143904987Y-113674370D01*
X143904987Y-113674370D02*
X143933558Y-113702941D01*
X143933558Y-113702941D02*
X143962129Y-113760084D01*
X143962129Y-113760084D02*
X143962129Y-113902941D01*
X143962129Y-113902941D02*
X143933558Y-113960084D01*
X143933558Y-113960084D02*
X143904987Y-113988656D01*
X143904987Y-113988656D02*
X143847844Y-114017227D01*
X143847844Y-114017227D02*
X143704987Y-114017227D01*
X143704987Y-114017227D02*
X143647844Y-113988656D01*
X143647844Y-113988656D02*
X143619272Y-113960084D01*
X132754787Y-108153154D02*
X132554787Y-107867440D01*
X132411930Y-108153154D02*
X132411930Y-107553154D01*
X132411930Y-107553154D02*
X132640501Y-107553154D01*
X132640501Y-107553154D02*
X132697644Y-107581725D01*
X132697644Y-107581725D02*
X132726215Y-107610297D01*
X132726215Y-107610297D02*
X132754787Y-107667440D01*
X132754787Y-107667440D02*
X132754787Y-107753154D01*
X132754787Y-107753154D02*
X132726215Y-107810297D01*
X132726215Y-107810297D02*
X132697644Y-107838868D01*
X132697644Y-107838868D02*
X132640501Y-107867440D01*
X132640501Y-107867440D02*
X132411930Y-107867440D01*
X133326215Y-108153154D02*
X132983358Y-108153154D01*
X133154787Y-108153154D02*
X133154787Y-107553154D01*
X133154787Y-107553154D02*
X133097644Y-107638868D01*
X133097644Y-107638868D02*
X133040501Y-107696011D01*
X133040501Y-107696011D02*
X132983358Y-107724583D01*
X133840502Y-107753154D02*
X133840502Y-108153154D01*
X133697644Y-107524583D02*
X133554787Y-107953154D01*
X133554787Y-107953154D02*
X133926216Y-107953154D01*
X146562463Y-103699074D02*
X146591035Y-103727646D01*
X146591035Y-103727646D02*
X146619606Y-103813360D01*
X146619606Y-103813360D02*
X146619606Y-103870503D01*
X146619606Y-103870503D02*
X146591035Y-103956217D01*
X146591035Y-103956217D02*
X146533892Y-104013360D01*
X146533892Y-104013360D02*
X146476749Y-104041931D01*
X146476749Y-104041931D02*
X146362463Y-104070503D01*
X146362463Y-104070503D02*
X146276749Y-104070503D01*
X146276749Y-104070503D02*
X146162463Y-104041931D01*
X146162463Y-104041931D02*
X146105320Y-104013360D01*
X146105320Y-104013360D02*
X146048177Y-103956217D01*
X146048177Y-103956217D02*
X146019606Y-103870503D01*
X146019606Y-103870503D02*
X146019606Y-103813360D01*
X146019606Y-103813360D02*
X146048177Y-103727646D01*
X146048177Y-103727646D02*
X146076749Y-103699074D01*
X146619606Y-103127646D02*
X146619606Y-103470503D01*
X146619606Y-103299074D02*
X146019606Y-103299074D01*
X146019606Y-103299074D02*
X146105320Y-103356217D01*
X146105320Y-103356217D02*
X146162463Y-103413360D01*
X146162463Y-103413360D02*
X146191035Y-103470503D01*
X146219606Y-102613360D02*
X146619606Y-102613360D01*
X145991035Y-102756217D02*
X146419606Y-102899074D01*
X146419606Y-102899074D02*
X146419606Y-102527645D01*
X145507477Y-111217295D02*
X145478905Y-111245867D01*
X145478905Y-111245867D02*
X145393191Y-111274438D01*
X145393191Y-111274438D02*
X145336048Y-111274438D01*
X145336048Y-111274438D02*
X145250334Y-111245867D01*
X145250334Y-111245867D02*
X145193191Y-111188724D01*
X145193191Y-111188724D02*
X145164620Y-111131581D01*
X145164620Y-111131581D02*
X145136048Y-111017295D01*
X145136048Y-111017295D02*
X145136048Y-110931581D01*
X145136048Y-110931581D02*
X145164620Y-110817295D01*
X145164620Y-110817295D02*
X145193191Y-110760152D01*
X145193191Y-110760152D02*
X145250334Y-110703009D01*
X145250334Y-110703009D02*
X145336048Y-110674438D01*
X145336048Y-110674438D02*
X145393191Y-110674438D01*
X145393191Y-110674438D02*
X145478905Y-110703009D01*
X145478905Y-110703009D02*
X145507477Y-110731581D01*
X146021763Y-110874438D02*
X146021763Y-111274438D01*
X145878905Y-110645867D02*
X145736048Y-111074438D01*
X145736048Y-111074438D02*
X146107477Y-111074438D01*
X132758366Y-108806693D02*
X132558366Y-108520979D01*
X132415509Y-108806693D02*
X132415509Y-108206693D01*
X132415509Y-108206693D02*
X132644080Y-108206693D01*
X132644080Y-108206693D02*
X132701223Y-108235264D01*
X132701223Y-108235264D02*
X132729794Y-108263836D01*
X132729794Y-108263836D02*
X132758366Y-108320979D01*
X132758366Y-108320979D02*
X132758366Y-108406693D01*
X132758366Y-108406693D02*
X132729794Y-108463836D01*
X132729794Y-108463836D02*
X132701223Y-108492407D01*
X132701223Y-108492407D02*
X132644080Y-108520979D01*
X132644080Y-108520979D02*
X132415509Y-108520979D01*
X133329794Y-108806693D02*
X132986937Y-108806693D01*
X133158366Y-108806693D02*
X133158366Y-108206693D01*
X133158366Y-108206693D02*
X133101223Y-108292407D01*
X133101223Y-108292407D02*
X133044080Y-108349550D01*
X133044080Y-108349550D02*
X132986937Y-108378122D01*
X133872652Y-108206693D02*
X133586938Y-108206693D01*
X133586938Y-108206693D02*
X133558366Y-108492407D01*
X133558366Y-108492407D02*
X133586938Y-108463836D01*
X133586938Y-108463836D02*
X133644081Y-108435264D01*
X133644081Y-108435264D02*
X133786938Y-108435264D01*
X133786938Y-108435264D02*
X133844081Y-108463836D01*
X133844081Y-108463836D02*
X133872652Y-108492407D01*
X133872652Y-108492407D02*
X133901223Y-108549550D01*
X133901223Y-108549550D02*
X133901223Y-108692407D01*
X133901223Y-108692407D02*
X133872652Y-108749550D01*
X133872652Y-108749550D02*
X133844081Y-108778122D01*
X133844081Y-108778122D02*
X133786938Y-108806693D01*
X133786938Y-108806693D02*
X133644081Y-108806693D01*
X133644081Y-108806693D02*
X133586938Y-108778122D01*
X133586938Y-108778122D02*
X133558366Y-108749550D01*
X128902918Y-109904995D02*
X128874346Y-109933567D01*
X128874346Y-109933567D02*
X128788632Y-109962138D01*
X128788632Y-109962138D02*
X128731489Y-109962138D01*
X128731489Y-109962138D02*
X128645775Y-109933567D01*
X128645775Y-109933567D02*
X128588632Y-109876424D01*
X128588632Y-109876424D02*
X128560061Y-109819281D01*
X128560061Y-109819281D02*
X128531489Y-109704995D01*
X128531489Y-109704995D02*
X128531489Y-109619281D01*
X128531489Y-109619281D02*
X128560061Y-109504995D01*
X128560061Y-109504995D02*
X128588632Y-109447852D01*
X128588632Y-109447852D02*
X128645775Y-109390709D01*
X128645775Y-109390709D02*
X128731489Y-109362138D01*
X128731489Y-109362138D02*
X128788632Y-109362138D01*
X128788632Y-109362138D02*
X128874346Y-109390709D01*
X128874346Y-109390709D02*
X128902918Y-109419281D01*
X129417204Y-109562138D02*
X129417204Y-109962138D01*
X129274346Y-109333567D02*
X129131489Y-109762138D01*
X129131489Y-109762138D02*
X129502918Y-109762138D01*
X129702918Y-109419281D02*
X129731490Y-109390709D01*
X129731490Y-109390709D02*
X129788633Y-109362138D01*
X129788633Y-109362138D02*
X129931490Y-109362138D01*
X129931490Y-109362138D02*
X129988633Y-109390709D01*
X129988633Y-109390709D02*
X130017204Y-109419281D01*
X130017204Y-109419281D02*
X130045775Y-109476424D01*
X130045775Y-109476424D02*
X130045775Y-109533567D01*
X130045775Y-109533567D02*
X130017204Y-109619281D01*
X130017204Y-109619281D02*
X129674347Y-109962138D01*
X129674347Y-109962138D02*
X130045775Y-109962138D01*
%TO.C,U2*%
G36*
X143182077Y-114120757D02*
G01*
X143200836Y-114126448D01*
X143218125Y-114135689D01*
X143233279Y-114148125D01*
X143245715Y-114163279D01*
X143254956Y-114180568D01*
X143260647Y-114199327D01*
X143262568Y-114218836D01*
X143260647Y-114238345D01*
X143254956Y-114257104D01*
X143245715Y-114274393D01*
X143233279Y-114289547D01*
X143218125Y-114301983D01*
X143200836Y-114311224D01*
X143182077Y-114316915D01*
X143162568Y-114318836D01*
X143143059Y-114316915D01*
X143124300Y-114311224D01*
X143107011Y-114301983D01*
X143091857Y-114289547D01*
X143079421Y-114274393D01*
X143070180Y-114257104D01*
X143064489Y-114238345D01*
X143062568Y-114218836D01*
X143064489Y-114199327D01*
X143070180Y-114180568D01*
X143079421Y-114163279D01*
X143091857Y-114148125D01*
X143107011Y-114135689D01*
X143124300Y-114126448D01*
X143143059Y-114120757D01*
X143162568Y-114118836D01*
X143182077Y-114120757D01*
G37*
%TO.C,U17*%
G36*
X129431496Y-116435195D02*
G01*
X128931496Y-116435195D01*
X128931496Y-115935195D01*
X129431496Y-115935195D01*
X129431496Y-116435195D01*
G37*
D11*
X129931496Y-115985195D02*
X129931496Y-116385195D01*
X129181496Y-115385195D02*
X127481496Y-115385195D01*
X129181496Y-116985195D02*
X127481496Y-116985195D01*
X126731496Y-115985195D02*
X126731496Y-116385195D01*
%TO.C,U4*%
G36*
X152203985Y-104067018D02*
G01*
X152222744Y-104072709D01*
X152240033Y-104081950D01*
X152255187Y-104094386D01*
X152267623Y-104109540D01*
X152276864Y-104126829D01*
X152282555Y-104145588D01*
X152284476Y-104165097D01*
X152282555Y-104184606D01*
X152276864Y-104203365D01*
X152267623Y-104220654D01*
X152255187Y-104235808D01*
X152240033Y-104248244D01*
X152222744Y-104257485D01*
X152203985Y-104263176D01*
X152184476Y-104265097D01*
X152164967Y-104263176D01*
X152146208Y-104257485D01*
X152128919Y-104248244D01*
X152113765Y-104235808D01*
X152101329Y-104220654D01*
X152092088Y-104203365D01*
X152086397Y-104184606D01*
X152084476Y-104165097D01*
X152086397Y-104145588D01*
X152092088Y-104126829D01*
X152101329Y-104109540D01*
X152113765Y-104094386D01*
X152128919Y-104081950D01*
X152146208Y-104072709D01*
X152164967Y-104067018D01*
X152184476Y-104065097D01*
X152203985Y-104067018D01*
G37*
D10*
%TO.C,U12*%
X133998387Y-106653878D02*
X132345387Y-106653878D01*
X132345387Y-106653878D02*
X132345387Y-105001878D01*
X132345387Y-105001878D02*
X133998387Y-105001878D01*
X133998387Y-105001878D02*
X133998387Y-106653878D01*
X134271887Y-106577878D02*
G75*
G03*
X134271887Y-106577878I-100000J0D01*
G01*
D12*
%TO.C,U1*%
X141755165Y-115035186D02*
X141526565Y-115035186D01*
D13*
%TO.C,XTAL1*%
X134603526Y-111155541D02*
X133146526Y-111155541D01*
X133146526Y-111155541D02*
X133146526Y-112412541D01*
X133333526Y-111373541D02*
X133333526Y-111373541D01*
X133333526Y-111373541D02*
X135365526Y-111373541D01*
X135365526Y-111373541D02*
X135365526Y-113913541D01*
X135365526Y-113913541D02*
X133333526Y-113913541D01*
X133333526Y-113913541D02*
X133333526Y-111373541D01*
X133333526Y-111373541D02*
X133333526Y-111373541D01*
%TO.C,U13*%
X137049918Y-101964799D02*
X137049918Y-100311799D01*
X137049918Y-100311799D02*
X138701938Y-100311799D01*
X138701938Y-100311799D02*
X138701938Y-101964799D01*
X138701938Y-101964799D02*
X137049918Y-101964799D01*
D14*
X137475918Y-102364799D02*
G75*
G03*
X137475918Y-102364799I-100000J0D01*
G01*
D10*
%TO.C,D1*%
X142224328Y-103301321D02*
X142224328Y-102793321D01*
X142224328Y-102793321D02*
X141970328Y-103047321D01*
X141970328Y-103047321D02*
X142224328Y-103301321D01*
X141975328Y-102031321D02*
X142219328Y-102031321D01*
X142219328Y-104063321D02*
X141975328Y-104063321D01*
X140827328Y-103036321D02*
X140827328Y-103057321D01*
X143367328Y-103036321D02*
X143367328Y-103057321D01*
X143367328Y-102967321D02*
X143367328Y-103127321D01*
X140827328Y-102967321D02*
X140827328Y-103127321D01*
X143875328Y-103936321D02*
G75*
G03*
X143875328Y-103936321I-127000J0D01*
G01*
D15*
%TO.C,U15*%
X136900500Y-108050000D02*
X136900500Y-105450000D01*
X138699500Y-105450000D02*
X138699500Y-108050000D01*
X137038500Y-107004000D02*
X137038500Y-106496000D01*
X138562500Y-107004000D02*
X138562500Y-106496000D01*
X138562500Y-106496000D02*
G75*
G03*
X137038500Y-106496000I-762000J0D01*
G01*
X137038500Y-107004000D02*
G75*
G03*
X138562500Y-107004000I762000J0D01*
G01*
X138181500Y-106750000D02*
G75*
G03*
X138181500Y-106750000I-381000J0D01*
G01*
%TO.C,U16*%
X146900500Y-108050000D02*
X146900500Y-105450000D01*
X148699500Y-105450000D02*
X148699500Y-108050000D01*
X147038500Y-107004000D02*
X147038500Y-106496000D01*
X148562500Y-107004000D02*
X148562500Y-106496000D01*
X148562500Y-106496000D02*
G75*
G03*
X147038500Y-106496000I-762000J0D01*
G01*
X147038500Y-107004000D02*
G75*
G03*
X148562500Y-107004000I762000J0D01*
G01*
X148181500Y-106750000D02*
G75*
G03*
X148181500Y-106750000I-381000J0D01*
G01*
%TO.C,U14*%
X126900500Y-108050000D02*
X126900500Y-105450000D01*
X128699500Y-105450000D02*
X128699500Y-108050000D01*
X127038500Y-107004000D02*
X127038500Y-106496000D01*
X128562500Y-107004000D02*
X128562500Y-106496000D01*
X128562500Y-106496000D02*
G75*
G03*
X127038500Y-106496000I-762000J0D01*
G01*
X127038500Y-107004000D02*
G75*
G03*
X128562500Y-107004000I762000J0D01*
G01*
X128181500Y-106750000D02*
G75*
G03*
X128181500Y-106750000I-381000J0D01*
G01*
D13*
%TO.C,U9*%
X132531464Y-109952651D02*
X132531464Y-110697651D01*
X132531464Y-110697651D02*
X132285464Y-110697651D01*
X129878464Y-109952651D02*
X129878464Y-110697651D01*
X129878464Y-110697651D02*
X130124464Y-110697651D01*
X132531464Y-108291651D02*
X132531464Y-107545651D01*
X132531464Y-107545651D02*
X132285464Y-107545651D01*
X129878464Y-108291651D02*
X129878464Y-107545651D01*
X129878464Y-107545651D02*
X130124464Y-107545651D01*
D11*
X132041464Y-107343651D02*
G75*
G03*
X132041464Y-107343651I-75000J0D01*
G01*
D12*
%TO.C,U3*%
X148463336Y-100774687D02*
X148463336Y-101003287D01*
D13*
%TO.C,U7*%
X136803114Y-102083436D02*
X135650114Y-102083436D01*
X135650114Y-100481436D02*
X136803114Y-100481436D01*
D14*
X137343114Y-101790436D02*
G75*
G03*
X137343114Y-101790436I-100000J0D01*
G01*
D16*
%TO.C,U5*%
X151250000Y-113650000D02*
X151250000Y-116950000D01*
X151250000Y-116950000D02*
X146250000Y-116950000D01*
X146250000Y-116950000D02*
X146250000Y-113650000D01*
X146250000Y-113650000D02*
X151250000Y-113650000D01*
X146571000Y-114534000D02*
X146571000Y-113518000D01*
X146571000Y-113518000D02*
X147079000Y-114074000D01*
X147079000Y-114074000D02*
X146571000Y-114534000D01*
D10*
X147600000Y-113250000D02*
G75*
G03*
X147600000Y-113250000I-50000J0D01*
G01*
%TD*%
D17*
X152000000Y-117500000D02*
X125750000Y-117500000D01*
X125750000Y-117500000D02*
X125750000Y-98500000D01*
X125750000Y-98500000D02*
X153250000Y-98500000D01*
X153250000Y-98500000D02*
X153250000Y-116000000D01*
X153250000Y-116000000D02*
X153000000Y-116000000D01*
X153000000Y-116000000D02*
G75*
G03*
X152000000Y-117000000I0J-1000000D01*
G01*
X152000000Y-117000000D02*
X152000000Y-117500000D01*
M02*
