%TF.GenerationSoftware,KiCad,Pcbnew,7.0.7*%
%TF.CreationDate,2024-01-11T19:31:21-08:00*%
%TF.ProjectId,beeper-design,62656570-6572-42d6-9465-7369676e2e6b,rev?*%
%TF.SameCoordinates,Original*%
%TF.FileFunction,Copper,L4,Bot*%
%TF.FilePolarity,Positive*%
%FSLAX46Y46*%
G04 Gerber Fmt 4.6, Leading zero omitted, Abs format (unit mm)*
G04 Created by KiCad (PCBNEW 7.0.7) date 2024-01-11 19:31:21*
%MOMM*%
%LPD*%
G01*
G04 APERTURE LIST*
%TA.AperFunction,SMDPad,CuDef*%
%ADD10C,1.000000*%
%TD*%
%TA.AperFunction,SMDPad,CuDef*%
%ADD11C,0.787000*%
%TD*%
%TA.AperFunction,SMDPad,CuDef*%
%ADD12R,0.400000X1.750000*%
%TD*%
%TA.AperFunction,ComponentPad*%
%ADD13O,0.730000X1.460000*%
%TD*%
%TA.AperFunction,ComponentPad*%
%ADD14O,1.200000X2.400000*%
%TD*%
%TA.AperFunction,SMDPad,CuDef*%
%ADD15R,1.425000X2.500000*%
%TD*%
%TA.AperFunction,ViaPad*%
%ADD16C,0.400000*%
%TD*%
%TA.AperFunction,ViaPad*%
%ADD17C,0.250000*%
%TD*%
%TA.AperFunction,Conductor*%
%ADD18C,0.075000*%
%TD*%
%TA.AperFunction,Profile*%
%ADD19C,0.050000*%
%TD*%
G04 APERTURE END LIST*
D10*
%TO.P,TP1,p*%
%TO.N,OUT+*%
X131476243Y-106170330D03*
%TD*%
%TO.P,TP2,p*%
%TO.N,OUT-*%
X131476243Y-104967130D03*
%TD*%
D11*
%TO.P,J1,2*%
%TO.N,mcu_dbg-m33_swdio*%
X130301393Y-103815525D03*
%TO.P,J1,4*%
%TO.N,mcu_dbg-m33_swdclk*%
X130301393Y-102545525D03*
%TO.P,J1,6*%
%TO.N,mcu_mcu-uart_tx*%
X130301393Y-101275525D03*
%TO.P,J1,1*%
%TO.N,VDD1P8*%
X129031393Y-103815525D03*
%TO.P,J1,3*%
%TO.N,mcu_mcu-uart_rx*%
X129031393Y-102545525D03*
%TO.P,J1,5*%
%TO.N,GND*%
X129031393Y-101275525D03*
%TD*%
D10*
%TO.P,TP6,p*%
%TO.N,mcu_mcu-etm_data0*%
X137743750Y-106182238D03*
%TD*%
%TO.P,TP5,p*%
%TO.N,mcu_mcu-etm_clk*%
X136540550Y-106182238D03*
%TD*%
%TO.P,TP8,p*%
%TO.N,mcu_mcu-etm_data2*%
X138946950Y-107385438D03*
%TD*%
%TO.P,TP7,p*%
%TO.N,mcu_mcu-etm_data1*%
X137743750Y-107385438D03*
%TD*%
%TO.P,TP9,p*%
%TO.N,mcu_mcu-etm_data3*%
X136540550Y-107385438D03*
%TD*%
%TO.P,TP10,p*%
%TO.N,GND*%
X138946950Y-106182238D03*
%TD*%
%TO.P,TP4,p*%
%TO.N,SP_N*%
X151282998Y-109099930D03*
%TD*%
%TO.P,TP3,p*%
%TO.N,SP_P*%
X150079798Y-109099930D03*
%TD*%
D12*
%TO.P,J6,1*%
%TO.N,VBUS*%
X135844176Y-103280414D03*
%TO.P,J6,2*%
%TO.N,D-*%
X136494176Y-103280414D03*
%TO.P,J6,3*%
%TO.N,D+*%
X137144176Y-103280414D03*
%TO.P,J6,4*%
%TO.N,ID*%
X137794176Y-103280414D03*
%TO.P,J6,5*%
%TO.N,GND*%
X138444176Y-103280414D03*
D13*
%TO.P,J6,6*%
%TO.N,SHIELD*%
X134719176Y-103485414D03*
%TO.P,J6,7*%
X139569176Y-103485414D03*
D14*
%TO.P,J6,8*%
X134419176Y-100455414D03*
%TO.P,J6,9*%
X139869176Y-100455414D03*
D15*
%TO.P,J6,13*%
X136181676Y-100205414D03*
%TO.P,J6,14*%
X138106676Y-100205414D03*
%TD*%
D10*
%TO.P,TP14,p*%
%TO.N,AC2*%
X150181923Y-100385172D03*
%TD*%
%TO.P,TP13,p*%
%TO.N,cap_p1*%
X150181923Y-101588372D03*
%TD*%
%TO.P,TP12,p*%
%TO.N,GND*%
X141485612Y-104881951D03*
%TD*%
%TO.P,TP11,p*%
%TO.N,VBAT*%
X140282412Y-104881951D03*
%TD*%
D16*
%TO.N,codec-i2c-net_scl*%
X149104000Y-105433494D03*
D17*
%TO.N,mcu_mcu-wpwr1_gpio*%
X140305165Y-111160086D03*
D16*
X143822917Y-101514832D03*
D17*
%TO.N,CLAMP1*%
X146563236Y-101699687D03*
D16*
X147538753Y-104259505D03*
D17*
%TO.N,mcu_mcu-mem_sdio1*%
X143812568Y-115468836D03*
D16*
%TO.N,SHIELD*%
X136142594Y-99172710D03*
X137871349Y-99172710D03*
D17*
%TO.N,mcu_mcu-etm_data0*%
X138505165Y-111160086D03*
D16*
X137135702Y-106775555D03*
%TO.N,VBAT*%
X139561513Y-105189671D03*
D17*
%TO.N,mcu_mcu-mem_sdio2*%
X140305165Y-111610086D03*
X143812568Y-115868836D03*
D16*
%TO.N,codec-i2c-net_sda*%
X142405550Y-112118891D03*
X147306899Y-111638234D03*
%TO.N,VBUS*%
X135307597Y-102163983D03*
%TO.N,mcu_hap-gpio1_gpio*%
X134334368Y-105632680D03*
D17*
X138055165Y-111610086D03*
D16*
%TO.N,OUT+*%
X132066160Y-106806138D03*
D17*
%TO.N,mcu_mcu-mem_sck*%
X144512568Y-115868836D03*
X140305165Y-112510086D03*
%TO.N,mcu_mcu-mem_cs*%
X140755165Y-111160086D03*
X143812568Y-115068836D03*
%TO.N,mcu_mcu-mem_sdio0*%
X144162568Y-115668836D03*
X139405165Y-111160086D03*
D16*
%TO.N,mcu_hap-i2c_scl*%
X133976982Y-104745882D03*
D17*
X137605165Y-112060086D03*
D16*
%TO.N,mcu_mcu-button2_gpio*%
X142694670Y-112843262D03*
D17*
X140755165Y-111610086D03*
D16*
%TO.N,CLAMP2*%
X146170132Y-100282418D03*
D17*
X146563236Y-101299687D03*
%TO.N,mcu_mcu-wpwr0_gpio*%
X140305165Y-110710086D03*
D16*
X144600759Y-102778021D03*
D17*
%TO.N,mcu_mcu-etm_data2*%
X138955165Y-111160086D03*
D16*
X138331450Y-106815731D03*
X136249569Y-109365791D03*
D17*
%TO.N,SP_P*%
X151354476Y-106915097D03*
D16*
%TO.N,mcu_dbg-m33_swdclk*%
X127049008Y-103397477D03*
%TO.N,D-*%
X136498775Y-104496893D03*
X142800540Y-114330652D03*
%TO.N,nAD-EN*%
X145376382Y-102351168D03*
D17*
X146163236Y-101699687D03*
D16*
X139076222Y-102054708D03*
%TO.N,QVAR1*%
X130784824Y-109115470D03*
%TO.N,mcu_dbg-m33_swdio*%
X127590593Y-103948199D03*
X136132564Y-113110803D03*
D17*
%TO.N,SP_N*%
X151694476Y-107165097D03*
D16*
%TO.N,GND*%
X142992066Y-101488315D03*
D17*
X151354476Y-104415097D03*
D16*
X126240526Y-108423762D03*
X152711911Y-111192564D03*
X138465131Y-104529666D03*
X126259751Y-103538415D03*
X148605548Y-102305725D03*
X129713698Y-109601468D03*
X126259751Y-104094665D03*
D17*
X138505165Y-110260086D03*
X136705165Y-112060086D03*
X140218368Y-107384999D03*
X139405165Y-111610086D03*
D16*
X142329149Y-104880616D03*
X133897649Y-117005688D03*
D17*
X141191434Y-113867717D03*
X136407665Y-113617586D03*
D16*
X126253026Y-109467512D03*
X152778498Y-102986930D03*
X152711911Y-111784766D03*
D17*
X138505165Y-114760086D03*
D16*
X152772248Y-102455680D03*
D17*
X136705165Y-112960086D03*
D16*
X133890953Y-112656040D03*
X134419031Y-117022690D03*
D17*
X136407665Y-114967586D03*
X137155165Y-112960086D03*
D16*
X146498655Y-113498351D03*
D17*
X138955165Y-112060086D03*
D16*
X152834748Y-99255680D03*
X126246776Y-108942512D03*
X133387602Y-117000021D03*
D17*
X139405165Y-112510086D03*
D16*
X152815998Y-99780680D03*
X149165106Y-106915827D03*
X144168737Y-114869371D03*
D17*
X136857665Y-114967586D03*
D16*
X132354230Y-117002334D03*
X152790998Y-100843180D03*
D17*
X139855165Y-112510086D03*
D16*
X152772248Y-101911930D03*
X131841349Y-117005168D03*
D17*
X141655165Y-109810086D03*
X138055165Y-110260086D03*
D16*
X132872778Y-117002334D03*
D17*
X138505165Y-111610086D03*
D16*
X152803498Y-100311930D03*
X152703073Y-110618040D03*
D17*
X137757665Y-114517586D03*
D16*
X126240526Y-109992512D03*
X126246776Y-107905012D03*
X126244945Y-99856584D03*
X135461795Y-117005688D03*
X126253501Y-101950915D03*
D17*
X141655165Y-111610086D03*
D16*
X152720750Y-110052354D03*
X142647398Y-110810142D03*
X126253026Y-105798762D03*
X126258203Y-100373656D03*
X152694234Y-113720471D03*
X152711911Y-115125845D03*
X126253501Y-100894665D03*
X128251091Y-101228437D03*
D17*
X137757665Y-114967586D03*
D16*
X152694234Y-114409900D03*
X134934746Y-117017023D03*
X152772248Y-103511930D03*
D17*
X139405165Y-112060086D03*
D16*
X147316827Y-109072434D03*
X152703073Y-113075236D03*
X126272251Y-104650915D03*
X149161034Y-108872389D03*
D17*
X139855165Y-112060086D03*
D16*
X126247251Y-103000915D03*
X135697203Y-111949233D03*
D17*
X136407665Y-114067586D03*
D16*
X131401879Y-107139540D03*
X138348657Y-105724581D03*
X152729402Y-115643825D03*
X126280462Y-105271625D03*
D17*
X138955165Y-111610086D03*
D16*
X126240526Y-107373762D03*
X152772248Y-101368180D03*
X126249365Y-99335093D03*
X126253501Y-102450915D03*
X126240526Y-110517512D03*
X126253501Y-101432165D03*
X126246776Y-106317512D03*
X135228775Y-101572145D03*
X131325197Y-117003876D03*
D17*
X151354476Y-106415097D03*
D16*
X126246776Y-106836262D03*
X140846657Y-105538118D03*
X152711911Y-112421162D03*
X130804246Y-116979832D03*
D17*
%TO.N,mcu_hap-gpio0_gpio*%
X138055165Y-111160086D03*
D16*
%TO.N,VDD1P8*%
X135253660Y-106168638D03*
X149575571Y-105108471D03*
X146978728Y-100521254D03*
X135245811Y-105084379D03*
D17*
X141205165Y-110710086D03*
D16*
X130773738Y-108610382D03*
X152205282Y-106653960D03*
X145126723Y-113950183D03*
X133173574Y-104909491D03*
X137705469Y-102089296D03*
X145736583Y-111169977D03*
X129970343Y-110296899D03*
X149243195Y-106235422D03*
X133758692Y-109149897D03*
X146953008Y-102478299D03*
D17*
X140755165Y-109810086D03*
D16*
X144681473Y-108944675D03*
X128286276Y-103832108D03*
X144672634Y-108471798D03*
%TO.N,mcu_mcu-etm_data3*%
X137906777Y-108725171D03*
D17*
X139405165Y-110710086D03*
D16*
%TO.N,AC2*%
X149361022Y-100462983D03*
%TO.N,QVAR2*%
X141115303Y-116773148D03*
%TO.N,FOD*%
X145395132Y-101008981D03*
D17*
X146163236Y-101299687D03*
D16*
%TO.N,LX*%
X143543940Y-108319721D03*
D17*
%TO.N,mcu_mcu-mem_sdio3*%
X140755165Y-112510086D03*
X144512568Y-115468836D03*
D16*
%TO.N,mcu_mcu-uart_tx*%
X131099595Y-101264852D03*
D17*
X138055165Y-112060086D03*
D16*
%TO.N,cap_p1*%
X149451016Y-101838435D03*
D17*
%TO.N,mcu_mcu-etm_clk*%
X139855165Y-110710086D03*
D16*
X136813812Y-105468849D03*
D17*
%TO.N,mcu_mcu-uart_rx*%
X138505165Y-112060086D03*
D16*
X128307419Y-102542244D03*
%TO.N,VDD_IO*%
X152536167Y-107037869D03*
X149775319Y-108083497D03*
%TO.N,OUT-*%
X132078660Y-105549888D03*
D17*
%TO.N,RECT*%
X147363236Y-101299687D03*
D16*
X147432192Y-100388488D03*
%TO.N,board-io_rgb_r*%
X139570173Y-108951200D03*
X142899067Y-104366671D03*
%TO.N,mcu_q-spi_sdi*%
X132328370Y-107500892D03*
X136085542Y-110946589D03*
%TO.N,mcu_hap-i2c_sda*%
X137982440Y-109241617D03*
X138776380Y-109309812D03*
%TO.N,mcu_mcu-wpwr2_gpio*%
X146062497Y-102528897D03*
D17*
X140755165Y-110710086D03*
D16*
%TO.N,D+*%
X142306465Y-114008336D03*
X137170614Y-104537859D03*
%TO.N,mcu_mcu-wpwr3_gpio*%
X145245596Y-100348780D03*
D17*
X139855165Y-111160086D03*
D16*
%TO.N,mcu_mcu-etm_data1*%
X138610093Y-108833959D03*
D17*
X138955165Y-110710086D03*
D16*
%TO.N,V14RF*%
X143452612Y-109789874D03*
X139386679Y-116595891D03*
%TD*%
D18*
%TO.N,mcu_mcu-etm_data0*%
X137743750Y-106182238D02*
X137135702Y-106775555D01*
X137135702Y-106775555D02*
X136538892Y-106785452D01*
X136538892Y-106785460D02*
G75*
G03*
X136521041Y-106787359I1608J-99940D01*
G01*
X136521041Y-106787359D02*
X136329699Y-106825419D01*
X136329700Y-106825423D02*
G75*
G03*
X136293651Y-106840351I19500J-98077D01*
G01*
X136293651Y-106840351D02*
X136131440Y-106948737D01*
X136131442Y-106948740D02*
G75*
G03*
X136103850Y-106976327I55558J-83160D01*
G01*
X136103850Y-106976327D02*
X135995463Y-107138539D01*
X135995466Y-107138541D02*
G75*
G03*
X135980532Y-107174587I83134J-55559D01*
G01*
X135980532Y-107174587D02*
X135942471Y-107365929D01*
X135942457Y-107365926D02*
G75*
G03*
X135942472Y-107404947I98143J-19474D01*
G01*
X135942471Y-107404947D02*
X135980532Y-107596289D01*
X135980538Y-107596288D02*
G75*
G03*
X135995463Y-107632337I98062J19488D01*
G01*
X135995463Y-107632337D02*
X136103850Y-107794548D01*
X136103851Y-107794547D02*
G75*
G03*
X136104383Y-107795337I113649J75947D01*
G01*
X136104382Y-107795338D02*
X137884162Y-110404821D01*
X137884161Y-110404821D02*
G75*
G03*
X137889562Y-110412017I82139J56021D01*
G01*
X137889561Y-110412017D02*
X138505165Y-111160086D01*
%TO.N,VBAT*%
X140282412Y-104881951D02*
X139561513Y-105189671D01*
%TO.N,mcu_mcu-mem_sdio2*%
X143812568Y-115868836D02*
X144342213Y-116187780D01*
X144342207Y-116187790D02*
G75*
G03*
X144418399Y-116217257I122493J203490D01*
G01*
X144418399Y-116217258D02*
X144466234Y-116226773D01*
X144466234Y-116226772D02*
G75*
G03*
X144558902Y-116226772I46334J232962D01*
G01*
X144558902Y-116226773D02*
X144606737Y-116217258D01*
X144606736Y-116217255D02*
G75*
G03*
X144692351Y-116181795I-46336J232955D01*
G01*
X144692351Y-116181795D02*
X144732904Y-116154699D01*
X144732893Y-116154683D02*
G75*
G03*
X144798430Y-116089173I-131893J197483D01*
G01*
X144798430Y-116089173D02*
X144825527Y-116048620D01*
X144825527Y-116048620D02*
G75*
G03*
X144851079Y-115998312I-197427J131920D01*
G01*
X144851080Y-115998312D02*
X144980201Y-115645578D01*
X144980198Y-115645577D02*
G75*
G03*
X144995846Y-115589831I-351998J128877D01*
G01*
X144995847Y-115589831D02*
X145005362Y-115541995D01*
X145005347Y-115541992D02*
G75*
G03*
X145005361Y-115395678I-367747J73192D01*
G01*
X145005362Y-115395678D02*
X144995847Y-115347842D01*
X144995846Y-115347842D02*
G75*
G03*
X144994806Y-115342795I-357046J-70958D01*
G01*
X144994807Y-115342795D02*
X144854744Y-114685953D01*
X144854730Y-114685956D02*
G75*
G03*
X144779640Y-114508105I-501230J-106844D01*
G01*
X144779641Y-114508104D02*
X144736286Y-114443220D01*
X144736284Y-114443221D02*
G75*
G03*
X144594887Y-114301822I-426084J-284679D01*
G01*
X144594888Y-114301821D02*
X144530003Y-114258467D01*
X144530001Y-114258470D02*
G75*
G03*
X144503217Y-114241739I-284101J-425030D01*
G01*
X144503217Y-114241739D02*
X142567802Y-113114449D01*
X142562762Y-113111307D02*
G75*
G03*
X142567802Y-113114449I55238J83007D01*
G01*
X142562761Y-113111308D02*
X140305165Y-111610086D01*
%TO.N,VBUS*%
X135844176Y-103280414D02*
X135307597Y-102163983D01*
%TO.N,OUT+*%
X131476243Y-106170330D02*
X132066160Y-106806138D01*
%TO.N,mcu_mcu-mem_sck*%
X144512568Y-115868836D02*
X144711142Y-115572315D01*
X144711144Y-115572316D02*
G75*
G03*
X144726130Y-115536181I-83044J55616D01*
G01*
X144726131Y-115536181D02*
X144735646Y-115488345D01*
X144735632Y-115488342D02*
G75*
G03*
X144735646Y-115449327I-98032J19542D01*
G01*
X144735646Y-115449327D02*
X144726131Y-115401492D01*
X144726131Y-115401492D02*
G75*
G03*
X144725853Y-115400146I-94531J-18808D01*
G01*
X144725854Y-115400146D02*
X144585791Y-114743304D01*
X144585777Y-114743307D02*
G75*
G03*
X144550986Y-114660887I-232277J-49493D01*
G01*
X144550987Y-114660886D02*
X144507632Y-114596002D01*
X144507630Y-114596003D02*
G75*
G03*
X144442106Y-114530476I-197530J-131997D01*
G01*
X144442106Y-114530475D02*
X144377221Y-114487121D01*
X144377221Y-114487121D02*
G75*
G03*
X144364808Y-114479370I-131121J-196179D01*
G01*
X144364808Y-114479369D02*
X142429394Y-113352079D01*
X142410926Y-113340591D02*
G75*
G03*
X142429394Y-113352078I207174J312491D01*
G01*
X142410926Y-113340592D02*
X140858255Y-112311253D01*
X140858255Y-112311253D02*
G75*
G03*
X140822509Y-112296522I-55255J-83347D01*
G01*
X140822509Y-112296522D02*
X140774674Y-112287007D01*
X140774674Y-112287008D02*
G75*
G03*
X140735656Y-112287008I-19509J-98102D01*
G01*
X140735656Y-112287007D02*
X140687820Y-112296522D01*
X140687822Y-112296532D02*
G75*
G03*
X140657558Y-112307867I19478J-98068D01*
G01*
X140657558Y-112307867D02*
X140305165Y-112510086D01*
%TO.N,mcu_mcu-mem_cs*%
X140755165Y-111160086D02*
X141503234Y-111775690D01*
X141503234Y-111775690D02*
G75*
G03*
X141504038Y-111776345I47666J57790D01*
G01*
X141504038Y-111776345D02*
X142201390Y-112338183D01*
X142201392Y-112338180D02*
G75*
G03*
X142208572Y-112343458I62708J77780D01*
G01*
X142208572Y-112343459D02*
X142273456Y-112386814D01*
X142273457Y-112386812D02*
G75*
G03*
X142297967Y-112398724I55543J83112D01*
G01*
X142297967Y-112398725D02*
X142802253Y-112563427D01*
X142826763Y-112575339D02*
G75*
G03*
X142802253Y-112563428I-55563J-83161D01*
G01*
X142826763Y-112575339D02*
X142891648Y-112618693D01*
X142902068Y-112626693D02*
G75*
G03*
X142891648Y-112618693I-65868J-75007D01*
G01*
X142902068Y-112626694D02*
X144739011Y-114239497D01*
X144850613Y-114366829D02*
G75*
G03*
X144739010Y-114239498I-540513J-361171D01*
G01*
X144850613Y-114366829D02*
X144893968Y-114431713D01*
X144989206Y-114657280D02*
G75*
G03*
X144893967Y-114431714I-635706J-135520D01*
G01*
X144989220Y-114657277D02*
X145129284Y-115314120D01*
X145130705Y-115321017D02*
G75*
G03*
X145129283Y-115314120I-516605J-102883D01*
G01*
X145130705Y-115321017D02*
X145140220Y-115368853D01*
X145140205Y-115568817D02*
G75*
G03*
X145140219Y-115368853I-502605J100017D01*
G01*
X145140220Y-115568820D02*
X145130705Y-115616656D01*
X145109327Y-115692846D02*
G75*
G03*
X145130705Y-115616656I-481327J176146D01*
G01*
X145109322Y-115692844D02*
X144980201Y-116045578D01*
X144939855Y-116125011D02*
G75*
G03*
X144980201Y-116045578I-311755J208311D01*
G01*
X144939854Y-116125011D02*
X144912757Y-116165564D01*
X144809284Y-116269010D02*
G75*
G03*
X144912757Y-116165564I-208284J311810D01*
G01*
X144809295Y-116269026D02*
X144768742Y-116296122D01*
X144633561Y-116352113D02*
G75*
G03*
X144768742Y-116296122I-73161J367813D01*
G01*
X144633562Y-116352116D02*
X144585727Y-116361631D01*
X144439409Y-116361630D02*
G75*
G03*
X144585727Y-116361630I73159J367822D01*
G01*
X144439409Y-116361631D02*
X144391574Y-116352116D01*
X144317411Y-116329172D02*
G75*
G03*
X144391574Y-116352115I147289J344772D01*
G01*
X144317411Y-116329171D02*
X143725447Y-116076281D01*
X143709172Y-116067473D02*
G75*
G03*
X143725447Y-116076281I55528J83173D01*
G01*
X143709175Y-116067468D02*
X143668623Y-116040372D01*
X143641033Y-116012782D02*
G75*
G03*
X143668624Y-116040371I83167J55582D01*
G01*
X143641033Y-116012782D02*
X143613936Y-115972229D01*
X143599017Y-115936178D02*
G75*
G03*
X143613937Y-115972229I98083J19478D01*
G01*
X143599004Y-115936181D02*
X143589489Y-115888345D01*
X143587560Y-115868836D02*
G75*
G03*
X143589490Y-115888345I99940J36D01*
G01*
X143587568Y-115868836D02*
X143587568Y-115468836D01*
X143589484Y-115449326D02*
G75*
G03*
X143587568Y-115468836I98016J-19474D01*
G01*
X143589489Y-115449327D02*
X143599004Y-115401492D01*
X143613992Y-115365356D02*
G75*
G03*
X143599005Y-115401492I83108J-55644D01*
G01*
X143613994Y-115365358D02*
X143812568Y-115068836D01*
%TO.N,mcu_mcu-mem_sdio0*%
X144162568Y-115668836D02*
X144307493Y-115961097D01*
X144307496Y-115961096D02*
G75*
G03*
X144313937Y-115972229I89404J44296D01*
G01*
X144313936Y-115972229D02*
X144341033Y-116012782D01*
X144341033Y-116012782D02*
G75*
G03*
X144368624Y-116040371I83167J55582D01*
G01*
X144368623Y-116040372D02*
X144409175Y-116067468D01*
X144409167Y-116067480D02*
G75*
G03*
X144445223Y-116082399I55533J83180D01*
G01*
X144445223Y-116082400D02*
X144493059Y-116091915D01*
X144493059Y-116091914D02*
G75*
G03*
X144532077Y-116091914I19509J98102D01*
G01*
X144532077Y-116091915D02*
X144579912Y-116082400D01*
X144579911Y-116082397D02*
G75*
G03*
X144615960Y-116067468I-19511J98097D01*
G01*
X144615960Y-116067468D02*
X144656513Y-116040372D01*
X144656517Y-116040379D02*
G75*
G03*
X144684103Y-116012782I-55617J83179D01*
G01*
X144684103Y-116012782D02*
X144711200Y-115972229D01*
X144711210Y-115972235D02*
G75*
G03*
X144721959Y-115951047I-83210J55535D01*
G01*
X144721959Y-115951047D02*
X144851080Y-115598312D01*
X144851081Y-115598312D02*
G75*
G03*
X144860988Y-115563006I-222981J81612D01*
G01*
X144860989Y-115563006D02*
X144870504Y-115515170D01*
X144870490Y-115515167D02*
G75*
G03*
X144870504Y-115422502I-232890J46367D01*
G01*
X144870504Y-115422502D02*
X144860989Y-115374667D01*
X144860989Y-115374667D02*
G75*
G03*
X144860331Y-115371471I-255989J-51033D01*
G01*
X144860331Y-115371471D02*
X144720267Y-114714628D01*
X144720253Y-114714631D02*
G75*
G03*
X144665313Y-114584496I-366753J-78169D01*
G01*
X144665314Y-114584495D02*
X144621959Y-114519611D01*
X144621957Y-114519612D02*
G75*
G03*
X144518496Y-114416149I-311757J-208288D01*
G01*
X144518497Y-114416148D02*
X144453612Y-114372794D01*
X144453612Y-114372793D02*
G75*
G03*
X144434013Y-114360554I-208212J-311607D01*
G01*
X144434013Y-114360554D02*
X142498598Y-113233264D01*
X142486903Y-113225988D02*
G75*
G03*
X142498598Y-113233263I131397J198188D01*
G01*
X142486902Y-113225989D02*
X140934231Y-112196650D01*
X140934232Y-112196649D02*
G75*
G03*
X140913719Y-112184488I-131032J-197651D01*
G01*
X140913719Y-112184488D02*
X140210711Y-111814040D01*
X140201774Y-111808715D02*
G75*
G03*
X140210711Y-111814039I55626J83215D01*
G01*
X140201772Y-111808718D02*
X140161219Y-111781621D01*
X140153233Y-111775692D02*
G75*
G03*
X140161219Y-111781620I63567J77292D01*
G01*
X140153234Y-111775690D02*
X139405165Y-111160086D01*
%TO.N,mcu_mcu-button2_gpio*%
X140755165Y-111610086D02*
X142694670Y-112843262D01*
%TO.N,mcu_mcu-etm_data2*%
X138946950Y-107385438D02*
X138331450Y-106815731D01*
%TO.N,SP_P*%
X150079798Y-109099930D02*
X151354476Y-106915097D01*
%TO.N,mcu_dbg-m33_swdclk*%
X130301393Y-102545525D02*
X129220837Y-103001213D01*
X129201486Y-103007141D02*
G75*
G03*
X129220837Y-103001212I-19486J98141D01*
G01*
X129201488Y-103007150D02*
X129050902Y-103037103D01*
X129049109Y-103037442D02*
G75*
G03*
X129050902Y-103037102I-17509J97342D01*
G01*
X129049109Y-103037443D02*
X127049008Y-103397477D01*
%TO.N,D-*%
X136494176Y-103280414D02*
X136498775Y-104496893D01*
%TO.N,mcu_dbg-m33_swdio*%
X130301393Y-103815525D02*
X129220837Y-104271213D01*
X129201486Y-104277141D02*
G75*
G03*
X129220837Y-104271212I-19486J98141D01*
G01*
X129201488Y-104277150D02*
X129050902Y-104307103D01*
X129011884Y-104307102D02*
G75*
G03*
X129050902Y-104307102I19509J98050D01*
G01*
X129011884Y-104307103D02*
X128861298Y-104277150D01*
X128857315Y-104276272D02*
G75*
G03*
X128861298Y-104277149I23285J96272D01*
G01*
X128857315Y-104276273D02*
X128186247Y-104114086D01*
X128182902Y-104113217D02*
G75*
G03*
X128186247Y-104114086I27698J99717D01*
G01*
X128182902Y-104113216D02*
X127590593Y-103948199D01*
%TO.N,SP_N*%
X151282998Y-109099930D02*
X151694476Y-107165097D01*
%TO.N,GND*%
X138946950Y-106182238D02*
X138348657Y-105724581D01*
X129031393Y-101275525D02*
X128251091Y-101228437D01*
X141485612Y-104881951D02*
X142329149Y-104880616D01*
X138444176Y-103280414D02*
X138465131Y-104529666D01*
%TO.N,VDD1P8*%
X129031393Y-103815525D02*
X128286276Y-103832108D01*
%TO.N,mcu_mcu-etm_data3*%
X136540550Y-107385438D02*
X137906777Y-108725171D01*
X139405165Y-110710086D02*
X138205039Y-109041798D01*
X138205040Y-109041797D02*
G75*
G03*
X138196510Y-109031478I-81040J-58303D01*
G01*
X138196510Y-109031478D02*
X137906777Y-108725171D01*
%TO.N,AC2*%
X149361022Y-100462983D02*
X150181923Y-100385172D01*
%TO.N,mcu_mcu-mem_sdio3*%
X140755165Y-112510086D02*
X142354890Y-113467764D01*
X142354890Y-113467764D02*
G75*
G03*
X142360189Y-113470894I265010J442664D01*
G01*
X142360189Y-113470894D02*
X144295604Y-114598184D01*
X144300829Y-114601451D02*
G75*
G03*
X144295604Y-114598184I-56229J-84149D01*
G01*
X144300831Y-114601448D02*
X144365715Y-114644802D01*
X144393303Y-114672393D02*
G75*
G03*
X144365715Y-114644803I-83203J-55607D01*
G01*
X144393305Y-114672392D02*
X144436660Y-114737277D01*
X144451577Y-114773328D02*
G75*
G03*
X144436659Y-114737278I-98077J-19472D01*
G01*
X144451591Y-114773325D02*
X144466815Y-114849862D01*
X144468474Y-114862122D02*
G75*
G03*
X144466815Y-114849862I-99874J-7278D01*
G01*
X144468474Y-114862122D02*
X144512568Y-115468836D01*
%TO.N,mcu_mcu-uart_tx*%
X130301393Y-101275525D02*
X131099595Y-101264852D01*
%TO.N,cap_p1*%
X150181923Y-101588372D02*
X149451016Y-101838435D01*
%TO.N,mcu_mcu-etm_clk*%
X136540550Y-106182238D02*
X136813812Y-105468849D01*
X136813812Y-105468849D02*
X138345772Y-105424622D01*
X138368169Y-105426493D02*
G75*
G03*
X138345772Y-105424623I-19469J-98107D01*
G01*
X138368167Y-105426502D02*
X138444703Y-105441726D01*
X138449731Y-105442865D02*
G75*
G03*
X138444703Y-105441727I-24831J-98035D01*
G01*
X138449732Y-105442862D02*
X139162829Y-105623355D01*
X139193851Y-105637149D02*
G75*
G03*
X139162829Y-105623355I-55551J-83151D01*
G01*
X139193849Y-105637151D02*
X139356060Y-105745537D01*
X139383652Y-105773126D02*
G75*
G03*
X139356059Y-105745538I-83152J-55574D01*
G01*
X139383650Y-105773127D02*
X139492037Y-105935339D01*
X139506971Y-105971387D02*
G75*
G03*
X139492036Y-105935340I-98071J-19513D01*
G01*
X139506968Y-105971387D02*
X139545029Y-106162729D01*
X139546944Y-106182238D02*
G75*
G03*
X139545029Y-106162729I-99944J38D01*
G01*
X139546950Y-106182238D02*
X139546950Y-107385438D01*
X139545383Y-107403037D02*
G75*
G03*
X139546950Y-107385438I-98483J17637D01*
G01*
X139545389Y-107403038D02*
X139271734Y-108933599D01*
X139271736Y-108933599D02*
G75*
G03*
X139272096Y-108970709I98464J-17601D01*
G01*
X139272095Y-108970709D02*
X139287319Y-109047245D01*
X139287315Y-109047246D02*
G75*
G03*
X139290780Y-109060101I98085J19546D01*
G01*
X139290779Y-109060101D02*
X139855165Y-110710086D01*
%TO.N,mcu_mcu-uart_rx*%
X129031393Y-102545525D02*
X128307419Y-102542244D01*
%TO.N,OUT-*%
X131476243Y-104967130D02*
X132078660Y-105549888D01*
%TO.N,D+*%
X137144176Y-103280414D02*
X137170614Y-104537859D01*
%TO.N,mcu_mcu-etm_data1*%
X137743750Y-107385438D02*
X138610093Y-108833959D01*
%TD*%
%TA.AperFunction,Conductor*%
%TO.N,QVAR1*%
G36*
X135364575Y-99004101D02*
G01*
X135368676Y-99014000D01*
X135368676Y-101283284D01*
X135364575Y-101293183D01*
X135354676Y-101297284D01*
X135349888Y-101296440D01*
X135281762Y-101271645D01*
X135281761Y-101271645D01*
X135175789Y-101271645D01*
X135175787Y-101271645D01*
X135100747Y-101298957D01*
X135090042Y-101298489D01*
X135082803Y-101290589D01*
X135082868Y-101280837D01*
X135104316Y-101224286D01*
X135119676Y-101097786D01*
X135119676Y-99813042D01*
X135104316Y-99686542D01*
X135104315Y-99686539D01*
X135104315Y-99686537D01*
X135043994Y-99527485D01*
X135043994Y-99527484D01*
X134947359Y-99387485D01*
X134947358Y-99387484D01*
X134947357Y-99387482D01*
X134820031Y-99274682D01*
X134820022Y-99274676D01*
X134669399Y-99195622D01*
X134504234Y-99154914D01*
X134504232Y-99154914D01*
X134334120Y-99154914D01*
X134334117Y-99154914D01*
X134168952Y-99195622D01*
X134018329Y-99274676D01*
X134018320Y-99274682D01*
X133890994Y-99387482D01*
X133890993Y-99387484D01*
X133794357Y-99527485D01*
X133734036Y-99686537D01*
X133734036Y-99686539D01*
X133718676Y-99813036D01*
X133718676Y-101097791D01*
X133734036Y-101224288D01*
X133734036Y-101224290D01*
X133794357Y-101383342D01*
X133794358Y-101383344D01*
X133850937Y-101465312D01*
X133890993Y-101523343D01*
X133890994Y-101523345D01*
X134018320Y-101636145D01*
X134018322Y-101636146D01*
X134018324Y-101636148D01*
X134018326Y-101636149D01*
X134018329Y-101636151D01*
X134168952Y-101715205D01*
X134291677Y-101745452D01*
X134334120Y-101755914D01*
X134504232Y-101755914D01*
X134586816Y-101735558D01*
X134669399Y-101715205D01*
X134743131Y-101676507D01*
X134820028Y-101636148D01*
X134900674Y-101564700D01*
X134910803Y-101561206D01*
X134920437Y-101565896D01*
X134923745Y-101572749D01*
X134942040Y-101676507D01*
X134995024Y-101768280D01*
X134995026Y-101768282D01*
X134995027Y-101768283D01*
X135076207Y-101836401D01*
X135150616Y-101863483D01*
X135166466Y-101869252D01*
X135174366Y-101876491D01*
X135174834Y-101887196D01*
X135167595Y-101895096D01*
X135166467Y-101895564D01*
X135155028Y-101899727D01*
X135073846Y-101967847D01*
X135020862Y-102059620D01*
X135002461Y-102163980D01*
X135002461Y-102163985D01*
X135020862Y-102268345D01*
X135073846Y-102360118D01*
X135073848Y-102360120D01*
X135073849Y-102360121D01*
X135155029Y-102428239D01*
X135254611Y-102464483D01*
X135290108Y-102464483D01*
X135300007Y-102468584D01*
X135302725Y-102472416D01*
X135542294Y-102970875D01*
X135543676Y-102976940D01*
X135543676Y-104165310D01*
X135548059Y-104187348D01*
X135549507Y-104194627D01*
X135571719Y-104227871D01*
X135604963Y-104250083D01*
X135634277Y-104255914D01*
X136054074Y-104255913D01*
X136083389Y-104250083D01*
X136116633Y-104227871D01*
X136138845Y-104194627D01*
X136144676Y-104165313D01*
X136144675Y-102395516D01*
X136138845Y-102366201D01*
X136116633Y-102332957D01*
X136083389Y-102310745D01*
X136083388Y-102310744D01*
X136083387Y-102310744D01*
X136061352Y-102306361D01*
X136054075Y-102304914D01*
X136054074Y-102304914D01*
X135634279Y-102304914D01*
X135604962Y-102310745D01*
X135604961Y-102310745D01*
X135597722Y-102315582D01*
X135587213Y-102317672D01*
X135578304Y-102311718D01*
X135576214Y-102301209D01*
X135577821Y-102296941D01*
X135584465Y-102285434D01*
X135594331Y-102268346D01*
X135606221Y-102200915D01*
X135612733Y-102163985D01*
X135612733Y-102163980D01*
X135599564Y-102089298D01*
X137400333Y-102089298D01*
X137418734Y-102193658D01*
X137471718Y-102285431D01*
X137471720Y-102285433D01*
X137471721Y-102285434D01*
X137494937Y-102304914D01*
X137514489Y-102321320D01*
X137519437Y-102330825D01*
X137517131Y-102339823D01*
X137499506Y-102366201D01*
X137493676Y-102395515D01*
X137493676Y-104165310D01*
X137498059Y-104187348D01*
X137499507Y-104194627D01*
X137521719Y-104227871D01*
X137554963Y-104250083D01*
X137584277Y-104255914D01*
X138004074Y-104255913D01*
X138033389Y-104250083D01*
X138066633Y-104227871D01*
X138088845Y-104194627D01*
X138094676Y-104165313D01*
X138094676Y-104165310D01*
X138143676Y-104165310D01*
X138148059Y-104187348D01*
X138149507Y-104194627D01*
X138171719Y-104227871D01*
X138204963Y-104250083D01*
X138234277Y-104255914D01*
X138285416Y-104255913D01*
X138295314Y-104260013D01*
X138299415Y-104269913D01*
X138295315Y-104279812D01*
X138294414Y-104280637D01*
X138231383Y-104333527D01*
X138231381Y-104333530D01*
X138178396Y-104425303D01*
X138159995Y-104529663D01*
X138159995Y-104529668D01*
X138178396Y-104634028D01*
X138231380Y-104725801D01*
X138231382Y-104725803D01*
X138231383Y-104725804D01*
X138312563Y-104793922D01*
X138412145Y-104830166D01*
X138412146Y-104830166D01*
X138518116Y-104830166D01*
X138518117Y-104830166D01*
X138617699Y-104793922D01*
X138698879Y-104725804D01*
X138706067Y-104713355D01*
X138741756Y-104651538D01*
X138751865Y-104634029D01*
X138765976Y-104554001D01*
X138770267Y-104529668D01*
X138770267Y-104529663D01*
X138751865Y-104425303D01*
X138698881Y-104333530D01*
X138698877Y-104333527D01*
X138635846Y-104280637D01*
X138630899Y-104271133D01*
X138634121Y-104260914D01*
X138643626Y-104255966D01*
X138644846Y-104255913D01*
X138654073Y-104255913D01*
X138654074Y-104255913D01*
X138683389Y-104250083D01*
X138716633Y-104227871D01*
X138738845Y-104194627D01*
X138744676Y-104165313D01*
X138744675Y-102395516D01*
X138738845Y-102366201D01*
X138716633Y-102332957D01*
X138683389Y-102310745D01*
X138683388Y-102310744D01*
X138683387Y-102310744D01*
X138661352Y-102306361D01*
X138654075Y-102304914D01*
X138654074Y-102304914D01*
X138234279Y-102304914D01*
X138204963Y-102310745D01*
X138171719Y-102332957D01*
X138149506Y-102366202D01*
X138143676Y-102395515D01*
X138143676Y-104165310D01*
X138094676Y-104165310D01*
X138094675Y-102395516D01*
X138088845Y-102366201D01*
X138066633Y-102332957D01*
X138033389Y-102310745D01*
X138033388Y-102310744D01*
X138033387Y-102310744D01*
X138004075Y-102304914D01*
X137952219Y-102304914D01*
X137942320Y-102300813D01*
X137938219Y-102290914D01*
X137940095Y-102283914D01*
X137973092Y-102226760D01*
X137992203Y-102193659D01*
X138000421Y-102147050D01*
X138010605Y-102089298D01*
X138010605Y-102089293D01*
X137992203Y-101984933D01*
X137939219Y-101893160D01*
X137935042Y-101889655D01*
X137858037Y-101825040D01*
X137808246Y-101806918D01*
X137758456Y-101788796D01*
X137758455Y-101788796D01*
X137652483Y-101788796D01*
X137652481Y-101788796D01*
X137552901Y-101825040D01*
X137471718Y-101893160D01*
X137418734Y-101984933D01*
X137400333Y-102089293D01*
X137400333Y-102089298D01*
X135599564Y-102089298D01*
X135594331Y-102059620D01*
X135541347Y-101967847D01*
X135541345Y-101967845D01*
X135460165Y-101899727D01*
X135421224Y-101885554D01*
X135369905Y-101866875D01*
X135362005Y-101859636D01*
X135361537Y-101848931D01*
X135368776Y-101841031D01*
X135369893Y-101840568D01*
X135381343Y-101836401D01*
X135462523Y-101768283D01*
X135470320Y-101754779D01*
X135506830Y-101691540D01*
X135515509Y-101676508D01*
X135524009Y-101628300D01*
X135533911Y-101572147D01*
X135533911Y-101570920D01*
X135534263Y-101570920D01*
X135536261Y-101561888D01*
X135545296Y-101556127D01*
X135547733Y-101555913D01*
X136904073Y-101555913D01*
X136904074Y-101555913D01*
X136933389Y-101550083D01*
X136966633Y-101527871D01*
X136988845Y-101494627D01*
X136994676Y-101465313D01*
X136994675Y-99013999D01*
X136998776Y-99004101D01*
X137008675Y-99000000D01*
X137279676Y-99000000D01*
X137289575Y-99004101D01*
X137293676Y-99014000D01*
X137293676Y-101465310D01*
X137293677Y-101465313D01*
X137299507Y-101494627D01*
X137321719Y-101527871D01*
X137354963Y-101550083D01*
X137384277Y-101555914D01*
X138829074Y-101555913D01*
X138858389Y-101550083D01*
X138891633Y-101527871D01*
X138913845Y-101494627D01*
X138919676Y-101465313D01*
X138919675Y-99013999D01*
X138923776Y-99004101D01*
X138933675Y-99000000D01*
X139336000Y-99000000D01*
X139345899Y-99004101D01*
X139350000Y-99014000D01*
X139350000Y-99373204D01*
X139345899Y-99383103D01*
X139345285Y-99383682D01*
X139340992Y-99387485D01*
X139244357Y-99527485D01*
X139184036Y-99686537D01*
X139184036Y-99686539D01*
X139168676Y-99813036D01*
X139168676Y-101097791D01*
X139184036Y-101224288D01*
X139184036Y-101224290D01*
X139244357Y-101383342D01*
X139244358Y-101383344D01*
X139272816Y-101424572D01*
X139340991Y-101523341D01*
X139340992Y-101523342D01*
X139340993Y-101523343D01*
X139345283Y-101527144D01*
X139349974Y-101536775D01*
X139350000Y-101537622D01*
X139350000Y-101875655D01*
X139345899Y-101885554D01*
X139336000Y-101889655D01*
X139326101Y-101885554D01*
X139323876Y-101882655D01*
X139309972Y-101858572D01*
X139309970Y-101858570D01*
X139228790Y-101790452D01*
X139171292Y-101769525D01*
X139129209Y-101754208D01*
X139129208Y-101754208D01*
X139023236Y-101754208D01*
X139023234Y-101754208D01*
X138923654Y-101790452D01*
X138842471Y-101858572D01*
X138789487Y-101950345D01*
X138771086Y-102054705D01*
X138771086Y-102054710D01*
X138789487Y-102159070D01*
X138842471Y-102250843D01*
X138842473Y-102250845D01*
X138842474Y-102250846D01*
X138923654Y-102318964D01*
X139023236Y-102355208D01*
X139023237Y-102355208D01*
X139129207Y-102355208D01*
X139129208Y-102355208D01*
X139228790Y-102318964D01*
X139309970Y-102250846D01*
X139323875Y-102226760D01*
X139332376Y-102220237D01*
X139343000Y-102221636D01*
X139349523Y-102230136D01*
X139350000Y-102233760D01*
X139350000Y-102696821D01*
X139345899Y-102706720D01*
X139341115Y-102709853D01*
X139333798Y-102712725D01*
X139224086Y-102800216D01*
X139224084Y-102800218D01*
X139145040Y-102916156D01*
X139145037Y-102916161D01*
X139103676Y-103050252D01*
X139103676Y-103885298D01*
X139119332Y-103989173D01*
X139156314Y-104065966D01*
X139180217Y-104115601D01*
X139226340Y-104165310D01*
X139275663Y-104218468D01*
X139308238Y-104237274D01*
X139343001Y-104257344D01*
X139349523Y-104265843D01*
X139350000Y-104269467D01*
X139350000Y-104968347D01*
X139345899Y-104978246D01*
X139344999Y-104979071D01*
X139327765Y-104993532D01*
X139327763Y-104993535D01*
X139274778Y-105085308D01*
X139256377Y-105189668D01*
X139256377Y-105189673D01*
X139274778Y-105294033D01*
X139327762Y-105385806D01*
X139327764Y-105385808D01*
X139327765Y-105385809D01*
X139344999Y-105400270D01*
X139349947Y-105409774D01*
X139350000Y-105410994D01*
X139350000Y-105549324D01*
X139345899Y-105559223D01*
X139336000Y-105563324D01*
X139328222Y-105560965D01*
X139310800Y-105549324D01*
X139297991Y-105540765D01*
X139297978Y-105540754D01*
X139296699Y-105539899D01*
X139278824Y-105527957D01*
X139274912Y-105525343D01*
X139274908Y-105525338D01*
X139274908Y-105525340D01*
X139259147Y-105514803D01*
X139258969Y-105514691D01*
X139255413Y-105512315D01*
X139253071Y-105511520D01*
X139251167Y-105510712D01*
X139235160Y-105502476D01*
X139235159Y-105502475D01*
X139235156Y-105502474D01*
X139226760Y-105499298D01*
X139218344Y-105496115D01*
X139216471Y-105495243D01*
X139214303Y-105494032D01*
X139210087Y-105492964D01*
X139209909Y-105492914D01*
X139196679Y-105489571D01*
X139192272Y-105488455D01*
X138493537Y-105311597D01*
X138490785Y-105310583D01*
X138489443Y-105309922D01*
X138489441Y-105309921D01*
X138477818Y-105307609D01*
X138477467Y-105307529D01*
X138465983Y-105304623D01*
X138465982Y-105304623D01*
X138464515Y-105304642D01*
X138461587Y-105304373D01*
X138455663Y-105303190D01*
X138439431Y-105299949D01*
X138439214Y-105299930D01*
X138427565Y-105297613D01*
X138427435Y-105297571D01*
X138400439Y-105292214D01*
X138400419Y-105292201D01*
X138386266Y-105289394D01*
X138386176Y-105289380D01*
X138382043Y-105288558D01*
X138377269Y-105287608D01*
X138374866Y-105287765D01*
X138372273Y-105287693D01*
X138368530Y-105287240D01*
X138368529Y-105287240D01*
X138368521Y-105287239D01*
X138365566Y-105287103D01*
X138364869Y-105287071D01*
X138362282Y-105286708D01*
X138359947Y-105286154D01*
X138350756Y-105286420D01*
X138350693Y-105286420D01*
X138344832Y-105286591D01*
X137085060Y-105322959D01*
X137075046Y-105319146D01*
X137072536Y-105315971D01*
X137047560Y-105272711D01*
X136966380Y-105204593D01*
X136916588Y-105186471D01*
X136866799Y-105168349D01*
X136866798Y-105168349D01*
X136760826Y-105168349D01*
X136760824Y-105168349D01*
X136661244Y-105204593D01*
X136580061Y-105272713D01*
X136527077Y-105364486D01*
X136508676Y-105468846D01*
X136508676Y-105468851D01*
X136525419Y-105563811D01*
X136523100Y-105574272D01*
X136514063Y-105580029D01*
X136513459Y-105580122D01*
X136417433Y-105592764D01*
X136383788Y-105597194D01*
X136383787Y-105597194D01*
X136237708Y-105657702D01*
X136237706Y-105657703D01*
X136112268Y-105753956D01*
X136016015Y-105879394D01*
X136016014Y-105879396D01*
X135955506Y-106025475D01*
X135955506Y-106025477D01*
X135936436Y-106170330D01*
X135934868Y-106182238D01*
X135953938Y-106327092D01*
X135955506Y-106338998D01*
X135955506Y-106339000D01*
X136016014Y-106485079D01*
X136016015Y-106485081D01*
X136031789Y-106505638D01*
X136112268Y-106610520D01*
X136225682Y-106697545D01*
X136231039Y-106706825D01*
X136228266Y-106717175D01*
X136224937Y-106720292D01*
X136222393Y-106721992D01*
X136219155Y-106724156D01*
X136216991Y-106725602D01*
X136204538Y-106733921D01*
X136189523Y-106743952D01*
X136189506Y-106743967D01*
X136039666Y-106844087D01*
X136039664Y-106844089D01*
X136038252Y-106845698D01*
X136037606Y-106846342D01*
X136018357Y-106863220D01*
X136001435Y-106882510D01*
X136000793Y-106883154D01*
X135999203Y-106884550D01*
X135999195Y-106884559D01*
X135990161Y-106898080D01*
X135989463Y-106899125D01*
X135989116Y-106899645D01*
X135978281Y-106915856D01*
X135971170Y-106926496D01*
X135971164Y-106926507D01*
X135870627Y-107076974D01*
X135870624Y-107076980D01*
X135869938Y-107078999D01*
X135869589Y-107079842D01*
X135858266Y-107102799D01*
X135858259Y-107102816D01*
X135850013Y-107127103D01*
X135849663Y-107127946D01*
X135848728Y-107129843D01*
X135848728Y-107129844D01*
X135845185Y-107147656D01*
X135838736Y-107180061D01*
X135838735Y-107180079D01*
X135813556Y-107306654D01*
X135813514Y-107306789D01*
X135808198Y-107333584D01*
X135808178Y-107333615D01*
X135804033Y-107354498D01*
X135804000Y-107354693D01*
X135803578Y-107356822D01*
X135803578Y-107356823D01*
X135803709Y-107358833D01*
X135803709Y-107359745D01*
X135802033Y-107385484D01*
X135802033Y-107385488D01*
X135803715Y-107411028D01*
X135803715Y-107411944D01*
X135803577Y-107414048D01*
X135803578Y-107414052D01*
X135804033Y-107416339D01*
X135804055Y-107416469D01*
X135806156Y-107427014D01*
X135848727Y-107641029D01*
X135848728Y-107641030D01*
X135849675Y-107642950D01*
X135850026Y-107643798D01*
X135851279Y-107647489D01*
X135858250Y-107668035D01*
X135858252Y-107668039D01*
X135858253Y-107668042D01*
X135858255Y-107668045D01*
X135869595Y-107691049D01*
X135869945Y-107691894D01*
X135870625Y-107693897D01*
X135870626Y-107693898D01*
X135870627Y-107693901D01*
X135879627Y-107707370D01*
X135883225Y-107712755D01*
X135899212Y-107736687D01*
X135899229Y-107736706D01*
X135978761Y-107855733D01*
X135979205Y-107856498D01*
X135979236Y-107856561D01*
X135979515Y-107856975D01*
X135979956Y-107857726D01*
X135980139Y-107858089D01*
X135989818Y-107872280D01*
X135999198Y-107886319D01*
X135999240Y-107886366D01*
X135999782Y-107887071D01*
X136000059Y-107887483D01*
X136000330Y-107887789D01*
X136000861Y-107888472D01*
X137190355Y-109632488D01*
X137769162Y-110481125D01*
X137770339Y-110483216D01*
X137771459Y-110485678D01*
X137773642Y-110488331D01*
X137775984Y-110491178D01*
X137776361Y-110491680D01*
X137780391Y-110497588D01*
X137782456Y-110499365D01*
X137784133Y-110501080D01*
X138128389Y-110919412D01*
X138131513Y-110929662D01*
X138126475Y-110939118D01*
X138116225Y-110942242D01*
X138114848Y-110942039D01*
X138055165Y-110930168D01*
X137967180Y-110947668D01*
X137892588Y-110997509D01*
X137842747Y-111072101D01*
X137825247Y-111160085D01*
X137825247Y-111160086D01*
X137842747Y-111248070D01*
X137842747Y-111248071D01*
X137842748Y-111248072D01*
X137892588Y-111322663D01*
X137967179Y-111372503D01*
X137968326Y-111373269D01*
X137967974Y-111373794D01*
X137973910Y-111379738D01*
X137973902Y-111390453D01*
X137967975Y-111396379D01*
X137968326Y-111396903D01*
X137967179Y-111397668D01*
X137967179Y-111397669D01*
X137892588Y-111447509D01*
X137842747Y-111522101D01*
X137825247Y-111610085D01*
X137825247Y-111610086D01*
X137842747Y-111698070D01*
X137842747Y-111698071D01*
X137842748Y-111698072D01*
X137892588Y-111772663D01*
X137967179Y-111822503D01*
X137968326Y-111823269D01*
X137967972Y-111823798D01*
X137973900Y-111829711D01*
X137973913Y-111840426D01*
X137967976Y-111846381D01*
X137968325Y-111846903D01*
X137892588Y-111897509D01*
X137841982Y-111973247D01*
X137841456Y-111972895D01*
X137835513Y-111978831D01*
X137824798Y-111978823D01*
X137818871Y-111972896D01*
X137818348Y-111973247D01*
X137802304Y-111949235D01*
X137767742Y-111897509D01*
X137693151Y-111847669D01*
X137693150Y-111847668D01*
X137693149Y-111847668D01*
X137605165Y-111830168D01*
X137517180Y-111847668D01*
X137442588Y-111897509D01*
X137392747Y-111972101D01*
X137375247Y-112060085D01*
X137375247Y-112060086D01*
X137392747Y-112148070D01*
X137392747Y-112148071D01*
X137392748Y-112148072D01*
X137442588Y-112222663D01*
X137517179Y-112272503D01*
X137605165Y-112290004D01*
X137693151Y-112272503D01*
X137767742Y-112222663D01*
X137817582Y-112148072D01*
X137817582Y-112148071D01*
X137818348Y-112146925D01*
X137818874Y-112147276D01*
X137824806Y-112141344D01*
X137835522Y-112141343D01*
X137841456Y-112147276D01*
X137841982Y-112146925D01*
X137842747Y-112148071D01*
X137842748Y-112148072D01*
X137892588Y-112222663D01*
X137967179Y-112272503D01*
X138055165Y-112290004D01*
X138143151Y-112272503D01*
X138217742Y-112222663D01*
X138267582Y-112148072D01*
X138267582Y-112148071D01*
X138268348Y-112146925D01*
X138268874Y-112147276D01*
X138274806Y-112141344D01*
X138285522Y-112141343D01*
X138291456Y-112147276D01*
X138291982Y-112146925D01*
X138292747Y-112148071D01*
X138292748Y-112148072D01*
X138342588Y-112222663D01*
X138417179Y-112272503D01*
X138423690Y-112273798D01*
X138505164Y-112290004D01*
X138505164Y-112290003D01*
X138505165Y-112290004D01*
X138593151Y-112272503D01*
X138667742Y-112222663D01*
X138717582Y-112148072D01*
X138717582Y-112148071D01*
X138718348Y-112146925D01*
X138718874Y-112147276D01*
X138724806Y-112141344D01*
X138735522Y-112141343D01*
X138741456Y-112147276D01*
X138741982Y-112146925D01*
X138742747Y-112148071D01*
X138742748Y-112148072D01*
X138792588Y-112222663D01*
X138867179Y-112272503D01*
X138873690Y-112273798D01*
X138955164Y-112290004D01*
X138955164Y-112290003D01*
X138955165Y-112290004D01*
X139043151Y-112272503D01*
X139117742Y-112222663D01*
X139167582Y-112148072D01*
X139167582Y-112148071D01*
X139168348Y-112146925D01*
X139168874Y-112147276D01*
X139174806Y-112141344D01*
X139185522Y-112141343D01*
X139191456Y-112147276D01*
X139191982Y-112146925D01*
X139192747Y-112148071D01*
X139192748Y-112148072D01*
X139242588Y-112222663D01*
X139317179Y-112272503D01*
X139318326Y-112273269D01*
X139317972Y-112273798D01*
X139323900Y-112279711D01*
X139323913Y-112290426D01*
X139317976Y-112296381D01*
X139318325Y-112296903D01*
X139242588Y-112347509D01*
X139192747Y-112422101D01*
X139175247Y-112510085D01*
X139175247Y-112510086D01*
X139192747Y-112598070D01*
X139192747Y-112598071D01*
X139192748Y-112598072D01*
X139242588Y-112672663D01*
X139317179Y-112722503D01*
X139338732Y-112726790D01*
X139347640Y-112732742D01*
X139350000Y-112740520D01*
X139350000Y-116281391D01*
X139345899Y-116291290D01*
X139336000Y-116295391D01*
X139333691Y-116295391D01*
X139234111Y-116331635D01*
X139152928Y-116399755D01*
X139099944Y-116491528D01*
X139081543Y-116595888D01*
X139081543Y-116595893D01*
X139099944Y-116700253D01*
X139152928Y-116792026D01*
X139152930Y-116792028D01*
X139152931Y-116792029D01*
X139234111Y-116860147D01*
X139333693Y-116896391D01*
X139333694Y-116896391D01*
X139336000Y-116896391D01*
X139345899Y-116900492D01*
X139350000Y-116910391D01*
X139350000Y-116986000D01*
X139345899Y-116995899D01*
X139336000Y-117000000D01*
X135777675Y-117000000D01*
X135767776Y-116995899D01*
X135763888Y-116988431D01*
X135748529Y-116901325D01*
X135695545Y-116809552D01*
X135695543Y-116809550D01*
X135614363Y-116741432D01*
X135561495Y-116722190D01*
X135514782Y-116705188D01*
X135514781Y-116705188D01*
X135408809Y-116705188D01*
X135408807Y-116705188D01*
X135309227Y-116741432D01*
X135228044Y-116809552D01*
X135207122Y-116845792D01*
X135198621Y-116852315D01*
X135187998Y-116850916D01*
X135182874Y-116845792D01*
X135168496Y-116820887D01*
X135168494Y-116820885D01*
X135087314Y-116752767D01*
X135037523Y-116734644D01*
X134987733Y-116716523D01*
X134987732Y-116716523D01*
X134881760Y-116716523D01*
X134881758Y-116716523D01*
X134782178Y-116752767D01*
X134700995Y-116820887D01*
X134687376Y-116844477D01*
X134678875Y-116851000D01*
X134668252Y-116849601D01*
X134663128Y-116844478D01*
X134652779Y-116826552D01*
X134571599Y-116758434D01*
X134509315Y-116735765D01*
X134472018Y-116722190D01*
X134472017Y-116722190D01*
X134366045Y-116722190D01*
X134366043Y-116722190D01*
X134266463Y-116758434D01*
X134185280Y-116826554D01*
X134175372Y-116843717D01*
X134166871Y-116850240D01*
X134156248Y-116848841D01*
X134151124Y-116843717D01*
X134131399Y-116809552D01*
X134131397Y-116809550D01*
X134050217Y-116741432D01*
X133997349Y-116722190D01*
X133950636Y-116705188D01*
X133950635Y-116705188D01*
X133844663Y-116705188D01*
X133844661Y-116705188D01*
X133745081Y-116741432D01*
X133663898Y-116809552D01*
X133656385Y-116822566D01*
X133647884Y-116829089D01*
X133637261Y-116827690D01*
X133632137Y-116822566D01*
X133621352Y-116803885D01*
X133621350Y-116803883D01*
X133540170Y-116735765D01*
X133484700Y-116715576D01*
X133440589Y-116699521D01*
X133440588Y-116699521D01*
X133334616Y-116699521D01*
X133334614Y-116699521D01*
X133235034Y-116735765D01*
X133153851Y-116803885D01*
X133141646Y-116825026D01*
X133133145Y-116831549D01*
X133122522Y-116830150D01*
X133117398Y-116825026D01*
X133106528Y-116806198D01*
X133106526Y-116806196D01*
X133025346Y-116738078D01*
X132963521Y-116715576D01*
X132925765Y-116701834D01*
X132925764Y-116701834D01*
X132819792Y-116701834D01*
X132819790Y-116701834D01*
X132720210Y-116738078D01*
X132639027Y-116806198D01*
X132625628Y-116829408D01*
X132617127Y-116835931D01*
X132606504Y-116834532D01*
X132601380Y-116829408D01*
X132587980Y-116806198D01*
X132587978Y-116806196D01*
X132506798Y-116738078D01*
X132444973Y-116715576D01*
X132407217Y-116701834D01*
X132407216Y-116701834D01*
X132301244Y-116701834D01*
X132301242Y-116701834D01*
X132201662Y-116738078D01*
X132120479Y-116806198D01*
X132109095Y-116825917D01*
X132100594Y-116832440D01*
X132089971Y-116831041D01*
X132084847Y-116825917D01*
X132075099Y-116809032D01*
X132075097Y-116809030D01*
X131993917Y-116740912D01*
X131944125Y-116722790D01*
X131894336Y-116704668D01*
X131894335Y-116704668D01*
X131788363Y-116704668D01*
X131788361Y-116704668D01*
X131688781Y-116740912D01*
X131607598Y-116809032D01*
X131595769Y-116829521D01*
X131587268Y-116836044D01*
X131576645Y-116834645D01*
X131571522Y-116829523D01*
X131558945Y-116807738D01*
X131477765Y-116739620D01*
X131383162Y-116705188D01*
X131378184Y-116703376D01*
X131378183Y-116703376D01*
X131272211Y-116703376D01*
X131272209Y-116703376D01*
X131172629Y-116739620D01*
X131091446Y-116807740D01*
X131083786Y-116821009D01*
X131075285Y-116827532D01*
X131064662Y-116826133D01*
X131059538Y-116821009D01*
X131037996Y-116783696D01*
X131007890Y-116758434D01*
X130956814Y-116715576D01*
X130907022Y-116697453D01*
X130857233Y-116679332D01*
X130857232Y-116679332D01*
X130751260Y-116679332D01*
X130751258Y-116679332D01*
X130651678Y-116715576D01*
X130570495Y-116783696D01*
X130526124Y-116860551D01*
X130517623Y-116867074D01*
X130507000Y-116865675D01*
X130500477Y-116857174D01*
X130500000Y-116853551D01*
X130500000Y-114967586D01*
X136177747Y-114967586D01*
X136195247Y-115055570D01*
X136195247Y-115055571D01*
X136195248Y-115055572D01*
X136245088Y-115130163D01*
X136319679Y-115180003D01*
X136407665Y-115197504D01*
X136495651Y-115180003D01*
X136570242Y-115130163D01*
X136620082Y-115055572D01*
X136620082Y-115055571D01*
X136620848Y-115054425D01*
X136621379Y-115054780D01*
X136627279Y-115048855D01*
X136637994Y-115048833D01*
X136643961Y-115054774D01*
X136644482Y-115054426D01*
X136645248Y-115055572D01*
X136695088Y-115130163D01*
X136769679Y-115180003D01*
X136813671Y-115188753D01*
X136857664Y-115197504D01*
X136857664Y-115197503D01*
X136857665Y-115197504D01*
X136945651Y-115180003D01*
X137020242Y-115130163D01*
X137070082Y-115055572D01*
X137087583Y-114967586D01*
X137527747Y-114967586D01*
X137545247Y-115055570D01*
X137545247Y-115055571D01*
X137545248Y-115055572D01*
X137595088Y-115130163D01*
X137669679Y-115180003D01*
X137713672Y-115188753D01*
X137757664Y-115197504D01*
X137757664Y-115197503D01*
X137757665Y-115197504D01*
X137845651Y-115180003D01*
X137920242Y-115130163D01*
X137970082Y-115055572D01*
X137987583Y-114967586D01*
X137970082Y-114879600D01*
X137920242Y-114805009D01*
X137853010Y-114760086D01*
X138275247Y-114760086D01*
X138292747Y-114848070D01*
X138292747Y-114848071D01*
X138292748Y-114848072D01*
X138342588Y-114922663D01*
X138417179Y-114972503D01*
X138505165Y-114990004D01*
X138593151Y-114972503D01*
X138667742Y-114922663D01*
X138717582Y-114848072D01*
X138735083Y-114760086D01*
X138733848Y-114753879D01*
X138719186Y-114680163D01*
X138717582Y-114672100D01*
X138667742Y-114597509D01*
X138593151Y-114547669D01*
X138593150Y-114547668D01*
X138593149Y-114547668D01*
X138505165Y-114530168D01*
X138417180Y-114547668D01*
X138342588Y-114597509D01*
X138292747Y-114672101D01*
X138275247Y-114760085D01*
X138275247Y-114760086D01*
X137853010Y-114760086D01*
X137845651Y-114755169D01*
X137845650Y-114755168D01*
X137844504Y-114754403D01*
X137844855Y-114753876D01*
X137838923Y-114747945D01*
X137838922Y-114737229D01*
X137844855Y-114731294D01*
X137844504Y-114730769D01*
X137845650Y-114730003D01*
X137845651Y-114730003D01*
X137920242Y-114680163D01*
X137970082Y-114605572D01*
X137987583Y-114517586D01*
X137970082Y-114429600D01*
X137920242Y-114355009D01*
X137845651Y-114305169D01*
X137845650Y-114305168D01*
X137845649Y-114305168D01*
X137757665Y-114287668D01*
X137669680Y-114305168D01*
X137595088Y-114355009D01*
X137545247Y-114429601D01*
X137527747Y-114517585D01*
X137527747Y-114517586D01*
X137545247Y-114605570D01*
X137545247Y-114605571D01*
X137545248Y-114605572D01*
X137595088Y-114680163D01*
X137669679Y-114730003D01*
X137670826Y-114730769D01*
X137670474Y-114731294D01*
X137676410Y-114737238D01*
X137676402Y-114747953D01*
X137670475Y-114753879D01*
X137670826Y-114754403D01*
X137669679Y-114755168D01*
X137669679Y-114755169D01*
X137595087Y-114805009D01*
X137595088Y-114805009D01*
X137545247Y-114879601D01*
X137527747Y-114967585D01*
X137527747Y-114967586D01*
X137087583Y-114967586D01*
X137070082Y-114879600D01*
X137020242Y-114805009D01*
X136945651Y-114755169D01*
X136945650Y-114755168D01*
X136945649Y-114755168D01*
X136857665Y-114737668D01*
X136769680Y-114755168D01*
X136762320Y-114760086D01*
X136695088Y-114805009D01*
X136666315Y-114848072D01*
X136644482Y-114880747D01*
X136643956Y-114880395D01*
X136638013Y-114886331D01*
X136627298Y-114886323D01*
X136621371Y-114880396D01*
X136620848Y-114880747D01*
X136620082Y-114879600D01*
X136570242Y-114805009D01*
X136495651Y-114755169D01*
X136495650Y-114755168D01*
X136495649Y-114755168D01*
X136407665Y-114737668D01*
X136319680Y-114755168D01*
X136245088Y-114805009D01*
X136195247Y-114879601D01*
X136177747Y-114967585D01*
X136177747Y-114967586D01*
X130500000Y-114967586D01*
X130500000Y-114067586D01*
X136177747Y-114067586D01*
X136195247Y-114155570D01*
X136195247Y-114155571D01*
X136195248Y-114155572D01*
X136245088Y-114230163D01*
X136319679Y-114280003D01*
X136407665Y-114297504D01*
X136495651Y-114280003D01*
X136570242Y-114230163D01*
X136620082Y-114155572D01*
X136637583Y-114067586D01*
X136620082Y-113979600D01*
X136570242Y-113905009D01*
X136495651Y-113855169D01*
X136495650Y-113855168D01*
X136494504Y-113854403D01*
X136494855Y-113853876D01*
X136488923Y-113847945D01*
X136488922Y-113837229D01*
X136494855Y-113831294D01*
X136494504Y-113830769D01*
X136495650Y-113830003D01*
X136495651Y-113830003D01*
X136570242Y-113780163D01*
X136620082Y-113705572D01*
X136637583Y-113617586D01*
X136620082Y-113529600D01*
X136570242Y-113455009D01*
X136495651Y-113405169D01*
X136495650Y-113405168D01*
X136495649Y-113405168D01*
X136407665Y-113387668D01*
X136319680Y-113405168D01*
X136245088Y-113455009D01*
X136195247Y-113529601D01*
X136177747Y-113617585D01*
X136177747Y-113617586D01*
X136195247Y-113705570D01*
X136195247Y-113705571D01*
X136195248Y-113705572D01*
X136245088Y-113780163D01*
X136319679Y-113830003D01*
X136320826Y-113830769D01*
X136320474Y-113831294D01*
X136326410Y-113837238D01*
X136326402Y-113847953D01*
X136320475Y-113853879D01*
X136320826Y-113854403D01*
X136319679Y-113855168D01*
X136319679Y-113855169D01*
X136245088Y-113905009D01*
X136195247Y-113979601D01*
X136177747Y-114067585D01*
X136177747Y-114067586D01*
X130500000Y-114067586D01*
X130500000Y-113110805D01*
X135827428Y-113110805D01*
X135845829Y-113215165D01*
X135898813Y-113306938D01*
X135898815Y-113306940D01*
X135898816Y-113306941D01*
X135979996Y-113375059D01*
X136079578Y-113411303D01*
X136079579Y-113411303D01*
X136185549Y-113411303D01*
X136185550Y-113411303D01*
X136285132Y-113375059D01*
X136366312Y-113306941D01*
X136419298Y-113215166D01*
X136437700Y-113110803D01*
X136437700Y-113110800D01*
X136419298Y-113006440D01*
X136392536Y-112960086D01*
X136475247Y-112960086D01*
X136492747Y-113048070D01*
X136492747Y-113048071D01*
X136492748Y-113048072D01*
X136542588Y-113122663D01*
X136617179Y-113172503D01*
X136705165Y-113190004D01*
X136793151Y-113172503D01*
X136867742Y-113122663D01*
X136917582Y-113048072D01*
X136917582Y-113048071D01*
X136918348Y-113046925D01*
X136918874Y-113047276D01*
X136924806Y-113041344D01*
X136935522Y-113041343D01*
X136941456Y-113047276D01*
X136941982Y-113046925D01*
X136942747Y-113048071D01*
X136942748Y-113048072D01*
X136992588Y-113122663D01*
X137067179Y-113172503D01*
X137155165Y-113190004D01*
X137243151Y-113172503D01*
X137317742Y-113122663D01*
X137367582Y-113048072D01*
X137385083Y-112960086D01*
X137384377Y-112956539D01*
X137367582Y-112872101D01*
X137367582Y-112872100D01*
X137317742Y-112797509D01*
X137243151Y-112747669D01*
X137243150Y-112747668D01*
X137243149Y-112747668D01*
X137155165Y-112730168D01*
X137067180Y-112747668D01*
X137048121Y-112760403D01*
X136992588Y-112797509D01*
X136956060Y-112852178D01*
X136941982Y-112873247D01*
X136941456Y-112872895D01*
X136935513Y-112878831D01*
X136924798Y-112878823D01*
X136918871Y-112872896D01*
X136918348Y-112873247D01*
X136917582Y-112872100D01*
X136867742Y-112797509D01*
X136793151Y-112747669D01*
X136793150Y-112747668D01*
X136793149Y-112747668D01*
X136705165Y-112730168D01*
X136617180Y-112747668D01*
X136542588Y-112797509D01*
X136492747Y-112872101D01*
X136475247Y-112960085D01*
X136475247Y-112960086D01*
X136392536Y-112960086D01*
X136366314Y-112914667D01*
X136366312Y-112914665D01*
X136285132Y-112846547D01*
X136235340Y-112828424D01*
X136185551Y-112810303D01*
X136185550Y-112810303D01*
X136079578Y-112810303D01*
X136079576Y-112810303D01*
X135979996Y-112846547D01*
X135898813Y-112914667D01*
X135845829Y-113006440D01*
X135827428Y-113110800D01*
X135827428Y-113110805D01*
X130500000Y-113110805D01*
X130500000Y-112656042D01*
X133585817Y-112656042D01*
X133604218Y-112760402D01*
X133657202Y-112852175D01*
X133657204Y-112852177D01*
X133657205Y-112852178D01*
X133738385Y-112920296D01*
X133837967Y-112956540D01*
X133837968Y-112956540D01*
X133943938Y-112956540D01*
X133943939Y-112956540D01*
X134043521Y-112920296D01*
X134124701Y-112852178D01*
X134177687Y-112760403D01*
X134196089Y-112656040D01*
X134196089Y-112656037D01*
X134177687Y-112551677D01*
X134124703Y-112459904D01*
X134079650Y-112422100D01*
X134043521Y-112391784D01*
X133993730Y-112373662D01*
X133943940Y-112355540D01*
X133943939Y-112355540D01*
X133837967Y-112355540D01*
X133837965Y-112355540D01*
X133738385Y-112391784D01*
X133657202Y-112459904D01*
X133604218Y-112551677D01*
X133585817Y-112656037D01*
X133585817Y-112656042D01*
X130500000Y-112656042D01*
X130500000Y-111949235D01*
X135392067Y-111949235D01*
X135410468Y-112053595D01*
X135463452Y-112145368D01*
X135463454Y-112145370D01*
X135463455Y-112145371D01*
X135544635Y-112213489D01*
X135644217Y-112249733D01*
X135644218Y-112249733D01*
X135750188Y-112249733D01*
X135750189Y-112249733D01*
X135849771Y-112213489D01*
X135930951Y-112145371D01*
X135980190Y-112060086D01*
X136475247Y-112060086D01*
X136492747Y-112148070D01*
X136492747Y-112148071D01*
X136492748Y-112148072D01*
X136542588Y-112222663D01*
X136617179Y-112272503D01*
X136705165Y-112290004D01*
X136793151Y-112272503D01*
X136867742Y-112222663D01*
X136917582Y-112148072D01*
X136935083Y-112060086D01*
X136917582Y-111972100D01*
X136867742Y-111897509D01*
X136793151Y-111847669D01*
X136793150Y-111847668D01*
X136793149Y-111847668D01*
X136705165Y-111830168D01*
X136617180Y-111847668D01*
X136542588Y-111897509D01*
X136492747Y-111972101D01*
X136475247Y-112060085D01*
X136475247Y-112060086D01*
X135980190Y-112060086D01*
X135983937Y-112053596D01*
X135997120Y-111978831D01*
X136002339Y-111949235D01*
X136002339Y-111949230D01*
X135983937Y-111844870D01*
X135930953Y-111753097D01*
X135930951Y-111753095D01*
X135849771Y-111684977D01*
X135799980Y-111666855D01*
X135750190Y-111648733D01*
X135750189Y-111648733D01*
X135644217Y-111648733D01*
X135644215Y-111648733D01*
X135544635Y-111684977D01*
X135463452Y-111753097D01*
X135410468Y-111844870D01*
X135392067Y-111949230D01*
X135392067Y-111949235D01*
X130500000Y-111949235D01*
X130500000Y-110946591D01*
X135780406Y-110946591D01*
X135798807Y-111050951D01*
X135851791Y-111142724D01*
X135851793Y-111142726D01*
X135851794Y-111142727D01*
X135932974Y-111210845D01*
X136032556Y-111247089D01*
X136032557Y-111247089D01*
X136138527Y-111247089D01*
X136138528Y-111247089D01*
X136238110Y-111210845D01*
X136319290Y-111142727D01*
X136323544Y-111135360D01*
X136356180Y-111078831D01*
X136372276Y-111050952D01*
X136378410Y-111016164D01*
X136390678Y-110946591D01*
X136390678Y-110946586D01*
X136372276Y-110842226D01*
X136319292Y-110750453D01*
X136319290Y-110750451D01*
X136238110Y-110682333D01*
X136188319Y-110664211D01*
X136138529Y-110646089D01*
X136138528Y-110646089D01*
X136032556Y-110646089D01*
X136032554Y-110646089D01*
X135932974Y-110682333D01*
X135851791Y-110750453D01*
X135798807Y-110842226D01*
X135780406Y-110946586D01*
X135780406Y-110946591D01*
X130500000Y-110946591D01*
X130500000Y-110800000D01*
X126409831Y-110800000D01*
X126399932Y-110795899D01*
X126395831Y-110786000D01*
X126399932Y-110776101D01*
X126400832Y-110775275D01*
X126404809Y-110771938D01*
X126474274Y-110713650D01*
X126527260Y-110621875D01*
X126545662Y-110517512D01*
X126545662Y-110517509D01*
X126527260Y-110413149D01*
X126474276Y-110321376D01*
X126445108Y-110296901D01*
X129665207Y-110296901D01*
X129683608Y-110401261D01*
X129736592Y-110493034D01*
X129736594Y-110493036D01*
X129736595Y-110493037D01*
X129817775Y-110561155D01*
X129917357Y-110597399D01*
X129917358Y-110597399D01*
X130023328Y-110597399D01*
X130023329Y-110597399D01*
X130122911Y-110561155D01*
X130204091Y-110493037D01*
X130204875Y-110491680D01*
X130244721Y-110422663D01*
X130257077Y-110401262D01*
X130271163Y-110321376D01*
X130275479Y-110296901D01*
X130275479Y-110296896D01*
X130257077Y-110192536D01*
X130204093Y-110100763D01*
X130204091Y-110100761D01*
X130122911Y-110032643D01*
X130073120Y-110014520D01*
X130023330Y-109996399D01*
X130023329Y-109996399D01*
X129917357Y-109996399D01*
X129917355Y-109996399D01*
X129817775Y-110032643D01*
X129736592Y-110100763D01*
X129683608Y-110192536D01*
X129665207Y-110296896D01*
X129665207Y-110296901D01*
X126445108Y-110296901D01*
X126407967Y-110265736D01*
X126403019Y-110256231D01*
X126406241Y-110246012D01*
X126407957Y-110244295D01*
X126474274Y-110188650D01*
X126527260Y-110096875D01*
X126545662Y-109992512D01*
X126545662Y-109992509D01*
X126527260Y-109888149D01*
X126474276Y-109796376D01*
X126474274Y-109796374D01*
X126414216Y-109745979D01*
X126409269Y-109736476D01*
X126412491Y-109726257D01*
X126414207Y-109724540D01*
X126486774Y-109663650D01*
X126522673Y-109601470D01*
X129408562Y-109601470D01*
X129426963Y-109705830D01*
X129479947Y-109797603D01*
X129479949Y-109797605D01*
X129479950Y-109797606D01*
X129561130Y-109865724D01*
X129660712Y-109901968D01*
X129660713Y-109901968D01*
X129766683Y-109901968D01*
X129766684Y-109901968D01*
X129866266Y-109865724D01*
X129947446Y-109797606D01*
X129948158Y-109796374D01*
X129964243Y-109768511D01*
X130000432Y-109705831D01*
X130008968Y-109657422D01*
X130018834Y-109601470D01*
X130018834Y-109601465D01*
X130000432Y-109497105D01*
X129947448Y-109405332D01*
X129947446Y-109405330D01*
X129866266Y-109337212D01*
X129790989Y-109309814D01*
X129766685Y-109300968D01*
X129766684Y-109300968D01*
X129660712Y-109300968D01*
X129660710Y-109300968D01*
X129561130Y-109337212D01*
X129479947Y-109405332D01*
X129426963Y-109497105D01*
X129408562Y-109601465D01*
X129408562Y-109601470D01*
X126522673Y-109601470D01*
X126539760Y-109571875D01*
X126545893Y-109537087D01*
X126558162Y-109467514D01*
X126558162Y-109467509D01*
X126539760Y-109363149D01*
X126486776Y-109271376D01*
X126474920Y-109261428D01*
X126417341Y-109213113D01*
X126412394Y-109203609D01*
X126415616Y-109193390D01*
X126417334Y-109191671D01*
X126467118Y-109149899D01*
X133453556Y-109149899D01*
X133471957Y-109254259D01*
X133524941Y-109346032D01*
X133524943Y-109346034D01*
X133524944Y-109346035D01*
X133606124Y-109414153D01*
X133705706Y-109450397D01*
X133705707Y-109450397D01*
X133811677Y-109450397D01*
X133811678Y-109450397D01*
X133911260Y-109414153D01*
X133968893Y-109365793D01*
X135944433Y-109365793D01*
X135962834Y-109470153D01*
X136015818Y-109561926D01*
X136015820Y-109561928D01*
X136015821Y-109561929D01*
X136097001Y-109630047D01*
X136196583Y-109666291D01*
X136196584Y-109666291D01*
X136302554Y-109666291D01*
X136302555Y-109666291D01*
X136402137Y-109630047D01*
X136483317Y-109561929D01*
X136536303Y-109470154D01*
X136546174Y-109414174D01*
X136554705Y-109365793D01*
X136554705Y-109365788D01*
X136536303Y-109261428D01*
X136483319Y-109169655D01*
X136483317Y-109169653D01*
X136402137Y-109101535D01*
X136341515Y-109079471D01*
X136302556Y-109065291D01*
X136302555Y-109065291D01*
X136196583Y-109065291D01*
X136196581Y-109065291D01*
X136097001Y-109101535D01*
X136015818Y-109169655D01*
X135962834Y-109261428D01*
X135944433Y-109365788D01*
X135944433Y-109365793D01*
X133968893Y-109365793D01*
X133992440Y-109346035D01*
X133992473Y-109345979D01*
X134035545Y-109271374D01*
X134045426Y-109254260D01*
X134056616Y-109190800D01*
X134063828Y-109149899D01*
X134063828Y-109149894D01*
X134045426Y-109045534D01*
X133992442Y-108953761D01*
X133992144Y-108953511D01*
X133911260Y-108885641D01*
X133861468Y-108867519D01*
X133811679Y-108849397D01*
X133811678Y-108849397D01*
X133705706Y-108849397D01*
X133705704Y-108849397D01*
X133606124Y-108885641D01*
X133524941Y-108953761D01*
X133471957Y-109045534D01*
X133453556Y-109149894D01*
X133453556Y-109149899D01*
X126467118Y-109149899D01*
X126480524Y-109138650D01*
X126533510Y-109046875D01*
X126544107Y-108986776D01*
X126551912Y-108942514D01*
X126551912Y-108942509D01*
X126533510Y-108838149D01*
X126480526Y-108746376D01*
X126480524Y-108746374D01*
X126414815Y-108691238D01*
X126409868Y-108681734D01*
X126413090Y-108671515D01*
X126414811Y-108669793D01*
X126474274Y-108619900D01*
X126479768Y-108610384D01*
X130468602Y-108610384D01*
X130487003Y-108714744D01*
X130539987Y-108806517D01*
X130539989Y-108806519D01*
X130539990Y-108806520D01*
X130621170Y-108874638D01*
X130720752Y-108910882D01*
X130720753Y-108910882D01*
X130826723Y-108910882D01*
X130826724Y-108910882D01*
X130926306Y-108874638D01*
X131007486Y-108806520D01*
X131060472Y-108714745D01*
X131071765Y-108650700D01*
X131078874Y-108610384D01*
X131078874Y-108610379D01*
X131060472Y-108506019D01*
X131007488Y-108414246D01*
X131007486Y-108414244D01*
X130926306Y-108346126D01*
X130876515Y-108328004D01*
X130826725Y-108309882D01*
X130826724Y-108309882D01*
X130720752Y-108309882D01*
X130720750Y-108309882D01*
X130621170Y-108346126D01*
X130539987Y-108414246D01*
X130487003Y-108506019D01*
X130468602Y-108610379D01*
X130468602Y-108610384D01*
X126479768Y-108610384D01*
X126527260Y-108528125D01*
X126543479Y-108436144D01*
X126545662Y-108423764D01*
X126545662Y-108423759D01*
X126527260Y-108319399D01*
X126474276Y-108227626D01*
X126474274Y-108227624D01*
X126414815Y-108177732D01*
X126409868Y-108168229D01*
X126413090Y-108158010D01*
X126414811Y-108156288D01*
X126480524Y-108101150D01*
X126533510Y-108009375D01*
X126541446Y-107964368D01*
X126551912Y-107905014D01*
X126551912Y-107905009D01*
X126533510Y-107800649D01*
X126480526Y-107708876D01*
X126478731Y-107707370D01*
X126431866Y-107668045D01*
X126407369Y-107647489D01*
X126402421Y-107637984D01*
X126405643Y-107627765D01*
X126407363Y-107626044D01*
X126474274Y-107569900D01*
X126514114Y-107500894D01*
X132023234Y-107500894D01*
X132041635Y-107605254D01*
X132094619Y-107697027D01*
X132094621Y-107697029D01*
X132094622Y-107697030D01*
X132175802Y-107765148D01*
X132275384Y-107801392D01*
X132275385Y-107801392D01*
X132381355Y-107801392D01*
X132381356Y-107801392D01*
X132480938Y-107765148D01*
X132562118Y-107697030D01*
X132567171Y-107688279D01*
X132594450Y-107641029D01*
X132615104Y-107605255D01*
X132629807Y-107521872D01*
X132633506Y-107500894D01*
X132633506Y-107500889D01*
X132615104Y-107396529D01*
X132562120Y-107304756D01*
X132519983Y-107269399D01*
X132480938Y-107236636D01*
X132431146Y-107218513D01*
X132381357Y-107200392D01*
X132381356Y-107200392D01*
X132275384Y-107200392D01*
X132275382Y-107200392D01*
X132175802Y-107236636D01*
X132094619Y-107304756D01*
X132041635Y-107396529D01*
X132023234Y-107500889D01*
X132023234Y-107500894D01*
X126514114Y-107500894D01*
X126527260Y-107478125D01*
X126536272Y-107427014D01*
X126545662Y-107373764D01*
X126545662Y-107373759D01*
X126527260Y-107269399D01*
X126474276Y-107177626D01*
X126438559Y-107147656D01*
X126428889Y-107139542D01*
X131096743Y-107139542D01*
X131115144Y-107243902D01*
X131168128Y-107335675D01*
X131168130Y-107335677D01*
X131168131Y-107335678D01*
X131249311Y-107403796D01*
X131348893Y-107440040D01*
X131348894Y-107440040D01*
X131454864Y-107440040D01*
X131454865Y-107440040D01*
X131554447Y-107403796D01*
X131635627Y-107335678D01*
X131688613Y-107243903D01*
X131700137Y-107178549D01*
X131707015Y-107139542D01*
X131707015Y-107139537D01*
X131688613Y-107035177D01*
X131635629Y-106943404D01*
X131614696Y-106925839D01*
X131554447Y-106875284D01*
X131485844Y-106850315D01*
X131454866Y-106839040D01*
X131454865Y-106839040D01*
X131348893Y-106839040D01*
X131348891Y-106839040D01*
X131249311Y-106875284D01*
X131168128Y-106943404D01*
X131115144Y-107035177D01*
X131096743Y-107139537D01*
X131096743Y-107139542D01*
X126428889Y-107139542D01*
X126403643Y-107118358D01*
X126398696Y-107108854D01*
X126401918Y-107098635D01*
X126403638Y-107096914D01*
X126480524Y-107032400D01*
X126533510Y-106940625D01*
X126543757Y-106882510D01*
X126551912Y-106836264D01*
X126551912Y-106836259D01*
X126533510Y-106731899D01*
X126480526Y-106640126D01*
X126417941Y-106587611D01*
X126412993Y-106578106D01*
X126416215Y-106567887D01*
X126417930Y-106566171D01*
X126480524Y-106513650D01*
X126533510Y-106421875D01*
X126548123Y-106339000D01*
X126551912Y-106317514D01*
X126551912Y-106317509D01*
X126533510Y-106213149D01*
X126508790Y-106170332D01*
X130870561Y-106170332D01*
X130872129Y-106182240D01*
X130890090Y-106318672D01*
X130891199Y-106327090D01*
X130891199Y-106327092D01*
X130951707Y-106473171D01*
X130951708Y-106473173D01*
X130983925Y-106515158D01*
X131047961Y-106598612D01*
X131173402Y-106694866D01*
X131319481Y-106755374D01*
X131443568Y-106771710D01*
X131476241Y-106776012D01*
X131476243Y-106776012D01*
X131476245Y-106776012D01*
X131503282Y-106772452D01*
X131633005Y-106755374D01*
X131757191Y-106703934D01*
X131767906Y-106703934D01*
X131775482Y-106711510D01*
X131776335Y-106719299D01*
X131761024Y-106806135D01*
X131761024Y-106806140D01*
X131779425Y-106910500D01*
X131832409Y-107002273D01*
X131832411Y-107002275D01*
X131832412Y-107002276D01*
X131913592Y-107070394D01*
X132013174Y-107106638D01*
X132013175Y-107106638D01*
X132119145Y-107106638D01*
X132119146Y-107106638D01*
X132218728Y-107070394D01*
X132299908Y-107002276D01*
X132352894Y-106910501D01*
X132361231Y-106863220D01*
X132371296Y-106806140D01*
X132371296Y-106806135D01*
X132352894Y-106701775D01*
X132299910Y-106610002D01*
X132286335Y-106598611D01*
X132218728Y-106541882D01*
X132168937Y-106523760D01*
X132119147Y-106505638D01*
X132119146Y-106505638D01*
X132013174Y-106505638D01*
X132013173Y-106505638D01*
X132013167Y-106505639D01*
X132006541Y-106508050D01*
X131995836Y-106507581D01*
X131988599Y-106499680D01*
X131989068Y-106488975D01*
X131990645Y-106486377D01*
X132000779Y-106473171D01*
X132061287Y-106327092D01*
X132081925Y-106170330D01*
X132081702Y-106168640D01*
X134948524Y-106168640D01*
X134966925Y-106273000D01*
X135019909Y-106364773D01*
X135019911Y-106364775D01*
X135019912Y-106364776D01*
X135101092Y-106432894D01*
X135200674Y-106469138D01*
X135200675Y-106469138D01*
X135306645Y-106469138D01*
X135306646Y-106469138D01*
X135406228Y-106432894D01*
X135487408Y-106364776D01*
X135540394Y-106273001D01*
X135556398Y-106182238D01*
X135558796Y-106168640D01*
X135558796Y-106168635D01*
X135540394Y-106064275D01*
X135487410Y-105972502D01*
X135453986Y-105944456D01*
X135406228Y-105904382D01*
X135337578Y-105879396D01*
X135306647Y-105868138D01*
X135306646Y-105868138D01*
X135200674Y-105868138D01*
X135200672Y-105868138D01*
X135101092Y-105904382D01*
X135019909Y-105972502D01*
X134966925Y-106064275D01*
X134948524Y-106168635D01*
X134948524Y-106168640D01*
X132081702Y-106168640D01*
X132081702Y-106168638D01*
X132075480Y-106121374D01*
X132061287Y-106013568D01*
X132000779Y-105867489D01*
X132000778Y-105867488D01*
X132000428Y-105866642D01*
X132000735Y-105866514D01*
X131999488Y-105857057D01*
X132006010Y-105848555D01*
X132016633Y-105847154D01*
X132017797Y-105847521D01*
X132025674Y-105850388D01*
X132025675Y-105850388D01*
X132131645Y-105850388D01*
X132131646Y-105850388D01*
X132231228Y-105814144D01*
X132312408Y-105746026D01*
X132325915Y-105722632D01*
X132341034Y-105696444D01*
X132365394Y-105654251D01*
X132369197Y-105632682D01*
X134029232Y-105632682D01*
X134047633Y-105737042D01*
X134100617Y-105828815D01*
X134100619Y-105828817D01*
X134100620Y-105828818D01*
X134181800Y-105896936D01*
X134281382Y-105933180D01*
X134281383Y-105933180D01*
X134387353Y-105933180D01*
X134387354Y-105933180D01*
X134486936Y-105896936D01*
X134568116Y-105828818D01*
X134621102Y-105737043D01*
X134628687Y-105694024D01*
X134639504Y-105632682D01*
X134639504Y-105632677D01*
X134621102Y-105528317D01*
X134568118Y-105436544D01*
X134568116Y-105436542D01*
X134486936Y-105368424D01*
X134432562Y-105348634D01*
X134387355Y-105332180D01*
X134387354Y-105332180D01*
X134281382Y-105332180D01*
X134281380Y-105332180D01*
X134181800Y-105368424D01*
X134100617Y-105436544D01*
X134047633Y-105528317D01*
X134029232Y-105632677D01*
X134029232Y-105632682D01*
X132369197Y-105632682D01*
X132373295Y-105609440D01*
X132383796Y-105549890D01*
X132383796Y-105549885D01*
X132365394Y-105445525D01*
X132312410Y-105353752D01*
X132306311Y-105348634D01*
X132231228Y-105285632D01*
X132181436Y-105267510D01*
X132131647Y-105249388D01*
X132131646Y-105249388D01*
X132030256Y-105249388D01*
X132020357Y-105245287D01*
X132016256Y-105235388D01*
X132017322Y-105230030D01*
X132025172Y-105211079D01*
X132061287Y-105123892D01*
X132081925Y-104967130D01*
X132080716Y-104957949D01*
X132076433Y-104925415D01*
X132074337Y-104909493D01*
X132868438Y-104909493D01*
X132886839Y-105013853D01*
X132939823Y-105105626D01*
X132939825Y-105105628D01*
X132939826Y-105105629D01*
X133021006Y-105173747D01*
X133120588Y-105209991D01*
X133120589Y-105209991D01*
X133226559Y-105209991D01*
X133226560Y-105209991D01*
X133326142Y-105173747D01*
X133407322Y-105105629D01*
X133419590Y-105084381D01*
X134940675Y-105084381D01*
X134959076Y-105188741D01*
X135012060Y-105280514D01*
X135012062Y-105280516D01*
X135012063Y-105280517D01*
X135093243Y-105348635D01*
X135192825Y-105384879D01*
X135192826Y-105384879D01*
X135298796Y-105384879D01*
X135298797Y-105384879D01*
X135398379Y-105348635D01*
X135479559Y-105280517D01*
X135484695Y-105271622D01*
X135505614Y-105235388D01*
X135532545Y-105188742D01*
X135550745Y-105085525D01*
X135550947Y-105084381D01*
X135550947Y-105084376D01*
X135532545Y-104980016D01*
X135479561Y-104888243D01*
X135479559Y-104888241D01*
X135398379Y-104820123D01*
X135348587Y-104802000D01*
X135298798Y-104783879D01*
X135298797Y-104783879D01*
X135192825Y-104783879D01*
X135192823Y-104783879D01*
X135093243Y-104820123D01*
X135012060Y-104888243D01*
X134959076Y-104980016D01*
X134940675Y-105084376D01*
X134940675Y-105084381D01*
X133419590Y-105084381D01*
X133441528Y-105046382D01*
X133460308Y-105013854D01*
X133472081Y-104947087D01*
X133478710Y-104909493D01*
X133478710Y-104909488D01*
X133460308Y-104805128D01*
X133426104Y-104745884D01*
X133671846Y-104745884D01*
X133690247Y-104850244D01*
X133743231Y-104942017D01*
X133743233Y-104942019D01*
X133743234Y-104942020D01*
X133824414Y-105010138D01*
X133923996Y-105046382D01*
X133923997Y-105046382D01*
X134029967Y-105046382D01*
X134029968Y-105046382D01*
X134129550Y-105010138D01*
X134210730Y-104942020D01*
X134219590Y-104926675D01*
X134229509Y-104909493D01*
X134263716Y-104850245D01*
X134273647Y-104793922D01*
X134282118Y-104745884D01*
X134282118Y-104745879D01*
X134263716Y-104641519D01*
X134210732Y-104549746D01*
X134206926Y-104546552D01*
X134147747Y-104496895D01*
X136193639Y-104496895D01*
X136212040Y-104601255D01*
X136265024Y-104693028D01*
X136265026Y-104693030D01*
X136265027Y-104693031D01*
X136346207Y-104761149D01*
X136445789Y-104797393D01*
X136445790Y-104797393D01*
X136551760Y-104797393D01*
X136551761Y-104797393D01*
X136651343Y-104761149D01*
X136732523Y-104693031D01*
X136785509Y-104601256D01*
X136803911Y-104496893D01*
X136803911Y-104496890D01*
X136785509Y-104392530D01*
X136732525Y-104300757D01*
X136732521Y-104300754D01*
X136706229Y-104278692D01*
X136701282Y-104269188D01*
X136704504Y-104258969D01*
X136712497Y-104254237D01*
X136733389Y-104250083D01*
X136766633Y-104227871D01*
X136788845Y-104194627D01*
X136794676Y-104165313D01*
X136794676Y-104165310D01*
X136843676Y-104165310D01*
X136848059Y-104187348D01*
X136849507Y-104194627D01*
X136871719Y-104227871D01*
X136904963Y-104250083D01*
X136934277Y-104255914D01*
X137000662Y-104255913D01*
X137010561Y-104260013D01*
X137014662Y-104269913D01*
X137010562Y-104279812D01*
X137009661Y-104280638D01*
X136936863Y-104341723D01*
X136883879Y-104433496D01*
X136865478Y-104537856D01*
X136865478Y-104537861D01*
X136883879Y-104642221D01*
X136936863Y-104733994D01*
X136936865Y-104733996D01*
X136936866Y-104733997D01*
X137018046Y-104802115D01*
X137117628Y-104838359D01*
X137117629Y-104838359D01*
X137223599Y-104838359D01*
X137223600Y-104838359D01*
X137323182Y-104802115D01*
X137404362Y-104733997D01*
X137457348Y-104642222D01*
X137473654Y-104549746D01*
X137475750Y-104537861D01*
X137475750Y-104537856D01*
X137457348Y-104433496D01*
X137404364Y-104341723D01*
X137394596Y-104333527D01*
X137331565Y-104280637D01*
X137326618Y-104271133D01*
X137329840Y-104260914D01*
X137339345Y-104255966D01*
X137340565Y-104255913D01*
X137354073Y-104255913D01*
X137354074Y-104255913D01*
X137383389Y-104250083D01*
X137416633Y-104227871D01*
X137438845Y-104194627D01*
X137444676Y-104165313D01*
X137444675Y-102395516D01*
X137438845Y-102366201D01*
X137416633Y-102332957D01*
X137383389Y-102310745D01*
X137383388Y-102310744D01*
X137383387Y-102310744D01*
X137361352Y-102306361D01*
X137354075Y-102304914D01*
X137354074Y-102304914D01*
X136934279Y-102304914D01*
X136904963Y-102310745D01*
X136871719Y-102332957D01*
X136849506Y-102366202D01*
X136843676Y-102395515D01*
X136843676Y-104165310D01*
X136794676Y-104165310D01*
X136794675Y-102395516D01*
X136788845Y-102366201D01*
X136766633Y-102332957D01*
X136733389Y-102310745D01*
X136733388Y-102310744D01*
X136733387Y-102310744D01*
X136711352Y-102306361D01*
X136704075Y-102304914D01*
X136704074Y-102304914D01*
X136284279Y-102304914D01*
X136254963Y-102310745D01*
X136221719Y-102332957D01*
X136199506Y-102366202D01*
X136193676Y-102395515D01*
X136193676Y-104165310D01*
X136198059Y-104187348D01*
X136199507Y-104194627D01*
X136221719Y-104227871D01*
X136254963Y-104250083D01*
X136282779Y-104255616D01*
X136283287Y-104255717D01*
X136292197Y-104261670D01*
X136294287Y-104272179D01*
X136289555Y-104280172D01*
X136265027Y-104300754D01*
X136265025Y-104300757D01*
X136212040Y-104392530D01*
X136193639Y-104496890D01*
X136193639Y-104496895D01*
X134147747Y-104496895D01*
X134129550Y-104481626D01*
X134055787Y-104454779D01*
X134029969Y-104445382D01*
X134029968Y-104445382D01*
X133923996Y-104445382D01*
X133923994Y-104445382D01*
X133824414Y-104481626D01*
X133743231Y-104549746D01*
X133690247Y-104641519D01*
X133671846Y-104745879D01*
X133671846Y-104745884D01*
X133426104Y-104745884D01*
X133407324Y-104713355D01*
X133383103Y-104693031D01*
X133326142Y-104645235D01*
X133276351Y-104627112D01*
X133226561Y-104608991D01*
X133226560Y-104608991D01*
X133120588Y-104608991D01*
X133120586Y-104608991D01*
X133021006Y-104645235D01*
X132939823Y-104713355D01*
X132886839Y-104805128D01*
X132868438Y-104909488D01*
X132868438Y-104909493D01*
X132074337Y-104909493D01*
X132061287Y-104810368D01*
X132000779Y-104664289D01*
X131990514Y-104650912D01*
X131952411Y-104601255D01*
X131904525Y-104538848D01*
X131829952Y-104481626D01*
X131779086Y-104442595D01*
X131779084Y-104442594D01*
X131779083Y-104442594D01*
X131633005Y-104382086D01*
X131579667Y-104375064D01*
X131476245Y-104361448D01*
X131476241Y-104361448D01*
X131372819Y-104375064D01*
X131319481Y-104382086D01*
X131319480Y-104382086D01*
X131173401Y-104442594D01*
X131173399Y-104442595D01*
X131047961Y-104538848D01*
X130951708Y-104664286D01*
X130951707Y-104664288D01*
X130891199Y-104810367D01*
X130891199Y-104810369D01*
X130870561Y-104967127D01*
X130870561Y-104967132D01*
X130891199Y-105123890D01*
X130891199Y-105123892D01*
X130951707Y-105269971D01*
X130951708Y-105269973D01*
X130983370Y-105311235D01*
X131047961Y-105395412D01*
X131142247Y-105467760D01*
X131171453Y-105490171D01*
X131173402Y-105491666D01*
X131319481Y-105552174D01*
X131339808Y-105554850D01*
X131349088Y-105560207D01*
X131351861Y-105570557D01*
X131346504Y-105579837D01*
X131339808Y-105582609D01*
X131319481Y-105585286D01*
X131319480Y-105585286D01*
X131173401Y-105645794D01*
X131173399Y-105645795D01*
X131047961Y-105742048D01*
X130951708Y-105867486D01*
X130951707Y-105867488D01*
X130898932Y-105994900D01*
X130891199Y-106013568D01*
X130889631Y-106025476D01*
X130870561Y-106170327D01*
X130870561Y-106170332D01*
X126508790Y-106170332D01*
X126480526Y-106121376D01*
X126460930Y-106104933D01*
X126421065Y-106071482D01*
X126416118Y-106061979D01*
X126419340Y-106051760D01*
X126421061Y-106050038D01*
X126486774Y-105994900D01*
X126539760Y-105903125D01*
X126552444Y-105831189D01*
X126558162Y-105798764D01*
X126558162Y-105798759D01*
X126539760Y-105694399D01*
X126486776Y-105602626D01*
X126486011Y-105601984D01*
X126432911Y-105557427D01*
X126427964Y-105547924D01*
X126431186Y-105537705D01*
X126432912Y-105535979D01*
X126433027Y-105535881D01*
X126433030Y-105535881D01*
X126514210Y-105467763D01*
X126567196Y-105375988D01*
X126576504Y-105323201D01*
X126585598Y-105271627D01*
X126585598Y-105271622D01*
X126567196Y-105167262D01*
X126520006Y-105085525D01*
X129052642Y-105085525D01*
X129071666Y-105230030D01*
X129073555Y-105244373D01*
X129073555Y-105244375D01*
X129134869Y-105392400D01*
X129134870Y-105392402D01*
X129168742Y-105436544D01*
X129232406Y-105519512D01*
X129316047Y-105583692D01*
X129353933Y-105612764D01*
X129359518Y-105617049D01*
X129507543Y-105678363D01*
X129626508Y-105694025D01*
X129706278Y-105694025D01*
X129825243Y-105678363D01*
X129973268Y-105617049D01*
X130100380Y-105519512D01*
X130197917Y-105392401D01*
X130259231Y-105244375D01*
X130280144Y-105085525D01*
X130280115Y-105085308D01*
X130270219Y-105010137D01*
X130259231Y-104926675D01*
X130197917Y-104778650D01*
X130197915Y-104778648D01*
X130197915Y-104778647D01*
X130163651Y-104733994D01*
X130100380Y-104651538D01*
X130025467Y-104594055D01*
X129973270Y-104554002D01*
X129973268Y-104554001D01*
X129973267Y-104554001D01*
X129825243Y-104492687D01*
X129795501Y-104488771D01*
X129706281Y-104477025D01*
X129706278Y-104477025D01*
X129626508Y-104477025D01*
X129626504Y-104477025D01*
X129531336Y-104489554D01*
X129507543Y-104492687D01*
X129507542Y-104492687D01*
X129359517Y-104554001D01*
X129359515Y-104554002D01*
X129232406Y-104651538D01*
X129134870Y-104778646D01*
X129134869Y-104778648D01*
X129073555Y-104926674D01*
X129073555Y-104926676D01*
X129052671Y-105085308D01*
X129052642Y-105085525D01*
X126520006Y-105085525D01*
X126514212Y-105075489D01*
X126514210Y-105075487D01*
X126433030Y-105007369D01*
X126400789Y-104995634D01*
X126338412Y-104972931D01*
X126330512Y-104965692D01*
X126330044Y-104954987D01*
X126337283Y-104947087D01*
X126338395Y-104946625D01*
X126424819Y-104915171D01*
X126505999Y-104847053D01*
X126511019Y-104838359D01*
X126527179Y-104810368D01*
X126558985Y-104755278D01*
X126575029Y-104664288D01*
X126577387Y-104650917D01*
X126577387Y-104650912D01*
X126558985Y-104546552D01*
X126506001Y-104454779D01*
X126495368Y-104445857D01*
X126424819Y-104386659D01*
X126424818Y-104386658D01*
X126424816Y-104386657D01*
X126415830Y-104383386D01*
X126407930Y-104376147D01*
X126407464Y-104365442D01*
X126411620Y-104359506D01*
X126412315Y-104358922D01*
X126412319Y-104358921D01*
X126493499Y-104290803D01*
X126546485Y-104199028D01*
X126554508Y-104153525D01*
X126564887Y-104094667D01*
X126564887Y-104094662D01*
X126546485Y-103990302D01*
X126522179Y-103948201D01*
X127285457Y-103948201D01*
X127303858Y-104052561D01*
X127356842Y-104144334D01*
X127356844Y-104144336D01*
X127356845Y-104144337D01*
X127438025Y-104212455D01*
X127537607Y-104248699D01*
X127537608Y-104248699D01*
X127643578Y-104248699D01*
X127643579Y-104248699D01*
X127743161Y-104212455D01*
X127743162Y-104212453D01*
X127743164Y-104212453D01*
X127793027Y-104170611D01*
X127807739Y-104158265D01*
X127817957Y-104155043D01*
X127820489Y-104155503D01*
X128114004Y-104237276D01*
X128114214Y-104237361D01*
X128115619Y-104237751D01*
X128115620Y-104237752D01*
X128128252Y-104241260D01*
X128132767Y-104242515D01*
X128135715Y-104243708D01*
X128136169Y-104243956D01*
X128136171Y-104243956D01*
X128136172Y-104243957D01*
X128149823Y-104247256D01*
X128163366Y-104251029D01*
X128163895Y-104251034D01*
X128167052Y-104251425D01*
X128184387Y-104255623D01*
X128184388Y-104255622D01*
X128185947Y-104256000D01*
X128186062Y-104256014D01*
X128371192Y-104300757D01*
X128812827Y-104407493D01*
X128815730Y-104408546D01*
X128816553Y-104408952D01*
X128816555Y-104408952D01*
X128816558Y-104408954D01*
X128829605Y-104411549D01*
X128842555Y-104414679D01*
X128842556Y-104414679D01*
X128842791Y-104414673D01*
X128843471Y-104414656D01*
X128846552Y-104414919D01*
X129002780Y-104445996D01*
X129004891Y-104445857D01*
X129005804Y-104445857D01*
X129025728Y-104447163D01*
X129031392Y-104447535D01*
X129031392Y-104447534D01*
X129031393Y-104447535D01*
X129056981Y-104445857D01*
X129057894Y-104445857D01*
X129060006Y-104445996D01*
X129226697Y-104412838D01*
X129228364Y-104412508D01*
X129228363Y-104412507D01*
X129236544Y-104410888D01*
X129236585Y-104410871D01*
X129246228Y-104408954D01*
X129248193Y-104407984D01*
X129250744Y-104407021D01*
X129251772Y-104406745D01*
X129251776Y-104406744D01*
X129251773Y-104406744D01*
X129251779Y-104406743D01*
X129252891Y-104406360D01*
X129255528Y-104405730D01*
X129257721Y-104405428D01*
X129260817Y-104404122D01*
X129274401Y-104398393D01*
X129274401Y-104398394D01*
X129303429Y-104386168D01*
X129303429Y-104386167D01*
X129304879Y-104385557D01*
X129304992Y-104385492D01*
X129908351Y-104131045D01*
X129919066Y-104130978D01*
X129924371Y-104134777D01*
X129974565Y-104192704D01*
X130073077Y-104256014D01*
X130094068Y-104269504D01*
X130230363Y-104309524D01*
X130230364Y-104309524D01*
X130230367Y-104309525D01*
X130230370Y-104309525D01*
X130372416Y-104309525D01*
X130372419Y-104309525D01*
X130508718Y-104269504D01*
X130628221Y-104192704D01*
X130721246Y-104085348D01*
X130780257Y-103956132D01*
X130790441Y-103885298D01*
X134253676Y-103885298D01*
X134269332Y-103989173D01*
X134306314Y-104065966D01*
X134330217Y-104115601D01*
X134376340Y-104165310D01*
X134425663Y-104218468D01*
X134497623Y-104260013D01*
X134547189Y-104288630D01*
X134683996Y-104319856D01*
X134823930Y-104309369D01*
X134845881Y-104300754D01*
X134954555Y-104258102D01*
X134963424Y-104251029D01*
X135064266Y-104170611D01*
X135143314Y-104054668D01*
X135184676Y-103920577D01*
X135184676Y-103085529D01*
X135169020Y-102981656D01*
X135108135Y-102855227D01*
X135055053Y-102798019D01*
X135012688Y-102752359D01*
X134891163Y-102682198D01*
X134891160Y-102682197D01*
X134811807Y-102664085D01*
X134754356Y-102650972D01*
X134754355Y-102650972D01*
X134614418Y-102661459D01*
X134483796Y-102712725D01*
X134374086Y-102800216D01*
X134374084Y-102800218D01*
X134295040Y-102916156D01*
X134295037Y-102916161D01*
X134253676Y-103050252D01*
X134253676Y-103885298D01*
X130790441Y-103885298D01*
X130800473Y-103815525D01*
X130780257Y-103674918D01*
X130721246Y-103545702D01*
X130628221Y-103438346D01*
X130551419Y-103388988D01*
X130508717Y-103361545D01*
X130372422Y-103321525D01*
X130372419Y-103321525D01*
X130230367Y-103321525D01*
X130230363Y-103321525D01*
X130094068Y-103361545D01*
X129974565Y-103438346D01*
X129974562Y-103438349D01*
X129881538Y-103545704D01*
X129822530Y-103674915D01*
X129822529Y-103674917D01*
X129802313Y-103815525D01*
X129809003Y-103862061D01*
X129806352Y-103872443D01*
X129800585Y-103876953D01*
X129518885Y-103995751D01*
X129508170Y-103995819D01*
X129500545Y-103988291D01*
X129500477Y-103977576D01*
X129500696Y-103977067D01*
X129510257Y-103956132D01*
X129530473Y-103815525D01*
X129510257Y-103674918D01*
X129451246Y-103545702D01*
X129358221Y-103438346D01*
X129281420Y-103388988D01*
X129238717Y-103361545D01*
X129102422Y-103321525D01*
X129102419Y-103321525D01*
X128960367Y-103321525D01*
X128960363Y-103321525D01*
X128824068Y-103361545D01*
X128704565Y-103438346D01*
X128704562Y-103438349D01*
X128611538Y-103545704D01*
X128559385Y-103659904D01*
X128551542Y-103667205D01*
X128540834Y-103666823D01*
X128534526Y-103661088D01*
X128520026Y-103635972D01*
X128520024Y-103635970D01*
X128438844Y-103567852D01*
X128389052Y-103549730D01*
X128339263Y-103531608D01*
X128339262Y-103531608D01*
X128233290Y-103531608D01*
X128233288Y-103531608D01*
X128133708Y-103567852D01*
X128052525Y-103635972D01*
X127999541Y-103727745D01*
X127981140Y-103832105D01*
X127981140Y-103832110D01*
X127992420Y-103896087D01*
X127990101Y-103906548D01*
X127981064Y-103912305D01*
X127974876Y-103912004D01*
X127893426Y-103889311D01*
X127884990Y-103882704D01*
X127883396Y-103878256D01*
X127880540Y-103862061D01*
X127877327Y-103843836D01*
X127869575Y-103830409D01*
X127824343Y-103752063D01*
X127824341Y-103752061D01*
X127743161Y-103683943D01*
X127682138Y-103661733D01*
X127643580Y-103647699D01*
X127643579Y-103647699D01*
X127537607Y-103647699D01*
X127537605Y-103647699D01*
X127438025Y-103683943D01*
X127356842Y-103752063D01*
X127303858Y-103843836D01*
X127285457Y-103948196D01*
X127285457Y-103948201D01*
X126522179Y-103948201D01*
X126493501Y-103898529D01*
X126482515Y-103889311D01*
X126412319Y-103830409D01*
X126412318Y-103830408D01*
X126410356Y-103829694D01*
X126402458Y-103822453D01*
X126401992Y-103811748D01*
X126409233Y-103803850D01*
X126410354Y-103803386D01*
X126412319Y-103802671D01*
X126493499Y-103734553D01*
X126546485Y-103642778D01*
X126555154Y-103593612D01*
X126564887Y-103538417D01*
X126564887Y-103538412D01*
X126546485Y-103434052D01*
X126525370Y-103397479D01*
X126743872Y-103397479D01*
X126762273Y-103501839D01*
X126815257Y-103593612D01*
X126815259Y-103593614D01*
X126815260Y-103593615D01*
X126896440Y-103661733D01*
X126996022Y-103697977D01*
X126996023Y-103697977D01*
X127101993Y-103697977D01*
X127101994Y-103697977D01*
X127201576Y-103661733D01*
X127282756Y-103593615D01*
X127335742Y-103501840D01*
X127336915Y-103495181D01*
X127342669Y-103486146D01*
X127348218Y-103483834D01*
X129057118Y-103176218D01*
X129059088Y-103176110D01*
X129059085Y-103176056D01*
X129059996Y-103175995D01*
X129060006Y-103175996D01*
X129075672Y-103172879D01*
X129091437Y-103170042D01*
X129091443Y-103170039D01*
X129092312Y-103169762D01*
X129092328Y-103169814D01*
X129094216Y-103169190D01*
X129226697Y-103142838D01*
X129228364Y-103142508D01*
X129228363Y-103142507D01*
X129236544Y-103140888D01*
X129236585Y-103140871D01*
X129246228Y-103138954D01*
X129248193Y-103137984D01*
X129250744Y-103137021D01*
X129251772Y-103136745D01*
X129251776Y-103136744D01*
X129251773Y-103136744D01*
X129251779Y-103136743D01*
X129252891Y-103136360D01*
X129255528Y-103135730D01*
X129257721Y-103135428D01*
X129262954Y-103133221D01*
X129274401Y-103128393D01*
X129274401Y-103128394D01*
X129303429Y-103116168D01*
X129303429Y-103116167D01*
X129304879Y-103115557D01*
X129304992Y-103115492D01*
X129908351Y-102861045D01*
X129919066Y-102860978D01*
X129924371Y-102864777D01*
X129974565Y-102922704D01*
X130053996Y-102973751D01*
X130094068Y-102999504D01*
X130230363Y-103039524D01*
X130230364Y-103039524D01*
X130230367Y-103039525D01*
X130230370Y-103039525D01*
X130372416Y-103039525D01*
X130372419Y-103039525D01*
X130508718Y-102999504D01*
X130628221Y-102922704D01*
X130721246Y-102815348D01*
X130780257Y-102686132D01*
X130800473Y-102545525D01*
X130780257Y-102404918D01*
X130721246Y-102275702D01*
X130628221Y-102168346D01*
X130551419Y-102118988D01*
X130508717Y-102091545D01*
X130372422Y-102051525D01*
X130372419Y-102051525D01*
X130230367Y-102051525D01*
X130230363Y-102051525D01*
X130094068Y-102091545D01*
X129974565Y-102168346D01*
X129974562Y-102168349D01*
X129881538Y-102275704D01*
X129822530Y-102404915D01*
X129822529Y-102404917D01*
X129802313Y-102545525D01*
X129809003Y-102592061D01*
X129806352Y-102602443D01*
X129800585Y-102606953D01*
X129518885Y-102725751D01*
X129508170Y-102725819D01*
X129500545Y-102718291D01*
X129500477Y-102707576D01*
X129500696Y-102707067D01*
X129510257Y-102686132D01*
X129530473Y-102545525D01*
X129510257Y-102404918D01*
X129451246Y-102275702D01*
X129358221Y-102168346D01*
X129281420Y-102118988D01*
X129238717Y-102091545D01*
X129102422Y-102051525D01*
X129102419Y-102051525D01*
X128960367Y-102051525D01*
X128960363Y-102051525D01*
X128824068Y-102091545D01*
X128704565Y-102168346D01*
X128704562Y-102168349D01*
X128611538Y-102275704D01*
X128573788Y-102358365D01*
X128565945Y-102365666D01*
X128555237Y-102365284D01*
X128548929Y-102359549D01*
X128541169Y-102346108D01*
X128533679Y-102339823D01*
X128459987Y-102277988D01*
X128410195Y-102259866D01*
X128360406Y-102241744D01*
X128360405Y-102241744D01*
X128254433Y-102241744D01*
X128254431Y-102241744D01*
X128154851Y-102277988D01*
X128073668Y-102346108D01*
X128020684Y-102437881D01*
X128002283Y-102542241D01*
X128002283Y-102542246D01*
X128020684Y-102646606D01*
X128073668Y-102738379D01*
X128073670Y-102738381D01*
X128073671Y-102738382D01*
X128154851Y-102806500D01*
X128254433Y-102842744D01*
X128254434Y-102842744D01*
X128360404Y-102842744D01*
X128360405Y-102842744D01*
X128459987Y-102806500D01*
X128541167Y-102738382D01*
X128547256Y-102727835D01*
X128555756Y-102721312D01*
X128566379Y-102722710D01*
X128572115Y-102729019D01*
X128611538Y-102815345D01*
X128611539Y-102815346D01*
X128611540Y-102815348D01*
X128704565Y-102922704D01*
X128719031Y-102932000D01*
X128725141Y-102940801D01*
X128723239Y-102951346D01*
X128714437Y-102957457D01*
X128713941Y-102957556D01*
X127299679Y-103212134D01*
X127289210Y-103209852D01*
X127285075Y-103205356D01*
X127282756Y-103201339D01*
X127201576Y-103133221D01*
X127151785Y-103115099D01*
X127101995Y-103096977D01*
X127101994Y-103096977D01*
X126996022Y-103096977D01*
X126996020Y-103096977D01*
X126896440Y-103133221D01*
X126815257Y-103201341D01*
X126762273Y-103293114D01*
X126743872Y-103397474D01*
X126743872Y-103397479D01*
X126525370Y-103397479D01*
X126493501Y-103342279D01*
X126468767Y-103321525D01*
X126413493Y-103275144D01*
X126408546Y-103265640D01*
X126411768Y-103255421D01*
X126413485Y-103253703D01*
X126480999Y-103197053D01*
X126493028Y-103176219D01*
X126512491Y-103142507D01*
X126533985Y-103105278D01*
X126552387Y-103000915D01*
X126552387Y-103000912D01*
X126533985Y-102896552D01*
X126481001Y-102804779D01*
X126475565Y-102800218D01*
X126402423Y-102738844D01*
X126397476Y-102729340D01*
X126400698Y-102719121D01*
X126405142Y-102716014D01*
X126405009Y-102715783D01*
X126406066Y-102715171D01*
X126406069Y-102715171D01*
X126487249Y-102647053D01*
X126487507Y-102646607D01*
X126518998Y-102592061D01*
X126540235Y-102555278D01*
X126546368Y-102520490D01*
X126558637Y-102450917D01*
X126558637Y-102450912D01*
X126540235Y-102346552D01*
X126487251Y-102254779D01*
X126482564Y-102250846D01*
X126435838Y-102211638D01*
X126430891Y-102202135D01*
X126434113Y-102191916D01*
X126435835Y-102190193D01*
X126487249Y-102147053D01*
X126540235Y-102055278D01*
X126552639Y-101984933D01*
X126558637Y-101950917D01*
X126558637Y-101950912D01*
X126540235Y-101846552D01*
X126487251Y-101754779D01*
X126487249Y-101754777D01*
X126424665Y-101702263D01*
X126419718Y-101692760D01*
X126422940Y-101682541D01*
X126424662Y-101680818D01*
X126487249Y-101628303D01*
X126540235Y-101536528D01*
X126547964Y-101492693D01*
X126558637Y-101432167D01*
X126558637Y-101432162D01*
X126540235Y-101327802D01*
X126487251Y-101236029D01*
X126478205Y-101228439D01*
X127945955Y-101228439D01*
X127964356Y-101332799D01*
X128017340Y-101424572D01*
X128017342Y-101424574D01*
X128017343Y-101424575D01*
X128098523Y-101492693D01*
X128198105Y-101528937D01*
X128198106Y-101528937D01*
X128304076Y-101528937D01*
X128304077Y-101528937D01*
X128403659Y-101492693D01*
X128484839Y-101424575D01*
X128504936Y-101389762D01*
X128513437Y-101383240D01*
X128517901Y-101382788D01*
X128536607Y-101383917D01*
X128546240Y-101388607D01*
X128549619Y-101395899D01*
X128552528Y-101416129D01*
X128552528Y-101416130D01*
X128611538Y-101545345D01*
X128611539Y-101545346D01*
X128611540Y-101545348D01*
X128704565Y-101652704D01*
X128824068Y-101729504D01*
X128960363Y-101769524D01*
X128960364Y-101769524D01*
X128960367Y-101769525D01*
X128960370Y-101769525D01*
X129102416Y-101769525D01*
X129102419Y-101769525D01*
X129238718Y-101729504D01*
X129358221Y-101652704D01*
X129451246Y-101545348D01*
X129510257Y-101416132D01*
X129530473Y-101275525D01*
X129802313Y-101275525D01*
X129805615Y-101298489D01*
X129822529Y-101416132D01*
X129822530Y-101416134D01*
X129881538Y-101545345D01*
X129881539Y-101545346D01*
X129881540Y-101545348D01*
X129974565Y-101652704D01*
X130094067Y-101729504D01*
X130094068Y-101729504D01*
X130230363Y-101769524D01*
X130230364Y-101769524D01*
X130230367Y-101769525D01*
X130230370Y-101769525D01*
X130372416Y-101769525D01*
X130372419Y-101769525D01*
X130508718Y-101729504D01*
X130628221Y-101652704D01*
X130721246Y-101545348D01*
X130780257Y-101416132D01*
X130780257Y-101416131D01*
X130780673Y-101415221D01*
X130781269Y-101415493D01*
X130786590Y-101408744D01*
X130793240Y-101406960D01*
X130826130Y-101406520D01*
X130836082Y-101410488D01*
X130838439Y-101413517D01*
X130839950Y-101416134D01*
X130865844Y-101460987D01*
X130865846Y-101460989D01*
X130865847Y-101460990D01*
X130947027Y-101529108D01*
X131046609Y-101565352D01*
X131046610Y-101565352D01*
X131152580Y-101565352D01*
X131152581Y-101565352D01*
X131252163Y-101529108D01*
X131333343Y-101460990D01*
X131386329Y-101369215D01*
X131396362Y-101312316D01*
X131404731Y-101264854D01*
X131404731Y-101264849D01*
X131386329Y-101160489D01*
X131333345Y-101068716D01*
X131333343Y-101068714D01*
X131252163Y-101000596D01*
X131202371Y-100982474D01*
X131152582Y-100964352D01*
X131152581Y-100964352D01*
X131046609Y-100964352D01*
X131046607Y-100964352D01*
X130947027Y-101000596D01*
X130865844Y-101068716D01*
X130834187Y-101123548D01*
X130825686Y-101130071D01*
X130822250Y-101130547D01*
X130787657Y-101131009D01*
X130777704Y-101127041D01*
X130774735Y-101122826D01*
X130721247Y-101005704D01*
X130721246Y-101005703D01*
X130721246Y-101005702D01*
X130628221Y-100898346D01*
X130551419Y-100848988D01*
X130508717Y-100821545D01*
X130372422Y-100781525D01*
X130372419Y-100781525D01*
X130230367Y-100781525D01*
X130230363Y-100781525D01*
X130094068Y-100821545D01*
X129974565Y-100898346D01*
X129974562Y-100898349D01*
X129881538Y-101005704D01*
X129822530Y-101134915D01*
X129822529Y-101134917D01*
X129803848Y-101264852D01*
X129802313Y-101275525D01*
X129530473Y-101275525D01*
X129510257Y-101134918D01*
X129451246Y-101005702D01*
X129358221Y-100898346D01*
X129281419Y-100848988D01*
X129238717Y-100821545D01*
X129102422Y-100781525D01*
X129102419Y-100781525D01*
X128960367Y-100781525D01*
X128960363Y-100781525D01*
X128824068Y-100821545D01*
X128704565Y-100898346D01*
X128704562Y-100898349D01*
X128611538Y-101005704D01*
X128568315Y-101100350D01*
X128560472Y-101107651D01*
X128554737Y-101108509D01*
X128535419Y-101107343D01*
X128525784Y-101102653D01*
X128524140Y-101100371D01*
X128505863Y-101068714D01*
X128484841Y-101032301D01*
X128453144Y-101005704D01*
X128403659Y-100964181D01*
X128353867Y-100946059D01*
X128304078Y-100927937D01*
X128304077Y-100927937D01*
X128198105Y-100927937D01*
X128198103Y-100927937D01*
X128098523Y-100964181D01*
X128017340Y-101032301D01*
X127964356Y-101124074D01*
X127945955Y-101228434D01*
X127945955Y-101228439D01*
X126478205Y-101228439D01*
X126478203Y-101228437D01*
X126413494Y-101174139D01*
X126408546Y-101164634D01*
X126411768Y-101154415D01*
X126413483Y-101152699D01*
X126487249Y-101090803D01*
X126540235Y-100999028D01*
X126552770Y-100927937D01*
X126558637Y-100894667D01*
X126558637Y-100894662D01*
X126540235Y-100790302D01*
X126487251Y-100698529D01*
X126487249Y-100698527D01*
X126425670Y-100646856D01*
X126420723Y-100637353D01*
X126423945Y-100627134D01*
X126425667Y-100625411D01*
X126491951Y-100569794D01*
X126544937Y-100478019D01*
X126563339Y-100373656D01*
X126563339Y-100373653D01*
X126544937Y-100269293D01*
X126491953Y-100177520D01*
X126491951Y-100177518D01*
X126423738Y-100120281D01*
X126418791Y-100110777D01*
X126422013Y-100100558D01*
X126423734Y-100098836D01*
X126478693Y-100052722D01*
X126505941Y-100005527D01*
X128036642Y-100005527D01*
X128057555Y-100164373D01*
X128057555Y-100164375D01*
X128118869Y-100312400D01*
X128118870Y-100312402D01*
X128118871Y-100312403D01*
X128216406Y-100439512D01*
X128343518Y-100537049D01*
X128491543Y-100598363D01*
X128610508Y-100614025D01*
X128690278Y-100614025D01*
X128809243Y-100598363D01*
X128957268Y-100537049D01*
X129084380Y-100439512D01*
X129181917Y-100312401D01*
X129243231Y-100164375D01*
X129264144Y-100005527D01*
X130068642Y-100005527D01*
X130089555Y-100164373D01*
X130089555Y-100164375D01*
X130150869Y-100312400D01*
X130150870Y-100312402D01*
X130150871Y-100312403D01*
X130248406Y-100439512D01*
X130375518Y-100537049D01*
X130523543Y-100598363D01*
X130642508Y-100614025D01*
X130722278Y-100614025D01*
X130841243Y-100598363D01*
X130989268Y-100537049D01*
X131116380Y-100439512D01*
X131213917Y-100312401D01*
X131275231Y-100164375D01*
X131296144Y-100005525D01*
X131275231Y-99846675D01*
X131213917Y-99698650D01*
X131213915Y-99698648D01*
X131213915Y-99698647D01*
X131144678Y-99608417D01*
X131116380Y-99571538D01*
X131041467Y-99514055D01*
X130989270Y-99474002D01*
X130989268Y-99474001D01*
X130989267Y-99474001D01*
X130841243Y-99412687D01*
X130811501Y-99408771D01*
X130722281Y-99397025D01*
X130722278Y-99397025D01*
X130642508Y-99397025D01*
X130642504Y-99397025D01*
X130547335Y-99409554D01*
X130523543Y-99412687D01*
X130523542Y-99412687D01*
X130375517Y-99474001D01*
X130375515Y-99474002D01*
X130248406Y-99571538D01*
X130150870Y-99698646D01*
X130150869Y-99698648D01*
X130103489Y-99813036D01*
X130089555Y-99846675D01*
X130088250Y-99856586D01*
X130068642Y-100005522D01*
X130068642Y-100005527D01*
X129264144Y-100005527D01*
X129264144Y-100005525D01*
X129243231Y-99846675D01*
X129181917Y-99698650D01*
X129181915Y-99698648D01*
X129181915Y-99698647D01*
X129112678Y-99608417D01*
X129084380Y-99571538D01*
X129009467Y-99514055D01*
X128957270Y-99474002D01*
X128957268Y-99474001D01*
X128957267Y-99474001D01*
X128809243Y-99412687D01*
X128779501Y-99408771D01*
X128690281Y-99397025D01*
X128690278Y-99397025D01*
X128610508Y-99397025D01*
X128610504Y-99397025D01*
X128515335Y-99409554D01*
X128491543Y-99412687D01*
X128491542Y-99412687D01*
X128343517Y-99474001D01*
X128343515Y-99474002D01*
X128216406Y-99571538D01*
X128118870Y-99698646D01*
X128118869Y-99698648D01*
X128071489Y-99813036D01*
X128057555Y-99846675D01*
X128056250Y-99856586D01*
X128036642Y-100005522D01*
X128036642Y-100005527D01*
X126505941Y-100005527D01*
X126531679Y-99960947D01*
X126550081Y-99856584D01*
X126550081Y-99856581D01*
X126531679Y-99752221D01*
X126478695Y-99660448D01*
X126478693Y-99660446D01*
X126416686Y-99608416D01*
X126411739Y-99598912D01*
X126414961Y-99588693D01*
X126416682Y-99586971D01*
X126483113Y-99531231D01*
X126485277Y-99527484D01*
X126516154Y-99474002D01*
X126536099Y-99439456D01*
X126545263Y-99387482D01*
X126554501Y-99335095D01*
X126554501Y-99335090D01*
X126536099Y-99230730D01*
X126483115Y-99138957D01*
X126483113Y-99138955D01*
X126401933Y-99070837D01*
X126352142Y-99052714D01*
X126302352Y-99034593D01*
X126302351Y-99034593D01*
X126264000Y-99034593D01*
X126254101Y-99030492D01*
X126250000Y-99020593D01*
X126250000Y-99014000D01*
X126254101Y-99004101D01*
X126264000Y-99000000D01*
X135354676Y-99000000D01*
X135364575Y-99004101D01*
G37*
%TD.AperFunction*%
%TD*%
%TA.AperFunction,Conductor*%
%TO.N,QVAR2*%
G36*
X152643394Y-99004101D02*
G01*
X152647495Y-99014000D01*
X152643394Y-99023899D01*
X152642500Y-99024718D01*
X152621206Y-99042586D01*
X152600997Y-99059544D01*
X152548013Y-99151317D01*
X152529612Y-99255677D01*
X152529612Y-99255682D01*
X152548013Y-99360042D01*
X152600997Y-99451815D01*
X152600999Y-99451817D01*
X152601000Y-99451818D01*
X152657931Y-99499588D01*
X152662879Y-99509093D01*
X152659657Y-99519312D01*
X152657931Y-99521038D01*
X152582247Y-99584544D01*
X152529263Y-99676317D01*
X152510862Y-99780677D01*
X152510862Y-99780682D01*
X152529263Y-99885042D01*
X152582247Y-99976815D01*
X152582249Y-99976817D01*
X152582250Y-99976818D01*
X152646030Y-100030335D01*
X152650978Y-100039840D01*
X152647756Y-100050059D01*
X152646030Y-100051785D01*
X152569747Y-100115794D01*
X152516763Y-100207567D01*
X152498362Y-100311927D01*
X152498362Y-100311932D01*
X152516763Y-100416292D01*
X152569747Y-100508065D01*
X152569749Y-100508067D01*
X152569750Y-100508068D01*
X152633530Y-100561585D01*
X152638478Y-100571090D01*
X152635256Y-100581309D01*
X152633530Y-100583035D01*
X152557247Y-100647044D01*
X152504263Y-100738817D01*
X152485862Y-100843177D01*
X152485862Y-100843182D01*
X152504263Y-100947542D01*
X152557247Y-101039315D01*
X152557249Y-101039317D01*
X152557250Y-101039318D01*
X152614181Y-101087088D01*
X152619129Y-101096593D01*
X152615907Y-101106812D01*
X152614181Y-101108538D01*
X152538497Y-101172044D01*
X152485513Y-101263817D01*
X152467112Y-101368177D01*
X152467112Y-101368182D01*
X152485513Y-101472542D01*
X152538497Y-101564315D01*
X152538499Y-101564317D01*
X152538500Y-101564318D01*
X152583852Y-101602372D01*
X152615978Y-101629330D01*
X152620926Y-101638835D01*
X152617704Y-101649054D01*
X152615978Y-101650780D01*
X152538497Y-101715794D01*
X152485513Y-101807567D01*
X152467112Y-101911927D01*
X152467112Y-101911932D01*
X152485513Y-102016292D01*
X152538497Y-102108065D01*
X152538499Y-102108067D01*
X152538500Y-102108068D01*
X152575285Y-102138934D01*
X152615978Y-102173080D01*
X152620926Y-102182585D01*
X152617704Y-102192804D01*
X152615978Y-102194530D01*
X152538497Y-102259544D01*
X152485513Y-102351317D01*
X152467112Y-102455677D01*
X152467112Y-102455682D01*
X152485513Y-102560042D01*
X152538497Y-102651815D01*
X152538499Y-102651817D01*
X152538500Y-102651818D01*
X152611655Y-102713202D01*
X152616603Y-102722707D01*
X152613381Y-102732926D01*
X152611655Y-102734652D01*
X152544747Y-102790794D01*
X152491763Y-102882567D01*
X152473362Y-102986927D01*
X152473362Y-102986932D01*
X152491763Y-103091292D01*
X152544747Y-103183065D01*
X152544749Y-103183067D01*
X152544750Y-103183068D01*
X152607931Y-103236083D01*
X152612879Y-103245587D01*
X152609657Y-103255806D01*
X152607931Y-103257532D01*
X152538497Y-103315794D01*
X152485513Y-103407567D01*
X152467112Y-103511927D01*
X152467112Y-103511932D01*
X152485513Y-103616292D01*
X152538497Y-103708065D01*
X152538499Y-103708067D01*
X152538500Y-103708068D01*
X152619680Y-103776186D01*
X152719262Y-103812430D01*
X152719263Y-103812430D01*
X152736000Y-103812430D01*
X152745899Y-103816531D01*
X152750000Y-103826430D01*
X152750000Y-106794996D01*
X152745899Y-106804895D01*
X152736000Y-106808996D01*
X152727001Y-106805721D01*
X152688735Y-106773613D01*
X152589154Y-106737369D01*
X152589153Y-106737369D01*
X152512395Y-106737369D01*
X152502496Y-106733268D01*
X152498395Y-106723369D01*
X152498608Y-106720938D01*
X152510418Y-106653961D01*
X152510418Y-106653957D01*
X152492016Y-106549597D01*
X152439032Y-106457824D01*
X152439030Y-106457822D01*
X152357850Y-106389704D01*
X152308059Y-106371581D01*
X152258269Y-106353460D01*
X152258268Y-106353460D01*
X152152296Y-106353460D01*
X152152294Y-106353460D01*
X152052714Y-106389704D01*
X151971531Y-106457824D01*
X151918547Y-106549597D01*
X151900146Y-106653957D01*
X151900146Y-106653962D01*
X151918547Y-106758322D01*
X151971531Y-106850095D01*
X151971533Y-106850097D01*
X151971534Y-106850098D01*
X152052714Y-106918216D01*
X152152296Y-106954460D01*
X152229054Y-106954460D01*
X152238953Y-106958561D01*
X152243054Y-106968460D01*
X152242841Y-106970891D01*
X152231031Y-107037867D01*
X152231031Y-107037871D01*
X152249432Y-107142231D01*
X152302416Y-107234004D01*
X152302418Y-107234006D01*
X152302419Y-107234007D01*
X152383599Y-107302125D01*
X152483181Y-107338369D01*
X152483182Y-107338369D01*
X152589152Y-107338369D01*
X152589153Y-107338369D01*
X152688735Y-107302125D01*
X152688736Y-107302123D01*
X152688738Y-107302123D01*
X152727001Y-107270016D01*
X152737220Y-107266793D01*
X152746724Y-107271741D01*
X152750000Y-107280740D01*
X152750000Y-109737854D01*
X152745899Y-109747753D01*
X152736000Y-109751854D01*
X152667762Y-109751854D01*
X152568182Y-109788098D01*
X152486999Y-109856218D01*
X152434015Y-109947991D01*
X152415614Y-110052351D01*
X152415614Y-110052356D01*
X152434015Y-110156716D01*
X152486999Y-110248489D01*
X152487001Y-110248491D01*
X152487002Y-110248492D01*
X152568182Y-110316610D01*
X152574055Y-110318747D01*
X152574265Y-110318824D01*
X152582165Y-110326063D01*
X152582633Y-110336768D01*
X152575394Y-110344668D01*
X152574265Y-110345136D01*
X152550505Y-110353784D01*
X152469322Y-110421904D01*
X152416338Y-110513677D01*
X152397937Y-110618037D01*
X152397937Y-110618042D01*
X152416338Y-110722402D01*
X152469322Y-110814175D01*
X152469324Y-110814177D01*
X152469325Y-110814178D01*
X152550505Y-110882296D01*
X152581987Y-110893754D01*
X152589887Y-110900993D01*
X152590355Y-110911698D01*
X152583116Y-110919598D01*
X152581987Y-110920066D01*
X152559343Y-110928308D01*
X152478160Y-110996428D01*
X152425176Y-111088201D01*
X152406775Y-111192561D01*
X152406775Y-111192566D01*
X152425176Y-111296926D01*
X152478160Y-111388699D01*
X152478162Y-111388701D01*
X152478163Y-111388702D01*
X152559343Y-111456820D01*
X152596866Y-111470477D01*
X152610691Y-111475509D01*
X152618591Y-111482748D01*
X152619059Y-111493453D01*
X152611820Y-111501353D01*
X152610691Y-111501821D01*
X152559343Y-111520510D01*
X152478160Y-111588630D01*
X152425176Y-111680403D01*
X152406775Y-111784763D01*
X152406775Y-111784768D01*
X152425176Y-111889128D01*
X152478160Y-111980901D01*
X152478162Y-111980903D01*
X152478163Y-111980904D01*
X152559343Y-112049022D01*
X152658925Y-112085266D01*
X152658926Y-112085266D01*
X152736000Y-112085266D01*
X152745899Y-112089367D01*
X152750000Y-112099266D01*
X152750000Y-112106662D01*
X152745899Y-112116561D01*
X152736000Y-112120662D01*
X152658923Y-112120662D01*
X152559343Y-112156906D01*
X152478160Y-112225026D01*
X152425176Y-112316799D01*
X152406775Y-112421159D01*
X152406775Y-112421164D01*
X152425176Y-112525524D01*
X152478160Y-112617297D01*
X152478162Y-112617299D01*
X152478163Y-112617300D01*
X152559343Y-112685418D01*
X152658925Y-112721662D01*
X152658926Y-112721662D01*
X152736000Y-112721662D01*
X152745899Y-112725763D01*
X152750000Y-112735662D01*
X152750000Y-112760736D01*
X152745899Y-112770635D01*
X152736000Y-112774736D01*
X152650085Y-112774736D01*
X152550505Y-112810980D01*
X152469322Y-112879100D01*
X152416338Y-112970873D01*
X152397937Y-113075233D01*
X152397937Y-113075238D01*
X152416338Y-113179598D01*
X152469322Y-113271371D01*
X152469324Y-113271373D01*
X152469325Y-113271374D01*
X152550505Y-113339492D01*
X152650087Y-113375736D01*
X152650088Y-113375736D01*
X152736000Y-113375736D01*
X152745899Y-113379837D01*
X152750000Y-113389736D01*
X152750000Y-113405971D01*
X152745899Y-113415870D01*
X152736000Y-113419971D01*
X152641246Y-113419971D01*
X152541666Y-113456215D01*
X152460483Y-113524335D01*
X152407499Y-113616108D01*
X152389098Y-113720468D01*
X152389098Y-113720473D01*
X152407499Y-113824833D01*
X152460483Y-113916606D01*
X152460485Y-113916608D01*
X152460486Y-113916609D01*
X152541666Y-113984727D01*
X152641248Y-114020971D01*
X152641249Y-114020971D01*
X152736000Y-114020971D01*
X152745899Y-114025072D01*
X152750000Y-114034971D01*
X152750000Y-114095400D01*
X152745899Y-114105299D01*
X152736000Y-114109400D01*
X152641246Y-114109400D01*
X152541666Y-114145644D01*
X152460483Y-114213764D01*
X152407499Y-114305537D01*
X152389098Y-114409897D01*
X152389098Y-114409902D01*
X152407499Y-114514262D01*
X152460483Y-114606035D01*
X152460485Y-114606037D01*
X152460486Y-114606038D01*
X152541666Y-114674156D01*
X152641248Y-114710400D01*
X152641249Y-114710400D01*
X152736000Y-114710400D01*
X152745899Y-114714501D01*
X152750000Y-114724400D01*
X152750000Y-114811345D01*
X152745899Y-114821244D01*
X152736000Y-114825345D01*
X152658923Y-114825345D01*
X152559343Y-114861589D01*
X152478160Y-114929709D01*
X152425176Y-115021482D01*
X152406775Y-115125842D01*
X152406775Y-115125847D01*
X152425176Y-115230207D01*
X152478160Y-115321980D01*
X152478162Y-115321982D01*
X152478163Y-115321983D01*
X152549032Y-115381449D01*
X152553979Y-115390952D01*
X152550757Y-115401171D01*
X152549031Y-115402896D01*
X152495654Y-115447686D01*
X152495652Y-115447689D01*
X152442667Y-115539462D01*
X152424266Y-115643822D01*
X152424266Y-115643827D01*
X152442667Y-115748187D01*
X152495651Y-115839960D01*
X152495653Y-115839962D01*
X152495654Y-115839963D01*
X152547748Y-115883675D01*
X152552696Y-115893180D01*
X152549474Y-115903399D01*
X152545105Y-115906874D01*
X152381286Y-115990344D01*
X152381270Y-115990354D01*
X152230957Y-116099563D01*
X152230949Y-116099570D01*
X152099570Y-116230949D01*
X152099563Y-116230957D01*
X151990354Y-116381270D01*
X151990344Y-116381286D01*
X151905988Y-116546842D01*
X151848568Y-116723565D01*
X151819500Y-116907093D01*
X151819500Y-116986000D01*
X151815399Y-116995899D01*
X151805500Y-117000000D01*
X139674000Y-117000000D01*
X139664101Y-116995899D01*
X139660000Y-116986000D01*
X139660000Y-116727236D01*
X139661876Y-116720236D01*
X139673413Y-116700254D01*
X139691815Y-116595891D01*
X139691815Y-116595888D01*
X139673413Y-116491528D01*
X139661876Y-116471544D01*
X139660000Y-116464544D01*
X139660000Y-113867717D01*
X140961516Y-113867717D01*
X140979016Y-113955701D01*
X140979016Y-113955702D01*
X140979017Y-113955703D01*
X141028857Y-114030294D01*
X141103448Y-114080134D01*
X141147441Y-114088884D01*
X141191433Y-114097635D01*
X141191433Y-114097634D01*
X141191434Y-114097635D01*
X141279420Y-114080134D01*
X141354011Y-114030294D01*
X141368681Y-114008338D01*
X142001329Y-114008338D01*
X142019730Y-114112698D01*
X142072714Y-114204471D01*
X142072716Y-114204473D01*
X142072717Y-114204474D01*
X142153897Y-114272592D01*
X142253479Y-114308836D01*
X142253480Y-114308836D01*
X142359450Y-114308836D01*
X142359451Y-114308836D01*
X142459033Y-114272592D01*
X142459034Y-114272590D01*
X142459036Y-114272590D01*
X142476792Y-114257690D01*
X142484269Y-114251415D01*
X142494488Y-114248193D01*
X142503992Y-114253141D01*
X142507215Y-114263360D01*
X142507055Y-114264571D01*
X142495404Y-114330649D01*
X142495404Y-114330654D01*
X142513805Y-114435014D01*
X142566789Y-114526787D01*
X142566791Y-114526789D01*
X142566792Y-114526790D01*
X142647972Y-114594908D01*
X142747554Y-114631152D01*
X142747555Y-114631152D01*
X142853525Y-114631152D01*
X142853526Y-114631152D01*
X142953108Y-114594908D01*
X143034288Y-114526790D01*
X143041521Y-114514263D01*
X143058018Y-114485688D01*
X143087274Y-114435015D01*
X143105676Y-114330652D01*
X143105676Y-114330649D01*
X143087274Y-114226289D01*
X143034290Y-114134516D01*
X143034288Y-114134514D01*
X142953108Y-114066396D01*
X142903316Y-114048274D01*
X142853527Y-114030152D01*
X142853526Y-114030152D01*
X142747554Y-114030152D01*
X142747552Y-114030152D01*
X142647971Y-114066396D01*
X142647969Y-114066397D01*
X142622733Y-114087571D01*
X142612514Y-114090793D01*
X142603010Y-114085844D01*
X142599788Y-114075625D01*
X142599945Y-114074433D01*
X142611601Y-114008336D01*
X142611601Y-114008333D01*
X142593199Y-113903973D01*
X142540215Y-113812200D01*
X142540213Y-113812198D01*
X142459033Y-113744080D01*
X142394172Y-113720473D01*
X142359452Y-113707836D01*
X142359451Y-113707836D01*
X142253479Y-113707836D01*
X142253477Y-113707836D01*
X142153897Y-113744080D01*
X142072714Y-113812200D01*
X142019730Y-113903973D01*
X142001329Y-114008333D01*
X142001329Y-114008338D01*
X141368681Y-114008338D01*
X141403851Y-113955703D01*
X141421352Y-113867717D01*
X141403851Y-113779731D01*
X141354011Y-113705140D01*
X141279420Y-113655300D01*
X141279419Y-113655299D01*
X141279418Y-113655299D01*
X141191434Y-113637799D01*
X141103449Y-113655299D01*
X141028857Y-113705140D01*
X140979016Y-113779732D01*
X140961516Y-113867716D01*
X140961516Y-113867717D01*
X139660000Y-113867717D01*
X139660000Y-112670043D01*
X139664101Y-112660144D01*
X139674000Y-112656043D01*
X139683899Y-112660144D01*
X139685637Y-112662260D01*
X139692588Y-112672663D01*
X139767179Y-112722503D01*
X139855165Y-112740004D01*
X139943151Y-112722503D01*
X140017742Y-112672663D01*
X140067582Y-112598072D01*
X140067582Y-112598071D01*
X140068348Y-112596925D01*
X140068874Y-112597276D01*
X140074806Y-112591344D01*
X140085522Y-112591343D01*
X140091456Y-112597276D01*
X140091982Y-112596925D01*
X140092747Y-112598071D01*
X140092748Y-112598072D01*
X140142588Y-112672663D01*
X140217179Y-112722503D01*
X140232478Y-112725546D01*
X140305164Y-112740004D01*
X140305164Y-112740003D01*
X140305165Y-112740004D01*
X140393151Y-112722503D01*
X140467742Y-112672663D01*
X140517582Y-112598072D01*
X140517582Y-112598071D01*
X140518348Y-112596925D01*
X140518874Y-112597276D01*
X140524806Y-112591344D01*
X140535522Y-112591343D01*
X140541456Y-112597276D01*
X140541982Y-112596925D01*
X140542747Y-112598071D01*
X140542748Y-112598072D01*
X140592588Y-112672663D01*
X140667179Y-112722503D01*
X140755165Y-112740004D01*
X140836486Y-112723827D01*
X140846406Y-112725545D01*
X141430531Y-113075233D01*
X142273529Y-113579896D01*
X142274217Y-113580365D01*
X142275032Y-113580996D01*
X142287400Y-113588200D01*
X142299594Y-113595500D01*
X142300522Y-113595902D01*
X142301267Y-113596278D01*
X142319530Y-113606918D01*
X142319548Y-113606924D01*
X144005986Y-114589197D01*
X144012477Y-114597723D01*
X144011038Y-114608341D01*
X144007939Y-114612020D01*
X143934986Y-114673235D01*
X143882002Y-114765008D01*
X143869543Y-114835664D01*
X143863786Y-114844701D01*
X143853325Y-114847020D01*
X143853025Y-114846964D01*
X143812569Y-114838918D01*
X143812568Y-114838918D01*
X143724583Y-114856418D01*
X143649991Y-114906259D01*
X143600150Y-114980851D01*
X143582650Y-115068835D01*
X143582650Y-115068836D01*
X143596134Y-115136629D01*
X143594043Y-115147138D01*
X143594035Y-115147150D01*
X143517196Y-115261890D01*
X143517176Y-115261916D01*
X143502265Y-115284187D01*
X143502260Y-115284190D01*
X143499321Y-115288581D01*
X143494232Y-115296183D01*
X143489596Y-115303107D01*
X143489221Y-115303667D01*
X143489219Y-115303669D01*
X143488549Y-115305636D01*
X143488200Y-115306475D01*
X143476772Y-115329616D01*
X143476765Y-115329633D01*
X143468478Y-115354020D01*
X143468131Y-115354860D01*
X143467201Y-115356748D01*
X143463654Y-115374576D01*
X143462802Y-115378862D01*
X143460564Y-115390108D01*
X143460547Y-115390165D01*
X143460273Y-115391539D01*
X143460273Y-115391541D01*
X143458360Y-115401171D01*
X143455113Y-115417514D01*
X143455104Y-115417530D01*
X143452605Y-115430106D01*
X143452599Y-115430145D01*
X143450596Y-115440219D01*
X143450596Y-115440221D01*
X143450733Y-115442317D01*
X143450644Y-115445052D01*
X143450581Y-115445535D01*
X143450554Y-115445951D01*
X143450107Y-115448656D01*
X143449568Y-115450665D01*
X143449568Y-115461019D01*
X143449566Y-115461082D01*
X143449568Y-115467137D01*
X143449568Y-115835771D01*
X143449556Y-115835878D01*
X143449565Y-115863078D01*
X143449558Y-115863096D01*
X143449563Y-115876671D01*
X143449568Y-115876818D01*
X143449568Y-115887001D01*
X143449569Y-115887011D01*
X143450109Y-115889029D01*
X143450553Y-115891704D01*
X143450588Y-115892226D01*
X143450590Y-115892241D01*
X143450642Y-115892641D01*
X143450731Y-115895371D01*
X143450595Y-115897444D01*
X143450596Y-115897449D01*
X143452615Y-115907602D01*
X143452627Y-115907668D01*
X143453538Y-115912238D01*
X143463331Y-115961478D01*
X143463644Y-115963056D01*
X143463646Y-115963060D01*
X143463647Y-115963062D01*
X143463647Y-115963061D01*
X143467200Y-115980921D01*
X143468175Y-115982900D01*
X143468526Y-115983748D01*
X143476714Y-116007896D01*
X143476721Y-116007912D01*
X143488072Y-116030948D01*
X143488421Y-116031791D01*
X143489099Y-116033790D01*
X143499168Y-116048860D01*
X143517510Y-116076331D01*
X143517565Y-116076395D01*
X143521634Y-116082483D01*
X143521635Y-116082486D01*
X143526297Y-116089462D01*
X143533048Y-116099565D01*
X143536384Y-116104557D01*
X143537967Y-116105945D01*
X143538612Y-116106590D01*
X143555526Y-116125876D01*
X143555528Y-116125878D01*
X143555531Y-116125881D01*
X143574809Y-116142785D01*
X143575449Y-116143425D01*
X143576849Y-116145022D01*
X143589034Y-116153163D01*
X143589035Y-116153164D01*
X143591951Y-116155112D01*
X143591951Y-116155113D01*
X143605053Y-116163868D01*
X143605132Y-116163934D01*
X143606352Y-116164749D01*
X143606354Y-116164751D01*
X143628417Y-116179481D01*
X143628428Y-116179495D01*
X143632547Y-116182244D01*
X143632547Y-116182245D01*
X143638663Y-116186328D01*
X143638684Y-116186340D01*
X143638708Y-116186355D01*
X143647611Y-116192304D01*
X143649125Y-116192817D01*
X143653270Y-116195062D01*
X143654526Y-116196049D01*
X143661124Y-116198867D01*
X143664351Y-116200246D01*
X143664409Y-116200272D01*
X143664518Y-116200318D01*
X143664519Y-116200319D01*
X143667438Y-116201565D01*
X144254380Y-116452309D01*
X144259328Y-116454423D01*
X144259331Y-116454426D01*
X144263196Y-116456076D01*
X144263196Y-116456077D01*
X144278260Y-116462511D01*
X144279903Y-116463213D01*
X144279911Y-116463214D01*
X144280129Y-116463275D01*
X144280563Y-116463410D01*
X144313022Y-116474696D01*
X144326583Y-116478382D01*
X144346164Y-116483706D01*
X144346589Y-116483836D01*
X144346827Y-116483916D01*
X144346834Y-116483920D01*
X144359744Y-116486487D01*
X144359747Y-116486489D01*
X144364658Y-116487465D01*
X144364658Y-116487466D01*
X144366909Y-116487913D01*
X144370837Y-116488695D01*
X144375767Y-116489675D01*
X144379555Y-116490428D01*
X144379561Y-116490430D01*
X144381595Y-116490834D01*
X144381596Y-116490835D01*
X144412488Y-116496980D01*
X144430304Y-116500524D01*
X144430306Y-116500523D01*
X144431540Y-116500769D01*
X144431556Y-116500771D01*
X144433167Y-116501091D01*
X144445466Y-116503538D01*
X144512568Y-116507936D01*
X144579670Y-116503538D01*
X144593663Y-116500754D01*
X144593678Y-116500752D01*
X144594827Y-116500523D01*
X144594832Y-116500524D01*
X144612648Y-116496980D01*
X144643540Y-116490835D01*
X144643540Y-116490834D01*
X144648426Y-116489863D01*
X144648441Y-116489859D01*
X144678302Y-116483920D01*
X144678301Y-116483920D01*
X144679640Y-116483654D01*
X144679661Y-116483646D01*
X144693461Y-116480903D01*
X144757139Y-116459288D01*
X144817451Y-116429546D01*
X144830302Y-116420959D01*
X144830304Y-116420959D01*
X144864607Y-116398039D01*
X144871598Y-116393368D01*
X144871598Y-116393367D01*
X144901068Y-116373677D01*
X144901070Y-116373673D01*
X144901756Y-116373216D01*
X144901947Y-116373068D01*
X144913897Y-116365087D01*
X144964462Y-116320754D01*
X145008807Y-116270201D01*
X145016733Y-116258339D01*
X145016754Y-116258313D01*
X145017403Y-116257340D01*
X145017406Y-116257339D01*
X145021292Y-116251522D01*
X145023812Y-116247752D01*
X145027491Y-116242247D01*
X145044993Y-116216059D01*
X145044993Y-116216055D01*
X145045890Y-116214714D01*
X145045901Y-116214692D01*
X145054596Y-116201681D01*
X145054597Y-116201681D01*
X145064858Y-116186328D01*
X145065918Y-116184742D01*
X145065918Y-116184741D01*
X145068859Y-116179480D01*
X145085796Y-116149176D01*
X145102791Y-116112144D01*
X145102793Y-116112140D01*
X145109793Y-116093012D01*
X145110909Y-116089964D01*
X145116363Y-116075065D01*
X145227427Y-115771655D01*
X145227437Y-115771639D01*
X145236880Y-115745836D01*
X145236889Y-115745825D01*
X145238921Y-115740271D01*
X145238922Y-115740272D01*
X145244682Y-115724533D01*
X145244695Y-115724487D01*
X145244715Y-115724427D01*
X145245157Y-115723222D01*
X145245157Y-115723210D01*
X145245280Y-115722664D01*
X145245414Y-115722154D01*
X145254566Y-115692503D01*
X145262156Y-115662496D01*
X145262312Y-115661973D01*
X145262505Y-115661402D01*
X145262509Y-115661396D01*
X145262779Y-115660038D01*
X145262787Y-115660007D01*
X145266055Y-115643569D01*
X145266980Y-115638918D01*
X145279113Y-115577924D01*
X145279112Y-115577922D01*
X145279182Y-115577575D01*
X145279209Y-115577368D01*
X145279468Y-115576063D01*
X145283873Y-115553935D01*
X145289456Y-115468846D01*
X145283885Y-115383756D01*
X145279331Y-115360860D01*
X145279329Y-115360839D01*
X145279112Y-115359751D01*
X145279113Y-115359749D01*
X145274955Y-115338845D01*
X145272536Y-115326685D01*
X145272533Y-115326628D01*
X145268351Y-115305636D01*
X145268241Y-115305086D01*
X145268130Y-115304277D01*
X145268037Y-115303113D01*
X145268038Y-115303107D01*
X145265178Y-115289696D01*
X145264956Y-115288582D01*
X145263344Y-115280477D01*
X145262509Y-115276277D01*
X145262505Y-115276270D01*
X145262131Y-115275165D01*
X145261912Y-115274371D01*
X145261314Y-115271567D01*
X145257689Y-115254553D01*
X145257687Y-115254551D01*
X145257362Y-115253023D01*
X145257349Y-115252984D01*
X145120397Y-114610730D01*
X145120395Y-114610727D01*
X145120331Y-114610424D01*
X145120254Y-114610154D01*
X145113767Y-114579772D01*
X145080872Y-114485688D01*
X145036385Y-114396497D01*
X145025527Y-114380234D01*
X145019089Y-114370590D01*
X145019037Y-114370500D01*
X145018803Y-114370150D01*
X145018803Y-114370149D01*
X145008714Y-114355050D01*
X145008715Y-114355050D01*
X144991217Y-114328860D01*
X144990364Y-114327583D01*
X144990348Y-114327564D01*
X144964791Y-114289315D01*
X144946287Y-114261615D01*
X144917945Y-114226289D01*
X144903320Y-114208059D01*
X144855860Y-114158444D01*
X144832970Y-114138350D01*
X144830061Y-114135796D01*
X144806392Y-114115015D01*
X144806391Y-114115014D01*
X144618655Y-113950185D01*
X144821587Y-113950185D01*
X144839988Y-114054545D01*
X144892972Y-114146318D01*
X144892974Y-114146320D01*
X144892975Y-114146321D01*
X144974155Y-114214439D01*
X145073737Y-114250683D01*
X145073738Y-114250683D01*
X145179708Y-114250683D01*
X145179709Y-114250683D01*
X145279291Y-114214439D01*
X145360471Y-114146321D01*
X145413457Y-114054546D01*
X145431859Y-113950183D01*
X145431859Y-113950180D01*
X145413457Y-113845820D01*
X145360473Y-113754047D01*
X145348595Y-113744080D01*
X145279291Y-113685927D01*
X145229499Y-113667804D01*
X145179710Y-113649683D01*
X145179709Y-113649683D01*
X145073737Y-113649683D01*
X145073735Y-113649683D01*
X144974155Y-113685927D01*
X144892972Y-113754047D01*
X144839988Y-113845820D01*
X144821587Y-113950180D01*
X144821587Y-113950185D01*
X144618655Y-113950185D01*
X144104029Y-113498353D01*
X146193519Y-113498353D01*
X146211920Y-113602713D01*
X146264904Y-113694486D01*
X146264906Y-113694488D01*
X146264907Y-113694489D01*
X146346087Y-113762607D01*
X146445669Y-113798851D01*
X146445670Y-113798851D01*
X146551640Y-113798851D01*
X146551641Y-113798851D01*
X146651223Y-113762607D01*
X146732403Y-113694489D01*
X146785389Y-113602714D01*
X146791523Y-113567926D01*
X146803791Y-113498353D01*
X146803791Y-113498348D01*
X146785389Y-113393988D01*
X146732405Y-113302215D01*
X146695650Y-113271374D01*
X146651223Y-113234095D01*
X146601431Y-113215972D01*
X146551642Y-113197851D01*
X146551641Y-113197851D01*
X146445669Y-113197851D01*
X146445667Y-113197851D01*
X146346087Y-113234095D01*
X146264904Y-113302215D01*
X146211920Y-113393988D01*
X146193519Y-113498348D01*
X146193519Y-113498353D01*
X144104029Y-113498353D01*
X142994567Y-112524265D01*
X142993128Y-112523001D01*
X142989205Y-112519556D01*
X142989204Y-112519555D01*
X142989164Y-112519520D01*
X142989137Y-112519498D01*
X142985426Y-112516240D01*
X142984788Y-112515601D01*
X142983421Y-112514042D01*
X142983409Y-112514034D01*
X142981722Y-112512906D01*
X142980993Y-112512347D01*
X142980207Y-112511658D01*
X142979465Y-112511006D01*
X142979463Y-112511005D01*
X142977621Y-112510095D01*
X142976831Y-112509638D01*
X142929619Y-112478093D01*
X142903428Y-112460594D01*
X142899818Y-112458182D01*
X142888326Y-112450503D01*
X142885747Y-112449628D01*
X142883562Y-112448671D01*
X142875340Y-112444202D01*
X142875335Y-112444199D01*
X142866753Y-112440502D01*
X142864651Y-112439375D01*
X142862367Y-112437887D01*
X142862368Y-112437887D01*
X142845099Y-112432247D01*
X142814065Y-112422111D01*
X142814062Y-112422110D01*
X142620368Y-112358848D01*
X142612231Y-112351877D01*
X142611407Y-112341193D01*
X142615714Y-112334817D01*
X142639298Y-112315029D01*
X142648446Y-112299185D01*
X142663850Y-112272503D01*
X142692284Y-112223254D01*
X142710686Y-112118891D01*
X142710686Y-112118888D01*
X142692284Y-112014528D01*
X142639300Y-111922755D01*
X142639298Y-111922753D01*
X142558118Y-111854635D01*
X142490894Y-111830168D01*
X142458537Y-111818391D01*
X142458536Y-111818391D01*
X142352564Y-111818391D01*
X142352562Y-111818391D01*
X142252982Y-111854635D01*
X142171799Y-111922755D01*
X142118815Y-112014528D01*
X142110593Y-112061158D01*
X142104836Y-112070195D01*
X142094375Y-112072514D01*
X142088023Y-112069629D01*
X141941530Y-111951604D01*
X141778837Y-111820526D01*
X141773701Y-111811124D01*
X141776719Y-111800843D01*
X141779840Y-111797987D01*
X141817742Y-111772663D01*
X141867582Y-111698072D01*
X141879484Y-111638236D01*
X147001763Y-111638236D01*
X147020164Y-111742596D01*
X147073148Y-111834369D01*
X147073150Y-111834371D01*
X147073151Y-111834372D01*
X147154331Y-111902490D01*
X147253913Y-111938734D01*
X147253914Y-111938734D01*
X147359884Y-111938734D01*
X147359885Y-111938734D01*
X147459467Y-111902490D01*
X147540647Y-111834372D01*
X147593633Y-111742597D01*
X147603432Y-111687023D01*
X147612035Y-111638236D01*
X147612035Y-111638231D01*
X147593633Y-111533871D01*
X147540649Y-111442098D01*
X147531275Y-111434232D01*
X147459467Y-111373978D01*
X147409675Y-111355856D01*
X147359886Y-111337734D01*
X147359885Y-111337734D01*
X147253913Y-111337734D01*
X147253911Y-111337734D01*
X147154331Y-111373978D01*
X147073148Y-111442098D01*
X147020164Y-111533871D01*
X147001763Y-111638231D01*
X147001763Y-111638236D01*
X141879484Y-111638236D01*
X141885083Y-111610086D01*
X141867582Y-111522100D01*
X141817742Y-111447509D01*
X141743151Y-111397669D01*
X141743150Y-111397668D01*
X141743149Y-111397668D01*
X141655165Y-111380168D01*
X141567180Y-111397668D01*
X141492588Y-111447509D01*
X141442746Y-111522101D01*
X141442229Y-111523351D01*
X141434652Y-111530928D01*
X141423937Y-111530927D01*
X141420399Y-111528803D01*
X140989760Y-111174420D01*
X140987394Y-111169979D01*
X145431447Y-111169979D01*
X145449848Y-111274339D01*
X145502832Y-111366112D01*
X145502834Y-111366114D01*
X145502835Y-111366115D01*
X145584015Y-111434233D01*
X145683597Y-111470477D01*
X145683598Y-111470477D01*
X145789568Y-111470477D01*
X145789569Y-111470477D01*
X145889151Y-111434233D01*
X145970331Y-111366115D01*
X146023317Y-111274340D01*
X146037736Y-111192566D01*
X146041719Y-111169979D01*
X146041719Y-111169974D01*
X146023317Y-111065614D01*
X145970333Y-110973841D01*
X145970331Y-110973839D01*
X145889151Y-110905721D01*
X145824787Y-110882295D01*
X145789570Y-110869477D01*
X145789569Y-110869477D01*
X145683597Y-110869477D01*
X145683595Y-110869477D01*
X145584015Y-110905721D01*
X145502832Y-110973841D01*
X145449848Y-111065614D01*
X145431447Y-111169974D01*
X145431447Y-111169979D01*
X140987394Y-111169979D01*
X140984722Y-111164964D01*
X140984926Y-111160875D01*
X140985083Y-111160086D01*
X140985083Y-111160085D01*
X140975248Y-111110641D01*
X140967582Y-111072100D01*
X140917742Y-110997509D01*
X140843151Y-110947669D01*
X140842005Y-110946903D01*
X140842354Y-110946379D01*
X140836417Y-110940428D01*
X140836429Y-110929713D01*
X140842357Y-110923797D01*
X140842004Y-110923269D01*
X140843150Y-110922503D01*
X140843151Y-110922503D01*
X140917742Y-110872663D01*
X140967582Y-110798072D01*
X140967582Y-110798071D01*
X140968348Y-110796925D01*
X140968874Y-110797276D01*
X140974806Y-110791344D01*
X140985522Y-110791343D01*
X140991456Y-110797276D01*
X140991982Y-110796925D01*
X140992747Y-110798071D01*
X140992748Y-110798072D01*
X141042588Y-110872663D01*
X141117179Y-110922503D01*
X141205165Y-110940004D01*
X141293151Y-110922503D01*
X141367742Y-110872663D01*
X141409516Y-110810144D01*
X142342262Y-110810144D01*
X142360663Y-110914504D01*
X142413647Y-111006277D01*
X142413649Y-111006279D01*
X142413650Y-111006280D01*
X142494830Y-111074398D01*
X142594412Y-111110642D01*
X142594413Y-111110642D01*
X142700383Y-111110642D01*
X142700384Y-111110642D01*
X142799966Y-111074398D01*
X142881146Y-111006280D01*
X142886210Y-110997510D01*
X142915728Y-110946381D01*
X142934132Y-110914505D01*
X142943717Y-110860144D01*
X142952534Y-110810144D01*
X142952534Y-110810139D01*
X142934132Y-110705779D01*
X142881148Y-110614006D01*
X142881146Y-110614004D01*
X142799966Y-110545886D01*
X142750175Y-110527764D01*
X142700385Y-110509642D01*
X142700384Y-110509642D01*
X142594412Y-110509642D01*
X142594410Y-110509642D01*
X142494830Y-110545886D01*
X142413647Y-110614006D01*
X142360663Y-110705779D01*
X142342262Y-110810139D01*
X142342262Y-110810144D01*
X141409516Y-110810144D01*
X141417582Y-110798072D01*
X141435083Y-110710086D01*
X141417582Y-110622100D01*
X141367742Y-110547509D01*
X141293151Y-110497669D01*
X141293150Y-110497668D01*
X141293149Y-110497668D01*
X141205165Y-110480168D01*
X141117180Y-110497668D01*
X141117178Y-110497669D01*
X141117179Y-110497669D01*
X141042588Y-110547509D01*
X140995460Y-110618042D01*
X140991982Y-110623247D01*
X140991456Y-110622895D01*
X140985513Y-110628831D01*
X140974798Y-110628823D01*
X140968871Y-110622896D01*
X140968348Y-110623247D01*
X140967582Y-110622100D01*
X140917742Y-110547509D01*
X140843151Y-110497669D01*
X140843150Y-110497668D01*
X140843149Y-110497668D01*
X140755165Y-110480168D01*
X140667180Y-110497668D01*
X140667178Y-110497669D01*
X140667179Y-110497669D01*
X140592588Y-110547509D01*
X140545460Y-110618042D01*
X140541982Y-110623247D01*
X140541456Y-110622895D01*
X140535513Y-110628831D01*
X140524798Y-110628823D01*
X140518871Y-110622896D01*
X140518348Y-110623247D01*
X140517582Y-110622100D01*
X140467742Y-110547509D01*
X140393151Y-110497669D01*
X140393150Y-110497668D01*
X140393149Y-110497668D01*
X140305165Y-110480168D01*
X140217180Y-110497668D01*
X140217178Y-110497669D01*
X140217179Y-110497669D01*
X140142588Y-110547509D01*
X140095460Y-110618042D01*
X140091982Y-110623247D01*
X140091456Y-110622895D01*
X140085513Y-110628831D01*
X140074798Y-110628823D01*
X140068871Y-110622896D01*
X140068348Y-110623247D01*
X140067582Y-110622100D01*
X140017742Y-110547509D01*
X139943151Y-110497669D01*
X139943146Y-110497668D01*
X139935181Y-110496083D01*
X139926272Y-110490129D01*
X139924667Y-110486883D01*
X139693165Y-109810086D01*
X140525247Y-109810086D01*
X140542747Y-109898070D01*
X140542747Y-109898071D01*
X140542748Y-109898072D01*
X140592588Y-109972663D01*
X140667179Y-110022503D01*
X140755165Y-110040004D01*
X140843151Y-110022503D01*
X140917742Y-109972663D01*
X140967582Y-109898072D01*
X140985083Y-109810086D01*
X141425247Y-109810086D01*
X141442747Y-109898070D01*
X141442747Y-109898071D01*
X141442748Y-109898072D01*
X141492588Y-109972663D01*
X141567179Y-110022503D01*
X141655165Y-110040004D01*
X141743151Y-110022503D01*
X141817742Y-109972663D01*
X141867582Y-109898072D01*
X141885083Y-109810086D01*
X141881063Y-109789876D01*
X143147476Y-109789876D01*
X143165877Y-109894236D01*
X143218861Y-109986009D01*
X143218863Y-109986011D01*
X143218864Y-109986012D01*
X143300044Y-110054130D01*
X143399626Y-110090374D01*
X143399627Y-110090374D01*
X143505597Y-110090374D01*
X143505598Y-110090374D01*
X143605180Y-110054130D01*
X143686360Y-109986012D01*
X143739346Y-109894237D01*
X143754184Y-109810086D01*
X143757748Y-109789876D01*
X143757748Y-109789871D01*
X143739346Y-109685511D01*
X143686362Y-109593738D01*
X143670190Y-109580168D01*
X143605180Y-109525618D01*
X143555388Y-109507496D01*
X143505599Y-109489374D01*
X143505598Y-109489374D01*
X143399626Y-109489374D01*
X143399624Y-109489374D01*
X143300044Y-109525618D01*
X143218861Y-109593738D01*
X143165877Y-109685511D01*
X143147476Y-109789871D01*
X143147476Y-109789876D01*
X141881063Y-109789876D01*
X141880709Y-109788098D01*
X141873500Y-109751854D01*
X141867582Y-109722100D01*
X141817742Y-109647509D01*
X141743151Y-109597669D01*
X141743150Y-109597668D01*
X141743149Y-109597668D01*
X141655165Y-109580168D01*
X141567180Y-109597668D01*
X141492588Y-109647509D01*
X141442747Y-109722101D01*
X141425247Y-109810085D01*
X141425247Y-109810086D01*
X140985083Y-109810086D01*
X140980709Y-109788098D01*
X140973500Y-109751854D01*
X140967582Y-109722100D01*
X140917742Y-109647509D01*
X140843151Y-109597669D01*
X140843150Y-109597668D01*
X140843149Y-109597668D01*
X140755165Y-109580168D01*
X140667180Y-109597668D01*
X140592588Y-109647509D01*
X140542747Y-109722101D01*
X140525247Y-109810085D01*
X140525247Y-109810086D01*
X139693165Y-109810086D01*
X139660754Y-109715332D01*
X139660000Y-109710801D01*
X139660000Y-109248094D01*
X139664101Y-109238195D01*
X139669210Y-109234939D01*
X139722741Y-109215456D01*
X139803921Y-109147338D01*
X139856907Y-109055563D01*
X139869853Y-108982142D01*
X139875309Y-108951202D01*
X139875309Y-108951197D01*
X139856907Y-108846837D01*
X139803923Y-108755064D01*
X139796144Y-108748537D01*
X139722741Y-108686944D01*
X139669211Y-108667460D01*
X139661312Y-108660220D01*
X139660000Y-108654304D01*
X139660000Y-108319723D01*
X143238804Y-108319723D01*
X143257205Y-108424083D01*
X143310189Y-108515856D01*
X143310191Y-108515858D01*
X143310192Y-108515859D01*
X143391372Y-108583977D01*
X143490954Y-108620221D01*
X143490955Y-108620221D01*
X143596925Y-108620221D01*
X143596926Y-108620221D01*
X143696508Y-108583977D01*
X143777688Y-108515859D01*
X143789206Y-108495910D01*
X143803125Y-108471800D01*
X144367498Y-108471800D01*
X144385899Y-108576160D01*
X144438883Y-108667933D01*
X144438885Y-108667935D01*
X144438886Y-108667936D01*
X144478552Y-108701219D01*
X144483500Y-108710724D01*
X144480278Y-108720943D01*
X144478552Y-108722668D01*
X144447725Y-108748536D01*
X144447723Y-108748539D01*
X144394738Y-108840312D01*
X144376337Y-108944672D01*
X144376337Y-108944677D01*
X144394738Y-109049037D01*
X144447722Y-109140810D01*
X144447724Y-109140812D01*
X144447725Y-109140813D01*
X144528905Y-109208931D01*
X144628487Y-109245175D01*
X144628488Y-109245175D01*
X144734458Y-109245175D01*
X144734459Y-109245175D01*
X144834041Y-109208931D01*
X144915221Y-109140813D01*
X144917628Y-109136645D01*
X144932018Y-109111718D01*
X144954698Y-109072436D01*
X147011691Y-109072436D01*
X147030092Y-109176796D01*
X147083076Y-109268569D01*
X147083078Y-109268571D01*
X147083079Y-109268572D01*
X147164259Y-109336690D01*
X147263841Y-109372934D01*
X147263842Y-109372934D01*
X147369812Y-109372934D01*
X147369813Y-109372934D01*
X147469395Y-109336690D01*
X147550575Y-109268572D01*
X147603561Y-109176797D01*
X147611648Y-109130936D01*
X147621963Y-109072436D01*
X147621963Y-109072431D01*
X147603561Y-108968071D01*
X147550577Y-108876298D01*
X147545921Y-108872391D01*
X148855898Y-108872391D01*
X148874299Y-108976751D01*
X148927283Y-109068524D01*
X148927285Y-109068526D01*
X148927286Y-109068527D01*
X149008466Y-109136645D01*
X149108048Y-109172889D01*
X149108049Y-109172889D01*
X149214019Y-109172889D01*
X149214020Y-109172889D01*
X149313602Y-109136645D01*
X149357355Y-109099932D01*
X149474116Y-109099932D01*
X149494754Y-109256690D01*
X149494754Y-109256692D01*
X149555262Y-109402771D01*
X149555263Y-109402773D01*
X149594788Y-109454283D01*
X149651516Y-109528212D01*
X149776957Y-109624466D01*
X149923036Y-109684974D01*
X150047123Y-109701310D01*
X150079796Y-109705612D01*
X150079798Y-109705612D01*
X150079800Y-109705612D01*
X150106837Y-109702052D01*
X150236560Y-109684974D01*
X150382639Y-109624466D01*
X150508080Y-109528212D01*
X150604334Y-109402771D01*
X150664842Y-109256692D01*
X150667518Y-109236363D01*
X150672875Y-109227084D01*
X150683225Y-109224311D01*
X150692505Y-109229668D01*
X150695278Y-109236364D01*
X150697954Y-109256690D01*
X150697954Y-109256692D01*
X150758462Y-109402771D01*
X150758463Y-109402773D01*
X150797988Y-109454283D01*
X150854716Y-109528212D01*
X150980157Y-109624466D01*
X151126236Y-109684974D01*
X151250323Y-109701310D01*
X151282996Y-109705612D01*
X151282998Y-109705612D01*
X151283000Y-109705612D01*
X151310037Y-109702052D01*
X151439760Y-109684974D01*
X151585839Y-109624466D01*
X151711280Y-109528212D01*
X151807534Y-109402771D01*
X151868042Y-109256692D01*
X151888680Y-109099930D01*
X151887053Y-109087575D01*
X151877381Y-109014108D01*
X151868042Y-108943168D01*
X151807534Y-108797089D01*
X151711280Y-108671648D01*
X151637351Y-108614920D01*
X151585841Y-108575395D01*
X151585839Y-108575394D01*
X151550458Y-108560738D01*
X151542882Y-108553161D01*
X151542122Y-108544892D01*
X151546745Y-108523157D01*
X151790516Y-107376907D01*
X151796432Y-107368179D01*
X151857053Y-107327674D01*
X151906893Y-107253083D01*
X151924394Y-107165097D01*
X151916918Y-107127514D01*
X151906893Y-107077112D01*
X151906893Y-107077111D01*
X151857053Y-107002520D01*
X151782462Y-106952680D01*
X151782461Y-106952679D01*
X151782460Y-106952679D01*
X151694476Y-106935179D01*
X151606489Y-106952679D01*
X151600487Y-106956690D01*
X151589978Y-106958780D01*
X151581069Y-106952826D01*
X151578979Y-106942318D01*
X151584394Y-106915097D01*
X151584394Y-106915096D01*
X151566893Y-106827112D01*
X151566893Y-106827111D01*
X151517053Y-106752520D01*
X151442462Y-106702680D01*
X151442461Y-106702679D01*
X151442460Y-106702679D01*
X151354476Y-106685179D01*
X151266491Y-106702679D01*
X151191899Y-106752520D01*
X151142058Y-106827112D01*
X151124558Y-106915096D01*
X151124558Y-106915097D01*
X151141358Y-106999558D01*
X151139719Y-107009344D01*
X150262687Y-108512600D01*
X150254157Y-108519084D01*
X150245238Y-108518479D01*
X150236568Y-108514888D01*
X150236561Y-108514886D01*
X150079800Y-108494248D01*
X150079796Y-108494248D01*
X149975289Y-108508006D01*
X149923036Y-108514886D01*
X149923035Y-108514886D01*
X149776956Y-108575394D01*
X149776954Y-108575395D01*
X149651516Y-108671648D01*
X149555263Y-108797086D01*
X149555262Y-108797088D01*
X149501371Y-108927194D01*
X149494754Y-108943168D01*
X149491196Y-108970191D01*
X149474116Y-109099927D01*
X149474116Y-109099932D01*
X149357355Y-109099932D01*
X149394782Y-109068527D01*
X149406035Y-109049037D01*
X149415550Y-109032555D01*
X149447768Y-108976752D01*
X149466170Y-108872389D01*
X149466170Y-108872386D01*
X149447768Y-108768026D01*
X149394784Y-108676253D01*
X149394782Y-108676251D01*
X149313602Y-108608133D01*
X149263811Y-108590011D01*
X149214021Y-108571889D01*
X149214020Y-108571889D01*
X149108048Y-108571889D01*
X149108046Y-108571889D01*
X149008466Y-108608133D01*
X148927283Y-108676253D01*
X148874299Y-108768026D01*
X148855898Y-108872386D01*
X148855898Y-108872391D01*
X147545921Y-108872391D01*
X147469395Y-108808178D01*
X147419603Y-108790056D01*
X147369814Y-108771934D01*
X147369813Y-108771934D01*
X147263841Y-108771934D01*
X147263839Y-108771934D01*
X147164259Y-108808178D01*
X147083076Y-108876298D01*
X147030092Y-108968071D01*
X147011691Y-109072431D01*
X147011691Y-109072436D01*
X144954698Y-109072436D01*
X144968207Y-109049038D01*
X144985458Y-108951202D01*
X144986609Y-108944677D01*
X144986609Y-108944672D01*
X144968207Y-108840312D01*
X144915223Y-108748539D01*
X144915221Y-108748537D01*
X144875553Y-108715252D01*
X144870606Y-108705748D01*
X144873828Y-108695529D01*
X144875550Y-108693806D01*
X144906382Y-108667936D01*
X144914253Y-108654304D01*
X144954856Y-108583976D01*
X144959368Y-108576161D01*
X144970001Y-108515859D01*
X144977770Y-108471800D01*
X144977770Y-108471795D01*
X144959368Y-108367435D01*
X144906384Y-108275662D01*
X144906382Y-108275660D01*
X144825202Y-108207542D01*
X144771122Y-108187859D01*
X144725621Y-108171298D01*
X144725620Y-108171298D01*
X144619648Y-108171298D01*
X144619646Y-108171298D01*
X144520066Y-108207542D01*
X144438883Y-108275662D01*
X144385899Y-108367435D01*
X144367498Y-108471795D01*
X144367498Y-108471800D01*
X143803125Y-108471800D01*
X143803128Y-108471795D01*
X143830674Y-108424084D01*
X143844133Y-108347753D01*
X143849076Y-108319723D01*
X143849076Y-108319718D01*
X143830674Y-108215358D01*
X143777690Y-108123585D01*
X143777688Y-108123583D01*
X143729918Y-108083499D01*
X149470183Y-108083499D01*
X149488584Y-108187859D01*
X149541568Y-108279632D01*
X149541570Y-108279634D01*
X149541571Y-108279635D01*
X149622751Y-108347753D01*
X149722333Y-108383997D01*
X149722334Y-108383997D01*
X149828304Y-108383997D01*
X149828305Y-108383997D01*
X149927887Y-108347753D01*
X150009067Y-108279635D01*
X150062053Y-108187860D01*
X150068186Y-108153072D01*
X150080455Y-108083499D01*
X150080455Y-108083494D01*
X150062053Y-107979134D01*
X150009069Y-107887361D01*
X150009067Y-107887359D01*
X149927887Y-107819241D01*
X149878096Y-107801119D01*
X149828306Y-107782997D01*
X149828305Y-107782997D01*
X149722333Y-107782997D01*
X149722331Y-107782997D01*
X149622751Y-107819241D01*
X149541568Y-107887361D01*
X149488584Y-107979134D01*
X149470183Y-108083494D01*
X149470183Y-108083499D01*
X143729918Y-108083499D01*
X143696508Y-108055465D01*
X143646716Y-108037343D01*
X143596927Y-108019221D01*
X143596926Y-108019221D01*
X143490954Y-108019221D01*
X143490952Y-108019221D01*
X143391372Y-108055465D01*
X143310189Y-108123585D01*
X143257205Y-108215358D01*
X143238804Y-108319718D01*
X143238804Y-108319723D01*
X139660000Y-108319723D01*
X139660000Y-107547330D01*
X139660219Y-107544866D01*
X139684431Y-107409448D01*
X139684432Y-107409443D01*
X139684387Y-107408924D01*
X139684816Y-107404102D01*
X139684950Y-107403605D01*
X139684950Y-107384999D01*
X139988450Y-107384999D01*
X140005950Y-107472983D01*
X140005950Y-107472984D01*
X140005951Y-107472985D01*
X140055791Y-107547576D01*
X140130382Y-107597416D01*
X140218368Y-107614917D01*
X140306354Y-107597416D01*
X140380945Y-107547576D01*
X140430785Y-107472985D01*
X140448286Y-107384999D01*
X140444940Y-107368179D01*
X140431802Y-107302125D01*
X140430785Y-107297013D01*
X140380945Y-107222422D01*
X140306354Y-107172582D01*
X140306353Y-107172581D01*
X140306352Y-107172581D01*
X140218368Y-107155081D01*
X140130383Y-107172581D01*
X140055791Y-107222422D01*
X140005950Y-107297014D01*
X139988450Y-107384998D01*
X139988450Y-107384999D01*
X139684950Y-107384999D01*
X139684962Y-107353993D01*
X139684961Y-107353991D01*
X139684962Y-107352483D01*
X139684950Y-107352366D01*
X139684950Y-106915829D01*
X148859970Y-106915829D01*
X148878371Y-107020189D01*
X148931355Y-107111962D01*
X148931357Y-107111964D01*
X148931358Y-107111965D01*
X149012538Y-107180083D01*
X149112120Y-107216327D01*
X149112121Y-107216327D01*
X149218091Y-107216327D01*
X149218092Y-107216327D01*
X149317674Y-107180083D01*
X149398854Y-107111965D01*
X149403034Y-107104726D01*
X149441634Y-107037867D01*
X149451840Y-107020190D01*
X149470242Y-106915827D01*
X149470242Y-106915824D01*
X149451840Y-106811464D01*
X149398856Y-106719691D01*
X149378582Y-106702679D01*
X149317674Y-106651571D01*
X149267883Y-106633448D01*
X149218093Y-106615327D01*
X149218092Y-106615327D01*
X149112120Y-106615327D01*
X149112118Y-106615327D01*
X149012538Y-106651571D01*
X148931355Y-106719691D01*
X148878371Y-106811464D01*
X148859970Y-106915824D01*
X148859970Y-106915829D01*
X139684950Y-106915829D01*
X139684950Y-106235424D01*
X148938059Y-106235424D01*
X148956460Y-106339784D01*
X149009444Y-106431557D01*
X149009446Y-106431559D01*
X149009447Y-106431560D01*
X149090627Y-106499678D01*
X149190209Y-106535922D01*
X149190210Y-106535922D01*
X149296180Y-106535922D01*
X149296181Y-106535922D01*
X149395763Y-106499678D01*
X149476943Y-106431560D01*
X149486448Y-106415097D01*
X151124558Y-106415097D01*
X151142058Y-106503081D01*
X151142058Y-106503082D01*
X151142059Y-106503083D01*
X151191899Y-106577674D01*
X151266490Y-106627514D01*
X151354476Y-106645015D01*
X151442462Y-106627514D01*
X151517053Y-106577674D01*
X151566893Y-106503083D01*
X151584394Y-106415097D01*
X151566893Y-106327111D01*
X151517053Y-106252520D01*
X151442462Y-106202680D01*
X151442461Y-106202679D01*
X151442460Y-106202679D01*
X151354476Y-106185179D01*
X151266491Y-106202679D01*
X151191899Y-106252520D01*
X151142058Y-106327112D01*
X151124558Y-106415096D01*
X151124558Y-106415097D01*
X149486448Y-106415097D01*
X149486449Y-106415096D01*
X149501108Y-106389704D01*
X149529929Y-106339785D01*
X149548331Y-106235422D01*
X149548331Y-106235419D01*
X149529929Y-106131059D01*
X149476945Y-106039286D01*
X149471501Y-106034718D01*
X149395763Y-105971166D01*
X149345972Y-105953044D01*
X149296182Y-105934922D01*
X149296181Y-105934922D01*
X149190209Y-105934922D01*
X149190207Y-105934922D01*
X149090627Y-105971166D01*
X149009444Y-106039286D01*
X148956460Y-106131059D01*
X148938059Y-106235419D01*
X148938059Y-106235424D01*
X139684950Y-106235424D01*
X139684950Y-106164074D01*
X139684950Y-106164073D01*
X139684950Y-106164071D01*
X139684402Y-106162030D01*
X139683956Y-106159308D01*
X139683933Y-106158949D01*
X139683933Y-106158958D01*
X139683932Y-106158943D01*
X139683871Y-106158484D01*
X139683782Y-106155749D01*
X139683922Y-106153624D01*
X139680228Y-106135056D01*
X139674249Y-106104950D01*
X139674248Y-106104949D01*
X139673945Y-106103420D01*
X139673920Y-106103345D01*
X139660269Y-106034718D01*
X139660000Y-106031987D01*
X139660000Y-105483413D01*
X139664101Y-105473514D01*
X139669209Y-105470258D01*
X139714081Y-105453927D01*
X139795261Y-105385809D01*
X139835591Y-105315953D01*
X139844089Y-105309433D01*
X139854713Y-105310831D01*
X139856236Y-105311849D01*
X139935572Y-105372726D01*
X139979571Y-105406487D01*
X140125650Y-105466995D01*
X140249737Y-105483331D01*
X140282410Y-105487633D01*
X140282412Y-105487633D01*
X140282414Y-105487633D01*
X140314466Y-105483413D01*
X140439174Y-105466995D01*
X140539539Y-105425422D01*
X140550252Y-105425422D01*
X140557829Y-105432998D01*
X140558682Y-105440787D01*
X140541521Y-105538115D01*
X140541521Y-105538120D01*
X140559922Y-105642480D01*
X140612906Y-105734253D01*
X140612908Y-105734255D01*
X140612909Y-105734256D01*
X140694089Y-105802374D01*
X140793671Y-105838618D01*
X140793672Y-105838618D01*
X140899642Y-105838618D01*
X140899643Y-105838618D01*
X140999225Y-105802374D01*
X141080405Y-105734256D01*
X141080557Y-105733994D01*
X141126546Y-105654337D01*
X141133391Y-105642481D01*
X141151793Y-105538118D01*
X141151793Y-105538115D01*
X141133391Y-105433755D01*
X141101042Y-105377724D01*
X141099643Y-105367101D01*
X141106166Y-105358600D01*
X141116789Y-105357201D01*
X141121688Y-105359616D01*
X141182771Y-105406487D01*
X141328850Y-105466995D01*
X141452937Y-105483331D01*
X141485610Y-105487633D01*
X141485612Y-105487633D01*
X141485614Y-105487633D01*
X141517666Y-105483413D01*
X141642374Y-105466995D01*
X141723248Y-105433496D01*
X148798864Y-105433496D01*
X148817265Y-105537856D01*
X148870249Y-105629629D01*
X148870251Y-105629631D01*
X148870252Y-105629632D01*
X148951432Y-105697750D01*
X149051014Y-105733994D01*
X149051015Y-105733994D01*
X149156985Y-105733994D01*
X149156986Y-105733994D01*
X149256568Y-105697750D01*
X149337748Y-105629632D01*
X149390734Y-105537857D01*
X149400334Y-105483413D01*
X149409136Y-105433496D01*
X149409136Y-105433492D01*
X149400831Y-105386398D01*
X149403150Y-105375937D01*
X149412187Y-105370180D01*
X149421824Y-105372316D01*
X149421941Y-105372114D01*
X149422582Y-105372484D01*
X149422648Y-105372499D01*
X149422769Y-105372592D01*
X149423001Y-105372725D01*
X149423003Y-105372727D01*
X149522585Y-105408971D01*
X149522586Y-105408971D01*
X149628556Y-105408971D01*
X149628557Y-105408971D01*
X149728139Y-105372727D01*
X149809319Y-105304609D01*
X149815425Y-105294034D01*
X149840049Y-105251382D01*
X149862305Y-105212834D01*
X149880707Y-105108471D01*
X149880707Y-105108468D01*
X149862305Y-105004108D01*
X149809321Y-104912335D01*
X149809319Y-104912333D01*
X149728139Y-104844215D01*
X149678348Y-104826092D01*
X149628558Y-104807971D01*
X149628557Y-104807971D01*
X149522585Y-104807971D01*
X149522583Y-104807971D01*
X149423003Y-104844215D01*
X149341820Y-104912335D01*
X149288836Y-105004108D01*
X149270435Y-105108468D01*
X149270435Y-105108473D01*
X149278738Y-105155565D01*
X149276419Y-105166026D01*
X149267382Y-105171783D01*
X149257747Y-105169647D01*
X149257630Y-105169851D01*
X149256983Y-105169477D01*
X149256921Y-105169464D01*
X149256803Y-105169373D01*
X149256568Y-105169238D01*
X149156987Y-105132994D01*
X149156986Y-105132994D01*
X149051014Y-105132994D01*
X149051012Y-105132994D01*
X148951432Y-105169238D01*
X148870249Y-105237358D01*
X148817265Y-105329131D01*
X148798864Y-105433491D01*
X148798864Y-105433496D01*
X141723248Y-105433496D01*
X141788453Y-105406487D01*
X141913894Y-105310233D01*
X142010148Y-105184792D01*
X142060954Y-105062134D01*
X142068530Y-105054559D01*
X142079246Y-105054559D01*
X142086012Y-105060493D01*
X142095398Y-105076751D01*
X142095400Y-105076753D01*
X142095401Y-105076754D01*
X142176581Y-105144872D01*
X142276163Y-105181116D01*
X142276164Y-105181116D01*
X142382134Y-105181116D01*
X142382135Y-105181116D01*
X142481717Y-105144872D01*
X142562897Y-105076754D01*
X142615883Y-104984979D01*
X142628518Y-104913323D01*
X142634285Y-104880618D01*
X142634285Y-104880613D01*
X142615883Y-104776253D01*
X142562899Y-104684480D01*
X142542270Y-104667170D01*
X142481717Y-104616360D01*
X142431925Y-104598238D01*
X142382136Y-104580116D01*
X142382135Y-104580116D01*
X142276163Y-104580116D01*
X142276161Y-104580116D01*
X142176581Y-104616360D01*
X142095398Y-104684480D01*
X142085368Y-104701853D01*
X142076867Y-104708376D01*
X142066244Y-104706977D01*
X142060310Y-104700211D01*
X142031611Y-104630926D01*
X142010148Y-104579110D01*
X142009045Y-104577673D01*
X141967677Y-104523761D01*
X141913894Y-104453669D01*
X141839965Y-104396941D01*
X141800519Y-104366673D01*
X142593931Y-104366673D01*
X142612332Y-104471033D01*
X142665316Y-104562806D01*
X142665318Y-104562808D01*
X142665319Y-104562809D01*
X142746499Y-104630927D01*
X142846081Y-104667171D01*
X142846082Y-104667171D01*
X142952052Y-104667171D01*
X142952053Y-104667171D01*
X143051635Y-104630927D01*
X143132815Y-104562809D01*
X143134435Y-104560004D01*
X143155360Y-104523760D01*
X143185801Y-104471034D01*
X143204203Y-104366671D01*
X143204203Y-104366668D01*
X143185801Y-104262308D01*
X143184184Y-104259507D01*
X147233617Y-104259507D01*
X147252018Y-104363867D01*
X147305002Y-104455640D01*
X147305004Y-104455642D01*
X147305005Y-104455643D01*
X147386185Y-104523761D01*
X147485767Y-104560005D01*
X147485768Y-104560005D01*
X147591738Y-104560005D01*
X147591739Y-104560005D01*
X147691321Y-104523761D01*
X147772501Y-104455643D01*
X147795910Y-104415097D01*
X151124558Y-104415097D01*
X151142058Y-104503081D01*
X151142058Y-104503082D01*
X151142059Y-104503083D01*
X151191899Y-104577674D01*
X151266490Y-104627514D01*
X151283644Y-104630926D01*
X151354475Y-104645015D01*
X151354475Y-104645014D01*
X151354476Y-104645015D01*
X151442462Y-104627514D01*
X151517053Y-104577674D01*
X151566893Y-104503083D01*
X151584394Y-104415097D01*
X151566893Y-104327111D01*
X151517053Y-104252520D01*
X151442462Y-104202680D01*
X151442461Y-104202679D01*
X151442460Y-104202679D01*
X151354476Y-104185179D01*
X151266491Y-104202679D01*
X151191899Y-104252520D01*
X151142058Y-104327112D01*
X151124558Y-104415096D01*
X151124558Y-104415097D01*
X147795910Y-104415097D01*
X147825487Y-104363868D01*
X147832622Y-104323403D01*
X147843889Y-104259507D01*
X147843889Y-104259502D01*
X147825487Y-104155142D01*
X147772503Y-104063369D01*
X147762137Y-104054671D01*
X147691321Y-103995249D01*
X147641529Y-103977126D01*
X147591740Y-103959005D01*
X147591739Y-103959005D01*
X147485767Y-103959005D01*
X147485765Y-103959005D01*
X147386185Y-103995249D01*
X147305002Y-104063369D01*
X147252018Y-104155142D01*
X147233617Y-104259502D01*
X147233617Y-104259507D01*
X143184184Y-104259507D01*
X143132817Y-104170535D01*
X143132815Y-104170533D01*
X143051635Y-104102415D01*
X143001844Y-104084292D01*
X142952054Y-104066171D01*
X142952053Y-104066171D01*
X142846081Y-104066171D01*
X142846079Y-104066171D01*
X142746499Y-104102415D01*
X142665316Y-104170535D01*
X142612332Y-104262308D01*
X142593931Y-104366668D01*
X142593931Y-104366673D01*
X141800519Y-104366673D01*
X141788455Y-104357416D01*
X141788453Y-104357415D01*
X141715295Y-104327112D01*
X141642374Y-104296907D01*
X141579504Y-104288630D01*
X141485614Y-104276269D01*
X141485610Y-104276269D01*
X141391720Y-104288630D01*
X141328850Y-104296907D01*
X141328849Y-104296907D01*
X141182770Y-104357415D01*
X141182768Y-104357416D01*
X141057330Y-104453669D01*
X140961077Y-104579107D01*
X140961076Y-104579109D01*
X140900568Y-104725188D01*
X140900568Y-104725189D01*
X140897891Y-104745517D01*
X140892533Y-104754796D01*
X140882183Y-104757569D01*
X140872904Y-104752211D01*
X140870132Y-104745519D01*
X140867456Y-104725189D01*
X140806948Y-104579110D01*
X140805845Y-104577673D01*
X140764477Y-104523761D01*
X140710694Y-104453669D01*
X140636765Y-104396941D01*
X140585255Y-104357416D01*
X140585253Y-104357415D01*
X140512095Y-104327112D01*
X140439174Y-104296907D01*
X140376304Y-104288630D01*
X140282414Y-104276269D01*
X140282410Y-104276269D01*
X140188520Y-104288630D01*
X140125650Y-104296907D01*
X140125649Y-104296907D01*
X139979570Y-104357415D01*
X139979568Y-104357416D01*
X139854130Y-104453669D01*
X139757877Y-104579107D01*
X139757876Y-104579109D01*
X139697368Y-104725188D01*
X139697368Y-104725190D01*
X139687880Y-104797257D01*
X139682523Y-104806537D01*
X139672173Y-104809310D01*
X139662893Y-104803953D01*
X139660000Y-104795430D01*
X139660000Y-104323403D01*
X139664101Y-104313504D01*
X139672957Y-104309442D01*
X139673930Y-104309369D01*
X139804555Y-104258102D01*
X139874052Y-104202680D01*
X139914266Y-104170611D01*
X139993314Y-104054668D01*
X140034676Y-103920577D01*
X140034676Y-103085529D01*
X140019020Y-102981656D01*
X139958135Y-102855227D01*
X139886500Y-102778023D01*
X144295623Y-102778023D01*
X144314024Y-102882383D01*
X144367008Y-102974156D01*
X144367010Y-102974158D01*
X144367011Y-102974159D01*
X144448191Y-103042277D01*
X144547773Y-103078521D01*
X144547774Y-103078521D01*
X144653744Y-103078521D01*
X144653745Y-103078521D01*
X144753327Y-103042277D01*
X144834507Y-102974159D01*
X144887493Y-102882384D01*
X144905895Y-102778021D01*
X144905895Y-102778018D01*
X144887493Y-102673658D01*
X144834509Y-102581885D01*
X144834507Y-102581883D01*
X144753327Y-102513765D01*
X144703536Y-102495643D01*
X144653746Y-102477521D01*
X144653745Y-102477521D01*
X144547773Y-102477521D01*
X144547771Y-102477521D01*
X144448191Y-102513765D01*
X144367008Y-102581885D01*
X144314024Y-102673658D01*
X144295623Y-102778018D01*
X144295623Y-102778023D01*
X139886500Y-102778023D01*
X139886498Y-102778021D01*
X139862688Y-102752359D01*
X139741165Y-102682199D01*
X139741164Y-102682198D01*
X139741163Y-102682198D01*
X139707161Y-102674437D01*
X139670884Y-102666156D01*
X139662146Y-102659955D01*
X139660000Y-102652507D01*
X139660000Y-102351170D01*
X145071246Y-102351170D01*
X145089647Y-102455530D01*
X145142631Y-102547303D01*
X145142633Y-102547305D01*
X145142634Y-102547306D01*
X145223814Y-102615424D01*
X145323396Y-102651668D01*
X145323397Y-102651668D01*
X145429367Y-102651668D01*
X145429368Y-102651668D01*
X145528950Y-102615424D01*
X145610130Y-102547306D01*
X145620757Y-102528899D01*
X145757361Y-102528899D01*
X145775762Y-102633259D01*
X145828746Y-102725032D01*
X145828748Y-102725034D01*
X145828749Y-102725035D01*
X145909929Y-102793153D01*
X146009511Y-102829397D01*
X146009512Y-102829397D01*
X146115482Y-102829397D01*
X146115483Y-102829397D01*
X146215065Y-102793153D01*
X146296245Y-102725035D01*
X146349231Y-102633260D01*
X146367633Y-102528897D01*
X146367633Y-102528894D01*
X146358712Y-102478301D01*
X146647872Y-102478301D01*
X146666273Y-102582661D01*
X146719257Y-102674434D01*
X146719259Y-102674436D01*
X146719260Y-102674437D01*
X146800440Y-102742555D01*
X146900022Y-102778799D01*
X146900023Y-102778799D01*
X147005993Y-102778799D01*
X147005994Y-102778799D01*
X147105576Y-102742555D01*
X147186756Y-102674437D01*
X147239742Y-102582662D01*
X147249223Y-102528894D01*
X147258144Y-102478301D01*
X147258144Y-102478296D01*
X147239742Y-102373936D01*
X147200362Y-102305727D01*
X148300412Y-102305727D01*
X148318813Y-102410087D01*
X148371797Y-102501860D01*
X148371799Y-102501862D01*
X148371800Y-102501863D01*
X148452980Y-102569981D01*
X148552562Y-102606225D01*
X148552563Y-102606225D01*
X148658533Y-102606225D01*
X148658534Y-102606225D01*
X148758116Y-102569981D01*
X148839296Y-102501863D01*
X148892282Y-102410088D01*
X148910684Y-102305725D01*
X148910684Y-102305722D01*
X148892282Y-102201362D01*
X148839298Y-102109589D01*
X148839296Y-102109587D01*
X148758116Y-102041469D01*
X148688941Y-102016292D01*
X148658535Y-102005225D01*
X148658534Y-102005225D01*
X148552562Y-102005225D01*
X148552560Y-102005225D01*
X148452980Y-102041469D01*
X148371797Y-102109589D01*
X148318813Y-102201362D01*
X148300412Y-102305722D01*
X148300412Y-102305727D01*
X147200362Y-102305727D01*
X147186758Y-102282163D01*
X147165876Y-102264641D01*
X147105576Y-102214043D01*
X147047221Y-102192804D01*
X147005995Y-102177799D01*
X147005994Y-102177799D01*
X146900022Y-102177799D01*
X146900020Y-102177799D01*
X146800440Y-102214043D01*
X146719257Y-102282163D01*
X146666273Y-102373936D01*
X146647872Y-102478296D01*
X146647872Y-102478301D01*
X146358712Y-102478301D01*
X146349231Y-102424534D01*
X146296247Y-102332761D01*
X146264029Y-102305727D01*
X146215065Y-102264641D01*
X146165273Y-102246518D01*
X146115484Y-102228397D01*
X146115483Y-102228397D01*
X146009511Y-102228397D01*
X146009509Y-102228397D01*
X145909929Y-102264641D01*
X145828746Y-102332761D01*
X145775762Y-102424534D01*
X145757361Y-102528894D01*
X145757361Y-102528899D01*
X145620757Y-102528899D01*
X145663116Y-102455531D01*
X145671129Y-102410087D01*
X145681518Y-102351170D01*
X145681518Y-102351165D01*
X145663116Y-102246805D01*
X145610132Y-102155032D01*
X145610130Y-102155030D01*
X145528950Y-102086912D01*
X145479159Y-102068789D01*
X145429369Y-102050668D01*
X145429368Y-102050668D01*
X145323396Y-102050668D01*
X145323394Y-102050668D01*
X145223814Y-102086912D01*
X145142631Y-102155032D01*
X145089647Y-102246805D01*
X145071246Y-102351165D01*
X145071246Y-102351170D01*
X139660000Y-102351170D01*
X139660000Y-101743190D01*
X139664101Y-101733291D01*
X139674000Y-101729190D01*
X139677341Y-101729595D01*
X139784120Y-101755914D01*
X139954232Y-101755914D01*
X140061006Y-101729597D01*
X140119399Y-101715205D01*
X140148968Y-101699686D01*
X140270028Y-101636148D01*
X140381819Y-101537110D01*
X140397357Y-101523345D01*
X140397357Y-101523344D01*
X140397359Y-101523343D01*
X140421536Y-101488317D01*
X142686930Y-101488317D01*
X142705331Y-101592677D01*
X142758315Y-101684450D01*
X142758317Y-101684452D01*
X142758318Y-101684453D01*
X142839498Y-101752571D01*
X142939080Y-101788815D01*
X142939081Y-101788815D01*
X143045051Y-101788815D01*
X143045052Y-101788815D01*
X143144634Y-101752571D01*
X143225814Y-101684453D01*
X143278800Y-101592678D01*
X143288598Y-101537110D01*
X143292526Y-101514834D01*
X143517781Y-101514834D01*
X143536182Y-101619194D01*
X143589166Y-101710967D01*
X143589168Y-101710969D01*
X143589169Y-101710970D01*
X143670349Y-101779088D01*
X143769931Y-101815332D01*
X143769932Y-101815332D01*
X143875902Y-101815332D01*
X143875903Y-101815332D01*
X143975485Y-101779088D01*
X144056665Y-101710970D01*
X144063179Y-101699687D01*
X145933318Y-101699687D01*
X145950818Y-101787671D01*
X145950818Y-101787672D01*
X145950819Y-101787673D01*
X146000659Y-101862264D01*
X146075250Y-101912104D01*
X146163236Y-101929605D01*
X146251222Y-101912104D01*
X146325813Y-101862264D01*
X146351595Y-101823676D01*
X146360503Y-101817725D01*
X146371013Y-101819815D01*
X146374875Y-101823678D01*
X146400657Y-101862262D01*
X146400658Y-101862262D01*
X146400659Y-101862264D01*
X146475250Y-101912104D01*
X146563236Y-101929605D01*
X146651222Y-101912104D01*
X146725813Y-101862264D01*
X146775653Y-101787673D01*
X146793154Y-101699687D01*
X146775653Y-101611701D01*
X146725813Y-101537110D01*
X146687226Y-101511327D01*
X146681274Y-101502418D01*
X146683364Y-101491909D01*
X146687227Y-101488046D01*
X146725813Y-101462264D01*
X146775653Y-101387673D01*
X146793154Y-101299687D01*
X147133318Y-101299687D01*
X147150818Y-101387671D01*
X147150818Y-101387672D01*
X147150819Y-101387673D01*
X147200659Y-101462264D01*
X147275250Y-101512104D01*
X147363236Y-101529605D01*
X147451222Y-101512104D01*
X147525813Y-101462264D01*
X147575653Y-101387673D01*
X147593154Y-101299687D01*
X147575653Y-101211701D01*
X147525813Y-101137110D01*
X147451222Y-101087270D01*
X147451221Y-101087269D01*
X147451220Y-101087269D01*
X147363236Y-101069769D01*
X147275251Y-101087269D01*
X147200659Y-101137110D01*
X147150818Y-101211702D01*
X147133318Y-101299686D01*
X147133318Y-101299687D01*
X146793154Y-101299687D01*
X146775653Y-101211701D01*
X146725813Y-101137110D01*
X146651222Y-101087270D01*
X146651221Y-101087269D01*
X146651220Y-101087269D01*
X146563236Y-101069769D01*
X146475251Y-101087269D01*
X146400657Y-101137111D01*
X146374876Y-101175695D01*
X146365967Y-101181648D01*
X146355458Y-101179557D01*
X146351596Y-101175695D01*
X146325814Y-101137111D01*
X146325813Y-101137110D01*
X146251222Y-101087270D01*
X146251221Y-101087269D01*
X146251220Y-101087269D01*
X146163236Y-101069769D01*
X146075251Y-101087269D01*
X146000659Y-101137110D01*
X145950818Y-101211702D01*
X145933318Y-101299686D01*
X145933318Y-101299687D01*
X145950818Y-101387671D01*
X145950818Y-101387672D01*
X145950819Y-101387673D01*
X146000659Y-101462264D01*
X146000660Y-101462265D01*
X146039244Y-101488047D01*
X146045197Y-101496956D01*
X146043106Y-101507465D01*
X146039244Y-101511327D01*
X146000660Y-101537108D01*
X145950818Y-101611702D01*
X145933318Y-101699686D01*
X145933318Y-101699687D01*
X144063179Y-101699687D01*
X144109651Y-101619195D01*
X144122198Y-101548037D01*
X144128053Y-101514834D01*
X144128053Y-101514829D01*
X144109651Y-101410469D01*
X144056667Y-101318696D01*
X144034012Y-101299686D01*
X143975485Y-101250576D01*
X143903258Y-101224288D01*
X143875904Y-101214332D01*
X143875903Y-101214332D01*
X143769931Y-101214332D01*
X143769929Y-101214332D01*
X143670349Y-101250576D01*
X143589166Y-101318696D01*
X143536182Y-101410469D01*
X143517781Y-101514829D01*
X143517781Y-101514834D01*
X143292526Y-101514834D01*
X143297202Y-101488317D01*
X143297202Y-101488312D01*
X143278800Y-101383952D01*
X143225816Y-101292179D01*
X143225814Y-101292177D01*
X143144634Y-101224059D01*
X143092587Y-101205116D01*
X143045053Y-101187815D01*
X143045052Y-101187815D01*
X142939080Y-101187815D01*
X142939078Y-101187815D01*
X142839498Y-101224059D01*
X142758315Y-101292179D01*
X142705331Y-101383952D01*
X142686930Y-101488312D01*
X142686930Y-101488317D01*
X140421536Y-101488317D01*
X140493994Y-101383344D01*
X140544346Y-101250576D01*
X140554315Y-101224290D01*
X140554315Y-101224288D01*
X140554314Y-101224288D01*
X140554316Y-101224286D01*
X140569676Y-101097786D01*
X140569676Y-101008983D01*
X145089996Y-101008983D01*
X145108397Y-101113343D01*
X145161381Y-101205116D01*
X145161383Y-101205118D01*
X145161384Y-101205119D01*
X145242564Y-101273237D01*
X145342146Y-101309481D01*
X145342147Y-101309481D01*
X145448117Y-101309481D01*
X145448118Y-101309481D01*
X145547700Y-101273237D01*
X145628880Y-101205119D01*
X145638871Y-101187815D01*
X145668144Y-101137111D01*
X145681866Y-101113344D01*
X145700268Y-101008981D01*
X145700268Y-101008978D01*
X145681866Y-100904618D01*
X145628882Y-100812845D01*
X145628880Y-100812843D01*
X145547700Y-100744725D01*
X145497909Y-100726603D01*
X145448119Y-100708481D01*
X145448118Y-100708481D01*
X145342146Y-100708481D01*
X145342144Y-100708481D01*
X145242564Y-100744725D01*
X145161381Y-100812845D01*
X145108397Y-100904618D01*
X145089996Y-101008978D01*
X145089996Y-101008983D01*
X140569676Y-101008983D01*
X140569676Y-100348782D01*
X144940460Y-100348782D01*
X144958861Y-100453142D01*
X145011845Y-100544915D01*
X145011847Y-100544917D01*
X145011848Y-100544918D01*
X145093028Y-100613036D01*
X145192610Y-100649280D01*
X145192611Y-100649280D01*
X145298581Y-100649280D01*
X145298582Y-100649280D01*
X145398164Y-100613036D01*
X145479344Y-100544918D01*
X145532330Y-100453143D01*
X145543730Y-100388490D01*
X145550732Y-100348782D01*
X145550732Y-100348777D01*
X145539031Y-100282420D01*
X145864996Y-100282420D01*
X145883397Y-100386780D01*
X145936381Y-100478553D01*
X145936383Y-100478555D01*
X145936384Y-100478556D01*
X146017564Y-100546674D01*
X146117146Y-100582918D01*
X146117147Y-100582918D01*
X146223117Y-100582918D01*
X146223118Y-100582918D01*
X146322700Y-100546674D01*
X146352992Y-100521256D01*
X146673592Y-100521256D01*
X146691993Y-100625616D01*
X146744977Y-100717389D01*
X146744979Y-100717391D01*
X146744980Y-100717392D01*
X146826160Y-100785510D01*
X146925742Y-100821754D01*
X146925743Y-100821754D01*
X147031713Y-100821754D01*
X147031714Y-100821754D01*
X147131296Y-100785510D01*
X147212476Y-100717392D01*
X147251192Y-100650331D01*
X147259690Y-100643811D01*
X147270314Y-100645209D01*
X147272313Y-100646610D01*
X147279620Y-100652742D01*
X147279622Y-100652742D01*
X147279624Y-100652744D01*
X147379206Y-100688988D01*
X147379207Y-100688988D01*
X147485177Y-100688988D01*
X147485178Y-100688988D01*
X147584760Y-100652744D01*
X147665940Y-100584626D01*
X147718926Y-100492851D01*
X147724192Y-100462985D01*
X149055886Y-100462985D01*
X149074287Y-100567345D01*
X149127271Y-100659118D01*
X149127273Y-100659120D01*
X149127274Y-100659121D01*
X149208454Y-100727239D01*
X149308036Y-100763483D01*
X149308037Y-100763483D01*
X149414007Y-100763483D01*
X149414008Y-100763483D01*
X149513590Y-100727239D01*
X149594770Y-100659121D01*
X149610067Y-100632623D01*
X149618566Y-100626102D01*
X149629189Y-100627500D01*
X149635124Y-100634267D01*
X149657387Y-100688013D01*
X149657388Y-100688015D01*
X149679930Y-100717392D01*
X149753641Y-100813454D01*
X149849985Y-100887381D01*
X149872448Y-100904618D01*
X149879082Y-100909708D01*
X150025161Y-100970216D01*
X150045490Y-100972892D01*
X150054768Y-100978248D01*
X150057541Y-100988598D01*
X150052184Y-100997878D01*
X150045489Y-101000651D01*
X150025161Y-101003328D01*
X150025160Y-101003328D01*
X149879081Y-101063836D01*
X149879079Y-101063837D01*
X149753641Y-101160090D01*
X149657388Y-101285528D01*
X149657387Y-101285530D01*
X149596879Y-101431609D01*
X149596879Y-101431610D01*
X149581550Y-101548037D01*
X149576193Y-101557316D01*
X149565842Y-101560089D01*
X149562882Y-101559365D01*
X149504003Y-101537935D01*
X149504002Y-101537935D01*
X149398030Y-101537935D01*
X149398028Y-101537935D01*
X149298448Y-101574179D01*
X149217265Y-101642299D01*
X149164281Y-101734072D01*
X149145880Y-101838432D01*
X149145880Y-101838437D01*
X149164281Y-101942797D01*
X149217265Y-102034570D01*
X149217267Y-102034572D01*
X149217268Y-102034573D01*
X149298448Y-102102691D01*
X149398030Y-102138935D01*
X149398031Y-102138935D01*
X149504001Y-102138935D01*
X149504002Y-102138935D01*
X149603584Y-102102691D01*
X149684764Y-102034573D01*
X149709765Y-101991268D01*
X149718264Y-101984747D01*
X149728888Y-101986145D01*
X149732993Y-101989745D01*
X149753641Y-102016654D01*
X149845203Y-102086912D01*
X149874756Y-102109589D01*
X149879082Y-102112908D01*
X150025161Y-102173416D01*
X150149248Y-102189752D01*
X150181921Y-102194054D01*
X150181923Y-102194054D01*
X150181925Y-102194054D01*
X150208962Y-102190494D01*
X150338685Y-102173416D01*
X150484764Y-102112908D01*
X150610205Y-102016654D01*
X150706459Y-101891213D01*
X150766967Y-101745134D01*
X150784534Y-101611701D01*
X150787605Y-101588374D01*
X150787605Y-101588369D01*
X150779044Y-101523343D01*
X150766967Y-101431610D01*
X150706459Y-101285531D01*
X150610205Y-101160090D01*
X150515067Y-101087088D01*
X150484766Y-101063837D01*
X150484764Y-101063836D01*
X150425565Y-101039315D01*
X150338685Y-101003328D01*
X150318356Y-101000651D01*
X150309077Y-100995295D01*
X150306304Y-100984945D01*
X150311661Y-100975665D01*
X150318356Y-100972892D01*
X150338685Y-100970216D01*
X150484764Y-100909708D01*
X150610205Y-100813454D01*
X150706459Y-100688013D01*
X150766967Y-100541934D01*
X150787168Y-100388490D01*
X150787605Y-100385174D01*
X150787605Y-100385169D01*
X150779699Y-100325118D01*
X150766967Y-100228410D01*
X150706459Y-100082331D01*
X150610205Y-99956890D01*
X150516571Y-99885042D01*
X150484766Y-99860637D01*
X150484764Y-99860636D01*
X150484763Y-99860635D01*
X150338685Y-99800128D01*
X150286431Y-99793248D01*
X150181925Y-99779490D01*
X150181921Y-99779490D01*
X150077415Y-99793248D01*
X150025161Y-99800128D01*
X150025160Y-99800128D01*
X149879081Y-99860636D01*
X149879079Y-99860637D01*
X149753641Y-99956890D01*
X149657388Y-100082328D01*
X149657387Y-100082330D01*
X149596879Y-100228409D01*
X149596879Y-100228410D01*
X149595443Y-100239315D01*
X149590085Y-100248594D01*
X149579735Y-100251367D01*
X149572564Y-100248212D01*
X149513590Y-100198727D01*
X149414009Y-100162483D01*
X149414008Y-100162483D01*
X149308036Y-100162483D01*
X149308034Y-100162483D01*
X149208454Y-100198727D01*
X149127271Y-100266847D01*
X149074287Y-100358620D01*
X149055886Y-100462980D01*
X149055886Y-100462985D01*
X147724192Y-100462985D01*
X147732425Y-100416293D01*
X147737328Y-100388490D01*
X147737328Y-100388485D01*
X147718926Y-100284125D01*
X147665942Y-100192352D01*
X147665940Y-100192350D01*
X147584760Y-100124232D01*
X147534969Y-100106110D01*
X147485179Y-100087988D01*
X147485178Y-100087988D01*
X147379206Y-100087988D01*
X147379204Y-100087988D01*
X147279624Y-100124232D01*
X147198441Y-100192352D01*
X147159728Y-100259406D01*
X147151227Y-100265929D01*
X147140604Y-100264530D01*
X147138605Y-100263131D01*
X147131296Y-100256998D01*
X147031715Y-100220754D01*
X147031714Y-100220754D01*
X146925742Y-100220754D01*
X146925740Y-100220754D01*
X146826160Y-100256998D01*
X146744977Y-100325118D01*
X146691993Y-100416891D01*
X146673592Y-100521251D01*
X146673592Y-100521256D01*
X146352992Y-100521256D01*
X146403880Y-100478556D01*
X146456866Y-100386781D01*
X146475268Y-100282418D01*
X146475268Y-100282415D01*
X146456866Y-100178055D01*
X146403882Y-100086282D01*
X146401787Y-100084524D01*
X146322700Y-100018162D01*
X146272908Y-100000040D01*
X146223119Y-99981918D01*
X146223118Y-99981918D01*
X146117146Y-99981918D01*
X146117144Y-99981918D01*
X146017564Y-100018162D01*
X145936381Y-100086282D01*
X145883397Y-100178055D01*
X145864996Y-100282415D01*
X145864996Y-100282420D01*
X145539031Y-100282420D01*
X145532330Y-100244417D01*
X145479346Y-100152644D01*
X145445486Y-100124232D01*
X145398164Y-100084524D01*
X145348372Y-100066402D01*
X145298583Y-100048280D01*
X145298582Y-100048280D01*
X145192610Y-100048280D01*
X145192608Y-100048280D01*
X145093028Y-100084524D01*
X145011845Y-100152644D01*
X144958861Y-100244417D01*
X144940460Y-100348777D01*
X144940460Y-100348782D01*
X140569676Y-100348782D01*
X140569676Y-99813042D01*
X140554316Y-99686542D01*
X140554315Y-99686539D01*
X140554315Y-99686537D01*
X140493994Y-99527485D01*
X140493994Y-99527484D01*
X140397359Y-99387485D01*
X140397358Y-99387484D01*
X140397357Y-99387482D01*
X140270031Y-99274682D01*
X140270022Y-99274676D01*
X140119399Y-99195622D01*
X139954234Y-99154914D01*
X139954232Y-99154914D01*
X139784120Y-99154914D01*
X139784117Y-99154914D01*
X139677350Y-99181229D01*
X139666757Y-99179617D01*
X139660407Y-99170986D01*
X139660000Y-99167636D01*
X139660000Y-99014000D01*
X139664101Y-99004101D01*
X139674000Y-99000000D01*
X152633495Y-99000000D01*
X152643394Y-99004101D01*
G37*
%TD.AperFunction*%
%TD*%
D19*
X152000000Y-117500000D02*
X125750000Y-117500000D01*
X125750000Y-117500000D02*
X125750000Y-98500000D01*
X125750000Y-98500000D02*
X153250000Y-98500000D01*
X153250000Y-98500000D02*
X153250000Y-116000000D01*
X153250000Y-116000000D02*
X153000000Y-116000000D01*
X153000000Y-116000000D02*
G75*
G03*
X152000000Y-117000000I0J-1000000D01*
G01*
X152000000Y-117000000D02*
X152000000Y-117500000D01*
M02*
