%TF.GenerationSoftware,KiCad,Pcbnew,7.0.7*%
%TF.CreationDate,2023-11-17T17:13:40-08:00*%
%TF.ProjectId,beeper-flex,62656570-6572-42d6-966c-65782e6b6963,rev?*%
%TF.SameCoordinates,Original*%
%TF.FileFunction,Copper,L1,Top*%
%TF.FilePolarity,Positive*%
%FSLAX46Y46*%
G04 Gerber Fmt 4.6, Leading zero omitted, Abs format (unit mm)*
G04 Created by KiCad (PCBNEW 7.0.7) date 2023-11-17 17:13:40*
%MOMM*%
%LPD*%
G01*
G04 APERTURE LIST*
G04 Aperture macros list*
%AMFreePoly0*
4,1,9,0.003536,0.003536,0.005000,0.000000,0.003536,-0.003536,0.000000,-0.005000,-0.003536,-0.003536,-0.005000,0.000000,-0.003536,0.003536,0.000000,0.005000,0.003536,0.003536,0.003536,0.003536,$1*%
%AMFreePoly1*
4,1,59,0.200943,1.010209,0.394164,0.951596,0.572237,0.856414,0.728320,0.728320,0.856414,0.572237,0.951596,0.394164,1.010209,0.200943,1.030000,0.000000,1.010209,-0.200943,0.951596,-0.394164,0.856414,-0.572237,0.728320,-0.728320,0.572237,-0.856414,0.394164,-0.951596,0.200943,-1.010209,0.000000,-1.030000,-0.200943,-1.010209,-0.394164,-0.951596,-0.572237,-0.856414,-0.728320,-0.728320,
-0.856414,-0.572237,-0.951596,-0.394164,-1.010209,-0.200943,-1.030000,0.000000,-0.585005,0.000000,-0.565071,-0.151410,-0.506629,-0.292503,-0.413661,-0.413661,-0.292503,-0.506629,-0.151410,-0.565071,0.000000,-0.585005,0.151410,-0.565071,0.292503,-0.506629,0.413661,-0.413661,0.506629,-0.292503,0.565071,-0.151410,0.585005,0.000000,0.565071,0.151410,0.506629,0.292502,0.413661,0.413661,
0.292503,0.506629,0.151410,0.565071,0.000000,0.585005,-0.151410,0.565071,-0.292502,0.506629,-0.413661,0.413661,-0.506629,0.292502,-0.565071,0.151410,-0.585005,0.000000,-1.030000,0.000000,-1.010209,0.200943,-0.951596,0.394164,-0.856414,0.572237,-0.728320,0.728320,-0.572237,0.856414,-0.394164,0.951596,-0.200943,1.010209,0.000000,1.030000,0.200943,1.010209,0.200943,1.010209,
$1*%
G04 Aperture macros list end*
%TA.AperFunction,SMDPad,CuDef*%
%ADD10R,0.330000X0.240810*%
%TD*%
%TA.AperFunction,SMDPad,CuDef*%
%ADD11R,0.480000X0.780000*%
%TD*%
%TA.AperFunction,SMDPad,CuDef*%
%ADD12FreePoly0,0.000000*%
%TD*%
%TA.AperFunction,SMDPad,CuDef*%
%ADD13FreePoly1,0.000000*%
%TD*%
%TA.AperFunction,ConnectorPad*%
%ADD14R,0.300000X2.500000*%
%TD*%
%TA.AperFunction,SMDPad,CuDef*%
%ADD15FreePoly0,180.000000*%
%TD*%
%TA.AperFunction,SMDPad,CuDef*%
%ADD16FreePoly1,180.000000*%
%TD*%
%TA.AperFunction,ViaPad*%
%ADD17C,0.400000*%
%TD*%
%TA.AperFunction,Conductor*%
%ADD18C,0.090000*%
%TD*%
G04 APERTURE END LIST*
D10*
%TO.P,C5,1,1*%
%TO.N,GND*%
X125445826Y-102063384D03*
%TO.P,C5,2,2*%
%TO.N,VDDMIC*%
X125445826Y-102617574D03*
%TD*%
D11*
%TO.P,U3,1,DATA*%
%TO.N,/PDM_data*%
X138599000Y-101455000D03*
%TO.P,U3,2,VDD*%
%TO.N,VDDMIC*%
X139299000Y-101455000D03*
%TO.P,U3,3,CLOCK*%
%TO.N,/PDM_clk*%
X138599000Y-103155000D03*
%TO.P,U3,4,SELECT*%
%TO.N,GND*%
X139299000Y-103155000D03*
D12*
%TO.P,U3,5,GND*%
X140779000Y-102305000D03*
D13*
X140779000Y-102305000D03*
%TD*%
D10*
%TO.P,C4,1,1*%
%TO.N,GND*%
X137319666Y-102169468D03*
%TO.P,C4,2,2*%
%TO.N,VDDMIC*%
X137319666Y-102723658D03*
%TD*%
D14*
%TO.P,U6,6,6*%
%TO.N,VDDMIC*%
X128161441Y-99923324D03*
%TO.P,U6,5,5*%
%TO.N,/PDM_data*%
X128661441Y-99923324D03*
%TO.P,U6,4,4*%
%TO.N,GND*%
X129161441Y-99923324D03*
%TO.P,U6,3,3*%
X129661441Y-99923324D03*
%TO.P,U6,2,2*%
X130161441Y-99923324D03*
%TO.P,U6,1,1*%
%TO.N,/PDM_clk*%
X130661441Y-99923324D03*
%TD*%
D11*
%TO.P,U4,1,DATA*%
%TO.N,/PDM_data*%
X124121000Y-103155000D03*
%TO.P,U4,2,VDD*%
%TO.N,VDDMIC*%
X123421000Y-103155000D03*
%TO.P,U4,3,CLOCK*%
%TO.N,/PDM_clk*%
X124121000Y-101455000D03*
%TO.P,U4,4,SELECT*%
%TO.N,VDDMIC*%
X123421000Y-101455000D03*
D15*
%TO.P,U4,5,GND*%
%TO.N,GND*%
X121941000Y-102305000D03*
D16*
X121941000Y-102305000D03*
%TD*%
D17*
%TO.N,GND*%
X136302224Y-102218046D03*
X122818262Y-103327007D03*
X125977121Y-102050021D03*
X122855864Y-101339637D03*
X139914749Y-101226702D03*
X129665246Y-101712800D03*
X126477122Y-102050021D03*
X129144370Y-101473324D03*
X130148316Y-101490167D03*
X139889546Y-103360612D03*
X136806297Y-102192842D03*
%TO.N,VDDMIC*%
X136412707Y-101389814D03*
X134511727Y-103124457D03*
X127563968Y-101482700D03*
X127563968Y-102709279D03*
X133941434Y-103088814D03*
X128227664Y-102684075D03*
X128179082Y-101475613D03*
X135835453Y-101377932D03*
%TD*%
D18*
%TO.N,GND*%
X122789432Y-102298244D02*
X122855864Y-101339637D01*
X129161441Y-99923324D02*
X129144370Y-101473324D01*
X139974980Y-102282557D02*
X139889546Y-103360612D01*
X125977121Y-102050021D02*
X126477122Y-102050021D01*
X125445826Y-102063384D02*
X125977121Y-102050021D01*
X136806297Y-102192842D02*
X136302224Y-102218046D01*
X139299000Y-103155000D02*
X139889546Y-103360612D01*
X130161441Y-99923324D02*
X130148316Y-101490167D01*
X137319666Y-102169468D02*
X136806297Y-102192842D01*
X129661441Y-99923324D02*
X129665246Y-101712800D01*
X139974980Y-102282557D02*
X139914749Y-101226702D01*
X122789432Y-102298244D02*
X122818262Y-103327007D01*
%TO.N,VDDMIC*%
X128161441Y-99923324D02*
X128179082Y-101475613D01*
X136412707Y-101389814D02*
X138315824Y-101983423D01*
X138315824Y-101983423D02*
G75*
G03*
X138359000Y-101990000I43176J138423D01*
G01*
X138359000Y-101990000D02*
X138839000Y-101990000D01*
X138839000Y-101990000D02*
G75*
G03*
X138956611Y-101929810I0J145000D01*
G01*
X138956611Y-101929810D02*
X139299000Y-101455000D01*
%TO.N,/PDM_clk*%
X130661441Y-99923324D02*
X130492496Y-101505562D01*
X130492075Y-101509094D02*
G75*
G03*
X130492496Y-101505562I-135875J17994D01*
G01*
X130492075Y-101509094D02*
X130485261Y-101560857D01*
X130475463Y-101597419D02*
G75*
G03*
X130485260Y-101560857I-134063J55519D01*
G01*
X130475464Y-101597420D02*
X130455484Y-101645656D01*
X130436565Y-101678444D02*
G75*
G03*
X130455484Y-101645656I-115065J88244D01*
G01*
X130436557Y-101678438D02*
X130404774Y-101719859D01*
X130378013Y-101746632D02*
G75*
G03*
X130404774Y-101719859I-88313J115032D01*
G01*
X130378008Y-101746625D02*
X130336586Y-101778409D01*
X130309009Y-101795065D02*
G75*
G03*
X130336585Y-101778408I-60709J131665D01*
G01*
X130309007Y-101795060D02*
X129825936Y-102017692D01*
X129820735Y-102019968D02*
G75*
G03*
X129825936Y-102017692I-55135J133068D01*
G01*
X129820735Y-102019967D02*
X129772499Y-102039947D01*
X129735936Y-102049747D02*
G75*
G03*
X129772499Y-102039947I-18936J143747D01*
G01*
X129735936Y-102049744D02*
X129684172Y-102056559D01*
X129662481Y-102057766D02*
G75*
G03*
X129684172Y-102056559I2819J144866D01*
G01*
X129662481Y-102057773D02*
X127557582Y-102017640D01*
X127520242Y-102014831D02*
G75*
G03*
X127557582Y-102017640I43758J332131D01*
G01*
X127520242Y-102014834D02*
X127468478Y-102008020D01*
X127407217Y-101994009D02*
G75*
G03*
X127468478Y-102008019I104983J318109D01*
G01*
X127407217Y-101994009D02*
X126574327Y-101719141D01*
X126574329Y-101719136D02*
G75*
G03*
X126547812Y-101713077I-45429J-137764D01*
G01*
X126547812Y-101713077D02*
X126496048Y-101706262D01*
X126496048Y-101706263D02*
G75*
G03*
X126492373Y-101705826I-18548J-140337D01*
G01*
X126492373Y-101705826D02*
X124121000Y-101455000D01*
X138599000Y-103155000D02*
X127529677Y-102015941D01*
X127520242Y-102014832D02*
G75*
G03*
X127529677Y-102015940I43658J330932D01*
G01*
X127520242Y-102014834D02*
X127468478Y-102008020D01*
X127407217Y-101994009D02*
G75*
G03*
X127468478Y-102008019I104983J318109D01*
G01*
X127407217Y-101994009D02*
X126574327Y-101719141D01*
X126574329Y-101719136D02*
G75*
G03*
X126547812Y-101713077I-45429J-137764D01*
G01*
X126547812Y-101713077D02*
X126496048Y-101706262D01*
X126496048Y-101706263D02*
G75*
G03*
X126492373Y-101705826I-18548J-140337D01*
G01*
X126492373Y-101705826D02*
X124121000Y-101455000D01*
%TO.N,/PDM_data*%
X138599000Y-101455000D02*
X138941389Y-100980190D01*
X139052517Y-100920145D02*
G75*
G03*
X138941389Y-100980190I6483J-144855D01*
G01*
X139052517Y-100920145D02*
X139908266Y-100881847D01*
X139933677Y-100882935D02*
G75*
G03*
X139908266Y-100881847I-18877J-143665D01*
G01*
X139933676Y-100882942D02*
X139985439Y-100889757D01*
X140003085Y-100893209D02*
G75*
G03*
X139985439Y-100889757I-36585J-140191D01*
G01*
X140003086Y-100893205D02*
X141167853Y-101196805D01*
X141186772Y-101203149D02*
G75*
G03*
X141167853Y-101196805I-55472J-134051D01*
G01*
X141186770Y-101203154D02*
X141269786Y-101237540D01*
X141281250Y-101242887D02*
G75*
G03*
X141269786Y-101237540I-67050J-128813D01*
G01*
X141281250Y-101242886D02*
X141360954Y-101284377D01*
X141371908Y-101290702D02*
G75*
G03*
X141360954Y-101284378I-77908J-122298D01*
G01*
X141371908Y-101290702D02*
X141447692Y-101338982D01*
X141458054Y-101346237D02*
G75*
G03*
X141447692Y-101338983I-88054J-114763D01*
G01*
X141458054Y-101346237D02*
X141529342Y-101400938D01*
X141539031Y-101409071D02*
G75*
G03*
X141529342Y-101400938I-98431J-107429D01*
G01*
X141539032Y-101409069D02*
X141605281Y-101469775D01*
X141614225Y-101478719D02*
G75*
G03*
X141605281Y-101469775I-107525J-98581D01*
G01*
X141614225Y-101478719D02*
X141674931Y-101544968D01*
X141683063Y-101554657D02*
G75*
G03*
X141674931Y-101544968I-115563J-88743D01*
G01*
X141683062Y-101554658D02*
X141737763Y-101625946D01*
X141745016Y-101636309D02*
G75*
G03*
X141737763Y-101625946I-122016J-77691D01*
G01*
X141745018Y-101636308D02*
X141793298Y-101712092D01*
X141799622Y-101723046D02*
G75*
G03*
X141793298Y-101712092I-128622J-66954D01*
G01*
X141799623Y-101723046D02*
X141841114Y-101802750D01*
X141846460Y-101814214D02*
G75*
G03*
X141841113Y-101802750I-134160J-55586D01*
G01*
X141846460Y-101814214D02*
X141880846Y-101897230D01*
X141885174Y-101909116D02*
G75*
G03*
X141880845Y-101897230I-137874J-43484D01*
G01*
X141885172Y-101909117D02*
X141912193Y-101994814D01*
X141915465Y-102007034D02*
G75*
G03*
X141912193Y-101994814I-141965J-31466D01*
G01*
X141915467Y-102007033D02*
X141934915Y-102094759D01*
X141937110Y-102107216D02*
G75*
G03*
X141934915Y-102094759I-143610J-18884D01*
G01*
X141937111Y-102107216D02*
X141948840Y-102196303D01*
X141949939Y-102208905D02*
G75*
G03*
X141948839Y-102196303I-144839J-6295D01*
G01*
X141949943Y-102208905D02*
X141953862Y-102298675D01*
X141953862Y-102311325D02*
G75*
G03*
X141953862Y-102298675I-144862J6325D01*
G01*
X141953862Y-102311325D02*
X141949943Y-102401095D01*
X141948842Y-102413697D02*
G75*
G03*
X141949942Y-102401095I-143742J18897D01*
G01*
X141948840Y-102413697D02*
X141937111Y-102502784D01*
X141934916Y-102515241D02*
G75*
G03*
X141937111Y-102502784I-141416J31341D01*
G01*
X141934915Y-102515241D02*
X141915467Y-102602967D01*
X141912194Y-102615186D02*
G75*
G03*
X141915466Y-102602967I-138694J43686D01*
G01*
X141912193Y-102615186D02*
X141885172Y-102700883D01*
X141880843Y-102712769D02*
G75*
G03*
X141885172Y-102700883I-133543J55369D01*
G01*
X141880846Y-102712770D02*
X141846460Y-102795786D01*
X141841113Y-102807250D02*
G75*
G03*
X141846460Y-102795786I-128813J67050D01*
G01*
X141841114Y-102807250D02*
X141799623Y-102886954D01*
X141793298Y-102897908D02*
G75*
G03*
X141799622Y-102886954I-122298J77908D01*
G01*
X141793298Y-102897908D02*
X141745018Y-102973692D01*
X141737763Y-102984054D02*
G75*
G03*
X141745017Y-102973692I-114763J88054D01*
G01*
X141737763Y-102984054D02*
X141683062Y-103055342D01*
X141674929Y-103065031D02*
G75*
G03*
X141683062Y-103055342I-107429J98431D01*
G01*
X141674931Y-103065032D02*
X141614225Y-103131281D01*
X141605281Y-103140225D02*
G75*
G03*
X141614225Y-103131281I-98581J107525D01*
G01*
X141605281Y-103140225D02*
X141539032Y-103200931D01*
X141529343Y-103209063D02*
G75*
G03*
X141539032Y-103200931I-88743J115563D01*
G01*
X141529342Y-103209062D02*
X141458054Y-103263763D01*
X141447691Y-103271016D02*
G75*
G03*
X141458054Y-103263763I-77691J122016D01*
G01*
X141447692Y-103271018D02*
X141371908Y-103319298D01*
X141360954Y-103325622D02*
G75*
G03*
X141371908Y-103319298I-66954J128622D01*
G01*
X141360954Y-103325623D02*
X141281250Y-103367114D01*
X141269786Y-103372460D02*
G75*
G03*
X141281250Y-103367113I-55586J134160D01*
G01*
X141269786Y-103372460D02*
X141186770Y-103406846D01*
X141174884Y-103411174D02*
G75*
G03*
X141186770Y-103406845I-43484J137874D01*
G01*
X141174883Y-103411172D02*
X141089186Y-103438193D01*
X141078073Y-103441215D02*
G75*
G03*
X141089186Y-103438193I-32573J141715D01*
G01*
X141078074Y-103441217D02*
X139973800Y-103695110D01*
X139960236Y-103697560D02*
G75*
G03*
X139973800Y-103695110I-18936J143560D01*
G01*
X139960236Y-103697557D02*
X139908472Y-103704372D01*
X139888067Y-103705609D02*
G75*
G03*
X139908472Y-103704371I1433J145209D01*
G01*
X139888067Y-103705605D02*
X138357521Y-103689992D01*
X138353554Y-103689896D02*
G75*
G03*
X138357521Y-103689991I5346J140396D01*
G01*
X138353554Y-103689898D02*
X124121000Y-103155000D01*
X128661441Y-99923324D02*
X128523522Y-101488342D01*
X128522843Y-101494539D02*
G75*
G03*
X128523522Y-101488342I-145143J19039D01*
G01*
X128522842Y-101494539D02*
X128516027Y-101546303D01*
X128506233Y-101582867D02*
G75*
G03*
X128516026Y-101546303I-133933J55467D01*
G01*
X128506230Y-101582866D02*
X128486250Y-101631102D01*
X128467320Y-101663880D02*
G75*
G03*
X128486250Y-101631102I-115020J88280D01*
G01*
X128467323Y-101663883D02*
X128435540Y-101705305D01*
X128408770Y-101732066D02*
G75*
G03*
X128435540Y-101705305I-88270J115066D01*
G01*
X128408774Y-101732071D02*
X128367353Y-101763854D01*
X128334568Y-101782774D02*
G75*
G03*
X128367353Y-101763854I-55468J133974D01*
G01*
X128334571Y-101782781D02*
X128286335Y-101802761D01*
X128249773Y-101812562D02*
G75*
G03*
X128286335Y-101802761I-18973J143862D01*
G01*
X128249772Y-101812558D02*
X128198008Y-101819373D01*
X128180753Y-101820604D02*
G75*
G03*
X128198008Y-101819372I-1653J144704D01*
G01*
X128180753Y-101820603D02*
X127565638Y-101827691D01*
X127545042Y-101826456D02*
G75*
G03*
X127565638Y-101827691I18958J143856D01*
G01*
X127545041Y-101826460D02*
X127493278Y-101819645D01*
X127466762Y-101813581D02*
G75*
G03*
X127493278Y-101819645I45438J137681D01*
G01*
X127466762Y-101813581D02*
X126633872Y-101538712D01*
X126633872Y-101538711D02*
G75*
G03*
X126617525Y-101533777I-105072J-318589D01*
G01*
X126617525Y-101533776D02*
X124399366Y-100925168D01*
X124399366Y-100925168D02*
G75*
G03*
X124361000Y-100920000I-38366J-139832D01*
G01*
X124361000Y-100920000D02*
X123181000Y-100920000D01*
X123181000Y-100920002D02*
G75*
G03*
X123158226Y-100921800I0J-145098D01*
G01*
X123158226Y-100921800D02*
X121739369Y-101147448D01*
X121739369Y-101147450D02*
G75*
G03*
X121730759Y-101149086I22531J-142050D01*
G01*
X121730759Y-101149085D02*
X121643033Y-101168533D01*
X121643034Y-101168535D02*
G75*
G03*
X121630814Y-101171807I31466J-141965D01*
G01*
X121630814Y-101171807D02*
X121545117Y-101198828D01*
X121545116Y-101198826D02*
G75*
G03*
X121533230Y-101203155I43484J-137874D01*
G01*
X121533230Y-101203154D02*
X121450214Y-101237540D01*
X121450214Y-101237540D02*
G75*
G03*
X121438750Y-101242887I55586J-134160D01*
G01*
X121438750Y-101242886D02*
X121359046Y-101284377D01*
X121359046Y-101284378D02*
G75*
G03*
X121348092Y-101290702I66954J-128622D01*
G01*
X121348092Y-101290702D02*
X121272308Y-101338982D01*
X121272309Y-101338984D02*
G75*
G03*
X121261946Y-101346237I77691J-122016D01*
G01*
X121261946Y-101346237D02*
X121190658Y-101400938D01*
X121190657Y-101400937D02*
G75*
G03*
X121180968Y-101409069I88743J-115563D01*
G01*
X121180968Y-101409069D02*
X121114719Y-101469775D01*
X121114719Y-101469775D02*
G75*
G03*
X121105775Y-101478719I98581J-107525D01*
G01*
X121105775Y-101478719D02*
X121045069Y-101544968D01*
X121045071Y-101544969D02*
G75*
G03*
X121036938Y-101554658I107429J-98431D01*
G01*
X121036938Y-101554658D02*
X120982237Y-101625946D01*
X120982237Y-101625946D02*
G75*
G03*
X120974983Y-101636308I114763J-88054D01*
G01*
X120974982Y-101636308D02*
X120926702Y-101712092D01*
X120926702Y-101712092D02*
G75*
G03*
X120920378Y-101723046I122298J-77908D01*
G01*
X120920377Y-101723046D02*
X120878886Y-101802750D01*
X120878887Y-101802750D02*
G75*
G03*
X120873540Y-101814214I128813J-67050D01*
G01*
X120873540Y-101814214D02*
X120839154Y-101897230D01*
X120839157Y-101897231D02*
G75*
G03*
X120834828Y-101909117I133543J-55369D01*
G01*
X120834828Y-101909117D02*
X120807807Y-101994814D01*
X120807806Y-101994814D02*
G75*
G03*
X120804534Y-102007033I138694J-43686D01*
G01*
X120804533Y-102007033D02*
X120785085Y-102094759D01*
X120785084Y-102094759D02*
G75*
G03*
X120782889Y-102107216I141416J-31341D01*
G01*
X120782889Y-102107216D02*
X120771160Y-102196303D01*
X120771158Y-102196303D02*
G75*
G03*
X120770058Y-102208905I143742J-18897D01*
G01*
X120770057Y-102208905D02*
X120766138Y-102298675D01*
X120766138Y-102298675D02*
G75*
G03*
X120766138Y-102311325I144862J-6325D01*
G01*
X120766138Y-102311325D02*
X120770057Y-102401095D01*
X120770061Y-102401095D02*
G75*
G03*
X120771161Y-102413697I144839J6295D01*
G01*
X120771160Y-102413697D02*
X120782889Y-102502784D01*
X120782890Y-102502784D02*
G75*
G03*
X120785085Y-102515241I143610J18884D01*
G01*
X120785085Y-102515241D02*
X120804533Y-102602967D01*
X120804535Y-102602966D02*
G75*
G03*
X120807807Y-102615186I141965J31466D01*
G01*
X120807807Y-102615186D02*
X120834828Y-102700883D01*
X120834826Y-102700884D02*
G75*
G03*
X120839155Y-102712770I137874J43484D01*
G01*
X120839154Y-102712770D02*
X120873540Y-102795786D01*
X120873540Y-102795786D02*
G75*
G03*
X120878887Y-102807250I134160J55586D01*
G01*
X120878886Y-102807250D02*
X120920377Y-102886954D01*
X120920378Y-102886954D02*
G75*
G03*
X120926702Y-102897908I128622J66954D01*
G01*
X120926702Y-102897908D02*
X120974982Y-102973692D01*
X120974984Y-102973691D02*
G75*
G03*
X120982237Y-102984054I122016J77691D01*
G01*
X120982237Y-102984054D02*
X121036938Y-103055342D01*
X121036937Y-103055343D02*
G75*
G03*
X121045069Y-103065032I115563J88743D01*
G01*
X121045069Y-103065032D02*
X121105775Y-103131281D01*
X121105775Y-103131281D02*
G75*
G03*
X121114719Y-103140225I107525J98581D01*
G01*
X121114719Y-103140225D02*
X121180968Y-103200931D01*
X121180969Y-103200929D02*
G75*
G03*
X121190658Y-103209062I98431J107429D01*
G01*
X121190658Y-103209062D02*
X121261946Y-103263763D01*
X121261946Y-103263763D02*
G75*
G03*
X121272308Y-103271017I88054J114763D01*
G01*
X121272308Y-103271018D02*
X121348092Y-103319298D01*
X121348092Y-103319298D02*
G75*
G03*
X121359046Y-103325622I77908J122298D01*
G01*
X121359046Y-103325623D02*
X121438750Y-103367114D01*
X121438750Y-103367113D02*
G75*
G03*
X121450214Y-103372460I67050J128813D01*
G01*
X121450214Y-103372460D02*
X121533230Y-103406846D01*
X121533231Y-103406843D02*
G75*
G03*
X121545117Y-103411172I55369J133543D01*
G01*
X121545117Y-103411172D02*
X121630814Y-103438193D01*
X121630814Y-103438194D02*
G75*
G03*
X121643033Y-103441466I43686J138694D01*
G01*
X121643033Y-103441467D02*
X121730759Y-103460915D01*
X121730759Y-103460915D02*
G75*
G03*
X121733710Y-103461536I30241J136415D01*
G01*
X121733710Y-103461537D02*
X122738065Y-103662377D01*
X122738065Y-103662375D02*
G75*
G03*
X122747572Y-103663951I28335J141475D01*
G01*
X122747572Y-103663952D02*
X122799336Y-103670767D01*
X122799336Y-103670766D02*
G75*
G03*
X122811078Y-103671829I18964J144166D01*
G01*
X122811078Y-103671829D02*
X123173816Y-103689822D01*
X123173816Y-103689824D02*
G75*
G03*
X123181000Y-103690000I7184J146524D01*
G01*
X123181000Y-103690000D02*
X123661000Y-103690000D01*
X123661000Y-103690000D02*
G75*
G03*
X123778611Y-103629810I0J145000D01*
G01*
X123778611Y-103629810D02*
X124121000Y-103155000D01*
%TD*%
%TA.AperFunction,Conductor*%
%TO.N,VDDMIC*%
G36*
X127753340Y-98868229D02*
G01*
X127757441Y-98878128D01*
X127757441Y-99796324D01*
X128274441Y-99796324D01*
X128284340Y-99800425D01*
X128288441Y-99810324D01*
X128288441Y-101427323D01*
X128336457Y-101427323D01*
X128365345Y-101421577D01*
X128375854Y-101423667D01*
X128381807Y-101432577D01*
X128382022Y-101436536D01*
X128381560Y-101441784D01*
X128381556Y-101441811D01*
X128378584Y-101475566D01*
X128376193Y-101493717D01*
X128376184Y-101493757D01*
X128373828Y-101511671D01*
X128372134Y-101524558D01*
X128372048Y-101525210D01*
X128372020Y-101525423D01*
X128371075Y-101528945D01*
X128352556Y-101573654D01*
X128350728Y-101576820D01*
X128331208Y-101602253D01*
X128331183Y-101602292D01*
X128325962Y-101609097D01*
X128321263Y-101615221D01*
X128318680Y-101617804D01*
X128293246Y-101637313D01*
X128293221Y-101637336D01*
X128280291Y-101647258D01*
X128277124Y-101649086D01*
X128246972Y-101661571D01*
X128246941Y-101661588D01*
X128232417Y-101667604D01*
X128228887Y-101668550D01*
X128213518Y-101670574D01*
X128213481Y-101670575D01*
X128179469Y-101675057D01*
X128178634Y-101675116D01*
X128144939Y-101675502D01*
X128144912Y-101675505D01*
X127564991Y-101682187D01*
X127563001Y-101682068D01*
X127553092Y-101680762D01*
X127531127Y-101677868D01*
X127531125Y-101677868D01*
X127530288Y-101677758D01*
X127530258Y-101677756D01*
X127513625Y-101675567D01*
X127511065Y-101674982D01*
X127490389Y-101668159D01*
X127480825Y-101665003D01*
X126712564Y-101411462D01*
X126712511Y-101411437D01*
X126686414Y-101402831D01*
X126677347Y-101399839D01*
X126674671Y-101398631D01*
X126674500Y-101398531D01*
X126674497Y-101398530D01*
X126668007Y-101396749D01*
X126667694Y-101396654D01*
X126661280Y-101394538D01*
X126661277Y-101394537D01*
X126661075Y-101394526D01*
X126658170Y-101394050D01*
X124469890Y-100793640D01*
X124458630Y-100790551D01*
X124437864Y-100784852D01*
X124425338Y-100781412D01*
X124425247Y-100781391D01*
X124419392Y-100779785D01*
X124417406Y-100779772D01*
X124415014Y-100779550D01*
X124399824Y-100776811D01*
X124399818Y-100776810D01*
X124384446Y-100775434D01*
X124382068Y-100775012D01*
X124380160Y-100774500D01*
X124380156Y-100774500D01*
X124374045Y-100774500D01*
X124373977Y-100774497D01*
X124373974Y-100774497D01*
X124361000Y-100774500D01*
X123161844Y-100774500D01*
X123161843Y-100774500D01*
X123161837Y-100774501D01*
X123160624Y-100774826D01*
X123155552Y-100775228D01*
X123154294Y-100775097D01*
X123154291Y-100775097D01*
X123135389Y-100778103D01*
X123101357Y-100783511D01*
X123101323Y-100783520D01*
X121722495Y-101002801D01*
X121719691Y-101002962D01*
X121717974Y-101002887D01*
X121717964Y-101002888D01*
X121708059Y-101005084D01*
X121707645Y-101005163D01*
X121697597Y-101006762D01*
X121696022Y-101007464D01*
X121693373Y-101008339D01*
X121692593Y-101008513D01*
X121609775Y-101026873D01*
X121607358Y-101027192D01*
X121605331Y-101027280D01*
X121605325Y-101027281D01*
X121599439Y-101029136D01*
X121598852Y-101029293D01*
X121592844Y-101030626D01*
X121592833Y-101030631D01*
X121591042Y-101031562D01*
X121588799Y-101032491D01*
X121585538Y-101033520D01*
X121554089Y-101043426D01*
X121554004Y-101043463D01*
X121533852Y-101049817D01*
X121533826Y-101049824D01*
X121508120Y-101057930D01*
X121508116Y-101057930D01*
X121508117Y-101057931D01*
X121499623Y-101060608D01*
X121497249Y-101061134D01*
X121495253Y-101061397D01*
X121495251Y-101061398D01*
X121495248Y-101061398D01*
X121495248Y-101061399D01*
X121493080Y-101062296D01*
X121489548Y-101063759D01*
X121488977Y-101063967D01*
X121483094Y-101065822D01*
X121483088Y-101065825D01*
X121481388Y-101066908D01*
X121479236Y-101068029D01*
X121478181Y-101068467D01*
X121426492Y-101089877D01*
X121426461Y-101089886D01*
X121408205Y-101097451D01*
X121396287Y-101102389D01*
X121392853Y-101103810D01*
X121390536Y-101104540D01*
X121389682Y-101104730D01*
X121388556Y-101104980D01*
X121383087Y-101107826D01*
X121382536Y-101108083D01*
X121376837Y-101110444D01*
X121375775Y-101111259D01*
X121375224Y-101111682D01*
X121373182Y-101112983D01*
X121372335Y-101113424D01*
X121371571Y-101113823D01*
X121360755Y-101119452D01*
X121341919Y-101129256D01*
X121341900Y-101129267D01*
X121290251Y-101156153D01*
X121288005Y-101157084D01*
X121286073Y-101157694D01*
X121286067Y-101157697D01*
X121280870Y-101161008D01*
X121280348Y-101161309D01*
X121279234Y-101161889D01*
X121274873Y-101164159D01*
X121274869Y-101164163D01*
X121273373Y-101165533D01*
X121271442Y-101167014D01*
X121261527Y-101173332D01*
X121241909Y-101185829D01*
X121241907Y-101185830D01*
X121236826Y-101189067D01*
X121192603Y-101217240D01*
X121190446Y-101218364D01*
X121188571Y-101219141D01*
X121183681Y-101222892D01*
X121183183Y-101223241D01*
X121177975Y-101226561D01*
X121177973Y-101226562D01*
X121176600Y-101228060D01*
X121174801Y-101229707D01*
X121174417Y-101230001D01*
X121146053Y-101251764D01*
X121146050Y-101251767D01*
X121129666Y-101264339D01*
X121129567Y-101264399D01*
X121106220Y-101282328D01*
X121100633Y-101286614D01*
X121098580Y-101287923D01*
X121096795Y-101288852D01*
X121096792Y-101288855D01*
X121092251Y-101293014D01*
X121091785Y-101293405D01*
X121086886Y-101297165D01*
X121085649Y-101298777D01*
X121084008Y-101300567D01*
X121083433Y-101301095D01*
X121082675Y-101301790D01*
X121067305Y-101315873D01*
X121057469Y-101324885D01*
X121057464Y-101324890D01*
X121042033Y-101339031D01*
X121041974Y-101339074D01*
X121016522Y-101362407D01*
X121015083Y-101363726D01*
X121013147Y-101365212D01*
X121011443Y-101366297D01*
X121007280Y-101370839D01*
X121006850Y-101371269D01*
X121002297Y-101375441D01*
X121001207Y-101377153D01*
X120999723Y-101379086D01*
X120998528Y-101380391D01*
X120975189Y-101405847D01*
X120975141Y-101405912D01*
X120960890Y-101421464D01*
X120960885Y-101421469D01*
X120960225Y-101422188D01*
X120960225Y-101422189D01*
X120937790Y-101446675D01*
X120937439Y-101447057D01*
X120936561Y-101448014D01*
X120934778Y-101449648D01*
X120933164Y-101450887D01*
X120929403Y-101455788D01*
X120929012Y-101456254D01*
X120924855Y-101460791D01*
X120924848Y-101460801D01*
X120923915Y-101462592D01*
X120922616Y-101464632D01*
X120921541Y-101466036D01*
X120900399Y-101493567D01*
X120900339Y-101493666D01*
X120887767Y-101510050D01*
X120887764Y-101510053D01*
X120868785Y-101534787D01*
X120868786Y-101534788D01*
X120865692Y-101538817D01*
X120864051Y-101540607D01*
X120862566Y-101541969D01*
X120862561Y-101541974D01*
X120859241Y-101547183D01*
X120858892Y-101547681D01*
X120855143Y-101552569D01*
X120854366Y-101554443D01*
X120853245Y-101556595D01*
X120852252Y-101558156D01*
X120851918Y-101558681D01*
X120822336Y-101605112D01*
X120822330Y-101605123D01*
X120821831Y-101605907D01*
X120821829Y-101605909D01*
X120808201Y-101627303D01*
X120805843Y-101631005D01*
X120804270Y-101633475D01*
X120803985Y-101633921D01*
X120803009Y-101635450D01*
X120801539Y-101637365D01*
X120800164Y-101638866D01*
X120800162Y-101638870D01*
X120797310Y-101644346D01*
X120797006Y-101644873D01*
X120793695Y-101650071D01*
X120793694Y-101650072D01*
X120793087Y-101651999D01*
X120792154Y-101654251D01*
X120765558Y-101705341D01*
X120765548Y-101705358D01*
X120748991Y-101737167D01*
X120747685Y-101739219D01*
X120746447Y-101740833D01*
X120746444Y-101740838D01*
X120744084Y-101746536D01*
X120743827Y-101747087D01*
X120740980Y-101752559D01*
X120740541Y-101754537D01*
X120739818Y-101756835D01*
X120739592Y-101757384D01*
X120739120Y-101758523D01*
X120725886Y-101790461D01*
X120725877Y-101790492D01*
X120704034Y-101843226D01*
X120702909Y-101845387D01*
X120701824Y-101847090D01*
X120701823Y-101847093D01*
X120699967Y-101852977D01*
X120699759Y-101853548D01*
X120699458Y-101854275D01*
X120697400Y-101859247D01*
X120697399Y-101859249D01*
X120697397Y-101859257D01*
X120697132Y-101861263D01*
X120696608Y-101863631D01*
X120696067Y-101865348D01*
X120685821Y-101897836D01*
X120685817Y-101897852D01*
X120679463Y-101918004D01*
X120679427Y-101918086D01*
X120670405Y-101946728D01*
X120670404Y-101946730D01*
X120668493Y-101952795D01*
X120667560Y-101955049D01*
X120666627Y-101956840D01*
X120666627Y-101956842D01*
X120665294Y-101962852D01*
X120665136Y-101963439D01*
X120663281Y-101969325D01*
X120663280Y-101969331D01*
X120663192Y-101971358D01*
X120662873Y-101973775D01*
X120650503Y-102029574D01*
X120650494Y-102029603D01*
X120644825Y-102055182D01*
X120644825Y-102055186D01*
X120642639Y-102065040D01*
X120641907Y-102067361D01*
X120641134Y-102069228D01*
X120641133Y-102069232D01*
X120640328Y-102075346D01*
X120640222Y-102075947D01*
X120638888Y-102081963D01*
X120638887Y-102081974D01*
X120638975Y-102083998D01*
X120638868Y-102086429D01*
X120631421Y-102143001D01*
X120631408Y-102143054D01*
X120627588Y-102172110D01*
X120626664Y-102179117D01*
X120626139Y-102181488D01*
X120625530Y-102183421D01*
X120625260Y-102189590D01*
X120625207Y-102190197D01*
X120624404Y-102196299D01*
X120624404Y-102196304D01*
X120624668Y-102198317D01*
X120624774Y-102200747D01*
X120624741Y-102201510D01*
X120624694Y-102202587D01*
X120624630Y-102204051D01*
X120622224Y-102259150D01*
X120622225Y-102259150D01*
X120620696Y-102294144D01*
X120620378Y-102296561D01*
X120619941Y-102298532D01*
X120619940Y-102298534D01*
X120620209Y-102304691D01*
X120620209Y-102305300D01*
X120619940Y-102311465D01*
X120619941Y-102311471D01*
X120620377Y-102313436D01*
X120620696Y-102315855D01*
X120621629Y-102337204D01*
X120624774Y-102409255D01*
X120624668Y-102411691D01*
X120624404Y-102413698D01*
X120624404Y-102413699D01*
X120625207Y-102419801D01*
X120625260Y-102420408D01*
X120625530Y-102426580D01*
X120626140Y-102428516D01*
X120626664Y-102430877D01*
X120626824Y-102432084D01*
X120626901Y-102432662D01*
X120627587Y-102437877D01*
X120631426Y-102467084D01*
X120631438Y-102467132D01*
X120638868Y-102523569D01*
X120638975Y-102526000D01*
X120638887Y-102528024D01*
X120638888Y-102528033D01*
X120640221Y-102534046D01*
X120640327Y-102534646D01*
X120641134Y-102540771D01*
X120641909Y-102542642D01*
X120642639Y-102544957D01*
X120643031Y-102546720D01*
X120650560Y-102580698D01*
X120650569Y-102580723D01*
X120662873Y-102636223D01*
X120663192Y-102638641D01*
X120663280Y-102640668D01*
X120663280Y-102640669D01*
X120665134Y-102646551D01*
X120665291Y-102647138D01*
X120666627Y-102653157D01*
X120666628Y-102653161D01*
X120667561Y-102654953D01*
X120668491Y-102657197D01*
X120669208Y-102659468D01*
X120670403Y-102663262D01*
X120679461Y-102692021D01*
X120679496Y-102692101D01*
X120685885Y-102712362D01*
X120685889Y-102712381D01*
X120694340Y-102739178D01*
X120694340Y-102739184D01*
X120696608Y-102746376D01*
X120697135Y-102748754D01*
X120697399Y-102750752D01*
X120699763Y-102756459D01*
X120699967Y-102757020D01*
X120701823Y-102762906D01*
X120701826Y-102762911D01*
X120702907Y-102764609D01*
X120704031Y-102766767D01*
X120704467Y-102767819D01*
X120725876Y-102819505D01*
X120725887Y-102819541D01*
X120737573Y-102847744D01*
X120739810Y-102853147D01*
X120740542Y-102855467D01*
X120740979Y-102857436D01*
X120740980Y-102857439D01*
X120740981Y-102857442D01*
X120743617Y-102862506D01*
X120743827Y-102862909D01*
X120744084Y-102863462D01*
X120746410Y-102869079D01*
X120746446Y-102869164D01*
X120747673Y-102870764D01*
X120747680Y-102870772D01*
X120748989Y-102872829D01*
X120765967Y-102905447D01*
X120765978Y-102905463D01*
X120792153Y-102955746D01*
X120793086Y-102957996D01*
X120793695Y-102959927D01*
X120793698Y-102959934D01*
X120797006Y-102965126D01*
X120797310Y-102965653D01*
X120800159Y-102971125D01*
X120800162Y-102971130D01*
X120800163Y-102971131D01*
X120800165Y-102971133D01*
X120801534Y-102972628D01*
X120803002Y-102974538D01*
X120803237Y-102974906D01*
X120807686Y-102981889D01*
X120821829Y-103004091D01*
X120821830Y-103004091D01*
X120822851Y-103005694D01*
X120822853Y-103005697D01*
X120824772Y-103008709D01*
X120851656Y-103050907D01*
X120852248Y-103051838D01*
X120853242Y-103053398D01*
X120854366Y-103055556D01*
X120855142Y-103057429D01*
X120855142Y-103057430D01*
X120858894Y-103062320D01*
X120859244Y-103062819D01*
X120862561Y-103068025D01*
X120864054Y-103069394D01*
X120865698Y-103071186D01*
X120866801Y-103072624D01*
X120866801Y-103072625D01*
X120877525Y-103086602D01*
X120888286Y-103100628D01*
X120888295Y-103100636D01*
X120899800Y-103115629D01*
X120900324Y-103116312D01*
X120900385Y-103116414D01*
X120901310Y-103117619D01*
X120901311Y-103117620D01*
X120915954Y-103136689D01*
X120918327Y-103139778D01*
X120918328Y-103139780D01*
X120921537Y-103143960D01*
X120921537Y-103143961D01*
X120922616Y-103145367D01*
X120923921Y-103147415D01*
X120924854Y-103149207D01*
X120928121Y-103152772D01*
X120929009Y-103153741D01*
X120929402Y-103154209D01*
X120933165Y-103159113D01*
X120934776Y-103160350D01*
X120936566Y-103161990D01*
X120937790Y-103163325D01*
X120955811Y-103182994D01*
X120961611Y-103189324D01*
X120961622Y-103189332D01*
X120975102Y-103204044D01*
X120975151Y-103204110D01*
X120992142Y-103222644D01*
X120998527Y-103229608D01*
X120999533Y-103230705D01*
X120999729Y-103230919D01*
X121001205Y-103232844D01*
X121002295Y-103234555D01*
X121002296Y-103234556D01*
X121002297Y-103234557D01*
X121006859Y-103238737D01*
X121007272Y-103239150D01*
X121009172Y-103241223D01*
X121011442Y-103243702D01*
X121012311Y-103244255D01*
X121013147Y-103244787D01*
X121015087Y-103246276D01*
X121015696Y-103246834D01*
X121016392Y-103247473D01*
X121040871Y-103269915D01*
X121040872Y-103269915D01*
X121042099Y-103271040D01*
X121042161Y-103271084D01*
X121057022Y-103284703D01*
X121057034Y-103284717D01*
X121058189Y-103285775D01*
X121082675Y-103308210D01*
X121082675Y-103308209D01*
X121082943Y-103308455D01*
X121084000Y-103309423D01*
X121085649Y-103311222D01*
X121086886Y-103312834D01*
X121091786Y-103316594D01*
X121092242Y-103316976D01*
X121096793Y-103321146D01*
X121096795Y-103321147D01*
X121096794Y-103321147D01*
X121097576Y-103321554D01*
X121098584Y-103322078D01*
X121100640Y-103323387D01*
X121102040Y-103324462D01*
X121128380Y-103344689D01*
X121129666Y-103345676D01*
X121129761Y-103345732D01*
X121145759Y-103358008D01*
X121145773Y-103358021D01*
X121147027Y-103358983D01*
X121147028Y-103358984D01*
X121170785Y-103377212D01*
X121170786Y-103377213D01*
X121173375Y-103379199D01*
X121173375Y-103379200D01*
X121174820Y-103380309D01*
X121176610Y-103381950D01*
X121177974Y-103383438D01*
X121177975Y-103383439D01*
X121183175Y-103386752D01*
X121183676Y-103387103D01*
X121188572Y-103390859D01*
X121190441Y-103391633D01*
X121192602Y-103392758D01*
X121241907Y-103424169D01*
X121241909Y-103424171D01*
X121256749Y-103433624D01*
X121271442Y-103442984D01*
X121273376Y-103444469D01*
X121274867Y-103445836D01*
X121274871Y-103445839D01*
X121280343Y-103448687D01*
X121280873Y-103448993D01*
X121286066Y-103452302D01*
X121286068Y-103452302D01*
X121286070Y-103452304D01*
X121287999Y-103452912D01*
X121290244Y-103453841D01*
X121341568Y-103480559D01*
X121341590Y-103480572D01*
X121371570Y-103496177D01*
X121373173Y-103497011D01*
X121375226Y-103498319D01*
X121376836Y-103499554D01*
X121379009Y-103500454D01*
X121382535Y-103501915D01*
X121383088Y-103502173D01*
X121385731Y-103503548D01*
X121388558Y-103505020D01*
X121390541Y-103505459D01*
X121392851Y-103506187D01*
X121396287Y-103507610D01*
X121425201Y-103519591D01*
X121425202Y-103519590D01*
X121426871Y-103520282D01*
X121426895Y-103520289D01*
X121465032Y-103536085D01*
X121474908Y-103540176D01*
X121479223Y-103541963D01*
X121481386Y-103543089D01*
X121483094Y-103544177D01*
X121488989Y-103546035D01*
X121489539Y-103546236D01*
X121495248Y-103548601D01*
X121497264Y-103548866D01*
X121499634Y-103549392D01*
X121502954Y-103550439D01*
X121533025Y-103559923D01*
X121533026Y-103559922D01*
X121534867Y-103560503D01*
X121534881Y-103560506D01*
X121553892Y-103566500D01*
X121553973Y-103566536D01*
X121555425Y-103566993D01*
X121555426Y-103566994D01*
X121582727Y-103575593D01*
X121582736Y-103575599D01*
X121587101Y-103576972D01*
X121587101Y-103576973D01*
X121588791Y-103577505D01*
X121591049Y-103578439D01*
X121592840Y-103579372D01*
X121598849Y-103580704D01*
X121599437Y-103580861D01*
X121605329Y-103582719D01*
X121607356Y-103582807D01*
X121609768Y-103583124D01*
X121666844Y-103595778D01*
X121666846Y-103595779D01*
X121683474Y-103599464D01*
X121685516Y-103600183D01*
X121685525Y-103600159D01*
X121686392Y-103600454D01*
X121686395Y-103600456D01*
X121686397Y-103600456D01*
X121686399Y-103600457D01*
X121702225Y-103603621D01*
X121717970Y-103607112D01*
X121717976Y-103607111D01*
X121718887Y-103607192D01*
X121718884Y-103607218D01*
X121721037Y-103607382D01*
X122705243Y-103804194D01*
X122707844Y-103804985D01*
X122709588Y-103805707D01*
X122718797Y-103806919D01*
X122719212Y-103806988D01*
X122728318Y-103808809D01*
X122730197Y-103808687D01*
X122732918Y-103808777D01*
X122745717Y-103810462D01*
X122745748Y-103810471D01*
X122747433Y-103810692D01*
X122747434Y-103810693D01*
X122764116Y-103812887D01*
X122774809Y-103814294D01*
X122776389Y-103814501D01*
X122780325Y-103815019D01*
X122782785Y-103815572D01*
X122784737Y-103816201D01*
X122791786Y-103816549D01*
X122792321Y-103816598D01*
X122799336Y-103817523D01*
X122801376Y-103817253D01*
X122803909Y-103817151D01*
X122804196Y-103817165D01*
X122804660Y-103817189D01*
X122815244Y-103817715D01*
X122837020Y-103818799D01*
X122837022Y-103818797D01*
X122838958Y-103818894D01*
X122838991Y-103818891D01*
X122891784Y-103821510D01*
X122891925Y-103821517D01*
X122901609Y-103826103D01*
X122905214Y-103836194D01*
X122900628Y-103845878D01*
X122891231Y-103849500D01*
X120554500Y-103849500D01*
X120544601Y-103845399D01*
X120540500Y-103835500D01*
X120540500Y-100624500D01*
X120544601Y-100614601D01*
X120554500Y-100610500D01*
X125380371Y-100610500D01*
X125380373Y-100610501D01*
X125415950Y-100610500D01*
X125416595Y-100610530D01*
X125569007Y-100624981D01*
X125571604Y-100625477D01*
X125717630Y-100668043D01*
X125720085Y-100669019D01*
X125855501Y-100738277D01*
X125857716Y-100739688D01*
X125926964Y-100793640D01*
X125966554Y-100824485D01*
X125969472Y-100827576D01*
X125973225Y-100833014D01*
X125979343Y-100841877D01*
X125994862Y-100850022D01*
X125997987Y-100852258D01*
X126030827Y-100883401D01*
X126156871Y-100952174D01*
X126156872Y-100952174D01*
X126156874Y-100952175D01*
X126296251Y-100986653D01*
X126296255Y-100986654D01*
X126439826Y-100984576D01*
X126578154Y-100946077D01*
X126578156Y-100946076D01*
X126578158Y-100946075D01*
X126702153Y-100873687D01*
X126702152Y-100873687D01*
X126702155Y-100873686D01*
X126803686Y-100772155D01*
X126864238Y-100668434D01*
X126876075Y-100648158D01*
X126876076Y-100648156D01*
X126876077Y-100648154D01*
X126914576Y-100509826D01*
X126916654Y-100366255D01*
X126914980Y-100359486D01*
X126882175Y-100226874D01*
X126882174Y-100226872D01*
X126882174Y-100226871D01*
X126813401Y-100100827D01*
X126774079Y-100059364D01*
X126772717Y-100057685D01*
X126767636Y-100050324D01*
X127757442Y-100050324D01*
X127757442Y-101198339D01*
X127772177Y-101272429D01*
X127828317Y-101356447D01*
X127912336Y-101412587D01*
X127986424Y-101427323D01*
X128034441Y-101427323D01*
X128034441Y-100050324D01*
X127757442Y-100050324D01*
X126767636Y-100050324D01*
X126756003Y-100033469D01*
X126756002Y-100033468D01*
X126752091Y-100031416D01*
X126747552Y-100027623D01*
X126669702Y-99927703D01*
X126668282Y-99925474D01*
X126599022Y-99790066D01*
X126598046Y-99787610D01*
X126587846Y-99752629D01*
X126555469Y-99641588D01*
X126554974Y-99639002D01*
X126540530Y-99486799D01*
X126540500Y-99486150D01*
X126540500Y-98878128D01*
X126544601Y-98868229D01*
X126554500Y-98864128D01*
X127743441Y-98864128D01*
X127753340Y-98868229D01*
G37*
%TD.AperFunction*%
%TA.AperFunction,Conductor*%
G36*
X132175399Y-98868229D02*
G01*
X132179500Y-98878128D01*
X132179500Y-99449238D01*
X132179499Y-99449252D01*
X132179499Y-99485950D01*
X132179468Y-99486611D01*
X132165018Y-99639007D01*
X132164522Y-99641604D01*
X132121956Y-99787629D01*
X132120979Y-99790086D01*
X132051726Y-99925493D01*
X132050306Y-99927722D01*
X131959293Y-100044537D01*
X131957533Y-100046412D01*
X131934279Y-100067014D01*
X131932353Y-100072093D01*
X131929422Y-100076760D01*
X131906600Y-100100825D01*
X131837825Y-100226872D01*
X131837824Y-100226874D01*
X131803346Y-100366251D01*
X131803346Y-100366254D01*
X131803346Y-100366255D01*
X131805424Y-100509826D01*
X131805424Y-100509829D01*
X131805425Y-100509830D01*
X131805425Y-100509831D01*
X131843923Y-100648156D01*
X131843924Y-100648158D01*
X131916312Y-100772153D01*
X131916317Y-100772159D01*
X132017840Y-100873682D01*
X132017846Y-100873687D01*
X132141841Y-100946075D01*
X132141843Y-100946076D01*
X132141845Y-100946076D01*
X132141846Y-100946077D01*
X132280174Y-100984576D01*
X132423745Y-100986654D01*
X132563129Y-100952174D01*
X132689173Y-100883401D01*
X132739333Y-100835831D01*
X132742225Y-100833268D01*
X132742500Y-100833039D01*
X132862299Y-100739703D01*
X132864504Y-100738298D01*
X132999926Y-100669038D01*
X133002373Y-100668064D01*
X133148401Y-100625496D01*
X133150983Y-100625002D01*
X133303625Y-100610530D01*
X133304271Y-100610500D01*
X133339627Y-100610501D01*
X133339629Y-100610500D01*
X142165500Y-100610500D01*
X142175399Y-100614601D01*
X142179500Y-100624500D01*
X142179500Y-103835500D01*
X142175399Y-103845399D01*
X142165500Y-103849500D01*
X140075015Y-103849500D01*
X140065116Y-103845399D01*
X140061015Y-103835500D01*
X140065116Y-103825601D01*
X140071877Y-103821856D01*
X141110095Y-103583150D01*
X141112616Y-103582808D01*
X141114671Y-103582719D01*
X141120560Y-103580862D01*
X141121668Y-103580513D01*
X141122194Y-103580368D01*
X141129345Y-103578725D01*
X141131157Y-103577763D01*
X141133502Y-103576780D01*
X141134463Y-103576478D01*
X141164574Y-103566994D01*
X141164575Y-103566992D01*
X141166137Y-103566501D01*
X141166215Y-103566466D01*
X141185284Y-103560453D01*
X141185296Y-103560451D01*
X141186972Y-103559922D01*
X141186975Y-103559923D01*
X141213180Y-103551658D01*
X141213193Y-103551659D01*
X141218647Y-103549936D01*
X141218648Y-103549937D01*
X141220373Y-103549392D01*
X141222759Y-103548863D01*
X141224752Y-103548601D01*
X141228633Y-103546992D01*
X141230461Y-103546236D01*
X141231013Y-103546034D01*
X141236906Y-103544177D01*
X141238605Y-103543093D01*
X141240768Y-103541966D01*
X141241194Y-103541790D01*
X141241822Y-103541531D01*
X141262647Y-103532903D01*
X141293151Y-103520268D01*
X141293184Y-103520260D01*
X141294798Y-103519590D01*
X141294799Y-103519591D01*
X141323712Y-103507610D01*
X141327151Y-103506185D01*
X141329460Y-103505458D01*
X141331442Y-103505019D01*
X141336921Y-103502165D01*
X141337449Y-103501919D01*
X141343164Y-103499554D01*
X141344771Y-103498319D01*
X141346827Y-103497011D01*
X141348429Y-103496177D01*
X141349686Y-103495523D01*
X141351647Y-103494501D01*
X141377887Y-103480844D01*
X141377887Y-103480842D01*
X141379843Y-103479825D01*
X141379852Y-103479817D01*
X141429747Y-103453844D01*
X141431995Y-103452913D01*
X141433929Y-103452304D01*
X141439132Y-103448988D01*
X141439645Y-103448692D01*
X141442396Y-103447260D01*
X141445127Y-103445840D01*
X141445128Y-103445838D01*
X141445130Y-103445838D01*
X141446631Y-103444461D01*
X141448584Y-103442966D01*
X141448906Y-103442762D01*
X141458473Y-103436668D01*
X141478091Y-103424171D01*
X141478091Y-103424169D01*
X141480119Y-103422878D01*
X141480124Y-103422872D01*
X141524907Y-103394343D01*
X141525839Y-103393751D01*
X141525838Y-103393750D01*
X141527425Y-103392742D01*
X141529576Y-103391625D01*
X141531431Y-103390857D01*
X141536335Y-103387093D01*
X141536799Y-103386767D01*
X141542025Y-103383439D01*
X141543393Y-103381945D01*
X141545190Y-103380299D01*
X141546624Y-103379199D01*
X141546625Y-103379199D01*
X141572972Y-103358984D01*
X141572972Y-103358983D01*
X141574848Y-103357544D01*
X141574857Y-103357534D01*
X141582629Y-103351571D01*
X141590219Y-103345746D01*
X141590315Y-103345690D01*
X141591618Y-103344689D01*
X141591620Y-103344689D01*
X141613782Y-103327670D01*
X141613785Y-103327669D01*
X141617960Y-103324462D01*
X141617961Y-103324463D01*
X141619367Y-103323382D01*
X141621421Y-103322074D01*
X141623207Y-103321146D01*
X141627765Y-103316967D01*
X141628214Y-103316592D01*
X141633114Y-103312834D01*
X141634348Y-103311224D01*
X141635991Y-103309431D01*
X141637325Y-103308210D01*
X141661811Y-103285775D01*
X141661811Y-103285773D01*
X141663446Y-103284276D01*
X141663456Y-103284262D01*
X141677927Y-103271003D01*
X141677996Y-103270953D01*
X141679127Y-103269915D01*
X141679129Y-103269915D01*
X141703608Y-103247473D01*
X141704908Y-103246280D01*
X141706844Y-103244793D01*
X141708557Y-103243703D01*
X141712749Y-103239126D01*
X141713137Y-103238738D01*
X141717702Y-103234557D01*
X141718786Y-103232854D01*
X141720279Y-103230910D01*
X141721573Y-103229499D01*
X141727857Y-103222644D01*
X141743915Y-103205129D01*
X141743915Y-103205127D01*
X141745068Y-103203870D01*
X141745109Y-103203810D01*
X141758262Y-103189457D01*
X141758276Y-103189446D01*
X141759773Y-103187811D01*
X141759775Y-103187811D01*
X141782210Y-103163325D01*
X141782209Y-103163324D01*
X141783430Y-103161993D01*
X141785235Y-103160340D01*
X141786834Y-103159114D01*
X141790599Y-103154205D01*
X141790971Y-103153761D01*
X141795146Y-103149207D01*
X141796079Y-103147412D01*
X141797387Y-103145360D01*
X141798462Y-103143960D01*
X141818689Y-103117620D01*
X141818689Y-103117618D01*
X141819690Y-103116315D01*
X141819746Y-103116220D01*
X141820199Y-103115629D01*
X141831535Y-103100855D01*
X141831544Y-103100848D01*
X141832983Y-103098972D01*
X141832984Y-103098972D01*
X141853199Y-103072625D01*
X141853200Y-103072625D01*
X141854308Y-103071179D01*
X141855949Y-103069389D01*
X141857439Y-103068025D01*
X141860767Y-103062799D01*
X141861093Y-103062335D01*
X141864857Y-103057431D01*
X141865629Y-103055564D01*
X141866761Y-103053392D01*
X141867752Y-103051838D01*
X141868171Y-103051179D01*
X141872690Y-103044085D01*
X141897151Y-103005688D01*
X141897154Y-103005686D01*
X141898169Y-103004091D01*
X141898171Y-103004091D01*
X141904307Y-102994457D01*
X141909154Y-102986851D01*
X141916980Y-102974563D01*
X141918470Y-102972622D01*
X141919837Y-102971131D01*
X141919841Y-102971125D01*
X141922689Y-102965653D01*
X141922993Y-102965126D01*
X141926303Y-102959931D01*
X141926304Y-102959930D01*
X141926913Y-102957995D01*
X141927841Y-102955754D01*
X141954025Y-102905455D01*
X141954034Y-102905443D01*
X141970176Y-102874432D01*
X141971008Y-102872832D01*
X141972320Y-102870770D01*
X141973554Y-102869164D01*
X141975923Y-102863443D01*
X141976163Y-102862928D01*
X141979020Y-102857442D01*
X141979458Y-102855464D01*
X141980190Y-102853139D01*
X141982427Y-102847744D01*
X141982428Y-102847742D01*
X141986844Y-102837083D01*
X141993591Y-102820799D01*
X141993590Y-102820796D01*
X141994262Y-102819176D01*
X141994271Y-102819145D01*
X142009803Y-102781647D01*
X142015967Y-102766767D01*
X142017090Y-102764611D01*
X142018177Y-102762906D01*
X142020038Y-102756999D01*
X142020225Y-102756485D01*
X142022601Y-102750752D01*
X142022865Y-102748742D01*
X142023391Y-102746367D01*
X142025717Y-102738993D01*
X142033923Y-102712975D01*
X142033922Y-102712972D01*
X142034451Y-102711296D01*
X142034453Y-102711284D01*
X142040466Y-102692215D01*
X142040501Y-102692137D01*
X142040993Y-102690574D01*
X142040994Y-102690574D01*
X142049594Y-102663270D01*
X142049600Y-102663262D01*
X142051503Y-102657213D01*
X142052443Y-102654943D01*
X142053371Y-102653161D01*
X142053372Y-102653160D01*
X142054707Y-102647138D01*
X142054861Y-102646563D01*
X142056287Y-102642040D01*
X142056719Y-102640671D01*
X142056807Y-102638640D01*
X142057123Y-102636233D01*
X142069344Y-102581106D01*
X142069353Y-102581085D01*
X142069984Y-102578237D01*
X142075175Y-102554813D01*
X142075177Y-102554810D01*
X142076968Y-102546723D01*
X142076969Y-102546724D01*
X142077361Y-102544951D01*
X142078092Y-102542633D01*
X142078866Y-102540768D01*
X142079673Y-102534634D01*
X142079771Y-102534077D01*
X142081112Y-102528030D01*
X142081023Y-102526000D01*
X142081130Y-102523565D01*
X142088532Y-102467344D01*
X142088544Y-102467300D01*
X142088768Y-102465589D01*
X142088770Y-102465588D01*
X142092412Y-102437884D01*
X142092416Y-102437877D01*
X142093334Y-102430887D01*
X142093865Y-102428493D01*
X142094469Y-102426580D01*
X142094738Y-102420413D01*
X142094789Y-102419820D01*
X142095596Y-102413697D01*
X142095331Y-102411690D01*
X142095226Y-102409248D01*
X142095258Y-102408505D01*
X142095408Y-102405083D01*
X142098371Y-102337204D01*
X142099224Y-102317672D01*
X142099303Y-102315852D01*
X142099620Y-102313440D01*
X142100059Y-102311467D01*
X142099790Y-102305294D01*
X142099790Y-102304690D01*
X142099994Y-102300016D01*
X142100059Y-102298533D01*
X142099620Y-102296559D01*
X142099303Y-102294149D01*
X142099223Y-102292328D01*
X142099224Y-102292328D01*
X142097775Y-102259150D01*
X142095369Y-102204051D01*
X142095306Y-102202587D01*
X142095225Y-102200754D01*
X142095332Y-102198304D01*
X142095596Y-102196305D01*
X142095596Y-102196304D01*
X142095251Y-102193685D01*
X142094789Y-102190182D01*
X142094738Y-102189585D01*
X142094469Y-102183422D01*
X142094469Y-102183421D01*
X142093859Y-102181487D01*
X142093332Y-102179108D01*
X142093099Y-102177338D01*
X142091380Y-102164265D01*
X142088770Y-102144412D01*
X142088768Y-102144410D01*
X142088563Y-102142844D01*
X142088550Y-102142791D01*
X142087952Y-102138250D01*
X142081129Y-102086428D01*
X142081023Y-102083993D01*
X142081112Y-102081970D01*
X142079771Y-102075924D01*
X142079673Y-102075364D01*
X142078866Y-102069232D01*
X142078091Y-102067361D01*
X142077356Y-102065033D01*
X142076968Y-102063277D01*
X142074030Y-102050021D01*
X142069425Y-102029238D01*
X142069413Y-102029203D01*
X142069174Y-102028123D01*
X142057123Y-101973767D01*
X142056807Y-101971358D01*
X142056719Y-101969329D01*
X142054861Y-101963437D01*
X142054704Y-101962849D01*
X142053372Y-101956840D01*
X142053371Y-101956838D01*
X142052437Y-101955042D01*
X142051503Y-101952787D01*
X142050458Y-101949470D01*
X142043440Y-101927191D01*
X142040994Y-101919426D01*
X142040993Y-101919425D01*
X142040536Y-101917973D01*
X142040499Y-101917889D01*
X142040362Y-101917456D01*
X142034506Y-101898881D01*
X142034503Y-101898867D01*
X142033922Y-101897026D01*
X142033923Y-101897025D01*
X142025658Y-101870819D01*
X142025658Y-101870810D01*
X142023936Y-101865352D01*
X142023937Y-101865352D01*
X142023388Y-101863614D01*
X142022863Y-101861240D01*
X142022601Y-101859248D01*
X142020238Y-101853544D01*
X142020035Y-101852989D01*
X142018177Y-101847094D01*
X142018056Y-101846905D01*
X142017092Y-101845390D01*
X142015968Y-101843232D01*
X142015532Y-101842180D01*
X142005169Y-101817163D01*
X141994286Y-101790891D01*
X141994282Y-101790871D01*
X141993590Y-101789202D01*
X141993591Y-101789201D01*
X141980879Y-101758521D01*
X141980410Y-101757389D01*
X141980195Y-101756870D01*
X141979459Y-101754541D01*
X141979020Y-101752558D01*
X141976173Y-101747088D01*
X141975915Y-101746535D01*
X141973555Y-101740839D01*
X141973554Y-101740836D01*
X141972319Y-101739226D01*
X141971011Y-101737173D01*
X141970177Y-101735570D01*
X141954572Y-101705590D01*
X141954559Y-101705568D01*
X141927841Y-101654244D01*
X141926912Y-101651999D01*
X141926304Y-101650070D01*
X141926302Y-101650068D01*
X141926302Y-101650066D01*
X141922993Y-101644873D01*
X141922687Y-101644343D01*
X141919839Y-101638871D01*
X141919836Y-101638867D01*
X141918469Y-101637376D01*
X141916984Y-101635442D01*
X141904998Y-101616627D01*
X141898171Y-101605909D01*
X141898169Y-101605907D01*
X141868084Y-101558684D01*
X141867751Y-101558161D01*
X141866753Y-101556595D01*
X141865633Y-101554443D01*
X141864857Y-101552569D01*
X141864854Y-101552566D01*
X141864854Y-101552564D01*
X141864853Y-101552562D01*
X141861102Y-101547676D01*
X141860751Y-101547174D01*
X141857443Y-101541981D01*
X141857438Y-101541974D01*
X141857221Y-101541775D01*
X141855945Y-101540605D01*
X141854296Y-101538805D01*
X141853198Y-101537373D01*
X141832026Y-101509778D01*
X141832008Y-101509759D01*
X141820329Y-101494539D01*
X141819731Y-101493759D01*
X141819676Y-101493666D01*
X141818689Y-101492380D01*
X141801671Y-101470219D01*
X141801671Y-101470217D01*
X141798462Y-101466039D01*
X141798463Y-101466039D01*
X141797383Y-101464632D01*
X141796076Y-101462580D01*
X141795146Y-101460793D01*
X141790976Y-101456242D01*
X141790594Y-101455786D01*
X141786833Y-101450885D01*
X141786427Y-101450574D01*
X141785225Y-101449651D01*
X141783430Y-101448006D01*
X141782210Y-101446675D01*
X141761129Y-101423667D01*
X141758717Y-101421034D01*
X141758703Y-101421022D01*
X141745084Y-101406160D01*
X141745040Y-101406099D01*
X141743915Y-101404872D01*
X141743915Y-101404871D01*
X141721473Y-101380392D01*
X141720467Y-101379295D01*
X141720279Y-101379090D01*
X141718787Y-101377147D01*
X141718255Y-101376311D01*
X141717702Y-101375442D01*
X141715223Y-101373172D01*
X141713147Y-101371269D01*
X141712737Y-101370859D01*
X141708557Y-101366297D01*
X141706846Y-101365207D01*
X141704903Y-101363715D01*
X141703607Y-101362526D01*
X141678110Y-101339151D01*
X141678044Y-101339102D01*
X141670403Y-101332101D01*
X141663331Y-101325621D01*
X141663326Y-101325614D01*
X141661811Y-101324226D01*
X141661811Y-101324225D01*
X141637325Y-101301790D01*
X141637324Y-101301790D01*
X141637324Y-101301789D01*
X141635992Y-101300568D01*
X141634345Y-101298770D01*
X141633113Y-101297165D01*
X141628210Y-101293403D01*
X141627741Y-101293009D01*
X141623209Y-101288855D01*
X141623203Y-101288851D01*
X141621411Y-101287918D01*
X141619360Y-101286611D01*
X141618343Y-101285832D01*
X141617960Y-101285538D01*
X141591620Y-101265311D01*
X141591619Y-101265310D01*
X141590414Y-101264385D01*
X141590314Y-101264325D01*
X141574636Y-101252295D01*
X141574628Y-101252286D01*
X141549215Y-101232788D01*
X141549213Y-101232785D01*
X141549213Y-101232786D01*
X141545183Y-101229693D01*
X141543385Y-101228045D01*
X141542030Y-101226566D01*
X141542028Y-101226564D01*
X141542025Y-101226561D01*
X141536819Y-101223244D01*
X141536320Y-101222894D01*
X141535128Y-101221980D01*
X141531431Y-101219143D01*
X141531428Y-101219142D01*
X141531426Y-101219140D01*
X141529554Y-101218364D01*
X141527403Y-101217245D01*
X141526458Y-101216644D01*
X141525839Y-101216249D01*
X141524611Y-101215467D01*
X141497726Y-101198339D01*
X141479697Y-101186853D01*
X141479694Y-101186850D01*
X141479694Y-101186851D01*
X141478091Y-101185830D01*
X141478091Y-101185829D01*
X141454980Y-101171107D01*
X141448906Y-101167237D01*
X141448558Y-101167015D01*
X141448538Y-101167002D01*
X141446628Y-101165534D01*
X141445133Y-101164165D01*
X141445130Y-101164162D01*
X141445126Y-101164160D01*
X141445125Y-101164159D01*
X141439653Y-101161310D01*
X141439126Y-101161006D01*
X141433934Y-101157698D01*
X141433927Y-101157695D01*
X141431996Y-101157086D01*
X141429746Y-101156153D01*
X141379463Y-101129978D01*
X141379447Y-101129967D01*
X141348429Y-101113822D01*
X141346826Y-101112988D01*
X141344769Y-101111677D01*
X141343169Y-101110449D01*
X141343160Y-101110444D01*
X141337462Y-101108084D01*
X141336909Y-101107827D01*
X141336506Y-101107617D01*
X141331442Y-101104981D01*
X141331440Y-101104980D01*
X141331439Y-101104980D01*
X141330162Y-101104697D01*
X141329466Y-101104542D01*
X141327149Y-101103812D01*
X141325368Y-101103074D01*
X141323711Y-101102388D01*
X141293537Y-101089886D01*
X141293506Y-101089876D01*
X141274595Y-101082043D01*
X141274509Y-101081996D01*
X141248038Y-101071042D01*
X141248028Y-101071032D01*
X141236228Y-101066150D01*
X141236121Y-101066108D01*
X141224748Y-101061397D01*
X141224312Y-101061280D01*
X141223497Y-101061006D01*
X141223090Y-101060840D01*
X141211021Y-101057695D01*
X141210997Y-101057688D01*
X141207804Y-101056857D01*
X140041202Y-100752778D01*
X140039296Y-100752282D01*
X140038965Y-100752195D01*
X140024830Y-100748511D01*
X140023920Y-100748206D01*
X140023427Y-100748002D01*
X140023423Y-100748001D01*
X140022736Y-100747910D01*
X140021898Y-100747747D01*
X140021248Y-100747578D01*
X140021241Y-100747577D01*
X140020724Y-100747580D01*
X140019773Y-100747520D01*
X140004370Y-100745493D01*
X139987166Y-100743224D01*
X139987123Y-100743214D01*
X139985558Y-100743008D01*
X139974753Y-100741588D01*
X139970687Y-100741052D01*
X139970676Y-100741052D01*
X139958528Y-100739456D01*
X139958515Y-100739449D01*
X139952631Y-100738675D01*
X139952632Y-100738675D01*
X139951434Y-100738517D01*
X139944178Y-100737563D01*
X139943986Y-100737542D01*
X139933680Y-100736186D01*
X139933676Y-100736186D01*
X139932033Y-100736401D01*
X139929217Y-100736483D01*
X139927231Y-100736341D01*
X139927226Y-100736341D01*
X139925306Y-100736314D01*
X139922497Y-100735988D01*
X139920899Y-100735636D01*
X139920894Y-100735636D01*
X139910577Y-100736097D01*
X139910472Y-100736059D01*
X139910360Y-100736106D01*
X139910312Y-100736108D01*
X139910203Y-100736111D01*
X139901796Y-100736490D01*
X139026507Y-100775663D01*
X139026316Y-100775683D01*
X139002088Y-100776784D01*
X138919346Y-100806535D01*
X138849111Y-100859442D01*
X138849109Y-100859444D01*
X138834920Y-100879093D01*
X138834793Y-100879249D01*
X138814063Y-100907995D01*
X138804277Y-100921568D01*
X138777507Y-100958689D01*
X138768391Y-100964320D01*
X138766152Y-100964500D01*
X138349103Y-100964500D01*
X138319787Y-100970331D01*
X138286543Y-100992543D01*
X138264330Y-101025788D01*
X138258500Y-101055101D01*
X138258500Y-101854896D01*
X138260641Y-101865659D01*
X138264331Y-101884213D01*
X138286543Y-101917457D01*
X138319787Y-101939669D01*
X138349101Y-101945500D01*
X138813183Y-101945499D01*
X138823082Y-101949599D01*
X138824823Y-101951721D01*
X138875874Y-102028122D01*
X138959895Y-102084263D01*
X139033983Y-102098999D01*
X139172000Y-102098999D01*
X139172000Y-101342000D01*
X139176101Y-101332101D01*
X139186000Y-101328000D01*
X139412000Y-101328000D01*
X139421899Y-101332101D01*
X139426000Y-101342000D01*
X139426000Y-102098999D01*
X139564016Y-102098999D01*
X139638106Y-102084262D01*
X139639917Y-102083053D01*
X139650426Y-102080962D01*
X139659336Y-102086914D01*
X139661629Y-102096065D01*
X139656388Y-102149280D01*
X139642120Y-102294149D01*
X139642039Y-102294970D01*
X139641547Y-102304999D01*
X139642133Y-102307949D01*
X139642334Y-102312044D01*
X139642041Y-102315030D01*
X139642040Y-102315044D01*
X139652390Y-102420129D01*
X139661927Y-102516961D01*
X139665845Y-102536656D01*
X139665847Y-102536666D01*
X139724742Y-102730817D01*
X139724747Y-102730830D01*
X139732419Y-102749352D01*
X139732434Y-102749385D01*
X139782399Y-102842865D01*
X139784008Y-102850570D01*
X139766060Y-103077057D01*
X139761191Y-103086602D01*
X139756893Y-103089107D01*
X139736977Y-103096356D01*
X139695001Y-103131577D01*
X139684781Y-103134799D01*
X139681398Y-103134073D01*
X139648895Y-103122756D01*
X139640895Y-103115629D01*
X139639499Y-103109535D01*
X139639499Y-102755103D01*
X139638634Y-102750752D01*
X139633669Y-102725787D01*
X139611457Y-102692543D01*
X139578213Y-102670331D01*
X139578212Y-102670330D01*
X139578211Y-102670330D01*
X139556176Y-102665947D01*
X139548899Y-102664500D01*
X139548898Y-102664500D01*
X139049103Y-102664500D01*
X139019787Y-102670331D01*
X138986543Y-102692543D01*
X138964330Y-102725787D01*
X138962730Y-102733832D01*
X138956776Y-102742741D01*
X138946267Y-102744831D01*
X138937358Y-102738877D01*
X138935269Y-102733832D01*
X138933669Y-102725787D01*
X138911457Y-102692543D01*
X138878213Y-102670331D01*
X138878212Y-102670330D01*
X138878211Y-102670330D01*
X138856176Y-102665947D01*
X138848899Y-102664500D01*
X138848898Y-102664500D01*
X138349103Y-102664500D01*
X138319787Y-102670331D01*
X138286543Y-102692543D01*
X138264330Y-102725788D01*
X138258500Y-102755101D01*
X138258500Y-102958178D01*
X138254399Y-102968077D01*
X138244500Y-102972178D01*
X138243067Y-102972104D01*
X137743999Y-102920749D01*
X137734571Y-102915657D01*
X137731506Y-102905390D01*
X137731701Y-102904092D01*
X137738666Y-102869079D01*
X137738666Y-102844063D01*
X136999117Y-102844063D01*
X136998404Y-102844026D01*
X130915185Y-102218048D01*
X135997088Y-102218048D01*
X136015489Y-102322408D01*
X136068473Y-102414181D01*
X136068475Y-102414183D01*
X136068476Y-102414184D01*
X136149656Y-102482302D01*
X136249238Y-102518546D01*
X136249239Y-102518546D01*
X136355209Y-102518546D01*
X136355210Y-102518546D01*
X136454792Y-102482302D01*
X136535972Y-102414184D01*
X136549505Y-102390743D01*
X136558004Y-102384222D01*
X136568628Y-102385620D01*
X136572350Y-102388743D01*
X136572546Y-102388976D01*
X136572547Y-102388977D01*
X136572549Y-102388980D01*
X136653729Y-102457098D01*
X136753311Y-102493342D01*
X136753312Y-102493342D01*
X136859282Y-102493342D01*
X136859283Y-102493342D01*
X136902787Y-102477508D01*
X136913491Y-102477976D01*
X136920730Y-102485876D01*
X136920262Y-102496581D01*
X136919215Y-102498442D01*
X136915402Y-102504147D01*
X136900666Y-102578236D01*
X136900666Y-102603253D01*
X137738665Y-102603253D01*
X137738665Y-102578237D01*
X137723929Y-102504147D01*
X137667789Y-102420129D01*
X137583772Y-102363990D01*
X137579818Y-102363203D01*
X137570909Y-102357248D01*
X137568820Y-102346739D01*
X137570911Y-102341694D01*
X137579334Y-102329087D01*
X137579335Y-102329086D01*
X137585166Y-102299772D01*
X137585165Y-102039165D01*
X137579335Y-102009850D01*
X137557123Y-101976606D01*
X137523879Y-101954394D01*
X137523878Y-101954393D01*
X137523877Y-101954393D01*
X137499773Y-101949599D01*
X137494565Y-101948563D01*
X137494564Y-101948563D01*
X137144769Y-101948563D01*
X137115453Y-101954394D01*
X137082209Y-101976606D01*
X137065873Y-102001055D01*
X137056963Y-102007008D01*
X137046454Y-102004918D01*
X137042107Y-102000276D01*
X137040046Y-101996705D01*
X137012719Y-101973775D01*
X136958865Y-101928586D01*
X136900930Y-101907500D01*
X136859284Y-101892342D01*
X136859283Y-101892342D01*
X136753311Y-101892342D01*
X136753309Y-101892342D01*
X136653729Y-101928586D01*
X136572546Y-101996706D01*
X136559016Y-102020142D01*
X136550515Y-102026665D01*
X136539892Y-102025266D01*
X136536169Y-102022143D01*
X136535973Y-102021910D01*
X136535972Y-102021908D01*
X136454792Y-101953790D01*
X136395959Y-101932377D01*
X136355211Y-101917546D01*
X136355210Y-101917546D01*
X136249238Y-101917546D01*
X136249236Y-101917546D01*
X136149656Y-101953790D01*
X136068473Y-102021910D01*
X136015489Y-102113683D01*
X135997088Y-102218043D01*
X135997088Y-102218048D01*
X130915185Y-102218048D01*
X130004410Y-102124327D01*
X129994983Y-102119236D01*
X129991918Y-102108969D01*
X129997010Y-102099541D01*
X129999981Y-102097688D01*
X130338128Y-101941846D01*
X130338178Y-101941831D01*
X130339772Y-101941095D01*
X130339773Y-101941096D01*
X130364776Y-101929566D01*
X130364789Y-101929566D01*
X130369932Y-101927194D01*
X130369933Y-101927195D01*
X130379727Y-101922679D01*
X130379737Y-101922672D01*
X130379813Y-101922638D01*
X130379893Y-101922598D01*
X130387305Y-101919184D01*
X130388847Y-101917901D01*
X130391001Y-101916426D01*
X130398591Y-101912219D01*
X130405788Y-101907498D01*
X130408105Y-101906273D01*
X130409963Y-101905504D01*
X130438854Y-101883333D01*
X130438914Y-101883299D01*
X130440268Y-101882259D01*
X130440270Y-101882259D01*
X130461893Y-101865658D01*
X130461915Y-101865652D01*
X130466616Y-101862042D01*
X130466617Y-101862043D01*
X130475924Y-101854898D01*
X130476690Y-101854310D01*
X130476889Y-101854149D01*
X130477237Y-101853882D01*
X130481780Y-101850397D01*
X130481990Y-101850124D01*
X130482988Y-101848822D01*
X130484639Y-101847019D01*
X130486417Y-101845390D01*
X130488771Y-101843232D01*
X130495371Y-101837183D01*
X130503458Y-101828352D01*
X130505155Y-101826499D01*
X130506951Y-101824854D01*
X130508546Y-101823631D01*
X130512392Y-101818617D01*
X130512472Y-101818519D01*
X130518196Y-101811055D01*
X130519527Y-101809320D01*
X130530763Y-101794674D01*
X130530819Y-101794618D01*
X130531802Y-101793335D01*
X130531804Y-101793335D01*
X130548505Y-101771555D01*
X130548527Y-101771543D01*
X130552020Y-101766987D01*
X130552021Y-101766988D01*
X130559740Y-101756924D01*
X130559750Y-101756907D01*
X130559900Y-101756702D01*
X130563652Y-101751814D01*
X130564408Y-101749986D01*
X130565527Y-101747832D01*
X130573365Y-101735525D01*
X130573367Y-101735523D01*
X130575970Y-101730517D01*
X130580045Y-101722680D01*
X130581357Y-101720624D01*
X130582577Y-101719035D01*
X130582576Y-101719035D01*
X130582578Y-101719034D01*
X130584981Y-101713230D01*
X130585047Y-101713081D01*
X130585069Y-101713025D01*
X130585073Y-101713020D01*
X130589410Y-101702540D01*
X130596463Y-101685511D01*
X130596469Y-101685502D01*
X130597184Y-101683773D01*
X130597186Y-101683773D01*
X130602652Y-101670574D01*
X130608256Y-101657044D01*
X130617218Y-101635407D01*
X130617218Y-101635405D01*
X130617217Y-101635405D01*
X130617219Y-101635403D01*
X130617483Y-101633389D01*
X130618008Y-101631015D01*
X130622368Y-101617192D01*
X130625504Y-101603041D01*
X130626240Y-101600712D01*
X130626562Y-101599933D01*
X130627016Y-101598839D01*
X130629514Y-101579866D01*
X130633853Y-101546941D01*
X130633851Y-101546937D01*
X130634069Y-101545290D01*
X130634069Y-101545252D01*
X130634336Y-101543229D01*
X130635026Y-101540525D01*
X130635139Y-101540060D01*
X130635138Y-101540060D01*
X130635140Y-101540058D01*
X130636795Y-101524550D01*
X130638831Y-101509091D01*
X130638831Y-101508665D01*
X130638795Y-101505819D01*
X130656492Y-101340079D01*
X130662231Y-101286337D01*
X130667360Y-101276928D01*
X130676152Y-101273823D01*
X130821338Y-101273823D01*
X130821339Y-101273823D01*
X130850654Y-101267993D01*
X130883898Y-101245781D01*
X130906110Y-101212537D01*
X130911941Y-101183223D01*
X130911940Y-98878127D01*
X130916041Y-98868229D01*
X130925940Y-98864128D01*
X132165500Y-98864128D01*
X132175399Y-98868229D01*
G37*
%TD.AperFunction*%
%TA.AperFunction,Conductor*%
G36*
X123543899Y-101069601D02*
G01*
X123548000Y-101079500D01*
X123548000Y-102098999D01*
X123686016Y-102098999D01*
X123760105Y-102084263D01*
X123844124Y-102028123D01*
X123895174Y-101951721D01*
X123904084Y-101945768D01*
X123906805Y-101945499D01*
X124370898Y-101945499D01*
X124400213Y-101939669D01*
X124433457Y-101917457D01*
X124455669Y-101884213D01*
X124461500Y-101854899D01*
X124461499Y-101652884D01*
X124465599Y-101642986D01*
X124475499Y-101638885D01*
X124476960Y-101638962D01*
X125796297Y-101778512D01*
X125805710Y-101783631D01*
X125808746Y-101793907D01*
X125803823Y-101803159D01*
X125743370Y-101853885D01*
X125721621Y-101891556D01*
X125713120Y-101898079D01*
X125702497Y-101896680D01*
X125697857Y-101892335D01*
X125683283Y-101870522D01*
X125650039Y-101848310D01*
X125650038Y-101848309D01*
X125650037Y-101848309D01*
X125628002Y-101843926D01*
X125620725Y-101842479D01*
X125620724Y-101842479D01*
X125270929Y-101842479D01*
X125241613Y-101848310D01*
X125208369Y-101870522D01*
X125186156Y-101903767D01*
X125180326Y-101933080D01*
X125180326Y-102193685D01*
X125182876Y-102206506D01*
X125186157Y-102223002D01*
X125192493Y-102232485D01*
X125194581Y-102235610D01*
X125196671Y-102246120D01*
X125190718Y-102255029D01*
X125185674Y-102257119D01*
X125181718Y-102257906D01*
X125097702Y-102314045D01*
X125041562Y-102398064D01*
X125026826Y-102472152D01*
X125026826Y-102497169D01*
X125864825Y-102497169D01*
X125864825Y-102472153D01*
X125850089Y-102398063D01*
X125808082Y-102335195D01*
X125805992Y-102324686D01*
X125811945Y-102315776D01*
X125822454Y-102313686D01*
X125824511Y-102314261D01*
X125824551Y-102314275D01*
X125824553Y-102314277D01*
X125924135Y-102350521D01*
X125924136Y-102350521D01*
X126030106Y-102350521D01*
X126030107Y-102350521D01*
X126129689Y-102314277D01*
X126210869Y-102246159D01*
X126214997Y-102239007D01*
X126223496Y-102232485D01*
X126234120Y-102233883D01*
X126239245Y-102239008D01*
X126243371Y-102246156D01*
X126243373Y-102246158D01*
X126243374Y-102246159D01*
X126324554Y-102314277D01*
X126424136Y-102350521D01*
X126424137Y-102350521D01*
X126530107Y-102350521D01*
X126530108Y-102350521D01*
X126629690Y-102314277D01*
X126710870Y-102246159D01*
X126716961Y-102235610D01*
X126728230Y-102216091D01*
X126763856Y-102154384D01*
X126774139Y-102096065D01*
X126782258Y-102050023D01*
X126782258Y-102050018D01*
X126765911Y-101957309D01*
X126768230Y-101946848D01*
X126777267Y-101941091D01*
X126784083Y-101941582D01*
X127328521Y-102121256D01*
X127328526Y-102121259D01*
X127343454Y-102126185D01*
X127362272Y-102132395D01*
X127375909Y-102136897D01*
X127375917Y-102136899D01*
X127375996Y-102136925D01*
X127376013Y-102136930D01*
X127379808Y-102138183D01*
X127380163Y-102138250D01*
X127382450Y-102138609D01*
X127397422Y-102142531D01*
X127405030Y-102144524D01*
X127419486Y-102147356D01*
X127427930Y-102149011D01*
X127430160Y-102149684D01*
X127430497Y-102149775D01*
X127434467Y-102150296D01*
X127434520Y-102150306D01*
X127447246Y-102151980D01*
X127449487Y-102152275D01*
X127488686Y-102157436D01*
X127488698Y-102157436D01*
X127492686Y-102157961D01*
X127494837Y-102158505D01*
X127494838Y-102158504D01*
X127495721Y-102158713D01*
X127495728Y-102158716D01*
X127508028Y-102159981D01*
X127520245Y-102161590D01*
X127521166Y-102161590D01*
X127521166Y-102161593D01*
X127523368Y-102161561D01*
X127547794Y-102164079D01*
X127547794Y-102164078D01*
X127549621Y-102164267D01*
X127549663Y-102164265D01*
X138245934Y-103264937D01*
X138255361Y-103270028D01*
X138258500Y-103278862D01*
X138258500Y-103526186D01*
X138254399Y-103536085D01*
X138244500Y-103540186D01*
X138243974Y-103540176D01*
X124474973Y-103022699D01*
X124465235Y-103018230D01*
X124461499Y-103008709D01*
X124461499Y-102755103D01*
X124460634Y-102750752D01*
X124458094Y-102737979D01*
X125026827Y-102737979D01*
X125026827Y-102762994D01*
X125041562Y-102837084D01*
X125097702Y-102921102D01*
X125181721Y-102977242D01*
X125255809Y-102991978D01*
X125325421Y-102991978D01*
X125566230Y-102991978D01*
X125635842Y-102991978D01*
X125709931Y-102977242D01*
X125793949Y-102921102D01*
X125850089Y-102837083D01*
X125864826Y-102762995D01*
X125864826Y-102737979D01*
X125566231Y-102737979D01*
X125566230Y-102991978D01*
X125325421Y-102991978D01*
X125325421Y-102737979D01*
X125026827Y-102737979D01*
X124458094Y-102737979D01*
X124455669Y-102725787D01*
X124433457Y-102692543D01*
X124400213Y-102670331D01*
X124400212Y-102670330D01*
X124400211Y-102670330D01*
X124370899Y-102664500D01*
X123906816Y-102664500D01*
X123896917Y-102660399D01*
X123895176Y-102658278D01*
X123844125Y-102581876D01*
X123760104Y-102525736D01*
X123686017Y-102511000D01*
X123548000Y-102511000D01*
X123548000Y-103268000D01*
X123543899Y-103277899D01*
X123534000Y-103282000D01*
X123308000Y-103282000D01*
X123298101Y-103277899D01*
X123294000Y-103268000D01*
X123293999Y-102511000D01*
X123155984Y-102511000D01*
X123081893Y-102525737D01*
X123081892Y-102525737D01*
X123080079Y-102526949D01*
X123069569Y-102529037D01*
X123060661Y-102523083D01*
X123058370Y-102513937D01*
X123077960Y-102315044D01*
X123077999Y-102314261D01*
X123078453Y-102304996D01*
X123077867Y-102302053D01*
X123077665Y-102297945D01*
X123077960Y-102294956D01*
X123058370Y-102096062D01*
X123061481Y-102085811D01*
X123070931Y-102080759D01*
X123080082Y-102083052D01*
X123081894Y-102084263D01*
X123155983Y-102098999D01*
X123293999Y-102098999D01*
X123294000Y-101582000D01*
X123294000Y-101079500D01*
X123298101Y-101069601D01*
X123308000Y-101065500D01*
X123534000Y-101065500D01*
X123543899Y-101069601D01*
G37*
%TD.AperFunction*%
%TD*%
M02*
