%TF.GenerationSoftware,KiCad,Pcbnew,7.0.7*%
%TF.CreationDate,2023-11-20T12:17:49-08:00*%
%TF.ProjectId,beeper-flex,62656570-6572-42d6-966c-65782e6b6963,rev?*%
%TF.SameCoordinates,Original*%
%TF.FileFunction,Legend,Top*%
%TF.FilePolarity,Positive*%
%FSLAX46Y46*%
G04 Gerber Fmt 4.6, Leading zero omitted, Abs format (unit mm)*
G04 Created by KiCad (PCBNEW 7.0.7) date 2023-11-20 12:17:49*
%MOMM*%
%LPD*%
G01*
G04 APERTURE LIST*
G04 Aperture macros list*
%AMRoundRect*
0 Rectangle with rounded corners*
0 $1 Rounding radius*
0 $2 $3 $4 $5 $6 $7 $8 $9 X,Y pos of 4 corners*
0 Add a 4 corners polygon primitive as box body*
4,1,4,$2,$3,$4,$5,$6,$7,$8,$9,$2,$3,0*
0 Add four circle primitives for the rounded corners*
1,1,$1+$1,$2,$3*
1,1,$1+$1,$4,$5*
1,1,$1+$1,$6,$7*
1,1,$1+$1,$8,$9*
0 Add four rect primitives between the rounded corners*
20,1,$1+$1,$2,$3,$4,$5,0*
20,1,$1+$1,$4,$5,$6,$7,0*
20,1,$1+$1,$6,$7,$8,$9,0*
20,1,$1+$1,$8,$9,$2,$3,0*%
G04 Aperture macros list end*
%ADD10C,0.100000*%
%ADD11C,0.200000*%
%ADD12C,0.450000*%
%ADD13RoundRect,0.051000X-0.165000X-0.120405X0.165000X-0.120405X0.165000X0.120405X-0.165000X0.120405X0*%
%ADD14RoundRect,0.051000X0.240000X0.390000X-0.240000X0.390000X-0.240000X-0.390000X0.240000X-0.390000X0*%
%ADD15RoundRect,0.051000X-0.150000X-1.250000X0.150000X-1.250000X0.150000X1.250000X-0.150000X1.250000X0*%
%ADD16RoundRect,0.051000X-0.240000X-0.390000X0.240000X-0.390000X0.240000X0.390000X-0.240000X0.390000X0*%
G04 APERTURE END LIST*
D10*
X126386667Y-102888704D02*
X126348571Y-102926800D01*
X126348571Y-102926800D02*
X126234286Y-102964895D01*
X126234286Y-102964895D02*
X126158095Y-102964895D01*
X126158095Y-102964895D02*
X126043809Y-102926800D01*
X126043809Y-102926800D02*
X125967619Y-102850609D01*
X125967619Y-102850609D02*
X125929524Y-102774419D01*
X125929524Y-102774419D02*
X125891428Y-102622038D01*
X125891428Y-102622038D02*
X125891428Y-102507752D01*
X125891428Y-102507752D02*
X125929524Y-102355371D01*
X125929524Y-102355371D02*
X125967619Y-102279180D01*
X125967619Y-102279180D02*
X126043809Y-102202990D01*
X126043809Y-102202990D02*
X126158095Y-102164895D01*
X126158095Y-102164895D02*
X126234286Y-102164895D01*
X126234286Y-102164895D02*
X126348571Y-102202990D01*
X126348571Y-102202990D02*
X126386667Y-102241085D01*
X127110476Y-102164895D02*
X126729524Y-102164895D01*
X126729524Y-102164895D02*
X126691428Y-102545847D01*
X126691428Y-102545847D02*
X126729524Y-102507752D01*
X126729524Y-102507752D02*
X126805714Y-102469657D01*
X126805714Y-102469657D02*
X126996190Y-102469657D01*
X126996190Y-102469657D02*
X127072381Y-102507752D01*
X127072381Y-102507752D02*
X127110476Y-102545847D01*
X127110476Y-102545847D02*
X127148571Y-102622038D01*
X127148571Y-102622038D02*
X127148571Y-102812514D01*
X127148571Y-102812514D02*
X127110476Y-102888704D01*
X127110476Y-102888704D02*
X127072381Y-102926800D01*
X127072381Y-102926800D02*
X126996190Y-102964895D01*
X126996190Y-102964895D02*
X126805714Y-102964895D01*
X126805714Y-102964895D02*
X126729524Y-102926800D01*
X126729524Y-102926800D02*
X126691428Y-102888704D01*
X124864687Y-103054895D02*
X124864687Y-103702514D01*
X124864687Y-103702514D02*
X124902782Y-103778704D01*
X124902782Y-103778704D02*
X124940877Y-103816800D01*
X124940877Y-103816800D02*
X125017068Y-103854895D01*
X125017068Y-103854895D02*
X125169449Y-103854895D01*
X125169449Y-103854895D02*
X125245639Y-103816800D01*
X125245639Y-103816800D02*
X125283734Y-103778704D01*
X125283734Y-103778704D02*
X125321830Y-103702514D01*
X125321830Y-103702514D02*
X125321830Y-103054895D01*
X126045639Y-103321561D02*
X126045639Y-103854895D01*
X125855163Y-103016800D02*
X125664686Y-103588228D01*
X125664686Y-103588228D02*
X126159925Y-103588228D01*
X136336667Y-103568704D02*
X136298571Y-103606800D01*
X136298571Y-103606800D02*
X136184286Y-103644895D01*
X136184286Y-103644895D02*
X136108095Y-103644895D01*
X136108095Y-103644895D02*
X135993809Y-103606800D01*
X135993809Y-103606800D02*
X135917619Y-103530609D01*
X135917619Y-103530609D02*
X135879524Y-103454419D01*
X135879524Y-103454419D02*
X135841428Y-103302038D01*
X135841428Y-103302038D02*
X135841428Y-103187752D01*
X135841428Y-103187752D02*
X135879524Y-103035371D01*
X135879524Y-103035371D02*
X135917619Y-102959180D01*
X135917619Y-102959180D02*
X135993809Y-102882990D01*
X135993809Y-102882990D02*
X136108095Y-102844895D01*
X136108095Y-102844895D02*
X136184286Y-102844895D01*
X136184286Y-102844895D02*
X136298571Y-102882990D01*
X136298571Y-102882990D02*
X136336667Y-102921085D01*
X137022381Y-103111561D02*
X137022381Y-103644895D01*
X136831905Y-102806800D02*
X136641428Y-103378228D01*
X136641428Y-103378228D02*
X137136667Y-103378228D01*
X127667706Y-101488219D02*
X127667706Y-102135838D01*
X127667706Y-102135838D02*
X127705801Y-102212028D01*
X127705801Y-102212028D02*
X127743896Y-102250124D01*
X127743896Y-102250124D02*
X127820087Y-102288219D01*
X127820087Y-102288219D02*
X127972468Y-102288219D01*
X127972468Y-102288219D02*
X128048658Y-102250124D01*
X128048658Y-102250124D02*
X128086753Y-102212028D01*
X128086753Y-102212028D02*
X128124849Y-102135838D01*
X128124849Y-102135838D02*
X128124849Y-101488219D01*
X128848658Y-101488219D02*
X128696277Y-101488219D01*
X128696277Y-101488219D02*
X128620086Y-101526314D01*
X128620086Y-101526314D02*
X128581991Y-101564409D01*
X128581991Y-101564409D02*
X128505801Y-101678695D01*
X128505801Y-101678695D02*
X128467705Y-101831076D01*
X128467705Y-101831076D02*
X128467705Y-102135838D01*
X128467705Y-102135838D02*
X128505801Y-102212028D01*
X128505801Y-102212028D02*
X128543896Y-102250124D01*
X128543896Y-102250124D02*
X128620086Y-102288219D01*
X128620086Y-102288219D02*
X128772467Y-102288219D01*
X128772467Y-102288219D02*
X128848658Y-102250124D01*
X128848658Y-102250124D02*
X128886753Y-102212028D01*
X128886753Y-102212028D02*
X128924848Y-102135838D01*
X128924848Y-102135838D02*
X128924848Y-101945362D01*
X128924848Y-101945362D02*
X128886753Y-101869171D01*
X128886753Y-101869171D02*
X128848658Y-101831076D01*
X128848658Y-101831076D02*
X128772467Y-101792981D01*
X128772467Y-101792981D02*
X128620086Y-101792981D01*
X128620086Y-101792981D02*
X128543896Y-101831076D01*
X128543896Y-101831076D02*
X128505801Y-101869171D01*
X128505801Y-101869171D02*
X128467705Y-101945362D01*
X136606265Y-100944895D02*
X136606265Y-101592514D01*
X136606265Y-101592514D02*
X136644360Y-101668704D01*
X136644360Y-101668704D02*
X136682455Y-101706800D01*
X136682455Y-101706800D02*
X136758646Y-101744895D01*
X136758646Y-101744895D02*
X136911027Y-101744895D01*
X136911027Y-101744895D02*
X136987217Y-101706800D01*
X136987217Y-101706800D02*
X137025312Y-101668704D01*
X137025312Y-101668704D02*
X137063408Y-101592514D01*
X137063408Y-101592514D02*
X137063408Y-100944895D01*
X137368169Y-100944895D02*
X137863407Y-100944895D01*
X137863407Y-100944895D02*
X137596741Y-101249657D01*
X137596741Y-101249657D02*
X137711026Y-101249657D01*
X137711026Y-101249657D02*
X137787217Y-101287752D01*
X137787217Y-101287752D02*
X137825312Y-101325847D01*
X137825312Y-101325847D02*
X137863407Y-101402038D01*
X137863407Y-101402038D02*
X137863407Y-101592514D01*
X137863407Y-101592514D02*
X137825312Y-101668704D01*
X137825312Y-101668704D02*
X137787217Y-101706800D01*
X137787217Y-101706800D02*
X137711026Y-101744895D01*
X137711026Y-101744895D02*
X137482455Y-101744895D01*
X137482455Y-101744895D02*
X137406264Y-101706800D01*
X137406264Y-101706800D02*
X137368169Y-101668704D01*
D11*
%TO.C,U4*%
X124621000Y-100805000D02*
X120621000Y-100805000D01*
X120621000Y-100805000D02*
X120621000Y-103805000D01*
X120621000Y-103805000D02*
X124621000Y-103805000D01*
X124621000Y-103805000D02*
X124621000Y-100805000D01*
D10*
%TO.C,U6*%
X130661441Y-101323324D02*
X130161441Y-101823324D01*
X130161441Y-101823324D02*
X131161441Y-101823324D01*
X131161441Y-101823324D02*
X130661441Y-101323324D01*
D11*
%TO.C,U3*%
X138099000Y-103805000D02*
X142099000Y-103805000D01*
X142099000Y-103805000D02*
X142099000Y-100805000D01*
X142099000Y-100805000D02*
X138099000Y-100805000D01*
X138099000Y-100805000D02*
X138099000Y-103805000D01*
%TD*%
%LPC*%
D12*
X122746000Y-102305000D02*
G75*
G03*
X122746000Y-102305000I-805000J0D01*
G01*
X141584000Y-102305000D02*
G75*
G03*
X141584000Y-102305000I-805000J0D01*
G01*
D13*
%TO.C,C5*%
X125445826Y-102063384D03*
X125445826Y-102617574D03*
%TD*%
D14*
%TO.C,U4*%
X124121000Y-103155000D03*
X123421000Y-103155000D03*
X124121000Y-101455000D03*
X123421000Y-101455000D03*
%TD*%
D13*
%TO.C,C4*%
X137319666Y-102169468D03*
X137319666Y-102723658D03*
%TD*%
D15*
%TO.C,U6*%
X130661441Y-99923324D03*
X130161441Y-99923324D03*
X129661441Y-99923324D03*
X129161441Y-99923324D03*
X128661441Y-99923324D03*
X128161441Y-99923324D03*
%TD*%
D16*
%TO.C,U3*%
X138599000Y-101455000D03*
X139299000Y-101455000D03*
X138599000Y-103155000D03*
X139299000Y-103155000D03*
%TD*%
%LPD*%
M02*
