%TF.GenerationSoftware,KiCad,Pcbnew,7.0.7*%
%TF.CreationDate,2023-11-17T15:11:12-08:00*%
%TF.ProjectId,beeper-flex,62656570-6572-42d6-966c-65782e6b6963,rev?*%
%TF.SameCoordinates,Original*%
%TF.FileFunction,Profile,NP*%
%FSLAX46Y46*%
G04 Gerber Fmt 4.6, Leading zero omitted, Abs format (unit mm)*
G04 Created by KiCad (PCBNEW 7.0.7) date 2023-11-17 15:11:12*
%MOMM*%
%LPD*%
G01*
G04 APERTURE LIST*
%TA.AperFunction,Profile*%
%ADD10C,0.050000*%
%TD*%
%TA.AperFunction,Profile*%
%ADD11C,0.200000*%
%TD*%
G04 APERTURE END LIST*
D10*
X126102633Y-100702712D02*
G75*
G03*
X125416271Y-100430000I-686333J-727288D01*
G01*
X132360000Y-99486271D02*
X132360000Y-98683628D01*
X120360000Y-100430000D02*
X120360000Y-104030000D01*
X126632727Y-100172619D02*
X126632727Y-100172619D01*
X126359979Y-99486271D02*
G75*
G03*
X126632727Y-100172619I1000121J71D01*
G01*
X132360000Y-98683628D02*
X126360000Y-98683628D01*
X132617381Y-100702727D02*
X132617381Y-100702727D01*
D11*
X141079000Y-102305000D02*
G75*
G03*
X141079000Y-102305000I-300000J0D01*
G01*
D10*
X120360000Y-104030000D02*
X142360000Y-104030000D01*
X126360000Y-98683628D02*
X126360000Y-99486271D01*
X142360000Y-104030000D02*
X142360000Y-100430000D01*
X125416271Y-100430000D02*
X120360000Y-100430000D01*
X126102619Y-100702727D02*
X126102619Y-100702727D01*
X132087274Y-100172620D02*
G75*
G03*
X132617380Y-100702726I272726J-257380D01*
G01*
D11*
X122211000Y-102305000D02*
G75*
G03*
X122211000Y-102305000I-270000J0D01*
G01*
D10*
X133303729Y-100430021D02*
G75*
G03*
X132617382Y-100702728I-29J-999979D01*
G01*
X132087288Y-100172633D02*
G75*
G03*
X132360000Y-99486271I-727288J686333D01*
G01*
X132087273Y-100172619D02*
X132087273Y-100172619D01*
X126102620Y-100702726D02*
G75*
G03*
X126632726Y-100172620I257380J272726D01*
G01*
X142360000Y-100430000D02*
X133303729Y-100430000D01*
M02*
