%TF.GenerationSoftware,KiCad,Pcbnew,7.0.7*%
%TF.CreationDate,2024-01-12T13:30:44-08:00*%
%TF.ProjectId,beeper-flex,62656570-6572-42d6-966c-65782e6b6963,rev?*%
%TF.SameCoordinates,Original*%
%TF.FileFunction,Copper,L1,Top*%
%TF.FilePolarity,Positive*%
%FSLAX46Y46*%
G04 Gerber Fmt 4.6, Leading zero omitted, Abs format (unit mm)*
G04 Created by KiCad (PCBNEW 7.0.7) date 2024-01-12 13:30:44*
%MOMM*%
%LPD*%
G01*
G04 APERTURE LIST*
%TA.AperFunction,ViaPad*%
%ADD10C,0.400000*%
%TD*%
%TA.AperFunction,Conductor*%
%ADD11C,0.080000*%
%TD*%
G04 APERTURE END LIST*
D10*
%TO.N,VDDMIC*%
X136613595Y-104121402D03*
X136580066Y-105137257D03*
X135947597Y-102780495D03*
X136106004Y-104155241D03*
X136086721Y-105159191D03*
X135472595Y-102880762D03*
X140473556Y-101616474D03*
%TO.N,GND*%
X124318241Y-102772504D03*
X139779222Y-103692338D03*
X139194098Y-101096699D03*
X141990404Y-102542989D03*
X140278888Y-103674057D03*
X128155771Y-104027136D03*
X127564445Y-104021107D03*
X137377435Y-103265161D03*
X139680234Y-100832322D03*
X137900750Y-103268798D03*
X138681446Y-100849212D03*
%TD*%
D11*
%TO.N,VDDMIC*%
X136613595Y-104121402D02*
X135947597Y-102780495D01*
X136106004Y-104155241D02*
X136086721Y-105159191D01*
X136106004Y-104155241D02*
X135472595Y-102880762D01*
X136613595Y-104121402D02*
X136580066Y-105137257D01*
%TD*%
%TA.AperFunction,Conductor*%
%TO.N,GND*%
G36*
X141025397Y-98198229D02*
G01*
X141029498Y-98208128D01*
X141029498Y-98208131D01*
X141029494Y-98229552D01*
X141029500Y-98229603D01*
X141029500Y-100360790D01*
X141029499Y-100360804D01*
X141029499Y-100395948D01*
X141029468Y-100396609D01*
X141014483Y-100554647D01*
X141013986Y-100557244D01*
X140969834Y-100708692D01*
X140968858Y-100711149D01*
X140897018Y-100851598D01*
X140895597Y-100853828D01*
X140798359Y-100978618D01*
X140797786Y-100979266D01*
X140772340Y-101004710D01*
X140771418Y-101006308D01*
X140771140Y-101006147D01*
X140769342Y-101009350D01*
X140751086Y-101028602D01*
X140686024Y-101147842D01*
X140686023Y-101147844D01*
X140653406Y-101279694D01*
X140654362Y-101345687D01*
X140650405Y-101355645D01*
X140640566Y-101359889D01*
X140631364Y-101356615D01*
X140630208Y-101355645D01*
X140626124Y-101352218D01*
X140576332Y-101334096D01*
X140526543Y-101315974D01*
X140526542Y-101315974D01*
X140420570Y-101315974D01*
X140420568Y-101315974D01*
X140320988Y-101352218D01*
X140239805Y-101420338D01*
X140186821Y-101512111D01*
X140168420Y-101616471D01*
X140168420Y-101616476D01*
X140186821Y-101720836D01*
X140239805Y-101812609D01*
X140239807Y-101812611D01*
X140239808Y-101812612D01*
X140320988Y-101880730D01*
X140420570Y-101916974D01*
X140420571Y-101916974D01*
X140526541Y-101916974D01*
X140526542Y-101916974D01*
X140626124Y-101880730D01*
X140707304Y-101812612D01*
X140760290Y-101720837D01*
X140764185Y-101698742D01*
X140769941Y-101689705D01*
X140780402Y-101687386D01*
X140787871Y-101691274D01*
X140856318Y-101759721D01*
X140856324Y-101759726D01*
X140973622Y-101828205D01*
X140973624Y-101828206D01*
X140973626Y-101828206D01*
X140973627Y-101828207D01*
X141104485Y-101864627D01*
X141240302Y-101866593D01*
X141372159Y-101833975D01*
X141491396Y-101768915D01*
X141510647Y-101750657D01*
X141513852Y-101748866D01*
X141513689Y-101748583D01*
X141515281Y-101747662D01*
X141515285Y-101747662D01*
X141540773Y-101722172D01*
X141541406Y-101721612D01*
X141666174Y-101624402D01*
X141668400Y-101622983D01*
X141808859Y-101551139D01*
X141811304Y-101550168D01*
X141962772Y-101506004D01*
X141965354Y-101505510D01*
X142123199Y-101490530D01*
X142123847Y-101490500D01*
X143745649Y-101490500D01*
X143765500Y-101490500D01*
X143775399Y-101494601D01*
X143779500Y-101504500D01*
X143779500Y-105775500D01*
X143775399Y-105785399D01*
X143765500Y-105789500D01*
X121844500Y-105789500D01*
X121834601Y-105785399D01*
X121830500Y-105775500D01*
X121830500Y-103840002D01*
X122894318Y-103840002D01*
X122896575Y-103857146D01*
X122906180Y-103930105D01*
X122914956Y-103996760D01*
X122914956Y-103996762D01*
X122975464Y-104142841D01*
X122975465Y-104142843D01*
X122984980Y-104155243D01*
X123071718Y-104268282D01*
X123139563Y-104320341D01*
X123180008Y-104351376D01*
X123197159Y-104364536D01*
X123343238Y-104425044D01*
X123460639Y-104440500D01*
X123539361Y-104440500D01*
X123656762Y-104425044D01*
X123802841Y-104364536D01*
X123928282Y-104268282D01*
X124024536Y-104142841D01*
X124085044Y-103996762D01*
X124105682Y-103840000D01*
X124085044Y-103683238D01*
X124024536Y-103537159D01*
X123928282Y-103411718D01*
X123854353Y-103354990D01*
X123802843Y-103315465D01*
X123802841Y-103315464D01*
X123656762Y-103254956D01*
X123627411Y-103251092D01*
X123539364Y-103239500D01*
X123539361Y-103239500D01*
X123460639Y-103239500D01*
X123460635Y-103239500D01*
X123366718Y-103251864D01*
X123343238Y-103254956D01*
X123343237Y-103254956D01*
X123197158Y-103315464D01*
X123197156Y-103315465D01*
X123071718Y-103411718D01*
X122975465Y-103537156D01*
X122975464Y-103537158D01*
X122914956Y-103683237D01*
X122914956Y-103683239D01*
X122894318Y-103839997D01*
X122894318Y-103840002D01*
X121830500Y-103840002D01*
X121830500Y-102880764D01*
X135167459Y-102880764D01*
X135185860Y-102985124D01*
X135238844Y-103076897D01*
X135238846Y-103076899D01*
X135238847Y-103076900D01*
X135320027Y-103145018D01*
X135419609Y-103181262D01*
X135478704Y-103181262D01*
X135488603Y-103185363D01*
X135491241Y-103189031D01*
X135869829Y-103950787D01*
X135870563Y-103961477D01*
X135869416Y-103964018D01*
X135819269Y-104050878D01*
X135800868Y-104155238D01*
X135800868Y-104155243D01*
X135819269Y-104259603D01*
X135872253Y-104351376D01*
X135872255Y-104351378D01*
X135872256Y-104351379D01*
X135953436Y-104419497D01*
X135968674Y-104425043D01*
X135970817Y-104425823D01*
X135978717Y-104433062D01*
X135980026Y-104439248D01*
X135971720Y-104871725D01*
X135967431Y-104881544D01*
X135962512Y-104884611D01*
X135934155Y-104894933D01*
X135934153Y-104894934D01*
X135852970Y-104963055D01*
X135799986Y-105054828D01*
X135781585Y-105159188D01*
X135781585Y-105159193D01*
X135799986Y-105263553D01*
X135852970Y-105355326D01*
X135852972Y-105355328D01*
X135852973Y-105355329D01*
X135934153Y-105423447D01*
X136033735Y-105459691D01*
X136033736Y-105459691D01*
X136139706Y-105459691D01*
X136139707Y-105459691D01*
X136239289Y-105423447D01*
X136320469Y-105355329D01*
X136329093Y-105340389D01*
X136337593Y-105333867D01*
X136348216Y-105335265D01*
X136350210Y-105336660D01*
X136427498Y-105401513D01*
X136527080Y-105437757D01*
X136527081Y-105437757D01*
X136633051Y-105437757D01*
X136633052Y-105437757D01*
X136732634Y-105401513D01*
X136813814Y-105333395D01*
X136866800Y-105241620D01*
X136881334Y-105159193D01*
X136885202Y-105137259D01*
X136885202Y-105137254D01*
X136866800Y-105032894D01*
X136813816Y-104941121D01*
X136758771Y-104894933D01*
X136732634Y-104873001D01*
X136719166Y-104868099D01*
X136711267Y-104860859D01*
X136709963Y-104854484D01*
X136724630Y-104410114D01*
X136729054Y-104400358D01*
X136733829Y-104397425D01*
X136766163Y-104385658D01*
X136847343Y-104317540D01*
X136848686Y-104315215D01*
X136875782Y-104268282D01*
X136900329Y-104225765D01*
X136912765Y-104155238D01*
X136918731Y-104121404D01*
X136918731Y-104121399D01*
X136900329Y-104017039D01*
X136847345Y-103925266D01*
X136846082Y-103924206D01*
X136766163Y-103857146D01*
X136719059Y-103840002D01*
X141504318Y-103840002D01*
X141506575Y-103857146D01*
X141516180Y-103930105D01*
X141524956Y-103996760D01*
X141524956Y-103996762D01*
X141585464Y-104142841D01*
X141585465Y-104142843D01*
X141594980Y-104155243D01*
X141681718Y-104268282D01*
X141749563Y-104320341D01*
X141790008Y-104351376D01*
X141807159Y-104364536D01*
X141953238Y-104425044D01*
X142070639Y-104440500D01*
X142149361Y-104440500D01*
X142266762Y-104425044D01*
X142412841Y-104364536D01*
X142538282Y-104268282D01*
X142634536Y-104142841D01*
X142695044Y-103996762D01*
X142715682Y-103840000D01*
X142695044Y-103683238D01*
X142634536Y-103537159D01*
X142538282Y-103411718D01*
X142464353Y-103354990D01*
X142412843Y-103315465D01*
X142412841Y-103315464D01*
X142412840Y-103315464D01*
X142266762Y-103254956D01*
X142237411Y-103251092D01*
X142149364Y-103239500D01*
X142149361Y-103239500D01*
X142070639Y-103239500D01*
X142070635Y-103239500D01*
X141976718Y-103251864D01*
X141953238Y-103254956D01*
X141953237Y-103254956D01*
X141807158Y-103315464D01*
X141807156Y-103315465D01*
X141681718Y-103411718D01*
X141585465Y-103537156D01*
X141585464Y-103537158D01*
X141524956Y-103683237D01*
X141524956Y-103683239D01*
X141504318Y-103839997D01*
X141504318Y-103840002D01*
X136719059Y-103840002D01*
X136716372Y-103839024D01*
X136666582Y-103820902D01*
X136666581Y-103820902D01*
X136607567Y-103820902D01*
X136597668Y-103816801D01*
X136595028Y-103813130D01*
X136457958Y-103537156D01*
X136183723Y-102985018D01*
X136182993Y-102974329D01*
X136184135Y-102971799D01*
X136234331Y-102884858D01*
X136252733Y-102780495D01*
X136252733Y-102780492D01*
X136234331Y-102676132D01*
X136181347Y-102584359D01*
X136181345Y-102584357D01*
X136100165Y-102516239D01*
X136050374Y-102498117D01*
X136000584Y-102479995D01*
X136000583Y-102479995D01*
X135894611Y-102479995D01*
X135894609Y-102479995D01*
X135795029Y-102516239D01*
X135713846Y-102584359D01*
X135680744Y-102641694D01*
X135672243Y-102648217D01*
X135661620Y-102646818D01*
X135659621Y-102645419D01*
X135625163Y-102616506D01*
X135525582Y-102580262D01*
X135525581Y-102580262D01*
X135419609Y-102580262D01*
X135419607Y-102580262D01*
X135320027Y-102616506D01*
X135238844Y-102684626D01*
X135185860Y-102776399D01*
X135167459Y-102880759D01*
X135167459Y-102880764D01*
X121830500Y-102880764D01*
X121830500Y-101504500D01*
X121834601Y-101494601D01*
X121844500Y-101490500D01*
X121864351Y-101490500D01*
X136701923Y-101490500D01*
X136701925Y-101490501D01*
X136735948Y-101490500D01*
X136736595Y-101490530D01*
X136894653Y-101505517D01*
X136897236Y-101506011D01*
X137048698Y-101550167D01*
X137051144Y-101551139D01*
X137170244Y-101612058D01*
X137191598Y-101622981D01*
X137193829Y-101624402D01*
X137318628Y-101721648D01*
X137319259Y-101722206D01*
X137344714Y-101747661D01*
X137344716Y-101747663D01*
X137346311Y-101748584D01*
X137346148Y-101748865D01*
X137349350Y-101750656D01*
X137368604Y-101768915D01*
X137487841Y-101833975D01*
X137487842Y-101833975D01*
X137487844Y-101833976D01*
X137619694Y-101866592D01*
X137619698Y-101866593D01*
X137755515Y-101864627D01*
X137886373Y-101828207D01*
X137886375Y-101828206D01*
X137886377Y-101828205D01*
X138003675Y-101759726D01*
X138003674Y-101759726D01*
X138003677Y-101759725D01*
X138099725Y-101663677D01*
X138165423Y-101551142D01*
X138168205Y-101546377D01*
X138168206Y-101546375D01*
X138168207Y-101546373D01*
X138204627Y-101415515D01*
X138206593Y-101279698D01*
X138190799Y-101215851D01*
X138173976Y-101147844D01*
X138173975Y-101147842D01*
X138173975Y-101147841D01*
X138108915Y-101028604D01*
X138090656Y-101009350D01*
X138088865Y-101006148D01*
X138088584Y-101006311D01*
X138087663Y-101004716D01*
X138087657Y-101004710D01*
X138062178Y-100979231D01*
X138061613Y-100978592D01*
X137964402Y-100853826D01*
X137962982Y-100851596D01*
X137891142Y-100711145D01*
X137890166Y-100708689D01*
X137846005Y-100557229D01*
X137845510Y-100554643D01*
X137830530Y-100396801D01*
X137830500Y-100396152D01*
X137830500Y-98229603D01*
X137830505Y-98229552D01*
X137830504Y-98227952D01*
X137830506Y-98227950D01*
X137830502Y-98208129D01*
X137834601Y-98198230D01*
X137844499Y-98194128D01*
X137864351Y-98194128D01*
X140995649Y-98194128D01*
X141015498Y-98194128D01*
X141025397Y-98198229D01*
G37*
%TD.AperFunction*%
%TD*%
M02*
