%TF.GenerationSoftware,KiCad,Pcbnew,7.0.7*%
%TF.CreationDate,2023-11-15T15:21:09-08:00*%
%TF.ProjectId,beeper-flex,62656570-6572-42d6-966c-65782e6b6963,rev?*%
%TF.SameCoordinates,Original*%
%TF.FileFunction,Copper,L2,Bot*%
%TF.FilePolarity,Positive*%
%FSLAX46Y46*%
G04 Gerber Fmt 4.6, Leading zero omitted, Abs format (unit mm)*
G04 Created by KiCad (PCBNEW 7.0.7) date 2023-11-15 15:21:09*
%MOMM*%
%LPD*%
G01*
G04 APERTURE LIST*
%TA.AperFunction,ViaPad*%
%ADD10C,0.400000*%
%TD*%
G04 APERTURE END LIST*
D10*
%TO.N,GND*%
X130164184Y-101473324D03*
X138943429Y-102370667D03*
X136294518Y-102203980D03*
X126039418Y-102047128D03*
X136769518Y-102182105D03*
X136827034Y-101680079D03*
X139891524Y-103321887D03*
X129666275Y-101519005D03*
X126539306Y-102036519D03*
X122667555Y-103405643D03*
X122660646Y-101186514D03*
X139443329Y-102360669D03*
X137330848Y-101653562D03*
X129164591Y-101514086D03*
%TD*%
%TA.AperFunction,Conductor*%
%TO.N,GND*%
G36*
X132175399Y-98868229D02*
G01*
X132179500Y-98878128D01*
X132179500Y-99449238D01*
X132179499Y-99449252D01*
X132179499Y-99485950D01*
X132179468Y-99486611D01*
X132165018Y-99639007D01*
X132164522Y-99641604D01*
X132121956Y-99787629D01*
X132120979Y-99790086D01*
X132051726Y-99925493D01*
X132050306Y-99927722D01*
X131959293Y-100044537D01*
X131957533Y-100046412D01*
X131934279Y-100067014D01*
X131932353Y-100072093D01*
X131929422Y-100076760D01*
X131906600Y-100100825D01*
X131837825Y-100226872D01*
X131837824Y-100226874D01*
X131803346Y-100366251D01*
X131803346Y-100366254D01*
X131803346Y-100366255D01*
X131805424Y-100509826D01*
X131805424Y-100509829D01*
X131805425Y-100509830D01*
X131805425Y-100509831D01*
X131843923Y-100648156D01*
X131843924Y-100648158D01*
X131916312Y-100772153D01*
X131916317Y-100772159D01*
X132017840Y-100873682D01*
X132017846Y-100873687D01*
X132141841Y-100946075D01*
X132141843Y-100946076D01*
X132141845Y-100946076D01*
X132141846Y-100946077D01*
X132280174Y-100984576D01*
X132423745Y-100986654D01*
X132563129Y-100952174D01*
X132689173Y-100883401D01*
X132739333Y-100835831D01*
X132742225Y-100833268D01*
X132742500Y-100833039D01*
X132862299Y-100739703D01*
X132864504Y-100738298D01*
X132999926Y-100669038D01*
X133002373Y-100668064D01*
X133148401Y-100625496D01*
X133150983Y-100625002D01*
X133303625Y-100610530D01*
X133304271Y-100610500D01*
X133339627Y-100610501D01*
X133339629Y-100610500D01*
X142165500Y-100610500D01*
X142175399Y-100614601D01*
X142179500Y-100624500D01*
X142179500Y-103835500D01*
X142175399Y-103845399D01*
X142165500Y-103849500D01*
X120554500Y-103849500D01*
X120544601Y-103845399D01*
X120540500Y-103835500D01*
X120540500Y-102369771D01*
X121490500Y-102369771D01*
X121526995Y-102494068D01*
X121552022Y-102533010D01*
X121597033Y-102603049D01*
X121694937Y-102687882D01*
X121812774Y-102741697D01*
X121941000Y-102760133D01*
X122069226Y-102741697D01*
X122187063Y-102687882D01*
X122284967Y-102603049D01*
X122355004Y-102494069D01*
X122391500Y-102369772D01*
X122391500Y-102305000D01*
X140293983Y-102305000D01*
X140311969Y-102435856D01*
X140339062Y-102498231D01*
X140364592Y-102557007D01*
X140447945Y-102659463D01*
X140447947Y-102659465D01*
X140447950Y-102659468D01*
X140555861Y-102735639D01*
X140680320Y-102779872D01*
X140768172Y-102785881D01*
X140812096Y-102788886D01*
X140812098Y-102788886D01*
X140812098Y-102788885D01*
X140812099Y-102788886D01*
X140941422Y-102762013D01*
X141058700Y-102701244D01*
X141155233Y-102611088D01*
X141223863Y-102498231D01*
X141259500Y-102371043D01*
X141259500Y-102305000D01*
X141259500Y-102269096D01*
X141259500Y-102238957D01*
X141223863Y-102111769D01*
X141155233Y-101998912D01*
X141058700Y-101908756D01*
X141058699Y-101908755D01*
X141058694Y-101908752D01*
X140941427Y-101847989D01*
X140941420Y-101847986D01*
X140812097Y-101821113D01*
X140680326Y-101830127D01*
X140680320Y-101830128D01*
X140555860Y-101874361D01*
X140447951Y-101950531D01*
X140447945Y-101950536D01*
X140364592Y-102052992D01*
X140339062Y-102111769D01*
X140311969Y-102174144D01*
X140293983Y-102305000D01*
X122391500Y-102305000D01*
X122391500Y-102269096D01*
X122391500Y-102240228D01*
X122355004Y-102115931D01*
X122284967Y-102006951D01*
X122187063Y-101922118D01*
X122187061Y-101922117D01*
X122187060Y-101922116D01*
X122069227Y-101868303D01*
X121941000Y-101849867D01*
X121812772Y-101868303D01*
X121694939Y-101922116D01*
X121597036Y-102006948D01*
X121597033Y-102006951D01*
X121526995Y-102115931D01*
X121490500Y-102240228D01*
X121490500Y-102369771D01*
X120540500Y-102369771D01*
X120540500Y-100624500D01*
X120544601Y-100614601D01*
X120554500Y-100610500D01*
X125380371Y-100610500D01*
X125380373Y-100610501D01*
X125415950Y-100610500D01*
X125416595Y-100610530D01*
X125569007Y-100624981D01*
X125571604Y-100625477D01*
X125717630Y-100668043D01*
X125720085Y-100669019D01*
X125855501Y-100738277D01*
X125857716Y-100739688D01*
X125899393Y-100772159D01*
X125966554Y-100824485D01*
X125969472Y-100827576D01*
X125973225Y-100833014D01*
X125979343Y-100841877D01*
X125994862Y-100850022D01*
X125997987Y-100852258D01*
X126030827Y-100883401D01*
X126156871Y-100952174D01*
X126156872Y-100952174D01*
X126156874Y-100952175D01*
X126296251Y-100986653D01*
X126296255Y-100986654D01*
X126439826Y-100984576D01*
X126578154Y-100946077D01*
X126578156Y-100946076D01*
X126578158Y-100946075D01*
X126702153Y-100873687D01*
X126702152Y-100873687D01*
X126702155Y-100873686D01*
X126803686Y-100772155D01*
X126864238Y-100668434D01*
X126876075Y-100648158D01*
X126876076Y-100648156D01*
X126876077Y-100648154D01*
X126914576Y-100509826D01*
X126916654Y-100366255D01*
X126914980Y-100359486D01*
X126882175Y-100226874D01*
X126882174Y-100226872D01*
X126882174Y-100226871D01*
X126813401Y-100100827D01*
X126774079Y-100059364D01*
X126772717Y-100057685D01*
X126756002Y-100033468D01*
X126752091Y-100031416D01*
X126747552Y-100027623D01*
X126669702Y-99927703D01*
X126668282Y-99925474D01*
X126599022Y-99790066D01*
X126598046Y-99787610D01*
X126587846Y-99752629D01*
X126555469Y-99641588D01*
X126554974Y-99639002D01*
X126540530Y-99486799D01*
X126540500Y-99486150D01*
X126540500Y-98878128D01*
X126544601Y-98868229D01*
X126554500Y-98864128D01*
X132165500Y-98864128D01*
X132175399Y-98868229D01*
G37*
%TD.AperFunction*%
%TD*%
M02*
