%TF.GenerationSoftware,KiCad,Pcbnew,7.0.7*%
%TF.CreationDate,2023-11-20T12:17:49-08:00*%
%TF.ProjectId,beeper-flex,62656570-6572-42d6-966c-65782e6b6963,rev?*%
%TF.SameCoordinates,Original*%
%TF.FileFunction,Copper,L2,Bot*%
%TF.FilePolarity,Positive*%
%FSLAX46Y46*%
G04 Gerber Fmt 4.6, Leading zero omitted, Abs format (unit mm)*
G04 Created by KiCad (PCBNEW 7.0.7) date 2023-11-20 12:17:49*
%MOMM*%
%LPD*%
G01*
G04 APERTURE LIST*
%TA.AperFunction,ViaPad*%
%ADD10C,0.400000*%
%TD*%
%TA.AperFunction,Conductor*%
%ADD11C,0.090000*%
%TD*%
G04 APERTURE END LIST*
D10*
%TO.N,GND*%
X136302224Y-102218046D03*
X122818262Y-103327007D03*
X125977121Y-102050021D03*
X122855864Y-101339637D03*
X139914749Y-101226702D03*
X129665246Y-101712800D03*
X126477122Y-102050021D03*
X129144370Y-101473324D03*
X130148316Y-101490167D03*
X139889546Y-103360612D03*
X136806297Y-102192842D03*
%TO.N,VDDMIC*%
X136412707Y-101389814D03*
X134511727Y-103124457D03*
X128223442Y-102678821D03*
X127542192Y-101453821D03*
X133941434Y-103088814D03*
X128179082Y-101475613D03*
X135835453Y-101377932D03*
X127529692Y-102641321D03*
%TD*%
D11*
%TO.N,VDDMIC*%
X128179082Y-101475613D02*
X127542192Y-101453821D01*
X136412707Y-101389814D02*
X134511727Y-103124457D01*
X136412707Y-101389814D02*
X135835453Y-101377932D01*
X134511727Y-103124457D02*
X133941434Y-103088814D01*
X127529692Y-102641321D02*
X128223442Y-102678821D01*
X127542192Y-101453821D02*
X127529692Y-102641321D01*
%TD*%
%TA.AperFunction,Conductor*%
%TO.N,GND*%
G36*
X132175399Y-98868229D02*
G01*
X132179500Y-98878128D01*
X132179500Y-99449238D01*
X132179499Y-99449252D01*
X132179499Y-99485950D01*
X132179468Y-99486611D01*
X132165018Y-99639007D01*
X132164522Y-99641604D01*
X132121956Y-99787629D01*
X132120979Y-99790086D01*
X132051726Y-99925493D01*
X132050306Y-99927722D01*
X131959293Y-100044537D01*
X131957533Y-100046412D01*
X131934279Y-100067014D01*
X131932353Y-100072093D01*
X131929422Y-100076760D01*
X131906600Y-100100825D01*
X131837825Y-100226872D01*
X131837824Y-100226874D01*
X131803346Y-100366251D01*
X131803346Y-100366254D01*
X131803346Y-100366255D01*
X131805424Y-100509826D01*
X131805424Y-100509829D01*
X131805425Y-100509830D01*
X131805425Y-100509831D01*
X131843923Y-100648156D01*
X131843924Y-100648158D01*
X131916312Y-100772153D01*
X131916317Y-100772159D01*
X132017840Y-100873682D01*
X132017846Y-100873687D01*
X132141841Y-100946075D01*
X132141843Y-100946076D01*
X132141845Y-100946076D01*
X132141846Y-100946077D01*
X132280174Y-100984576D01*
X132423745Y-100986654D01*
X132563129Y-100952174D01*
X132689173Y-100883401D01*
X132739333Y-100835831D01*
X132742225Y-100833268D01*
X132742500Y-100833039D01*
X132862299Y-100739703D01*
X132864504Y-100738298D01*
X132999926Y-100669038D01*
X133002373Y-100668064D01*
X133148401Y-100625496D01*
X133150983Y-100625002D01*
X133303625Y-100610530D01*
X133304271Y-100610500D01*
X133339627Y-100610501D01*
X133339629Y-100610500D01*
X142165500Y-100610500D01*
X142175399Y-100614601D01*
X142179500Y-100624500D01*
X142179500Y-103835500D01*
X142175399Y-103845399D01*
X142165500Y-103849500D01*
X120554500Y-103849500D01*
X120544601Y-103845399D01*
X120540500Y-103835500D01*
X120540500Y-103088815D01*
X133646453Y-103088815D01*
X133664242Y-103189702D01*
X133715462Y-103278421D01*
X133715464Y-103278423D01*
X133715465Y-103278424D01*
X133793943Y-103344275D01*
X133890211Y-103379314D01*
X133890212Y-103379314D01*
X133992656Y-103379314D01*
X133992657Y-103379314D01*
X134088925Y-103344275D01*
X134167403Y-103278424D01*
X134185199Y-103247596D01*
X134193699Y-103241075D01*
X134198195Y-103240625D01*
X134237553Y-103243084D01*
X134247177Y-103247794D01*
X134248803Y-103250057D01*
X134285755Y-103314064D01*
X134285757Y-103314066D01*
X134285758Y-103314067D01*
X134364236Y-103379918D01*
X134460504Y-103414957D01*
X134460505Y-103414957D01*
X134562949Y-103414957D01*
X134562950Y-103414957D01*
X134659218Y-103379918D01*
X134737696Y-103314067D01*
X134788918Y-103225346D01*
X134806708Y-103124457D01*
X134795022Y-103058185D01*
X134797341Y-103047725D01*
X134799369Y-103045416D01*
X135535075Y-102374085D01*
X140298500Y-102374085D01*
X140302680Y-102388321D01*
X140337426Y-102506658D01*
X140352200Y-102529646D01*
X140412128Y-102622896D01*
X140516551Y-102713379D01*
X140642235Y-102770777D01*
X140642236Y-102770777D01*
X140642238Y-102770778D01*
X140744621Y-102785498D01*
X140744635Y-102785500D01*
X140744638Y-102785500D01*
X140813362Y-102785500D01*
X140813365Y-102785500D01*
X140837487Y-102782031D01*
X140915761Y-102770778D01*
X140915762Y-102770777D01*
X140915765Y-102770777D01*
X141041449Y-102713379D01*
X141145872Y-102622896D01*
X141220573Y-102506659D01*
X141259500Y-102374085D01*
X141259500Y-102235915D01*
X141220573Y-102103341D01*
X141145872Y-101987104D01*
X141041449Y-101896621D01*
X141041447Y-101896620D01*
X141041446Y-101896619D01*
X140915763Y-101839222D01*
X140915761Y-101839221D01*
X140813378Y-101824501D01*
X140813367Y-101824500D01*
X140813365Y-101824500D01*
X140744635Y-101824500D01*
X140744632Y-101824500D01*
X140744621Y-101824501D01*
X140642238Y-101839221D01*
X140642236Y-101839222D01*
X140516553Y-101896619D01*
X140412131Y-101987101D01*
X140412128Y-101987104D01*
X140337426Y-102103341D01*
X140298500Y-102235914D01*
X140298500Y-102235915D01*
X140298500Y-102374085D01*
X135535075Y-102374085D01*
X136307965Y-101668823D01*
X136318040Y-101665181D01*
X136322181Y-101666008D01*
X136361484Y-101680314D01*
X136361485Y-101680314D01*
X136463929Y-101680314D01*
X136463930Y-101680314D01*
X136560198Y-101645275D01*
X136638676Y-101579424D01*
X136689898Y-101490703D01*
X136707688Y-101389814D01*
X136705592Y-101377930D01*
X136689898Y-101288925D01*
X136638678Y-101200206D01*
X136624518Y-101188324D01*
X136560198Y-101134353D01*
X136512064Y-101116833D01*
X136463931Y-101099314D01*
X136463930Y-101099314D01*
X136361484Y-101099314D01*
X136361482Y-101099314D01*
X136265217Y-101134353D01*
X136186735Y-101200206D01*
X136162672Y-101241885D01*
X136154171Y-101248408D01*
X136150260Y-101248882D01*
X136103628Y-101247923D01*
X136093815Y-101243620D01*
X136091795Y-101240931D01*
X136061422Y-101188322D01*
X135982944Y-101122471D01*
X135934809Y-101104951D01*
X135886677Y-101087432D01*
X135886676Y-101087432D01*
X135784230Y-101087432D01*
X135784228Y-101087432D01*
X135687963Y-101122471D01*
X135609481Y-101188324D01*
X135558261Y-101277043D01*
X135540472Y-101377930D01*
X135540472Y-101377933D01*
X135558261Y-101478820D01*
X135609481Y-101567539D01*
X135609483Y-101567541D01*
X135609484Y-101567542D01*
X135687962Y-101633393D01*
X135784230Y-101668432D01*
X135784231Y-101668432D01*
X135870235Y-101668432D01*
X135880134Y-101672533D01*
X135884235Y-101682432D01*
X135880134Y-101692331D01*
X135879680Y-101692765D01*
X135557121Y-101987101D01*
X134616469Y-102845445D01*
X134606392Y-102849088D01*
X134602244Y-102848259D01*
X134562951Y-102833957D01*
X134562950Y-102833957D01*
X134460504Y-102833957D01*
X134460502Y-102833957D01*
X134364237Y-102868996D01*
X134285755Y-102934849D01*
X134267961Y-102965671D01*
X134259460Y-102972194D01*
X134254964Y-102972644D01*
X134215607Y-102970184D01*
X134205982Y-102965474D01*
X134204362Y-102963221D01*
X134167403Y-102899204D01*
X134088925Y-102833353D01*
X134040790Y-102815833D01*
X133992658Y-102798314D01*
X133992657Y-102798314D01*
X133890211Y-102798314D01*
X133890209Y-102798314D01*
X133793944Y-102833353D01*
X133715462Y-102899206D01*
X133664242Y-102987925D01*
X133646453Y-103088812D01*
X133646453Y-103088815D01*
X120540500Y-103088815D01*
X120540500Y-102235914D01*
X121460499Y-102235914D01*
X121460500Y-102235915D01*
X121460500Y-102374085D01*
X121464680Y-102388321D01*
X121499426Y-102506658D01*
X121514200Y-102529646D01*
X121574128Y-102622896D01*
X121678551Y-102713379D01*
X121804235Y-102770777D01*
X121804236Y-102770777D01*
X121804238Y-102770778D01*
X121906621Y-102785498D01*
X121906635Y-102785500D01*
X121906638Y-102785500D01*
X121975362Y-102785500D01*
X121975365Y-102785500D01*
X121999487Y-102782031D01*
X122077761Y-102770778D01*
X122077762Y-102770777D01*
X122077765Y-102770777D01*
X122203449Y-102713379D01*
X122286607Y-102641322D01*
X127234711Y-102641322D01*
X127252500Y-102742209D01*
X127303720Y-102830928D01*
X127303722Y-102830930D01*
X127303723Y-102830931D01*
X127382201Y-102896782D01*
X127478469Y-102931821D01*
X127478470Y-102931821D01*
X127580914Y-102931821D01*
X127580915Y-102931821D01*
X127677183Y-102896782D01*
X127755661Y-102830931D01*
X127774709Y-102797937D01*
X127783208Y-102791415D01*
X127787582Y-102790958D01*
X127950491Y-102799764D01*
X127960153Y-102804393D01*
X127961858Y-102806744D01*
X127997470Y-102868428D01*
X127997472Y-102868430D01*
X127997473Y-102868431D01*
X128075951Y-102934282D01*
X128172219Y-102969321D01*
X128172220Y-102969321D01*
X128274664Y-102969321D01*
X128274665Y-102969321D01*
X128370933Y-102934282D01*
X128449411Y-102868431D01*
X128460579Y-102849088D01*
X128485025Y-102806744D01*
X128500633Y-102779710D01*
X128518423Y-102678821D01*
X128508561Y-102622895D01*
X128500633Y-102577932D01*
X128449413Y-102489213D01*
X128449411Y-102489211D01*
X128370933Y-102423360D01*
X128322798Y-102405840D01*
X128274666Y-102388321D01*
X128274665Y-102388321D01*
X128172219Y-102388321D01*
X128172217Y-102388321D01*
X128075952Y-102423360D01*
X127997470Y-102489213D01*
X127978424Y-102522202D01*
X127969923Y-102528725D01*
X127965544Y-102529182D01*
X127802642Y-102520376D01*
X127792979Y-102515747D01*
X127791274Y-102513396D01*
X127755663Y-102451713D01*
X127677182Y-102385859D01*
X127676123Y-102385248D01*
X127676269Y-102384993D01*
X127669337Y-102378636D01*
X127668028Y-102372577D01*
X127668047Y-102370805D01*
X127674851Y-101724333D01*
X127679054Y-101714480D01*
X127684061Y-101711327D01*
X127687424Y-101710104D01*
X127689681Y-101709283D01*
X127689681Y-101709282D01*
X127689683Y-101709282D01*
X127768161Y-101643431D01*
X127790171Y-101605305D01*
X127798670Y-101598785D01*
X127802770Y-101598316D01*
X127908974Y-101601950D01*
X127918727Y-101606387D01*
X127920619Y-101608942D01*
X127953110Y-101665220D01*
X127953112Y-101665222D01*
X127953113Y-101665223D01*
X128031591Y-101731074D01*
X128127859Y-101766113D01*
X128127860Y-101766113D01*
X128230304Y-101766113D01*
X128230305Y-101766113D01*
X128326573Y-101731074D01*
X128405051Y-101665223D01*
X128405076Y-101665181D01*
X128443679Y-101598316D01*
X128456273Y-101576502D01*
X128474063Y-101475613D01*
X128470220Y-101453821D01*
X128456273Y-101374724D01*
X128405053Y-101286005D01*
X128405051Y-101286003D01*
X128326573Y-101220152D01*
X128266701Y-101198360D01*
X128230306Y-101185113D01*
X128230305Y-101185113D01*
X128127859Y-101185113D01*
X128127857Y-101185113D01*
X128031592Y-101220152D01*
X127953110Y-101286005D01*
X127931102Y-101324124D01*
X127922601Y-101330647D01*
X127918499Y-101331116D01*
X127812298Y-101327482D01*
X127802545Y-101323045D01*
X127800653Y-101320490D01*
X127768163Y-101264213D01*
X127750096Y-101249053D01*
X127689683Y-101198360D01*
X127641549Y-101180840D01*
X127593416Y-101163321D01*
X127593415Y-101163321D01*
X127490969Y-101163321D01*
X127490967Y-101163321D01*
X127394702Y-101198360D01*
X127316220Y-101264213D01*
X127265000Y-101352932D01*
X127247211Y-101453819D01*
X127247211Y-101453822D01*
X127265000Y-101554709D01*
X127316220Y-101643428D01*
X127316222Y-101643430D01*
X127316223Y-101643431D01*
X127374500Y-101692331D01*
X127394701Y-101709282D01*
X127395761Y-101709894D01*
X127395612Y-101710151D01*
X127402539Y-101716491D01*
X127403854Y-101722563D01*
X127397032Y-102370805D01*
X127392828Y-102380661D01*
X127387823Y-102383813D01*
X127382203Y-102385859D01*
X127382202Y-102385859D01*
X127303720Y-102451713D01*
X127252500Y-102540432D01*
X127234711Y-102641319D01*
X127234711Y-102641322D01*
X122286607Y-102641322D01*
X122307872Y-102622896D01*
X122382573Y-102506659D01*
X122421500Y-102374085D01*
X122421500Y-102235915D01*
X122382573Y-102103341D01*
X122307872Y-101987104D01*
X122203449Y-101896621D01*
X122203447Y-101896620D01*
X122203446Y-101896619D01*
X122077763Y-101839222D01*
X122077761Y-101839221D01*
X121975378Y-101824501D01*
X121975367Y-101824500D01*
X121975365Y-101824500D01*
X121906635Y-101824500D01*
X121906632Y-101824500D01*
X121906621Y-101824501D01*
X121804238Y-101839221D01*
X121804236Y-101839222D01*
X121678553Y-101896619D01*
X121574131Y-101987101D01*
X121574128Y-101987104D01*
X121499426Y-102103341D01*
X121460499Y-102235914D01*
X120540500Y-102235914D01*
X120540500Y-100624500D01*
X120544601Y-100614601D01*
X120554500Y-100610500D01*
X125380371Y-100610500D01*
X125380373Y-100610501D01*
X125415950Y-100610500D01*
X125416595Y-100610530D01*
X125569007Y-100624981D01*
X125571604Y-100625477D01*
X125717630Y-100668043D01*
X125720085Y-100669019D01*
X125855501Y-100738277D01*
X125857716Y-100739688D01*
X125899393Y-100772159D01*
X125966554Y-100824485D01*
X125969472Y-100827576D01*
X125973225Y-100833014D01*
X125979343Y-100841877D01*
X125994862Y-100850022D01*
X125997987Y-100852258D01*
X126030827Y-100883401D01*
X126156871Y-100952174D01*
X126156872Y-100952174D01*
X126156874Y-100952175D01*
X126296251Y-100986653D01*
X126296255Y-100986654D01*
X126439826Y-100984576D01*
X126578154Y-100946077D01*
X126578156Y-100946076D01*
X126578158Y-100946075D01*
X126702153Y-100873687D01*
X126702152Y-100873687D01*
X126702155Y-100873686D01*
X126803686Y-100772155D01*
X126864238Y-100668434D01*
X126876075Y-100648158D01*
X126876076Y-100648156D01*
X126876077Y-100648154D01*
X126914576Y-100509826D01*
X126916654Y-100366255D01*
X126914980Y-100359486D01*
X126882175Y-100226874D01*
X126882174Y-100226872D01*
X126882174Y-100226871D01*
X126813401Y-100100827D01*
X126774079Y-100059364D01*
X126772717Y-100057685D01*
X126756002Y-100033468D01*
X126752091Y-100031416D01*
X126747552Y-100027623D01*
X126669702Y-99927703D01*
X126668282Y-99925474D01*
X126599022Y-99790066D01*
X126598046Y-99787610D01*
X126587846Y-99752629D01*
X126555469Y-99641588D01*
X126554974Y-99639002D01*
X126540530Y-99486799D01*
X126540500Y-99486150D01*
X126540500Y-98878128D01*
X126544601Y-98868229D01*
X126554500Y-98864128D01*
X132165500Y-98864128D01*
X132175399Y-98868229D01*
G37*
%TD.AperFunction*%
%TD*%
M02*
