%TF.GenerationSoftware,KiCad,Pcbnew,7.0.7*%
%TF.CreationDate,2024-01-12T13:30:44-08:00*%
%TF.ProjectId,beeper-flex,62656570-6572-42d6-966c-65782e6b6963,rev?*%
%TF.SameCoordinates,Original*%
%TF.FileFunction,Legend,Bot*%
%TF.FilePolarity,Positive*%
%FSLAX46Y46*%
G04 Gerber Fmt 4.6, Leading zero omitted, Abs format (unit mm)*
G04 Created by KiCad (PCBNEW 7.0.7) date 2024-01-12 13:30:44*
%MOMM*%
%LPD*%
G01*
G04 APERTURE LIST*
G04 Aperture macros list*
%AMRoundRect*
0 Rectangle with rounded corners*
0 $1 Rounding radius*
0 $2 $3 $4 $5 $6 $7 $8 $9 X,Y pos of 4 corners*
0 Add a 4 corners polygon primitive as box body*
4,1,4,$2,$3,$4,$5,$6,$7,$8,$9,$2,$3,0*
0 Add four circle primitives for the rounded corners*
1,1,$1+$1,$2,$3*
1,1,$1+$1,$4,$5*
1,1,$1+$1,$6,$7*
1,1,$1+$1,$8,$9*
0 Add four rect primitives between the rounded corners*
20,1,$1+$1,$2,$3,$4,$5,0*
20,1,$1+$1,$4,$5,$6,$7,0*
20,1,$1+$1,$6,$7,$8,$9,0*
20,1,$1+$1,$8,$9,$2,$3,0*%
G04 Aperture macros list end*
%ADD10C,0.100000*%
%ADD11C,0.200000*%
%ADD12C,0.090000*%
%ADD13C,0.450000*%
%ADD14RoundRect,0.051000X0.240000X0.390000X-0.240000X0.390000X-0.240000X-0.390000X0.240000X-0.390000X0*%
%ADD15RoundRect,0.050000X-0.165000X-0.079155X0.165000X-0.079155X0.165000X0.079155X-0.165000X0.079155X0*%
%ADD16RoundRect,0.050000X0.079155X-0.165000X0.079155X0.165000X-0.079155X0.165000X-0.079155X-0.165000X0*%
%ADD17RoundRect,0.051000X-0.150000X-1.250000X0.150000X-1.250000X0.150000X1.250000X-0.150000X1.250000X0*%
%ADD18RoundRect,0.051000X-0.240000X-0.390000X0.240000X-0.390000X0.240000X0.390000X-0.240000X0.390000X0*%
%ADD19C,0.902000*%
G04 APERTURE END LIST*
D10*
X139137217Y-104681764D02*
X139137217Y-105288907D01*
X139137217Y-105288907D02*
X139101503Y-105360335D01*
X139101503Y-105360335D02*
X139065789Y-105396050D01*
X139065789Y-105396050D02*
X138994360Y-105431764D01*
X138994360Y-105431764D02*
X138851503Y-105431764D01*
X138851503Y-105431764D02*
X138780074Y-105396050D01*
X138780074Y-105396050D02*
X138744360Y-105360335D01*
X138744360Y-105360335D02*
X138708646Y-105288907D01*
X138708646Y-105288907D02*
X138708646Y-104681764D01*
X138422932Y-104681764D02*
X137958646Y-104681764D01*
X137958646Y-104681764D02*
X138208646Y-104967478D01*
X138208646Y-104967478D02*
X138101503Y-104967478D01*
X138101503Y-104967478D02*
X138030075Y-105003192D01*
X138030075Y-105003192D02*
X137994360Y-105038907D01*
X137994360Y-105038907D02*
X137958646Y-105110335D01*
X137958646Y-105110335D02*
X137958646Y-105288907D01*
X137958646Y-105288907D02*
X137994360Y-105360335D01*
X137994360Y-105360335D02*
X138030075Y-105396050D01*
X138030075Y-105396050D02*
X138101503Y-105431764D01*
X138101503Y-105431764D02*
X138315789Y-105431764D01*
X138315789Y-105431764D02*
X138387217Y-105396050D01*
X138387217Y-105396050D02*
X138422932Y-105360335D01*
X127585000Y-103540335D02*
X127620714Y-103576050D01*
X127620714Y-103576050D02*
X127727857Y-103611764D01*
X127727857Y-103611764D02*
X127799285Y-103611764D01*
X127799285Y-103611764D02*
X127906428Y-103576050D01*
X127906428Y-103576050D02*
X127977857Y-103504621D01*
X127977857Y-103504621D02*
X128013571Y-103433192D01*
X128013571Y-103433192D02*
X128049285Y-103290335D01*
X128049285Y-103290335D02*
X128049285Y-103183192D01*
X128049285Y-103183192D02*
X128013571Y-103040335D01*
X128013571Y-103040335D02*
X127977857Y-102968907D01*
X127977857Y-102968907D02*
X127906428Y-102897478D01*
X127906428Y-102897478D02*
X127799285Y-102861764D01*
X127799285Y-102861764D02*
X127727857Y-102861764D01*
X127727857Y-102861764D02*
X127620714Y-102897478D01*
X127620714Y-102897478D02*
X127585000Y-102933192D01*
X126906428Y-102861764D02*
X127263571Y-102861764D01*
X127263571Y-102861764D02*
X127299285Y-103218907D01*
X127299285Y-103218907D02*
X127263571Y-103183192D01*
X127263571Y-103183192D02*
X127192143Y-103147478D01*
X127192143Y-103147478D02*
X127013571Y-103147478D01*
X127013571Y-103147478D02*
X126942143Y-103183192D01*
X126942143Y-103183192D02*
X126906428Y-103218907D01*
X126906428Y-103218907D02*
X126870714Y-103290335D01*
X126870714Y-103290335D02*
X126870714Y-103468907D01*
X126870714Y-103468907D02*
X126906428Y-103540335D01*
X126906428Y-103540335D02*
X126942143Y-103576050D01*
X126942143Y-103576050D02*
X127013571Y-103611764D01*
X127013571Y-103611764D02*
X127192143Y-103611764D01*
X127192143Y-103611764D02*
X127263571Y-103576050D01*
X127263571Y-103576050D02*
X127299285Y-103540335D01*
X137565000Y-102950335D02*
X137600714Y-102986050D01*
X137600714Y-102986050D02*
X137707857Y-103021764D01*
X137707857Y-103021764D02*
X137779285Y-103021764D01*
X137779285Y-103021764D02*
X137886428Y-102986050D01*
X137886428Y-102986050D02*
X137957857Y-102914621D01*
X137957857Y-102914621D02*
X137993571Y-102843192D01*
X137993571Y-102843192D02*
X138029285Y-102700335D01*
X138029285Y-102700335D02*
X138029285Y-102593192D01*
X138029285Y-102593192D02*
X137993571Y-102450335D01*
X137993571Y-102450335D02*
X137957857Y-102378907D01*
X137957857Y-102378907D02*
X137886428Y-102307478D01*
X137886428Y-102307478D02*
X137779285Y-102271764D01*
X137779285Y-102271764D02*
X137707857Y-102271764D01*
X137707857Y-102271764D02*
X137600714Y-102307478D01*
X137600714Y-102307478D02*
X137565000Y-102343192D01*
X136922143Y-102521764D02*
X136922143Y-103021764D01*
X137100714Y-102236050D02*
X137279285Y-102771764D01*
X137279285Y-102771764D02*
X136815000Y-102771764D01*
X141121115Y-100757419D02*
X141121115Y-101566942D01*
X141121115Y-101566942D02*
X141073496Y-101662180D01*
X141073496Y-101662180D02*
X141025877Y-101709800D01*
X141025877Y-101709800D02*
X140930639Y-101757419D01*
X140930639Y-101757419D02*
X140740163Y-101757419D01*
X140740163Y-101757419D02*
X140644925Y-101709800D01*
X140644925Y-101709800D02*
X140597306Y-101662180D01*
X140597306Y-101662180D02*
X140549687Y-101566942D01*
X140549687Y-101566942D02*
X140549687Y-100757419D01*
X139644925Y-100757419D02*
X139835401Y-100757419D01*
X139835401Y-100757419D02*
X139930639Y-100805038D01*
X139930639Y-100805038D02*
X139978258Y-100852657D01*
X139978258Y-100852657D02*
X140073496Y-100995514D01*
X140073496Y-100995514D02*
X140121115Y-101185990D01*
X140121115Y-101185990D02*
X140121115Y-101566942D01*
X140121115Y-101566942D02*
X140073496Y-101662180D01*
X140073496Y-101662180D02*
X140025877Y-101709800D01*
X140025877Y-101709800D02*
X139930639Y-101757419D01*
X139930639Y-101757419D02*
X139740163Y-101757419D01*
X139740163Y-101757419D02*
X139644925Y-101709800D01*
X139644925Y-101709800D02*
X139597306Y-101662180D01*
X139597306Y-101662180D02*
X139549687Y-101566942D01*
X139549687Y-101566942D02*
X139549687Y-101328847D01*
X139549687Y-101328847D02*
X139597306Y-101233609D01*
X139597306Y-101233609D02*
X139644925Y-101185990D01*
X139644925Y-101185990D02*
X139740163Y-101138371D01*
X139740163Y-101138371D02*
X139930639Y-101138371D01*
X139930639Y-101138371D02*
X140025877Y-101185990D01*
X140025877Y-101185990D02*
X140073496Y-101233609D01*
X140073496Y-101233609D02*
X140121115Y-101328847D01*
X127625639Y-104961764D02*
X127625639Y-105568907D01*
X127625639Y-105568907D02*
X127589925Y-105640335D01*
X127589925Y-105640335D02*
X127554211Y-105676050D01*
X127554211Y-105676050D02*
X127482782Y-105711764D01*
X127482782Y-105711764D02*
X127339925Y-105711764D01*
X127339925Y-105711764D02*
X127268496Y-105676050D01*
X127268496Y-105676050D02*
X127232782Y-105640335D01*
X127232782Y-105640335D02*
X127197068Y-105568907D01*
X127197068Y-105568907D02*
X127197068Y-104961764D01*
X126518497Y-105211764D02*
X126518497Y-105711764D01*
X126697068Y-104926050D02*
X126875639Y-105461764D01*
X126875639Y-105461764D02*
X126411354Y-105461764D01*
D11*
%TO.C,U3*%
X139430000Y-102340000D02*
X143430000Y-102340000D01*
X143430000Y-102340000D02*
X143430000Y-105340000D01*
X143430000Y-105340000D02*
X139430000Y-105340000D01*
X139430000Y-105340000D02*
X139430000Y-102340000D01*
D12*
%TO.C,U6*%
X138175000Y-100700000D02*
X138675000Y-101200000D01*
X138675000Y-101200000D02*
X137675000Y-101200000D01*
X137675000Y-101200000D02*
X138175000Y-100700000D01*
D11*
%TO.C,U4*%
X126180000Y-105340000D02*
X122180000Y-105340000D01*
X122180000Y-105340000D02*
X122180000Y-102340000D01*
X122180000Y-102340000D02*
X126180000Y-102340000D01*
X126180000Y-102340000D02*
X126180000Y-105340000D01*
%TD*%
%LPC*%
D13*
X124305000Y-103840000D02*
G75*
G03*
X124305000Y-103840000I-805000J0D01*
G01*
X142915000Y-103840000D02*
G75*
G03*
X142915000Y-103840000I-805000J0D01*
G01*
D14*
%TO.C,U3*%
X139930000Y-104690000D03*
X140630000Y-104690000D03*
X139930000Y-102990000D03*
X140630000Y-102990000D03*
%TD*%
D15*
%TO.C,C5*%
X126895826Y-104029634D03*
X126895826Y-104501324D03*
%TD*%
D16*
%TO.C,C4*%
X138436641Y-103288483D03*
X138908331Y-103288483D03*
%TD*%
D17*
%TO.C,U6*%
X138175000Y-99300000D03*
X138675000Y-99300000D03*
X139175000Y-99300000D03*
X139675000Y-99300000D03*
X140175000Y-99300000D03*
X140675000Y-99300000D03*
%TD*%
D18*
%TO.C,U4*%
X125680000Y-102990000D03*
X124980000Y-102990000D03*
X125680000Y-104690000D03*
X124980000Y-104690000D03*
%TD*%
D19*
%TO.C,*%
X123500000Y-103840000D03*
%TD*%
%TO.C,*%
X142110000Y-103840000D03*
%TD*%
%LPD*%
M02*
