%TF.GenerationSoftware,KiCad,Pcbnew,7.0.7*%
%TF.CreationDate,2023-11-15T15:21:09-08:00*%
%TF.ProjectId,beeper-flex,62656570-6572-42d6-966c-65782e6b6963,rev?*%
%TF.SameCoordinates,Original*%
%TF.FileFunction,Copper,L1,Top*%
%TF.FilePolarity,Positive*%
%FSLAX46Y46*%
G04 Gerber Fmt 4.6, Leading zero omitted, Abs format (unit mm)*
G04 Created by KiCad (PCBNEW 7.0.7) date 2023-11-15 15:21:09*
%MOMM*%
%LPD*%
G01*
G04 APERTURE LIST*
G04 Aperture macros list*
%AMFreePoly0*
4,1,59,0.202894,0.210017,0.397991,0.150835,0.577793,0.054728,0.735391,-0.074609,0.864728,-0.232207,0.960835,-0.412009,1.020017,-0.607106,1.040000,-0.810000,1.020017,-1.012894,0.960835,-1.207991,0.864728,-1.387793,0.735391,-1.545391,0.577793,-1.674728,0.397991,-1.770835,0.202894,-1.830017,0.000000,-1.850000,-0.202894,-1.830017,-0.397991,-1.770835,-0.577793,-1.674728,-0.735391,-1.545391,
-0.864728,-1.387793,-0.960835,-1.207991,-1.020017,-1.012894,-1.040000,-0.810000,-0.585005,-0.810000,-0.565071,-0.961410,-0.506629,-1.102503,-0.413661,-1.223661,-0.292503,-1.316629,-0.151410,-1.375071,0.000000,-1.395005,0.151410,-1.375071,0.292503,-1.316629,0.413661,-1.223661,0.506629,-1.102503,0.565071,-0.961410,0.585005,-0.810000,0.565071,-0.658590,0.506629,-0.517498,0.413661,-0.396339,
0.292503,-0.303371,0.151410,-0.244929,0.000000,-0.224995,-0.151410,-0.244929,-0.292502,-0.303371,-0.413661,-0.396339,-0.506629,-0.517498,-0.565071,-0.658590,-0.585005,-0.810000,-1.040000,-0.810000,-1.020017,-0.607106,-0.960835,-0.412009,-0.864728,-0.232207,-0.735391,-0.074609,-0.577793,0.054728,-0.397991,0.150835,-0.202894,0.210017,0.000000,0.230000,0.202894,0.210017,0.202894,0.210017,
$1*%
G04 Aperture macros list end*
%TA.AperFunction,SMDPad,CuDef*%
%ADD10R,0.480000X0.780000*%
%TD*%
%TA.AperFunction,SMDPad,CuDef*%
%ADD11FreePoly0,0.000000*%
%TD*%
%TA.AperFunction,SMDPad,CuDef*%
%ADD12FreePoly0,180.000000*%
%TD*%
%TA.AperFunction,SMDPad,CuDef*%
%ADD13R,0.330000X0.240810*%
%TD*%
%TA.AperFunction,SMDPad,CuDef*%
%ADD14R,0.300000X2.500000*%
%TD*%
%TA.AperFunction,ViaPad*%
%ADD15C,0.400000*%
%TD*%
%TA.AperFunction,Conductor*%
%ADD16C,0.090000*%
%TD*%
%TA.AperFunction,Conductor*%
%ADD17C,0.250000*%
%TD*%
G04 APERTURE END LIST*
D10*
%TO.P,U3,1*%
%TO.N,PDM_data*%
X138599000Y-101455000D03*
%TO.P,U3,2*%
%TO.N,VDDMIC*%
X139299000Y-101455000D03*
%TO.P,U3,3*%
%TO.N,PDM_clk*%
X138599000Y-103155000D03*
%TO.P,U3,4*%
%TO.N,GND*%
X139299000Y-103155000D03*
D11*
%TO.P,U3,5*%
X140779000Y-101495000D03*
%TD*%
D10*
%TO.P,U4,1*%
%TO.N,PDM_data*%
X124121000Y-103155000D03*
%TO.P,U4,2*%
%TO.N,VDDMIC*%
X123421000Y-103155000D03*
%TO.P,U4,3*%
%TO.N,PDM_clk*%
X124121000Y-101455000D03*
%TO.P,U4,4*%
%TO.N,VDDMIC*%
X123421000Y-101455000D03*
D12*
%TO.P,U4,5*%
%TO.N,GND*%
X121941000Y-103115000D03*
%TD*%
D13*
%TO.P,C5,1*%
%TO.N,GND*%
X125445826Y-102063384D03*
%TO.P,C5,2*%
%TO.N,VDDMIC*%
X125445826Y-102617574D03*
%TD*%
%TO.P,C4,1*%
%TO.N,GND*%
X137319666Y-102169468D03*
%TO.P,C4,2*%
%TO.N,VDDMIC*%
X137319666Y-102723658D03*
%TD*%
D14*
%TO.P,U6,1*%
%TO.N,PDM_clk*%
X130661441Y-99923324D03*
%TO.P,U6,2*%
%TO.N,GND*%
X130161441Y-99923324D03*
%TO.P,U6,3*%
X129661441Y-99923324D03*
%TO.P,U6,4*%
X129161441Y-99923324D03*
%TO.P,U6,5*%
%TO.N,PDM_data*%
X128661441Y-99923324D03*
%TO.P,U6,6*%
%TO.N,VDDMIC*%
X128161441Y-99923324D03*
%TD*%
D15*
%TO.N,GND*%
X130164184Y-101473324D03*
X138943429Y-102370667D03*
X136294518Y-102203980D03*
X126039418Y-102047128D03*
X136769518Y-102182105D03*
X136827034Y-101680079D03*
X139891524Y-103321887D03*
X129666275Y-101519005D03*
X126539306Y-102036519D03*
X122667555Y-103405643D03*
X122660646Y-101186514D03*
X139443329Y-102360669D03*
X137330848Y-101653562D03*
X129164591Y-101514086D03*
%TD*%
D16*
%TO.N,PDM_data*%
X124121000Y-103155000D02*
X123778611Y-102680190D01*
X123057604Y-101924632D02*
X123036812Y-101872885D01*
X123076100Y-100960100D02*
X123142604Y-100921704D01*
X123775631Y-102676109D02*
X123769163Y-102668343D01*
X123769163Y-102668343D02*
X123765688Y-102664674D01*
X123076312Y-101945326D02*
X123057604Y-101924632D01*
X123036812Y-101872885D02*
X123036000Y-101845000D01*
X123142604Y-100921704D02*
X123181000Y-100920000D01*
X123036000Y-101845000D02*
X123036000Y-101065000D01*
X123778611Y-102680190D02*
X123775631Y-102676109D01*
X123036000Y-101065000D02*
X123037704Y-101026604D01*
X123765688Y-102664674D02*
X123076312Y-101945326D01*
X124883872Y-101317872D02*
X128360296Y-101317872D01*
X123037704Y-101026604D02*
X123076100Y-100960100D01*
X123181000Y-100920000D02*
X124486000Y-100920000D01*
X128661441Y-101016727D02*
X128661441Y-99923324D01*
X124486000Y-100920000D02*
X124883872Y-101317872D01*
X128360296Y-101317872D02*
X128661441Y-101016727D01*
%TO.N,GND*%
X125445826Y-102063384D02*
X126039418Y-102047128D01*
X129161441Y-99923324D02*
X129164591Y-101514086D01*
X137319666Y-102169468D02*
X137330848Y-101653562D01*
X122475776Y-101646693D02*
X122660646Y-101186514D01*
X139443329Y-102360669D02*
X138943429Y-102370667D01*
X129661441Y-99923324D02*
X129666275Y-101519005D01*
X126039418Y-102047128D02*
X126539306Y-102036519D01*
D17*
X139299000Y-103155000D02*
X139443329Y-102360669D01*
D16*
X137319666Y-102169468D02*
X136769518Y-102182105D01*
X139299000Y-103155000D02*
X139891524Y-103321887D01*
X137319666Y-102169468D02*
X136827034Y-101680079D01*
X122789432Y-102298244D02*
X122667555Y-103405643D01*
X139974980Y-102282557D02*
X139443329Y-102360669D01*
X130161441Y-99923324D02*
X130164184Y-101473324D01*
X136769518Y-102182105D02*
X136294518Y-102203980D01*
%TO.N,PDM_clk*%
X136301188Y-102548827D02*
X136776188Y-102526952D01*
X129152998Y-101858621D02*
X124121000Y-101455000D01*
X129664853Y-101863998D02*
X129163169Y-101859079D01*
X131962421Y-100900192D02*
X132104235Y-100990119D01*
X136850264Y-102517364D02*
X137125683Y-102461180D01*
X130177431Y-101817718D02*
X129679522Y-101863398D01*
X130393876Y-101729782D02*
X130352454Y-101761566D01*
X130507944Y-101492251D02*
X130501129Y-101544015D01*
X132147349Y-101011612D02*
X136191704Y-102532882D01*
X130234874Y-101810269D02*
X130183110Y-101817084D01*
X136788444Y-102525865D02*
X136840208Y-102519050D01*
X130661441Y-99923324D02*
X131947080Y-100889587D01*
X130319673Y-101780492D02*
X130271437Y-101800472D01*
X130661441Y-99923324D02*
X130508496Y-101487436D01*
X137154666Y-102458254D02*
X137484666Y-102458254D01*
X130491332Y-101580577D02*
X130471352Y-101628814D01*
X136223827Y-102540925D02*
X136275591Y-102547740D01*
X137563720Y-102481699D02*
X138599000Y-103155000D01*
X130452425Y-101661595D02*
X130420642Y-101703016D01*
X136275591Y-102547743D02*
G75*
G03*
X136301188Y-102548827I18909J143743D01*
G01*
X130234873Y-101810262D02*
G75*
G03*
X130271437Y-101800472I-18873J143662D01*
G01*
X132104234Y-100990121D02*
G75*
G03*
X132147349Y-101011611I125866J198521D01*
G01*
X130319670Y-101780485D02*
G75*
G03*
X130352454Y-101761566I-55470J133985D01*
G01*
X137563725Y-102481691D02*
G75*
G03*
X137484666Y-102458254I-79025J-121509D01*
G01*
X130507945Y-101492251D02*
G75*
G03*
X130508496Y-101487436I-144445J18951D01*
G01*
X130177431Y-101817718D02*
G75*
G03*
X130183110Y-101817083I-13231J144118D01*
G01*
X137154666Y-102458246D02*
G75*
G03*
X137125683Y-102461180I34J-144954D01*
G01*
X130491339Y-101580580D02*
G75*
G03*
X130501129Y-101544015I-134039J55480D01*
G01*
X129152998Y-101858623D02*
G75*
G03*
X129163169Y-101859079I11602J145023D01*
G01*
X136191706Y-102532876D02*
G75*
G03*
X136223827Y-102540925I51094J135776D01*
G01*
X136776188Y-102526948D02*
G75*
G03*
X136788444Y-102525864I-6688J145448D01*
G01*
X130393871Y-101729776D02*
G75*
G03*
X130420642Y-101703016I-88271J115076D01*
G01*
X129664853Y-101863995D02*
G75*
G03*
X129679522Y-101863397I1447J144795D01*
G01*
X131947079Y-100889588D02*
G75*
G03*
X131962421Y-100900192I140921J187488D01*
G01*
X130452419Y-101661591D02*
G75*
G03*
X130471351Y-101628814I-115019J88291D01*
G01*
X136840208Y-102519051D02*
G75*
G03*
X136850264Y-102517363I-18808J142851D01*
G01*
%TO.N,PDM_data*%
X140875095Y-101134057D02*
X140785325Y-101130138D01*
X139539000Y-101990000D02*
X139059000Y-101990000D01*
X140371230Y-101203154D02*
X140288214Y-101237540D01*
X141371908Y-103319298D02*
X141447692Y-103271018D01*
X141949943Y-102401095D02*
X141953862Y-102311325D01*
X141539032Y-103200931D02*
X141605281Y-103140225D01*
X141269786Y-101237540D02*
X141186770Y-101203154D01*
X141360954Y-101284377D02*
X141281250Y-101242886D01*
X140276750Y-101242886D02*
X140197046Y-101284377D01*
X141529342Y-101400938D02*
X141458054Y-101346237D01*
X138359000Y-103690000D02*
X139539000Y-103690000D01*
X141605281Y-101469775D02*
X141539032Y-101409069D01*
X141281250Y-103367114D02*
X141360954Y-103325623D01*
X141745018Y-102973692D02*
X141793298Y-102897908D01*
X141076967Y-101168533D02*
X140989241Y-101149085D01*
X139943775Y-101478719D02*
X139883069Y-101544968D01*
X140568759Y-101149085D02*
X140481033Y-101168533D01*
X141737763Y-101625946D02*
X141683062Y-101554658D01*
X141186770Y-103406846D02*
X141269786Y-103372460D01*
X141934915Y-102094759D02*
X141915467Y-102007033D01*
X140976784Y-101146889D02*
X140887697Y-101135160D01*
X141089186Y-103438193D02*
X141174883Y-103411172D01*
X140772675Y-101130138D02*
X140682905Y-101134057D01*
X141447692Y-101338982D02*
X141371908Y-101290702D01*
X141885172Y-102700883D02*
X141912193Y-102615186D01*
X141614225Y-103131281D02*
X141674931Y-103065032D01*
X139970753Y-103657447D02*
X140985323Y-103461727D01*
X140670303Y-101135160D02*
X140581216Y-101146889D01*
X140186092Y-101290702D02*
X140110308Y-101338982D01*
X141174883Y-101198828D02*
X141089186Y-101171807D01*
X141799623Y-102886954D02*
X141841114Y-102807250D01*
X139713069Y-101810659D02*
X139671434Y-101904044D01*
X139812982Y-101636308D02*
X139764702Y-101712092D01*
X141937111Y-102502784D02*
X141948840Y-102413697D01*
X124121000Y-103155000D02*
X138353554Y-103689898D01*
X141912193Y-101994814D02*
X141885172Y-101909117D01*
X138941389Y-101929810D02*
X138599000Y-101455000D01*
X139910450Y-103665646D02*
X139962214Y-103658831D01*
X141683062Y-103055342D02*
X141737763Y-102984054D01*
X141948840Y-102196303D02*
X141937111Y-102107216D01*
X141793298Y-101712092D02*
X141745018Y-101636308D01*
X141458054Y-103263763D02*
X141529342Y-103209062D01*
X139548487Y-103689689D02*
X139901010Y-103666576D01*
X141880846Y-101897230D02*
X141846460Y-101814214D01*
X141953862Y-102298675D02*
X141949943Y-102208905D01*
X140099946Y-101346237D02*
X140028658Y-101400938D01*
X140018968Y-101409069D02*
X139952719Y-101469775D01*
X141841114Y-101802750D02*
X141799623Y-101723046D01*
X141674931Y-101544968D02*
X141614225Y-101478719D01*
X141915467Y-102602967D02*
X141934915Y-102515241D01*
X141846460Y-102795786D02*
X141880846Y-102712770D01*
X140989241Y-103460915D02*
X141076967Y-103441467D01*
X140468814Y-101171807D02*
X140383117Y-101198828D01*
X139874938Y-101554658D02*
X139820237Y-101625946D01*
X139758377Y-101723046D02*
X139716886Y-101802750D01*
X141799622Y-101723046D02*
G75*
G03*
X141793298Y-101712092I-128622J-66954D01*
G01*
X138353554Y-103689896D02*
G75*
G03*
X138359000Y-103690000I5546J148296D01*
G01*
X139952719Y-101469775D02*
G75*
G03*
X139943775Y-101478719I98581J-107525D01*
G01*
X141674929Y-103065031D02*
G75*
G03*
X141683062Y-103055342I-107429J98431D01*
G01*
X139883071Y-101544969D02*
G75*
G03*
X139874938Y-101554658I107429J-98431D01*
G01*
X141174884Y-103411174D02*
G75*
G03*
X141186770Y-103406845I-43484J137874D01*
G01*
X140481034Y-101168535D02*
G75*
G03*
X140468814Y-101171807I31466J-141965D01*
G01*
X141281250Y-101242887D02*
G75*
G03*
X141269786Y-101237540I-67050J-128813D01*
G01*
X139962214Y-103658831D02*
G75*
G03*
X139970753Y-103657446I-18814J143031D01*
G01*
X141089186Y-101171806D02*
G75*
G03*
X141076967Y-101168534I-43686J-138694D01*
G01*
X141539031Y-101409071D02*
G75*
G03*
X141529342Y-101400938I-98431J-107429D01*
G01*
X140581216Y-101146890D02*
G75*
G03*
X140568759Y-101149085I18884J-143610D01*
G01*
X140985323Y-103461727D02*
G75*
G03*
X140989241Y-103460914I-28523J147327D01*
G01*
X141953862Y-102311325D02*
G75*
G03*
X141953862Y-102298675I-144862J6325D01*
G01*
X141737763Y-102984054D02*
G75*
G03*
X141745017Y-102973692I-114763J88054D01*
G01*
X139539000Y-103689999D02*
G75*
G03*
X139548487Y-103689689I0J145299D01*
G01*
X138941389Y-101929810D02*
G75*
G03*
X139059000Y-101990000I117611J84810D01*
G01*
X141793298Y-102897908D02*
G75*
G03*
X141799622Y-102886954I-122298J77908D01*
G01*
X141948842Y-102413697D02*
G75*
G03*
X141949942Y-102401095I-143742J18897D01*
G01*
X141915465Y-102007034D02*
G75*
G03*
X141912193Y-101994814I-141965J-31466D01*
G01*
X141841113Y-102807250D02*
G75*
G03*
X141846460Y-102795786I-128813J67050D01*
G01*
X141076966Y-103441465D02*
G75*
G03*
X141089186Y-103438193I-31466J141965D01*
G01*
X141605281Y-103140225D02*
G75*
G03*
X141614225Y-103131281I-98581J107525D01*
G01*
X141529343Y-103209063D02*
G75*
G03*
X141539032Y-103200931I-88743J115563D01*
G01*
X140785325Y-101130139D02*
G75*
G03*
X140772675Y-101130139I-6325J-144878D01*
G01*
X140110309Y-101338984D02*
G75*
G03*
X140099946Y-101346237I77691J-122016D01*
G01*
X141371908Y-101290702D02*
G75*
G03*
X141360954Y-101284378I-77908J-122298D01*
G01*
X139820237Y-101625946D02*
G75*
G03*
X139812983Y-101636308I114763J-88054D01*
G01*
X139901010Y-103666575D02*
G75*
G03*
X139910450Y-103665646I-9510J144975D01*
G01*
X141912194Y-102615186D02*
G75*
G03*
X141915466Y-102602967I-138694J43686D01*
G01*
X141949939Y-102208905D02*
G75*
G03*
X141948839Y-102196303I-144839J-6295D01*
G01*
X141186769Y-101203157D02*
G75*
G03*
X141174883Y-101198828I-55369J-133543D01*
G01*
X139764702Y-101712092D02*
G75*
G03*
X139758378Y-101723046I122298J-77908D01*
G01*
X141447691Y-103271016D02*
G75*
G03*
X141458054Y-103263763I-77691J122016D01*
G01*
X140288214Y-101237540D02*
G75*
G03*
X140276750Y-101242887I55586J-134160D01*
G01*
X140989241Y-101149084D02*
G75*
G03*
X140976784Y-101146889I-31341J-141416D01*
G01*
X141880843Y-102712769D02*
G75*
G03*
X141885172Y-102700883I-133543J55369D01*
G01*
X141745016Y-101636309D02*
G75*
G03*
X141737763Y-101625946I-122016J-77691D01*
G01*
X141269786Y-103372460D02*
G75*
G03*
X141281250Y-103367113I-55586J134160D01*
G01*
X140197046Y-101284378D02*
G75*
G03*
X140186092Y-101290702I66954J-128622D01*
G01*
X141360954Y-103325622D02*
G75*
G03*
X141371908Y-103319298I-66954J128622D01*
G01*
X140887697Y-101135158D02*
G75*
G03*
X140875095Y-101134058I-18897J-143742D01*
G01*
X141937110Y-102107216D02*
G75*
G03*
X141934915Y-102094759I-143610J-18884D01*
G01*
X141885174Y-101909116D02*
G75*
G03*
X141880845Y-101897230I-137874J-43484D01*
G01*
X141458054Y-101346237D02*
G75*
G03*
X141447692Y-101338983I-88054J-114763D01*
G01*
X141934916Y-102515241D02*
G75*
G03*
X141937111Y-102502784I-141416J31341D01*
G01*
X140028657Y-101400937D02*
G75*
G03*
X140018968Y-101409069I88743J-115563D01*
G01*
X141614225Y-101478719D02*
G75*
G03*
X141605281Y-101469775I-107525J-98581D01*
G01*
X141683063Y-101554657D02*
G75*
G03*
X141674931Y-101544968I-115563J-88743D01*
G01*
X139716887Y-101802750D02*
G75*
G03*
X139713069Y-101810659I128813J-67050D01*
G01*
X140682905Y-101134061D02*
G75*
G03*
X140670303Y-101135161I6295J-144839D01*
G01*
X139539000Y-101989999D02*
G75*
G03*
X139671433Y-101904044I0J144999D01*
G01*
X141846460Y-101814214D02*
G75*
G03*
X141841113Y-101802750I-134160J-55586D01*
G01*
X140383116Y-101198826D02*
G75*
G03*
X140371230Y-101203155I43484J-137874D01*
G01*
%TD*%
%TA.AperFunction,Conductor*%
%TO.N,VDDMIC*%
G36*
X128386840Y-98868229D02*
G01*
X128390941Y-98878128D01*
X128390941Y-101047377D01*
X128386840Y-101057276D01*
X128295845Y-101148271D01*
X128285946Y-101152372D01*
X124958222Y-101152372D01*
X124948323Y-101148271D01*
X124614563Y-100814511D01*
X124612940Y-100812565D01*
X124599031Y-100792414D01*
X124599029Y-100792413D01*
X124593395Y-100789456D01*
X124567530Y-100775881D01*
X124567165Y-100775675D01*
X124536711Y-100757265D01*
X124536706Y-100757264D01*
X124534454Y-100757128D01*
X124528795Y-100755551D01*
X124526792Y-100754500D01*
X124526790Y-100754500D01*
X124491203Y-100754500D01*
X124490789Y-100754487D01*
X124484886Y-100754130D01*
X124455279Y-100752338D01*
X124455271Y-100752340D01*
X124453212Y-100753267D01*
X124447468Y-100754500D01*
X123221043Y-100754500D01*
X123215096Y-100753174D01*
X123214414Y-100752854D01*
X123214412Y-100752853D01*
X123214411Y-100752853D01*
X123177329Y-100754500D01*
X123160905Y-100754500D01*
X123158638Y-100755058D01*
X123155914Y-100755450D01*
X123135587Y-100756352D01*
X123095180Y-100757981D01*
X123078405Y-100767665D01*
X123075356Y-100768971D01*
X123056778Y-100774433D01*
X123043398Y-100787390D01*
X123040659Y-100789456D01*
X123028356Y-100796559D01*
X123022489Y-100798389D01*
X123022124Y-100798418D01*
X123022123Y-100798418D01*
X122990469Y-100818435D01*
X122975948Y-100826818D01*
X122975944Y-100826821D01*
X122974529Y-100828181D01*
X122972316Y-100829914D01*
X122953170Y-100842021D01*
X122953168Y-100842024D01*
X122945506Y-100855292D01*
X122943082Y-100858386D01*
X122932034Y-100868998D01*
X122924859Y-100890489D01*
X122923704Y-100893055D01*
X122894783Y-100943146D01*
X122886282Y-100949669D01*
X122875659Y-100948270D01*
X122873660Y-100946871D01*
X122863648Y-100938470D01*
X122823368Y-100904671D01*
X122764924Y-100883399D01*
X122717160Y-100866014D01*
X122717159Y-100866014D01*
X122604133Y-100866014D01*
X122604131Y-100866014D01*
X122497924Y-100904671D01*
X122411338Y-100977325D01*
X122354828Y-101075206D01*
X122335202Y-101186512D01*
X122335202Y-101186517D01*
X122335506Y-101188242D01*
X122333187Y-101198703D01*
X122324149Y-101204459D01*
X122317655Y-101204069D01*
X122180547Y-101162478D01*
X122180538Y-101162476D01*
X122156920Y-101157779D01*
X122111612Y-101153316D01*
X121953042Y-101137699D01*
X121928958Y-101137699D01*
X121786244Y-101151755D01*
X121725079Y-101157779D01*
X121701461Y-101162476D01*
X121701452Y-101162478D01*
X121505417Y-101221945D01*
X121505412Y-101221947D01*
X121483170Y-101231160D01*
X121302495Y-101327733D01*
X121282471Y-101341113D01*
X121124106Y-101471080D01*
X121124094Y-101471091D01*
X121107091Y-101488094D01*
X121107080Y-101488106D01*
X120977113Y-101646471D01*
X120963733Y-101666495D01*
X120867160Y-101847170D01*
X120857947Y-101869412D01*
X120857945Y-101869417D01*
X120798478Y-102065452D01*
X120798476Y-102065461D01*
X120793779Y-102089079D01*
X120773698Y-102292964D01*
X120773699Y-102317026D01*
X120773698Y-102317034D01*
X120793779Y-102520919D01*
X120798476Y-102544538D01*
X120798478Y-102544547D01*
X120857945Y-102740582D01*
X120857947Y-102740587D01*
X120867160Y-102762829D01*
X120963224Y-102942552D01*
X120963734Y-102943505D01*
X120977115Y-102963531D01*
X121107078Y-103121891D01*
X121107080Y-103121893D01*
X121107091Y-103121905D01*
X121124094Y-103138908D01*
X121124106Y-103138919D01*
X121124109Y-103138922D01*
X121282469Y-103268885D01*
X121302495Y-103282266D01*
X121483168Y-103378838D01*
X121505419Y-103388055D01*
X121629103Y-103425574D01*
X121698699Y-103446686D01*
X121701459Y-103447523D01*
X121725082Y-103452221D01*
X121928958Y-103472301D01*
X121928965Y-103472301D01*
X121953035Y-103472301D01*
X121953042Y-103472301D01*
X122156918Y-103452221D01*
X122180541Y-103447523D01*
X122325808Y-103403456D01*
X122336470Y-103404506D01*
X122343268Y-103412789D01*
X122343658Y-103414422D01*
X122361737Y-103516950D01*
X122418247Y-103614831D01*
X122418249Y-103614833D01*
X122418250Y-103614834D01*
X122504833Y-103687486D01*
X122611042Y-103726143D01*
X122611043Y-103726143D01*
X122724067Y-103726143D01*
X122724068Y-103726143D01*
X122830277Y-103687486D01*
X122916860Y-103614834D01*
X122927318Y-103596721D01*
X122936488Y-103580837D01*
X122973372Y-103516951D01*
X122987530Y-103436661D01*
X122992999Y-103405644D01*
X122992999Y-103405641D01*
X122973372Y-103294335D01*
X122949689Y-103253315D01*
X122916860Y-103196452D01*
X122912874Y-103193107D01*
X122867867Y-103155340D01*
X122862919Y-103145836D01*
X122862950Y-103143085D01*
X122863408Y-103138922D01*
X122878822Y-102998865D01*
X122881913Y-102991520D01*
X122904885Y-102963531D01*
X122918266Y-102943505D01*
X123014838Y-102762832D01*
X123024055Y-102740581D01*
X123083523Y-102544541D01*
X123088221Y-102520918D01*
X123108301Y-102317042D01*
X123108356Y-102315935D01*
X123108511Y-102312766D01*
X123108893Y-102305000D01*
X123108107Y-102301055D01*
X123107907Y-102296948D01*
X123108010Y-102295904D01*
X123108301Y-102292958D01*
X123104028Y-102249585D01*
X123107139Y-102239334D01*
X123116588Y-102234282D01*
X123126842Y-102237393D01*
X123128069Y-102238528D01*
X123644872Y-102777801D01*
X123645497Y-102778551D01*
X123728682Y-102893908D01*
X123745457Y-102917171D01*
X123757855Y-102934363D01*
X123760499Y-102942552D01*
X123760499Y-103556869D01*
X123767490Y-103592015D01*
X123767490Y-103592016D01*
X123767491Y-103592017D01*
X123794124Y-103631876D01*
X123833983Y-103658509D01*
X123869130Y-103665500D01*
X124372870Y-103665500D01*
X124408017Y-103658509D01*
X124447876Y-103631876D01*
X124474509Y-103592017D01*
X124481500Y-103556870D01*
X124481500Y-103348699D01*
X124485601Y-103338801D01*
X124495500Y-103334700D01*
X124495976Y-103334709D01*
X134911232Y-103726143D01*
X137448747Y-103821510D01*
X137458485Y-103825979D01*
X137462211Y-103836026D01*
X137457742Y-103845764D01*
X137448221Y-103849500D01*
X120554500Y-103849500D01*
X120544601Y-103845399D01*
X120540500Y-103835500D01*
X120540500Y-100624500D01*
X120544601Y-100614601D01*
X120554500Y-100610500D01*
X125380371Y-100610500D01*
X125380373Y-100610501D01*
X125415950Y-100610500D01*
X125416595Y-100610530D01*
X125569007Y-100624981D01*
X125571604Y-100625477D01*
X125717630Y-100668043D01*
X125720085Y-100669019D01*
X125855501Y-100738277D01*
X125857716Y-100739688D01*
X125952593Y-100813608D01*
X125966554Y-100824485D01*
X125969472Y-100827576D01*
X125973225Y-100833014D01*
X125979343Y-100841877D01*
X125994862Y-100850022D01*
X125997987Y-100852258D01*
X126030827Y-100883401D01*
X126156871Y-100952174D01*
X126156872Y-100952174D01*
X126156874Y-100952175D01*
X126282127Y-100983159D01*
X126295159Y-100986383D01*
X126296251Y-100986653D01*
X126296255Y-100986654D01*
X126439826Y-100984576D01*
X126578154Y-100946077D01*
X126578156Y-100946076D01*
X126578158Y-100946075D01*
X126668977Y-100893055D01*
X126702155Y-100873686D01*
X126803686Y-100772155D01*
X126864238Y-100668434D01*
X126876075Y-100648158D01*
X126876076Y-100648156D01*
X126876077Y-100648154D01*
X126914576Y-100509826D01*
X126916654Y-100366255D01*
X126914980Y-100359486D01*
X126882175Y-100226874D01*
X126882174Y-100226872D01*
X126882174Y-100226871D01*
X126813401Y-100100827D01*
X126774079Y-100059364D01*
X126772717Y-100057685D01*
X126756002Y-100033468D01*
X126752091Y-100031416D01*
X126747552Y-100027623D01*
X126669702Y-99927703D01*
X126668282Y-99925474D01*
X126599022Y-99790066D01*
X126598046Y-99787610D01*
X126587846Y-99752629D01*
X126555469Y-99641588D01*
X126554974Y-99639002D01*
X126540530Y-99486799D01*
X126540500Y-99486150D01*
X126540500Y-98878128D01*
X126544601Y-98868229D01*
X126554500Y-98864128D01*
X128376941Y-98864128D01*
X128386840Y-98868229D01*
G37*
%TD.AperFunction*%
%TA.AperFunction,Conductor*%
G36*
X142175399Y-100614601D02*
G01*
X142179500Y-100624500D01*
X142179500Y-103835500D01*
X142175399Y-103845399D01*
X142165500Y-103849500D01*
X139995474Y-103849500D01*
X139985575Y-103845399D01*
X139981474Y-103835500D01*
X139985575Y-103825601D01*
X139993648Y-103821620D01*
X140003736Y-103820293D01*
X140003736Y-103820292D01*
X140003740Y-103820292D01*
X140005869Y-103819459D01*
X140008305Y-103818754D01*
X140978036Y-103631684D01*
X140978258Y-103631667D01*
X140979693Y-103631389D01*
X140979695Y-103631390D01*
X140979885Y-103631353D01*
X140983532Y-103631488D01*
X140983537Y-103631281D01*
X140985236Y-103631321D01*
X141020865Y-103623422D01*
X141036403Y-103620425D01*
X141036892Y-103620199D01*
X141039724Y-103619244D01*
X141061900Y-103614335D01*
X141061901Y-103614333D01*
X141063575Y-103613963D01*
X141063651Y-103613936D01*
X141091251Y-103607817D01*
X141096758Y-103607707D01*
X141100049Y-103608299D01*
X141100049Y-103608298D01*
X141100050Y-103608299D01*
X141125737Y-103600199D01*
X141126312Y-103600045D01*
X141132406Y-103598695D01*
X141134768Y-103597524D01*
X141136762Y-103596723D01*
X141138908Y-103596047D01*
X141174937Y-103584699D01*
X141174936Y-103584699D01*
X141176493Y-103584209D01*
X141176587Y-103584165D01*
X141187124Y-103580843D01*
X141187156Y-103580837D01*
X141203609Y-103575648D01*
X141209085Y-103575056D01*
X141212417Y-103575359D01*
X141237315Y-103565044D01*
X141237855Y-103564847D01*
X141243816Y-103562969D01*
X141246058Y-103561602D01*
X141247973Y-103560629D01*
X141296589Y-103540492D01*
X141296622Y-103540484D01*
X141298237Y-103539815D01*
X141312741Y-103533804D01*
X141318147Y-103532738D01*
X141321486Y-103532750D01*
X141345390Y-103520305D01*
X141345904Y-103520066D01*
X141351685Y-103517672D01*
X141353797Y-103516117D01*
X141355627Y-103514977D01*
X141357664Y-103513917D01*
X141391171Y-103496476D01*
X141391171Y-103496474D01*
X141393129Y-103495456D01*
X141393131Y-103495453D01*
X141417808Y-103482607D01*
X141423095Y-103481076D01*
X141426428Y-103480797D01*
X141449147Y-103466322D01*
X141449635Y-103466039D01*
X141455198Y-103463145D01*
X141457175Y-103461404D01*
X141458894Y-103460113D01*
X141471283Y-103452221D01*
X141478657Y-103447523D01*
X141492686Y-103438586D01*
X141492686Y-103438585D01*
X141495707Y-103436661D01*
X141495708Y-103436659D01*
X141518010Y-103422451D01*
X141523138Y-103420466D01*
X141526441Y-103419896D01*
X141547821Y-103403489D01*
X141548293Y-103403158D01*
X141553563Y-103399802D01*
X141555373Y-103397903D01*
X141556970Y-103396469D01*
X141558799Y-103395067D01*
X141567937Y-103388056D01*
X141590023Y-103371109D01*
X141590028Y-103371103D01*
X141598821Y-103364355D01*
X141598927Y-103364293D01*
X141600179Y-103363331D01*
X141600181Y-103363331D01*
X141612608Y-103353787D01*
X141617555Y-103351357D01*
X141620767Y-103350509D01*
X141640634Y-103332302D01*
X141641079Y-103331929D01*
X141646034Y-103328129D01*
X141647670Y-103326082D01*
X141649140Y-103324509D01*
X141650836Y-103322956D01*
X141678687Y-103297438D01*
X141678687Y-103297437D01*
X141680198Y-103296053D01*
X141680208Y-103296041D01*
X141688013Y-103288888D01*
X141688080Y-103288841D01*
X141689278Y-103287742D01*
X141689280Y-103287742D01*
X141700840Y-103277142D01*
X141705549Y-103274295D01*
X141708686Y-103273166D01*
X141726884Y-103253305D01*
X141727296Y-103252893D01*
X141731907Y-103248669D01*
X141733363Y-103246480D01*
X141734693Y-103244784D01*
X141762837Y-103214086D01*
X141762887Y-103214014D01*
X141769926Y-103206331D01*
X141769940Y-103206321D01*
X141771436Y-103204687D01*
X141771438Y-103204687D01*
X141782048Y-103193105D01*
X141786497Y-103189855D01*
X141789530Y-103188454D01*
X141805942Y-103167063D01*
X141806304Y-103166632D01*
X141810526Y-103162027D01*
X141811781Y-103159728D01*
X141812956Y-103157922D01*
X141814325Y-103156141D01*
X141837331Y-103126181D01*
X141837331Y-103126177D01*
X141838294Y-103124924D01*
X141838354Y-103124823D01*
X141846070Y-103114768D01*
X141846072Y-103114768D01*
X141855635Y-103102302D01*
X141859781Y-103098679D01*
X141862681Y-103097019D01*
X141877145Y-103074314D01*
X141877487Y-103073823D01*
X141881296Y-103068862D01*
X141882356Y-103066439D01*
X141883366Y-103064547D01*
X141884622Y-103062580D01*
X141885105Y-103061819D01*
X141910658Y-103021708D01*
X141910660Y-103021707D01*
X141912585Y-103018686D01*
X141912586Y-103018686D01*
X141921024Y-103005438D01*
X141924841Y-103001466D01*
X141925796Y-103000801D01*
X141927588Y-102999556D01*
X141940036Y-102975640D01*
X141940318Y-102975152D01*
X141943676Y-102969884D01*
X141944511Y-102967407D01*
X141945358Y-102965421D01*
X141956766Y-102943505D01*
X141961525Y-102934363D01*
X141969656Y-102918741D01*
X141969662Y-102918733D01*
X141970474Y-102917171D01*
X141970476Y-102917171D01*
X141977729Y-102903235D01*
X141981183Y-102898947D01*
X141983752Y-102896807D01*
X141994068Y-102871899D01*
X141994316Y-102871369D01*
X141997193Y-102865844D01*
X141997811Y-102863294D01*
X141998479Y-102861248D01*
X141999356Y-102859135D01*
X142013815Y-102824237D01*
X142013814Y-102824235D01*
X142014486Y-102822616D01*
X142014493Y-102822588D01*
X142025305Y-102796483D01*
X142028371Y-102791911D01*
X142030745Y-102789555D01*
X142038843Y-102763868D01*
X142039044Y-102763315D01*
X142041438Y-102757538D01*
X142041832Y-102754939D01*
X142042321Y-102752838D01*
X142045140Y-102743903D01*
X142047742Y-102735648D01*
X142054370Y-102714637D01*
X142054369Y-102714633D01*
X142054863Y-102713068D01*
X142054865Y-102713056D01*
X142058168Y-102702580D01*
X142058209Y-102702490D01*
X142058697Y-102700938D01*
X142058699Y-102700937D01*
X142062031Y-102690357D01*
X142063409Y-102685982D01*
X142066070Y-102681150D01*
X142066611Y-102680510D01*
X142068215Y-102678612D01*
X142074043Y-102652317D01*
X142074198Y-102651744D01*
X142076074Y-102645796D01*
X142076074Y-102645794D01*
X142076076Y-102645789D01*
X142076242Y-102643171D01*
X142076546Y-102641035D01*
X142077308Y-102637601D01*
X142082240Y-102615348D01*
X142087884Y-102589887D01*
X142087890Y-102589871D01*
X142088319Y-102587931D01*
X142088321Y-102587930D01*
X142091719Y-102572592D01*
X142093944Y-102567559D01*
X142095870Y-102564830D01*
X142099384Y-102538131D01*
X142099489Y-102537536D01*
X142099975Y-102535346D01*
X142100841Y-102531442D01*
X142100778Y-102528814D01*
X142100894Y-102526663D01*
X142101198Y-102524361D01*
X142101651Y-102520918D01*
X142107775Y-102474397D01*
X142107790Y-102474345D01*
X142108003Y-102472722D01*
X142108004Y-102472721D01*
X142110049Y-102457159D01*
X142111827Y-102451949D01*
X142113506Y-102449066D01*
X142114578Y-102424500D01*
X142114680Y-102422160D01*
X142114733Y-102421549D01*
X142115547Y-102415377D01*
X142115256Y-102412771D01*
X142115184Y-102410614D01*
X142117918Y-102348022D01*
X142117998Y-102346191D01*
X142118228Y-102340904D01*
X142118240Y-102340621D01*
X142119559Y-102335236D01*
X142120984Y-102332210D01*
X142120273Y-102315935D01*
X142119809Y-102305301D01*
X142119809Y-102304689D01*
X142120081Y-102298466D01*
X142119776Y-102296948D01*
X142119565Y-102295896D01*
X142119305Y-102293767D01*
X142116247Y-102223720D01*
X142117094Y-102218282D01*
X142118249Y-102215143D01*
X142114733Y-102188440D01*
X142114681Y-102187841D01*
X142114409Y-102181613D01*
X142114409Y-102181611D01*
X142113667Y-102179083D01*
X142113224Y-102176985D01*
X142113011Y-102175367D01*
X142112928Y-102174727D01*
X142109391Y-102147827D01*
X142108004Y-102137279D01*
X142108003Y-102137278D01*
X142107790Y-102135655D01*
X142107775Y-102135595D01*
X142104074Y-102107484D01*
X142104443Y-102101994D01*
X142105321Y-102098764D01*
X142099486Y-102072448D01*
X142099387Y-102071891D01*
X142098572Y-102065690D01*
X142097615Y-102063243D01*
X142096990Y-102061189D01*
X142094507Y-102049982D01*
X142088321Y-102022070D01*
X142088320Y-102022069D01*
X142087891Y-102020130D01*
X142087883Y-102020111D01*
X142082271Y-101994791D01*
X142081818Y-101992747D01*
X142081707Y-101987239D01*
X142082299Y-101983950D01*
X142074201Y-101958267D01*
X142074044Y-101957680D01*
X142072695Y-101951594D01*
X142071530Y-101949241D01*
X142070722Y-101947233D01*
X142070047Y-101945090D01*
X142059194Y-101910635D01*
X142058699Y-101909063D01*
X142058698Y-101909062D01*
X142058237Y-101907597D01*
X142058192Y-101907495D01*
X142057639Y-101905740D01*
X142054865Y-101896944D01*
X142054863Y-101896931D01*
X142054369Y-101895366D01*
X142054370Y-101895363D01*
X142049645Y-101880383D01*
X142049056Y-101874910D01*
X142049359Y-101871584D01*
X142039049Y-101846694D01*
X142038840Y-101846119D01*
X142036970Y-101840188D01*
X142036969Y-101840184D01*
X142035600Y-101837937D01*
X142034625Y-101836015D01*
X142023921Y-101810172D01*
X142014512Y-101787457D01*
X142014506Y-101787433D01*
X142013814Y-101785764D01*
X142013815Y-101785763D01*
X142007803Y-101771254D01*
X142006738Y-101765851D01*
X142006750Y-101762514D01*
X141994314Y-101738625D01*
X141994055Y-101738070D01*
X141991673Y-101732317D01*
X141991671Y-101732313D01*
X141990117Y-101730201D01*
X141988975Y-101728368D01*
X141982547Y-101716019D01*
X141969986Y-101691887D01*
X141969976Y-101691871D01*
X141963163Y-101678784D01*
X141956607Y-101666189D01*
X141955075Y-101660902D01*
X141954796Y-101657572D01*
X141940320Y-101634850D01*
X141940031Y-101634347D01*
X141937145Y-101628802D01*
X141937142Y-101628799D01*
X141937142Y-101628798D01*
X141937141Y-101628797D01*
X141935403Y-101626821D01*
X141934108Y-101625098D01*
X141932882Y-101623173D01*
X141912586Y-101591314D01*
X141912584Y-101591312D01*
X141896451Y-101565989D01*
X141894465Y-101560856D01*
X141893895Y-101557558D01*
X141883602Y-101544144D01*
X141877494Y-101536184D01*
X141877143Y-101535683D01*
X141873801Y-101530435D01*
X141871910Y-101528632D01*
X141870465Y-101527023D01*
X141869067Y-101525201D01*
X141845661Y-101494696D01*
X141845646Y-101494679D01*
X141845071Y-101493930D01*
X141838345Y-101485163D01*
X141838279Y-101485053D01*
X141827788Y-101471390D01*
X141825357Y-101466440D01*
X141824510Y-101463237D01*
X141824509Y-101463233D01*
X141806309Y-101443371D01*
X141805931Y-101442921D01*
X141802129Y-101437966D01*
X141802127Y-101437964D01*
X141801431Y-101437408D01*
X141800079Y-101436326D01*
X141798509Y-101434859D01*
X141796956Y-101433164D01*
X141775527Y-101409776D01*
X141770380Y-101404158D01*
X141770366Y-101404146D01*
X141762890Y-101395988D01*
X141762837Y-101395914D01*
X141751146Y-101383162D01*
X141748293Y-101378444D01*
X141747166Y-101375314D01*
X141747165Y-101375313D01*
X141727309Y-101357118D01*
X141726877Y-101356686D01*
X141726493Y-101356267D01*
X141722668Y-101352093D01*
X141720482Y-101350637D01*
X141718788Y-101349310D01*
X141718132Y-101348709D01*
X141688190Y-101321259D01*
X141688117Y-101321205D01*
X141680210Y-101313960D01*
X141680198Y-101313945D01*
X141667105Y-101301949D01*
X141663855Y-101297502D01*
X141662454Y-101294470D01*
X141648709Y-101283923D01*
X141641084Y-101278072D01*
X141640616Y-101277679D01*
X141638535Y-101275772D01*
X141636027Y-101273474D01*
X141636025Y-101273473D01*
X141636023Y-101273471D01*
X141633722Y-101272213D01*
X141631918Y-101271038D01*
X141630143Y-101269676D01*
X141599009Y-101245769D01*
X141598899Y-101245702D01*
X141590034Y-101238900D01*
X141590027Y-101238892D01*
X141576305Y-101228365D01*
X141572680Y-101224219D01*
X141571019Y-101221318D01*
X141571017Y-101221317D01*
X141571017Y-101221316D01*
X141554329Y-101210685D01*
X141548303Y-101206846D01*
X141547812Y-101206502D01*
X141542862Y-101202705D01*
X141542861Y-101202704D01*
X141540455Y-101201649D01*
X141538556Y-101200636D01*
X141492686Y-101171413D01*
X141479438Y-101162973D01*
X141475465Y-101159158D01*
X141473555Y-101156411D01*
X141455196Y-101146855D01*
X141449660Y-101143973D01*
X141449138Y-101143671D01*
X141443885Y-101140324D01*
X141443883Y-101140323D01*
X141441398Y-101139484D01*
X141439416Y-101138640D01*
X141437370Y-101137575D01*
X141437371Y-101137575D01*
X141423508Y-101130359D01*
X141392124Y-101114021D01*
X141392110Y-101114012D01*
X141377237Y-101106270D01*
X141372947Y-101102815D01*
X141370808Y-101100249D01*
X141370807Y-101100248D01*
X141369001Y-101099500D01*
X141360750Y-101096082D01*
X141345912Y-101089935D01*
X141345366Y-101089681D01*
X141345212Y-101089601D01*
X141339844Y-101086807D01*
X141337294Y-101086187D01*
X141335252Y-101085521D01*
X141332657Y-101084446D01*
X141310356Y-101075206D01*
X141296978Y-101069663D01*
X141296942Y-101069652D01*
X141270487Y-101058695D01*
X141265910Y-101055626D01*
X141263555Y-101053254D01*
X141237867Y-101045155D01*
X141237298Y-101044948D01*
X141231538Y-101042562D01*
X141231537Y-101042561D01*
X141231535Y-101042561D01*
X141228941Y-101042166D01*
X141226839Y-101041678D01*
X141219848Y-101039473D01*
X141188637Y-101029630D01*
X141188636Y-101029630D01*
X141187624Y-101029311D01*
X141187603Y-101029306D01*
X141176488Y-101025801D01*
X141176399Y-101025761D01*
X141165920Y-101022461D01*
X141159980Y-101020590D01*
X141155152Y-101017931D01*
X141152613Y-101015786D01*
X141152611Y-101015784D01*
X141134865Y-101011850D01*
X141126319Y-101009955D01*
X141125752Y-101009803D01*
X141119789Y-101007924D01*
X141117168Y-101007756D01*
X141115033Y-101007453D01*
X141112782Y-101006954D01*
X141091152Y-101002160D01*
X141063396Y-100996006D01*
X141063373Y-100995998D01*
X141046597Y-100992281D01*
X141041558Y-100990054D01*
X141038830Y-100988130D01*
X141038829Y-100988129D01*
X141012132Y-100984614D01*
X141011536Y-100984510D01*
X141005442Y-100983159D01*
X141005438Y-100983159D01*
X141005434Y-100983158D01*
X141002820Y-100983220D01*
X141000669Y-100983105D01*
X140999183Y-100982909D01*
X140948216Y-100976199D01*
X140948151Y-100976183D01*
X140931162Y-100973949D01*
X140925948Y-100972170D01*
X140923067Y-100970494D01*
X140923066Y-100970494D01*
X140896151Y-100969317D01*
X140895543Y-100969264D01*
X140889377Y-100968452D01*
X140889376Y-100968452D01*
X140886772Y-100968742D01*
X140884614Y-100968815D01*
X140882281Y-100968713D01*
X140880618Y-100968640D01*
X140830282Y-100966443D01*
X140814580Y-100965756D01*
X140809235Y-100964438D01*
X140806210Y-100963016D01*
X140779301Y-100964190D01*
X140778691Y-100964190D01*
X140772467Y-100963918D01*
X140772466Y-100963918D01*
X140769896Y-100964434D01*
X140767760Y-100964694D01*
X140765457Y-100964795D01*
X140743565Y-100965751D01*
X140697722Y-100967751D01*
X140692281Y-100966904D01*
X140689146Y-100965751D01*
X140689141Y-100965751D01*
X140662453Y-100969264D01*
X140661846Y-100969317D01*
X140655614Y-100969590D01*
X140655610Y-100969591D01*
X140655611Y-100969591D01*
X140653087Y-100970330D01*
X140650982Y-100970775D01*
X140646834Y-100971321D01*
X140609841Y-100976185D01*
X140609783Y-100976199D01*
X140581486Y-100979924D01*
X140575992Y-100979555D01*
X140572764Y-100978679D01*
X140572762Y-100978678D01*
X140546466Y-100984508D01*
X140545865Y-100984614D01*
X140539693Y-100985427D01*
X140537244Y-100986383D01*
X140535185Y-100987009D01*
X140526825Y-100988863D01*
X140494625Y-100995998D01*
X140494602Y-100996006D01*
X140466746Y-101002181D01*
X140461239Y-101002292D01*
X140457949Y-101001700D01*
X140432278Y-101009794D01*
X140431690Y-101009951D01*
X140425603Y-101011302D01*
X140425590Y-101011306D01*
X140423232Y-101012473D01*
X140421242Y-101013274D01*
X140419985Y-101013670D01*
X140419092Y-101013953D01*
X140411818Y-101016244D01*
X140381688Y-101025733D01*
X140381586Y-101025778D01*
X140369927Y-101029454D01*
X140369901Y-101029460D01*
X140354387Y-101034352D01*
X140348913Y-101034943D01*
X140346653Y-101034738D01*
X140345584Y-101034641D01*
X140345583Y-101034641D01*
X140345580Y-101034641D01*
X140320704Y-101044946D01*
X140320131Y-101045154D01*
X140314183Y-101047031D01*
X140311941Y-101048396D01*
X140310020Y-101049371D01*
X140261055Y-101069653D01*
X140261019Y-101069664D01*
X140245255Y-101076195D01*
X140239853Y-101077260D01*
X140236514Y-101077250D01*
X140236513Y-101077250D01*
X140236510Y-101077251D01*
X140212628Y-101089683D01*
X140212075Y-101089941D01*
X140206316Y-101092326D01*
X140204197Y-101093885D01*
X140202376Y-101095019D01*
X140200337Y-101096082D01*
X140166829Y-101113524D01*
X140166827Y-101113525D01*
X140140191Y-101127390D01*
X140134905Y-101128922D01*
X140131574Y-101129203D01*
X140131569Y-101129204D01*
X140108868Y-101143666D01*
X140108340Y-101143970D01*
X140102801Y-101146855D01*
X140100816Y-101148600D01*
X140099103Y-101149887D01*
X140097708Y-101150776D01*
X140097173Y-101151118D01*
X140065316Y-101171413D01*
X140065314Y-101171414D01*
X140039990Y-101187547D01*
X140034857Y-101189534D01*
X140031558Y-101190105D01*
X140031554Y-101190106D01*
X140010186Y-101206503D01*
X140009686Y-101206853D01*
X140004440Y-101210195D01*
X140004438Y-101210196D01*
X140003972Y-101210685D01*
X140002623Y-101212097D01*
X140001030Y-101213529D01*
X139999201Y-101214933D01*
X139990060Y-101221947D01*
X139969229Y-101237930D01*
X139959077Y-101245719D01*
X139958978Y-101245779D01*
X139945392Y-101256211D01*
X139940448Y-101258640D01*
X139937233Y-101259490D01*
X139917379Y-101277682D01*
X139916912Y-101278074D01*
X139911967Y-101281869D01*
X139911965Y-101281871D01*
X139910323Y-101283923D01*
X139908860Y-101285488D01*
X139908068Y-101286215D01*
X139907164Y-101287044D01*
X139882092Y-101310016D01*
X139878593Y-101313222D01*
X139878588Y-101313227D01*
X139869883Y-101321205D01*
X139869806Y-101321261D01*
X139857160Y-101332854D01*
X139852447Y-101335704D01*
X139849314Y-101336833D01*
X139831117Y-101356689D01*
X139830686Y-101357120D01*
X139826098Y-101361325D01*
X139826091Y-101361333D01*
X139824635Y-101363519D01*
X139823310Y-101365209D01*
X139822492Y-101366103D01*
X139795290Y-101395776D01*
X139795239Y-101395844D01*
X139787195Y-101404623D01*
X139787178Y-101404638D01*
X139775951Y-101416893D01*
X139771504Y-101420143D01*
X139768472Y-101421544D01*
X139768469Y-101421546D01*
X139752072Y-101442913D01*
X139751681Y-101443379D01*
X139747477Y-101447968D01*
X139747470Y-101447978D01*
X139746211Y-101450281D01*
X139745033Y-101452088D01*
X139719787Y-101484965D01*
X139719718Y-101485079D01*
X139712206Y-101494869D01*
X139702363Y-101507695D01*
X139698219Y-101511318D01*
X139695320Y-101512979D01*
X139695316Y-101512982D01*
X139680844Y-101535697D01*
X139680495Y-101536195D01*
X139676704Y-101541138D01*
X139676702Y-101541141D01*
X139675650Y-101543541D01*
X139674637Y-101545440D01*
X139661096Y-101566697D01*
X139645414Y-101591313D01*
X139645414Y-101591314D01*
X139636975Y-101604559D01*
X139633163Y-101608529D01*
X139630416Y-101610440D01*
X139630412Y-101610444D01*
X139617975Y-101634332D01*
X139617671Y-101634859D01*
X139614323Y-101640118D01*
X139613484Y-101642601D01*
X139612641Y-101644580D01*
X139611575Y-101646627D01*
X139606031Y-101657280D01*
X139587698Y-101692495D01*
X139583540Y-101700480D01*
X139579801Y-101704999D01*
X139578522Y-101706009D01*
X139578520Y-101706012D01*
X139565825Y-101734483D01*
X139565642Y-101734864D01*
X139560806Y-101744158D01*
X139560805Y-101744160D01*
X139560258Y-101746411D01*
X139559442Y-101748802D01*
X139546133Y-101778650D01*
X139546131Y-101778658D01*
X139535658Y-101802152D01*
X139529394Y-101816201D01*
X139521617Y-101823573D01*
X139516607Y-101824500D01*
X139076657Y-101824500D01*
X139066758Y-101820399D01*
X139065301Y-101818689D01*
X138962144Y-101675635D01*
X138959500Y-101667446D01*
X138959500Y-101053130D01*
X138957914Y-101045155D01*
X138952509Y-101017983D01*
X138925876Y-100978124D01*
X138886017Y-100951491D01*
X138886016Y-100951490D01*
X138886015Y-100951490D01*
X138850870Y-100944500D01*
X138347130Y-100944500D01*
X138311984Y-100951490D01*
X138272124Y-100978124D01*
X138245490Y-101017984D01*
X138241216Y-101039473D01*
X138238500Y-101053130D01*
X138238500Y-101856870D01*
X138239670Y-101862750D01*
X138245490Y-101892015D01*
X138245490Y-101892016D01*
X138245491Y-101892017D01*
X138272124Y-101931876D01*
X138311983Y-101958509D01*
X138347130Y-101965500D01*
X138755918Y-101965500D01*
X138765817Y-101969601D01*
X138767273Y-101971311D01*
X138818957Y-102042983D01*
X138819364Y-102043480D01*
X138826406Y-102053208D01*
X138828890Y-102063632D01*
X138823276Y-102072758D01*
X138819855Y-102074574D01*
X138780706Y-102088824D01*
X138694121Y-102161478D01*
X138637611Y-102259359D01*
X138617985Y-102370665D01*
X138617985Y-102370668D01*
X138637611Y-102481974D01*
X138694121Y-102579855D01*
X138694123Y-102579857D01*
X138694124Y-102579858D01*
X138736419Y-102615348D01*
X138741695Y-102619775D01*
X138746643Y-102629280D01*
X138743421Y-102639499D01*
X138733916Y-102644447D01*
X138732696Y-102644500D01*
X138347130Y-102644500D01*
X138311984Y-102651490D01*
X138272122Y-102678125D01*
X138248659Y-102713239D01*
X138239750Y-102719192D01*
X138229386Y-102717197D01*
X137658966Y-102346220D01*
X137658946Y-102346191D01*
X137646392Y-102338042D01*
X137636845Y-102331834D01*
X137636685Y-102331743D01*
X137628844Y-102326654D01*
X137628837Y-102326651D01*
X137613084Y-102320279D01*
X137605445Y-102312766D01*
X137604603Y-102304571D01*
X137605166Y-102301743D01*
X137605166Y-102037193D01*
X137598175Y-102002046D01*
X137571542Y-101962187D01*
X137531683Y-101935554D01*
X137531682Y-101935553D01*
X137531681Y-101935553D01*
X137529356Y-101935091D01*
X137520446Y-101929138D01*
X137518356Y-101918629D01*
X137523087Y-101910636D01*
X137580153Y-101862753D01*
X137583284Y-101857331D01*
X137614191Y-101803796D01*
X137636665Y-101764870D01*
X137653046Y-101671969D01*
X137656292Y-101653563D01*
X137656292Y-101653560D01*
X137636665Y-101542254D01*
X137580155Y-101444373D01*
X137580153Y-101444371D01*
X137493570Y-101371719D01*
X137427812Y-101347785D01*
X137387362Y-101333062D01*
X137387361Y-101333062D01*
X137274335Y-101333062D01*
X137274333Y-101333062D01*
X137168126Y-101371719D01*
X137081541Y-101444372D01*
X137077873Y-101450726D01*
X137069371Y-101457248D01*
X137058748Y-101455849D01*
X137056750Y-101454450D01*
X136989756Y-101398236D01*
X136883548Y-101359579D01*
X136883547Y-101359579D01*
X136770521Y-101359579D01*
X136770519Y-101359579D01*
X136664312Y-101398236D01*
X136577726Y-101470890D01*
X136521216Y-101568771D01*
X136501590Y-101680077D01*
X136501590Y-101680080D01*
X136521216Y-101791386D01*
X136577727Y-101889267D01*
X136577729Y-101889270D01*
X136586030Y-101896236D01*
X136590978Y-101905740D01*
X136587755Y-101915959D01*
X136586030Y-101917685D01*
X136527982Y-101966394D01*
X136517763Y-101969616D01*
X136509984Y-101966394D01*
X136457240Y-101922137D01*
X136351032Y-101883480D01*
X136351031Y-101883480D01*
X136238005Y-101883480D01*
X136238003Y-101883480D01*
X136131796Y-101922137D01*
X136045210Y-101994791D01*
X135988700Y-102092672D01*
X135969074Y-102203978D01*
X135969074Y-102203982D01*
X135977716Y-102252994D01*
X135975397Y-102263455D01*
X135966360Y-102269212D01*
X135959000Y-102268529D01*
X132542753Y-100983520D01*
X132534931Y-100976196D01*
X132534578Y-100965487D01*
X132541902Y-100957665D01*
X132544305Y-100956830D01*
X132563129Y-100952174D01*
X132689173Y-100883401D01*
X132739333Y-100835831D01*
X132742225Y-100833268D01*
X132742500Y-100833039D01*
X132862299Y-100739703D01*
X132864504Y-100738298D01*
X132999926Y-100669038D01*
X133002373Y-100668064D01*
X133148401Y-100625496D01*
X133150983Y-100625002D01*
X133303625Y-100610530D01*
X133304271Y-100610500D01*
X133339627Y-100610501D01*
X133339629Y-100610500D01*
X142165500Y-100610500D01*
X142175399Y-100614601D01*
G37*
%TD.AperFunction*%
%TA.AperFunction,Conductor*%
G36*
X130954350Y-100350501D02*
G01*
X131834544Y-101012039D01*
X131838264Y-101016243D01*
X131839342Y-101018115D01*
X131860132Y-101031298D01*
X131860580Y-101031608D01*
X131861689Y-101032441D01*
X131863710Y-101033960D01*
X131864554Y-101034319D01*
X131866555Y-101035371D01*
X131946291Y-101085933D01*
X131982322Y-101108781D01*
X131982337Y-101108793D01*
X131983712Y-101109665D01*
X131983713Y-101109666D01*
X132011064Y-101127007D01*
X132011068Y-101127013D01*
X132027195Y-101137236D01*
X132032572Y-101140646D01*
X132032573Y-101140646D01*
X132032576Y-101140648D01*
X132033821Y-101141065D01*
X132036038Y-101142028D01*
X132045181Y-101146983D01*
X132048962Y-101149977D01*
X132050902Y-101152155D01*
X136132092Y-102687280D01*
X136133415Y-102687778D01*
X136133415Y-102687777D01*
X136140265Y-102690357D01*
X136140281Y-102690360D01*
X136152245Y-102694861D01*
X136153070Y-102695062D01*
X136153027Y-102695237D01*
X136158382Y-102697288D01*
X136161781Y-102699685D01*
X136204888Y-102705360D01*
X136239632Y-102709944D01*
X136239634Y-102709942D01*
X136241280Y-102710160D01*
X136241352Y-102710160D01*
X136248778Y-102711138D01*
X136248791Y-102711144D01*
X136254005Y-102711828D01*
X136254005Y-102711829D01*
X136258907Y-102712472D01*
X136263008Y-102713669D01*
X136268053Y-102716028D01*
X136298649Y-102714618D01*
X136298664Y-102714618D01*
X136299670Y-102714571D01*
X136299673Y-102714572D01*
X136302386Y-102714446D01*
X136302837Y-102714425D01*
X136302844Y-102714427D01*
X136308823Y-102714150D01*
X136308823Y-102714151D01*
X136312881Y-102713963D01*
X136761115Y-102693321D01*
X136766590Y-102694166D01*
X136767813Y-102694615D01*
X136769604Y-102695274D01*
X136796705Y-102691705D01*
X136797251Y-102691656D01*
X136803875Y-102691352D01*
X136805368Y-102690909D01*
X136806412Y-102690601D01*
X136808557Y-102690144D01*
X136810673Y-102689865D01*
X136811153Y-102689803D01*
X136817919Y-102688914D01*
X136835475Y-102686611D01*
X136841194Y-102687045D01*
X136843375Y-102687678D01*
X136872430Y-102681750D01*
X136872863Y-102681678D01*
X136881734Y-102680511D01*
X136884145Y-102679568D01*
X136886431Y-102678894D01*
X137120185Y-102631209D01*
X137120291Y-102631200D01*
X137121801Y-102630891D01*
X137121803Y-102630892D01*
X137148728Y-102625390D01*
X137155354Y-102624037D01*
X137158156Y-102623754D01*
X137445339Y-102623754D01*
X137445420Y-102623762D01*
X137446928Y-102623761D01*
X137446931Y-102623763D01*
X137474435Y-102623756D01*
X137482071Y-102626020D01*
X137489562Y-102630892D01*
X137494264Y-102633950D01*
X137501692Y-102638781D01*
X138210987Y-103100075D01*
X138232133Y-103113827D01*
X138238196Y-103122661D01*
X138238500Y-103125563D01*
X138238500Y-103505421D01*
X138234399Y-103515320D01*
X138224500Y-103519421D01*
X138223974Y-103519411D01*
X124494974Y-103003437D01*
X124485236Y-102998968D01*
X124481500Y-102989447D01*
X124481500Y-102753130D01*
X124474509Y-102717984D01*
X124474509Y-102717983D01*
X124447876Y-102678124D01*
X124408017Y-102651491D01*
X124408016Y-102651490D01*
X124408015Y-102651490D01*
X124372870Y-102644500D01*
X123964081Y-102644500D01*
X123954182Y-102640399D01*
X123952726Y-102638689D01*
X123937686Y-102617832D01*
X123936683Y-102616023D01*
X123931828Y-102609375D01*
X123929445Y-102604054D01*
X123928907Y-102601539D01*
X123925929Y-102597963D01*
X123920788Y-102591790D01*
X123918071Y-102586630D01*
X123917373Y-102584153D01*
X123917072Y-102583835D01*
X123915049Y-102581699D01*
X123913830Y-102580063D01*
X123906675Y-102572597D01*
X123899841Y-102565465D01*
X123899242Y-102564749D01*
X123897440Y-102562283D01*
X123897439Y-102562281D01*
X123894396Y-102559726D01*
X123893851Y-102559215D01*
X123892533Y-102557839D01*
X123892209Y-102557476D01*
X123883473Y-102546986D01*
X123880177Y-102544560D01*
X123878314Y-102542913D01*
X123872030Y-102536279D01*
X123871563Y-102535891D01*
X123870978Y-102535346D01*
X123205392Y-101840823D01*
X123201500Y-101831136D01*
X123201500Y-101099500D01*
X123205601Y-101089601D01*
X123215500Y-101085500D01*
X123746500Y-101085500D01*
X123756399Y-101089601D01*
X123760500Y-101099499D01*
X123760500Y-101856870D01*
X123761670Y-101862750D01*
X123767490Y-101892015D01*
X123767490Y-101892016D01*
X123767491Y-101892017D01*
X123794124Y-101931876D01*
X123833983Y-101958509D01*
X123869130Y-101965500D01*
X124372870Y-101965500D01*
X124408017Y-101958509D01*
X124447876Y-101931876D01*
X124474509Y-101892017D01*
X124481500Y-101856870D01*
X124481500Y-101665113D01*
X124485601Y-101655215D01*
X124495500Y-101651114D01*
X124496601Y-101651158D01*
X125713936Y-101748802D01*
X125846386Y-101759426D01*
X125855926Y-101764305D01*
X125859222Y-101774500D01*
X125854343Y-101784040D01*
X125854266Y-101784106D01*
X125790110Y-101837939D01*
X125764428Y-101882422D01*
X125755927Y-101888945D01*
X125752688Y-101889417D01*
X125728279Y-101890086D01*
X125718270Y-101886258D01*
X125716254Y-101883869D01*
X125715287Y-101882422D01*
X125697702Y-101856103D01*
X125657843Y-101829470D01*
X125657842Y-101829469D01*
X125657841Y-101829469D01*
X125622696Y-101822479D01*
X125268956Y-101822479D01*
X125233810Y-101829469D01*
X125193950Y-101856103D01*
X125167316Y-101895963D01*
X125160326Y-101931109D01*
X125160326Y-102195658D01*
X125167316Y-102230804D01*
X125167316Y-102230805D01*
X125167317Y-102230806D01*
X125193950Y-102270665D01*
X125233809Y-102297298D01*
X125268956Y-102304289D01*
X125622696Y-102304289D01*
X125657843Y-102297298D01*
X125697702Y-102270665D01*
X125724335Y-102230806D01*
X125724336Y-102230798D01*
X125724833Y-102229601D01*
X125732408Y-102222023D01*
X125737383Y-102220961D01*
X125760859Y-102220318D01*
X125770867Y-102224146D01*
X125773366Y-102227313D01*
X125790110Y-102256316D01*
X125790112Y-102256318D01*
X125790113Y-102256319D01*
X125876696Y-102328971D01*
X125982905Y-102367628D01*
X125982906Y-102367628D01*
X126095930Y-102367628D01*
X126095931Y-102367628D01*
X126202140Y-102328971D01*
X126286685Y-102258028D01*
X126296903Y-102254807D01*
X126304682Y-102258029D01*
X126327497Y-102277173D01*
X126376584Y-102318362D01*
X126482793Y-102357019D01*
X126482794Y-102357019D01*
X126595818Y-102357019D01*
X126595819Y-102357019D01*
X126702028Y-102318362D01*
X126788611Y-102245710D01*
X126792758Y-102238528D01*
X126812705Y-102203978D01*
X126845123Y-102147827D01*
X126858464Y-102072167D01*
X126864750Y-102036520D01*
X126864750Y-102036517D01*
X126845123Y-101925211D01*
X126841553Y-101919027D01*
X126806584Y-101858459D01*
X126805186Y-101847838D01*
X126811709Y-101839337D01*
X126819827Y-101837506D01*
X129100503Y-102020441D01*
X129100564Y-102020453D01*
X129102143Y-102020579D01*
X129102146Y-102020581D01*
X129113241Y-102021468D01*
X129118745Y-102023090D01*
X129120756Y-102024171D01*
X129150414Y-102024461D01*
X129150873Y-102024482D01*
X129159796Y-102025198D01*
X129162336Y-102024783D01*
X129164717Y-102024601D01*
X129199314Y-102024942D01*
X129199314Y-102024941D01*
X129202130Y-102024969D01*
X129202132Y-102024968D01*
X129645034Y-102029311D01*
X129650240Y-102030370D01*
X129654021Y-102031933D01*
X129678624Y-102029675D01*
X129679311Y-102029647D01*
X129683023Y-102029684D01*
X129683320Y-102029687D01*
X129683320Y-102029686D01*
X129683324Y-102029687D01*
X129685909Y-102029076D01*
X129686872Y-102028918D01*
X129694634Y-102028207D01*
X129732250Y-102024757D01*
X129732250Y-102024756D01*
X129734687Y-102024533D01*
X129734694Y-102024530D01*
X130153283Y-101986128D01*
X130153304Y-101986128D01*
X130154943Y-101985977D01*
X130154945Y-101985978D01*
X130158138Y-101985684D01*
X130164256Y-101986488D01*
X130164270Y-101986493D01*
X130198654Y-101981965D01*
X130212562Y-101980690D01*
X130213812Y-101980256D01*
X130216554Y-101979608D01*
X130271991Y-101972310D01*
X130276393Y-101971731D01*
X130276394Y-101971730D01*
X130276400Y-101971730D01*
X130278879Y-101970760D01*
X130280935Y-101970134D01*
X130287198Y-101968747D01*
X130291488Y-101968475D01*
X130297084Y-101968984D01*
X130331447Y-101954750D01*
X130334757Y-101953380D01*
X130369657Y-101938927D01*
X130369657Y-101938926D01*
X130371561Y-101938138D01*
X130371584Y-101938124D01*
X130401572Y-101925704D01*
X130403721Y-101924121D01*
X130405536Y-101922990D01*
X130411224Y-101920030D01*
X130415297Y-101918656D01*
X130420841Y-101917699D01*
X130450189Y-101895177D01*
X130453175Y-101892887D01*
X130453176Y-101892888D01*
X130483149Y-101869898D01*
X130483150Y-101869894D01*
X130484528Y-101868838D01*
X130484575Y-101868793D01*
X130493991Y-101861568D01*
X130499526Y-101857331D01*
X130499624Y-101857245D01*
X130510568Y-101848849D01*
X130512229Y-101846771D01*
X130513705Y-101845193D01*
X130518425Y-101840869D01*
X130522000Y-101838489D01*
X130527110Y-101836128D01*
X130551919Y-101803796D01*
X130574921Y-101773832D01*
X130574921Y-101773831D01*
X130575963Y-101772474D01*
X130575997Y-101772414D01*
X130583472Y-101762675D01*
X130583597Y-101762513D01*
X130586847Y-101758279D01*
X130586914Y-101758187D01*
X130595956Y-101746405D01*
X130595956Y-101746404D01*
X130595959Y-101746401D01*
X130597026Y-101743963D01*
X130598041Y-101742062D01*
X130600404Y-101738355D01*
X130601484Y-101736660D01*
X130604320Y-101733437D01*
X130608644Y-101729834D01*
X130609251Y-101728368D01*
X130624242Y-101692178D01*
X130626245Y-101687341D01*
X130629137Y-101680363D01*
X130629170Y-101680305D01*
X130634887Y-101666495D01*
X130636060Y-101663660D01*
X130638704Y-101657280D01*
X130638703Y-101657277D01*
X130639417Y-101655556D01*
X130639425Y-101655528D01*
X130640239Y-101653563D01*
X130641918Y-101649505D01*
X130641929Y-101649494D01*
X130644255Y-101643873D01*
X130644257Y-101643874D01*
X130649441Y-101631351D01*
X130649446Y-101631334D01*
X130649458Y-101631306D01*
X130649503Y-101631189D01*
X130651924Y-101625345D01*
X130652313Y-101622781D01*
X130652800Y-101620685D01*
X130654751Y-101614492D01*
X130656664Y-101610632D01*
X130656797Y-101610444D01*
X130659889Y-101606061D01*
X130663410Y-101579301D01*
X130663423Y-101579227D01*
X130664068Y-101574324D01*
X130665071Y-101566697D01*
X130666881Y-101552939D01*
X130666919Y-101552795D01*
X130667340Y-101549583D01*
X130668755Y-101545775D01*
X130668675Y-101545747D01*
X130669240Y-101544144D01*
X130669240Y-101544142D01*
X130669241Y-101544141D01*
X130672706Y-101508699D01*
X130674651Y-101493930D01*
X130674547Y-101492996D01*
X130674526Y-101490083D01*
X130692482Y-101306460D01*
X130697527Y-101297008D01*
X130706416Y-101293824D01*
X130823311Y-101293824D01*
X130858458Y-101286833D01*
X130898317Y-101260200D01*
X130924950Y-101220341D01*
X130931941Y-101185194D01*
X130931941Y-100361693D01*
X130936042Y-100351794D01*
X130945941Y-100347693D01*
X130954350Y-100350501D01*
G37*
%TD.AperFunction*%
%TD*%
M02*
