%TF.GenerationSoftware,KiCad,Pcbnew,7.0.7*%
%TF.CreationDate,2024-02-02T10:57:05+05:30*%
%TF.ProjectId,beeper-flex,62656570-6572-42d6-966c-65782e6b6963,rev?*%
%TF.SameCoordinates,Original*%
%TF.FileFunction,Copper,L1,Top*%
%TF.FilePolarity,Positive*%
%FSLAX46Y46*%
G04 Gerber Fmt 4.6, Leading zero omitted, Abs format (unit mm)*
G04 Created by KiCad (PCBNEW 7.0.7) date 2024-02-02 10:57:05*
%MOMM*%
%LPD*%
G01*
G04 APERTURE LIST*
%TA.AperFunction,ViaPad*%
%ADD10C,0.400000*%
%TD*%
%TA.AperFunction,Conductor*%
%ADD11C,0.080000*%
%TD*%
G04 APERTURE END LIST*
D10*
%TO.N,GND*%
X138675000Y-100950000D03*
X124955232Y-103839723D03*
X139269904Y-103576744D03*
X139175000Y-101200000D03*
X140080000Y-103780000D03*
X138719904Y-103576744D03*
X127162860Y-103968131D03*
X139675000Y-100950000D03*
X140630000Y-103780000D03*
%TO.N,PDM_data*%
X140175000Y-101200000D03*
X139322982Y-104686207D03*
X126856272Y-103018972D03*
X140175000Y-101750000D03*
X126306272Y-103018972D03*
X138762657Y-104675882D03*
%TD*%
D11*
%TO.N,PDM_data*%
X138762657Y-104675882D02*
X126856272Y-103018972D01*
X139637882Y-103703649D02*
X140175000Y-101750000D01*
X139322982Y-104686207D02*
X139635605Y-103711298D01*
X139635604Y-103711298D02*
G75*
G03*
X139637882Y-103703649I-180104J57798D01*
G01*
%TD*%
%TA.AperFunction,Conductor*%
%TO.N,GND*%
G36*
X141025397Y-98198229D02*
G01*
X141029498Y-98208128D01*
X141029498Y-98208131D01*
X141029494Y-98229552D01*
X141029500Y-98229603D01*
X141029500Y-100360790D01*
X141029499Y-100360804D01*
X141029499Y-100395948D01*
X141029468Y-100396609D01*
X141014483Y-100554647D01*
X141013986Y-100557244D01*
X140969834Y-100708692D01*
X140968858Y-100711149D01*
X140897018Y-100851598D01*
X140895597Y-100853828D01*
X140798359Y-100978618D01*
X140797786Y-100979266D01*
X140772340Y-101004710D01*
X140771418Y-101006308D01*
X140771140Y-101006147D01*
X140769342Y-101009350D01*
X140751086Y-101028602D01*
X140686024Y-101147842D01*
X140686023Y-101147844D01*
X140653407Y-101279694D01*
X140653407Y-101279697D01*
X140653407Y-101279698D01*
X140655373Y-101415515D01*
X140655373Y-101415518D01*
X140655374Y-101415519D01*
X140655374Y-101415520D01*
X140691793Y-101546375D01*
X140691794Y-101546377D01*
X140760273Y-101663675D01*
X140760278Y-101663681D01*
X140856318Y-101759721D01*
X140856324Y-101759726D01*
X140973622Y-101828205D01*
X140973624Y-101828206D01*
X140973626Y-101828206D01*
X140973627Y-101828207D01*
X141104485Y-101864627D01*
X141240302Y-101866593D01*
X141372159Y-101833975D01*
X141491396Y-101768915D01*
X141510647Y-101750657D01*
X141513852Y-101748866D01*
X141513689Y-101748583D01*
X141515281Y-101747662D01*
X141515285Y-101747662D01*
X141540773Y-101722172D01*
X141541406Y-101721612D01*
X141666174Y-101624402D01*
X141668400Y-101622983D01*
X141808859Y-101551139D01*
X141811304Y-101550168D01*
X141962772Y-101506004D01*
X141965354Y-101505510D01*
X142123199Y-101490530D01*
X142123847Y-101490500D01*
X143745649Y-101490500D01*
X143765500Y-101490500D01*
X143775399Y-101494601D01*
X143779500Y-101504500D01*
X143779500Y-105775500D01*
X143775399Y-105785399D01*
X143765500Y-105789500D01*
X121844500Y-105789500D01*
X121834601Y-105785399D01*
X121830500Y-105775500D01*
X121830500Y-103798833D01*
X122845623Y-103798833D01*
X122855943Y-103962859D01*
X122881857Y-104042613D01*
X122906732Y-104119171D01*
X122994798Y-104257940D01*
X123114607Y-104370448D01*
X123258632Y-104449627D01*
X123417823Y-104490500D01*
X123540921Y-104490500D01*
X123540925Y-104490500D01*
X123663058Y-104475071D01*
X123815871Y-104414568D01*
X123906523Y-104348706D01*
X123948832Y-104317967D01*
X123948833Y-104317965D01*
X123948837Y-104317963D01*
X124053600Y-104191326D01*
X124123579Y-104042613D01*
X124154376Y-103881170D01*
X124146062Y-103749032D01*
X124144056Y-103717140D01*
X124093268Y-103560830D01*
X124093268Y-103560829D01*
X124005202Y-103422060D01*
X123885393Y-103309552D01*
X123805138Y-103265431D01*
X123741369Y-103230373D01*
X123582177Y-103189500D01*
X123459075Y-103189500D01*
X123459074Y-103189500D01*
X123336940Y-103204929D01*
X123184130Y-103265431D01*
X123184129Y-103265431D01*
X123051167Y-103362032D01*
X123051160Y-103362039D01*
X122946400Y-103488673D01*
X122876420Y-103637387D01*
X122845624Y-103798830D01*
X122845623Y-103798833D01*
X121830500Y-103798833D01*
X121830500Y-103018971D01*
X125951403Y-103018971D01*
X125968772Y-103128633D01*
X126019177Y-103227560D01*
X126097683Y-103306066D01*
X126097685Y-103306067D01*
X126196611Y-103356472D01*
X126306272Y-103373841D01*
X126415933Y-103356472D01*
X126514859Y-103306067D01*
X126571373Y-103249552D01*
X126581272Y-103245452D01*
X126591169Y-103249551D01*
X126647685Y-103306067D01*
X126746611Y-103356472D01*
X126856272Y-103373841D01*
X126965933Y-103356472D01*
X127064859Y-103306067D01*
X127117634Y-103253290D01*
X127127533Y-103249190D01*
X127129455Y-103249323D01*
X138437509Y-104822968D01*
X138446747Y-104828393D01*
X138448052Y-104830478D01*
X138475562Y-104884470D01*
X138554068Y-104962976D01*
X138554070Y-104962977D01*
X138652996Y-105013382D01*
X138762657Y-105030751D01*
X138872318Y-105013382D01*
X138971244Y-104962977D01*
X139027757Y-104906462D01*
X139037657Y-104902362D01*
X139047555Y-104906461D01*
X139114395Y-104973302D01*
X139213321Y-105023707D01*
X139322982Y-105041076D01*
X139432643Y-105023707D01*
X139531569Y-104973302D01*
X139610077Y-104894794D01*
X139660482Y-104795868D01*
X139677851Y-104686207D01*
X139660482Y-104576546D01*
X139610077Y-104477620D01*
X139610076Y-104477618D01*
X139600857Y-104468399D01*
X139596756Y-104458500D01*
X139597424Y-104454228D01*
X139807589Y-103798833D01*
X141455623Y-103798833D01*
X141465943Y-103962859D01*
X141491857Y-104042613D01*
X141516732Y-104119171D01*
X141604798Y-104257940D01*
X141724607Y-104370448D01*
X141868632Y-104449627D01*
X142027823Y-104490500D01*
X142150921Y-104490500D01*
X142150925Y-104490500D01*
X142273058Y-104475071D01*
X142425871Y-104414568D01*
X142516523Y-104348706D01*
X142558832Y-104317967D01*
X142558833Y-104317965D01*
X142558837Y-104317963D01*
X142663600Y-104191326D01*
X142733579Y-104042613D01*
X142764376Y-103881170D01*
X142756062Y-103749032D01*
X142754056Y-103717140D01*
X142703268Y-103560830D01*
X142703268Y-103560829D01*
X142615202Y-103422060D01*
X142495393Y-103309552D01*
X142415138Y-103265431D01*
X142351369Y-103230373D01*
X142192177Y-103189500D01*
X142069075Y-103189500D01*
X142069074Y-103189500D01*
X141946940Y-103204929D01*
X141794130Y-103265431D01*
X141794129Y-103265431D01*
X141661167Y-103362032D01*
X141661160Y-103362039D01*
X141556400Y-103488673D01*
X141486420Y-103637387D01*
X141455624Y-103798830D01*
X141455623Y-103798833D01*
X139807589Y-103798833D01*
X139814007Y-103778817D01*
X139815004Y-103776470D01*
X139815877Y-103774845D01*
X139819453Y-103761834D01*
X139823560Y-103749030D01*
X139823717Y-103747199D01*
X139824166Y-103744694D01*
X139832160Y-103715621D01*
X139832161Y-103715610D01*
X140277346Y-102096347D01*
X140283923Y-102087891D01*
X140284488Y-102087587D01*
X140284657Y-102087500D01*
X140284661Y-102087500D01*
X140383587Y-102037095D01*
X140462095Y-101958587D01*
X140512500Y-101859661D01*
X140529869Y-101750000D01*
X140512500Y-101640339D01*
X140462095Y-101541413D01*
X140405580Y-101484898D01*
X140401480Y-101475000D01*
X140405579Y-101465102D01*
X140462095Y-101408587D01*
X140512500Y-101309661D01*
X140529869Y-101200000D01*
X140512500Y-101090339D01*
X140462095Y-100991413D01*
X140462094Y-100991411D01*
X140383588Y-100912905D01*
X140284661Y-100862500D01*
X140284662Y-100862500D01*
X140215817Y-100851596D01*
X140175000Y-100845131D01*
X140174999Y-100845131D01*
X140065338Y-100862500D01*
X139966411Y-100912905D01*
X139887905Y-100991411D01*
X139837500Y-101090338D01*
X139820131Y-101200000D01*
X139837500Y-101309661D01*
X139887904Y-101408586D01*
X139944418Y-101465101D01*
X139948518Y-101475000D01*
X139944418Y-101484899D01*
X139887904Y-101541413D01*
X139837500Y-101640338D01*
X139833803Y-101663681D01*
X139820131Y-101750000D01*
X139837500Y-101859661D01*
X139887905Y-101958587D01*
X139907386Y-101978068D01*
X139911487Y-101987967D01*
X139910986Y-101991678D01*
X139458531Y-103637387D01*
X139454199Y-103653143D01*
X139442261Y-103690341D01*
X139442243Y-103690420D01*
X139234738Y-104337526D01*
X139227811Y-104345701D01*
X139223598Y-104347078D01*
X139213323Y-104348706D01*
X139213322Y-104348706D01*
X139114395Y-104399111D01*
X139057880Y-104455626D01*
X139047981Y-104459726D01*
X139038082Y-104455625D01*
X138971244Y-104388787D01*
X138971243Y-104388786D01*
X138872318Y-104338382D01*
X138872319Y-104338382D01*
X138817487Y-104329697D01*
X138762657Y-104321013D01*
X138762656Y-104321013D01*
X138652995Y-104338382D01*
X138554070Y-104388786D01*
X138501293Y-104441562D01*
X138491394Y-104445662D01*
X138489464Y-104445528D01*
X127181419Y-102871884D01*
X127172180Y-102866459D01*
X127170875Y-102864374D01*
X127143366Y-102810383D01*
X127064860Y-102731877D01*
X126965933Y-102681472D01*
X126965934Y-102681472D01*
X126856272Y-102664103D01*
X126746610Y-102681472D01*
X126647683Y-102731877D01*
X126591171Y-102788390D01*
X126581272Y-102792491D01*
X126571373Y-102788390D01*
X126514860Y-102731877D01*
X126415933Y-102681472D01*
X126415934Y-102681472D01*
X126361102Y-102672787D01*
X126306272Y-102664103D01*
X126306271Y-102664103D01*
X126196610Y-102681472D01*
X126097683Y-102731877D01*
X126019177Y-102810383D01*
X125968772Y-102909310D01*
X125951403Y-103018971D01*
X121830500Y-103018971D01*
X121830500Y-101504500D01*
X121834601Y-101494601D01*
X121844500Y-101490500D01*
X121864351Y-101490500D01*
X136701923Y-101490500D01*
X136701925Y-101490501D01*
X136735948Y-101490500D01*
X136736595Y-101490530D01*
X136894653Y-101505517D01*
X136897236Y-101506011D01*
X137048698Y-101550167D01*
X137051144Y-101551139D01*
X137170244Y-101612058D01*
X137191598Y-101622981D01*
X137193829Y-101624402D01*
X137318628Y-101721648D01*
X137319259Y-101722206D01*
X137344714Y-101747661D01*
X137344716Y-101747663D01*
X137346311Y-101748584D01*
X137346148Y-101748865D01*
X137349350Y-101750656D01*
X137368604Y-101768915D01*
X137487841Y-101833975D01*
X137487842Y-101833975D01*
X137487844Y-101833976D01*
X137619694Y-101866592D01*
X137619698Y-101866593D01*
X137755515Y-101864627D01*
X137886373Y-101828207D01*
X137886375Y-101828206D01*
X137886377Y-101828205D01*
X138003675Y-101759726D01*
X138003674Y-101759726D01*
X138003677Y-101759725D01*
X138099725Y-101663677D01*
X138165423Y-101551142D01*
X138168205Y-101546377D01*
X138168206Y-101546375D01*
X138169587Y-101541413D01*
X138204627Y-101415515D01*
X138206593Y-101279698D01*
X138190799Y-101215851D01*
X138173976Y-101147844D01*
X138173975Y-101147842D01*
X138173975Y-101147841D01*
X138108915Y-101028604D01*
X138090656Y-101009350D01*
X138088865Y-101006148D01*
X138088584Y-101006311D01*
X138087663Y-101004716D01*
X138087657Y-101004710D01*
X138062178Y-100979231D01*
X138061613Y-100978592D01*
X137964402Y-100853826D01*
X137962982Y-100851596D01*
X137891142Y-100711145D01*
X137890166Y-100708689D01*
X137846005Y-100557229D01*
X137845510Y-100554643D01*
X137830530Y-100396801D01*
X137830500Y-100396152D01*
X137830500Y-98229603D01*
X137830505Y-98229552D01*
X137830504Y-98227952D01*
X137830506Y-98227950D01*
X137830502Y-98208129D01*
X137834601Y-98198230D01*
X137844499Y-98194128D01*
X137864351Y-98194128D01*
X140995649Y-98194128D01*
X141015498Y-98194128D01*
X141025397Y-98198229D01*
G37*
%TD.AperFunction*%
%TD*%
M02*
