%TF.GenerationSoftware,KiCad,Pcbnew,7.0.7*%
%TF.CreationDate,2023-11-17T16:52:15-08:00*%
%TF.ProjectId,beeper-flex,62656570-6572-42d6-966c-65782e6b6963,rev?*%
%TF.SameCoordinates,Original*%
%TF.FileFunction,Copper,L2,Bot*%
%TF.FilePolarity,Positive*%
%FSLAX46Y46*%
G04 Gerber Fmt 4.6, Leading zero omitted, Abs format (unit mm)*
G04 Created by KiCad (PCBNEW 7.0.7) date 2023-11-17 16:52:15*
%MOMM*%
%LPD*%
G01*
G04 APERTURE LIST*
%TA.AperFunction,ViaPad*%
%ADD10C,0.400000*%
%TD*%
%TA.AperFunction,Conductor*%
%ADD11C,0.090000*%
%TD*%
G04 APERTURE END LIST*
D10*
%TO.N,GND*%
X136302224Y-102218046D03*
X122818262Y-103327007D03*
X125977121Y-102050021D03*
X122855864Y-101339637D03*
X139914749Y-101226702D03*
X129665246Y-101712800D03*
X126477122Y-102050021D03*
X129144370Y-101473324D03*
X130148316Y-101490167D03*
X139889546Y-103360612D03*
X136806297Y-102192842D03*
%TO.N,VDDMIC*%
X136412707Y-101389814D03*
X134511727Y-103124457D03*
X127563968Y-101482700D03*
X127563968Y-102709279D03*
X133941434Y-103088814D03*
X128227664Y-102684075D03*
X128179082Y-101475613D03*
X135835453Y-101377932D03*
%TD*%
D11*
%TO.N,VDDMIC*%
X136412707Y-101389814D02*
X134511727Y-103124457D01*
X127563968Y-101482700D02*
X127563968Y-102709279D01*
X136412707Y-101389814D02*
X135835453Y-101377932D01*
X134511727Y-103124457D02*
X133941434Y-103088814D01*
X127563968Y-102709279D02*
X128227664Y-102684075D01*
X128179082Y-101475613D02*
X127563968Y-101482700D01*
%TD*%
%TA.AperFunction,Conductor*%
%TO.N,GND*%
G36*
X132175399Y-98868229D02*
G01*
X132179500Y-98878128D01*
X132179500Y-99449238D01*
X132179499Y-99449252D01*
X132179499Y-99485950D01*
X132179468Y-99486611D01*
X132165018Y-99639007D01*
X132164522Y-99641604D01*
X132121956Y-99787629D01*
X132120979Y-99790086D01*
X132051726Y-99925493D01*
X132050306Y-99927722D01*
X131959293Y-100044537D01*
X131957533Y-100046412D01*
X131934279Y-100067014D01*
X131932353Y-100072093D01*
X131929422Y-100076760D01*
X131906600Y-100100825D01*
X131837825Y-100226872D01*
X131837824Y-100226874D01*
X131803346Y-100366251D01*
X131803346Y-100366254D01*
X131803346Y-100366255D01*
X131805424Y-100509826D01*
X131805424Y-100509829D01*
X131805425Y-100509830D01*
X131805425Y-100509831D01*
X131843923Y-100648156D01*
X131843924Y-100648158D01*
X131916312Y-100772153D01*
X131916317Y-100772159D01*
X132017840Y-100873682D01*
X132017846Y-100873687D01*
X132141841Y-100946075D01*
X132141843Y-100946076D01*
X132141845Y-100946076D01*
X132141846Y-100946077D01*
X132280174Y-100984576D01*
X132423745Y-100986654D01*
X132563129Y-100952174D01*
X132689173Y-100883401D01*
X132739333Y-100835831D01*
X132742225Y-100833268D01*
X132742500Y-100833039D01*
X132862299Y-100739703D01*
X132864504Y-100738298D01*
X132999926Y-100669038D01*
X133002373Y-100668064D01*
X133148401Y-100625496D01*
X133150983Y-100625002D01*
X133303625Y-100610530D01*
X133304271Y-100610500D01*
X133339627Y-100610501D01*
X133339629Y-100610500D01*
X142165500Y-100610500D01*
X142175399Y-100614601D01*
X142179500Y-100624500D01*
X142179500Y-103835500D01*
X142175399Y-103845399D01*
X142165500Y-103849500D01*
X120554500Y-103849500D01*
X120544601Y-103845399D01*
X120540500Y-103835500D01*
X120540500Y-103088815D01*
X133646453Y-103088815D01*
X133664242Y-103189702D01*
X133715462Y-103278421D01*
X133715464Y-103278423D01*
X133715465Y-103278424D01*
X133793943Y-103344275D01*
X133890211Y-103379314D01*
X133890212Y-103379314D01*
X133992656Y-103379314D01*
X133992657Y-103379314D01*
X134088925Y-103344275D01*
X134167403Y-103278424D01*
X134185199Y-103247596D01*
X134193699Y-103241075D01*
X134198195Y-103240625D01*
X134237553Y-103243084D01*
X134247177Y-103247794D01*
X134248803Y-103250057D01*
X134285755Y-103314064D01*
X134285757Y-103314066D01*
X134285758Y-103314067D01*
X134364236Y-103379918D01*
X134460504Y-103414957D01*
X134460505Y-103414957D01*
X134562949Y-103414957D01*
X134562950Y-103414957D01*
X134659218Y-103379918D01*
X134737696Y-103314067D01*
X134788918Y-103225346D01*
X134806708Y-103124457D01*
X134795022Y-103058185D01*
X134797341Y-103047725D01*
X134799369Y-103045416D01*
X135610784Y-102305000D01*
X140293983Y-102305000D01*
X140311969Y-102435856D01*
X140337427Y-102494467D01*
X140364592Y-102557007D01*
X140447945Y-102659463D01*
X140447947Y-102659465D01*
X140447950Y-102659468D01*
X140555861Y-102735639D01*
X140680320Y-102779872D01*
X140768172Y-102785881D01*
X140812096Y-102788886D01*
X140812098Y-102788886D01*
X140812098Y-102788885D01*
X140812099Y-102788886D01*
X140941422Y-102762013D01*
X141058700Y-102701244D01*
X141155233Y-102611088D01*
X141223863Y-102498231D01*
X141259500Y-102371043D01*
X141259500Y-102305000D01*
X141259500Y-102269096D01*
X141259500Y-102238957D01*
X141223863Y-102111769D01*
X141155233Y-101998912D01*
X141058700Y-101908756D01*
X141058699Y-101908755D01*
X141058694Y-101908752D01*
X140941427Y-101847989D01*
X140941420Y-101847986D01*
X140812097Y-101821113D01*
X140680326Y-101830127D01*
X140680320Y-101830128D01*
X140555860Y-101874361D01*
X140447951Y-101950531D01*
X140447945Y-101950536D01*
X140364592Y-102052992D01*
X140339062Y-102111769D01*
X140311969Y-102174144D01*
X140293983Y-102305000D01*
X135610784Y-102305000D01*
X136307965Y-101668823D01*
X136318040Y-101665181D01*
X136322181Y-101666008D01*
X136361484Y-101680314D01*
X136361485Y-101680314D01*
X136463929Y-101680314D01*
X136463930Y-101680314D01*
X136560198Y-101645275D01*
X136638676Y-101579424D01*
X136689898Y-101490703D01*
X136707688Y-101389814D01*
X136705592Y-101377930D01*
X136689898Y-101288925D01*
X136638678Y-101200206D01*
X136624518Y-101188324D01*
X136560198Y-101134353D01*
X136512064Y-101116833D01*
X136463931Y-101099314D01*
X136463930Y-101099314D01*
X136361484Y-101099314D01*
X136361482Y-101099314D01*
X136265217Y-101134353D01*
X136186735Y-101200206D01*
X136162672Y-101241885D01*
X136154171Y-101248408D01*
X136150260Y-101248882D01*
X136103628Y-101247923D01*
X136093815Y-101243620D01*
X136091795Y-101240931D01*
X136061422Y-101188322D01*
X135982944Y-101122471D01*
X135934809Y-101104951D01*
X135886677Y-101087432D01*
X135886676Y-101087432D01*
X135784230Y-101087432D01*
X135784228Y-101087432D01*
X135687963Y-101122471D01*
X135609481Y-101188324D01*
X135558261Y-101277043D01*
X135540472Y-101377930D01*
X135540472Y-101377933D01*
X135558261Y-101478820D01*
X135609481Y-101567539D01*
X135609483Y-101567541D01*
X135609484Y-101567542D01*
X135687962Y-101633393D01*
X135784230Y-101668432D01*
X135784231Y-101668432D01*
X135870235Y-101668432D01*
X135880134Y-101672533D01*
X135884235Y-101682432D01*
X135880134Y-101692331D01*
X135879680Y-101692765D01*
X135814407Y-101752328D01*
X134616469Y-102845445D01*
X134606392Y-102849088D01*
X134602244Y-102848259D01*
X134562951Y-102833957D01*
X134562950Y-102833957D01*
X134460504Y-102833957D01*
X134460502Y-102833957D01*
X134364237Y-102868996D01*
X134285755Y-102934849D01*
X134267961Y-102965671D01*
X134259460Y-102972194D01*
X134254964Y-102972644D01*
X134215607Y-102970184D01*
X134205982Y-102965474D01*
X134204362Y-102963221D01*
X134167403Y-102899204D01*
X134088925Y-102833353D01*
X134040790Y-102815833D01*
X133992658Y-102798314D01*
X133992657Y-102798314D01*
X133890211Y-102798314D01*
X133890209Y-102798314D01*
X133793944Y-102833353D01*
X133715462Y-102899206D01*
X133664242Y-102987925D01*
X133646453Y-103088812D01*
X133646453Y-103088815D01*
X120540500Y-103088815D01*
X120540500Y-102369771D01*
X121490500Y-102369771D01*
X121526995Y-102494068D01*
X121543448Y-102519669D01*
X121597033Y-102603049D01*
X121694937Y-102687882D01*
X121694938Y-102687882D01*
X121694939Y-102687883D01*
X121753855Y-102714789D01*
X121812774Y-102741697D01*
X121941000Y-102760133D01*
X122069226Y-102741697D01*
X122140208Y-102709280D01*
X127268987Y-102709280D01*
X127286776Y-102810167D01*
X127337996Y-102898886D01*
X127337998Y-102898888D01*
X127337999Y-102898889D01*
X127416477Y-102964740D01*
X127512745Y-102999779D01*
X127512746Y-102999779D01*
X127615190Y-102999779D01*
X127615191Y-102999779D01*
X127711459Y-102964740D01*
X127789937Y-102898889D01*
X127823019Y-102841585D01*
X127831518Y-102835064D01*
X127834605Y-102834597D01*
X127967593Y-102829548D01*
X127977641Y-102833270D01*
X127980248Y-102836538D01*
X128001692Y-102873682D01*
X128001694Y-102873684D01*
X128001695Y-102873685D01*
X128080173Y-102939536D01*
X128176441Y-102974575D01*
X128176442Y-102974575D01*
X128278886Y-102974575D01*
X128278887Y-102974575D01*
X128375155Y-102939536D01*
X128453633Y-102873685D01*
X128504855Y-102784964D01*
X128522645Y-102684075D01*
X128508357Y-102603049D01*
X128504855Y-102583186D01*
X128453635Y-102494467D01*
X128453161Y-102494069D01*
X128375155Y-102428614D01*
X128319865Y-102408490D01*
X128278888Y-102393575D01*
X128278887Y-102393575D01*
X128176441Y-102393575D01*
X128176439Y-102393575D01*
X128080174Y-102428614D01*
X128001692Y-102494467D01*
X127968613Y-102551765D01*
X127960113Y-102558288D01*
X127957020Y-102558755D01*
X127824037Y-102563804D01*
X127813989Y-102560082D01*
X127811384Y-102556819D01*
X127789937Y-102519669D01*
X127711459Y-102453818D01*
X127711458Y-102453817D01*
X127711456Y-102453816D01*
X127708678Y-102452805D01*
X127700778Y-102445566D01*
X127699467Y-102439650D01*
X127699467Y-101752328D01*
X127703568Y-101742429D01*
X127708677Y-101739173D01*
X127711459Y-101738161D01*
X127789937Y-101672310D01*
X127818905Y-101622131D01*
X127827406Y-101615609D01*
X127830868Y-101615133D01*
X127915387Y-101614159D01*
X127925333Y-101618145D01*
X127927672Y-101621158D01*
X127953110Y-101665220D01*
X127953112Y-101665222D01*
X127953113Y-101665223D01*
X128031591Y-101731074D01*
X128127859Y-101766113D01*
X128127860Y-101766113D01*
X128230304Y-101766113D01*
X128230305Y-101766113D01*
X128326573Y-101731074D01*
X128405051Y-101665223D01*
X128405076Y-101665181D01*
X128452181Y-101583589D01*
X128456273Y-101576502D01*
X128474063Y-101475613D01*
X128456273Y-101374724D01*
X128456272Y-101374723D01*
X128405053Y-101286005D01*
X128405051Y-101286003D01*
X128326573Y-101220152D01*
X128271767Y-101200204D01*
X128230306Y-101185113D01*
X128230305Y-101185113D01*
X128127859Y-101185113D01*
X128127857Y-101185113D01*
X128031592Y-101220152D01*
X127953110Y-101286005D01*
X127924143Y-101336179D01*
X127915642Y-101342702D01*
X127912180Y-101343178D01*
X127827661Y-101344152D01*
X127817715Y-101340166D01*
X127815380Y-101337159D01*
X127789937Y-101293090D01*
X127711459Y-101227239D01*
X127663324Y-101209719D01*
X127615192Y-101192200D01*
X127615191Y-101192200D01*
X127512745Y-101192200D01*
X127512743Y-101192200D01*
X127416478Y-101227239D01*
X127337996Y-101293092D01*
X127286776Y-101381811D01*
X127268987Y-101482698D01*
X127268987Y-101482701D01*
X127286776Y-101583588D01*
X127337996Y-101672307D01*
X127337998Y-101672309D01*
X127337999Y-101672310D01*
X127416477Y-101738161D01*
X127419252Y-101739171D01*
X127419255Y-101739172D01*
X127427155Y-101746411D01*
X127428467Y-101752328D01*
X127428468Y-102439651D01*
X127424368Y-102449550D01*
X127419258Y-102452806D01*
X127416479Y-102453817D01*
X127416476Y-102453819D01*
X127337996Y-102519671D01*
X127286776Y-102608390D01*
X127268987Y-102709277D01*
X127268987Y-102709280D01*
X122140208Y-102709280D01*
X122187063Y-102687882D01*
X122284967Y-102603049D01*
X122355004Y-102494069D01*
X122391500Y-102369772D01*
X122391500Y-102305000D01*
X122391500Y-102269096D01*
X122391500Y-102240228D01*
X122355004Y-102115931D01*
X122284967Y-102006951D01*
X122187063Y-101922118D01*
X122187061Y-101922117D01*
X122187060Y-101922116D01*
X122069227Y-101868303D01*
X121941000Y-101849867D01*
X121812772Y-101868303D01*
X121694939Y-101922116D01*
X121597036Y-102006948D01*
X121597033Y-102006951D01*
X121526995Y-102115931D01*
X121490500Y-102240228D01*
X121490500Y-102369771D01*
X120540500Y-102369771D01*
X120540500Y-100624500D01*
X120544601Y-100614601D01*
X120554500Y-100610500D01*
X125380371Y-100610500D01*
X125380373Y-100610501D01*
X125415950Y-100610500D01*
X125416595Y-100610530D01*
X125569007Y-100624981D01*
X125571604Y-100625477D01*
X125717630Y-100668043D01*
X125720085Y-100669019D01*
X125855501Y-100738277D01*
X125857716Y-100739688D01*
X125899393Y-100772159D01*
X125966554Y-100824485D01*
X125969472Y-100827576D01*
X125973225Y-100833014D01*
X125979343Y-100841877D01*
X125994862Y-100850022D01*
X125997987Y-100852258D01*
X126030827Y-100883401D01*
X126156871Y-100952174D01*
X126156872Y-100952174D01*
X126156874Y-100952175D01*
X126296251Y-100986653D01*
X126296255Y-100986654D01*
X126439826Y-100984576D01*
X126578154Y-100946077D01*
X126578156Y-100946076D01*
X126578158Y-100946075D01*
X126702153Y-100873687D01*
X126702152Y-100873687D01*
X126702155Y-100873686D01*
X126803686Y-100772155D01*
X126864238Y-100668434D01*
X126876075Y-100648158D01*
X126876076Y-100648156D01*
X126876077Y-100648154D01*
X126914576Y-100509826D01*
X126916654Y-100366255D01*
X126914980Y-100359486D01*
X126882175Y-100226874D01*
X126882174Y-100226872D01*
X126882174Y-100226871D01*
X126813401Y-100100827D01*
X126774079Y-100059364D01*
X126772717Y-100057685D01*
X126756002Y-100033468D01*
X126752091Y-100031416D01*
X126747552Y-100027623D01*
X126669702Y-99927703D01*
X126668282Y-99925474D01*
X126599022Y-99790066D01*
X126598046Y-99787610D01*
X126587846Y-99752629D01*
X126555469Y-99641588D01*
X126554974Y-99639002D01*
X126540530Y-99486799D01*
X126540500Y-99486150D01*
X126540500Y-98878128D01*
X126544601Y-98868229D01*
X126554500Y-98864128D01*
X132165500Y-98864128D01*
X132175399Y-98868229D01*
G37*
%TD.AperFunction*%
%TD*%
M02*
