%TF.GenerationSoftware,KiCad,Pcbnew,7.0.7*%
%TF.CreationDate,2024-01-12T13:30:44-08:00*%
%TF.ProjectId,beeper-flex,62656570-6572-42d6-966c-65782e6b6963,rev?*%
%TF.SameCoordinates,Original*%
%TF.FileFunction,Copper,L2,Bot*%
%TF.FilePolarity,Positive*%
%FSLAX46Y46*%
G04 Gerber Fmt 4.6, Leading zero omitted, Abs format (unit mm)*
G04 Created by KiCad (PCBNEW 7.0.7) date 2024-01-12 13:30:44*
%MOMM*%
%LPD*%
G01*
G04 APERTURE LIST*
G04 Aperture macros list*
%AMFreePoly0*
4,1,9,0.003536,0.003536,0.005000,0.000000,0.003536,-0.003536,0.000000,-0.005000,-0.003536,-0.003536,-0.005000,0.000000,-0.003536,0.003536,0.000000,0.005000,0.003536,0.003536,0.003536,0.003536,$1*%
%AMFreePoly1*
4,1,59,0.200943,1.010209,0.394164,0.951596,0.572237,0.856414,0.728320,0.728320,0.856414,0.572237,0.951596,0.394164,1.010209,0.200943,1.030000,0.000000,1.010209,-0.200943,0.951596,-0.394164,0.856414,-0.572237,0.728320,-0.728320,0.572237,-0.856414,0.394164,-0.951596,0.200943,-1.010209,0.000000,-1.030000,-0.200943,-1.010209,-0.394164,-0.951596,-0.572237,-0.856414,-0.728320,-0.728320,
-0.856414,-0.572237,-0.951596,-0.394164,-1.010209,-0.200943,-1.030000,0.000000,-0.585005,0.000000,-0.565071,-0.151410,-0.506629,-0.292503,-0.413661,-0.413661,-0.292503,-0.506629,-0.151410,-0.565071,0.000000,-0.585005,0.151410,-0.565071,0.292503,-0.506629,0.413661,-0.413661,0.506629,-0.292503,0.565071,-0.151410,0.585005,0.000000,0.565071,0.151410,0.506629,0.292502,0.413661,0.413661,
0.292503,0.506629,0.151410,0.565071,0.000000,0.585005,-0.151410,0.565071,-0.292502,0.506629,-0.413661,0.413661,-0.506629,0.292502,-0.565071,0.151410,-0.585005,0.000000,-1.030000,0.000000,-1.010209,0.200943,-0.951596,0.394164,-0.856414,0.572237,-0.728320,0.728320,-0.572237,0.856414,-0.394164,0.951596,-0.200943,1.010209,0.000000,1.030000,0.200943,1.010209,0.200943,1.010209,
$1*%
G04 Aperture macros list end*
%TA.AperFunction,SMDPad,CuDef*%
%ADD10R,0.480000X0.780000*%
%TD*%
%TA.AperFunction,SMDPad,CuDef*%
%ADD11FreePoly0,180.000000*%
%TD*%
%TA.AperFunction,SMDPad,CuDef*%
%ADD12FreePoly1,180.000000*%
%TD*%
%TA.AperFunction,SMDPad,CuDef*%
%ADD13R,0.330000X0.158310*%
%TD*%
%TA.AperFunction,SMDPad,CuDef*%
%ADD14R,0.158310X0.330000*%
%TD*%
%TA.AperFunction,SMDPad,CuDef*%
%ADD15R,0.300000X2.500000*%
%TD*%
%TA.AperFunction,SMDPad,CuDef*%
%ADD16FreePoly0,0.000000*%
%TD*%
%TA.AperFunction,SMDPad,CuDef*%
%ADD17FreePoly1,0.000000*%
%TD*%
%TA.AperFunction,ViaPad*%
%ADD18C,0.400000*%
%TD*%
%TA.AperFunction,Conductor*%
%ADD19C,0.080000*%
%TD*%
G04 APERTURE END LIST*
D10*
%TO.P,U3,1*%
%TO.N,PDM_data*%
X139930000Y-104690000D03*
%TO.P,U3,2*%
%TO.N,VDDMIC*%
X140630000Y-104690000D03*
%TO.P,U3,3*%
%TO.N,PDM_clk*%
X139930000Y-102990000D03*
%TO.P,U3,4*%
%TO.N,GND*%
X140630000Y-102990000D03*
D11*
%TO.P,U3,5*%
X142110000Y-103840000D03*
D12*
X142110000Y-103840000D03*
%TD*%
D13*
%TO.P,C5,1*%
%TO.N,GND*%
X126895826Y-104029634D03*
%TO.P,C5,2*%
%TO.N,VDDMIC*%
X126895826Y-104501324D03*
%TD*%
D14*
%TO.P,C4,1*%
%TO.N,GND*%
X138436641Y-103288483D03*
%TO.P,C4,2*%
%TO.N,VDDMIC*%
X138908331Y-103288483D03*
%TD*%
D15*
%TO.P,U6,1*%
%TO.N,PDM_clk*%
X138175000Y-99300000D03*
%TO.P,U6,2*%
%TO.N,GND*%
X138675000Y-99300000D03*
%TO.P,U6,3*%
X139175000Y-99300000D03*
%TO.P,U6,4*%
X139675000Y-99300000D03*
%TO.P,U6,5*%
%TO.N,PDM_data*%
X140175000Y-99300000D03*
%TO.P,U6,6*%
%TO.N,VDDMIC*%
X140675000Y-99300000D03*
%TD*%
D10*
%TO.P,U4,1*%
%TO.N,PDM_data*%
X125680000Y-102990000D03*
%TO.P,U4,2*%
%TO.N,VDDMIC*%
X124980000Y-102990000D03*
%TO.P,U4,3*%
%TO.N,PDM_clk*%
X125680000Y-104690000D03*
%TO.P,U4,4*%
%TO.N,VDDMIC*%
X124980000Y-104690000D03*
D16*
%TO.P,U4,5*%
%TO.N,GND*%
X123500000Y-103840000D03*
D17*
X123500000Y-103840000D03*
%TD*%
D18*
%TO.N,VDDMIC*%
X136613595Y-104121402D03*
X136580066Y-105137257D03*
X135947597Y-102780495D03*
X136106004Y-104155241D03*
X136086721Y-105159191D03*
X135472595Y-102880762D03*
X140473556Y-101616474D03*
%TO.N,GND*%
X124318241Y-102772504D03*
X139779222Y-103692338D03*
X139194098Y-101096699D03*
X141990404Y-102542989D03*
X140278888Y-103674057D03*
X128155771Y-104027136D03*
X127564445Y-104021107D03*
X137377435Y-103265161D03*
X139680234Y-100832322D03*
X137900750Y-103268798D03*
X138681446Y-100849212D03*
%TD*%
D19*
%TO.N,VDDMIC*%
X140675000Y-99300000D02*
X140473556Y-101616474D01*
%TO.N,GND*%
X137900750Y-103268798D02*
X137377435Y-103265161D01*
X126895826Y-104029634D02*
X127564445Y-104021107D01*
X138436641Y-103288483D02*
X137900750Y-103268798D01*
X127564445Y-104021107D02*
X128155771Y-104027136D01*
X140278888Y-103674057D02*
X139779222Y-103692338D01*
X139675000Y-99300000D02*
X139680234Y-100832322D01*
X124348432Y-103833244D02*
X124318241Y-102772504D01*
X139175000Y-99300000D02*
X139194098Y-101096699D01*
X140630000Y-102990000D02*
X140278888Y-103674057D01*
X142123490Y-102991960D02*
X141990404Y-102542989D01*
X138675000Y-99300000D02*
X138681446Y-100849212D01*
%TO.N,PDM_clk*%
X125680000Y-104690000D02*
X126729629Y-104700473D01*
X126729629Y-104700473D02*
G75*
G03*
X126730826Y-104700479I1071J89473D01*
G01*
X126730826Y-104700479D02*
X127060826Y-104700479D01*
X127060826Y-104700484D02*
G75*
G03*
X127081220Y-104698732I-26J119884D01*
G01*
X127081220Y-104698733D02*
X137353643Y-102927198D01*
X137378408Y-102925173D02*
G75*
G03*
X137353643Y-102927199I-1008J-140027D01*
G01*
X137378408Y-102925165D02*
X137901722Y-102928801D01*
X137904975Y-102928862D02*
G75*
G03*
X137901722Y-102928801I-4375J-146838D01*
G01*
X137904975Y-102928861D02*
X139930000Y-102990000D01*
X139930000Y-102990000D02*
X138429858Y-101077025D01*
X138423618Y-101068413D02*
G75*
G03*
X138429858Y-101077025I117282J78413D01*
G01*
X138423618Y-101068413D02*
X138380264Y-101003528D01*
X138359368Y-100953059D02*
G75*
G03*
X138380264Y-101003528I137232J27259D01*
G01*
X138359360Y-100953061D02*
X138344136Y-100876525D01*
X138342239Y-100864096D02*
G75*
G03*
X138344136Y-100876525I139261J14896D01*
G01*
X138342239Y-100864096D02*
X138175000Y-99300000D01*
%TO.N,PDM_data*%
X139930000Y-104690000D02*
X140295737Y-104225741D01*
X140299332Y-104221391D02*
G75*
G03*
X140295737Y-104225741I91068J-78909D01*
G01*
X140299332Y-104221391D02*
X140960668Y-103458609D01*
X140960668Y-103458609D02*
G75*
G03*
X140990000Y-103380000I-90668J78609D01*
G01*
X140990000Y-103380000D02*
X140990000Y-102600000D01*
X140989999Y-102600000D02*
G75*
G03*
X140950839Y-102511317I-119999J0D01*
G01*
X140950840Y-102511316D02*
X140237821Y-101861360D01*
X140215725Y-101835678D02*
G75*
G03*
X140237821Y-101861360I116375J77778D01*
G01*
X140215729Y-101835675D02*
X140172375Y-101770790D01*
X140151471Y-101720323D02*
G75*
G03*
X140172376Y-101770790I137329J27323D01*
G01*
X140151470Y-101720323D02*
X140136246Y-101643786D01*
X140133584Y-101613968D02*
G75*
G03*
X140136247Y-101643786I139916J-2532D01*
G01*
X140133579Y-101613968D02*
X140175000Y-99300000D01*
X125680000Y-102990000D02*
X125314263Y-103454259D01*
X125310668Y-103458609D02*
G75*
G03*
X125314263Y-103454259I-91068J78909D01*
G01*
X125310668Y-103458609D02*
X124649332Y-104221391D01*
X124649332Y-104221391D02*
G75*
G03*
X124620000Y-104300000I90668J-78609D01*
G01*
X124620000Y-104300000D02*
X124620000Y-105080000D01*
X124620000Y-105080000D02*
G75*
G03*
X124740000Y-105200000I120000J0D01*
G01*
X124740000Y-105200000D02*
X125920000Y-105200000D01*
X125920000Y-105199998D02*
G75*
G03*
X125924533Y-105199914I100J116798D01*
G01*
X125924533Y-105199914D02*
X136574778Y-104797357D01*
X136575589Y-104797329D02*
G75*
G03*
X136574778Y-104797358I5311J-158971D01*
G01*
X136575589Y-104797328D02*
X139930000Y-104690000D01*
%TD*%
%TA.AperFunction,Conductor*%
%TO.N,VDDMIC*%
G36*
X140724148Y-99250852D02*
G01*
X140738500Y-99285500D01*
X140738500Y-100677000D01*
X140837508Y-100677000D01*
X140837511Y-100676999D01*
X140874551Y-100669631D01*
X140893454Y-100657001D01*
X140930236Y-100649684D01*
X140961419Y-100670520D01*
X140968736Y-100707302D01*
X140964301Y-100720057D01*
X140898530Y-100848642D01*
X140893557Y-100856446D01*
X140799025Y-100977762D01*
X140797022Y-100980029D01*
X140771517Y-101005533D01*
X140766173Y-101012692D01*
X140751085Y-101028602D01*
X140686026Y-101147838D01*
X140686024Y-101147841D01*
X140653407Y-101279695D01*
X140655373Y-101415515D01*
X140680818Y-101506942D01*
X140691793Y-101546373D01*
X140760275Y-101663677D01*
X140856323Y-101759725D01*
X140973627Y-101828207D01*
X141104485Y-101864627D01*
X141240302Y-101866593D01*
X141372159Y-101833975D01*
X141372163Y-101833972D01*
X141372167Y-101833971D01*
X141402055Y-101817662D01*
X141491396Y-101768915D01*
X141507303Y-101753829D01*
X141514456Y-101748489D01*
X141515282Y-101747662D01*
X141515285Y-101747662D01*
X141540010Y-101722935D01*
X141542271Y-101720939D01*
X141663557Y-101626440D01*
X141671344Y-101621477D01*
X141805906Y-101552650D01*
X141814495Y-101549237D01*
X141959579Y-101506935D01*
X141968662Y-101505196D01*
X142008650Y-101501401D01*
X142122365Y-101490610D01*
X142124681Y-101490500D01*
X143730500Y-101490500D01*
X143765148Y-101504852D01*
X143779500Y-101539500D01*
X143779500Y-105740500D01*
X143765148Y-105775148D01*
X143730500Y-105789500D01*
X121879500Y-105789500D01*
X121844852Y-105775148D01*
X121830500Y-105740500D01*
X121830500Y-101539500D01*
X121844852Y-101504852D01*
X121879500Y-101490500D01*
X136701923Y-101490500D01*
X136701925Y-101490501D01*
X136735117Y-101490500D01*
X136737417Y-101490608D01*
X136887637Y-101504852D01*
X136891339Y-101505203D01*
X136900428Y-101506942D01*
X137045516Y-101549239D01*
X137054103Y-101552652D01*
X137116263Y-101584447D01*
X137188642Y-101621469D01*
X137196446Y-101626442D01*
X137317764Y-101720975D01*
X137320023Y-101722970D01*
X137344715Y-101747662D01*
X137345542Y-101748489D01*
X137352697Y-101753830D01*
X137368604Y-101768915D01*
X137393956Y-101782748D01*
X137487832Y-101833971D01*
X137487841Y-101833975D01*
X137619698Y-101866593D01*
X137755515Y-101864627D01*
X137886373Y-101828207D01*
X138003677Y-101759725D01*
X138099725Y-101663677D01*
X138168207Y-101546373D01*
X138204627Y-101415515D01*
X138206593Y-101279698D01*
X138173975Y-101147841D01*
X138173971Y-101147832D01*
X138130714Y-101068556D01*
X138108915Y-101028604D01*
X138093830Y-101012697D01*
X138088489Y-101005542D01*
X138081553Y-100998606D01*
X138062940Y-100979993D01*
X138060944Y-100977733D01*
X137979398Y-100873073D01*
X137966443Y-100856446D01*
X137961473Y-100848647D01*
X137961470Y-100848642D01*
X137892651Y-100714096D01*
X137889236Y-100705499D01*
X137887168Y-100698407D01*
X137881536Y-100679090D01*
X137885615Y-100641811D01*
X137914861Y-100618334D01*
X137952141Y-100622413D01*
X137955800Y-100624633D01*
X137985784Y-100644668D01*
X137985786Y-100644668D01*
X137985787Y-100644669D01*
X138015101Y-100650500D01*
X138134059Y-100650499D01*
X138168707Y-100664850D01*
X138182781Y-100694289D01*
X138198805Y-100844150D01*
X138198805Y-100844168D01*
X138200457Y-100859606D01*
X138201898Y-100873073D01*
X138202424Y-100878003D01*
X138202481Y-100878530D01*
X138202587Y-100883675D01*
X138202726Y-100885791D01*
X138203662Y-100890495D01*
X138203993Y-100892670D01*
X138204500Y-100897421D01*
X138205012Y-100899532D01*
X138206436Y-100904445D01*
X138221015Y-100977733D01*
X138225168Y-100998611D01*
X138225170Y-100998615D01*
X138225649Y-101000026D01*
X138225772Y-101000324D01*
X138236958Y-101033297D01*
X138236960Y-101033302D01*
X138252390Y-101064599D01*
X138252479Y-101064813D01*
X138253166Y-101066207D01*
X138285880Y-101115166D01*
X138285926Y-101115256D01*
X138304081Y-101142410D01*
X138306244Y-101146405D01*
X138306248Y-101146403D01*
X138307885Y-101149170D01*
X138312140Y-101154596D01*
X138313231Y-101156102D01*
X138317072Y-101161849D01*
X138319190Y-101164265D01*
X138319187Y-101164267D01*
X138322309Y-101167566D01*
X138342537Y-101193376D01*
X138342602Y-101193442D01*
X139569621Y-102758131D01*
X139579708Y-102794252D01*
X139561300Y-102826926D01*
X139529584Y-102837346D01*
X137946784Y-102789559D01*
X137946659Y-102789541D01*
X137933726Y-102789155D01*
X137925714Y-102788916D01*
X137923085Y-102788695D01*
X137921197Y-102788433D01*
X137905970Y-102788327D01*
X137890727Y-102787867D01*
X137890726Y-102787867D01*
X137890720Y-102787867D01*
X137888852Y-102788055D01*
X137886218Y-102788177D01*
X137875007Y-102788092D01*
X137870728Y-102788060D01*
X137870727Y-102788060D01*
X137865394Y-102788020D01*
X137865167Y-102788043D01*
X137360889Y-102784540D01*
X137357706Y-102784937D01*
X137357647Y-102784465D01*
X137351177Y-102784997D01*
X137351196Y-102785471D01*
X137347988Y-102785599D01*
X137329807Y-102788734D01*
X137293347Y-102795011D01*
X137293251Y-102795038D01*
X128407488Y-104327436D01*
X128370905Y-104319182D01*
X128350874Y-104287476D01*
X128359128Y-104250893D01*
X128367665Y-104241613D01*
X128389516Y-104223277D01*
X128389517Y-104223275D01*
X128389519Y-104223274D01*
X128418545Y-104173000D01*
X128442504Y-104131501D01*
X128442504Y-104131500D01*
X128442505Y-104131499D01*
X128460907Y-104027136D01*
X128442505Y-103922773D01*
X128442504Y-103922771D01*
X128442504Y-103922770D01*
X128389520Y-103830999D01*
X128389518Y-103830996D01*
X128308339Y-103762879D01*
X128208757Y-103726636D01*
X128102785Y-103726636D01*
X128003202Y-103762879D01*
X127922023Y-103830996D01*
X127922022Y-103830997D01*
X127905771Y-103859145D01*
X127876017Y-103881975D01*
X127862845Y-103883641D01*
X127859848Y-103883611D01*
X127825347Y-103868913D01*
X127817908Y-103859117D01*
X127798193Y-103824969D01*
X127798191Y-103824967D01*
X127717013Y-103756850D01*
X127617431Y-103720607D01*
X127511459Y-103720607D01*
X127411876Y-103756850D01*
X127330697Y-103824967D01*
X127330695Y-103824970D01*
X127310546Y-103859870D01*
X127280793Y-103882700D01*
X127268736Y-103884366D01*
X127160342Y-103885749D01*
X127132494Y-103877495D01*
X127100038Y-103855809D01*
X127070727Y-103849979D01*
X126720931Y-103849979D01*
X126720930Y-103849979D01*
X126720928Y-103849980D01*
X126691613Y-103855810D01*
X126691612Y-103855810D01*
X126691610Y-103855811D01*
X126691609Y-103855811D01*
X126658369Y-103878021D01*
X126636157Y-103911263D01*
X126633869Y-103922770D01*
X126630326Y-103940580D01*
X126630326Y-103940582D01*
X126630326Y-103940583D01*
X126630326Y-104118683D01*
X126630327Y-104118687D01*
X126636157Y-104148002D01*
X126636157Y-104148003D01*
X126636158Y-104148004D01*
X126636158Y-104148005D01*
X126658368Y-104181245D01*
X126658369Y-104181246D01*
X126670121Y-104189098D01*
X126691611Y-104203457D01*
X126691613Y-104203458D01*
X126693887Y-104203910D01*
X126695818Y-104205200D01*
X126696069Y-104205304D01*
X126696048Y-104205353D01*
X126725071Y-104224743D01*
X126732390Y-104261525D01*
X126711557Y-104292709D01*
X126693892Y-104300027D01*
X126681275Y-104302537D01*
X126639264Y-104330607D01*
X126611194Y-104372618D01*
X126603826Y-104409657D01*
X126603826Y-104437824D01*
X127187824Y-104437824D01*
X127187826Y-104437822D01*
X127187826Y-104409661D01*
X127187825Y-104409657D01*
X127180457Y-104372618D01*
X127152387Y-104330607D01*
X127110376Y-104302536D01*
X127097759Y-104300027D01*
X127066577Y-104279191D01*
X127059261Y-104242409D01*
X127080097Y-104211227D01*
X127097760Y-104203911D01*
X127100039Y-104203458D01*
X127133283Y-104181246D01*
X127133288Y-104181237D01*
X127133491Y-104181036D01*
X127133779Y-104180914D01*
X127137297Y-104178564D01*
X127137748Y-104179239D01*
X127167523Y-104166679D01*
X127271818Y-104165350D01*
X127306646Y-104179259D01*
X127314877Y-104189846D01*
X127330695Y-104217243D01*
X127330697Y-104217246D01*
X127411876Y-104285363D01*
X127511459Y-104321607D01*
X127617431Y-104321607D01*
X127717013Y-104285363D01*
X127798193Y-104217245D01*
X127814443Y-104189096D01*
X127844194Y-104166267D01*
X127857361Y-104164599D01*
X127860367Y-104164630D01*
X127894867Y-104179328D01*
X127902308Y-104189127D01*
X127922021Y-104223272D01*
X127922023Y-104223275D01*
X127972725Y-104265818D01*
X128003203Y-104291392D01*
X128021649Y-104298105D01*
X128027227Y-104300136D01*
X128054877Y-104325473D01*
X128056513Y-104362940D01*
X128031176Y-104390590D01*
X128018795Y-104394468D01*
X127219196Y-104532363D01*
X127211790Y-104530692D01*
X127203263Y-104535111D01*
X127094083Y-104553939D01*
X127093954Y-104553948D01*
X127063207Y-104559263D01*
X127054861Y-104559979D01*
X126768372Y-104559979D01*
X126767901Y-104559926D01*
X126730940Y-104559978D01*
X126694241Y-104559538D01*
X126693567Y-104559605D01*
X126069009Y-104553374D01*
X126034506Y-104538677D01*
X126020498Y-104504378D01*
X126020499Y-104290102D01*
X126014669Y-104260787D01*
X126014667Y-104260784D01*
X126014667Y-104260783D01*
X125992457Y-104227543D01*
X125959212Y-104205330D01*
X125929901Y-104199500D01*
X125430105Y-104199500D01*
X125430104Y-104199500D01*
X125430102Y-104199501D01*
X125415444Y-104202416D01*
X125400785Y-104205331D01*
X125378407Y-104220284D01*
X125341624Y-104227599D01*
X125316208Y-104210616D01*
X125314975Y-104211850D01*
X125311565Y-104208440D01*
X125269550Y-104180368D01*
X125232511Y-104173000D01*
X125043500Y-104173000D01*
X125043500Y-104704500D01*
X125029148Y-104739148D01*
X124994500Y-104753500D01*
X124965500Y-104753500D01*
X124930852Y-104739148D01*
X124916500Y-104704500D01*
X124916500Y-104157104D01*
X124913388Y-104149592D01*
X124925365Y-104117493D01*
X124925366Y-104117492D01*
X125392135Y-103579124D01*
X125392205Y-103579060D01*
X125395851Y-103574851D01*
X125395852Y-103574851D01*
X125407542Y-103561358D01*
X125411023Y-103558126D01*
X125410880Y-103557979D01*
X125413179Y-103555738D01*
X125413181Y-103555734D01*
X125413184Y-103555733D01*
X125420475Y-103546475D01*
X125421201Y-103545599D01*
X125421712Y-103545009D01*
X125428941Y-103536673D01*
X125428942Y-103536669D01*
X125430713Y-103533988D01*
X125430880Y-103534098D01*
X125433406Y-103530061D01*
X125456342Y-103500948D01*
X125457738Y-103499176D01*
X125490453Y-103480840D01*
X125496228Y-103480499D01*
X125929895Y-103480499D01*
X125929898Y-103480499D01*
X125959213Y-103474669D01*
X125992457Y-103452457D01*
X126014669Y-103419213D01*
X126020500Y-103389899D01*
X126020499Y-102590102D01*
X126014669Y-102560787D01*
X126014667Y-102560784D01*
X126014667Y-102560783D01*
X125992457Y-102527543D01*
X125959212Y-102505330D01*
X125929901Y-102499500D01*
X125430105Y-102499500D01*
X125430104Y-102499500D01*
X125430102Y-102499501D01*
X125415444Y-102502416D01*
X125400785Y-102505331D01*
X125378407Y-102520284D01*
X125341624Y-102527599D01*
X125316208Y-102510616D01*
X125314975Y-102511850D01*
X125311565Y-102508440D01*
X125269550Y-102480368D01*
X125232511Y-102473000D01*
X125043500Y-102473000D01*
X125043500Y-103522896D01*
X125046611Y-103530407D01*
X125034634Y-103562506D01*
X124718825Y-103926758D01*
X124685284Y-103943535D01*
X124649703Y-103931682D01*
X124632926Y-103898141D01*
X124633037Y-103889865D01*
X124636960Y-103850044D01*
X124636960Y-103829956D01*
X124617073Y-103628041D01*
X124613154Y-103608340D01*
X124591898Y-103538268D01*
X124595574Y-103500948D01*
X124624564Y-103477156D01*
X124661886Y-103480832D01*
X124666010Y-103483303D01*
X124690449Y-103499631D01*
X124727488Y-103506999D01*
X124727492Y-103507000D01*
X124916500Y-103507000D01*
X124916500Y-103053500D01*
X124613000Y-103053500D01*
X124613000Y-103324286D01*
X124598648Y-103358934D01*
X124564000Y-103373286D01*
X124529352Y-103358934D01*
X124520786Y-103347385D01*
X124508439Y-103324286D01*
X124478029Y-103267394D01*
X124472264Y-103245695D01*
X124467097Y-103064134D01*
X124480458Y-103029091D01*
X124484582Y-103025204D01*
X124551986Y-102968645D01*
X124551987Y-102968644D01*
X124551987Y-102968643D01*
X124551989Y-102968642D01*
X124562174Y-102950999D01*
X124591927Y-102928170D01*
X124604610Y-102926500D01*
X124916500Y-102926500D01*
X124916500Y-102473000D01*
X124727488Y-102473000D01*
X124690449Y-102480368D01*
X124648438Y-102508438D01*
X124620367Y-102550449D01*
X124620337Y-102550524D01*
X124620280Y-102550580D01*
X124617689Y-102554459D01*
X124616916Y-102553943D01*
X124593815Y-102577039D01*
X124556312Y-102577035D01*
X124543572Y-102569303D01*
X124470809Y-102508247D01*
X124371227Y-102472004D01*
X124265255Y-102472004D01*
X124165672Y-102508247D01*
X124084493Y-102576364D01*
X124084491Y-102576367D01*
X124031507Y-102668140D01*
X124015550Y-102758629D01*
X123995400Y-102790259D01*
X123958786Y-102798375D01*
X123945526Y-102793793D01*
X123945508Y-102793831D01*
X123945485Y-102793889D01*
X123945482Y-102793887D01*
X123945457Y-102793941D01*
X123944376Y-102793429D01*
X123925818Y-102785742D01*
X123731664Y-102726847D01*
X123731654Y-102726844D01*
X123711954Y-102722926D01*
X123510045Y-102703040D01*
X123510044Y-102703040D01*
X123489956Y-102703040D01*
X123489955Y-102703040D01*
X123288045Y-102722926D01*
X123288044Y-102722926D01*
X123268345Y-102726844D01*
X123268335Y-102726847D01*
X123074181Y-102785742D01*
X123055624Y-102793429D01*
X122876696Y-102889068D01*
X122876688Y-102889073D01*
X122859984Y-102900234D01*
X122703144Y-103028951D01*
X122703138Y-103028956D01*
X122688956Y-103043138D01*
X122688951Y-103043144D01*
X122560234Y-103199984D01*
X122549073Y-103216688D01*
X122549068Y-103216696D01*
X122453429Y-103395624D01*
X122445742Y-103414181D01*
X122386847Y-103608335D01*
X122386844Y-103608345D01*
X122382926Y-103628044D01*
X122382926Y-103628045D01*
X122363039Y-103829965D01*
X122362546Y-103839998D01*
X122362768Y-103842999D01*
X122362376Y-103843027D01*
X122362604Y-103847640D01*
X122363040Y-103847640D01*
X122363040Y-103850045D01*
X122382926Y-104051954D01*
X122382926Y-104051955D01*
X122386844Y-104071654D01*
X122386847Y-104071664D01*
X122445742Y-104265818D01*
X122453429Y-104284375D01*
X122520499Y-104409855D01*
X122549072Y-104463310D01*
X122560232Y-104480012D01*
X122688946Y-104636850D01*
X122688951Y-104636855D01*
X122688956Y-104636861D01*
X122703138Y-104651043D01*
X122703144Y-104651048D01*
X122703150Y-104651054D01*
X122859988Y-104779768D01*
X122876690Y-104790928D01*
X123055625Y-104886571D01*
X123068746Y-104892006D01*
X123074181Y-104894257D01*
X123074183Y-104894257D01*
X123074184Y-104894258D01*
X123268340Y-104953154D01*
X123288041Y-104957073D01*
X123449573Y-104972982D01*
X123489955Y-104976960D01*
X123489956Y-104976960D01*
X123510045Y-104976960D01*
X123543696Y-104973645D01*
X123711959Y-104957073D01*
X123731660Y-104953154D01*
X123925816Y-104894258D01*
X123944375Y-104886571D01*
X124123310Y-104790928D01*
X124140012Y-104779768D01*
X124296850Y-104651054D01*
X124311054Y-104636850D01*
X124335170Y-104607463D01*
X124392623Y-104537459D01*
X124425697Y-104519780D01*
X124461585Y-104530667D01*
X124479264Y-104563741D01*
X124479500Y-104568544D01*
X124479500Y-105047932D01*
X124479500Y-105080000D01*
X124479500Y-105121259D01*
X124505000Y-105199739D01*
X124553503Y-105266497D01*
X124620261Y-105315000D01*
X124698741Y-105340500D01*
X124721504Y-105340500D01*
X125903598Y-105340500D01*
X125908123Y-105341057D01*
X125908156Y-105340713D01*
X125911350Y-105341010D01*
X125911357Y-105341012D01*
X125924427Y-105340517D01*
X125924904Y-105340500D01*
X125938499Y-105340500D01*
X125941684Y-105340080D01*
X125941758Y-105340644D01*
X125946241Y-105339692D01*
X136579981Y-104937760D01*
X136580045Y-104937757D01*
X136580204Y-104937753D01*
X137834751Y-104897611D01*
X139538935Y-104843083D01*
X139574022Y-104856319D01*
X139589475Y-104890491D01*
X139589500Y-104892058D01*
X139589500Y-105089894D01*
X139589501Y-105089898D01*
X139595331Y-105119213D01*
X139595331Y-105119214D01*
X139595332Y-105119215D01*
X139595332Y-105119216D01*
X139617504Y-105152399D01*
X139617543Y-105152457D01*
X139650787Y-105174669D01*
X139680101Y-105180500D01*
X140179898Y-105180499D01*
X140209213Y-105174669D01*
X140231593Y-105159715D01*
X140268373Y-105152399D01*
X140293791Y-105169383D01*
X140295025Y-105168150D01*
X140298434Y-105171559D01*
X140340449Y-105199631D01*
X140377488Y-105206999D01*
X140377492Y-105207000D01*
X140566500Y-105207000D01*
X140566500Y-104753500D01*
X140693500Y-104753500D01*
X140693500Y-105207000D01*
X140882508Y-105207000D01*
X140882511Y-105206999D01*
X140919550Y-105199631D01*
X140961561Y-105171561D01*
X140989631Y-105129550D01*
X140996999Y-105092511D01*
X140997000Y-105092508D01*
X140997000Y-104753500D01*
X140693500Y-104753500D01*
X140566500Y-104753500D01*
X140566500Y-104157106D01*
X140563387Y-104149591D01*
X140575364Y-104117493D01*
X140778932Y-103882700D01*
X140891175Y-103753240D01*
X140924715Y-103736463D01*
X140960296Y-103748317D01*
X140977073Y-103781857D01*
X140976961Y-103790142D01*
X140973040Y-103829954D01*
X140973040Y-103850045D01*
X140992926Y-104051954D01*
X140992926Y-104051955D01*
X140996844Y-104071654D01*
X140996847Y-104071664D01*
X141018101Y-104141729D01*
X141014425Y-104179052D01*
X140985435Y-104202843D01*
X140948112Y-104199167D01*
X140943989Y-104196696D01*
X140919550Y-104180368D01*
X140882511Y-104173000D01*
X140693500Y-104173000D01*
X140693500Y-104626500D01*
X140997000Y-104626500D01*
X140997000Y-104355713D01*
X141011352Y-104321065D01*
X141046000Y-104306713D01*
X141080648Y-104321065D01*
X141089213Y-104332614D01*
X141159072Y-104463310D01*
X141170232Y-104480012D01*
X141298946Y-104636850D01*
X141298951Y-104636855D01*
X141298956Y-104636861D01*
X141313138Y-104651043D01*
X141313144Y-104651048D01*
X141313150Y-104651054D01*
X141469988Y-104779768D01*
X141486690Y-104790928D01*
X141665625Y-104886571D01*
X141678746Y-104892006D01*
X141684181Y-104894257D01*
X141684183Y-104894257D01*
X141684184Y-104894258D01*
X141878340Y-104953154D01*
X141898041Y-104957073D01*
X142059572Y-104972982D01*
X142099955Y-104976960D01*
X142099956Y-104976960D01*
X142120045Y-104976960D01*
X142153696Y-104973645D01*
X142321959Y-104957073D01*
X142341660Y-104953154D01*
X142535816Y-104894258D01*
X142554375Y-104886571D01*
X142733310Y-104790928D01*
X142750012Y-104779768D01*
X142906850Y-104651054D01*
X142921054Y-104636850D01*
X143049768Y-104480012D01*
X143060928Y-104463310D01*
X143156571Y-104284375D01*
X143164258Y-104265816D01*
X143223154Y-104071660D01*
X143227073Y-104051959D01*
X143244204Y-103878022D01*
X143246961Y-103850035D01*
X143247453Y-103840005D01*
X143247452Y-103839998D01*
X143247452Y-103839997D01*
X143247231Y-103837000D01*
X143247634Y-103836970D01*
X143247413Y-103832368D01*
X143246960Y-103832368D01*
X143246960Y-103829956D01*
X143242223Y-103781857D01*
X143227073Y-103628041D01*
X143223154Y-103608340D01*
X143164258Y-103414184D01*
X143156571Y-103395625D01*
X143060928Y-103216690D01*
X143049768Y-103199988D01*
X143035271Y-103182324D01*
X143021455Y-103165489D01*
X142921054Y-103043150D01*
X142921048Y-103043144D01*
X142921043Y-103043138D01*
X142906861Y-103028956D01*
X142906855Y-103028951D01*
X142906850Y-103028946D01*
X142803352Y-102944007D01*
X142750015Y-102900234D01*
X142733311Y-102889073D01*
X142733310Y-102889072D01*
X142710476Y-102876867D01*
X142554375Y-102793429D01*
X142535818Y-102785742D01*
X142341664Y-102726847D01*
X142341654Y-102726844D01*
X142328464Y-102724221D01*
X142321959Y-102722927D01*
X142318746Y-102722610D01*
X142313891Y-102722132D01*
X142280818Y-102704450D01*
X142269934Y-102668561D01*
X142276265Y-102648864D01*
X142277137Y-102647353D01*
X142277138Y-102647352D01*
X142295540Y-102542989D01*
X142277138Y-102438626D01*
X142277137Y-102438624D01*
X142277137Y-102438623D01*
X142224153Y-102346852D01*
X142224151Y-102346849D01*
X142142972Y-102278732D01*
X142043390Y-102242489D01*
X141937418Y-102242489D01*
X141837835Y-102278732D01*
X141756656Y-102346849D01*
X141756654Y-102346852D01*
X141703670Y-102438623D01*
X141687982Y-102527599D01*
X141685268Y-102542989D01*
X141703670Y-102647352D01*
X141715915Y-102668561D01*
X141737887Y-102706618D01*
X141742781Y-102743801D01*
X141719951Y-102773554D01*
X141709677Y-102778007D01*
X141684185Y-102785740D01*
X141665624Y-102793429D01*
X141486696Y-102889068D01*
X141486688Y-102889073D01*
X141469984Y-102900234D01*
X141313144Y-103028951D01*
X141313138Y-103028956D01*
X141298956Y-103043138D01*
X141298951Y-103043144D01*
X141217377Y-103142541D01*
X141184302Y-103160219D01*
X141148414Y-103149332D01*
X141130736Y-103116257D01*
X141130500Y-103111455D01*
X141130500Y-102580251D01*
X141130457Y-102579625D01*
X141130426Y-102563670D01*
X141110541Y-102493785D01*
X141097671Y-102473000D01*
X141072292Y-102432012D01*
X141072291Y-102432011D01*
X141060510Y-102421228D01*
X141060087Y-102420788D01*
X141059161Y-102419944D01*
X141059160Y-102419942D01*
X140379715Y-101800591D01*
X140360141Y-101782748D01*
X140360098Y-101782699D01*
X140336936Y-101761593D01*
X140329197Y-101752598D01*
X140326451Y-101748489D01*
X140295812Y-101702634D01*
X140294667Y-101700920D01*
X140287349Y-101683256D01*
X140275084Y-101621597D01*
X140274152Y-101611159D01*
X140274636Y-101584447D01*
X140274635Y-101584445D01*
X140274742Y-101578561D01*
X140274735Y-101578494D01*
X140275198Y-101552652D01*
X140290489Y-100698406D01*
X140305458Y-100664021D01*
X140332636Y-100651466D01*
X140332537Y-100650968D01*
X140334605Y-100650556D01*
X140334687Y-100650519D01*
X140334889Y-100650499D01*
X140334898Y-100650499D01*
X140364213Y-100644669D01*
X140374137Y-100638037D01*
X140410920Y-100630722D01*
X140428572Y-100640157D01*
X140429426Y-100638881D01*
X140475448Y-100669631D01*
X140512488Y-100676999D01*
X140512492Y-100677000D01*
X140611500Y-100677000D01*
X140611500Y-99285500D01*
X140625852Y-99250852D01*
X140660500Y-99236500D01*
X140689500Y-99236500D01*
X140724148Y-99250852D01*
G37*
%TD.AperFunction*%
%TA.AperFunction,Conductor*%
G36*
X139164906Y-103107464D02*
G01*
X139541979Y-103118848D01*
X139576178Y-103134239D01*
X139589500Y-103167826D01*
X139589500Y-103389894D01*
X139589501Y-103389897D01*
X139595664Y-103420889D01*
X139588345Y-103457671D01*
X139579102Y-103467982D01*
X139545474Y-103496199D01*
X139545472Y-103496202D01*
X139492488Y-103587972D01*
X139474086Y-103692338D01*
X139492488Y-103796703D01*
X139545472Y-103888474D01*
X139545474Y-103888477D01*
X139626653Y-103956594D01*
X139726236Y-103992838D01*
X139832208Y-103992838D01*
X139931790Y-103956594D01*
X140008451Y-103892268D01*
X140044219Y-103880990D01*
X140071445Y-103892268D01*
X140126319Y-103938313D01*
X140166229Y-103952838D01*
X140225902Y-103974557D01*
X140225909Y-103974557D01*
X140228764Y-103975061D01*
X140260394Y-103995211D01*
X140268512Y-104031825D01*
X140257278Y-104055416D01*
X140217514Y-104101278D01*
X140217444Y-104101344D01*
X140202451Y-104118647D01*
X140198978Y-104121879D01*
X140199118Y-104122023D01*
X140196817Y-104124265D01*
X140189521Y-104133525D01*
X140188790Y-104134410D01*
X140181057Y-104143328D01*
X140179294Y-104146001D01*
X140179131Y-104145894D01*
X140176600Y-104149926D01*
X140152261Y-104180822D01*
X140119546Y-104199158D01*
X140113770Y-104199500D01*
X139680105Y-104199500D01*
X139680104Y-104199500D01*
X139680102Y-104199501D01*
X139650787Y-104205331D01*
X139650786Y-104205331D01*
X139650784Y-104205332D01*
X139650783Y-104205332D01*
X139617543Y-104227542D01*
X139595330Y-104260786D01*
X139595330Y-104260787D01*
X139589500Y-104290095D01*
X139589500Y-104512864D01*
X139575148Y-104547512D01*
X139542067Y-104561839D01*
X136591137Y-104656257D01*
X136590019Y-104656222D01*
X136589811Y-104656230D01*
X136589189Y-104656212D01*
X136570528Y-104656917D01*
X136552609Y-104657491D01*
X136552608Y-104657491D01*
X136551673Y-104657521D01*
X136550535Y-104657634D01*
X136550041Y-104657652D01*
X136549426Y-104657714D01*
X126071350Y-105053763D01*
X126036184Y-105040730D01*
X126020534Y-105006649D01*
X126020499Y-105004798D01*
X126020499Y-104953152D01*
X126020499Y-104883392D01*
X126034849Y-104848747D01*
X126069498Y-104834395D01*
X126069846Y-104834396D01*
X126578924Y-104839476D01*
X126709440Y-104840779D01*
X126712270Y-104840979D01*
X126729485Y-104840979D01*
X126746722Y-104841151D01*
X126746723Y-104841150D01*
X126746774Y-104841151D01*
X126749624Y-104840979D01*
X127023390Y-104840979D01*
X127023462Y-104840986D01*
X127028785Y-104840985D01*
X127028788Y-104840986D01*
X127040550Y-104840983D01*
X127040558Y-104840986D01*
X127060856Y-104840983D01*
X127060856Y-104840984D01*
X127068272Y-104840983D01*
X127068278Y-104840983D01*
X127068421Y-104840979D01*
X127079315Y-104840979D01*
X127079322Y-104840979D01*
X127079328Y-104840977D01*
X127081967Y-104840629D01*
X127084203Y-104840438D01*
X127086856Y-104840331D01*
X127086871Y-104840333D01*
X127097391Y-104838517D01*
X127097487Y-104838504D01*
X127101467Y-104837815D01*
X128145800Y-104657714D01*
X137030323Y-103125529D01*
X137066905Y-103133783D01*
X137086936Y-103165489D01*
X137086905Y-103182324D01*
X137072299Y-103265160D01*
X137090701Y-103369526D01*
X137143685Y-103461297D01*
X137143687Y-103461300D01*
X137224866Y-103529417D01*
X137324449Y-103565661D01*
X137430421Y-103565661D01*
X137530003Y-103529417D01*
X137605430Y-103466125D01*
X137641194Y-103454849D01*
X137668421Y-103466127D01*
X137748181Y-103533054D01*
X137847764Y-103569298D01*
X137953736Y-103569298D01*
X138053318Y-103533054D01*
X138134498Y-103464936D01*
X138146294Y-103444502D01*
X138176045Y-103421673D01*
X138190527Y-103420036D01*
X138210174Y-103420758D01*
X138244271Y-103436373D01*
X138255489Y-103461224D01*
X138256518Y-103461020D01*
X138256986Y-103463378D01*
X138256987Y-103463381D01*
X138262817Y-103492696D01*
X138262817Y-103492697D01*
X138262818Y-103492698D01*
X138262818Y-103492699D01*
X138285028Y-103525939D01*
X138318270Y-103548151D01*
X138318272Y-103548151D01*
X138318273Y-103548152D01*
X138347587Y-103553983D01*
X138525694Y-103553982D01*
X138555009Y-103548152D01*
X138588253Y-103525940D01*
X138610465Y-103492696D01*
X138610917Y-103490422D01*
X138612206Y-103488493D01*
X138612311Y-103488240D01*
X138612361Y-103488260D01*
X138631749Y-103459238D01*
X138668530Y-103451918D01*
X138699715Y-103472750D01*
X138707034Y-103490416D01*
X138709544Y-103503033D01*
X138737614Y-103545044D01*
X138779625Y-103573114D01*
X138816664Y-103580482D01*
X138816668Y-103580483D01*
X138844831Y-103580483D01*
X138844831Y-103351983D01*
X138971831Y-103351983D01*
X138971831Y-103580483D01*
X138999994Y-103580483D01*
X138999997Y-103580482D01*
X139037036Y-103573114D01*
X139079047Y-103545044D01*
X139107117Y-103503033D01*
X139114485Y-103465994D01*
X139114486Y-103465990D01*
X139114486Y-103351983D01*
X138971831Y-103351983D01*
X138844831Y-103351983D01*
X138844831Y-103273983D01*
X138859183Y-103239335D01*
X138893831Y-103224983D01*
X139114486Y-103224983D01*
X139114486Y-103156443D01*
X139128838Y-103121795D01*
X139163486Y-103107443D01*
X139164906Y-103107464D01*
G37*
%TD.AperFunction*%
%TD*%
M02*
