%TF.GenerationSoftware,KiCad,Pcbnew,7.0.7*%
%TF.CreationDate,2023-11-17T15:11:12-08:00*%
%TF.ProjectId,beeper-flex,62656570-6572-42d6-966c-65782e6b6963,rev?*%
%TF.SameCoordinates,Original*%
%TF.FileFunction,Copper,L2,Bot*%
%TF.FilePolarity,Positive*%
%FSLAX46Y46*%
G04 Gerber Fmt 4.6, Leading zero omitted, Abs format (unit mm)*
G04 Created by KiCad (PCBNEW 7.0.7) date 2023-11-17 15:11:12*
%MOMM*%
%LPD*%
G01*
G04 APERTURE LIST*
%TA.AperFunction,ViaPad*%
%ADD10C,0.400000*%
%TD*%
%TA.AperFunction,Conductor*%
%ADD11C,0.090000*%
%TD*%
G04 APERTURE END LIST*
D10*
%TO.N,VDDMIC*%
X128796561Y-102731778D03*
X134561151Y-101719912D03*
X127676051Y-101383433D03*
X128167536Y-101475319D03*
X133947916Y-101738342D03*
X128187827Y-102738082D03*
%TO.N,GND*%
X130170611Y-101599559D03*
X139845002Y-101273322D03*
X129668431Y-101599559D03*
X136786479Y-102170687D03*
X125941794Y-102076810D03*
X122881000Y-103267694D03*
X136255604Y-102185035D03*
X129151903Y-101585211D03*
X140032832Y-103405970D03*
X126472670Y-102105506D03*
X138548618Y-102316494D03*
X138998647Y-102471133D03*
X122704764Y-101216163D03*
%TD*%
D11*
%TO.N,VDDMIC*%
X128796561Y-102731778D02*
X133947916Y-101738342D01*
X128187827Y-102738082D02*
X128796561Y-102731778D01*
X128167536Y-101475319D02*
X127676051Y-101383433D01*
X133947916Y-101738342D02*
X134561151Y-101719912D01*
X128167536Y-101475319D02*
X128187827Y-102738082D01*
%TD*%
%TA.AperFunction,Conductor*%
%TO.N,GND*%
G36*
X132175399Y-98868229D02*
G01*
X132179500Y-98878128D01*
X132179500Y-99449238D01*
X132179499Y-99449252D01*
X132179499Y-99485950D01*
X132179468Y-99486611D01*
X132165018Y-99639007D01*
X132164522Y-99641604D01*
X132121956Y-99787629D01*
X132120979Y-99790086D01*
X132051726Y-99925493D01*
X132050306Y-99927722D01*
X131959293Y-100044537D01*
X131957533Y-100046412D01*
X131934279Y-100067014D01*
X131932353Y-100072093D01*
X131929422Y-100076760D01*
X131906600Y-100100825D01*
X131837825Y-100226872D01*
X131837824Y-100226874D01*
X131803346Y-100366251D01*
X131803346Y-100366254D01*
X131803346Y-100366255D01*
X131805424Y-100509826D01*
X131805424Y-100509829D01*
X131805425Y-100509830D01*
X131805425Y-100509831D01*
X131843923Y-100648156D01*
X131843924Y-100648158D01*
X131916312Y-100772153D01*
X131916317Y-100772159D01*
X132017840Y-100873682D01*
X132017846Y-100873687D01*
X132141841Y-100946075D01*
X132141843Y-100946076D01*
X132141845Y-100946076D01*
X132141846Y-100946077D01*
X132280174Y-100984576D01*
X132423745Y-100986654D01*
X132563129Y-100952174D01*
X132689173Y-100883401D01*
X132739333Y-100835831D01*
X132742225Y-100833268D01*
X132742500Y-100833039D01*
X132862299Y-100739703D01*
X132864504Y-100738298D01*
X132999926Y-100669038D01*
X133002373Y-100668064D01*
X133148401Y-100625496D01*
X133150983Y-100625002D01*
X133303625Y-100610530D01*
X133304271Y-100610500D01*
X133339627Y-100610501D01*
X133339629Y-100610500D01*
X142165500Y-100610500D01*
X142175399Y-100614601D01*
X142179500Y-100624500D01*
X142179500Y-103835500D01*
X142175399Y-103845399D01*
X142165500Y-103849500D01*
X120554500Y-103849500D01*
X120544601Y-103845399D01*
X120540500Y-103835500D01*
X120540500Y-102369771D01*
X121490500Y-102369771D01*
X121526995Y-102494068D01*
X121552022Y-102533010D01*
X121597033Y-102603049D01*
X121694937Y-102687882D01*
X121812774Y-102741697D01*
X121941000Y-102760133D01*
X122069226Y-102741697D01*
X122187063Y-102687882D01*
X122284967Y-102603049D01*
X122355004Y-102494069D01*
X122391500Y-102369772D01*
X122391500Y-102305000D01*
X122391500Y-102269096D01*
X122391500Y-102240228D01*
X122355004Y-102115931D01*
X122284967Y-102006951D01*
X122187063Y-101922118D01*
X122187061Y-101922117D01*
X122187060Y-101922116D01*
X122069227Y-101868303D01*
X121941000Y-101849867D01*
X121812772Y-101868303D01*
X121694939Y-101922116D01*
X121597036Y-102006948D01*
X121597033Y-102006951D01*
X121526995Y-102115931D01*
X121490500Y-102240228D01*
X121490500Y-102369771D01*
X120540500Y-102369771D01*
X120540500Y-101383434D01*
X127381070Y-101383434D01*
X127398859Y-101484321D01*
X127450079Y-101573040D01*
X127450081Y-101573042D01*
X127450082Y-101573043D01*
X127528560Y-101638894D01*
X127624828Y-101673933D01*
X127624829Y-101673933D01*
X127727273Y-101673933D01*
X127727274Y-101673933D01*
X127823542Y-101638894D01*
X127880144Y-101591398D01*
X127890362Y-101588177D01*
X127899867Y-101593125D01*
X127901266Y-101595124D01*
X127941564Y-101664926D01*
X127941566Y-101664928D01*
X127941567Y-101664929D01*
X128020045Y-101730780D01*
X128027162Y-101733370D01*
X128035062Y-101740609D01*
X128036372Y-101746301D01*
X128047999Y-102469887D01*
X128044058Y-102479851D01*
X128041007Y-102482233D01*
X128040340Y-102482618D01*
X127961855Y-102548474D01*
X127910635Y-102637193D01*
X127892846Y-102738080D01*
X127892846Y-102738083D01*
X127910635Y-102838970D01*
X127961855Y-102927689D01*
X127961857Y-102927691D01*
X127961858Y-102927692D01*
X128040336Y-102993543D01*
X128136604Y-103028582D01*
X128136605Y-103028582D01*
X128239049Y-103028582D01*
X128239050Y-103028582D01*
X128335318Y-102993543D01*
X128413796Y-102927692D01*
X128413798Y-102927689D01*
X128442586Y-102877825D01*
X128451086Y-102871302D01*
X128454562Y-102870826D01*
X128532705Y-102870016D01*
X128542645Y-102874013D01*
X128544973Y-102877015D01*
X128570589Y-102921385D01*
X128570591Y-102921387D01*
X128570592Y-102921388D01*
X128649070Y-102987239D01*
X128745338Y-103022278D01*
X128745339Y-103022278D01*
X128847783Y-103022278D01*
X128847784Y-103022278D01*
X128944052Y-102987239D01*
X129022530Y-102921388D01*
X129073752Y-102832667D01*
X129075062Y-102825232D01*
X129080817Y-102816197D01*
X129086196Y-102813917D01*
X131725134Y-102305000D01*
X140293983Y-102305000D01*
X140311969Y-102435856D01*
X140339062Y-102498231D01*
X140364592Y-102557007D01*
X140447945Y-102659463D01*
X140447947Y-102659465D01*
X140447950Y-102659468D01*
X140555861Y-102735639D01*
X140680320Y-102779872D01*
X140768172Y-102785881D01*
X140812096Y-102788886D01*
X140812098Y-102788886D01*
X140812098Y-102788885D01*
X140812099Y-102788886D01*
X140941422Y-102762013D01*
X141058700Y-102701244D01*
X141155233Y-102611088D01*
X141223863Y-102498231D01*
X141259500Y-102371043D01*
X141259500Y-102305000D01*
X141259500Y-102269096D01*
X141259500Y-102238957D01*
X141223863Y-102111769D01*
X141155233Y-101998912D01*
X141058700Y-101908756D01*
X141058699Y-101908755D01*
X141058694Y-101908752D01*
X140941427Y-101847989D01*
X140941420Y-101847986D01*
X140812097Y-101821113D01*
X140680326Y-101830127D01*
X140680320Y-101830128D01*
X140555860Y-101874361D01*
X140447951Y-101950531D01*
X140447945Y-101950536D01*
X140364592Y-102052992D01*
X140339062Y-102111769D01*
X140311969Y-102174144D01*
X140293983Y-102305000D01*
X131725134Y-102305000D01*
X133708062Y-101922594D01*
X133718557Y-101924746D01*
X133721435Y-101927342D01*
X133721944Y-101927948D01*
X133721945Y-101927949D01*
X133721947Y-101927952D01*
X133800425Y-101993803D01*
X133896693Y-102028842D01*
X133896694Y-102028842D01*
X133999138Y-102028842D01*
X133999139Y-102028842D01*
X134095407Y-101993803D01*
X134173885Y-101927952D01*
X134205729Y-101872793D01*
X134214227Y-101866273D01*
X134217426Y-101865802D01*
X134300001Y-101863321D01*
X134310019Y-101867123D01*
X134312545Y-101870315D01*
X134335179Y-101909519D01*
X134335181Y-101909521D01*
X134335182Y-101909522D01*
X134413660Y-101975373D01*
X134509928Y-102010412D01*
X134509929Y-102010412D01*
X134612373Y-102010412D01*
X134612374Y-102010412D01*
X134708642Y-101975373D01*
X134787120Y-101909522D01*
X134787563Y-101908756D01*
X134810917Y-101868303D01*
X134838342Y-101820801D01*
X134851970Y-101743514D01*
X134856132Y-101719913D01*
X134856132Y-101719910D01*
X134838342Y-101619023D01*
X134787122Y-101530304D01*
X134787120Y-101530302D01*
X134708642Y-101464451D01*
X134660507Y-101446931D01*
X134612375Y-101429412D01*
X134612374Y-101429412D01*
X134509928Y-101429412D01*
X134509926Y-101429412D01*
X134413661Y-101464451D01*
X134335179Y-101530304D01*
X134303338Y-101585456D01*
X134294837Y-101591979D01*
X134291634Y-101592450D01*
X134209064Y-101594931D01*
X134199046Y-101591129D01*
X134196520Y-101587937D01*
X134173887Y-101548734D01*
X134151923Y-101530304D01*
X134095407Y-101482881D01*
X134044771Y-101464451D01*
X133999140Y-101447842D01*
X133999139Y-101447842D01*
X133896693Y-101447842D01*
X133896691Y-101447842D01*
X133800426Y-101482881D01*
X133721944Y-101548734D01*
X133670727Y-101637448D01*
X133670724Y-101637454D01*
X133669414Y-101644886D01*
X133663656Y-101653923D01*
X133658278Y-101656201D01*
X129036416Y-102547524D01*
X129025919Y-102545372D01*
X129023043Y-102542779D01*
X129022532Y-102542171D01*
X129022531Y-102542170D01*
X129022530Y-102542168D01*
X128944052Y-102476317D01*
X128895917Y-102458797D01*
X128847785Y-102441278D01*
X128847784Y-102441278D01*
X128745338Y-102441278D01*
X128745336Y-102441278D01*
X128649071Y-102476317D01*
X128570589Y-102542170D01*
X128541802Y-102592033D01*
X128533301Y-102598556D01*
X128529823Y-102599032D01*
X128451682Y-102599842D01*
X128441741Y-102595845D01*
X128439413Y-102592843D01*
X128413798Y-102548474D01*
X128410101Y-102545372D01*
X128335318Y-102482621D01*
X128335317Y-102482620D01*
X128328197Y-102480028D01*
X128320298Y-102472788D01*
X128318989Y-102467098D01*
X128317446Y-102371043D01*
X128307362Y-101743511D01*
X128311303Y-101733550D01*
X128314363Y-101731163D01*
X128315022Y-101730781D01*
X128315027Y-101730780D01*
X128393505Y-101664929D01*
X128444727Y-101576208D01*
X128453621Y-101525763D01*
X128462517Y-101475320D01*
X128462517Y-101475317D01*
X128444727Y-101374430D01*
X128393507Y-101285711D01*
X128384408Y-101278076D01*
X128315027Y-101219858D01*
X128243503Y-101193825D01*
X128218760Y-101184819D01*
X128218759Y-101184819D01*
X128116313Y-101184819D01*
X128116311Y-101184819D01*
X128020045Y-101219858D01*
X127963443Y-101267351D01*
X127953223Y-101270573D01*
X127943719Y-101265625D01*
X127942320Y-101263626D01*
X127902022Y-101193825D01*
X127891289Y-101184819D01*
X127823542Y-101127972D01*
X127775408Y-101110452D01*
X127727275Y-101092933D01*
X127727274Y-101092933D01*
X127624828Y-101092933D01*
X127624826Y-101092933D01*
X127528561Y-101127972D01*
X127450079Y-101193825D01*
X127398859Y-101282544D01*
X127381070Y-101383431D01*
X127381070Y-101383434D01*
X120540500Y-101383434D01*
X120540500Y-100624500D01*
X120544601Y-100614601D01*
X120554500Y-100610500D01*
X125380371Y-100610500D01*
X125380373Y-100610501D01*
X125415950Y-100610500D01*
X125416595Y-100610530D01*
X125569007Y-100624981D01*
X125571604Y-100625477D01*
X125717630Y-100668043D01*
X125720085Y-100669019D01*
X125855501Y-100738277D01*
X125857716Y-100739688D01*
X125899393Y-100772159D01*
X125966554Y-100824485D01*
X125969472Y-100827576D01*
X125973225Y-100833014D01*
X125979343Y-100841877D01*
X125994862Y-100850022D01*
X125997987Y-100852258D01*
X126030827Y-100883401D01*
X126156871Y-100952174D01*
X126156872Y-100952174D01*
X126156874Y-100952175D01*
X126296251Y-100986653D01*
X126296255Y-100986654D01*
X126439826Y-100984576D01*
X126578154Y-100946077D01*
X126578156Y-100946076D01*
X126578158Y-100946075D01*
X126702153Y-100873687D01*
X126702152Y-100873687D01*
X126702155Y-100873686D01*
X126803686Y-100772155D01*
X126864238Y-100668434D01*
X126876075Y-100648158D01*
X126876076Y-100648156D01*
X126876077Y-100648154D01*
X126914576Y-100509826D01*
X126916654Y-100366255D01*
X126914980Y-100359486D01*
X126882175Y-100226874D01*
X126882174Y-100226872D01*
X126882174Y-100226871D01*
X126813401Y-100100827D01*
X126774079Y-100059364D01*
X126772717Y-100057685D01*
X126756002Y-100033468D01*
X126752091Y-100031416D01*
X126747552Y-100027623D01*
X126669702Y-99927703D01*
X126668282Y-99925474D01*
X126599022Y-99790066D01*
X126598046Y-99787610D01*
X126587846Y-99752629D01*
X126555469Y-99641588D01*
X126554974Y-99639002D01*
X126540530Y-99486799D01*
X126540500Y-99486150D01*
X126540500Y-98878128D01*
X126544601Y-98868229D01*
X126554500Y-98864128D01*
X132165500Y-98864128D01*
X132175399Y-98868229D01*
G37*
%TD.AperFunction*%
%TD*%
M02*
