%TF.GenerationSoftware,KiCad,Pcbnew,7.0.7*%
%TF.CreationDate,2023-11-15T15:21:09-08:00*%
%TF.ProjectId,beeper-flex,62656570-6572-42d6-966c-65782e6b6963,rev?*%
%TF.SameCoordinates,Original*%
%TF.FileFunction,Legend,Top*%
%TF.FilePolarity,Positive*%
%FSLAX46Y46*%
G04 Gerber Fmt 4.6, Leading zero omitted, Abs format (unit mm)*
G04 Created by KiCad (PCBNEW 7.0.7) date 2023-11-15 15:21:09*
%MOMM*%
%LPD*%
G01*
G04 APERTURE LIST*
G04 Aperture macros list*
%AMRoundRect*
0 Rectangle with rounded corners*
0 $1 Rounding radius*
0 $2 $3 $4 $5 $6 $7 $8 $9 X,Y pos of 4 corners*
0 Add a 4 corners polygon primitive as box body*
4,1,4,$2,$3,$4,$5,$6,$7,$8,$9,$2,$3,0*
0 Add four circle primitives for the rounded corners*
1,1,$1+$1,$2,$3*
1,1,$1+$1,$4,$5*
1,1,$1+$1,$6,$7*
1,1,$1+$1,$8,$9*
0 Add four rect primitives between the rounded corners*
20,1,$1+$1,$2,$3,$4,$5,0*
20,1,$1+$1,$4,$5,$6,$7,0*
20,1,$1+$1,$6,$7,$8,$9,0*
20,1,$1+$1,$8,$9,$2,$3,0*%
G04 Aperture macros list end*
%ADD10C,0.100000*%
%ADD11C,0.200000*%
%ADD12RoundRect,0.051000X-0.240000X-0.390000X0.240000X-0.390000X0.240000X0.390000X-0.240000X0.390000X0*%
%ADD13RoundRect,0.051000X0.240000X0.390000X-0.240000X0.390000X-0.240000X-0.390000X0.240000X-0.390000X0*%
%ADD14RoundRect,0.051000X-0.165000X-0.120405X0.165000X-0.120405X0.165000X0.120405X-0.165000X0.120405X0*%
G04 APERTURE END LIST*
D10*
X138902884Y-98151419D02*
X138902884Y-98960942D01*
X138902884Y-98960942D02*
X138950503Y-99056180D01*
X138950503Y-99056180D02*
X138998122Y-99103800D01*
X138998122Y-99103800D02*
X139093360Y-99151419D01*
X139093360Y-99151419D02*
X139283836Y-99151419D01*
X139283836Y-99151419D02*
X139379074Y-99103800D01*
X139379074Y-99103800D02*
X139426693Y-99056180D01*
X139426693Y-99056180D02*
X139474312Y-98960942D01*
X139474312Y-98960942D02*
X139474312Y-98151419D01*
X139855265Y-98151419D02*
X140474312Y-98151419D01*
X140474312Y-98151419D02*
X140140979Y-98532371D01*
X140140979Y-98532371D02*
X140283836Y-98532371D01*
X140283836Y-98532371D02*
X140379074Y-98579990D01*
X140379074Y-98579990D02*
X140426693Y-98627609D01*
X140426693Y-98627609D02*
X140474312Y-98722847D01*
X140474312Y-98722847D02*
X140474312Y-98960942D01*
X140474312Y-98960942D02*
X140426693Y-99056180D01*
X140426693Y-99056180D02*
X140379074Y-99103800D01*
X140379074Y-99103800D02*
X140283836Y-99151419D01*
X140283836Y-99151419D02*
X139998122Y-99151419D01*
X139998122Y-99151419D02*
X139902884Y-99103800D01*
X139902884Y-99103800D02*
X139855265Y-99056180D01*
X122293306Y-105373419D02*
X122293306Y-106182942D01*
X122293306Y-106182942D02*
X122340925Y-106278180D01*
X122340925Y-106278180D02*
X122388544Y-106325800D01*
X122388544Y-106325800D02*
X122483782Y-106373419D01*
X122483782Y-106373419D02*
X122674258Y-106373419D01*
X122674258Y-106373419D02*
X122769496Y-106325800D01*
X122769496Y-106325800D02*
X122817115Y-106278180D01*
X122817115Y-106278180D02*
X122864734Y-106182942D01*
X122864734Y-106182942D02*
X122864734Y-105373419D01*
X123769496Y-105706752D02*
X123769496Y-106373419D01*
X123531401Y-105325800D02*
X123293306Y-106040085D01*
X123293306Y-106040085D02*
X123912353Y-106040085D01*
X126356161Y-102465479D02*
X126391876Y-102501193D01*
X126391876Y-102501193D02*
X126427590Y-102608336D01*
X126427590Y-102608336D02*
X126427590Y-102679764D01*
X126427590Y-102679764D02*
X126391876Y-102786907D01*
X126391876Y-102786907D02*
X126320447Y-102858336D01*
X126320447Y-102858336D02*
X126249018Y-102894050D01*
X126249018Y-102894050D02*
X126106161Y-102929764D01*
X126106161Y-102929764D02*
X125999018Y-102929764D01*
X125999018Y-102929764D02*
X125856161Y-102894050D01*
X125856161Y-102894050D02*
X125784733Y-102858336D01*
X125784733Y-102858336D02*
X125713304Y-102786907D01*
X125713304Y-102786907D02*
X125677590Y-102679764D01*
X125677590Y-102679764D02*
X125677590Y-102608336D01*
X125677590Y-102608336D02*
X125713304Y-102501193D01*
X125713304Y-102501193D02*
X125749018Y-102465479D01*
X125677590Y-101786907D02*
X125677590Y-102144050D01*
X125677590Y-102144050D02*
X126034733Y-102179764D01*
X126034733Y-102179764D02*
X125999018Y-102144050D01*
X125999018Y-102144050D02*
X125963304Y-102072622D01*
X125963304Y-102072622D02*
X125963304Y-101894050D01*
X125963304Y-101894050D02*
X125999018Y-101822622D01*
X125999018Y-101822622D02*
X126034733Y-101786907D01*
X126034733Y-101786907D02*
X126106161Y-101751193D01*
X126106161Y-101751193D02*
X126284733Y-101751193D01*
X126284733Y-101751193D02*
X126356161Y-101786907D01*
X126356161Y-101786907D02*
X126391876Y-101822622D01*
X126391876Y-101822622D02*
X126427590Y-101894050D01*
X126427590Y-101894050D02*
X126427590Y-102072622D01*
X126427590Y-102072622D02*
X126391876Y-102144050D01*
X126391876Y-102144050D02*
X126356161Y-102179764D01*
X138230001Y-102571563D02*
X138265716Y-102607277D01*
X138265716Y-102607277D02*
X138301430Y-102714420D01*
X138301430Y-102714420D02*
X138301430Y-102785848D01*
X138301430Y-102785848D02*
X138265716Y-102892991D01*
X138265716Y-102892991D02*
X138194287Y-102964420D01*
X138194287Y-102964420D02*
X138122858Y-103000134D01*
X138122858Y-103000134D02*
X137980001Y-103035848D01*
X137980001Y-103035848D02*
X137872858Y-103035848D01*
X137872858Y-103035848D02*
X137730001Y-103000134D01*
X137730001Y-103000134D02*
X137658573Y-102964420D01*
X137658573Y-102964420D02*
X137587144Y-102892991D01*
X137587144Y-102892991D02*
X137551430Y-102785848D01*
X137551430Y-102785848D02*
X137551430Y-102714420D01*
X137551430Y-102714420D02*
X137587144Y-102607277D01*
X137587144Y-102607277D02*
X137622858Y-102571563D01*
X137801430Y-101928706D02*
X138301430Y-101928706D01*
X137515716Y-102107277D02*
X138051430Y-102285848D01*
X138051430Y-102285848D02*
X138051430Y-101821563D01*
X127715325Y-97780743D02*
X127715325Y-98590266D01*
X127715325Y-98590266D02*
X127762944Y-98685504D01*
X127762944Y-98685504D02*
X127810563Y-98733124D01*
X127810563Y-98733124D02*
X127905801Y-98780743D01*
X127905801Y-98780743D02*
X128096277Y-98780743D01*
X128096277Y-98780743D02*
X128191515Y-98733124D01*
X128191515Y-98733124D02*
X128239134Y-98685504D01*
X128239134Y-98685504D02*
X128286753Y-98590266D01*
X128286753Y-98590266D02*
X128286753Y-97780743D01*
X129191515Y-97780743D02*
X129001039Y-97780743D01*
X129001039Y-97780743D02*
X128905801Y-97828362D01*
X128905801Y-97828362D02*
X128858182Y-97875981D01*
X128858182Y-97875981D02*
X128762944Y-98018838D01*
X128762944Y-98018838D02*
X128715325Y-98209314D01*
X128715325Y-98209314D02*
X128715325Y-98590266D01*
X128715325Y-98590266D02*
X128762944Y-98685504D01*
X128762944Y-98685504D02*
X128810563Y-98733124D01*
X128810563Y-98733124D02*
X128905801Y-98780743D01*
X128905801Y-98780743D02*
X129096277Y-98780743D01*
X129096277Y-98780743D02*
X129191515Y-98733124D01*
X129191515Y-98733124D02*
X129239134Y-98685504D01*
X129239134Y-98685504D02*
X129286753Y-98590266D01*
X129286753Y-98590266D02*
X129286753Y-98352171D01*
X129286753Y-98352171D02*
X129239134Y-98256933D01*
X129239134Y-98256933D02*
X129191515Y-98209314D01*
X129191515Y-98209314D02*
X129096277Y-98161695D01*
X129096277Y-98161695D02*
X128905801Y-98161695D01*
X128905801Y-98161695D02*
X128810563Y-98209314D01*
X128810563Y-98209314D02*
X128762944Y-98256933D01*
X128762944Y-98256933D02*
X128715325Y-98352171D01*
D11*
%TO.C,U3*%
X138099000Y-100805000D02*
X138099000Y-103805000D01*
X138099000Y-103805000D02*
X142099000Y-103805000D01*
X142099000Y-100805000D02*
X138099000Y-100805000D01*
X142099000Y-103805000D02*
X142099000Y-100805000D01*
%TO.C,U4*%
X124621000Y-103805000D02*
X124621000Y-100805000D01*
X124621000Y-100805000D02*
X120621000Y-100805000D01*
X120621000Y-103805000D02*
X124621000Y-103805000D01*
X120621000Y-100805000D02*
X120621000Y-103805000D01*
D10*
%TO.C,U6*%
X130161441Y-101823324D02*
X131161441Y-101823324D01*
X130661441Y-101323324D02*
X130161441Y-101823324D01*
X131161441Y-101823324D02*
X130661441Y-101323324D01*
%TD*%
%LPC*%
D12*
%TO.C,U3*%
X138599000Y-101455000D03*
X139299000Y-101455000D03*
X138599000Y-103155000D03*
X139299000Y-103155000D03*
%TD*%
D13*
%TO.C,U4*%
X124121000Y-103155000D03*
X123421000Y-103155000D03*
X124121000Y-101455000D03*
X123421000Y-101455000D03*
%TD*%
D14*
%TO.C,C5*%
X125445826Y-102063384D03*
X125445826Y-102617574D03*
%TD*%
%TO.C,C4*%
X137319666Y-102169468D03*
X137319666Y-102723658D03*
%TD*%
%LPD*%
M02*
