%TF.GenerationSoftware,KiCad,Pcbnew,7.0.7*%
%TF.CreationDate,2024-01-11T20:38:35-08:00*%
%TF.ProjectId,beeper-flex,62656570-6572-42d6-966c-65782e6b6963,rev?*%
%TF.SameCoordinates,Original*%
%TF.FileFunction,Copper,L2,Bot*%
%TF.FilePolarity,Positive*%
%FSLAX46Y46*%
G04 Gerber Fmt 4.6, Leading zero omitted, Abs format (unit mm)*
G04 Created by KiCad (PCBNEW 7.0.7) date 2024-01-11 20:38:35*
%MOMM*%
%LPD*%
G01*
G04 APERTURE LIST*
G04 Aperture macros list*
%AMFreePoly0*
4,1,9,0.003536,0.003536,0.005000,0.000000,0.003536,-0.003536,0.000000,-0.005000,-0.003536,-0.003536,-0.005000,0.000000,-0.003536,0.003536,0.000000,0.005000,0.003536,0.003536,0.003536,0.003536,$1*%
%AMFreePoly1*
4,1,59,0.200943,1.010209,0.394164,0.951596,0.572237,0.856414,0.728320,0.728320,0.856414,0.572237,0.951596,0.394164,1.010209,0.200943,1.030000,0.000000,1.010209,-0.200943,0.951596,-0.394164,0.856414,-0.572237,0.728320,-0.728320,0.572237,-0.856414,0.394164,-0.951596,0.200943,-1.010209,0.000000,-1.030000,-0.200943,-1.010209,-0.394164,-0.951596,-0.572237,-0.856414,-0.728320,-0.728320,
-0.856414,-0.572237,-0.951596,-0.394164,-1.010209,-0.200943,-1.030000,0.000000,-0.585005,0.000000,-0.565071,-0.151410,-0.506629,-0.292503,-0.413661,-0.413661,-0.292503,-0.506629,-0.151410,-0.565071,0.000000,-0.585005,0.151410,-0.565071,0.292503,-0.506629,0.413661,-0.413661,0.506629,-0.292503,0.565071,-0.151410,0.585005,0.000000,0.565071,0.151410,0.506629,0.292502,0.413661,0.413661,
0.292503,0.506629,0.151410,0.565071,0.000000,0.585005,-0.151410,0.565071,-0.292502,0.506629,-0.413661,0.413661,-0.506629,0.292502,-0.565071,0.151410,-0.585005,0.000000,-1.030000,0.000000,-1.010209,0.200943,-0.951596,0.394164,-0.856414,0.572237,-0.728320,0.728320,-0.572237,0.856414,-0.394164,0.951596,-0.200943,1.010209,0.000000,1.030000,0.200943,1.010209,0.200943,1.010209,
$1*%
G04 Aperture macros list end*
%TA.AperFunction,SMDPad,CuDef*%
%ADD10R,0.480000X0.780000*%
%TD*%
%TA.AperFunction,SMDPad,CuDef*%
%ADD11FreePoly0,0.000000*%
%TD*%
%TA.AperFunction,SMDPad,CuDef*%
%ADD12FreePoly1,0.000000*%
%TD*%
%TA.AperFunction,SMDPad,CuDef*%
%ADD13R,0.158310X0.330000*%
%TD*%
%TA.AperFunction,SMDPad,CuDef*%
%ADD14R,0.300000X2.500000*%
%TD*%
%TA.AperFunction,SMDPad,CuDef*%
%ADD15R,0.330000X0.158310*%
%TD*%
%TA.AperFunction,SMDPad,CuDef*%
%ADD16FreePoly0,180.000000*%
%TD*%
%TA.AperFunction,SMDPad,CuDef*%
%ADD17FreePoly1,180.000000*%
%TD*%
%TA.AperFunction,ViaPad*%
%ADD18C,0.400000*%
%TD*%
%TA.AperFunction,Conductor*%
%ADD19C,0.075000*%
%TD*%
%TA.AperFunction,Profile*%
%ADD20C,0.050000*%
%TD*%
G04 APERTURE END LIST*
D10*
%TO.P,U4,1*%
%TO.N,PDM_data*%
X125680000Y-102990000D03*
%TO.P,U4,2*%
%TO.N,VDDMIC*%
X124980000Y-102990000D03*
%TO.P,U4,3*%
%TO.N,PDM_clk*%
X125680000Y-104690000D03*
%TO.P,U4,4*%
%TO.N,VDDMIC*%
X124980000Y-104690000D03*
D11*
%TO.P,U4,5*%
%TO.N,GND*%
X123500000Y-103840000D03*
D12*
X123500000Y-103840000D03*
%TD*%
D13*
%TO.P,C4,1*%
%TO.N,GND*%
X138436641Y-103288483D03*
%TO.P,C4,2*%
%TO.N,VDDMIC*%
X138908331Y-103288483D03*
%TD*%
D14*
%TO.P,U6,1*%
%TO.N,PDM_clk*%
X138175000Y-99300000D03*
%TO.P,U6,2*%
%TO.N,GND*%
X138675000Y-99300000D03*
%TO.P,U6,3*%
X139175000Y-99300000D03*
%TO.P,U6,4*%
X139675000Y-99300000D03*
%TO.P,U6,5*%
%TO.N,PDM_data*%
X140175000Y-99300000D03*
%TO.P,U6,6*%
%TO.N,VDDMIC*%
X140675000Y-99300000D03*
%TD*%
D15*
%TO.P,C5,1*%
%TO.N,GND*%
X126895826Y-104029634D03*
%TO.P,C5,2*%
%TO.N,VDDMIC*%
X126895826Y-104501324D03*
%TD*%
D10*
%TO.P,U3,1*%
%TO.N,PDM_data*%
X139930000Y-104690000D03*
%TO.P,U3,2*%
%TO.N,VDDMIC*%
X140630000Y-104690000D03*
%TO.P,U3,3*%
%TO.N,PDM_clk*%
X139930000Y-102990000D03*
%TO.P,U3,4*%
%TO.N,GND*%
X140630000Y-102990000D03*
D16*
%TO.P,U3,5*%
X142110000Y-103840000D03*
D17*
X142110000Y-103840000D03*
%TD*%
D18*
%TO.N,VDDMIC*%
X136613595Y-104121402D03*
X136580066Y-105137257D03*
X135947597Y-102780495D03*
X136106004Y-104155241D03*
X136086721Y-105159191D03*
X135472595Y-102880762D03*
X140473556Y-101616474D03*
%TO.N,GND*%
X124318241Y-102772504D03*
X139779222Y-103692338D03*
X123849506Y-102610647D03*
X139194098Y-101096699D03*
X141990404Y-102542989D03*
X140278888Y-103674057D03*
X128155771Y-104027136D03*
X127564445Y-104021107D03*
X137377435Y-103265161D03*
X139680234Y-100832322D03*
X141457626Y-102619397D03*
X137900750Y-103268798D03*
X138681446Y-100849212D03*
%TD*%
D19*
%TO.N,PDM_data*%
X139930000Y-104690000D02*
X140947475Y-103443226D01*
X140947475Y-103443226D02*
G75*
G03*
X140970000Y-103380000I-77475J63226D01*
G01*
X140970000Y-103380000D02*
X140970000Y-102600000D01*
X140970000Y-102600000D02*
G75*
G03*
X140941797Y-102530392I-100000J0D01*
G01*
X140941797Y-102530392D02*
X140260338Y-101827503D01*
X140248995Y-101813447D02*
G75*
G03*
X140260338Y-101827503I83205J55547D01*
G01*
X140248988Y-101813452D02*
X140205633Y-101748567D01*
X140190701Y-101712519D02*
G75*
G03*
X140205633Y-101748567I98099J19519D01*
G01*
X140190702Y-101712519D02*
X140175478Y-101635983D01*
X140173563Y-101616411D02*
G75*
G03*
X140175479Y-101635983I100037J-89D01*
G01*
X140173556Y-101616411D02*
X140175000Y-99300000D01*
X125680000Y-102990000D02*
X124662525Y-104236774D01*
X124662525Y-104236774D02*
G75*
G03*
X124640000Y-104300000I77475J-63226D01*
G01*
X124640000Y-104300000D02*
X124640000Y-105080000D01*
X124640000Y-105080000D02*
G75*
G03*
X124740000Y-105180000I100000J0D01*
G01*
X124740000Y-105180000D02*
X125920000Y-105180000D01*
X125920000Y-105180000D02*
G75*
G03*
X125923496Y-105179938I0J98600D01*
G01*
X125923496Y-105179939D02*
X139930000Y-104690000D01*
%TO.N,VDDMIC*%
X140675000Y-99300000D02*
X140473556Y-101616474D01*
%TO.N,GND*%
X137900750Y-103268798D02*
X137377435Y-103265161D01*
X126895826Y-104029634D02*
X127564445Y-104021107D01*
X138436641Y-103288483D02*
X137900750Y-103268798D01*
X127564445Y-104021107D02*
X128155771Y-104027136D01*
X140278888Y-103674057D02*
X139779222Y-103692338D01*
X139675000Y-99300000D02*
X139680234Y-100832322D01*
X124348432Y-103833244D02*
X124318241Y-102772504D01*
X141305980Y-103817557D02*
X141457626Y-102619397D01*
X139175000Y-99300000D02*
X139194098Y-101096699D01*
X124348432Y-103833244D02*
X123849506Y-102610647D01*
X140630000Y-102990000D02*
X140278888Y-103674057D01*
X138675000Y-99300000D02*
X138681446Y-100849212D01*
X141305980Y-103817557D02*
X141990404Y-102542989D01*
%TO.N,PDM_clk*%
X125680000Y-104690000D02*
X127061515Y-104680477D01*
X127061515Y-104680479D02*
G75*
G03*
X127077253Y-104679120I-715J100079D01*
G01*
X127077253Y-104679121D02*
X137361008Y-102966520D01*
X137378130Y-102965169D02*
G75*
G03*
X137361008Y-102966521I-730J-99831D01*
G01*
X137378130Y-102965164D02*
X137901445Y-102968800D01*
X137901795Y-102968803D02*
G75*
G03*
X137901445Y-102968800I-395J-30597D01*
G01*
X137901795Y-102968803D02*
X139930000Y-102990000D01*
X139930000Y-102990000D02*
X138460330Y-101051039D01*
X138456875Y-101046191D02*
G75*
G03*
X138460331Y-101051039I84225J56391D01*
G01*
X138456877Y-101046190D02*
X138413523Y-100981306D01*
X138398579Y-100945260D02*
G75*
G03*
X138413523Y-100981306I98121J19560D01*
G01*
X138398591Y-100945258D02*
X138383367Y-100868721D01*
X138382315Y-100862366D02*
G75*
G03*
X138383368Y-100868721I100385J13366D01*
G01*
X138382314Y-100862366D02*
X138175000Y-99300000D01*
%TD*%
%TA.AperFunction,Conductor*%
%TO.N,VDDMIC*%
G36*
X137920399Y-98228229D02*
G01*
X137924500Y-98238128D01*
X137924500Y-100559896D01*
X137924501Y-100559899D01*
X137930331Y-100589213D01*
X137952543Y-100622457D01*
X137985787Y-100644669D01*
X138015101Y-100650500D01*
X138202726Y-100650499D01*
X138212625Y-100654599D01*
X138216604Y-100662657D01*
X138241168Y-100847778D01*
X138241171Y-100847908D01*
X138244515Y-100873027D01*
X138244607Y-100875787D01*
X138244473Y-100877823D01*
X138244474Y-100877826D01*
X138246478Y-100887906D01*
X138246552Y-100888350D01*
X138247901Y-100898523D01*
X138248688Y-100900416D01*
X138249491Y-100903061D01*
X138254441Y-100928000D01*
X138254475Y-100928105D01*
X138256810Y-100939848D01*
X138256822Y-100939970D01*
X138257096Y-100941346D01*
X138257096Y-100941348D01*
X138261336Y-100962620D01*
X138262156Y-100966730D01*
X138262150Y-100966762D01*
X138266319Y-100987682D01*
X138266364Y-100987874D01*
X138266786Y-100989997D01*
X138267679Y-100991806D01*
X138268027Y-100992646D01*
X138268569Y-100994239D01*
X138276325Y-101017063D01*
X138276326Y-101017065D01*
X138276327Y-101017067D01*
X138281949Y-101028460D01*
X138287657Y-101040025D01*
X138288008Y-101040871D01*
X138288686Y-101042867D01*
X138288689Y-101042872D01*
X138289977Y-101044801D01*
X138290044Y-101044908D01*
X138294229Y-101051167D01*
X138297912Y-101056676D01*
X138321113Y-101091398D01*
X138323772Y-101095378D01*
X138323900Y-101095625D01*
X138337356Y-101115722D01*
X138338689Y-101118230D01*
X138339377Y-101119920D01*
X138345948Y-101128588D01*
X138346188Y-101128926D01*
X138352227Y-101137964D01*
X138352228Y-101137965D01*
X138352229Y-101137966D01*
X138353626Y-101139191D01*
X138355550Y-101141258D01*
X138934615Y-101905227D01*
X139392903Y-102509855D01*
X139586657Y-102765477D01*
X139589500Y-102773934D01*
X139589500Y-102834286D01*
X139585399Y-102844185D01*
X139575500Y-102848286D01*
X139575354Y-102848285D01*
X137921867Y-102831005D01*
X137921334Y-102830965D01*
X137921251Y-102830965D01*
X137920806Y-102830932D01*
X137920572Y-102830930D01*
X137920571Y-102830930D01*
X137902865Y-102830806D01*
X137884877Y-102830618D01*
X137884380Y-102830646D01*
X137884273Y-102830645D01*
X137883769Y-102830673D01*
X137382172Y-102827188D01*
X137360922Y-102827041D01*
X137360921Y-102827041D01*
X137360916Y-102827041D01*
X137360010Y-102827154D01*
X137360002Y-102827096D01*
X137357173Y-102827320D01*
X137357176Y-102827379D01*
X137356257Y-102827410D01*
X137331969Y-102831454D01*
X137306537Y-102835687D01*
X137306511Y-102835693D01*
X128241160Y-104345388D01*
X128230721Y-104342969D01*
X128225050Y-104333878D01*
X128227469Y-104323439D01*
X128234071Y-104318422D01*
X128308339Y-104291392D01*
X128389519Y-104223274D01*
X128442505Y-104131499D01*
X128454769Y-104061948D01*
X128460907Y-104027138D01*
X128460907Y-104027133D01*
X128442505Y-103922773D01*
X128389521Y-103831000D01*
X128389519Y-103830998D01*
X128308339Y-103762880D01*
X128258548Y-103744757D01*
X128208758Y-103726636D01*
X128208757Y-103726636D01*
X128102785Y-103726636D01*
X128102783Y-103726636D01*
X128003203Y-103762880D01*
X127922020Y-103831000D01*
X127894114Y-103879336D01*
X127885613Y-103885859D01*
X127881847Y-103886335D01*
X127841324Y-103885922D01*
X127831467Y-103881721D01*
X127829343Y-103878923D01*
X127798195Y-103824971D01*
X127764503Y-103796700D01*
X127717013Y-103756851D01*
X127667222Y-103738729D01*
X127617432Y-103720607D01*
X127617431Y-103720607D01*
X127511459Y-103720607D01*
X127511457Y-103720607D01*
X127411877Y-103756851D01*
X127330694Y-103824971D01*
X127299136Y-103879632D01*
X127290635Y-103886155D01*
X127287191Y-103886631D01*
X127147885Y-103888408D01*
X127137934Y-103884434D01*
X127136065Y-103882186D01*
X127133283Y-103878022D01*
X127124644Y-103872250D01*
X127100039Y-103855810D01*
X127100038Y-103855809D01*
X127100037Y-103855809D01*
X127078002Y-103851426D01*
X127070725Y-103849979D01*
X127070724Y-103849979D01*
X126720929Y-103849979D01*
X126691613Y-103855810D01*
X126658369Y-103878022D01*
X126636156Y-103911267D01*
X126630326Y-103940580D01*
X126630326Y-104118685D01*
X126632875Y-104131498D01*
X126636157Y-104148002D01*
X126644068Y-104159842D01*
X126644581Y-104160610D01*
X126646671Y-104171120D01*
X126640718Y-104180029D01*
X126635674Y-104182119D01*
X126631718Y-104182906D01*
X126547702Y-104239045D01*
X126491562Y-104323064D01*
X126476826Y-104397152D01*
X126476826Y-104422169D01*
X126960981Y-104422169D01*
X126970880Y-104426270D01*
X126974981Y-104436169D01*
X126974981Y-104529164D01*
X126970880Y-104539063D01*
X126961078Y-104543164D01*
X126034596Y-104549551D01*
X126024668Y-104545519D01*
X126020499Y-104535648D01*
X126020499Y-104290103D01*
X126020499Y-104290101D01*
X126014669Y-104260787D01*
X125992457Y-104227543D01*
X125959213Y-104205331D01*
X125959212Y-104205330D01*
X125959211Y-104205330D01*
X125929899Y-104199500D01*
X125465816Y-104199500D01*
X125455917Y-104195399D01*
X125454176Y-104193278D01*
X125403125Y-104116876D01*
X125319104Y-104060736D01*
X125245017Y-104046000D01*
X125025828Y-104046000D01*
X125015929Y-104041899D01*
X125011828Y-104032000D01*
X125014980Y-104023149D01*
X125373824Y-103583436D01*
X125376886Y-103580654D01*
X125403123Y-103563123D01*
X125454175Y-103486721D01*
X125463085Y-103480768D01*
X125465816Y-103480499D01*
X125929897Y-103480499D01*
X125929898Y-103480499D01*
X125959213Y-103474669D01*
X125992457Y-103452457D01*
X126014669Y-103419213D01*
X126020500Y-103389899D01*
X126020499Y-102590102D01*
X126014669Y-102560787D01*
X125992457Y-102527543D01*
X125959213Y-102505331D01*
X125959212Y-102505330D01*
X125959211Y-102505330D01*
X125929899Y-102499500D01*
X125465816Y-102499500D01*
X125455917Y-102495399D01*
X125454176Y-102493278D01*
X125403125Y-102416876D01*
X125319104Y-102360736D01*
X125245017Y-102346000D01*
X125107000Y-102346000D01*
X125107000Y-103103000D01*
X125102899Y-103112899D01*
X125093000Y-103117000D01*
X124867000Y-103117000D01*
X124857101Y-103112899D01*
X124853000Y-103103000D01*
X124853000Y-102346000D01*
X124714984Y-102346000D01*
X124640894Y-102360736D01*
X124556876Y-102416876D01*
X124500737Y-102500893D01*
X124499816Y-102505522D01*
X124493862Y-102514431D01*
X124483353Y-102516521D01*
X124477086Y-102513515D01*
X124470809Y-102508248D01*
X124371228Y-102472004D01*
X124371227Y-102472004D01*
X124265255Y-102472004D01*
X124265253Y-102472004D01*
X124165672Y-102508248D01*
X124158910Y-102513922D01*
X124148691Y-102517144D01*
X124139187Y-102512195D01*
X124136923Y-102507340D01*
X124136660Y-102507436D01*
X124136240Y-102506284D01*
X124083256Y-102414511D01*
X124079929Y-102411719D01*
X124002074Y-102346391D01*
X123952283Y-102328268D01*
X123902493Y-102310147D01*
X123902492Y-102310147D01*
X123796520Y-102310147D01*
X123796518Y-102310147D01*
X123696938Y-102346391D01*
X123615755Y-102414511D01*
X123562771Y-102506284D01*
X123544370Y-102610644D01*
X123544370Y-102610649D01*
X123558350Y-102689940D01*
X123556031Y-102700401D01*
X123546994Y-102706158D01*
X123543191Y-102706304D01*
X123530218Y-102705026D01*
X123510044Y-102703040D01*
X123489956Y-102703040D01*
X123348615Y-102716960D01*
X123288038Y-102722927D01*
X123268343Y-102726845D01*
X123268333Y-102726847D01*
X123074182Y-102785742D01*
X123074169Y-102785747D01*
X123055647Y-102793419D01*
X123055623Y-102793430D01*
X122876700Y-102889066D01*
X122876685Y-102889075D01*
X122859997Y-102900225D01*
X122859992Y-102900228D01*
X122703147Y-103028948D01*
X122703135Y-103028959D01*
X122688959Y-103043135D01*
X122688948Y-103043147D01*
X122560228Y-103199992D01*
X122560225Y-103199997D01*
X122549075Y-103216685D01*
X122549066Y-103216700D01*
X122453430Y-103395623D01*
X122453419Y-103395647D01*
X122445747Y-103414169D01*
X122445742Y-103414182D01*
X122386847Y-103608333D01*
X122386845Y-103608343D01*
X122382927Y-103628038D01*
X122376594Y-103692338D01*
X122363532Y-103824969D01*
X122363039Y-103829970D01*
X122362547Y-103839999D01*
X122363133Y-103842949D01*
X122363334Y-103847044D01*
X122363040Y-103850040D01*
X122363040Y-103850044D01*
X122366828Y-103888505D01*
X122382927Y-104051961D01*
X122386845Y-104071656D01*
X122386847Y-104071666D01*
X122445742Y-104265817D01*
X122445747Y-104265830D01*
X122453419Y-104284352D01*
X122453429Y-104284375D01*
X122498000Y-104367761D01*
X122536713Y-104440189D01*
X122549072Y-104463310D01*
X122549075Y-104463314D01*
X122560225Y-104480002D01*
X122560228Y-104480007D01*
X122560230Y-104480009D01*
X122560232Y-104480012D01*
X122631704Y-104567101D01*
X122688948Y-104636852D01*
X122688959Y-104636864D01*
X122703135Y-104651040D01*
X122703147Y-104651051D01*
X122703150Y-104651054D01*
X122859988Y-104779768D01*
X122876690Y-104790928D01*
X123055625Y-104886571D01*
X123055647Y-104886580D01*
X123074169Y-104894252D01*
X123074176Y-104894254D01*
X123074184Y-104894258D01*
X123268340Y-104953154D01*
X123288041Y-104957073D01*
X123489956Y-104976960D01*
X123489963Y-104976960D01*
X123510037Y-104976960D01*
X123510044Y-104976960D01*
X123711959Y-104957073D01*
X123731660Y-104953154D01*
X123925816Y-104894258D01*
X123944375Y-104886571D01*
X124123310Y-104790928D01*
X124140012Y-104779768D01*
X124296850Y-104651054D01*
X124311054Y-104636850D01*
X124439768Y-104480012D01*
X124450928Y-104463310D01*
X124459652Y-104446987D01*
X124467936Y-104440189D01*
X124478599Y-104441239D01*
X124485397Y-104449522D01*
X124486000Y-104453586D01*
X124486000Y-104563000D01*
X124488000Y-104563000D01*
X124497899Y-104567101D01*
X124502000Y-104577000D01*
X124502000Y-104803000D01*
X124497899Y-104812899D01*
X124488000Y-104817000D01*
X124486001Y-104817000D01*
X124486001Y-105105015D01*
X124500736Y-105179105D01*
X124556876Y-105263123D01*
X124640895Y-105319263D01*
X124714983Y-105333999D01*
X124853000Y-105333999D01*
X124853000Y-105332000D01*
X124857101Y-105322101D01*
X124867000Y-105318000D01*
X125093000Y-105318000D01*
X125102899Y-105322101D01*
X125107000Y-105332000D01*
X125107000Y-105333999D01*
X125245016Y-105333999D01*
X125319103Y-105319263D01*
X125319578Y-105319067D01*
X125324939Y-105318000D01*
X125888502Y-105318000D01*
X125906446Y-105318000D01*
X125909595Y-105318359D01*
X125909929Y-105318435D01*
X125910164Y-105318490D01*
X125910164Y-105318489D01*
X125910165Y-105318490D01*
X125924172Y-105318000D01*
X125938167Y-105318000D01*
X125938723Y-105317850D01*
X125941866Y-105317380D01*
X139575012Y-104840501D01*
X139585047Y-104844252D01*
X139589491Y-104854003D01*
X139589500Y-104854492D01*
X139589500Y-105089896D01*
X139593883Y-105111934D01*
X139595331Y-105119213D01*
X139617543Y-105152457D01*
X139650787Y-105174669D01*
X139680101Y-105180500D01*
X140144183Y-105180499D01*
X140154082Y-105184599D01*
X140155823Y-105186721D01*
X140206874Y-105263122D01*
X140290895Y-105319263D01*
X140364983Y-105333999D01*
X140503000Y-105333999D01*
X140503000Y-104817000D01*
X140757000Y-104817000D01*
X140757000Y-105333999D01*
X140895016Y-105333999D01*
X140969105Y-105319263D01*
X141053123Y-105263123D01*
X141109263Y-105179104D01*
X141124000Y-105105016D01*
X141124000Y-104817000D01*
X140757000Y-104817000D01*
X140503000Y-104817000D01*
X140503000Y-104577000D01*
X140507101Y-104567101D01*
X140517000Y-104563000D01*
X141123999Y-104563000D01*
X141123999Y-104453584D01*
X141128100Y-104443685D01*
X141137999Y-104439584D01*
X141147898Y-104443685D01*
X141150346Y-104446985D01*
X141159061Y-104463291D01*
X141159066Y-104463299D01*
X141159072Y-104463310D01*
X141159075Y-104463314D01*
X141170225Y-104480002D01*
X141170228Y-104480007D01*
X141170230Y-104480009D01*
X141170232Y-104480012D01*
X141241704Y-104567101D01*
X141298948Y-104636852D01*
X141298959Y-104636864D01*
X141313135Y-104651040D01*
X141313147Y-104651051D01*
X141313150Y-104651054D01*
X141469988Y-104779768D01*
X141486690Y-104790928D01*
X141665625Y-104886571D01*
X141665647Y-104886580D01*
X141684169Y-104894252D01*
X141684176Y-104894254D01*
X141684184Y-104894258D01*
X141878340Y-104953154D01*
X141898041Y-104957073D01*
X142099956Y-104976960D01*
X142099963Y-104976960D01*
X142120037Y-104976960D01*
X142120044Y-104976960D01*
X142321959Y-104957073D01*
X142341660Y-104953154D01*
X142535816Y-104894258D01*
X142554375Y-104886571D01*
X142733310Y-104790928D01*
X142750012Y-104779768D01*
X142906850Y-104651054D01*
X142921054Y-104636850D01*
X143049768Y-104480012D01*
X143060928Y-104463310D01*
X143156571Y-104284375D01*
X143164258Y-104265816D01*
X143223154Y-104071660D01*
X143227073Y-104051959D01*
X143246960Y-103850044D01*
X143246964Y-103849979D01*
X143247453Y-103839996D01*
X143246867Y-103837053D01*
X143246665Y-103832945D01*
X143246960Y-103829956D01*
X143227073Y-103628041D01*
X143223154Y-103608340D01*
X143164258Y-103414184D01*
X143156571Y-103395625D01*
X143060928Y-103216690D01*
X143049768Y-103199988D01*
X142921054Y-103043150D01*
X142921051Y-103043147D01*
X142921040Y-103043135D01*
X142906864Y-103028959D01*
X142906852Y-103028948D01*
X142833369Y-102968642D01*
X142750012Y-102900232D01*
X142750011Y-102900231D01*
X142750007Y-102900228D01*
X142750002Y-102900225D01*
X142733314Y-102889075D01*
X142733310Y-102889072D01*
X142554375Y-102793429D01*
X142554362Y-102793423D01*
X142554352Y-102793419D01*
X142535830Y-102785747D01*
X142535817Y-102785742D01*
X142341666Y-102726847D01*
X142341656Y-102726845D01*
X142321962Y-102722927D01*
X142259871Y-102716811D01*
X142250422Y-102711759D01*
X142247311Y-102701505D01*
X142249118Y-102695882D01*
X142277138Y-102647352D01*
X142295540Y-102542989D01*
X142295540Y-102542986D01*
X142277138Y-102438626D01*
X142224154Y-102346853D01*
X142224152Y-102346851D01*
X142142972Y-102278733D01*
X142093181Y-102260611D01*
X142043391Y-102242489D01*
X142043390Y-102242489D01*
X141937418Y-102242489D01*
X141937416Y-102242489D01*
X141837836Y-102278733D01*
X141756653Y-102346853D01*
X141713910Y-102420888D01*
X141705409Y-102427411D01*
X141694786Y-102426012D01*
X141692366Y-102423982D01*
X141692312Y-102424047D01*
X141691375Y-102423260D01*
X141691374Y-102423259D01*
X141610194Y-102355141D01*
X141560403Y-102337019D01*
X141510613Y-102318897D01*
X141510612Y-102318897D01*
X141404640Y-102318897D01*
X141404638Y-102318897D01*
X141305058Y-102355141D01*
X141223875Y-102423261D01*
X141170891Y-102515034D01*
X141152490Y-102619394D01*
X141152490Y-102619399D01*
X141170891Y-102723759D01*
X141223875Y-102815532D01*
X141223877Y-102815534D01*
X141223878Y-102815535D01*
X141281148Y-102863590D01*
X141286096Y-102873095D01*
X141286038Y-102876073D01*
X141259188Y-103088206D01*
X141256121Y-103095329D01*
X141170236Y-103199982D01*
X141170225Y-103199997D01*
X141159075Y-103216685D01*
X141159066Y-103216700D01*
X141134347Y-103262946D01*
X141126064Y-103269743D01*
X141115400Y-103268693D01*
X141108603Y-103260410D01*
X141108000Y-103256346D01*
X141108000Y-102600000D01*
X141108080Y-102569281D01*
X141101180Y-102542989D01*
X141092486Y-102509857D01*
X141092483Y-102509850D01*
X141062319Y-102456337D01*
X141062317Y-102456333D01*
X141041003Y-102434465D01*
X141040876Y-102434333D01*
X141018952Y-102411719D01*
X141018950Y-102411718D01*
X141018204Y-102410948D01*
X141018203Y-102410947D01*
X140486162Y-101862174D01*
X140362705Y-101734834D01*
X140361114Y-101732864D01*
X140345414Y-101709347D01*
X140345336Y-101709255D01*
X140344870Y-101708558D01*
X140326120Y-101680496D01*
X140324031Y-101675449D01*
X140323047Y-101670499D01*
X140311829Y-101614104D01*
X140311560Y-101611360D01*
X140311585Y-101583365D01*
X140311576Y-101583284D01*
X140311606Y-101534973D01*
X140312105Y-100734710D01*
X140316212Y-100724815D01*
X140326114Y-100720721D01*
X140336011Y-100724828D01*
X140337745Y-100726943D01*
X140341874Y-100733122D01*
X140425895Y-100789263D01*
X140499983Y-100803999D01*
X140548000Y-100803999D01*
X140548000Y-99187000D01*
X140552101Y-99177101D01*
X140562000Y-99173000D01*
X140788000Y-99173000D01*
X140797899Y-99177101D01*
X140802000Y-99187000D01*
X140802000Y-100803999D01*
X140850014Y-100803999D01*
X140863734Y-100801269D01*
X140874243Y-100803359D01*
X140880197Y-100812268D01*
X140878930Y-100821375D01*
X140871718Y-100835476D01*
X140870297Y-100837706D01*
X140779188Y-100954630D01*
X140777429Y-100956504D01*
X140754279Y-100977014D01*
X140752353Y-100982093D01*
X140749422Y-100986760D01*
X140726600Y-101010825D01*
X140657825Y-101136872D01*
X140657824Y-101136874D01*
X140623346Y-101276251D01*
X140623346Y-101276254D01*
X140623346Y-101276255D01*
X140625424Y-101419826D01*
X140625424Y-101419829D01*
X140625425Y-101419830D01*
X140625425Y-101419831D01*
X140663923Y-101558156D01*
X140663924Y-101558158D01*
X140736312Y-101682153D01*
X140736317Y-101682159D01*
X140837840Y-101783682D01*
X140837846Y-101783687D01*
X140961841Y-101856075D01*
X140961843Y-101856076D01*
X140961845Y-101856076D01*
X140961846Y-101856077D01*
X141100174Y-101894576D01*
X141243745Y-101896654D01*
X141383129Y-101862174D01*
X141509173Y-101793401D01*
X141559333Y-101745831D01*
X141562220Y-101743273D01*
X141562541Y-101743007D01*
X141682296Y-101649702D01*
X141684522Y-101648283D01*
X141819938Y-101579019D01*
X141822384Y-101578047D01*
X141968413Y-101535468D01*
X141970995Y-101534974D01*
X142123201Y-101520530D01*
X142123849Y-101520500D01*
X143735500Y-101520500D01*
X143745399Y-101524601D01*
X143749500Y-101534500D01*
X143749500Y-105745500D01*
X143745399Y-105755399D01*
X143735500Y-105759500D01*
X121874500Y-105759500D01*
X121864601Y-105755399D01*
X121860500Y-105745500D01*
X121860500Y-101534500D01*
X121864601Y-101524601D01*
X121874500Y-101520500D01*
X136700371Y-101520500D01*
X136700373Y-101520501D01*
X136735949Y-101520500D01*
X136736596Y-101520530D01*
X136889014Y-101534982D01*
X136891597Y-101535476D01*
X137037619Y-101578047D01*
X137040065Y-101579019D01*
X137148510Y-101634488D01*
X137175476Y-101648281D01*
X137177707Y-101649702D01*
X137286604Y-101734556D01*
X137289517Y-101737642D01*
X137299343Y-101751877D01*
X137314862Y-101760022D01*
X137317987Y-101762258D01*
X137350827Y-101793401D01*
X137476871Y-101862174D01*
X137476872Y-101862174D01*
X137476874Y-101862175D01*
X137616251Y-101896653D01*
X137616255Y-101896654D01*
X137759826Y-101894576D01*
X137898154Y-101856077D01*
X137898156Y-101856076D01*
X137898158Y-101856075D01*
X138022153Y-101783687D01*
X138022152Y-101783687D01*
X138022155Y-101783686D01*
X138123686Y-101682155D01*
X138165016Y-101611360D01*
X138196075Y-101558158D01*
X138196076Y-101558156D01*
X138202491Y-101535107D01*
X138234576Y-101419826D01*
X138236654Y-101276255D01*
X138224107Y-101225534D01*
X138202175Y-101136874D01*
X138202174Y-101136872D01*
X138202174Y-101136871D01*
X138133401Y-101010827D01*
X138094079Y-100969364D01*
X138092717Y-100967685D01*
X138084410Y-100955650D01*
X138076003Y-100943469D01*
X138076002Y-100943468D01*
X138072091Y-100941416D01*
X138067552Y-100937623D01*
X138066820Y-100936684D01*
X138040624Y-100903061D01*
X137989702Y-100837703D01*
X137988282Y-100835474D01*
X137919022Y-100700066D01*
X137918046Y-100697610D01*
X137908132Y-100663608D01*
X137875469Y-100551588D01*
X137874974Y-100549002D01*
X137860530Y-100396799D01*
X137860500Y-100396150D01*
X137860500Y-98238128D01*
X137864601Y-98228229D01*
X137874500Y-98224128D01*
X137910500Y-98224128D01*
X137920399Y-98228229D01*
G37*
%TD.AperFunction*%
%TA.AperFunction,Conductor*%
G36*
X125102899Y-104567101D02*
G01*
X125107000Y-104577000D01*
X125107000Y-105028000D01*
X125102899Y-105037899D01*
X125093000Y-105042000D01*
X124867000Y-105042000D01*
X124857101Y-105037899D01*
X124853000Y-105028000D01*
X124853000Y-104817000D01*
X124792000Y-104817000D01*
X124782101Y-104812899D01*
X124778000Y-104803000D01*
X124778000Y-104577000D01*
X124782101Y-104567101D01*
X124792000Y-104563000D01*
X125093000Y-104563000D01*
X125102899Y-104567101D01*
G37*
%TD.AperFunction*%
%TA.AperFunction,Conductor*%
G36*
X138973633Y-103118011D02*
G01*
X138983488Y-103122215D01*
X138987486Y-103132010D01*
X138987486Y-103209328D01*
X139241485Y-103209328D01*
X139241485Y-103134956D01*
X139245586Y-103125057D01*
X139255482Y-103120957D01*
X139575646Y-103124303D01*
X139585502Y-103128507D01*
X139589500Y-103138302D01*
X139589500Y-103389896D01*
X139595331Y-103419213D01*
X139595331Y-103419214D01*
X139603407Y-103431302D01*
X139605497Y-103441811D01*
X139600765Y-103449803D01*
X139545474Y-103496199D01*
X139545472Y-103496202D01*
X139492487Y-103587975D01*
X139474086Y-103692335D01*
X139474086Y-103692340D01*
X139492487Y-103796700D01*
X139545471Y-103888473D01*
X139545473Y-103888475D01*
X139545474Y-103888476D01*
X139626654Y-103956594D01*
X139726236Y-103992838D01*
X139726237Y-103992838D01*
X139832207Y-103992838D01*
X139832208Y-103992838D01*
X139931790Y-103956594D01*
X140012970Y-103888476D01*
X140022338Y-103872248D01*
X140030838Y-103865726D01*
X140041461Y-103867124D01*
X140044193Y-103869416D01*
X140044202Y-103869407D01*
X140045138Y-103870193D01*
X140045140Y-103870195D01*
X140126320Y-103938313D01*
X140225902Y-103974557D01*
X140225903Y-103974557D01*
X140306244Y-103974557D01*
X140316143Y-103978658D01*
X140320244Y-103988557D01*
X140317091Y-103997409D01*
X140236175Y-104096560D01*
X140233106Y-104099348D01*
X140206875Y-104116876D01*
X140155824Y-104193278D01*
X140146915Y-104199231D01*
X140144184Y-104199500D01*
X139680103Y-104199500D01*
X139650787Y-104205331D01*
X139617543Y-104227543D01*
X139595330Y-104260788D01*
X139589500Y-104290101D01*
X139589500Y-104550306D01*
X139585399Y-104560205D01*
X139575989Y-104564297D01*
X126034988Y-105037954D01*
X126024952Y-105034203D01*
X126020508Y-105024452D01*
X126020499Y-105023963D01*
X126020499Y-104839560D01*
X126024600Y-104829661D01*
X126034401Y-104825560D01*
X126638567Y-104821395D01*
X126641383Y-104821663D01*
X126705809Y-104834478D01*
X126816671Y-104834478D01*
X126816671Y-104834071D01*
X126820772Y-104824172D01*
X126830573Y-104820071D01*
X126960885Y-104819173D01*
X126970812Y-104823206D01*
X126974981Y-104833077D01*
X126974981Y-104834478D01*
X127085842Y-104834478D01*
X127159932Y-104819741D01*
X127159934Y-104819741D01*
X127186309Y-104802116D01*
X127191782Y-104799948D01*
X137072877Y-103154404D01*
X137083316Y-103156823D01*
X137088987Y-103165914D01*
X137088964Y-103170645D01*
X137072299Y-103265158D01*
X137072299Y-103265163D01*
X137090700Y-103369523D01*
X137143684Y-103461296D01*
X137143686Y-103461298D01*
X137143687Y-103461299D01*
X137224867Y-103529417D01*
X137324449Y-103565661D01*
X137324450Y-103565661D01*
X137430420Y-103565661D01*
X137430421Y-103565661D01*
X137530003Y-103529417D01*
X137611183Y-103461299D01*
X137625919Y-103435774D01*
X137634418Y-103429253D01*
X137645042Y-103430651D01*
X137650166Y-103435776D01*
X137666999Y-103464933D01*
X137667001Y-103464935D01*
X137667002Y-103464936D01*
X137748182Y-103533054D01*
X137847764Y-103569298D01*
X137847765Y-103569298D01*
X137953735Y-103569298D01*
X137953736Y-103569298D01*
X138053318Y-103533054D01*
X138134498Y-103464936D01*
X138158245Y-103423801D01*
X138166744Y-103417281D01*
X138170879Y-103416813D01*
X138243501Y-103419480D01*
X138253242Y-103423942D01*
X138256986Y-103433471D01*
X138256986Y-103463379D01*
X138260391Y-103480499D01*
X138262817Y-103492696D01*
X138285029Y-103525940D01*
X138318273Y-103548152D01*
X138347587Y-103553983D01*
X138525694Y-103553982D01*
X138555009Y-103548152D01*
X138567619Y-103539726D01*
X138578125Y-103537636D01*
X138587035Y-103543588D01*
X138589126Y-103548634D01*
X138589913Y-103552588D01*
X138646052Y-103636606D01*
X138730071Y-103692746D01*
X138804153Y-103707481D01*
X138804164Y-103707482D01*
X138829176Y-103707482D01*
X138829176Y-103367638D01*
X138987486Y-103367638D01*
X138987486Y-103707482D01*
X139012502Y-103707482D01*
X139086591Y-103692746D01*
X139170609Y-103636606D01*
X139226749Y-103552587D01*
X139241486Y-103478499D01*
X139241486Y-103367638D01*
X138987486Y-103367638D01*
X138829176Y-103367638D01*
X138829176Y-103130647D01*
X138833277Y-103120748D01*
X138843173Y-103116648D01*
X138973633Y-103118011D01*
G37*
%TD.AperFunction*%
%TD*%
D20*
X141179972Y-98193628D02*
G75*
G03*
X141030000Y-98043628I-149972J28D01*
G01*
X141180000Y-98193628D02*
X141180000Y-100396271D01*
X140907268Y-101082614D02*
G75*
G03*
X141180000Y-100396271I-727168J686314D01*
G01*
X140907273Y-101082619D02*
X140907273Y-101082619D01*
X140907274Y-101082620D02*
G75*
G03*
X141437380Y-101612726I272726J-257380D01*
G01*
X141437381Y-101612727D02*
X141437381Y-101612727D01*
X142123729Y-101339979D02*
G75*
G03*
X141437381Y-101612727I71J-1000121D01*
G01*
X142123729Y-101340000D02*
X143780000Y-101340000D01*
X143930000Y-101490000D02*
G75*
G03*
X143780000Y-101340000I-150000J0D01*
G01*
X143930000Y-101490000D02*
X143930000Y-105790000D01*
X143780000Y-105940000D02*
G75*
G03*
X143930000Y-105790000I0J150000D01*
G01*
X143780000Y-105940000D02*
X121830000Y-105940000D01*
X121680000Y-105790000D02*
G75*
G03*
X121830000Y-105940000I150000J0D01*
G01*
X121680000Y-105790000D02*
X121680000Y-101490000D01*
X121830000Y-101340000D02*
G75*
G03*
X121680000Y-101490000I0J-150000D01*
G01*
X121830000Y-101340000D02*
X136736271Y-101340000D01*
X137422614Y-101612732D02*
G75*
G03*
X136736271Y-101340000I-686314J-727168D01*
G01*
X137422619Y-101612727D02*
X137422619Y-101612727D01*
X137422620Y-101612726D02*
G75*
G03*
X137952726Y-101082620I257380J272726D01*
G01*
X137952727Y-101082619D02*
X137952727Y-101082619D01*
X137679979Y-100396271D02*
G75*
G03*
X137952727Y-101082619I1000121J71D01*
G01*
X137680000Y-100396271D02*
X137680000Y-98193628D01*
X137830000Y-98043600D02*
G75*
G03*
X137680000Y-98193628I0J-150000D01*
G01*
X137830000Y-98043628D02*
X141030000Y-98043628D01*
M02*
