%TF.GenerationSoftware,KiCad,Pcbnew,7.0.7*%
%TF.CreationDate,2024-01-11T20:38:36-08:00*%
%TF.ProjectId,beeper-flex,62656570-6572-42d6-966c-65782e6b6963,rev?*%
%TF.SameCoordinates,Original*%
%TF.FileFunction,Other,Comment*%
%FSLAX46Y46*%
G04 Gerber Fmt 4.6, Leading zero omitted, Abs format (unit mm)*
G04 Created by KiCad (PCBNEW 7.0.7) date 2024-01-11 20:38:36*
%MOMM*%
%LPD*%
G01*
G04 APERTURE LIST*
%TA.AperFunction,Profile*%
%ADD10C,0.050000*%
%TD*%
G04 APERTURE END LIST*
%TO.C,U6*%
G36*
X141175000Y-100550000D02*
G01*
X137675000Y-100550000D01*
X137675000Y-98050000D01*
X141175000Y-98050000D01*
X141175000Y-100550000D01*
G37*
%TD*%
D10*
X141179972Y-98193628D02*
G75*
G03*
X141030000Y-98043628I-149972J28D01*
G01*
X141180000Y-98193628D02*
X141180000Y-100396271D01*
X140907268Y-101082614D02*
G75*
G03*
X141180000Y-100396271I-727168J686314D01*
G01*
X140907273Y-101082619D02*
X140907273Y-101082619D01*
X140907274Y-101082620D02*
G75*
G03*
X141437380Y-101612726I272726J-257380D01*
G01*
X141437381Y-101612727D02*
X141437381Y-101612727D01*
X142123729Y-101339979D02*
G75*
G03*
X141437381Y-101612727I71J-1000121D01*
G01*
X142123729Y-101340000D02*
X143780000Y-101340000D01*
X143930000Y-101490000D02*
G75*
G03*
X143780000Y-101340000I-150000J0D01*
G01*
X143930000Y-101490000D02*
X143930000Y-105790000D01*
X143780000Y-105940000D02*
G75*
G03*
X143930000Y-105790000I0J150000D01*
G01*
X143780000Y-105940000D02*
X121830000Y-105940000D01*
X121680000Y-105790000D02*
G75*
G03*
X121830000Y-105940000I150000J0D01*
G01*
X121680000Y-105790000D02*
X121680000Y-101490000D01*
X121830000Y-101340000D02*
G75*
G03*
X121680000Y-101490000I0J-150000D01*
G01*
X121830000Y-101340000D02*
X136736271Y-101340000D01*
X137422614Y-101612732D02*
G75*
G03*
X136736271Y-101340000I-686314J-727168D01*
G01*
X137422619Y-101612727D02*
X137422619Y-101612727D01*
X137422620Y-101612726D02*
G75*
G03*
X137952726Y-101082620I257380J272726D01*
G01*
X137952727Y-101082619D02*
X137952727Y-101082619D01*
X137679979Y-100396271D02*
G75*
G03*
X137952727Y-101082619I1000121J71D01*
G01*
X137680000Y-100396271D02*
X137680000Y-98193628D01*
X137830000Y-98043600D02*
G75*
G03*
X137680000Y-98193628I0J-150000D01*
G01*
X137830000Y-98043628D02*
X141030000Y-98043628D01*
M02*
