%TF.GenerationSoftware,KiCad,Pcbnew,7.0.7*%
%TF.CreationDate,2024-01-11T20:38:36-08:00*%
%TF.ProjectId,beeper-flex,62656570-6572-42d6-966c-65782e6b6963,rev?*%
%TF.SameCoordinates,Original*%
%TF.FileFunction,Soldermask,Bot*%
%TF.FilePolarity,Negative*%
%FSLAX46Y46*%
G04 Gerber Fmt 4.6, Leading zero omitted, Abs format (unit mm)*
G04 Created by KiCad (PCBNEW 7.0.7) date 2024-01-11 20:38:36*
%MOMM*%
%LPD*%
G01*
G04 APERTURE LIST*
G04 Aperture macros list*
%AMRoundRect*
0 Rectangle with rounded corners*
0 $1 Rounding radius*
0 $2 $3 $4 $5 $6 $7 $8 $9 X,Y pos of 4 corners*
0 Add a 4 corners polygon primitive as box body*
4,1,4,$2,$3,$4,$5,$6,$7,$8,$9,$2,$3,0*
0 Add four circle primitives for the rounded corners*
1,1,$1+$1,$2,$3*
1,1,$1+$1,$4,$5*
1,1,$1+$1,$6,$7*
1,1,$1+$1,$8,$9*
0 Add four rect primitives between the rounded corners*
20,1,$1+$1,$2,$3,$4,$5,0*
20,1,$1+$1,$4,$5,$6,$7,0*
20,1,$1+$1,$6,$7,$8,$9,0*
20,1,$1+$1,$8,$9,$2,$3,0*%
G04 Aperture macros list end*
%ADD10C,0.450000*%
%ADD11R,0.480000X0.780000*%
%ADD12RoundRect,0.050000X0.079155X-0.165000X0.079155X0.165000X-0.079155X0.165000X-0.079155X-0.165000X0*%
%ADD13R,0.300000X2.500000*%
%ADD14RoundRect,0.050000X-0.165000X-0.079155X0.165000X-0.079155X0.165000X0.079155X-0.165000X0.079155X0*%
%ADD15C,0.800000*%
%TA.AperFunction,Profile*%
%ADD16C,0.050000*%
%TD*%
G04 APERTURE END LIST*
D10*
X124305000Y-103840000D02*
G75*
G03*
X124305000Y-103840000I-805000J0D01*
G01*
X142915000Y-103840000D02*
G75*
G03*
X142915000Y-103840000I-805000J0D01*
G01*
D11*
%TO.C,U4*%
X125680000Y-102990000D03*
X124980000Y-102990000D03*
X125680000Y-104690000D03*
X124980000Y-104690000D03*
%TD*%
D12*
%TO.C,C4*%
X138436641Y-103288483D03*
X138908331Y-103288483D03*
%TD*%
D13*
%TO.C,U6*%
X138175000Y-99300000D03*
X138675000Y-99300000D03*
X139175000Y-99300000D03*
X139675000Y-99300000D03*
X140175000Y-99300000D03*
X140675000Y-99300000D03*
%TD*%
D14*
%TO.C,C5*%
X126895826Y-104029634D03*
X126895826Y-104501324D03*
%TD*%
D11*
%TO.C,U3*%
X139930000Y-104690000D03*
X140630000Y-104690000D03*
X139930000Y-102990000D03*
X140630000Y-102990000D03*
%TD*%
D15*
%TO.C,*%
X123500000Y-103840000D03*
%TD*%
%TO.C,*%
X142110000Y-103840000D03*
%TD*%
D16*
X141179972Y-98193628D02*
G75*
G03*
X141030000Y-98043628I-149972J28D01*
G01*
X141180000Y-98193628D02*
X141180000Y-100396271D01*
X140907268Y-101082614D02*
G75*
G03*
X141180000Y-100396271I-727168J686314D01*
G01*
X140907273Y-101082619D02*
X140907273Y-101082619D01*
X140907274Y-101082620D02*
G75*
G03*
X141437380Y-101612726I272726J-257380D01*
G01*
X141437381Y-101612727D02*
X141437381Y-101612727D01*
X142123729Y-101339979D02*
G75*
G03*
X141437381Y-101612727I71J-1000121D01*
G01*
X142123729Y-101340000D02*
X143780000Y-101340000D01*
X143930000Y-101490000D02*
G75*
G03*
X143780000Y-101340000I-150000J0D01*
G01*
X143930000Y-101490000D02*
X143930000Y-105790000D01*
X143780000Y-105940000D02*
G75*
G03*
X143930000Y-105790000I0J150000D01*
G01*
X143780000Y-105940000D02*
X121830000Y-105940000D01*
X121680000Y-105790000D02*
G75*
G03*
X121830000Y-105940000I150000J0D01*
G01*
X121680000Y-105790000D02*
X121680000Y-101490000D01*
X121830000Y-101340000D02*
G75*
G03*
X121680000Y-101490000I0J-150000D01*
G01*
X121830000Y-101340000D02*
X136736271Y-101340000D01*
X137422614Y-101612732D02*
G75*
G03*
X136736271Y-101340000I-686314J-727168D01*
G01*
X137422619Y-101612727D02*
X137422619Y-101612727D01*
X137422620Y-101612726D02*
G75*
G03*
X137952726Y-101082620I257380J272726D01*
G01*
X137952727Y-101082619D02*
X137952727Y-101082619D01*
X137679979Y-100396271D02*
G75*
G03*
X137952727Y-101082619I1000121J71D01*
G01*
X137680000Y-100396271D02*
X137680000Y-98193628D01*
X137830000Y-98043600D02*
G75*
G03*
X137680000Y-98193628I0J-150000D01*
G01*
X137830000Y-98043628D02*
X141030000Y-98043628D01*
M02*
