%TF.GenerationSoftware,KiCad,Pcbnew,7.0.7*%
%TF.CreationDate,2023-11-24T16:48:55-08:00*%
%TF.ProjectId,beeper-design,62656570-6572-42d6-9465-7369676e2e6b,rev?*%
%TF.SameCoordinates,Original*%
%TF.FileFunction,Legend,Top*%
%TF.FilePolarity,Positive*%
%FSLAX46Y46*%
G04 Gerber Fmt 4.6, Leading zero omitted, Abs format (unit mm)*
G04 Created by KiCad (PCBNEW 7.0.7) date 2023-11-24 16:48:55*
%MOMM*%
%LPD*%
G01*
G04 APERTURE LIST*
G04 Aperture macros list*
%AMRoundRect*
0 Rectangle with rounded corners*
0 $1 Rounding radius*
0 $2 $3 $4 $5 $6 $7 $8 $9 X,Y pos of 4 corners*
0 Add a 4 corners polygon primitive as box body*
4,1,4,$2,$3,$4,$5,$6,$7,$8,$9,$2,$3,0*
0 Add four circle primitives for the rounded corners*
1,1,$1+$1,$2,$3*
1,1,$1+$1,$4,$5*
1,1,$1+$1,$6,$7*
1,1,$1+$1,$8,$9*
0 Add four rect primitives between the rounded corners*
20,1,$1+$1,$2,$3,$4,$5,0*
20,1,$1+$1,$4,$5,$6,$7,0*
20,1,$1+$1,$6,$7,$8,$9,0*
20,1,$1+$1,$8,$9,$2,$3,0*%
G04 Aperture macros list end*
%ADD10C,0.100000*%
%ADD11C,0.150000*%
%ADD12C,0.076200*%
%ADD13C,0.180000*%
%ADD14C,0.152000*%
%ADD15C,0.200000*%
%ADD16C,0.254000*%
%ADD17C,0.203200*%
%ADD18RoundRect,0.050000X-0.079155X0.165000X-0.079155X-0.165000X0.079155X-0.165000X0.079155X0.165000X0*%
%ADD19RoundRect,0.050000X0.079155X-0.165000X0.079155X0.165000X-0.079155X0.165000X-0.079155X-0.165000X0*%
%ADD20RoundRect,0.050000X-0.165000X-0.079155X0.165000X-0.079155X0.165000X0.079155X-0.165000X0.079155X0*%
%ADD21RoundRect,0.050800X-0.500000X-0.300000X0.500000X-0.300000X0.500000X0.300000X-0.500000X0.300000X0*%
%ADD22C,0.991000*%
%ADD23RoundRect,0.050000X-0.140139X0.300000X-0.140139X-0.300000X0.140139X-0.300000X0.140139X0.300000X0*%
%ADD24RoundRect,0.050000X0.206066X-0.475000X0.206066X0.475000X-0.206066X0.475000X-0.206066X-0.475000X0*%
%ADD25RoundRect,0.050000X0.140139X-0.300000X0.140139X0.300000X-0.140139X0.300000X-0.140139X-0.300000X0*%
%ADD26RoundRect,0.050000X-0.300000X-0.140139X0.300000X-0.140139X0.300000X0.140139X-0.300000X0.140139X0*%
%ADD27C,0.364500*%
%ADD28O,0.832000X1.562000*%
%ADD29O,1.302000X2.502000*%
%ADD30O,1.152000X2.202000*%
%ADD31RoundRect,0.050000X0.165000X0.079155X-0.165000X0.079155X-0.165000X-0.079155X0.165000X-0.079155X0*%
%ADD32C,0.260000*%
%ADD33RoundRect,0.051000X-0.150000X-0.400000X0.150000X-0.400000X0.150000X0.400000X-0.150000X0.400000X0*%
%ADD34RoundRect,0.051000X-0.200000X-0.400000X0.200000X-0.400000X0.200000X0.400000X-0.200000X0.400000X0*%
%ADD35RoundRect,0.051000X-0.350000X0.375000X-0.350000X-0.375000X0.350000X-0.375000X0.350000X0.375000X0*%
%ADD36RoundRect,0.050000X-0.206066X0.475000X-0.206066X-0.475000X0.206066X-0.475000X0.206066X0.475000X0*%
%ADD37RoundRect,0.051000X-0.150000X-0.260000X0.150000X-0.260000X0.150000X0.260000X-0.150000X0.260000X0*%
%ADD38RoundRect,0.050000X0.475000X0.206066X-0.475000X0.206066X-0.475000X-0.206066X0.475000X-0.206066X0*%
%ADD39RoundRect,0.050000X-0.475000X-0.206066X0.475000X-0.206066X0.475000X0.206066X-0.475000X0.206066X0*%
%ADD40C,0.352000*%
%ADD41C,0.340000*%
%ADD42RoundRect,0.051000X0.225000X-0.225000X0.225000X0.225000X-0.225000X0.225000X-0.225000X-0.225000X0*%
%ADD43RoundRect,0.050000X-0.355277X0.650000X-0.355277X-0.650000X0.355277X-0.650000X0.355277X0.650000X0*%
%ADD44C,0.314500*%
%ADD45RoundRect,0.051000X-0.140000X0.250000X-0.140000X-0.250000X0.140000X-0.250000X0.140000X0.250000X0*%
%ADD46RoundRect,0.051000X-0.250000X0.140000X-0.250000X-0.140000X0.250000X-0.140000X0.250000X0.140000X0*%
%ADD47RoundRect,0.050000X0.350000X0.350000X-0.350000X0.350000X-0.350000X-0.350000X0.350000X-0.350000X0*%
G04 APERTURE END LIST*
D10*
X133486425Y-116666872D02*
X133200711Y-116666872D01*
X133200711Y-116666872D02*
X133200711Y-116066872D01*
X133629282Y-116066872D02*
X134000710Y-116066872D01*
X134000710Y-116066872D02*
X133800710Y-116295443D01*
X133800710Y-116295443D02*
X133886425Y-116295443D01*
X133886425Y-116295443D02*
X133943568Y-116324015D01*
X133943568Y-116324015D02*
X133972139Y-116352586D01*
X133972139Y-116352586D02*
X134000710Y-116409729D01*
X134000710Y-116409729D02*
X134000710Y-116552586D01*
X134000710Y-116552586D02*
X133972139Y-116609729D01*
X133972139Y-116609729D02*
X133943568Y-116638301D01*
X133943568Y-116638301D02*
X133886425Y-116666872D01*
X133886425Y-116666872D02*
X133714996Y-116666872D01*
X133714996Y-116666872D02*
X133657853Y-116638301D01*
X133657853Y-116638301D02*
X133629282Y-116609729D01*
X131138224Y-115644311D02*
X130852510Y-115644311D01*
X130852510Y-115644311D02*
X130852510Y-115044311D01*
X131595367Y-115244311D02*
X131595367Y-115644311D01*
X131452509Y-115015740D02*
X131309652Y-115444311D01*
X131309652Y-115444311D02*
X131681081Y-115444311D01*
X135441523Y-116488104D02*
X135470095Y-116516676D01*
X135470095Y-116516676D02*
X135498666Y-116602390D01*
X135498666Y-116602390D02*
X135498666Y-116659533D01*
X135498666Y-116659533D02*
X135470095Y-116745247D01*
X135470095Y-116745247D02*
X135412952Y-116802390D01*
X135412952Y-116802390D02*
X135355809Y-116830961D01*
X135355809Y-116830961D02*
X135241523Y-116859533D01*
X135241523Y-116859533D02*
X135155809Y-116859533D01*
X135155809Y-116859533D02*
X135041523Y-116830961D01*
X135041523Y-116830961D02*
X134984380Y-116802390D01*
X134984380Y-116802390D02*
X134927237Y-116745247D01*
X134927237Y-116745247D02*
X134898666Y-116659533D01*
X134898666Y-116659533D02*
X134898666Y-116602390D01*
X134898666Y-116602390D02*
X134927237Y-116516676D01*
X134927237Y-116516676D02*
X134955809Y-116488104D01*
X135098666Y-115973819D02*
X135498666Y-115973819D01*
X134870095Y-116116676D02*
X135298666Y-116259533D01*
X135298666Y-116259533D02*
X135298666Y-115888104D01*
X135498666Y-115630961D02*
X135498666Y-115516675D01*
X135498666Y-115516675D02*
X135470095Y-115459532D01*
X135470095Y-115459532D02*
X135441523Y-115430961D01*
X135441523Y-115430961D02*
X135355809Y-115373818D01*
X135355809Y-115373818D02*
X135241523Y-115345247D01*
X135241523Y-115345247D02*
X135012952Y-115345247D01*
X135012952Y-115345247D02*
X134955809Y-115373818D01*
X134955809Y-115373818D02*
X134927237Y-115402390D01*
X134927237Y-115402390D02*
X134898666Y-115459532D01*
X134898666Y-115459532D02*
X134898666Y-115573818D01*
X134898666Y-115573818D02*
X134927237Y-115630961D01*
X134927237Y-115630961D02*
X134955809Y-115659532D01*
X134955809Y-115659532D02*
X135012952Y-115688104D01*
X135012952Y-115688104D02*
X135155809Y-115688104D01*
X135155809Y-115688104D02*
X135212952Y-115659532D01*
X135212952Y-115659532D02*
X135241523Y-115630961D01*
X135241523Y-115630961D02*
X135270095Y-115573818D01*
X135270095Y-115573818D02*
X135270095Y-115459532D01*
X135270095Y-115459532D02*
X135241523Y-115402390D01*
X135241523Y-115402390D02*
X135212952Y-115373818D01*
X135212952Y-115373818D02*
X135155809Y-115345247D01*
X128075332Y-117162004D02*
X128075332Y-117566766D01*
X128075332Y-117566766D02*
X128099142Y-117614385D01*
X128099142Y-117614385D02*
X128122951Y-117638195D01*
X128122951Y-117638195D02*
X128170570Y-117662004D01*
X128170570Y-117662004D02*
X128265808Y-117662004D01*
X128265808Y-117662004D02*
X128313427Y-117638195D01*
X128313427Y-117638195D02*
X128337237Y-117614385D01*
X128337237Y-117614385D02*
X128361046Y-117566766D01*
X128361046Y-117566766D02*
X128361046Y-117162004D01*
X128861047Y-117662004D02*
X128575333Y-117662004D01*
X128718190Y-117662004D02*
X128718190Y-117162004D01*
X128718190Y-117162004D02*
X128670571Y-117233433D01*
X128670571Y-117233433D02*
X128622952Y-117281052D01*
X128622952Y-117281052D02*
X128575333Y-117304861D01*
X129027713Y-117162004D02*
X129361046Y-117162004D01*
X129361046Y-117162004D02*
X129146761Y-117662004D01*
X133310386Y-116486918D02*
X133338958Y-116515490D01*
X133338958Y-116515490D02*
X133367529Y-116601204D01*
X133367529Y-116601204D02*
X133367529Y-116658347D01*
X133367529Y-116658347D02*
X133338958Y-116744061D01*
X133338958Y-116744061D02*
X133281815Y-116801204D01*
X133281815Y-116801204D02*
X133224672Y-116829775D01*
X133224672Y-116829775D02*
X133110386Y-116858347D01*
X133110386Y-116858347D02*
X133024672Y-116858347D01*
X133024672Y-116858347D02*
X132910386Y-116829775D01*
X132910386Y-116829775D02*
X132853243Y-116801204D01*
X132853243Y-116801204D02*
X132796100Y-116744061D01*
X132796100Y-116744061D02*
X132767529Y-116658347D01*
X132767529Y-116658347D02*
X132767529Y-116601204D01*
X132767529Y-116601204D02*
X132796100Y-116515490D01*
X132796100Y-116515490D02*
X132824672Y-116486918D01*
X132767529Y-115944061D02*
X132767529Y-116229775D01*
X132767529Y-116229775D02*
X133053243Y-116258347D01*
X133053243Y-116258347D02*
X133024672Y-116229775D01*
X133024672Y-116229775D02*
X132996100Y-116172633D01*
X132996100Y-116172633D02*
X132996100Y-116029775D01*
X132996100Y-116029775D02*
X133024672Y-115972633D01*
X133024672Y-115972633D02*
X133053243Y-115944061D01*
X133053243Y-115944061D02*
X133110386Y-115915490D01*
X133110386Y-115915490D02*
X133253243Y-115915490D01*
X133253243Y-115915490D02*
X133310386Y-115944061D01*
X133310386Y-115944061D02*
X133338958Y-115972633D01*
X133338958Y-115972633D02*
X133367529Y-116029775D01*
X133367529Y-116029775D02*
X133367529Y-116172633D01*
X133367529Y-116172633D02*
X133338958Y-116229775D01*
X133338958Y-116229775D02*
X133310386Y-116258347D01*
X132767529Y-115544061D02*
X132767529Y-115486918D01*
X132767529Y-115486918D02*
X132796100Y-115429775D01*
X132796100Y-115429775D02*
X132824672Y-115401204D01*
X132824672Y-115401204D02*
X132881815Y-115372632D01*
X132881815Y-115372632D02*
X132996100Y-115344061D01*
X132996100Y-115344061D02*
X133138958Y-115344061D01*
X133138958Y-115344061D02*
X133253243Y-115372632D01*
X133253243Y-115372632D02*
X133310386Y-115401204D01*
X133310386Y-115401204D02*
X133338958Y-115429775D01*
X133338958Y-115429775D02*
X133367529Y-115486918D01*
X133367529Y-115486918D02*
X133367529Y-115544061D01*
X133367529Y-115544061D02*
X133338958Y-115601204D01*
X133338958Y-115601204D02*
X133310386Y-115629775D01*
X133310386Y-115629775D02*
X133253243Y-115658346D01*
X133253243Y-115658346D02*
X133138958Y-115686918D01*
X133138958Y-115686918D02*
X132996100Y-115686918D01*
X132996100Y-115686918D02*
X132881815Y-115658346D01*
X132881815Y-115658346D02*
X132824672Y-115629775D01*
X132824672Y-115629775D02*
X132796100Y-115601204D01*
X132796100Y-115601204D02*
X132767529Y-115544061D01*
X145290479Y-109571066D02*
X145261907Y-109599638D01*
X145261907Y-109599638D02*
X145176193Y-109628209D01*
X145176193Y-109628209D02*
X145119050Y-109628209D01*
X145119050Y-109628209D02*
X145033336Y-109599638D01*
X145033336Y-109599638D02*
X144976193Y-109542495D01*
X144976193Y-109542495D02*
X144947622Y-109485352D01*
X144947622Y-109485352D02*
X144919050Y-109371066D01*
X144919050Y-109371066D02*
X144919050Y-109285352D01*
X144919050Y-109285352D02*
X144947622Y-109171066D01*
X144947622Y-109171066D02*
X144976193Y-109113923D01*
X144976193Y-109113923D02*
X145033336Y-109056780D01*
X145033336Y-109056780D02*
X145119050Y-109028209D01*
X145119050Y-109028209D02*
X145176193Y-109028209D01*
X145176193Y-109028209D02*
X145261907Y-109056780D01*
X145261907Y-109056780D02*
X145290479Y-109085352D01*
X145861907Y-109628209D02*
X145519050Y-109628209D01*
X145690479Y-109628209D02*
X145690479Y-109028209D01*
X145690479Y-109028209D02*
X145633336Y-109113923D01*
X145633336Y-109113923D02*
X145576193Y-109171066D01*
X145576193Y-109171066D02*
X145519050Y-109199638D01*
X146090479Y-109085352D02*
X146119051Y-109056780D01*
X146119051Y-109056780D02*
X146176194Y-109028209D01*
X146176194Y-109028209D02*
X146319051Y-109028209D01*
X146319051Y-109028209D02*
X146376194Y-109056780D01*
X146376194Y-109056780D02*
X146404765Y-109085352D01*
X146404765Y-109085352D02*
X146433336Y-109142495D01*
X146433336Y-109142495D02*
X146433336Y-109199638D01*
X146433336Y-109199638D02*
X146404765Y-109285352D01*
X146404765Y-109285352D02*
X146061908Y-109628209D01*
X146061908Y-109628209D02*
X146433336Y-109628209D01*
X143607042Y-107444031D02*
X143321328Y-107444031D01*
X143321328Y-107444031D02*
X143321328Y-106844031D01*
X144121327Y-107444031D02*
X143778470Y-107444031D01*
X143949899Y-107444031D02*
X143949899Y-106844031D01*
X143949899Y-106844031D02*
X143892756Y-106929745D01*
X143892756Y-106929745D02*
X143835613Y-106986888D01*
X143835613Y-106986888D02*
X143778470Y-107015460D01*
X149437024Y-105072554D02*
X149237024Y-104786840D01*
X149094167Y-105072554D02*
X149094167Y-104472554D01*
X149094167Y-104472554D02*
X149322738Y-104472554D01*
X149322738Y-104472554D02*
X149379881Y-104501125D01*
X149379881Y-104501125D02*
X149408452Y-104529697D01*
X149408452Y-104529697D02*
X149437024Y-104586840D01*
X149437024Y-104586840D02*
X149437024Y-104672554D01*
X149437024Y-104672554D02*
X149408452Y-104729697D01*
X149408452Y-104729697D02*
X149379881Y-104758268D01*
X149379881Y-104758268D02*
X149322738Y-104786840D01*
X149322738Y-104786840D02*
X149094167Y-104786840D01*
X150008452Y-105072554D02*
X149665595Y-105072554D01*
X149837024Y-105072554D02*
X149837024Y-104472554D01*
X149837024Y-104472554D02*
X149779881Y-104558268D01*
X149779881Y-104558268D02*
X149722738Y-104615411D01*
X149722738Y-104615411D02*
X149665595Y-104643983D01*
X144939195Y-110638189D02*
X144653481Y-110638189D01*
X144653481Y-110638189D02*
X144653481Y-110038189D01*
X145110623Y-110095332D02*
X145139195Y-110066760D01*
X145139195Y-110066760D02*
X145196338Y-110038189D01*
X145196338Y-110038189D02*
X145339195Y-110038189D01*
X145339195Y-110038189D02*
X145396338Y-110066760D01*
X145396338Y-110066760D02*
X145424909Y-110095332D01*
X145424909Y-110095332D02*
X145453480Y-110152475D01*
X145453480Y-110152475D02*
X145453480Y-110209618D01*
X145453480Y-110209618D02*
X145424909Y-110295332D01*
X145424909Y-110295332D02*
X145082052Y-110638189D01*
X145082052Y-110638189D02*
X145453480Y-110638189D01*
X140232754Y-106558637D02*
X140261326Y-106587209D01*
X140261326Y-106587209D02*
X140289897Y-106672923D01*
X140289897Y-106672923D02*
X140289897Y-106730066D01*
X140289897Y-106730066D02*
X140261326Y-106815780D01*
X140261326Y-106815780D02*
X140204183Y-106872923D01*
X140204183Y-106872923D02*
X140147040Y-106901494D01*
X140147040Y-106901494D02*
X140032754Y-106930066D01*
X140032754Y-106930066D02*
X139947040Y-106930066D01*
X139947040Y-106930066D02*
X139832754Y-106901494D01*
X139832754Y-106901494D02*
X139775611Y-106872923D01*
X139775611Y-106872923D02*
X139718468Y-106815780D01*
X139718468Y-106815780D02*
X139689897Y-106730066D01*
X139689897Y-106730066D02*
X139689897Y-106672923D01*
X139689897Y-106672923D02*
X139718468Y-106587209D01*
X139718468Y-106587209D02*
X139747040Y-106558637D01*
X140289897Y-105987209D02*
X140289897Y-106330066D01*
X140289897Y-106158637D02*
X139689897Y-106158637D01*
X139689897Y-106158637D02*
X139775611Y-106215780D01*
X139775611Y-106215780D02*
X139832754Y-106272923D01*
X139832754Y-106272923D02*
X139861326Y-106330066D01*
X140289897Y-105415780D02*
X140289897Y-105758637D01*
X140289897Y-105587208D02*
X139689897Y-105587208D01*
X139689897Y-105587208D02*
X139775611Y-105644351D01*
X139775611Y-105644351D02*
X139832754Y-105701494D01*
X139832754Y-105701494D02*
X139861326Y-105758637D01*
X138608736Y-115136850D02*
X138608736Y-115743993D01*
X138608736Y-115743993D02*
X138644450Y-115815421D01*
X138644450Y-115815421D02*
X138680165Y-115851136D01*
X138680165Y-115851136D02*
X138751593Y-115886850D01*
X138751593Y-115886850D02*
X138894450Y-115886850D01*
X138894450Y-115886850D02*
X138965879Y-115851136D01*
X138965879Y-115851136D02*
X139001593Y-115815421D01*
X139001593Y-115815421D02*
X139037307Y-115743993D01*
X139037307Y-115743993D02*
X139037307Y-115136850D01*
X139787307Y-115886850D02*
X139358736Y-115886850D01*
X139573021Y-115886850D02*
X139573021Y-115136850D01*
X139573021Y-115136850D02*
X139501593Y-115243993D01*
X139501593Y-115243993D02*
X139430164Y-115315421D01*
X139430164Y-115315421D02*
X139358736Y-115351136D01*
X136969834Y-108090122D02*
X136684120Y-108290122D01*
X136969834Y-108432979D02*
X136369834Y-108432979D01*
X136369834Y-108432979D02*
X136369834Y-108204408D01*
X136369834Y-108204408D02*
X136398405Y-108147265D01*
X136398405Y-108147265D02*
X136426977Y-108118694D01*
X136426977Y-108118694D02*
X136484120Y-108090122D01*
X136484120Y-108090122D02*
X136569834Y-108090122D01*
X136569834Y-108090122D02*
X136626977Y-108118694D01*
X136626977Y-108118694D02*
X136655548Y-108147265D01*
X136655548Y-108147265D02*
X136684120Y-108204408D01*
X136684120Y-108204408D02*
X136684120Y-108432979D01*
X136969834Y-107804408D02*
X136969834Y-107690122D01*
X136969834Y-107690122D02*
X136941263Y-107632979D01*
X136941263Y-107632979D02*
X136912691Y-107604408D01*
X136912691Y-107604408D02*
X136826977Y-107547265D01*
X136826977Y-107547265D02*
X136712691Y-107518694D01*
X136712691Y-107518694D02*
X136484120Y-107518694D01*
X136484120Y-107518694D02*
X136426977Y-107547265D01*
X136426977Y-107547265D02*
X136398405Y-107575837D01*
X136398405Y-107575837D02*
X136369834Y-107632979D01*
X136369834Y-107632979D02*
X136369834Y-107747265D01*
X136369834Y-107747265D02*
X136398405Y-107804408D01*
X136398405Y-107804408D02*
X136426977Y-107832979D01*
X136426977Y-107832979D02*
X136484120Y-107861551D01*
X136484120Y-107861551D02*
X136626977Y-107861551D01*
X136626977Y-107861551D02*
X136684120Y-107832979D01*
X136684120Y-107832979D02*
X136712691Y-107804408D01*
X136712691Y-107804408D02*
X136741263Y-107747265D01*
X136741263Y-107747265D02*
X136741263Y-107632979D01*
X136741263Y-107632979D02*
X136712691Y-107575837D01*
X136712691Y-107575837D02*
X136684120Y-107547265D01*
X136684120Y-107547265D02*
X136626977Y-107518694D01*
X132769766Y-109415144D02*
X132569766Y-109129430D01*
X132426909Y-109415144D02*
X132426909Y-108815144D01*
X132426909Y-108815144D02*
X132655480Y-108815144D01*
X132655480Y-108815144D02*
X132712623Y-108843715D01*
X132712623Y-108843715D02*
X132741194Y-108872287D01*
X132741194Y-108872287D02*
X132769766Y-108929430D01*
X132769766Y-108929430D02*
X132769766Y-109015144D01*
X132769766Y-109015144D02*
X132741194Y-109072287D01*
X132741194Y-109072287D02*
X132712623Y-109100858D01*
X132712623Y-109100858D02*
X132655480Y-109129430D01*
X132655480Y-109129430D02*
X132426909Y-109129430D01*
X133341194Y-109415144D02*
X132998337Y-109415144D01*
X133169766Y-109415144D02*
X133169766Y-108815144D01*
X133169766Y-108815144D02*
X133112623Y-108900858D01*
X133112623Y-108900858D02*
X133055480Y-108958001D01*
X133055480Y-108958001D02*
X132998337Y-108986573D01*
X133712623Y-108815144D02*
X133769766Y-108815144D01*
X133769766Y-108815144D02*
X133826909Y-108843715D01*
X133826909Y-108843715D02*
X133855481Y-108872287D01*
X133855481Y-108872287D02*
X133884052Y-108929430D01*
X133884052Y-108929430D02*
X133912623Y-109043715D01*
X133912623Y-109043715D02*
X133912623Y-109186573D01*
X133912623Y-109186573D02*
X133884052Y-109300858D01*
X133884052Y-109300858D02*
X133855481Y-109358001D01*
X133855481Y-109358001D02*
X133826909Y-109386573D01*
X133826909Y-109386573D02*
X133769766Y-109415144D01*
X133769766Y-109415144D02*
X133712623Y-109415144D01*
X133712623Y-109415144D02*
X133655481Y-109386573D01*
X133655481Y-109386573D02*
X133626909Y-109358001D01*
X133626909Y-109358001D02*
X133598338Y-109300858D01*
X133598338Y-109300858D02*
X133569766Y-109186573D01*
X133569766Y-109186573D02*
X133569766Y-109043715D01*
X133569766Y-109043715D02*
X133598338Y-108929430D01*
X133598338Y-108929430D02*
X133626909Y-108872287D01*
X133626909Y-108872287D02*
X133655481Y-108843715D01*
X133655481Y-108843715D02*
X133712623Y-108815144D01*
X135334162Y-100163190D02*
X135362734Y-100191762D01*
X135362734Y-100191762D02*
X135391305Y-100277476D01*
X135391305Y-100277476D02*
X135391305Y-100334619D01*
X135391305Y-100334619D02*
X135362734Y-100420333D01*
X135362734Y-100420333D02*
X135305591Y-100477476D01*
X135305591Y-100477476D02*
X135248448Y-100506047D01*
X135248448Y-100506047D02*
X135134162Y-100534619D01*
X135134162Y-100534619D02*
X135048448Y-100534619D01*
X135048448Y-100534619D02*
X134934162Y-100506047D01*
X134934162Y-100506047D02*
X134877019Y-100477476D01*
X134877019Y-100477476D02*
X134819876Y-100420333D01*
X134819876Y-100420333D02*
X134791305Y-100334619D01*
X134791305Y-100334619D02*
X134791305Y-100277476D01*
X134791305Y-100277476D02*
X134819876Y-100191762D01*
X134819876Y-100191762D02*
X134848448Y-100163190D01*
X134791305Y-99963190D02*
X134791305Y-99591762D01*
X134791305Y-99591762D02*
X135019876Y-99791762D01*
X135019876Y-99791762D02*
X135019876Y-99706047D01*
X135019876Y-99706047D02*
X135048448Y-99648905D01*
X135048448Y-99648905D02*
X135077019Y-99620333D01*
X135077019Y-99620333D02*
X135134162Y-99591762D01*
X135134162Y-99591762D02*
X135277019Y-99591762D01*
X135277019Y-99591762D02*
X135334162Y-99620333D01*
X135334162Y-99620333D02*
X135362734Y-99648905D01*
X135362734Y-99648905D02*
X135391305Y-99706047D01*
X135391305Y-99706047D02*
X135391305Y-99877476D01*
X135391305Y-99877476D02*
X135362734Y-99934619D01*
X135362734Y-99934619D02*
X135334162Y-99963190D01*
X134791305Y-99077476D02*
X134791305Y-99191761D01*
X134791305Y-99191761D02*
X134819876Y-99248904D01*
X134819876Y-99248904D02*
X134848448Y-99277476D01*
X134848448Y-99277476D02*
X134934162Y-99334618D01*
X134934162Y-99334618D02*
X135048448Y-99363190D01*
X135048448Y-99363190D02*
X135277019Y-99363190D01*
X135277019Y-99363190D02*
X135334162Y-99334618D01*
X135334162Y-99334618D02*
X135362734Y-99306047D01*
X135362734Y-99306047D02*
X135391305Y-99248904D01*
X135391305Y-99248904D02*
X135391305Y-99134618D01*
X135391305Y-99134618D02*
X135362734Y-99077476D01*
X135362734Y-99077476D02*
X135334162Y-99048904D01*
X135334162Y-99048904D02*
X135277019Y-99020333D01*
X135277019Y-99020333D02*
X135134162Y-99020333D01*
X135134162Y-99020333D02*
X135077019Y-99048904D01*
X135077019Y-99048904D02*
X135048448Y-99077476D01*
X135048448Y-99077476D02*
X135019876Y-99134618D01*
X135019876Y-99134618D02*
X135019876Y-99248904D01*
X135019876Y-99248904D02*
X135048448Y-99306047D01*
X135048448Y-99306047D02*
X135077019Y-99334618D01*
X135077019Y-99334618D02*
X135134162Y-99363190D01*
X150776240Y-106736525D02*
X151383383Y-106736525D01*
X151383383Y-106736525D02*
X151454811Y-106700811D01*
X151454811Y-106700811D02*
X151490526Y-106665097D01*
X151490526Y-106665097D02*
X151526240Y-106593668D01*
X151526240Y-106593668D02*
X151526240Y-106450811D01*
X151526240Y-106450811D02*
X151490526Y-106379382D01*
X151490526Y-106379382D02*
X151454811Y-106343668D01*
X151454811Y-106343668D02*
X151383383Y-106307954D01*
X151383383Y-106307954D02*
X150776240Y-106307954D01*
X151026240Y-105629383D02*
X151526240Y-105629383D01*
X150740526Y-105807954D02*
X151276240Y-105986525D01*
X151276240Y-105986525D02*
X151276240Y-105522240D01*
X136116038Y-100150372D02*
X135830324Y-100350372D01*
X136116038Y-100493229D02*
X135516038Y-100493229D01*
X135516038Y-100493229D02*
X135516038Y-100264658D01*
X135516038Y-100264658D02*
X135544609Y-100207515D01*
X135544609Y-100207515D02*
X135573181Y-100178944D01*
X135573181Y-100178944D02*
X135630324Y-100150372D01*
X135630324Y-100150372D02*
X135716038Y-100150372D01*
X135716038Y-100150372D02*
X135773181Y-100178944D01*
X135773181Y-100178944D02*
X135801752Y-100207515D01*
X135801752Y-100207515D02*
X135830324Y-100264658D01*
X135830324Y-100264658D02*
X135830324Y-100493229D01*
X136116038Y-99578944D02*
X136116038Y-99921801D01*
X136116038Y-99750372D02*
X135516038Y-99750372D01*
X135516038Y-99750372D02*
X135601752Y-99807515D01*
X135601752Y-99807515D02*
X135658895Y-99864658D01*
X135658895Y-99864658D02*
X135687467Y-99921801D01*
X135773181Y-99236086D02*
X135744609Y-99293229D01*
X135744609Y-99293229D02*
X135716038Y-99321800D01*
X135716038Y-99321800D02*
X135658895Y-99350372D01*
X135658895Y-99350372D02*
X135630324Y-99350372D01*
X135630324Y-99350372D02*
X135573181Y-99321800D01*
X135573181Y-99321800D02*
X135544609Y-99293229D01*
X135544609Y-99293229D02*
X135516038Y-99236086D01*
X135516038Y-99236086D02*
X135516038Y-99121800D01*
X135516038Y-99121800D02*
X135544609Y-99064658D01*
X135544609Y-99064658D02*
X135573181Y-99036086D01*
X135573181Y-99036086D02*
X135630324Y-99007515D01*
X135630324Y-99007515D02*
X135658895Y-99007515D01*
X135658895Y-99007515D02*
X135716038Y-99036086D01*
X135716038Y-99036086D02*
X135744609Y-99064658D01*
X135744609Y-99064658D02*
X135773181Y-99121800D01*
X135773181Y-99121800D02*
X135773181Y-99236086D01*
X135773181Y-99236086D02*
X135801752Y-99293229D01*
X135801752Y-99293229D02*
X135830324Y-99321800D01*
X135830324Y-99321800D02*
X135887467Y-99350372D01*
X135887467Y-99350372D02*
X136001752Y-99350372D01*
X136001752Y-99350372D02*
X136058895Y-99321800D01*
X136058895Y-99321800D02*
X136087467Y-99293229D01*
X136087467Y-99293229D02*
X136116038Y-99236086D01*
X136116038Y-99236086D02*
X136116038Y-99121800D01*
X136116038Y-99121800D02*
X136087467Y-99064658D01*
X136087467Y-99064658D02*
X136058895Y-99036086D01*
X136058895Y-99036086D02*
X136001752Y-99007515D01*
X136001752Y-99007515D02*
X135887467Y-99007515D01*
X135887467Y-99007515D02*
X135830324Y-99036086D01*
X135830324Y-99036086D02*
X135801752Y-99064658D01*
X135801752Y-99064658D02*
X135773181Y-99121800D01*
X146553884Y-111969419D02*
X146553884Y-112778942D01*
X146553884Y-112778942D02*
X146601503Y-112874180D01*
X146601503Y-112874180D02*
X146649122Y-112921800D01*
X146649122Y-112921800D02*
X146744360Y-112969419D01*
X146744360Y-112969419D02*
X146934836Y-112969419D01*
X146934836Y-112969419D02*
X147030074Y-112921800D01*
X147030074Y-112921800D02*
X147077693Y-112874180D01*
X147077693Y-112874180D02*
X147125312Y-112778942D01*
X147125312Y-112778942D02*
X147125312Y-111969419D01*
X148077693Y-111969419D02*
X147601503Y-111969419D01*
X147601503Y-111969419D02*
X147553884Y-112445609D01*
X147553884Y-112445609D02*
X147601503Y-112397990D01*
X147601503Y-112397990D02*
X147696741Y-112350371D01*
X147696741Y-112350371D02*
X147934836Y-112350371D01*
X147934836Y-112350371D02*
X148030074Y-112397990D01*
X148030074Y-112397990D02*
X148077693Y-112445609D01*
X148077693Y-112445609D02*
X148125312Y-112540847D01*
X148125312Y-112540847D02*
X148125312Y-112778942D01*
X148125312Y-112778942D02*
X148077693Y-112874180D01*
X148077693Y-112874180D02*
X148030074Y-112921800D01*
X148030074Y-112921800D02*
X147934836Y-112969419D01*
X147934836Y-112969419D02*
X147696741Y-112969419D01*
X147696741Y-112969419D02*
X147601503Y-112921800D01*
X147601503Y-112921800D02*
X147553884Y-112874180D01*
X132745866Y-108781693D02*
X132545866Y-108495979D01*
X132403009Y-108781693D02*
X132403009Y-108181693D01*
X132403009Y-108181693D02*
X132631580Y-108181693D01*
X132631580Y-108181693D02*
X132688723Y-108210264D01*
X132688723Y-108210264D02*
X132717294Y-108238836D01*
X132717294Y-108238836D02*
X132745866Y-108295979D01*
X132745866Y-108295979D02*
X132745866Y-108381693D01*
X132745866Y-108381693D02*
X132717294Y-108438836D01*
X132717294Y-108438836D02*
X132688723Y-108467407D01*
X132688723Y-108467407D02*
X132631580Y-108495979D01*
X132631580Y-108495979D02*
X132403009Y-108495979D01*
X133317294Y-108781693D02*
X132974437Y-108781693D01*
X133145866Y-108781693D02*
X133145866Y-108181693D01*
X133145866Y-108181693D02*
X133088723Y-108267407D01*
X133088723Y-108267407D02*
X133031580Y-108324550D01*
X133031580Y-108324550D02*
X132974437Y-108353122D01*
X133860152Y-108181693D02*
X133574438Y-108181693D01*
X133574438Y-108181693D02*
X133545866Y-108467407D01*
X133545866Y-108467407D02*
X133574438Y-108438836D01*
X133574438Y-108438836D02*
X133631581Y-108410264D01*
X133631581Y-108410264D02*
X133774438Y-108410264D01*
X133774438Y-108410264D02*
X133831581Y-108438836D01*
X133831581Y-108438836D02*
X133860152Y-108467407D01*
X133860152Y-108467407D02*
X133888723Y-108524550D01*
X133888723Y-108524550D02*
X133888723Y-108667407D01*
X133888723Y-108667407D02*
X133860152Y-108724550D01*
X133860152Y-108724550D02*
X133831581Y-108753122D01*
X133831581Y-108753122D02*
X133774438Y-108781693D01*
X133774438Y-108781693D02*
X133631581Y-108781693D01*
X133631581Y-108781693D02*
X133574438Y-108753122D01*
X133574438Y-108753122D02*
X133545866Y-108724550D01*
X136797235Y-113945566D02*
X137297235Y-113612233D01*
X136797235Y-113612233D02*
X137297235Y-113945566D01*
X136797235Y-113493185D02*
X136797235Y-113207471D01*
X137297235Y-113350328D02*
X136797235Y-113350328D01*
X137154378Y-113064614D02*
X137154378Y-112826519D01*
X137297235Y-113112233D02*
X136797235Y-112945567D01*
X136797235Y-112945567D02*
X137297235Y-112778900D01*
X137297235Y-112374139D02*
X137297235Y-112612234D01*
X137297235Y-112612234D02*
X136797235Y-112612234D01*
X137297235Y-111945567D02*
X137297235Y-112231281D01*
X137297235Y-112088424D02*
X136797235Y-112088424D01*
X136797235Y-112088424D02*
X136868664Y-112136043D01*
X136868664Y-112136043D02*
X136916283Y-112183662D01*
X136916283Y-112183662D02*
X136940092Y-112231281D01*
X139846741Y-117868471D02*
X139818169Y-117897043D01*
X139818169Y-117897043D02*
X139732455Y-117925614D01*
X139732455Y-117925614D02*
X139675312Y-117925614D01*
X139675312Y-117925614D02*
X139589598Y-117897043D01*
X139589598Y-117897043D02*
X139532455Y-117839900D01*
X139532455Y-117839900D02*
X139503884Y-117782757D01*
X139503884Y-117782757D02*
X139475312Y-117668471D01*
X139475312Y-117668471D02*
X139475312Y-117582757D01*
X139475312Y-117582757D02*
X139503884Y-117468471D01*
X139503884Y-117468471D02*
X139532455Y-117411328D01*
X139532455Y-117411328D02*
X139589598Y-117354185D01*
X139589598Y-117354185D02*
X139675312Y-117325614D01*
X139675312Y-117325614D02*
X139732455Y-117325614D01*
X139732455Y-117325614D02*
X139818169Y-117354185D01*
X139818169Y-117354185D02*
X139846741Y-117382757D01*
X140046741Y-117325614D02*
X140418169Y-117325614D01*
X140418169Y-117325614D02*
X140218169Y-117554185D01*
X140218169Y-117554185D02*
X140303884Y-117554185D01*
X140303884Y-117554185D02*
X140361027Y-117582757D01*
X140361027Y-117582757D02*
X140389598Y-117611328D01*
X140389598Y-117611328D02*
X140418169Y-117668471D01*
X140418169Y-117668471D02*
X140418169Y-117811328D01*
X140418169Y-117811328D02*
X140389598Y-117868471D01*
X140389598Y-117868471D02*
X140361027Y-117897043D01*
X140361027Y-117897043D02*
X140303884Y-117925614D01*
X140303884Y-117925614D02*
X140132455Y-117925614D01*
X140132455Y-117925614D02*
X140075312Y-117897043D01*
X140075312Y-117897043D02*
X140046741Y-117868471D01*
X135666171Y-99141713D02*
X135666171Y-99546475D01*
X135666171Y-99546475D02*
X135689981Y-99594094D01*
X135689981Y-99594094D02*
X135713790Y-99617904D01*
X135713790Y-99617904D02*
X135761409Y-99641713D01*
X135761409Y-99641713D02*
X135856647Y-99641713D01*
X135856647Y-99641713D02*
X135904266Y-99617904D01*
X135904266Y-99617904D02*
X135928076Y-99594094D01*
X135928076Y-99594094D02*
X135951885Y-99546475D01*
X135951885Y-99546475D02*
X135951885Y-99141713D01*
X136142362Y-99141713D02*
X136475695Y-99141713D01*
X136475695Y-99141713D02*
X136261410Y-99641713D01*
X142772556Y-110054104D02*
X142801128Y-110082676D01*
X142801128Y-110082676D02*
X142829699Y-110168390D01*
X142829699Y-110168390D02*
X142829699Y-110225533D01*
X142829699Y-110225533D02*
X142801128Y-110311247D01*
X142801128Y-110311247D02*
X142743985Y-110368390D01*
X142743985Y-110368390D02*
X142686842Y-110396961D01*
X142686842Y-110396961D02*
X142572556Y-110425533D01*
X142572556Y-110425533D02*
X142486842Y-110425533D01*
X142486842Y-110425533D02*
X142372556Y-110396961D01*
X142372556Y-110396961D02*
X142315413Y-110368390D01*
X142315413Y-110368390D02*
X142258270Y-110311247D01*
X142258270Y-110311247D02*
X142229699Y-110225533D01*
X142229699Y-110225533D02*
X142229699Y-110168390D01*
X142229699Y-110168390D02*
X142258270Y-110082676D01*
X142258270Y-110082676D02*
X142286842Y-110054104D01*
X142286842Y-109825533D02*
X142258270Y-109796961D01*
X142258270Y-109796961D02*
X142229699Y-109739819D01*
X142229699Y-109739819D02*
X142229699Y-109596961D01*
X142229699Y-109596961D02*
X142258270Y-109539819D01*
X142258270Y-109539819D02*
X142286842Y-109511247D01*
X142286842Y-109511247D02*
X142343985Y-109482676D01*
X142343985Y-109482676D02*
X142401128Y-109482676D01*
X142401128Y-109482676D02*
X142486842Y-109511247D01*
X142486842Y-109511247D02*
X142829699Y-109854104D01*
X142829699Y-109854104D02*
X142829699Y-109482676D01*
X132736037Y-108221904D02*
X132536037Y-107936190D01*
X132393180Y-108221904D02*
X132393180Y-107621904D01*
X132393180Y-107621904D02*
X132621751Y-107621904D01*
X132621751Y-107621904D02*
X132678894Y-107650475D01*
X132678894Y-107650475D02*
X132707465Y-107679047D01*
X132707465Y-107679047D02*
X132736037Y-107736190D01*
X132736037Y-107736190D02*
X132736037Y-107821904D01*
X132736037Y-107821904D02*
X132707465Y-107879047D01*
X132707465Y-107879047D02*
X132678894Y-107907618D01*
X132678894Y-107907618D02*
X132621751Y-107936190D01*
X132621751Y-107936190D02*
X132393180Y-107936190D01*
X133307465Y-108221904D02*
X132964608Y-108221904D01*
X133136037Y-108221904D02*
X133136037Y-107621904D01*
X133136037Y-107621904D02*
X133078894Y-107707618D01*
X133078894Y-107707618D02*
X133021751Y-107764761D01*
X133021751Y-107764761D02*
X132964608Y-107793333D01*
X133821752Y-107821904D02*
X133821752Y-108221904D01*
X133678894Y-107593333D02*
X133536037Y-108021904D01*
X133536037Y-108021904D02*
X133907466Y-108021904D01*
X143120840Y-107461450D02*
X143149412Y-107490022D01*
X143149412Y-107490022D02*
X143177983Y-107575736D01*
X143177983Y-107575736D02*
X143177983Y-107632879D01*
X143177983Y-107632879D02*
X143149412Y-107718593D01*
X143149412Y-107718593D02*
X143092269Y-107775736D01*
X143092269Y-107775736D02*
X143035126Y-107804307D01*
X143035126Y-107804307D02*
X142920840Y-107832879D01*
X142920840Y-107832879D02*
X142835126Y-107832879D01*
X142835126Y-107832879D02*
X142720840Y-107804307D01*
X142720840Y-107804307D02*
X142663697Y-107775736D01*
X142663697Y-107775736D02*
X142606554Y-107718593D01*
X142606554Y-107718593D02*
X142577983Y-107632879D01*
X142577983Y-107632879D02*
X142577983Y-107575736D01*
X142577983Y-107575736D02*
X142606554Y-107490022D01*
X142606554Y-107490022D02*
X142635126Y-107461450D01*
X143177983Y-106890022D02*
X143177983Y-107232879D01*
X143177983Y-107061450D02*
X142577983Y-107061450D01*
X142577983Y-107061450D02*
X142663697Y-107118593D01*
X142663697Y-107118593D02*
X142720840Y-107175736D01*
X142720840Y-107175736D02*
X142749412Y-107232879D01*
X149152029Y-105645978D02*
X148952029Y-105360264D01*
X148809172Y-105645978D02*
X148809172Y-105045978D01*
X148809172Y-105045978D02*
X149037743Y-105045978D01*
X149037743Y-105045978D02*
X149094886Y-105074549D01*
X149094886Y-105074549D02*
X149123457Y-105103121D01*
X149123457Y-105103121D02*
X149152029Y-105160264D01*
X149152029Y-105160264D02*
X149152029Y-105245978D01*
X149152029Y-105245978D02*
X149123457Y-105303121D01*
X149123457Y-105303121D02*
X149094886Y-105331692D01*
X149094886Y-105331692D02*
X149037743Y-105360264D01*
X149037743Y-105360264D02*
X148809172Y-105360264D01*
X149723457Y-105645978D02*
X149380600Y-105645978D01*
X149552029Y-105645978D02*
X149552029Y-105045978D01*
X149552029Y-105045978D02*
X149494886Y-105131692D01*
X149494886Y-105131692D02*
X149437743Y-105188835D01*
X149437743Y-105188835D02*
X149380600Y-105217407D01*
X149923458Y-105045978D02*
X150294886Y-105045978D01*
X150294886Y-105045978D02*
X150094886Y-105274549D01*
X150094886Y-105274549D02*
X150180601Y-105274549D01*
X150180601Y-105274549D02*
X150237744Y-105303121D01*
X150237744Y-105303121D02*
X150266315Y-105331692D01*
X150266315Y-105331692D02*
X150294886Y-105388835D01*
X150294886Y-105388835D02*
X150294886Y-105531692D01*
X150294886Y-105531692D02*
X150266315Y-105588835D01*
X150266315Y-105588835D02*
X150237744Y-105617407D01*
X150237744Y-105617407D02*
X150180601Y-105645978D01*
X150180601Y-105645978D02*
X150009172Y-105645978D01*
X150009172Y-105645978D02*
X149952029Y-105617407D01*
X149952029Y-105617407D02*
X149923458Y-105588835D01*
X149151525Y-104446480D02*
X149122953Y-104475052D01*
X149122953Y-104475052D02*
X149037239Y-104503623D01*
X149037239Y-104503623D02*
X148980096Y-104503623D01*
X148980096Y-104503623D02*
X148894382Y-104475052D01*
X148894382Y-104475052D02*
X148837239Y-104417909D01*
X148837239Y-104417909D02*
X148808668Y-104360766D01*
X148808668Y-104360766D02*
X148780096Y-104246480D01*
X148780096Y-104246480D02*
X148780096Y-104160766D01*
X148780096Y-104160766D02*
X148808668Y-104046480D01*
X148808668Y-104046480D02*
X148837239Y-103989337D01*
X148837239Y-103989337D02*
X148894382Y-103932194D01*
X148894382Y-103932194D02*
X148980096Y-103903623D01*
X148980096Y-103903623D02*
X149037239Y-103903623D01*
X149037239Y-103903623D02*
X149122953Y-103932194D01*
X149122953Y-103932194D02*
X149151525Y-103960766D01*
X149722953Y-104503623D02*
X149380096Y-104503623D01*
X149551525Y-104503623D02*
X149551525Y-103903623D01*
X149551525Y-103903623D02*
X149494382Y-103989337D01*
X149494382Y-103989337D02*
X149437239Y-104046480D01*
X149437239Y-104046480D02*
X149380096Y-104075052D01*
X149922954Y-103903623D02*
X150294382Y-103903623D01*
X150294382Y-103903623D02*
X150094382Y-104132194D01*
X150094382Y-104132194D02*
X150180097Y-104132194D01*
X150180097Y-104132194D02*
X150237240Y-104160766D01*
X150237240Y-104160766D02*
X150265811Y-104189337D01*
X150265811Y-104189337D02*
X150294382Y-104246480D01*
X150294382Y-104246480D02*
X150294382Y-104389337D01*
X150294382Y-104389337D02*
X150265811Y-104446480D01*
X150265811Y-104446480D02*
X150237240Y-104475052D01*
X150237240Y-104475052D02*
X150180097Y-104503623D01*
X150180097Y-104503623D02*
X150008668Y-104503623D01*
X150008668Y-104503623D02*
X149951525Y-104475052D01*
X149951525Y-104475052D02*
X149922954Y-104446480D01*
X141675155Y-102629197D02*
X141475155Y-102343483D01*
X141332298Y-102629197D02*
X141332298Y-102029197D01*
X141332298Y-102029197D02*
X141560869Y-102029197D01*
X141560869Y-102029197D02*
X141618012Y-102057768D01*
X141618012Y-102057768D02*
X141646583Y-102086340D01*
X141646583Y-102086340D02*
X141675155Y-102143483D01*
X141675155Y-102143483D02*
X141675155Y-102229197D01*
X141675155Y-102229197D02*
X141646583Y-102286340D01*
X141646583Y-102286340D02*
X141618012Y-102314911D01*
X141618012Y-102314911D02*
X141560869Y-102343483D01*
X141560869Y-102343483D02*
X141332298Y-102343483D01*
X141875155Y-102029197D02*
X142275155Y-102029197D01*
X142275155Y-102029197D02*
X142018012Y-102629197D01*
X141602538Y-104280528D02*
X141402538Y-103994814D01*
X141259681Y-104280528D02*
X141259681Y-103680528D01*
X141259681Y-103680528D02*
X141488252Y-103680528D01*
X141488252Y-103680528D02*
X141545395Y-103709099D01*
X141545395Y-103709099D02*
X141573966Y-103737671D01*
X141573966Y-103737671D02*
X141602538Y-103794814D01*
X141602538Y-103794814D02*
X141602538Y-103880528D01*
X141602538Y-103880528D02*
X141573966Y-103937671D01*
X141573966Y-103937671D02*
X141545395Y-103966242D01*
X141545395Y-103966242D02*
X141488252Y-103994814D01*
X141488252Y-103994814D02*
X141259681Y-103994814D01*
X142145395Y-103680528D02*
X141859681Y-103680528D01*
X141859681Y-103680528D02*
X141831109Y-103966242D01*
X141831109Y-103966242D02*
X141859681Y-103937671D01*
X141859681Y-103937671D02*
X141916824Y-103909099D01*
X141916824Y-103909099D02*
X142059681Y-103909099D01*
X142059681Y-103909099D02*
X142116824Y-103937671D01*
X142116824Y-103937671D02*
X142145395Y-103966242D01*
X142145395Y-103966242D02*
X142173966Y-104023385D01*
X142173966Y-104023385D02*
X142173966Y-104166242D01*
X142173966Y-104166242D02*
X142145395Y-104223385D01*
X142145395Y-104223385D02*
X142116824Y-104251957D01*
X142116824Y-104251957D02*
X142059681Y-104280528D01*
X142059681Y-104280528D02*
X141916824Y-104280528D01*
X141916824Y-104280528D02*
X141859681Y-104251957D01*
X141859681Y-104251957D02*
X141831109Y-104223385D01*
X141698040Y-103742764D02*
X141498040Y-103457050D01*
X141355183Y-103742764D02*
X141355183Y-103142764D01*
X141355183Y-103142764D02*
X141583754Y-103142764D01*
X141583754Y-103142764D02*
X141640897Y-103171335D01*
X141640897Y-103171335D02*
X141669468Y-103199907D01*
X141669468Y-103199907D02*
X141698040Y-103257050D01*
X141698040Y-103257050D02*
X141698040Y-103342764D01*
X141698040Y-103342764D02*
X141669468Y-103399907D01*
X141669468Y-103399907D02*
X141640897Y-103428478D01*
X141640897Y-103428478D02*
X141583754Y-103457050D01*
X141583754Y-103457050D02*
X141355183Y-103457050D01*
X142212326Y-103142764D02*
X142098040Y-103142764D01*
X142098040Y-103142764D02*
X142040897Y-103171335D01*
X142040897Y-103171335D02*
X142012326Y-103199907D01*
X142012326Y-103199907D02*
X141955183Y-103285621D01*
X141955183Y-103285621D02*
X141926611Y-103399907D01*
X141926611Y-103399907D02*
X141926611Y-103628478D01*
X141926611Y-103628478D02*
X141955183Y-103685621D01*
X141955183Y-103685621D02*
X141983754Y-103714193D01*
X141983754Y-103714193D02*
X142040897Y-103742764D01*
X142040897Y-103742764D02*
X142155183Y-103742764D01*
X142155183Y-103742764D02*
X142212326Y-103714193D01*
X142212326Y-103714193D02*
X142240897Y-103685621D01*
X142240897Y-103685621D02*
X142269468Y-103628478D01*
X142269468Y-103628478D02*
X142269468Y-103485621D01*
X142269468Y-103485621D02*
X142240897Y-103428478D01*
X142240897Y-103428478D02*
X142212326Y-103399907D01*
X142212326Y-103399907D02*
X142155183Y-103371335D01*
X142155183Y-103371335D02*
X142040897Y-103371335D01*
X142040897Y-103371335D02*
X141983754Y-103399907D01*
X141983754Y-103399907D02*
X141955183Y-103428478D01*
X141955183Y-103428478D02*
X141926611Y-103485621D01*
X152177064Y-109088599D02*
X152148492Y-109117171D01*
X152148492Y-109117171D02*
X152062778Y-109145742D01*
X152062778Y-109145742D02*
X152005635Y-109145742D01*
X152005635Y-109145742D02*
X151919921Y-109117171D01*
X151919921Y-109117171D02*
X151862778Y-109060028D01*
X151862778Y-109060028D02*
X151834207Y-109002885D01*
X151834207Y-109002885D02*
X151805635Y-108888599D01*
X151805635Y-108888599D02*
X151805635Y-108802885D01*
X151805635Y-108802885D02*
X151834207Y-108688599D01*
X151834207Y-108688599D02*
X151862778Y-108631456D01*
X151862778Y-108631456D02*
X151919921Y-108574313D01*
X151919921Y-108574313D02*
X152005635Y-108545742D01*
X152005635Y-108545742D02*
X152062778Y-108545742D01*
X152062778Y-108545742D02*
X152148492Y-108574313D01*
X152148492Y-108574313D02*
X152177064Y-108602885D01*
X152377064Y-108545742D02*
X152748492Y-108545742D01*
X152748492Y-108545742D02*
X152548492Y-108774313D01*
X152548492Y-108774313D02*
X152634207Y-108774313D01*
X152634207Y-108774313D02*
X152691350Y-108802885D01*
X152691350Y-108802885D02*
X152719921Y-108831456D01*
X152719921Y-108831456D02*
X152748492Y-108888599D01*
X152748492Y-108888599D02*
X152748492Y-109031456D01*
X152748492Y-109031456D02*
X152719921Y-109088599D01*
X152719921Y-109088599D02*
X152691350Y-109117171D01*
X152691350Y-109117171D02*
X152634207Y-109145742D01*
X152634207Y-109145742D02*
X152462778Y-109145742D01*
X152462778Y-109145742D02*
X152405635Y-109117171D01*
X152405635Y-109117171D02*
X152377064Y-109088599D01*
X153091350Y-108802885D02*
X153034207Y-108774313D01*
X153034207Y-108774313D02*
X153005636Y-108745742D01*
X153005636Y-108745742D02*
X152977064Y-108688599D01*
X152977064Y-108688599D02*
X152977064Y-108660028D01*
X152977064Y-108660028D02*
X153005636Y-108602885D01*
X153005636Y-108602885D02*
X153034207Y-108574313D01*
X153034207Y-108574313D02*
X153091350Y-108545742D01*
X153091350Y-108545742D02*
X153205636Y-108545742D01*
X153205636Y-108545742D02*
X153262779Y-108574313D01*
X153262779Y-108574313D02*
X153291350Y-108602885D01*
X153291350Y-108602885D02*
X153319921Y-108660028D01*
X153319921Y-108660028D02*
X153319921Y-108688599D01*
X153319921Y-108688599D02*
X153291350Y-108745742D01*
X153291350Y-108745742D02*
X153262779Y-108774313D01*
X153262779Y-108774313D02*
X153205636Y-108802885D01*
X153205636Y-108802885D02*
X153091350Y-108802885D01*
X153091350Y-108802885D02*
X153034207Y-108831456D01*
X153034207Y-108831456D02*
X153005636Y-108860028D01*
X153005636Y-108860028D02*
X152977064Y-108917171D01*
X152977064Y-108917171D02*
X152977064Y-109031456D01*
X152977064Y-109031456D02*
X153005636Y-109088599D01*
X153005636Y-109088599D02*
X153034207Y-109117171D01*
X153034207Y-109117171D02*
X153091350Y-109145742D01*
X153091350Y-109145742D02*
X153205636Y-109145742D01*
X153205636Y-109145742D02*
X153262779Y-109117171D01*
X153262779Y-109117171D02*
X153291350Y-109088599D01*
X153291350Y-109088599D02*
X153319921Y-109031456D01*
X153319921Y-109031456D02*
X153319921Y-108917171D01*
X153319921Y-108917171D02*
X153291350Y-108860028D01*
X153291350Y-108860028D02*
X153262779Y-108831456D01*
X153262779Y-108831456D02*
X153205636Y-108802885D01*
X128886490Y-108158450D02*
X128857918Y-108187022D01*
X128857918Y-108187022D02*
X128772204Y-108215593D01*
X128772204Y-108215593D02*
X128715061Y-108215593D01*
X128715061Y-108215593D02*
X128629347Y-108187022D01*
X128629347Y-108187022D02*
X128572204Y-108129879D01*
X128572204Y-108129879D02*
X128543633Y-108072736D01*
X128543633Y-108072736D02*
X128515061Y-107958450D01*
X128515061Y-107958450D02*
X128515061Y-107872736D01*
X128515061Y-107872736D02*
X128543633Y-107758450D01*
X128543633Y-107758450D02*
X128572204Y-107701307D01*
X128572204Y-107701307D02*
X128629347Y-107644164D01*
X128629347Y-107644164D02*
X128715061Y-107615593D01*
X128715061Y-107615593D02*
X128772204Y-107615593D01*
X128772204Y-107615593D02*
X128857918Y-107644164D01*
X128857918Y-107644164D02*
X128886490Y-107672736D01*
X129400776Y-107815593D02*
X129400776Y-108215593D01*
X129257918Y-107587022D02*
X129115061Y-108015593D01*
X129115061Y-108015593D02*
X129486490Y-108015593D01*
X129657919Y-107615593D02*
X130029347Y-107615593D01*
X130029347Y-107615593D02*
X129829347Y-107844164D01*
X129829347Y-107844164D02*
X129915062Y-107844164D01*
X129915062Y-107844164D02*
X129972205Y-107872736D01*
X129972205Y-107872736D02*
X130000776Y-107901307D01*
X130000776Y-107901307D02*
X130029347Y-107958450D01*
X130029347Y-107958450D02*
X130029347Y-108101307D01*
X130029347Y-108101307D02*
X130000776Y-108158450D01*
X130000776Y-108158450D02*
X129972205Y-108187022D01*
X129972205Y-108187022D02*
X129915062Y-108215593D01*
X129915062Y-108215593D02*
X129743633Y-108215593D01*
X129743633Y-108215593D02*
X129686490Y-108187022D01*
X129686490Y-108187022D02*
X129657919Y-108158450D01*
X149977211Y-109630735D02*
X149948639Y-109659307D01*
X149948639Y-109659307D02*
X149862925Y-109687878D01*
X149862925Y-109687878D02*
X149805782Y-109687878D01*
X149805782Y-109687878D02*
X149720068Y-109659307D01*
X149720068Y-109659307D02*
X149662925Y-109602164D01*
X149662925Y-109602164D02*
X149634354Y-109545021D01*
X149634354Y-109545021D02*
X149605782Y-109430735D01*
X149605782Y-109430735D02*
X149605782Y-109345021D01*
X149605782Y-109345021D02*
X149634354Y-109230735D01*
X149634354Y-109230735D02*
X149662925Y-109173592D01*
X149662925Y-109173592D02*
X149720068Y-109116449D01*
X149720068Y-109116449D02*
X149805782Y-109087878D01*
X149805782Y-109087878D02*
X149862925Y-109087878D01*
X149862925Y-109087878D02*
X149948639Y-109116449D01*
X149948639Y-109116449D02*
X149977211Y-109145021D01*
X150177211Y-109087878D02*
X150548639Y-109087878D01*
X150548639Y-109087878D02*
X150348639Y-109316449D01*
X150348639Y-109316449D02*
X150434354Y-109316449D01*
X150434354Y-109316449D02*
X150491497Y-109345021D01*
X150491497Y-109345021D02*
X150520068Y-109373592D01*
X150520068Y-109373592D02*
X150548639Y-109430735D01*
X150548639Y-109430735D02*
X150548639Y-109573592D01*
X150548639Y-109573592D02*
X150520068Y-109630735D01*
X150520068Y-109630735D02*
X150491497Y-109659307D01*
X150491497Y-109659307D02*
X150434354Y-109687878D01*
X150434354Y-109687878D02*
X150262925Y-109687878D01*
X150262925Y-109687878D02*
X150205782Y-109659307D01*
X150205782Y-109659307D02*
X150177211Y-109630735D01*
X150748640Y-109087878D02*
X151148640Y-109087878D01*
X151148640Y-109087878D02*
X150891497Y-109687878D01*
X149147698Y-107576920D02*
X149176270Y-107605492D01*
X149176270Y-107605492D02*
X149204841Y-107691206D01*
X149204841Y-107691206D02*
X149204841Y-107748349D01*
X149204841Y-107748349D02*
X149176270Y-107834063D01*
X149176270Y-107834063D02*
X149119127Y-107891206D01*
X149119127Y-107891206D02*
X149061984Y-107919777D01*
X149061984Y-107919777D02*
X148947698Y-107948349D01*
X148947698Y-107948349D02*
X148861984Y-107948349D01*
X148861984Y-107948349D02*
X148747698Y-107919777D01*
X148747698Y-107919777D02*
X148690555Y-107891206D01*
X148690555Y-107891206D02*
X148633412Y-107834063D01*
X148633412Y-107834063D02*
X148604841Y-107748349D01*
X148604841Y-107748349D02*
X148604841Y-107691206D01*
X148604841Y-107691206D02*
X148633412Y-107605492D01*
X148633412Y-107605492D02*
X148661984Y-107576920D01*
X148661984Y-107348349D02*
X148633412Y-107319777D01*
X148633412Y-107319777D02*
X148604841Y-107262635D01*
X148604841Y-107262635D02*
X148604841Y-107119777D01*
X148604841Y-107119777D02*
X148633412Y-107062635D01*
X148633412Y-107062635D02*
X148661984Y-107034063D01*
X148661984Y-107034063D02*
X148719127Y-107005492D01*
X148719127Y-107005492D02*
X148776270Y-107005492D01*
X148776270Y-107005492D02*
X148861984Y-107034063D01*
X148861984Y-107034063D02*
X149204841Y-107376920D01*
X149204841Y-107376920D02*
X149204841Y-107005492D01*
X148861984Y-106662634D02*
X148833412Y-106719777D01*
X148833412Y-106719777D02*
X148804841Y-106748348D01*
X148804841Y-106748348D02*
X148747698Y-106776920D01*
X148747698Y-106776920D02*
X148719127Y-106776920D01*
X148719127Y-106776920D02*
X148661984Y-106748348D01*
X148661984Y-106748348D02*
X148633412Y-106719777D01*
X148633412Y-106719777D02*
X148604841Y-106662634D01*
X148604841Y-106662634D02*
X148604841Y-106548348D01*
X148604841Y-106548348D02*
X148633412Y-106491206D01*
X148633412Y-106491206D02*
X148661984Y-106462634D01*
X148661984Y-106462634D02*
X148719127Y-106434063D01*
X148719127Y-106434063D02*
X148747698Y-106434063D01*
X148747698Y-106434063D02*
X148804841Y-106462634D01*
X148804841Y-106462634D02*
X148833412Y-106491206D01*
X148833412Y-106491206D02*
X148861984Y-106548348D01*
X148861984Y-106548348D02*
X148861984Y-106662634D01*
X148861984Y-106662634D02*
X148890555Y-106719777D01*
X148890555Y-106719777D02*
X148919127Y-106748348D01*
X148919127Y-106748348D02*
X148976270Y-106776920D01*
X148976270Y-106776920D02*
X149090555Y-106776920D01*
X149090555Y-106776920D02*
X149147698Y-106748348D01*
X149147698Y-106748348D02*
X149176270Y-106719777D01*
X149176270Y-106719777D02*
X149204841Y-106662634D01*
X149204841Y-106662634D02*
X149204841Y-106548348D01*
X149204841Y-106548348D02*
X149176270Y-106491206D01*
X149176270Y-106491206D02*
X149147698Y-106462634D01*
X149147698Y-106462634D02*
X149090555Y-106434063D01*
X149090555Y-106434063D02*
X148976270Y-106434063D01*
X148976270Y-106434063D02*
X148919127Y-106462634D01*
X148919127Y-106462634D02*
X148890555Y-106491206D01*
X148890555Y-106491206D02*
X148861984Y-106548348D01*
X146227088Y-107283362D02*
X146255660Y-107311934D01*
X146255660Y-107311934D02*
X146284231Y-107397648D01*
X146284231Y-107397648D02*
X146284231Y-107454791D01*
X146284231Y-107454791D02*
X146255660Y-107540505D01*
X146255660Y-107540505D02*
X146198517Y-107597648D01*
X146198517Y-107597648D02*
X146141374Y-107626219D01*
X146141374Y-107626219D02*
X146027088Y-107654791D01*
X146027088Y-107654791D02*
X145941374Y-107654791D01*
X145941374Y-107654791D02*
X145827088Y-107626219D01*
X145827088Y-107626219D02*
X145769945Y-107597648D01*
X145769945Y-107597648D02*
X145712802Y-107540505D01*
X145712802Y-107540505D02*
X145684231Y-107454791D01*
X145684231Y-107454791D02*
X145684231Y-107397648D01*
X145684231Y-107397648D02*
X145712802Y-107311934D01*
X145712802Y-107311934D02*
X145741374Y-107283362D01*
X145741374Y-107054791D02*
X145712802Y-107026219D01*
X145712802Y-107026219D02*
X145684231Y-106969077D01*
X145684231Y-106969077D02*
X145684231Y-106826219D01*
X145684231Y-106826219D02*
X145712802Y-106769077D01*
X145712802Y-106769077D02*
X145741374Y-106740505D01*
X145741374Y-106740505D02*
X145798517Y-106711934D01*
X145798517Y-106711934D02*
X145855660Y-106711934D01*
X145855660Y-106711934D02*
X145941374Y-106740505D01*
X145941374Y-106740505D02*
X146284231Y-107083362D01*
X146284231Y-107083362D02*
X146284231Y-106711934D01*
X146284231Y-106426219D02*
X146284231Y-106311933D01*
X146284231Y-106311933D02*
X146255660Y-106254790D01*
X146255660Y-106254790D02*
X146227088Y-106226219D01*
X146227088Y-106226219D02*
X146141374Y-106169076D01*
X146141374Y-106169076D02*
X146027088Y-106140505D01*
X146027088Y-106140505D02*
X145798517Y-106140505D01*
X145798517Y-106140505D02*
X145741374Y-106169076D01*
X145741374Y-106169076D02*
X145712802Y-106197648D01*
X145712802Y-106197648D02*
X145684231Y-106254790D01*
X145684231Y-106254790D02*
X145684231Y-106369076D01*
X145684231Y-106369076D02*
X145712802Y-106426219D01*
X145712802Y-106426219D02*
X145741374Y-106454790D01*
X145741374Y-106454790D02*
X145798517Y-106483362D01*
X145798517Y-106483362D02*
X145941374Y-106483362D01*
X145941374Y-106483362D02*
X145998517Y-106454790D01*
X145998517Y-106454790D02*
X146027088Y-106426219D01*
X146027088Y-106426219D02*
X146055660Y-106369076D01*
X146055660Y-106369076D02*
X146055660Y-106254790D01*
X146055660Y-106254790D02*
X146027088Y-106197648D01*
X146027088Y-106197648D02*
X145998517Y-106169076D01*
X145998517Y-106169076D02*
X145941374Y-106140505D01*
X143881774Y-104872807D02*
X143596060Y-105072807D01*
X143881774Y-105215664D02*
X143281774Y-105215664D01*
X143281774Y-105215664D02*
X143281774Y-104987093D01*
X143281774Y-104987093D02*
X143310345Y-104929950D01*
X143310345Y-104929950D02*
X143338917Y-104901379D01*
X143338917Y-104901379D02*
X143396060Y-104872807D01*
X143396060Y-104872807D02*
X143481774Y-104872807D01*
X143481774Y-104872807D02*
X143538917Y-104901379D01*
X143538917Y-104901379D02*
X143567488Y-104929950D01*
X143567488Y-104929950D02*
X143596060Y-104987093D01*
X143596060Y-104987093D02*
X143596060Y-105215664D01*
X143538917Y-104529950D02*
X143510345Y-104587093D01*
X143510345Y-104587093D02*
X143481774Y-104615664D01*
X143481774Y-104615664D02*
X143424631Y-104644236D01*
X143424631Y-104644236D02*
X143396060Y-104644236D01*
X143396060Y-104644236D02*
X143338917Y-104615664D01*
X143338917Y-104615664D02*
X143310345Y-104587093D01*
X143310345Y-104587093D02*
X143281774Y-104529950D01*
X143281774Y-104529950D02*
X143281774Y-104415664D01*
X143281774Y-104415664D02*
X143310345Y-104358522D01*
X143310345Y-104358522D02*
X143338917Y-104329950D01*
X143338917Y-104329950D02*
X143396060Y-104301379D01*
X143396060Y-104301379D02*
X143424631Y-104301379D01*
X143424631Y-104301379D02*
X143481774Y-104329950D01*
X143481774Y-104329950D02*
X143510345Y-104358522D01*
X143510345Y-104358522D02*
X143538917Y-104415664D01*
X143538917Y-104415664D02*
X143538917Y-104529950D01*
X143538917Y-104529950D02*
X143567488Y-104587093D01*
X143567488Y-104587093D02*
X143596060Y-104615664D01*
X143596060Y-104615664D02*
X143653203Y-104644236D01*
X143653203Y-104644236D02*
X143767488Y-104644236D01*
X143767488Y-104644236D02*
X143824631Y-104615664D01*
X143824631Y-104615664D02*
X143853203Y-104587093D01*
X143853203Y-104587093D02*
X143881774Y-104529950D01*
X143881774Y-104529950D02*
X143881774Y-104415664D01*
X143881774Y-104415664D02*
X143853203Y-104358522D01*
X143853203Y-104358522D02*
X143824631Y-104329950D01*
X143824631Y-104329950D02*
X143767488Y-104301379D01*
X143767488Y-104301379D02*
X143653203Y-104301379D01*
X143653203Y-104301379D02*
X143596060Y-104329950D01*
X143596060Y-104329950D02*
X143567488Y-104358522D01*
X143567488Y-104358522D02*
X143538917Y-104415664D01*
X143591139Y-115060600D02*
X143591139Y-115667743D01*
X143591139Y-115667743D02*
X143626853Y-115739171D01*
X143626853Y-115739171D02*
X143662568Y-115774886D01*
X143662568Y-115774886D02*
X143733996Y-115810600D01*
X143733996Y-115810600D02*
X143876853Y-115810600D01*
X143876853Y-115810600D02*
X143948282Y-115774886D01*
X143948282Y-115774886D02*
X143983996Y-115739171D01*
X143983996Y-115739171D02*
X144019710Y-115667743D01*
X144019710Y-115667743D02*
X144019710Y-115060600D01*
X144341139Y-115132028D02*
X144376853Y-115096314D01*
X144376853Y-115096314D02*
X144448282Y-115060600D01*
X144448282Y-115060600D02*
X144626853Y-115060600D01*
X144626853Y-115060600D02*
X144698282Y-115096314D01*
X144698282Y-115096314D02*
X144733996Y-115132028D01*
X144733996Y-115132028D02*
X144769710Y-115203457D01*
X144769710Y-115203457D02*
X144769710Y-115274886D01*
X144769710Y-115274886D02*
X144733996Y-115382028D01*
X144733996Y-115382028D02*
X144305424Y-115810600D01*
X144305424Y-115810600D02*
X144769710Y-115810600D01*
X130479852Y-111759980D02*
X130508424Y-111788552D01*
X130508424Y-111788552D02*
X130536995Y-111874266D01*
X130536995Y-111874266D02*
X130536995Y-111931409D01*
X130536995Y-111931409D02*
X130508424Y-112017123D01*
X130508424Y-112017123D02*
X130451281Y-112074266D01*
X130451281Y-112074266D02*
X130394138Y-112102837D01*
X130394138Y-112102837D02*
X130279852Y-112131409D01*
X130279852Y-112131409D02*
X130194138Y-112131409D01*
X130194138Y-112131409D02*
X130079852Y-112102837D01*
X130079852Y-112102837D02*
X130022709Y-112074266D01*
X130022709Y-112074266D02*
X129965566Y-112017123D01*
X129965566Y-112017123D02*
X129936995Y-111931409D01*
X129936995Y-111931409D02*
X129936995Y-111874266D01*
X129936995Y-111874266D02*
X129965566Y-111788552D01*
X129965566Y-111788552D02*
X129994138Y-111759980D01*
X130136995Y-111245695D02*
X130536995Y-111245695D01*
X129908424Y-111388552D02*
X130336995Y-111531409D01*
X130336995Y-111531409D02*
X130336995Y-111159980D01*
X129994138Y-110959980D02*
X129965566Y-110931408D01*
X129965566Y-110931408D02*
X129936995Y-110874266D01*
X129936995Y-110874266D02*
X129936995Y-110731408D01*
X129936995Y-110731408D02*
X129965566Y-110674266D01*
X129965566Y-110674266D02*
X129994138Y-110645694D01*
X129994138Y-110645694D02*
X130051281Y-110617123D01*
X130051281Y-110617123D02*
X130108424Y-110617123D01*
X130108424Y-110617123D02*
X130194138Y-110645694D01*
X130194138Y-110645694D02*
X130536995Y-110988551D01*
X130536995Y-110988551D02*
X130536995Y-110617123D01*
X149122363Y-106227811D02*
X148922363Y-105942097D01*
X148779506Y-106227811D02*
X148779506Y-105627811D01*
X148779506Y-105627811D02*
X149008077Y-105627811D01*
X149008077Y-105627811D02*
X149065220Y-105656382D01*
X149065220Y-105656382D02*
X149093791Y-105684954D01*
X149093791Y-105684954D02*
X149122363Y-105742097D01*
X149122363Y-105742097D02*
X149122363Y-105827811D01*
X149122363Y-105827811D02*
X149093791Y-105884954D01*
X149093791Y-105884954D02*
X149065220Y-105913525D01*
X149065220Y-105913525D02*
X149008077Y-105942097D01*
X149008077Y-105942097D02*
X148779506Y-105942097D01*
X149693791Y-106227811D02*
X149350934Y-106227811D01*
X149522363Y-106227811D02*
X149522363Y-105627811D01*
X149522363Y-105627811D02*
X149465220Y-105713525D01*
X149465220Y-105713525D02*
X149408077Y-105770668D01*
X149408077Y-105770668D02*
X149350934Y-105799240D01*
X149922363Y-105684954D02*
X149950935Y-105656382D01*
X149950935Y-105656382D02*
X150008078Y-105627811D01*
X150008078Y-105627811D02*
X150150935Y-105627811D01*
X150150935Y-105627811D02*
X150208078Y-105656382D01*
X150208078Y-105656382D02*
X150236649Y-105684954D01*
X150236649Y-105684954D02*
X150265220Y-105742097D01*
X150265220Y-105742097D02*
X150265220Y-105799240D01*
X150265220Y-105799240D02*
X150236649Y-105884954D01*
X150236649Y-105884954D02*
X149893792Y-106227811D01*
X149893792Y-106227811D02*
X150265220Y-106227811D01*
X143673046Y-101453089D02*
X143701618Y-101481661D01*
X143701618Y-101481661D02*
X143730189Y-101567375D01*
X143730189Y-101567375D02*
X143730189Y-101624518D01*
X143730189Y-101624518D02*
X143701618Y-101710232D01*
X143701618Y-101710232D02*
X143644475Y-101767375D01*
X143644475Y-101767375D02*
X143587332Y-101795946D01*
X143587332Y-101795946D02*
X143473046Y-101824518D01*
X143473046Y-101824518D02*
X143387332Y-101824518D01*
X143387332Y-101824518D02*
X143273046Y-101795946D01*
X143273046Y-101795946D02*
X143215903Y-101767375D01*
X143215903Y-101767375D02*
X143158760Y-101710232D01*
X143158760Y-101710232D02*
X143130189Y-101624518D01*
X143130189Y-101624518D02*
X143130189Y-101567375D01*
X143130189Y-101567375D02*
X143158760Y-101481661D01*
X143158760Y-101481661D02*
X143187332Y-101453089D01*
X143730189Y-100881661D02*
X143730189Y-101224518D01*
X143730189Y-101053089D02*
X143130189Y-101053089D01*
X143130189Y-101053089D02*
X143215903Y-101110232D01*
X143215903Y-101110232D02*
X143273046Y-101167375D01*
X143273046Y-101167375D02*
X143301618Y-101224518D01*
X143130189Y-100338803D02*
X143130189Y-100624517D01*
X143130189Y-100624517D02*
X143415903Y-100653089D01*
X143415903Y-100653089D02*
X143387332Y-100624517D01*
X143387332Y-100624517D02*
X143358760Y-100567375D01*
X143358760Y-100567375D02*
X143358760Y-100424517D01*
X143358760Y-100424517D02*
X143387332Y-100367375D01*
X143387332Y-100367375D02*
X143415903Y-100338803D01*
X143415903Y-100338803D02*
X143473046Y-100310232D01*
X143473046Y-100310232D02*
X143615903Y-100310232D01*
X143615903Y-100310232D02*
X143673046Y-100338803D01*
X143673046Y-100338803D02*
X143701618Y-100367375D01*
X143701618Y-100367375D02*
X143730189Y-100424517D01*
X143730189Y-100424517D02*
X143730189Y-100567375D01*
X143730189Y-100567375D02*
X143701618Y-100624517D01*
X143701618Y-100624517D02*
X143673046Y-100653089D01*
X144678248Y-101465181D02*
X144706820Y-101493753D01*
X144706820Y-101493753D02*
X144735391Y-101579467D01*
X144735391Y-101579467D02*
X144735391Y-101636610D01*
X144735391Y-101636610D02*
X144706820Y-101722324D01*
X144706820Y-101722324D02*
X144649677Y-101779467D01*
X144649677Y-101779467D02*
X144592534Y-101808038D01*
X144592534Y-101808038D02*
X144478248Y-101836610D01*
X144478248Y-101836610D02*
X144392534Y-101836610D01*
X144392534Y-101836610D02*
X144278248Y-101808038D01*
X144278248Y-101808038D02*
X144221105Y-101779467D01*
X144221105Y-101779467D02*
X144163962Y-101722324D01*
X144163962Y-101722324D02*
X144135391Y-101636610D01*
X144135391Y-101636610D02*
X144135391Y-101579467D01*
X144135391Y-101579467D02*
X144163962Y-101493753D01*
X144163962Y-101493753D02*
X144192534Y-101465181D01*
X144735391Y-100893753D02*
X144735391Y-101236610D01*
X144735391Y-101065181D02*
X144135391Y-101065181D01*
X144135391Y-101065181D02*
X144221105Y-101122324D01*
X144221105Y-101122324D02*
X144278248Y-101179467D01*
X144278248Y-101179467D02*
X144306820Y-101236610D01*
X144392534Y-100550895D02*
X144363962Y-100608038D01*
X144363962Y-100608038D02*
X144335391Y-100636609D01*
X144335391Y-100636609D02*
X144278248Y-100665181D01*
X144278248Y-100665181D02*
X144249677Y-100665181D01*
X144249677Y-100665181D02*
X144192534Y-100636609D01*
X144192534Y-100636609D02*
X144163962Y-100608038D01*
X144163962Y-100608038D02*
X144135391Y-100550895D01*
X144135391Y-100550895D02*
X144135391Y-100436609D01*
X144135391Y-100436609D02*
X144163962Y-100379467D01*
X144163962Y-100379467D02*
X144192534Y-100350895D01*
X144192534Y-100350895D02*
X144249677Y-100322324D01*
X144249677Y-100322324D02*
X144278248Y-100322324D01*
X144278248Y-100322324D02*
X144335391Y-100350895D01*
X144335391Y-100350895D02*
X144363962Y-100379467D01*
X144363962Y-100379467D02*
X144392534Y-100436609D01*
X144392534Y-100436609D02*
X144392534Y-100550895D01*
X144392534Y-100550895D02*
X144421105Y-100608038D01*
X144421105Y-100608038D02*
X144449677Y-100636609D01*
X144449677Y-100636609D02*
X144506820Y-100665181D01*
X144506820Y-100665181D02*
X144621105Y-100665181D01*
X144621105Y-100665181D02*
X144678248Y-100636609D01*
X144678248Y-100636609D02*
X144706820Y-100608038D01*
X144706820Y-100608038D02*
X144735391Y-100550895D01*
X144735391Y-100550895D02*
X144735391Y-100436609D01*
X144735391Y-100436609D02*
X144706820Y-100379467D01*
X144706820Y-100379467D02*
X144678248Y-100350895D01*
X144678248Y-100350895D02*
X144621105Y-100322324D01*
X144621105Y-100322324D02*
X144506820Y-100322324D01*
X144506820Y-100322324D02*
X144449677Y-100350895D01*
X144449677Y-100350895D02*
X144421105Y-100379467D01*
X144421105Y-100379467D02*
X144392534Y-100436609D01*
X149137537Y-102507011D02*
X149108965Y-102535583D01*
X149108965Y-102535583D02*
X149023251Y-102564154D01*
X149023251Y-102564154D02*
X148966108Y-102564154D01*
X148966108Y-102564154D02*
X148880394Y-102535583D01*
X148880394Y-102535583D02*
X148823251Y-102478440D01*
X148823251Y-102478440D02*
X148794680Y-102421297D01*
X148794680Y-102421297D02*
X148766108Y-102307011D01*
X148766108Y-102307011D02*
X148766108Y-102221297D01*
X148766108Y-102221297D02*
X148794680Y-102107011D01*
X148794680Y-102107011D02*
X148823251Y-102049868D01*
X148823251Y-102049868D02*
X148880394Y-101992725D01*
X148880394Y-101992725D02*
X148966108Y-101964154D01*
X148966108Y-101964154D02*
X149023251Y-101964154D01*
X149023251Y-101964154D02*
X149108965Y-101992725D01*
X149108965Y-101992725D02*
X149137537Y-102021297D01*
X149366108Y-102021297D02*
X149394680Y-101992725D01*
X149394680Y-101992725D02*
X149451823Y-101964154D01*
X149451823Y-101964154D02*
X149594680Y-101964154D01*
X149594680Y-101964154D02*
X149651823Y-101992725D01*
X149651823Y-101992725D02*
X149680394Y-102021297D01*
X149680394Y-102021297D02*
X149708965Y-102078440D01*
X149708965Y-102078440D02*
X149708965Y-102135583D01*
X149708965Y-102135583D02*
X149680394Y-102221297D01*
X149680394Y-102221297D02*
X149337537Y-102564154D01*
X149337537Y-102564154D02*
X149708965Y-102564154D01*
X149908966Y-101964154D02*
X150308966Y-101964154D01*
X150308966Y-101964154D02*
X150051823Y-102564154D01*
X133086190Y-105457709D02*
X133057618Y-105486281D01*
X133057618Y-105486281D02*
X132971904Y-105514852D01*
X132971904Y-105514852D02*
X132914761Y-105514852D01*
X132914761Y-105514852D02*
X132829047Y-105486281D01*
X132829047Y-105486281D02*
X132771904Y-105429138D01*
X132771904Y-105429138D02*
X132743333Y-105371995D01*
X132743333Y-105371995D02*
X132714761Y-105257709D01*
X132714761Y-105257709D02*
X132714761Y-105171995D01*
X132714761Y-105171995D02*
X132743333Y-105057709D01*
X132743333Y-105057709D02*
X132771904Y-105000566D01*
X132771904Y-105000566D02*
X132829047Y-104943423D01*
X132829047Y-104943423D02*
X132914761Y-104914852D01*
X132914761Y-104914852D02*
X132971904Y-104914852D01*
X132971904Y-104914852D02*
X133057618Y-104943423D01*
X133057618Y-104943423D02*
X133086190Y-104971995D01*
X133600476Y-105114852D02*
X133600476Y-105514852D01*
X133457618Y-104886281D02*
X133314761Y-105314852D01*
X133314761Y-105314852D02*
X133686190Y-105314852D01*
X134000476Y-105171995D02*
X133943333Y-105143423D01*
X133943333Y-105143423D02*
X133914762Y-105114852D01*
X133914762Y-105114852D02*
X133886190Y-105057709D01*
X133886190Y-105057709D02*
X133886190Y-105029138D01*
X133886190Y-105029138D02*
X133914762Y-104971995D01*
X133914762Y-104971995D02*
X133943333Y-104943423D01*
X133943333Y-104943423D02*
X134000476Y-104914852D01*
X134000476Y-104914852D02*
X134114762Y-104914852D01*
X134114762Y-104914852D02*
X134171905Y-104943423D01*
X134171905Y-104943423D02*
X134200476Y-104971995D01*
X134200476Y-104971995D02*
X134229047Y-105029138D01*
X134229047Y-105029138D02*
X134229047Y-105057709D01*
X134229047Y-105057709D02*
X134200476Y-105114852D01*
X134200476Y-105114852D02*
X134171905Y-105143423D01*
X134171905Y-105143423D02*
X134114762Y-105171995D01*
X134114762Y-105171995D02*
X134000476Y-105171995D01*
X134000476Y-105171995D02*
X133943333Y-105200566D01*
X133943333Y-105200566D02*
X133914762Y-105229138D01*
X133914762Y-105229138D02*
X133886190Y-105286281D01*
X133886190Y-105286281D02*
X133886190Y-105400566D01*
X133886190Y-105400566D02*
X133914762Y-105457709D01*
X133914762Y-105457709D02*
X133943333Y-105486281D01*
X133943333Y-105486281D02*
X134000476Y-105514852D01*
X134000476Y-105514852D02*
X134114762Y-105514852D01*
X134114762Y-105514852D02*
X134171905Y-105486281D01*
X134171905Y-105486281D02*
X134200476Y-105457709D01*
X134200476Y-105457709D02*
X134229047Y-105400566D01*
X134229047Y-105400566D02*
X134229047Y-105286281D01*
X134229047Y-105286281D02*
X134200476Y-105229138D01*
X134200476Y-105229138D02*
X134171905Y-105200566D01*
X134171905Y-105200566D02*
X134114762Y-105171995D01*
X130097206Y-107023993D02*
X130906729Y-107023993D01*
X130906729Y-107023993D02*
X131001967Y-106976374D01*
X131001967Y-106976374D02*
X131049587Y-106928755D01*
X131049587Y-106928755D02*
X131097206Y-106833517D01*
X131097206Y-106833517D02*
X131097206Y-106643041D01*
X131097206Y-106643041D02*
X131049587Y-106547803D01*
X131049587Y-106547803D02*
X131001967Y-106500184D01*
X131001967Y-106500184D02*
X130906729Y-106452565D01*
X130906729Y-106452565D02*
X130097206Y-106452565D01*
X131097206Y-105452565D02*
X131097206Y-106023993D01*
X131097206Y-105738279D02*
X130097206Y-105738279D01*
X130097206Y-105738279D02*
X130240063Y-105833517D01*
X130240063Y-105833517D02*
X130335301Y-105928755D01*
X130335301Y-105928755D02*
X130382920Y-106023993D01*
X130192444Y-105071612D02*
X130144825Y-105023993D01*
X130144825Y-105023993D02*
X130097206Y-104928755D01*
X130097206Y-104928755D02*
X130097206Y-104690660D01*
X130097206Y-104690660D02*
X130144825Y-104595422D01*
X130144825Y-104595422D02*
X130192444Y-104547803D01*
X130192444Y-104547803D02*
X130287682Y-104500184D01*
X130287682Y-104500184D02*
X130382920Y-104500184D01*
X130382920Y-104500184D02*
X130525777Y-104547803D01*
X130525777Y-104547803D02*
X131097206Y-105119231D01*
X131097206Y-105119231D02*
X131097206Y-104500184D01*
X132773821Y-107710863D02*
X132802393Y-107739435D01*
X132802393Y-107739435D02*
X132830964Y-107825149D01*
X132830964Y-107825149D02*
X132830964Y-107882292D01*
X132830964Y-107882292D02*
X132802393Y-107968006D01*
X132802393Y-107968006D02*
X132745250Y-108025149D01*
X132745250Y-108025149D02*
X132688107Y-108053720D01*
X132688107Y-108053720D02*
X132573821Y-108082292D01*
X132573821Y-108082292D02*
X132488107Y-108082292D01*
X132488107Y-108082292D02*
X132373821Y-108053720D01*
X132373821Y-108053720D02*
X132316678Y-108025149D01*
X132316678Y-108025149D02*
X132259535Y-107968006D01*
X132259535Y-107968006D02*
X132230964Y-107882292D01*
X132230964Y-107882292D02*
X132230964Y-107825149D01*
X132230964Y-107825149D02*
X132259535Y-107739435D01*
X132259535Y-107739435D02*
X132288107Y-107710863D01*
X132430964Y-107196578D02*
X132830964Y-107196578D01*
X132202393Y-107339435D02*
X132630964Y-107482292D01*
X132630964Y-107482292D02*
X132630964Y-107110863D01*
X132230964Y-106939434D02*
X132230964Y-106539434D01*
X132230964Y-106539434D02*
X132830964Y-106796577D01*
X144247458Y-101461049D02*
X144276030Y-101489621D01*
X144276030Y-101489621D02*
X144304601Y-101575335D01*
X144304601Y-101575335D02*
X144304601Y-101632478D01*
X144304601Y-101632478D02*
X144276030Y-101718192D01*
X144276030Y-101718192D02*
X144218887Y-101775335D01*
X144218887Y-101775335D02*
X144161744Y-101803906D01*
X144161744Y-101803906D02*
X144047458Y-101832478D01*
X144047458Y-101832478D02*
X143961744Y-101832478D01*
X143961744Y-101832478D02*
X143847458Y-101803906D01*
X143847458Y-101803906D02*
X143790315Y-101775335D01*
X143790315Y-101775335D02*
X143733172Y-101718192D01*
X143733172Y-101718192D02*
X143704601Y-101632478D01*
X143704601Y-101632478D02*
X143704601Y-101575335D01*
X143704601Y-101575335D02*
X143733172Y-101489621D01*
X143733172Y-101489621D02*
X143761744Y-101461049D01*
X144304601Y-100889621D02*
X144304601Y-101232478D01*
X144304601Y-101061049D02*
X143704601Y-101061049D01*
X143704601Y-101061049D02*
X143790315Y-101118192D01*
X143790315Y-101118192D02*
X143847458Y-101175335D01*
X143847458Y-101175335D02*
X143876030Y-101232478D01*
X143704601Y-100375335D02*
X143704601Y-100489620D01*
X143704601Y-100489620D02*
X143733172Y-100546763D01*
X143733172Y-100546763D02*
X143761744Y-100575335D01*
X143761744Y-100575335D02*
X143847458Y-100632477D01*
X143847458Y-100632477D02*
X143961744Y-100661049D01*
X143961744Y-100661049D02*
X144190315Y-100661049D01*
X144190315Y-100661049D02*
X144247458Y-100632477D01*
X144247458Y-100632477D02*
X144276030Y-100603906D01*
X144276030Y-100603906D02*
X144304601Y-100546763D01*
X144304601Y-100546763D02*
X144304601Y-100432477D01*
X144304601Y-100432477D02*
X144276030Y-100375335D01*
X144276030Y-100375335D02*
X144247458Y-100346763D01*
X144247458Y-100346763D02*
X144190315Y-100318192D01*
X144190315Y-100318192D02*
X144047458Y-100318192D01*
X144047458Y-100318192D02*
X143990315Y-100346763D01*
X143990315Y-100346763D02*
X143961744Y-100375335D01*
X143961744Y-100375335D02*
X143933172Y-100432477D01*
X143933172Y-100432477D02*
X143933172Y-100546763D01*
X143933172Y-100546763D02*
X143961744Y-100603906D01*
X143961744Y-100603906D02*
X143990315Y-100632477D01*
X143990315Y-100632477D02*
X144047458Y-100661049D01*
X144652319Y-107946115D02*
X145461842Y-107946115D01*
X145461842Y-107946115D02*
X145557080Y-107898496D01*
X145557080Y-107898496D02*
X145604700Y-107850877D01*
X145604700Y-107850877D02*
X145652319Y-107755639D01*
X145652319Y-107755639D02*
X145652319Y-107565163D01*
X145652319Y-107565163D02*
X145604700Y-107469925D01*
X145604700Y-107469925D02*
X145557080Y-107422306D01*
X145557080Y-107422306D02*
X145461842Y-107374687D01*
X145461842Y-107374687D02*
X144652319Y-107374687D01*
X145652319Y-106374687D02*
X145652319Y-106946115D01*
X145652319Y-106660401D02*
X144652319Y-106660401D01*
X144652319Y-106660401D02*
X144795176Y-106755639D01*
X144795176Y-106755639D02*
X144890414Y-106850877D01*
X144890414Y-106850877D02*
X144938033Y-106946115D01*
X144652319Y-105517544D02*
X144652319Y-105708020D01*
X144652319Y-105708020D02*
X144699938Y-105803258D01*
X144699938Y-105803258D02*
X144747557Y-105850877D01*
X144747557Y-105850877D02*
X144890414Y-105946115D01*
X144890414Y-105946115D02*
X145080890Y-105993734D01*
X145080890Y-105993734D02*
X145461842Y-105993734D01*
X145461842Y-105993734D02*
X145557080Y-105946115D01*
X145557080Y-105946115D02*
X145604700Y-105898496D01*
X145604700Y-105898496D02*
X145652319Y-105803258D01*
X145652319Y-105803258D02*
X145652319Y-105612782D01*
X145652319Y-105612782D02*
X145604700Y-105517544D01*
X145604700Y-105517544D02*
X145557080Y-105469925D01*
X145557080Y-105469925D02*
X145461842Y-105422306D01*
X145461842Y-105422306D02*
X145223747Y-105422306D01*
X145223747Y-105422306D02*
X145128509Y-105469925D01*
X145128509Y-105469925D02*
X145080890Y-105517544D01*
X145080890Y-105517544D02*
X145033271Y-105612782D01*
X145033271Y-105612782D02*
X145033271Y-105803258D01*
X145033271Y-105803258D02*
X145080890Y-105898496D01*
X145080890Y-105898496D02*
X145128509Y-105946115D01*
X145128509Y-105946115D02*
X145223747Y-105993734D01*
X152172578Y-105904151D02*
X152144006Y-105932723D01*
X152144006Y-105932723D02*
X152058292Y-105961294D01*
X152058292Y-105961294D02*
X152001149Y-105961294D01*
X152001149Y-105961294D02*
X151915435Y-105932723D01*
X151915435Y-105932723D02*
X151858292Y-105875580D01*
X151858292Y-105875580D02*
X151829721Y-105818437D01*
X151829721Y-105818437D02*
X151801149Y-105704151D01*
X151801149Y-105704151D02*
X151801149Y-105618437D01*
X151801149Y-105618437D02*
X151829721Y-105504151D01*
X151829721Y-105504151D02*
X151858292Y-105447008D01*
X151858292Y-105447008D02*
X151915435Y-105389865D01*
X151915435Y-105389865D02*
X152001149Y-105361294D01*
X152001149Y-105361294D02*
X152058292Y-105361294D01*
X152058292Y-105361294D02*
X152144006Y-105389865D01*
X152144006Y-105389865D02*
X152172578Y-105418437D01*
X152401149Y-105418437D02*
X152429721Y-105389865D01*
X152429721Y-105389865D02*
X152486864Y-105361294D01*
X152486864Y-105361294D02*
X152629721Y-105361294D01*
X152629721Y-105361294D02*
X152686864Y-105389865D01*
X152686864Y-105389865D02*
X152715435Y-105418437D01*
X152715435Y-105418437D02*
X152744006Y-105475580D01*
X152744006Y-105475580D02*
X152744006Y-105532723D01*
X152744006Y-105532723D02*
X152715435Y-105618437D01*
X152715435Y-105618437D02*
X152372578Y-105961294D01*
X152372578Y-105961294D02*
X152744006Y-105961294D01*
X153258293Y-105361294D02*
X153144007Y-105361294D01*
X153144007Y-105361294D02*
X153086864Y-105389865D01*
X153086864Y-105389865D02*
X153058293Y-105418437D01*
X153058293Y-105418437D02*
X153001150Y-105504151D01*
X153001150Y-105504151D02*
X152972578Y-105618437D01*
X152972578Y-105618437D02*
X152972578Y-105847008D01*
X152972578Y-105847008D02*
X153001150Y-105904151D01*
X153001150Y-105904151D02*
X153029721Y-105932723D01*
X153029721Y-105932723D02*
X153086864Y-105961294D01*
X153086864Y-105961294D02*
X153201150Y-105961294D01*
X153201150Y-105961294D02*
X153258293Y-105932723D01*
X153258293Y-105932723D02*
X153286864Y-105904151D01*
X153286864Y-105904151D02*
X153315435Y-105847008D01*
X153315435Y-105847008D02*
X153315435Y-105704151D01*
X153315435Y-105704151D02*
X153286864Y-105647008D01*
X153286864Y-105647008D02*
X153258293Y-105618437D01*
X153258293Y-105618437D02*
X153201150Y-105589865D01*
X153201150Y-105589865D02*
X153086864Y-105589865D01*
X153086864Y-105589865D02*
X153029721Y-105618437D01*
X153029721Y-105618437D02*
X153001150Y-105647008D01*
X153001150Y-105647008D02*
X152972578Y-105704151D01*
X134652319Y-107946115D02*
X135461842Y-107946115D01*
X135461842Y-107946115D02*
X135557080Y-107898496D01*
X135557080Y-107898496D02*
X135604700Y-107850877D01*
X135604700Y-107850877D02*
X135652319Y-107755639D01*
X135652319Y-107755639D02*
X135652319Y-107565163D01*
X135652319Y-107565163D02*
X135604700Y-107469925D01*
X135604700Y-107469925D02*
X135557080Y-107422306D01*
X135557080Y-107422306D02*
X135461842Y-107374687D01*
X135461842Y-107374687D02*
X134652319Y-107374687D01*
X135652319Y-106374687D02*
X135652319Y-106946115D01*
X135652319Y-106660401D02*
X134652319Y-106660401D01*
X134652319Y-106660401D02*
X134795176Y-106755639D01*
X134795176Y-106755639D02*
X134890414Y-106850877D01*
X134890414Y-106850877D02*
X134938033Y-106946115D01*
X134652319Y-105469925D02*
X134652319Y-105946115D01*
X134652319Y-105946115D02*
X135128509Y-105993734D01*
X135128509Y-105993734D02*
X135080890Y-105946115D01*
X135080890Y-105946115D02*
X135033271Y-105850877D01*
X135033271Y-105850877D02*
X135033271Y-105612782D01*
X135033271Y-105612782D02*
X135080890Y-105517544D01*
X135080890Y-105517544D02*
X135128509Y-105469925D01*
X135128509Y-105469925D02*
X135223747Y-105422306D01*
X135223747Y-105422306D02*
X135461842Y-105422306D01*
X135461842Y-105422306D02*
X135557080Y-105469925D01*
X135557080Y-105469925D02*
X135604700Y-105517544D01*
X135604700Y-105517544D02*
X135652319Y-105612782D01*
X135652319Y-105612782D02*
X135652319Y-105850877D01*
X135652319Y-105850877D02*
X135604700Y-105946115D01*
X135604700Y-105946115D02*
X135557080Y-105993734D01*
X143232573Y-105157116D02*
X143261145Y-105185688D01*
X143261145Y-105185688D02*
X143289716Y-105271402D01*
X143289716Y-105271402D02*
X143289716Y-105328545D01*
X143289716Y-105328545D02*
X143261145Y-105414259D01*
X143261145Y-105414259D02*
X143204002Y-105471402D01*
X143204002Y-105471402D02*
X143146859Y-105499973D01*
X143146859Y-105499973D02*
X143032573Y-105528545D01*
X143032573Y-105528545D02*
X142946859Y-105528545D01*
X142946859Y-105528545D02*
X142832573Y-105499973D01*
X142832573Y-105499973D02*
X142775430Y-105471402D01*
X142775430Y-105471402D02*
X142718287Y-105414259D01*
X142718287Y-105414259D02*
X142689716Y-105328545D01*
X142689716Y-105328545D02*
X142689716Y-105271402D01*
X142689716Y-105271402D02*
X142718287Y-105185688D01*
X142718287Y-105185688D02*
X142746859Y-105157116D01*
X143289716Y-104585688D02*
X143289716Y-104928545D01*
X143289716Y-104757116D02*
X142689716Y-104757116D01*
X142689716Y-104757116D02*
X142775430Y-104814259D01*
X142775430Y-104814259D02*
X142832573Y-104871402D01*
X142832573Y-104871402D02*
X142861145Y-104928545D01*
X142689716Y-104385687D02*
X142689716Y-103985687D01*
X142689716Y-103985687D02*
X143289716Y-104242830D01*
X146260053Y-103463047D02*
X146231481Y-103491619D01*
X146231481Y-103491619D02*
X146145767Y-103520190D01*
X146145767Y-103520190D02*
X146088624Y-103520190D01*
X146088624Y-103520190D02*
X146002910Y-103491619D01*
X146002910Y-103491619D02*
X145945767Y-103434476D01*
X145945767Y-103434476D02*
X145917196Y-103377333D01*
X145917196Y-103377333D02*
X145888624Y-103263047D01*
X145888624Y-103263047D02*
X145888624Y-103177333D01*
X145888624Y-103177333D02*
X145917196Y-103063047D01*
X145917196Y-103063047D02*
X145945767Y-103005904D01*
X145945767Y-103005904D02*
X146002910Y-102948761D01*
X146002910Y-102948761D02*
X146088624Y-102920190D01*
X146088624Y-102920190D02*
X146145767Y-102920190D01*
X146145767Y-102920190D02*
X146231481Y-102948761D01*
X146231481Y-102948761D02*
X146260053Y-102977333D01*
X146488624Y-102977333D02*
X146517196Y-102948761D01*
X146517196Y-102948761D02*
X146574339Y-102920190D01*
X146574339Y-102920190D02*
X146717196Y-102920190D01*
X146717196Y-102920190D02*
X146774339Y-102948761D01*
X146774339Y-102948761D02*
X146802910Y-102977333D01*
X146802910Y-102977333D02*
X146831481Y-103034476D01*
X146831481Y-103034476D02*
X146831481Y-103091619D01*
X146831481Y-103091619D02*
X146802910Y-103177333D01*
X146802910Y-103177333D02*
X146460053Y-103520190D01*
X146460053Y-103520190D02*
X146831481Y-103520190D01*
X147202910Y-102920190D02*
X147260053Y-102920190D01*
X147260053Y-102920190D02*
X147317196Y-102948761D01*
X147317196Y-102948761D02*
X147345768Y-102977333D01*
X147345768Y-102977333D02*
X147374339Y-103034476D01*
X147374339Y-103034476D02*
X147402910Y-103148761D01*
X147402910Y-103148761D02*
X147402910Y-103291619D01*
X147402910Y-103291619D02*
X147374339Y-103405904D01*
X147374339Y-103405904D02*
X147345768Y-103463047D01*
X147345768Y-103463047D02*
X147317196Y-103491619D01*
X147317196Y-103491619D02*
X147260053Y-103520190D01*
X147260053Y-103520190D02*
X147202910Y-103520190D01*
X147202910Y-103520190D02*
X147145768Y-103491619D01*
X147145768Y-103491619D02*
X147117196Y-103463047D01*
X147117196Y-103463047D02*
X147088625Y-103405904D01*
X147088625Y-103405904D02*
X147060053Y-103291619D01*
X147060053Y-103291619D02*
X147060053Y-103148761D01*
X147060053Y-103148761D02*
X147088625Y-103034476D01*
X147088625Y-103034476D02*
X147117196Y-102977333D01*
X147117196Y-102977333D02*
X147145768Y-102948761D01*
X147145768Y-102948761D02*
X147202910Y-102920190D01*
X145465291Y-105150923D02*
X145493863Y-105179495D01*
X145493863Y-105179495D02*
X145522434Y-105265209D01*
X145522434Y-105265209D02*
X145522434Y-105322352D01*
X145522434Y-105322352D02*
X145493863Y-105408066D01*
X145493863Y-105408066D02*
X145436720Y-105465209D01*
X145436720Y-105465209D02*
X145379577Y-105493780D01*
X145379577Y-105493780D02*
X145265291Y-105522352D01*
X145265291Y-105522352D02*
X145179577Y-105522352D01*
X145179577Y-105522352D02*
X145065291Y-105493780D01*
X145065291Y-105493780D02*
X145008148Y-105465209D01*
X145008148Y-105465209D02*
X144951005Y-105408066D01*
X144951005Y-105408066D02*
X144922434Y-105322352D01*
X144922434Y-105322352D02*
X144922434Y-105265209D01*
X144922434Y-105265209D02*
X144951005Y-105179495D01*
X144951005Y-105179495D02*
X144979577Y-105150923D01*
X144979577Y-104922352D02*
X144951005Y-104893780D01*
X144951005Y-104893780D02*
X144922434Y-104836638D01*
X144922434Y-104836638D02*
X144922434Y-104693780D01*
X144922434Y-104693780D02*
X144951005Y-104636638D01*
X144951005Y-104636638D02*
X144979577Y-104608066D01*
X144979577Y-104608066D02*
X145036720Y-104579495D01*
X145036720Y-104579495D02*
X145093863Y-104579495D01*
X145093863Y-104579495D02*
X145179577Y-104608066D01*
X145179577Y-104608066D02*
X145522434Y-104950923D01*
X145522434Y-104950923D02*
X145522434Y-104579495D01*
X145522434Y-104008066D02*
X145522434Y-104350923D01*
X145522434Y-104179494D02*
X144922434Y-104179494D01*
X144922434Y-104179494D02*
X145008148Y-104236637D01*
X145008148Y-104236637D02*
X145065291Y-104293780D01*
X145065291Y-104293780D02*
X145093863Y-104350923D01*
X134234121Y-106023907D02*
X134034121Y-105738193D01*
X133891264Y-106023907D02*
X133891264Y-105423907D01*
X133891264Y-105423907D02*
X134119835Y-105423907D01*
X134119835Y-105423907D02*
X134176978Y-105452478D01*
X134176978Y-105452478D02*
X134205549Y-105481050D01*
X134205549Y-105481050D02*
X134234121Y-105538193D01*
X134234121Y-105538193D02*
X134234121Y-105623907D01*
X134234121Y-105623907D02*
X134205549Y-105681050D01*
X134205549Y-105681050D02*
X134176978Y-105709621D01*
X134176978Y-105709621D02*
X134119835Y-105738193D01*
X134119835Y-105738193D02*
X133891264Y-105738193D01*
X134805549Y-106023907D02*
X134462692Y-106023907D01*
X134634121Y-106023907D02*
X134634121Y-105423907D01*
X134634121Y-105423907D02*
X134576978Y-105509621D01*
X134576978Y-105509621D02*
X134519835Y-105566764D01*
X134519835Y-105566764D02*
X134462692Y-105595336D01*
X135319836Y-105423907D02*
X135205550Y-105423907D01*
X135205550Y-105423907D02*
X135148407Y-105452478D01*
X135148407Y-105452478D02*
X135119836Y-105481050D01*
X135119836Y-105481050D02*
X135062693Y-105566764D01*
X135062693Y-105566764D02*
X135034121Y-105681050D01*
X135034121Y-105681050D02*
X135034121Y-105909621D01*
X135034121Y-105909621D02*
X135062693Y-105966764D01*
X135062693Y-105966764D02*
X135091264Y-105995336D01*
X135091264Y-105995336D02*
X135148407Y-106023907D01*
X135148407Y-106023907D02*
X135262693Y-106023907D01*
X135262693Y-106023907D02*
X135319836Y-105995336D01*
X135319836Y-105995336D02*
X135348407Y-105966764D01*
X135348407Y-105966764D02*
X135376978Y-105909621D01*
X135376978Y-105909621D02*
X135376978Y-105766764D01*
X135376978Y-105766764D02*
X135348407Y-105709621D01*
X135348407Y-105709621D02*
X135319836Y-105681050D01*
X135319836Y-105681050D02*
X135262693Y-105652478D01*
X135262693Y-105652478D02*
X135148407Y-105652478D01*
X135148407Y-105652478D02*
X135091264Y-105681050D01*
X135091264Y-105681050D02*
X135062693Y-105709621D01*
X135062693Y-105709621D02*
X135034121Y-105766764D01*
X124652319Y-107946115D02*
X125461842Y-107946115D01*
X125461842Y-107946115D02*
X125557080Y-107898496D01*
X125557080Y-107898496D02*
X125604700Y-107850877D01*
X125604700Y-107850877D02*
X125652319Y-107755639D01*
X125652319Y-107755639D02*
X125652319Y-107565163D01*
X125652319Y-107565163D02*
X125604700Y-107469925D01*
X125604700Y-107469925D02*
X125557080Y-107422306D01*
X125557080Y-107422306D02*
X125461842Y-107374687D01*
X125461842Y-107374687D02*
X124652319Y-107374687D01*
X125652319Y-106374687D02*
X125652319Y-106946115D01*
X125652319Y-106660401D02*
X124652319Y-106660401D01*
X124652319Y-106660401D02*
X124795176Y-106755639D01*
X124795176Y-106755639D02*
X124890414Y-106850877D01*
X124890414Y-106850877D02*
X124938033Y-106946115D01*
X124985652Y-105517544D02*
X125652319Y-105517544D01*
X124604700Y-105755639D02*
X125318985Y-105993734D01*
X125318985Y-105993734D02*
X125318985Y-105374687D01*
X144635586Y-105399571D02*
X144607014Y-105428143D01*
X144607014Y-105428143D02*
X144521300Y-105456714D01*
X144521300Y-105456714D02*
X144464157Y-105456714D01*
X144464157Y-105456714D02*
X144378443Y-105428143D01*
X144378443Y-105428143D02*
X144321300Y-105371000D01*
X144321300Y-105371000D02*
X144292729Y-105313857D01*
X144292729Y-105313857D02*
X144264157Y-105199571D01*
X144264157Y-105199571D02*
X144264157Y-105113857D01*
X144264157Y-105113857D02*
X144292729Y-104999571D01*
X144292729Y-104999571D02*
X144321300Y-104942428D01*
X144321300Y-104942428D02*
X144378443Y-104885285D01*
X144378443Y-104885285D02*
X144464157Y-104856714D01*
X144464157Y-104856714D02*
X144521300Y-104856714D01*
X144521300Y-104856714D02*
X144607014Y-104885285D01*
X144607014Y-104885285D02*
X144635586Y-104913857D01*
X145207014Y-105456714D02*
X144864157Y-105456714D01*
X145035586Y-105456714D02*
X145035586Y-104856714D01*
X145035586Y-104856714D02*
X144978443Y-104942428D01*
X144978443Y-104942428D02*
X144921300Y-104999571D01*
X144921300Y-104999571D02*
X144864157Y-105028143D01*
X145492729Y-105456714D02*
X145607015Y-105456714D01*
X145607015Y-105456714D02*
X145664158Y-105428143D01*
X145664158Y-105428143D02*
X145692729Y-105399571D01*
X145692729Y-105399571D02*
X145749872Y-105313857D01*
X145749872Y-105313857D02*
X145778443Y-105199571D01*
X145778443Y-105199571D02*
X145778443Y-104971000D01*
X145778443Y-104971000D02*
X145749872Y-104913857D01*
X145749872Y-104913857D02*
X145721301Y-104885285D01*
X145721301Y-104885285D02*
X145664158Y-104856714D01*
X145664158Y-104856714D02*
X145549872Y-104856714D01*
X145549872Y-104856714D02*
X145492729Y-104885285D01*
X145492729Y-104885285D02*
X145464158Y-104913857D01*
X145464158Y-104913857D02*
X145435586Y-104971000D01*
X145435586Y-104971000D02*
X145435586Y-105113857D01*
X145435586Y-105113857D02*
X145464158Y-105171000D01*
X145464158Y-105171000D02*
X145492729Y-105199571D01*
X145492729Y-105199571D02*
X145549872Y-105228143D01*
X145549872Y-105228143D02*
X145664158Y-105228143D01*
X145664158Y-105228143D02*
X145721301Y-105199571D01*
X145721301Y-105199571D02*
X145749872Y-105171000D01*
X145749872Y-105171000D02*
X145778443Y-105113857D01*
X134232900Y-104948192D02*
X134032900Y-104662478D01*
X133890043Y-104948192D02*
X133890043Y-104348192D01*
X133890043Y-104348192D02*
X134118614Y-104348192D01*
X134118614Y-104348192D02*
X134175757Y-104376763D01*
X134175757Y-104376763D02*
X134204328Y-104405335D01*
X134204328Y-104405335D02*
X134232900Y-104462478D01*
X134232900Y-104462478D02*
X134232900Y-104548192D01*
X134232900Y-104548192D02*
X134204328Y-104605335D01*
X134204328Y-104605335D02*
X134175757Y-104633906D01*
X134175757Y-104633906D02*
X134118614Y-104662478D01*
X134118614Y-104662478D02*
X133890043Y-104662478D01*
X134804328Y-104948192D02*
X134461471Y-104948192D01*
X134632900Y-104948192D02*
X134632900Y-104348192D01*
X134632900Y-104348192D02*
X134575757Y-104433906D01*
X134575757Y-104433906D02*
X134518614Y-104491049D01*
X134518614Y-104491049D02*
X134461471Y-104519621D01*
X135004329Y-104348192D02*
X135404329Y-104348192D01*
X135404329Y-104348192D02*
X135147186Y-104948192D01*
X152201497Y-108431642D02*
X152172925Y-108460214D01*
X152172925Y-108460214D02*
X152087211Y-108488785D01*
X152087211Y-108488785D02*
X152030068Y-108488785D01*
X152030068Y-108488785D02*
X151944354Y-108460214D01*
X151944354Y-108460214D02*
X151887211Y-108403071D01*
X151887211Y-108403071D02*
X151858640Y-108345928D01*
X151858640Y-108345928D02*
X151830068Y-108231642D01*
X151830068Y-108231642D02*
X151830068Y-108145928D01*
X151830068Y-108145928D02*
X151858640Y-108031642D01*
X151858640Y-108031642D02*
X151887211Y-107974499D01*
X151887211Y-107974499D02*
X151944354Y-107917356D01*
X151944354Y-107917356D02*
X152030068Y-107888785D01*
X152030068Y-107888785D02*
X152087211Y-107888785D01*
X152087211Y-107888785D02*
X152172925Y-107917356D01*
X152172925Y-107917356D02*
X152201497Y-107945928D01*
X152401497Y-107888785D02*
X152772925Y-107888785D01*
X152772925Y-107888785D02*
X152572925Y-108117356D01*
X152572925Y-108117356D02*
X152658640Y-108117356D01*
X152658640Y-108117356D02*
X152715783Y-108145928D01*
X152715783Y-108145928D02*
X152744354Y-108174499D01*
X152744354Y-108174499D02*
X152772925Y-108231642D01*
X152772925Y-108231642D02*
X152772925Y-108374499D01*
X152772925Y-108374499D02*
X152744354Y-108431642D01*
X152744354Y-108431642D02*
X152715783Y-108460214D01*
X152715783Y-108460214D02*
X152658640Y-108488785D01*
X152658640Y-108488785D02*
X152487211Y-108488785D01*
X152487211Y-108488785D02*
X152430068Y-108460214D01*
X152430068Y-108460214D02*
X152401497Y-108431642D01*
X153001497Y-107945928D02*
X153030069Y-107917356D01*
X153030069Y-107917356D02*
X153087212Y-107888785D01*
X153087212Y-107888785D02*
X153230069Y-107888785D01*
X153230069Y-107888785D02*
X153287212Y-107917356D01*
X153287212Y-107917356D02*
X153315783Y-107945928D01*
X153315783Y-107945928D02*
X153344354Y-108003071D01*
X153344354Y-108003071D02*
X153344354Y-108060214D01*
X153344354Y-108060214D02*
X153315783Y-108145928D01*
X153315783Y-108145928D02*
X152972926Y-108488785D01*
X152972926Y-108488785D02*
X153344354Y-108488785D01*
X136679802Y-98063618D02*
X136679802Y-98873141D01*
X136679802Y-98873141D02*
X136727421Y-98968379D01*
X136727421Y-98968379D02*
X136775040Y-99015999D01*
X136775040Y-99015999D02*
X136870278Y-99063618D01*
X136870278Y-99063618D02*
X137060754Y-99063618D01*
X137060754Y-99063618D02*
X137155992Y-99015999D01*
X137155992Y-99015999D02*
X137203611Y-98968379D01*
X137203611Y-98968379D02*
X137251230Y-98873141D01*
X137251230Y-98873141D02*
X137251230Y-98063618D01*
X138251230Y-99063618D02*
X137679802Y-99063618D01*
X137965516Y-99063618D02*
X137965516Y-98063618D01*
X137965516Y-98063618D02*
X137870278Y-98206475D01*
X137870278Y-98206475D02*
X137775040Y-98301713D01*
X137775040Y-98301713D02*
X137679802Y-98349332D01*
X138584564Y-98063618D02*
X139203611Y-98063618D01*
X139203611Y-98063618D02*
X138870278Y-98444570D01*
X138870278Y-98444570D02*
X139013135Y-98444570D01*
X139013135Y-98444570D02*
X139108373Y-98492189D01*
X139108373Y-98492189D02*
X139155992Y-98539808D01*
X139155992Y-98539808D02*
X139203611Y-98635046D01*
X139203611Y-98635046D02*
X139203611Y-98873141D01*
X139203611Y-98873141D02*
X139155992Y-98968379D01*
X139155992Y-98968379D02*
X139108373Y-99015999D01*
X139108373Y-99015999D02*
X139013135Y-99063618D01*
X139013135Y-99063618D02*
X138727421Y-99063618D01*
X138727421Y-99063618D02*
X138632183Y-99015999D01*
X138632183Y-99015999D02*
X138584564Y-98968379D01*
X152176787Y-107118486D02*
X152148215Y-107147058D01*
X152148215Y-107147058D02*
X152062501Y-107175629D01*
X152062501Y-107175629D02*
X152005358Y-107175629D01*
X152005358Y-107175629D02*
X151919644Y-107147058D01*
X151919644Y-107147058D02*
X151862501Y-107089915D01*
X151862501Y-107089915D02*
X151833930Y-107032772D01*
X151833930Y-107032772D02*
X151805358Y-106918486D01*
X151805358Y-106918486D02*
X151805358Y-106832772D01*
X151805358Y-106832772D02*
X151833930Y-106718486D01*
X151833930Y-106718486D02*
X151862501Y-106661343D01*
X151862501Y-106661343D02*
X151919644Y-106604200D01*
X151919644Y-106604200D02*
X152005358Y-106575629D01*
X152005358Y-106575629D02*
X152062501Y-106575629D01*
X152062501Y-106575629D02*
X152148215Y-106604200D01*
X152148215Y-106604200D02*
X152176787Y-106632772D01*
X152376787Y-106575629D02*
X152748215Y-106575629D01*
X152748215Y-106575629D02*
X152548215Y-106804200D01*
X152548215Y-106804200D02*
X152633930Y-106804200D01*
X152633930Y-106804200D02*
X152691073Y-106832772D01*
X152691073Y-106832772D02*
X152719644Y-106861343D01*
X152719644Y-106861343D02*
X152748215Y-106918486D01*
X152748215Y-106918486D02*
X152748215Y-107061343D01*
X152748215Y-107061343D02*
X152719644Y-107118486D01*
X152719644Y-107118486D02*
X152691073Y-107147058D01*
X152691073Y-107147058D02*
X152633930Y-107175629D01*
X152633930Y-107175629D02*
X152462501Y-107175629D01*
X152462501Y-107175629D02*
X152405358Y-107147058D01*
X152405358Y-107147058D02*
X152376787Y-107118486D01*
X153119644Y-106575629D02*
X153176787Y-106575629D01*
X153176787Y-106575629D02*
X153233930Y-106604200D01*
X153233930Y-106604200D02*
X153262502Y-106632772D01*
X153262502Y-106632772D02*
X153291073Y-106689915D01*
X153291073Y-106689915D02*
X153319644Y-106804200D01*
X153319644Y-106804200D02*
X153319644Y-106947058D01*
X153319644Y-106947058D02*
X153291073Y-107061343D01*
X153291073Y-107061343D02*
X153262502Y-107118486D01*
X153262502Y-107118486D02*
X153233930Y-107147058D01*
X153233930Y-107147058D02*
X153176787Y-107175629D01*
X153176787Y-107175629D02*
X153119644Y-107175629D01*
X153119644Y-107175629D02*
X153062502Y-107147058D01*
X153062502Y-107147058D02*
X153033930Y-107118486D01*
X153033930Y-107118486D02*
X153005359Y-107061343D01*
X153005359Y-107061343D02*
X152976787Y-106947058D01*
X152976787Y-106947058D02*
X152976787Y-106804200D01*
X152976787Y-106804200D02*
X153005359Y-106689915D01*
X153005359Y-106689915D02*
X153033930Y-106632772D01*
X153033930Y-106632772D02*
X153062502Y-106604200D01*
X153062502Y-106604200D02*
X153119644Y-106575629D01*
X145561856Y-101194475D02*
X145590428Y-101223047D01*
X145590428Y-101223047D02*
X145618999Y-101308761D01*
X145618999Y-101308761D02*
X145618999Y-101365904D01*
X145618999Y-101365904D02*
X145590428Y-101451618D01*
X145590428Y-101451618D02*
X145533285Y-101508761D01*
X145533285Y-101508761D02*
X145476142Y-101537332D01*
X145476142Y-101537332D02*
X145361856Y-101565904D01*
X145361856Y-101565904D02*
X145276142Y-101565904D01*
X145276142Y-101565904D02*
X145161856Y-101537332D01*
X145161856Y-101537332D02*
X145104713Y-101508761D01*
X145104713Y-101508761D02*
X145047570Y-101451618D01*
X145047570Y-101451618D02*
X145018999Y-101365904D01*
X145018999Y-101365904D02*
X145018999Y-101308761D01*
X145018999Y-101308761D02*
X145047570Y-101223047D01*
X145047570Y-101223047D02*
X145076142Y-101194475D01*
X145076142Y-100965904D02*
X145047570Y-100937332D01*
X145047570Y-100937332D02*
X145018999Y-100880190D01*
X145018999Y-100880190D02*
X145018999Y-100737332D01*
X145018999Y-100737332D02*
X145047570Y-100680190D01*
X145047570Y-100680190D02*
X145076142Y-100651618D01*
X145076142Y-100651618D02*
X145133285Y-100623047D01*
X145133285Y-100623047D02*
X145190428Y-100623047D01*
X145190428Y-100623047D02*
X145276142Y-100651618D01*
X145276142Y-100651618D02*
X145618999Y-100994475D01*
X145618999Y-100994475D02*
X145618999Y-100623047D01*
X145218999Y-100108761D02*
X145618999Y-100108761D01*
X144990428Y-100251618D02*
X145418999Y-100394475D01*
X145418999Y-100394475D02*
X145418999Y-100023046D01*
X140717568Y-102617226D02*
X140517568Y-102331512D01*
X140374711Y-102617226D02*
X140374711Y-102017226D01*
X140374711Y-102017226D02*
X140603282Y-102017226D01*
X140603282Y-102017226D02*
X140660425Y-102045797D01*
X140660425Y-102045797D02*
X140688996Y-102074369D01*
X140688996Y-102074369D02*
X140717568Y-102131512D01*
X140717568Y-102131512D02*
X140717568Y-102217226D01*
X140717568Y-102217226D02*
X140688996Y-102274369D01*
X140688996Y-102274369D02*
X140660425Y-102302940D01*
X140660425Y-102302940D02*
X140603282Y-102331512D01*
X140603282Y-102331512D02*
X140374711Y-102331512D01*
X141231854Y-102217226D02*
X141231854Y-102617226D01*
X141088996Y-101988655D02*
X140946139Y-102417226D01*
X140946139Y-102417226D02*
X141317568Y-102417226D01*
X152171516Y-106466409D02*
X152142944Y-106494981D01*
X152142944Y-106494981D02*
X152057230Y-106523552D01*
X152057230Y-106523552D02*
X152000087Y-106523552D01*
X152000087Y-106523552D02*
X151914373Y-106494981D01*
X151914373Y-106494981D02*
X151857230Y-106437838D01*
X151857230Y-106437838D02*
X151828659Y-106380695D01*
X151828659Y-106380695D02*
X151800087Y-106266409D01*
X151800087Y-106266409D02*
X151800087Y-106180695D01*
X151800087Y-106180695D02*
X151828659Y-106066409D01*
X151828659Y-106066409D02*
X151857230Y-106009266D01*
X151857230Y-106009266D02*
X151914373Y-105952123D01*
X151914373Y-105952123D02*
X152000087Y-105923552D01*
X152000087Y-105923552D02*
X152057230Y-105923552D01*
X152057230Y-105923552D02*
X152142944Y-105952123D01*
X152142944Y-105952123D02*
X152171516Y-105980695D01*
X152371516Y-105923552D02*
X152742944Y-105923552D01*
X152742944Y-105923552D02*
X152542944Y-106152123D01*
X152542944Y-106152123D02*
X152628659Y-106152123D01*
X152628659Y-106152123D02*
X152685802Y-106180695D01*
X152685802Y-106180695D02*
X152714373Y-106209266D01*
X152714373Y-106209266D02*
X152742944Y-106266409D01*
X152742944Y-106266409D02*
X152742944Y-106409266D01*
X152742944Y-106409266D02*
X152714373Y-106466409D01*
X152714373Y-106466409D02*
X152685802Y-106494981D01*
X152685802Y-106494981D02*
X152628659Y-106523552D01*
X152628659Y-106523552D02*
X152457230Y-106523552D01*
X152457230Y-106523552D02*
X152400087Y-106494981D01*
X152400087Y-106494981D02*
X152371516Y-106466409D01*
X153314373Y-106523552D02*
X152971516Y-106523552D01*
X153142945Y-106523552D02*
X153142945Y-105923552D01*
X153142945Y-105923552D02*
X153085802Y-106009266D01*
X153085802Y-106009266D02*
X153028659Y-106066409D01*
X153028659Y-106066409D02*
X152971516Y-106094981D01*
X141048413Y-106266335D02*
X141076985Y-106294907D01*
X141076985Y-106294907D02*
X141105556Y-106380621D01*
X141105556Y-106380621D02*
X141105556Y-106437764D01*
X141105556Y-106437764D02*
X141076985Y-106523478D01*
X141076985Y-106523478D02*
X141019842Y-106580621D01*
X141019842Y-106580621D02*
X140962699Y-106609192D01*
X140962699Y-106609192D02*
X140848413Y-106637764D01*
X140848413Y-106637764D02*
X140762699Y-106637764D01*
X140762699Y-106637764D02*
X140648413Y-106609192D01*
X140648413Y-106609192D02*
X140591270Y-106580621D01*
X140591270Y-106580621D02*
X140534127Y-106523478D01*
X140534127Y-106523478D02*
X140505556Y-106437764D01*
X140505556Y-106437764D02*
X140505556Y-106380621D01*
X140505556Y-106380621D02*
X140534127Y-106294907D01*
X140534127Y-106294907D02*
X140562699Y-106266335D01*
X141105556Y-105980621D02*
X141105556Y-105866335D01*
X141105556Y-105866335D02*
X141076985Y-105809192D01*
X141076985Y-105809192D02*
X141048413Y-105780621D01*
X141048413Y-105780621D02*
X140962699Y-105723478D01*
X140962699Y-105723478D02*
X140848413Y-105694907D01*
X140848413Y-105694907D02*
X140619842Y-105694907D01*
X140619842Y-105694907D02*
X140562699Y-105723478D01*
X140562699Y-105723478D02*
X140534127Y-105752050D01*
X140534127Y-105752050D02*
X140505556Y-105809192D01*
X140505556Y-105809192D02*
X140505556Y-105923478D01*
X140505556Y-105923478D02*
X140534127Y-105980621D01*
X140534127Y-105980621D02*
X140562699Y-106009192D01*
X140562699Y-106009192D02*
X140619842Y-106037764D01*
X140619842Y-106037764D02*
X140762699Y-106037764D01*
X140762699Y-106037764D02*
X140819842Y-106009192D01*
X140819842Y-106009192D02*
X140848413Y-105980621D01*
X140848413Y-105980621D02*
X140876985Y-105923478D01*
X140876985Y-105923478D02*
X140876985Y-105809192D01*
X140876985Y-105809192D02*
X140848413Y-105752050D01*
X140848413Y-105752050D02*
X140819842Y-105723478D01*
X140819842Y-105723478D02*
X140762699Y-105694907D01*
X140722064Y-103200296D02*
X140522064Y-102914582D01*
X140379207Y-103200296D02*
X140379207Y-102600296D01*
X140379207Y-102600296D02*
X140607778Y-102600296D01*
X140607778Y-102600296D02*
X140664921Y-102628867D01*
X140664921Y-102628867D02*
X140693492Y-102657439D01*
X140693492Y-102657439D02*
X140722064Y-102714582D01*
X140722064Y-102714582D02*
X140722064Y-102800296D01*
X140722064Y-102800296D02*
X140693492Y-102857439D01*
X140693492Y-102857439D02*
X140664921Y-102886010D01*
X140664921Y-102886010D02*
X140607778Y-102914582D01*
X140607778Y-102914582D02*
X140379207Y-102914582D01*
X140922064Y-102600296D02*
X141293492Y-102600296D01*
X141293492Y-102600296D02*
X141093492Y-102828867D01*
X141093492Y-102828867D02*
X141179207Y-102828867D01*
X141179207Y-102828867D02*
X141236350Y-102857439D01*
X141236350Y-102857439D02*
X141264921Y-102886010D01*
X141264921Y-102886010D02*
X141293492Y-102943153D01*
X141293492Y-102943153D02*
X141293492Y-103086010D01*
X141293492Y-103086010D02*
X141264921Y-103143153D01*
X141264921Y-103143153D02*
X141236350Y-103171725D01*
X141236350Y-103171725D02*
X141179207Y-103200296D01*
X141179207Y-103200296D02*
X141007778Y-103200296D01*
X141007778Y-103200296D02*
X140950635Y-103171725D01*
X140950635Y-103171725D02*
X140922064Y-103143153D01*
X141692098Y-103197850D02*
X141492098Y-102912136D01*
X141349241Y-103197850D02*
X141349241Y-102597850D01*
X141349241Y-102597850D02*
X141577812Y-102597850D01*
X141577812Y-102597850D02*
X141634955Y-102626421D01*
X141634955Y-102626421D02*
X141663526Y-102654993D01*
X141663526Y-102654993D02*
X141692098Y-102712136D01*
X141692098Y-102712136D02*
X141692098Y-102797850D01*
X141692098Y-102797850D02*
X141663526Y-102854993D01*
X141663526Y-102854993D02*
X141634955Y-102883564D01*
X141634955Y-102883564D02*
X141577812Y-102912136D01*
X141577812Y-102912136D02*
X141349241Y-102912136D01*
X141920669Y-102654993D02*
X141949241Y-102626421D01*
X141949241Y-102626421D02*
X142006384Y-102597850D01*
X142006384Y-102597850D02*
X142149241Y-102597850D01*
X142149241Y-102597850D02*
X142206384Y-102626421D01*
X142206384Y-102626421D02*
X142234955Y-102654993D01*
X142234955Y-102654993D02*
X142263526Y-102712136D01*
X142263526Y-102712136D02*
X142263526Y-102769279D01*
X142263526Y-102769279D02*
X142234955Y-102854993D01*
X142234955Y-102854993D02*
X141892098Y-103197850D01*
X141892098Y-103197850D02*
X142263526Y-103197850D01*
X143812463Y-105161574D02*
X143841035Y-105190146D01*
X143841035Y-105190146D02*
X143869606Y-105275860D01*
X143869606Y-105275860D02*
X143869606Y-105333003D01*
X143869606Y-105333003D02*
X143841035Y-105418717D01*
X143841035Y-105418717D02*
X143783892Y-105475860D01*
X143783892Y-105475860D02*
X143726749Y-105504431D01*
X143726749Y-105504431D02*
X143612463Y-105533003D01*
X143612463Y-105533003D02*
X143526749Y-105533003D01*
X143526749Y-105533003D02*
X143412463Y-105504431D01*
X143412463Y-105504431D02*
X143355320Y-105475860D01*
X143355320Y-105475860D02*
X143298177Y-105418717D01*
X143298177Y-105418717D02*
X143269606Y-105333003D01*
X143269606Y-105333003D02*
X143269606Y-105275860D01*
X143269606Y-105275860D02*
X143298177Y-105190146D01*
X143298177Y-105190146D02*
X143326749Y-105161574D01*
X143869606Y-104590146D02*
X143869606Y-104933003D01*
X143869606Y-104761574D02*
X143269606Y-104761574D01*
X143269606Y-104761574D02*
X143355320Y-104818717D01*
X143355320Y-104818717D02*
X143412463Y-104875860D01*
X143412463Y-104875860D02*
X143441035Y-104933003D01*
X143469606Y-104075860D02*
X143869606Y-104075860D01*
X143241035Y-104218717D02*
X143669606Y-104361574D01*
X143669606Y-104361574D02*
X143669606Y-103990145D01*
X140987765Y-105307320D02*
X141016337Y-105335892D01*
X141016337Y-105335892D02*
X141044908Y-105421606D01*
X141044908Y-105421606D02*
X141044908Y-105478749D01*
X141044908Y-105478749D02*
X141016337Y-105564463D01*
X141016337Y-105564463D02*
X140959194Y-105621606D01*
X140959194Y-105621606D02*
X140902051Y-105650177D01*
X140902051Y-105650177D02*
X140787765Y-105678749D01*
X140787765Y-105678749D02*
X140702051Y-105678749D01*
X140702051Y-105678749D02*
X140587765Y-105650177D01*
X140587765Y-105650177D02*
X140530622Y-105621606D01*
X140530622Y-105621606D02*
X140473479Y-105564463D01*
X140473479Y-105564463D02*
X140444908Y-105478749D01*
X140444908Y-105478749D02*
X140444908Y-105421606D01*
X140444908Y-105421606D02*
X140473479Y-105335892D01*
X140473479Y-105335892D02*
X140502051Y-105307320D01*
X141044908Y-104735892D02*
X141044908Y-105078749D01*
X141044908Y-104907320D02*
X140444908Y-104907320D01*
X140444908Y-104907320D02*
X140530622Y-104964463D01*
X140530622Y-104964463D02*
X140587765Y-105021606D01*
X140587765Y-105021606D02*
X140616337Y-105078749D01*
X140444908Y-104364463D02*
X140444908Y-104307320D01*
X140444908Y-104307320D02*
X140473479Y-104250177D01*
X140473479Y-104250177D02*
X140502051Y-104221606D01*
X140502051Y-104221606D02*
X140559194Y-104193034D01*
X140559194Y-104193034D02*
X140673479Y-104164463D01*
X140673479Y-104164463D02*
X140816337Y-104164463D01*
X140816337Y-104164463D02*
X140930622Y-104193034D01*
X140930622Y-104193034D02*
X140987765Y-104221606D01*
X140987765Y-104221606D02*
X141016337Y-104250177D01*
X141016337Y-104250177D02*
X141044908Y-104307320D01*
X141044908Y-104307320D02*
X141044908Y-104364463D01*
X141044908Y-104364463D02*
X141016337Y-104421606D01*
X141016337Y-104421606D02*
X140987765Y-104450177D01*
X140987765Y-104450177D02*
X140930622Y-104478748D01*
X140930622Y-104478748D02*
X140816337Y-104507320D01*
X140816337Y-104507320D02*
X140673479Y-104507320D01*
X140673479Y-104507320D02*
X140559194Y-104478748D01*
X140559194Y-104478748D02*
X140502051Y-104450177D01*
X140502051Y-104450177D02*
X140473479Y-104421606D01*
X140473479Y-104421606D02*
X140444908Y-104364463D01*
X152650900Y-103598565D02*
X152679472Y-103627137D01*
X152679472Y-103627137D02*
X152708043Y-103712851D01*
X152708043Y-103712851D02*
X152708043Y-103769994D01*
X152708043Y-103769994D02*
X152679472Y-103855708D01*
X152679472Y-103855708D02*
X152622329Y-103912851D01*
X152622329Y-103912851D02*
X152565186Y-103941422D01*
X152565186Y-103941422D02*
X152450900Y-103969994D01*
X152450900Y-103969994D02*
X152365186Y-103969994D01*
X152365186Y-103969994D02*
X152250900Y-103941422D01*
X152250900Y-103941422D02*
X152193757Y-103912851D01*
X152193757Y-103912851D02*
X152136614Y-103855708D01*
X152136614Y-103855708D02*
X152108043Y-103769994D01*
X152108043Y-103769994D02*
X152108043Y-103712851D01*
X152108043Y-103712851D02*
X152136614Y-103627137D01*
X152136614Y-103627137D02*
X152165186Y-103598565D01*
X152108043Y-103398565D02*
X152108043Y-103027137D01*
X152108043Y-103027137D02*
X152336614Y-103227137D01*
X152336614Y-103227137D02*
X152336614Y-103141422D01*
X152336614Y-103141422D02*
X152365186Y-103084280D01*
X152365186Y-103084280D02*
X152393757Y-103055708D01*
X152393757Y-103055708D02*
X152450900Y-103027137D01*
X152450900Y-103027137D02*
X152593757Y-103027137D01*
X152593757Y-103027137D02*
X152650900Y-103055708D01*
X152650900Y-103055708D02*
X152679472Y-103084280D01*
X152679472Y-103084280D02*
X152708043Y-103141422D01*
X152708043Y-103141422D02*
X152708043Y-103312851D01*
X152708043Y-103312851D02*
X152679472Y-103369994D01*
X152679472Y-103369994D02*
X152650900Y-103398565D01*
X152108043Y-102827136D02*
X152108043Y-102455708D01*
X152108043Y-102455708D02*
X152336614Y-102655708D01*
X152336614Y-102655708D02*
X152336614Y-102569993D01*
X152336614Y-102569993D02*
X152365186Y-102512851D01*
X152365186Y-102512851D02*
X152393757Y-102484279D01*
X152393757Y-102484279D02*
X152450900Y-102455708D01*
X152450900Y-102455708D02*
X152593757Y-102455708D01*
X152593757Y-102455708D02*
X152650900Y-102484279D01*
X152650900Y-102484279D02*
X152679472Y-102512851D01*
X152679472Y-102512851D02*
X152708043Y-102569993D01*
X152708043Y-102569993D02*
X152708043Y-102741422D01*
X152708043Y-102741422D02*
X152679472Y-102798565D01*
X152679472Y-102798565D02*
X152650900Y-102827136D01*
X146025424Y-103834525D02*
X146053996Y-103863097D01*
X146053996Y-103863097D02*
X146082567Y-103948811D01*
X146082567Y-103948811D02*
X146082567Y-104005954D01*
X146082567Y-104005954D02*
X146053996Y-104091668D01*
X146053996Y-104091668D02*
X145996853Y-104148811D01*
X145996853Y-104148811D02*
X145939710Y-104177382D01*
X145939710Y-104177382D02*
X145825424Y-104205954D01*
X145825424Y-104205954D02*
X145739710Y-104205954D01*
X145739710Y-104205954D02*
X145625424Y-104177382D01*
X145625424Y-104177382D02*
X145568281Y-104148811D01*
X145568281Y-104148811D02*
X145511138Y-104091668D01*
X145511138Y-104091668D02*
X145482567Y-104005954D01*
X145482567Y-104005954D02*
X145482567Y-103948811D01*
X145482567Y-103948811D02*
X145511138Y-103863097D01*
X145511138Y-103863097D02*
X145539710Y-103834525D01*
X145539710Y-103605954D02*
X145511138Y-103577382D01*
X145511138Y-103577382D02*
X145482567Y-103520240D01*
X145482567Y-103520240D02*
X145482567Y-103377382D01*
X145482567Y-103377382D02*
X145511138Y-103320240D01*
X145511138Y-103320240D02*
X145539710Y-103291668D01*
X145539710Y-103291668D02*
X145596853Y-103263097D01*
X145596853Y-103263097D02*
X145653996Y-103263097D01*
X145653996Y-103263097D02*
X145739710Y-103291668D01*
X145739710Y-103291668D02*
X146082567Y-103634525D01*
X146082567Y-103634525D02*
X146082567Y-103263097D01*
X145539710Y-103034525D02*
X145511138Y-103005953D01*
X145511138Y-103005953D02*
X145482567Y-102948811D01*
X145482567Y-102948811D02*
X145482567Y-102805953D01*
X145482567Y-102805953D02*
X145511138Y-102748811D01*
X145511138Y-102748811D02*
X145539710Y-102720239D01*
X145539710Y-102720239D02*
X145596853Y-102691668D01*
X145596853Y-102691668D02*
X145653996Y-102691668D01*
X145653996Y-102691668D02*
X145739710Y-102720239D01*
X145739710Y-102720239D02*
X146082567Y-103063096D01*
X146082567Y-103063096D02*
X146082567Y-102691668D01*
X146409941Y-101216552D02*
X146438513Y-101245124D01*
X146438513Y-101245124D02*
X146467084Y-101330838D01*
X146467084Y-101330838D02*
X146467084Y-101387981D01*
X146467084Y-101387981D02*
X146438513Y-101473695D01*
X146438513Y-101473695D02*
X146381370Y-101530838D01*
X146381370Y-101530838D02*
X146324227Y-101559409D01*
X146324227Y-101559409D02*
X146209941Y-101587981D01*
X146209941Y-101587981D02*
X146124227Y-101587981D01*
X146124227Y-101587981D02*
X146009941Y-101559409D01*
X146009941Y-101559409D02*
X145952798Y-101530838D01*
X145952798Y-101530838D02*
X145895655Y-101473695D01*
X145895655Y-101473695D02*
X145867084Y-101387981D01*
X145867084Y-101387981D02*
X145867084Y-101330838D01*
X145867084Y-101330838D02*
X145895655Y-101245124D01*
X145895655Y-101245124D02*
X145924227Y-101216552D01*
X145924227Y-100987981D02*
X145895655Y-100959409D01*
X145895655Y-100959409D02*
X145867084Y-100902267D01*
X145867084Y-100902267D02*
X145867084Y-100759409D01*
X145867084Y-100759409D02*
X145895655Y-100702267D01*
X145895655Y-100702267D02*
X145924227Y-100673695D01*
X145924227Y-100673695D02*
X145981370Y-100645124D01*
X145981370Y-100645124D02*
X146038513Y-100645124D01*
X146038513Y-100645124D02*
X146124227Y-100673695D01*
X146124227Y-100673695D02*
X146467084Y-101016552D01*
X146467084Y-101016552D02*
X146467084Y-100645124D01*
X145867084Y-100445123D02*
X145867084Y-100073695D01*
X145867084Y-100073695D02*
X146095655Y-100273695D01*
X146095655Y-100273695D02*
X146095655Y-100187980D01*
X146095655Y-100187980D02*
X146124227Y-100130838D01*
X146124227Y-100130838D02*
X146152798Y-100102266D01*
X146152798Y-100102266D02*
X146209941Y-100073695D01*
X146209941Y-100073695D02*
X146352798Y-100073695D01*
X146352798Y-100073695D02*
X146409941Y-100102266D01*
X146409941Y-100102266D02*
X146438513Y-100130838D01*
X146438513Y-100130838D02*
X146467084Y-100187980D01*
X146467084Y-100187980D02*
X146467084Y-100359409D01*
X146467084Y-100359409D02*
X146438513Y-100416552D01*
X146438513Y-100416552D02*
X146409941Y-100445123D01*
X151503909Y-103618903D02*
X151532481Y-103647475D01*
X151532481Y-103647475D02*
X151561052Y-103733189D01*
X151561052Y-103733189D02*
X151561052Y-103790332D01*
X151561052Y-103790332D02*
X151532481Y-103876046D01*
X151532481Y-103876046D02*
X151475338Y-103933189D01*
X151475338Y-103933189D02*
X151418195Y-103961760D01*
X151418195Y-103961760D02*
X151303909Y-103990332D01*
X151303909Y-103990332D02*
X151218195Y-103990332D01*
X151218195Y-103990332D02*
X151103909Y-103961760D01*
X151103909Y-103961760D02*
X151046766Y-103933189D01*
X151046766Y-103933189D02*
X150989623Y-103876046D01*
X150989623Y-103876046D02*
X150961052Y-103790332D01*
X150961052Y-103790332D02*
X150961052Y-103733189D01*
X150961052Y-103733189D02*
X150989623Y-103647475D01*
X150989623Y-103647475D02*
X151018195Y-103618903D01*
X150961052Y-103418903D02*
X150961052Y-103047475D01*
X150961052Y-103047475D02*
X151189623Y-103247475D01*
X151189623Y-103247475D02*
X151189623Y-103161760D01*
X151189623Y-103161760D02*
X151218195Y-103104618D01*
X151218195Y-103104618D02*
X151246766Y-103076046D01*
X151246766Y-103076046D02*
X151303909Y-103047475D01*
X151303909Y-103047475D02*
X151446766Y-103047475D01*
X151446766Y-103047475D02*
X151503909Y-103076046D01*
X151503909Y-103076046D02*
X151532481Y-103104618D01*
X151532481Y-103104618D02*
X151561052Y-103161760D01*
X151561052Y-103161760D02*
X151561052Y-103333189D01*
X151561052Y-103333189D02*
X151532481Y-103390332D01*
X151532481Y-103390332D02*
X151503909Y-103418903D01*
X151161052Y-102533189D02*
X151561052Y-102533189D01*
X150932481Y-102676046D02*
X151361052Y-102818903D01*
X151361052Y-102818903D02*
X151361052Y-102447474D01*
X145525645Y-113620847D02*
X145497073Y-113649419D01*
X145497073Y-113649419D02*
X145411359Y-113677990D01*
X145411359Y-113677990D02*
X145354216Y-113677990D01*
X145354216Y-113677990D02*
X145268502Y-113649419D01*
X145268502Y-113649419D02*
X145211359Y-113592276D01*
X145211359Y-113592276D02*
X145182788Y-113535133D01*
X145182788Y-113535133D02*
X145154216Y-113420847D01*
X145154216Y-113420847D02*
X145154216Y-113335133D01*
X145154216Y-113335133D02*
X145182788Y-113220847D01*
X145182788Y-113220847D02*
X145211359Y-113163704D01*
X145211359Y-113163704D02*
X145268502Y-113106561D01*
X145268502Y-113106561D02*
X145354216Y-113077990D01*
X145354216Y-113077990D02*
X145411359Y-113077990D01*
X145411359Y-113077990D02*
X145497073Y-113106561D01*
X145497073Y-113106561D02*
X145525645Y-113135133D01*
X146039931Y-113077990D02*
X145925645Y-113077990D01*
X145925645Y-113077990D02*
X145868502Y-113106561D01*
X145868502Y-113106561D02*
X145839931Y-113135133D01*
X145839931Y-113135133D02*
X145782788Y-113220847D01*
X145782788Y-113220847D02*
X145754216Y-113335133D01*
X145754216Y-113335133D02*
X145754216Y-113563704D01*
X145754216Y-113563704D02*
X145782788Y-113620847D01*
X145782788Y-113620847D02*
X145811359Y-113649419D01*
X145811359Y-113649419D02*
X145868502Y-113677990D01*
X145868502Y-113677990D02*
X145982788Y-113677990D01*
X145982788Y-113677990D02*
X146039931Y-113649419D01*
X146039931Y-113649419D02*
X146068502Y-113620847D01*
X146068502Y-113620847D02*
X146097073Y-113563704D01*
X146097073Y-113563704D02*
X146097073Y-113420847D01*
X146097073Y-113420847D02*
X146068502Y-113363704D01*
X146068502Y-113363704D02*
X146039931Y-113335133D01*
X146039931Y-113335133D02*
X145982788Y-113306561D01*
X145982788Y-113306561D02*
X145868502Y-113306561D01*
X145868502Y-113306561D02*
X145811359Y-113335133D01*
X145811359Y-113335133D02*
X145782788Y-113363704D01*
X145782788Y-113363704D02*
X145754216Y-113420847D01*
X145507477Y-111217295D02*
X145478905Y-111245867D01*
X145478905Y-111245867D02*
X145393191Y-111274438D01*
X145393191Y-111274438D02*
X145336048Y-111274438D01*
X145336048Y-111274438D02*
X145250334Y-111245867D01*
X145250334Y-111245867D02*
X145193191Y-111188724D01*
X145193191Y-111188724D02*
X145164620Y-111131581D01*
X145164620Y-111131581D02*
X145136048Y-111017295D01*
X145136048Y-111017295D02*
X145136048Y-110931581D01*
X145136048Y-110931581D02*
X145164620Y-110817295D01*
X145164620Y-110817295D02*
X145193191Y-110760152D01*
X145193191Y-110760152D02*
X145250334Y-110703009D01*
X145250334Y-110703009D02*
X145336048Y-110674438D01*
X145336048Y-110674438D02*
X145393191Y-110674438D01*
X145393191Y-110674438D02*
X145478905Y-110703009D01*
X145478905Y-110703009D02*
X145507477Y-110731581D01*
X146021763Y-110874438D02*
X146021763Y-111274438D01*
X145878905Y-110645867D02*
X145736048Y-111074438D01*
X145736048Y-111074438D02*
X146107477Y-111074438D01*
X143364823Y-113964397D02*
X143336251Y-113992969D01*
X143336251Y-113992969D02*
X143250537Y-114021540D01*
X143250537Y-114021540D02*
X143193394Y-114021540D01*
X143193394Y-114021540D02*
X143107680Y-113992969D01*
X143107680Y-113992969D02*
X143050537Y-113935826D01*
X143050537Y-113935826D02*
X143021966Y-113878683D01*
X143021966Y-113878683D02*
X142993394Y-113764397D01*
X142993394Y-113764397D02*
X142993394Y-113678683D01*
X142993394Y-113678683D02*
X143021966Y-113564397D01*
X143021966Y-113564397D02*
X143050537Y-113507254D01*
X143050537Y-113507254D02*
X143107680Y-113450111D01*
X143107680Y-113450111D02*
X143193394Y-113421540D01*
X143193394Y-113421540D02*
X143250537Y-113421540D01*
X143250537Y-113421540D02*
X143336251Y-113450111D01*
X143336251Y-113450111D02*
X143364823Y-113478683D01*
X143907680Y-113421540D02*
X143621966Y-113421540D01*
X143621966Y-113421540D02*
X143593394Y-113707254D01*
X143593394Y-113707254D02*
X143621966Y-113678683D01*
X143621966Y-113678683D02*
X143679109Y-113650111D01*
X143679109Y-113650111D02*
X143821966Y-113650111D01*
X143821966Y-113650111D02*
X143879109Y-113678683D01*
X143879109Y-113678683D02*
X143907680Y-113707254D01*
X143907680Y-113707254D02*
X143936251Y-113764397D01*
X143936251Y-113764397D02*
X143936251Y-113907254D01*
X143936251Y-113907254D02*
X143907680Y-113964397D01*
X143907680Y-113964397D02*
X143879109Y-113992969D01*
X143879109Y-113992969D02*
X143821966Y-114021540D01*
X143821966Y-114021540D02*
X143679109Y-114021540D01*
X143679109Y-114021540D02*
X143621966Y-113992969D01*
X143621966Y-113992969D02*
X143593394Y-113964397D01*
X152155152Y-105316034D02*
X152126580Y-105344606D01*
X152126580Y-105344606D02*
X152040866Y-105373177D01*
X152040866Y-105373177D02*
X151983723Y-105373177D01*
X151983723Y-105373177D02*
X151898009Y-105344606D01*
X151898009Y-105344606D02*
X151840866Y-105287463D01*
X151840866Y-105287463D02*
X151812295Y-105230320D01*
X151812295Y-105230320D02*
X151783723Y-105116034D01*
X151783723Y-105116034D02*
X151783723Y-105030320D01*
X151783723Y-105030320D02*
X151812295Y-104916034D01*
X151812295Y-104916034D02*
X151840866Y-104858891D01*
X151840866Y-104858891D02*
X151898009Y-104801748D01*
X151898009Y-104801748D02*
X151983723Y-104773177D01*
X151983723Y-104773177D02*
X152040866Y-104773177D01*
X152040866Y-104773177D02*
X152126580Y-104801748D01*
X152126580Y-104801748D02*
X152155152Y-104830320D01*
X152355152Y-104773177D02*
X152726580Y-104773177D01*
X152726580Y-104773177D02*
X152526580Y-105001748D01*
X152526580Y-105001748D02*
X152612295Y-105001748D01*
X152612295Y-105001748D02*
X152669438Y-105030320D01*
X152669438Y-105030320D02*
X152698009Y-105058891D01*
X152698009Y-105058891D02*
X152726580Y-105116034D01*
X152726580Y-105116034D02*
X152726580Y-105258891D01*
X152726580Y-105258891D02*
X152698009Y-105316034D01*
X152698009Y-105316034D02*
X152669438Y-105344606D01*
X152669438Y-105344606D02*
X152612295Y-105373177D01*
X152612295Y-105373177D02*
X152440866Y-105373177D01*
X152440866Y-105373177D02*
X152383723Y-105344606D01*
X152383723Y-105344606D02*
X152355152Y-105316034D01*
X153012295Y-105373177D02*
X153126581Y-105373177D01*
X153126581Y-105373177D02*
X153183724Y-105344606D01*
X153183724Y-105344606D02*
X153212295Y-105316034D01*
X153212295Y-105316034D02*
X153269438Y-105230320D01*
X153269438Y-105230320D02*
X153298009Y-105116034D01*
X153298009Y-105116034D02*
X153298009Y-104887463D01*
X153298009Y-104887463D02*
X153269438Y-104830320D01*
X153269438Y-104830320D02*
X153240867Y-104801748D01*
X153240867Y-104801748D02*
X153183724Y-104773177D01*
X153183724Y-104773177D02*
X153069438Y-104773177D01*
X153069438Y-104773177D02*
X153012295Y-104801748D01*
X153012295Y-104801748D02*
X152983724Y-104830320D01*
X152983724Y-104830320D02*
X152955152Y-104887463D01*
X152955152Y-104887463D02*
X152955152Y-105030320D01*
X152955152Y-105030320D02*
X152983724Y-105087463D01*
X152983724Y-105087463D02*
X153012295Y-105116034D01*
X153012295Y-105116034D02*
X153069438Y-105144606D01*
X153069438Y-105144606D02*
X153183724Y-105144606D01*
X153183724Y-105144606D02*
X153240867Y-105116034D01*
X153240867Y-105116034D02*
X153269438Y-105087463D01*
X153269438Y-105087463D02*
X153298009Y-105030320D01*
X152089656Y-103605505D02*
X152118228Y-103634077D01*
X152118228Y-103634077D02*
X152146799Y-103719791D01*
X152146799Y-103719791D02*
X152146799Y-103776934D01*
X152146799Y-103776934D02*
X152118228Y-103862648D01*
X152118228Y-103862648D02*
X152061085Y-103919791D01*
X152061085Y-103919791D02*
X152003942Y-103948362D01*
X152003942Y-103948362D02*
X151889656Y-103976934D01*
X151889656Y-103976934D02*
X151803942Y-103976934D01*
X151803942Y-103976934D02*
X151689656Y-103948362D01*
X151689656Y-103948362D02*
X151632513Y-103919791D01*
X151632513Y-103919791D02*
X151575370Y-103862648D01*
X151575370Y-103862648D02*
X151546799Y-103776934D01*
X151546799Y-103776934D02*
X151546799Y-103719791D01*
X151546799Y-103719791D02*
X151575370Y-103634077D01*
X151575370Y-103634077D02*
X151603942Y-103605505D01*
X151546799Y-103405505D02*
X151546799Y-103034077D01*
X151546799Y-103034077D02*
X151775370Y-103234077D01*
X151775370Y-103234077D02*
X151775370Y-103148362D01*
X151775370Y-103148362D02*
X151803942Y-103091220D01*
X151803942Y-103091220D02*
X151832513Y-103062648D01*
X151832513Y-103062648D02*
X151889656Y-103034077D01*
X151889656Y-103034077D02*
X152032513Y-103034077D01*
X152032513Y-103034077D02*
X152089656Y-103062648D01*
X152089656Y-103062648D02*
X152118228Y-103091220D01*
X152118228Y-103091220D02*
X152146799Y-103148362D01*
X152146799Y-103148362D02*
X152146799Y-103319791D01*
X152146799Y-103319791D02*
X152118228Y-103376934D01*
X152118228Y-103376934D02*
X152089656Y-103405505D01*
X151546799Y-102491219D02*
X151546799Y-102776933D01*
X151546799Y-102776933D02*
X151832513Y-102805505D01*
X151832513Y-102805505D02*
X151803942Y-102776933D01*
X151803942Y-102776933D02*
X151775370Y-102719791D01*
X151775370Y-102719791D02*
X151775370Y-102576933D01*
X151775370Y-102576933D02*
X151803942Y-102519791D01*
X151803942Y-102519791D02*
X151832513Y-102491219D01*
X151832513Y-102491219D02*
X151889656Y-102462648D01*
X151889656Y-102462648D02*
X152032513Y-102462648D01*
X152032513Y-102462648D02*
X152089656Y-102491219D01*
X152089656Y-102491219D02*
X152118228Y-102519791D01*
X152118228Y-102519791D02*
X152146799Y-102576933D01*
X152146799Y-102576933D02*
X152146799Y-102719791D01*
X152146799Y-102719791D02*
X152118228Y-102776933D01*
X152118228Y-102776933D02*
X152089656Y-102805505D01*
X140233677Y-107914679D02*
X140262249Y-107943251D01*
X140262249Y-107943251D02*
X140290820Y-108028965D01*
X140290820Y-108028965D02*
X140290820Y-108086108D01*
X140290820Y-108086108D02*
X140262249Y-108171822D01*
X140262249Y-108171822D02*
X140205106Y-108228965D01*
X140205106Y-108228965D02*
X140147963Y-108257536D01*
X140147963Y-108257536D02*
X140033677Y-108286108D01*
X140033677Y-108286108D02*
X139947963Y-108286108D01*
X139947963Y-108286108D02*
X139833677Y-108257536D01*
X139833677Y-108257536D02*
X139776534Y-108228965D01*
X139776534Y-108228965D02*
X139719391Y-108171822D01*
X139719391Y-108171822D02*
X139690820Y-108086108D01*
X139690820Y-108086108D02*
X139690820Y-108028965D01*
X139690820Y-108028965D02*
X139719391Y-107943251D01*
X139719391Y-107943251D02*
X139747963Y-107914679D01*
X139690820Y-107714679D02*
X139690820Y-107314679D01*
X139690820Y-107314679D02*
X140290820Y-107571822D01*
X145330000Y-103533615D02*
X145937143Y-103533615D01*
X145937143Y-103533615D02*
X146008571Y-103497901D01*
X146008571Y-103497901D02*
X146044286Y-103462187D01*
X146044286Y-103462187D02*
X146080000Y-103390758D01*
X146080000Y-103390758D02*
X146080000Y-103247901D01*
X146080000Y-103247901D02*
X146044286Y-103176472D01*
X146044286Y-103176472D02*
X146008571Y-103140758D01*
X146008571Y-103140758D02*
X145937143Y-103105044D01*
X145937143Y-103105044D02*
X145330000Y-103105044D01*
X145330000Y-102819330D02*
X145330000Y-102355044D01*
X145330000Y-102355044D02*
X145615714Y-102605044D01*
X145615714Y-102605044D02*
X145615714Y-102497901D01*
X145615714Y-102497901D02*
X145651428Y-102426473D01*
X145651428Y-102426473D02*
X145687143Y-102390758D01*
X145687143Y-102390758D02*
X145758571Y-102355044D01*
X145758571Y-102355044D02*
X145937143Y-102355044D01*
X145937143Y-102355044D02*
X146008571Y-102390758D01*
X146008571Y-102390758D02*
X146044286Y-102426473D01*
X146044286Y-102426473D02*
X146080000Y-102497901D01*
X146080000Y-102497901D02*
X146080000Y-102712187D01*
X146080000Y-102712187D02*
X146044286Y-102783615D01*
X146044286Y-102783615D02*
X146008571Y-102819330D01*
X133694483Y-109449344D02*
X134504006Y-109449344D01*
X134504006Y-109449344D02*
X134599244Y-109401725D01*
X134599244Y-109401725D02*
X134646864Y-109354106D01*
X134646864Y-109354106D02*
X134694483Y-109258868D01*
X134694483Y-109258868D02*
X134694483Y-109068392D01*
X134694483Y-109068392D02*
X134646864Y-108973154D01*
X134646864Y-108973154D02*
X134599244Y-108925535D01*
X134599244Y-108925535D02*
X134504006Y-108877916D01*
X134504006Y-108877916D02*
X133694483Y-108877916D01*
X134694483Y-108354106D02*
X134694483Y-108163630D01*
X134694483Y-108163630D02*
X134646864Y-108068392D01*
X134646864Y-108068392D02*
X134599244Y-108020773D01*
X134599244Y-108020773D02*
X134456387Y-107925535D01*
X134456387Y-107925535D02*
X134265911Y-107877916D01*
X134265911Y-107877916D02*
X133884959Y-107877916D01*
X133884959Y-107877916D02*
X133789721Y-107925535D01*
X133789721Y-107925535D02*
X133742102Y-107973154D01*
X133742102Y-107973154D02*
X133694483Y-108068392D01*
X133694483Y-108068392D02*
X133694483Y-108258868D01*
X133694483Y-108258868D02*
X133742102Y-108354106D01*
X133742102Y-108354106D02*
X133789721Y-108401725D01*
X133789721Y-108401725D02*
X133884959Y-108449344D01*
X133884959Y-108449344D02*
X134123054Y-108449344D01*
X134123054Y-108449344D02*
X134218292Y-108401725D01*
X134218292Y-108401725D02*
X134265911Y-108354106D01*
X134265911Y-108354106D02*
X134313530Y-108258868D01*
X134313530Y-108258868D02*
X134313530Y-108068392D01*
X134313530Y-108068392D02*
X134265911Y-107973154D01*
X134265911Y-107973154D02*
X134218292Y-107925535D01*
X134218292Y-107925535D02*
X134123054Y-107877916D01*
X141042175Y-107903698D02*
X141070747Y-107932270D01*
X141070747Y-107932270D02*
X141099318Y-108017984D01*
X141099318Y-108017984D02*
X141099318Y-108075127D01*
X141099318Y-108075127D02*
X141070747Y-108160841D01*
X141070747Y-108160841D02*
X141013604Y-108217984D01*
X141013604Y-108217984D02*
X140956461Y-108246555D01*
X140956461Y-108246555D02*
X140842175Y-108275127D01*
X140842175Y-108275127D02*
X140756461Y-108275127D01*
X140756461Y-108275127D02*
X140642175Y-108246555D01*
X140642175Y-108246555D02*
X140585032Y-108217984D01*
X140585032Y-108217984D02*
X140527889Y-108160841D01*
X140527889Y-108160841D02*
X140499318Y-108075127D01*
X140499318Y-108075127D02*
X140499318Y-108017984D01*
X140499318Y-108017984D02*
X140527889Y-107932270D01*
X140527889Y-107932270D02*
X140556461Y-107903698D01*
X140756461Y-107560841D02*
X140727889Y-107617984D01*
X140727889Y-107617984D02*
X140699318Y-107646555D01*
X140699318Y-107646555D02*
X140642175Y-107675127D01*
X140642175Y-107675127D02*
X140613604Y-107675127D01*
X140613604Y-107675127D02*
X140556461Y-107646555D01*
X140556461Y-107646555D02*
X140527889Y-107617984D01*
X140527889Y-107617984D02*
X140499318Y-107560841D01*
X140499318Y-107560841D02*
X140499318Y-107446555D01*
X140499318Y-107446555D02*
X140527889Y-107389413D01*
X140527889Y-107389413D02*
X140556461Y-107360841D01*
X140556461Y-107360841D02*
X140613604Y-107332270D01*
X140613604Y-107332270D02*
X140642175Y-107332270D01*
X140642175Y-107332270D02*
X140699318Y-107360841D01*
X140699318Y-107360841D02*
X140727889Y-107389413D01*
X140727889Y-107389413D02*
X140756461Y-107446555D01*
X140756461Y-107446555D02*
X140756461Y-107560841D01*
X140756461Y-107560841D02*
X140785032Y-107617984D01*
X140785032Y-107617984D02*
X140813604Y-107646555D01*
X140813604Y-107646555D02*
X140870747Y-107675127D01*
X140870747Y-107675127D02*
X140985032Y-107675127D01*
X140985032Y-107675127D02*
X141042175Y-107646555D01*
X141042175Y-107646555D02*
X141070747Y-107617984D01*
X141070747Y-107617984D02*
X141099318Y-107560841D01*
X141099318Y-107560841D02*
X141099318Y-107446555D01*
X141099318Y-107446555D02*
X141070747Y-107389413D01*
X141070747Y-107389413D02*
X141042175Y-107360841D01*
X141042175Y-107360841D02*
X140985032Y-107332270D01*
X140985032Y-107332270D02*
X140870747Y-107332270D01*
X140870747Y-107332270D02*
X140813604Y-107360841D01*
X140813604Y-107360841D02*
X140785032Y-107389413D01*
X140785032Y-107389413D02*
X140756461Y-107446555D01*
X150143455Y-101163233D02*
X150143455Y-101972756D01*
X150143455Y-101972756D02*
X150191074Y-102067994D01*
X150191074Y-102067994D02*
X150238693Y-102115614D01*
X150238693Y-102115614D02*
X150333931Y-102163233D01*
X150333931Y-102163233D02*
X150524407Y-102163233D01*
X150524407Y-102163233D02*
X150619645Y-102115614D01*
X150619645Y-102115614D02*
X150667264Y-102067994D01*
X150667264Y-102067994D02*
X150714883Y-101972756D01*
X150714883Y-101972756D02*
X150714883Y-101163233D01*
X151619645Y-101163233D02*
X151429169Y-101163233D01*
X151429169Y-101163233D02*
X151333931Y-101210852D01*
X151333931Y-101210852D02*
X151286312Y-101258471D01*
X151286312Y-101258471D02*
X151191074Y-101401328D01*
X151191074Y-101401328D02*
X151143455Y-101591804D01*
X151143455Y-101591804D02*
X151143455Y-101972756D01*
X151143455Y-101972756D02*
X151191074Y-102067994D01*
X151191074Y-102067994D02*
X151238693Y-102115614D01*
X151238693Y-102115614D02*
X151333931Y-102163233D01*
X151333931Y-102163233D02*
X151524407Y-102163233D01*
X151524407Y-102163233D02*
X151619645Y-102115614D01*
X151619645Y-102115614D02*
X151667264Y-102067994D01*
X151667264Y-102067994D02*
X151714883Y-101972756D01*
X151714883Y-101972756D02*
X151714883Y-101734661D01*
X151714883Y-101734661D02*
X151667264Y-101639423D01*
X151667264Y-101639423D02*
X151619645Y-101591804D01*
X151619645Y-101591804D02*
X151524407Y-101544185D01*
X151524407Y-101544185D02*
X151333931Y-101544185D01*
X151333931Y-101544185D02*
X151238693Y-101591804D01*
X151238693Y-101591804D02*
X151191074Y-101639423D01*
X151191074Y-101639423D02*
X151143455Y-101734661D01*
X137447003Y-100659459D02*
X137418431Y-100688031D01*
X137418431Y-100688031D02*
X137332717Y-100716602D01*
X137332717Y-100716602D02*
X137275574Y-100716602D01*
X137275574Y-100716602D02*
X137189860Y-100688031D01*
X137189860Y-100688031D02*
X137132717Y-100630888D01*
X137132717Y-100630888D02*
X137104146Y-100573745D01*
X137104146Y-100573745D02*
X137075574Y-100459459D01*
X137075574Y-100459459D02*
X137075574Y-100373745D01*
X137075574Y-100373745D02*
X137104146Y-100259459D01*
X137104146Y-100259459D02*
X137132717Y-100202316D01*
X137132717Y-100202316D02*
X137189860Y-100145173D01*
X137189860Y-100145173D02*
X137275574Y-100116602D01*
X137275574Y-100116602D02*
X137332717Y-100116602D01*
X137332717Y-100116602D02*
X137418431Y-100145173D01*
X137418431Y-100145173D02*
X137447003Y-100173745D01*
X137675574Y-100173745D02*
X137704146Y-100145173D01*
X137704146Y-100145173D02*
X137761289Y-100116602D01*
X137761289Y-100116602D02*
X137904146Y-100116602D01*
X137904146Y-100116602D02*
X137961289Y-100145173D01*
X137961289Y-100145173D02*
X137989860Y-100173745D01*
X137989860Y-100173745D02*
X138018431Y-100230888D01*
X138018431Y-100230888D02*
X138018431Y-100288031D01*
X138018431Y-100288031D02*
X137989860Y-100373745D01*
X137989860Y-100373745D02*
X137647003Y-100716602D01*
X137647003Y-100716602D02*
X138018431Y-100716602D01*
X138561289Y-100116602D02*
X138275575Y-100116602D01*
X138275575Y-100116602D02*
X138247003Y-100402316D01*
X138247003Y-100402316D02*
X138275575Y-100373745D01*
X138275575Y-100373745D02*
X138332718Y-100345173D01*
X138332718Y-100345173D02*
X138475575Y-100345173D01*
X138475575Y-100345173D02*
X138532718Y-100373745D01*
X138532718Y-100373745D02*
X138561289Y-100402316D01*
X138561289Y-100402316D02*
X138589860Y-100459459D01*
X138589860Y-100459459D02*
X138589860Y-100602316D01*
X138589860Y-100602316D02*
X138561289Y-100659459D01*
X138561289Y-100659459D02*
X138532718Y-100688031D01*
X138532718Y-100688031D02*
X138475575Y-100716602D01*
X138475575Y-100716602D02*
X138332718Y-100716602D01*
X138332718Y-100716602D02*
X138275575Y-100688031D01*
X138275575Y-100688031D02*
X138247003Y-100659459D01*
%TO.C,U17*%
G36*
X129431496Y-116435195D02*
G01*
X128931496Y-116435195D01*
X128931496Y-115935195D01*
X129431496Y-115935195D01*
X129431496Y-116435195D01*
G37*
D11*
X129931496Y-115985195D02*
X129931496Y-116385195D01*
X129181496Y-115385195D02*
X127481496Y-115385195D01*
X129181496Y-116985195D02*
X127481496Y-116985195D01*
X126731496Y-115985195D02*
X126731496Y-116385195D01*
D12*
%TO.C,U1*%
X141780165Y-115060186D02*
X141551565Y-115060186D01*
%TO.C,U4*%
G36*
X152203985Y-104067018D02*
G01*
X152222744Y-104072709D01*
X152240033Y-104081950D01*
X152255187Y-104094386D01*
X152267623Y-104109540D01*
X152276864Y-104126829D01*
X152282555Y-104145588D01*
X152284476Y-104165097D01*
X152282555Y-104184606D01*
X152276864Y-104203365D01*
X152267623Y-104220654D01*
X152255187Y-104235808D01*
X152240033Y-104248244D01*
X152222744Y-104257485D01*
X152203985Y-104263176D01*
X152184476Y-104265097D01*
X152164967Y-104263176D01*
X152146208Y-104257485D01*
X152128919Y-104248244D01*
X152113765Y-104235808D01*
X152101329Y-104220654D01*
X152092088Y-104203365D01*
X152086397Y-104184606D01*
X152084476Y-104165097D01*
X152086397Y-104145588D01*
X152092088Y-104126829D01*
X152101329Y-104109540D01*
X152113765Y-104094386D01*
X152128919Y-104081950D01*
X152146208Y-104072709D01*
X152164967Y-104067018D01*
X152184476Y-104065097D01*
X152203985Y-104067018D01*
G37*
D13*
%TO.C,U5*%
X151250000Y-113650000D02*
X151250000Y-116950000D01*
X151250000Y-116950000D02*
X146250000Y-116950000D01*
X146250000Y-116950000D02*
X146250000Y-113650000D01*
X146250000Y-113650000D02*
X151250000Y-113650000D01*
X146571000Y-114534000D02*
X146571000Y-113518000D01*
X146571000Y-113518000D02*
X147079000Y-114074000D01*
X147079000Y-114074000D02*
X146571000Y-114534000D01*
D10*
X147600000Y-113250000D02*
G75*
G03*
X147600000Y-113250000I-50000J0D01*
G01*
D14*
%TO.C,XTAL1*%
X134603526Y-111155541D02*
X133146526Y-111155541D01*
X133146526Y-111155541D02*
X133146526Y-112412541D01*
X133333526Y-111373541D02*
X133333526Y-111373541D01*
X133333526Y-111373541D02*
X135365526Y-111373541D01*
X135365526Y-111373541D02*
X135365526Y-113913541D01*
X135365526Y-113913541D02*
X133333526Y-113913541D01*
X133333526Y-113913541D02*
X133333526Y-111373541D01*
X133333526Y-111373541D02*
X133333526Y-111373541D01*
%TO.C,U7*%
X135430335Y-102274204D02*
X135430335Y-101121204D01*
X137032335Y-101121204D02*
X137032335Y-102274204D01*
D15*
X135823335Y-102714204D02*
G75*
G03*
X135823335Y-102714204I-100000J0D01*
G01*
%TO.C,U2*%
G36*
X143182077Y-114120757D02*
G01*
X143200836Y-114126448D01*
X143218125Y-114135689D01*
X143233279Y-114148125D01*
X143245715Y-114163279D01*
X143254956Y-114180568D01*
X143260647Y-114199327D01*
X143262568Y-114218836D01*
X143260647Y-114238345D01*
X143254956Y-114257104D01*
X143245715Y-114274393D01*
X143233279Y-114289547D01*
X143218125Y-114301983D01*
X143200836Y-114311224D01*
X143182077Y-114316915D01*
X143162568Y-114318836D01*
X143143059Y-114316915D01*
X143124300Y-114311224D01*
X143107011Y-114301983D01*
X143091857Y-114289547D01*
X143079421Y-114274393D01*
X143070180Y-114257104D01*
X143064489Y-114238345D01*
X143062568Y-114218836D01*
X143064489Y-114199327D01*
X143070180Y-114180568D01*
X143079421Y-114163279D01*
X143091857Y-114148125D01*
X143107011Y-114135689D01*
X143124300Y-114126448D01*
X143143059Y-114120757D01*
X143162568Y-114118836D01*
X143182077Y-114120757D01*
G37*
D10*
%TO.C,U12*%
X133998387Y-106653878D02*
X132345387Y-106653878D01*
X132345387Y-106653878D02*
X132345387Y-105001878D01*
X132345387Y-105001878D02*
X133998387Y-105001878D01*
X133998387Y-105001878D02*
X133998387Y-106653878D01*
X134271887Y-106577878D02*
G75*
G03*
X134271887Y-106577878I-100000J0D01*
G01*
D16*
%TO.C,U16*%
X146900500Y-108050000D02*
X146900500Y-105450000D01*
X148699500Y-105450000D02*
X148699500Y-108050000D01*
X147038500Y-107004000D02*
X147038500Y-106496000D01*
X148562500Y-107004000D02*
X148562500Y-106496000D01*
X148562500Y-106496000D02*
G75*
G03*
X147038500Y-106496000I-762000J0D01*
G01*
X147038500Y-107004000D02*
G75*
G03*
X148562500Y-107004000I762000J0D01*
G01*
X148181500Y-106750000D02*
G75*
G03*
X148181500Y-106750000I-381000J0D01*
G01*
%TO.C,U15*%
X136900500Y-108050000D02*
X136900500Y-105450000D01*
X138699500Y-105450000D02*
X138699500Y-108050000D01*
X137038500Y-107004000D02*
X137038500Y-106496000D01*
X138562500Y-107004000D02*
X138562500Y-106496000D01*
X138562500Y-106496000D02*
G75*
G03*
X137038500Y-106496000I-762000J0D01*
G01*
X137038500Y-107004000D02*
G75*
G03*
X138562500Y-107004000I762000J0D01*
G01*
X138181500Y-106750000D02*
G75*
G03*
X138181500Y-106750000I-381000J0D01*
G01*
%TO.C,U14*%
X126900500Y-108050000D02*
X126900500Y-105450000D01*
X128699500Y-105450000D02*
X128699500Y-108050000D01*
X127038500Y-107004000D02*
X127038500Y-106496000D01*
X128562500Y-107004000D02*
X128562500Y-106496000D01*
X128562500Y-106496000D02*
G75*
G03*
X127038500Y-106496000I-762000J0D01*
G01*
X127038500Y-107004000D02*
G75*
G03*
X128562500Y-107004000I762000J0D01*
G01*
X128181500Y-106750000D02*
G75*
G03*
X128181500Y-106750000I-381000J0D01*
G01*
D14*
%TO.C,U13*%
X137049918Y-101964799D02*
X137049918Y-100311799D01*
X137049918Y-100311799D02*
X138701938Y-100311799D01*
X138701938Y-100311799D02*
X138701938Y-101964799D01*
X138701938Y-101964799D02*
X137049918Y-101964799D01*
D15*
X137475918Y-102364799D02*
G75*
G03*
X137475918Y-102364799I-100000J0D01*
G01*
D12*
%TO.C,U3*%
X145713336Y-102237187D02*
X145713336Y-102465787D01*
D14*
%TO.C,U9*%
X132531464Y-109952651D02*
X132531464Y-110697651D01*
X132531464Y-110697651D02*
X132285464Y-110697651D01*
X129878464Y-109952651D02*
X129878464Y-110697651D01*
X129878464Y-110697651D02*
X130124464Y-110697651D01*
X132531464Y-108291651D02*
X132531464Y-107545651D01*
X132531464Y-107545651D02*
X132285464Y-107545651D01*
X129878464Y-108291651D02*
X129878464Y-107545651D01*
X129878464Y-107545651D02*
X130124464Y-107545651D01*
D11*
X132041464Y-107343651D02*
G75*
G03*
X132041464Y-107343651I-75000J0D01*
G01*
D17*
%TO.C,U6*%
X152371149Y-100080814D02*
X152371149Y-99180814D01*
X151471149Y-99180814D02*
X152371149Y-99180814D01*
G36*
X152090658Y-98807735D02*
G01*
X152109417Y-98813426D01*
X152126706Y-98822667D01*
X152141860Y-98835103D01*
X152154296Y-98850257D01*
X152163537Y-98867546D01*
X152169228Y-98886305D01*
X152171149Y-98905814D01*
X152169228Y-98925323D01*
X152163537Y-98944082D01*
X152154296Y-98961371D01*
X152141860Y-98976525D01*
X152126706Y-98988961D01*
X152109417Y-98998202D01*
X152090658Y-99003893D01*
X152071149Y-99005814D01*
X152051640Y-99003893D01*
X152032881Y-98998202D01*
X152015592Y-98988961D01*
X152000438Y-98976525D01*
X151988002Y-98961371D01*
X151978761Y-98944082D01*
X151973070Y-98925323D01*
X151971149Y-98905814D01*
X151973070Y-98886305D01*
X151978761Y-98867546D01*
X151988002Y-98850257D01*
X152000438Y-98835103D01*
X152015592Y-98822667D01*
X152032881Y-98813426D01*
X152051640Y-98807735D01*
X152071149Y-98805814D01*
X152090658Y-98807735D01*
G37*
%TD*%
%LPC*%
D18*
%TO.C,L3*%
X133822270Y-115779501D03*
X133350580Y-115779501D03*
%TD*%
D19*
%TO.C,L4*%
X131002379Y-115986940D03*
X131474069Y-115986940D03*
%TD*%
D20*
%TO.C,C49*%
X134611295Y-115866545D03*
X134611295Y-116338235D03*
%TD*%
D21*
%TO.C,U17*%
X129831496Y-115535195D03*
X126831496Y-116835195D03*
X126831496Y-115535195D03*
X129831496Y-116835195D03*
%TD*%
D20*
%TO.C,C50*%
X132480158Y-115865359D03*
X132480158Y-116337049D03*
%TD*%
D22*
%TO.C,J1*%
X131799807Y-100247428D03*
X126719807Y-99231428D03*
X126719807Y-101263428D03*
%TD*%
D23*
%TO.C,C12*%
X146086055Y-108605838D03*
X145266333Y-108605838D03*
%TD*%
D24*
%TO.C,L1*%
X143038108Y-108096660D03*
X144375976Y-108096660D03*
%TD*%
D18*
%TO.C,R1*%
X149772869Y-104185183D03*
X149301179Y-104185183D03*
%TD*%
D25*
%TO.C,L2*%
X144629334Y-111115818D03*
X145449056Y-111115818D03*
%TD*%
D26*
%TO.C,C11*%
X139267526Y-105763062D03*
X139267526Y-106582784D03*
%TD*%
D27*
%TO.C,U1*%
X141655165Y-114760086D03*
X141205165Y-114760086D03*
X140755165Y-114760086D03*
X140305165Y-114760086D03*
X139855165Y-114760086D03*
X139405165Y-114760086D03*
X138955165Y-114760086D03*
X138505165Y-114760086D03*
X137757665Y-114967586D03*
X137307665Y-114967586D03*
X136857665Y-114967586D03*
X136407665Y-114967586D03*
X141655165Y-114310086D03*
X141205165Y-114310086D03*
X140755165Y-114310086D03*
X140305165Y-114310086D03*
X139855165Y-114310086D03*
X139405165Y-114310086D03*
X138955165Y-114310086D03*
X138505165Y-114310086D03*
X137757665Y-114517586D03*
X137307665Y-114517586D03*
X136857665Y-114517586D03*
X136407665Y-114517586D03*
X141655165Y-113860086D03*
X141205165Y-113860086D03*
X140755165Y-113860086D03*
X140305165Y-113860086D03*
X139855165Y-113860086D03*
X139405165Y-113860086D03*
X138955165Y-113860086D03*
X138505165Y-113860086D03*
X137757665Y-114067586D03*
X137307665Y-114067586D03*
X136857665Y-114067586D03*
X136407665Y-114067586D03*
X141655165Y-113410086D03*
X141205165Y-113410086D03*
X140755165Y-113410086D03*
X140305165Y-113410086D03*
X139855165Y-113410086D03*
X139405165Y-113410086D03*
X138955165Y-113410086D03*
X138505165Y-113410086D03*
X137757665Y-113617586D03*
X137307665Y-113617586D03*
X136857665Y-113617586D03*
X136407665Y-113617586D03*
X141655165Y-112960086D03*
X141205165Y-112960086D03*
X140755165Y-112960086D03*
X140305165Y-112960086D03*
X139855165Y-112960086D03*
X139405165Y-112960086D03*
X138955165Y-112960086D03*
X138505165Y-112960086D03*
X138055165Y-112960086D03*
X137605165Y-112960086D03*
X137155165Y-112960086D03*
X136705165Y-112960086D03*
X141655165Y-112510086D03*
X141205165Y-112510086D03*
X140755165Y-112510086D03*
X140305165Y-112510086D03*
X139855165Y-112510086D03*
X139405165Y-112510086D03*
X138955165Y-112510086D03*
X138505165Y-112510086D03*
X138055165Y-112510086D03*
X137155165Y-112510086D03*
X136705165Y-112510086D03*
X141655165Y-112060086D03*
X141205165Y-112060086D03*
X140755165Y-112060086D03*
X140305165Y-112060086D03*
X139855165Y-112060086D03*
X139405165Y-112060086D03*
X138955165Y-112060086D03*
X138505165Y-112060086D03*
X138055165Y-112060086D03*
X137605165Y-112060086D03*
X136705165Y-112060086D03*
X141655165Y-111610086D03*
X141205165Y-111610086D03*
X140755165Y-111610086D03*
X140305165Y-111610086D03*
X139855165Y-111610086D03*
X139405165Y-111610086D03*
X138955165Y-111610086D03*
X138505165Y-111610086D03*
X138055165Y-111610086D03*
X137605165Y-111610086D03*
X137155165Y-111610086D03*
X136705165Y-111610086D03*
X141655165Y-111160086D03*
X141205165Y-111160086D03*
X140755165Y-111160086D03*
X140305165Y-111160086D03*
X139855165Y-111160086D03*
X139405165Y-111160086D03*
X138955165Y-111160086D03*
X138505165Y-111160086D03*
X138055165Y-111160086D03*
X137605165Y-111160086D03*
X137155165Y-111160086D03*
X136705165Y-111160086D03*
X141655165Y-110710086D03*
X141205165Y-110710086D03*
X140755165Y-110710086D03*
X140305165Y-110710086D03*
X139855165Y-110710086D03*
X139405165Y-110710086D03*
X138955165Y-110710086D03*
X138505165Y-110710086D03*
X138055165Y-110710086D03*
X137605165Y-110710086D03*
X137155165Y-110710086D03*
X136705165Y-110710086D03*
X141655165Y-110260086D03*
X141205165Y-110260086D03*
X140755165Y-110260086D03*
X140305165Y-110260086D03*
X139855165Y-110260086D03*
X139405165Y-110260086D03*
X138955165Y-110260086D03*
X138505165Y-110260086D03*
X138055165Y-110260086D03*
X137605165Y-110260086D03*
X137155165Y-110260086D03*
X136705165Y-110260086D03*
X141655165Y-109810086D03*
X141205165Y-109810086D03*
X140755165Y-109810086D03*
X140305165Y-109810086D03*
X139855165Y-109810086D03*
X139405165Y-109810086D03*
X138955165Y-109810086D03*
X138505165Y-109810086D03*
X138055165Y-109810086D03*
X137605165Y-109810086D03*
X137155165Y-109810086D03*
X136705165Y-109810086D03*
%TD*%
D28*
%TO.C,J6*%
X134719176Y-103485414D03*
X139569176Y-103485414D03*
D29*
X134419176Y-100455414D03*
X139869176Y-100455414D03*
D30*
X134719176Y-103485414D03*
X139569176Y-103485414D03*
%TD*%
D20*
%TO.C,R9*%
X136082463Y-107754278D03*
X136082463Y-108225968D03*
%TD*%
D19*
%TO.C,R10*%
X132919636Y-109757773D03*
X133391326Y-109757773D03*
%TD*%
D31*
%TO.C,C36*%
X135733934Y-100013321D03*
X135733934Y-99541631D03*
%TD*%
D32*
%TO.C,U4*%
X151694476Y-104165097D03*
X151694476Y-104665097D03*
X151694476Y-105165097D03*
X151694476Y-105665097D03*
X151694476Y-106165097D03*
X151694476Y-106665097D03*
X151694476Y-107165097D03*
X151694476Y-107665097D03*
X151694476Y-108165097D03*
X151354476Y-104415097D03*
X151354476Y-104915097D03*
X151354476Y-105415097D03*
X151354476Y-105915097D03*
X151354476Y-106415097D03*
X151354476Y-106915097D03*
X151354476Y-107415097D03*
X151354476Y-107915097D03*
X151014476Y-104165097D03*
X151014476Y-104665097D03*
X151014476Y-105165097D03*
X151014476Y-105665097D03*
X151014476Y-106165097D03*
X151014476Y-106665097D03*
X151014476Y-107165097D03*
X151014476Y-107665097D03*
X151014476Y-108165097D03*
X150674476Y-104415097D03*
X150674476Y-104915097D03*
X150674476Y-105415097D03*
X150674476Y-105915097D03*
X150674476Y-106415097D03*
X150674476Y-106915097D03*
X150674476Y-107415097D03*
X150674476Y-107915097D03*
%TD*%
D31*
%TO.C,R18*%
X136458667Y-100000503D03*
X136458667Y-99528813D03*
%TD*%
D33*
%TO.C,U5*%
X147500000Y-114050000D03*
X148000000Y-114050000D03*
X148500000Y-114050000D03*
X149000000Y-114050000D03*
X149500000Y-114050000D03*
X150000000Y-114050000D03*
D34*
X146750000Y-116550000D03*
X150750000Y-116550000D03*
%TD*%
D19*
%TO.C,R15*%
X132895736Y-109124322D03*
X133367426Y-109124322D03*
%TD*%
D35*
%TO.C,XTAL1*%
X133900526Y-113293541D03*
X134800526Y-113293541D03*
X134799526Y-111993541D03*
X133899526Y-111993541D03*
%TD*%
D36*
%TO.C,C3*%
X140615675Y-116728243D03*
X139277807Y-116728243D03*
%TD*%
D37*
%TO.C,U7*%
X135731335Y-102083204D03*
X136231335Y-102083204D03*
X136731335Y-102083204D03*
X135731335Y-101312204D03*
X136231335Y-101312204D03*
X136731335Y-101312204D03*
%TD*%
D38*
%TO.C,C2*%
X143482328Y-110623039D03*
X143482328Y-109285171D03*
%TD*%
D19*
%TO.C,R14*%
X132885907Y-108564533D03*
X133357597Y-108564533D03*
%TD*%
D39*
%TO.C,C1*%
X141980612Y-106692517D03*
X141980612Y-108030385D03*
%TD*%
D18*
%TO.C,R13*%
X149773589Y-104758607D03*
X149301899Y-104758607D03*
%TD*%
%TO.C,C13*%
X149773085Y-103616252D03*
X149301395Y-103616252D03*
%TD*%
%TO.C,R7*%
X142011000Y-101741826D03*
X141539310Y-101741826D03*
%TD*%
%TO.C,R5*%
X141938383Y-103393157D03*
X141466693Y-103393157D03*
%TD*%
%TO.C,R6*%
X142033885Y-102855393D03*
X141562195Y-102855393D03*
%TD*%
%TO.C,C38*%
X152798624Y-108258371D03*
X152326934Y-108258371D03*
%TD*%
D19*
%TO.C,C43*%
X129036360Y-108558222D03*
X129508050Y-108558222D03*
%TD*%
D18*
%TO.C,C37*%
X150598771Y-108800507D03*
X150127081Y-108800507D03*
%TD*%
D20*
%TO.C,C28*%
X148317470Y-106955361D03*
X148317470Y-107427051D03*
%TD*%
%TO.C,C29*%
X145396860Y-106661803D03*
X145396860Y-107133493D03*
%TD*%
%TO.C,R8*%
X142994403Y-104536963D03*
X142994403Y-105008653D03*
%TD*%
D40*
%TO.C,U2*%
X144862568Y-114868836D03*
X143462568Y-114868836D03*
X144512568Y-115068836D03*
X143812568Y-115068836D03*
X144162568Y-115268836D03*
X144512568Y-115468836D03*
X143812568Y-115468836D03*
X144162568Y-115668836D03*
X144512568Y-115868836D03*
X143812568Y-115868836D03*
X144862568Y-116068836D03*
X143462568Y-116068836D03*
%TD*%
D31*
%TO.C,C42*%
X130879624Y-111610111D03*
X130879624Y-111138421D03*
%TD*%
D18*
%TO.C,R12*%
X149743923Y-105340440D03*
X149272233Y-105340440D03*
%TD*%
D26*
%TO.C,C15*%
X142707818Y-100657514D03*
X142707818Y-101477236D03*
%TD*%
D20*
%TO.C,C18*%
X143848020Y-100843622D03*
X143848020Y-101315312D03*
%TD*%
D19*
%TO.C,C27*%
X149287407Y-102906783D03*
X149759097Y-102906783D03*
%TD*%
D18*
%TO.C,C48*%
X133707750Y-104627481D03*
X133236060Y-104627481D03*
%TD*%
D41*
%TO.C,U12*%
X133671887Y-106327878D03*
X133171887Y-106327878D03*
X132671887Y-106327878D03*
X133671887Y-105827878D03*
X133171887Y-105827878D03*
X132671887Y-105827878D03*
X133671887Y-105327878D03*
X133171887Y-105327878D03*
X132671887Y-105327878D03*
%TD*%
D31*
%TO.C,C47*%
X133173593Y-107560994D03*
X133173593Y-107089304D03*
%TD*%
D26*
%TO.C,C16*%
X143282230Y-100665474D03*
X143282230Y-101485196D03*
%TD*%
D42*
%TO.C,U16*%
X147420500Y-108250000D03*
X148179500Y-108250000D03*
X147420500Y-105250000D03*
X148179500Y-105250000D03*
%TD*%
D18*
%TO.C,C26*%
X152794138Y-105073923D03*
X152322448Y-105073923D03*
%TD*%
D42*
%TO.C,U15*%
X137420500Y-108250000D03*
X138179500Y-108250000D03*
X137420500Y-105250000D03*
X138179500Y-105250000D03*
%TD*%
D31*
%TO.C,C17*%
X143632345Y-105007247D03*
X143632345Y-104535557D03*
%TD*%
D18*
%TO.C,C20*%
X146881613Y-102632819D03*
X146409923Y-102632819D03*
%TD*%
D31*
%TO.C,C21*%
X145865063Y-105001054D03*
X145865063Y-104529364D03*
%TD*%
D19*
%TO.C,R16*%
X134383991Y-106366536D03*
X134855681Y-106366536D03*
%TD*%
D42*
%TO.C,U14*%
X127420500Y-108250000D03*
X128179500Y-108250000D03*
X127420500Y-105250000D03*
X128179500Y-105250000D03*
%TD*%
D18*
%TO.C,C19*%
X145257146Y-104569343D03*
X144785456Y-104569343D03*
%TD*%
D19*
%TO.C,R17*%
X134382770Y-105290821D03*
X134854460Y-105290821D03*
%TD*%
D18*
%TO.C,C32*%
X152823057Y-107601414D03*
X152351367Y-107601414D03*
%TD*%
D41*
%TO.C,U13*%
X137375918Y-101638799D03*
X137375918Y-101138817D03*
X137375918Y-100638799D03*
X137875918Y-101638799D03*
X137875918Y-101138817D03*
X137875918Y-100638799D03*
X138375918Y-101638799D03*
X138375918Y-101138817D03*
X138375918Y-100638799D03*
%TD*%
D18*
%TO.C,C30*%
X152798347Y-106288258D03*
X152326657Y-106288258D03*
%TD*%
D26*
%TO.C,C24*%
X144596628Y-100398900D03*
X144596628Y-101218622D03*
%TD*%
D18*
%TO.C,R4*%
X141053413Y-101729855D03*
X140581723Y-101729855D03*
%TD*%
%TO.C,C31*%
X152793076Y-105636181D03*
X152321386Y-105636181D03*
%TD*%
D26*
%TO.C,C9*%
X140083185Y-105756475D03*
X140083185Y-106576197D03*
%TD*%
D18*
%TO.C,R3*%
X141057909Y-102312925D03*
X140586219Y-102312925D03*
%TD*%
%TO.C,R2*%
X142027943Y-102310479D03*
X141556253Y-102310479D03*
%TD*%
D31*
%TO.C,C14*%
X144212235Y-105011705D03*
X144212235Y-104540015D03*
%TD*%
%TO.C,C10*%
X141387537Y-105157451D03*
X141387537Y-104685761D03*
%TD*%
D20*
%TO.C,C33*%
X151820672Y-102977006D03*
X151820672Y-103448696D03*
%TD*%
D31*
%TO.C,C22*%
X146425196Y-103684656D03*
X146425196Y-103212966D03*
%TD*%
D26*
%TO.C,C23*%
X145444713Y-100420977D03*
X145444713Y-101240699D03*
%TD*%
D20*
%TO.C,C34*%
X150673681Y-102997344D03*
X150673681Y-103469034D03*
%TD*%
D43*
%TO.C,C6*%
X146520367Y-112305619D03*
X144730923Y-112305619D03*
%TD*%
%TO.C,C4*%
X146502199Y-109902067D03*
X144712755Y-109902067D03*
%TD*%
D18*
%TO.C,C5*%
X143700668Y-113134169D03*
X143228978Y-113134169D03*
%TD*%
%TO.C,C39*%
X152776712Y-104485806D03*
X152305022Y-104485806D03*
%TD*%
D20*
%TO.C,C35*%
X151259428Y-102983946D03*
X151259428Y-103455636D03*
%TD*%
D26*
%TO.C,C7*%
X139268449Y-107404819D03*
X139268449Y-108224541D03*
%TD*%
D44*
%TO.C,U3*%
X145413236Y-102362187D03*
X145413236Y-102762187D03*
X145413236Y-103162187D03*
X145413236Y-103562187D03*
X145013236Y-102362187D03*
X145013236Y-102762187D03*
X145013236Y-103162187D03*
X145013236Y-103562187D03*
X144613236Y-102362187D03*
X144613236Y-102762187D03*
X144613236Y-103162187D03*
X144613236Y-103562187D03*
X144213236Y-102362187D03*
X144213236Y-102762187D03*
X144213236Y-103162187D03*
X144213236Y-103562187D03*
X143813236Y-102362187D03*
X143813236Y-102762187D03*
X143813236Y-103162187D03*
X143813236Y-103562187D03*
X143413236Y-102362187D03*
X143413236Y-102762187D03*
X143413236Y-103162187D03*
X143413236Y-103562187D03*
X143013236Y-102362187D03*
X143013236Y-102762187D03*
X143013236Y-103162187D03*
X143013236Y-103562187D03*
%TD*%
D45*
%TO.C,U9*%
X131955464Y-107946651D03*
X131454464Y-107946651D03*
X130955464Y-107946651D03*
X130454464Y-107946651D03*
D46*
X130279964Y-108621651D03*
X130279964Y-109121651D03*
X130279964Y-109621651D03*
D45*
X130454464Y-110296651D03*
X130955464Y-110296651D03*
X131454464Y-110296651D03*
X131955464Y-110296651D03*
D46*
X132129464Y-109621651D03*
X132129464Y-109121651D03*
X132129864Y-108621651D03*
%TD*%
D26*
%TO.C,C8*%
X140076947Y-107393838D03*
X140076947Y-108213560D03*
%TD*%
D47*
%TO.C,U6*%
X151821149Y-99730814D03*
X148921149Y-99730814D03*
X148921149Y-100680814D03*
X151821149Y-100680814D03*
%TD*%
D23*
%TO.C,C25*%
X138242579Y-99694231D03*
X137422857Y-99694231D03*
%TD*%
%LPD*%
M02*
