%TF.GenerationSoftware,KiCad,Pcbnew,7.0.7*%
%TF.CreationDate,2023-11-24T16:48:55-08:00*%
%TF.ProjectId,beeper-design,62656570-6572-42d6-9465-7369676e2e6b,rev?*%
%TF.SameCoordinates,Original*%
%TF.FileFunction,Other,Comment*%
%FSLAX46Y46*%
G04 Gerber Fmt 4.6, Leading zero omitted, Abs format (unit mm)*
G04 Created by KiCad (PCBNEW 7.0.7) date 2023-11-24 16:48:55*
%MOMM*%
%LPD*%
G01*
G04 APERTURE LIST*
%ADD10C,0.095250*%
%ADD11C,0.100000*%
%ADD12C,0.060000*%
%ADD13C,0.300000*%
%ADD14C,0.254000*%
G04 APERTURE END LIST*
D10*
X128142769Y-115998384D02*
X128142769Y-116306813D01*
X128142769Y-116306813D02*
X128160912Y-116343099D01*
X128160912Y-116343099D02*
X128179055Y-116361242D01*
X128179055Y-116361242D02*
X128215340Y-116379384D01*
X128215340Y-116379384D02*
X128287912Y-116379384D01*
X128287912Y-116379384D02*
X128324197Y-116361242D01*
X128324197Y-116361242D02*
X128342340Y-116343099D01*
X128342340Y-116343099D02*
X128360483Y-116306813D01*
X128360483Y-116306813D02*
X128360483Y-115998384D01*
X128741483Y-116379384D02*
X128523769Y-116379384D01*
X128632626Y-116379384D02*
X128632626Y-115998384D01*
X128632626Y-115998384D02*
X128596340Y-116052813D01*
X128596340Y-116052813D02*
X128560055Y-116089099D01*
X128560055Y-116089099D02*
X128523769Y-116107242D01*
X128868483Y-115998384D02*
X129122483Y-115998384D01*
X129122483Y-115998384D02*
X128959197Y-116379384D01*
D11*
%TO.C,U17*%
X129931496Y-115385195D02*
X129931496Y-116985195D01*
X129931496Y-115385195D02*
X126731496Y-115385195D01*
X129931496Y-115685195D02*
X129431496Y-115685195D01*
X129931496Y-116685195D02*
X129431496Y-116685195D01*
X129931496Y-116985195D02*
X126731496Y-116985195D01*
X129431496Y-115385195D02*
X129431496Y-115685195D01*
X129431496Y-116685195D02*
X129431496Y-116985195D01*
X128938386Y-115937945D02*
X128938386Y-116437625D01*
X128938386Y-115937945D02*
X129437236Y-115937945D01*
X128938386Y-116437625D02*
X129437236Y-116437625D01*
X129437236Y-115937945D02*
X129437236Y-116437625D01*
X127231576Y-115385195D02*
X127231576Y-115685195D01*
X127231576Y-115685195D02*
X126731496Y-115685195D01*
X127231576Y-116685195D02*
X127231576Y-116985195D01*
X127231576Y-116685195D02*
X126731496Y-116685195D01*
X126731496Y-115385195D02*
X126731496Y-116985195D01*
D12*
%TO.C,XTAL1*%
X133579526Y-111643541D02*
G75*
G03*
X133579526Y-111643541I-30000J0D01*
G01*
D13*
X133737526Y-111754541D02*
G75*
G03*
X133737526Y-111754541I-150000J0D01*
G01*
D12*
%TO.C,U7*%
X135536335Y-102198204D02*
G75*
G03*
X135536335Y-102198204I-30000J0D01*
G01*
D14*
X135850335Y-102460204D02*
G75*
G03*
X135850335Y-102460204I-127000J0D01*
G01*
%TD*%
M02*
