%TF.GenerationSoftware,KiCad,Pcbnew,7.0.7*%
%TF.CreationDate,2023-11-24T16:48:55-08:00*%
%TF.ProjectId,beeper-design,62656570-6572-42d6-9465-7369676e2e6b,rev?*%
%TF.SameCoordinates,Original*%
%TF.FileFunction,Copper,L3,Inr*%
%TF.FilePolarity,Positive*%
%FSLAX46Y46*%
G04 Gerber Fmt 4.6, Leading zero omitted, Abs format (unit mm)*
G04 Created by KiCad (PCBNEW 7.0.7) date 2023-11-24 16:48:55*
%MOMM*%
%LPD*%
G01*
G04 APERTURE LIST*
%TA.AperFunction,ComponentPad*%
%ADD10O,0.730000X1.460000*%
%TD*%
%TA.AperFunction,ComponentPad*%
%ADD11O,1.200000X2.400000*%
%TD*%
%TA.AperFunction,ViaPad*%
%ADD12C,0.300000*%
%TD*%
G04 APERTURE END LIST*
D10*
%TO.N,Net-(C36-Pad1)*%
%TO.C,J6*%
X134719176Y-103485414D03*
X139569176Y-103485414D03*
D11*
X134419176Y-100455414D03*
X139869176Y-100455414D03*
%TD*%
D12*
%TO.N,unconnected-(U1D-P0_03-PadD7)*%
X138955165Y-113410086D03*
%TO.N,unconnected-(U1D-P0_20-PadC8)*%
X138505165Y-113860086D03*
%TO.N,unconnected-(U1B-nRST-PadB10)*%
X137307665Y-114517586D03*
%TO.N,unconnected-(U1E-P1_00-PadK4)*%
X140305165Y-110710086D03*
%TO.N,unconnected-(U1E-P1_07-PadK3)*%
X140755165Y-110710086D03*
%TO.N,unconnected-(U1E-P1_02-PadD5)*%
X139855165Y-113410086D03*
%TO.N,unconnected-(U1E-P1_13-PadH4)*%
X140305165Y-111610086D03*
%TO.N,unconnected-(U1D-P0_16-PadG8)*%
X138505165Y-112060086D03*
%TO.N,unconnected-(U1E-P1_01-PadE8)*%
X138505165Y-112960086D03*
%TO.N,unconnected-(U1E-P1_04-PadB8)*%
X138505165Y-114310086D03*
%TO.N,unconnected-(U1D-P0_23-PadH9)*%
X138055165Y-111610086D03*
%TO.N,unconnected-(U1D-P0_09-PadE7)*%
X138955165Y-112960086D03*
%TO.N,unconnected-(U1D-P0_02-PadD8)*%
X138505165Y-113410086D03*
%TO.N,unconnected-(U1E-P1_10-PadE5)*%
X139855165Y-112960086D03*
%TO.N,unconnected-(U1D-P0_18-PadB11)*%
X136857665Y-114517586D03*
%TO.N,unconnected-(U1D-P0_25-PadC3)*%
X140755165Y-113860086D03*
%TO.N,unconnected-(U1D-P0_10-PadG9)*%
X138055165Y-112060086D03*
%TO.N,unconnected-(U1E-P1_20-PadF3)*%
X140755165Y-112510086D03*
%TO.N,unconnected-(U1E-P1_28-PadF2)*%
X141205165Y-112510086D03*
%TO.N,unconnected-(U1D-P0_15-PadF8)*%
X138505165Y-112510086D03*
%TO.N,unconnected-(U1D-P0_21-PadE10)*%
X137605165Y-112960086D03*
%TO.N,unconnected-(U1D-P0_12-PadD4)*%
X140305165Y-113410086D03*
%TO.N,unconnected-(U1A-OQSIF_CLK-PadB4)*%
X140305165Y-114310086D03*
%TO.N,unconnected-(U1E-P1_19-PadF4)*%
X140305165Y-112510086D03*
%TO.N,unconnected-(U1D-P0_07-PadB6)*%
X139405165Y-114310086D03*
%TO.N,unconnected-(U1D-P0_26-PadC4)*%
X140305165Y-113860086D03*
%TO.N,unconnected-(U1E-P1_15-PadJ6)*%
X139405165Y-111160086D03*
%TO.N,unconnected-(U1D-P0_27-PadL7)*%
X138955165Y-110260086D03*
%TO.N,unconnected-(U1E-P1_24-PadJ3)*%
X140755165Y-111160086D03*
%TO.N,unconnected-(U1D-P0_08-PadG10)*%
X137605165Y-112060086D03*
%TO.N,unconnected-(U1E-P1_08-PadC6)*%
X139405165Y-113860086D03*
%TO.N,unconnected-(U1D-P0_22-PadH2)*%
X141205165Y-111610086D03*
%TO.N,unconnected-(U1D-P0_24-PadF7)*%
X138955165Y-112510086D03*
%TO.N,unconnected-(U1D-P0_17-PadF9)*%
X138055165Y-112510086D03*
%TO.N,unconnected-(U1E-P1_16-PadB5)*%
X139855165Y-114310086D03*
%TO.N,unconnected-(U1A-OQSIF_D3-PadB3)*%
X140755165Y-114310086D03*
%TO.N,unconnected-(U1D-P0_30-PadH10)*%
X137605165Y-111610086D03*
%TO.N,Net-(U1B-XTAL32Mp)*%
X137155165Y-112510086D03*
%TO.N,mcu_mcu-button0_gpio*%
X138055165Y-111160086D03*
%TO.N,/wpwr.module/mcu_mcu-etm_data3*%
X139405165Y-110710086D03*
%TO.N,/wpwr.module/mcu_mcu-mem_sdio2*%
X139855165Y-111610086D03*
%TO.N,/wpwr.module/V18P*%
X141205165Y-111160086D03*
%TO.N,VDDSYS*%
X141205165Y-110710086D03*
%TO.N,mcu_c-i2c_scl*%
X140755165Y-112960086D03*
%TO.N,/wpwr.module/mcu_mcu-mem_sdio0*%
X140305165Y-111160086D03*
%TO.N,GND*%
X138505165Y-111610086D03*
X138505165Y-114760086D03*
X139405165Y-111610086D03*
X137757665Y-114967586D03*
X136407665Y-114967586D03*
X139855165Y-112510086D03*
X139855165Y-112060086D03*
X138505165Y-110260086D03*
X136857665Y-114967586D03*
X136407665Y-113617586D03*
X138955165Y-111610086D03*
X138955165Y-112060086D03*
X137155165Y-112960086D03*
X139405165Y-112510086D03*
X137757665Y-114517586D03*
X136407665Y-114067586D03*
X138055165Y-110260086D03*
X139405165Y-112060086D03*
X141205165Y-113860086D03*
%TO.N,/wpwr.module/mcu_mcu-etm_data0*%
X138505165Y-111160086D03*
%TO.N,/wpwr.module/mcu_mcu-etm_clk*%
X139855165Y-110710086D03*
%TO.N,mcu_q-spi_cs*%
X141205165Y-112960086D03*
%TO.N,board-io_rgb_b*%
X140305165Y-110260086D03*
%TO.N,/wpwr.module/V12*%
X140755165Y-110260086D03*
%TO.N,/wpwr.module/mcu_mcu-etm_data2*%
X138955165Y-111160086D03*
%TO.N,/wpwr.module/mcu_mcu-dbg-m33_swdio*%
X138955165Y-113860086D03*
%TO.N,/wpwr.module/mcu_conn-uart_rx*%
X140305165Y-112960086D03*
%TO.N,/wpwr.module/mcu_mcu-mem_cs*%
X139855165Y-111160086D03*
%TO.N,/wpwr.module/V14*%
X141205165Y-110260086D03*
%TO.N,/wpwr.module/mcu_mcu-mem_sdio1*%
X140755165Y-112060086D03*
%TO.N,mcu_hap-gpio0_gpio*%
X140755165Y-113410086D03*
%TO.N,mcu_c-i2c_sda*%
X141205165Y-113410086D03*
%TO.N,mcu_mcu-wpwr1_gpio*%
X141205165Y-114310086D03*
%TO.N,mcu_q-spi_sdo*%
X138955165Y-114310086D03*
%TO.N,/wpwr.module/mcu_conn-uart_tx*%
X139405165Y-112960086D03*
%TO.N,mcu_q-spi_sdi*%
X141205165Y-112060086D03*
%TO.N,mcu_hap-i2c_scl*%
X139855165Y-113860086D03*
%TO.N,board-io_rgb_r*%
X139855165Y-110260086D03*
%TO.N,mcu_hap-gpio1_gpio*%
X137155165Y-111610086D03*
%TO.N,board-io_rgb_g*%
X139405165Y-110260086D03*
%TO.N,mcu_mcu-wpwr0_gpio*%
X136857665Y-114067586D03*
%TO.N,/wpwr.module/mcu_mcu-etm_data1*%
X138955165Y-110710086D03*
%TO.N,mcu_q-i3c_scl*%
X138055165Y-110710086D03*
%TO.N,mcu_hap-i2c_sda*%
X138055165Y-112960086D03*
%TO.N,/wpwr.module/mcu_mcu-mem_sdio3*%
X140305165Y-112060086D03*
%TO.N,/wpwr.module/mcu_mcu-mem_sck*%
X140755165Y-111610086D03*
%TO.N,mcu_q-spi_sck*%
X137307665Y-114067586D03*
%TO.N,/wpwr.module/mcu_mcu-dbg-m33_swdclk*%
X139405165Y-113410086D03*
%TO.N,board-io_qsen-i3c_sda*%
X138505165Y-110710086D03*
%TD*%
%TA.AperFunction,Conductor*%
%TO.N,VDDSYS*%
G36*
X126484222Y-98684601D02*
G01*
X126488323Y-98694500D01*
X126484222Y-98704399D01*
X126479682Y-98707433D01*
X126458859Y-98716058D01*
X126429321Y-98728293D01*
X126429319Y-98728294D01*
X126308999Y-98820620D01*
X126216673Y-98940940D01*
X126216672Y-98940942D01*
X126158633Y-99081061D01*
X126158633Y-99081063D01*
X126143551Y-99195624D01*
X126138837Y-99231428D01*
X126158554Y-99381196D01*
X126158633Y-99381792D01*
X126158633Y-99381794D01*
X126216672Y-99521913D01*
X126216673Y-99521915D01*
X126254586Y-99571323D01*
X126308999Y-99642236D01*
X126429322Y-99734563D01*
X126569441Y-99792602D01*
X126682056Y-99807428D01*
X126757558Y-99807428D01*
X126870173Y-99792602D01*
X127010292Y-99734563D01*
X127130615Y-99642236D01*
X127222942Y-99521913D01*
X127280981Y-99381794D01*
X127300777Y-99231428D01*
X127280981Y-99081062D01*
X127222942Y-98940943D01*
X127130615Y-98820620D01*
X127059702Y-98766207D01*
X127010294Y-98728294D01*
X127010292Y-98728293D01*
X127010292Y-98728292D01*
X126959932Y-98707433D01*
X126952357Y-98699858D01*
X126952357Y-98689142D01*
X126959933Y-98681566D01*
X126965291Y-98680500D01*
X153055500Y-98680500D01*
X153065399Y-98684601D01*
X153069500Y-98694500D01*
X153069500Y-115805500D01*
X153065399Y-115815399D01*
X153055500Y-115819500D01*
X152907093Y-115819500D01*
X152723565Y-115848568D01*
X152546842Y-115905988D01*
X152381286Y-115990344D01*
X152381270Y-115990354D01*
X152230957Y-116099563D01*
X152230949Y-116099570D01*
X152099570Y-116230949D01*
X152099563Y-116230957D01*
X151990354Y-116381270D01*
X151990344Y-116381286D01*
X151905988Y-116546842D01*
X151848568Y-116723565D01*
X151819500Y-116907093D01*
X151819500Y-117305500D01*
X151815399Y-117315399D01*
X151805500Y-117319500D01*
X125944500Y-117319500D01*
X125934601Y-117315399D01*
X125930500Y-117305500D01*
X125930500Y-114967586D01*
X136152257Y-114967586D01*
X136171698Y-115065324D01*
X136171698Y-115065325D01*
X136171699Y-115065326D01*
X136227064Y-115148187D01*
X136309925Y-115203552D01*
X136407665Y-115222994D01*
X136505405Y-115203552D01*
X136588266Y-115148187D01*
X136621024Y-115099159D01*
X136629934Y-115093207D01*
X136640443Y-115095297D01*
X136644305Y-115099159D01*
X136677064Y-115148187D01*
X136759925Y-115203552D01*
X136857665Y-115222994D01*
X136955405Y-115203552D01*
X137038266Y-115148187D01*
X137093631Y-115065326D01*
X137113073Y-114967586D01*
X137093631Y-114869846D01*
X137038266Y-114786985D01*
X136989238Y-114754226D01*
X136983286Y-114745317D01*
X136985376Y-114734808D01*
X136989239Y-114730945D01*
X137038266Y-114698187D01*
X137071024Y-114649159D01*
X137079934Y-114643207D01*
X137090443Y-114645297D01*
X137094305Y-114649159D01*
X137127064Y-114698187D01*
X137209925Y-114753552D01*
X137307665Y-114772994D01*
X137405405Y-114753552D01*
X137488266Y-114698187D01*
X137521024Y-114649159D01*
X137529934Y-114643207D01*
X137540443Y-114645297D01*
X137544305Y-114649159D01*
X137577064Y-114698187D01*
X137626090Y-114730945D01*
X137632043Y-114739855D01*
X137629953Y-114750364D01*
X137626090Y-114754227D01*
X137577064Y-114786985D01*
X137521698Y-114869847D01*
X137502257Y-114967585D01*
X137502257Y-114967586D01*
X137521698Y-115065324D01*
X137521698Y-115065325D01*
X137521699Y-115065326D01*
X137577064Y-115148187D01*
X137659925Y-115203552D01*
X137757665Y-115222994D01*
X137855405Y-115203552D01*
X137938266Y-115148187D01*
X137993631Y-115065326D01*
X138013073Y-114967586D01*
X137993631Y-114869846D01*
X137938266Y-114786985D01*
X137889238Y-114754226D01*
X137883286Y-114745317D01*
X137885376Y-114734808D01*
X137889239Y-114730945D01*
X137938266Y-114698187D01*
X137993631Y-114615326D01*
X138013073Y-114517586D01*
X137993631Y-114419846D01*
X137938266Y-114336985D01*
X137855405Y-114281620D01*
X137855404Y-114281619D01*
X137855403Y-114281619D01*
X137757665Y-114262178D01*
X137659926Y-114281619D01*
X137577064Y-114336985D01*
X137544306Y-114386011D01*
X137535396Y-114391964D01*
X137524887Y-114389874D01*
X137521024Y-114386011D01*
X137488266Y-114336985D01*
X137439238Y-114304226D01*
X137433286Y-114295317D01*
X137435376Y-114284808D01*
X137439239Y-114280945D01*
X137488266Y-114248187D01*
X137543631Y-114165326D01*
X137563073Y-114067586D01*
X137543631Y-113969846D01*
X137488266Y-113886985D01*
X137405405Y-113831620D01*
X137405404Y-113831619D01*
X137405403Y-113831619D01*
X137307665Y-113812178D01*
X137209926Y-113831619D01*
X137127064Y-113886985D01*
X137094306Y-113936011D01*
X137085396Y-113941964D01*
X137074887Y-113939874D01*
X137071024Y-113936011D01*
X137038266Y-113886985D01*
X136955405Y-113831620D01*
X136955404Y-113831619D01*
X136955403Y-113831619D01*
X136857665Y-113812178D01*
X136759926Y-113831619D01*
X136677064Y-113886985D01*
X136644306Y-113936011D01*
X136635396Y-113941964D01*
X136624887Y-113939874D01*
X136621024Y-113936011D01*
X136588266Y-113886985D01*
X136539238Y-113854226D01*
X136533286Y-113845317D01*
X136535376Y-113834808D01*
X136539239Y-113830945D01*
X136588266Y-113798187D01*
X136643631Y-113715326D01*
X136663073Y-113617586D01*
X136643631Y-113519846D01*
X136588266Y-113436985D01*
X136505405Y-113381620D01*
X136505404Y-113381619D01*
X136505403Y-113381619D01*
X136407665Y-113362178D01*
X136309926Y-113381619D01*
X136227064Y-113436985D01*
X136171698Y-113519847D01*
X136152257Y-113617585D01*
X136152257Y-113617586D01*
X136171698Y-113715324D01*
X136171698Y-113715325D01*
X136171699Y-113715326D01*
X136227064Y-113798187D01*
X136276090Y-113830945D01*
X136282043Y-113839855D01*
X136279953Y-113850364D01*
X136276090Y-113854227D01*
X136227064Y-113886985D01*
X136171698Y-113969847D01*
X136152257Y-114067585D01*
X136152257Y-114067586D01*
X136171698Y-114165324D01*
X136171698Y-114165325D01*
X136171699Y-114165326D01*
X136227064Y-114248187D01*
X136309925Y-114303552D01*
X136407665Y-114322994D01*
X136505405Y-114303552D01*
X136588266Y-114248187D01*
X136621024Y-114199159D01*
X136629934Y-114193207D01*
X136640443Y-114195297D01*
X136644305Y-114199159D01*
X136677064Y-114248187D01*
X136726090Y-114280945D01*
X136732043Y-114289855D01*
X136729953Y-114300364D01*
X136726090Y-114304227D01*
X136677064Y-114336985D01*
X136621698Y-114419847D01*
X136602257Y-114517585D01*
X136602257Y-114517586D01*
X136621698Y-114615324D01*
X136621698Y-114615325D01*
X136621699Y-114615326D01*
X136677064Y-114698187D01*
X136726090Y-114730945D01*
X136732043Y-114739855D01*
X136729953Y-114750364D01*
X136726090Y-114754227D01*
X136677064Y-114786985D01*
X136644306Y-114836011D01*
X136635396Y-114841964D01*
X136624887Y-114839874D01*
X136621024Y-114836011D01*
X136588266Y-114786985D01*
X136505405Y-114731620D01*
X136505404Y-114731619D01*
X136505403Y-114731619D01*
X136407665Y-114712178D01*
X136309926Y-114731619D01*
X136227064Y-114786985D01*
X136171698Y-114869847D01*
X136152257Y-114967585D01*
X136152257Y-114967586D01*
X125930500Y-114967586D01*
X125930500Y-112960086D01*
X136899757Y-112960086D01*
X136919198Y-113057824D01*
X136919198Y-113057825D01*
X136919199Y-113057826D01*
X136974564Y-113140687D01*
X137057425Y-113196052D01*
X137106295Y-113205773D01*
X137155164Y-113215494D01*
X137155164Y-113215493D01*
X137155165Y-113215494D01*
X137252905Y-113196052D01*
X137335766Y-113140687D01*
X137368524Y-113091659D01*
X137377434Y-113085707D01*
X137387943Y-113087797D01*
X137391805Y-113091659D01*
X137424564Y-113140687D01*
X137507425Y-113196052D01*
X137556295Y-113205773D01*
X137605164Y-113215494D01*
X137605164Y-113215493D01*
X137605165Y-113215494D01*
X137702905Y-113196052D01*
X137785766Y-113140687D01*
X137818524Y-113091659D01*
X137827434Y-113085707D01*
X137837943Y-113087797D01*
X137841805Y-113091659D01*
X137874564Y-113140687D01*
X137957425Y-113196052D01*
X138055165Y-113215494D01*
X138152905Y-113196052D01*
X138235766Y-113140687D01*
X138268524Y-113091659D01*
X138277434Y-113085707D01*
X138287943Y-113087797D01*
X138291805Y-113091659D01*
X138324564Y-113140687D01*
X138373590Y-113173445D01*
X138379543Y-113182355D01*
X138377453Y-113192864D01*
X138373590Y-113196727D01*
X138324564Y-113229485D01*
X138269198Y-113312347D01*
X138249757Y-113410085D01*
X138249757Y-113410086D01*
X138269198Y-113507824D01*
X138269198Y-113507825D01*
X138269199Y-113507826D01*
X138324564Y-113590687D01*
X138373591Y-113623445D01*
X138379543Y-113632354D01*
X138377453Y-113642863D01*
X138373590Y-113646725D01*
X138324565Y-113679483D01*
X138269198Y-113762347D01*
X138249757Y-113860085D01*
X138249757Y-113860086D01*
X138269198Y-113957824D01*
X138269198Y-113957825D01*
X138269199Y-113957826D01*
X138324564Y-114040687D01*
X138373590Y-114073445D01*
X138379543Y-114082355D01*
X138377453Y-114092864D01*
X138373590Y-114096727D01*
X138324564Y-114129485D01*
X138269198Y-114212347D01*
X138249757Y-114310085D01*
X138249757Y-114310086D01*
X138269198Y-114407824D01*
X138269198Y-114407825D01*
X138269199Y-114407826D01*
X138324564Y-114490687D01*
X138373590Y-114523445D01*
X138379543Y-114532355D01*
X138377453Y-114542864D01*
X138373590Y-114546727D01*
X138324564Y-114579485D01*
X138269198Y-114662347D01*
X138249757Y-114760085D01*
X138249757Y-114760086D01*
X138269198Y-114857824D01*
X138269198Y-114857825D01*
X138269199Y-114857826D01*
X138324564Y-114940687D01*
X138407425Y-114996052D01*
X138505165Y-115015494D01*
X138602905Y-114996052D01*
X138685766Y-114940687D01*
X138741131Y-114857826D01*
X138760573Y-114760086D01*
X138754910Y-114731619D01*
X138741131Y-114662347D01*
X138741131Y-114662346D01*
X138685766Y-114579485D01*
X138636738Y-114546726D01*
X138630786Y-114537817D01*
X138632876Y-114527308D01*
X138636739Y-114523445D01*
X138685766Y-114490687D01*
X138718524Y-114441659D01*
X138727434Y-114435707D01*
X138737943Y-114437797D01*
X138741805Y-114441659D01*
X138774564Y-114490687D01*
X138857425Y-114546052D01*
X138906295Y-114555773D01*
X138955164Y-114565494D01*
X138955164Y-114565493D01*
X138955165Y-114565494D01*
X139052905Y-114546052D01*
X139135766Y-114490687D01*
X139168524Y-114441659D01*
X139177434Y-114435707D01*
X139187943Y-114437797D01*
X139191805Y-114441659D01*
X139224564Y-114490687D01*
X139307425Y-114546052D01*
X139356295Y-114555773D01*
X139405164Y-114565494D01*
X139405164Y-114565493D01*
X139405165Y-114565494D01*
X139502905Y-114546052D01*
X139585766Y-114490687D01*
X139618524Y-114441659D01*
X139627434Y-114435707D01*
X139637943Y-114437797D01*
X139641805Y-114441659D01*
X139674564Y-114490687D01*
X139757425Y-114546052D01*
X139855165Y-114565494D01*
X139952905Y-114546052D01*
X140035766Y-114490687D01*
X140068523Y-114441659D01*
X140077432Y-114435707D01*
X140087942Y-114437797D01*
X140091804Y-114441660D01*
X140124562Y-114490685D01*
X140124563Y-114490685D01*
X140124564Y-114490687D01*
X140207425Y-114546052D01*
X140305165Y-114565494D01*
X140402905Y-114546052D01*
X140485766Y-114490687D01*
X140518524Y-114441659D01*
X140527434Y-114435707D01*
X140537943Y-114437797D01*
X140541805Y-114441659D01*
X140574564Y-114490687D01*
X140657425Y-114546052D01*
X140706295Y-114555773D01*
X140755164Y-114565494D01*
X140755164Y-114565493D01*
X140755165Y-114565494D01*
X140852905Y-114546052D01*
X140935766Y-114490687D01*
X140968524Y-114441659D01*
X140977434Y-114435707D01*
X140987943Y-114437797D01*
X140991805Y-114441659D01*
X141024564Y-114490687D01*
X141107425Y-114546052D01*
X141156295Y-114555773D01*
X141205164Y-114565494D01*
X141205164Y-114565493D01*
X141205165Y-114565494D01*
X141302905Y-114546052D01*
X141385766Y-114490687D01*
X141441131Y-114407826D01*
X141460573Y-114310086D01*
X141454910Y-114281619D01*
X141441131Y-114212347D01*
X141441131Y-114212346D01*
X141385766Y-114129485D01*
X141336738Y-114096726D01*
X141330786Y-114087817D01*
X141332876Y-114077308D01*
X141336739Y-114073445D01*
X141385766Y-114040687D01*
X141441131Y-113957826D01*
X141460573Y-113860086D01*
X141454910Y-113831619D01*
X141441131Y-113762347D01*
X141441131Y-113762346D01*
X141385766Y-113679485D01*
X141336738Y-113646726D01*
X141330786Y-113637817D01*
X141332876Y-113627308D01*
X141336739Y-113623445D01*
X141385766Y-113590687D01*
X141441131Y-113507826D01*
X141460573Y-113410086D01*
X141454910Y-113381619D01*
X141441131Y-113312347D01*
X141441131Y-113312346D01*
X141385766Y-113229485D01*
X141336738Y-113196726D01*
X141330786Y-113187817D01*
X141332876Y-113177308D01*
X141336739Y-113173445D01*
X141385766Y-113140687D01*
X141441131Y-113057826D01*
X141460573Y-112960086D01*
X141441131Y-112862346D01*
X141385766Y-112779485D01*
X141385764Y-112779484D01*
X141385764Y-112779483D01*
X141336739Y-112746725D01*
X141330786Y-112737816D01*
X141332877Y-112727307D01*
X141336737Y-112723445D01*
X141385766Y-112690687D01*
X141441131Y-112607826D01*
X141460573Y-112510086D01*
X141441131Y-112412346D01*
X141385766Y-112329485D01*
X141336738Y-112296726D01*
X141330786Y-112287817D01*
X141332876Y-112277308D01*
X141336739Y-112273445D01*
X141385766Y-112240687D01*
X141441131Y-112157826D01*
X141460573Y-112060086D01*
X141441131Y-111962346D01*
X141385766Y-111879485D01*
X141336738Y-111846726D01*
X141330786Y-111837817D01*
X141332876Y-111827308D01*
X141336739Y-111823445D01*
X141385766Y-111790687D01*
X141441131Y-111707826D01*
X141460573Y-111610086D01*
X141441131Y-111512346D01*
X141385766Y-111429485D01*
X141363420Y-111414554D01*
X141336739Y-111396726D01*
X141330786Y-111387816D01*
X141332876Y-111377307D01*
X141336735Y-111373447D01*
X141385766Y-111340687D01*
X141441131Y-111257826D01*
X141460573Y-111160086D01*
X141441131Y-111062346D01*
X141385766Y-110979485D01*
X141302905Y-110924120D01*
X141302904Y-110924119D01*
X141302903Y-110924119D01*
X141205165Y-110904678D01*
X141107426Y-110924119D01*
X141024564Y-110979485D01*
X140991806Y-111028511D01*
X140982896Y-111034464D01*
X140972387Y-111032374D01*
X140968524Y-111028511D01*
X140935766Y-110979485D01*
X140886738Y-110946726D01*
X140880786Y-110937817D01*
X140882876Y-110927308D01*
X140886739Y-110923445D01*
X140935766Y-110890687D01*
X140991131Y-110807826D01*
X141010573Y-110710086D01*
X140991131Y-110612346D01*
X140935766Y-110529485D01*
X140886738Y-110496726D01*
X140880786Y-110487817D01*
X140882876Y-110477308D01*
X140886739Y-110473445D01*
X140935766Y-110440687D01*
X140968524Y-110391659D01*
X140977434Y-110385707D01*
X140987943Y-110387797D01*
X140991805Y-110391659D01*
X141024564Y-110440687D01*
X141107425Y-110496052D01*
X141156295Y-110505773D01*
X141205164Y-110515494D01*
X141205164Y-110515493D01*
X141205165Y-110515494D01*
X141302905Y-110496052D01*
X141385766Y-110440687D01*
X141441131Y-110357826D01*
X141460573Y-110260086D01*
X141441131Y-110162346D01*
X141385766Y-110079485D01*
X141302905Y-110024120D01*
X141302904Y-110024119D01*
X141302903Y-110024119D01*
X141205165Y-110004678D01*
X141107426Y-110024119D01*
X141024564Y-110079485D01*
X140991806Y-110128511D01*
X140982896Y-110134464D01*
X140972387Y-110132374D01*
X140968524Y-110128511D01*
X140935766Y-110079485D01*
X140852905Y-110024120D01*
X140852904Y-110024119D01*
X140852903Y-110024119D01*
X140755165Y-110004678D01*
X140657426Y-110024119D01*
X140574564Y-110079485D01*
X140541806Y-110128511D01*
X140532896Y-110134464D01*
X140522387Y-110132374D01*
X140518524Y-110128511D01*
X140485766Y-110079485D01*
X140402905Y-110024120D01*
X140402904Y-110024119D01*
X140402903Y-110024119D01*
X140305165Y-110004678D01*
X140207426Y-110024119D01*
X140124564Y-110079485D01*
X140091806Y-110128511D01*
X140082896Y-110134464D01*
X140072387Y-110132374D01*
X140068524Y-110128511D01*
X140035766Y-110079485D01*
X139952905Y-110024120D01*
X139952904Y-110024119D01*
X139952903Y-110024119D01*
X139855165Y-110004678D01*
X139757426Y-110024119D01*
X139674564Y-110079485D01*
X139641806Y-110128511D01*
X139632896Y-110134464D01*
X139622387Y-110132374D01*
X139618524Y-110128511D01*
X139585766Y-110079485D01*
X139502905Y-110024120D01*
X139502904Y-110024119D01*
X139502903Y-110024119D01*
X139405165Y-110004678D01*
X139307426Y-110024119D01*
X139224564Y-110079485D01*
X139191806Y-110128511D01*
X139182896Y-110134464D01*
X139172387Y-110132374D01*
X139168524Y-110128511D01*
X139135766Y-110079485D01*
X139052905Y-110024120D01*
X139052904Y-110024119D01*
X139052903Y-110024119D01*
X138955165Y-110004678D01*
X138857426Y-110024119D01*
X138774564Y-110079485D01*
X138741806Y-110128511D01*
X138732896Y-110134464D01*
X138722387Y-110132374D01*
X138718524Y-110128511D01*
X138685766Y-110079485D01*
X138602905Y-110024120D01*
X138602904Y-110024119D01*
X138602903Y-110024119D01*
X138505165Y-110004678D01*
X138407426Y-110024119D01*
X138324564Y-110079485D01*
X138291806Y-110128511D01*
X138282896Y-110134464D01*
X138272387Y-110132374D01*
X138268524Y-110128511D01*
X138235766Y-110079485D01*
X138152905Y-110024120D01*
X138152904Y-110024119D01*
X138152903Y-110024119D01*
X138055165Y-110004678D01*
X137957426Y-110024119D01*
X137874564Y-110079485D01*
X137819198Y-110162347D01*
X137799757Y-110260085D01*
X137799757Y-110260086D01*
X137819198Y-110357824D01*
X137819198Y-110357825D01*
X137819199Y-110357826D01*
X137874564Y-110440687D01*
X137923590Y-110473445D01*
X137929543Y-110482355D01*
X137927453Y-110492864D01*
X137923590Y-110496727D01*
X137874564Y-110529485D01*
X137819198Y-110612347D01*
X137799757Y-110710085D01*
X137799757Y-110710086D01*
X137819198Y-110807824D01*
X137819198Y-110807825D01*
X137819199Y-110807826D01*
X137874564Y-110890687D01*
X137923591Y-110923445D01*
X137929543Y-110932354D01*
X137927453Y-110942863D01*
X137923590Y-110946725D01*
X137874565Y-110979483D01*
X137819198Y-111062347D01*
X137799757Y-111160085D01*
X137799757Y-111160086D01*
X137819198Y-111257824D01*
X137819198Y-111257825D01*
X137819199Y-111257826D01*
X137874564Y-111340687D01*
X137923590Y-111373445D01*
X137929543Y-111382355D01*
X137927453Y-111392864D01*
X137923590Y-111396727D01*
X137874564Y-111429485D01*
X137841806Y-111478511D01*
X137832896Y-111484464D01*
X137822387Y-111482374D01*
X137818524Y-111478511D01*
X137785766Y-111429485D01*
X137702905Y-111374120D01*
X137702904Y-111374119D01*
X137702903Y-111374119D01*
X137605165Y-111354678D01*
X137507426Y-111374119D01*
X137424564Y-111429485D01*
X137391806Y-111478511D01*
X137382896Y-111484464D01*
X137372387Y-111482374D01*
X137368524Y-111478511D01*
X137335766Y-111429485D01*
X137252905Y-111374120D01*
X137252904Y-111374119D01*
X137252903Y-111374119D01*
X137155165Y-111354678D01*
X137057426Y-111374119D01*
X136974564Y-111429485D01*
X136919198Y-111512347D01*
X136899757Y-111610085D01*
X136899757Y-111610086D01*
X136919198Y-111707824D01*
X136919198Y-111707825D01*
X136919199Y-111707826D01*
X136974564Y-111790687D01*
X137057425Y-111846052D01*
X137155165Y-111865494D01*
X137252905Y-111846052D01*
X137335766Y-111790687D01*
X137368524Y-111741659D01*
X137377434Y-111735707D01*
X137387943Y-111737797D01*
X137391805Y-111741659D01*
X137424564Y-111790687D01*
X137473591Y-111823445D01*
X137479543Y-111832354D01*
X137477453Y-111842863D01*
X137473590Y-111846725D01*
X137424565Y-111879483D01*
X137369198Y-111962347D01*
X137349757Y-112060085D01*
X137349757Y-112060086D01*
X137369198Y-112157824D01*
X137369198Y-112157825D01*
X137369199Y-112157826D01*
X137424564Y-112240687D01*
X137507425Y-112296052D01*
X137605165Y-112315494D01*
X137702905Y-112296052D01*
X137785766Y-112240687D01*
X137818524Y-112191659D01*
X137827434Y-112185707D01*
X137837943Y-112187797D01*
X137841805Y-112191659D01*
X137874564Y-112240687D01*
X137923590Y-112273445D01*
X137929543Y-112282355D01*
X137927453Y-112292864D01*
X137923590Y-112296727D01*
X137874564Y-112329485D01*
X137819198Y-112412347D01*
X137799757Y-112510085D01*
X137799757Y-112510086D01*
X137819198Y-112607824D01*
X137819198Y-112607825D01*
X137819199Y-112607826D01*
X137874564Y-112690687D01*
X137923591Y-112723445D01*
X137929543Y-112732354D01*
X137927453Y-112742863D01*
X137923590Y-112746725D01*
X137874565Y-112779483D01*
X137841806Y-112828511D01*
X137832896Y-112834464D01*
X137822387Y-112832374D01*
X137818524Y-112828511D01*
X137785766Y-112779485D01*
X137702905Y-112724120D01*
X137702904Y-112724119D01*
X137702903Y-112724119D01*
X137605165Y-112704678D01*
X137507426Y-112724119D01*
X137424564Y-112779485D01*
X137391806Y-112828511D01*
X137382896Y-112834464D01*
X137372387Y-112832374D01*
X137368524Y-112828511D01*
X137335766Y-112779485D01*
X137286738Y-112746726D01*
X137280786Y-112737817D01*
X137282876Y-112727308D01*
X137286739Y-112723445D01*
X137335766Y-112690687D01*
X137391131Y-112607826D01*
X137410573Y-112510086D01*
X137391131Y-112412346D01*
X137335766Y-112329485D01*
X137252905Y-112274120D01*
X137252904Y-112274119D01*
X137252903Y-112274119D01*
X137155165Y-112254678D01*
X137057426Y-112274119D01*
X136974564Y-112329485D01*
X136919198Y-112412347D01*
X136899757Y-112510085D01*
X136899757Y-112510086D01*
X136919198Y-112607824D01*
X136919198Y-112607825D01*
X136919199Y-112607826D01*
X136974564Y-112690687D01*
X137023591Y-112723445D01*
X137029543Y-112732354D01*
X137027453Y-112742863D01*
X137023590Y-112746725D01*
X136974565Y-112779483D01*
X136919198Y-112862347D01*
X136899757Y-112960085D01*
X136899757Y-112960086D01*
X125930500Y-112960086D01*
X125930500Y-103885298D01*
X134253676Y-103885298D01*
X134269332Y-103989173D01*
X134330216Y-104115599D01*
X134330217Y-104115601D01*
X134379726Y-104168958D01*
X134425663Y-104218468D01*
X134494313Y-104258102D01*
X134547189Y-104288630D01*
X134683996Y-104319856D01*
X134823930Y-104309369D01*
X134954555Y-104258102D01*
X135064266Y-104170611D01*
X135143314Y-104054668D01*
X135184676Y-103920577D01*
X135184676Y-103885298D01*
X139103676Y-103885298D01*
X139119332Y-103989173D01*
X139180216Y-104115599D01*
X139180217Y-104115601D01*
X139229726Y-104168958D01*
X139275663Y-104218468D01*
X139344313Y-104258102D01*
X139397189Y-104288630D01*
X139533996Y-104319856D01*
X139673930Y-104309369D01*
X139804555Y-104258102D01*
X139914266Y-104170611D01*
X139993314Y-104054668D01*
X140034676Y-103920577D01*
X140034676Y-103085529D01*
X140019020Y-102981656D01*
X139958135Y-102855227D01*
X139905053Y-102798019D01*
X139862688Y-102752359D01*
X139741163Y-102682198D01*
X139741160Y-102682197D01*
X139661807Y-102664085D01*
X139604356Y-102650972D01*
X139604355Y-102650972D01*
X139464418Y-102661459D01*
X139333796Y-102712725D01*
X139224086Y-102800216D01*
X139224084Y-102800218D01*
X139145040Y-102916156D01*
X139145037Y-102916161D01*
X139103676Y-103050252D01*
X139103676Y-103885298D01*
X135184676Y-103885298D01*
X135184676Y-103085529D01*
X135169020Y-102981656D01*
X135108135Y-102855227D01*
X135055053Y-102798019D01*
X135012688Y-102752359D01*
X134891163Y-102682198D01*
X134891160Y-102682197D01*
X134811807Y-102664085D01*
X134754356Y-102650972D01*
X134754355Y-102650972D01*
X134614418Y-102661459D01*
X134483796Y-102712725D01*
X134374086Y-102800216D01*
X134374084Y-102800218D01*
X134295040Y-102916156D01*
X134295037Y-102916161D01*
X134253676Y-103050252D01*
X134253676Y-103885298D01*
X125930500Y-103885298D01*
X125930500Y-101263430D01*
X126138837Y-101263430D01*
X126158633Y-101413792D01*
X126158633Y-101413794D01*
X126216672Y-101553913D01*
X126216673Y-101553915D01*
X126254586Y-101603323D01*
X126308999Y-101674236D01*
X126362390Y-101715204D01*
X126415442Y-101755913D01*
X126429322Y-101766563D01*
X126569441Y-101824602D01*
X126682056Y-101839428D01*
X126757558Y-101839428D01*
X126870173Y-101824602D01*
X127010292Y-101766563D01*
X127130615Y-101674236D01*
X127222942Y-101553913D01*
X127280981Y-101413794D01*
X127300777Y-101263428D01*
X127280981Y-101113062D01*
X127274656Y-101097791D01*
X133718676Y-101097791D01*
X133734036Y-101224288D01*
X133734036Y-101224290D01*
X133794357Y-101383342D01*
X133794358Y-101383344D01*
X133890993Y-101523343D01*
X133890994Y-101523345D01*
X134018320Y-101636145D01*
X134018322Y-101636146D01*
X134018324Y-101636148D01*
X134018326Y-101636149D01*
X134018329Y-101636151D01*
X134168952Y-101715205D01*
X134291677Y-101745452D01*
X134334120Y-101755914D01*
X134504232Y-101755914D01*
X134586816Y-101735558D01*
X134669399Y-101715205D01*
X134820022Y-101636151D01*
X134820020Y-101636151D01*
X134820028Y-101636148D01*
X134912850Y-101553915D01*
X134947357Y-101523345D01*
X134947357Y-101523344D01*
X134947359Y-101523343D01*
X135043994Y-101383344D01*
X135089473Y-101263425D01*
X135104315Y-101224290D01*
X135104315Y-101224288D01*
X135104314Y-101224288D01*
X135104316Y-101224286D01*
X135119675Y-101097791D01*
X139168676Y-101097791D01*
X139184036Y-101224288D01*
X139184036Y-101224290D01*
X139244357Y-101383342D01*
X139244358Y-101383344D01*
X139340992Y-101523343D01*
X139340993Y-101523343D01*
X139340994Y-101523345D01*
X139468320Y-101636145D01*
X139468322Y-101636146D01*
X139468324Y-101636148D01*
X139468326Y-101636149D01*
X139468329Y-101636151D01*
X139618952Y-101715205D01*
X139741677Y-101745452D01*
X139784120Y-101755914D01*
X139954232Y-101755914D01*
X140036816Y-101735558D01*
X140119399Y-101715205D01*
X140270022Y-101636151D01*
X140270020Y-101636151D01*
X140270028Y-101636148D01*
X140362850Y-101553915D01*
X140397357Y-101523345D01*
X140397357Y-101523344D01*
X140397359Y-101523343D01*
X140493994Y-101383344D01*
X140539473Y-101263425D01*
X140554315Y-101224290D01*
X140554315Y-101224288D01*
X140554314Y-101224288D01*
X140554316Y-101224286D01*
X140569676Y-101097786D01*
X140569676Y-100933406D01*
X149436602Y-100933406D01*
X149440598Y-100966313D01*
X149440649Y-100967158D01*
X149440649Y-100977734D01*
X149443178Y-100987996D01*
X149443331Y-100988827D01*
X149447328Y-101021736D01*
X149452352Y-101029015D01*
X149454423Y-101033617D01*
X149456540Y-101042206D01*
X149456541Y-101042207D01*
X149478522Y-101067018D01*
X149479039Y-101067679D01*
X149486916Y-101079090D01*
X149497873Y-101094964D01*
X149504504Y-101098444D01*
X149505706Y-101099075D01*
X149509679Y-101102187D01*
X149515545Y-101108808D01*
X149546546Y-101120565D01*
X149547291Y-101120900D01*
X149576660Y-101136314D01*
X149585505Y-101136314D01*
X149590468Y-101137223D01*
X149598741Y-101140361D01*
X149631649Y-101136364D01*
X149632494Y-101136314D01*
X151085505Y-101136314D01*
X151090468Y-101137223D01*
X151098741Y-101140361D01*
X151131649Y-101136364D01*
X151132494Y-101136314D01*
X151143065Y-101136314D01*
X151143066Y-101136314D01*
X151153345Y-101133779D01*
X151154148Y-101133631D01*
X151187071Y-101129635D01*
X151194352Y-101124608D01*
X151198949Y-101122539D01*
X151207542Y-101120422D01*
X151232354Y-101098439D01*
X151232998Y-101097933D01*
X151260299Y-101079090D01*
X151264412Y-101071252D01*
X151267525Y-101067280D01*
X151274143Y-101061418D01*
X151285903Y-101030409D01*
X151286232Y-101029676D01*
X151301649Y-101000303D01*
X151301649Y-100991456D01*
X151302559Y-100986492D01*
X151305696Y-100978222D01*
X151301700Y-100945313D01*
X151301649Y-100944468D01*
X151301649Y-99491457D01*
X151302559Y-99486492D01*
X151305696Y-99478222D01*
X151301700Y-99445313D01*
X151301649Y-99444468D01*
X151301649Y-99433896D01*
X151300886Y-99430806D01*
X151299115Y-99423619D01*
X151298966Y-99422810D01*
X151294970Y-99389892D01*
X151294969Y-99389890D01*
X151294969Y-99389889D01*
X151289945Y-99382611D01*
X151287874Y-99378010D01*
X151285757Y-99369421D01*
X151263772Y-99344605D01*
X151263262Y-99343955D01*
X151244425Y-99316664D01*
X151244424Y-99316663D01*
X151236589Y-99312551D01*
X151232617Y-99309439D01*
X151226753Y-99302820D01*
X151195765Y-99291066D01*
X151194994Y-99290719D01*
X151165638Y-99275314D01*
X151156793Y-99275314D01*
X151151829Y-99274404D01*
X151143557Y-99271267D01*
X151143556Y-99271267D01*
X151110649Y-99275263D01*
X151109804Y-99275314D01*
X149656793Y-99275314D01*
X149651829Y-99274404D01*
X149643557Y-99271267D01*
X149643556Y-99271267D01*
X149610649Y-99275263D01*
X149609804Y-99275314D01*
X149599229Y-99275314D01*
X149588966Y-99277844D01*
X149588135Y-99277996D01*
X149555228Y-99281992D01*
X149555224Y-99281994D01*
X149547946Y-99287017D01*
X149543348Y-99289087D01*
X149534756Y-99291206D01*
X149509948Y-99313183D01*
X149509282Y-99313704D01*
X149482000Y-99332536D01*
X149481998Y-99332538D01*
X149477885Y-99340375D01*
X149474775Y-99344343D01*
X149471675Y-99347090D01*
X149468154Y-99350210D01*
X149456401Y-99381196D01*
X149456054Y-99381967D01*
X149440649Y-99411324D01*
X149440649Y-99420170D01*
X149439739Y-99425135D01*
X149436602Y-99433405D01*
X149436602Y-99433406D01*
X149440598Y-99466313D01*
X149440649Y-99467158D01*
X149440649Y-100920170D01*
X149439739Y-100925135D01*
X149436602Y-100933405D01*
X149436602Y-100933406D01*
X140569676Y-100933406D01*
X140569676Y-99813042D01*
X140554316Y-99686542D01*
X140554315Y-99686539D01*
X140554315Y-99686537D01*
X140493994Y-99527485D01*
X140493994Y-99527484D01*
X140397359Y-99387485D01*
X140397358Y-99387484D01*
X140397357Y-99387482D01*
X140270031Y-99274682D01*
X140270022Y-99274676D01*
X140119399Y-99195622D01*
X139954234Y-99154914D01*
X139954232Y-99154914D01*
X139784120Y-99154914D01*
X139784117Y-99154914D01*
X139618952Y-99195622D01*
X139468329Y-99274676D01*
X139468320Y-99274682D01*
X139340994Y-99387482D01*
X139340993Y-99387484D01*
X139244357Y-99527485D01*
X139184036Y-99686537D01*
X139184036Y-99686539D01*
X139168676Y-99813036D01*
X139168676Y-101097791D01*
X135119675Y-101097791D01*
X135119676Y-101097786D01*
X135119676Y-99813042D01*
X135104316Y-99686542D01*
X135104315Y-99686539D01*
X135104315Y-99686537D01*
X135043994Y-99527485D01*
X135043994Y-99527484D01*
X134947359Y-99387485D01*
X134947358Y-99387484D01*
X134947357Y-99387482D01*
X134820031Y-99274682D01*
X134820022Y-99274676D01*
X134669399Y-99195622D01*
X134504234Y-99154914D01*
X134504232Y-99154914D01*
X134334120Y-99154914D01*
X134334117Y-99154914D01*
X134168952Y-99195622D01*
X134018329Y-99274676D01*
X134018320Y-99274682D01*
X133890994Y-99387482D01*
X133890993Y-99387484D01*
X133794357Y-99527485D01*
X133734036Y-99686537D01*
X133734036Y-99686539D01*
X133718676Y-99813036D01*
X133718676Y-101097791D01*
X127274656Y-101097791D01*
X127222942Y-100972943D01*
X127130615Y-100852620D01*
X127029868Y-100775314D01*
X127010294Y-100760294D01*
X127010292Y-100760293D01*
X127010292Y-100760292D01*
X126870173Y-100702254D01*
X126842019Y-100698547D01*
X126757561Y-100687428D01*
X126757558Y-100687428D01*
X126682056Y-100687428D01*
X126682052Y-100687428D01*
X126591963Y-100699288D01*
X126569441Y-100702254D01*
X126569440Y-100702254D01*
X126429321Y-100760293D01*
X126429319Y-100760294D01*
X126308999Y-100852620D01*
X126216673Y-100972940D01*
X126216672Y-100972942D01*
X126163138Y-101102187D01*
X126158633Y-101113062D01*
X126155905Y-101133782D01*
X126138837Y-101263425D01*
X126138837Y-101263430D01*
X125930500Y-101263430D01*
X125930500Y-100247430D01*
X131218837Y-100247430D01*
X131238633Y-100397792D01*
X131238633Y-100397794D01*
X131296672Y-100537913D01*
X131296673Y-100537915D01*
X131334586Y-100587323D01*
X131388999Y-100658236D01*
X131509322Y-100750563D01*
X131649441Y-100808602D01*
X131762056Y-100823428D01*
X131837558Y-100823428D01*
X131950173Y-100808602D01*
X132090292Y-100750563D01*
X132210615Y-100658236D01*
X132302942Y-100537913D01*
X132360981Y-100397794D01*
X132380777Y-100247428D01*
X132360981Y-100097062D01*
X132302942Y-99956943D01*
X132210615Y-99836620D01*
X132139702Y-99782207D01*
X132090294Y-99744294D01*
X132090292Y-99744293D01*
X132090291Y-99744292D01*
X131950173Y-99686254D01*
X131922019Y-99682547D01*
X131837561Y-99671428D01*
X131837558Y-99671428D01*
X131762056Y-99671428D01*
X131762052Y-99671428D01*
X131671964Y-99683288D01*
X131649441Y-99686254D01*
X131649440Y-99686254D01*
X131509321Y-99744293D01*
X131509319Y-99744294D01*
X131388999Y-99836620D01*
X131296673Y-99956940D01*
X131296672Y-99956942D01*
X131238633Y-100097061D01*
X131238633Y-100097063D01*
X131218837Y-100247425D01*
X131218837Y-100247430D01*
X125930500Y-100247430D01*
X125930500Y-98694500D01*
X125934601Y-98684601D01*
X125944500Y-98680500D01*
X126474323Y-98680500D01*
X126484222Y-98684601D01*
G37*
%TD.AperFunction*%
%TD*%
M02*
