%TF.GenerationSoftware,KiCad,Pcbnew,7.0.7*%
%TF.CreationDate,2023-11-24T16:48:55-08:00*%
%TF.ProjectId,beeper-design,62656570-6572-42d6-9465-7369676e2e6b,rev?*%
%TF.SameCoordinates,Original*%
%TF.FileFunction,Copper,L4,Bot*%
%TF.FilePolarity,Positive*%
%FSLAX46Y46*%
G04 Gerber Fmt 4.6, Leading zero omitted, Abs format (unit mm)*
G04 Created by KiCad (PCBNEW 7.0.7) date 2023-11-24 16:48:55*
%MOMM*%
%LPD*%
G01*
G04 APERTURE LIST*
%TA.AperFunction,SMDPad,CuDef*%
%ADD10C,0.787000*%
%TD*%
%TA.AperFunction,SMDPad,CuDef*%
%ADD11C,1.000000*%
%TD*%
%TA.AperFunction,SMDPad,CuDef*%
%ADD12R,0.400000X1.750000*%
%TD*%
%TA.AperFunction,ComponentPad*%
%ADD13O,0.730000X1.460000*%
%TD*%
%TA.AperFunction,ComponentPad*%
%ADD14O,1.200000X2.400000*%
%TD*%
%TA.AperFunction,SMDPad,CuDef*%
%ADD15R,1.425000X2.500000*%
%TD*%
%TA.AperFunction,ViaPad*%
%ADD16C,0.300000*%
%TD*%
G04 APERTURE END LIST*
D10*
%TO.P,J1,2,2*%
%TO.N,/wpwr.module/mcu_mcu-dbg-m33_swdio*%
X130529807Y-99612428D03*
%TO.P,J1,4,4*%
%TO.N,/wpwr.module/mcu_mcu-dbg-m33_swdclk*%
X129259807Y-99612428D03*
%TO.P,J1,6,6*%
%TO.N,/wpwr.module/mcu_conn-uart_tx*%
X127989807Y-99612428D03*
%TO.P,J1,1,1*%
%TO.N,VDDSYS*%
X130529807Y-100882428D03*
%TO.P,J1,3,3*%
%TO.N,/wpwr.module/mcu_conn-uart_rx*%
X129259807Y-100882428D03*
%TO.P,J1,5,5*%
%TO.N,GND*%
X127989807Y-100882428D03*
%TD*%
D11*
%TO.P,TP7,p,p*%
%TO.N,/wpwr.module/mcu_mcu-etm_data1*%
X143820212Y-112845351D03*
%TD*%
%TO.P,TP8,p,p*%
%TO.N,/wpwr.module/mcu_mcu-etm_data2*%
X143820212Y-114048551D03*
%TD*%
%TO.P,TP5,p,p*%
%TO.N,/wpwr.module/mcu_mcu-etm_clk*%
X145023412Y-111642151D03*
%TD*%
D12*
%TO.P,J6,1,VCC*%
%TO.N,VBUS*%
X135844176Y-103280414D03*
%TO.P,J6,2,D-*%
%TO.N,/wpwr.module/D-*%
X136494176Y-103280414D03*
%TO.P,J6,3,D+*%
%TO.N,/wpwr.module/D+*%
X137144176Y-103280414D03*
%TO.P,J6,4,ID*%
%TO.N,unconnected-(J6-ID-Pad4)*%
X137794176Y-103280414D03*
%TO.P,J6,5,GND*%
%TO.N,GND*%
X138444176Y-103280414D03*
D13*
%TO.P,J6,6,SHIELD*%
%TO.N,Net-(C36-Pad1)*%
X134719176Y-103485414D03*
%TO.P,J6,7,SHIELD*%
X139569176Y-103485414D03*
D14*
%TO.P,J6,8,SHIELD*%
X134419176Y-100455414D03*
%TO.P,J6,9,SHIELD*%
X139869176Y-100455414D03*
D15*
%TO.P,J6,13,SHIELD*%
X136181676Y-100205414D03*
%TO.P,J6,14,SHIELD*%
X138106676Y-100205414D03*
%TD*%
D11*
%TO.P,TP6,p,p*%
%TO.N,/wpwr.module/mcu_mcu-etm_data0*%
X145023412Y-112845351D03*
%TD*%
%TO.P,TP10,p,p*%
%TO.N,GND*%
X145023412Y-114048551D03*
%TD*%
%TO.P,TP9,p,p*%
%TO.N,/wpwr.module/mcu_mcu-etm_data3*%
X143820212Y-111642151D03*
%TD*%
%TO.P,TP3,p,p*%
%TO.N,/board-io
flex-conn.beeper-connector
haptic.board-io.hapdrv.rs.collector/SP_P*%
X151278579Y-106823930D03*
%TD*%
%TO.P,TP4,p,p*%
%TO.N,/board-io
flex-conn.beeper-connector
haptic.board-io.hapdrv.rs.collector/SP_N*%
X150075378Y-106823930D03*
%TD*%
%TO.P,TP12,p,p*%
%TO.N,GND*%
X145023412Y-115251751D03*
%TD*%
%TO.P,TP11,p,p*%
%TO.N,/wpwr.module/VBAT*%
X143820212Y-115251751D03*
%TD*%
%TO.P,TP13,p,p*%
%TO.N,Net-(C22-Pad1)*%
X147713662Y-103637592D03*
%TD*%
%TO.P,TP14,p,p*%
%TO.N,Net-(C16-Pad1)*%
X147713662Y-102434392D03*
%TD*%
%TO.P,TP2,p,p*%
%TO.N,Net-(U12-OUT-)*%
X126876243Y-102892130D03*
%TD*%
%TO.P,TP1,p,p*%
%TO.N,Net-(U12-OUT+)*%
X126876243Y-104095330D03*
%TD*%
D16*
%TO.N,unconnected-(U1D-P0_03-PadD7)*%
X138955165Y-113410086D03*
%TO.N,unconnected-(U1D-P0_20-PadC8)*%
X138505165Y-113860086D03*
%TO.N,unconnected-(U1B-nRST-PadB10)*%
X137307665Y-114517586D03*
%TO.N,unconnected-(U1E-P1_00-PadK4)*%
X140305165Y-110710086D03*
%TO.N,unconnected-(U1E-P1_07-PadK3)*%
X140755165Y-110710086D03*
%TO.N,unconnected-(U1E-P1_02-PadD5)*%
X139855165Y-113410086D03*
%TO.N,unconnected-(U1E-P1_13-PadH4)*%
X140305165Y-111610086D03*
%TO.N,unconnected-(U1D-P0_16-PadG8)*%
X138505165Y-112060086D03*
%TO.N,unconnected-(U1E-P1_01-PadE8)*%
X138505165Y-112960086D03*
%TO.N,unconnected-(U1E-P1_04-PadB8)*%
X138505165Y-114310086D03*
%TO.N,unconnected-(U1D-P0_23-PadH9)*%
X138055165Y-111610086D03*
%TO.N,unconnected-(U1D-P0_09-PadE7)*%
X138955165Y-112960086D03*
%TO.N,unconnected-(U1D-P0_02-PadD8)*%
X138505165Y-113410086D03*
%TO.N,unconnected-(U1E-P1_10-PadE5)*%
X139855165Y-112960086D03*
%TO.N,unconnected-(U1D-P0_18-PadB11)*%
X136857665Y-114517586D03*
%TO.N,unconnected-(U1D-P0_25-PadC3)*%
X140755165Y-113860086D03*
%TO.N,unconnected-(U1D-P0_10-PadG9)*%
X138055165Y-112060086D03*
%TO.N,unconnected-(U1E-P1_20-PadF3)*%
X140755165Y-112510086D03*
%TO.N,unconnected-(U1E-P1_28-PadF2)*%
X141205165Y-112510086D03*
%TO.N,unconnected-(U1D-P0_15-PadF8)*%
X138505165Y-112510086D03*
%TO.N,unconnected-(U1D-P0_21-PadE10)*%
X137605165Y-112960086D03*
%TO.N,unconnected-(U1D-P0_12-PadD4)*%
X140305165Y-113410086D03*
%TO.N,unconnected-(U1A-OQSIF_CLK-PadB4)*%
X140305165Y-114310086D03*
%TO.N,unconnected-(U1E-P1_19-PadF4)*%
X140305165Y-112510086D03*
%TO.N,unconnected-(U1D-P0_07-PadB6)*%
X139405165Y-114310086D03*
%TO.N,unconnected-(U1D-P0_26-PadC4)*%
X140305165Y-113860086D03*
%TO.N,unconnected-(U1E-P1_15-PadJ6)*%
X139405165Y-111160086D03*
%TO.N,unconnected-(U1D-P0_27-PadL7)*%
X138955165Y-110260086D03*
%TO.N,unconnected-(U1E-P1_24-PadJ3)*%
X140755165Y-111160086D03*
%TO.N,unconnected-(U1D-P0_08-PadG10)*%
X137605165Y-112060086D03*
%TO.N,unconnected-(U1E-P1_08-PadC6)*%
X139405165Y-113860086D03*
%TO.N,unconnected-(U1D-P0_22-PadH2)*%
X141205165Y-111610086D03*
%TO.N,unconnected-(U1D-P0_24-PadF7)*%
X138955165Y-112510086D03*
%TO.N,unconnected-(U1D-P0_17-PadF9)*%
X138055165Y-112510086D03*
%TO.N,unconnected-(U1E-P1_16-PadB5)*%
X139855165Y-114310086D03*
%TO.N,unconnected-(U1A-OQSIF_D3-PadB3)*%
X140755165Y-114310086D03*
%TO.N,unconnected-(U1D-P0_30-PadH10)*%
X137605165Y-111610086D03*
%TO.N,Net-(U1B-XTAL32Mp)*%
X137155165Y-112510086D03*
%TO.N,mcu_mcu-button0_gpio*%
X138055165Y-111160086D03*
%TO.N,/wpwr.module/mcu_mcu-etm_data3*%
X139405165Y-110710086D03*
%TO.N,/wpwr.module/mcu_mcu-mem_sdio2*%
X139855165Y-111610086D03*
%TO.N,/wpwr.module/V18P*%
X141205165Y-111160086D03*
%TO.N,VDDSYS*%
X141205165Y-110710086D03*
%TO.N,mcu_c-i2c_scl*%
X140755165Y-112960086D03*
%TO.N,/wpwr.module/mcu_mcu-mem_sdio0*%
X140305165Y-111160086D03*
%TO.N,GND*%
X138505165Y-111610086D03*
X138505165Y-114760086D03*
X139405165Y-111610086D03*
X137757665Y-114967586D03*
X136407665Y-114967586D03*
X139855165Y-112510086D03*
X139855165Y-112060086D03*
X138505165Y-110260086D03*
X136857665Y-114967586D03*
X136407665Y-113617586D03*
X138955165Y-111610086D03*
X138955165Y-112060086D03*
X137155165Y-112960086D03*
X139405165Y-112510086D03*
X137757665Y-114517586D03*
X136407665Y-114067586D03*
X138055165Y-110260086D03*
X139405165Y-112060086D03*
X141205165Y-113860086D03*
%TO.N,/wpwr.module/mcu_mcu-etm_data0*%
X138505165Y-111160086D03*
%TO.N,/wpwr.module/mcu_mcu-etm_clk*%
X139855165Y-110710086D03*
%TO.N,mcu_q-spi_cs*%
X141205165Y-112960086D03*
%TO.N,board-io_rgb_b*%
X140305165Y-110260086D03*
%TO.N,/wpwr.module/V12*%
X140755165Y-110260086D03*
%TO.N,/wpwr.module/mcu_mcu-etm_data2*%
X138955165Y-111160086D03*
%TO.N,/wpwr.module/mcu_mcu-dbg-m33_swdio*%
X138955165Y-113860086D03*
%TO.N,/wpwr.module/mcu_conn-uart_rx*%
X140305165Y-112960086D03*
%TO.N,/wpwr.module/mcu_mcu-mem_cs*%
X139855165Y-111160086D03*
%TO.N,/wpwr.module/V14*%
X141205165Y-110260086D03*
%TO.N,/wpwr.module/mcu_mcu-mem_sdio1*%
X140755165Y-112060086D03*
%TO.N,mcu_hap-gpio0_gpio*%
X140755165Y-113410086D03*
%TO.N,mcu_c-i2c_sda*%
X141205165Y-113410086D03*
%TO.N,mcu_mcu-wpwr1_gpio*%
X141205165Y-114310086D03*
%TO.N,mcu_q-spi_sdo*%
X138955165Y-114310086D03*
%TO.N,/wpwr.module/mcu_conn-uart_tx*%
X139405165Y-112960086D03*
%TO.N,mcu_q-spi_sdi*%
X141205165Y-112060086D03*
%TO.N,mcu_hap-i2c_scl*%
X139855165Y-113860086D03*
%TO.N,board-io_rgb_r*%
X139855165Y-110260086D03*
%TO.N,mcu_hap-gpio1_gpio*%
X137155165Y-111610086D03*
%TO.N,board-io_rgb_g*%
X139405165Y-110260086D03*
%TO.N,mcu_mcu-wpwr0_gpio*%
X136857665Y-114067586D03*
%TO.N,/wpwr.module/mcu_mcu-etm_data1*%
X138955165Y-110710086D03*
%TO.N,mcu_q-i3c_scl*%
X138055165Y-110710086D03*
%TO.N,mcu_hap-i2c_sda*%
X138055165Y-112960086D03*
%TO.N,/wpwr.module/mcu_mcu-mem_sdio3*%
X140305165Y-112060086D03*
%TO.N,/wpwr.module/mcu_mcu-mem_sck*%
X140755165Y-111610086D03*
%TO.N,mcu_q-spi_sck*%
X137307665Y-114067586D03*
%TO.N,/wpwr.module/mcu_mcu-dbg-m33_swdclk*%
X139405165Y-113410086D03*
%TO.N,board-io_qsen-i3c_sda*%
X138505165Y-110710086D03*
%TD*%
%TA.AperFunction,Conductor*%
%TO.N,unconnected-(U9-AH2_QVAR2-Pad9)*%
G36*
X144432919Y-114178289D02*
G01*
X144435692Y-114184985D01*
X144438368Y-114205311D01*
X144438368Y-114205313D01*
X144498876Y-114351392D01*
X144498877Y-114351394D01*
X144538402Y-114402904D01*
X144595130Y-114476833D01*
X144682449Y-114543835D01*
X144710675Y-114565494D01*
X144720571Y-114573087D01*
X144866650Y-114633595D01*
X144886977Y-114636271D01*
X144896257Y-114641628D01*
X144899030Y-114651978D01*
X144893673Y-114661258D01*
X144886977Y-114664030D01*
X144866650Y-114666707D01*
X144866649Y-114666707D01*
X144720570Y-114727215D01*
X144720568Y-114727216D01*
X144595130Y-114823469D01*
X144498877Y-114948907D01*
X144498876Y-114948909D01*
X144438368Y-115094988D01*
X144438368Y-115094990D01*
X144435692Y-115115316D01*
X144430335Y-115124596D01*
X144419985Y-115127369D01*
X144410705Y-115122012D01*
X144407932Y-115115316D01*
X144405256Y-115094989D01*
X144344748Y-114948910D01*
X144248494Y-114823469D01*
X144174565Y-114766741D01*
X144123055Y-114727216D01*
X144123053Y-114727215D01*
X143976974Y-114666707D01*
X143956645Y-114664030D01*
X143947366Y-114658672D01*
X143944593Y-114648322D01*
X143949951Y-114639043D01*
X143956641Y-114636271D01*
X143976974Y-114633595D01*
X144123053Y-114573087D01*
X144248494Y-114476833D01*
X144344748Y-114351392D01*
X144405256Y-114205313D01*
X144407932Y-114184984D01*
X144413289Y-114175705D01*
X144423639Y-114172932D01*
X144432919Y-114178289D01*
G37*
%TD.AperFunction*%
%TA.AperFunction,Conductor*%
G36*
X144432919Y-112975089D02*
G01*
X144435692Y-112981785D01*
X144438368Y-113002111D01*
X144438368Y-113002113D01*
X144498876Y-113148192D01*
X144498877Y-113148194D01*
X144521217Y-113177308D01*
X144595130Y-113273633D01*
X144720571Y-113369887D01*
X144866650Y-113430395D01*
X144886977Y-113433071D01*
X144896257Y-113438428D01*
X144899030Y-113448778D01*
X144893673Y-113458058D01*
X144886977Y-113460830D01*
X144866650Y-113463507D01*
X144866649Y-113463507D01*
X144720570Y-113524015D01*
X144720568Y-113524016D01*
X144595130Y-113620269D01*
X144498877Y-113745707D01*
X144498876Y-113745709D01*
X144438368Y-113891788D01*
X144438368Y-113891790D01*
X144435692Y-113912116D01*
X144430335Y-113921396D01*
X144419985Y-113924169D01*
X144410705Y-113918812D01*
X144407932Y-113912116D01*
X144405256Y-113891789D01*
X144344748Y-113745710D01*
X144248494Y-113620269D01*
X144174565Y-113563541D01*
X144123055Y-113524016D01*
X144123053Y-113524015D01*
X143976974Y-113463507D01*
X143956645Y-113460830D01*
X143947366Y-113455472D01*
X143944593Y-113445122D01*
X143949951Y-113435843D01*
X143956641Y-113433071D01*
X143976974Y-113430395D01*
X144123053Y-113369887D01*
X144248494Y-113273633D01*
X144344748Y-113148192D01*
X144405256Y-113002113D01*
X144407932Y-112981784D01*
X144413289Y-112972505D01*
X144423639Y-112969732D01*
X144432919Y-112975089D01*
G37*
%TD.AperFunction*%
%TA.AperFunction,Conductor*%
G36*
X144432919Y-111771889D02*
G01*
X144435692Y-111778585D01*
X144438368Y-111798911D01*
X144438368Y-111798913D01*
X144498876Y-111944992D01*
X144498877Y-111944994D01*
X144499598Y-111945933D01*
X144595130Y-112070433D01*
X144720571Y-112166687D01*
X144866650Y-112227195D01*
X144886977Y-112229871D01*
X144896257Y-112235228D01*
X144899030Y-112245578D01*
X144893673Y-112254858D01*
X144886977Y-112257630D01*
X144866650Y-112260307D01*
X144866649Y-112260307D01*
X144720570Y-112320815D01*
X144720568Y-112320816D01*
X144595130Y-112417069D01*
X144498877Y-112542507D01*
X144498876Y-112542509D01*
X144438368Y-112688588D01*
X144438368Y-112688590D01*
X144435692Y-112708916D01*
X144430335Y-112718196D01*
X144419985Y-112720969D01*
X144410705Y-112715612D01*
X144407932Y-112708916D01*
X144405256Y-112688589D01*
X144344748Y-112542510D01*
X144248494Y-112417069D01*
X144174565Y-112360341D01*
X144123055Y-112320816D01*
X144123053Y-112320815D01*
X143976974Y-112260307D01*
X143956645Y-112257630D01*
X143947366Y-112252272D01*
X143944593Y-112241922D01*
X143949951Y-112232643D01*
X143956641Y-112229871D01*
X143976974Y-112227195D01*
X144123053Y-112166687D01*
X144248494Y-112070433D01*
X144344748Y-111944992D01*
X144405256Y-111798913D01*
X144407932Y-111778584D01*
X144413289Y-111769305D01*
X144423639Y-111766532D01*
X144432919Y-111771889D01*
G37*
%TD.AperFunction*%
%TA.AperFunction,Conductor*%
G36*
X152495899Y-99004101D02*
G01*
X152500000Y-99014000D01*
X152500000Y-115921276D01*
X152495899Y-115931175D01*
X152492356Y-115933750D01*
X152381286Y-115990344D01*
X152381270Y-115990354D01*
X152230957Y-116099563D01*
X152230949Y-116099570D01*
X152099570Y-116230949D01*
X152099563Y-116230957D01*
X151990354Y-116381270D01*
X151990344Y-116381286D01*
X151905988Y-116546842D01*
X151848568Y-116723565D01*
X151819500Y-116907093D01*
X151819500Y-116986000D01*
X151815399Y-116995899D01*
X151805500Y-117000000D01*
X139514000Y-117000000D01*
X139504101Y-116995899D01*
X139500000Y-116986000D01*
X139500000Y-115251753D01*
X143214530Y-115251753D01*
X143235168Y-115408511D01*
X143235168Y-115408513D01*
X143295676Y-115554592D01*
X143295677Y-115554594D01*
X143335202Y-115606104D01*
X143391930Y-115680033D01*
X143517371Y-115776287D01*
X143663450Y-115836795D01*
X143787537Y-115853131D01*
X143820210Y-115857433D01*
X143820212Y-115857433D01*
X143820214Y-115857433D01*
X143847251Y-115853873D01*
X143976974Y-115836795D01*
X144123053Y-115776287D01*
X144248494Y-115680033D01*
X144344748Y-115554592D01*
X144405256Y-115408513D01*
X144407932Y-115388184D01*
X144413289Y-115378905D01*
X144423639Y-115376132D01*
X144432919Y-115381489D01*
X144435692Y-115388185D01*
X144438368Y-115408511D01*
X144438368Y-115408513D01*
X144498876Y-115554592D01*
X144498877Y-115554594D01*
X144538402Y-115606104D01*
X144595130Y-115680033D01*
X144720571Y-115776287D01*
X144866650Y-115836795D01*
X144990737Y-115853131D01*
X145023410Y-115857433D01*
X145023412Y-115857433D01*
X145023414Y-115857433D01*
X145050451Y-115853873D01*
X145180174Y-115836795D01*
X145326253Y-115776287D01*
X145451694Y-115680033D01*
X145547948Y-115554592D01*
X145608456Y-115408513D01*
X145629094Y-115251751D01*
X145608456Y-115094989D01*
X145547948Y-114948910D01*
X145451694Y-114823469D01*
X145377765Y-114766741D01*
X145326255Y-114727216D01*
X145326253Y-114727215D01*
X145180174Y-114666707D01*
X145159845Y-114664030D01*
X145150566Y-114658672D01*
X145147793Y-114648322D01*
X145153151Y-114639043D01*
X145159841Y-114636271D01*
X145180174Y-114633595D01*
X145326253Y-114573087D01*
X145451694Y-114476833D01*
X145547948Y-114351392D01*
X145608456Y-114205313D01*
X145629094Y-114048551D01*
X145608456Y-113891789D01*
X145547948Y-113745710D01*
X145451694Y-113620269D01*
X145377765Y-113563541D01*
X145326255Y-113524016D01*
X145326253Y-113524015D01*
X145180174Y-113463507D01*
X145159845Y-113460830D01*
X145150566Y-113455472D01*
X145147793Y-113445122D01*
X145153151Y-113435843D01*
X145159841Y-113433071D01*
X145180174Y-113430395D01*
X145326253Y-113369887D01*
X145451694Y-113273633D01*
X145547948Y-113148192D01*
X145608456Y-113002113D01*
X145625534Y-112872390D01*
X145629094Y-112845353D01*
X145629094Y-112845348D01*
X145623754Y-112804792D01*
X145608456Y-112688589D01*
X145547948Y-112542510D01*
X145451694Y-112417069D01*
X145377765Y-112360341D01*
X145326255Y-112320816D01*
X145326253Y-112320815D01*
X145180174Y-112260307D01*
X145159845Y-112257630D01*
X145150566Y-112252272D01*
X145147793Y-112241922D01*
X145153151Y-112232643D01*
X145159841Y-112229871D01*
X145180174Y-112227195D01*
X145326253Y-112166687D01*
X145451694Y-112070433D01*
X145547948Y-111944992D01*
X145608456Y-111798913D01*
X145629094Y-111642151D01*
X145624872Y-111610085D01*
X145623754Y-111601592D01*
X145608456Y-111485389D01*
X145547948Y-111339310D01*
X145451694Y-111213869D01*
X145377765Y-111157141D01*
X145326255Y-111117616D01*
X145326253Y-111117615D01*
X145192824Y-111062347D01*
X145180174Y-111057107D01*
X145095299Y-111045933D01*
X145023414Y-111036469D01*
X145023410Y-111036469D01*
X144951525Y-111045933D01*
X144866650Y-111057107D01*
X144866649Y-111057107D01*
X144720570Y-111117615D01*
X144720568Y-111117616D01*
X144595130Y-111213869D01*
X144498877Y-111339307D01*
X144498876Y-111339309D01*
X144438368Y-111485388D01*
X144438368Y-111485390D01*
X144435692Y-111505716D01*
X144430335Y-111514996D01*
X144419985Y-111517769D01*
X144410705Y-111512412D01*
X144407932Y-111505716D01*
X144406644Y-111495933D01*
X144405256Y-111485389D01*
X144344748Y-111339310D01*
X144248494Y-111213869D01*
X144174565Y-111157141D01*
X144123055Y-111117616D01*
X144123053Y-111117615D01*
X143989624Y-111062347D01*
X143976974Y-111057107D01*
X143892099Y-111045933D01*
X143820214Y-111036469D01*
X143820210Y-111036469D01*
X143748325Y-111045933D01*
X143663450Y-111057107D01*
X143663449Y-111057107D01*
X143517370Y-111117615D01*
X143517368Y-111117616D01*
X143391930Y-111213869D01*
X143295677Y-111339307D01*
X143295676Y-111339309D01*
X143235168Y-111485388D01*
X143235168Y-111485390D01*
X143214530Y-111642148D01*
X143214530Y-111642153D01*
X143235168Y-111798911D01*
X143235168Y-111798913D01*
X143295676Y-111944992D01*
X143295677Y-111944994D01*
X143296398Y-111945933D01*
X143391930Y-112070433D01*
X143517371Y-112166687D01*
X143663450Y-112227195D01*
X143683777Y-112229871D01*
X143693057Y-112235228D01*
X143695830Y-112245578D01*
X143690473Y-112254858D01*
X143683777Y-112257630D01*
X143663450Y-112260307D01*
X143663449Y-112260307D01*
X143517370Y-112320815D01*
X143517368Y-112320816D01*
X143391930Y-112417069D01*
X143295677Y-112542507D01*
X143295676Y-112542509D01*
X143235168Y-112688588D01*
X143235168Y-112688590D01*
X143214530Y-112845348D01*
X143214530Y-112845353D01*
X143235168Y-113002111D01*
X143235168Y-113002113D01*
X143295676Y-113148192D01*
X143295677Y-113148194D01*
X143318017Y-113177308D01*
X143391930Y-113273633D01*
X143517371Y-113369887D01*
X143663450Y-113430395D01*
X143683777Y-113433071D01*
X143693057Y-113438428D01*
X143695830Y-113448778D01*
X143690473Y-113458058D01*
X143683777Y-113460830D01*
X143663450Y-113463507D01*
X143663449Y-113463507D01*
X143517370Y-113524015D01*
X143517368Y-113524016D01*
X143391930Y-113620269D01*
X143295677Y-113745707D01*
X143295676Y-113745709D01*
X143235168Y-113891788D01*
X143235168Y-113891790D01*
X143222804Y-113985707D01*
X143214530Y-114048551D01*
X143231639Y-114178511D01*
X143235168Y-114205311D01*
X143235168Y-114205313D01*
X143295676Y-114351392D01*
X143295677Y-114351394D01*
X143335202Y-114402904D01*
X143391930Y-114476833D01*
X143479249Y-114543835D01*
X143507475Y-114565494D01*
X143517371Y-114573087D01*
X143663450Y-114633595D01*
X143683777Y-114636271D01*
X143693057Y-114641628D01*
X143695830Y-114651978D01*
X143690473Y-114661258D01*
X143683777Y-114664030D01*
X143663450Y-114666707D01*
X143663449Y-114666707D01*
X143517370Y-114727215D01*
X143517368Y-114727216D01*
X143391930Y-114823469D01*
X143295677Y-114948907D01*
X143295676Y-114948909D01*
X143235168Y-115094988D01*
X143235168Y-115094990D01*
X143214530Y-115251748D01*
X143214530Y-115251753D01*
X139500000Y-115251753D01*
X139500000Y-114555476D01*
X139504101Y-114545577D01*
X139506217Y-114543838D01*
X139585766Y-114490687D01*
X139618524Y-114441659D01*
X139627434Y-114435707D01*
X139637943Y-114437797D01*
X139641805Y-114441659D01*
X139674564Y-114490687D01*
X139757425Y-114546052D01*
X139855165Y-114565494D01*
X139952905Y-114546052D01*
X140035766Y-114490687D01*
X140068523Y-114441659D01*
X140077432Y-114435707D01*
X140087942Y-114437797D01*
X140091804Y-114441660D01*
X140124562Y-114490685D01*
X140124563Y-114490685D01*
X140124564Y-114490687D01*
X140207425Y-114546052D01*
X140305165Y-114565494D01*
X140402905Y-114546052D01*
X140485766Y-114490687D01*
X140518524Y-114441659D01*
X140527434Y-114435707D01*
X140537943Y-114437797D01*
X140541805Y-114441659D01*
X140574564Y-114490687D01*
X140657425Y-114546052D01*
X140704802Y-114555476D01*
X140755164Y-114565494D01*
X140755164Y-114565493D01*
X140755165Y-114565494D01*
X140852905Y-114546052D01*
X140935766Y-114490687D01*
X140968524Y-114441659D01*
X140977434Y-114435707D01*
X140987943Y-114437797D01*
X140991805Y-114441659D01*
X141024564Y-114490687D01*
X141107425Y-114546052D01*
X141154802Y-114555476D01*
X141205164Y-114565494D01*
X141205164Y-114565493D01*
X141205165Y-114565494D01*
X141302905Y-114546052D01*
X141385766Y-114490687D01*
X141441131Y-114407826D01*
X141460573Y-114310086D01*
X141441131Y-114212346D01*
X141385766Y-114129485D01*
X141336738Y-114096726D01*
X141330786Y-114087817D01*
X141332876Y-114077308D01*
X141336739Y-114073445D01*
X141385766Y-114040687D01*
X141441131Y-113957826D01*
X141460573Y-113860086D01*
X141441131Y-113762346D01*
X141385766Y-113679485D01*
X141336738Y-113646726D01*
X141330786Y-113637817D01*
X141332876Y-113627308D01*
X141336739Y-113623445D01*
X141385766Y-113590687D01*
X141441131Y-113507826D01*
X141460573Y-113410086D01*
X141441131Y-113312346D01*
X141385766Y-113229485D01*
X141336738Y-113196726D01*
X141330786Y-113187817D01*
X141332876Y-113177308D01*
X141336739Y-113173445D01*
X141385766Y-113140687D01*
X141441131Y-113057826D01*
X141460573Y-112960086D01*
X141441131Y-112862346D01*
X141385766Y-112779485D01*
X141385764Y-112779484D01*
X141385764Y-112779483D01*
X141336739Y-112746725D01*
X141330786Y-112737816D01*
X141332877Y-112727307D01*
X141336737Y-112723445D01*
X141385766Y-112690687D01*
X141441131Y-112607826D01*
X141460573Y-112510086D01*
X141441131Y-112412346D01*
X141385766Y-112329485D01*
X141336738Y-112296726D01*
X141330786Y-112287817D01*
X141332876Y-112277308D01*
X141336739Y-112273445D01*
X141385766Y-112240687D01*
X141441131Y-112157826D01*
X141460573Y-112060086D01*
X141441131Y-111962346D01*
X141385766Y-111879485D01*
X141336738Y-111846726D01*
X141330786Y-111837817D01*
X141332876Y-111827308D01*
X141336739Y-111823445D01*
X141385766Y-111790687D01*
X141441131Y-111707826D01*
X141460573Y-111610086D01*
X141441131Y-111512346D01*
X141385766Y-111429485D01*
X141363420Y-111414554D01*
X141336739Y-111396726D01*
X141330786Y-111387816D01*
X141332876Y-111377307D01*
X141336735Y-111373447D01*
X141385766Y-111340687D01*
X141441131Y-111257826D01*
X141460573Y-111160086D01*
X141441131Y-111062346D01*
X141385766Y-110979485D01*
X141336738Y-110946726D01*
X141330786Y-110937817D01*
X141332876Y-110927308D01*
X141336739Y-110923445D01*
X141385766Y-110890687D01*
X141441131Y-110807826D01*
X141460573Y-110710086D01*
X141441131Y-110612346D01*
X141385766Y-110529485D01*
X141336738Y-110496726D01*
X141330786Y-110487817D01*
X141332876Y-110477308D01*
X141336739Y-110473445D01*
X141385766Y-110440687D01*
X141441131Y-110357826D01*
X141460573Y-110260086D01*
X141441131Y-110162346D01*
X141385766Y-110079485D01*
X141302905Y-110024120D01*
X141302904Y-110024119D01*
X141302903Y-110024119D01*
X141205165Y-110004678D01*
X141107426Y-110024119D01*
X141024564Y-110079485D01*
X140991806Y-110128511D01*
X140982896Y-110134464D01*
X140972387Y-110132374D01*
X140968524Y-110128511D01*
X140935766Y-110079485D01*
X140852905Y-110024120D01*
X140852904Y-110024119D01*
X140852903Y-110024119D01*
X140755165Y-110004678D01*
X140657426Y-110024119D01*
X140574564Y-110079485D01*
X140541806Y-110128511D01*
X140532896Y-110134464D01*
X140522387Y-110132374D01*
X140518524Y-110128511D01*
X140485766Y-110079485D01*
X140402905Y-110024120D01*
X140402904Y-110024119D01*
X140402903Y-110024119D01*
X140305165Y-110004678D01*
X140207426Y-110024119D01*
X140124564Y-110079485D01*
X140091806Y-110128511D01*
X140082896Y-110134464D01*
X140072387Y-110132374D01*
X140068524Y-110128511D01*
X140035766Y-110079485D01*
X139952905Y-110024120D01*
X139952904Y-110024119D01*
X139952903Y-110024119D01*
X139855165Y-110004678D01*
X139757426Y-110024119D01*
X139674564Y-110079485D01*
X139641806Y-110128511D01*
X139632896Y-110134464D01*
X139622387Y-110132374D01*
X139618524Y-110128511D01*
X139585766Y-110079485D01*
X139506222Y-110026336D01*
X139500269Y-110017426D01*
X139500000Y-110014695D01*
X139500000Y-106823930D01*
X149469696Y-106823930D01*
X149486070Y-106948307D01*
X149490334Y-106980690D01*
X149490334Y-106980692D01*
X149550842Y-107126771D01*
X149550843Y-107126773D01*
X149590368Y-107178283D01*
X149647096Y-107252212D01*
X149772537Y-107348466D01*
X149918616Y-107408974D01*
X150042703Y-107425310D01*
X150075376Y-107429612D01*
X150075378Y-107429612D01*
X150075380Y-107429612D01*
X150102417Y-107426052D01*
X150232140Y-107408974D01*
X150378219Y-107348466D01*
X150503660Y-107252212D01*
X150599914Y-107126771D01*
X150660422Y-106980692D01*
X150663098Y-106960358D01*
X150668455Y-106951080D01*
X150678805Y-106948307D01*
X150688085Y-106953664D01*
X150690858Y-106960359D01*
X150693535Y-106980691D01*
X150693535Y-106980692D01*
X150754043Y-107126771D01*
X150754044Y-107126773D01*
X150793569Y-107178283D01*
X150850297Y-107252212D01*
X150975738Y-107348466D01*
X151121817Y-107408974D01*
X151245904Y-107425310D01*
X151278577Y-107429612D01*
X151278579Y-107429612D01*
X151278581Y-107429612D01*
X151305618Y-107426052D01*
X151435341Y-107408974D01*
X151581420Y-107348466D01*
X151706861Y-107252212D01*
X151803115Y-107126771D01*
X151863623Y-106980692D01*
X151884261Y-106823930D01*
X151863623Y-106667168D01*
X151803115Y-106521089D01*
X151706861Y-106395648D01*
X151632932Y-106338920D01*
X151581422Y-106299395D01*
X151581420Y-106299394D01*
X151581419Y-106299394D01*
X151435341Y-106238886D01*
X151383086Y-106232006D01*
X151278581Y-106218248D01*
X151278577Y-106218248D01*
X151174071Y-106232006D01*
X151121817Y-106238886D01*
X151121816Y-106238886D01*
X150975737Y-106299394D01*
X150975735Y-106299395D01*
X150850297Y-106395648D01*
X150754044Y-106521086D01*
X150754043Y-106521088D01*
X150693535Y-106667167D01*
X150693535Y-106667168D01*
X150690858Y-106687500D01*
X150685500Y-106696779D01*
X150675150Y-106699552D01*
X150665871Y-106694194D01*
X150663098Y-106687500D01*
X150660422Y-106667168D01*
X150599914Y-106521089D01*
X150503660Y-106395648D01*
X150429731Y-106338920D01*
X150378221Y-106299395D01*
X150378219Y-106299394D01*
X150232140Y-106238886D01*
X150179885Y-106232006D01*
X150075380Y-106218248D01*
X150075376Y-106218248D01*
X149970870Y-106232006D01*
X149918616Y-106238886D01*
X149918615Y-106238886D01*
X149772536Y-106299394D01*
X149772534Y-106299395D01*
X149647096Y-106395648D01*
X149550843Y-106521086D01*
X149550842Y-106521088D01*
X149490334Y-106667167D01*
X149490334Y-106667169D01*
X149473778Y-106792927D01*
X149469696Y-106823930D01*
X139500000Y-106823930D01*
X139500000Y-104329651D01*
X139504101Y-104319752D01*
X139514000Y-104315651D01*
X139517105Y-104316000D01*
X139533996Y-104319856D01*
X139673930Y-104309369D01*
X139804555Y-104258102D01*
X139914266Y-104170611D01*
X139993314Y-104054668D01*
X140034676Y-103920577D01*
X140034676Y-103637594D01*
X147107980Y-103637594D01*
X147128618Y-103794352D01*
X147128618Y-103794354D01*
X147189126Y-103940433D01*
X147189127Y-103940435D01*
X147226525Y-103989172D01*
X147285380Y-104065874D01*
X147410821Y-104162128D01*
X147556900Y-104222636D01*
X147680987Y-104238972D01*
X147713660Y-104243274D01*
X147713662Y-104243274D01*
X147713664Y-104243274D01*
X147740701Y-104239714D01*
X147870424Y-104222636D01*
X148016503Y-104162128D01*
X148141944Y-104065874D01*
X148238198Y-103940433D01*
X148298706Y-103794354D01*
X148319344Y-103637592D01*
X148298706Y-103480830D01*
X148238198Y-103334751D01*
X148141944Y-103209310D01*
X148068015Y-103152582D01*
X148016505Y-103113057D01*
X148016503Y-103113056D01*
X147870424Y-103052548D01*
X147850095Y-103049871D01*
X147840816Y-103044513D01*
X147838043Y-103034163D01*
X147843401Y-103024884D01*
X147850092Y-103022112D01*
X147870424Y-103019436D01*
X148016503Y-102958928D01*
X148141944Y-102862674D01*
X148238198Y-102737233D01*
X148298706Y-102591154D01*
X148319344Y-102434392D01*
X148298706Y-102277630D01*
X148238198Y-102131551D01*
X148141944Y-102006110D01*
X148068015Y-101949382D01*
X148016505Y-101909857D01*
X148016503Y-101909856D01*
X147870424Y-101849348D01*
X147818169Y-101842468D01*
X147713664Y-101828710D01*
X147713660Y-101828710D01*
X147609153Y-101842468D01*
X147556900Y-101849348D01*
X147556899Y-101849348D01*
X147410820Y-101909856D01*
X147410818Y-101909857D01*
X147285380Y-102006110D01*
X147189127Y-102131548D01*
X147189126Y-102131550D01*
X147128618Y-102277629D01*
X147128618Y-102277631D01*
X147107980Y-102434389D01*
X147107980Y-102434394D01*
X147128618Y-102591152D01*
X147128618Y-102591154D01*
X147189126Y-102737233D01*
X147189127Y-102737235D01*
X147200734Y-102752361D01*
X147285380Y-102862674D01*
X147410821Y-102958928D01*
X147556900Y-103019436D01*
X147577229Y-103022112D01*
X147586507Y-103027468D01*
X147589280Y-103037818D01*
X147583923Y-103047098D01*
X147577228Y-103049871D01*
X147556900Y-103052548D01*
X147556899Y-103052548D01*
X147410820Y-103113056D01*
X147410818Y-103113057D01*
X147285380Y-103209310D01*
X147189127Y-103334748D01*
X147189126Y-103334750D01*
X147128618Y-103480829D01*
X147128618Y-103480831D01*
X147107980Y-103637589D01*
X147107980Y-103637594D01*
X140034676Y-103637594D01*
X140034676Y-103085529D01*
X140019020Y-102981656D01*
X139958135Y-102855227D01*
X139905053Y-102798019D01*
X139862688Y-102752359D01*
X139741163Y-102682198D01*
X139741160Y-102682196D01*
X139604356Y-102650972D01*
X139515046Y-102657664D01*
X139504868Y-102654314D01*
X139500039Y-102644749D01*
X139500000Y-102643703D01*
X139500000Y-101675931D01*
X139504101Y-101666032D01*
X139514000Y-101661931D01*
X139520504Y-101663534D01*
X139572015Y-101690569D01*
X139618952Y-101715205D01*
X139741677Y-101745452D01*
X139784120Y-101755914D01*
X139954232Y-101755914D01*
X140036816Y-101735558D01*
X140119399Y-101715205D01*
X140119401Y-101715204D01*
X140270028Y-101636148D01*
X140397359Y-101523343D01*
X140493994Y-101383344D01*
X140529865Y-101288757D01*
X140554315Y-101224290D01*
X140554315Y-101224288D01*
X140554314Y-101224288D01*
X140554316Y-101224286D01*
X140569676Y-101097786D01*
X140569676Y-100933406D01*
X149436602Y-100933406D01*
X149440598Y-100966313D01*
X149440649Y-100967158D01*
X149440649Y-100977734D01*
X149443178Y-100987996D01*
X149443331Y-100988827D01*
X149447328Y-101021736D01*
X149452352Y-101029015D01*
X149454423Y-101033617D01*
X149456540Y-101042206D01*
X149456541Y-101042207D01*
X149478522Y-101067018D01*
X149479039Y-101067679D01*
X149486916Y-101079090D01*
X149497873Y-101094964D01*
X149504504Y-101098444D01*
X149505706Y-101099075D01*
X149509679Y-101102187D01*
X149515545Y-101108808D01*
X149546546Y-101120565D01*
X149547291Y-101120900D01*
X149576660Y-101136314D01*
X149585505Y-101136314D01*
X149590468Y-101137223D01*
X149598741Y-101140361D01*
X149631649Y-101136364D01*
X149632494Y-101136314D01*
X151085505Y-101136314D01*
X151090468Y-101137223D01*
X151098741Y-101140361D01*
X151131649Y-101136364D01*
X151132494Y-101136314D01*
X151143065Y-101136314D01*
X151143066Y-101136314D01*
X151153345Y-101133779D01*
X151154148Y-101133631D01*
X151187071Y-101129635D01*
X151194352Y-101124608D01*
X151198949Y-101122539D01*
X151207542Y-101120422D01*
X151232354Y-101098439D01*
X151232998Y-101097933D01*
X151260299Y-101079090D01*
X151264412Y-101071252D01*
X151267525Y-101067280D01*
X151274143Y-101061418D01*
X151285903Y-101030409D01*
X151286232Y-101029676D01*
X151301649Y-101000303D01*
X151301649Y-100991456D01*
X151302559Y-100986492D01*
X151305696Y-100978222D01*
X151301700Y-100945313D01*
X151301649Y-100944468D01*
X151301649Y-99491457D01*
X151302559Y-99486492D01*
X151305696Y-99478222D01*
X151301700Y-99445313D01*
X151301649Y-99444468D01*
X151301649Y-99433896D01*
X151300886Y-99430806D01*
X151299115Y-99423619D01*
X151298966Y-99422810D01*
X151294970Y-99389892D01*
X151294969Y-99389890D01*
X151294969Y-99389889D01*
X151289945Y-99382611D01*
X151287874Y-99378010D01*
X151285757Y-99369421D01*
X151263772Y-99344605D01*
X151263262Y-99343955D01*
X151244425Y-99316664D01*
X151244424Y-99316663D01*
X151236589Y-99312551D01*
X151232617Y-99309439D01*
X151226753Y-99302820D01*
X151195765Y-99291066D01*
X151194994Y-99290719D01*
X151165638Y-99275314D01*
X151156793Y-99275314D01*
X151151829Y-99274404D01*
X151143557Y-99271267D01*
X151143556Y-99271267D01*
X151110649Y-99275263D01*
X151109804Y-99275314D01*
X149656793Y-99275314D01*
X149651829Y-99274404D01*
X149643557Y-99271267D01*
X149643556Y-99271267D01*
X149610649Y-99275263D01*
X149609804Y-99275314D01*
X149599229Y-99275314D01*
X149588966Y-99277844D01*
X149588135Y-99277996D01*
X149555228Y-99281992D01*
X149555224Y-99281994D01*
X149547946Y-99287017D01*
X149543348Y-99289087D01*
X149534756Y-99291206D01*
X149509948Y-99313183D01*
X149509282Y-99313704D01*
X149482000Y-99332536D01*
X149481998Y-99332538D01*
X149477885Y-99340375D01*
X149474775Y-99344343D01*
X149471675Y-99347090D01*
X149468154Y-99350210D01*
X149456401Y-99381196D01*
X149456054Y-99381967D01*
X149440649Y-99411324D01*
X149440649Y-99420170D01*
X149439739Y-99425135D01*
X149436602Y-99433405D01*
X149436602Y-99433406D01*
X149440598Y-99466313D01*
X149440649Y-99467158D01*
X149440649Y-100920170D01*
X149439739Y-100925135D01*
X149436602Y-100933405D01*
X149436602Y-100933406D01*
X140569676Y-100933406D01*
X140569676Y-99813042D01*
X140554316Y-99686542D01*
X140554315Y-99686539D01*
X140554315Y-99686537D01*
X140493994Y-99527485D01*
X140493994Y-99527484D01*
X140397359Y-99387485D01*
X140397358Y-99387484D01*
X140397357Y-99387482D01*
X140270031Y-99274682D01*
X140270022Y-99274676D01*
X140119399Y-99195622D01*
X139954234Y-99154914D01*
X139954232Y-99154914D01*
X139784120Y-99154914D01*
X139784117Y-99154914D01*
X139618952Y-99195622D01*
X139520506Y-99247291D01*
X139509835Y-99248261D01*
X139501604Y-99241401D01*
X139500000Y-99234895D01*
X139500000Y-99014000D01*
X139504101Y-99004101D01*
X139514000Y-99000000D01*
X152486000Y-99000000D01*
X152495899Y-99004101D01*
G37*
%TD.AperFunction*%
%TA.AperFunction,Conductor*%
G36*
X139637943Y-113987797D02*
G01*
X139641805Y-113991659D01*
X139674564Y-114040687D01*
X139723590Y-114073445D01*
X139729543Y-114082355D01*
X139727453Y-114092864D01*
X139723590Y-114096727D01*
X139674564Y-114129485D01*
X139641806Y-114178511D01*
X139632896Y-114184464D01*
X139622387Y-114182374D01*
X139618524Y-114178511D01*
X139614796Y-114172932D01*
X139585766Y-114129485D01*
X139536738Y-114096726D01*
X139530786Y-114087817D01*
X139532876Y-114077308D01*
X139536739Y-114073445D01*
X139585766Y-114040687D01*
X139618524Y-113991659D01*
X139627434Y-113985707D01*
X139637943Y-113987797D01*
G37*
%TD.AperFunction*%
%TA.AperFunction,Conductor*%
G36*
X140087943Y-113987797D02*
G01*
X140091805Y-113991659D01*
X140124564Y-114040687D01*
X140173590Y-114073445D01*
X140179543Y-114082355D01*
X140177453Y-114092864D01*
X140173590Y-114096727D01*
X140124562Y-114129486D01*
X140091804Y-114178511D01*
X140082895Y-114184464D01*
X140072386Y-114182373D01*
X140068523Y-114178511D01*
X140066648Y-114175705D01*
X140035766Y-114129485D01*
X139986738Y-114096726D01*
X139980786Y-114087817D01*
X139982876Y-114077308D01*
X139986739Y-114073445D01*
X140035766Y-114040687D01*
X140068524Y-113991659D01*
X140077434Y-113985707D01*
X140087943Y-113987797D01*
G37*
%TD.AperFunction*%
%TA.AperFunction,Conductor*%
G36*
X140537943Y-113987797D02*
G01*
X140541805Y-113991659D01*
X140574564Y-114040687D01*
X140623590Y-114073445D01*
X140629543Y-114082355D01*
X140627453Y-114092864D01*
X140623590Y-114096727D01*
X140574564Y-114129485D01*
X140541806Y-114178511D01*
X140532896Y-114184464D01*
X140522387Y-114182374D01*
X140518524Y-114178511D01*
X140514796Y-114172932D01*
X140485766Y-114129485D01*
X140436738Y-114096726D01*
X140430786Y-114087817D01*
X140432876Y-114077308D01*
X140436739Y-114073445D01*
X140485766Y-114040687D01*
X140518524Y-113991659D01*
X140527434Y-113985707D01*
X140537943Y-113987797D01*
G37*
%TD.AperFunction*%
%TA.AperFunction,Conductor*%
G36*
X140987943Y-113987797D02*
G01*
X140991805Y-113991659D01*
X141024564Y-114040687D01*
X141073591Y-114073445D01*
X141079543Y-114082354D01*
X141077453Y-114092863D01*
X141073590Y-114096725D01*
X141024565Y-114129483D01*
X140991806Y-114178511D01*
X140982896Y-114184464D01*
X140972387Y-114182374D01*
X140968524Y-114178511D01*
X140964796Y-114172932D01*
X140935766Y-114129485D01*
X140886738Y-114096726D01*
X140880786Y-114087817D01*
X140882876Y-114077308D01*
X140886739Y-114073445D01*
X140935766Y-114040687D01*
X140968524Y-113991659D01*
X140977434Y-113985707D01*
X140987943Y-113987797D01*
G37*
%TD.AperFunction*%
%TA.AperFunction,Conductor*%
G36*
X139637943Y-113537797D02*
G01*
X139641805Y-113541659D01*
X139674564Y-113590687D01*
X139723591Y-113623445D01*
X139729543Y-113632354D01*
X139727453Y-113642863D01*
X139723590Y-113646725D01*
X139674565Y-113679483D01*
X139641806Y-113728511D01*
X139632896Y-113734464D01*
X139622387Y-113732374D01*
X139618524Y-113728511D01*
X139585766Y-113679485D01*
X139536738Y-113646726D01*
X139530786Y-113637817D01*
X139532876Y-113627308D01*
X139536739Y-113623445D01*
X139585766Y-113590687D01*
X139618524Y-113541659D01*
X139627434Y-113535707D01*
X139637943Y-113537797D01*
G37*
%TD.AperFunction*%
%TA.AperFunction,Conductor*%
G36*
X140087942Y-113537797D02*
G01*
X140091804Y-113541660D01*
X140124562Y-113590685D01*
X140124563Y-113590685D01*
X140124564Y-113590687D01*
X140173591Y-113623445D01*
X140179543Y-113632354D01*
X140177453Y-113642863D01*
X140173590Y-113646725D01*
X140124565Y-113679483D01*
X140091806Y-113728511D01*
X140082896Y-113734464D01*
X140072387Y-113732374D01*
X140068524Y-113728511D01*
X140035766Y-113679485D01*
X139986738Y-113646726D01*
X139980786Y-113637817D01*
X139982876Y-113627308D01*
X139986739Y-113623445D01*
X140035766Y-113590687D01*
X140068523Y-113541659D01*
X140077432Y-113535707D01*
X140087942Y-113537797D01*
G37*
%TD.AperFunction*%
%TA.AperFunction,Conductor*%
G36*
X140537943Y-113537797D02*
G01*
X140541805Y-113541659D01*
X140574564Y-113590687D01*
X140623590Y-113623445D01*
X140629543Y-113632355D01*
X140627453Y-113642864D01*
X140623590Y-113646727D01*
X140574564Y-113679485D01*
X140541806Y-113728511D01*
X140532896Y-113734464D01*
X140522387Y-113732374D01*
X140518524Y-113728511D01*
X140485766Y-113679485D01*
X140436738Y-113646726D01*
X140430786Y-113637817D01*
X140432876Y-113627308D01*
X140436739Y-113623445D01*
X140485766Y-113590687D01*
X140518524Y-113541659D01*
X140527434Y-113535707D01*
X140537943Y-113537797D01*
G37*
%TD.AperFunction*%
%TA.AperFunction,Conductor*%
G36*
X140987943Y-113537797D02*
G01*
X140991805Y-113541659D01*
X141024564Y-113590687D01*
X141073591Y-113623445D01*
X141079543Y-113632354D01*
X141077453Y-113642863D01*
X141073590Y-113646725D01*
X141024565Y-113679483D01*
X140991806Y-113728511D01*
X140982896Y-113734464D01*
X140972387Y-113732374D01*
X140968524Y-113728511D01*
X140935766Y-113679485D01*
X140886738Y-113646726D01*
X140880786Y-113637817D01*
X140882876Y-113627308D01*
X140886739Y-113623445D01*
X140935766Y-113590687D01*
X140968524Y-113541659D01*
X140977434Y-113535707D01*
X140987943Y-113537797D01*
G37*
%TD.AperFunction*%
%TA.AperFunction,Conductor*%
G36*
X139637943Y-113087797D02*
G01*
X139641805Y-113091659D01*
X139674564Y-113140687D01*
X139723590Y-113173445D01*
X139729543Y-113182355D01*
X139727453Y-113192864D01*
X139723590Y-113196727D01*
X139674564Y-113229485D01*
X139641806Y-113278511D01*
X139632896Y-113284464D01*
X139622387Y-113282374D01*
X139618524Y-113278511D01*
X139615264Y-113273632D01*
X139585766Y-113229485D01*
X139563420Y-113214554D01*
X139536739Y-113196726D01*
X139530786Y-113187816D01*
X139532876Y-113177307D01*
X139536735Y-113173447D01*
X139585766Y-113140687D01*
X139618524Y-113091659D01*
X139627434Y-113085707D01*
X139637943Y-113087797D01*
G37*
%TD.AperFunction*%
%TA.AperFunction,Conductor*%
G36*
X140087942Y-113087797D02*
G01*
X140091804Y-113091660D01*
X140124562Y-113140686D01*
X140135796Y-113148192D01*
X140173588Y-113173444D01*
X140173590Y-113173445D01*
X140179543Y-113182355D01*
X140177453Y-113192864D01*
X140173590Y-113196727D01*
X140124562Y-113229486D01*
X140091804Y-113278511D01*
X140082895Y-113284464D01*
X140072386Y-113282373D01*
X140068523Y-113278511D01*
X140065263Y-113273632D01*
X140035766Y-113229485D01*
X139986738Y-113196726D01*
X139980786Y-113187817D01*
X139982876Y-113177308D01*
X139986739Y-113173445D01*
X140035766Y-113140687D01*
X140068523Y-113091659D01*
X140077432Y-113085707D01*
X140087942Y-113087797D01*
G37*
%TD.AperFunction*%
%TA.AperFunction,Conductor*%
G36*
X140537943Y-113087797D02*
G01*
X140541805Y-113091659D01*
X140574564Y-113140687D01*
X140623590Y-113173445D01*
X140629543Y-113182355D01*
X140627453Y-113192864D01*
X140623590Y-113196727D01*
X140574564Y-113229485D01*
X140541806Y-113278511D01*
X140532896Y-113284464D01*
X140522387Y-113282374D01*
X140518524Y-113278511D01*
X140515264Y-113273632D01*
X140485766Y-113229485D01*
X140436738Y-113196726D01*
X140430786Y-113187817D01*
X140432876Y-113177308D01*
X140436739Y-113173445D01*
X140485766Y-113140687D01*
X140518524Y-113091659D01*
X140527434Y-113085707D01*
X140537943Y-113087797D01*
G37*
%TD.AperFunction*%
%TA.AperFunction,Conductor*%
G36*
X140987943Y-113087797D02*
G01*
X140991805Y-113091659D01*
X141024564Y-113140687D01*
X141073590Y-113173445D01*
X141079543Y-113182355D01*
X141077453Y-113192864D01*
X141073590Y-113196727D01*
X141024564Y-113229485D01*
X140991806Y-113278511D01*
X140982896Y-113284464D01*
X140972387Y-113282374D01*
X140968524Y-113278511D01*
X140965264Y-113273632D01*
X140935766Y-113229485D01*
X140913420Y-113214554D01*
X140886739Y-113196726D01*
X140880786Y-113187816D01*
X140882876Y-113177307D01*
X140886735Y-113173447D01*
X140935766Y-113140687D01*
X140968524Y-113091659D01*
X140977434Y-113085707D01*
X140987943Y-113087797D01*
G37*
%TD.AperFunction*%
%TA.AperFunction,Conductor*%
G36*
X139637943Y-112637797D02*
G01*
X139641805Y-112641659D01*
X139674564Y-112690687D01*
X139723590Y-112723444D01*
X139729543Y-112732354D01*
X139727453Y-112742863D01*
X139723590Y-112746725D01*
X139674565Y-112779483D01*
X139641806Y-112828511D01*
X139632896Y-112834464D01*
X139622387Y-112832374D01*
X139618524Y-112828511D01*
X139609058Y-112814344D01*
X139585766Y-112779485D01*
X139536738Y-112746726D01*
X139530786Y-112737817D01*
X139532876Y-112727308D01*
X139536739Y-112723445D01*
X139585766Y-112690687D01*
X139618524Y-112641659D01*
X139627434Y-112635707D01*
X139637943Y-112637797D01*
G37*
%TD.AperFunction*%
%TA.AperFunction,Conductor*%
G36*
X140087943Y-112637797D02*
G01*
X140091805Y-112641659D01*
X140124564Y-112690687D01*
X140173591Y-112723445D01*
X140179543Y-112732354D01*
X140177453Y-112742863D01*
X140173590Y-112746725D01*
X140124564Y-112779484D01*
X140091804Y-112828511D01*
X140082895Y-112834464D01*
X140072386Y-112832373D01*
X140068523Y-112828511D01*
X140059057Y-112814344D01*
X140035766Y-112779485D01*
X140035764Y-112779484D01*
X140035764Y-112779483D01*
X139986739Y-112746725D01*
X139980786Y-112737816D01*
X139982877Y-112727307D01*
X139986737Y-112723445D01*
X140035766Y-112690687D01*
X140068524Y-112641659D01*
X140077434Y-112635707D01*
X140087943Y-112637797D01*
G37*
%TD.AperFunction*%
%TA.AperFunction,Conductor*%
G36*
X140537943Y-112637797D02*
G01*
X140541805Y-112641659D01*
X140574564Y-112690687D01*
X140623591Y-112723445D01*
X140629543Y-112732354D01*
X140627453Y-112742863D01*
X140623590Y-112746725D01*
X140574565Y-112779483D01*
X140541806Y-112828511D01*
X140532896Y-112834464D01*
X140522387Y-112832374D01*
X140518524Y-112828511D01*
X140509058Y-112814344D01*
X140485766Y-112779485D01*
X140436738Y-112746726D01*
X140430786Y-112737817D01*
X140432876Y-112727308D01*
X140436739Y-112723445D01*
X140485766Y-112690687D01*
X140518524Y-112641659D01*
X140527434Y-112635707D01*
X140537943Y-112637797D01*
G37*
%TD.AperFunction*%
%TA.AperFunction,Conductor*%
G36*
X140987943Y-112637797D02*
G01*
X140991805Y-112641659D01*
X141024564Y-112690687D01*
X141073590Y-112723445D01*
X141079543Y-112732355D01*
X141077453Y-112742864D01*
X141073590Y-112746727D01*
X141024564Y-112779485D01*
X140991806Y-112828511D01*
X140982896Y-112834464D01*
X140972387Y-112832374D01*
X140968524Y-112828511D01*
X140959058Y-112814344D01*
X140935766Y-112779485D01*
X140886738Y-112746726D01*
X140880786Y-112737817D01*
X140882876Y-112727308D01*
X140886739Y-112723445D01*
X140935766Y-112690687D01*
X140968524Y-112641659D01*
X140977434Y-112635707D01*
X140987943Y-112637797D01*
G37*
%TD.AperFunction*%
%TA.AperFunction,Conductor*%
G36*
X139637943Y-112187797D02*
G01*
X139641805Y-112191659D01*
X139674564Y-112240687D01*
X139723590Y-112273445D01*
X139729543Y-112282355D01*
X139727453Y-112292864D01*
X139723590Y-112296727D01*
X139674564Y-112329485D01*
X139641806Y-112378511D01*
X139632896Y-112384464D01*
X139622387Y-112382374D01*
X139618524Y-112378511D01*
X139585766Y-112329485D01*
X139536738Y-112296726D01*
X139530786Y-112287817D01*
X139532876Y-112277308D01*
X139536739Y-112273445D01*
X139585766Y-112240687D01*
X139618524Y-112191659D01*
X139627434Y-112185707D01*
X139637943Y-112187797D01*
G37*
%TD.AperFunction*%
%TA.AperFunction,Conductor*%
G36*
X140087942Y-112187797D02*
G01*
X140091804Y-112191660D01*
X140124562Y-112240686D01*
X140153927Y-112260307D01*
X140173588Y-112273444D01*
X140173590Y-112273445D01*
X140179543Y-112282355D01*
X140177453Y-112292864D01*
X140173590Y-112296727D01*
X140124564Y-112329485D01*
X140091806Y-112378511D01*
X140082896Y-112384464D01*
X140072387Y-112382374D01*
X140068524Y-112378511D01*
X140035766Y-112329485D01*
X139986738Y-112296726D01*
X139980786Y-112287817D01*
X139982876Y-112277308D01*
X139986739Y-112273445D01*
X140035766Y-112240687D01*
X140068523Y-112191659D01*
X140077432Y-112185707D01*
X140087942Y-112187797D01*
G37*
%TD.AperFunction*%
%TA.AperFunction,Conductor*%
G36*
X140537943Y-112187797D02*
G01*
X140541805Y-112191659D01*
X140574564Y-112240687D01*
X140623590Y-112273445D01*
X140629543Y-112282355D01*
X140627453Y-112292864D01*
X140623590Y-112296727D01*
X140574564Y-112329485D01*
X140541806Y-112378511D01*
X140532896Y-112384464D01*
X140522387Y-112382374D01*
X140518524Y-112378511D01*
X140485766Y-112329485D01*
X140436738Y-112296726D01*
X140430786Y-112287817D01*
X140432876Y-112277308D01*
X140436739Y-112273445D01*
X140485766Y-112240687D01*
X140518524Y-112191659D01*
X140527434Y-112185707D01*
X140537943Y-112187797D01*
G37*
%TD.AperFunction*%
%TA.AperFunction,Conductor*%
G36*
X140987943Y-112187797D02*
G01*
X140991805Y-112191659D01*
X141024564Y-112240687D01*
X141073591Y-112273445D01*
X141079543Y-112282354D01*
X141077453Y-112292863D01*
X141073590Y-112296725D01*
X141024565Y-112329483D01*
X140991806Y-112378511D01*
X140982896Y-112384464D01*
X140972387Y-112382374D01*
X140968524Y-112378511D01*
X140935766Y-112329485D01*
X140886738Y-112296726D01*
X140880786Y-112287817D01*
X140882876Y-112277308D01*
X140886739Y-112273445D01*
X140935766Y-112240687D01*
X140968524Y-112191659D01*
X140977434Y-112185707D01*
X140987943Y-112187797D01*
G37*
%TD.AperFunction*%
%TA.AperFunction,Conductor*%
G36*
X139637943Y-111737797D02*
G01*
X139641805Y-111741659D01*
X139674564Y-111790687D01*
X139723591Y-111823445D01*
X139729543Y-111832354D01*
X139727453Y-111842863D01*
X139723590Y-111846725D01*
X139674565Y-111879483D01*
X139641806Y-111928511D01*
X139632896Y-111934464D01*
X139622387Y-111932374D01*
X139618524Y-111928511D01*
X139585766Y-111879485D01*
X139536738Y-111846726D01*
X139530786Y-111837817D01*
X139532876Y-111827308D01*
X139536739Y-111823445D01*
X139585766Y-111790687D01*
X139618524Y-111741659D01*
X139627434Y-111735707D01*
X139637943Y-111737797D01*
G37*
%TD.AperFunction*%
%TA.AperFunction,Conductor*%
G36*
X140087942Y-111737797D02*
G01*
X140091804Y-111741660D01*
X140124562Y-111790685D01*
X140124563Y-111790685D01*
X140124564Y-111790687D01*
X140173591Y-111823445D01*
X140179543Y-111832354D01*
X140177453Y-111842863D01*
X140173590Y-111846725D01*
X140124564Y-111879484D01*
X140091804Y-111928511D01*
X140082895Y-111934464D01*
X140072386Y-111932373D01*
X140068523Y-111928511D01*
X140035766Y-111879485D01*
X139986738Y-111846726D01*
X139980786Y-111837817D01*
X139982876Y-111827308D01*
X139986739Y-111823445D01*
X140035766Y-111790687D01*
X140068523Y-111741659D01*
X140077432Y-111735707D01*
X140087942Y-111737797D01*
G37*
%TD.AperFunction*%
%TA.AperFunction,Conductor*%
G36*
X140537943Y-111737797D02*
G01*
X140541805Y-111741659D01*
X140574564Y-111790687D01*
X140623590Y-111823445D01*
X140629543Y-111832355D01*
X140627453Y-111842864D01*
X140623590Y-111846727D01*
X140574564Y-111879485D01*
X140541806Y-111928511D01*
X140532896Y-111934464D01*
X140522387Y-111932374D01*
X140518524Y-111928511D01*
X140485766Y-111879485D01*
X140436738Y-111846726D01*
X140430786Y-111837817D01*
X140432876Y-111827308D01*
X140436739Y-111823445D01*
X140485766Y-111790687D01*
X140518524Y-111741659D01*
X140527434Y-111735707D01*
X140537943Y-111737797D01*
G37*
%TD.AperFunction*%
%TA.AperFunction,Conductor*%
G36*
X140987943Y-111737797D02*
G01*
X140991805Y-111741659D01*
X141024564Y-111790687D01*
X141073591Y-111823445D01*
X141079543Y-111832354D01*
X141077453Y-111842863D01*
X141073590Y-111846725D01*
X141024565Y-111879483D01*
X140991806Y-111928511D01*
X140982896Y-111934464D01*
X140972387Y-111932374D01*
X140968524Y-111928511D01*
X140935766Y-111879485D01*
X140886738Y-111846726D01*
X140880786Y-111837817D01*
X140882876Y-111827308D01*
X140886739Y-111823445D01*
X140935766Y-111790687D01*
X140968524Y-111741659D01*
X140977434Y-111735707D01*
X140987943Y-111737797D01*
G37*
%TD.AperFunction*%
%TA.AperFunction,Conductor*%
G36*
X139637943Y-111287797D02*
G01*
X139641805Y-111291659D01*
X139674564Y-111340687D01*
X139723590Y-111373445D01*
X139729543Y-111382355D01*
X139727453Y-111392864D01*
X139723590Y-111396727D01*
X139674564Y-111429485D01*
X139641806Y-111478511D01*
X139632896Y-111484464D01*
X139622387Y-111482374D01*
X139618524Y-111478511D01*
X139585766Y-111429485D01*
X139536738Y-111396726D01*
X139530786Y-111387817D01*
X139532876Y-111377308D01*
X139536739Y-111373445D01*
X139585766Y-111340687D01*
X139618524Y-111291659D01*
X139627434Y-111285707D01*
X139637943Y-111287797D01*
G37*
%TD.AperFunction*%
%TA.AperFunction,Conductor*%
G36*
X140087942Y-111287797D02*
G01*
X140091804Y-111291660D01*
X140124562Y-111340686D01*
X140169954Y-111371015D01*
X140173588Y-111373444D01*
X140173590Y-111373445D01*
X140179543Y-111382355D01*
X140177453Y-111392864D01*
X140173590Y-111396727D01*
X140124562Y-111429486D01*
X140091804Y-111478511D01*
X140082895Y-111484464D01*
X140072386Y-111482373D01*
X140068523Y-111478511D01*
X140035766Y-111429485D01*
X140035764Y-111429484D01*
X140035764Y-111429483D01*
X139986739Y-111396725D01*
X139980786Y-111387816D01*
X139982877Y-111377307D01*
X139986737Y-111373445D01*
X140035766Y-111340687D01*
X140068523Y-111291659D01*
X140077432Y-111285707D01*
X140087942Y-111287797D01*
G37*
%TD.AperFunction*%
%TA.AperFunction,Conductor*%
G36*
X140537943Y-111287797D02*
G01*
X140541805Y-111291659D01*
X140574564Y-111340687D01*
X140623590Y-111373445D01*
X140629543Y-111382355D01*
X140627453Y-111392864D01*
X140623590Y-111396727D01*
X140574564Y-111429485D01*
X140541806Y-111478511D01*
X140532896Y-111484464D01*
X140522387Y-111482374D01*
X140518524Y-111478511D01*
X140485766Y-111429485D01*
X140463420Y-111414554D01*
X140436739Y-111396726D01*
X140430786Y-111387816D01*
X140432876Y-111377307D01*
X140436735Y-111373447D01*
X140485766Y-111340687D01*
X140518524Y-111291659D01*
X140527434Y-111285707D01*
X140537943Y-111287797D01*
G37*
%TD.AperFunction*%
%TA.AperFunction,Conductor*%
G36*
X140987943Y-111287797D02*
G01*
X140991805Y-111291659D01*
X141024564Y-111340687D01*
X141073590Y-111373445D01*
X141079543Y-111382355D01*
X141077453Y-111392864D01*
X141073590Y-111396727D01*
X141024564Y-111429485D01*
X140991806Y-111478511D01*
X140982896Y-111484464D01*
X140972387Y-111482374D01*
X140968524Y-111478511D01*
X140935766Y-111429485D01*
X140886738Y-111396726D01*
X140880786Y-111387817D01*
X140882876Y-111377308D01*
X140886739Y-111373445D01*
X140935766Y-111340687D01*
X140968524Y-111291659D01*
X140977434Y-111285707D01*
X140987943Y-111287797D01*
G37*
%TD.AperFunction*%
%TA.AperFunction,Conductor*%
G36*
X139637943Y-110837797D02*
G01*
X139641805Y-110841659D01*
X139674564Y-110890687D01*
X139723590Y-110923445D01*
X139729543Y-110932355D01*
X139727453Y-110942864D01*
X139723590Y-110946727D01*
X139674564Y-110979485D01*
X139641806Y-111028511D01*
X139632896Y-111034464D01*
X139622387Y-111032374D01*
X139618524Y-111028511D01*
X139585766Y-110979485D01*
X139563420Y-110964554D01*
X139536739Y-110946726D01*
X139530786Y-110937816D01*
X139532876Y-110927307D01*
X139536735Y-110923447D01*
X139585766Y-110890687D01*
X139618524Y-110841659D01*
X139627434Y-110835707D01*
X139637943Y-110837797D01*
G37*
%TD.AperFunction*%
%TA.AperFunction,Conductor*%
G36*
X140087942Y-110837797D02*
G01*
X140091804Y-110841660D01*
X140124562Y-110890685D01*
X140124563Y-110890685D01*
X140124564Y-110890687D01*
X140173590Y-110923444D01*
X140179543Y-110932354D01*
X140177453Y-110942863D01*
X140173590Y-110946725D01*
X140124565Y-110979483D01*
X140091806Y-111028511D01*
X140082896Y-111034464D01*
X140072387Y-111032374D01*
X140068524Y-111028511D01*
X140035766Y-110979485D01*
X139986738Y-110946726D01*
X139980786Y-110937817D01*
X139982876Y-110927308D01*
X139986739Y-110923445D01*
X140035766Y-110890687D01*
X140068523Y-110841659D01*
X140077432Y-110835707D01*
X140087942Y-110837797D01*
G37*
%TD.AperFunction*%
%TA.AperFunction,Conductor*%
G36*
X140537943Y-110837797D02*
G01*
X140541805Y-110841659D01*
X140574564Y-110890687D01*
X140623591Y-110923445D01*
X140629543Y-110932354D01*
X140627453Y-110942863D01*
X140623590Y-110946725D01*
X140574565Y-110979483D01*
X140541806Y-111028511D01*
X140532896Y-111034464D01*
X140522387Y-111032374D01*
X140518524Y-111028511D01*
X140485765Y-110979483D01*
X140436739Y-110946725D01*
X140430786Y-110937816D01*
X140432877Y-110927307D01*
X140436737Y-110923445D01*
X140485766Y-110890687D01*
X140518524Y-110841659D01*
X140527434Y-110835707D01*
X140537943Y-110837797D01*
G37*
%TD.AperFunction*%
%TA.AperFunction,Conductor*%
G36*
X140987943Y-110837797D02*
G01*
X140991805Y-110841659D01*
X141024564Y-110890687D01*
X141073590Y-110923445D01*
X141079543Y-110932355D01*
X141077453Y-110942864D01*
X141073590Y-110946727D01*
X141024564Y-110979485D01*
X140991806Y-111028511D01*
X140982896Y-111034464D01*
X140972387Y-111032374D01*
X140968524Y-111028511D01*
X140935766Y-110979485D01*
X140886738Y-110946726D01*
X140880786Y-110937817D01*
X140882876Y-110927308D01*
X140886739Y-110923445D01*
X140935766Y-110890687D01*
X140968524Y-110841659D01*
X140977434Y-110835707D01*
X140987943Y-110837797D01*
G37*
%TD.AperFunction*%
%TA.AperFunction,Conductor*%
G36*
X139637943Y-110387797D02*
G01*
X139641805Y-110391659D01*
X139674564Y-110440687D01*
X139723590Y-110473445D01*
X139729543Y-110482355D01*
X139727453Y-110492864D01*
X139723590Y-110496727D01*
X139674564Y-110529485D01*
X139641806Y-110578511D01*
X139632896Y-110584464D01*
X139622387Y-110582374D01*
X139618524Y-110578511D01*
X139585766Y-110529485D01*
X139536738Y-110496726D01*
X139530786Y-110487817D01*
X139532876Y-110477308D01*
X139536739Y-110473445D01*
X139585766Y-110440687D01*
X139618524Y-110391659D01*
X139627434Y-110385707D01*
X139637943Y-110387797D01*
G37*
%TD.AperFunction*%
%TA.AperFunction,Conductor*%
G36*
X140087943Y-110387797D02*
G01*
X140091805Y-110391659D01*
X140124564Y-110440687D01*
X140173590Y-110473445D01*
X140179543Y-110482355D01*
X140177453Y-110492864D01*
X140173590Y-110496727D01*
X140124562Y-110529486D01*
X140091804Y-110578511D01*
X140082895Y-110584464D01*
X140072386Y-110582373D01*
X140068523Y-110578511D01*
X140035766Y-110529485D01*
X139986738Y-110496726D01*
X139980786Y-110487817D01*
X139982876Y-110477308D01*
X139986739Y-110473445D01*
X140035766Y-110440687D01*
X140068524Y-110391659D01*
X140077434Y-110385707D01*
X140087943Y-110387797D01*
G37*
%TD.AperFunction*%
%TA.AperFunction,Conductor*%
G36*
X140537943Y-110387797D02*
G01*
X140541805Y-110391659D01*
X140574564Y-110440687D01*
X140623590Y-110473445D01*
X140629543Y-110482355D01*
X140627453Y-110492864D01*
X140623590Y-110496727D01*
X140574564Y-110529485D01*
X140541806Y-110578511D01*
X140532896Y-110584464D01*
X140522387Y-110582374D01*
X140518524Y-110578511D01*
X140485766Y-110529485D01*
X140436738Y-110496726D01*
X140430786Y-110487817D01*
X140432876Y-110477308D01*
X140436739Y-110473445D01*
X140485766Y-110440687D01*
X140518524Y-110391659D01*
X140527434Y-110385707D01*
X140537943Y-110387797D01*
G37*
%TD.AperFunction*%
%TA.AperFunction,Conductor*%
G36*
X140987943Y-110387797D02*
G01*
X140991805Y-110391659D01*
X141024564Y-110440687D01*
X141073591Y-110473445D01*
X141079543Y-110482354D01*
X141077453Y-110492863D01*
X141073590Y-110496725D01*
X141024565Y-110529483D01*
X140991806Y-110578511D01*
X140982896Y-110584464D01*
X140972387Y-110582374D01*
X140968524Y-110578511D01*
X140935766Y-110529485D01*
X140886738Y-110496726D01*
X140880786Y-110487817D01*
X140882876Y-110477308D01*
X140886739Y-110473445D01*
X140935766Y-110440687D01*
X140968524Y-110391659D01*
X140977434Y-110385707D01*
X140987943Y-110387797D01*
G37*
%TD.AperFunction*%
%TD*%
%TA.AperFunction,Conductor*%
%TO.N,unconnected-(U9-AH1_QVAR1-Pad6)*%
G36*
X137090443Y-114195297D02*
G01*
X137094305Y-114199159D01*
X137127064Y-114248187D01*
X137176090Y-114280945D01*
X137182043Y-114289855D01*
X137179953Y-114300364D01*
X137176090Y-114304227D01*
X137127064Y-114336985D01*
X137094306Y-114386011D01*
X137085396Y-114391964D01*
X137074887Y-114389874D01*
X137071024Y-114386011D01*
X137069044Y-114383048D01*
X137038266Y-114336985D01*
X136989238Y-114304226D01*
X136983286Y-114295317D01*
X136985376Y-114284808D01*
X136989239Y-114280945D01*
X137038266Y-114248187D01*
X137071024Y-114199159D01*
X137079934Y-114193207D01*
X137090443Y-114195297D01*
G37*
%TD.AperFunction*%
%TA.AperFunction,Conductor*%
G36*
X135364575Y-99004101D02*
G01*
X135368676Y-99014000D01*
X135368676Y-101465310D01*
X135368677Y-101465313D01*
X135374507Y-101494627D01*
X135396719Y-101527871D01*
X135429963Y-101550083D01*
X135459277Y-101555914D01*
X136904074Y-101555913D01*
X136933389Y-101550083D01*
X136966633Y-101527871D01*
X136988845Y-101494627D01*
X136994676Y-101465313D01*
X136994675Y-99013999D01*
X136998776Y-99004101D01*
X137008675Y-99000000D01*
X137279676Y-99000000D01*
X137289575Y-99004101D01*
X137293676Y-99014000D01*
X137293676Y-101465310D01*
X137293677Y-101465313D01*
X137299507Y-101494627D01*
X137321719Y-101527871D01*
X137354963Y-101550083D01*
X137384277Y-101555914D01*
X138829074Y-101555913D01*
X138858389Y-101550083D01*
X138891633Y-101527871D01*
X138913845Y-101494627D01*
X138919676Y-101465313D01*
X138919675Y-99013999D01*
X138923776Y-99004101D01*
X138933675Y-99000000D01*
X139380500Y-99000000D01*
X139390399Y-99004101D01*
X139394500Y-99014000D01*
X139394500Y-99234900D01*
X139397566Y-99260148D01*
X139399171Y-99266654D01*
X139399323Y-99267265D01*
X139420692Y-99301211D01*
X139422496Y-99311773D01*
X139418128Y-99319148D01*
X139340994Y-99387482D01*
X139340993Y-99387484D01*
X139244357Y-99527485D01*
X139184036Y-99686537D01*
X139184036Y-99686539D01*
X139168676Y-99813036D01*
X139168676Y-101097791D01*
X139184036Y-101224288D01*
X139184036Y-101224290D01*
X139241735Y-101376428D01*
X139244358Y-101383344D01*
X139300937Y-101465312D01*
X139340993Y-101523343D01*
X139340994Y-101523345D01*
X139417812Y-101591399D01*
X139422502Y-101601033D01*
X139419174Y-101610970D01*
X139406635Y-101625651D01*
X139406634Y-101625652D01*
X139406634Y-101625653D01*
X139402533Y-101635552D01*
X139394838Y-101674235D01*
X139394500Y-101675932D01*
X139394500Y-102645668D01*
X139394612Y-102648682D01*
X139394612Y-102648684D01*
X139400925Y-102673163D01*
X139399427Y-102683773D01*
X139392484Y-102689691D01*
X139333797Y-102712725D01*
X139224086Y-102800216D01*
X139224084Y-102800218D01*
X139145040Y-102916156D01*
X139145037Y-102916161D01*
X139103676Y-103050252D01*
X139103676Y-103885298D01*
X139119332Y-103989173D01*
X139170455Y-104095330D01*
X139180217Y-104115601D01*
X139226340Y-104165310D01*
X139275663Y-104218468D01*
X139393408Y-104286447D01*
X139399931Y-104294947D01*
X139400139Y-104301302D01*
X139394500Y-104329651D01*
X139394500Y-109995309D01*
X139390399Y-110005208D01*
X139383231Y-110009040D01*
X139307426Y-110024119D01*
X139224564Y-110079485D01*
X139191806Y-110128511D01*
X139182896Y-110134464D01*
X139172387Y-110132374D01*
X139168524Y-110128511D01*
X139165174Y-110123498D01*
X139135766Y-110079485D01*
X139052905Y-110024120D01*
X139052904Y-110024119D01*
X139052903Y-110024119D01*
X138955165Y-110004678D01*
X138857426Y-110024119D01*
X138774564Y-110079485D01*
X138741806Y-110128511D01*
X138732896Y-110134464D01*
X138722387Y-110132374D01*
X138718524Y-110128511D01*
X138715174Y-110123498D01*
X138685766Y-110079485D01*
X138602905Y-110024120D01*
X138602904Y-110024119D01*
X138602903Y-110024119D01*
X138505165Y-110004678D01*
X138407426Y-110024119D01*
X138324564Y-110079485D01*
X138291806Y-110128511D01*
X138282896Y-110134464D01*
X138272387Y-110132374D01*
X138268524Y-110128511D01*
X138265174Y-110123498D01*
X138235766Y-110079485D01*
X138152905Y-110024120D01*
X138152904Y-110024119D01*
X138152903Y-110024119D01*
X138055165Y-110004678D01*
X137957426Y-110024119D01*
X137874564Y-110079485D01*
X137819198Y-110162347D01*
X137799757Y-110260085D01*
X137799757Y-110260086D01*
X137819198Y-110357824D01*
X137819198Y-110357825D01*
X137819199Y-110357826D01*
X137874564Y-110440687D01*
X137923590Y-110473445D01*
X137929543Y-110482355D01*
X137927453Y-110492864D01*
X137923590Y-110496726D01*
X137898574Y-110513442D01*
X137874564Y-110529485D01*
X137819198Y-110612347D01*
X137799757Y-110710085D01*
X137799757Y-110710086D01*
X137819198Y-110807824D01*
X137819198Y-110807825D01*
X137819199Y-110807826D01*
X137874564Y-110890687D01*
X137923591Y-110923445D01*
X137929543Y-110932354D01*
X137927453Y-110942863D01*
X137923590Y-110946725D01*
X137874565Y-110979483D01*
X137819198Y-111062347D01*
X137799757Y-111160085D01*
X137799757Y-111160086D01*
X137819198Y-111257824D01*
X137819198Y-111257825D01*
X137819199Y-111257826D01*
X137874564Y-111340687D01*
X137923590Y-111373445D01*
X137929543Y-111382355D01*
X137927453Y-111392864D01*
X137923590Y-111396726D01*
X137898573Y-111413443D01*
X137874564Y-111429485D01*
X137841806Y-111478511D01*
X137832896Y-111484464D01*
X137822387Y-111482374D01*
X137818524Y-111478511D01*
X137813724Y-111471327D01*
X137785766Y-111429485D01*
X137702905Y-111374120D01*
X137702904Y-111374119D01*
X137702903Y-111374119D01*
X137605165Y-111354678D01*
X137507426Y-111374119D01*
X137424564Y-111429485D01*
X137391806Y-111478511D01*
X137382896Y-111484464D01*
X137372387Y-111482374D01*
X137368524Y-111478511D01*
X137363724Y-111471327D01*
X137335766Y-111429485D01*
X137252905Y-111374120D01*
X137252904Y-111374119D01*
X137252903Y-111374119D01*
X137155165Y-111354678D01*
X137057426Y-111374119D01*
X136974564Y-111429485D01*
X136919198Y-111512347D01*
X136899757Y-111610085D01*
X136899757Y-111610086D01*
X136919198Y-111707824D01*
X136919198Y-111707825D01*
X136919199Y-111707826D01*
X136974564Y-111790687D01*
X137057425Y-111846052D01*
X137155165Y-111865494D01*
X137252905Y-111846052D01*
X137335766Y-111790687D01*
X137368524Y-111741659D01*
X137377434Y-111735707D01*
X137387943Y-111737797D01*
X137391805Y-111741659D01*
X137424564Y-111790687D01*
X137473591Y-111823445D01*
X137479543Y-111832354D01*
X137477453Y-111842863D01*
X137473590Y-111846725D01*
X137424565Y-111879483D01*
X137369198Y-111962347D01*
X137349757Y-112060085D01*
X137349757Y-112060086D01*
X137369198Y-112157824D01*
X137369198Y-112157825D01*
X137369199Y-112157826D01*
X137424564Y-112240687D01*
X137507425Y-112296052D01*
X137605165Y-112315494D01*
X137702905Y-112296052D01*
X137785766Y-112240687D01*
X137818524Y-112191659D01*
X137827434Y-112185707D01*
X137837943Y-112187797D01*
X137841805Y-112191659D01*
X137874564Y-112240687D01*
X137917274Y-112269225D01*
X137923590Y-112273445D01*
X137929543Y-112282355D01*
X137927453Y-112292864D01*
X137923590Y-112296726D01*
X137907314Y-112307602D01*
X137874564Y-112329485D01*
X137819198Y-112412347D01*
X137799757Y-112510085D01*
X137799757Y-112510086D01*
X137819198Y-112607824D01*
X137819198Y-112607825D01*
X137819199Y-112607826D01*
X137874564Y-112690687D01*
X137923591Y-112723445D01*
X137929543Y-112732354D01*
X137927453Y-112742863D01*
X137923590Y-112746725D01*
X137874565Y-112779483D01*
X137841806Y-112828511D01*
X137832896Y-112834464D01*
X137822387Y-112832374D01*
X137818524Y-112828511D01*
X137814758Y-112822875D01*
X137785766Y-112779485D01*
X137702905Y-112724120D01*
X137702904Y-112724119D01*
X137702903Y-112724119D01*
X137605165Y-112704678D01*
X137507426Y-112724119D01*
X137424564Y-112779485D01*
X137391806Y-112828511D01*
X137382896Y-112834464D01*
X137372387Y-112832374D01*
X137368524Y-112828511D01*
X137364758Y-112822875D01*
X137335766Y-112779485D01*
X137286738Y-112746726D01*
X137280786Y-112737817D01*
X137282876Y-112727308D01*
X137286739Y-112723445D01*
X137335766Y-112690687D01*
X137391131Y-112607826D01*
X137410573Y-112510086D01*
X137407037Y-112492312D01*
X137396060Y-112437124D01*
X137391131Y-112412346D01*
X137335766Y-112329485D01*
X137252905Y-112274120D01*
X137252904Y-112274119D01*
X137252903Y-112274119D01*
X137155165Y-112254678D01*
X137057426Y-112274119D01*
X136974564Y-112329485D01*
X136919198Y-112412347D01*
X136899757Y-112510085D01*
X136899757Y-112510086D01*
X136919198Y-112607824D01*
X136919198Y-112607825D01*
X136919199Y-112607826D01*
X136974564Y-112690687D01*
X137023591Y-112723445D01*
X137029543Y-112732354D01*
X137027453Y-112742863D01*
X137023590Y-112746725D01*
X136974565Y-112779483D01*
X136919198Y-112862347D01*
X136899757Y-112960085D01*
X136899757Y-112960086D01*
X136919198Y-113057824D01*
X136919198Y-113057825D01*
X136919199Y-113057826D01*
X136974564Y-113140687D01*
X137057425Y-113196052D01*
X137069174Y-113198389D01*
X137155164Y-113215494D01*
X137155164Y-113215493D01*
X137155165Y-113215494D01*
X137252905Y-113196052D01*
X137335766Y-113140687D01*
X137368524Y-113091659D01*
X137377434Y-113085707D01*
X137387943Y-113087797D01*
X137391805Y-113091659D01*
X137424564Y-113140687D01*
X137507425Y-113196052D01*
X137519174Y-113198389D01*
X137605164Y-113215494D01*
X137605164Y-113215493D01*
X137605165Y-113215494D01*
X137702905Y-113196052D01*
X137785766Y-113140687D01*
X137818524Y-113091659D01*
X137827434Y-113085707D01*
X137837943Y-113087797D01*
X137841805Y-113091659D01*
X137874564Y-113140687D01*
X137957425Y-113196052D01*
X138055165Y-113215494D01*
X138152905Y-113196052D01*
X138235766Y-113140687D01*
X138268524Y-113091659D01*
X138277434Y-113085707D01*
X138287943Y-113087797D01*
X138291805Y-113091659D01*
X138324564Y-113140687D01*
X138373590Y-113173445D01*
X138379543Y-113182355D01*
X138377453Y-113192864D01*
X138373590Y-113196726D01*
X138348573Y-113213443D01*
X138324564Y-113229485D01*
X138269198Y-113312347D01*
X138249757Y-113410085D01*
X138249757Y-113410086D01*
X138269198Y-113507824D01*
X138269198Y-113507825D01*
X138269199Y-113507826D01*
X138324564Y-113590687D01*
X138373591Y-113623445D01*
X138379543Y-113632354D01*
X138377453Y-113642863D01*
X138373590Y-113646725D01*
X138324565Y-113679483D01*
X138269198Y-113762347D01*
X138249757Y-113860085D01*
X138249757Y-113860086D01*
X138269198Y-113957824D01*
X138269198Y-113957825D01*
X138269199Y-113957826D01*
X138324564Y-114040687D01*
X138369970Y-114071026D01*
X138373590Y-114073445D01*
X138379543Y-114082355D01*
X138377453Y-114092864D01*
X138373590Y-114096726D01*
X138348574Y-114113442D01*
X138324564Y-114129485D01*
X138269198Y-114212347D01*
X138249757Y-114310085D01*
X138249757Y-114310086D01*
X138269198Y-114407824D01*
X138269198Y-114407825D01*
X138269199Y-114407826D01*
X138324564Y-114490687D01*
X138373590Y-114523445D01*
X138379543Y-114532355D01*
X138377453Y-114542864D01*
X138373590Y-114546727D01*
X138324564Y-114579485D01*
X138269198Y-114662347D01*
X138249757Y-114760085D01*
X138249757Y-114760086D01*
X138269198Y-114857824D01*
X138269198Y-114857825D01*
X138269199Y-114857826D01*
X138324564Y-114940687D01*
X138407425Y-114996052D01*
X138505165Y-115015494D01*
X138602905Y-114996052D01*
X138685766Y-114940687D01*
X138741131Y-114857826D01*
X138760573Y-114760086D01*
X138754910Y-114731619D01*
X138741131Y-114662347D01*
X138741131Y-114662346D01*
X138685766Y-114579485D01*
X138636738Y-114546726D01*
X138630786Y-114537817D01*
X138632876Y-114527308D01*
X138636739Y-114523445D01*
X138685766Y-114490687D01*
X138718524Y-114441659D01*
X138727434Y-114435707D01*
X138737943Y-114437797D01*
X138741805Y-114441659D01*
X138774564Y-114490687D01*
X138857425Y-114546052D01*
X138878575Y-114550259D01*
X138955164Y-114565494D01*
X138955164Y-114565493D01*
X138955165Y-114565494D01*
X139052905Y-114546052D01*
X139135766Y-114490687D01*
X139168524Y-114441659D01*
X139177434Y-114435707D01*
X139187943Y-114437797D01*
X139191805Y-114441659D01*
X139224564Y-114490687D01*
X139307425Y-114546052D01*
X139383232Y-114561130D01*
X139392140Y-114567083D01*
X139394500Y-114574861D01*
X139394500Y-116986000D01*
X139390399Y-116995899D01*
X139380500Y-117000000D01*
X126514000Y-117000000D01*
X126504101Y-116995899D01*
X126500000Y-116986000D01*
X126500000Y-114967586D01*
X136152257Y-114967586D01*
X136171698Y-115065324D01*
X136171698Y-115065325D01*
X136171699Y-115065326D01*
X136227064Y-115148187D01*
X136309925Y-115203552D01*
X136407665Y-115222994D01*
X136505405Y-115203552D01*
X136588266Y-115148187D01*
X136621024Y-115099159D01*
X136629934Y-115093207D01*
X136640443Y-115095297D01*
X136644305Y-115099159D01*
X136677064Y-115148187D01*
X136759925Y-115203552D01*
X136857665Y-115222994D01*
X136955405Y-115203552D01*
X137038266Y-115148187D01*
X137093631Y-115065326D01*
X137113073Y-114967586D01*
X137093631Y-114869846D01*
X137038266Y-114786985D01*
X136989238Y-114754226D01*
X136983286Y-114745317D01*
X136985376Y-114734808D01*
X136989239Y-114730945D01*
X137038266Y-114698187D01*
X137071024Y-114649159D01*
X137079934Y-114643207D01*
X137090443Y-114645297D01*
X137094305Y-114649159D01*
X137127064Y-114698187D01*
X137209925Y-114753552D01*
X137307665Y-114772994D01*
X137405405Y-114753552D01*
X137488266Y-114698187D01*
X137521024Y-114649159D01*
X137529934Y-114643207D01*
X137540443Y-114645297D01*
X137544305Y-114649159D01*
X137577064Y-114698187D01*
X137626090Y-114730945D01*
X137632043Y-114739855D01*
X137629953Y-114750364D01*
X137626090Y-114754227D01*
X137577064Y-114786985D01*
X137521698Y-114869847D01*
X137502257Y-114967585D01*
X137502257Y-114967586D01*
X137521698Y-115065324D01*
X137521698Y-115065325D01*
X137521699Y-115065326D01*
X137577064Y-115148187D01*
X137659925Y-115203552D01*
X137757665Y-115222994D01*
X137855405Y-115203552D01*
X137938266Y-115148187D01*
X137993631Y-115065326D01*
X138013073Y-114967586D01*
X137993631Y-114869846D01*
X137938266Y-114786985D01*
X137889238Y-114754226D01*
X137883286Y-114745317D01*
X137885376Y-114734808D01*
X137889239Y-114730945D01*
X137938266Y-114698187D01*
X137993631Y-114615326D01*
X138013073Y-114517586D01*
X137993631Y-114419846D01*
X137938266Y-114336985D01*
X137855405Y-114281620D01*
X137855404Y-114281619D01*
X137855403Y-114281619D01*
X137757665Y-114262178D01*
X137659926Y-114281619D01*
X137577064Y-114336985D01*
X137544306Y-114386011D01*
X137535396Y-114391964D01*
X137524887Y-114389874D01*
X137521024Y-114386011D01*
X137519044Y-114383048D01*
X137488266Y-114336985D01*
X137439238Y-114304226D01*
X137433286Y-114295317D01*
X137435376Y-114284808D01*
X137439239Y-114280945D01*
X137488266Y-114248187D01*
X137543631Y-114165326D01*
X137563073Y-114067586D01*
X137560913Y-114056729D01*
X137547202Y-113987797D01*
X137543631Y-113969846D01*
X137488266Y-113886985D01*
X137405405Y-113831620D01*
X137405404Y-113831619D01*
X137405403Y-113831619D01*
X137307665Y-113812178D01*
X137209926Y-113831619D01*
X137127064Y-113886985D01*
X137094306Y-113936011D01*
X137085396Y-113941964D01*
X137074887Y-113939874D01*
X137071024Y-113936011D01*
X137069044Y-113933048D01*
X137038266Y-113886985D01*
X136955405Y-113831620D01*
X136955404Y-113831619D01*
X136955403Y-113831619D01*
X136857665Y-113812178D01*
X136759926Y-113831619D01*
X136677064Y-113886985D01*
X136644306Y-113936011D01*
X136635396Y-113941964D01*
X136624887Y-113939874D01*
X136621024Y-113936011D01*
X136619044Y-113933048D01*
X136588266Y-113886985D01*
X136539238Y-113854226D01*
X136533286Y-113845317D01*
X136535376Y-113834808D01*
X136539239Y-113830945D01*
X136588266Y-113798187D01*
X136643631Y-113715326D01*
X136663073Y-113617586D01*
X136660913Y-113606729D01*
X136647202Y-113537797D01*
X136643631Y-113519846D01*
X136588266Y-113436985D01*
X136505405Y-113381620D01*
X136505404Y-113381619D01*
X136505403Y-113381619D01*
X136407665Y-113362178D01*
X136309926Y-113381619D01*
X136227064Y-113436985D01*
X136171698Y-113519847D01*
X136152257Y-113617585D01*
X136152257Y-113617586D01*
X136171698Y-113715324D01*
X136171698Y-113715325D01*
X136171699Y-113715326D01*
X136227064Y-113798187D01*
X136276090Y-113830945D01*
X136282043Y-113839855D01*
X136279953Y-113850364D01*
X136276090Y-113854227D01*
X136227064Y-113886985D01*
X136171698Y-113969847D01*
X136152257Y-114067585D01*
X136152257Y-114067586D01*
X136171698Y-114165324D01*
X136171698Y-114165325D01*
X136171699Y-114165326D01*
X136227064Y-114248187D01*
X136309925Y-114303552D01*
X136407665Y-114322994D01*
X136505405Y-114303552D01*
X136588266Y-114248187D01*
X136621024Y-114199159D01*
X136629934Y-114193207D01*
X136640443Y-114195297D01*
X136644305Y-114199159D01*
X136677064Y-114248187D01*
X136726090Y-114280945D01*
X136732043Y-114289855D01*
X136729953Y-114300364D01*
X136726090Y-114304227D01*
X136677064Y-114336985D01*
X136621698Y-114419847D01*
X136602257Y-114517585D01*
X136602257Y-114517586D01*
X136621698Y-114615324D01*
X136621698Y-114615325D01*
X136621699Y-114615326D01*
X136677064Y-114698187D01*
X136726090Y-114730945D01*
X136732043Y-114739855D01*
X136729953Y-114750364D01*
X136726090Y-114754227D01*
X136677064Y-114786985D01*
X136644306Y-114836011D01*
X136635396Y-114841964D01*
X136624887Y-114839874D01*
X136621024Y-114836011D01*
X136609904Y-114819369D01*
X136588266Y-114786985D01*
X136505405Y-114731620D01*
X136505404Y-114731619D01*
X136505403Y-114731619D01*
X136407665Y-114712178D01*
X136309926Y-114731619D01*
X136227064Y-114786985D01*
X136171698Y-114869847D01*
X136152257Y-114967585D01*
X136152257Y-114967586D01*
X126500000Y-114967586D01*
X126500000Y-104591931D01*
X126504101Y-104582032D01*
X126514000Y-104577931D01*
X126522520Y-104580822D01*
X126573402Y-104619866D01*
X126719481Y-104680374D01*
X126843568Y-104696710D01*
X126876241Y-104701012D01*
X126876243Y-104701012D01*
X126876245Y-104701012D01*
X126903282Y-104697452D01*
X127033005Y-104680374D01*
X127179084Y-104619866D01*
X127304525Y-104523612D01*
X127400779Y-104398171D01*
X127461287Y-104252092D01*
X127481925Y-104095330D01*
X127461287Y-103938568D01*
X127439222Y-103885298D01*
X134253676Y-103885298D01*
X134269332Y-103989173D01*
X134320455Y-104095330D01*
X134330217Y-104115601D01*
X134376340Y-104165310D01*
X134425663Y-104218468D01*
X134483903Y-104252092D01*
X134547189Y-104288630D01*
X134683996Y-104319856D01*
X134823930Y-104309369D01*
X134844485Y-104301302D01*
X134954555Y-104258102D01*
X134962094Y-104252090D01*
X135064266Y-104170611D01*
X135067880Y-104165310D01*
X135543676Y-104165310D01*
X135548059Y-104187348D01*
X135549507Y-104194627D01*
X135571719Y-104227871D01*
X135604963Y-104250083D01*
X135634277Y-104255914D01*
X136054074Y-104255913D01*
X136083389Y-104250083D01*
X136116633Y-104227871D01*
X136138845Y-104194627D01*
X136144676Y-104165313D01*
X136144676Y-104165310D01*
X136193676Y-104165310D01*
X136198059Y-104187348D01*
X136199507Y-104194627D01*
X136221719Y-104227871D01*
X136254963Y-104250083D01*
X136284277Y-104255914D01*
X136704074Y-104255913D01*
X136733389Y-104250083D01*
X136766633Y-104227871D01*
X136788845Y-104194627D01*
X136794676Y-104165313D01*
X136794676Y-104165310D01*
X136843676Y-104165310D01*
X136848059Y-104187348D01*
X136849507Y-104194627D01*
X136871719Y-104227871D01*
X136904963Y-104250083D01*
X136934277Y-104255914D01*
X137354074Y-104255913D01*
X137383389Y-104250083D01*
X137416633Y-104227871D01*
X137438845Y-104194627D01*
X137444676Y-104165313D01*
X137444676Y-104165310D01*
X137493676Y-104165310D01*
X137498059Y-104187348D01*
X137499507Y-104194627D01*
X137521719Y-104227871D01*
X137554963Y-104250083D01*
X137584277Y-104255914D01*
X138004074Y-104255913D01*
X138033389Y-104250083D01*
X138066633Y-104227871D01*
X138088845Y-104194627D01*
X138094676Y-104165313D01*
X138094676Y-104165310D01*
X138143676Y-104165310D01*
X138148059Y-104187348D01*
X138149507Y-104194627D01*
X138171719Y-104227871D01*
X138204963Y-104250083D01*
X138234277Y-104255914D01*
X138654074Y-104255913D01*
X138683389Y-104250083D01*
X138716633Y-104227871D01*
X138738845Y-104194627D01*
X138744676Y-104165313D01*
X138744675Y-102395516D01*
X138738845Y-102366201D01*
X138716633Y-102332957D01*
X138683389Y-102310745D01*
X138683388Y-102310744D01*
X138683387Y-102310744D01*
X138661352Y-102306361D01*
X138654075Y-102304914D01*
X138654074Y-102304914D01*
X138234279Y-102304914D01*
X138204963Y-102310745D01*
X138171719Y-102332957D01*
X138149506Y-102366202D01*
X138143676Y-102395515D01*
X138143676Y-104165310D01*
X138094676Y-104165310D01*
X138094675Y-102395516D01*
X138088845Y-102366201D01*
X138066633Y-102332957D01*
X138033389Y-102310745D01*
X138033388Y-102310744D01*
X138033387Y-102310744D01*
X138011352Y-102306361D01*
X138004075Y-102304914D01*
X138004074Y-102304914D01*
X137584279Y-102304914D01*
X137554963Y-102310745D01*
X137521719Y-102332957D01*
X137499506Y-102366202D01*
X137493676Y-102395515D01*
X137493676Y-104165310D01*
X137444676Y-104165310D01*
X137444675Y-102395516D01*
X137438845Y-102366201D01*
X137416633Y-102332957D01*
X137383389Y-102310745D01*
X137383388Y-102310744D01*
X137383387Y-102310744D01*
X137361352Y-102306361D01*
X137354075Y-102304914D01*
X137354074Y-102304914D01*
X136934279Y-102304914D01*
X136904963Y-102310745D01*
X136871719Y-102332957D01*
X136849506Y-102366202D01*
X136843676Y-102395515D01*
X136843676Y-104165310D01*
X136794676Y-104165310D01*
X136794675Y-102395516D01*
X136788845Y-102366201D01*
X136766633Y-102332957D01*
X136733389Y-102310745D01*
X136733388Y-102310744D01*
X136733387Y-102310744D01*
X136711352Y-102306361D01*
X136704075Y-102304914D01*
X136704074Y-102304914D01*
X136284279Y-102304914D01*
X136254963Y-102310745D01*
X136221719Y-102332957D01*
X136199506Y-102366202D01*
X136193676Y-102395515D01*
X136193676Y-104165310D01*
X136144676Y-104165310D01*
X136144675Y-102395516D01*
X136138845Y-102366201D01*
X136116633Y-102332957D01*
X136083389Y-102310745D01*
X136083388Y-102310744D01*
X136083387Y-102310744D01*
X136061352Y-102306361D01*
X136054075Y-102304914D01*
X136054074Y-102304914D01*
X135634279Y-102304914D01*
X135604963Y-102310745D01*
X135571719Y-102332957D01*
X135549506Y-102366202D01*
X135543676Y-102395515D01*
X135543676Y-104165310D01*
X135067880Y-104165310D01*
X135143314Y-104054668D01*
X135184676Y-103920577D01*
X135184676Y-103085529D01*
X135169020Y-102981656D01*
X135108135Y-102855227D01*
X135055053Y-102798019D01*
X135012688Y-102752359D01*
X134891163Y-102682198D01*
X134891160Y-102682197D01*
X134811807Y-102664085D01*
X134754356Y-102650972D01*
X134754355Y-102650972D01*
X134614418Y-102661459D01*
X134483796Y-102712725D01*
X134374086Y-102800216D01*
X134374084Y-102800218D01*
X134295040Y-102916156D01*
X134295037Y-102916161D01*
X134253676Y-103050252D01*
X134253676Y-103885298D01*
X127439222Y-103885298D01*
X127400779Y-103792489D01*
X127304525Y-103667048D01*
X127215487Y-103598727D01*
X127179086Y-103570795D01*
X127179084Y-103570794D01*
X127033005Y-103510286D01*
X127012676Y-103507609D01*
X127003397Y-103502251D01*
X127000624Y-103491901D01*
X127005982Y-103482622D01*
X127012672Y-103479850D01*
X127033005Y-103477174D01*
X127179084Y-103416666D01*
X127304525Y-103320412D01*
X127400779Y-103194971D01*
X127461287Y-103048892D01*
X127481925Y-102892130D01*
X127461287Y-102735368D01*
X127400779Y-102589289D01*
X127304525Y-102463848D01*
X127215473Y-102395516D01*
X127179086Y-102367595D01*
X127179084Y-102367594D01*
X127175721Y-102366201D01*
X127033005Y-102307086D01*
X126980751Y-102300206D01*
X126876245Y-102286448D01*
X126876241Y-102286448D01*
X126771734Y-102300206D01*
X126719481Y-102307086D01*
X126719480Y-102307086D01*
X126573401Y-102367594D01*
X126573399Y-102367595D01*
X126522523Y-102406634D01*
X126512173Y-102409407D01*
X126502893Y-102404050D01*
X126500000Y-102395527D01*
X126500000Y-101816790D01*
X126504101Y-101806891D01*
X126514000Y-101802790D01*
X126519353Y-101803855D01*
X126569441Y-101824602D01*
X126682056Y-101839428D01*
X126757558Y-101839428D01*
X126870173Y-101824602D01*
X127010292Y-101766563D01*
X127130615Y-101674236D01*
X127222942Y-101553913D01*
X127280981Y-101413794D01*
X127300777Y-101263428D01*
X127300273Y-101259603D01*
X127286140Y-101152251D01*
X127280981Y-101113062D01*
X127222942Y-100972943D01*
X127221690Y-100971312D01*
X127153487Y-100882428D01*
X127490727Y-100882428D01*
X127498888Y-100939190D01*
X127510943Y-101023035D01*
X127510944Y-101023037D01*
X127569952Y-101152248D01*
X127569953Y-101152249D01*
X127569954Y-101152251D01*
X127662979Y-101259607D01*
X127782482Y-101336407D01*
X127918777Y-101376427D01*
X127918778Y-101376427D01*
X127918781Y-101376428D01*
X127918784Y-101376428D01*
X128060830Y-101376428D01*
X128060833Y-101376428D01*
X128197132Y-101336407D01*
X128316635Y-101259607D01*
X128409660Y-101152251D01*
X128468671Y-101023035D01*
X128488887Y-100882428D01*
X128760727Y-100882428D01*
X128780943Y-101023035D01*
X128780944Y-101023037D01*
X128839952Y-101152248D01*
X128839953Y-101152249D01*
X128839954Y-101152251D01*
X128932979Y-101259607D01*
X129052482Y-101336407D01*
X129188777Y-101376427D01*
X129188778Y-101376427D01*
X129188781Y-101376428D01*
X129188784Y-101376428D01*
X129330830Y-101376428D01*
X129330833Y-101376428D01*
X129467132Y-101336407D01*
X129586635Y-101259607D01*
X129679660Y-101152251D01*
X129738671Y-101023035D01*
X129758887Y-100882428D01*
X130030727Y-100882428D01*
X130050943Y-101023035D01*
X130050944Y-101023037D01*
X130109952Y-101152248D01*
X130109953Y-101152249D01*
X130109954Y-101152251D01*
X130202979Y-101259607D01*
X130322482Y-101336407D01*
X130458777Y-101376427D01*
X130458778Y-101376427D01*
X130458781Y-101376428D01*
X130458784Y-101376428D01*
X130600830Y-101376428D01*
X130600833Y-101376428D01*
X130737132Y-101336407D01*
X130856635Y-101259607D01*
X130949660Y-101152251D01*
X130974531Y-101097791D01*
X133718676Y-101097791D01*
X133734036Y-101224288D01*
X133734036Y-101224290D01*
X133791735Y-101376428D01*
X133794358Y-101383344D01*
X133850937Y-101465312D01*
X133890993Y-101523343D01*
X133890994Y-101523345D01*
X134018320Y-101636145D01*
X134018322Y-101636146D01*
X134018324Y-101636148D01*
X134018326Y-101636149D01*
X134018329Y-101636151D01*
X134168952Y-101715205D01*
X134291677Y-101745452D01*
X134334120Y-101755914D01*
X134504232Y-101755914D01*
X134586816Y-101735558D01*
X134669399Y-101715205D01*
X134744227Y-101675932D01*
X134820028Y-101636148D01*
X134912850Y-101553915D01*
X134947357Y-101523345D01*
X134947357Y-101523344D01*
X134947359Y-101523343D01*
X135043994Y-101383344D01*
X135090922Y-101259603D01*
X135104315Y-101224290D01*
X135104315Y-101224288D01*
X135104314Y-101224288D01*
X135104316Y-101224286D01*
X135119676Y-101097786D01*
X135119676Y-99813042D01*
X135104316Y-99686542D01*
X135104315Y-99686539D01*
X135104315Y-99686537D01*
X135043994Y-99527485D01*
X135043994Y-99527484D01*
X134947359Y-99387485D01*
X134947358Y-99387484D01*
X134947357Y-99387482D01*
X134820031Y-99274682D01*
X134820022Y-99274676D01*
X134669399Y-99195622D01*
X134504234Y-99154914D01*
X134504232Y-99154914D01*
X134334120Y-99154914D01*
X134334117Y-99154914D01*
X134168952Y-99195622D01*
X134018329Y-99274676D01*
X134018320Y-99274682D01*
X133890994Y-99387482D01*
X133890993Y-99387484D01*
X133794357Y-99527485D01*
X133734036Y-99686537D01*
X133734036Y-99686539D01*
X133718676Y-99813036D01*
X133718676Y-101097791D01*
X130974531Y-101097791D01*
X131008671Y-101023035D01*
X131028887Y-100882428D01*
X131008671Y-100741821D01*
X130949660Y-100612605D01*
X130856635Y-100505249D01*
X130779833Y-100455891D01*
X130737131Y-100428448D01*
X130600836Y-100388428D01*
X130600833Y-100388428D01*
X130458781Y-100388428D01*
X130458777Y-100388428D01*
X130322482Y-100428448D01*
X130202979Y-100505249D01*
X130202976Y-100505252D01*
X130109952Y-100612607D01*
X130050944Y-100741818D01*
X130050943Y-100741820D01*
X130030727Y-100882428D01*
X129758887Y-100882428D01*
X129738671Y-100741821D01*
X129679660Y-100612605D01*
X129586635Y-100505249D01*
X129509834Y-100455891D01*
X129467131Y-100428448D01*
X129330836Y-100388428D01*
X129330833Y-100388428D01*
X129188781Y-100388428D01*
X129188777Y-100388428D01*
X129052482Y-100428448D01*
X128932979Y-100505249D01*
X128932976Y-100505252D01*
X128839952Y-100612607D01*
X128780944Y-100741818D01*
X128780943Y-100741820D01*
X128760727Y-100882428D01*
X128488887Y-100882428D01*
X128468671Y-100741821D01*
X128409660Y-100612605D01*
X128316635Y-100505249D01*
X128239833Y-100455891D01*
X128197131Y-100428448D01*
X128060836Y-100388428D01*
X128060833Y-100388428D01*
X127918781Y-100388428D01*
X127918777Y-100388428D01*
X127782482Y-100428448D01*
X127662979Y-100505249D01*
X127662976Y-100505252D01*
X127569952Y-100612607D01*
X127510944Y-100741818D01*
X127510943Y-100741820D01*
X127501342Y-100808601D01*
X127490727Y-100882428D01*
X127153487Y-100882428D01*
X127130615Y-100852620D01*
X127059702Y-100798207D01*
X127010294Y-100760294D01*
X127010292Y-100760293D01*
X127010292Y-100760292D01*
X126870173Y-100702254D01*
X126842019Y-100698547D01*
X126757561Y-100687428D01*
X126757558Y-100687428D01*
X126682056Y-100687428D01*
X126682052Y-100687428D01*
X126591963Y-100699288D01*
X126569441Y-100702254D01*
X126569440Y-100702254D01*
X126569437Y-100702255D01*
X126519357Y-100722998D01*
X126508642Y-100722998D01*
X126501066Y-100715421D01*
X126500000Y-100710064D01*
X126500000Y-100247430D01*
X131218837Y-100247430D01*
X131238633Y-100397792D01*
X131238633Y-100397794D01*
X131296672Y-100537913D01*
X131296673Y-100537915D01*
X131334586Y-100587323D01*
X131388999Y-100658236D01*
X131509322Y-100750563D01*
X131649441Y-100808602D01*
X131762056Y-100823428D01*
X131837558Y-100823428D01*
X131950173Y-100808602D01*
X132090292Y-100750563D01*
X132210615Y-100658236D01*
X132302942Y-100537913D01*
X132360981Y-100397794D01*
X132380777Y-100247428D01*
X132360981Y-100097062D01*
X132302942Y-99956943D01*
X132210615Y-99836620D01*
X132124824Y-99770790D01*
X132090294Y-99744294D01*
X132090292Y-99744293D01*
X132090291Y-99744292D01*
X131950173Y-99686254D01*
X131922019Y-99682547D01*
X131837561Y-99671428D01*
X131837558Y-99671428D01*
X131762056Y-99671428D01*
X131762052Y-99671428D01*
X131671964Y-99683288D01*
X131649441Y-99686254D01*
X131649440Y-99686254D01*
X131509321Y-99744293D01*
X131509319Y-99744294D01*
X131388999Y-99836620D01*
X131296673Y-99956940D01*
X131296672Y-99956942D01*
X131238633Y-100097061D01*
X131238633Y-100097063D01*
X131218837Y-100247425D01*
X131218837Y-100247430D01*
X126500000Y-100247430D01*
X126500000Y-99784790D01*
X126504101Y-99774891D01*
X126514000Y-99770790D01*
X126519353Y-99771855D01*
X126569441Y-99792602D01*
X126682056Y-99807428D01*
X126757558Y-99807428D01*
X126870173Y-99792602D01*
X127010292Y-99734563D01*
X127130615Y-99642236D01*
X127153487Y-99612428D01*
X127490727Y-99612428D01*
X127510943Y-99753035D01*
X127510944Y-99753037D01*
X127569952Y-99882248D01*
X127569953Y-99882249D01*
X127569954Y-99882251D01*
X127662979Y-99989607D01*
X127782481Y-100066406D01*
X127782482Y-100066407D01*
X127918777Y-100106427D01*
X127918778Y-100106427D01*
X127918781Y-100106428D01*
X127918784Y-100106428D01*
X128060830Y-100106428D01*
X128060833Y-100106428D01*
X128197132Y-100066407D01*
X128316635Y-99989607D01*
X128409660Y-99882251D01*
X128468671Y-99753035D01*
X128488887Y-99612428D01*
X128760727Y-99612428D01*
X128780943Y-99753035D01*
X128780944Y-99753037D01*
X128839952Y-99882248D01*
X128839953Y-99882249D01*
X128839954Y-99882251D01*
X128932979Y-99989607D01*
X129052482Y-100066406D01*
X129052482Y-100066407D01*
X129188777Y-100106427D01*
X129188778Y-100106427D01*
X129188781Y-100106428D01*
X129188784Y-100106428D01*
X129330830Y-100106428D01*
X129330833Y-100106428D01*
X129467132Y-100066407D01*
X129586635Y-99989607D01*
X129679660Y-99882251D01*
X129738671Y-99753035D01*
X129758887Y-99612428D01*
X130030727Y-99612428D01*
X130050943Y-99753035D01*
X130050944Y-99753037D01*
X130109952Y-99882248D01*
X130109953Y-99882249D01*
X130109954Y-99882251D01*
X130202979Y-99989607D01*
X130322481Y-100066406D01*
X130322482Y-100066407D01*
X130458777Y-100106427D01*
X130458778Y-100106427D01*
X130458781Y-100106428D01*
X130458784Y-100106428D01*
X130600830Y-100106428D01*
X130600833Y-100106428D01*
X130737132Y-100066407D01*
X130856635Y-99989607D01*
X130949660Y-99882251D01*
X131008671Y-99753035D01*
X131028887Y-99612428D01*
X131008671Y-99471821D01*
X130949660Y-99342605D01*
X130856635Y-99235249D01*
X130779834Y-99185891D01*
X130737131Y-99158448D01*
X130600836Y-99118428D01*
X130600833Y-99118428D01*
X130458781Y-99118428D01*
X130458777Y-99118428D01*
X130322482Y-99158448D01*
X130202979Y-99235249D01*
X130202976Y-99235252D01*
X130109952Y-99342607D01*
X130050944Y-99471818D01*
X130050943Y-99471820D01*
X130030727Y-99612428D01*
X129758887Y-99612428D01*
X129738671Y-99471821D01*
X129679660Y-99342605D01*
X129586635Y-99235249D01*
X129509834Y-99185891D01*
X129467131Y-99158448D01*
X129330836Y-99118428D01*
X129330833Y-99118428D01*
X129188781Y-99118428D01*
X129188777Y-99118428D01*
X129052482Y-99158448D01*
X128932979Y-99235249D01*
X128932976Y-99235252D01*
X128839952Y-99342607D01*
X128780944Y-99471818D01*
X128780943Y-99471820D01*
X128760727Y-99612428D01*
X128488887Y-99612428D01*
X128468671Y-99471821D01*
X128409660Y-99342605D01*
X128316635Y-99235249D01*
X128239834Y-99185891D01*
X128197131Y-99158448D01*
X128060836Y-99118428D01*
X128060833Y-99118428D01*
X127918781Y-99118428D01*
X127918777Y-99118428D01*
X127782482Y-99158448D01*
X127662979Y-99235249D01*
X127662976Y-99235252D01*
X127569952Y-99342607D01*
X127510944Y-99471818D01*
X127510943Y-99471820D01*
X127490727Y-99612428D01*
X127153487Y-99612428D01*
X127222942Y-99521913D01*
X127280981Y-99381794D01*
X127300777Y-99231428D01*
X127280981Y-99081062D01*
X127255422Y-99019356D01*
X127255422Y-99008642D01*
X127262998Y-99001066D01*
X127268356Y-99000000D01*
X135354676Y-99000000D01*
X135364575Y-99004101D01*
G37*
%TD.AperFunction*%
%TA.AperFunction,Conductor*%
G36*
X138737942Y-113987797D02*
G01*
X138741805Y-113991660D01*
X138757760Y-114015538D01*
X138774564Y-114040687D01*
X138819970Y-114071026D01*
X138823590Y-114073445D01*
X138829543Y-114082355D01*
X138827453Y-114092864D01*
X138823590Y-114096726D01*
X138798574Y-114113442D01*
X138774564Y-114129485D01*
X138741806Y-114178511D01*
X138732896Y-114184464D01*
X138722387Y-114182374D01*
X138718524Y-114178511D01*
X138718030Y-114177771D01*
X138685766Y-114129485D01*
X138636738Y-114096726D01*
X138630786Y-114087817D01*
X138632876Y-114077308D01*
X138636739Y-114073445D01*
X138685766Y-114040687D01*
X138718525Y-113991658D01*
X138727432Y-113985707D01*
X138737942Y-113987797D01*
G37*
%TD.AperFunction*%
%TA.AperFunction,Conductor*%
G36*
X139187943Y-113987797D02*
G01*
X139191805Y-113991659D01*
X139224564Y-114040687D01*
X139269970Y-114071026D01*
X139273590Y-114073445D01*
X139279543Y-114082355D01*
X139277453Y-114092864D01*
X139273590Y-114096726D01*
X139248574Y-114113442D01*
X139224564Y-114129485D01*
X139191806Y-114178511D01*
X139182896Y-114184464D01*
X139172387Y-114182374D01*
X139168524Y-114178511D01*
X139168030Y-114177771D01*
X139135766Y-114129485D01*
X139086738Y-114096726D01*
X139080786Y-114087817D01*
X139082876Y-114077308D01*
X139086739Y-114073445D01*
X139135766Y-114040687D01*
X139168524Y-113991659D01*
X139177434Y-113985707D01*
X139187943Y-113987797D01*
G37*
%TD.AperFunction*%
%TA.AperFunction,Conductor*%
G36*
X138737943Y-113537797D02*
G01*
X138741805Y-113541659D01*
X138774564Y-113590687D01*
X138823591Y-113623445D01*
X138829543Y-113632354D01*
X138827453Y-113642863D01*
X138823590Y-113646725D01*
X138774565Y-113679483D01*
X138741806Y-113728511D01*
X138732896Y-113734464D01*
X138722387Y-113732374D01*
X138718524Y-113728511D01*
X138685766Y-113679485D01*
X138636738Y-113646726D01*
X138630786Y-113637817D01*
X138632876Y-113627308D01*
X138636739Y-113623445D01*
X138685766Y-113590687D01*
X138718524Y-113541659D01*
X138727434Y-113535707D01*
X138737943Y-113537797D01*
G37*
%TD.AperFunction*%
%TA.AperFunction,Conductor*%
G36*
X139187943Y-113537797D02*
G01*
X139191805Y-113541659D01*
X139224564Y-113590687D01*
X139273590Y-113623445D01*
X139279543Y-113632355D01*
X139277453Y-113642864D01*
X139273590Y-113646726D01*
X139248574Y-113663442D01*
X139224564Y-113679485D01*
X139191806Y-113728511D01*
X139182896Y-113734464D01*
X139172387Y-113732374D01*
X139168524Y-113728511D01*
X139135766Y-113679485D01*
X139086738Y-113646726D01*
X139080786Y-113637817D01*
X139082876Y-113627308D01*
X139086739Y-113623445D01*
X139135766Y-113590687D01*
X139168524Y-113541659D01*
X139177434Y-113535707D01*
X139187943Y-113537797D01*
G37*
%TD.AperFunction*%
%TA.AperFunction,Conductor*%
G36*
X138737943Y-113087797D02*
G01*
X138741805Y-113091659D01*
X138774564Y-113140687D01*
X138823590Y-113173445D01*
X138829543Y-113182355D01*
X138827453Y-113192864D01*
X138823590Y-113196726D01*
X138798573Y-113213443D01*
X138774564Y-113229485D01*
X138741806Y-113278511D01*
X138732896Y-113284464D01*
X138722387Y-113282374D01*
X138718524Y-113278511D01*
X138713724Y-113271327D01*
X138685766Y-113229485D01*
X138636738Y-113196726D01*
X138630786Y-113187817D01*
X138632876Y-113177308D01*
X138636739Y-113173445D01*
X138685766Y-113140687D01*
X138718524Y-113091659D01*
X138727434Y-113085707D01*
X138737943Y-113087797D01*
G37*
%TD.AperFunction*%
%TA.AperFunction,Conductor*%
G36*
X139187943Y-113087797D02*
G01*
X139191805Y-113091659D01*
X139224564Y-113140687D01*
X139273590Y-113173445D01*
X139279543Y-113182355D01*
X139277453Y-113192864D01*
X139273590Y-113196726D01*
X139248573Y-113213443D01*
X139224564Y-113229485D01*
X139191806Y-113278511D01*
X139182896Y-113284464D01*
X139172387Y-113282374D01*
X139168524Y-113278511D01*
X139163724Y-113271327D01*
X139135766Y-113229485D01*
X139086738Y-113196726D01*
X139080786Y-113187817D01*
X139082876Y-113177308D01*
X139086739Y-113173445D01*
X139135766Y-113140687D01*
X139168524Y-113091659D01*
X139177434Y-113085707D01*
X139187943Y-113087797D01*
G37*
%TD.AperFunction*%
%TA.AperFunction,Conductor*%
G36*
X138287943Y-112637797D02*
G01*
X138291805Y-112641659D01*
X138324564Y-112690687D01*
X138372457Y-112722687D01*
X138373590Y-112723444D01*
X138379543Y-112732354D01*
X138377453Y-112742863D01*
X138373590Y-112746725D01*
X138324565Y-112779483D01*
X138291806Y-112828511D01*
X138282896Y-112834464D01*
X138272387Y-112832374D01*
X138268524Y-112828511D01*
X138264758Y-112822875D01*
X138235766Y-112779485D01*
X138186738Y-112746726D01*
X138180786Y-112737817D01*
X138182876Y-112727308D01*
X138186739Y-112723445D01*
X138235766Y-112690687D01*
X138268524Y-112641659D01*
X138277434Y-112635707D01*
X138287943Y-112637797D01*
G37*
%TD.AperFunction*%
%TA.AperFunction,Conductor*%
G36*
X138737943Y-112637797D02*
G01*
X138741805Y-112641659D01*
X138774564Y-112690687D01*
X138823590Y-112723445D01*
X138829543Y-112732355D01*
X138827453Y-112742864D01*
X138823590Y-112746726D01*
X138809745Y-112755978D01*
X138774564Y-112779485D01*
X138741806Y-112828511D01*
X138732896Y-112834464D01*
X138722387Y-112832374D01*
X138718524Y-112828511D01*
X138685765Y-112779483D01*
X138636739Y-112746725D01*
X138630786Y-112737816D01*
X138632877Y-112727307D01*
X138636737Y-112723445D01*
X138685766Y-112690687D01*
X138718524Y-112641659D01*
X138727434Y-112635707D01*
X138737943Y-112637797D01*
G37*
%TD.AperFunction*%
%TA.AperFunction,Conductor*%
G36*
X139187943Y-112637797D02*
G01*
X139191805Y-112641659D01*
X139224564Y-112690687D01*
X139273591Y-112723445D01*
X139279543Y-112732354D01*
X139277453Y-112742863D01*
X139273590Y-112746725D01*
X139224565Y-112779483D01*
X139191806Y-112828511D01*
X139182896Y-112834464D01*
X139172387Y-112832374D01*
X139168524Y-112828511D01*
X139164758Y-112822875D01*
X139135766Y-112779485D01*
X139100585Y-112755978D01*
X139086739Y-112746726D01*
X139080786Y-112737816D01*
X139082876Y-112727307D01*
X139086735Y-112723447D01*
X139135766Y-112690687D01*
X139168524Y-112641659D01*
X139177434Y-112635707D01*
X139187943Y-112637797D01*
G37*
%TD.AperFunction*%
%TA.AperFunction,Conductor*%
G36*
X138287943Y-112187797D02*
G01*
X138291805Y-112191659D01*
X138324564Y-112240687D01*
X138367274Y-112269225D01*
X138373590Y-112273445D01*
X138379543Y-112282355D01*
X138377453Y-112292864D01*
X138373590Y-112296726D01*
X138357314Y-112307602D01*
X138324564Y-112329485D01*
X138291806Y-112378511D01*
X138282896Y-112384464D01*
X138272387Y-112382374D01*
X138268524Y-112378511D01*
X138235766Y-112329485D01*
X138186738Y-112296726D01*
X138180786Y-112287817D01*
X138182876Y-112277308D01*
X138186739Y-112273445D01*
X138193055Y-112269225D01*
X138235766Y-112240687D01*
X138268524Y-112191659D01*
X138277434Y-112185707D01*
X138287943Y-112187797D01*
G37*
%TD.AperFunction*%
%TA.AperFunction,Conductor*%
G36*
X138737943Y-112187797D02*
G01*
X138741805Y-112191659D01*
X138774564Y-112240687D01*
X138817274Y-112269225D01*
X138823590Y-112273445D01*
X138829543Y-112282355D01*
X138827453Y-112292864D01*
X138823590Y-112296726D01*
X138807314Y-112307602D01*
X138774564Y-112329485D01*
X138741806Y-112378511D01*
X138732896Y-112384464D01*
X138722387Y-112382374D01*
X138718524Y-112378511D01*
X138685766Y-112329485D01*
X138636738Y-112296726D01*
X138630786Y-112287817D01*
X138632876Y-112277308D01*
X138636739Y-112273445D01*
X138643055Y-112269225D01*
X138685766Y-112240687D01*
X138718524Y-112191659D01*
X138727434Y-112185707D01*
X138737943Y-112187797D01*
G37*
%TD.AperFunction*%
%TA.AperFunction,Conductor*%
G36*
X139187943Y-112187797D02*
G01*
X139191805Y-112191659D01*
X139224564Y-112240687D01*
X139267274Y-112269225D01*
X139273590Y-112273445D01*
X139279543Y-112282355D01*
X139277453Y-112292864D01*
X139273590Y-112296726D01*
X139257314Y-112307602D01*
X139224564Y-112329485D01*
X139191806Y-112378511D01*
X139182896Y-112384464D01*
X139172387Y-112382374D01*
X139168524Y-112378511D01*
X139135766Y-112329485D01*
X139086738Y-112296726D01*
X139080786Y-112287817D01*
X139082876Y-112277308D01*
X139086739Y-112273445D01*
X139093055Y-112269225D01*
X139135766Y-112240687D01*
X139168524Y-112191659D01*
X139177434Y-112185707D01*
X139187943Y-112187797D01*
G37*
%TD.AperFunction*%
%TA.AperFunction,Conductor*%
G36*
X137837943Y-111737797D02*
G01*
X137841805Y-111741659D01*
X137874564Y-111790687D01*
X137923590Y-111823445D01*
X137929543Y-111832355D01*
X137927453Y-111842864D01*
X137923590Y-111846726D01*
X137898574Y-111863442D01*
X137874564Y-111879485D01*
X137841806Y-111928511D01*
X137832896Y-111934464D01*
X137822387Y-111932374D01*
X137818524Y-111928511D01*
X137785766Y-111879485D01*
X137736738Y-111846726D01*
X137730786Y-111837817D01*
X137732876Y-111827308D01*
X137736739Y-111823445D01*
X137785766Y-111790687D01*
X137818524Y-111741659D01*
X137827434Y-111735707D01*
X137837943Y-111737797D01*
G37*
%TD.AperFunction*%
%TA.AperFunction,Conductor*%
G36*
X138287943Y-111737797D02*
G01*
X138291805Y-111741659D01*
X138324564Y-111790687D01*
X138373591Y-111823445D01*
X138379543Y-111832354D01*
X138377453Y-111842863D01*
X138373590Y-111846725D01*
X138324565Y-111879483D01*
X138291806Y-111928511D01*
X138282896Y-111934464D01*
X138272387Y-111932374D01*
X138268524Y-111928511D01*
X138235766Y-111879485D01*
X138186738Y-111846726D01*
X138180786Y-111837817D01*
X138182876Y-111827308D01*
X138186739Y-111823445D01*
X138235766Y-111790687D01*
X138268524Y-111741659D01*
X138277434Y-111735707D01*
X138287943Y-111737797D01*
G37*
%TD.AperFunction*%
%TA.AperFunction,Conductor*%
G36*
X138737943Y-111737797D02*
G01*
X138741805Y-111741659D01*
X138774564Y-111790687D01*
X138823591Y-111823445D01*
X138829543Y-111832354D01*
X138827453Y-111842863D01*
X138823590Y-111846725D01*
X138774565Y-111879483D01*
X138741806Y-111928511D01*
X138732896Y-111934464D01*
X138722387Y-111932374D01*
X138718524Y-111928511D01*
X138685766Y-111879485D01*
X138636738Y-111846726D01*
X138630786Y-111837817D01*
X138632876Y-111827308D01*
X138636739Y-111823445D01*
X138685766Y-111790687D01*
X138718524Y-111741659D01*
X138727434Y-111735707D01*
X138737943Y-111737797D01*
G37*
%TD.AperFunction*%
%TA.AperFunction,Conductor*%
G36*
X139187943Y-111737797D02*
G01*
X139191805Y-111741659D01*
X139224564Y-111790687D01*
X139273590Y-111823445D01*
X139279543Y-111832355D01*
X139277453Y-111842864D01*
X139273590Y-111846726D01*
X139248574Y-111863442D01*
X139224564Y-111879485D01*
X139191806Y-111928511D01*
X139182896Y-111934464D01*
X139172387Y-111932374D01*
X139168524Y-111928511D01*
X139135766Y-111879485D01*
X139086738Y-111846726D01*
X139080786Y-111837817D01*
X139082876Y-111827308D01*
X139086739Y-111823445D01*
X139135766Y-111790687D01*
X139168524Y-111741659D01*
X139177434Y-111735707D01*
X139187943Y-111737797D01*
G37*
%TD.AperFunction*%
%TA.AperFunction,Conductor*%
G36*
X138287943Y-111287797D02*
G01*
X138291805Y-111291659D01*
X138324564Y-111340687D01*
X138373590Y-111373445D01*
X138379543Y-111382355D01*
X138377453Y-111392864D01*
X138373590Y-111396726D01*
X138348573Y-111413443D01*
X138324564Y-111429485D01*
X138291806Y-111478511D01*
X138282896Y-111484464D01*
X138272387Y-111482374D01*
X138268524Y-111478511D01*
X138263724Y-111471327D01*
X138235766Y-111429485D01*
X138186738Y-111396726D01*
X138180786Y-111387817D01*
X138182876Y-111377308D01*
X138186739Y-111373445D01*
X138235766Y-111340687D01*
X138268524Y-111291659D01*
X138277434Y-111285707D01*
X138287943Y-111287797D01*
G37*
%TD.AperFunction*%
%TA.AperFunction,Conductor*%
G36*
X138737943Y-111287797D02*
G01*
X138741805Y-111291659D01*
X138774564Y-111340687D01*
X138823590Y-111373445D01*
X138829543Y-111382355D01*
X138827453Y-111392864D01*
X138823590Y-111396726D01*
X138798573Y-111413443D01*
X138774564Y-111429485D01*
X138741806Y-111478511D01*
X138732896Y-111484464D01*
X138722387Y-111482374D01*
X138718524Y-111478511D01*
X138713724Y-111471327D01*
X138685766Y-111429485D01*
X138636738Y-111396726D01*
X138630786Y-111387817D01*
X138632876Y-111377308D01*
X138636739Y-111373445D01*
X138685766Y-111340687D01*
X138718524Y-111291659D01*
X138727434Y-111285707D01*
X138737943Y-111287797D01*
G37*
%TD.AperFunction*%
%TA.AperFunction,Conductor*%
G36*
X139187943Y-111287797D02*
G01*
X139191805Y-111291659D01*
X139224564Y-111340687D01*
X139273590Y-111373445D01*
X139279543Y-111382355D01*
X139277453Y-111392864D01*
X139273590Y-111396726D01*
X139248573Y-111413443D01*
X139224564Y-111429485D01*
X139191806Y-111478511D01*
X139182896Y-111484464D01*
X139172387Y-111482374D01*
X139168524Y-111478511D01*
X139163724Y-111471327D01*
X139135766Y-111429485D01*
X139111757Y-111413443D01*
X139086739Y-111396726D01*
X139080786Y-111387816D01*
X139082876Y-111377307D01*
X139086735Y-111373447D01*
X139135766Y-111340687D01*
X139168524Y-111291659D01*
X139177434Y-111285707D01*
X139187943Y-111287797D01*
G37*
%TD.AperFunction*%
%TA.AperFunction,Conductor*%
G36*
X138287943Y-110837797D02*
G01*
X138291805Y-110841659D01*
X138324564Y-110890687D01*
X138373590Y-110923445D01*
X138379543Y-110932355D01*
X138377453Y-110942864D01*
X138373590Y-110946726D01*
X138348574Y-110963442D01*
X138324564Y-110979485D01*
X138291806Y-111028511D01*
X138282896Y-111034464D01*
X138272387Y-111032374D01*
X138268524Y-111028511D01*
X138235765Y-110979483D01*
X138186739Y-110946725D01*
X138180786Y-110937816D01*
X138182877Y-110927307D01*
X138186737Y-110923445D01*
X138235766Y-110890687D01*
X138268524Y-110841659D01*
X138277434Y-110835707D01*
X138287943Y-110837797D01*
G37*
%TD.AperFunction*%
%TA.AperFunction,Conductor*%
G36*
X138737943Y-110837797D02*
G01*
X138741805Y-110841659D01*
X138774564Y-110890687D01*
X138823590Y-110923445D01*
X138829543Y-110932355D01*
X138827453Y-110942864D01*
X138823590Y-110946726D01*
X138798574Y-110963442D01*
X138774564Y-110979485D01*
X138741806Y-111028511D01*
X138732896Y-111034464D01*
X138722387Y-111032374D01*
X138718524Y-111028511D01*
X138685766Y-110979485D01*
X138636738Y-110946726D01*
X138630786Y-110937817D01*
X138632876Y-110927308D01*
X138636739Y-110923445D01*
X138685766Y-110890687D01*
X138718524Y-110841659D01*
X138727434Y-110835707D01*
X138737943Y-110837797D01*
G37*
%TD.AperFunction*%
%TA.AperFunction,Conductor*%
G36*
X139187943Y-110837797D02*
G01*
X139191805Y-110841659D01*
X139224564Y-110890687D01*
X139273591Y-110923445D01*
X139279543Y-110932354D01*
X139277453Y-110942863D01*
X139273590Y-110946725D01*
X139224565Y-110979483D01*
X139191806Y-111028511D01*
X139182896Y-111034464D01*
X139172387Y-111032374D01*
X139168524Y-111028511D01*
X139135766Y-110979485D01*
X139086738Y-110946726D01*
X139080786Y-110937817D01*
X139082876Y-110927308D01*
X139086739Y-110923445D01*
X139135766Y-110890687D01*
X139168524Y-110841659D01*
X139177434Y-110835707D01*
X139187943Y-110837797D01*
G37*
%TD.AperFunction*%
%TA.AperFunction,Conductor*%
G36*
X138287943Y-110387797D02*
G01*
X138291805Y-110391659D01*
X138324564Y-110440687D01*
X138373590Y-110473445D01*
X138379543Y-110482355D01*
X138377453Y-110492864D01*
X138373590Y-110496726D01*
X138348574Y-110513442D01*
X138324564Y-110529485D01*
X138291806Y-110578511D01*
X138282896Y-110584464D01*
X138272387Y-110582374D01*
X138268524Y-110578511D01*
X138235766Y-110529485D01*
X138186738Y-110496726D01*
X138180786Y-110487817D01*
X138182876Y-110477308D01*
X138186739Y-110473445D01*
X138235766Y-110440687D01*
X138268524Y-110391659D01*
X138277434Y-110385707D01*
X138287943Y-110387797D01*
G37*
%TD.AperFunction*%
%TA.AperFunction,Conductor*%
G36*
X138737942Y-110387797D02*
G01*
X138741805Y-110391660D01*
X138759633Y-110418341D01*
X138774564Y-110440687D01*
X138823590Y-110473445D01*
X138829543Y-110482355D01*
X138827453Y-110492864D01*
X138823590Y-110496726D01*
X138798574Y-110513442D01*
X138774564Y-110529485D01*
X138741806Y-110578511D01*
X138732896Y-110584464D01*
X138722387Y-110582374D01*
X138718524Y-110578511D01*
X138685766Y-110529485D01*
X138636738Y-110496726D01*
X138630786Y-110487817D01*
X138632876Y-110477308D01*
X138636739Y-110473445D01*
X138685766Y-110440687D01*
X138718525Y-110391658D01*
X138727432Y-110385707D01*
X138737942Y-110387797D01*
G37*
%TD.AperFunction*%
%TA.AperFunction,Conductor*%
G36*
X139187943Y-110387797D02*
G01*
X139191805Y-110391659D01*
X139224564Y-110440687D01*
X139273590Y-110473445D01*
X139279543Y-110482355D01*
X139277453Y-110492864D01*
X139273590Y-110496726D01*
X139248574Y-110513442D01*
X139224564Y-110529485D01*
X139191806Y-110578511D01*
X139182896Y-110584464D01*
X139172387Y-110582374D01*
X139168524Y-110578511D01*
X139135766Y-110529485D01*
X139086738Y-110496726D01*
X139080786Y-110487817D01*
X139082876Y-110477308D01*
X139086739Y-110473445D01*
X139135766Y-110440687D01*
X139168524Y-110391659D01*
X139177434Y-110385707D01*
X139187943Y-110387797D01*
G37*
%TD.AperFunction*%
%TA.AperFunction,Conductor*%
G36*
X126522520Y-103377622D02*
G01*
X126573402Y-103416666D01*
X126719481Y-103477174D01*
X126739808Y-103479850D01*
X126749088Y-103485207D01*
X126751861Y-103495557D01*
X126746504Y-103504837D01*
X126739808Y-103507609D01*
X126719481Y-103510286D01*
X126719480Y-103510286D01*
X126573401Y-103570794D01*
X126573399Y-103570795D01*
X126522523Y-103609834D01*
X126512173Y-103612607D01*
X126502893Y-103607250D01*
X126500000Y-103598727D01*
X126500000Y-103388731D01*
X126504101Y-103378832D01*
X126514000Y-103374731D01*
X126522520Y-103377622D01*
G37*
%TD.AperFunction*%
%TD*%
M02*
