M48
; DRILL file {KiCad 7.0.7} date 2023 November 24, Friday 16:48:55
; FORMAT={-:-/ absolute / inch / decimal}
; #@! TF.CreationDate,2023-11-24T16:48:55-08:00
; #@! TF.GenerationSoftware,Kicad,Pcbnew,7.0.7
; #@! TF.FileFunction,Plated,1,4,PTH
FMAT,2
INCH
; #@! TA.AperFunction,Plated,PTH,ViaDrill
T1C0.0059
; #@! TA.AperFunction,Plated,PTH,ComponentDrill
T2C0.0256
; #@! TA.AperFunction,Plated,PTH,ComponentDrill
T3C0.0276
%
G90
G05
T1
X5.3704Y-4.4731
X5.3704Y-4.4908
X5.3704Y-4.5263
X5.3881Y-4.4908
X5.3881Y-4.5086
X5.3881Y-4.5263
X5.3998Y-4.3941
X5.3998Y-4.4295
X5.3998Y-4.4472
X5.4058Y-4.4908
X5.4058Y-4.5086
X5.4175Y-4.3941
X5.4175Y-4.4118
X5.4175Y-4.4472
X5.4235Y-4.5086
X5.4235Y-4.5263
X5.4352Y-4.3409
X5.4352Y-4.3587
X5.4352Y-4.3764
X5.4352Y-4.3941
X5.4352Y-4.4118
X5.4352Y-4.4295
X5.4352Y-4.4472
X5.453Y-4.3409
X5.453Y-4.3587
X5.453Y-4.3764
X5.453Y-4.3941
X5.453Y-4.4118
X5.453Y-4.4295
X5.453Y-4.4472
X5.453Y-4.465
X5.453Y-4.4827
X5.453Y-4.5004
X5.453Y-4.5181
X5.4707Y-4.3409
X5.4707Y-4.3587
X5.4707Y-4.3764
X5.4707Y-4.3941
X5.4707Y-4.4118
X5.4707Y-4.4295
X5.4707Y-4.4472
X5.4707Y-4.465
X5.4707Y-4.4827
X5.4707Y-4.5004
X5.4884Y-4.3409
X5.4884Y-4.3587
X5.4884Y-4.3764
X5.4884Y-4.3941
X5.4884Y-4.4118
X5.4884Y-4.4295
X5.4884Y-4.4472
X5.4884Y-4.465
X5.4884Y-4.4827
X5.4884Y-4.5004
X5.5061Y-4.3409
X5.5061Y-4.3587
X5.5061Y-4.3764
X5.5061Y-4.3941
X5.5061Y-4.4118
X5.5061Y-4.4295
X5.5061Y-4.4472
X5.5061Y-4.465
X5.5061Y-4.4827
X5.5061Y-4.5004
X5.5238Y-4.3409
X5.5238Y-4.3587
X5.5238Y-4.3764
X5.5238Y-4.3941
X5.5238Y-4.4118
X5.5238Y-4.4295
X5.5238Y-4.4472
X5.5238Y-4.465
X5.5238Y-4.4827
X5.5238Y-4.5004
X5.5415Y-4.3409
X5.5415Y-4.3587
X5.5415Y-4.3764
X5.5415Y-4.3941
X5.5415Y-4.4118
X5.5415Y-4.4295
X5.5415Y-4.4472
X5.5415Y-4.465
X5.5415Y-4.4827
X5.5415Y-4.5004
X5.5593Y-4.3409
X5.5593Y-4.3587
X5.5593Y-4.3764
X5.5593Y-4.3941
X5.5593Y-4.4118
X5.5593Y-4.4295
X5.5593Y-4.4472
X5.5593Y-4.465
X5.5593Y-4.4827
X5.5593Y-4.5004
T2
G00X5.3039Y-4.0821
M15
G01X5.3039Y-4.0664
M16
G05
G00X5.4948Y-4.0821
M15
G01X5.4948Y-4.0664
M16
G05
T3
G00X5.2921Y-3.9648
M15
G01X5.2921Y-3.9451
M16
G05
G00X5.5067Y-3.9648
M15
G01X5.5067Y-3.9451
M16
G05
T0
M30
