%TF.GenerationSoftware,KiCad,Pcbnew,7.0.7*%
%TF.CreationDate,2023-11-24T16:48:55-08:00*%
%TF.ProjectId,beeper-design,62656570-6572-42d6-9465-7369676e2e6b,rev?*%
%TF.SameCoordinates,Original*%
%TF.FileFunction,Copper,L1,Top*%
%TF.FilePolarity,Positive*%
%FSLAX46Y46*%
G04 Gerber Fmt 4.6, Leading zero omitted, Abs format (unit mm)*
G04 Created by KiCad (PCBNEW 7.0.7) date 2023-11-24 16:48:55*
%MOMM*%
%LPD*%
G01*
G04 APERTURE LIST*
%TA.AperFunction,SMDPad,CuDef*%
%ADD10R,0.158310X0.330000*%
%TD*%
%TA.AperFunction,SMDPad,CuDef*%
%ADD11R,0.330000X0.158310*%
%TD*%
%TA.AperFunction,SMDPad,CuDef*%
%ADD12R,1.000000X0.600000*%
%TD*%
%TA.AperFunction,SMDPad,CuDef*%
%ADD13R,0.280278X0.600000*%
%TD*%
%TA.AperFunction,SMDPad,CuDef*%
%ADD14R,0.412132X0.950000*%
%TD*%
%TA.AperFunction,SMDPad,CuDef*%
%ADD15R,0.600000X0.280278*%
%TD*%
%TA.AperFunction,SMDPad,CuDef*%
%ADD16C,0.262500*%
%TD*%
%TA.AperFunction,ComponentPad*%
%ADD17O,0.730000X1.460000*%
%TD*%
%TA.AperFunction,ComponentPad*%
%ADD18O,1.200000X2.400000*%
%TD*%
%TA.AperFunction,SMDPad,CuDef*%
%ADD19O,1.050000X2.100000*%
%TD*%
%TA.AperFunction,SMDPad,CuDef*%
%ADD20C,0.250000*%
%TD*%
%TA.AperFunction,SMDPad,CuDef*%
%ADD21R,0.300000X0.800000*%
%TD*%
%TA.AperFunction,SMDPad,CuDef*%
%ADD22R,0.400000X0.800000*%
%TD*%
%TA.AperFunction,SMDPad,CuDef*%
%ADD23R,0.700000X0.750000*%
%TD*%
%TA.AperFunction,SMDPad,CuDef*%
%ADD24R,0.300000X0.520000*%
%TD*%
%TA.AperFunction,SMDPad,CuDef*%
%ADD25R,0.950000X0.412132*%
%TD*%
%TA.AperFunction,SMDPad,CuDef*%
%ADD26C,0.240000*%
%TD*%
%TA.AperFunction,SMDPad,CuDef*%
%ADD27R,0.450000X0.450000*%
%TD*%
%TA.AperFunction,SMDPad,CuDef*%
%ADD28R,0.710555X1.300000*%
%TD*%
%TA.AperFunction,SMDPad,CuDef*%
%ADD29C,0.212500*%
%TD*%
%TA.AperFunction,SMDPad,CuDef*%
%ADD30R,0.280000X0.500000*%
%TD*%
%TA.AperFunction,SMDPad,CuDef*%
%ADD31R,0.500000X0.280000*%
%TD*%
%TA.AperFunction,SMDPad,CuDef*%
%ADD32R,0.700000X0.700000*%
%TD*%
%TA.AperFunction,ViaPad*%
%ADD33C,0.300000*%
%TD*%
%TA.AperFunction,Conductor*%
%ADD34C,0.090000*%
%TD*%
%TA.AperFunction,Conductor*%
%ADD35C,0.280000*%
%TD*%
G04 APERTURE END LIST*
%TA.AperFunction,EtchedComponent*%
%TO.C,*%
G36*
X145040736Y-102259557D02*
G01*
X145066361Y-102270172D01*
X145088366Y-102287057D01*
X145105251Y-102309062D01*
X145115866Y-102334687D01*
X145119486Y-102362187D01*
X145119486Y-102762187D01*
X145115866Y-102789687D01*
X145105251Y-102815312D01*
X145088366Y-102837317D01*
X145066361Y-102854202D01*
X145040736Y-102864817D01*
X145013236Y-102868437D01*
X144985736Y-102864817D01*
X144960111Y-102854202D01*
X144938106Y-102837317D01*
X144921221Y-102815312D01*
X144910606Y-102789687D01*
X144906986Y-102762187D01*
X144906986Y-102362187D01*
X144910606Y-102334687D01*
X144921221Y-102309062D01*
X144938106Y-102287057D01*
X144960111Y-102270172D01*
X144985736Y-102259557D01*
X145013236Y-102255937D01*
X145040736Y-102259557D01*
G37*
%TD.AperFunction*%
%TA.AperFunction,EtchedComponent*%
G36*
X145440736Y-102659557D02*
G01*
X145466361Y-102670172D01*
X145488366Y-102687057D01*
X145505251Y-102709062D01*
X145515866Y-102734687D01*
X145519486Y-102762187D01*
X145519486Y-103162187D01*
X145515866Y-103189687D01*
X145505251Y-103215312D01*
X145488366Y-103237317D01*
X145466361Y-103254202D01*
X145440736Y-103264817D01*
X145413236Y-103268437D01*
X145385736Y-103264817D01*
X145360111Y-103254202D01*
X145338106Y-103237317D01*
X145321221Y-103215312D01*
X145310606Y-103189687D01*
X145306986Y-103162187D01*
X145306986Y-102762187D01*
X145310606Y-102734687D01*
X145321221Y-102709062D01*
X145338106Y-102687057D01*
X145360111Y-102670172D01*
X145385736Y-102659557D01*
X145413236Y-102655937D01*
X145440736Y-102659557D01*
G37*
%TD.AperFunction*%
%TA.AperFunction,EtchedComponent*%
G36*
X145440736Y-102259557D02*
G01*
X145466361Y-102270172D01*
X145488366Y-102287057D01*
X145505251Y-102309062D01*
X145515866Y-102334687D01*
X145519486Y-102362187D01*
X145519486Y-102762187D01*
X145515866Y-102789687D01*
X145505251Y-102815312D01*
X145488366Y-102837317D01*
X145466361Y-102854202D01*
X145440736Y-102864817D01*
X145413236Y-102868437D01*
X145385736Y-102864817D01*
X145360111Y-102854202D01*
X145338106Y-102837317D01*
X145321221Y-102815312D01*
X145310606Y-102789687D01*
X145306986Y-102762187D01*
X145306986Y-102362187D01*
X145310606Y-102334687D01*
X145321221Y-102309062D01*
X145338106Y-102287057D01*
X145360111Y-102270172D01*
X145385736Y-102259557D01*
X145413236Y-102255937D01*
X145440736Y-102259557D01*
G37*
%TD.AperFunction*%
%TA.AperFunction,EtchedComponent*%
G36*
X145440736Y-103059557D02*
G01*
X145466361Y-103070172D01*
X145488366Y-103087057D01*
X145505251Y-103109062D01*
X145515866Y-103134687D01*
X145519486Y-103162187D01*
X145519486Y-103562187D01*
X145515866Y-103589687D01*
X145505251Y-103615312D01*
X145488366Y-103637317D01*
X145466361Y-103654202D01*
X145440736Y-103664817D01*
X145413236Y-103668437D01*
X145385736Y-103664817D01*
X145360111Y-103654202D01*
X145338106Y-103637317D01*
X145321221Y-103615312D01*
X145310606Y-103589687D01*
X145306986Y-103562187D01*
X145306986Y-103162187D01*
X145310606Y-103134687D01*
X145321221Y-103109062D01*
X145338106Y-103087057D01*
X145360111Y-103070172D01*
X145385736Y-103059557D01*
X145413236Y-103055937D01*
X145440736Y-103059557D01*
G37*
%TD.AperFunction*%
%TA.AperFunction,EtchedComponent*%
G36*
X141936039Y-110236910D02*
G01*
X141720790Y-110373752D01*
X141689135Y-110386864D01*
X141655165Y-110391336D01*
X141621195Y-110386864D01*
X141589540Y-110373752D01*
X141562357Y-110352894D01*
X141541499Y-110325711D01*
X141528387Y-110294056D01*
X141523915Y-110260086D01*
X141528387Y-110226116D01*
X141541499Y-110194461D01*
X141562357Y-110167278D01*
X141589540Y-110146420D01*
X141777434Y-110006162D01*
X141936039Y-110236910D01*
G37*
%TD.AperFunction*%
%TA.AperFunction,EtchedComponent*%
G36*
X129876699Y-115366496D02*
G01*
X131081534Y-115821941D01*
X131081534Y-116151941D01*
X130923224Y-116151941D01*
X129786294Y-115703894D01*
X129744171Y-115686447D01*
X129708000Y-115658691D01*
X129680245Y-115622520D01*
X129662797Y-115580398D01*
X129656846Y-115535195D01*
X129662797Y-115489993D01*
X129680245Y-115447870D01*
X129708000Y-115411699D01*
X129744171Y-115383944D01*
X129786294Y-115366496D01*
X129831496Y-115360545D01*
X129876699Y-115366496D01*
G37*
%TD.AperFunction*%
%TA.AperFunction,EtchedComponent*%
G36*
X145040736Y-103059557D02*
G01*
X145066361Y-103070172D01*
X145088366Y-103087057D01*
X145105251Y-103109062D01*
X145115866Y-103134687D01*
X145119486Y-103162187D01*
X145119486Y-103562187D01*
X145115866Y-103589687D01*
X145105251Y-103615312D01*
X145088366Y-103637317D01*
X145066361Y-103654202D01*
X145040736Y-103664817D01*
X145013236Y-103668437D01*
X144985736Y-103664817D01*
X144960111Y-103654202D01*
X144938106Y-103637317D01*
X144921221Y-103615312D01*
X144910606Y-103589687D01*
X144906986Y-103562187D01*
X144906986Y-103162187D01*
X144910606Y-103134687D01*
X144921221Y-103109062D01*
X144938106Y-103087057D01*
X144960111Y-103070172D01*
X144985736Y-103059557D01*
X145013236Y-103055937D01*
X145040736Y-103059557D01*
G37*
%TD.AperFunction*%
%TD*%
D10*
%TO.P,L3,2,2*%
%TO.N,/wpwr.module/RF2*%
X133822270Y-115779501D03*
%TO.P,L3,1,1*%
%TO.N,/wpwr.module/RF1*%
X133350580Y-115779501D03*
%TD*%
%TO.P,L4,2,2*%
%TO.N,/wpwr.module/RF3*%
X131002379Y-115986940D03*
%TO.P,L4,1,1*%
%TO.N,/wpwr.module/RF2*%
X131474069Y-115986940D03*
%TD*%
D11*
%TO.P,C49,1,1*%
%TO.N,/wpwr.module/RF1*%
X134611295Y-115866545D03*
%TO.P,C49,2,2*%
%TO.N,GND*%
X134611295Y-116338235D03*
%TD*%
D12*
%TO.P,U17,1,ANT*%
%TO.N,/wpwr.module/RF3*%
X129831496Y-115535195D03*
%TO.P,U17,2,GND*%
%TO.N,GND*%
X126831496Y-116835195D03*
%TO.P,U17,3,GND*%
X126831496Y-115535195D03*
%TO.P,U17,4,GND*%
X129831496Y-116835195D03*
%TD*%
D11*
%TO.P,C50,1,1*%
%TO.N,/wpwr.module/RF2*%
X132480158Y-115865359D03*
%TO.P,C50,2,2*%
%TO.N,GND*%
X132480158Y-116337049D03*
%TD*%
D13*
%TO.P,C12,1,1*%
%TO.N,GND*%
X146086055Y-108605838D03*
%TO.P,C12,2,2*%
%TO.N,VDDSYS*%
X145266333Y-108605838D03*
%TD*%
D14*
%TO.P,L1,2,2*%
%TO.N,Net-(U1H-LY)*%
X143038108Y-108096660D03*
%TO.P,L1,1,1*%
%TO.N,Net-(U1H-LX)*%
X144375976Y-108096660D03*
%TD*%
D10*
%TO.P,R1,2,2*%
%TO.N,/wpwr.module/V18P*%
X149772869Y-104185183D03*
%TO.P,R1,1,1*%
%TO.N,/wpwr.module/V18F*%
X149301179Y-104185183D03*
%TD*%
D13*
%TO.P,L2,2,2*%
%TO.N,VDDSYS*%
X144629334Y-111115818D03*
%TO.P,L2,1,1*%
%TO.N,Net-(U1H-LZ)*%
X145449056Y-111115818D03*
%TD*%
D15*
%TO.P,C11,1,1*%
%TO.N,GND*%
X139267526Y-105763062D03*
%TO.P,C11,2,2*%
%TO.N,VDDSYS*%
X139267526Y-106582784D03*
%TD*%
D16*
%TO.P,U1,A1,OQSIF_D0*%
%TO.N,unconnected-(U1A-OQSIF_D0-PadA1)*%
X141655165Y-114760086D03*
%TO.P,U1,A2,OQSIF_D1*%
%TO.N,unconnected-(U1A-OQSIF_D1-PadA2)*%
X141205165Y-114760086D03*
%TO.P,U1,A3,OQSIF_D2*%
%TO.N,unconnected-(U1A-OQSIF_D2-PadA3)*%
X140755165Y-114760086D03*
%TO.P,U1,A4,P2_06*%
%TO.N,mcu_mcu-button2_gpio*%
X140305165Y-114760086D03*
%TO.P,U1,A5,P2_07*%
%TO.N,mcu_mcu-wpwr2_gpio*%
X139855165Y-114760086D03*
%TO.P,U1,A6,OQSIF_CS*%
%TO.N,unconnected-(U1A-OQSIF_CS-PadA6)*%
X139405165Y-114760086D03*
%TO.P,U1,A7,V14RF*%
%TO.N,/wpwr.module/V14*%
X138955165Y-114760086D03*
%TO.P,U1,A8,PSUB*%
%TO.N,GND*%
X138505165Y-114760086D03*
%TO.P,U1,A9,RFIOM1*%
X137757665Y-114967586D03*
%TO.P,U1,A10,RFIOP*%
%TO.N,/wpwr.module/RF1*%
X137307665Y-114967586D03*
%TO.P,U1,A11,RFIOM2*%
%TO.N,GND*%
X136857665Y-114967586D03*
%TO.P,U1,A12,PSUBRF*%
X136407665Y-114967586D03*
%TO.P,U1,B1,P2_04*%
%TO.N,mcu_mcu-button1_gpio*%
X141655165Y-114310086D03*
%TO.P,U1,B2,P2_05*%
%TO.N,mcu_mcu-wpwr1_gpio*%
X141205165Y-114310086D03*
%TO.P,U1,B3,OQSIF_D3*%
%TO.N,unconnected-(U1A-OQSIF_D3-PadB3)*%
X140755165Y-114310086D03*
%TO.P,U1,B4,OQSIF_CLK*%
%TO.N,unconnected-(U1A-OQSIF_CLK-PadB4)*%
X140305165Y-114310086D03*
%TO.P,U1,B5,P1_16*%
%TO.N,unconnected-(U1E-P1_16-PadB5)*%
X139855165Y-114310086D03*
%TO.P,U1,B6,P0_07*%
%TO.N,unconnected-(U1D-P0_07-PadB6)*%
X139405165Y-114310086D03*
%TO.P,U1,B7,P0_04*%
%TO.N,mcu_q-spi_sdo*%
X138955165Y-114310086D03*
%TO.P,U1,B8,P1_04*%
%TO.N,unconnected-(U1E-P1_04-PadB8)*%
X138505165Y-114310086D03*
%TO.P,U1,B9,ESDN*%
%TO.N,GND*%
X137757665Y-114517586D03*
%TO.P,U1,B10,nRST*%
%TO.N,unconnected-(U1B-nRST-PadB10)*%
X137307665Y-114517586D03*
%TO.P,U1,B11,P0_18*%
%TO.N,unconnected-(U1D-P0_18-PadB11)*%
X136857665Y-114517586D03*
%TO.P,U1,B12,P0_06*%
%TO.N,unconnected-(U1D-P0_06-PadB12)*%
X136407665Y-114517586D03*
%TO.P,U1,C1,V18F*%
%TO.N,/wpwr.module/V18F*%
X141655165Y-113860086D03*
%TO.P,U1,C2,VSSIOQQ*%
%TO.N,GND*%
X141205165Y-113860086D03*
%TO.P,U1,C3,P0_25*%
%TO.N,unconnected-(U1D-P0_25-PadC3)*%
X140755165Y-113860086D03*
%TO.P,U1,C4,P0_26*%
%TO.N,unconnected-(U1D-P0_26-PadC4)*%
X140305165Y-113860086D03*
%TO.P,U1,C5,P1_21*%
%TO.N,mcu_hap-i2c_scl*%
X139855165Y-113860086D03*
%TO.P,U1,C6,P1_08*%
%TO.N,unconnected-(U1E-P1_08-PadC6)*%
X139405165Y-113860086D03*
%TO.P,U1,C7,P0_00*%
%TO.N,/wpwr.module/mcu_mcu-dbg-m33_swdio*%
X138955165Y-113860086D03*
%TO.P,U1,C8,P0_20*%
%TO.N,unconnected-(U1D-P0_20-PadC8)*%
X138505165Y-113860086D03*
%TO.P,U1,C9,P1_03*%
%TO.N,unconnected-(U1E-P1_03-PadC9)*%
X137757665Y-114067586D03*
%TO.P,U1,C10,P0_11*%
%TO.N,mcu_q-spi_sck*%
X137307665Y-114067586D03*
%TO.P,U1,C11,P0_29*%
%TO.N,mcu_mcu-wpwr0_gpio*%
X136857665Y-114067586D03*
%TO.P,U1,C12,GND_RF2*%
%TO.N,GND*%
X136407665Y-114067586D03*
%TO.P,U1,D1,P1_29*%
%TO.N,unconnected-(U1E-P1_29-PadD1)*%
X141655165Y-113410086D03*
%TO.P,U1,D2,P2_12*%
%TO.N,mcu_c-i2c_sda*%
X141205165Y-113410086D03*
%TO.P,U1,D3,P2_13*%
%TO.N,mcu_hap-gpio0_gpio*%
X140755165Y-113410086D03*
%TO.P,U1,D4,P0_12*%
%TO.N,unconnected-(U1D-P0_12-PadD4)*%
X140305165Y-113410086D03*
%TO.P,U1,D5,P1_02*%
%TO.N,unconnected-(U1E-P1_02-PadD5)*%
X139855165Y-113410086D03*
%TO.P,U1,D6,P0_01*%
%TO.N,/wpwr.module/mcu_mcu-dbg-m33_swdclk*%
X139405165Y-113410086D03*
%TO.P,U1,D7,P0_03*%
%TO.N,unconnected-(U1D-P0_03-PadD7)*%
X138955165Y-113410086D03*
%TO.P,U1,D8,P0_02*%
%TO.N,unconnected-(U1D-P0_02-PadD8)*%
X138505165Y-113410086D03*
%TO.P,U1,D9,P0_05*%
%TO.N,unconnected-(U1D-P0_05-PadD9)*%
X137757665Y-113617586D03*
%TO.P,U1,D10,P0_19*%
%TO.N,unconnected-(U1D-P0_19-PadD10)*%
X137307665Y-113617586D03*
%TO.P,U1,D11,P0_28*%
%TO.N,unconnected-(U1D-P0_28-PadD11)*%
X136857665Y-113617586D03*
%TO.P,U1,D12,GND_RF1*%
%TO.N,GND*%
X136407665Y-113617586D03*
%TO.P,U1,E1,P0_13*%
%TO.N,unconnected-(U1D-P0_13-PadE1)*%
X141655165Y-112960086D03*
%TO.P,U1,E2,P2_14*%
%TO.N,mcu_q-spi_cs*%
X141205165Y-112960086D03*
%TO.P,U1,E3,P2_00*%
%TO.N,mcu_c-i2c_scl*%
X140755165Y-112960086D03*
%TO.P,U1,E4,P2_02*%
%TO.N,/wpwr.module/mcu_conn-uart_rx*%
X140305165Y-112960086D03*
%TO.P,U1,E5,P1_10*%
%TO.N,unconnected-(U1E-P1_10-PadE5)*%
X139855165Y-112960086D03*
%TO.P,U1,E6,P2_03*%
%TO.N,/wpwr.module/mcu_conn-uart_tx*%
X139405165Y-112960086D03*
%TO.P,U1,E7,P0_09*%
%TO.N,unconnected-(U1D-P0_09-PadE7)*%
X138955165Y-112960086D03*
%TO.P,U1,E8,P1_01*%
%TO.N,unconnected-(U1E-P1_01-PadE8)*%
X138505165Y-112960086D03*
%TO.P,U1,E9,P0_14*%
%TO.N,mcu_hap-i2c_sda*%
X138055165Y-112960086D03*
%TO.P,U1,E10,P0_21*%
%TO.N,unconnected-(U1D-P0_21-PadE10)*%
X137605165Y-112960086D03*
%TO.P,U1,E11,GND_XTAL2*%
%TO.N,GND*%
X137155165Y-112960086D03*
%TO.P,U1,E12,GND_XTAL1*%
X136705165Y-112960086D03*
%TO.P,U1,F1,P2_10*%
%TO.N,/wpwr.module/D+*%
X141655165Y-112510086D03*
%TO.P,U1,F2,P1_28*%
%TO.N,unconnected-(U1E-P1_28-PadF2)*%
X141205165Y-112510086D03*
%TO.P,U1,F3,P1_20*%
%TO.N,unconnected-(U1E-P1_20-PadF3)*%
X140755165Y-112510086D03*
%TO.P,U1,F4,P1_19*%
%TO.N,unconnected-(U1E-P1_19-PadF4)*%
X140305165Y-112510086D03*
%TO.P,U1,F5,VSSD4*%
%TO.N,GND*%
X139855165Y-112510086D03*
%TO.P,U1,F6,VSSD3*%
X139405165Y-112510086D03*
%TO.P,U1,F7,P0_24*%
%TO.N,unconnected-(U1D-P0_24-PadF7)*%
X138955165Y-112510086D03*
%TO.P,U1,F8,P0_15*%
%TO.N,unconnected-(U1D-P0_15-PadF8)*%
X138505165Y-112510086D03*
%TO.P,U1,F9,P0_17*%
%TO.N,unconnected-(U1D-P0_17-PadF9)*%
X138055165Y-112510086D03*
%TO.P,U1,F11,XTAL32Mp*%
%TO.N,Net-(U1B-XTAL32Mp)*%
X137155165Y-112510086D03*
%TO.P,U1,F12,XTAL32Mm*%
%TO.N,Net-(U1B-XTAL32Mm)*%
X136705165Y-112510086D03*
%TO.P,U1,G1,P2_11*%
%TO.N,/wpwr.module/D-*%
X141655165Y-112060086D03*
%TO.P,U1,G2,P1_14*%
%TO.N,mcu_q-spi_sdi*%
X141205165Y-112060086D03*
%TO.P,U1,G3,P1_27*%
%TO.N,/wpwr.module/mcu_mcu-mem_sdio1*%
X140755165Y-112060086D03*
%TO.P,U1,G4,P1_17*%
%TO.N,/wpwr.module/mcu_mcu-mem_sdio3*%
X140305165Y-112060086D03*
%TO.P,U1,G5,VSSD1*%
%TO.N,GND*%
X139855165Y-112060086D03*
%TO.P,U1,G6,VSSD2*%
X139405165Y-112060086D03*
%TO.P,U1,G7,VSSD5*%
X138955165Y-112060086D03*
%TO.P,U1,G8,P0_16*%
%TO.N,unconnected-(U1D-P0_16-PadG8)*%
X138505165Y-112060086D03*
%TO.P,U1,G9,P0_10*%
%TO.N,unconnected-(U1D-P0_10-PadG9)*%
X138055165Y-112060086D03*
%TO.P,U1,G10,P0_08*%
%TO.N,unconnected-(U1D-P0_08-PadG10)*%
X137605165Y-112060086D03*
%TO.P,U1,G12,GND_XTAL3*%
%TO.N,GND*%
X136705165Y-112060086D03*
%TO.P,U1,H1,GND_BOOST*%
X141655165Y-111610086D03*
%TO.P,U1,H2,P0_22*%
%TO.N,unconnected-(U1D-P0_22-PadH2)*%
X141205165Y-111610086D03*
%TO.P,U1,H3,P1_26*%
%TO.N,/wpwr.module/mcu_mcu-mem_sck*%
X140755165Y-111610086D03*
%TO.P,U1,H4,P1_13*%
%TO.N,unconnected-(U1E-P1_13-PadH4)*%
X140305165Y-111610086D03*
%TO.P,U1,H5,P1_18*%
%TO.N,/wpwr.module/mcu_mcu-mem_sdio2*%
X139855165Y-111610086D03*
%TO.P,U1,H6,AVS1*%
%TO.N,GND*%
X139405165Y-111610086D03*
%TO.P,U1,H7,AVS2*%
X138955165Y-111610086D03*
%TO.P,U1,H8,AVS3*%
X138505165Y-111610086D03*
%TO.P,U1,H9,P0_23*%
%TO.N,unconnected-(U1D-P0_23-PadH9)*%
X138055165Y-111610086D03*
%TO.P,U1,H10,P0_30*%
%TO.N,unconnected-(U1D-P0_30-PadH10)*%
X137605165Y-111610086D03*
%TO.P,U1,H11,P2_09*%
%TO.N,mcu_hap-gpio1_gpio*%
X137155165Y-111610086D03*
%TO.P,U1,H12,P2_08*%
%TO.N,mcu_mcu-wpwr3_gpio*%
X136705165Y-111610086D03*
%TO.P,U1,J1,LZ*%
%TO.N,Net-(U1H-LZ)*%
X141655165Y-111160086D03*
%TO.P,U1,J2,V18P*%
%TO.N,/wpwr.module/V18P*%
X141205165Y-111160086D03*
%TO.P,U1,J3,P1_24*%
%TO.N,unconnected-(U1E-P1_24-PadJ3)*%
X140755165Y-111160086D03*
%TO.P,U1,J4,P1_09*%
%TO.N,/wpwr.module/mcu_mcu-mem_sdio0*%
X140305165Y-111160086D03*
%TO.P,U1,J5,P1_25*%
%TO.N,/wpwr.module/mcu_mcu-mem_cs*%
X139855165Y-111160086D03*
%TO.P,U1,J6,P1_15*%
%TO.N,unconnected-(U1E-P1_15-PadJ6)*%
X139405165Y-111160086D03*
%TO.P,U1,J7,P1_31*%
%TO.N,/wpwr.module/mcu_mcu-etm_data2*%
X138955165Y-111160086D03*
%TO.P,U1,J8,P1_30*%
%TO.N,/wpwr.module/mcu_mcu-etm_data0*%
X138505165Y-111160086D03*
%TO.P,U1,J9,P2_01*%
%TO.N,mcu_mcu-button0_gpio*%
X138055165Y-111160086D03*
%TO.P,U1,J10,NC*%
%TO.N,unconnected-(U1C-NC-PadJ10)*%
X137605165Y-111160086D03*
%TO.P,U1,J11,NC*%
%TO.N,unconnected-(U1C-NC-PadJ11)*%
X137155165Y-111160086D03*
%TO.P,U1,J12,NC*%
%TO.N,unconnected-(U1C-NC-PadJ12)*%
X136705165Y-111160086D03*
%TO.P,U1,K1,VLED*%
%TO.N,VLED*%
X141655165Y-110710086D03*
%TO.P,U1,K2,V18*%
%TO.N,VDDSYS*%
X141205165Y-110710086D03*
%TO.P,U1,K3,P1_07*%
%TO.N,unconnected-(U1E-P1_07-PadK3)*%
X140755165Y-110710086D03*
%TO.P,U1,K4,P1_00*%
%TO.N,unconnected-(U1E-P1_00-PadK4)*%
X140305165Y-110710086D03*
%TO.P,U1,K5,P0_31*%
%TO.N,/wpwr.module/mcu_mcu-etm_clk*%
X139855165Y-110710086D03*
%TO.P,U1,K6,P1_23*%
%TO.N,/wpwr.module/mcu_mcu-etm_data3*%
X139405165Y-110710086D03*
%TO.P,U1,K7,P1_22*%
%TO.N,/wpwr.module/mcu_mcu-etm_data1*%
X138955165Y-110710086D03*
%TO.P,U1,K8,P1_11*%
%TO.N,board-io_qsen-i3c_sda*%
X138505165Y-110710086D03*
%TO.P,U1,K9,P1_12*%
%TO.N,mcu_q-i3c_scl*%
X138055165Y-110710086D03*
%TO.P,U1,K10,NC*%
%TO.N,unconnected-(U1C-NC-PadK10)*%
X137605165Y-110710086D03*
%TO.P,U1,K11,NC*%
%TO.N,unconnected-(U1C-NC-PadK11)*%
X137155165Y-110710086D03*
%TO.P,U1,K12,NC*%
%TO.N,unconnected-(U1C-NC-PadK12)*%
X136705165Y-110710086D03*
%TO.P,U1,L1,LY*%
%TO.N,Net-(U1H-LY)*%
X141655165Y-110260086D03*
%TO.P,U1,L2,V14*%
%TO.N,/wpwr.module/V14*%
X141205165Y-110260086D03*
%TO.P,U1,L3,V12*%
%TO.N,/wpwr.module/V12*%
X140755165Y-110260086D03*
%TO.P,U1,L4,LED3*%
%TO.N,board-io_rgb_b*%
X140305165Y-110260086D03*
%TO.P,U1,L5,LED1*%
%TO.N,board-io_rgb_r*%
X139855165Y-110260086D03*
%TO.P,U1,L6,LED2*%
%TO.N,board-io_rgb_g*%
X139405165Y-110260086D03*
%TO.P,U1,L7,P0_27*%
%TO.N,unconnected-(U1D-P0_27-PadL7)*%
X138955165Y-110260086D03*
%TO.P,U1,L8,GND_SDADC*%
%TO.N,GND*%
X138505165Y-110260086D03*
%TO.P,U1,L9,GND_VAD*%
X138055165Y-110260086D03*
%TO.P,U1,L10,NC*%
%TO.N,unconnected-(U1C-NC-PadL10)*%
X137605165Y-110260086D03*
%TO.P,U1,L11,NC*%
%TO.N,unconnected-(U1C-NC-PadL11)*%
X137155165Y-110260086D03*
%TO.P,U1,L12,NC*%
%TO.N,unconnected-(U1C-NC-PadL12)*%
X136705165Y-110260086D03*
%TO.P,U1,M1,GND_BUCK*%
%TO.N,GND*%
X141655165Y-109810086D03*
%TO.P,U1,M2,LX*%
%TO.N,Net-(U1H-LX)*%
X141205165Y-109810086D03*
%TO.P,U1,M3,VSYS*%
%TO.N,VDDSYS*%
X140755165Y-109810086D03*
%TO.P,U1,M4,VBAT*%
%TO.N,/wpwr.module/VBAT*%
X140305165Y-109810086D03*
%TO.P,U1,M5,VBUS*%
%TO.N,/wpwr.module/mcu_VBUS*%
X139855165Y-109810086D03*
%TO.P,U1,M6,V30*%
%TO.N,VDD3P0*%
X139405165Y-109810086D03*
%TO.P,U1,M7,P1_05*%
%TO.N,unconnected-(U1E-P1_05-PadM7)*%
X138955165Y-109810086D03*
%TO.P,U1,M8,P1_06*%
%TO.N,unconnected-(U1E-P1_06-PadM8)*%
X138505165Y-109810086D03*
%TO.P,U1,M9,VAD*%
%TO.N,unconnected-(U1B-VAD-PadM9)*%
X138055165Y-109810086D03*
%TO.P,U1,M10,NC*%
%TO.N,unconnected-(U1C-NC-PadM10)*%
X137605165Y-109810086D03*
%TO.P,U1,M11,NC*%
%TO.N,unconnected-(U1C-NC-PadM11)*%
X137155165Y-109810086D03*
%TO.P,U1,M12,NC*%
%TO.N,unconnected-(U1C-NC-PadM12)*%
X136705165Y-109810086D03*
%TD*%
D17*
%TO.P,J6,6,SHIELD*%
%TO.N,Net-(C36-Pad1)*%
X134719176Y-103485414D03*
%TO.P,J6,7,SHIELD*%
X139569176Y-103485414D03*
D18*
%TO.P,J6,8,SHIELD*%
X134419176Y-100455414D03*
%TO.P,J6,9,SHIELD*%
X139869176Y-100455414D03*
D19*
%TO.P,J6,10,SHIELD*%
X134719176Y-103485414D03*
%TO.P,J6,11,SHIELD*%
X139569176Y-103485414D03*
%TD*%
D11*
%TO.P,R9,2,2*%
%TO.N,mcu_q-spi_sdo*%
X136082463Y-107754278D03*
%TO.P,R9,1,1*%
%TO.N,board-io_qsen-i3c_sda*%
X136082463Y-108225968D03*
%TD*%
D10*
%TO.P,R10,2,2*%
%TO.N,mcu_q-spi_sck*%
X132919636Y-109757773D03*
%TO.P,R10,1,1*%
%TO.N,mcu_q-i3c_scl*%
X133391326Y-109757773D03*
%TD*%
D11*
%TO.P,C36,1,1*%
%TO.N,Net-(C36-Pad1)*%
X135733934Y-100013321D03*
%TO.P,C36,2,2*%
%TO.N,GND*%
X135733934Y-99541631D03*
%TD*%
D20*
%TO.P,U4,A1,HPCSP*%
%TO.N,Net-(U4-HPCSP)*%
X151694476Y-104165097D03*
%TO.P,U4,A3,HP_L*%
%TO.N,unconnected-(U4-HP_L-PadA3)*%
X151694476Y-104665097D03*
%TO.P,U4,A5,HP_R*%
%TO.N,unconnected-(U4-HP_R-PadA5)*%
X151694476Y-105165097D03*
%TO.P,U4,A7,DACREF*%
%TO.N,Net-(U4-DACREF)*%
X151694476Y-105665097D03*
%TO.P,U4,A9,VMID*%
%TO.N,Net-(U4-VMID)*%
X151694476Y-106165097D03*
%TO.P,U4,A11,VDD_SP*%
%TO.N,VDDSYS*%
X151694476Y-106665097D03*
%TO.P,U4,A13,SP_N*%
%TO.N,/board-io
flex-conn.beeper-connector
haptic.board-io.hapdrv.rs.collector/SP_N*%
X151694476Y-107165097D03*
%TO.P,U4,A15,MICBIAS1*%
%TO.N,/board-io
flex-conn.beeper-connector
haptic.board-io.hapdrv.rs.collector/MICBIAS1*%
X151694476Y-107665097D03*
%TO.P,U4,A17,MICBIAS2*%
%TO.N,Net-(U4-MICBIAS2)*%
X151694476Y-108165097D03*
%TO.P,U4,B2,GND_CP*%
%TO.N,GND*%
X151354476Y-104415097D03*
%TO.P,U4,B4,GND_SENSE*%
%TO.N,unconnected-(U4-GND_SENSE-PadB4)*%
X151354476Y-104915097D03*
%TO.P,U4,B6,VDD_A*%
%TO.N,Net-(U4-VDD_A)*%
X151354476Y-105415097D03*
%TO.P,U4,B8,VREF*%
%TO.N,Net-(U4-VREF)*%
X151354476Y-105915097D03*
%TO.P,U4,B10,GND_A*%
%TO.N,GND*%
X151354476Y-106415097D03*
%TO.P,U4,B12,SP_P*%
%TO.N,/board-io
flex-conn.beeper-connector
haptic.board-io.hapdrv.rs.collector/SP_P*%
X151354476Y-106915097D03*
%TO.P,U4,B14,VDD_MIC*%
%TO.N,Net-(U4-VDD_A)*%
X151354476Y-107415097D03*
%TO.P,U4,B16,MIC1_N*%
%TO.N,/board-io
flex-conn.beeper-connector
haptic.board-io.hapdrv.rs.collector/board-io_codec-pdm_data*%
X151354476Y-107915097D03*
%TO.P,U4,C1,HPCSN*%
%TO.N,Net-(U4-HPCSN)*%
X151014476Y-104165097D03*
%TO.P,U4,C3,HPCFN*%
%TO.N,Net-(U4-HPCFN)*%
X151014476Y-104665097D03*
%TO.P,U4,C5,DATIN*%
%TO.N,unconnected-(U4-DATIN-PadC5)*%
X151014476Y-105165097D03*
%TO.P,U4,C7,DATOUT*%
%TO.N,unconnected-(U4-DATOUT-PadC7)*%
X151014476Y-105665097D03*
%TO.P,U4,C9,SDA*%
%TO.N,mcu_c-i2c_sda*%
X151014476Y-106165097D03*
%TO.P,U4,C11,MCLK*%
%TO.N,unconnected-(U4-MCLK-PadC11)*%
X151014476Y-106665097D03*
%TO.P,U4,C13,AUX_L*%
%TO.N,unconnected-(U4-AUX_L-PadC13)*%
X151014476Y-107165097D03*
%TO.P,U4,C15,MIC2_N*%
%TO.N,unconnected-(U4-MIC2_N-PadC15)*%
X151014476Y-107665097D03*
%TO.P,U4,C17,MIC1_P*%
%TO.N,/board-io
flex-conn.beeper-connector
haptic.board-io.hapdrv.rs.collector/board-io_codec-pdm_clk*%
X151014476Y-108165097D03*
%TO.P,U4,D2,HPCFP*%
%TO.N,Net-(U4-HPCFP)*%
X150674476Y-104415097D03*
%TO.P,U4,D4,BCLK*%
%TO.N,unconnected-(U4-BCLK-PadD4)*%
X150674476Y-104915097D03*
%TO.P,U4,D6,WCLK*%
%TO.N,unconnected-(U4-WCLK-PadD6)*%
X150674476Y-105415097D03*
%TO.P,U4,D8,SCL*%
%TO.N,mcu_c-i2c_scl*%
X150674476Y-105915097D03*
%TO.P,U4,D10,VDD_IO*%
%TO.N,Net-(U4-VDD_A)*%
X150674476Y-106415097D03*
%TO.P,U4,D12,VDIG*%
%TO.N,Net-(U4-VDIG)*%
X150674476Y-106915097D03*
%TO.P,U4,D14,AUX_R*%
%TO.N,unconnected-(U4-AUX_R-PadD14)*%
X150674476Y-107415097D03*
%TO.P,U4,D16,MIC2_P*%
%TO.N,unconnected-(U4-MIC2_P-PadD16)*%
X150674476Y-107915097D03*
%TD*%
D11*
%TO.P,R18,2,2*%
%TO.N,GND*%
X136458667Y-100000503D03*
%TO.P,R18,1,1*%
%TO.N,Net-(C36-Pad1)*%
X136458667Y-99528813D03*
%TD*%
D21*
%TO.P,U5,1,1*%
%TO.N,/board-io
flex-conn.beeper-connector
haptic.board-io.hapdrv.rs.collector/board-io_codec-pdm_clk*%
X147500000Y-114050000D03*
%TO.P,U5,2,2*%
%TO.N,GND*%
X148000000Y-114050000D03*
%TO.P,U5,3,3*%
X148500000Y-114050000D03*
%TO.P,U5,4,4*%
X149000000Y-114050000D03*
%TO.P,U5,5,5*%
%TO.N,/board-io
flex-conn.beeper-connector
haptic.board-io.hapdrv.rs.collector/board-io_codec-pdm_data*%
X149500000Y-114050000D03*
%TO.P,U5,6,6*%
%TO.N,/board-io
flex-conn.beeper-connector
haptic.board-io.hapdrv.rs.collector/MICBIAS1*%
X150000000Y-114050000D03*
D22*
%TO.P,U5,7,7*%
%TO.N,GND*%
X146750000Y-116550000D03*
%TO.P,U5,8,8*%
X150750000Y-116550000D03*
%TD*%
D10*
%TO.P,R15,1,1*%
%TO.N,mcu_q-i3c_scl*%
X132895736Y-109124322D03*
%TO.P,R15,2,2*%
%TO.N,VDDSYS*%
X133367426Y-109124322D03*
%TD*%
D23*
%TO.P,XTAL1,2,GND1*%
%TO.N,GND*%
X133900526Y-113293541D03*
%TO.P,XTAL1,3,3*%
%TO.N,Net-(U1B-XTAL32Mm)*%
X134800526Y-113293541D03*
%TO.P,XTAL1,4,GND0*%
%TO.N,GND*%
X134799526Y-111993541D03*
%TO.P,XTAL1,1,1*%
%TO.N,Net-(U1B-XTAL32Mp)*%
X133899526Y-111993541D03*
%TD*%
D14*
%TO.P,C3,1,1*%
%TO.N,GND*%
X140615675Y-116728243D03*
%TO.P,C3,2,2*%
%TO.N,/wpwr.module/V14*%
X139277807Y-116728243D03*
%TD*%
D24*
%TO.P,U7,1,D+*%
%TO.N,/wpwr.module/D+*%
X135731335Y-102083204D03*
%TO.P,U7,2,D-*%
%TO.N,/wpwr.module/D-*%
X136231335Y-102083204D03*
%TO.P,U7,3,ID*%
%TO.N,unconnected-(U7-ID-Pad3)*%
X136731335Y-102083204D03*
%TO.P,U7,6,VBUS*%
%TO.N,VBUS*%
X135731335Y-101312204D03*
%TO.P,U7,5,NC*%
%TO.N,unconnected-(U7-NC-Pad5)*%
X136231335Y-101312204D03*
%TO.P,U7,4,GND*%
%TO.N,GND*%
X136731335Y-101312204D03*
%TD*%
D25*
%TO.P,C2,1,1*%
%TO.N,GND*%
X143482328Y-110623039D03*
%TO.P,C2,2,2*%
%TO.N,/wpwr.module/V14*%
X143482328Y-109285171D03*
%TD*%
D10*
%TO.P,R14,1,1*%
%TO.N,board-io_qsen-i3c_sda*%
X132885907Y-108564533D03*
%TO.P,R14,2,2*%
%TO.N,VDDSYS*%
X133357597Y-108564533D03*
%TD*%
D25*
%TO.P,C1,1,1*%
%TO.N,GND*%
X141980612Y-106692517D03*
%TO.P,C1,2,2*%
%TO.N,/wpwr.module/V12*%
X141980612Y-108030385D03*
%TD*%
D10*
%TO.P,R13,1,1*%
%TO.N,mcu_c-i2c_scl*%
X149773589Y-104758607D03*
%TO.P,R13,2,2*%
%TO.N,VDDSYS*%
X149301899Y-104758607D03*
%TD*%
%TO.P,C13,1,1*%
%TO.N,GND*%
X149773085Y-103616252D03*
%TO.P,C13,2,2*%
%TO.N,VDDSYS*%
X149301395Y-103616252D03*
%TD*%
%TO.P,R7,2,2*%
%TO.N,GND*%
X142011000Y-101741826D03*
%TO.P,R7,1,1*%
%TO.N,mcu_mcu-wpwr3_gpio*%
X141539310Y-101741826D03*
%TD*%
%TO.P,R5,2,2*%
%TO.N,GND*%
X141938383Y-103393157D03*
%TO.P,R5,1,1*%
%TO.N,mcu_mcu-wpwr0_gpio*%
X141466693Y-103393157D03*
%TD*%
%TO.P,R6,2,2*%
%TO.N,GND*%
X142033885Y-102855393D03*
%TO.P,R6,1,1*%
%TO.N,mcu_mcu-wpwr1_gpio*%
X141562195Y-102855393D03*
%TD*%
%TO.P,C38,1,1*%
%TO.N,GND*%
X152798624Y-108258371D03*
%TO.P,C38,2,2*%
%TO.N,Net-(U4-MICBIAS2)*%
X152326934Y-108258371D03*
%TD*%
%TO.P,C43,1,1*%
%TO.N,GND*%
X129036360Y-108558222D03*
%TO.P,C43,2,2*%
%TO.N,VDDSYS*%
X129508050Y-108558222D03*
%TD*%
%TO.P,C37,1,1*%
%TO.N,GND*%
X150598771Y-108800507D03*
%TO.P,C37,2,2*%
%TO.N,/board-io
flex-conn.beeper-connector
haptic.board-io.hapdrv.rs.collector/MICBIAS1*%
X150127081Y-108800507D03*
%TD*%
D11*
%TO.P,C28,1,1*%
%TO.N,GND*%
X148317470Y-106955361D03*
%TO.P,C28,2,2*%
%TO.N,Net-(U4-VDD_A)*%
X148317470Y-107427051D03*
%TD*%
%TO.P,C29,1,1*%
%TO.N,GND*%
X145396860Y-106661803D03*
%TO.P,C29,2,2*%
%TO.N,VDDSYS*%
X145396860Y-107133493D03*
%TD*%
%TO.P,R8,2,2*%
%TO.N,GND*%
X142994403Y-104536963D03*
%TO.P,R8,1,1*%
%TO.N,Net-(U3-AD)*%
X142994403Y-105008653D03*
%TD*%
D20*
%TO.P,U2,A1,NC*%
%TO.N,unconnected-(U2-NC-PadA1)*%
X144862568Y-114868836D03*
%TO.P,U2,A5,NC*%
%TO.N,unconnected-(U2-NC-PadA5)*%
X143462568Y-114868836D03*
%TO.P,U2,B2,Vcc*%
%TO.N,VDDSYS*%
X144512568Y-115068836D03*
%TO.P,U2,B4,CSn*%
%TO.N,/wpwr.module/mcu_mcu-mem_cs*%
X143812568Y-115068836D03*
%TO.P,U2,C3,GND*%
%TO.N,GND*%
X144162568Y-115268836D03*
%TO.P,U2,D2,HRn*%
%TO.N,/wpwr.module/mcu_mcu-mem_sdio3*%
X144512568Y-115468836D03*
%TO.P,U2,D4,SO*%
%TO.N,/wpwr.module/mcu_mcu-mem_sdio1*%
X143812568Y-115468836D03*
%TO.P,U2,E3,SI*%
%TO.N,/wpwr.module/mcu_mcu-mem_sdio0*%
X144162568Y-115668836D03*
%TO.P,U2,F2,SCK*%
%TO.N,/wpwr.module/mcu_mcu-mem_sck*%
X144512568Y-115868836D03*
%TO.P,U2,F4,WPn*%
%TO.N,/wpwr.module/mcu_mcu-mem_sdio2*%
X143812568Y-115868836D03*
%TO.P,U2,G1,NC*%
%TO.N,unconnected-(U2-NC-PadG1)*%
X144862568Y-116068836D03*
%TO.P,U2,G5,NC*%
%TO.N,unconnected-(U2-NC-PadG5)*%
X143462568Y-116068836D03*
%TD*%
D11*
%TO.P,C42,1,1*%
%TO.N,GND*%
X130879624Y-111610111D03*
%TO.P,C42,2,2*%
%TO.N,VDDSYS*%
X130879624Y-111138421D03*
%TD*%
D10*
%TO.P,R12,1,1*%
%TO.N,mcu_c-i2c_sda*%
X149743923Y-105340440D03*
%TO.P,R12,2,2*%
%TO.N,VDDSYS*%
X149272233Y-105340440D03*
%TD*%
D15*
%TO.P,C15,1,1*%
%TO.N,Net-(C15-Pad1)*%
X142707818Y-100657514D03*
%TO.P,C15,2,2*%
%TO.N,Net-(U3-CLAMP1)*%
X142707818Y-101477236D03*
%TD*%
D11*
%TO.P,C18,1,1*%
%TO.N,Net-(C16-Pad1)*%
X143848020Y-100843622D03*
%TO.P,C18,2,2*%
%TO.N,Net-(U3-COMM2)*%
X143848020Y-101315312D03*
%TD*%
D10*
%TO.P,C27,1,1*%
%TO.N,GND*%
X149287407Y-102906783D03*
%TO.P,C27,2,2*%
%TO.N,Net-(U4-VDIG)*%
X149759097Y-102906783D03*
%TD*%
%TO.P,C48,1,1*%
%TO.N,GND*%
X133707750Y-104627481D03*
%TO.P,C48,2,2*%
%TO.N,VDDSYS*%
X133236060Y-104627481D03*
%TD*%
D26*
%TO.P,U12,A1,EN*%
%TO.N,mcu_hap-gpio0_gpio*%
X133671887Y-106327878D03*
%TO.P,U12,A2,REG*%
%TO.N,Net-(U12-REG)*%
X133171887Y-106327878D03*
%TO.P,U12,A3,OUT+*%
%TO.N,Net-(U12-OUT+)*%
X132671887Y-106327878D03*
%TO.P,U12,B1,IN_TRIG*%
%TO.N,mcu_hap-gpio1_gpio*%
X133671887Y-105827878D03*
%TO.P,U12,B2,SDA*%
%TO.N,mcu_hap-i2c_sda*%
X133171887Y-105827878D03*
%TO.P,U12,B3,GND*%
%TO.N,GND*%
X132671887Y-105827878D03*
%TO.P,U12,C1,SCL*%
%TO.N,mcu_hap-i2c_scl*%
X133671887Y-105327878D03*
%TO.P,U12,C2,VDD*%
%TO.N,VDDSYS*%
X133171887Y-105327878D03*
%TO.P,U12,C3,OUT-*%
%TO.N,Net-(U12-OUT-)*%
X132671887Y-105327878D03*
%TD*%
D11*
%TO.P,C47,1,1*%
%TO.N,GND*%
X133173593Y-107560994D03*
%TO.P,C47,2,2*%
%TO.N,Net-(U12-REG)*%
X133173593Y-107089304D03*
%TD*%
D15*
%TO.P,C16,1,1*%
%TO.N,Net-(C16-Pad1)*%
X143282230Y-100665474D03*
%TO.P,C16,2,2*%
%TO.N,Net-(U3-CLAMP2)*%
X143282230Y-101485196D03*
%TD*%
D27*
%TO.P,U16,A,A*%
%TO.N,mcu_mcu-button2_gpio*%
X147420500Y-108250000D03*
%TO.P,U16,A1,A1*%
X148179500Y-108250000D03*
%TO.P,U16,B,B*%
%TO.N,GND*%
X147420500Y-105250000D03*
%TO.P,U16,B1,B1*%
X148179500Y-105250000D03*
%TD*%
D10*
%TO.P,C26,1,1*%
%TO.N,GND*%
X152794138Y-105073923D03*
%TO.P,C26,2,2*%
%TO.N,Net-(U4-VDD_A)*%
X152322448Y-105073923D03*
%TD*%
D27*
%TO.P,U15,A,A*%
%TO.N,mcu_mcu-button1_gpio*%
X137420500Y-108250000D03*
%TO.P,U15,A1,A1*%
X138179500Y-108250000D03*
%TO.P,U15,B,B*%
%TO.N,GND*%
X137420500Y-105250000D03*
%TO.P,U15,B1,B1*%
X138179500Y-105250000D03*
%TD*%
D11*
%TO.P,C17,1,1*%
%TO.N,Net-(C15-Pad1)*%
X143632345Y-105007247D03*
%TO.P,C17,2,2*%
%TO.N,Net-(U3-COMM1)*%
X143632345Y-104535557D03*
%TD*%
D10*
%TO.P,C20,1,1*%
%TO.N,Net-(C16-Pad1)*%
X146881613Y-102632819D03*
%TO.P,C20,2,2*%
%TO.N,Net-(U3-BOOT2)*%
X146409923Y-102632819D03*
%TD*%
D11*
%TO.P,C21,1,1*%
%TO.N,Net-(C16-Pad1)*%
X145865063Y-105001054D03*
%TO.P,C21,2,2*%
%TO.N,Net-(C15-Pad1)*%
X145865063Y-104529364D03*
%TD*%
D10*
%TO.P,R16,1,1*%
%TO.N,mcu_hap-i2c_sda*%
X134383991Y-106366536D03*
%TO.P,R16,2,2*%
%TO.N,VDDSYS*%
X134855681Y-106366536D03*
%TD*%
D27*
%TO.P,U14,A,A*%
%TO.N,mcu_mcu-button0_gpio*%
X127420500Y-108250000D03*
%TO.P,U14,A1,A1*%
X128179500Y-108250000D03*
%TO.P,U14,B,B*%
%TO.N,GND*%
X127420500Y-105250000D03*
%TO.P,U14,B1,B1*%
X128179500Y-105250000D03*
%TD*%
D10*
%TO.P,C19,1,1*%
%TO.N,Net-(C15-Pad1)*%
X145257146Y-104569343D03*
%TO.P,C19,2,2*%
%TO.N,Net-(U3-BOOT1)*%
X144785456Y-104569343D03*
%TD*%
%TO.P,R17,1,1*%
%TO.N,mcu_hap-i2c_scl*%
X134382770Y-105290821D03*
%TO.P,R17,2,2*%
%TO.N,VDDSYS*%
X134854460Y-105290821D03*
%TD*%
%TO.P,C32,1,1*%
%TO.N,GND*%
X152823057Y-107601414D03*
%TO.P,C32,2,2*%
%TO.N,Net-(U4-VDD_A)*%
X152351367Y-107601414D03*
%TD*%
D26*
%TO.P,U13,A1,G1*%
%TO.N,VBUS*%
X137375918Y-101638799D03*
%TO.P,U13,A2,D10*%
X137375918Y-101138817D03*
%TO.P,U13,A3,D11*%
X137375918Y-100638799D03*
%TO.P,U13,B1,S2*%
%TO.N,Net-(U13-D12)*%
X137875918Y-101638799D03*
%TO.P,U13,B2,D20*%
%TO.N,VDDSYS*%
X137875918Y-101138817D03*
%TO.P,U13,B3,D12*%
%TO.N,Net-(U13-D12)*%
X137875918Y-100638799D03*
%TO.P,U13,C1,G2*%
%TO.N,unconnected-(U13-G2-PadC1)*%
X138375918Y-101638799D03*
%TO.P,U13,C2,D21*%
%TO.N,VDDSYS*%
X138375918Y-101138817D03*
%TO.P,U13,C3,D22*%
X138375918Y-100638799D03*
%TD*%
D10*
%TO.P,C30,1,1*%
%TO.N,GND*%
X152798347Y-106288258D03*
%TO.P,C30,2,2*%
%TO.N,Net-(U4-VMID)*%
X152326657Y-106288258D03*
%TD*%
D15*
%TO.P,C24,1,1*%
%TO.N,GND*%
X144596628Y-100398900D03*
%TO.P,C24,2,2*%
%TO.N,Net-(C23-Pad2)*%
X144596628Y-101218622D03*
%TD*%
D10*
%TO.P,R4,1,1*%
%TO.N,Net-(U3-FOD)*%
X141053413Y-101729855D03*
%TO.P,R4,2,2*%
%TO.N,Net-(C23-Pad2)*%
X140581723Y-101729855D03*
%TD*%
%TO.P,C31,1,1*%
%TO.N,GND*%
X152793076Y-105636181D03*
%TO.P,C31,2,2*%
%TO.N,Net-(U4-DACREF)*%
X152321386Y-105636181D03*
%TD*%
D15*
%TO.P,C9,1,1*%
%TO.N,GND*%
X140083185Y-105756475D03*
%TO.P,C9,2,2*%
%TO.N,/wpwr.module/mcu_VBUS*%
X140083185Y-106576197D03*
%TD*%
D10*
%TO.P,R3,2,2*%
%TO.N,GND*%
X141057909Y-102312925D03*
%TO.P,R3,1,1*%
%TO.N,Net-(U3-FOD)*%
X140586219Y-102312925D03*
%TD*%
%TO.P,R2,1,1*%
%TO.N,Net-(U3-ILIM)*%
X142027943Y-102310479D03*
%TO.P,R2,2,2*%
%TO.N,Net-(U3-FOD)*%
X141556253Y-102310479D03*
%TD*%
D11*
%TO.P,C14,2,2*%
%TO.N,VDDSYS*%
X144212235Y-105011705D03*
%TO.P,C14,1,1*%
%TO.N,GND*%
X144212235Y-104540015D03*
%TD*%
%TO.P,C10,2,2*%
%TO.N,VLED*%
X141387537Y-105157451D03*
%TO.P,C10,1,1*%
%TO.N,GND*%
X141387537Y-104685761D03*
%TD*%
%TO.P,C33,1,1*%
%TO.N,GND*%
X151820672Y-102977006D03*
%TO.P,C33,2,2*%
%TO.N,Net-(U4-HPCSP)*%
X151820672Y-103448696D03*
%TD*%
%TO.P,C22,1,1*%
%TO.N,Net-(C22-Pad1)*%
X146425196Y-103684656D03*
%TO.P,C22,2,2*%
%TO.N,Net-(C15-Pad1)*%
X146425196Y-103212966D03*
%TD*%
D15*
%TO.P,C23,1,1*%
%TO.N,GND*%
X145444713Y-100420977D03*
%TO.P,C23,2,2*%
%TO.N,Net-(C23-Pad2)*%
X145444713Y-101240699D03*
%TD*%
D11*
%TO.P,C34,1,1*%
%TO.N,GND*%
X150673681Y-102997344D03*
%TO.P,C34,2,2*%
%TO.N,Net-(U4-HPCFP)*%
X150673681Y-103469034D03*
%TD*%
D28*
%TO.P,C6,1,1*%
%TO.N,GND*%
X146520367Y-112305619D03*
%TO.P,C6,2,2*%
%TO.N,/wpwr.module/V18P*%
X144730923Y-112305619D03*
%TD*%
%TO.P,C4,1,1*%
%TO.N,GND*%
X146502199Y-109902067D03*
%TO.P,C4,2,2*%
%TO.N,VDDSYS*%
X144712755Y-109902067D03*
%TD*%
D10*
%TO.P,C5,1,1*%
%TO.N,GND*%
X143700668Y-113134169D03*
%TO.P,C5,2,2*%
%TO.N,/wpwr.module/V18F*%
X143228978Y-113134169D03*
%TD*%
%TO.P,C39,1,1*%
%TO.N,GND*%
X152776712Y-104485806D03*
%TO.P,C39,2,2*%
%TO.N,Net-(U4-VREF)*%
X152305022Y-104485806D03*
%TD*%
D11*
%TO.P,C35,1,1*%
%TO.N,Net-(U4-HPCSN)*%
X151259428Y-102983946D03*
%TO.P,C35,2,2*%
%TO.N,Net-(U4-HPCFN)*%
X151259428Y-103455636D03*
%TD*%
D15*
%TO.P,C7,1,1*%
%TO.N,GND*%
X139268449Y-107404819D03*
%TO.P,C7,2,2*%
%TO.N,VDD3P0*%
X139268449Y-108224541D03*
%TD*%
D29*
%TO.P,U3,A1,PGND*%
%TO.N,GND*%
X145413236Y-102362187D03*
%TO.P,U3,A2,PGND*%
X145413236Y-102762187D03*
%TO.P,U3,A3,PGND*%
X145413236Y-103162187D03*
%TO.P,U3,A4,PGND*%
X145413236Y-103562187D03*
%TO.P,U3,B1,AC2*%
%TO.N,Net-(C16-Pad1)*%
X145013236Y-102362187D03*
%TO.P,U3,B2,AC2*%
X145013236Y-102762187D03*
%TO.P,U3,B3,AC1*%
%TO.N,Net-(C15-Pad1)*%
X145013236Y-103162187D03*
%TO.P,U3,B4,AC1*%
X145013236Y-103562187D03*
%TO.P,U3,C1,BOOT2*%
%TO.N,Net-(U3-BOOT2)*%
X144613236Y-102362187D03*
%TO.P,U3,C2,RECT*%
%TO.N,Net-(C23-Pad2)*%
X144613236Y-102762187D03*
%TO.P,U3,C3,RECT*%
X144613236Y-103162187D03*
%TO.P,U3,C4,BOOT1*%
%TO.N,Net-(U3-BOOT1)*%
X144613236Y-103562187D03*
%TO.P,U3,D1,OUT*%
%TO.N,VDDSYS*%
X144213236Y-102362187D03*
%TO.P,U3,D2,OUT*%
X144213236Y-102762187D03*
%TO.P,U3,D3,OUT*%
X144213236Y-103162187D03*
%TO.P,U3,D4,OUT*%
X144213236Y-103562187D03*
%TO.P,U3,E1,COMM2*%
%TO.N,Net-(U3-COMM2)*%
X143813236Y-102362187D03*
%TO.P,U3,E2,CLAMP2*%
%TO.N,Net-(U3-CLAMP2)*%
X143813236Y-102762187D03*
%TO.P,U3,E3,CLAMP1*%
%TO.N,Net-(U3-CLAMP1)*%
X143813236Y-103162187D03*
%TO.P,U3,E4,COMM1*%
%TO.N,Net-(U3-COMM1)*%
X143813236Y-103562187D03*
%TO.P,U3,F1,TS-CTRL*%
%TO.N,mcu_mcu-wpwr3_gpio*%
X143413236Y-102362187D03*
%TO.P,U3,F2,FOD*%
%TO.N,Net-(U3-FOD)*%
X143413236Y-102762187D03*
%TO.P,U3,F3,nAD-EN*%
%TO.N,Net-(U13-D12)*%
X143413236Y-103162187D03*
%TO.P,U3,F4,nCHG*%
%TO.N,mcu_mcu-wpwr2_gpio*%
X143413236Y-103562187D03*
%TO.P,U3,G1,ILIM*%
%TO.N,Net-(U3-ILIM)*%
X143013236Y-102362187D03*
%TO.P,U3,G2,EN2*%
%TO.N,mcu_mcu-wpwr1_gpio*%
X143013236Y-102762187D03*
%TO.P,U3,G3,EN1*%
%TO.N,mcu_mcu-wpwr0_gpio*%
X143013236Y-103162187D03*
%TO.P,U3,G4,AD*%
%TO.N,Net-(U3-AD)*%
X143013236Y-103562187D03*
%TD*%
D30*
%TO.P,U9,1,SDO_SA0*%
%TO.N,mcu_q-spi_sdi*%
X131955464Y-107946651D03*
%TO.P,U9,2,TDMOUT*%
%TO.N,unconnected-(U9-TDMOUT-Pad2)*%
X131454464Y-107946651D03*
%TO.P,U9,3,BCLK*%
%TO.N,unconnected-(U9-BCLK-Pad3)*%
X130955464Y-107946651D03*
%TO.P,U9,4,INT1*%
%TO.N,unconnected-(U9-INT1-Pad4)*%
X130454464Y-107946651D03*
D31*
%TO.P,U9,5,VDDIO*%
%TO.N,VDDSYS*%
X130279964Y-108621651D03*
%TO.P,U9,6,AH1_QVAR1*%
%TO.N,unconnected-(U9-AH1_QVAR1-Pad6)*%
X130279964Y-109121651D03*
%TO.P,U9,7,GND*%
%TO.N,GND*%
X130279964Y-109621651D03*
D30*
%TO.P,U9,8,VDD*%
%TO.N,VDDSYS*%
X130454464Y-110296651D03*
%TO.P,U9,9,AH2_QVAR2*%
%TO.N,unconnected-(U9-AH2_QVAR2-Pad9)*%
X130955464Y-110296651D03*
%TO.P,U9,10,INT2*%
%TO.N,unconnected-(U9-INT2-Pad10)*%
X131454464Y-110296651D03*
%TO.P,U9,11,WCLK*%
%TO.N,unconnected-(U9-WCLK-Pad11)*%
X131955464Y-110296651D03*
D31*
%TO.P,U9,12,CS*%
%TO.N,mcu_q-spi_cs*%
X132129464Y-109621651D03*
%TO.P,U9,13,SCL*%
%TO.N,mcu_q-i3c_scl*%
X132129464Y-109121651D03*
%TO.P,U9,14,SDA*%
%TO.N,board-io_qsen-i3c_sda*%
X132129864Y-108621651D03*
%TD*%
D15*
%TO.P,C8,1,1*%
%TO.N,GND*%
X140076947Y-107393838D03*
%TO.P,C8,2,2*%
%TO.N,/wpwr.module/VBAT*%
X140076947Y-108213560D03*
%TD*%
D32*
%TO.P,U6,1,A*%
%TO.N,VLED*%
X151821149Y-99730814D03*
%TO.P,U6,2,R*%
%TO.N,board-io_rgb_r*%
X148921149Y-99730814D03*
%TO.P,U6,3,G*%
%TO.N,board-io_rgb_g*%
X148921149Y-100680814D03*
%TO.P,U6,4,B*%
%TO.N,board-io_rgb_b*%
X151821149Y-100680814D03*
%TD*%
D13*
%TO.P,C25,1,1*%
%TO.N,GND*%
X138242579Y-99694231D03*
%TO.P,C25,2,2*%
%TO.N,VBUS*%
X137422857Y-99694231D03*
%TD*%
D33*
%TO.N,unconnected-(U1D-P0_03-PadD7)*%
X138955165Y-113410086D03*
%TO.N,unconnected-(U1D-P0_20-PadC8)*%
X138505165Y-113860086D03*
%TO.N,unconnected-(U1B-nRST-PadB10)*%
X137307665Y-114517586D03*
%TO.N,unconnected-(U1E-P1_00-PadK4)*%
X140305165Y-110710086D03*
%TO.N,unconnected-(U1E-P1_07-PadK3)*%
X140755165Y-110710086D03*
%TO.N,unconnected-(U1E-P1_02-PadD5)*%
X139855165Y-113410086D03*
%TO.N,unconnected-(U1E-P1_13-PadH4)*%
X140305165Y-111610086D03*
%TO.N,unconnected-(U1D-P0_16-PadG8)*%
X138505165Y-112060086D03*
%TO.N,unconnected-(U1E-P1_01-PadE8)*%
X138505165Y-112960086D03*
%TO.N,unconnected-(U1E-P1_04-PadB8)*%
X138505165Y-114310086D03*
%TO.N,unconnected-(U1D-P0_23-PadH9)*%
X138055165Y-111610086D03*
%TO.N,unconnected-(U1D-P0_09-PadE7)*%
X138955165Y-112960086D03*
%TO.N,unconnected-(U1D-P0_02-PadD8)*%
X138505165Y-113410086D03*
%TO.N,unconnected-(U1E-P1_10-PadE5)*%
X139855165Y-112960086D03*
%TO.N,unconnected-(U1D-P0_18-PadB11)*%
X136857665Y-114517586D03*
%TO.N,unconnected-(U1D-P0_25-PadC3)*%
X140755165Y-113860086D03*
%TO.N,unconnected-(U1D-P0_10-PadG9)*%
X138055165Y-112060086D03*
%TO.N,unconnected-(U1E-P1_20-PadF3)*%
X140755165Y-112510086D03*
%TO.N,unconnected-(U1E-P1_28-PadF2)*%
X141205165Y-112510086D03*
%TO.N,unconnected-(U1D-P0_15-PadF8)*%
X138505165Y-112510086D03*
%TO.N,unconnected-(U1D-P0_21-PadE10)*%
X137605165Y-112960086D03*
%TO.N,unconnected-(U1D-P0_12-PadD4)*%
X140305165Y-113410086D03*
%TO.N,unconnected-(U1A-OQSIF_CLK-PadB4)*%
X140305165Y-114310086D03*
%TO.N,unconnected-(U1E-P1_19-PadF4)*%
X140305165Y-112510086D03*
%TO.N,unconnected-(U1D-P0_07-PadB6)*%
X139405165Y-114310086D03*
%TO.N,unconnected-(U1D-P0_26-PadC4)*%
X140305165Y-113860086D03*
%TO.N,unconnected-(U1E-P1_15-PadJ6)*%
X139405165Y-111160086D03*
%TO.N,unconnected-(U1D-P0_27-PadL7)*%
X138955165Y-110260086D03*
%TO.N,unconnected-(U1E-P1_24-PadJ3)*%
X140755165Y-111160086D03*
%TO.N,unconnected-(U1D-P0_08-PadG10)*%
X137605165Y-112060086D03*
%TO.N,unconnected-(U1E-P1_08-PadC6)*%
X139405165Y-113860086D03*
%TO.N,unconnected-(U1D-P0_22-PadH2)*%
X141205165Y-111610086D03*
%TO.N,unconnected-(U1D-P0_24-PadF7)*%
X138955165Y-112510086D03*
%TO.N,unconnected-(U1D-P0_17-PadF9)*%
X138055165Y-112510086D03*
%TO.N,unconnected-(U1E-P1_16-PadB5)*%
X139855165Y-114310086D03*
%TO.N,unconnected-(U1A-OQSIF_D3-PadB3)*%
X140755165Y-114310086D03*
%TO.N,unconnected-(U1D-P0_30-PadH10)*%
X137605165Y-111610086D03*
%TO.N,Net-(U1B-XTAL32Mp)*%
X137155165Y-112510086D03*
%TO.N,mcu_mcu-button0_gpio*%
X138055165Y-111160086D03*
%TO.N,/wpwr.module/mcu_mcu-etm_data3*%
X139405165Y-110710086D03*
%TO.N,/wpwr.module/mcu_mcu-mem_sdio2*%
X139855165Y-111610086D03*
%TO.N,/wpwr.module/V18P*%
X141205165Y-111160086D03*
%TO.N,VDDSYS*%
X141205165Y-110710086D03*
%TO.N,mcu_c-i2c_scl*%
X140755165Y-112960086D03*
%TO.N,/wpwr.module/mcu_mcu-mem_sdio0*%
X140305165Y-111160086D03*
%TO.N,GND*%
X138505165Y-111610086D03*
X138505165Y-114760086D03*
X139405165Y-111610086D03*
X137757665Y-114967586D03*
X136407665Y-114967586D03*
X139855165Y-112510086D03*
X139855165Y-112060086D03*
X138505165Y-110260086D03*
X136857665Y-114967586D03*
X136407665Y-113617586D03*
X138955165Y-111610086D03*
X138955165Y-112060086D03*
X137155165Y-112960086D03*
X139405165Y-112510086D03*
X137757665Y-114517586D03*
X136407665Y-114067586D03*
X138055165Y-110260086D03*
X139405165Y-112060086D03*
X141205165Y-113860086D03*
%TO.N,/wpwr.module/mcu_mcu-etm_data0*%
X138505165Y-111160086D03*
%TO.N,/wpwr.module/mcu_mcu-etm_clk*%
X139855165Y-110710086D03*
%TO.N,mcu_q-spi_cs*%
X141205165Y-112960086D03*
%TO.N,board-io_rgb_b*%
X140305165Y-110260086D03*
%TO.N,/wpwr.module/V12*%
X140755165Y-110260086D03*
%TO.N,/wpwr.module/mcu_mcu-etm_data2*%
X138955165Y-111160086D03*
%TO.N,/wpwr.module/mcu_mcu-dbg-m33_swdio*%
X138955165Y-113860086D03*
%TO.N,/wpwr.module/mcu_conn-uart_rx*%
X140305165Y-112960086D03*
%TO.N,/wpwr.module/mcu_mcu-mem_cs*%
X139855165Y-111160086D03*
%TO.N,/wpwr.module/V14*%
X141205165Y-110260086D03*
%TO.N,/wpwr.module/mcu_mcu-mem_sdio1*%
X140755165Y-112060086D03*
%TO.N,mcu_hap-gpio0_gpio*%
X140755165Y-113410086D03*
%TO.N,mcu_c-i2c_sda*%
X141205165Y-113410086D03*
%TO.N,mcu_mcu-wpwr1_gpio*%
X141205165Y-114310086D03*
%TO.N,mcu_q-spi_sdo*%
X138955165Y-114310086D03*
%TO.N,/wpwr.module/mcu_conn-uart_tx*%
X139405165Y-112960086D03*
%TO.N,mcu_q-spi_sdi*%
X141205165Y-112060086D03*
%TO.N,mcu_hap-i2c_scl*%
X139855165Y-113860086D03*
%TO.N,board-io_rgb_r*%
X139855165Y-110260086D03*
%TO.N,mcu_hap-gpio1_gpio*%
X137155165Y-111610086D03*
%TO.N,board-io_rgb_g*%
X139405165Y-110260086D03*
%TO.N,mcu_mcu-wpwr0_gpio*%
X136857665Y-114067586D03*
%TO.N,/wpwr.module/mcu_mcu-etm_data1*%
X138955165Y-110710086D03*
%TO.N,mcu_q-i3c_scl*%
X138055165Y-110710086D03*
%TO.N,mcu_hap-i2c_sda*%
X138055165Y-112960086D03*
%TO.N,/wpwr.module/mcu_mcu-mem_sdio3*%
X140305165Y-112060086D03*
%TO.N,/wpwr.module/mcu_mcu-mem_sck*%
X140755165Y-111610086D03*
%TO.N,mcu_q-spi_sck*%
X137307665Y-114067586D03*
%TO.N,/wpwr.module/mcu_mcu-dbg-m33_swdclk*%
X139405165Y-113410086D03*
%TO.N,board-io_qsen-i3c_sda*%
X138505165Y-110710086D03*
%TD*%
D34*
%TO.N,GND*%
X136705165Y-112060086D02*
X134799526Y-111993541D01*
X136705165Y-112960086D02*
X135167897Y-112774585D01*
X135167897Y-112774589D02*
G75*
G03*
X135150526Y-112773541I-17397J-143911D01*
G01*
X135150526Y-112773541D02*
X134450526Y-112773541D01*
X134450526Y-112773547D02*
G75*
G03*
X134344708Y-112819407I-26J-144953D01*
G01*
X134344707Y-112819407D02*
X133900526Y-113293541D01*
D35*
%TO.N,Net-(U1H-LY)*%
X143038108Y-108096660D02*
X141978329Y-109992802D01*
X141959232Y-110021812D02*
G75*
G03*
X141978329Y-109992802I-190232J146012D01*
G01*
X141959235Y-110021814D02*
X141938377Y-110048996D01*
X141894072Y-110093294D02*
G75*
G03*
X141938376Y-110048995I-146072J190394D01*
G01*
X141894075Y-110093298D02*
X141866893Y-110114156D01*
X141856737Y-110121538D02*
G75*
G03*
X141866893Y-110114156I-136337J198238D01*
G01*
%TD*%
M02*
